<?xml version="1.0" encoding="UTF-8"?>
<!DOCTYPE svg  PUBLIC '-//W3C//DTD SVG 1.1//EN'  'http://www.w3.org/Graphics/SVG/1.1/DTD/svg11.dtd'>
<svg width="720pt" height="1080pt" version="1.1" viewBox="0 0 720 1080" xmlns="http://www.w3.org/2000/svg" xmlns:xlink="http://www.w3.org/1999/xlink">
<defs>
<style type="text/css">*{stroke-linejoin: round; stroke-linecap: butt}</style>
</defs>
<path d="m0 1080h720v-1080h-720z" fill="#fff"/>
<path d="m40.6 351h676v-316h-676z" fill="#fff"/>
<path d="m62.4 351v-316" clip-path="url(#h)" fill="none" stroke="#b0b0b0" stroke-linecap="square" stroke-width=".8"/>
<defs>
<path id="k" d="m0 0v3.5" stroke="#000" stroke-width=".8"/>
</defs>
<use x="62.382151" y="351.264775" stroke="#000000" stroke-width=".8" xlink:href="#k"/>
<g transform="translate(41.5 366) scale(.1 -.1)">
<defs>
<path id="d" transform="scale(.0156)" d="m1228 531h2203v-531h-2962v531q359 372 979 998 621 627 780 809 303 340 423 576 121 236 121 464 0 372-261 606-261 235-680 235-297 0-627-103-329-103-704-313v638q381 153 712 231 332 78 607 78 725 0 1156-363 431-362 431-968 0-288-108-546-107-257-392-607-78-91-497-524-418-433-1181-1211z"/>
<path id="c" transform="scale(.0156)" d="m2034 4250q-487 0-733-480-245-479-245-1442 0-959 245-1439 246-480 733-480 491 0 736 480 246 480 246 1439 0 963-246 1442-245 480-736 480zm0 500q785 0 1199-621 414-620 414-1801 0-1178-414-1799-414-620-1199-620-784 0-1198 620-414 621-414 1799 0 1181 414 1801 414 621 1198 621z"/>
<path id="ad" transform="scale(.0156)" d="m2419 4116-1594-2491h1594v2491zm-166 550h794v-3041h666v-525h-666v-1100h-628v1100h-2106v609l1940 2957z"/>
<path id="f" transform="scale(.0156)" d="m313 2009h1684v-512h-1684v512z"/>
<path id="aa" transform="scale(.0156)" d="m703 97v575q238-113 481-172 244-59 479-59 625 0 954 420 330 420 377 1277-181-269-460-413-278-144-615-144-700 0-1108 423-408 424-408 1159 0 718 425 1152 425 435 1131 435 810 0 1236-621 427-620 427-1801 0-1103-524-1761-523-658-1407-658-238 0-482 47-243 47-506 141zm1256 1978q425 0 673 290 249 291 249 798 0 503-249 795-248 292-673 292t-673-292-248-795q0-507 248-798 248-290 673-290z"/>
</defs>
<use xlink:href="#d"/>
<use transform="translate(63.6)" xlink:href="#c"/>
<use transform="translate(127)" xlink:href="#d"/>
<use transform="translate(191)" xlink:href="#ad"/>
<use transform="translate(254)" xlink:href="#f"/>
<use transform="translate(291)" xlink:href="#c"/>
<use transform="translate(354)" xlink:href="#aa"/>
</g>
<path d="m161 351v-316" clip-path="url(#h)" fill="none" stroke="#b0b0b0" stroke-linecap="square" stroke-width=".8"/>
<use x="160.597012" y="351.264775" stroke="#000000" stroke-width=".8" xlink:href="#k"/>
<g transform="translate(140 366) scale(.1 -.1)">
<defs>
<path id="e" transform="scale(.0156)" d="m794 531h1031v3560l-1122-225v575l1116 225h631v-4135h1031v-531h-2687v531z"/>
</defs>
<use xlink:href="#d"/>
<use transform="translate(63.6)" xlink:href="#c"/>
<use transform="translate(127)" xlink:href="#d"/>
<use transform="translate(191)" xlink:href="#ad"/>
<use transform="translate(254)" xlink:href="#f"/>
<use transform="translate(291)" xlink:href="#e"/>
<use transform="translate(354)" xlink:href="#e"/>
</g>
<path d="m259 351v-316" clip-path="url(#h)" fill="none" stroke="#b0b0b0" stroke-linecap="square" stroke-width=".8"/>
<use x="258.811873" y="351.264775" stroke="#000000" stroke-width=".8" xlink:href="#k"/>
<g transform="translate(238 366) scale(.1 -.1)">
<defs>
<path id="i" transform="scale(.0156)" d="m691 4666h2478v-532h-1900v-1143q137 47 274 70 138 23 276 23 781 0 1237-428 457-428 457-1159 0-753-469-1171-469-417-1322-417-294 0-599 50-304 50-629 150v635q281-153 581-228t634-75q541 0 856 284 316 284 316 772 0 487-316 771-315 285-856 285-253 0-505-56-251-56-513-175v2344z"/>
</defs>
<use xlink:href="#d"/>
<use transform="translate(63.6)" xlink:href="#c"/>
<use transform="translate(127)" xlink:href="#d"/>
<use transform="translate(191)" xlink:href="#i"/>
<use transform="translate(254)" xlink:href="#f"/>
<use transform="translate(291)" xlink:href="#c"/>
<use transform="translate(354)" xlink:href="#e"/>
</g>
<path d="m354 351v-316" clip-path="url(#h)" fill="none" stroke="#b0b0b0" stroke-linecap="square" stroke-width=".8"/>
<use x="353.806574" y="351.264775" stroke="#000000" stroke-width=".8" xlink:href="#k"/>
<g transform="translate(333 366) scale(.1 -.1)">
<defs>
<path id="ae" transform="scale(.0156)" d="m2597 2516q453-97 707-404 255-306 255-756 0-690-475-1069-475-378-1350-378-293 0-604 58t-642 174v609q262-153 574-231 313-78 654-78 593 0 904 234t311 681q0 413-289 645-289 233-804 233h-544v519h569q465 0 712 186t247 536q0 359-255 551-254 193-729 193-260 0-557-57-297-56-653-174v562q360 100 674 150t592 50q719 0 1137-327 419-326 419-882 0-388-222-655t-631-370z"/>
</defs>
<use xlink:href="#d"/>
<use transform="translate(63.6)" xlink:href="#c"/>
<use transform="translate(127)" xlink:href="#d"/>
<use transform="translate(191)" xlink:href="#i"/>
<use transform="translate(254)" xlink:href="#f"/>
<use transform="translate(291)" xlink:href="#c"/>
<use transform="translate(354)" xlink:href="#ae"/>
</g>
<path d="m452 351v-316" clip-path="url(#h)" fill="none" stroke="#b0b0b0" stroke-linecap="square" stroke-width=".8"/>
<use x="452.021435" y="351.264775" stroke="#000000" stroke-width=".8" xlink:href="#k"/>
<g transform="translate(431 366) scale(.1 -.1)">
<use xlink:href="#d"/>
<use transform="translate(63.6)" xlink:href="#c"/>
<use transform="translate(127)" xlink:href="#d"/>
<use transform="translate(191)" xlink:href="#i"/>
<use transform="translate(254)" xlink:href="#f"/>
<use transform="translate(291)" xlink:href="#c"/>
<use transform="translate(354)" xlink:href="#i"/>
</g>
<path d="m550 351v-316" clip-path="url(#h)" fill="none" stroke="#b0b0b0" stroke-linecap="square" stroke-width=".8"/>
<use x="550.236296" y="351.264775" stroke="#000000" stroke-width=".8" xlink:href="#k"/>
<g transform="translate(529 366) scale(.1 -.1)">
<defs>
<path id="ah" transform="scale(.0156)" d="m525 4666h3e3v-269l-1694-4397h-659l1594 4134h-2241v532z"/>
</defs>
<use xlink:href="#d"/>
<use transform="translate(63.6)" xlink:href="#c"/>
<use transform="translate(127)" xlink:href="#d"/>
<use transform="translate(191)" xlink:href="#i"/>
<use transform="translate(254)" xlink:href="#f"/>
<use transform="translate(291)" xlink:href="#c"/>
<use transform="translate(354)" xlink:href="#ah"/>
</g>
<path d="m650 351v-316" clip-path="url(#h)" fill="none" stroke="#b0b0b0" stroke-linecap="square" stroke-width=".8"/>
<use x="650.061237" y="351.264775" stroke="#000000" stroke-width=".8" xlink:href="#k"/>
<g transform="translate(629 366) scale(.1 -.1)">
<use xlink:href="#d"/>
<use transform="translate(63.6)" xlink:href="#c"/>
<use transform="translate(127)" xlink:href="#d"/>
<use transform="translate(191)" xlink:href="#i"/>
<use transform="translate(254)" xlink:href="#f"/>
<use transform="translate(291)" xlink:href="#c"/>
<use transform="translate(354)" xlink:href="#aa"/>
</g>
<path d="m40.6 351h676" clip-path="url(#h)" fill="none" stroke="#b0b0b0" stroke-linecap="square" stroke-width=".8"/>
<defs>
<path id="l" d="m0 0h-3.5" stroke="#000" stroke-width=".8"/>
</defs>
<use x="40.645553" y="351.264775" stroke="#000000" stroke-width=".8" xlink:href="#l"/>
<g transform="translate(3 355) scale(.1 -.1)">
<defs>
<path id="j" transform="scale(.0156)" d="m684 794h660v-794h-660v794z"/>
<path id="m" transform="scale(.0156)" d="m4488 3438-1429-1435 1429-1428-372-378-1435 1434-1434-1434-369 378 1425 1428-1425 1435 369 378 1434-1435 1435 1435 372-378z"/>
</defs>
<use xlink:href="#c"/>
<use transform="translate(63.6)" xlink:href="#j"/>
<use transform="translate(95.4)" xlink:href="#aa"/>
<use transform="translate(159)" xlink:href="#c"/>
<use transform="translate(223)" xlink:href="#m"/>
</g>
<path d="m40.6 312h676" clip-path="url(#h)" fill="none" stroke="#b0b0b0" stroke-linecap="square" stroke-width=".8"/>
<use x="40.645553" y="311.823253" stroke="#000000" stroke-width=".8" xlink:href="#l"/>
<g transform="translate(3 316) scale(.1 -.1)">
<use xlink:href="#c"/>
<use transform="translate(63.6)" xlink:href="#j"/>
<use transform="translate(95.4)" xlink:href="#aa"/>
<use transform="translate(159)" xlink:href="#i"/>
<use transform="translate(223)" xlink:href="#m"/>
</g>
<path d="m40.6 272h676" clip-path="url(#h)" fill="none" stroke="#b0b0b0" stroke-linecap="square" stroke-width=".8"/>
<use x="40.645553" y="272.38173" stroke="#000000" stroke-width=".8" xlink:href="#l"/>
<g transform="translate(3 276) scale(.1 -.1)">
<use xlink:href="#e"/>
<use transform="translate(63.6)" xlink:href="#j"/>
<use transform="translate(95.4)" xlink:href="#c"/>
<use transform="translate(159)" xlink:href="#c"/>
<use transform="translate(223)" xlink:href="#m"/>
</g>
<path d="m40.6 233h676" clip-path="url(#h)" fill="none" stroke="#b0b0b0" stroke-linecap="square" stroke-width=".8"/>
<use x="40.645553" y="232.940208" stroke="#000000" stroke-width=".8" xlink:href="#l"/>
<g transform="translate(3 237) scale(.1 -.1)">
<use xlink:href="#e"/>
<use transform="translate(63.6)" xlink:href="#j"/>
<use transform="translate(95.4)" xlink:href="#c"/>
<use transform="translate(159)" xlink:href="#i"/>
<use transform="translate(223)" xlink:href="#m"/>
</g>
<path d="m40.6 193h676" clip-path="url(#h)" fill="none" stroke="#b0b0b0" stroke-linecap="square" stroke-width=".8"/>
<use x="40.645553" y="193.498685" stroke="#000000" stroke-width=".8" xlink:href="#l"/>
<g transform="translate(3 197) scale(.1 -.1)">
<use xlink:href="#e"/>
<use transform="translate(63.6)" xlink:href="#j"/>
<use transform="translate(95.4)" xlink:href="#e"/>
<use transform="translate(159)" xlink:href="#c"/>
<use transform="translate(223)" xlink:href="#m"/>
</g>
<path d="m40.6 154h676" clip-path="url(#h)" fill="none" stroke="#b0b0b0" stroke-linecap="square" stroke-width=".8"/>
<use x="40.645553" y="154.057163" stroke="#000000" stroke-width=".8" xlink:href="#l"/>
<g transform="translate(3 158) scale(.1 -.1)">
<use xlink:href="#e"/>
<use transform="translate(63.6)" xlink:href="#j"/>
<use transform="translate(95.4)" xlink:href="#e"/>
<use transform="translate(159)" xlink:href="#i"/>
<use transform="translate(223)" xlink:href="#m"/>
</g>
<path d="m40.6 115h676" clip-path="url(#h)" fill="none" stroke="#b0b0b0" stroke-linecap="square" stroke-width=".8"/>
<use x="40.645553" y="114.61564" stroke="#000000" stroke-width=".8" xlink:href="#l"/>
<g transform="translate(3 118) scale(.1 -.1)">
<use xlink:href="#e"/>
<use transform="translate(63.6)" xlink:href="#j"/>
<use transform="translate(95.4)" xlink:href="#d"/>
<use transform="translate(159)" xlink:href="#c"/>
<use transform="translate(223)" xlink:href="#m"/>
</g>
<path d="m40.6 75.2h676" clip-path="url(#h)" fill="none" stroke="#b0b0b0" stroke-linecap="square" stroke-width=".8"/>
<use x="40.645553" y="75.174118" stroke="#000000" stroke-width=".8" xlink:href="#l"/>
<g transform="translate(3 79) scale(.1 -.1)">
<use xlink:href="#e"/>
<use transform="translate(63.6)" xlink:href="#j"/>
<use transform="translate(95.4)" xlink:href="#d"/>
<use transform="translate(159)" xlink:href="#i"/>
<use transform="translate(223)" xlink:href="#m"/>
</g>
<path d="m40.6 35.7h676" clip-path="url(#h)" fill="none" stroke="#b0b0b0" stroke-linecap="square" stroke-width=".8"/>
<use x="40.645553" y="35.732595" stroke="#000000" stroke-width=".8" xlink:href="#l"/>
<g transform="translate(3 39.5) scale(.1 -.1)">
<use xlink:href="#e"/>
<use transform="translate(63.6)" xlink:href="#j"/>
<use transform="translate(95.4)" xlink:href="#ae"/>
<use transform="translate(159)" xlink:href="#c"/>
<use transform="translate(223)" xlink:href="#m"/>
</g>
<path d="m389 218 1.05 78.3 10.1-58.5 11.4-29.2 2.85 59.7 4.58-34.6 3.82 1.27 11-4.23 11.6 2.93 11.1 8.27 11.4-3.75 11.3 2.54 10.6 4.09 11.9-12.4 11.2 2.18 10.9 6.76 11.3-3.47 11 2.32 11.9-3.75 11 1.02 11.4 3.28 11.1-4.84 11.2 5.24 11.4-6.85 11 0.705 11.3 3.01 11.7-0.582 11.2-4.05 11 5.25 10.6-5.03" clip-path="url(#h)" fill="none" stroke="#1f77b4" stroke-dasharray="1.5,2.475" stroke-opacity=".9" stroke-width="1.5"/>
<defs>
<path id="a" d="m-2.5 2.5h5v-5h-5z" stroke="#1f77b4" stroke-opacity=".9"/>
</defs>
<g clip-path="url(#h)" fill="#1f77b4" fill-opacity=".9" stroke="#1f77b4" stroke-opacity=".9">
<use x="388.674788" y="217.972608" xlink:href="#a"/>
<use x="389.727061" y="296.236601" xlink:href="#a"/>
<use x="399.845685" y="237.786525" xlink:href="#a"/>
<use x="411.228296" y="208.609505" xlink:href="#a"/>
<use x="414.081584" y="268.348273" xlink:href="#a"/>
<use x="418.658888" y="233.780467" xlink:href="#a"/>
<use x="422.475877" y="235.050049" xlink:href="#a"/>
<use x="433.451123" y="230.815623" xlink:href="#a"/>
<use x="445.025844" y="233.746182" xlink:href="#a"/>
<use x="456.151029" y="242.018666" xlink:href="#a"/>
<use x="467.560139" y="238.265931" xlink:href="#a"/>
<use x="478.81659" y="240.808105" xlink:href="#a"/>
<use x="489.410318" y="244.894915" xlink:href="#a"/>
<use x="501.299974" y="232.452493" xlink:href="#a"/>
<use x="512.543361" y="234.631196" xlink:href="#a"/>
<use x="523.473492" y="241.389536" xlink:href="#a"/>
<use x="534.776493" y="237.922981" xlink:href="#a"/>
<use x="545.821454" y="240.240096" xlink:href="#a"/>
<use x="557.743777" y="236.494728" xlink:href="#a"/>
<use x="568.701972" y="237.514392" xlink:href="#a"/>
<use x="580.071781" y="240.796986" xlink:href="#a"/>
<use x="591.161223" y="235.961163" xlink:href="#a"/>
<use x="602.35096" y="241.196596" xlink:href="#a"/>
<use x="613.796223" y="234.349573" xlink:href="#a"/>
<use x="624.802869" y="235.054912" xlink:href="#a"/>
<use x="636.128196" y="238.062197" xlink:href="#a"/>
<use x="647.804237" y="237.479779" xlink:href="#a"/>
<use x="659.043934" y="233.425243" xlink:href="#a"/>
<use x="670.083323" y="238.674516" xlink:href="#a"/>
<use x="680.721775" y="233.64949" xlink:href="#a"/>
</g>
<path d="m389 180 11.2-2.98 11.4 45.3 11.2 19.4 11-18.7 22.7 19.8 11.4-11.4 11.3 8.54 10.6 3.35 11.9-5.19 11.2 7.39 10.9 0.914 11.3-5.32 11-9.35 11.9-2.7 11 11.3 11.4-11.2 11.1 11.7 11.2 2.95 11.4-12.7 11 6.39 11.3 10.5 11.7-7.76 11.2 3.14 11 2.59 10.6-0.321" clip-path="url(#h)" fill="none" stroke="#2ca02c" stroke-linecap="square" stroke-opacity=".9" stroke-width="1.5"/>
<defs>
<path id="b" d="m0-2.5-2.5 5h5z" stroke="#2ca02c" stroke-opacity=".9"/>
</defs>
<g clip-path="url(#h)" fill="#2ca02c" fill-opacity=".9" stroke="#2ca02c" stroke-opacity=".9">
<use x="388.674788" y="179.969255" xlink:href="#b"/>
<use x="399.845685" y="176.992682" xlink:href="#b"/>
<use x="411.228296" y="222.29429" xlink:href="#b"/>
<use x="422.475877" y="241.648786" xlink:href="#b"/>
<use x="433.451123" y="222.987989" xlink:href="#b"/>
<use x="456.151029" y="242.766761" xlink:href="#b"/>
<use x="467.560139" y="231.392996" xlink:href="#b"/>
<use x="478.81659" y="239.932954" xlink:href="#b"/>
<use x="489.410318" y="243.285585" xlink:href="#b"/>
<use x="501.299974" y="238.099275" xlink:href="#b"/>
<use x="512.543361" y="245.490371" xlink:href="#b"/>
<use x="523.473492" y="246.40392" xlink:href="#b"/>
<use x="534.776493" y="241.082656" xlink:href="#b"/>
<use x="545.821454" y="231.732085" xlink:href="#b"/>
<use x="557.743777" y="229.028803" xlink:href="#b"/>
<use x="568.701972" y="240.35378" xlink:href="#b"/>
<use x="580.071781" y="229.114718" xlink:href="#b"/>
<use x="591.161223" y="240.773911" xlink:href="#b"/>
<use x="602.35096" y="243.720306" xlink:href="#b"/>
<use x="613.796223" y="231.056954" xlink:href="#b"/>
<use x="624.802869" y="237.443133" xlink:href="#b"/>
<use x="636.128196" y="247.931794" xlink:href="#b"/>
<use x="647.804237" y="240.168016" xlink:href="#b"/>
<use x="659.043934" y="243.305943" xlink:href="#b"/>
<use x="670.083323" y="245.895074" xlink:href="#b"/>
<use x="680.721775" y="245.574127" xlink:href="#b"/>
</g>
<path d="m40.6 351v-316" fill="none" stroke="#000" stroke-linecap="square" stroke-width=".8"/>
<path d="m717 351v-316" fill="none" stroke="#000" stroke-linecap="square" stroke-width=".8"/>
<path d="m40.6 351h676" fill="none" stroke="#000" stroke-linecap="square" stroke-width=".8"/>
<path d="m40.6 35.7h676" fill="none" stroke="#000" stroke-linecap="square" stroke-width=".8"/>
<g clip-path="url(#h)">
<g transform="translate(58.2 264) rotate(-90) scale(.1 -.1)">
<defs>
<path id="x" transform="scale(.0156)" d="m2375 4863v-479h-550q-309 0-430-125-120-125-120-450v-309h947v-447h-947v-3053h-578v3053h-550v447h550v244q0 584 272 851 272 268 862 268h544z"/>
<path id="r" transform="scale(.0156)" d="m2194 1759q-697 0-966-159t-269-544q0-306 202-486 202-179 548-179 479 0 768 339t289 901v128h-572zm1147 238v-2e3h-575v531q-197-318-491-470t-719-152q-537 0-855 302-317 302-317 808 0 590 395 890 396 300 1180 300h807v57q0 397-261 614t-733 217q-300 0-585-72-284-72-546-216v532q315 122 612 182 297 61 578 61 760 0 1135-394 375-393 375-1193z"/>
<path id="s" transform="scale(.0156)" d="m2834 3397v-544q-243 125-506 187-262 63-544 63-428 0-642-131t-214-394q0-200 153-314t616-217l197-44q612-131 870-370t258-667q0-488-386-773-386-284-1061-284-281 0-586 55t-642 164v594q319-166 628-249 309-82 613-82 406 0 624 139 219 139 219 392 0 234-158 359-157 125-692 241l-200 47q-534 112-772 345-237 233-237 639 0 494 350 762 350 269 994 269 318 0 599-47 282-46 519-140z"/>
<path id="n" transform="scale(.0156)" d="m1172 4494v-994h1184v-447h-1184v-1900q0-428 117-550t477-122h590v-481h-590q-666 0-919 248-253 249-253 905v1900h-422v447h422v994h578z"/>
<path id="g" transform="scale(.0156)" d="m3597 1894v-281h-2644q38-594 358-905t892-311q331 0 642 81t618 244v-544q-310-131-635-200t-659-69q-838 0-1327 487-489 488-489 1320 0 859 464 1363 464 505 1252 505 706 0 1117-455 411-454 411-1235zm-575 169q-6 471-264 752-258 282-683 282-481 0-770-272t-333-766l2050 4z"/>
<path id="q" transform="scale(.0156)" d="m2631 2963q-97 56-211 82-114 27-251 27-488 0-749-317t-261-911v-1844h-578v3500h578v-544q182 319 472 473 291 155 707 155 59 0 131-8 72-7 159-23l3-590z"/>
<path id="ao" transform="scale(.0156)" d="m8863 2147v-281l-1229-1228-375 375 729 728h-7622v531h7622l-729 728 375 375 1229-1228z"/>
</defs>
<use xlink:href="#x"/>
<use transform="translate(35.2)" xlink:href="#r"/>
<use transform="translate(96.5)" xlink:href="#s"/>
<use transform="translate(149)" xlink:href="#n"/>
<use transform="translate(188)" xlink:href="#g"/>
<use transform="translate(249)" xlink:href="#q"/>
<use transform="translate(290)" xlink:href="#DejaVuSans-20"/>
<use transform="translate(322)" xlink:href="#ao"/>
</g>
</g>
<g clip-path="url(#h)">
<g transform="translate(58.2 332) rotate(-90) scale(.1 -.1)">
<defs>
<path id="ap" transform="scale(.0156)" d="m313 1866v281l1228 1228 375-375-728-728h7621v-531h-7621l728-728-375-375-1228 1228z"/>
<path id="w" transform="scale(.0156)" d="m603 4863h575v-4863h-575v4863z"/>
<path id="t" transform="scale(.0156)" d="m1959 3097q-462 0-731-361t-269-989 267-989q268-361 733-361 460 0 728 362 269 363 269 988 0 622-269 986-268 364-728 364zm0 487q750 0 1178-488 429-487 429-1349 0-859-429-1349-428-489-1178-489-753 0-1180 489-426 490-426 1349 0 862 426 1349 427 488 1180 488z"/>
<path id="af" transform="scale(.0156)" d="m269 3500h575l719-2731 715 2731h678l719-2731 716 2731h575l-916-3500h-678l-753 2869-756-2869h-679l-915 3500z"/>
</defs>
<use xlink:href="#ap"/>
<use transform="translate(143)" xlink:href="#DejaVuSans-20"/>
<use transform="translate(175)" xlink:href="#s"/>
<use transform="translate(227)" xlink:href="#w"/>
<use transform="translate(255)" xlink:href="#t"/>
<use transform="translate(316)" xlink:href="#af"/>
<use transform="translate(398)" xlink:href="#g"/>
<use transform="translate(460)" xlink:href="#q"/>
</g>
</g>
<g transform="translate(174 29.7) scale(.12 -.12)">
<defs>
<path id="al" transform="scale(.0156)" d="m628 4666h2950v-532h-2319v-1381h2222v-531h-2222v-1691h2375v-531h-3006v4666z"/>
<path id="y" transform="scale(.0156)" d="m3122 3366v-538q-244 135-489 202t-495 67q-560 0-870-355-309-354-309-995t309-996q310-354 870-354 250 0 495 67t489 202v-532q-241-112-499-168-257-57-548-57-791 0-1257 497-465 497-465 1341 0 856 470 1346 471 491 1290 491 265 0 518-55 253-54 491-163z"/>
<path id="ar" transform="scale(.0156)" d="m3116 1747q0 634-261 995t-717 361q-457 0-718-361t-261-995 261-995 718-361q456 0 717 361t261 995zm-1957 1222q182 312 458 463 277 152 661 152 638 0 1036-506 399-506 399-1331t-399-1332q-398-506-1036-506-384 0-661 152-276 152-458 464v-525h-578v4863h578v-1894z"/>
<path id="ab" transform="scale(.0156)" d="m544 1381v2119h575v-2097q0-497 193-746 194-248 582-248 465 0 735 297 271 297 271 810v1984h575v-3500h-575v538q-209-319-486-474-276-155-642-155-603 0-916 375-312 375-312 1097zm1447 2203z"/>
<path id="u" transform="scale(.0156)" d="m603 3500h575v-3500h-575v3500zm0 1363h575v-729h-575v729z"/>
<path id="ak" transform="scale(.0156)" d="m2906 2969v1894h575v-4863h-575v525q-181-312-458-464-276-152-664-152-634 0-1033 506-398 507-398 1332t398 1331q399 506 1033 506 388 0 664-152 277-151 458-463zm-1959-1222q0-634 261-995t717-361 718 361q263 361 263 995t-263 995q-262 361-718 361t-717-361-261-995z"/>
<path id="aq" transform="scale(.0156)" d="m3513 2113v-2113h-575v2094q0 497-194 743-194 247-581 247-466 0-735-297-269-296-269-809v-1978h-578v4863h578v-1907q207 316 486 472 280 156 646 156 603 0 912-373 310-373 310-1098z"/>
<path id="z" transform="scale(.0156)" d="m3513 2113v-2113h-575v2094q0 497-194 743-194 247-581 247-466 0-735-297-269-296-269-809v-1978h-578v3500h578v-544q207 316 486 472 280 156 646 156 603 0 912-373 310-373 310-1098z"/>
<path id="aj" transform="scale(.0156)" d="m2906 1791q0 625-258 968-257 344-723 344-462 0-720-344-258-343-258-968 0-622 258-966t720-344q466 0 723 344 258 344 258 966zm575-1357q0-893-397-1329-396-436-1215-436-303 0-572 45t-522 139v559q253-137 500-202 247-66 503-66 566 0 847 295t281 892v285q-178-310-456-463t-666-153q-643 0-1037 490-394 491-394 1301 0 812 394 1302 394 491 1037 491 388 0 666-153t456-462v531h575v-3066z"/>
<path id="ac" transform="scale(.0156)" d="m191 3500h609l1094-2937 1094 2937h609l-1313-3500h-781l-1312 3500z"/>
<path id="ag" transform="scale(.0156)" d="m-19 4666h3947v-532h-1656v-4134h-634v4134h-1657v532z"/>
<path id="an" transform="scale(.0156)" d="m1984 4856q-418-718-622-1422-203-703-203-1425 0-721 205-1429t620-1424h-500q-468 735-701 1444t-233 1409q0 697 231 1403 232 707 703 1444h500z"/>
<path id="v" transform="scale(.0156)" d="m3328 2828q216 388 516 572t706 184q547 0 844-383 297-382 297-1088v-2113h-578v2094q0 503-179 746-178 244-543 244-447 0-707-297-259-296-259-809v-1978h-578v2094q0 506-178 748t-550 242q-441 0-701-298-259-298-259-808v-1978h-578v3500h578v-544q197 322 472 475t653 153q382 0 649-194 267-193 395-562z"/>
<path id="am" transform="scale(.0156)" d="m513 4856h500q468-737 701-1444 233-706 233-1403 0-700-233-1409t-701-1444h-500q415 716 620 1424t205 1429q0 722-205 1425-205 704-620 1422z"/>
</defs>
<use xlink:href="#al"/>
<use transform="translate(63.2)" xlink:href="#x"/>
<use transform="translate(98.4)" xlink:href="#x"/>
<use transform="translate(134)" xlink:href="#g"/>
<use transform="translate(195)" xlink:href="#y"/>
<use transform="translate(250)" xlink:href="#n"/>
<use transform="translate(289)" xlink:href="#DejaVuSans-20"/>
<use transform="translate(321)" xlink:href="#t"/>
<use transform="translate(382)" xlink:href="#x"/>
<use transform="translate(417)" xlink:href="#DejaVuSans-20"/>
<use transform="translate(449)" xlink:href="#ar"/>
<use transform="translate(513)" xlink:href="#ab"/>
<use transform="translate(576)" xlink:href="#u"/>
<use transform="translate(604)" xlink:href="#w"/>
<use transform="translate(632)" xlink:href="#ak"/>
<use transform="translate(695)" xlink:href="#DejaVuSans-20"/>
<use transform="translate(727)" xlink:href="#af"/>
<use transform="translate(809)" xlink:href="#u"/>
<use transform="translate(837)" xlink:href="#n"/>
<use transform="translate(876)" xlink:href="#aq"/>
<use transform="translate(939)" xlink:href="#DejaVuSans-20"/>
<use transform="translate(971)" xlink:href="#w"/>
<use transform="translate(999)" xlink:href="#r"/>
<use transform="translate(1060)" xlink:href="#n"/>
<use transform="translate(1099)" xlink:href="#g"/>
<use transform="translate(1161)" xlink:href="#s"/>
<use transform="translate(1213)" xlink:href="#n"/>
<use transform="translate(1252)" xlink:href="#DejaVuSans-20"/>
<use transform="translate(1284)" xlink:href="#y"/>
<use transform="translate(1339)" xlink:href="#w"/>
<use transform="translate(1367)" xlink:href="#r"/>
<use transform="translate(1428)" xlink:href="#z"/>
<use transform="translate(1491)" xlink:href="#aj"/>
<use transform="translate(1555)" xlink:href="#DejaVuSans-20"/>
<use transform="translate(1586)" xlink:href="#r"/>
<use transform="translate(1648)" xlink:href="#z"/>
<use transform="translate(1711)" xlink:href="#ak"/>
<use transform="translate(1775)" xlink:href="#DejaVuSans-20"/>
<use transform="translate(1806)" xlink:href="#n"/>
<use transform="translate(1846)" xlink:href="#r"/>
<use transform="translate(1907)" xlink:href="#u"/>
<use transform="translate(1935)" xlink:href="#w"/>
<use transform="translate(1962)" xlink:href="#y"/>
<use transform="translate(2017)" xlink:href="#r"/>
<use transform="translate(2079)" xlink:href="#w"/>
<use transform="translate(2106)" xlink:href="#w"/>
<use transform="translate(2134)" xlink:href="#DejaVuSans-20"/>
<use transform="translate(2166)" xlink:href="#ac"/>
<use transform="translate(2225)" xlink:href="#s"/>
<use transform="translate(2277)" xlink:href="#j"/>
<use transform="translate(2309)" xlink:href="#DejaVuSans-20"/>
<use transform="translate(2341)" xlink:href="#ag"/>
<use transform="translate(2399)" xlink:href="#u"/>
<use transform="translate(2427)" xlink:href="#g"/>
<use transform="translate(2488)" xlink:href="#q"/>
<use transform="translate(2529)" xlink:href="#DejaVuSans-20"/>
<use transform="translate(2561)" xlink:href="#e"/>
<use transform="translate(2625)" xlink:href="#DejaVuSans-20"/>
<use transform="translate(2656)" xlink:href="#an"/>
<use transform="translate(2696)" xlink:href="#s"/>
<use transform="translate(2748)" xlink:href="#r"/>
<use transform="translate(2809)" xlink:href="#v"/>
<use transform="translate(2906)" xlink:href="#g"/>
<use transform="translate(2968)" xlink:href="#DejaVuSans-20"/>
<use transform="translate(3e3)" xlink:href="#y"/>
<use transform="translate(3055)" xlink:href="#t"/>
<use transform="translate(3116)" xlink:href="#v"/>
<use transform="translate(3213)" xlink:href="#v"/>
<use transform="translate(3311)" xlink:href="#u"/>
<use transform="translate(3338)" xlink:href="#n"/>
<use transform="translate(3378)" xlink:href="#am"/>
</g>
<path d="m47.6 73.1h82.6q2 0 2-2v-28.4q0-2-2-2h-82.6q-2 0-2 2v28.4q0 2 2 2z" fill="#fff" opacity=".8" stroke="#ccc"/>
<path d="m49.6 48.8h10 10" fill="none" stroke="#1f77b4" stroke-dasharray="1.5,2.475" stroke-opacity=".9" stroke-width="1.5"/>
<use x="59.645553" y="48.831032" fill="#1f77b4" fill-opacity=".9" stroke="#1f77b4" stroke-opacity=".9" xlink:href="#a"/>
<g transform="translate(77.6 52.3) scale(.1 -.1)">
<defs>
<path id="ai" transform="scale(.0156)" d="m3513 3500-1266-1703 1331-1797h-678l-1019 1375-1018-1375h-679l1360 1831-1244 1669h678l928-1247 928 1247h679z"/>
</defs>
<use xlink:href="#w"/>
<use transform="translate(27.8)" xlink:href="#u"/>
<use transform="translate(55.6)" xlink:href="#z"/>
<use transform="translate(119)" xlink:href="#ab"/>
<use transform="translate(182)" xlink:href="#ai"/>
<use transform="translate(242)" xlink:href="#f"/>
<use transform="translate(275)" xlink:href="#ac"/>
<use transform="translate(334)" xlink:href="#ab"/>
<use transform="translate(398)" xlink:href="#w"/>
<use transform="translate(425)" xlink:href="#n"/>
<use transform="translate(465)" xlink:href="#q"/>
</g>
<path d="m49.6 63.5h10 10" fill="none" stroke="#2ca02c" stroke-linecap="square" stroke-opacity=".9" stroke-width="1.5"/>
<use x="59.645553" y="63.509158" fill="#2ca02c" fill-opacity=".9" stroke="#2ca02c" stroke-opacity=".9" xlink:href="#b"/>
<g transform="translate(77.6 67) scale(.1 -.1)">
<use xlink:href="#v"/>
<use transform="translate(97.4)" xlink:href="#r"/>
<use transform="translate(159)" xlink:href="#y"/>
<use transform="translate(214)" xlink:href="#t"/>
<use transform="translate(275)" xlink:href="#s"/>
</g>
<path d="m40.6 706h676v-316h-676z" fill="#fff"/>
<path d="m61.8 706v-316" clip-path="url(#p)" fill="none" stroke="#b0b0b0" stroke-linecap="square" stroke-width=".8"/>
<use x="61.778371" y="705.793205" stroke="#000000" stroke-width=".8" xlink:href="#k"/>
<g transform="translate(40.9 720) scale(.1 -.1)">
<use xlink:href="#d"/>
<use transform="translate(63.6)" xlink:href="#c"/>
<use transform="translate(127)" xlink:href="#d"/>
<use transform="translate(191)" xlink:href="#ad"/>
<use transform="translate(254)" xlink:href="#f"/>
<use transform="translate(291)" xlink:href="#c"/>
<use transform="translate(354)" xlink:href="#aa"/>
</g>
<path d="m160 706v-316" clip-path="url(#p)" fill="none" stroke="#b0b0b0" stroke-linecap="square" stroke-width=".8"/>
<use x="159.993232" y="705.793205" stroke="#000000" stroke-width=".8" xlink:href="#k"/>
<g transform="translate(139 720) scale(.1 -.1)">
<use xlink:href="#d"/>
<use transform="translate(63.6)" xlink:href="#c"/>
<use transform="translate(127)" xlink:href="#d"/>
<use transform="translate(191)" xlink:href="#ad"/>
<use transform="translate(254)" xlink:href="#f"/>
<use transform="translate(291)" xlink:href="#e"/>
<use transform="translate(354)" xlink:href="#e"/>
</g>
<path d="m258 706v-316" clip-path="url(#p)" fill="none" stroke="#b0b0b0" stroke-linecap="square" stroke-width=".8"/>
<use x="258.208093" y="705.793205" stroke="#000000" stroke-width=".8" xlink:href="#k"/>
<g transform="translate(237 720) scale(.1 -.1)">
<use xlink:href="#d"/>
<use transform="translate(63.6)" xlink:href="#c"/>
<use transform="translate(127)" xlink:href="#d"/>
<use transform="translate(191)" xlink:href="#i"/>
<use transform="translate(254)" xlink:href="#f"/>
<use transform="translate(291)" xlink:href="#c"/>
<use transform="translate(354)" xlink:href="#e"/>
</g>
<path d="m353 706v-316" clip-path="url(#p)" fill="none" stroke="#b0b0b0" stroke-linecap="square" stroke-width=".8"/>
<use x="353.202794" y="705.793205" stroke="#000000" stroke-width=".8" xlink:href="#k"/>
<g transform="translate(332 720) scale(.1 -.1)">
<use xlink:href="#d"/>
<use transform="translate(63.6)" xlink:href="#c"/>
<use transform="translate(127)" xlink:href="#d"/>
<use transform="translate(191)" xlink:href="#i"/>
<use transform="translate(254)" xlink:href="#f"/>
<use transform="translate(291)" xlink:href="#c"/>
<use transform="translate(354)" xlink:href="#ae"/>
</g>
<path d="m451 706v-316" clip-path="url(#p)" fill="none" stroke="#b0b0b0" stroke-linecap="square" stroke-width=".8"/>
<use x="451.417655" y="705.793205" stroke="#000000" stroke-width=".8" xlink:href="#k"/>
<g transform="translate(431 720) scale(.1 -.1)">
<use xlink:href="#d"/>
<use transform="translate(63.6)" xlink:href="#c"/>
<use transform="translate(127)" xlink:href="#d"/>
<use transform="translate(191)" xlink:href="#i"/>
<use transform="translate(254)" xlink:href="#f"/>
<use transform="translate(291)" xlink:href="#c"/>
<use transform="translate(354)" xlink:href="#i"/>
</g>
<path d="m550 706v-316" clip-path="url(#p)" fill="none" stroke="#b0b0b0" stroke-linecap="square" stroke-width=".8"/>
<use x="549.632516" y="705.793205" stroke="#000000" stroke-width=".8" xlink:href="#k"/>
<g transform="translate(529 720) scale(.1 -.1)">
<use xlink:href="#d"/>
<use transform="translate(63.6)" xlink:href="#c"/>
<use transform="translate(127)" xlink:href="#d"/>
<use transform="translate(191)" xlink:href="#i"/>
<use transform="translate(254)" xlink:href="#f"/>
<use transform="translate(291)" xlink:href="#c"/>
<use transform="translate(354)" xlink:href="#ah"/>
</g>
<path d="m649 706v-316" clip-path="url(#p)" fill="none" stroke="#b0b0b0" stroke-linecap="square" stroke-width=".8"/>
<use x="649.457457" y="705.793205" stroke="#000000" stroke-width=".8" xlink:href="#k"/>
<g transform="translate(629 720) scale(.1 -.1)">
<use xlink:href="#d"/>
<use transform="translate(63.6)" xlink:href="#c"/>
<use transform="translate(127)" xlink:href="#d"/>
<use transform="translate(191)" xlink:href="#i"/>
<use transform="translate(254)" xlink:href="#f"/>
<use transform="translate(291)" xlink:href="#c"/>
<use transform="translate(354)" xlink:href="#aa"/>
</g>
<path d="m40.6 673h676" clip-path="url(#p)" fill="none" stroke="#b0b0b0" stroke-linecap="square" stroke-width=".8"/>
<use x="40.645553" y="673.16728" stroke="#000000" stroke-width=".8" xlink:href="#l"/>
<g transform="translate(3 677) scale(.1 -.1)">
<defs>
<path id="ay" transform="scale(.0156)" d="m2113 2584q-425 0-674-291-248-290-248-796 0-503 248-796 249-292 674-292t673 292q248 293 248 796 0 506-248 796-248 291-673 291zm1253 1979v-575q-238 112-480 171-242 60-480 60-625 0-955-422-329-422-376-1275 184 272 462 417 279 145 613 145 703 0 1111-427 408-426 408-1160 0-719-425-1154-425-434-1131-434-810 0-1238 620-428 621-428 1799 0 1106 525 1764t1409 658q238 0 480-47t505-140z"/>
</defs>
<use xlink:href="#c"/>
<use transform="translate(63.6)" xlink:href="#j"/>
<use transform="translate(95.4)" xlink:href="#ay"/>
<use transform="translate(159)" xlink:href="#c"/>
<use transform="translate(223)" xlink:href="#m"/>
</g>
<path d="m40.6 612h676" clip-path="url(#p)" fill="none" stroke="#b0b0b0" stroke-linecap="square" stroke-width=".8"/>
<use x="40.645553" y="612.222101" stroke="#000000" stroke-width=".8" xlink:href="#l"/>
<g transform="translate(3 616) scale(.1 -.1)">
<use xlink:href="#c"/>
<use transform="translate(63.6)" xlink:href="#j"/>
<use transform="translate(95.4)" xlink:href="#ah"/>
<use transform="translate(159)" xlink:href="#c"/>
<use transform="translate(223)" xlink:href="#m"/>
</g>
<path d="m40.6 551h676" clip-path="url(#p)" fill="none" stroke="#b0b0b0" stroke-linecap="square" stroke-width=".8"/>
<use x="40.645553" y="551.276922" stroke="#000000" stroke-width=".8" xlink:href="#l"/>
<g transform="translate(3 555) scale(.1 -.1)">
<defs>
<path id="ax" transform="scale(.0156)" d="m2034 2216q-450 0-708-241-257-241-257-662 0-422 257-663 258-241 708-241t709 242q260 243 260 662 0 421-258 662-257 241-711 241zm-631 268q-406 100-633 378-226 279-226 679 0 559 398 884 399 325 1092 325 697 0 1094-325t397-884q0-400-227-679-226-278-629-378 456-106 710-416 255-309 255-755 0-679-414-1042-414-362-1186-362-771 0-1186 362-414 363-414 1042 0 446 256 755 257 310 713 416zm-231 997q0-362 226-565 227-203 636-203 407 0 636 203 230 203 230 565 0 363-230 566-229 203-636 203-409 0-636-203-226-203-226-566z"/>
</defs>
<use xlink:href="#c"/>
<use transform="translate(63.6)" xlink:href="#j"/>
<use transform="translate(95.4)" xlink:href="#ax"/>
<use transform="translate(159)" xlink:href="#c"/>
<use transform="translate(223)" xlink:href="#m"/>
</g>
<path d="m40.6 490h676" clip-path="url(#p)" fill="none" stroke="#b0b0b0" stroke-linecap="square" stroke-width=".8"/>
<use x="40.645553" y="490.331743" stroke="#000000" stroke-width=".8" xlink:href="#l"/>
<g transform="translate(3 494) scale(.1 -.1)">
<use xlink:href="#c"/>
<use transform="translate(63.6)" xlink:href="#j"/>
<use transform="translate(95.4)" xlink:href="#aa"/>
<use transform="translate(159)" xlink:href="#c"/>
<use transform="translate(223)" xlink:href="#m"/>
</g>
<path d="m40.6 429h676" clip-path="url(#p)" fill="none" stroke="#b0b0b0" stroke-linecap="square" stroke-width=".8"/>
<use x="40.645553" y="429.386564" stroke="#000000" stroke-width=".8" xlink:href="#l"/>
<g transform="translate(3 433) scale(.1 -.1)">
<use xlink:href="#e"/>
<use transform="translate(63.6)" xlink:href="#j"/>
<use transform="translate(95.4)" xlink:href="#c"/>
<use transform="translate(159)" xlink:href="#c"/>
<use transform="translate(223)" xlink:href="#m"/>
</g>
<g stroke="#1f77b4" stroke-opacity=".9">
<path d="m71.4 624 22 26 13.5-13.8 10.3 6.09 12.1 36.6 9.74 12.2h3.16l1.71-6.09h1.48l1.8 6.09 1.64-12.2 1.23 12.2 1.84-6.09h5l1.61-6.09h1.44l1.71 6.09 1.21-6.09 1.89 6.09 1.57-12.2 1.82 6.09 1.52-6.09 0.821 6.09 0.822-6.09 1.19 6.09h2.03l1.52-6.09 1.77 6.09h1.42l1.77-6.09 1.65-6.09 1.53 12.2 1.68 6.09 0.121-6.09 1.46-12.2 1.64 6.09h1.42l1.72-6.09 1.72-60.9 1.57-30.5 1.45-6.09 1.68 6.09 1.53 22.7 1.62-0.403 1.17 1.88 0.557 2.77 1.17-3.69 1.56-2.96 0.316 1.67 1.45-3.88 1.67 4.29 1.88 10.9 1.67-16.2 1.22 4.63 0.396-1.14 1.43-2.31 0.462-5.43 1.15 1.82 1.36 1.46 0.804 3.5 0.86 0.317 1.59-4.38 1.99 6.91 1.17-0.511 0.381 0.168 0.809-0.527 0.701 2.15 1.24-3.9 0.129-2.32 1.42-2.14 2.14 3.66 1.46-1.53 1.76 0.302 0.466-2.79 0.626 1.03 2.15-12.1 1.34 3.51 3.18-0.256 1.76-13.6 1.42 2.85 1.56 2.25 1.89-6.15 1.63 2.68 1.54 4.01 1.68-0.399 1.53-3.35 1.64 7.05 1.66-4.63 1.4-1.23 1.8-1.9 1.73-0.749 1.5 7.61 1.72-1.62 1.48-4.96 3.09 0.851 1.35-1.77 0.613 2.06 1.24-3.58 1.86 3.39 1.19-1.18 2.2-47.8 1.3-15.8 1.3-1.83 0.497 1.2 1.53 5.3 1.55 0.1 1.76 2.24 1.6 12.1 1.58-2.99 0.127 3.16 0.839-4.65 0.7 4.68 1.05-13.1 0.512 5.08 2.87-6.34 1.66-0.0838 1.96 11 0.769 2.52 0.839-1.11 1.6-13.2 1.5 0.443 1.29-17.5 1.55 7.03 1.57-0.337 0.473-0.844 1.17 9.17 2.03 0.263 1.39-7.5 1.88 2.52 1.55 9.53 1.67-3.87 1.6-1.93 1.5 4.23 1.76-5.27 1.55 2.1 1.23-1.3 0.0913-2.68 1.78 0.962 1.45 2.87 1.95-1.3 1.34-1.27 1.85-4.05 1.48 1.21 1.76 1.19 1.2-3.09 1.61 3.54 2.04-0.785 1.42-2.08 0.62 5.6 0.174-0.373 0.782 2.31 1.18-0.606 0.472-0.757 1.73 12.4 1.34-8.15 0.166-2.48 1.57-3.89 1.61 11.5 0.313-7.34 1.41 3.9 1.62-6.31 1.61 2.13 1.66-3.66 1.44 3.46 1.64-1.8 1.51 9.34 1.2-26 0.608-1.14 1.62-5.22 1.51 5.93 1.49 2.62 0.213-2.36 1.5 2.42 1.44-1.84 1.82-2.69 1.3 2.84 0.347 6.36 1-5.06 0.678-7.59 1.62 1.58 1.62 2.92 1.59 7.68 1.55-0.821 1.05-1.69 2.1 1.2 0.103 2.93 0.808-2.74 0.824 2.22 1.29 1.89 0.0171 37.3 0.241 1.33 1.38 0.0281 1.94-3.65 1.43 1.87 1.73 4.09 1.48-4.68 0.238 0.301 1.55-19.2 1.6-2.67 1.39-0.512 1.75-1.62 1.63 6.98 1.66-1.34 1.2-1.67 0.465-3.54 1.26 4.01 0.261-0.36 1.24-16.5 0.385 4.25 0.965-26.8 0.577-3.45 1.53 7.12 1.71 1.52 1.67-1.82 1.65-4.31 1.51-2.06 1.56 1.21 0.404 3.11 1.13-4.98 1.73 1.84 1.32 3.24 1.96 1.76 1.59-1.98 1.64-0.426 1.61 1.79 1.66 0.527 1.39-1.53 1.71 4.19 1.64-2.71 1.62-4 0.637 0.823 1.04 3.45 1.56-1.05 1.55 4.84 0.988 1.46 0.683-4.31 1.41-0.511 1.83-0.919 1.63 1.4 0.807 7.66 2.41-2.9 1.62 0.389 1.34-1.25 1.77-3.64 1.15 1.86 2.04 1.85 1.31-2.54 1.63-0.334 1.95 6.12 1.44-5.44 1.74-0.9 3.33 4.92 1.6 1.45 1.64-3.66 1.52-1.85 1.54-1.53 0.97 3.1 2.33-4.61 1.52 1.81 1.52 0.267 1.81-1.84 1.5 0.227 1.41 2.5 1.81-5.69 1.21 6.84 2.15-0.46 1.19-2.36 1.99 4.66 1.26-5.71 2-2.47 1.44 3.63 1.7 3.84 1.72-4.43 0.906 0.497 2.28-0.242 1.58 0.965 1.58 1.68 1.16 1.59 1.84-3.48 1.89 2.06 1.61-0.0792 1.63-2.13 1.44 3.67 1.7-4.56 1.19-2.69 1.85 1.46 1.85 3.88 1.48-3.82 1.34 6.28 2.04-7.63 1.09 1.99 1.4 2.1 2.21-2.68 2.91 6.41 1.63-2.29 1.83 0.275 1.26-1.43 2.08 2.04 1.67-1.89 1.23 5.45 1.87-2.99 1.74-1.08 1.61 1.5 1.52-1.26 1.33 1.82 1.76-1.41 1.85-0.244 1.12-0.298 1.66 0.303 1.66-2.66 1.47-2.68 1.85 5.91 1.87-1.42 1.64 2.14 2.88 1.67 1.74-4.2 1.28 4.31 1.69-1.22 1.81-1.64 1.58-1.19 1.53 2.6 1.9-0.965 1.17-0.339 1.71 3.85 1.48-3.35 1.8-2 1.84-2.99 1.53 4.01 1.69-0.619 1.72 7.4 1.3-8.04 1.56 0.553 1.89 4.97 1.67-7.05 1.54 4.71 1.52-3.45 3.24 1.29 1.15 2.76 2.24 0.411 1.41-0.81 1.65-0.546 1.64 0.117 1.62 2.93 1.72-6.95 1.04 6 1.97-1.01 1.64-0.055 1.75-1.65 1.66 2.87 1.08-4.08 1.81 5.34 1.78-5.49 1.71 2.05 1.7 0.632 1.36-1.68 1.81-1.83 1.43 1.26 1.75 0.396 1.48-1.49 1.65-2.05 1.75 4.56 1.64-2.2 1.06-4.38 1.96 1.46 2.98 4.33 1.97 0.12 1.57-3.55 1.26 3.51 3.49 4.09 1.42-6.37 0.917 0.407 2.34-1.48 1.8 1.89 1.39-1.3" clip-path="url(#p)" fill="none" stroke-dasharray="1.5,2.475" stroke-width="1.5"/>
<g clip-path="url(#p)" fill="#1f77b4" fill-opacity=".9">
<use x="71.388926" y="624.411136" xlink:href="#a"/>
<use x="93.418468" y="650.438901" xlink:href="#a"/>
<use x="106.878175" y="636.600172" xlink:href="#a"/>
<use x="117.188294" y="642.69469" xlink:href="#a"/>
<use x="129.33178" y="679.261797" xlink:href="#a"/>
<use x="139.06801" y="691.450833" xlink:href="#a"/>
<use x="140.657684" y="691.450833" xlink:href="#a"/>
<use x="142.224232" y="691.450833" xlink:href="#a"/>
<use x="143.934383" y="685.356315" xlink:href="#a"/>
<use x="145.415712" y="685.356315" xlink:href="#a"/>
<use x="147.210895" y="691.450833" xlink:href="#a"/>
<use x="148.847083" y="679.261797" xlink:href="#a"/>
<use x="150.081347" y="691.450833" xlink:href="#a"/>
<use x="151.921049" y="685.356315" xlink:href="#a"/>
<use x="153.548217" y="685.356315" xlink:href="#a"/>
<use x="155.155502" y="685.356315" xlink:href="#a"/>
<use x="156.921986" y="685.356315" xlink:href="#a"/>
<use x="158.531432" y="679.261797" xlink:href="#a"/>
<use x="159.975976" y="679.261797" xlink:href="#a"/>
<use x="161.68266" y="685.356315" xlink:href="#a"/>
<use x="162.890481" y="679.261797" xlink:href="#a"/>
<use x="164.781896" y="685.356315" xlink:href="#a"/>
<use x="166.353214" y="673.16728" xlink:href="#a"/>
<use x="168.170983" y="679.261797" xlink:href="#a"/>
<use x="169.691465" y="673.16728" xlink:href="#a"/>
<use x="170.512922" y="679.261797" xlink:href="#a"/>
<use x="171.334436" y="673.16728" xlink:href="#a"/>
<use x="172.524851" y="679.261797" xlink:href="#a"/>
<use x="173.249052" y="679.261797" xlink:href="#a"/>
<use x="174.55275" y="679.261797" xlink:href="#a"/>
<use x="176.077183" y="673.16728" xlink:href="#a"/>
<use x="177.851326" y="679.261797" xlink:href="#a"/>
<use x="179.273564" y="679.261797" xlink:href="#a"/>
<use x="181.041819" y="673.16728" xlink:href="#a"/>
<use x="182.694051" y="667.072762" xlink:href="#a"/>
<use x="184.22167" y="679.261797" xlink:href="#a"/>
<use x="185.896973" y="685.356315" xlink:href="#a"/>
<use x="186.0184" y="679.261797" xlink:href="#a"/>
<use x="187.480516" y="667.072762" xlink:href="#a"/>
<use x="189.121362" y="673.16728" xlink:href="#a"/>
<use x="190.539463" y="673.16728" xlink:href="#a"/>
<use x="192.256098" y="667.072762" xlink:href="#a"/>
<use x="193.628635" y="617.65062" xlink:href="#a"/>
<use x="193.979536" y="606.127583" xlink:href="#a"/>
<use x="195.288732" y="581.749511" xlink:href="#a"/>
<use x="195.552345" y="575.654993" xlink:href="#a"/>
<use x="197.003839" y="569.560475" xlink:href="#a"/>
<use x="198.683037" y="575.654993" xlink:href="#a"/>
<use x="200.216172" y="598.355971" xlink:href="#a"/>
<use x="201.839762" y="597.953438" xlink:href="#a"/>
<use x="203.012344" y="599.83082" xlink:href="#a"/>
<use x="203.569256" y="602.597045" xlink:href="#a"/>
<use x="204.743552" y="598.904224" xlink:href="#a"/>
<use x="206.306131" y="595.947943" xlink:href="#a"/>
<use x="206.622537" y="597.617484" xlink:href="#a"/>
<use x="208.071609" y="593.735874" xlink:href="#a"/>
<use x="209.737371" y="598.023762" xlink:href="#a"/>
<use x="211.616859" y="608.882181" xlink:href="#a"/>
<use x="213.282416" y="592.68274" xlink:href="#a"/>
<use x="214.502088" y="597.31241" xlink:href="#a"/>
<use x="214.898179" y="596.168738" xlink:href="#a"/>
<use x="216.323342" y="593.857852" xlink:href="#a"/>
<use x="216.785494" y="588.427535" xlink:href="#a"/>
<use x="217.933459" y="590.251481" xlink:href="#a"/>
<use x="219.29638" y="591.712087" xlink:href="#a"/>
<use x="220.099929" y="595.208485" xlink:href="#a"/>
<use x="220.95998" y="595.525273" xlink:href="#a"/>
<use x="222.553065" y="591.147401" xlink:href="#a"/>
<use x="224.541681" y="598.056294" xlink:href="#a"/>
<use x="225.43438" y="597.719603" xlink:href="#a"/>
<use x="225.713144" y="597.54522" xlink:href="#a"/>
<use x="226.094122" y="597.713197" xlink:href="#a"/>
<use x="226.903597" y="597.18612" xlink:href="#a"/>
<use x="227.604317" y="599.336633" xlink:href="#a"/>
<use x="228.848476" y="595.434782" xlink:href="#a"/>
<use x="228.977618" y="593.117076" xlink:href="#a"/>
<use x="230.395997" y="590.980719" xlink:href="#a"/>
<use x="232.532931" y="594.641602" xlink:href="#a"/>
<use x="233.989364" y="593.112269" xlink:href="#a"/>
<use x="235.753239" y="593.413929" xlink:href="#a"/>
<use x="236.219622" y="590.622531" xlink:href="#a"/>
<use x="236.846044" y="591.650189" xlink:href="#a"/>
<use x="238.997494" y="579.539529" xlink:href="#a"/>
<use x="240.341762" y="583.047363" xlink:href="#a"/>
<use x="243.518072" y="582.791181" xlink:href="#a"/>
<use x="245.280252" y="569.219985" xlink:href="#a"/>
<use x="246.702117" y="572.067775" xlink:href="#a"/>
<use x="248.259217" y="574.319811" xlink:href="#a"/>
<use x="250.150557" y="568.168418" xlink:href="#a"/>
<use x="251.777856" y="570.851548" xlink:href="#a"/>
<use x="253.316991" y="574.857086" xlink:href="#a"/>
<use x="254.995984" y="574.458054" xlink:href="#a"/>
<use x="256.522056" y="571.107823" xlink:href="#a"/>
<use x="258.16622" y="578.159393" xlink:href="#a"/>
<use x="259.831012" y="573.529708" xlink:href="#a"/>
<use x="261.230235" y="572.300002" xlink:href="#a"/>
<use x="263.02579" y="570.398418" xlink:href="#a"/>
<use x="264.758844" y="569.649737" xlink:href="#a"/>
<use x="266.256833" y="577.260072" xlink:href="#a"/>
<use x="267.978984" y="575.644787" xlink:href="#a"/>
<use x="269.459196" y="570.687503" xlink:href="#a"/>
<use x="272.548517" y="571.538998" xlink:href="#a"/>
<use x="273.9005" y="569.765076" xlink:href="#a"/>
<use x="274.513728" y="571.822073" xlink:href="#a"/>
<use x="275.748774" y="568.243299" xlink:href="#a"/>
<use x="277.606926" y="571.633433" xlink:href="#a"/>
<use x="278.801664" y="570.455168" xlink:href="#a"/>
<use x="280.835508" y="524.386264" xlink:href="#a"/>
<use x="281.005293" y="522.607864" xlink:href="#a"/>
<use x="282.307836" y="506.845419" xlink:href="#a"/>
<use x="283.602944" y="505.02002" xlink:href="#a"/>
<use x="284.100261" y="506.222665" xlink:href="#a"/>
<use x="285.627843" y="511.517916" xlink:href="#a"/>
<use x="287.181812" y="511.618179" xlink:href="#a"/>
<use x="288.939781" y="513.856728" xlink:href="#a"/>
<use x="290.536648" y="525.919196" xlink:href="#a"/>
<use x="292.118756" y="522.925746" xlink:href="#a"/>
<use x="292.246091" y="526.089117" xlink:href="#a"/>
<use x="293.085046" y="521.438436" xlink:href="#a"/>
<use x="293.78463" y="526.115573" xlink:href="#a"/>
<use x="294.830567" y="513.029971" xlink:href="#a"/>
<use x="295.342587" y="518.107573" xlink:href="#a"/>
<use x="296.885636" y="514.829282" xlink:href="#a"/>
<use x="298.214268" y="511.763649" xlink:href="#a"/>
<use x="299.869427" y="511.679886" xlink:href="#a"/>
<use x="301.828674" y="522.675348" xlink:href="#a"/>
<use x="302.597915" y="525.197923" xlink:href="#a"/>
<use x="303.436629" y="524.092178" xlink:href="#a"/>
<use x="305.037391" y="510.878753" xlink:href="#a"/>
<use x="306.538287" y="511.322078" xlink:href="#a"/>
<use x="307.831606" y="493.869335" xlink:href="#a"/>
<use x="309.383749" y="500.901771" xlink:href="#a"/>
<use x="310.957248" y="500.56431" xlink:href="#a"/>
<use x="311.430078" y="499.720714" xlink:href="#a"/>
<use x="312.595467" y="508.887595" xlink:href="#a"/>
<use x="314.627279" y="509.151013" xlink:href="#a"/>
<use x="316.012749" y="501.649981" xlink:href="#a"/>
<use x="317.889591" y="504.166302" xlink:href="#a"/>
<use x="319.435734" y="513.697459" xlink:href="#a"/>
<use x="321.107943" y="509.826404" xlink:href="#a"/>
<use x="322.709078" y="507.893733" xlink:href="#a"/>
<use x="324.206377" y="512.125742" xlink:href="#a"/>
<use x="325.964663" y="506.858415" xlink:href="#a"/>
<use x="327.518949" y="508.95485" xlink:href="#a"/>
<use x="328.749076" y="507.653729" xlink:href="#a"/>
<use x="328.840332" y="504.977031" xlink:href="#a"/>
<use x="330.618911" y="505.939017" xlink:href="#a"/>
<use x="332.072064" y="508.806791" xlink:href="#a"/>
<use x="334.024025" y="507.511379" xlink:href="#a"/>
<use x="335.364602" y="506.241841" xlink:href="#a"/>
<use x="337.219436" y="502.18964" xlink:href="#a"/>
<use x="338.69484" y="503.403576" xlink:href="#a"/>
<use x="340.455175" y="504.590898" xlink:href="#a"/>
<use x="341.657591" y="501.505521" xlink:href="#a"/>
<use x="343.268062" y="505.040637" xlink:href="#a"/>
<use x="345.309621" y="504.255986" xlink:href="#a"/>
<use x="346.734523" y="502.179666" xlink:href="#a"/>
<use x="347.354049" y="507.775455" xlink:href="#a"/>
<use x="347.528158" y="507.40219" xlink:href="#a"/>
<use x="348.310444" y="509.713142" xlink:href="#a"/>
<use x="349.493629" y="509.107523" xlink:href="#a"/>
<use x="349.96564" y="508.350728" xlink:href="#a"/>
<use x="351.696885" y="520.772015" xlink:href="#a"/>
<use x="353.034332" y="512.625884" xlink:href="#a"/>
<use x="353.200334" y="510.142721" xlink:href="#a"/>
<use x="354.774448" y="506.251518" xlink:href="#a"/>
<use x="356.379981" y="517.729802" xlink:href="#a"/>
<use x="356.693257" y="510.386423" xlink:href="#a"/>
<use x="358.098499" y="514.282452" xlink:href="#a"/>
<use x="359.714747" y="507.976815" xlink:href="#a"/>
<use x="361.320205" y="510.105522" xlink:href="#a"/>
<use x="362.976258" y="506.450263" xlink:href="#a"/>
<use x="364.417484" y="509.906301" xlink:href="#a"/>
<use x="366.057808" y="508.105454" xlink:href="#a"/>
<use x="367.56983" y="517.44436" xlink:href="#a"/>
<use x="368.77465" y="491.490558" xlink:href="#a"/>
<use x="369.382847" y="490.351908" xlink:href="#a"/>
<use x="371.000846" y="485.127413" xlink:href="#a"/>
<use x="372.507985" y="491.057074" xlink:href="#a"/>
<use x="373.993265" y="493.675979" xlink:href="#a"/>
<use x="374.206135" y="491.317653" xlink:href="#a"/>
<use x="375.703043" y="493.739398" xlink:href="#a"/>
<use x="377.147139" y="491.903899" xlink:href="#a"/>
<use x="378.966809" y="489.21173" xlink:href="#a"/>
<use x="380.265364" y="492.049713" xlink:href="#a"/>
<use x="380.612854" y="498.404756" xlink:href="#a"/>
<use x="381.615353" y="493.344344" xlink:href="#a"/>
<use x="382.292909" y="485.753455" xlink:href="#a"/>
<use x="383.913294" y="487.338331" xlink:href="#a"/>
<use x="385.538207" y="490.259334" xlink:href="#a"/>
<use x="387.123838" y="497.940895" xlink:href="#a"/>
<use x="388.674788" y="497.119599" xlink:href="#a"/>
<use x="389.727061" y="495.433027" xlink:href="#a"/>
<use x="391.826277" y="496.628216" xlink:href="#a"/>
<use x="391.929516" y="499.557969" xlink:href="#a"/>
<use x="392.737817" y="496.821843" xlink:href="#a"/>
<use x="393.561734" y="499.044271" xlink:href="#a"/>
<use x="394.84676" y="500.932351" xlink:href="#a"/>
<use x="394.863904" y="538.278877" xlink:href="#a"/>
<use x="395.105193" y="539.612864" xlink:href="#a"/>
<use x="396.481364" y="539.640937" xlink:href="#a"/>
<use x="398.417279" y="535.987248" xlink:href="#a"/>
<use x="399.845685" y="537.854758" xlink:href="#a"/>
<use x="401.580564" y="541.945077" xlink:href="#a"/>
<use x="403.06303" y="537.263433" xlink:href="#a"/>
<use x="403.301411" y="537.564716" xlink:href="#a"/>
<use x="404.85402" y="518.405415" xlink:href="#a"/>
<use x="406.458435" y="515.739586" xlink:href="#a"/>
<use x="407.84765" y="515.227485" xlink:href="#a"/>
<use x="409.597718" y="513.603294" xlink:href="#a"/>
<use x="411.228296" y="520.581321" xlink:href="#a"/>
<use x="412.883473" y="519.239165" xlink:href="#a"/>
<use x="414.081584" y="517.5684" xlink:href="#a"/>
<use x="414.546607" y="514.027143" xlink:href="#a"/>
<use x="415.803587" y="518.035981" xlink:href="#a"/>
<use x="416.064778" y="517.676184" xlink:href="#a"/>
<use x="417.308788" y="501.203162" xlink:href="#a"/>
<use x="417.694201" y="505.455886" xlink:href="#a"/>
<use x="418.658888" y="478.690573" xlink:href="#a"/>
<use x="419.235684" y="475.239693" xlink:href="#a"/>
<use x="420.764701" y="482.362308" xlink:href="#a"/>
<use x="422.475877" y="483.878624" xlink:href="#a"/>
<use x="424.149987" y="482.059533" xlink:href="#a"/>
<use x="425.796256" y="477.750003" xlink:href="#a"/>
<use x="427.30209" y="475.687439" xlink:href="#a"/>
<use x="428.859712" y="476.901778" xlink:href="#a"/>
<use x="429.264077" y="480.007598" xlink:href="#a"/>
<use x="430.395568" y="475.027153" xlink:href="#a"/>
<use x="432.127484" y="476.865229" xlink:href="#a"/>
<use x="433.451123" y="480.103711" xlink:href="#a"/>
<use x="435.407966" y="481.866369" xlink:href="#a"/>
<use x="437.002858" y="479.881851" xlink:href="#a"/>
<use x="438.645847" y="479.456186" xlink:href="#a"/>
<use x="440.259356" y="481.242132" xlink:href="#a"/>
<use x="441.919844" y="481.769621" xlink:href="#a"/>
<use x="443.312153" y="480.239012" xlink:href="#a"/>
<use x="445.025844" y="484.43261" xlink:href="#a"/>
<use x="446.67038" y="481.720712" xlink:href="#a"/>
<use x="448.291156" y="477.72117" xlink:href="#a"/>
<use x="448.928424" y="478.544143" xlink:href="#a"/>
<use x="449.966217" y="481.992616" xlink:href="#a"/>
<use x="451.528833" y="480.938089" xlink:href="#a"/>
<use x="453.074397" y="485.775228" xlink:href="#a"/>
<use x="454.061932" y="487.237821" xlink:href="#a"/>
<use x="454.744594" y="482.924046" xlink:href="#a"/>
<use x="456.151029" y="482.413298" xlink:href="#a"/>
<use x="457.976885" y="481.49381" xlink:href="#a"/>
<use x="459.606606" y="482.895153" xlink:href="#a"/>
<use x="460.41323" y="490.558479" xlink:href="#a"/>
<use x="462.828089" y="487.659509" xlink:href="#a"/>
<use x="464.452406" y="488.04895" xlink:href="#a"/>
<use x="465.793431" y="486.796099" xlink:href="#a"/>
<use x="467.560139" y="483.151326" xlink:href="#a"/>
<use x="468.707451" y="485.008064" xlink:href="#a"/>
<use x="470.750836" y="486.85516" xlink:href="#a"/>
<use x="472.056808" y="484.315466" xlink:href="#a"/>
<use x="473.683548" y="483.981403" xlink:href="#a"/>
<use x="475.636049" y="490.105253" xlink:href="#a"/>
<use x="477.077443" y="484.665412" xlink:href="#a"/>
<use x="478.81659" y="483.765626" xlink:href="#a"/>
<use x="480.221422" y="485.887427" xlink:href="#a"/>
<use x="482.142336" y="488.686087" xlink:href="#a"/>
<use x="483.746881" y="490.135126" xlink:href="#a"/>
<use x="485.383628" y="486.478779" xlink:href="#a"/>
<use x="486.90083" y="484.628329" xlink:href="#a"/>
<use x="488.440189" y="483.094741" xlink:href="#a"/>
<use x="489.410318" y="486.196056" xlink:href="#a"/>
<use x="491.742474" y="481.58521" xlink:href="#a"/>
<use x="493.261371" y="483.399535" xlink:href="#a"/>
<use x="494.779412" y="483.666955" xlink:href="#a"/>
<use x="496.584472" y="481.825107" xlink:href="#a"/>
<use x="498.079479" y="482.052484" xlink:href="#a"/>
<use x="499.49361" y="484.547771" xlink:href="#a"/>
<use x="501.299974" y="478.860261" xlink:href="#a"/>
<use x="502.510813" y="485.701621" xlink:href="#a"/>
<use x="504.662841" y="485.241126" xlink:href="#a"/>
<use x="505.857319" y="482.884054" xlink:href="#a"/>
<use x="507.846439" y="487.547299" xlink:href="#a"/>
<use x="509.105413" y="481.832642" xlink:href="#a"/>
<use x="511.107688" y="479.363203" xlink:href="#a"/>
<use x="512.543361" y="482.998084" xlink:href="#a"/>
<use x="514.24276" y="486.8366" xlink:href="#a"/>
<use x="515.96452" y="482.407366" xlink:href="#a"/>
<use x="516.870227" y="482.904259" xlink:href="#a"/>
<use x="519.148117" y="482.662626" xlink:href="#a"/>
<use x="520.730617" y="483.62774" xlink:href="#a"/>
<use x="522.314626" y="485.311524" xlink:href="#a"/>
<use x="523.473492" y="486.89901" xlink:href="#a"/>
<use x="525.313194" y="483.414533" xlink:href="#a"/>
<use x="527.19872" y="485.472413" xlink:href="#a"/>
<use x="528.808856" y="485.39323" xlink:href="#a"/>
<use x="530.44264" y="483.258281" xlink:href="#a"/>
<use x="531.884779" y="486.930708" xlink:href="#a"/>
<use x="533.582705" y="482.370239" xlink:href="#a"/>
<use x="534.776493" y="479.676961" xlink:href="#a"/>
<use x="536.622886" y="481.133577" xlink:href="#a"/>
<use x="538.469856" y="485.008771" xlink:href="#a"/>
<use x="539.951558" y="481.190089" xlink:href="#a"/>
<use x="541.291409" y="487.469263" xlink:href="#a"/>
<use x="543.326725" y="479.843051" xlink:href="#a"/>
<use x="544.420703" y="481.834166" xlink:href="#a"/>
<use x="545.821454" y="483.931772" xlink:href="#a"/>
<use x="548.026946" y="481.252426" xlink:href="#a"/>
<use x="549.628249" y="484.798968" xlink:href="#a"/>
<use x="550.936476" y="487.661533" xlink:href="#a"/>
<use x="552.566122" y="485.374883" xlink:href="#a"/>
<use x="554.40016" y="485.650342" xlink:href="#a"/>
<use x="555.663606" y="484.21616" xlink:href="#a"/>
<use x="557.743777" y="486.257054" xlink:href="#a"/>
<use x="559.40965" y="484.364875" xlink:href="#a"/>
<use x="560.63523" y="489.815693" xlink:href="#a"/>
<use x="562.501879" y="486.821531" xlink:href="#a"/>
<use x="564.242368" y="485.74011" xlink:href="#a"/>
<use x="565.855355" y="487.237124" xlink:href="#a"/>
<use x="567.370432" y="485.980211" xlink:href="#a"/>
<use x="568.701972" y="487.800823" xlink:href="#a"/>
<use x="570.460462" y="486.390884" xlink:href="#a"/>
<use x="572.309967" y="486.146735" xlink:href="#a"/>
<use x="573.428189" y="485.84863" xlink:href="#a"/>
<use x="575.091342" y="486.151848" xlink:href="#a"/>
<use x="576.746892" y="483.488197" xlink:href="#a"/>
<use x="578.220115" y="480.81267" xlink:href="#a"/>
<use x="580.071781" y="486.727345" xlink:href="#a"/>
<use x="581.939809" y="485.304192" xlink:href="#a"/>
<use x="583.576704" y="487.441874" xlink:href="#a"/>
<use x="584.951217" y="488.215213" xlink:href="#a"/>
<use x="586.452187" y="489.116795" xlink:href="#a"/>
<use x="588.196179" y="484.91928" xlink:href="#a"/>
<use x="589.471795" y="489.229527" xlink:href="#a"/>
<use x="591.161223" y="488.007052" xlink:href="#a"/>
<use x="592.969525" y="486.364948" xlink:href="#a"/>
<use x="594.553367" y="485.172275" xlink:href="#a"/>
<use x="596.085365" y="487.773302" xlink:href="#a"/>
<use x="597.988911" y="486.808151" xlink:href="#a"/>
<use x="599.161977" y="486.469179" xlink:href="#a"/>
<use x="600.870693" y="490.322214" xlink:href="#a"/>
<use x="602.35096" y="486.971903" xlink:href="#a"/>
<use x="604.1552" y="484.972338" xlink:href="#a"/>
<use x="605.994735" y="481.984512" xlink:href="#a"/>
<use x="607.519968" y="485.993873" xlink:href="#a"/>
<use x="609.211819" y="485.374514" xlink:href="#a"/>
<use x="610.931045" y="492.769631" xlink:href="#a"/>
<use x="612.23247" y="484.729344" xlink:href="#a"/>
<use x="613.796223" y="485.282101" xlink:href="#a"/>
<use x="615.682495" y="490.255693" xlink:href="#a"/>
<use x="617.355692" y="483.201759" xlink:href="#a"/>
<use x="618.897958" y="487.913054" xlink:href="#a"/>
<use x="620.414675" y="484.460138" xlink:href="#a"/>
<use x="622.048123" y="485.171653" xlink:href="#a"/>
<use x="623.650768" y="485.752526" xlink:href="#a"/>
<use x="624.802869" y="488.517181" xlink:href="#a"/>
<use x="627.04744" y="488.92859" xlink:href="#a"/>
<use x="628.456651" y="488.118881" xlink:href="#a"/>
<use x="630.104057" y="487.572835" xlink:href="#a"/>
<use x="631.746207" y="487.690032" xlink:href="#a"/>
<use x="633.370394" y="490.615461" xlink:href="#a"/>
<use x="635.092527" y="483.662398" xlink:href="#a"/>
<use x="636.128196" y="489.665222" xlink:href="#a"/>
<use x="638.09363" y="488.659922" xlink:href="#a"/>
<use x="639.729743" y="488.604946" xlink:href="#a"/>
<use x="641.474946" y="486.952313" xlink:href="#a"/>
<use x="643.130645" y="489.818068" xlink:href="#a"/>
<use x="644.212678" y="485.739442" xlink:href="#a"/>
<use x="646.02439" y="491.07816" xlink:href="#a"/>
<use x="647.804237" y="485.583186" xlink:href="#a"/>
<use x="649.513903" y="487.637656" xlink:href="#a"/>
<use x="651.217792" y="488.270149" xlink:href="#a"/>
<use x="652.575961" y="486.589884" xlink:href="#a"/>
<use x="654.385232" y="484.764048" xlink:href="#a"/>
<use x="655.814308" y="486.02111" xlink:href="#a"/>
<use x="657.561823" y="486.416791" xlink:href="#a"/>
<use x="659.043934" y="484.926028" xlink:href="#a"/>
<use x="660.698273" y="482.876626" xlink:href="#a"/>
<use x="662.451172" y="487.439214" xlink:href="#a"/>
<use x="664.09146" y="485.239146" xlink:href="#a"/>
<use x="665.147851" y="480.857418" xlink:href="#a"/>
<use x="667.107527" y="482.313087" xlink:href="#a"/>
<use x="668.739614" y="484.729076" xlink:href="#a"/>
<use x="670.083323" y="486.64068" xlink:href="#a"/>
<use x="672.051384" y="486.761153" xlink:href="#a"/>
<use x="673.62602" y="483.21348" xlink:href="#a"/>
<use x="674.890827" y="486.725771" xlink:href="#a"/>
<use x="676.81791" y="488.91559" xlink:href="#a"/>
<use x="678.381662" y="490.815429" xlink:href="#a"/>
<use x="679.805036" y="484.442319" xlink:href="#a"/>
<use x="680.721775" y="484.849185" xlink:href="#a"/>
<use x="683.064758" y="483.373791" xlink:href="#a"/>
<use x="684.86391" y="485.261108" xlink:href="#a"/>
<use x="686.256387" y="483.956974" xlink:href="#a"/>
</g>
</g>
<g stroke="#2ca02c" stroke-opacity=".9">
<path d="m71.4 591 254-104 49.8-7.33 5.33-1.13 1 2.85 0.678-0.959 1.62 0.204 1.62-29.5 1.59 33.1 1.55-33.4 1.05 30.5 2.2-44 0.808 2.94 0.824 11 1.54 27.4 1.38-27.5 1.94-46 1.43 1.05 3.22 82 1.79-14.9 1.6-29 1.39-7.7 1.75-6.37 1.63-2.4 1.66 2.45 1.66-0.568 1.52-1.12 1.63 2.18 0.965 2.63 0.577-2.8 1.53 3.97 1.71 0.752 1.67-1.94 1.65 0.798 3.06 1.78 1.54-0.887 1.73-9.97 1.32-6.25 3.55 5.35 1.64-6.83 1.61 25.2 1.66-0.256 6.37-2.64 0.637-4.58 1.04 0.921 1.56-7.33 1.55 10.6 1.67 3.57 1.41 1.29 1.83-2.7 1.63-7.47 0.807 10.4 2.41-11.6 1.62 10.2 1.34-8.52 1.77 1.66 1.15 0.0716 2.04 2.58 1.31-0.47 1.63 1.17 1.95 5.61 1.44-5.4 1.74 3.47 1.4 1.93 1.92 1.3 1.6 0.0324 1.64-12 1.52 5.23 1.54 3.56 0.97-4.21 2.33-3.03 1.52-3.31 1.52-2.3 1.81 10.9 1.5-2.75 1.41 0.388 1.81-0.668 1.21 2.84 2.15 1.94 1.19-0.0635 1.99 2.67 1.26-2.05 2-7.08 1.44 5.53 1.7 3.77 1.72-3.14 0.906-0.148 2.28 2.78 1.58-3.05 1.58-0.572 1.16-1.64 1.84 2.77 1.89-4.18 1.61-0.568 1.63 3.6 1.44-2.59 1.7-4.23 1.19 0.346 1.85 0.317 1.85 1.48 1.48-7.54 1.34-3.67 2.04 2.49 1.09-0.502 1.4 1.16 2.21-1.89 1.6 9.54 1.31-9.56 1.63 11.4 1.83-14.2 1.26 2.02 2.08-0.872 1.67 1.94 1.23 3.21 1.87 5.63 1.74-0.279 1.61-7.34 1.52-2.61 1.33 11.2 1.76-7.74 1.85 2.36 1.12-7.25 1.66 7.55 1.66 1.55 1.47 5.43 1.85-15.3 1.87 4.06 1.64 8.32 1.37-5.12 1.5-0.451 1.74 3.71 1.28-1.89 1.69 3.53 1.81-1.38 1.58 7.74 1.53-5.94 1.9 3.94 1.17-10.3 1.71 12.5 1.48-5.91 1.8 3.55 3.36-0.69 1.69 6.73 1.72-10.8 1.3 3.19 1.56-5.85 1.89 30 1.67-17.9 1.54-3.89 1.52-1.31 1.63 4.61 1.6-13.7 1.15 7.17 2.24-0.648 1.41-4.63 1.65-0.0953 1.64 11 1.62 1.99 1.72-1.66 1.04 3.12 1.97-4.3 1.64 3.46 1.75-1.33 1.66 4.61 1.08-5.3 1.81-2.68 3.49-6.36 1.7 10.2 1.36-1.79 1.81-0.38 1.43 0.799 1.75-0.426 1.48-2.74 1.65-4.21 1.75 8.32 1.64-0.955 1.06 0.0969 1.96 1.91 1.63 4.01 1.34-5.51 1.97 1.19 1.57 1.16 1.26-3.02 1.93-2.77 1.56-7 1.42 9.87 0.917 0.0111 2.34 6.02 3.19-8.95v0" clip-path="url(#p)" fill="none" stroke-linecap="square" stroke-width="1.5"/>
<g clip-path="url(#p)" fill="#2ca02c" fill-opacity=".9">
<use x="71.388926" y="590.825897" xlink:href="#b"/>
<use x="325.514437" y="486.423282" xlink:href="#b"/>
<use x="375.279931" y="479.090914" xlink:href="#b"/>
<use x="380.612854" y="477.956888" xlink:href="#b"/>
<use x="381.615353" y="480.802795" xlink:href="#b"/>
<use x="382.292909" y="479.843732" xlink:href="#b"/>
<use x="383.913294" y="480.04808" xlink:href="#b"/>
<use x="385.538207" y="450.533416" xlink:href="#b"/>
<use x="387.123838" y="483.67739" xlink:href="#b"/>
<use x="388.674788" y="450.25215" xlink:href="#b"/>
<use x="389.727061" y="480.758447" xlink:href="#b"/>
<use x="391.929516" y="436.798432" xlink:href="#b"/>
<use x="392.737817" y="439.734179" xlink:href="#b"/>
<use x="393.561734" y="450.703188" xlink:href="#b"/>
<use x="395.105193" y="478.115182" xlink:href="#b"/>
<use x="396.481364" y="450.585353" xlink:href="#b"/>
<use x="398.417279" y="404.603397" xlink:href="#b"/>
<use x="399.845685" y="405.648692" xlink:href="#b"/>
<use x="401.580564" y="451.152398" xlink:href="#b"/>
<use x="403.06303" y="487.675674" xlink:href="#b"/>
<use x="404.85402" y="472.726416" xlink:href="#b"/>
<use x="406.458435" y="443.695104" xlink:href="#b"/>
<use x="407.84765" y="435.990723" xlink:href="#b"/>
<use x="409.597718" y="429.619522" xlink:href="#b"/>
<use x="411.228296" y="427.221309" xlink:href="#b"/>
<use x="412.883473" y="429.666706" xlink:href="#b"/>
<use x="414.546607" y="429.098758" xlink:href="#b"/>
<use x="416.064778" y="427.981289" xlink:href="#b"/>
<use x="417.694201" y="430.156422" xlink:href="#b"/>
<use x="418.658888" y="432.783108" xlink:href="#b"/>
<use x="419.235684" y="429.978845" xlink:href="#b"/>
<use x="420.764701" y="433.945535" xlink:href="#b"/>
<use x="422.475877" y="434.697095" xlink:href="#b"/>
<use x="424.149987" y="432.755402" xlink:href="#b"/>
<use x="425.796256" y="433.55294" xlink:href="#b"/>
<use x="428.859712" y="435.33429" xlink:href="#b"/>
<use x="430.395568" y="434.447651" xlink:href="#b"/>
<use x="432.127484" y="424.476215" xlink:href="#b"/>
<use x="433.451123" y="418.229892" xlink:href="#b"/>
<use x="435.407966" y="421.212873" xlink:href="#b"/>
<use x="437.002858" y="423.577611" xlink:href="#b"/>
<use x="438.645847" y="416.742934" xlink:href="#b"/>
<use x="440.259356" y="441.965147" xlink:href="#b"/>
<use x="441.919844" y="441.7094" xlink:href="#b"/>
<use x="448.291156" y="439.066298" xlink:href="#b"/>
<use x="448.928424" y="434.490071" xlink:href="#b"/>
<use x="449.966217" y="435.410594" xlink:href="#b"/>
<use x="451.528833" y="428.080417" xlink:href="#b"/>
<use x="453.074397" y="438.725018" xlink:href="#b"/>
<use x="454.061932" y="440.736701" xlink:href="#b"/>
<use x="454.744594" y="442.296547" xlink:href="#b"/>
<use x="456.151029" y="443.58502" xlink:href="#b"/>
<use x="457.976885" y="440.881457" xlink:href="#b"/>
<use x="459.606606" y="433.415076" xlink:href="#b"/>
<use x="460.41323" y="443.824806" xlink:href="#b"/>
<use x="462.828089" y="432.25971" xlink:href="#b"/>
<use x="464.452406" y="442.429748" xlink:href="#b"/>
<use x="465.793431" y="433.912545" xlink:href="#b"/>
<use x="467.560139" y="435.575443" xlink:href="#b"/>
<use x="468.707451" y="435.64703" xlink:href="#b"/>
<use x="470.750836" y="438.231516" xlink:href="#b"/>
<use x="472.056808" y="437.76165" xlink:href="#b"/>
<use x="473.683548" y="438.933701" xlink:href="#b"/>
<use x="475.636049" y="444.547205" xlink:href="#b"/>
<use x="477.077443" y="439.144274" xlink:href="#b"/>
<use x="478.81659" y="442.61407" xlink:href="#b"/>
<use x="480.221422" y="444.542052" xlink:href="#b"/>
<use x="482.142336" y="445.846633" xlink:href="#b"/>
<use x="483.746881" y="445.879042" xlink:href="#b"/>
<use x="485.383628" y="433.843706" xlink:href="#b"/>
<use x="486.90083" y="439.070576" xlink:href="#b"/>
<use x="488.440189" y="442.627897" xlink:href="#b"/>
<use x="489.410318" y="438.421994" xlink:href="#b"/>
<use x="491.742474" y="435.387767" xlink:href="#b"/>
<use x="493.261371" y="432.075366" xlink:href="#b"/>
<use x="494.779412" y="429.775491" xlink:href="#b"/>
<use x="496.584472" y="440.633672" xlink:href="#b"/>
<use x="498.079479" y="437.882961" xlink:href="#b"/>
<use x="499.49361" y="438.271255" xlink:href="#b"/>
<use x="501.299974" y="437.603321" xlink:href="#b"/>
<use x="502.510813" y="440.438728" xlink:href="#b"/>
<use x="504.662841" y="442.374395" xlink:href="#b"/>
<use x="505.857319" y="442.310934" xlink:href="#b"/>
<use x="507.846439" y="444.984506" xlink:href="#b"/>
<use x="509.105413" y="442.938277" xlink:href="#b"/>
<use x="511.107688" y="435.858158" xlink:href="#b"/>
<use x="512.543361" y="441.385143" xlink:href="#b"/>
<use x="514.24276" y="445.152676" xlink:href="#b"/>
<use x="515.96452" y="442.009866" xlink:href="#b"/>
<use x="516.870227" y="441.861525" xlink:href="#b"/>
<use x="519.148117" y="444.645561" xlink:href="#b"/>
<use x="520.730617" y="441.598887" xlink:href="#b"/>
<use x="522.314626" y="441.027272" xlink:href="#b"/>
<use x="523.473492" y="439.383648" xlink:href="#b"/>
<use x="525.313194" y="442.151811" xlink:href="#b"/>
<use x="527.19872" y="437.970925" xlink:href="#b"/>
<use x="528.808856" y="437.403201" xlink:href="#b"/>
<use x="530.44264" y="441.006172" xlink:href="#b"/>
<use x="531.884779" y="438.415583" xlink:href="#b"/>
<use x="533.582705" y="434.187421" xlink:href="#b"/>
<use x="534.776493" y="434.53318" xlink:href="#b"/>
<use x="536.622886" y="434.850184" xlink:href="#b"/>
<use x="538.469856" y="436.328271" xlink:href="#b"/>
<use x="539.951558" y="428.790261" xlink:href="#b"/>
<use x="541.291409" y="425.122491" xlink:href="#b"/>
<use x="543.326725" y="427.614273" xlink:href="#b"/>
<use x="544.420703" y="427.112012" xlink:href="#b"/>
<use x="545.821454" y="428.276837" xlink:href="#b"/>
<use x="548.026946" y="426.385274" xlink:href="#b"/>
<use x="549.628249" y="435.928909" xlink:href="#b"/>
<use x="550.936476" y="426.36595" xlink:href="#b"/>
<use x="552.566122" y="437.781399" xlink:href="#b"/>
<use x="554.40016" y="423.614996" xlink:href="#b"/>
<use x="555.663606" y="425.630382" xlink:href="#b"/>
<use x="557.743777" y="424.758127" xlink:href="#b"/>
<use x="559.40965" y="426.701953" xlink:href="#b"/>
<use x="560.63523" y="429.915945" xlink:href="#b"/>
<use x="562.501879" y="435.542203" xlink:href="#b"/>
<use x="564.242368" y="435.263173" xlink:href="#b"/>
<use x="565.855355" y="427.927422" xlink:href="#b"/>
<use x="567.370432" y="425.318932" xlink:href="#b"/>
<use x="568.701972" y="436.535438" xlink:href="#b"/>
<use x="570.460462" y="428.799138" xlink:href="#b"/>
<use x="572.309967" y="431.160355" xlink:href="#b"/>
<use x="573.428189" y="423.913513" xlink:href="#b"/>
<use x="575.091342" y="431.464035" xlink:href="#b"/>
<use x="576.746892" y="433.016748" xlink:href="#b"/>
<use x="578.220115" y="438.450962" xlink:href="#b"/>
<use x="580.071781" y="423.190511" xlink:href="#b"/>
<use x="581.939809" y="427.247034" xlink:href="#b"/>
<use x="583.576704" y="435.568892" xlink:href="#b"/>
<use x="584.951217" y="430.446773" xlink:href="#b"/>
<use x="586.452187" y="429.995978" xlink:href="#b"/>
<use x="588.196179" y="433.703129" xlink:href="#b"/>
<use x="589.471795" y="431.814641" xlink:href="#b"/>
<use x="591.161223" y="435.344777" xlink:href="#b"/>
<use x="592.969525" y="433.967849" xlink:href="#b"/>
<use x="594.553367" y="441.707466" xlink:href="#b"/>
<use x="596.085365" y="435.765891" xlink:href="#b"/>
<use x="597.988911" y="439.705934" xlink:href="#b"/>
<use x="599.161977" y="429.40878" xlink:href="#b"/>
<use x="600.870693" y="441.876205" xlink:href="#b"/>
<use x="602.35096" y="435.966561" xlink:href="#b"/>
<use x="604.1552" y="439.511981" xlink:href="#b"/>
<use x="607.519968" y="438.821858" xlink:href="#b"/>
<use x="609.211819" y="445.548295" xlink:href="#b"/>
<use x="610.931045" y="434.73802" xlink:href="#b"/>
<use x="612.23247" y="437.930547" xlink:href="#b"/>
<use x="613.796223" y="432.085453" xlink:href="#b"/>
<use x="615.682495" y="462.060366" xlink:href="#b"/>
<use x="617.355692" y="444.126652" xlink:href="#b"/>
<use x="618.897958" y="440.233818" xlink:href="#b"/>
<use x="620.414675" y="438.927751" xlink:href="#b"/>
<use x="622.048123" y="443.537862" xlink:href="#b"/>
<use x="623.650768" y="429.807946" xlink:href="#b"/>
<use x="624.802869" y="436.978449" xlink:href="#b"/>
<use x="627.04744" y="436.330707" xlink:href="#b"/>
<use x="628.456651" y="431.6963" xlink:href="#b"/>
<use x="630.104057" y="431.600994" xlink:href="#b"/>
<use x="631.746207" y="442.578437" xlink:href="#b"/>
<use x="633.370394" y="444.564941" xlink:href="#b"/>
<use x="635.092527" y="442.903004" xlink:href="#b"/>
<use x="636.128196" y="446.018828" xlink:href="#b"/>
<use x="638.09363" y="441.715223" xlink:href="#b"/>
<use x="639.729743" y="445.172634" xlink:href="#b"/>
<use x="641.474946" y="443.847353" xlink:href="#b"/>
<use x="643.130645" y="448.457373" xlink:href="#b"/>
<use x="644.212678" y="443.153795" xlink:href="#b"/>
<use x="646.02439" y="440.477603" xlink:href="#b"/>
<use x="647.804237" y="437.240139" xlink:href="#b"/>
<use x="649.513903" y="434.113652" xlink:href="#b"/>
<use x="651.217792" y="444.297328" xlink:href="#b"/>
<use x="652.575961" y="442.506271" xlink:href="#b"/>
<use x="654.385232" y="442.126654" xlink:href="#b"/>
<use x="655.814308" y="442.925368" xlink:href="#b"/>
<use x="657.561823" y="442.499704" xlink:href="#b"/>
<use x="659.043934" y="439.757002" xlink:href="#b"/>
<use x="660.698273" y="435.551952" xlink:href="#b"/>
<use x="662.451172" y="443.869814" xlink:href="#b"/>
<use x="664.09146" y="442.914323" xlink:href="#b"/>
<use x="665.147851" y="443.011188" xlink:href="#b"/>
<use x="667.107527" y="444.923425" xlink:href="#b"/>
<use x="668.739614" y="448.935992" xlink:href="#b"/>
<use x="670.083323" y="443.425427" xlink:href="#b"/>
<use x="672.051384" y="444.617258" xlink:href="#b"/>
<use x="673.62602" y="445.780175" xlink:href="#b"/>
<use x="674.890827" y="442.757752" xlink:href="#b"/>
<use x="676.81791" y="439.987302" xlink:href="#b"/>
<use x="678.381662" y="432.986826" xlink:href="#b"/>
<use x="679.805036" y="442.858323" xlink:href="#b"/>
<use x="680.721775" y="442.869405" xlink:href="#b"/>
<use x="683.064758" y="448.885156" xlink:href="#b"/>
<use x="684.86391" y="443.880912" xlink:href="#b"/>
<use x="686.256387" y="439.935161" xlink:href="#b"/>
</g>
</g>
<path d="m40.6 706v-316" fill="none" stroke="#000" stroke-linecap="square" stroke-width=".8"/>
<path d="m717 706v-316" fill="none" stroke="#000" stroke-linecap="square" stroke-width=".8"/>
<path d="m40.6 706h676" fill="none" stroke="#000" stroke-linecap="square" stroke-width=".8"/>
<path d="m40.6 390h676" fill="none" stroke="#000" stroke-linecap="square" stroke-width=".8"/>
<g clip-path="url(#p)">
<g transform="translate(58.2 421) rotate(-90) scale(.1 -.1)">
<use xlink:href="#x"/>
<use transform="translate(35.2)" xlink:href="#r"/>
<use transform="translate(96.5)" xlink:href="#s"/>
<use transform="translate(149)" xlink:href="#n"/>
<use transform="translate(188)" xlink:href="#g"/>
<use transform="translate(249)" xlink:href="#q"/>
<use transform="translate(290)" xlink:href="#DejaVuSans-20"/>
<use transform="translate(322)" xlink:href="#ao"/>
</g>
</g>
<g clip-path="url(#p)">
<g transform="translate(58.2 489) rotate(-90) scale(.1 -.1)">
<use xlink:href="#ap"/>
<use transform="translate(143)" xlink:href="#DejaVuSans-20"/>
<use transform="translate(175)" xlink:href="#s"/>
<use transform="translate(227)" xlink:href="#w"/>
<use transform="translate(255)" xlink:href="#t"/>
<use transform="translate(316)" xlink:href="#af"/>
<use transform="translate(398)" xlink:href="#g"/>
<use transform="translate(460)" xlink:href="#q"/>
</g>
</g>
<g transform="translate(232 384) scale(.12 -.12)">
<use xlink:href="#al"/>
<use transform="translate(63.2)" xlink:href="#x"/>
<use transform="translate(98.4)" xlink:href="#x"/>
<use transform="translate(134)" xlink:href="#g"/>
<use transform="translate(195)" xlink:href="#y"/>
<use transform="translate(250)" xlink:href="#n"/>
<use transform="translate(289)" xlink:href="#DejaVuSans-20"/>
<use transform="translate(321)" xlink:href="#t"/>
<use transform="translate(382)" xlink:href="#x"/>
<use transform="translate(417)" xlink:href="#DejaVuSans-20"/>
<use transform="translate(449)" xlink:href="#x"/>
<use transform="translate(484)" xlink:href="#q"/>
<use transform="translate(523)" xlink:href="#g"/>
<use transform="translate(585)" xlink:href="#g"/>
<use transform="translate(646)" xlink:href="#DejaVuSans-20"/>
<use transform="translate(678)" xlink:href="#n"/>
<use transform="translate(717)" xlink:href="#aq"/>
<use transform="translate(781)" xlink:href="#q"/>
<use transform="translate(820)" xlink:href="#g"/>
<use transform="translate(881)" xlink:href="#r"/>
<use transform="translate(942)" xlink:href="#ak"/>
<use transform="translate(1006)" xlink:href="#u"/>
<use transform="translate(1034)" xlink:href="#z"/>
<use transform="translate(1097)" xlink:href="#aj"/>
<use transform="translate(1161)" xlink:href="#DejaVuSans-20"/>
<use transform="translate(1192)" xlink:href="#ac"/>
<use transform="translate(1252)" xlink:href="#s"/>
<use transform="translate(1304)" xlink:href="#j"/>
<use transform="translate(1335)" xlink:href="#DejaVuSans-20"/>
<use transform="translate(1367)" xlink:href="#ag"/>
<use transform="translate(1425)" xlink:href="#u"/>
<use transform="translate(1453)" xlink:href="#g"/>
<use transform="translate(1514)" xlink:href="#q"/>
<use transform="translate(1556)" xlink:href="#DejaVuSans-20"/>
<use transform="translate(1587)" xlink:href="#e"/>
<use transform="translate(1651)" xlink:href="#DejaVuSans-20"/>
<use transform="translate(1683)" xlink:href="#an"/>
<use transform="translate(1722)" xlink:href="#s"/>
<use transform="translate(1774)" xlink:href="#r"/>
<use transform="translate(1835)" xlink:href="#v"/>
<use transform="translate(1933)" xlink:href="#g"/>
<use transform="translate(1994)" xlink:href="#DejaVuSans-20"/>
<use transform="translate(2026)" xlink:href="#y"/>
<use transform="translate(2081)" xlink:href="#t"/>
<use transform="translate(2142)" xlink:href="#v"/>
<use transform="translate(2239)" xlink:href="#v"/>
<use transform="translate(2337)" xlink:href="#u"/>
<use transform="translate(2365)" xlink:href="#n"/>
<use transform="translate(2404)" xlink:href="#am"/>
</g>
<path d="m47.6 428h82.6q2 0 2-2v-28.4q0-2-2-2h-82.6q-2 0-2 2v28.4q0 2 2 2z" fill="#fff" opacity=".8" stroke="#ccc"/>
<path d="m49.6 403h10 10" fill="none" stroke="#1f77b4" stroke-dasharray="1.5,2.475" stroke-opacity=".9" stroke-width="1.5"/>
<use x="59.645553" y="403.359463" fill="#1f77b4" fill-opacity=".9" stroke="#1f77b4" stroke-opacity=".9" xlink:href="#a"/>
<g transform="translate(77.6 407) scale(.1 -.1)">
<use xlink:href="#w"/>
<use transform="translate(27.8)" xlink:href="#u"/>
<use transform="translate(55.6)" xlink:href="#z"/>
<use transform="translate(119)" xlink:href="#ab"/>
<use transform="translate(182)" xlink:href="#ai"/>
<use transform="translate(242)" xlink:href="#f"/>
<use transform="translate(275)" xlink:href="#ac"/>
<use transform="translate(334)" xlink:href="#ab"/>
<use transform="translate(398)" xlink:href="#w"/>
<use transform="translate(425)" xlink:href="#n"/>
<use transform="translate(465)" xlink:href="#q"/>
</g>
<path d="m49.6 418h10 10" fill="none" stroke="#2ca02c" stroke-linecap="square" stroke-opacity=".9" stroke-width="1.5"/>
<use x="59.645553" y="418.037588" fill="#2ca02c" fill-opacity=".9" stroke="#2ca02c" stroke-opacity=".9" xlink:href="#b"/>
<g transform="translate(77.6 422) scale(.1 -.1)">
<use xlink:href="#v"/>
<use transform="translate(97.4)" xlink:href="#r"/>
<use transform="translate(159)" xlink:href="#y"/>
<use transform="translate(214)" xlink:href="#t"/>
<use transform="translate(275)" xlink:href="#s"/>
</g>
<path d="m40.6 1060h676v-316h-676z" fill="#fff"/>
<path d="m62.4 1060v-316" clip-path="url(#o)" fill="none" stroke="#b0b0b0" stroke-linecap="square" stroke-width=".8"/>
<use x="62.382151" y="1060.321635" stroke="#000000" stroke-width=".8" xlink:href="#k"/>
<g transform="translate(41.5 1075) scale(.1 -.1)">
<use xlink:href="#d"/>
<use transform="translate(63.6)" xlink:href="#c"/>
<use transform="translate(127)" xlink:href="#d"/>
<use transform="translate(191)" xlink:href="#ad"/>
<use transform="translate(254)" xlink:href="#f"/>
<use transform="translate(291)" xlink:href="#c"/>
<use transform="translate(354)" xlink:href="#aa"/>
</g>
<path d="m161 1060v-316" clip-path="url(#o)" fill="none" stroke="#b0b0b0" stroke-linecap="square" stroke-width=".8"/>
<use x="160.597012" y="1060.321635" stroke="#000000" stroke-width=".8" xlink:href="#k"/>
<g transform="translate(140 1075) scale(.1 -.1)">
<use xlink:href="#d"/>
<use transform="translate(63.6)" xlink:href="#c"/>
<use transform="translate(127)" xlink:href="#d"/>
<use transform="translate(191)" xlink:href="#ad"/>
<use transform="translate(254)" xlink:href="#f"/>
<use transform="translate(291)" xlink:href="#e"/>
<use transform="translate(354)" xlink:href="#e"/>
</g>
<path d="m259 1060v-316" clip-path="url(#o)" fill="none" stroke="#b0b0b0" stroke-linecap="square" stroke-width=".8"/>
<use x="258.811873" y="1060.321635" stroke="#000000" stroke-width=".8" xlink:href="#k"/>
<g transform="translate(238 1075) scale(.1 -.1)">
<use xlink:href="#d"/>
<use transform="translate(63.6)" xlink:href="#c"/>
<use transform="translate(127)" xlink:href="#d"/>
<use transform="translate(191)" xlink:href="#i"/>
<use transform="translate(254)" xlink:href="#f"/>
<use transform="translate(291)" xlink:href="#c"/>
<use transform="translate(354)" xlink:href="#e"/>
</g>
<path d="m354 1060v-316" clip-path="url(#o)" fill="none" stroke="#b0b0b0" stroke-linecap="square" stroke-width=".8"/>
<use x="353.806574" y="1060.321635" stroke="#000000" stroke-width=".8" xlink:href="#k"/>
<g transform="translate(333 1075) scale(.1 -.1)">
<use xlink:href="#d"/>
<use transform="translate(63.6)" xlink:href="#c"/>
<use transform="translate(127)" xlink:href="#d"/>
<use transform="translate(191)" xlink:href="#i"/>
<use transform="translate(254)" xlink:href="#f"/>
<use transform="translate(291)" xlink:href="#c"/>
<use transform="translate(354)" xlink:href="#ae"/>
</g>
<path d="m452 1060v-316" clip-path="url(#o)" fill="none" stroke="#b0b0b0" stroke-linecap="square" stroke-width=".8"/>
<use x="452.021435" y="1060.321635" stroke="#000000" stroke-width=".8" xlink:href="#k"/>
<g transform="translate(431 1075) scale(.1 -.1)">
<use xlink:href="#d"/>
<use transform="translate(63.6)" xlink:href="#c"/>
<use transform="translate(127)" xlink:href="#d"/>
<use transform="translate(191)" xlink:href="#i"/>
<use transform="translate(254)" xlink:href="#f"/>
<use transform="translate(291)" xlink:href="#c"/>
<use transform="translate(354)" xlink:href="#i"/>
</g>
<path d="m550 1060v-316" clip-path="url(#o)" fill="none" stroke="#b0b0b0" stroke-linecap="square" stroke-width=".8"/>
<use x="550.236296" y="1060.321635" stroke="#000000" stroke-width=".8" xlink:href="#k"/>
<g transform="translate(529 1075) scale(.1 -.1)">
<use xlink:href="#d"/>
<use transform="translate(63.6)" xlink:href="#c"/>
<use transform="translate(127)" xlink:href="#d"/>
<use transform="translate(191)" xlink:href="#i"/>
<use transform="translate(254)" xlink:href="#f"/>
<use transform="translate(291)" xlink:href="#c"/>
<use transform="translate(354)" xlink:href="#ah"/>
</g>
<path d="m650 1060v-316" clip-path="url(#o)" fill="none" stroke="#b0b0b0" stroke-linecap="square" stroke-width=".8"/>
<use x="650.061237" y="1060.321635" stroke="#000000" stroke-width=".8" xlink:href="#k"/>
<g transform="translate(629 1075) scale(.1 -.1)">
<use xlink:href="#d"/>
<use transform="translate(63.6)" xlink:href="#c"/>
<use transform="translate(127)" xlink:href="#d"/>
<use transform="translate(191)" xlink:href="#i"/>
<use transform="translate(254)" xlink:href="#f"/>
<use transform="translate(291)" xlink:href="#c"/>
<use transform="translate(354)" xlink:href="#aa"/>
</g>
<path d="m40.6 1029h676" clip-path="url(#o)" fill="none" stroke="#b0b0b0" stroke-linecap="square" stroke-width=".8"/>
<use x="40.645553" y="1028.553649" stroke="#000000" stroke-width=".8" xlink:href="#l"/>
<g transform="translate(3 1032) scale(.1 -.1)">
<use xlink:href="#e"/>
<use transform="translate(63.6)" xlink:href="#j"/>
<use transform="translate(95.4)" xlink:href="#c"/>
<use transform="translate(159)" xlink:href="#c"/>
<use transform="translate(223)" xlink:href="#m"/>
</g>
<path d="m40.6 960h676" clip-path="url(#o)" fill="none" stroke="#b0b0b0" stroke-linecap="square" stroke-width=".8"/>
<use x="40.645553" y="960.22018" stroke="#000000" stroke-width=".8" xlink:href="#l"/>
<g transform="translate(3 964) scale(.1 -.1)">
<use xlink:href="#e"/>
<use transform="translate(63.6)" xlink:href="#j"/>
<use transform="translate(95.4)" xlink:href="#e"/>
<use transform="translate(159)" xlink:href="#c"/>
<use transform="translate(223)" xlink:href="#m"/>
</g>
<path d="m40.6 892h676" clip-path="url(#o)" fill="none" stroke="#b0b0b0" stroke-linecap="square" stroke-width=".8"/>
<use x="40.645553" y="891.88671" stroke="#000000" stroke-width=".8" xlink:href="#l"/>
<g transform="translate(3 896) scale(.1 -.1)">
<use xlink:href="#e"/>
<use transform="translate(63.6)" xlink:href="#j"/>
<use transform="translate(95.4)" xlink:href="#d"/>
<use transform="translate(159)" xlink:href="#c"/>
<use transform="translate(223)" xlink:href="#m"/>
</g>
<path d="m40.6 824h676" clip-path="url(#o)" fill="none" stroke="#b0b0b0" stroke-linecap="square" stroke-width=".8"/>
<use x="40.645553" y="823.553241" stroke="#000000" stroke-width=".8" xlink:href="#l"/>
<g transform="translate(3 827) scale(.1 -.1)">
<use xlink:href="#e"/>
<use transform="translate(63.6)" xlink:href="#j"/>
<use transform="translate(95.4)" xlink:href="#ae"/>
<use transform="translate(159)" xlink:href="#c"/>
<use transform="translate(223)" xlink:href="#m"/>
</g>
<path d="m40.6 755h676" clip-path="url(#o)" fill="none" stroke="#b0b0b0" stroke-linecap="square" stroke-width=".8"/>
<use x="40.645553" y="755.219771" stroke="#000000" stroke-width=".8" xlink:href="#l"/>
<g transform="translate(3 759) scale(.1 -.1)">
<use xlink:href="#e"/>
<use transform="translate(63.6)" xlink:href="#j"/>
<use transform="translate(95.4)" xlink:href="#ad"/>
<use transform="translate(159)" xlink:href="#c"/>
<use transform="translate(223)" xlink:href="#m"/>
</g>
<g stroke="#1f77b4" stroke-opacity=".9">
<path d="m389 1013 11.2 25.3 11.4-14.3 11.2 8.88 11-2.54 11.6-0.453 11.1-3.29 11.4-2 11.3-0.111 10.6 5.87 11.9-271 11.2 261 10.9 9.13 11.3-9.88 11 2.36 11.9 1.64 11-4.33 11.4 3.19 11.1-3.23 11.2 6.61 11.4-11.1 11 4.33 11.3-0.068 11.7-3.57 11.2 7.71 11 6.63 10.6-5.77" clip-path="url(#o)" fill="none" stroke-dasharray="1.5,2.475" stroke-width="1.5"/>
<g clip-path="url(#o)" fill="#1f77b4" fill-opacity=".9">
<use x="388.674788" y="1012.607762" xlink:href="#a"/>
<use x="399.845685" y="1037.953076" xlink:href="#a"/>
<use x="411.228296" y="1023.689392" xlink:href="#a"/>
<use x="422.475877" y="1032.568512" xlink:href="#a"/>
<use x="433.451123" y="1030.025913" xlink:href="#a"/>
<use x="445.025844" y="1029.57254" xlink:href="#a"/>
<use x="456.151029" y="1026.2804" xlink:href="#a"/>
<use x="467.560139" y="1024.278307" xlink:href="#a"/>
<use x="478.81659" y="1024.167402" xlink:href="#a"/>
<use x="489.410318" y="1030.036415" xlink:href="#a"/>
<use x="501.299974" y="759.131827" xlink:href="#a"/>
<use x="512.543361" y="1020.625702" xlink:href="#a"/>
<use x="523.473492" y="1029.758653" xlink:href="#a"/>
<use x="534.776493" y="1019.876515" xlink:href="#a"/>
<use x="545.821454" y="1022.234406" xlink:href="#a"/>
<use x="557.743777" y="1023.877103" xlink:href="#a"/>
<use x="568.701972" y="1019.551459" xlink:href="#a"/>
<use x="580.071781" y="1022.741906" xlink:href="#a"/>
<use x="591.161223" y="1019.510186" xlink:href="#a"/>
<use x="602.35096" y="1026.116477" xlink:href="#a"/>
<use x="613.796223" y="1015.017218" xlink:href="#a"/>
<use x="624.802869" y="1019.351438" xlink:href="#a"/>
<use x="636.128196" y="1019.283485" xlink:href="#a"/>
<use x="647.804237" y="1015.712986" xlink:href="#a"/>
<use x="659.043934" y="1023.418275" xlink:href="#a"/>
<use x="670.083323" y="1030.053136" xlink:href="#a"/>
<use x="680.721775" y="1024.279158" xlink:href="#a"/>
</g>
</g>
<g stroke="#2ca02c" stroke-opacity=".9">
<path d="m389 1016 11.2-1.97 11.4 9.12 11.2 6.32 11-10.8 22.7 15.5 11.4-8.84 11.3 3.29 10.6-6.87 11.9-219 11.2 229 10.9-0.313 11.3 4.02 11-8.41 11.9-4.37 11 23.5 11.4-18.6 11.1-1.41 11.2 5.33 11.4-11.1 11-0.0128 11.3 11.5 11.7-7.71 11.2-0.589 11 4.44" clip-path="url(#o)" fill="none" stroke-linecap="square" stroke-width="1.5"/>
<g clip-path="url(#o)" fill="#2ca02c" fill-opacity=".9">
<use x="388.674788" y="1015.79177" xlink:href="#b"/>
<use x="399.845685" y="1013.821877" xlink:href="#b"/>
<use x="411.228296" y="1022.93787" xlink:href="#b"/>
<use x="422.475877" y="1029.260781" xlink:href="#b"/>
<use x="433.451123" y="1018.450343" xlink:href="#b"/>
<use x="456.151029" y="1033.928365" xlink:href="#b"/>
<use x="467.560139" y="1025.092435" xlink:href="#b"/>
<use x="478.81659" y="1028.377553" xlink:href="#b"/>
<use x="489.410318" y="1021.51104" xlink:href="#b"/>
<use x="501.299974" y="802.957734" xlink:href="#b"/>
<use x="512.543361" y="1031.502965" xlink:href="#b"/>
<use x="523.473492" y="1031.189963" xlink:href="#b"/>
<use x="534.776493" y="1035.214599" xlink:href="#b"/>
<use x="545.821454" y="1026.80849" xlink:href="#b"/>
<use x="557.743777" y="1022.441669" xlink:href="#b"/>
<use x="568.701972" y="1045.979263" xlink:href="#b"/>
<use x="580.071781" y="1027.419199" xlink:href="#b"/>
<use x="591.161223" y="1026.008118" xlink:href="#b"/>
<use x="602.35096" y="1031.337647" xlink:href="#b"/>
<use x="613.796223" y="1020.278497" xlink:href="#b"/>
<use x="624.802869" y="1020.265672" xlink:href="#b"/>
<use x="636.128196" y="1031.801347" xlink:href="#b"/>
<use x="647.804237" y="1024.092814" xlink:href="#b"/>
<use x="659.043934" y="1023.503369" xlink:href="#b"/>
<use x="670.083323" y="1027.946651" xlink:href="#b"/>
</g>
</g>
<path d="m40.6 1060v-316" fill="none" stroke="#000" stroke-linecap="square" stroke-width=".8"/>
<path d="m717 1060v-316" fill="none" stroke="#000" stroke-linecap="square" stroke-width=".8"/>
<path d="m40.6 1060h676" fill="none" stroke="#000" stroke-linecap="square" stroke-width=".8"/>
<path d="m40.6 745h676" fill="none" stroke="#000" stroke-linecap="square" stroke-width=".8"/>
<g clip-path="url(#o)">
<g transform="translate(58.2 1021) rotate(-90) scale(.1 -.1)">
<use xlink:href="#x"/>
<use transform="translate(35.2)" xlink:href="#r"/>
<use transform="translate(96.5)" xlink:href="#s"/>
<use transform="translate(149)" xlink:href="#n"/>
<use transform="translate(188)" xlink:href="#g"/>
<use transform="translate(249)" xlink:href="#q"/>
<use transform="translate(290)" xlink:href="#DejaVuSans-20"/>
<use transform="translate(322)" xlink:href="#ao"/>
</g>
</g>
<g clip-path="url(#o)">
<g transform="translate(58.2 1089) rotate(-90) scale(.1 -.1)">
<use xlink:href="#ap"/>
<use transform="translate(143)" xlink:href="#DejaVuSans-20"/>
<use transform="translate(175)" xlink:href="#s"/>
<use transform="translate(227)" xlink:href="#w"/>
<use transform="translate(255)" xlink:href="#t"/>
<use transform="translate(316)" xlink:href="#af"/>
<use transform="translate(398)" xlink:href="#g"/>
<use transform="translate(460)" xlink:href="#q"/>
</g>
</g>
<g transform="translate(268 739) scale(.12 -.12)">
<defs>
<path id="av" transform="scale(.0156)" d="m628 4666h631v-4341q0-844-320-1225t-1030-381h-240v531h197q418 0 590 235 172 234 172 840v4341z"/>
<path id="aw" transform="scale(.0156)" d="m628 4666h631v-4666h-631v4666z"/>
</defs>
<use xlink:href="#al"/>
<use transform="translate(63.2)" xlink:href="#x"/>
<use transform="translate(98.4)" xlink:href="#x"/>
<use transform="translate(134)" xlink:href="#g"/>
<use transform="translate(195)" xlink:href="#y"/>
<use transform="translate(250)" xlink:href="#n"/>
<use transform="translate(289)" xlink:href="#DejaVuSans-20"/>
<use transform="translate(321)" xlink:href="#t"/>
<use transform="translate(382)" xlink:href="#x"/>
<use transform="translate(417)" xlink:href="#DejaVuSans-20"/>
<use transform="translate(449)" xlink:href="#av"/>
<use transform="translate(479)" xlink:href="#aw"/>
<use transform="translate(508)" xlink:href="#ag"/>
<use transform="translate(569)" xlink:href="#DejaVuSans-20"/>
<use transform="translate(601)" xlink:href="#ac"/>
<use transform="translate(660)" xlink:href="#s"/>
<use transform="translate(712)" xlink:href="#j"/>
<use transform="translate(744)" xlink:href="#DejaVuSans-20"/>
<use transform="translate(776)" xlink:href="#ag"/>
<use transform="translate(834)" xlink:href="#u"/>
<use transform="translate(862)" xlink:href="#g"/>
<use transform="translate(923)" xlink:href="#q"/>
<use transform="translate(964)" xlink:href="#DejaVuSans-20"/>
<use transform="translate(996)" xlink:href="#e"/>
<use transform="translate(1060)" xlink:href="#DejaVuSans-20"/>
<use transform="translate(1092)" xlink:href="#an"/>
<use transform="translate(1131)" xlink:href="#s"/>
<use transform="translate(1183)" xlink:href="#r"/>
<use transform="translate(1244)" xlink:href="#v"/>
<use transform="translate(1341)" xlink:href="#g"/>
<use transform="translate(1403)" xlink:href="#DejaVuSans-20"/>
<use transform="translate(1435)" xlink:href="#y"/>
<use transform="translate(1490)" xlink:href="#t"/>
<use transform="translate(1551)" xlink:href="#v"/>
<use transform="translate(1648)" xlink:href="#v"/>
<use transform="translate(1746)" xlink:href="#u"/>
<use transform="translate(1773)" xlink:href="#n"/>
<use transform="translate(1813)" xlink:href="#am"/>
</g>
<path d="m47.6 782h82.6q2 0 2-2v-28.4q0-2-2-2h-82.6q-2 0-2 2v28.4q0 2 2 2z" fill="#fff" opacity=".8" stroke="#ccc"/>
<path d="m49.6 758h10 10" fill="none" stroke="#1f77b4" stroke-dasharray="1.5,2.475" stroke-opacity=".9" stroke-width="1.5"/>
<use x="59.645553" y="757.887892" fill="#1f77b4" fill-opacity=".9" stroke="#1f77b4" stroke-opacity=".9" xlink:href="#a"/>
<g transform="translate(77.6 761) scale(.1 -.1)">
<use xlink:href="#w"/>
<use transform="translate(27.8)" xlink:href="#u"/>
<use transform="translate(55.6)" xlink:href="#z"/>
<use transform="translate(119)" xlink:href="#ab"/>
<use transform="translate(182)" xlink:href="#ai"/>
<use transform="translate(242)" xlink:href="#f"/>
<use transform="translate(275)" xlink:href="#ac"/>
<use transform="translate(334)" xlink:href="#ab"/>
<use transform="translate(398)" xlink:href="#w"/>
<use transform="translate(425)" xlink:href="#n"/>
<use transform="translate(465)" xlink:href="#q"/>
</g>
<path d="m49.6 773h10 10" fill="none" stroke="#2ca02c" stroke-linecap="square" stroke-opacity=".9" stroke-width="1.5"/>
<use x="59.645553" y="772.566017" fill="#2ca02c" fill-opacity=".9" stroke="#2ca02c" stroke-opacity=".9" xlink:href="#b"/>
<g transform="translate(77.6 776) scale(.1 -.1)">
<use xlink:href="#v"/>
<use transform="translate(97.4)" xlink:href="#r"/>
<use transform="translate(159)" xlink:href="#y"/>
<use transform="translate(214)" xlink:href="#t"/>
<use transform="translate(275)" xlink:href="#s"/>
</g>
<g transform="translate(229 12.1) scale(.12 -.12)">
<defs>
<path id="au" transform="scale(.0156)" d="m1259 4147v-1753h794q441 0 681 228 241 228 241 650 0 419-241 647-240 228-681 228h-794zm-631 519h1425q785 0 1186-355 402-355 402-1039 0-691-402-1044-401-353-1186-353h-794v-1875h-631v4666z"/>
<path id="at" transform="scale(.0156)" d="m1159 525v-1856h-578v4831h578v-531q182 312 458 463 277 152 661 152 638 0 1036-506 399-506 399-1331t-399-1332q-398-506-1036-506-384 0-661 152-276 152-458 464zm1957 1222q0 634-261 995t-717 361q-457 0-718-361t-261-995 261-995 718-361q456 0 717 361t261 995z"/>
<path id="as" transform="scale(.0156)" d="m2059-325q-243-625-475-815-231-191-618-191h-460v481h338q237 0 368 113 132 112 291 531l103 262-1415 3444h609l1094-2737 1094 2737h609l-1538-3825z"/>
</defs>
<use xlink:href="#au"/>
<use transform="translate(56.7)" xlink:href="#g"/>
<use transform="translate(118)" xlink:href="#q"/>
<use transform="translate(159)" xlink:href="#x"/>
<use transform="translate(195)" xlink:href="#t"/>
<use transform="translate(256)" xlink:href="#q"/>
<use transform="translate(295)" xlink:href="#v"/>
<use transform="translate(392)" xlink:href="#r"/>
<use transform="translate(454)" xlink:href="#z"/>
<use transform="translate(517)" xlink:href="#y"/>
<use transform="translate(572)" xlink:href="#g"/>
<use transform="translate(634)" xlink:href="#DejaVuSans-20"/>
<use transform="translate(665)" xlink:href="#u"/>
<use transform="translate(693)" xlink:href="#v"/>
<use transform="translate(791)" xlink:href="#at"/>
<use transform="translate(854)" xlink:href="#q"/>
<use transform="translate(893)" xlink:href="#t"/>
<use transform="translate(954)" xlink:href="#ac"/>
<use transform="translate(1013)" xlink:href="#g"/>
<use transform="translate(1075)" xlink:href="#v"/>
<use transform="translate(1172)" xlink:href="#g"/>
<use transform="translate(1234)" xlink:href="#z"/>
<use transform="translate(1297)" xlink:href="#n"/>
<use transform="translate(1336)" xlink:href="#DejaVuSans-20"/>
<use transform="translate(1368)" xlink:href="#ar"/>
<use transform="translate(1432)" xlink:href="#as"/>
<use transform="translate(1491)" xlink:href="#DejaVuSans-20"/>
<use transform="translate(1523)" xlink:href="#y"/>
<use transform="translate(1578)" xlink:href="#t"/>
<use transform="translate(1639)" xlink:href="#z"/>
<use transform="translate(1702)" xlink:href="#x"/>
<use transform="translate(1737)" xlink:href="#u"/>
<use transform="translate(1765)" xlink:href="#aj"/>
<use transform="translate(1829)" xlink:href="#ab"/>
<use transform="translate(1892)" xlink:href="#q"/>
<use transform="translate(1933)" xlink:href="#r"/>
<use transform="translate(1994)" xlink:href="#n"/>
<use transform="translate(2034)" xlink:href="#u"/>
<use transform="translate(2061)" xlink:href="#t"/>
<use transform="translate(2123)" xlink:href="#z"/>
</g>
<defs>
<clipPath id="h">
<rect x="40.6" y="35.7" width="676" height="316"/>
</clipPath>
<clipPath id="p">
<rect x="40.6" y="390" width="676" height="316"/>
</clipPath>
<clipPath id="o">
<rect x="40.6" y="745" width="676" height="316"/>
</clipPath>
</defs>
</svg>
