<?xml version="1.0" encoding="UTF-8"?>
<!DOCTYPE svg  PUBLIC '-//W3C//DTD SVG 1.1//EN'  'http://www.w3.org/Graphics/SVG/1.1/DTD/svg11.dtd'>
<svg width="720pt" height="1080pt" version="1.1" viewBox="0 0 720 1080" xmlns="http://www.w3.org/2000/svg" xmlns:xlink="http://www.w3.org/1999/xlink">
<defs>
<style type="text/css">*{stroke-linejoin: round; stroke-linecap: butt}</style>
</defs>
<path d="m0 1080h720v-1080h-720z" fill="#fff"/>
<path d="m40.6 351h676v-316h-676z" fill="#fff"/>
<path d="m61.7 351v-316" clip-path="url(#h)" fill="none" stroke="#b0b0b0" stroke-linecap="square" stroke-width=".8"/>
<defs>
<path id="k" d="m0 0v3.5" stroke="#000" stroke-width=".8"/>
</defs>
<use x="61.721078" y="351.264775" stroke="#000000" stroke-width=".8" xlink:href="#k"/>
<g transform="translate(40.8 366) scale(.1 -.1)">
<defs>
<path id="d" transform="scale(.0156)" d="m1228 531h2203v-531h-2962v531q359 372 979 998 621 627 780 809 303 340 423 576 121 236 121 464 0 372-261 606-261 235-680 235-297 0-627-103-329-103-704-313v638q381 153 712 231 332 78 607 78 725 0 1156-363 431-362 431-968 0-288-108-546-107-257-392-607-78-91-497-524-418-433-1181-1211z"/>
<path id="c" transform="scale(.0156)" d="m2034 4250q-487 0-733-480-245-479-245-1442 0-959 245-1439 246-480 733-480 491 0 736 480 246 480 246 1439 0 963-246 1442-245 480-736 480zm0 500q785 0 1199-621 414-620 414-1801 0-1178-414-1799-414-620-1199-620-784 0-1198 620-414 621-414 1799 0 1181 414 1801 414 621 1198 621z"/>
<path id="ad" transform="scale(.0156)" d="m2419 4116-1594-2491h1594v2491zm-166 550h794v-3041h666v-525h-666v-1100h-628v1100h-2106v609l1940 2957z"/>
<path id="f" transform="scale(.0156)" d="m313 2009h1684v-512h-1684v512z"/>
<path id="aa" transform="scale(.0156)" d="m703 97v575q238-113 481-172 244-59 479-59 625 0 954 420 330 420 377 1277-181-269-460-413-278-144-615-144-700 0-1108 423-408 424-408 1159 0 718 425 1152 425 435 1131 435 810 0 1236-621 427-620 427-1801 0-1103-524-1761-523-658-1407-658-238 0-482 47-243 47-506 141zm1256 1978q425 0 673 290 249 291 249 798 0 503-249 795-248 292-673 292t-673-292-248-795q0-507 248-798 248-290 673-290z"/>
</defs>
<use xlink:href="#d"/>
<use transform="translate(63.6)" xlink:href="#c"/>
<use transform="translate(127)" xlink:href="#d"/>
<use transform="translate(191)" xlink:href="#ad"/>
<use transform="translate(254)" xlink:href="#f"/>
<use transform="translate(291)" xlink:href="#c"/>
<use transform="translate(354)" xlink:href="#aa"/>
</g>
<path d="m167 351v-316" clip-path="url(#h)" fill="none" stroke="#b0b0b0" stroke-linecap="square" stroke-width=".8"/>
<use x="167.144643" y="351.264775" stroke="#000000" stroke-width=".8" xlink:href="#k"/>
<g transform="translate(146 366) scale(.1 -.1)">
<defs>
<path id="e" transform="scale(.0156)" d="m794 531h1031v3560l-1122-225v575l1116 225h631v-4135h1031v-531h-2687v531z"/>
</defs>
<use xlink:href="#d"/>
<use transform="translate(63.6)" xlink:href="#c"/>
<use transform="translate(127)" xlink:href="#d"/>
<use transform="translate(191)" xlink:href="#ad"/>
<use transform="translate(254)" xlink:href="#f"/>
<use transform="translate(291)" xlink:href="#e"/>
<use transform="translate(354)" xlink:href="#e"/>
</g>
<path d="m273 351v-316" clip-path="url(#h)" fill="none" stroke="#b0b0b0" stroke-linecap="square" stroke-width=".8"/>
<use x="272.568208" y="351.264775" stroke="#000000" stroke-width=".8" xlink:href="#k"/>
<g transform="translate(252 366) scale(.1 -.1)">
<defs>
<path id="i" transform="scale(.0156)" d="m691 4666h2478v-532h-1900v-1143q137 47 274 70 138 23 276 23 781 0 1237-428 457-428 457-1159 0-753-469-1171-469-417-1322-417-294 0-599 50-304 50-629 150v635q281-153 581-228t634-75q541 0 856 284 316 284 316 772 0 487-316 771-315 285-856 285-253 0-505-56-251-56-513-175v2344z"/>
</defs>
<use xlink:href="#d"/>
<use transform="translate(63.6)" xlink:href="#c"/>
<use transform="translate(127)" xlink:href="#d"/>
<use transform="translate(191)" xlink:href="#i"/>
<use transform="translate(254)" xlink:href="#f"/>
<use transform="translate(291)" xlink:href="#c"/>
<use transform="translate(354)" xlink:href="#e"/>
</g>
<path d="m375 351v-316" clip-path="url(#h)" fill="none" stroke="#b0b0b0" stroke-linecap="square" stroke-width=".8"/>
<use x="374.535263" y="351.264775" stroke="#000000" stroke-width=".8" xlink:href="#k"/>
<g transform="translate(354 366) scale(.1 -.1)">
<defs>
<path id="ae" transform="scale(.0156)" d="m2597 2516q453-97 707-404 255-306 255-756 0-690-475-1069-475-378-1350-378-293 0-604 58t-642 174v609q262-153 574-231 313-78 654-78 593 0 904 234t311 681q0 413-289 645-289 233-804 233h-544v519h569q465 0 712 186t247 536q0 359-255 551-254 193-729 193-260 0-557-57-297-56-653-174v562q360 100 674 150t592 50q719 0 1137-327 419-326 419-882 0-388-222-655t-631-370z"/>
</defs>
<use xlink:href="#d"/>
<use transform="translate(63.6)" xlink:href="#c"/>
<use transform="translate(127)" xlink:href="#d"/>
<use transform="translate(191)" xlink:href="#i"/>
<use transform="translate(254)" xlink:href="#f"/>
<use transform="translate(291)" xlink:href="#c"/>
<use transform="translate(354)" xlink:href="#ae"/>
</g>
<path d="m480 351v-316" clip-path="url(#h)" fill="none" stroke="#b0b0b0" stroke-linecap="square" stroke-width=".8"/>
<use x="479.958828" y="351.264775" stroke="#000000" stroke-width=".8" xlink:href="#k"/>
<g transform="translate(459 366) scale(.1 -.1)">
<use xlink:href="#d"/>
<use transform="translate(63.6)" xlink:href="#c"/>
<use transform="translate(127)" xlink:href="#d"/>
<use transform="translate(191)" xlink:href="#i"/>
<use transform="translate(254)" xlink:href="#f"/>
<use transform="translate(291)" xlink:href="#c"/>
<use transform="translate(354)" xlink:href="#i"/>
</g>
<path d="m585 351v-316" clip-path="url(#h)" fill="none" stroke="#b0b0b0" stroke-linecap="square" stroke-width=".8"/>
<use x="585.382394" y="351.264775" stroke="#000000" stroke-width=".8" xlink:href="#k"/>
<g transform="translate(564 366) scale(.1 -.1)">
<defs>
<path id="ah" transform="scale(.0156)" d="m525 4666h3e3v-269l-1694-4397h-659l1594 4134h-2241v532z"/>
</defs>
<use xlink:href="#d"/>
<use transform="translate(63.6)" xlink:href="#c"/>
<use transform="translate(127)" xlink:href="#d"/>
<use transform="translate(191)" xlink:href="#i"/>
<use transform="translate(254)" xlink:href="#f"/>
<use transform="translate(291)" xlink:href="#c"/>
<use transform="translate(354)" xlink:href="#ah"/>
</g>
<path d="m693 351v-316" clip-path="url(#h)" fill="none" stroke="#b0b0b0" stroke-linecap="square" stroke-width=".8"/>
<use x="692.534214" y="351.264775" stroke="#000000" stroke-width=".8" xlink:href="#k"/>
<g transform="translate(672 366) scale(.1 -.1)">
<use xlink:href="#d"/>
<use transform="translate(63.6)" xlink:href="#c"/>
<use transform="translate(127)" xlink:href="#d"/>
<use transform="translate(191)" xlink:href="#i"/>
<use transform="translate(254)" xlink:href="#f"/>
<use transform="translate(291)" xlink:href="#c"/>
<use transform="translate(354)" xlink:href="#aa"/>
</g>
<path d="m40.6 351h676" clip-path="url(#h)" fill="none" stroke="#b0b0b0" stroke-linecap="square" stroke-width=".8"/>
<defs>
<path id="l" d="m0 0h-3.5" stroke="#000" stroke-width=".8"/>
</defs>
<use x="40.645553" y="351.264775" stroke="#000000" stroke-width=".8" xlink:href="#l"/>
<g transform="translate(3 355) scale(.1 -.1)">
<defs>
<path id="j" transform="scale(.0156)" d="m684 794h660v-794h-660v794z"/>
<path id="m" transform="scale(.0156)" d="m4488 3438-1429-1435 1429-1428-372-378-1435 1434-1434-1434-369 378 1425 1428-1425 1435 369 378 1434-1435 1435 1435 372-378z"/>
</defs>
<use xlink:href="#c"/>
<use transform="translate(63.6)" xlink:href="#j"/>
<use transform="translate(95.4)" xlink:href="#aa"/>
<use transform="translate(159)" xlink:href="#c"/>
<use transform="translate(223)" xlink:href="#m"/>
</g>
<path d="m40.6 312h676" clip-path="url(#h)" fill="none" stroke="#b0b0b0" stroke-linecap="square" stroke-width=".8"/>
<use x="40.645553" y="311.823253" stroke="#000000" stroke-width=".8" xlink:href="#l"/>
<g transform="translate(3 316) scale(.1 -.1)">
<use xlink:href="#c"/>
<use transform="translate(63.6)" xlink:href="#j"/>
<use transform="translate(95.4)" xlink:href="#aa"/>
<use transform="translate(159)" xlink:href="#i"/>
<use transform="translate(223)" xlink:href="#m"/>
</g>
<path d="m40.6 272h676" clip-path="url(#h)" fill="none" stroke="#b0b0b0" stroke-linecap="square" stroke-width=".8"/>
<use x="40.645553" y="272.38173" stroke="#000000" stroke-width=".8" xlink:href="#l"/>
<g transform="translate(3 276) scale(.1 -.1)">
<use xlink:href="#e"/>
<use transform="translate(63.6)" xlink:href="#j"/>
<use transform="translate(95.4)" xlink:href="#c"/>
<use transform="translate(159)" xlink:href="#c"/>
<use transform="translate(223)" xlink:href="#m"/>
</g>
<path d="m40.6 233h676" clip-path="url(#h)" fill="none" stroke="#b0b0b0" stroke-linecap="square" stroke-width=".8"/>
<use x="40.645553" y="232.940208" stroke="#000000" stroke-width=".8" xlink:href="#l"/>
<g transform="translate(3 237) scale(.1 -.1)">
<use xlink:href="#e"/>
<use transform="translate(63.6)" xlink:href="#j"/>
<use transform="translate(95.4)" xlink:href="#c"/>
<use transform="translate(159)" xlink:href="#i"/>
<use transform="translate(223)" xlink:href="#m"/>
</g>
<path d="m40.6 193h676" clip-path="url(#h)" fill="none" stroke="#b0b0b0" stroke-linecap="square" stroke-width=".8"/>
<use x="40.645553" y="193.498685" stroke="#000000" stroke-width=".8" xlink:href="#l"/>
<g transform="translate(3 197) scale(.1 -.1)">
<use xlink:href="#e"/>
<use transform="translate(63.6)" xlink:href="#j"/>
<use transform="translate(95.4)" xlink:href="#e"/>
<use transform="translate(159)" xlink:href="#c"/>
<use transform="translate(223)" xlink:href="#m"/>
</g>
<path d="m40.6 154h676" clip-path="url(#h)" fill="none" stroke="#b0b0b0" stroke-linecap="square" stroke-width=".8"/>
<use x="40.645553" y="154.057163" stroke="#000000" stroke-width=".8" xlink:href="#l"/>
<g transform="translate(3 158) scale(.1 -.1)">
<use xlink:href="#e"/>
<use transform="translate(63.6)" xlink:href="#j"/>
<use transform="translate(95.4)" xlink:href="#e"/>
<use transform="translate(159)" xlink:href="#i"/>
<use transform="translate(223)" xlink:href="#m"/>
</g>
<path d="m40.6 115h676" clip-path="url(#h)" fill="none" stroke="#b0b0b0" stroke-linecap="square" stroke-width=".8"/>
<use x="40.645553" y="114.61564" stroke="#000000" stroke-width=".8" xlink:href="#l"/>
<g transform="translate(3 118) scale(.1 -.1)">
<use xlink:href="#e"/>
<use transform="translate(63.6)" xlink:href="#j"/>
<use transform="translate(95.4)" xlink:href="#d"/>
<use transform="translate(159)" xlink:href="#c"/>
<use transform="translate(223)" xlink:href="#m"/>
</g>
<path d="m40.6 75.2h676" clip-path="url(#h)" fill="none" stroke="#b0b0b0" stroke-linecap="square" stroke-width=".8"/>
<use x="40.645553" y="75.174118" stroke="#000000" stroke-width=".8" xlink:href="#l"/>
<g transform="translate(3 79) scale(.1 -.1)">
<use xlink:href="#e"/>
<use transform="translate(63.6)" xlink:href="#j"/>
<use transform="translate(95.4)" xlink:href="#d"/>
<use transform="translate(159)" xlink:href="#i"/>
<use transform="translate(223)" xlink:href="#m"/>
</g>
<path d="m40.6 35.7h676" clip-path="url(#h)" fill="none" stroke="#b0b0b0" stroke-linecap="square" stroke-width=".8"/>
<use x="40.645553" y="35.732595" stroke="#000000" stroke-width=".8" xlink:href="#l"/>
<g transform="translate(3 39.5) scale(.1 -.1)">
<use xlink:href="#e"/>
<use transform="translate(63.6)" xlink:href="#j"/>
<use transform="translate(95.4)" xlink:href="#ae"/>
<use transform="translate(159)" xlink:href="#c"/>
<use transform="translate(223)" xlink:href="#m"/>
</g>
<path d="m412 218 1.13 78.3 10.9-58.5 12.2-29.2 3.06 59.7 4.91-34.6 4.1 1.27 11.8-4.23 12.4 2.93 11.9 8.27 12.2-3.75 12.1 2.54 11.4 4.09 12.8-12.4 12.1 2.18 11.7 6.76 12.1-3.47 11.9 2.32 12.8-3.75 11.8 1.02 12.2 3.28 11.9-4.84 12 5.24 12.3-6.85 11.8 0.705 12.2 3.01" clip-path="url(#h)" fill="none" stroke="#1f77b4" stroke-dasharray="1.5,2.475" stroke-opacity=".9" stroke-width="1.5"/>
<defs>
<path id="a" d="m-2.5 2.5h5v-5h-5z" stroke="#1f77b4" stroke-opacity=".9"/>
</defs>
<g clip-path="url(#h)" fill="#1f77b4" fill-opacity=".9" stroke="#1f77b4" stroke-opacity=".9">
<use x="411.962709" y="217.972608" xlink:href="#a"/>
<use x="413.092216" y="296.236601" xlink:href="#a"/>
<use x="423.95352" y="237.786525" xlink:href="#a"/>
<use x="436.171583" y="208.609505" xlink:href="#a"/>
<use x="439.234296" y="268.348273" xlink:href="#a"/>
<use x="444.147561" y="233.780467" xlink:href="#a"/>
<use x="448.244706" y="235.050049" xlink:href="#a"/>
<use x="460.025505" y="230.815623" xlink:href="#a"/>
<use x="472.44978" y="233.746182" xlink:href="#a"/>
<use x="484.391523" y="242.018666" xlink:href="#a"/>
<use x="496.638031" y="238.265931" xlink:href="#a"/>
<use x="508.720675" y="240.808105" xlink:href="#a"/>
<use x="520.091954" y="244.894915" xlink:href="#a"/>
<use x="532.854278" y="232.452493" xlink:href="#a"/>
<use x="544.9229" y="234.631196" xlink:href="#a"/>
<use x="556.655272" y="241.389536" xlink:href="#a"/>
<use x="568.787883" y="237.922981" xlink:href="#a"/>
<use x="580.643514" y="240.240096" xlink:href="#a"/>
<use x="593.440903" y="236.494728" xlink:href="#a"/>
<use x="605.2034" y="237.514392" xlink:href="#a"/>
<use x="617.407722" y="240.796986" xlink:href="#a"/>
<use x="629.311099" y="235.961163" xlink:href="#a"/>
<use x="641.322133" y="241.196596" xlink:href="#a"/>
<use x="653.607447" y="234.349573" xlink:href="#a"/>
<use x="665.421951" y="235.054912" xlink:href="#a"/>
<use x="677.578526" y="238.062197" xlink:href="#a"/>
</g>
<path d="m412 180 12-2.98 12.2 45.3 12.1 19.4 11.8-18.7 24.4 19.8 12.2-11.4 12.1 8.54 11.4 3.35 12.8-5.19 12.1 7.39 11.7 0.914 12.1-5.32 11.9-9.35 12.8-2.7 11.8 11.3 12.2-11.2 11.9 11.7 12 2.95 12.3-12.7 11.8 6.39 12.2 10.5" clip-path="url(#h)" fill="none" stroke="#2ca02c" stroke-linecap="square" stroke-opacity=".9" stroke-width="1.5"/>
<defs>
<path id="b" d="m0-2.5-2.5 5h5z" stroke="#2ca02c" stroke-opacity=".9"/>
</defs>
<g clip-path="url(#h)" fill="#2ca02c" fill-opacity=".9" stroke="#2ca02c" stroke-opacity=".9">
<use x="411.962709" y="179.969255" xlink:href="#b"/>
<use x="423.95352" y="176.992682" xlink:href="#b"/>
<use x="436.171583" y="222.29429" xlink:href="#b"/>
<use x="448.244706" y="241.648786" xlink:href="#b"/>
<use x="460.025505" y="222.987989" xlink:href="#b"/>
<use x="484.391523" y="242.766761" xlink:href="#b"/>
<use x="496.638031" y="231.392996" xlink:href="#b"/>
<use x="508.720675" y="239.932954" xlink:href="#b"/>
<use x="520.091954" y="243.285585" xlink:href="#b"/>
<use x="532.854278" y="238.099275" xlink:href="#b"/>
<use x="544.9229" y="245.490371" xlink:href="#b"/>
<use x="556.655272" y="246.40392" xlink:href="#b"/>
<use x="568.787883" y="241.082656" xlink:href="#b"/>
<use x="580.643514" y="231.732085" xlink:href="#b"/>
<use x="593.440903" y="229.028803" xlink:href="#b"/>
<use x="605.2034" y="240.35378" xlink:href="#b"/>
<use x="617.407722" y="229.114718" xlink:href="#b"/>
<use x="629.311099" y="240.773911" xlink:href="#b"/>
<use x="641.322133" y="243.720306" xlink:href="#b"/>
<use x="653.607447" y="231.056954" xlink:href="#b"/>
<use x="665.421951" y="237.443133" xlink:href="#b"/>
<use x="677.578526" y="247.931794" xlink:href="#b"/>
</g>
<path d="m40.6 351v-316" fill="none" stroke="#000" stroke-linecap="square" stroke-width=".8"/>
<path d="m717 351v-316" fill="none" stroke="#000" stroke-linecap="square" stroke-width=".8"/>
<path d="m40.6 351h676" fill="none" stroke="#000" stroke-linecap="square" stroke-width=".8"/>
<path d="m40.6 35.7h676" fill="none" stroke="#000" stroke-linecap="square" stroke-width=".8"/>
<g clip-path="url(#h)">
<g transform="translate(58.2 264) rotate(-90) scale(.1 -.1)">
<defs>
<path id="x" transform="scale(.0156)" d="m2375 4863v-479h-550q-309 0-430-125-120-125-120-450v-309h947v-447h-947v-3053h-578v3053h-550v447h550v244q0 584 272 851 272 268 862 268h544z"/>
<path id="r" transform="scale(.0156)" d="m2194 1759q-697 0-966-159t-269-544q0-306 202-486 202-179 548-179 479 0 768 339t289 901v128h-572zm1147 238v-2e3h-575v531q-197-318-491-470t-719-152q-537 0-855 302-317 302-317 808 0 590 395 890 396 300 1180 300h807v57q0 397-261 614t-733 217q-300 0-585-72-284-72-546-216v532q315 122 612 182 297 61 578 61 760 0 1135-394 375-393 375-1193z"/>
<path id="s" transform="scale(.0156)" d="m2834 3397v-544q-243 125-506 187-262 63-544 63-428 0-642-131t-214-394q0-200 153-314t616-217l197-44q612-131 870-370t258-667q0-488-386-773-386-284-1061-284-281 0-586 55t-642 164v594q319-166 628-249 309-82 613-82 406 0 624 139 219 139 219 392 0 234-158 359-157 125-692 241l-200 47q-534 112-772 345-237 233-237 639 0 494 350 762 350 269 994 269 318 0 599-47 282-46 519-140z"/>
<path id="n" transform="scale(.0156)" d="m1172 4494v-994h1184v-447h-1184v-1900q0-428 117-550t477-122h590v-481h-590q-666 0-919 248-253 249-253 905v1900h-422v447h422v994h578z"/>
<path id="g" transform="scale(.0156)" d="m3597 1894v-281h-2644q38-594 358-905t892-311q331 0 642 81t618 244v-544q-310-131-635-200t-659-69q-838 0-1327 487-489 488-489 1320 0 859 464 1363 464 505 1252 505 706 0 1117-455 411-454 411-1235zm-575 169q-6 471-264 752-258 282-683 282-481 0-770-272t-333-766l2050 4z"/>
<path id="q" transform="scale(.0156)" d="m2631 2963q-97 56-211 82-114 27-251 27-488 0-749-317t-261-911v-1844h-578v3500h578v-544q182 319 472 473 291 155 707 155 59 0 131-8 72-7 159-23l3-590z"/>
<path id="ao" transform="scale(.0156)" d="m8863 2147v-281l-1229-1228-375 375 729 728h-7622v531h7622l-729 728 375 375 1229-1228z"/>
</defs>
<use xlink:href="#x"/>
<use transform="translate(35.2)" xlink:href="#r"/>
<use transform="translate(96.5)" xlink:href="#s"/>
<use transform="translate(149)" xlink:href="#n"/>
<use transform="translate(188)" xlink:href="#g"/>
<use transform="translate(249)" xlink:href="#q"/>
<use transform="translate(290)" xlink:href="#DejaVuSans-20"/>
<use transform="translate(322)" xlink:href="#ao"/>
</g>
</g>
<g clip-path="url(#h)">
<g transform="translate(58.2 332) rotate(-90) scale(.1 -.1)">
<defs>
<path id="ap" transform="scale(.0156)" d="m313 1866v281l1228 1228 375-375-728-728h7621v-531h-7621l728-728-375-375-1228 1228z"/>
<path id="w" transform="scale(.0156)" d="m603 4863h575v-4863h-575v4863z"/>
<path id="t" transform="scale(.0156)" d="m1959 3097q-462 0-731-361t-269-989 267-989q268-361 733-361 460 0 728 362 269 363 269 988 0 622-269 986-268 364-728 364zm0 487q750 0 1178-488 429-487 429-1349 0-859-429-1349-428-489-1178-489-753 0-1180 489-426 490-426 1349 0 862 426 1349 427 488 1180 488z"/>
<path id="af" transform="scale(.0156)" d="m269 3500h575l719-2731 715 2731h678l719-2731 716 2731h575l-916-3500h-678l-753 2869-756-2869h-679l-915 3500z"/>
</defs>
<use xlink:href="#ap"/>
<use transform="translate(143)" xlink:href="#DejaVuSans-20"/>
<use transform="translate(175)" xlink:href="#s"/>
<use transform="translate(227)" xlink:href="#w"/>
<use transform="translate(255)" xlink:href="#t"/>
<use transform="translate(316)" xlink:href="#af"/>
<use transform="translate(398)" xlink:href="#g"/>
<use transform="translate(460)" xlink:href="#q"/>
</g>
</g>
<g transform="translate(174 29.7) scale(.12 -.12)">
<defs>
<path id="al" transform="scale(.0156)" d="m628 4666h2950v-532h-2319v-1381h2222v-531h-2222v-1691h2375v-531h-3006v4666z"/>
<path id="y" transform="scale(.0156)" d="m3122 3366v-538q-244 135-489 202t-495 67q-560 0-870-355-309-354-309-995t309-996q310-354 870-354 250 0 495 67t489 202v-532q-241-112-499-168-257-57-548-57-791 0-1257 497-465 497-465 1341 0 856 470 1346 471 491 1290 491 265 0 518-55 253-54 491-163z"/>
<path id="ar" transform="scale(.0156)" d="m3116 1747q0 634-261 995t-717 361q-457 0-718-361t-261-995 261-995 718-361q456 0 717 361t261 995zm-1957 1222q182 312 458 463 277 152 661 152 638 0 1036-506 399-506 399-1331t-399-1332q-398-506-1036-506-384 0-661 152-276 152-458 464v-525h-578v4863h578v-1894z"/>
<path id="ab" transform="scale(.0156)" d="m544 1381v2119h575v-2097q0-497 193-746 194-248 582-248 465 0 735 297 271 297 271 810v1984h575v-3500h-575v538q-209-319-486-474-276-155-642-155-603 0-916 375-312 375-312 1097zm1447 2203z"/>
<path id="u" transform="scale(.0156)" d="m603 3500h575v-3500h-575v3500zm0 1363h575v-729h-575v729z"/>
<path id="ak" transform="scale(.0156)" d="m2906 2969v1894h575v-4863h-575v525q-181-312-458-464-276-152-664-152-634 0-1033 506-398 507-398 1332t398 1331q399 506 1033 506 388 0 664-152 277-151 458-463zm-1959-1222q0-634 261-995t717-361 718 361q263 361 263 995t-263 995q-262 361-718 361t-717-361-261-995z"/>
<path id="aq" transform="scale(.0156)" d="m3513 2113v-2113h-575v2094q0 497-194 743-194 247-581 247-466 0-735-297-269-296-269-809v-1978h-578v4863h578v-1907q207 316 486 472 280 156 646 156 603 0 912-373 310-373 310-1098z"/>
<path id="z" transform="scale(.0156)" d="m3513 2113v-2113h-575v2094q0 497-194 743-194 247-581 247-466 0-735-297-269-296-269-809v-1978h-578v3500h578v-544q207 316 486 472 280 156 646 156 603 0 912-373 310-373 310-1098z"/>
<path id="aj" transform="scale(.0156)" d="m2906 1791q0 625-258 968-257 344-723 344-462 0-720-344-258-343-258-968 0-622 258-966t720-344q466 0 723 344 258 344 258 966zm575-1357q0-893-397-1329-396-436-1215-436-303 0-572 45t-522 139v559q253-137 500-202 247-66 503-66 566 0 847 295t281 892v285q-178-310-456-463t-666-153q-643 0-1037 490-394 491-394 1301 0 812 394 1302 394 491 1037 491 388 0 666-153t456-462v531h575v-3066z"/>
<path id="ac" transform="scale(.0156)" d="m191 3500h609l1094-2937 1094 2937h609l-1313-3500h-781l-1312 3500z"/>
<path id="ag" transform="scale(.0156)" d="m-19 4666h3947v-532h-1656v-4134h-634v4134h-1657v532z"/>
<path id="an" transform="scale(.0156)" d="m1984 4856q-418-718-622-1422-203-703-203-1425 0-721 205-1429t620-1424h-500q-468 735-701 1444t-233 1409q0 697 231 1403 232 707 703 1444h500z"/>
<path id="v" transform="scale(.0156)" d="m3328 2828q216 388 516 572t706 184q547 0 844-383 297-382 297-1088v-2113h-578v2094q0 503-179 746-178 244-543 244-447 0-707-297-259-296-259-809v-1978h-578v2094q0 506-178 748t-550 242q-441 0-701-298-259-298-259-808v-1978h-578v3500h578v-544q197 322 472 475t653 153q382 0 649-194 267-193 395-562z"/>
<path id="am" transform="scale(.0156)" d="m513 4856h500q468-737 701-1444 233-706 233-1403 0-700-233-1409t-701-1444h-500q415 716 620 1424t205 1429q0 722-205 1425-205 704-620 1422z"/>
</defs>
<use xlink:href="#al"/>
<use transform="translate(63.2)" xlink:href="#x"/>
<use transform="translate(98.4)" xlink:href="#x"/>
<use transform="translate(134)" xlink:href="#g"/>
<use transform="translate(195)" xlink:href="#y"/>
<use transform="translate(250)" xlink:href="#n"/>
<use transform="translate(289)" xlink:href="#DejaVuSans-20"/>
<use transform="translate(321)" xlink:href="#t"/>
<use transform="translate(382)" xlink:href="#x"/>
<use transform="translate(417)" xlink:href="#DejaVuSans-20"/>
<use transform="translate(449)" xlink:href="#ar"/>
<use transform="translate(513)" xlink:href="#ab"/>
<use transform="translate(576)" xlink:href="#u"/>
<use transform="translate(604)" xlink:href="#w"/>
<use transform="translate(632)" xlink:href="#ak"/>
<use transform="translate(695)" xlink:href="#DejaVuSans-20"/>
<use transform="translate(727)" xlink:href="#af"/>
<use transform="translate(809)" xlink:href="#u"/>
<use transform="translate(837)" xlink:href="#n"/>
<use transform="translate(876)" xlink:href="#aq"/>
<use transform="translate(939)" xlink:href="#DejaVuSans-20"/>
<use transform="translate(971)" xlink:href="#w"/>
<use transform="translate(999)" xlink:href="#r"/>
<use transform="translate(1060)" xlink:href="#n"/>
<use transform="translate(1099)" xlink:href="#g"/>
<use transform="translate(1161)" xlink:href="#s"/>
<use transform="translate(1213)" xlink:href="#n"/>
<use transform="translate(1252)" xlink:href="#DejaVuSans-20"/>
<use transform="translate(1284)" xlink:href="#y"/>
<use transform="translate(1339)" xlink:href="#w"/>
<use transform="translate(1367)" xlink:href="#r"/>
<use transform="translate(1428)" xlink:href="#z"/>
<use transform="translate(1491)" xlink:href="#aj"/>
<use transform="translate(1555)" xlink:href="#DejaVuSans-20"/>
<use transform="translate(1586)" xlink:href="#r"/>
<use transform="translate(1648)" xlink:href="#z"/>
<use transform="translate(1711)" xlink:href="#ak"/>
<use transform="translate(1775)" xlink:href="#DejaVuSans-20"/>
<use transform="translate(1806)" xlink:href="#n"/>
<use transform="translate(1846)" xlink:href="#r"/>
<use transform="translate(1907)" xlink:href="#u"/>
<use transform="translate(1935)" xlink:href="#w"/>
<use transform="translate(1962)" xlink:href="#y"/>
<use transform="translate(2017)" xlink:href="#r"/>
<use transform="translate(2079)" xlink:href="#w"/>
<use transform="translate(2106)" xlink:href="#w"/>
<use transform="translate(2134)" xlink:href="#DejaVuSans-20"/>
<use transform="translate(2166)" xlink:href="#ac"/>
<use transform="translate(2225)" xlink:href="#s"/>
<use transform="translate(2277)" xlink:href="#j"/>
<use transform="translate(2309)" xlink:href="#DejaVuSans-20"/>
<use transform="translate(2341)" xlink:href="#ag"/>
<use transform="translate(2399)" xlink:href="#u"/>
<use transform="translate(2427)" xlink:href="#g"/>
<use transform="translate(2488)" xlink:href="#q"/>
<use transform="translate(2529)" xlink:href="#DejaVuSans-20"/>
<use transform="translate(2561)" xlink:href="#e"/>
<use transform="translate(2625)" xlink:href="#DejaVuSans-20"/>
<use transform="translate(2656)" xlink:href="#an"/>
<use transform="translate(2696)" xlink:href="#s"/>
<use transform="translate(2748)" xlink:href="#r"/>
<use transform="translate(2809)" xlink:href="#v"/>
<use transform="translate(2906)" xlink:href="#g"/>
<use transform="translate(2968)" xlink:href="#DejaVuSans-20"/>
<use transform="translate(3e3)" xlink:href="#y"/>
<use transform="translate(3055)" xlink:href="#t"/>
<use transform="translate(3116)" xlink:href="#v"/>
<use transform="translate(3213)" xlink:href="#v"/>
<use transform="translate(3311)" xlink:href="#u"/>
<use transform="translate(3338)" xlink:href="#n"/>
<use transform="translate(3378)" xlink:href="#am"/>
</g>
<path d="m47.6 73.1h82.6q2 0 2-2v-28.4q0-2-2-2h-82.6q-2 0-2 2v28.4q0 2 2 2z" fill="#fff" opacity=".8" stroke="#ccc"/>
<path d="m49.6 48.8h10 10" fill="none" stroke="#1f77b4" stroke-dasharray="1.5,2.475" stroke-opacity=".9" stroke-width="1.5"/>
<use x="59.645553" y="48.831032" fill="#1f77b4" fill-opacity=".9" stroke="#1f77b4" stroke-opacity=".9" xlink:href="#a"/>
<g transform="translate(77.6 52.3) scale(.1 -.1)">
<defs>
<path id="ai" transform="scale(.0156)" d="m3513 3500-1266-1703 1331-1797h-678l-1019 1375-1018-1375h-679l1360 1831-1244 1669h678l928-1247 928 1247h679z"/>
</defs>
<use xlink:href="#w"/>
<use transform="translate(27.8)" xlink:href="#u"/>
<use transform="translate(55.6)" xlink:href="#z"/>
<use transform="translate(119)" xlink:href="#ab"/>
<use transform="translate(182)" xlink:href="#ai"/>
<use transform="translate(242)" xlink:href="#f"/>
<use transform="translate(275)" xlink:href="#ac"/>
<use transform="translate(334)" xlink:href="#ab"/>
<use transform="translate(398)" xlink:href="#w"/>
<use transform="translate(425)" xlink:href="#n"/>
<use transform="translate(465)" xlink:href="#q"/>
</g>
<path d="m49.6 63.5h10 10" fill="none" stroke="#2ca02c" stroke-linecap="square" stroke-opacity=".9" stroke-width="1.5"/>
<use x="59.645553" y="63.509158" fill="#2ca02c" fill-opacity=".9" stroke="#2ca02c" stroke-opacity=".9" xlink:href="#b"/>
<g transform="translate(77.6 67) scale(.1 -.1)">
<use xlink:href="#v"/>
<use transform="translate(97.4)" xlink:href="#r"/>
<use transform="translate(159)" xlink:href="#y"/>
<use transform="translate(214)" xlink:href="#t"/>
<use transform="translate(275)" xlink:href="#s"/>
</g>
<path d="m40.6 706h676v-316h-676z" fill="#fff"/>
<path d="m61.1 706v-316" clip-path="url(#p)" fill="none" stroke="#b0b0b0" stroke-linecap="square" stroke-width=".8"/>
<use x="61.072982" y="705.793205" stroke="#000000" stroke-width=".8" xlink:href="#k"/>
<g transform="translate(40.2 720) scale(.1 -.1)">
<use xlink:href="#d"/>
<use transform="translate(63.6)" xlink:href="#c"/>
<use transform="translate(127)" xlink:href="#d"/>
<use transform="translate(191)" xlink:href="#ad"/>
<use transform="translate(254)" xlink:href="#f"/>
<use transform="translate(291)" xlink:href="#c"/>
<use transform="translate(354)" xlink:href="#aa"/>
</g>
<path d="m166 706v-316" clip-path="url(#p)" fill="none" stroke="#b0b0b0" stroke-linecap="square" stroke-width=".8"/>
<use x="166.496548" y="705.793205" stroke="#000000" stroke-width=".8" xlink:href="#k"/>
<g transform="translate(146 720) scale(.1 -.1)">
<use xlink:href="#d"/>
<use transform="translate(63.6)" xlink:href="#c"/>
<use transform="translate(127)" xlink:href="#d"/>
<use transform="translate(191)" xlink:href="#ad"/>
<use transform="translate(254)" xlink:href="#f"/>
<use transform="translate(291)" xlink:href="#e"/>
<use transform="translate(354)" xlink:href="#e"/>
</g>
<path d="m272 706v-316" clip-path="url(#p)" fill="none" stroke="#b0b0b0" stroke-linecap="square" stroke-width=".8"/>
<use x="271.920113" y="705.793205" stroke="#000000" stroke-width=".8" xlink:href="#k"/>
<g transform="translate(251 720) scale(.1 -.1)">
<use xlink:href="#d"/>
<use transform="translate(63.6)" xlink:href="#c"/>
<use transform="translate(127)" xlink:href="#d"/>
<use transform="translate(191)" xlink:href="#i"/>
<use transform="translate(254)" xlink:href="#f"/>
<use transform="translate(291)" xlink:href="#c"/>
<use transform="translate(354)" xlink:href="#e"/>
</g>
<path d="m374 706v-316" clip-path="url(#p)" fill="none" stroke="#b0b0b0" stroke-linecap="square" stroke-width=".8"/>
<use x="373.887168" y="705.793205" stroke="#000000" stroke-width=".8" xlink:href="#k"/>
<g transform="translate(353 720) scale(.1 -.1)">
<use xlink:href="#d"/>
<use transform="translate(63.6)" xlink:href="#c"/>
<use transform="translate(127)" xlink:href="#d"/>
<use transform="translate(191)" xlink:href="#i"/>
<use transform="translate(254)" xlink:href="#f"/>
<use transform="translate(291)" xlink:href="#c"/>
<use transform="translate(354)" xlink:href="#ae"/>
</g>
<path d="m479 706v-316" clip-path="url(#p)" fill="none" stroke="#b0b0b0" stroke-linecap="square" stroke-width=".8"/>
<use x="479.310733" y="705.793205" stroke="#000000" stroke-width=".8" xlink:href="#k"/>
<g transform="translate(458 720) scale(.1 -.1)">
<use xlink:href="#d"/>
<use transform="translate(63.6)" xlink:href="#c"/>
<use transform="translate(127)" xlink:href="#d"/>
<use transform="translate(191)" xlink:href="#i"/>
<use transform="translate(254)" xlink:href="#f"/>
<use transform="translate(291)" xlink:href="#c"/>
<use transform="translate(354)" xlink:href="#i"/>
</g>
<path d="m585 706v-316" clip-path="url(#p)" fill="none" stroke="#b0b0b0" stroke-linecap="square" stroke-width=".8"/>
<use x="584.734298" y="705.793205" stroke="#000000" stroke-width=".8" xlink:href="#k"/>
<g transform="translate(564 720) scale(.1 -.1)">
<use xlink:href="#d"/>
<use transform="translate(63.6)" xlink:href="#c"/>
<use transform="translate(127)" xlink:href="#d"/>
<use transform="translate(191)" xlink:href="#i"/>
<use transform="translate(254)" xlink:href="#f"/>
<use transform="translate(291)" xlink:href="#c"/>
<use transform="translate(354)" xlink:href="#ah"/>
</g>
<path d="m692 706v-316" clip-path="url(#p)" fill="none" stroke="#b0b0b0" stroke-linecap="square" stroke-width=".8"/>
<use x="691.886118" y="705.793205" stroke="#000000" stroke-width=".8" xlink:href="#k"/>
<g transform="translate(671 720) scale(.1 -.1)">
<use xlink:href="#d"/>
<use transform="translate(63.6)" xlink:href="#c"/>
<use transform="translate(127)" xlink:href="#d"/>
<use transform="translate(191)" xlink:href="#i"/>
<use transform="translate(254)" xlink:href="#f"/>
<use transform="translate(291)" xlink:href="#c"/>
<use transform="translate(354)" xlink:href="#aa"/>
</g>
<path d="m40.6 673h676" clip-path="url(#p)" fill="none" stroke="#b0b0b0" stroke-linecap="square" stroke-width=".8"/>
<use x="40.645553" y="673.16728" stroke="#000000" stroke-width=".8" xlink:href="#l"/>
<g transform="translate(3 677) scale(.1 -.1)">
<defs>
<path id="ay" transform="scale(.0156)" d="m2113 2584q-425 0-674-291-248-290-248-796 0-503 248-796 249-292 674-292t673 292q248 293 248 796 0 506-248 796-248 291-673 291zm1253 1979v-575q-238 112-480 171-242 60-480 60-625 0-955-422-329-422-376-1275 184 272 462 417 279 145 613 145 703 0 1111-427 408-426 408-1160 0-719-425-1154-425-434-1131-434-810 0-1238 620-428 621-428 1799 0 1106 525 1764t1409 658q238 0 480-47t505-140z"/>
</defs>
<use xlink:href="#c"/>
<use transform="translate(63.6)" xlink:href="#j"/>
<use transform="translate(95.4)" xlink:href="#ay"/>
<use transform="translate(159)" xlink:href="#c"/>
<use transform="translate(223)" xlink:href="#m"/>
</g>
<path d="m40.6 612h676" clip-path="url(#p)" fill="none" stroke="#b0b0b0" stroke-linecap="square" stroke-width=".8"/>
<use x="40.645553" y="612.222101" stroke="#000000" stroke-width=".8" xlink:href="#l"/>
<g transform="translate(3 616) scale(.1 -.1)">
<use xlink:href="#c"/>
<use transform="translate(63.6)" xlink:href="#j"/>
<use transform="translate(95.4)" xlink:href="#ah"/>
<use transform="translate(159)" xlink:href="#c"/>
<use transform="translate(223)" xlink:href="#m"/>
</g>
<path d="m40.6 551h676" clip-path="url(#p)" fill="none" stroke="#b0b0b0" stroke-linecap="square" stroke-width=".8"/>
<use x="40.645553" y="551.276922" stroke="#000000" stroke-width=".8" xlink:href="#l"/>
<g transform="translate(3 555) scale(.1 -.1)">
<defs>
<path id="ax" transform="scale(.0156)" d="m2034 2216q-450 0-708-241-257-241-257-662 0-422 257-663 258-241 708-241t709 242q260 243 260 662 0 421-258 662-257 241-711 241zm-631 268q-406 100-633 378-226 279-226 679 0 559 398 884 399 325 1092 325 697 0 1094-325t397-884q0-400-227-679-226-278-629-378 456-106 710-416 255-309 255-755 0-679-414-1042-414-362-1186-362-771 0-1186 362-414 363-414 1042 0 446 256 755 257 310 713 416zm-231 997q0-362 226-565 227-203 636-203 407 0 636 203 230 203 230 565 0 363-230 566-229 203-636 203-409 0-636-203-226-203-226-566z"/>
</defs>
<use xlink:href="#c"/>
<use transform="translate(63.6)" xlink:href="#j"/>
<use transform="translate(95.4)" xlink:href="#ax"/>
<use transform="translate(159)" xlink:href="#c"/>
<use transform="translate(223)" xlink:href="#m"/>
</g>
<path d="m40.6 490h676" clip-path="url(#p)" fill="none" stroke="#b0b0b0" stroke-linecap="square" stroke-width=".8"/>
<use x="40.645553" y="490.331743" stroke="#000000" stroke-width=".8" xlink:href="#l"/>
<g transform="translate(3 494) scale(.1 -.1)">
<use xlink:href="#c"/>
<use transform="translate(63.6)" xlink:href="#j"/>
<use transform="translate(95.4)" xlink:href="#aa"/>
<use transform="translate(159)" xlink:href="#c"/>
<use transform="translate(223)" xlink:href="#m"/>
</g>
<path d="m40.6 429h676" clip-path="url(#p)" fill="none" stroke="#b0b0b0" stroke-linecap="square" stroke-width=".8"/>
<use x="40.645553" y="429.386564" stroke="#000000" stroke-width=".8" xlink:href="#l"/>
<g transform="translate(3 433) scale(.1 -.1)">
<use xlink:href="#e"/>
<use transform="translate(63.6)" xlink:href="#j"/>
<use transform="translate(95.4)" xlink:href="#c"/>
<use transform="translate(159)" xlink:href="#c"/>
<use transform="translate(223)" xlink:href="#m"/>
</g>
<g stroke="#1f77b4" stroke-opacity=".9">
<path d="m71.4 624 23.6 26 14.4-13.8 11.1 6.09 13 36.6 10.5 12.2h3.39l1.84-6.09h1.59l1.93 6.09 1.76-12.2 1.32 12.2 1.97-6.09h5.37l1.73-6.09h1.55l1.83 6.09 1.3-6.09 2.03 6.09 1.69-12.2 1.95 6.09 1.63-6.09 0.882 6.09 0.882-6.09 1.28 6.09h2.18l1.64-6.09 1.9 6.09h1.53l1.9-6.09 1.77-6.09 1.64 12.2 1.8 6.09 0.13-6.09 1.57-12.2 1.76 6.09h1.52l1.84-6.09 1.85-60.9 1.69-30.5 1.56-6.09 1.8 6.09 1.65 22.7 1.74-0.403 1.26 1.88 0.598 2.77 1.26-3.69 1.68-2.96 0.34 1.67 1.56-3.88 1.79 4.29 2.02 10.9 1.79-16.2 1.31 4.63 0.425-1.14 1.53-2.31 0.496-5.43 1.23 1.82 1.46 1.46 0.863 3.5 0.923 0.317 1.71-4.38 2.13 6.91 1.26-0.511 0.409 0.168 0.869-0.527 0.752 2.15 1.34-3.9 0.139-2.32 1.52-2.14 2.29 3.66 1.56-1.53 1.89 0.302 0.501-2.79 0.672 1.03 2.31-12.1 1.44 3.51 3.41-0.256 1.89-13.6 1.53 2.85 1.67 2.25 2.03-6.15 1.75 2.68 1.65 4.01 1.8-0.399 1.64-3.35 1.76 7.05 1.79-4.63 1.5-1.23 1.93-1.9 1.86-0.749 1.61 7.61 1.85-1.62 1.59-4.96 3.32 0.851 1.45-1.77 0.658 2.06 1.33-3.58 1.99 3.39 1.28-1.18 2.37-47.8 1.4-15.8 1.39-1.83 0.534 1.2 1.64 5.3 1.67 0.1 1.89 2.24 1.71 12.1 1.7-2.99 0.137 3.16 0.901-4.65 0.751 4.68 1.12-13.1 0.55 5.08 3.08-6.34 1.78-0.0838 2.1 11 0.826 2.52 0.9-1.11 1.72-13.2 1.61 0.443 1.39-17.5 1.67 7.03 1.69-0.337 0.508-0.844 1.25 9.17 2.18 0.263 1.49-7.5 2.01 2.52 1.66 9.53 1.79-3.87 1.72-1.93 1.61 4.23 1.89-5.27 1.67 2.1 1.32-1.3 0.098-2.68 1.91 0.962 1.56 2.87 2.1-1.3 1.44-1.27 1.99-4.05 1.58 1.21 1.89 1.19 1.29-3.09 1.73 3.54 2.19-0.785 1.53-2.08 0.665 5.6 0.187-0.373 0.84 2.31 1.27-0.606 0.507-0.757 1.86 12.4 1.44-8.15 0.178-2.48 1.69-3.89 1.72 11.5 0.336-7.34 1.51 3.9 1.73-6.31 1.72 2.13 1.78-3.66 1.55 3.46 1.76-1.8 1.62 9.34 1.29-26 0.653-1.14 1.74-5.22 1.62 5.93 1.59 2.62 0.228-2.36 1.61 2.42 1.55-1.84 1.95-2.69 1.39 2.84 0.373 6.36 1.08-5.06 0.727-7.59 1.74 1.58 1.74 2.92 1.7 7.68 1.66-0.821 1.13-1.69 2.25 1.2 0.111 2.93 0.868-2.74 0.884 2.22 1.38 1.89 0.0184 37.3 0.259 1.33 1.48 0.0281 2.08-3.65 1.53 1.87 1.86 4.09 1.59-4.68 0.256 0.301 1.67-19.2 1.72-2.67 1.49-0.512 1.88-1.62 1.75 6.98 1.78-1.34 1.29-1.67 0.499-3.54 1.35 4.01 0.28-0.36 1.34-16.5 0.414 4.25 1.04-26.8 0.619-3.45 1.64 7.12 1.84 1.52 1.8-1.82 1.77-4.31 1.62-2.06 1.67 1.21 0.434 3.11 1.21-4.98 1.86 1.84 1.42 3.24 2.1 1.76 1.71-1.98 1.76-0.426 1.73 1.79 1.78 0.527 1.49-1.53 1.84 4.19 1.77-2.71 1.74-4 0.684 0.823 1.11 3.45 1.68-1.05 1.66 4.84 1.06 1.46 0.733-4.31 1.51-0.511 1.96-0.919 1.75 1.4 0.866 7.66 2.59-2.9 1.74 0.389 1.44-1.25 1.9-3.64 1.23 1.86 2.19 1.85 1.4-2.54 1.75-0.334 2.1 6.12 1.55-5.44 1.87-0.9 3.57 4.92 1.72 1.45 1.76-3.66 1.63-1.85 1.65-1.53 1.04 3.1 2.5-4.61 1.63 1.81 1.63 0.267 1.94-1.84 1.6 0.227 1.52 2.5 1.94-5.69 1.3 6.84 2.31-0.46 1.28-2.36 2.14 4.66 1.35-5.71 2.15-2.47 1.54 3.63 1.82 3.84 1.85-4.43 0.972 0.497 2.45-0.242 1.7 0.965 1.7 1.68 1.24 1.59 1.97-3.48 2.02 2.06 1.73-0.0792 1.75-2.13 1.55 3.67 1.82-4.56 1.28-2.69 1.98 1.46 1.98 3.88 1.59-3.82 1.44 6.28 2.18-7.63 1.17 1.99 1.5 2.1 2.37-2.68 3.12 6.41 1.75-2.29 1.97 0.275 1.36-1.43 2.23 2.04 1.79-1.89 1.32 5.45 2-2.99 1.87-1.08 1.73 1.5 1.63-1.26 1.43 1.82 1.89-1.41 1.99-0.244 1.2-0.298 1.79 0.303 1.78-2.66 1.58-2.68 1.99 5.91 2.01-1.42 1.76 2.14 3.09 1.67 1.87-4.2 1.37 4.31 1.81-1.22 1.94-1.64 1.7-1.19 1.64 2.6 2.04-0.965 1.26-0.339 1.83 3.85 1.59-3.35 1.94-2 1.97-2.99 1.64 4.01 1.82-0.619 1.85 7.4 1.4-8.04 1.68 0.553 2.02 4.97 1.8-7.05 1.66 4.71 1.63-3.45 3.47 1.29 1.24 2.76 2.41 0.411 1.51-0.81 1.77-0.546 1.76 0.117 1.74 2.93 1.85-6.95 1.11 6 2.11-1.01 1.76-0.055 1.87-1.65 1.78 2.87 1.16-4.08" clip-path="url(#p)" fill="none" stroke-dasharray="1.5,2.475" stroke-width="1.5"/>
<g clip-path="url(#p)" fill="#1f77b4" fill-opacity=".9">
<use x="71.388926" y="624.411136" xlink:href="#a"/>
<use x="95.035377" y="650.438901" xlink:href="#a"/>
<use x="109.48299" y="636.600172" xlink:href="#a"/>
<use x="120.549844" y="642.69469" xlink:href="#a"/>
<use x="133.584628" y="679.261797" xlink:href="#a"/>
<use x="144.035471" y="691.450833" xlink:href="#a"/>
<use x="145.741823" y="691.450833" xlink:href="#a"/>
<use x="147.423352" y="691.450833" xlink:href="#a"/>
<use x="149.259023" y="685.356315" xlink:href="#a"/>
<use x="150.849077" y="685.356315" xlink:href="#a"/>
<use x="152.776022" y="691.450833" xlink:href="#a"/>
<use x="154.532301" y="679.261797" xlink:href="#a"/>
<use x="155.857157" y="691.450833" xlink:href="#a"/>
<use x="157.831888" y="685.356315" xlink:href="#a"/>
<use x="159.578486" y="685.356315" xlink:href="#a"/>
<use x="161.303741" y="685.356315" xlink:href="#a"/>
<use x="163.199881" y="685.356315" xlink:href="#a"/>
<use x="164.927456" y="679.261797" xlink:href="#a"/>
<use x="166.478025" y="679.261797" xlink:href="#a"/>
<use x="168.309975" y="685.356315" xlink:href="#a"/>
<use x="169.606447" y="679.261797" xlink:href="#a"/>
<use x="171.636687" y="685.356315" xlink:href="#a"/>
<use x="173.323336" y="673.16728" xlink:href="#a"/>
<use x="175.274524" y="679.261797" xlink:href="#a"/>
<use x="176.906605" y="673.16728" xlink:href="#a"/>
<use x="177.788355" y="679.261797" xlink:href="#a"/>
<use x="178.670165" y="673.16728" xlink:href="#a"/>
<use x="179.947954" y="679.261797" xlink:href="#a"/>
<use x="180.725308" y="679.261797" xlink:href="#a"/>
<use x="182.124695" y="679.261797" xlink:href="#a"/>
<use x="183.761017" y="673.16728" xlink:href="#a"/>
<use x="185.665378" y="679.261797" xlink:href="#a"/>
<use x="187.192003" y="679.261797" xlink:href="#a"/>
<use x="189.090043" y="673.16728" xlink:href="#a"/>
<use x="190.863545" y="667.072762" xlink:href="#a"/>
<use x="192.503287" y="679.261797" xlink:href="#a"/>
<use x="194.301553" y="685.356315" xlink:href="#a"/>
<use x="194.431892" y="679.261797" xlink:href="#a"/>
<use x="196.001324" y="667.072762" xlink:href="#a"/>
<use x="197.762604" y="673.16728" xlink:href="#a"/>
<use x="199.284789" y="673.16728" xlink:href="#a"/>
<use x="201.127421" y="667.072762" xlink:href="#a"/>
<use x="202.600698" y="617.65062" xlink:href="#a"/>
<use x="202.977354" y="606.127583" xlink:href="#a"/>
<use x="204.382641" y="581.749511" xlink:href="#a"/>
<use x="204.665603" y="575.654993" xlink:href="#a"/>
<use x="206.223633" y="569.560475" xlink:href="#a"/>
<use x="208.026079" y="575.654993" xlink:href="#a"/>
<use x="209.671742" y="598.355971" xlink:href="#a"/>
<use x="211.414499" y="597.953438" xlink:href="#a"/>
<use x="212.673145" y="599.83082" xlink:href="#a"/>
<use x="213.270934" y="602.597045" xlink:href="#a"/>
<use x="214.53142" y="598.904224" xlink:href="#a"/>
<use x="216.208687" y="595.947943" xlink:href="#a"/>
<use x="216.548317" y="597.617484" xlink:href="#a"/>
<use x="218.103747" y="593.735874" xlink:href="#a"/>
<use x="219.891771" y="598.023762" xlink:href="#a"/>
<use x="221.909209" y="608.882181" xlink:href="#a"/>
<use x="223.697013" y="592.68274" xlink:href="#a"/>
<use x="225.006206" y="597.31241" xlink:href="#a"/>
<use x="225.431369" y="596.168738" xlink:href="#a"/>
<use x="226.961135" y="593.857852" xlink:href="#a"/>
<use x="227.457208" y="588.427535" xlink:href="#a"/>
<use x="228.68943" y="590.251481" xlink:href="#a"/>
<use x="230.152386" y="591.712087" xlink:href="#a"/>
<use x="231.014913" y="595.208485" xlink:href="#a"/>
<use x="231.93809" y="595.525273" xlink:href="#a"/>
<use x="233.648102" y="591.147401" xlink:href="#a"/>
<use x="235.782677" y="598.056294" xlink:href="#a"/>
<use x="236.740899" y="597.719603" xlink:href="#a"/>
<use x="237.040123" y="597.54522" xlink:href="#a"/>
<use x="237.449063" y="597.713197" xlink:href="#a"/>
<use x="238.317952" y="597.18612" xlink:href="#a"/>
<use x="239.070103" y="599.336633" xlink:href="#a"/>
<use x="240.40558" y="595.434782" xlink:href="#a"/>
<use x="240.5442" y="593.117076" xlink:href="#a"/>
<use x="242.066685" y="590.980719" xlink:href="#a"/>
<use x="244.360464" y="594.641602" xlink:href="#a"/>
<use x="245.923795" y="593.112269" xlink:href="#a"/>
<use x="247.817134" y="593.413929" xlink:href="#a"/>
<use x="248.317748" y="590.622531" xlink:href="#a"/>
<use x="248.990147" y="591.650189" xlink:href="#a"/>
<use x="251.299508" y="579.539529" xlink:href="#a"/>
<use x="252.742441" y="583.047363" xlink:href="#a"/>
<use x="256.151885" y="582.791181" xlink:href="#a"/>
<use x="258.043404" y="569.219985" xlink:href="#a"/>
<use x="259.569629" y="572.067775" xlink:href="#a"/>
<use x="261.241016" y="574.319811" xlink:href="#a"/>
<use x="263.271176" y="568.168418" xlink:href="#a"/>
<use x="265.017914" y="570.851548" xlink:href="#a"/>
<use x="266.670018" y="574.857086" xlink:href="#a"/>
<use x="268.472244" y="574.458054" xlink:href="#a"/>
<use x="270.110326" y="571.107823" xlink:href="#a"/>
<use x="271.875166" y="578.159393" xlink:href="#a"/>
<use x="273.66215" y="573.529708" xlink:href="#a"/>
<use x="275.164072" y="572.300002" xlink:href="#a"/>
<use x="277.091416" y="570.398418" xlink:href="#a"/>
<use x="278.951671" y="569.649737" xlink:href="#a"/>
<use x="280.559608" y="577.260072" xlink:href="#a"/>
<use x="282.408161" y="575.644787" xlink:href="#a"/>
<use x="283.997016" y="570.687503" xlink:href="#a"/>
<use x="287.313085" y="571.538998" xlink:href="#a"/>
<use x="288.7643" y="569.765076" xlink:href="#a"/>
<use x="289.422537" y="571.822073" xlink:href="#a"/>
<use x="290.748233" y="568.243299" xlink:href="#a"/>
<use x="292.742767" y="571.633433" xlink:href="#a"/>
<use x="294.025196" y="570.455168" xlink:href="#a"/>
<use x="296.208319" y="524.386264" xlink:href="#a"/>
<use x="296.390566" y="522.607864" xlink:href="#a"/>
<use x="297.788712" y="506.845419" xlink:href="#a"/>
<use x="299.178877" y="505.02002" xlink:href="#a"/>
<use x="299.712696" y="506.222665" xlink:href="#a"/>
<use x="301.352398" y="511.517916" xlink:href="#a"/>
<use x="303.020425" y="511.618179" xlink:href="#a"/>
<use x="304.907423" y="513.856728" xlink:href="#a"/>
<use x="306.621496" y="525.919196" xlink:href="#a"/>
<use x="308.319727" y="522.925746" xlink:href="#a"/>
<use x="308.456407" y="526.089117" xlink:href="#a"/>
<use x="309.35694" y="521.438436" xlink:href="#a"/>
<use x="310.107871" y="526.115573" xlink:href="#a"/>
<use x="311.230577" y="513.029971" xlink:href="#a"/>
<use x="311.780178" y="518.107573" xlink:href="#a"/>
<use x="313.436482" y="514.829282" xlink:href="#a"/>
<use x="314.862633" y="511.763649" xlink:href="#a"/>
<use x="316.639275" y="511.679886" xlink:href="#a"/>
<use x="318.742326" y="522.675348" xlink:href="#a"/>
<use x="319.568028" y="525.197923" xlink:href="#a"/>
<use x="320.468301" y="524.092178" xlink:href="#a"/>
<use x="322.186554" y="510.878753" xlink:href="#a"/>
<use x="323.797612" y="511.322078" xlink:href="#a"/>
<use x="325.185857" y="493.869335" xlink:href="#a"/>
<use x="326.851923" y="500.901771" xlink:href="#a"/>
<use x="328.540912" y="500.56431" xlink:href="#a"/>
<use x="329.048447" y="499.720714" xlink:href="#a"/>
<use x="330.299372" y="508.887595" xlink:href="#a"/>
<use x="332.480314" y="509.151013" xlink:href="#a"/>
<use x="333.967474" y="501.649981" xlink:href="#a"/>
<use x="335.982071" y="504.166302" xlink:href="#a"/>
<use x="337.641696" y="513.697459" xlink:href="#a"/>
<use x="339.436641" y="509.826404" xlink:href="#a"/>
<use x="341.155295" y="507.893733" xlink:href="#a"/>
<use x="342.762492" y="512.125742" xlink:href="#a"/>
<use x="344.649831" y="506.858415" xlink:href="#a"/>
<use x="346.318197" y="508.95485" xlink:href="#a"/>
<use x="347.638612" y="507.653729" xlink:href="#a"/>
<use x="347.736567" y="504.977031" xlink:href="#a"/>
<use x="349.645688" y="505.939017" xlink:href="#a"/>
<use x="351.205499" y="508.806791" xlink:href="#a"/>
<use x="353.300728" y="507.511379" xlink:href="#a"/>
<use x="354.739701" y="506.241841" xlink:href="#a"/>
<use x="356.730675" y="502.18964" xlink:href="#a"/>
<use x="358.314368" y="503.403576" xlink:href="#a"/>
<use x="360.203907" y="504.590898" xlink:href="#a"/>
<use x="361.494578" y="501.505521" xlink:href="#a"/>
<use x="363.223253" y="505.040637" xlink:href="#a"/>
<use x="365.414657" y="504.255986" xlink:href="#a"/>
<use x="366.944142" y="502.179666" xlink:href="#a"/>
<use x="367.609141" y="507.775455" xlink:href="#a"/>
<use x="367.796028" y="507.40219" xlink:href="#a"/>
<use x="368.635732" y="509.713142" xlink:href="#a"/>
<use x="369.90576" y="509.107523" xlink:href="#a"/>
<use x="370.412415" y="508.350728" xlink:href="#a"/>
<use x="372.270729" y="520.772015" xlink:href="#a"/>
<use x="373.706341" y="512.625884" xlink:href="#a"/>
<use x="373.884527" y="510.142721" xlink:href="#a"/>
<use x="375.574177" y="506.251518" xlink:href="#a"/>
<use x="377.297551" y="517.729802" xlink:href="#a"/>
<use x="377.633821" y="510.386423" xlink:href="#a"/>
<use x="379.142203" y="514.282452" xlink:href="#a"/>
<use x="380.87708" y="507.976815" xlink:href="#a"/>
<use x="382.600374" y="510.105522" xlink:href="#a"/>
<use x="384.377976" y="506.450263" xlink:href="#a"/>
<use x="385.924985" y="509.906301" xlink:href="#a"/>
<use x="387.685705" y="508.105454" xlink:href="#a"/>
<use x="389.308704" y="517.44436" xlink:href="#a"/>
<use x="390.601955" y="491.490558" xlink:href="#a"/>
<use x="391.254792" y="490.351908" xlink:href="#a"/>
<use x="392.991548" y="485.127413" xlink:href="#a"/>
<use x="394.609307" y="491.057074" xlink:href="#a"/>
<use x="396.203602" y="493.675979" xlink:href="#a"/>
<use x="396.432096" y="491.317653" xlink:href="#a"/>
<use x="398.038873" y="493.739398" xlink:href="#a"/>
<use x="399.588962" y="491.903899" xlink:href="#a"/>
<use x="401.542191" y="489.21173" xlink:href="#a"/>
<use x="402.936056" y="492.049713" xlink:href="#a"/>
<use x="403.309052" y="498.404756" xlink:href="#a"/>
<use x="404.38513" y="493.344344" xlink:href="#a"/>
<use x="405.112418" y="485.753455" xlink:href="#a"/>
<use x="406.851735" y="487.338331" xlink:href="#a"/>
<use x="408.595912" y="490.259334" xlink:href="#a"/>
<use x="410.297923" y="497.940895" xlink:href="#a"/>
<use x="411.962709" y="497.119599" xlink:href="#a"/>
<use x="413.092216" y="495.433027" xlink:href="#a"/>
<use x="415.345509" y="496.628216" xlink:href="#a"/>
<use x="415.456325" y="499.557969" xlink:href="#a"/>
<use x="416.323953" y="496.821843" xlink:href="#a"/>
<use x="417.208344" y="499.044271" xlink:href="#a"/>
<use x="418.587687" y="500.932351" xlink:href="#a"/>
<use x="418.60609" y="538.278877" xlink:href="#a"/>
<use x="418.865088" y="539.612864" xlink:href="#a"/>
<use x="420.342266" y="539.640937" xlink:href="#a"/>
<use x="422.420273" y="535.987248" xlink:href="#a"/>
<use x="423.95352" y="537.854758" xlink:href="#a"/>
<use x="425.815734" y="541.945077" xlink:href="#a"/>
<use x="427.407009" y="537.263433" xlink:href="#a"/>
<use x="427.662887" y="537.564716" xlink:href="#a"/>
<use x="429.329453" y="518.405415" xlink:href="#a"/>
<use x="431.051628" y="515.739586" xlink:href="#a"/>
<use x="432.542808" y="515.227485" xlink:href="#a"/>
<use x="434.421325" y="513.603294" xlink:href="#a"/>
<use x="436.171583" y="520.581321" xlink:href="#a"/>
<use x="437.948246" y="519.239165" xlink:href="#a"/>
<use x="439.234296" y="517.5684" xlink:href="#a"/>
<use x="439.733449" y="514.027143" xlink:href="#a"/>
<use x="441.082689" y="518.035981" xlink:href="#a"/>
<use x="441.36305" y="517.676184" xlink:href="#a"/>
<use x="442.698367" y="501.203162" xlink:href="#a"/>
<use x="443.112068" y="505.455886" xlink:href="#a"/>
<use x="444.147561" y="478.690573" xlink:href="#a"/>
<use x="444.766692" y="475.239693" xlink:href="#a"/>
<use x="446.407935" y="482.362308" xlink:href="#a"/>
<use x="448.244706" y="483.878624" xlink:href="#a"/>
<use x="450.041691" y="482.059533" xlink:href="#a"/>
<use x="451.808792" y="477.750003" xlink:href="#a"/>
<use x="453.425151" y="475.687439" xlink:href="#a"/>
<use x="455.097098" y="476.901778" xlink:href="#a"/>
<use x="455.531142" y="480.007598" xlink:href="#a"/>
<use x="456.745681" y="475.027153" xlink:href="#a"/>
<use x="458.604716" y="476.865229" xlink:href="#a"/>
<use x="460.025505" y="480.103711" xlink:href="#a"/>
<use x="462.125975" y="481.866369" xlink:href="#a"/>
<use x="463.837928" y="479.881851" xlink:href="#a"/>
<use x="465.601509" y="479.456186" xlink:href="#a"/>
<use x="467.333444" y="481.242132" xlink:href="#a"/>
<use x="469.115807" y="481.769621" xlink:href="#a"/>
<use x="470.610308" y="480.239012" xlink:href="#a"/>
<use x="472.44978" y="484.43261" xlink:href="#a"/>
<use x="474.21502" y="481.720712" xlink:href="#a"/>
<use x="475.954757" y="477.72117" xlink:href="#a"/>
<use x="476.638798" y="478.544143" xlink:href="#a"/>
<use x="477.752763" y="481.992616" xlink:href="#a"/>
<use x="479.43007" y="480.938089" xlink:href="#a"/>
<use x="481.089075" y="485.775228" xlink:href="#a"/>
<use x="482.149092" y="487.237821" xlink:href="#a"/>
<use x="482.88186" y="482.924046" xlink:href="#a"/>
<use x="484.391523" y="482.413298" xlink:href="#a"/>
<use x="486.351392" y="481.49381" xlink:href="#a"/>
<use x="488.10073" y="482.895153" xlink:href="#a"/>
<use x="488.966558" y="490.558479" xlink:href="#a"/>
<use x="491.558661" y="487.659509" xlink:href="#a"/>
<use x="493.302198" y="488.04895" xlink:href="#a"/>
<use x="494.741651" y="486.796099" xlink:href="#a"/>
<use x="496.638031" y="483.151326" xlink:href="#a"/>
<use x="497.869553" y="485.008064" xlink:href="#a"/>
<use x="500.062917" y="486.85516" xlink:href="#a"/>
<use x="501.464744" y="484.315466" xlink:href="#a"/>
<use x="503.210881" y="483.981403" xlink:href="#a"/>
<use x="505.306691" y="490.105253" xlink:href="#a"/>
<use x="506.853879" y="484.665412" xlink:href="#a"/>
<use x="508.720675" y="483.765626" xlink:href="#a"/>
<use x="510.228618" y="485.887427" xlink:href="#a"/>
<use x="512.290522" y="488.686087" xlink:href="#a"/>
<use x="514.012836" y="490.135126" xlink:href="#a"/>
<use x="515.769716" y="486.478779" xlink:href="#a"/>
<use x="517.398276" y="484.628329" xlink:href="#a"/>
<use x="519.05062" y="483.094741" xlink:href="#a"/>
<use x="520.091954" y="486.196056" xlink:href="#a"/>
<use x="522.595283" y="481.58521" xlink:href="#a"/>
<use x="524.225664" y="483.399535" xlink:href="#a"/>
<use x="525.855125" y="483.666955" xlink:href="#a"/>
<use x="527.792671" y="481.825107" xlink:href="#a"/>
<use x="529.397408" y="482.052484" xlink:href="#a"/>
<use x="530.915332" y="484.547771" xlink:href="#a"/>
<use x="532.854278" y="478.860261" xlink:href="#a"/>
<use x="534.15399" y="485.701621" xlink:href="#a"/>
<use x="536.463971" y="485.241126" xlink:href="#a"/>
<use x="537.74612" y="482.884054" xlink:href="#a"/>
<use x="539.881236" y="487.547299" xlink:href="#a"/>
<use x="541.232615" y="481.832642" xlink:href="#a"/>
<use x="543.381852" y="479.363203" xlink:href="#a"/>
<use x="544.9229" y="482.998084" xlink:href="#a"/>
<use x="546.747029" y="486.8366" xlink:href="#a"/>
<use x="548.595162" y="482.407366" xlink:href="#a"/>
<use x="549.567346" y="482.904259" xlink:href="#a"/>
<use x="552.012427" y="482.662626" xlink:href="#a"/>
<use x="553.711077" y="483.62774" xlink:href="#a"/>
<use x="555.411348" y="485.311524" xlink:href="#a"/>
<use x="556.655272" y="486.89901" xlink:href="#a"/>
<use x="558.630004" y="483.414533" xlink:href="#a"/>
<use x="560.653923" y="485.472413" xlink:href="#a"/>
<use x="562.382238" y="485.39323" xlink:href="#a"/>
<use x="564.135937" y="483.258281" xlink:href="#a"/>
<use x="565.683925" y="486.930708" xlink:href="#a"/>
<use x="567.506474" y="482.370239" xlink:href="#a"/>
<use x="568.787883" y="479.676961" xlink:href="#a"/>
<use x="570.769796" y="481.133577" xlink:href="#a"/>
<use x="572.752329" y="485.008771" xlink:href="#a"/>
<use x="574.342784" y="481.190089" xlink:href="#a"/>
<use x="575.780976" y="487.469263" xlink:href="#a"/>
<use x="577.965678" y="479.843051" xlink:href="#a"/>
<use x="579.139952" y="481.834166" xlink:href="#a"/>
<use x="580.643514" y="483.931772" xlink:href="#a"/>
<use x="583.010883" y="481.252426" xlink:href="#a"/>
<use x="584.729717" y="484.798968" xlink:href="#a"/>
<use x="586.133964" y="487.661533" xlink:href="#a"/>
<use x="587.883223" y="485.374883" xlink:href="#a"/>
<use x="589.851873" y="485.650342" xlink:href="#a"/>
<use x="591.208054" y="484.21616" xlink:href="#a"/>
<use x="593.440903" y="486.257054" xlink:href="#a"/>
<use x="595.229047" y="484.364875" xlink:href="#a"/>
<use x="596.544582" y="489.815693" xlink:href="#a"/>
<use x="598.548237" y="486.821531" xlink:href="#a"/>
<use x="600.416473" y="485.74011" xlink:href="#a"/>
<use x="602.147849" y="487.237124" xlink:href="#a"/>
<use x="603.774129" y="485.980211" xlink:href="#a"/>
<use x="605.2034" y="487.800823" xlink:href="#a"/>
<use x="607.090959" y="486.390884" xlink:href="#a"/>
<use x="609.076212" y="486.146735" xlink:href="#a"/>
<use x="610.276509" y="485.84863" xlink:href="#a"/>
<use x="612.061733" y="486.151848" xlink:href="#a"/>
<use x="613.838795" y="483.488197" xlink:href="#a"/>
<use x="615.420148" y="480.81267" xlink:href="#a"/>
<use x="617.407722" y="486.727345" xlink:href="#a"/>
<use x="619.412858" y="485.304192" xlink:href="#a"/>
<use x="621.169897" y="487.441874" xlink:href="#a"/>
<use x="622.645295" y="488.215213" xlink:href="#a"/>
<use x="624.256433" y="489.116795" xlink:href="#a"/>
<use x="626.128429" y="484.91928" xlink:href="#a"/>
<use x="627.497672" y="489.229527" xlink:href="#a"/>
<use x="629.311099" y="488.007052" xlink:href="#a"/>
<use x="631.252126" y="486.364948" xlink:href="#a"/>
<use x="632.952217" y="485.172275" xlink:href="#a"/>
<use x="634.59666" y="487.773302" xlink:href="#a"/>
<use x="636.639921" y="486.808151" xlink:href="#a"/>
<use x="637.899087" y="486.469179" xlink:href="#a"/>
<use x="639.733218" y="490.322214" xlink:href="#a"/>
<use x="641.322133" y="486.971903" xlink:href="#a"/>
<use x="643.258799" y="484.972338" xlink:href="#a"/>
<use x="645.23335" y="481.984512" xlink:href="#a"/>
<use x="646.870532" y="485.993873" xlink:href="#a"/>
<use x="648.68656" y="485.374514" xlink:href="#a"/>
<use x="650.531972" y="492.769631" xlink:href="#a"/>
<use x="651.928919" y="484.729344" xlink:href="#a"/>
<use x="653.607447" y="485.282101" xlink:href="#a"/>
<use x="655.632165" y="490.255693" xlink:href="#a"/>
<use x="657.428171" y="483.201759" xlink:href="#a"/>
<use x="659.083635" y="487.913054" xlink:href="#a"/>
<use x="660.711675" y="484.460138" xlink:href="#a"/>
<use x="662.465014" y="485.171653" xlink:href="#a"/>
<use x="664.185288" y="485.752526" xlink:href="#a"/>
<use x="665.421951" y="488.517181" xlink:href="#a"/>
<use x="667.831267" y="488.92859" xlink:href="#a"/>
<use x="669.34391" y="488.118881" xlink:href="#a"/>
<use x="671.112231" y="487.572835" xlink:href="#a"/>
<use x="672.874911" y="487.690032" xlink:href="#a"/>
<use x="674.618309" y="490.615461" xlink:href="#a"/>
<use x="676.466842" y="483.662398" xlink:href="#a"/>
<use x="677.578526" y="489.665222" xlink:href="#a"/>
<use x="679.688217" y="488.659922" xlink:href="#a"/>
<use x="681.444416" y="488.604946" xlink:href="#a"/>
<use x="683.317713" y="486.952313" xlink:href="#a"/>
<use x="685.094935" y="489.818068" xlink:href="#a"/>
<use x="686.256387" y="485.739442" xlink:href="#a"/>
</g>
</g>
<g stroke="#2ca02c" stroke-opacity=".9">
<path d="m71.4 591 273-104 53.4-7.33 5.72-1.13 1.08 2.85 0.727-0.959 1.74 0.204 1.74-29.5 1.7 33.1 1.66-33.4 1.13 30.5 2.36-44 0.868 2.94 0.884 11 1.66 27.4 1.48-27.5 2.08-46 1.53 1.05 3.45 82 1.92-14.9 1.72-29 1.49-7.7 1.88-6.37 1.75-2.4 1.78 2.45 1.79-0.568 1.63-1.12 1.75 2.18 1.04 2.63 0.619-2.8 1.64 3.97 1.84 0.752 1.8-1.94 1.77 0.798 3.29 1.78 1.65-0.887 1.86-9.97 1.42-6.25 3.81 5.35 1.76-6.83 1.73 25.2 1.78-0.256 6.84-2.64 0.684-4.58 1.11 0.921 1.68-7.33 1.66 10.6 1.79 3.57 1.51 1.29 1.96-2.7 1.75-7.47 0.866 10.4 2.59-11.6 1.74 10.2 1.44-8.52 1.9 1.66 1.23 0.0716 2.19 2.58 1.4-0.47 1.75 1.17 2.1 5.61 1.55-5.4 1.87 3.47 1.51 1.93 2.06 1.3 1.72 0.0324 1.76-12 1.63 5.23 1.65 3.56 1.04-4.21 2.5-3.03 1.63-3.31 1.63-2.3 1.94 10.9 1.6-2.75 1.52 0.388 1.94-0.668 1.3 2.84 2.31 1.94 1.28-0.0635 2.14 2.67 1.35-2.05 2.15-7.08 1.54 5.53 1.82 3.77 1.85-3.14 0.972-0.148 2.45 2.78 1.7-3.05 1.7-0.572 1.24-1.64 1.97 2.77 2.02-4.18 1.73-0.568 1.75 3.6 1.55-2.59 1.82-4.23 1.28 0.346 1.98 0.317 1.98 1.48 1.59-7.54 1.44-3.67 2.18 2.49 1.17-0.502 1.5 1.16 2.37-1.89 1.72 9.54 1.4-9.56 1.75 11.4 1.97-14.2 1.36 2.02 2.23-0.872 1.79 1.94 1.32 3.21 2 5.63 1.87-0.279 1.73-7.34 1.63-2.61 1.43 11.2 1.89-7.74 1.99 2.36 1.2-7.25 1.79 7.55 1.78 1.55 1.58 5.43 1.99-15.3 2.01 4.06 1.76 8.32 1.48-5.12 1.61-0.451 1.87 3.71 1.37-1.89 1.81 3.53 1.94-1.38 1.7 7.74 1.64-5.94 2.04 3.94 1.26-10.3 1.83 12.5 1.59-5.91 1.94 3.55 3.61-0.69 1.82 6.73 1.85-10.8 1.4 3.19 1.68-5.85 2.02 30 1.8-17.9 1.66-3.89 1.63-1.31 1.75 4.61 1.72-13.7 1.24 7.17 2.41-0.648 1.51-4.63 1.77-0.0953 1.76 11 1.74 1.99 1.85-1.66 1.11 3.12 2.11-4.3 1.76 3.46 1.87-1.33 1.78 4.61 1.16-5.3v0" clip-path="url(#p)" fill="none" stroke-linecap="square" stroke-width="1.5"/>
<g clip-path="url(#p)" fill="#2ca02c" fill-opacity=".9">
<use x="71.388926" y="590.825897" xlink:href="#b"/>
<use x="344.166559" y="486.423282" xlink:href="#b"/>
<use x="397.584706" y="479.090914" xlink:href="#b"/>
<use x="403.309052" y="477.956888" xlink:href="#b"/>
<use x="404.38513" y="480.802795" xlink:href="#b"/>
<use x="405.112418" y="479.843732" xlink:href="#b"/>
<use x="406.851735" y="480.04808" xlink:href="#b"/>
<use x="408.595912" y="450.533416" xlink:href="#b"/>
<use x="410.297923" y="483.67739" xlink:href="#b"/>
<use x="411.962709" y="450.25215" xlink:href="#b"/>
<use x="413.092216" y="480.758447" xlink:href="#b"/>
<use x="415.456325" y="436.798432" xlink:href="#b"/>
<use x="416.323953" y="439.734179" xlink:href="#b"/>
<use x="417.208344" y="450.703188" xlink:href="#b"/>
<use x="418.865088" y="478.115182" xlink:href="#b"/>
<use x="420.342266" y="450.585353" xlink:href="#b"/>
<use x="422.420273" y="404.603397" xlink:href="#b"/>
<use x="423.95352" y="405.648692" xlink:href="#b"/>
<use x="425.815734" y="451.152398" xlink:href="#b"/>
<use x="427.407009" y="487.675674" xlink:href="#b"/>
<use x="429.329453" y="472.726416" xlink:href="#b"/>
<use x="431.051628" y="443.695104" xlink:href="#b"/>
<use x="432.542808" y="435.990723" xlink:href="#b"/>
<use x="434.421325" y="429.619522" xlink:href="#b"/>
<use x="436.171583" y="427.221309" xlink:href="#b"/>
<use x="437.948246" y="429.666706" xlink:href="#b"/>
<use x="439.733449" y="429.098758" xlink:href="#b"/>
<use x="441.36305" y="427.981289" xlink:href="#b"/>
<use x="443.112068" y="430.156422" xlink:href="#b"/>
<use x="444.147561" y="432.783108" xlink:href="#b"/>
<use x="444.766692" y="429.978845" xlink:href="#b"/>
<use x="446.407935" y="433.945535" xlink:href="#b"/>
<use x="448.244706" y="434.697095" xlink:href="#b"/>
<use x="450.041691" y="432.755402" xlink:href="#b"/>
<use x="451.808792" y="433.55294" xlink:href="#b"/>
<use x="455.097098" y="435.33429" xlink:href="#b"/>
<use x="456.745681" y="434.447651" xlink:href="#b"/>
<use x="458.604716" y="424.476215" xlink:href="#b"/>
<use x="460.025505" y="418.229892" xlink:href="#b"/>
<use x="462.125975" y="421.212873" xlink:href="#b"/>
<use x="463.837928" y="423.577611" xlink:href="#b"/>
<use x="465.601509" y="416.742934" xlink:href="#b"/>
<use x="467.333444" y="441.965147" xlink:href="#b"/>
<use x="469.115807" y="441.7094" xlink:href="#b"/>
<use x="475.954757" y="439.066298" xlink:href="#b"/>
<use x="476.638798" y="434.490071" xlink:href="#b"/>
<use x="477.752763" y="435.410594" xlink:href="#b"/>
<use x="479.43007" y="428.080417" xlink:href="#b"/>
<use x="481.089075" y="438.725018" xlink:href="#b"/>
<use x="482.149092" y="440.736701" xlink:href="#b"/>
<use x="482.88186" y="442.296547" xlink:href="#b"/>
<use x="484.391523" y="443.58502" xlink:href="#b"/>
<use x="486.351392" y="440.881457" xlink:href="#b"/>
<use x="488.10073" y="433.415076" xlink:href="#b"/>
<use x="488.966558" y="443.824806" xlink:href="#b"/>
<use x="491.558661" y="432.25971" xlink:href="#b"/>
<use x="493.302198" y="442.429748" xlink:href="#b"/>
<use x="494.741651" y="433.912545" xlink:href="#b"/>
<use x="496.638031" y="435.575443" xlink:href="#b"/>
<use x="497.869553" y="435.64703" xlink:href="#b"/>
<use x="500.062917" y="438.231516" xlink:href="#b"/>
<use x="501.464744" y="437.76165" xlink:href="#b"/>
<use x="503.210881" y="438.933701" xlink:href="#b"/>
<use x="505.306691" y="444.547205" xlink:href="#b"/>
<use x="506.853879" y="439.144274" xlink:href="#b"/>
<use x="508.720675" y="442.61407" xlink:href="#b"/>
<use x="510.228618" y="444.542052" xlink:href="#b"/>
<use x="512.290522" y="445.846633" xlink:href="#b"/>
<use x="514.012836" y="445.879042" xlink:href="#b"/>
<use x="515.769716" y="433.843706" xlink:href="#b"/>
<use x="517.398276" y="439.070576" xlink:href="#b"/>
<use x="519.05062" y="442.627897" xlink:href="#b"/>
<use x="520.091954" y="438.421994" xlink:href="#b"/>
<use x="522.595283" y="435.387767" xlink:href="#b"/>
<use x="524.225664" y="432.075366" xlink:href="#b"/>
<use x="525.855125" y="429.775491" xlink:href="#b"/>
<use x="527.792671" y="440.633672" xlink:href="#b"/>
<use x="529.397408" y="437.882961" xlink:href="#b"/>
<use x="530.915332" y="438.271255" xlink:href="#b"/>
<use x="532.854278" y="437.603321" xlink:href="#b"/>
<use x="534.15399" y="440.438728" xlink:href="#b"/>
<use x="536.463971" y="442.374395" xlink:href="#b"/>
<use x="537.74612" y="442.310934" xlink:href="#b"/>
<use x="539.881236" y="444.984506" xlink:href="#b"/>
<use x="541.232615" y="442.938277" xlink:href="#b"/>
<use x="543.381852" y="435.858158" xlink:href="#b"/>
<use x="544.9229" y="441.385143" xlink:href="#b"/>
<use x="546.747029" y="445.152676" xlink:href="#b"/>
<use x="548.595162" y="442.009866" xlink:href="#b"/>
<use x="549.567346" y="441.861525" xlink:href="#b"/>
<use x="552.012427" y="444.645561" xlink:href="#b"/>
<use x="553.711077" y="441.598887" xlink:href="#b"/>
<use x="555.411348" y="441.027272" xlink:href="#b"/>
<use x="556.655272" y="439.383648" xlink:href="#b"/>
<use x="558.630004" y="442.151811" xlink:href="#b"/>
<use x="560.653923" y="437.970925" xlink:href="#b"/>
<use x="562.382238" y="437.403201" xlink:href="#b"/>
<use x="564.135937" y="441.006172" xlink:href="#b"/>
<use x="565.683925" y="438.415583" xlink:href="#b"/>
<use x="567.506474" y="434.187421" xlink:href="#b"/>
<use x="568.787883" y="434.53318" xlink:href="#b"/>
<use x="570.769796" y="434.850184" xlink:href="#b"/>
<use x="572.752329" y="436.328271" xlink:href="#b"/>
<use x="574.342784" y="428.790261" xlink:href="#b"/>
<use x="575.780976" y="425.122491" xlink:href="#b"/>
<use x="577.965678" y="427.614273" xlink:href="#b"/>
<use x="579.139952" y="427.112012" xlink:href="#b"/>
<use x="580.643514" y="428.276837" xlink:href="#b"/>
<use x="583.010883" y="426.385274" xlink:href="#b"/>
<use x="584.729717" y="435.928909" xlink:href="#b"/>
<use x="586.133964" y="426.36595" xlink:href="#b"/>
<use x="587.883223" y="437.781399" xlink:href="#b"/>
<use x="589.851873" y="423.614996" xlink:href="#b"/>
<use x="591.208054" y="425.630382" xlink:href="#b"/>
<use x="593.440903" y="424.758127" xlink:href="#b"/>
<use x="595.229047" y="426.701953" xlink:href="#b"/>
<use x="596.544582" y="429.915945" xlink:href="#b"/>
<use x="598.548237" y="435.542203" xlink:href="#b"/>
<use x="600.416473" y="435.263173" xlink:href="#b"/>
<use x="602.147849" y="427.927422" xlink:href="#b"/>
<use x="603.774129" y="425.318932" xlink:href="#b"/>
<use x="605.2034" y="436.535438" xlink:href="#b"/>
<use x="607.090959" y="428.799138" xlink:href="#b"/>
<use x="609.076212" y="431.160355" xlink:href="#b"/>
<use x="610.276509" y="423.913513" xlink:href="#b"/>
<use x="612.061733" y="431.464035" xlink:href="#b"/>
<use x="613.838795" y="433.016748" xlink:href="#b"/>
<use x="615.420148" y="438.450962" xlink:href="#b"/>
<use x="617.407722" y="423.190511" xlink:href="#b"/>
<use x="619.412858" y="427.247034" xlink:href="#b"/>
<use x="621.169897" y="435.568892" xlink:href="#b"/>
<use x="622.645295" y="430.446773" xlink:href="#b"/>
<use x="624.256433" y="429.995978" xlink:href="#b"/>
<use x="626.128429" y="433.703129" xlink:href="#b"/>
<use x="627.497672" y="431.814641" xlink:href="#b"/>
<use x="629.311099" y="435.344777" xlink:href="#b"/>
<use x="631.252126" y="433.967849" xlink:href="#b"/>
<use x="632.952217" y="441.707466" xlink:href="#b"/>
<use x="634.59666" y="435.765891" xlink:href="#b"/>
<use x="636.639921" y="439.705934" xlink:href="#b"/>
<use x="637.899087" y="429.40878" xlink:href="#b"/>
<use x="639.733218" y="441.876205" xlink:href="#b"/>
<use x="641.322133" y="435.966561" xlink:href="#b"/>
<use x="643.258799" y="439.511981" xlink:href="#b"/>
<use x="646.870532" y="438.821858" xlink:href="#b"/>
<use x="648.68656" y="445.548295" xlink:href="#b"/>
<use x="650.531972" y="434.73802" xlink:href="#b"/>
<use x="651.928919" y="437.930547" xlink:href="#b"/>
<use x="653.607447" y="432.085453" xlink:href="#b"/>
<use x="655.632165" y="462.060366" xlink:href="#b"/>
<use x="657.428171" y="444.126652" xlink:href="#b"/>
<use x="659.083635" y="440.233818" xlink:href="#b"/>
<use x="660.711675" y="438.927751" xlink:href="#b"/>
<use x="662.465014" y="443.537862" xlink:href="#b"/>
<use x="664.185288" y="429.807946" xlink:href="#b"/>
<use x="665.421951" y="436.978449" xlink:href="#b"/>
<use x="667.831267" y="436.330707" xlink:href="#b"/>
<use x="669.34391" y="431.6963" xlink:href="#b"/>
<use x="671.112231" y="431.600994" xlink:href="#b"/>
<use x="672.874911" y="442.578437" xlink:href="#b"/>
<use x="674.618309" y="444.564941" xlink:href="#b"/>
<use x="676.466842" y="442.903004" xlink:href="#b"/>
<use x="677.578526" y="446.018828" xlink:href="#b"/>
<use x="679.688217" y="441.715223" xlink:href="#b"/>
<use x="681.444416" y="445.172634" xlink:href="#b"/>
<use x="683.317713" y="443.847353" xlink:href="#b"/>
<use x="685.094935" y="448.457373" xlink:href="#b"/>
<use x="686.256387" y="443.153795" xlink:href="#b"/>
</g>
</g>
<path d="m40.6 706v-316" fill="none" stroke="#000" stroke-linecap="square" stroke-width=".8"/>
<path d="m717 706v-316" fill="none" stroke="#000" stroke-linecap="square" stroke-width=".8"/>
<path d="m40.6 706h676" fill="none" stroke="#000" stroke-linecap="square" stroke-width=".8"/>
<path d="m40.6 390h676" fill="none" stroke="#000" stroke-linecap="square" stroke-width=".8"/>
<g clip-path="url(#p)">
<g transform="translate(58.2 421) rotate(-90) scale(.1 -.1)">
<use xlink:href="#x"/>
<use transform="translate(35.2)" xlink:href="#r"/>
<use transform="translate(96.5)" xlink:href="#s"/>
<use transform="translate(149)" xlink:href="#n"/>
<use transform="translate(188)" xlink:href="#g"/>
<use transform="translate(249)" xlink:href="#q"/>
<use transform="translate(290)" xlink:href="#DejaVuSans-20"/>
<use transform="translate(322)" xlink:href="#ao"/>
</g>
</g>
<g clip-path="url(#p)">
<g transform="translate(58.2 489) rotate(-90) scale(.1 -.1)">
<use xlink:href="#ap"/>
<use transform="translate(143)" xlink:href="#DejaVuSans-20"/>
<use transform="translate(175)" xlink:href="#s"/>
<use transform="translate(227)" xlink:href="#w"/>
<use transform="translate(255)" xlink:href="#t"/>
<use transform="translate(316)" xlink:href="#af"/>
<use transform="translate(398)" xlink:href="#g"/>
<use transform="translate(460)" xlink:href="#q"/>
</g>
</g>
<g transform="translate(232 384) scale(.12 -.12)">
<use xlink:href="#al"/>
<use transform="translate(63.2)" xlink:href="#x"/>
<use transform="translate(98.4)" xlink:href="#x"/>
<use transform="translate(134)" xlink:href="#g"/>
<use transform="translate(195)" xlink:href="#y"/>
<use transform="translate(250)" xlink:href="#n"/>
<use transform="translate(289)" xlink:href="#DejaVuSans-20"/>
<use transform="translate(321)" xlink:href="#t"/>
<use transform="translate(382)" xlink:href="#x"/>
<use transform="translate(417)" xlink:href="#DejaVuSans-20"/>
<use transform="translate(449)" xlink:href="#x"/>
<use transform="translate(484)" xlink:href="#q"/>
<use transform="translate(523)" xlink:href="#g"/>
<use transform="translate(585)" xlink:href="#g"/>
<use transform="translate(646)" xlink:href="#DejaVuSans-20"/>
<use transform="translate(678)" xlink:href="#n"/>
<use transform="translate(717)" xlink:href="#aq"/>
<use transform="translate(781)" xlink:href="#q"/>
<use transform="translate(820)" xlink:href="#g"/>
<use transform="translate(881)" xlink:href="#r"/>
<use transform="translate(942)" xlink:href="#ak"/>
<use transform="translate(1006)" xlink:href="#u"/>
<use transform="translate(1034)" xlink:href="#z"/>
<use transform="translate(1097)" xlink:href="#aj"/>
<use transform="translate(1161)" xlink:href="#DejaVuSans-20"/>
<use transform="translate(1192)" xlink:href="#ac"/>
<use transform="translate(1252)" xlink:href="#s"/>
<use transform="translate(1304)" xlink:href="#j"/>
<use transform="translate(1335)" xlink:href="#DejaVuSans-20"/>
<use transform="translate(1367)" xlink:href="#ag"/>
<use transform="translate(1425)" xlink:href="#u"/>
<use transform="translate(1453)" xlink:href="#g"/>
<use transform="translate(1514)" xlink:href="#q"/>
<use transform="translate(1556)" xlink:href="#DejaVuSans-20"/>
<use transform="translate(1587)" xlink:href="#e"/>
<use transform="translate(1651)" xlink:href="#DejaVuSans-20"/>
<use transform="translate(1683)" xlink:href="#an"/>
<use transform="translate(1722)" xlink:href="#s"/>
<use transform="translate(1774)" xlink:href="#r"/>
<use transform="translate(1835)" xlink:href="#v"/>
<use transform="translate(1933)" xlink:href="#g"/>
<use transform="translate(1994)" xlink:href="#DejaVuSans-20"/>
<use transform="translate(2026)" xlink:href="#y"/>
<use transform="translate(2081)" xlink:href="#t"/>
<use transform="translate(2142)" xlink:href="#v"/>
<use transform="translate(2239)" xlink:href="#v"/>
<use transform="translate(2337)" xlink:href="#u"/>
<use transform="translate(2365)" xlink:href="#n"/>
<use transform="translate(2404)" xlink:href="#am"/>
</g>
<path d="m47.6 428h82.6q2 0 2-2v-28.4q0-2-2-2h-82.6q-2 0-2 2v28.4q0 2 2 2z" fill="#fff" opacity=".8" stroke="#ccc"/>
<path d="m49.6 403h10 10" fill="none" stroke="#1f77b4" stroke-dasharray="1.5,2.475" stroke-opacity=".9" stroke-width="1.5"/>
<use x="59.645553" y="403.359463" fill="#1f77b4" fill-opacity=".9" stroke="#1f77b4" stroke-opacity=".9" xlink:href="#a"/>
<g transform="translate(77.6 407) scale(.1 -.1)">
<use xlink:href="#w"/>
<use transform="translate(27.8)" xlink:href="#u"/>
<use transform="translate(55.6)" xlink:href="#z"/>
<use transform="translate(119)" xlink:href="#ab"/>
<use transform="translate(182)" xlink:href="#ai"/>
<use transform="translate(242)" xlink:href="#f"/>
<use transform="translate(275)" xlink:href="#ac"/>
<use transform="translate(334)" xlink:href="#ab"/>
<use transform="translate(398)" xlink:href="#w"/>
<use transform="translate(425)" xlink:href="#n"/>
<use transform="translate(465)" xlink:href="#q"/>
</g>
<path d="m49.6 418h10 10" fill="none" stroke="#2ca02c" stroke-linecap="square" stroke-opacity=".9" stroke-width="1.5"/>
<use x="59.645553" y="418.037588" fill="#2ca02c" fill-opacity=".9" stroke="#2ca02c" stroke-opacity=".9" xlink:href="#b"/>
<g transform="translate(77.6 422) scale(.1 -.1)">
<use xlink:href="#v"/>
<use transform="translate(97.4)" xlink:href="#r"/>
<use transform="translate(159)" xlink:href="#y"/>
<use transform="translate(214)" xlink:href="#t"/>
<use transform="translate(275)" xlink:href="#s"/>
</g>
<path d="m40.6 1060h676v-316h-676z" fill="#fff"/>
<path d="m61.7 1060v-316" clip-path="url(#o)" fill="none" stroke="#b0b0b0" stroke-linecap="square" stroke-width=".8"/>
<use x="61.721078" y="1060.321635" stroke="#000000" stroke-width=".8" xlink:href="#k"/>
<g transform="translate(40.8 1075) scale(.1 -.1)">
<use xlink:href="#d"/>
<use transform="translate(63.6)" xlink:href="#c"/>
<use transform="translate(127)" xlink:href="#d"/>
<use transform="translate(191)" xlink:href="#ad"/>
<use transform="translate(254)" xlink:href="#f"/>
<use transform="translate(291)" xlink:href="#c"/>
<use transform="translate(354)" xlink:href="#aa"/>
</g>
<path d="m167 1060v-316" clip-path="url(#o)" fill="none" stroke="#b0b0b0" stroke-linecap="square" stroke-width=".8"/>
<use x="167.144643" y="1060.321635" stroke="#000000" stroke-width=".8" xlink:href="#k"/>
<g transform="translate(146 1075) scale(.1 -.1)">
<use xlink:href="#d"/>
<use transform="translate(63.6)" xlink:href="#c"/>
<use transform="translate(127)" xlink:href="#d"/>
<use transform="translate(191)" xlink:href="#ad"/>
<use transform="translate(254)" xlink:href="#f"/>
<use transform="translate(291)" xlink:href="#e"/>
<use transform="translate(354)" xlink:href="#e"/>
</g>
<path d="m273 1060v-316" clip-path="url(#o)" fill="none" stroke="#b0b0b0" stroke-linecap="square" stroke-width=".8"/>
<use x="272.568208" y="1060.321635" stroke="#000000" stroke-width=".8" xlink:href="#k"/>
<g transform="translate(252 1075) scale(.1 -.1)">
<use xlink:href="#d"/>
<use transform="translate(63.6)" xlink:href="#c"/>
<use transform="translate(127)" xlink:href="#d"/>
<use transform="translate(191)" xlink:href="#i"/>
<use transform="translate(254)" xlink:href="#f"/>
<use transform="translate(291)" xlink:href="#c"/>
<use transform="translate(354)" xlink:href="#e"/>
</g>
<path d="m375 1060v-316" clip-path="url(#o)" fill="none" stroke="#b0b0b0" stroke-linecap="square" stroke-width=".8"/>
<use x="374.535263" y="1060.321635" stroke="#000000" stroke-width=".8" xlink:href="#k"/>
<g transform="translate(354 1075) scale(.1 -.1)">
<use xlink:href="#d"/>
<use transform="translate(63.6)" xlink:href="#c"/>
<use transform="translate(127)" xlink:href="#d"/>
<use transform="translate(191)" xlink:href="#i"/>
<use transform="translate(254)" xlink:href="#f"/>
<use transform="translate(291)" xlink:href="#c"/>
<use transform="translate(354)" xlink:href="#ae"/>
</g>
<path d="m480 1060v-316" clip-path="url(#o)" fill="none" stroke="#b0b0b0" stroke-linecap="square" stroke-width=".8"/>
<use x="479.958828" y="1060.321635" stroke="#000000" stroke-width=".8" xlink:href="#k"/>
<g transform="translate(459 1075) scale(.1 -.1)">
<use xlink:href="#d"/>
<use transform="translate(63.6)" xlink:href="#c"/>
<use transform="translate(127)" xlink:href="#d"/>
<use transform="translate(191)" xlink:href="#i"/>
<use transform="translate(254)" xlink:href="#f"/>
<use transform="translate(291)" xlink:href="#c"/>
<use transform="translate(354)" xlink:href="#i"/>
</g>
<path d="m585 1060v-316" clip-path="url(#o)" fill="none" stroke="#b0b0b0" stroke-linecap="square" stroke-width=".8"/>
<use x="585.382394" y="1060.321635" stroke="#000000" stroke-width=".8" xlink:href="#k"/>
<g transform="translate(564 1075) scale(.1 -.1)">
<use xlink:href="#d"/>
<use transform="translate(63.6)" xlink:href="#c"/>
<use transform="translate(127)" xlink:href="#d"/>
<use transform="translate(191)" xlink:href="#i"/>
<use transform="translate(254)" xlink:href="#f"/>
<use transform="translate(291)" xlink:href="#c"/>
<use transform="translate(354)" xlink:href="#ah"/>
</g>
<path d="m693 1060v-316" clip-path="url(#o)" fill="none" stroke="#b0b0b0" stroke-linecap="square" stroke-width=".8"/>
<use x="692.534214" y="1060.321635" stroke="#000000" stroke-width=".8" xlink:href="#k"/>
<g transform="translate(672 1075) scale(.1 -.1)">
<use xlink:href="#d"/>
<use transform="translate(63.6)" xlink:href="#c"/>
<use transform="translate(127)" xlink:href="#d"/>
<use transform="translate(191)" xlink:href="#i"/>
<use transform="translate(254)" xlink:href="#f"/>
<use transform="translate(291)" xlink:href="#c"/>
<use transform="translate(354)" xlink:href="#aa"/>
</g>
<path d="m40.6 1029h676" clip-path="url(#o)" fill="none" stroke="#b0b0b0" stroke-linecap="square" stroke-width=".8"/>
<use x="40.645553" y="1028.553649" stroke="#000000" stroke-width=".8" xlink:href="#l"/>
<g transform="translate(3 1032) scale(.1 -.1)">
<use xlink:href="#e"/>
<use transform="translate(63.6)" xlink:href="#j"/>
<use transform="translate(95.4)" xlink:href="#c"/>
<use transform="translate(159)" xlink:href="#c"/>
<use transform="translate(223)" xlink:href="#m"/>
</g>
<path d="m40.6 960h676" clip-path="url(#o)" fill="none" stroke="#b0b0b0" stroke-linecap="square" stroke-width=".8"/>
<use x="40.645553" y="960.22018" stroke="#000000" stroke-width=".8" xlink:href="#l"/>
<g transform="translate(3 964) scale(.1 -.1)">
<use xlink:href="#e"/>
<use transform="translate(63.6)" xlink:href="#j"/>
<use transform="translate(95.4)" xlink:href="#e"/>
<use transform="translate(159)" xlink:href="#c"/>
<use transform="translate(223)" xlink:href="#m"/>
</g>
<path d="m40.6 892h676" clip-path="url(#o)" fill="none" stroke="#b0b0b0" stroke-linecap="square" stroke-width=".8"/>
<use x="40.645553" y="891.88671" stroke="#000000" stroke-width=".8" xlink:href="#l"/>
<g transform="translate(3 896) scale(.1 -.1)">
<use xlink:href="#e"/>
<use transform="translate(63.6)" xlink:href="#j"/>
<use transform="translate(95.4)" xlink:href="#d"/>
<use transform="translate(159)" xlink:href="#c"/>
<use transform="translate(223)" xlink:href="#m"/>
</g>
<path d="m40.6 824h676" clip-path="url(#o)" fill="none" stroke="#b0b0b0" stroke-linecap="square" stroke-width=".8"/>
<use x="40.645553" y="823.553241" stroke="#000000" stroke-width=".8" xlink:href="#l"/>
<g transform="translate(3 827) scale(.1 -.1)">
<use xlink:href="#e"/>
<use transform="translate(63.6)" xlink:href="#j"/>
<use transform="translate(95.4)" xlink:href="#ae"/>
<use transform="translate(159)" xlink:href="#c"/>
<use transform="translate(223)" xlink:href="#m"/>
</g>
<path d="m40.6 755h676" clip-path="url(#o)" fill="none" stroke="#b0b0b0" stroke-linecap="square" stroke-width=".8"/>
<use x="40.645553" y="755.219771" stroke="#000000" stroke-width=".8" xlink:href="#l"/>
<g transform="translate(3 759) scale(.1 -.1)">
<use xlink:href="#e"/>
<use transform="translate(63.6)" xlink:href="#j"/>
<use transform="translate(95.4)" xlink:href="#ad"/>
<use transform="translate(159)" xlink:href="#c"/>
<use transform="translate(223)" xlink:href="#m"/>
</g>
<g stroke="#1f77b4" stroke-opacity=".9">
<path d="m412 1013 12 25.3 12.2-14.3 12.1 8.88 11.8-2.54 12.4-0.453 11.9-3.29 12.2-2 12.1-0.111 11.4 5.87 12.8-271 12.1 261 11.7 9.13 12.1-9.88 11.9 2.36 12.8 1.64 11.8-4.33 12.2 3.19 11.9-3.23 12 6.61 12.3-11.1 11.8 4.33 12.2-0.068" clip-path="url(#o)" fill="none" stroke-dasharray="1.5,2.475" stroke-width="1.5"/>
<g clip-path="url(#o)" fill="#1f77b4" fill-opacity=".9">
<use x="411.962709" y="1012.607762" xlink:href="#a"/>
<use x="423.95352" y="1037.953076" xlink:href="#a"/>
<use x="436.171583" y="1023.689392" xlink:href="#a"/>
<use x="448.244706" y="1032.568512" xlink:href="#a"/>
<use x="460.025505" y="1030.025913" xlink:href="#a"/>
<use x="472.44978" y="1029.57254" xlink:href="#a"/>
<use x="484.391523" y="1026.2804" xlink:href="#a"/>
<use x="496.638031" y="1024.278307" xlink:href="#a"/>
<use x="508.720675" y="1024.167402" xlink:href="#a"/>
<use x="520.091954" y="1030.036415" xlink:href="#a"/>
<use x="532.854278" y="759.131827" xlink:href="#a"/>
<use x="544.9229" y="1020.625702" xlink:href="#a"/>
<use x="556.655272" y="1029.758653" xlink:href="#a"/>
<use x="568.787883" y="1019.876515" xlink:href="#a"/>
<use x="580.643514" y="1022.234406" xlink:href="#a"/>
<use x="593.440903" y="1023.877103" xlink:href="#a"/>
<use x="605.2034" y="1019.551459" xlink:href="#a"/>
<use x="617.407722" y="1022.741906" xlink:href="#a"/>
<use x="629.311099" y="1019.510186" xlink:href="#a"/>
<use x="641.322133" y="1026.116477" xlink:href="#a"/>
<use x="653.607447" y="1015.017218" xlink:href="#a"/>
<use x="665.421951" y="1019.351438" xlink:href="#a"/>
<use x="677.578526" y="1019.283485" xlink:href="#a"/>
</g>
</g>
<g stroke="#2ca02c" stroke-opacity=".9">
<path d="m412 1016 12-1.97 12.2 9.12 12.1 6.32 11.8-10.8 24.4 15.5 12.2-8.84 12.1 3.29 11.4-6.87 12.8-219 12.1 229 11.7-0.313 12.1 4.02 11.9-8.41 12.8-4.37 11.8 23.5 12.2-18.6 11.9-1.41 12 5.33 12.3-11.1 11.8-0.0128 12.2 11.5" clip-path="url(#o)" fill="none" stroke-linecap="square" stroke-width="1.5"/>
<g clip-path="url(#o)" fill="#2ca02c" fill-opacity=".9">
<use x="411.962709" y="1015.79177" xlink:href="#b"/>
<use x="423.95352" y="1013.821877" xlink:href="#b"/>
<use x="436.171583" y="1022.93787" xlink:href="#b"/>
<use x="448.244706" y="1029.260781" xlink:href="#b"/>
<use x="460.025505" y="1018.450343" xlink:href="#b"/>
<use x="484.391523" y="1033.928365" xlink:href="#b"/>
<use x="496.638031" y="1025.092435" xlink:href="#b"/>
<use x="508.720675" y="1028.377553" xlink:href="#b"/>
<use x="520.091954" y="1021.51104" xlink:href="#b"/>
<use x="532.854278" y="802.957734" xlink:href="#b"/>
<use x="544.9229" y="1031.502965" xlink:href="#b"/>
<use x="556.655272" y="1031.189963" xlink:href="#b"/>
<use x="568.787883" y="1035.214599" xlink:href="#b"/>
<use x="580.643514" y="1026.80849" xlink:href="#b"/>
<use x="593.440903" y="1022.441669" xlink:href="#b"/>
<use x="605.2034" y="1045.979263" xlink:href="#b"/>
<use x="617.407722" y="1027.419199" xlink:href="#b"/>
<use x="629.311099" y="1026.008118" xlink:href="#b"/>
<use x="641.322133" y="1031.337647" xlink:href="#b"/>
<use x="653.607447" y="1020.278497" xlink:href="#b"/>
<use x="665.421951" y="1020.265672" xlink:href="#b"/>
<use x="677.578526" y="1031.801347" xlink:href="#b"/>
</g>
</g>
<path d="m40.6 1060v-316" fill="none" stroke="#000" stroke-linecap="square" stroke-width=".8"/>
<path d="m717 1060v-316" fill="none" stroke="#000" stroke-linecap="square" stroke-width=".8"/>
<path d="m40.6 1060h676" fill="none" stroke="#000" stroke-linecap="square" stroke-width=".8"/>
<path d="m40.6 745h676" fill="none" stroke="#000" stroke-linecap="square" stroke-width=".8"/>
<g clip-path="url(#o)">
<g transform="translate(58.2 1021) rotate(-90) scale(.1 -.1)">
<use xlink:href="#x"/>
<use transform="translate(35.2)" xlink:href="#r"/>
<use transform="translate(96.5)" xlink:href="#s"/>
<use transform="translate(149)" xlink:href="#n"/>
<use transform="translate(188)" xlink:href="#g"/>
<use transform="translate(249)" xlink:href="#q"/>
<use transform="translate(290)" xlink:href="#DejaVuSans-20"/>
<use transform="translate(322)" xlink:href="#ao"/>
</g>
</g>
<g clip-path="url(#o)">
<g transform="translate(58.2 1089) rotate(-90) scale(.1 -.1)">
<use xlink:href="#ap"/>
<use transform="translate(143)" xlink:href="#DejaVuSans-20"/>
<use transform="translate(175)" xlink:href="#s"/>
<use transform="translate(227)" xlink:href="#w"/>
<use transform="translate(255)" xlink:href="#t"/>
<use transform="translate(316)" xlink:href="#af"/>
<use transform="translate(398)" xlink:href="#g"/>
<use transform="translate(460)" xlink:href="#q"/>
</g>
</g>
<g transform="translate(268 739) scale(.12 -.12)">
<defs>
<path id="av" transform="scale(.0156)" d="m628 4666h631v-4341q0-844-320-1225t-1030-381h-240v531h197q418 0 590 235 172 234 172 840v4341z"/>
<path id="aw" transform="scale(.0156)" d="m628 4666h631v-4666h-631v4666z"/>
</defs>
<use xlink:href="#al"/>
<use transform="translate(63.2)" xlink:href="#x"/>
<use transform="translate(98.4)" xlink:href="#x"/>
<use transform="translate(134)" xlink:href="#g"/>
<use transform="translate(195)" xlink:href="#y"/>
<use transform="translate(250)" xlink:href="#n"/>
<use transform="translate(289)" xlink:href="#DejaVuSans-20"/>
<use transform="translate(321)" xlink:href="#t"/>
<use transform="translate(382)" xlink:href="#x"/>
<use transform="translate(417)" xlink:href="#DejaVuSans-20"/>
<use transform="translate(449)" xlink:href="#av"/>
<use transform="translate(479)" xlink:href="#aw"/>
<use transform="translate(508)" xlink:href="#ag"/>
<use transform="translate(569)" xlink:href="#DejaVuSans-20"/>
<use transform="translate(601)" xlink:href="#ac"/>
<use transform="translate(660)" xlink:href="#s"/>
<use transform="translate(712)" xlink:href="#j"/>
<use transform="translate(744)" xlink:href="#DejaVuSans-20"/>
<use transform="translate(776)" xlink:href="#ag"/>
<use transform="translate(834)" xlink:href="#u"/>
<use transform="translate(862)" xlink:href="#g"/>
<use transform="translate(923)" xlink:href="#q"/>
<use transform="translate(964)" xlink:href="#DejaVuSans-20"/>
<use transform="translate(996)" xlink:href="#e"/>
<use transform="translate(1060)" xlink:href="#DejaVuSans-20"/>
<use transform="translate(1092)" xlink:href="#an"/>
<use transform="translate(1131)" xlink:href="#s"/>
<use transform="translate(1183)" xlink:href="#r"/>
<use transform="translate(1244)" xlink:href="#v"/>
<use transform="translate(1341)" xlink:href="#g"/>
<use transform="translate(1403)" xlink:href="#DejaVuSans-20"/>
<use transform="translate(1435)" xlink:href="#y"/>
<use transform="translate(1490)" xlink:href="#t"/>
<use transform="translate(1551)" xlink:href="#v"/>
<use transform="translate(1648)" xlink:href="#v"/>
<use transform="translate(1746)" xlink:href="#u"/>
<use transform="translate(1773)" xlink:href="#n"/>
<use transform="translate(1813)" xlink:href="#am"/>
</g>
<path d="m47.6 782h82.6q2 0 2-2v-28.4q0-2-2-2h-82.6q-2 0-2 2v28.4q0 2 2 2z" fill="#fff" opacity=".8" stroke="#ccc"/>
<path d="m49.6 758h10 10" fill="none" stroke="#1f77b4" stroke-dasharray="1.5,2.475" stroke-opacity=".9" stroke-width="1.5"/>
<use x="59.645553" y="757.887892" fill="#1f77b4" fill-opacity=".9" stroke="#1f77b4" stroke-opacity=".9" xlink:href="#a"/>
<g transform="translate(77.6 761) scale(.1 -.1)">
<use xlink:href="#w"/>
<use transform="translate(27.8)" xlink:href="#u"/>
<use transform="translate(55.6)" xlink:href="#z"/>
<use transform="translate(119)" xlink:href="#ab"/>
<use transform="translate(182)" xlink:href="#ai"/>
<use transform="translate(242)" xlink:href="#f"/>
<use transform="translate(275)" xlink:href="#ac"/>
<use transform="translate(334)" xlink:href="#ab"/>
<use transform="translate(398)" xlink:href="#w"/>
<use transform="translate(425)" xlink:href="#n"/>
<use transform="translate(465)" xlink:href="#q"/>
</g>
<path d="m49.6 773h10 10" fill="none" stroke="#2ca02c" stroke-linecap="square" stroke-opacity=".9" stroke-width="1.5"/>
<use x="59.645553" y="772.566017" fill="#2ca02c" fill-opacity=".9" stroke="#2ca02c" stroke-opacity=".9" xlink:href="#b"/>
<g transform="translate(77.6 776) scale(.1 -.1)">
<use xlink:href="#v"/>
<use transform="translate(97.4)" xlink:href="#r"/>
<use transform="translate(159)" xlink:href="#y"/>
<use transform="translate(214)" xlink:href="#t"/>
<use transform="translate(275)" xlink:href="#s"/>
</g>
<g transform="translate(229 12.1) scale(.12 -.12)">
<defs>
<path id="au" transform="scale(.0156)" d="m1259 4147v-1753h794q441 0 681 228 241 228 241 650 0 419-241 647-240 228-681 228h-794zm-631 519h1425q785 0 1186-355 402-355 402-1039 0-691-402-1044-401-353-1186-353h-794v-1875h-631v4666z"/>
<path id="at" transform="scale(.0156)" d="m1159 525v-1856h-578v4831h578v-531q182 312 458 463 277 152 661 152 638 0 1036-506 399-506 399-1331t-399-1332q-398-506-1036-506-384 0-661 152-276 152-458 464zm1957 1222q0 634-261 995t-717 361q-457 0-718-361t-261-995 261-995 718-361q456 0 717 361t261 995z"/>
<path id="as" transform="scale(.0156)" d="m2059-325q-243-625-475-815-231-191-618-191h-460v481h338q237 0 368 113 132 112 291 531l103 262-1415 3444h609l1094-2737 1094 2737h609l-1538-3825z"/>
</defs>
<use xlink:href="#au"/>
<use transform="translate(56.7)" xlink:href="#g"/>
<use transform="translate(118)" xlink:href="#q"/>
<use transform="translate(159)" xlink:href="#x"/>
<use transform="translate(195)" xlink:href="#t"/>
<use transform="translate(256)" xlink:href="#q"/>
<use transform="translate(295)" xlink:href="#v"/>
<use transform="translate(392)" xlink:href="#r"/>
<use transform="translate(454)" xlink:href="#z"/>
<use transform="translate(517)" xlink:href="#y"/>
<use transform="translate(572)" xlink:href="#g"/>
<use transform="translate(634)" xlink:href="#DejaVuSans-20"/>
<use transform="translate(665)" xlink:href="#u"/>
<use transform="translate(693)" xlink:href="#v"/>
<use transform="translate(791)" xlink:href="#at"/>
<use transform="translate(854)" xlink:href="#q"/>
<use transform="translate(893)" xlink:href="#t"/>
<use transform="translate(954)" xlink:href="#ac"/>
<use transform="translate(1013)" xlink:href="#g"/>
<use transform="translate(1075)" xlink:href="#v"/>
<use transform="translate(1172)" xlink:href="#g"/>
<use transform="translate(1234)" xlink:href="#z"/>
<use transform="translate(1297)" xlink:href="#n"/>
<use transform="translate(1336)" xlink:href="#DejaVuSans-20"/>
<use transform="translate(1368)" xlink:href="#ar"/>
<use transform="translate(1432)" xlink:href="#as"/>
<use transform="translate(1491)" xlink:href="#DejaVuSans-20"/>
<use transform="translate(1523)" xlink:href="#y"/>
<use transform="translate(1578)" xlink:href="#t"/>
<use transform="translate(1639)" xlink:href="#z"/>
<use transform="translate(1702)" xlink:href="#x"/>
<use transform="translate(1737)" xlink:href="#u"/>
<use transform="translate(1765)" xlink:href="#aj"/>
<use transform="translate(1829)" xlink:href="#ab"/>
<use transform="translate(1892)" xlink:href="#q"/>
<use transform="translate(1933)" xlink:href="#r"/>
<use transform="translate(1994)" xlink:href="#n"/>
<use transform="translate(2034)" xlink:href="#u"/>
<use transform="translate(2061)" xlink:href="#t"/>
<use transform="translate(2123)" xlink:href="#z"/>
</g>
<defs>
<clipPath id="h">
<rect x="40.6" y="35.7" width="676" height="316"/>
</clipPath>
<clipPath id="p">
<rect x="40.6" y="390" width="676" height="316"/>
</clipPath>
<clipPath id="o">
<rect x="40.6" y="745" width="676" height="316"/>
</clipPath>
</defs>
</svg>
