<?xml version="1.0" encoding="UTF-8"?>
<!DOCTYPE svg  PUBLIC '-//W3C//DTD SVG 1.1//EN'  'http://www.w3.org/Graphics/SVG/1.1/DTD/svg11.dtd'>
<svg width="720pt" height="1080pt" version="1.1" viewBox="0 0 720 1080" xmlns="http://www.w3.org/2000/svg" xmlns:xlink="http://www.w3.org/1999/xlink">
<defs>
<style type="text/css">*{stroke-linejoin: round; stroke-linecap: butt}</style>
</defs>
<path d="m0 1080h720v-1080h-720z" fill="#fff"/>
<path d="m40.6 351h668v-316h-668z" fill="#fff"/>
<path d="m40.6 351v-316" clip-path="url(#n)" fill="none" stroke="#b0b0b0" stroke-linecap="square" stroke-width=".8"/>
<defs>
<path id="e" d="m0 0v3.5" stroke="#000" stroke-width=".8"/>
</defs>
<use x="40.645553" y="351.264775" stroke="#000000" stroke-width=".8" xlink:href="#e"/>
<g transform="translate(32.7 366) scale(.1 -.1)">
<defs>
<path id="b" transform="scale(.0156)" d="m2034 4250q-487 0-733-480-245-479-245-1442 0-959 245-1439 246-480 733-480 491 0 736 480 246 480 246 1439 0 963-246 1442-245 480-736 480zm0 500q785 0 1199-621 414-620 414-1801 0-1178-414-1799-414-620-1199-620-784 0-1198 620-414 621-414 1799 0 1181 414 1801 414 621 1198 621z"/>
<path id="c" transform="scale(.0156)" d="m684 794h660v-794h-660v794z"/>
</defs>
<use xlink:href="#b"/>
<use transform="translate(63.6)" xlink:href="#c"/>
<use transform="translate(95.4)" xlink:href="#b"/>
</g>
<path d="m174 351v-316" clip-path="url(#n)" fill="none" stroke="#b0b0b0" stroke-linecap="square" stroke-width=".8"/>
<use x="174.326081" y="351.264775" stroke="#000000" stroke-width=".8" xlink:href="#e"/>
<g transform="translate(166 366) scale(.1 -.1)">
<defs>
<path id="i" transform="scale(.0156)" d="m1228 531h2203v-531h-2962v531q359 372 979 998 621 627 780 809 303 340 423 576 121 236 121 464 0 372-261 606-261 235-680 235-297 0-627-103-329-103-704-313v638q381 153 712 231 332 78 607 78 725 0 1156-363 431-362 431-968 0-288-108-546-107-257-392-607-78-91-497-524-418-433-1181-1211z"/>
</defs>
<use xlink:href="#b"/>
<use transform="translate(63.6)" xlink:href="#c"/>
<use transform="translate(95.4)" xlink:href="#i"/>
</g>
<path d="m308 351v-316" clip-path="url(#n)" fill="none" stroke="#b0b0b0" stroke-linecap="square" stroke-width=".8"/>
<use x="308.00661" y="351.264775" stroke="#000000" stroke-width=".8" xlink:href="#e"/>
<g transform="translate(300 366) scale(.1 -.1)">
<defs>
<path id="w" transform="scale(.0156)" d="m2419 4116-1594-2491h1594v2491zm-166 550h794v-3041h666v-525h-666v-1100h-628v1100h-2106v609l1940 2957z"/>
</defs>
<use xlink:href="#b"/>
<use transform="translate(63.6)" xlink:href="#c"/>
<use transform="translate(95.4)" xlink:href="#w"/>
</g>
<path d="m442 351v-316" clip-path="url(#n)" fill="none" stroke="#b0b0b0" stroke-linecap="square" stroke-width=".8"/>
<use x="441.68714" y="351.264775" stroke="#000000" stroke-width=".8" xlink:href="#e"/>
<g transform="translate(434 366) scale(.1 -.1)">
<defs>
<path id="ac" transform="scale(.0156)" d="m2113 2584q-425 0-674-291-248-290-248-796 0-503 248-796 249-292 674-292t673 292q248 293 248 796 0 506-248 796-248 291-673 291zm1253 1979v-575q-238 112-480 171-242 60-480 60-625 0-955-422-329-422-376-1275 184 272 462 417 279 145 613 145 703 0 1111-427 408-426 408-1160 0-719-425-1154-425-434-1131-434-810 0-1238 620-428 621-428 1799 0 1106 525 1764t1409 658q238 0 480-47t505-140z"/>
</defs>
<use xlink:href="#b"/>
<use transform="translate(63.6)" xlink:href="#c"/>
<use transform="translate(95.4)" xlink:href="#ac"/>
</g>
<path d="m575 351v-316" clip-path="url(#n)" fill="none" stroke="#b0b0b0" stroke-linecap="square" stroke-width=".8"/>
<use x="575.367668" y="351.264775" stroke="#000000" stroke-width=".8" xlink:href="#e"/>
<g transform="translate(567 366) scale(.1 -.1)">
<defs>
<path id="z" transform="scale(.0156)" d="m2034 2216q-450 0-708-241-257-241-257-662 0-422 257-663 258-241 708-241t709 242q260 243 260 662 0 421-258 662-257 241-711 241zm-631 268q-406 100-633 378-226 279-226 679 0 559 398 884 399 325 1092 325 697 0 1094-325t397-884q0-400-227-679-226-278-629-378 456-106 710-416 255-309 255-755 0-679-414-1042-414-362-1186-362-771 0-1186 362-414 363-414 1042 0 446 256 755 257 310 713 416zm-231 997q0-362 226-565 227-203 636-203 407 0 636 203 230 203 230 565 0 363-230 566-229 203-636 203-409 0-636-203-226-203-226-566z"/>
</defs>
<use xlink:href="#b"/>
<use transform="translate(63.6)" xlink:href="#c"/>
<use transform="translate(95.4)" xlink:href="#z"/>
</g>
<path d="m709 351v-316" clip-path="url(#n)" fill="none" stroke="#b0b0b0" stroke-linecap="square" stroke-width=".8"/>
<use x="709.048197" y="351.264775" stroke="#000000" stroke-width=".8" xlink:href="#e"/>
<g transform="translate(701 366) scale(.1 -.1)">
<defs>
<path id="r" transform="scale(.0156)" d="m794 531h1031v3560l-1122-225v575l1116 225h631v-4135h1031v-531h-2687v531z"/>
</defs>
<use xlink:href="#r"/>
<use transform="translate(63.6)" xlink:href="#c"/>
<use transform="translate(95.4)" xlink:href="#b"/>
</g>
<path d="m40.6 351h668" clip-path="url(#n)" fill="none" stroke="#b0b0b0" stroke-linecap="square" stroke-width=".8"/>
<defs>
<path id="g" d="m0 0h-3.5" stroke="#000" stroke-width=".8"/>
</defs>
<use x="40.645553" y="351.264775" stroke="#000000" stroke-width=".8" xlink:href="#g"/>
<g transform="translate(3 355) scale(.1 -.1)">
<defs>
<path id="h" transform="scale(.0156)" d="m4488 3438-1429-1435 1429-1428-372-378-1435 1434-1434-1434-369 378 1425 1428-1425 1435 369 378 1434-1435 1435 1435 372-378z"/>
</defs>
<use xlink:href="#b"/>
<use transform="translate(63.6)" xlink:href="#c"/>
<use transform="translate(95.4)" xlink:href="#b"/>
<use transform="translate(159)" xlink:href="#b"/>
<use transform="translate(223)" xlink:href="#h"/>
</g>
<path d="m40.6 288h668" clip-path="url(#n)" fill="none" stroke="#b0b0b0" stroke-linecap="square" stroke-width=".8"/>
<use x="40.645553" y="288.158339" stroke="#000000" stroke-width=".8" xlink:href="#g"/>
<g transform="translate(3 292) scale(.1 -.1)">
<use xlink:href="#b"/>
<use transform="translate(63.6)" xlink:href="#c"/>
<use transform="translate(95.4)" xlink:href="#i"/>
<use transform="translate(159)" xlink:href="#b"/>
<use transform="translate(223)" xlink:href="#h"/>
</g>
<path d="m40.6 225h668" clip-path="url(#n)" fill="none" stroke="#b0b0b0" stroke-linecap="square" stroke-width=".8"/>
<use x="40.645553" y="225.051903" stroke="#000000" stroke-width=".8" xlink:href="#g"/>
<g transform="translate(3 229) scale(.1 -.1)">
<use xlink:href="#b"/>
<use transform="translate(63.6)" xlink:href="#c"/>
<use transform="translate(95.4)" xlink:href="#w"/>
<use transform="translate(159)" xlink:href="#b"/>
<use transform="translate(223)" xlink:href="#h"/>
</g>
<path d="m40.6 162h668" clip-path="url(#n)" fill="none" stroke="#b0b0b0" stroke-linecap="square" stroke-width=".8"/>
<use x="40.645553" y="161.945467" stroke="#000000" stroke-width=".8" xlink:href="#g"/>
<g transform="translate(3 166) scale(.1 -.1)">
<use xlink:href="#b"/>
<use transform="translate(63.6)" xlink:href="#c"/>
<use transform="translate(95.4)" xlink:href="#ac"/>
<use transform="translate(159)" xlink:href="#b"/>
<use transform="translate(223)" xlink:href="#h"/>
</g>
<path d="m40.6 98.8h668" clip-path="url(#n)" fill="none" stroke="#b0b0b0" stroke-linecap="square" stroke-width=".8"/>
<use x="40.645553" y="98.839031" stroke="#000000" stroke-width=".8" xlink:href="#g"/>
<g transform="translate(3 103) scale(.1 -.1)">
<use xlink:href="#b"/>
<use transform="translate(63.6)" xlink:href="#c"/>
<use transform="translate(95.4)" xlink:href="#z"/>
<use transform="translate(159)" xlink:href="#b"/>
<use transform="translate(223)" xlink:href="#h"/>
</g>
<path d="m40.6 35.7h668" clip-path="url(#n)" fill="none" stroke="#b0b0b0" stroke-linecap="square" stroke-width=".8"/>
<use x="40.645553" y="35.732595" stroke="#000000" stroke-width=".8" xlink:href="#g"/>
<g transform="translate(3 39.5) scale(.1 -.1)">
<use xlink:href="#r"/>
<use transform="translate(63.6)" xlink:href="#c"/>
<use transform="translate(95.4)" xlink:href="#b"/>
<use transform="translate(159)" xlink:href="#b"/>
<use transform="translate(223)" xlink:href="#h"/>
</g>
<path d="m40.6 351v-316" fill="none" stroke="#000" stroke-linecap="square" stroke-width=".8"/>
<path d="m709 351v-316" fill="none" stroke="#000" stroke-linecap="square" stroke-width=".8"/>
<path d="m40.6 351h668" fill="none" stroke="#000" stroke-linecap="square" stroke-width=".8"/>
<path d="m40.6 35.7h668" fill="none" stroke="#000" stroke-linecap="square" stroke-width=".8"/>
<g clip-path="url(#n)">
<g transform="translate(58.2 27.8) rotate(-90) scale(.1 -.1)">
<defs>
<path id="l" transform="scale(.0156)" d="m2375 4863v-479h-550q-309 0-430-125-120-125-120-450v-309h947v-447h-947v-3053h-578v3053h-550v447h550v244q0 584 272 851 272 268 862 268h544z"/>
<path id="t" transform="scale(.0156)" d="m2194 1759q-697 0-966-159t-269-544q0-306 202-486 202-179 548-179 479 0 768 339t289 901v128h-572zm1147 238v-2e3h-575v531q-197-318-491-470t-719-152q-537 0-855 302-317 302-317 808 0 590 395 890 396 300 1180 300h807v57q0 397-261 614t-733 217q-300 0-585-72-284-72-546-216v532q315 122 612 182 297 61 578 61 760 0 1135-394 375-393 375-1193z"/>
<path id="p" transform="scale(.0156)" d="m2834 3397v-544q-243 125-506 187-262 63-544 63-428 0-642-131t-214-394q0-200 153-314t616-217l197-44q612-131 870-370t258-667q0-488-386-773-386-284-1061-284-281 0-586 55t-642 164v594q319-166 628-249 309-82 613-82 406 0 624 139 219 139 219 392 0 234-158 359-157 125-692 241l-200 47q-534 112-772 345-237 233-237 639 0 494 350 762 350 269 994 269 318 0 599-47 282-46 519-140z"/>
<path id="j" transform="scale(.0156)" d="m1172 4494v-994h1184v-447h-1184v-1900q0-428 117-550t477-122h590v-481h-590q-666 0-919 248-253 249-253 905v1900h-422v447h422v994h578z"/>
<path id="d" transform="scale(.0156)" d="m3597 1894v-281h-2644q38-594 358-905t892-311q331 0 642 81t618 244v-544q-310-131-635-200t-659-69q-838 0-1327 487-489 488-489 1320 0 859 464 1363 464 505 1252 505 706 0 1117-455 411-454 411-1235zm-575 169q-6 471-264 752-258 282-683 282-481 0-770-272t-333-766l2050 4z"/>
<path id="k" transform="scale(.0156)" d="m2631 2963q-97 56-211 82-114 27-251 27-488 0-749-317t-261-911v-1844h-578v3500h578v-544q182 319 472 473 291 155 707 155 59 0 131-8 72-7 159-23l3-590z"/>
<path id="aj" transform="scale(.0156)" d="m8863 2147v-281l-1229-1228-375 375 729 728h-7622v531h7622l-729 728 375 375 1229-1228z"/>
</defs>
<use xlink:href="#l"/>
<use transform="translate(35.2)" xlink:href="#t"/>
<use transform="translate(96.5)" xlink:href="#p"/>
<use transform="translate(149)" xlink:href="#j"/>
<use transform="translate(188)" xlink:href="#d"/>
<use transform="translate(249)" xlink:href="#k"/>
<use transform="translate(290)" xlink:href="#DejaVuSans-20"/>
<use transform="translate(322)" xlink:href="#aj"/>
</g>
</g>
<g clip-path="url(#n)">
<g transform="translate(58.2 95.8) rotate(-90) scale(.1 -.1)">
<defs>
<path id="ak" transform="scale(.0156)" d="m313 1866v281l1228 1228 375-375-728-728h7621v-531h-7621l728-728-375-375-1228 1228z"/>
<path id="u" transform="scale(.0156)" d="m603 4863h575v-4863h-575v4863z"/>
<path id="q" transform="scale(.0156)" d="m1959 3097q-462 0-731-361t-269-989 267-989q268-361 733-361 460 0 728 362 269 363 269 988 0 622-269 986-268 364-728 364zm0 487q750 0 1178-488 429-487 429-1349 0-859-429-1349-428-489-1178-489-753 0-1180 489-426 490-426 1349 0 862 426 1349 427 488 1180 488z"/>
<path id="ad" transform="scale(.0156)" d="m269 3500h575l719-2731 715 2731h678l719-2731 716 2731h575l-916-3500h-678l-753 2869-756-2869h-679l-915 3500z"/>
</defs>
<use xlink:href="#ak"/>
<use transform="translate(143)" xlink:href="#DejaVuSans-20"/>
<use transform="translate(175)" xlink:href="#p"/>
<use transform="translate(227)" xlink:href="#u"/>
<use transform="translate(255)" xlink:href="#q"/>
<use transform="translate(316)" xlink:href="#ad"/>
<use transform="translate(398)" xlink:href="#d"/>
<use transform="translate(460)" xlink:href="#k"/>
</g>
</g>
<g transform="translate(205 29.7) scale(.12 -.12)">
<defs>
<path id="ag" transform="scale(.0156)" d="m628 4666h2950v-532h-2319v-1381h2222v-531h-2222v-1691h2375v-531h-3006v4666z"/>
<path id="v" transform="scale(.0156)" d="m3122 3366v-538q-244 135-489 202t-495 67q-560 0-870-355-309-354-309-995t309-996q310-354 870-354 250 0 495 67t489 202v-532q-241-112-499-168-257-57-548-57-791 0-1257 497-465 497-465 1341 0 856 470 1346 471 491 1290 491 265 0 518-55 253-54 491-163z"/>
<path id="ao" transform="scale(.0156)" d="m3116 1747q0 634-261 995t-717 361q-457 0-718-361t-261-995 261-995 718-361q456 0 717 361t261 995zm-1957 1222q182 312 458 463 277 152 661 152 638 0 1036-506 399-506 399-1331t-399-1332q-398-506-1036-506-384 0-661 152-276 152-458 464v-525h-578v4863h578v-1894z"/>
<path id="ab" transform="scale(.0156)" d="m544 1381v2119h575v-2097q0-497 193-746 194-248 582-248 465 0 735 297 271 297 271 810v1984h575v-3500h-575v538q-209-319-486-474-276-155-642-155-603 0-916 375-312 375-312 1097zm1447 2203z"/>
<path id="o" transform="scale(.0156)" d="m603 3500h575v-3500h-575v3500zm0 1363h575v-729h-575v729z"/>
<path id="an" transform="scale(.0156)" d="m2906 2969v1894h575v-4863h-575v525q-181-312-458-464-276-152-664-152-634 0-1033 506-398 507-398 1332t398 1331q399 506 1033 506 388 0 664-152 277-151 458-463zm-1959-1222q0-634 261-995t717-361 718 361q263 361 263 995t-263 995q-262 361-718 361t-717-361-261-995z"/>
<path id="am" transform="scale(.0156)" d="m3513 2113v-2113h-575v2094q0 497-194 743-194 247-581 247-466 0-735-297-269-296-269-809v-1978h-578v4863h578v-1907q207 316 486 472 280 156 646 156 603 0 912-373 310-373 310-1098z"/>
<path id="x" transform="scale(.0156)" d="m3513 2113v-2113h-575v2094q0 497-194 743-194 247-581 247-466 0-735-297-269-296-269-809v-1978h-578v3500h578v-544q207 316 486 472 280 156 646 156 603 0 912-373 310-373 310-1098z"/>
<path id="af" transform="scale(.0156)" d="m2906 1791q0 625-258 968-257 344-723 344-462 0-720-344-258-343-258-968 0-622 258-966t720-344q466 0 723 344 258 344 258 966zm575-1357q0-893-397-1329-396-436-1215-436-303 0-572 45t-522 139v559q253-137 500-202 247-66 503-66 566 0 847 295t281 892v285q-178-310-456-463t-666-153q-643 0-1037 490-394 491-394 1301 0 812 394 1302 394 491 1037 491 388 0 666-153t456-462v531h575v-3066z"/>
<path id="aa" transform="scale(.0156)" d="m191 3500h609l1094-2937 1094 2937h609l-1313-3500h-781l-1312 3500z"/>
<path id="ae" transform="scale(.0156)" d="m-19 4666h3947v-532h-1656v-4134h-634v4134h-1657v532z"/>
<path id="ai" transform="scale(.0156)" d="m1984 4856q-418-718-622-1422-203-703-203-1425 0-721 205-1429t620-1424h-500q-468 735-701 1444t-233 1409q0 697 231 1403 232 707 703 1444h500z"/>
<path id="s" transform="scale(.0156)" d="m3328 2828q216 388 516 572t706 184q547 0 844-383 297-382 297-1088v-2113h-578v2094q0 503-179 746-178 244-543 244-447 0-707-297-259-296-259-809v-1978h-578v2094q0 506-178 748t-550 242q-441 0-701-298-259-298-259-808v-1978h-578v3500h578v-544q197 322 472 475t653 153q382 0 649-194 267-193 395-562z"/>
<path id="ah" transform="scale(.0156)" d="m513 4856h500q468-737 701-1444 233-706 233-1403 0-700-233-1409t-701-1444h-500q415 716 620 1424t205 1429q0 722-205 1425-205 704-620 1422z"/>
</defs>
<use xlink:href="#ag"/>
<use transform="translate(63.2)" xlink:href="#l"/>
<use transform="translate(98.4)" xlink:href="#l"/>
<use transform="translate(134)" xlink:href="#d"/>
<use transform="translate(195)" xlink:href="#v"/>
<use transform="translate(250)" xlink:href="#j"/>
<use transform="translate(289)" xlink:href="#DejaVuSans-20"/>
<use transform="translate(321)" xlink:href="#q"/>
<use transform="translate(382)" xlink:href="#l"/>
<use transform="translate(417)" xlink:href="#DejaVuSans-20"/>
<use transform="translate(449)" xlink:href="#ao"/>
<use transform="translate(513)" xlink:href="#ab"/>
<use transform="translate(576)" xlink:href="#o"/>
<use transform="translate(604)" xlink:href="#u"/>
<use transform="translate(632)" xlink:href="#an"/>
<use transform="translate(695)" xlink:href="#DejaVuSans-20"/>
<use transform="translate(727)" xlink:href="#ad"/>
<use transform="translate(809)" xlink:href="#o"/>
<use transform="translate(837)" xlink:href="#j"/>
<use transform="translate(876)" xlink:href="#am"/>
<use transform="translate(939)" xlink:href="#DejaVuSans-20"/>
<use transform="translate(971)" xlink:href="#u"/>
<use transform="translate(999)" xlink:href="#t"/>
<use transform="translate(1060)" xlink:href="#j"/>
<use transform="translate(1099)" xlink:href="#d"/>
<use transform="translate(1161)" xlink:href="#p"/>
<use transform="translate(1213)" xlink:href="#j"/>
<use transform="translate(1252)" xlink:href="#DejaVuSans-20"/>
<use transform="translate(1284)" xlink:href="#v"/>
<use transform="translate(1339)" xlink:href="#u"/>
<use transform="translate(1367)" xlink:href="#t"/>
<use transform="translate(1428)" xlink:href="#x"/>
<use transform="translate(1491)" xlink:href="#af"/>
<use transform="translate(1555)" xlink:href="#DejaVuSans-20"/>
<use transform="translate(1586)" xlink:href="#aa"/>
<use transform="translate(1646)" xlink:href="#p"/>
<use transform="translate(1698)" xlink:href="#c"/>
<use transform="translate(1730)" xlink:href="#DejaVuSans-20"/>
<use transform="translate(1761)" xlink:href="#ae"/>
<use transform="translate(1819)" xlink:href="#o"/>
<use transform="translate(1847)" xlink:href="#d"/>
<use transform="translate(1909)" xlink:href="#k"/>
<use transform="translate(1950)" xlink:href="#DejaVuSans-20"/>
<use transform="translate(1981)" xlink:href="#r"/>
<use transform="translate(2045)" xlink:href="#DejaVuSans-20"/>
<use transform="translate(2077)" xlink:href="#ai"/>
<use transform="translate(2116)" xlink:href="#p"/>
<use transform="translate(2168)" xlink:href="#t"/>
<use transform="translate(2229)" xlink:href="#s"/>
<use transform="translate(2327)" xlink:href="#d"/>
<use transform="translate(2388)" xlink:href="#DejaVuSans-20"/>
<use transform="translate(2420)" xlink:href="#v"/>
<use transform="translate(2475)" xlink:href="#q"/>
<use transform="translate(2536)" xlink:href="#s"/>
<use transform="translate(2634)" xlink:href="#s"/>
<use transform="translate(2731)" xlink:href="#o"/>
<use transform="translate(2759)" xlink:href="#j"/>
<use transform="translate(2798)" xlink:href="#ah"/>
</g>
<path d="m47.6 48.7h4q2 0 2-2v-4q0-2-2-2h-4q-2 0-2 2v4q0 2 2 2z" fill="#fff" opacity=".8" stroke="#ccc"/>
<path d="m40.6 706h668v-316h-668z" fill="#fff"/>
<path d="m101 706v-316" clip-path="url(#f)" fill="none" stroke="#b0b0b0" stroke-linecap="square" stroke-width=".8"/>
<use x="100.606227" y="705.793205" stroke="#000000" stroke-width=".8" xlink:href="#e"/>
<g transform="translate(79.7 720) scale(.1 -.1)">
<defs>
<path id="y" transform="scale(.0156)" d="m313 2009h1684v-512h-1684v512z"/>
</defs>
<use xlink:href="#i"/>
<use transform="translate(63.6)" xlink:href="#b"/>
<use transform="translate(127)" xlink:href="#i"/>
<use transform="translate(191)" xlink:href="#w"/>
<use transform="translate(254)" xlink:href="#y"/>
<use transform="translate(291)" xlink:href="#b"/>
<use transform="translate(354)" xlink:href="#z"/>
</g>
<path d="m207 706v-316" clip-path="url(#f)" fill="none" stroke="#b0b0b0" stroke-linecap="square" stroke-width=".8"/>
<use x="207.107426" y="705.793205" stroke="#000000" stroke-width=".8" xlink:href="#e"/>
<g transform="translate(186 720) scale(.1 -.1)">
<defs>
<path id="ap" transform="scale(.0156)" d="m703 97v575q238-113 481-172 244-59 479-59 625 0 954 420 330 420 377 1277-181-269-460-413-278-144-615-144-700 0-1108 423-408 424-408 1159 0 718 425 1152 425 435 1131 435 810 0 1236-621 427-620 427-1801 0-1103-524-1761-523-658-1407-658-238 0-482 47-243 47-506 141zm1256 1978q425 0 673 290 249 291 249 798 0 503-249 795-248 292-673 292t-673-292-248-795q0-507 248-798 248-290 673-290z"/>
</defs>
<use xlink:href="#i"/>
<use transform="translate(63.6)" xlink:href="#b"/>
<use transform="translate(127)" xlink:href="#i"/>
<use transform="translate(191)" xlink:href="#w"/>
<use transform="translate(254)" xlink:href="#y"/>
<use transform="translate(291)" xlink:href="#b"/>
<use transform="translate(354)" xlink:href="#ap"/>
</g>
<path d="m310 706v-316" clip-path="url(#f)" fill="none" stroke="#b0b0b0" stroke-linecap="square" stroke-width=".8"/>
<use x="310.173103" y="705.793205" stroke="#000000" stroke-width=".8" xlink:href="#e"/>
<g transform="translate(289 720) scale(.1 -.1)">
<use xlink:href="#i"/>
<use transform="translate(63.6)" xlink:href="#b"/>
<use transform="translate(127)" xlink:href="#i"/>
<use transform="translate(191)" xlink:href="#w"/>
<use transform="translate(254)" xlink:href="#y"/>
<use transform="translate(291)" xlink:href="#r"/>
<use transform="translate(354)" xlink:href="#b"/>
</g>
<path d="m417 706v-316" clip-path="url(#f)" fill="none" stroke="#b0b0b0" stroke-linecap="square" stroke-width=".8"/>
<use x="416.674303" y="705.793205" stroke="#000000" stroke-width=".8" xlink:href="#e"/>
<g transform="translate(396 720) scale(.1 -.1)">
<use xlink:href="#i"/>
<use transform="translate(63.6)" xlink:href="#b"/>
<use transform="translate(127)" xlink:href="#i"/>
<use transform="translate(191)" xlink:href="#w"/>
<use transform="translate(254)" xlink:href="#y"/>
<use transform="translate(291)" xlink:href="#r"/>
<use transform="translate(354)" xlink:href="#r"/>
</g>
<path d="m520 706v-316" clip-path="url(#f)" fill="none" stroke="#b0b0b0" stroke-linecap="square" stroke-width=".8"/>
<use x="519.739979" y="705.793205" stroke="#000000" stroke-width=".8" xlink:href="#e"/>
<g transform="translate(499 720) scale(.1 -.1)">
<use xlink:href="#i"/>
<use transform="translate(63.6)" xlink:href="#b"/>
<use transform="translate(127)" xlink:href="#i"/>
<use transform="translate(191)" xlink:href="#w"/>
<use transform="translate(254)" xlink:href="#y"/>
<use transform="translate(291)" xlink:href="#r"/>
<use transform="translate(354)" xlink:href="#i"/>
</g>
<path d="m626 706v-316" clip-path="url(#f)" fill="none" stroke="#b0b0b0" stroke-linecap="square" stroke-width=".8"/>
<use x="626.241179" y="705.793205" stroke="#000000" stroke-width=".8" xlink:href="#e"/>
<g transform="translate(605 720) scale(.1 -.1)">
<defs>
<path id="aw" transform="scale(.0156)" d="m691 4666h2478v-532h-1900v-1143q137 47 274 70 138 23 276 23 781 0 1237-428 457-428 457-1159 0-753-469-1171-469-417-1322-417-294 0-599 50-304 50-629 150v635q281-153 581-228t634-75q541 0 856 284 316 284 316 772 0 487-316 771-315 285-856 285-253 0-505-56-251-56-513-175v2344z"/>
</defs>
<use xlink:href="#i"/>
<use transform="translate(63.6)" xlink:href="#b"/>
<use transform="translate(127)" xlink:href="#i"/>
<use transform="translate(191)" xlink:href="#aw"/>
<use transform="translate(254)" xlink:href="#y"/>
<use transform="translate(291)" xlink:href="#b"/>
<use transform="translate(354)" xlink:href="#r"/>
</g>
<path d="m40.6 665h668" clip-path="url(#f)" fill="none" stroke="#b0b0b0" stroke-linecap="square" stroke-width=".8"/>
<use x="40.645553" y="665.373794" stroke="#000000" stroke-width=".8" xlink:href="#g"/>
<g transform="translate(3 669) scale(.1 -.1)">
<use xlink:href="#b"/>
<use transform="translate(63.6)" xlink:href="#c"/>
<use transform="translate(95.4)" xlink:href="#ac"/>
<use transform="translate(159)" xlink:href="#b"/>
<use transform="translate(223)" xlink:href="#h"/>
</g>
<path d="m40.6 600h668" clip-path="url(#f)" fill="none" stroke="#b0b0b0" stroke-linecap="square" stroke-width=".8"/>
<use x="40.645553" y="600.181194" stroke="#000000" stroke-width=".8" xlink:href="#g"/>
<g transform="translate(3 604) scale(.1 -.1)">
<defs>
<path id="av" transform="scale(.0156)" d="m525 4666h3e3v-269l-1694-4397h-659l1594 4134h-2241v532z"/>
</defs>
<use xlink:href="#b"/>
<use transform="translate(63.6)" xlink:href="#c"/>
<use transform="translate(95.4)" xlink:href="#av"/>
<use transform="translate(159)" xlink:href="#b"/>
<use transform="translate(223)" xlink:href="#h"/>
</g>
<path d="m40.6 535h668" clip-path="url(#f)" fill="none" stroke="#b0b0b0" stroke-linecap="square" stroke-width=".8"/>
<use x="40.645553" y="534.988595" stroke="#000000" stroke-width=".8" xlink:href="#g"/>
<g transform="translate(3 539) scale(.1 -.1)">
<use xlink:href="#b"/>
<use transform="translate(63.6)" xlink:href="#c"/>
<use transform="translate(95.4)" xlink:href="#z"/>
<use transform="translate(159)" xlink:href="#b"/>
<use transform="translate(223)" xlink:href="#h"/>
</g>
<path d="m40.6 470h668" clip-path="url(#f)" fill="none" stroke="#b0b0b0" stroke-linecap="square" stroke-width=".8"/>
<use x="40.645553" y="469.795996" stroke="#000000" stroke-width=".8" xlink:href="#g"/>
<g transform="translate(3 474) scale(.1 -.1)">
<use xlink:href="#b"/>
<use transform="translate(63.6)" xlink:href="#c"/>
<use transform="translate(95.4)" xlink:href="#ap"/>
<use transform="translate(159)" xlink:href="#b"/>
<use transform="translate(223)" xlink:href="#h"/>
</g>
<path d="m40.6 405h668" clip-path="url(#f)" fill="none" stroke="#b0b0b0" stroke-linecap="square" stroke-width=".8"/>
<use x="40.645553" y="404.603397" stroke="#000000" stroke-width=".8" xlink:href="#g"/>
<g transform="translate(3 408) scale(.1 -.1)">
<use xlink:href="#r"/>
<use transform="translate(63.6)" xlink:href="#c"/>
<use transform="translate(95.4)" xlink:href="#b"/>
<use transform="translate(159)" xlink:href="#b"/>
<use transform="translate(223)" xlink:href="#h"/>
</g>
<path d="m71 581 16.3 19.6 24.5-19.6h13.5l0.022-13 0.327 39.1 10.1-19.6 24 6.52h24.2 24.1l19.4-26.1 1.06 26.1 3.08 6.52 24 6.52 19.9-19.6 19.4-183h0.036l9.28 183 6.24-183 72.8 287 3.16-65.2 44.7-13 3.88-13 3.24 26.1 3.51 6.52 2.54 13 4.33-6.52h3.25 3.79 3.03l3.77 19.6 3.53-13 3.26 6.52 3.57-32.6 3.38 39.1 3.5-19.6 3.03-6.52 3.66-6.52 3.68-71.7 3.36-6.52h3.1l3.58 6.52 3.27 12 3.46 12 3.69-5.64 2.51-9.02 4.01-1.85 3.09 6.39 3.55-2.96 4.01 19.8 3.55-18.4 3.45-0.156 3.04-18.4 3.44 18 2.91-2.7 3.55 2.82 3.4-0.967 4.24-4.12 3.31-6.26 3.22 8.16 2.93 9.04 3.03-7.51 4.56-5.26 3.11 1.24 3.76-2.32 2.33 9.75 4.59-22.7 2.87-0.757 6.78-12.5 3.76 8.98 3.03 9.62 3.32-14.9 4.04 14.5 3.47-9.86 3.28-0.0327 3.58 2.47 3.26 0.585 3.51 0.266 3.55-8.06 2.99 15.7 3.83-38.6 3.7 27 3.2 4.34 3.67-3.93 3.16-5.53 3.71 1.86 2.88 12.3 4.19-21.7 2.64 26.8 3.96-1.29 2.55-3.74 4.34-51.5 0.362 3.72 2.78-12.6" clip-path="url(#f)" fill="none" stroke="#1f77b4" stroke-linecap="square" stroke-opacity=".9" stroke-width="1.5"/>
<defs>
<path id="a" d="m-2.5 2.5h5v-5h-5z" stroke="#1f77b4" stroke-opacity=".9"/>
</defs>
<g clip-path="url(#f)" fill="#1f77b4" fill-opacity=".9" stroke="#1f77b4" stroke-opacity=".9">
<use x="71.027491" y="580.623415" xlink:href="#a"/>
<use x="87.373819" y="600.181194" xlink:href="#a"/>
<use x="111.904762" y="580.623415" xlink:href="#a"/>
<use x="125.420601" y="580.623415" xlink:href="#a"/>
<use x="125.44259" y="567.584895" xlink:href="#a"/>
<use x="125.76964" y="606.700454" xlink:href="#a"/>
<use x="135.87111" y="587.142675" xlink:href="#a"/>
<use x="159.864458" y="593.661934" xlink:href="#a"/>
<use x="184.047714" y="593.661934" xlink:href="#a"/>
<use x="208.150211" y="593.661934" xlink:href="#a"/>
<use x="227.558607" y="567.584895" xlink:href="#a"/>
<use x="228.616064" y="593.661934" xlink:href="#a"/>
<use x="231.697497" y="600.181194" xlink:href="#a"/>
<use x="255.705557" y="606.700454" xlink:href="#a"/>
<use x="275.621806" y="587.142675" xlink:href="#a"/>
<use x="295.026465" y="404.603397" xlink:href="#a"/>
<use x="295.06249" y="404.603397" xlink:href="#a"/>
<use x="304.341582" y="587.142675" xlink:href="#a"/>
<use x="310.580515" y="404.603397" xlink:href="#a"/>
<use x="383.410611" y="691.450833" xlink:href="#a"/>
<use x="386.571411" y="626.258234" xlink:href="#a"/>
<use x="431.247002" y="613.219714" xlink:href="#a"/>
<use x="435.125683" y="600.181194" xlink:href="#a"/>
<use x="438.370025" y="626.258234" xlink:href="#a"/>
<use x="441.875729" y="632.777494" xlink:href="#a"/>
<use x="444.415789" y="645.816014" xlink:href="#a"/>
<use x="448.742838" y="639.296754" xlink:href="#a"/>
<use x="451.99561" y="639.296754" xlink:href="#a"/>
<use x="455.781206" y="639.296754" xlink:href="#a"/>
<use x="458.815917" y="639.296754" xlink:href="#a"/>
<use x="462.588948" y="658.854534" xlink:href="#a"/>
<use x="466.114415" y="645.816014" xlink:href="#a"/>
<use x="469.373986" y="652.335274" xlink:href="#a"/>
<use x="472.948679" y="619.738974" xlink:href="#a"/>
<use x="476.327579" y="658.854534" xlink:href="#a"/>
<use x="479.82875" y="639.296754" xlink:href="#a"/>
<use x="482.854635" y="632.777494" xlink:href="#a"/>
<use x="486.517522" y="626.258234" xlink:href="#a"/>
<use x="490.194923" y="554.546375" xlink:href="#a"/>
<use x="493.550919" y="548.027115" xlink:href="#a"/>
<use x="496.648059" y="548.027115" xlink:href="#a"/>
<use x="500.231062" y="554.546375" xlink:href="#a"/>
<use x="503.502404" y="566.546551" xlink:href="#a"/>
<use x="506.966754" y="578.571793" xlink:href="#a"/>
<use x="510.657078" y="572.93371" xlink:href="#a"/>
<use x="513.162743" y="563.91429" xlink:href="#a"/>
<use x="517.172046" y="562.066868" xlink:href="#a"/>
<use x="520.264016" y="568.454989" xlink:href="#a"/>
<use x="523.81835" y="565.498183" xlink:href="#a"/>
<use x="527.828726" y="585.316532" xlink:href="#a"/>
<use x="531.382623" y="566.905947" xlink:href="#a"/>
<use x="534.830274" y="566.750199" xlink:href="#a"/>
<use x="537.871228" y="548.342615" xlink:href="#a"/>
<use x="541.30683" y="566.328394" xlink:href="#a"/>
<use x="544.214976" y="563.629123" xlink:href="#a"/>
<use x="547.764698" y="566.446132" xlink:href="#a"/>
<use x="551.163957" y="565.479296" xlink:href="#a"/>
<use x="555.407185" y="561.3639" xlink:href="#a"/>
<use x="558.719721" y="555.10376" xlink:href="#a"/>
<use x="561.942114" y="563.263201" xlink:href="#a"/>
<use x="564.872408" y="572.303988" xlink:href="#a"/>
<use x="567.898888" y="564.792971" xlink:href="#a"/>
<use x="572.45859" y="559.537257" xlink:href="#a"/>
<use x="575.566267" y="560.77722" xlink:href="#a"/>
<use x="579.329953" y="558.452601" xlink:href="#a"/>
<use x="581.661735" y="568.205072" xlink:href="#a"/>
<use x="586.252412" y="545.472682" xlink:href="#a"/>
<use x="589.120755" y="544.715257" xlink:href="#a"/>
<use x="595.898238" y="532.179362" xlink:href="#a"/>
<use x="599.658306" y="541.163775" xlink:href="#a"/>
<use x="602.692222" y="550.787438" xlink:href="#a"/>
<use x="606.014699" y="535.922611" xlink:href="#a"/>
<use x="610.050364" y="550.385359" xlink:href="#a"/>
<use x="613.522628" y="540.529371" xlink:href="#a"/>
<use x="616.806773" y="540.496648" xlink:href="#a"/>
<use x="620.389339" y="542.966062" xlink:href="#a"/>
<use x="623.64561" y="543.551524" xlink:href="#a"/>
<use x="627.153859" y="543.81706" xlink:href="#a"/>
<use x="630.706126" y="535.75594" xlink:href="#a"/>
<use x="633.69173" y="551.45316" xlink:href="#a"/>
<use x="637.523013" y="512.85617" xlink:href="#a"/>
<use x="641.220932" y="539.819049" xlink:href="#a"/>
<use x="644.41728" y="544.157044" xlink:href="#a"/>
<use x="648.091937" y="540.223808" xlink:href="#a"/>
<use x="651.250352" y="534.689061" xlink:href="#a"/>
<use x="654.961273" y="536.545647" xlink:href="#a"/>
<use x="657.842221" y="548.860571" xlink:href="#a"/>
<use x="662.035507" y="527.145639" xlink:href="#a"/>
<use x="664.670799" y="553.960557" xlink:href="#a"/>
<use x="668.635647" y="552.669982" xlink:href="#a"/>
<use x="671.184932" y="548.934681" xlink:href="#a"/>
<use x="675.524665" y="497.398676" xlink:href="#a"/>
<use x="675.886945" y="501.120279" xlink:href="#a"/>
<use x="678.666259" y="488.54273" xlink:href="#a"/>
</g>
<g stroke="#1f77b4" stroke-opacity=".9">
<path d="m229 613 47 27.8 28.7-14.8 22 6.52 25.9 39.1 20.8 13h3.39 3.34l3.65-6.52h3.16l3.83 6.52 3.49-13 2.63 13 3.93-6.52h3.47 3.43 3.77l3.43-6.52h3.08l3.64 6.52 2.58-6.52 4.04 6.52 3.35-13 3.88 6.52 3.24-6.52 1.75 6.52 1.75-6.52 2.54 6.52h1.55 2.78l3.25-6.52 3.79 6.52h3.03l3.77-6.52 3.53-6.52 3.26 13 3.57 6.52 0.259-6.52 3.12-13 3.5 6.52h3.03l3.66-6.52 2.93-52.9 0.749-12.3 2.79-26.1 0.562-6.52 3.1-6.52 3.58 6.52 3.27 24.3 3.46-0.431 2.5 2.01 1.19 2.96 2.51-3.95 3.33-3.16 0.675 1.79 3.09-4.15 3.55 4.59 4.01 11.6 3.55-17.3 2.6 4.95 0.845-1.22 3.04-2.47 0.986-5.81 2.45 1.95 2.91 1.56 1.71 3.74 1.84 0.339 3.4-4.68 4.24 7.39 1.9-0.36 0.595-0.187 0.813 0.18 1.73-0.564 1.5 2.3 2.65-4.17 0.276-2.48 3.03-2.29 4.56 3.92 3.11-1.64 3.76 0.323 0.995-2.99 1.34 1.1 4.59-13 2.87 3.75 6.78-0.274 3.76-14.5 3.03 3.05 3.32 2.41 4.04-6.58 3.47 2.87 3.28 4.28 3.58-0.427 3.26-3.58 3.51 7.54 3.55-4.95 2.99-1.32 3.83-2.03 3.7-0.801 3.2 8.14 3.67-1.73 3.16-5.3 6.59 0.911 2.88-1.9 1.31 2.2 2.64-3.83 3.96 3.63 2.55-1.26 4.34-49.3 0.362-1.9 2.78-16.9" clip-path="url(#f)" fill="none" stroke-dasharray="1.5,2.475" stroke-width="1.5"/>
<g clip-path="url(#f)" fill="#1f77b4" fill-opacity=".9">
<use x="228.616064" y="613.219714" xlink:href="#a"/>
<use x="275.621806" y="641.061418" xlink:href="#a"/>
<use x="304.341582" y="626.258234" xlink:href="#a"/>
<use x="326.340895" y="632.777494" xlink:href="#a"/>
<use x="352.252171" y="671.893053" xlink:href="#a"/>
<use x="373.026943" y="684.931573" xlink:href="#a"/>
<use x="376.418925" y="684.931573" xlink:href="#a"/>
<use x="379.761561" y="684.931573" xlink:href="#a"/>
<use x="383.410611" y="678.412313" xlink:href="#a"/>
<use x="386.571411" y="678.412313" xlink:href="#a"/>
<use x="390.401899" y="684.931573" xlink:href="#a"/>
<use x="393.89313" y="671.893053" xlink:href="#a"/>
<use x="396.526752" y="684.931573" xlink:href="#a"/>
<use x="400.452234" y="678.412313" xlink:href="#a"/>
<use x="403.924219" y="678.412313" xlink:href="#a"/>
<use x="407.353778" y="678.412313" xlink:href="#a"/>
<use x="411.123031" y="678.412313" xlink:href="#a"/>
<use x="414.557202" y="671.893053" xlink:href="#a"/>
<use x="417.639509" y="671.893053" xlink:href="#a"/>
<use x="421.281163" y="678.412313" xlink:href="#a"/>
<use x="423.858362" y="671.893053" xlink:href="#a"/>
<use x="427.894186" y="678.412313" xlink:href="#a"/>
<use x="431.247002" y="665.373794" xlink:href="#a"/>
<use x="435.125683" y="671.893053" xlink:href="#a"/>
<use x="438.370025" y="665.373794" xlink:href="#a"/>
<use x="440.122818" y="671.893053" xlink:href="#a"/>
<use x="441.875729" y="665.373794" xlink:href="#a"/>
<use x="444.415789" y="671.893053" xlink:href="#a"/>
<use x="445.961059" y="671.893053" xlink:href="#a"/>
<use x="448.742838" y="671.893053" xlink:href="#a"/>
<use x="451.99561" y="665.373794" xlink:href="#a"/>
<use x="455.781206" y="671.893053" xlink:href="#a"/>
<use x="458.815917" y="671.893053" xlink:href="#a"/>
<use x="462.588948" y="665.373794" xlink:href="#a"/>
<use x="466.114415" y="658.854534" xlink:href="#a"/>
<use x="469.373986" y="671.893053" xlink:href="#a"/>
<use x="472.948679" y="678.412313" xlink:href="#a"/>
<use x="473.207775" y="671.893053" xlink:href="#a"/>
<use x="476.327579" y="658.854534" xlink:href="#a"/>
<use x="479.82875" y="665.373794" xlink:href="#a"/>
<use x="482.854635" y="665.373794" xlink:href="#a"/>
<use x="486.517522" y="658.854534" xlink:href="#a"/>
<use x="489.446186" y="605.98804" xlink:href="#a"/>
<use x="490.194923" y="593.661934" xlink:href="#a"/>
<use x="492.988432" y="567.584895" xlink:href="#a"/>
<use x="493.550919" y="561.065635" xlink:href="#a"/>
<use x="496.648059" y="554.546375" xlink:href="#a"/>
<use x="500.231062" y="561.065635" xlink:href="#a"/>
<use x="503.502404" y="585.3487" xlink:href="#a"/>
<use x="506.966754" y="584.918113" xlink:href="#a"/>
<use x="509.468761" y="586.926335" xlink:href="#a"/>
<use x="510.657078" y="589.885345" xlink:href="#a"/>
<use x="513.162743" y="585.935162" xlink:href="#a"/>
<use x="516.49691" y="582.772851" xlink:href="#a"/>
<use x="517.172046" y="584.558746" xlink:href="#a"/>
<use x="520.264016" y="580.406617" xlink:href="#a"/>
<use x="523.81835" y="584.993338" xlink:href="#a"/>
<use x="527.828726" y="596.608508" xlink:href="#a"/>
<use x="531.382623" y="579.280087" xlink:href="#a"/>
<use x="533.985111" y="584.232411" xlink:href="#a"/>
<use x="534.830274" y="583.009033" xlink:href="#a"/>
<use x="537.871228" y="580.537096" xlink:href="#a"/>
<use x="538.85735" y="574.728327" xlink:href="#a"/>
<use x="541.30683" y="576.679388" xlink:href="#a"/>
<use x="544.214976" y="578.241788" xlink:href="#a"/>
<use x="545.929556" y="581.981857" xlink:href="#a"/>
<use x="547.764698" y="582.320724" xlink:href="#a"/>
<use x="551.163957" y="577.637747" xlink:href="#a"/>
<use x="555.407185" y="585.028138" xlink:href="#a"/>
<use x="557.311991" y="584.667982" xlink:href="#a"/>
<use x="557.906806" y="584.481446" xlink:href="#a"/>
<use x="558.719721" y="584.66113" xlink:href="#a"/>
<use x="560.446945" y="584.097319" xlink:href="#a"/>
<use x="561.942114" y="586.397706" xlink:href="#a"/>
<use x="564.59685" y="582.223926" xlink:href="#a"/>
<use x="564.872408" y="579.744693" xlink:href="#a"/>
<use x="567.898888" y="577.459448" xlink:href="#a"/>
<use x="572.45859" y="581.375468" xlink:href="#a"/>
<use x="575.566267" y="579.739551" xlink:href="#a"/>
<use x="579.329953" y="580.062235" xlink:href="#a"/>
<use x="580.325102" y="577.076297" xlink:href="#a"/>
<use x="581.661735" y="578.175575" xlink:href="#a"/>
<use x="586.252412" y="565.220893" xlink:href="#a"/>
<use x="589.120755" y="568.973197" xlink:href="#a"/>
<use x="595.898238" y="568.699161" xlink:href="#a"/>
<use x="599.658306" y="554.182155" xlink:href="#a"/>
<use x="602.692222" y="557.228415" xlink:href="#a"/>
<use x="606.014699" y="559.6374" xlink:href="#a"/>
<use x="610.050364" y="553.057301" xlink:href="#a"/>
<use x="613.522628" y="555.927426" xlink:href="#a"/>
<use x="616.806773" y="560.21212" xlink:href="#a"/>
<use x="620.389339" y="559.785278" xlink:href="#a"/>
<use x="623.64561" y="556.201561" xlink:href="#a"/>
<use x="627.153859" y="563.744572" xlink:href="#a"/>
<use x="630.706126" y="558.792233" xlink:href="#a"/>
<use x="633.69173" y="557.476826" xlink:href="#a"/>
<use x="637.523013" y="555.442715" xlink:href="#a"/>
<use x="641.220932" y="554.641857" xlink:href="#a"/>
<use x="644.41728" y="562.782575" xlink:href="#a"/>
<use x="648.091937" y="561.054717" xlink:href="#a"/>
<use x="651.250352" y="555.751948" xlink:href="#a"/>
<use x="657.842221" y="556.662786" xlink:href="#a"/>
<use x="660.727026" y="554.765235" xlink:href="#a"/>
<use x="662.035507" y="556.965589" xlink:href="#a"/>
<use x="664.670799" y="553.137402" xlink:href="#a"/>
<use x="668.635647" y="556.763803" xlink:href="#a"/>
<use x="671.184932" y="555.503421" xlink:href="#a"/>
<use x="675.524665" y="506.223861" xlink:href="#a"/>
<use x="675.886945" y="504.32152" xlink:href="#a"/>
<use x="678.666259" y="487.460551" xlink:href="#a"/>
</g>
</g>
<path d="m40.6 706v-316" fill="none" stroke="#000" stroke-linecap="square" stroke-width=".8"/>
<path d="m709 706v-316" fill="none" stroke="#000" stroke-linecap="square" stroke-width=".8"/>
<path d="m40.6 706h668" fill="none" stroke="#000" stroke-linecap="square" stroke-width=".8"/>
<path d="m40.6 390h668" fill="none" stroke="#000" stroke-linecap="square" stroke-width=".8"/>
<g clip-path="url(#f)">
<g transform="translate(58.2 397) rotate(-90) scale(.1 -.1)">
<use xlink:href="#l"/>
<use transform="translate(35.2)" xlink:href="#t"/>
<use transform="translate(96.5)" xlink:href="#p"/>
<use transform="translate(149)" xlink:href="#j"/>
<use transform="translate(188)" xlink:href="#d"/>
<use transform="translate(249)" xlink:href="#k"/>
<use transform="translate(290)" xlink:href="#DejaVuSans-20"/>
<use transform="translate(322)" xlink:href="#aj"/>
</g>
</g>
<g clip-path="url(#f)">
<g transform="translate(58.2 465) rotate(-90) scale(.1 -.1)">
<use xlink:href="#ak"/>
<use transform="translate(143)" xlink:href="#DejaVuSans-20"/>
<use transform="translate(175)" xlink:href="#p"/>
<use transform="translate(227)" xlink:href="#u"/>
<use transform="translate(255)" xlink:href="#q"/>
<use transform="translate(316)" xlink:href="#ad"/>
<use transform="translate(398)" xlink:href="#d"/>
<use transform="translate(460)" xlink:href="#k"/>
</g>
</g>
<g transform="translate(228 384) scale(.12 -.12)">
<use xlink:href="#ag"/>
<use transform="translate(63.2)" xlink:href="#l"/>
<use transform="translate(98.4)" xlink:href="#l"/>
<use transform="translate(134)" xlink:href="#d"/>
<use transform="translate(195)" xlink:href="#v"/>
<use transform="translate(250)" xlink:href="#j"/>
<use transform="translate(289)" xlink:href="#DejaVuSans-20"/>
<use transform="translate(321)" xlink:href="#q"/>
<use transform="translate(382)" xlink:href="#l"/>
<use transform="translate(417)" xlink:href="#DejaVuSans-20"/>
<use transform="translate(449)" xlink:href="#l"/>
<use transform="translate(484)" xlink:href="#k"/>
<use transform="translate(523)" xlink:href="#d"/>
<use transform="translate(585)" xlink:href="#d"/>
<use transform="translate(646)" xlink:href="#DejaVuSans-20"/>
<use transform="translate(678)" xlink:href="#j"/>
<use transform="translate(717)" xlink:href="#am"/>
<use transform="translate(781)" xlink:href="#k"/>
<use transform="translate(820)" xlink:href="#d"/>
<use transform="translate(881)" xlink:href="#t"/>
<use transform="translate(942)" xlink:href="#an"/>
<use transform="translate(1006)" xlink:href="#o"/>
<use transform="translate(1034)" xlink:href="#x"/>
<use transform="translate(1097)" xlink:href="#af"/>
<use transform="translate(1161)" xlink:href="#DejaVuSans-20"/>
<use transform="translate(1192)" xlink:href="#aa"/>
<use transform="translate(1252)" xlink:href="#p"/>
<use transform="translate(1304)" xlink:href="#c"/>
<use transform="translate(1335)" xlink:href="#DejaVuSans-20"/>
<use transform="translate(1367)" xlink:href="#ae"/>
<use transform="translate(1425)" xlink:href="#o"/>
<use transform="translate(1453)" xlink:href="#d"/>
<use transform="translate(1514)" xlink:href="#k"/>
<use transform="translate(1556)" xlink:href="#DejaVuSans-20"/>
<use transform="translate(1587)" xlink:href="#r"/>
<use transform="translate(1651)" xlink:href="#DejaVuSans-20"/>
<use transform="translate(1683)" xlink:href="#ai"/>
<use transform="translate(1722)" xlink:href="#p"/>
<use transform="translate(1774)" xlink:href="#t"/>
<use transform="translate(1835)" xlink:href="#s"/>
<use transform="translate(1933)" xlink:href="#d"/>
<use transform="translate(1994)" xlink:href="#DejaVuSans-20"/>
<use transform="translate(2026)" xlink:href="#v"/>
<use transform="translate(2081)" xlink:href="#q"/>
<use transform="translate(2142)" xlink:href="#s"/>
<use transform="translate(2239)" xlink:href="#s"/>
<use transform="translate(2337)" xlink:href="#o"/>
<use transform="translate(2365)" xlink:href="#j"/>
<use transform="translate(2404)" xlink:href="#ah"/>
</g>
<path d="m47.6 428h82.6q2 0 2-2v-28.4q0-2-2-2h-82.6q-2 0-2 2v28.4q0 2 2 2z" fill="#fff" opacity=".8" stroke="#ccc"/>
<path d="m49.6 403h10 10" fill="none" stroke="#1f77b4" stroke-linecap="square" stroke-opacity=".9" stroke-width="1.5"/>
<use x="59.645553" y="403.359463" fill="#1f77b4" fill-opacity=".9" stroke="#1f77b4" stroke-opacity=".9" xlink:href="#a"/>
<g transform="translate(77.6 407) scale(.1 -.1)">
<defs>
<path id="al" transform="scale(.0156)" d="m3513 3500-1266-1703 1331-1797h-678l-1019 1375-1018-1375h-679l1360 1831-1244 1669h678l928-1247 928 1247h679z"/>
</defs>
<use xlink:href="#u"/>
<use transform="translate(27.8)" xlink:href="#o"/>
<use transform="translate(55.6)" xlink:href="#x"/>
<use transform="translate(119)" xlink:href="#ab"/>
<use transform="translate(182)" xlink:href="#al"/>
</g>
<path d="m49.6 418h10 10" fill="none" stroke="#1f77b4" stroke-dasharray="1.5,2.475" stroke-opacity=".9" stroke-width="1.5"/>
<use x="59.645553" y="418.037588" fill="#1f77b4" fill-opacity=".9" stroke="#1f77b4" stroke-opacity=".9" xlink:href="#a"/>
<g transform="translate(77.6 422) scale(.1 -.1)">
<use xlink:href="#u"/>
<use transform="translate(27.8)" xlink:href="#o"/>
<use transform="translate(55.6)" xlink:href="#x"/>
<use transform="translate(119)" xlink:href="#ab"/>
<use transform="translate(182)" xlink:href="#al"/>
<use transform="translate(242)" xlink:href="#y"/>
<use transform="translate(275)" xlink:href="#aa"/>
<use transform="translate(334)" xlink:href="#ab"/>
<use transform="translate(398)" xlink:href="#u"/>
<use transform="translate(425)" xlink:href="#j"/>
<use transform="translate(465)" xlink:href="#k"/>
</g>
<path d="m40.6 1060h668v-316h-668z" fill="#fff"/>
<path d="m40.6 1060v-316" clip-path="url(#m)" fill="none" stroke="#b0b0b0" stroke-linecap="square" stroke-width=".8"/>
<use x="40.645553" y="1060.321635" stroke="#000000" stroke-width=".8" xlink:href="#e"/>
<g transform="translate(32.7 1075) scale(.1 -.1)">
<use xlink:href="#b"/>
<use transform="translate(63.6)" xlink:href="#c"/>
<use transform="translate(95.4)" xlink:href="#b"/>
</g>
<path d="m174 1060v-316" clip-path="url(#m)" fill="none" stroke="#b0b0b0" stroke-linecap="square" stroke-width=".8"/>
<use x="174.326081" y="1060.321635" stroke="#000000" stroke-width=".8" xlink:href="#e"/>
<g transform="translate(166 1075) scale(.1 -.1)">
<use xlink:href="#b"/>
<use transform="translate(63.6)" xlink:href="#c"/>
<use transform="translate(95.4)" xlink:href="#i"/>
</g>
<path d="m308 1060v-316" clip-path="url(#m)" fill="none" stroke="#b0b0b0" stroke-linecap="square" stroke-width=".8"/>
<use x="308.00661" y="1060.321635" stroke="#000000" stroke-width=".8" xlink:href="#e"/>
<g transform="translate(300 1075) scale(.1 -.1)">
<use xlink:href="#b"/>
<use transform="translate(63.6)" xlink:href="#c"/>
<use transform="translate(95.4)" xlink:href="#w"/>
</g>
<path d="m442 1060v-316" clip-path="url(#m)" fill="none" stroke="#b0b0b0" stroke-linecap="square" stroke-width=".8"/>
<use x="441.68714" y="1060.321635" stroke="#000000" stroke-width=".8" xlink:href="#e"/>
<g transform="translate(434 1075) scale(.1 -.1)">
<use xlink:href="#b"/>
<use transform="translate(63.6)" xlink:href="#c"/>
<use transform="translate(95.4)" xlink:href="#ac"/>
</g>
<path d="m575 1060v-316" clip-path="url(#m)" fill="none" stroke="#b0b0b0" stroke-linecap="square" stroke-width=".8"/>
<use x="575.367668" y="1060.321635" stroke="#000000" stroke-width=".8" xlink:href="#e"/>
<g transform="translate(567 1075) scale(.1 -.1)">
<use xlink:href="#b"/>
<use transform="translate(63.6)" xlink:href="#c"/>
<use transform="translate(95.4)" xlink:href="#z"/>
</g>
<path d="m709 1060v-316" clip-path="url(#m)" fill="none" stroke="#b0b0b0" stroke-linecap="square" stroke-width=".8"/>
<use x="709.048197" y="1060.321635" stroke="#000000" stroke-width=".8" xlink:href="#e"/>
<g transform="translate(701 1075) scale(.1 -.1)">
<use xlink:href="#r"/>
<use transform="translate(63.6)" xlink:href="#c"/>
<use transform="translate(95.4)" xlink:href="#b"/>
</g>
<path d="m40.6 1060h668" clip-path="url(#m)" fill="none" stroke="#b0b0b0" stroke-linecap="square" stroke-width=".8"/>
<use x="40.645553" y="1060.321635" stroke="#000000" stroke-width=".8" xlink:href="#g"/>
<g transform="translate(3 1064) scale(.1 -.1)">
<use xlink:href="#b"/>
<use transform="translate(63.6)" xlink:href="#c"/>
<use transform="translate(95.4)" xlink:href="#b"/>
<use transform="translate(159)" xlink:href="#b"/>
<use transform="translate(223)" xlink:href="#h"/>
</g>
<path d="m40.6 997h668" clip-path="url(#m)" fill="none" stroke="#b0b0b0" stroke-linecap="square" stroke-width=".8"/>
<use x="40.645553" y="997.215199" stroke="#000000" stroke-width=".8" xlink:href="#g"/>
<g transform="translate(3 1e3) scale(.1 -.1)">
<use xlink:href="#b"/>
<use transform="translate(63.6)" xlink:href="#c"/>
<use transform="translate(95.4)" xlink:href="#i"/>
<use transform="translate(159)" xlink:href="#b"/>
<use transform="translate(223)" xlink:href="#h"/>
</g>
<path d="m40.6 934h668" clip-path="url(#m)" fill="none" stroke="#b0b0b0" stroke-linecap="square" stroke-width=".8"/>
<use x="40.645553" y="934.108763" stroke="#000000" stroke-width=".8" xlink:href="#g"/>
<g transform="translate(3 938) scale(.1 -.1)">
<use xlink:href="#b"/>
<use transform="translate(63.6)" xlink:href="#c"/>
<use transform="translate(95.4)" xlink:href="#w"/>
<use transform="translate(159)" xlink:href="#b"/>
<use transform="translate(223)" xlink:href="#h"/>
</g>
<path d="m40.6 871h668" clip-path="url(#m)" fill="none" stroke="#b0b0b0" stroke-linecap="square" stroke-width=".8"/>
<use x="40.645553" y="871.002327" stroke="#000000" stroke-width=".8" xlink:href="#g"/>
<g transform="translate(3 875) scale(.1 -.1)">
<use xlink:href="#b"/>
<use transform="translate(63.6)" xlink:href="#c"/>
<use transform="translate(95.4)" xlink:href="#ac"/>
<use transform="translate(159)" xlink:href="#b"/>
<use transform="translate(223)" xlink:href="#h"/>
</g>
<path d="m40.6 808h668" clip-path="url(#m)" fill="none" stroke="#b0b0b0" stroke-linecap="square" stroke-width=".8"/>
<use x="40.645553" y="807.895891" stroke="#000000" stroke-width=".8" xlink:href="#g"/>
<g transform="translate(3 812) scale(.1 -.1)">
<use xlink:href="#b"/>
<use transform="translate(63.6)" xlink:href="#c"/>
<use transform="translate(95.4)" xlink:href="#z"/>
<use transform="translate(159)" xlink:href="#b"/>
<use transform="translate(223)" xlink:href="#h"/>
</g>
<path d="m40.6 745h668" clip-path="url(#m)" fill="none" stroke="#b0b0b0" stroke-linecap="square" stroke-width=".8"/>
<use x="40.645553" y="744.789455" stroke="#000000" stroke-width=".8" xlink:href="#g"/>
<g transform="translate(3 749) scale(.1 -.1)">
<use xlink:href="#r"/>
<use transform="translate(63.6)" xlink:href="#c"/>
<use transform="translate(95.4)" xlink:href="#b"/>
<use transform="translate(159)" xlink:href="#b"/>
<use transform="translate(223)" xlink:href="#h"/>
</g>
<path d="m40.6 1060v-316" fill="none" stroke="#000" stroke-linecap="square" stroke-width=".8"/>
<path d="m709 1060v-316" fill="none" stroke="#000" stroke-linecap="square" stroke-width=".8"/>
<path d="m40.6 1060h668" fill="none" stroke="#000" stroke-linecap="square" stroke-width=".8"/>
<path d="m40.6 745h668" fill="none" stroke="#000" stroke-linecap="square" stroke-width=".8"/>
<g clip-path="url(#m)">
<g transform="translate(58.2 737) rotate(-90) scale(.1 -.1)">
<use xlink:href="#l"/>
<use transform="translate(35.2)" xlink:href="#t"/>
<use transform="translate(96.5)" xlink:href="#p"/>
<use transform="translate(149)" xlink:href="#j"/>
<use transform="translate(188)" xlink:href="#d"/>
<use transform="translate(249)" xlink:href="#k"/>
<use transform="translate(290)" xlink:href="#DejaVuSans-20"/>
<use transform="translate(322)" xlink:href="#aj"/>
</g>
</g>
<g clip-path="url(#m)">
<g transform="translate(58.2 805) rotate(-90) scale(.1 -.1)">
<use xlink:href="#ak"/>
<use transform="translate(143)" xlink:href="#DejaVuSans-20"/>
<use transform="translate(175)" xlink:href="#p"/>
<use transform="translate(227)" xlink:href="#u"/>
<use transform="translate(255)" xlink:href="#q"/>
<use transform="translate(316)" xlink:href="#ad"/>
<use transform="translate(398)" xlink:href="#d"/>
<use transform="translate(460)" xlink:href="#k"/>
</g>
</g>
<g transform="translate(264 739) scale(.12 -.12)">
<defs>
<path id="at" transform="scale(.0156)" d="m628 4666h631v-4341q0-844-320-1225t-1030-381h-240v531h197q418 0 590 235 172 234 172 840v4341z"/>
<path id="au" transform="scale(.0156)" d="m628 4666h631v-4666h-631v4666z"/>
</defs>
<use xlink:href="#ag"/>
<use transform="translate(63.2)" xlink:href="#l"/>
<use transform="translate(98.4)" xlink:href="#l"/>
<use transform="translate(134)" xlink:href="#d"/>
<use transform="translate(195)" xlink:href="#v"/>
<use transform="translate(250)" xlink:href="#j"/>
<use transform="translate(289)" xlink:href="#DejaVuSans-20"/>
<use transform="translate(321)" xlink:href="#q"/>
<use transform="translate(382)" xlink:href="#l"/>
<use transform="translate(417)" xlink:href="#DejaVuSans-20"/>
<use transform="translate(449)" xlink:href="#at"/>
<use transform="translate(479)" xlink:href="#au"/>
<use transform="translate(508)" xlink:href="#ae"/>
<use transform="translate(569)" xlink:href="#DejaVuSans-20"/>
<use transform="translate(601)" xlink:href="#aa"/>
<use transform="translate(660)" xlink:href="#p"/>
<use transform="translate(712)" xlink:href="#c"/>
<use transform="translate(744)" xlink:href="#DejaVuSans-20"/>
<use transform="translate(776)" xlink:href="#ae"/>
<use transform="translate(834)" xlink:href="#o"/>
<use transform="translate(862)" xlink:href="#d"/>
<use transform="translate(923)" xlink:href="#k"/>
<use transform="translate(964)" xlink:href="#DejaVuSans-20"/>
<use transform="translate(996)" xlink:href="#r"/>
<use transform="translate(1060)" xlink:href="#DejaVuSans-20"/>
<use transform="translate(1092)" xlink:href="#ai"/>
<use transform="translate(1131)" xlink:href="#p"/>
<use transform="translate(1183)" xlink:href="#t"/>
<use transform="translate(1244)" xlink:href="#s"/>
<use transform="translate(1341)" xlink:href="#d"/>
<use transform="translate(1403)" xlink:href="#DejaVuSans-20"/>
<use transform="translate(1435)" xlink:href="#v"/>
<use transform="translate(1490)" xlink:href="#q"/>
<use transform="translate(1551)" xlink:href="#s"/>
<use transform="translate(1648)" xlink:href="#s"/>
<use transform="translate(1746)" xlink:href="#o"/>
<use transform="translate(1773)" xlink:href="#j"/>
<use transform="translate(1813)" xlink:href="#ah"/>
</g>
<path d="m47.6 758h4q2 0 2-2v-4q0-2-2-2h-4q-2 0-2 2v4q0 2 2 2z" fill="#fff" opacity=".8" stroke="#ccc"/>
<g transform="translate(229 12.1) scale(.12 -.12)">
<defs>
<path id="as" transform="scale(.0156)" d="m1259 4147v-1753h794q441 0 681 228 241 228 241 650 0 419-241 647-240 228-681 228h-794zm-631 519h1425q785 0 1186-355 402-355 402-1039 0-691-402-1044-401-353-1186-353h-794v-1875h-631v4666z"/>
<path id="ar" transform="scale(.0156)" d="m1159 525v-1856h-578v4831h578v-531q182 312 458 463 277 152 661 152 638 0 1036-506 399-506 399-1331t-399-1332q-398-506-1036-506-384 0-661 152-276 152-458 464zm1957 1222q0 634-261 995t-717 361q-457 0-718-361t-261-995 261-995 718-361q456 0 717 361t261 995z"/>
<path id="aq" transform="scale(.0156)" d="m2059-325q-243-625-475-815-231-191-618-191h-460v481h338q237 0 368 113 132 112 291 531l103 262-1415 3444h609l1094-2737 1094 2737h609l-1538-3825z"/>
</defs>
<use xlink:href="#as"/>
<use transform="translate(56.7)" xlink:href="#d"/>
<use transform="translate(118)" xlink:href="#k"/>
<use transform="translate(159)" xlink:href="#l"/>
<use transform="translate(195)" xlink:href="#q"/>
<use transform="translate(256)" xlink:href="#k"/>
<use transform="translate(295)" xlink:href="#s"/>
<use transform="translate(392)" xlink:href="#t"/>
<use transform="translate(454)" xlink:href="#x"/>
<use transform="translate(517)" xlink:href="#v"/>
<use transform="translate(572)" xlink:href="#d"/>
<use transform="translate(634)" xlink:href="#DejaVuSans-20"/>
<use transform="translate(665)" xlink:href="#o"/>
<use transform="translate(693)" xlink:href="#s"/>
<use transform="translate(791)" xlink:href="#ar"/>
<use transform="translate(854)" xlink:href="#k"/>
<use transform="translate(893)" xlink:href="#q"/>
<use transform="translate(954)" xlink:href="#aa"/>
<use transform="translate(1013)" xlink:href="#d"/>
<use transform="translate(1075)" xlink:href="#s"/>
<use transform="translate(1172)" xlink:href="#d"/>
<use transform="translate(1234)" xlink:href="#x"/>
<use transform="translate(1297)" xlink:href="#j"/>
<use transform="translate(1336)" xlink:href="#DejaVuSans-20"/>
<use transform="translate(1368)" xlink:href="#ao"/>
<use transform="translate(1432)" xlink:href="#aq"/>
<use transform="translate(1491)" xlink:href="#DejaVuSans-20"/>
<use transform="translate(1523)" xlink:href="#v"/>
<use transform="translate(1578)" xlink:href="#q"/>
<use transform="translate(1639)" xlink:href="#x"/>
<use transform="translate(1702)" xlink:href="#l"/>
<use transform="translate(1737)" xlink:href="#o"/>
<use transform="translate(1765)" xlink:href="#af"/>
<use transform="translate(1829)" xlink:href="#ab"/>
<use transform="translate(1892)" xlink:href="#k"/>
<use transform="translate(1933)" xlink:href="#t"/>
<use transform="translate(1994)" xlink:href="#j"/>
<use transform="translate(2034)" xlink:href="#o"/>
<use transform="translate(2061)" xlink:href="#q"/>
<use transform="translate(2123)" xlink:href="#x"/>
</g>
<defs>
<clipPath id="n">
<rect x="40.6" y="35.7" width="668" height="316"/>
</clipPath>
<clipPath id="f">
<rect x="40.6" y="390" width="668" height="316"/>
</clipPath>
<clipPath id="m">
<rect x="40.6" y="745" width="668" height="316"/>
</clipPath>
</defs>
</svg>
