<?xml version="1.0" encoding="UTF-8"?>
<!DOCTYPE svg  PUBLIC '-//W3C//DTD SVG 1.1//EN'  'http://www.w3.org/Graphics/SVG/1.1/DTD/svg11.dtd'>
<svg width="720pt" height="1080pt" version="1.1" viewBox="0 0 720 1080" xmlns="http://www.w3.org/2000/svg" xmlns:xlink="http://www.w3.org/1999/xlink">
<defs>
<style type="text/css">*{stroke-linejoin: round; stroke-linecap: butt}</style>
</defs>
<path d="m0 1080h720v-1080h-720z" fill="#fff"/>
<path d="m40.6 351h670v-316h-670z" fill="#fff"/>
<path d="m94.1 351v-316" clip-path="url(#h)" fill="none" stroke="#b0b0b0" stroke-linecap="square" stroke-width=".8"/>
<defs>
<path id="f" d="m0 0v3.5" stroke="#000" stroke-width=".8"/>
</defs>
<use x="94.090839" y="351.264775" stroke="#000000" stroke-width=".8" xlink:href="#f"/>
<g transform="translate(73.2 366) scale(.1 -.1)">
<defs>
<path id="c" transform="scale(.0156)" d="m1228 531h2203v-531h-2962v531q359 372 979 998 621 627 780 809 303 340 423 576 121 236 121 464 0 372-261 606-261 235-680 235-297 0-627-103-329-103-704-313v638q381 153 712 231 332 78 607 78 725 0 1156-363 431-362 431-968 0-288-108-546-107-257-392-607-78-91-497-524-418-433-1181-1211z"/>
<path id="b" transform="scale(.0156)" d="m2034 4250q-487 0-733-480-245-479-245-1442 0-959 245-1439 246-480 733-480 491 0 736 480 246 480 246 1439 0 963-246 1442-245 480-736 480zm0 500q785 0 1199-621 414-620 414-1801 0-1178-414-1799-414-620-1199-620-784 0-1198 620-414 621-414 1799 0 1181 414 1801 414 621 1198 621z"/>
<path id="t" transform="scale(.0156)" d="m2419 4116-1594-2491h1594v2491zm-166 550h794v-3041h666v-525h-666v-1100h-628v1100h-2106v609l1940 2957z"/>
<path id="e" transform="scale(.0156)" d="m313 2009h1684v-512h-1684v512z"/>
<path id="ai" transform="scale(.0156)" d="m2034 2216q-450 0-708-241-257-241-257-662 0-422 257-663 258-241 708-241t709 242q260 243 260 662 0 421-258 662-257 241-711 241zm-631 268q-406 100-633 378-226 279-226 679 0 559 398 884 399 325 1092 325 697 0 1094-325t397-884q0-400-227-679-226-278-629-378 456-106 710-416 255-309 255-755 0-679-414-1042-414-362-1186-362-771 0-1186 362-414 363-414 1042 0 446 256 755 257 310 713 416zm-231 997q0-362 226-565 227-203 636-203 407 0 636 203 230 203 230 565 0 363-230 566-229 203-636 203-409 0-636-203-226-203-226-566z"/>
</defs>
<use xlink:href="#c"/>
<use transform="translate(63.6)" xlink:href="#b"/>
<use transform="translate(127)" xlink:href="#c"/>
<use transform="translate(191)" xlink:href="#t"/>
<use transform="translate(254)" xlink:href="#e"/>
<use transform="translate(291)" xlink:href="#b"/>
<use transform="translate(354)" xlink:href="#ai"/>
</g>
<path d="m171 351v-316" clip-path="url(#h)" fill="none" stroke="#b0b0b0" stroke-linecap="square" stroke-width=".8"/>
<use x="170.884562" y="351.264775" stroke="#000000" stroke-width=".8" xlink:href="#f"/>
<g transform="translate(150 366) scale(.1 -.1)">
<defs>
<path id="ac" transform="scale(.0156)" d="m703 97v575q238-113 481-172 244-59 479-59 625 0 954 420 330 420 377 1277-181-269-460-413-278-144-615-144-700 0-1108 423-408 424-408 1159 0 718 425 1152 425 435 1131 435 810 0 1236-621 427-620 427-1801 0-1103-524-1761-523-658-1407-658-238 0-482 47-243 47-506 141zm1256 1978q425 0 673 290 249 291 249 798 0 503-249 795-248 292-673 292t-673-292-248-795q0-507 248-798 248-290 673-290z"/>
</defs>
<use xlink:href="#c"/>
<use transform="translate(63.6)" xlink:href="#b"/>
<use transform="translate(127)" xlink:href="#c"/>
<use transform="translate(191)" xlink:href="#t"/>
<use transform="translate(254)" xlink:href="#e"/>
<use transform="translate(291)" xlink:href="#b"/>
<use transform="translate(354)" xlink:href="#ac"/>
</g>
<path d="m245 351v-316" clip-path="url(#h)" fill="none" stroke="#b0b0b0" stroke-linecap="square" stroke-width=".8"/>
<use x="245.201067" y="351.264775" stroke="#000000" stroke-width=".8" xlink:href="#f"/>
<g transform="translate(224 366) scale(.1 -.1)">
<defs>
<path id="d" transform="scale(.0156)" d="m794 531h1031v3560l-1122-225v575l1116 225h631v-4135h1031v-531h-2687v531z"/>
</defs>
<use xlink:href="#c"/>
<use transform="translate(63.6)" xlink:href="#b"/>
<use transform="translate(127)" xlink:href="#c"/>
<use transform="translate(191)" xlink:href="#t"/>
<use transform="translate(254)" xlink:href="#e"/>
<use transform="translate(291)" xlink:href="#d"/>
<use transform="translate(354)" xlink:href="#b"/>
</g>
<path d="m322 351v-316" clip-path="url(#h)" fill="none" stroke="#b0b0b0" stroke-linecap="square" stroke-width=".8"/>
<use x="321.994789" y="351.264775" stroke="#000000" stroke-width=".8" xlink:href="#f"/>
<g transform="translate(301 366) scale(.1 -.1)">
<use xlink:href="#c"/>
<use transform="translate(63.6)" xlink:href="#b"/>
<use transform="translate(127)" xlink:href="#c"/>
<use transform="translate(191)" xlink:href="#t"/>
<use transform="translate(254)" xlink:href="#e"/>
<use transform="translate(291)" xlink:href="#d"/>
<use transform="translate(354)" xlink:href="#d"/>
</g>
<path d="m396 351v-316" clip-path="url(#h)" fill="none" stroke="#b0b0b0" stroke-linecap="square" stroke-width=".8"/>
<use x="396.311295" y="351.264775" stroke="#000000" stroke-width=".8" xlink:href="#f"/>
<g transform="translate(375 366) scale(.1 -.1)">
<use xlink:href="#c"/>
<use transform="translate(63.6)" xlink:href="#b"/>
<use transform="translate(127)" xlink:href="#c"/>
<use transform="translate(191)" xlink:href="#t"/>
<use transform="translate(254)" xlink:href="#e"/>
<use transform="translate(291)" xlink:href="#d"/>
<use transform="translate(354)" xlink:href="#c"/>
</g>
<path d="m473 351v-316" clip-path="url(#h)" fill="none" stroke="#b0b0b0" stroke-linecap="square" stroke-width=".8"/>
<use x="473.105017" y="351.264775" stroke="#000000" stroke-width=".8" xlink:href="#f"/>
<g transform="translate(452 366) scale(.1 -.1)">
<defs>
<path id="n" transform="scale(.0156)" d="m691 4666h2478v-532h-1900v-1143q137 47 274 70 138 23 276 23 781 0 1237-428 457-428 457-1159 0-753-469-1171-469-417-1322-417-294 0-599 50-304 50-629 150v635q281-153 581-228t634-75q541 0 856 284 316 284 316 772 0 487-316 771-315 285-856 285-253 0-505-56-251-56-513-175v2344z"/>
</defs>
<use xlink:href="#c"/>
<use transform="translate(63.6)" xlink:href="#b"/>
<use transform="translate(127)" xlink:href="#c"/>
<use transform="translate(191)" xlink:href="#n"/>
<use transform="translate(254)" xlink:href="#e"/>
<use transform="translate(291)" xlink:href="#b"/>
<use transform="translate(354)" xlink:href="#d"/>
</g>
<path d="m550 351v-316" clip-path="url(#h)" fill="none" stroke="#b0b0b0" stroke-linecap="square" stroke-width=".8"/>
<use x="549.898739" y="351.264775" stroke="#000000" stroke-width=".8" xlink:href="#f"/>
<g transform="translate(529 366) scale(.1 -.1)">
<use xlink:href="#c"/>
<use transform="translate(63.6)" xlink:href="#b"/>
<use transform="translate(127)" xlink:href="#c"/>
<use transform="translate(191)" xlink:href="#n"/>
<use transform="translate(254)" xlink:href="#e"/>
<use transform="translate(291)" xlink:href="#b"/>
<use transform="translate(354)" xlink:href="#c"/>
</g>
<path d="m619 351v-316" clip-path="url(#h)" fill="none" stroke="#b0b0b0" stroke-linecap="square" stroke-width=".8"/>
<use x="619.260811" y="351.264775" stroke="#000000" stroke-width=".8" xlink:href="#f"/>
<g transform="translate(598 366) scale(.1 -.1)">
<defs>
<path id="af" transform="scale(.0156)" d="m2597 2516q453-97 707-404 255-306 255-756 0-690-475-1069-475-378-1350-378-293 0-604 58t-642 174v609q262-153 574-231 313-78 654-78 593 0 904 234t311 681q0 413-289 645-289 233-804 233h-544v519h569q465 0 712 186t247 536q0 359-255 551-254 193-729 193-260 0-557-57-297-56-653-174v562q360 100 674 150t592 50q719 0 1137-327 419-326 419-882 0-388-222-655t-631-370z"/>
</defs>
<use xlink:href="#c"/>
<use transform="translate(63.6)" xlink:href="#b"/>
<use transform="translate(127)" xlink:href="#c"/>
<use transform="translate(191)" xlink:href="#n"/>
<use transform="translate(254)" xlink:href="#e"/>
<use transform="translate(291)" xlink:href="#b"/>
<use transform="translate(354)" xlink:href="#af"/>
</g>
<path d="m696 351v-316" clip-path="url(#h)" fill="none" stroke="#b0b0b0" stroke-linecap="square" stroke-width=".8"/>
<use x="696.054533" y="351.264775" stroke="#000000" stroke-width=".8" xlink:href="#f"/>
<g transform="translate(675 366) scale(.1 -.1)">
<use xlink:href="#c"/>
<use transform="translate(63.6)" xlink:href="#b"/>
<use transform="translate(127)" xlink:href="#c"/>
<use transform="translate(191)" xlink:href="#n"/>
<use transform="translate(254)" xlink:href="#e"/>
<use transform="translate(291)" xlink:href="#b"/>
<use transform="translate(354)" xlink:href="#t"/>
</g>
<path d="m40.6 351h670" clip-path="url(#h)" fill="none" stroke="#b0b0b0" stroke-linecap="square" stroke-width=".8"/>
<defs>
<path id="j" d="m0 0h-3.5" stroke="#000" stroke-width=".8"/>
</defs>
<use x="40.645553" y="351.264775" stroke="#000000" stroke-width=".8" xlink:href="#j"/>
<g transform="translate(3 355) scale(.1 -.1)">
<defs>
<path id="i" transform="scale(.0156)" d="m684 794h660v-794h-660v794z"/>
<path id="k" transform="scale(.0156)" d="m4488 3438-1429-1435 1429-1428-372-378-1435 1434-1434-1434-369 378 1425 1428-1425 1435 369 378 1434-1435 1435 1435 372-378z"/>
</defs>
<use xlink:href="#b"/>
<use transform="translate(63.6)" xlink:href="#i"/>
<use transform="translate(95.4)" xlink:href="#ac"/>
<use transform="translate(159)" xlink:href="#b"/>
<use transform="translate(223)" xlink:href="#k"/>
</g>
<path d="m40.6 312h670" clip-path="url(#h)" fill="none" stroke="#b0b0b0" stroke-linecap="square" stroke-width=".8"/>
<use x="40.645553" y="311.823253" stroke="#000000" stroke-width=".8" xlink:href="#j"/>
<g transform="translate(3 316) scale(.1 -.1)">
<use xlink:href="#b"/>
<use transform="translate(63.6)" xlink:href="#i"/>
<use transform="translate(95.4)" xlink:href="#ac"/>
<use transform="translate(159)" xlink:href="#n"/>
<use transform="translate(223)" xlink:href="#k"/>
</g>
<path d="m40.6 272h670" clip-path="url(#h)" fill="none" stroke="#b0b0b0" stroke-linecap="square" stroke-width=".8"/>
<use x="40.645553" y="272.38173" stroke="#000000" stroke-width=".8" xlink:href="#j"/>
<g transform="translate(3 276) scale(.1 -.1)">
<use xlink:href="#d"/>
<use transform="translate(63.6)" xlink:href="#i"/>
<use transform="translate(95.4)" xlink:href="#b"/>
<use transform="translate(159)" xlink:href="#b"/>
<use transform="translate(223)" xlink:href="#k"/>
</g>
<path d="m40.6 233h670" clip-path="url(#h)" fill="none" stroke="#b0b0b0" stroke-linecap="square" stroke-width=".8"/>
<use x="40.645553" y="232.940208" stroke="#000000" stroke-width=".8" xlink:href="#j"/>
<g transform="translate(3 237) scale(.1 -.1)">
<use xlink:href="#d"/>
<use transform="translate(63.6)" xlink:href="#i"/>
<use transform="translate(95.4)" xlink:href="#b"/>
<use transform="translate(159)" xlink:href="#n"/>
<use transform="translate(223)" xlink:href="#k"/>
</g>
<path d="m40.6 193h670" clip-path="url(#h)" fill="none" stroke="#b0b0b0" stroke-linecap="square" stroke-width=".8"/>
<use x="40.645553" y="193.498685" stroke="#000000" stroke-width=".8" xlink:href="#j"/>
<g transform="translate(3 197) scale(.1 -.1)">
<use xlink:href="#d"/>
<use transform="translate(63.6)" xlink:href="#i"/>
<use transform="translate(95.4)" xlink:href="#d"/>
<use transform="translate(159)" xlink:href="#b"/>
<use transform="translate(223)" xlink:href="#k"/>
</g>
<path d="m40.6 154h670" clip-path="url(#h)" fill="none" stroke="#b0b0b0" stroke-linecap="square" stroke-width=".8"/>
<use x="40.645553" y="154.057163" stroke="#000000" stroke-width=".8" xlink:href="#j"/>
<g transform="translate(3 158) scale(.1 -.1)">
<use xlink:href="#d"/>
<use transform="translate(63.6)" xlink:href="#i"/>
<use transform="translate(95.4)" xlink:href="#d"/>
<use transform="translate(159)" xlink:href="#n"/>
<use transform="translate(223)" xlink:href="#k"/>
</g>
<path d="m40.6 115h670" clip-path="url(#h)" fill="none" stroke="#b0b0b0" stroke-linecap="square" stroke-width=".8"/>
<use x="40.645553" y="114.61564" stroke="#000000" stroke-width=".8" xlink:href="#j"/>
<g transform="translate(3 118) scale(.1 -.1)">
<use xlink:href="#d"/>
<use transform="translate(63.6)" xlink:href="#i"/>
<use transform="translate(95.4)" xlink:href="#c"/>
<use transform="translate(159)" xlink:href="#b"/>
<use transform="translate(223)" xlink:href="#k"/>
</g>
<path d="m40.6 75.2h670" clip-path="url(#h)" fill="none" stroke="#b0b0b0" stroke-linecap="square" stroke-width=".8"/>
<use x="40.645553" y="75.174118" stroke="#000000" stroke-width=".8" xlink:href="#j"/>
<g transform="translate(3 79) scale(.1 -.1)">
<use xlink:href="#d"/>
<use transform="translate(63.6)" xlink:href="#i"/>
<use transform="translate(95.4)" xlink:href="#c"/>
<use transform="translate(159)" xlink:href="#n"/>
<use transform="translate(223)" xlink:href="#k"/>
</g>
<path d="m40.6 35.7h670" clip-path="url(#h)" fill="none" stroke="#b0b0b0" stroke-linecap="square" stroke-width=".8"/>
<use x="40.645553" y="35.732595" stroke="#000000" stroke-width=".8" xlink:href="#j"/>
<g transform="translate(3 39.5) scale(.1 -.1)">
<use xlink:href="#d"/>
<use transform="translate(63.6)" xlink:href="#i"/>
<use transform="translate(95.4)" xlink:href="#af"/>
<use transform="translate(159)" xlink:href="#b"/>
<use transform="translate(223)" xlink:href="#k"/>
</g>
<path d="m673 293" clip-path="url(#h)" fill="none" stroke="#1f77b4" stroke-linecap="square" stroke-opacity=".9" stroke-width="1.5"/>
<defs>
<path id="a" d="m-2.5 2.5h5v-5h-5z" stroke="#1f77b4" stroke-opacity=".9"/>
</defs>
<g clip-path="url(#h)">
<use x="672.907923" y="293.173427" fill="#1f77b4" fill-opacity=".9" stroke="#1f77b4" stroke-opacity=".9" xlink:href="#a"/>
</g>
<g stroke="#1f77b4" stroke-opacity=".9">
<path d="m673 218 1.62 78.3" clip-path="url(#h)" fill="none" stroke-dasharray="1.5,2.475" stroke-width="1.5"/>
<g clip-path="url(#h)" fill="#1f77b4" fill-opacity=".9">
<use x="672.907923" y="217.972608" xlink:href="#a"/>
<use x="674.526916" y="296.236601" xlink:href="#a"/>
</g>
</g>
<path d="m673 180" clip-path="url(#h)" fill="none" stroke="#2ca02c" stroke-linecap="square" stroke-opacity=".9" stroke-width="1.5"/>
<defs>
<path id="q" d="m0-2.5-2.5 5h5z" stroke="#2ca02c" stroke-opacity=".9"/>
</defs>
<g clip-path="url(#h)">
<use x="672.907923" y="179.969255" fill="#2ca02c" fill-opacity=".9" stroke="#2ca02c" stroke-opacity=".9" xlink:href="#q"/>
</g>
<path d="m40.6 351v-316" fill="none" stroke="#000" stroke-linecap="square" stroke-width=".8"/>
<path d="m711 351v-316" fill="none" stroke="#000" stroke-linecap="square" stroke-width=".8"/>
<path d="m40.6 351h670" fill="none" stroke="#000" stroke-linecap="square" stroke-width=".8"/>
<path d="m40.6 35.7h670" fill="none" stroke="#000" stroke-linecap="square" stroke-width=".8"/>
<g clip-path="url(#h)">
<g transform="translate(58.2 264) rotate(-90) scale(.1 -.1)">
<defs>
<path id="y" transform="scale(.0156)" d="m2375 4863v-479h-550q-309 0-430-125-120-125-120-450v-309h947v-447h-947v-3053h-578v3053h-550v447h550v244q0 584 272 851 272 268 862 268h544z"/>
<path id="u" transform="scale(.0156)" d="m2194 1759q-697 0-966-159t-269-544q0-306 202-486 202-179 548-179 479 0 768 339t289 901v128h-572zm1147 238v-2e3h-575v531q-197-318-491-470t-719-152q-537 0-855 302-317 302-317 808 0 590 395 890 396 300 1180 300h807v57q0 397-261 614t-733 217q-300 0-585-72-284-72-546-216v532q315 122 612 182 297 61 578 61 760 0 1135-394 375-393 375-1193z"/>
<path id="v" transform="scale(.0156)" d="m2834 3397v-544q-243 125-506 187-262 63-544 63-428 0-642-131t-214-394q0-200 153-314t616-217l197-44q612-131 870-370t258-667q0-488-386-773-386-284-1061-284-281 0-586 55t-642 164v594q319-166 628-249 309-82 613-82 406 0 624 139 219 139 219 392 0 234-158 359-157 125-692 241l-200 47q-534 112-772 345-237 233-237 639 0 494 350 762 350 269 994 269 318 0 599-47 282-46 519-140z"/>
<path id="o" transform="scale(.0156)" d="m1172 4494v-994h1184v-447h-1184v-1900q0-428 117-550t477-122h590v-481h-590q-666 0-919 248-253 249-253 905v1900h-422v447h422v994h578z"/>
<path id="l" transform="scale(.0156)" d="m3597 1894v-281h-2644q38-594 358-905t892-311q331 0 642 81t618 244v-544q-310-131-635-200t-659-69q-838 0-1327 487-489 488-489 1320 0 859 464 1363 464 505 1252 505 706 0 1117-455 411-454 411-1235zm-575 169q-6 471-264 752-258 282-683 282-481 0-770-272t-333-766l2050 4z"/>
<path id="r" transform="scale(.0156)" d="m2631 2963q-97 56-211 82-114 27-251 27-488 0-749-317t-261-911v-1844h-578v3500h578v-544q182 319 472 473 291 155 707 155 59 0 131-8 72-7 159-23l3-590z"/>
<path id="ao" transform="scale(.0156)" d="m8863 2147v-281l-1229-1228-375 375 729 728h-7622v531h7622l-729 728 375 375 1229-1228z"/>
</defs>
<use xlink:href="#y"/>
<use transform="translate(35.2)" xlink:href="#u"/>
<use transform="translate(96.5)" xlink:href="#v"/>
<use transform="translate(149)" xlink:href="#o"/>
<use transform="translate(188)" xlink:href="#l"/>
<use transform="translate(249)" xlink:href="#r"/>
<use transform="translate(290)" xlink:href="#DejaVuSans-20"/>
<use transform="translate(322)" xlink:href="#ao"/>
</g>
</g>
<g clip-path="url(#h)">
<g transform="translate(58.2 332) rotate(-90) scale(.1 -.1)">
<defs>
<path id="ap" transform="scale(.0156)" d="m313 1866v281l1228 1228 375-375-728-728h7621v-531h-7621l728-728-375-375-1228 1228z"/>
<path id="s" transform="scale(.0156)" d="m603 4863h575v-4863h-575v4863z"/>
<path id="w" transform="scale(.0156)" d="m1959 3097q-462 0-731-361t-269-989 267-989q268-361 733-361 460 0 728 362 269 363 269 988 0 622-269 986-268 364-728 364zm0 487q750 0 1178-488 429-487 429-1349 0-859-429-1349-428-489-1178-489-753 0-1180 489-426 490-426 1349 0 862 426 1349 427 488 1180 488z"/>
<path id="ag" transform="scale(.0156)" d="m269 3500h575l719-2731 715 2731h678l719-2731 716 2731h575l-916-3500h-678l-753 2869-756-2869h-679l-915 3500z"/>
</defs>
<use xlink:href="#ap"/>
<use transform="translate(143)" xlink:href="#DejaVuSans-20"/>
<use transform="translate(175)" xlink:href="#v"/>
<use transform="translate(227)" xlink:href="#s"/>
<use transform="translate(255)" xlink:href="#w"/>
<use transform="translate(316)" xlink:href="#ag"/>
<use transform="translate(398)" xlink:href="#l"/>
<use transform="translate(460)" xlink:href="#r"/>
</g>
</g>
<g transform="translate(171 29.7) scale(.12 -.12)">
<defs>
<path id="al" transform="scale(.0156)" d="m628 4666h2950v-532h-2319v-1381h2222v-531h-2222v-1691h2375v-531h-3006v4666z"/>
<path id="aa" transform="scale(.0156)" d="m3122 3366v-538q-244 135-489 202t-495 67q-560 0-870-355-309-354-309-995t309-996q310-354 870-354 250 0 495 67t489 202v-532q-241-112-499-168-257-57-548-57-791 0-1257 497-465 497-465 1341 0 856 470 1346 471 491 1290 491 265 0 518-55 253-54 491-163z"/>
<path id="ar" transform="scale(.0156)" d="m3116 1747q0 634-261 995t-717 361q-457 0-718-361t-261-995 261-995 718-361q456 0 717 361t261 995zm-1957 1222q182 312 458 463 277 152 661 152 638 0 1036-506 399-506 399-1331t-399-1332q-398-506-1036-506-384 0-661 152-276 152-458 464v-525h-578v4863h578v-1894z"/>
<path id="ab" transform="scale(.0156)" d="m544 1381v2119h575v-2097q0-497 193-746 194-248 582-248 465 0 735 297 271 297 271 810v1984h575v-3500h-575v538q-209-319-486-474-276-155-642-155-603 0-916 375-312 375-312 1097zm1447 2203z"/>
<path id="p" transform="scale(.0156)" d="m603 3500h575v-3500h-575v3500zm0 1363h575v-729h-575v729z"/>
<path id="ak" transform="scale(.0156)" d="m2906 2969v1894h575v-4863h-575v525q-181-312-458-464-276-152-664-152-634 0-1033 506-398 507-398 1332t398 1331q399 506 1033 506 388 0 664-152 277-151 458-463zm-1959-1222q0-634 261-995t717-361 718 361q263 361 263 995t-263 995q-262 361-718 361t-717-361-261-995z"/>
<path id="aq" transform="scale(.0156)" d="m3513 2113v-2113h-575v2094q0 497-194 743-194 247-581 247-466 0-735-297-269-296-269-809v-1978h-578v4863h578v-1907q207 316 486 472 280 156 646 156 603 0 912-373 310-373 310-1098z"/>
<path id="z" transform="scale(.0156)" d="m3513 2113v-2113h-575v2094q0 497-194 743-194 247-581 247-466 0-735-297-269-296-269-809v-1978h-578v3500h578v-544q207 316 486 472 280 156 646 156 603 0 912-373 310-373 310-1098z"/>
<path id="aj" transform="scale(.0156)" d="m2906 1791q0 625-258 968-257 344-723 344-462 0-720-344-258-343-258-968 0-622 258-966t720-344q466 0 723 344 258 344 258 966zm575-1357q0-893-397-1329-396-436-1215-436-303 0-572 45t-522 139v559q253-137 500-202 247-66 503-66 566 0 847 295t281 892v285q-178-310-456-463t-666-153q-643 0-1037 490-394 491-394 1301 0 812 394 1302 394 491 1037 491 388 0 666-153t456-462v531h575v-3066z"/>
<path id="ad" transform="scale(.0156)" d="m191 3500h609l1094-2937 1094 2937h609l-1313-3500h-781l-1312 3500z"/>
<path id="ah" transform="scale(.0156)" d="m-19 4666h3947v-532h-1656v-4134h-634v4134h-1657v532z"/>
<path id="an" transform="scale(.0156)" d="m1984 4856q-418-718-622-1422-203-703-203-1425 0-721 205-1429t620-1424h-500q-468 735-701 1444t-233 1409q0 697 231 1403 232 707 703 1444h500z"/>
<path id="x" transform="scale(.0156)" d="m3328 2828q216 388 516 572t706 184q547 0 844-383 297-382 297-1088v-2113h-578v2094q0 503-179 746-178 244-543 244-447 0-707-297-259-296-259-809v-1978h-578v2094q0 506-178 748t-550 242q-441 0-701-298-259-298-259-808v-1978h-578v3500h578v-544q197 322 472 475t653 153q382 0 649-194 267-193 395-562z"/>
<path id="am" transform="scale(.0156)" d="m513 4856h500q468-737 701-1444 233-706 233-1403 0-700-233-1409t-701-1444h-500q415 716 620 1424t205 1429q0 722-205 1425-205 704-620 1422z"/>
</defs>
<use xlink:href="#al"/>
<use transform="translate(63.2)" xlink:href="#y"/>
<use transform="translate(98.4)" xlink:href="#y"/>
<use transform="translate(134)" xlink:href="#l"/>
<use transform="translate(195)" xlink:href="#aa"/>
<use transform="translate(250)" xlink:href="#o"/>
<use transform="translate(289)" xlink:href="#DejaVuSans-20"/>
<use transform="translate(321)" xlink:href="#w"/>
<use transform="translate(382)" xlink:href="#y"/>
<use transform="translate(417)" xlink:href="#DejaVuSans-20"/>
<use transform="translate(449)" xlink:href="#ar"/>
<use transform="translate(513)" xlink:href="#ab"/>
<use transform="translate(576)" xlink:href="#p"/>
<use transform="translate(604)" xlink:href="#s"/>
<use transform="translate(632)" xlink:href="#ak"/>
<use transform="translate(695)" xlink:href="#DejaVuSans-20"/>
<use transform="translate(727)" xlink:href="#ag"/>
<use transform="translate(809)" xlink:href="#p"/>
<use transform="translate(837)" xlink:href="#o"/>
<use transform="translate(876)" xlink:href="#aq"/>
<use transform="translate(939)" xlink:href="#DejaVuSans-20"/>
<use transform="translate(971)" xlink:href="#s"/>
<use transform="translate(999)" xlink:href="#u"/>
<use transform="translate(1060)" xlink:href="#o"/>
<use transform="translate(1099)" xlink:href="#l"/>
<use transform="translate(1161)" xlink:href="#v"/>
<use transform="translate(1213)" xlink:href="#o"/>
<use transform="translate(1252)" xlink:href="#DejaVuSans-20"/>
<use transform="translate(1284)" xlink:href="#aa"/>
<use transform="translate(1339)" xlink:href="#s"/>
<use transform="translate(1367)" xlink:href="#u"/>
<use transform="translate(1428)" xlink:href="#z"/>
<use transform="translate(1491)" xlink:href="#aj"/>
<use transform="translate(1555)" xlink:href="#DejaVuSans-20"/>
<use transform="translate(1586)" xlink:href="#u"/>
<use transform="translate(1648)" xlink:href="#z"/>
<use transform="translate(1711)" xlink:href="#ak"/>
<use transform="translate(1775)" xlink:href="#DejaVuSans-20"/>
<use transform="translate(1806)" xlink:href="#o"/>
<use transform="translate(1846)" xlink:href="#u"/>
<use transform="translate(1907)" xlink:href="#p"/>
<use transform="translate(1935)" xlink:href="#s"/>
<use transform="translate(1962)" xlink:href="#aa"/>
<use transform="translate(2017)" xlink:href="#u"/>
<use transform="translate(2079)" xlink:href="#s"/>
<use transform="translate(2106)" xlink:href="#s"/>
<use transform="translate(2134)" xlink:href="#DejaVuSans-20"/>
<use transform="translate(2166)" xlink:href="#ad"/>
<use transform="translate(2225)" xlink:href="#v"/>
<use transform="translate(2277)" xlink:href="#i"/>
<use transform="translate(2309)" xlink:href="#DejaVuSans-20"/>
<use transform="translate(2341)" xlink:href="#ah"/>
<use transform="translate(2399)" xlink:href="#p"/>
<use transform="translate(2427)" xlink:href="#l"/>
<use transform="translate(2488)" xlink:href="#r"/>
<use transform="translate(2529)" xlink:href="#DejaVuSans-20"/>
<use transform="translate(2561)" xlink:href="#d"/>
<use transform="translate(2625)" xlink:href="#DejaVuSans-20"/>
<use transform="translate(2656)" xlink:href="#an"/>
<use transform="translate(2696)" xlink:href="#v"/>
<use transform="translate(2748)" xlink:href="#u"/>
<use transform="translate(2809)" xlink:href="#x"/>
<use transform="translate(2906)" xlink:href="#l"/>
<use transform="translate(2968)" xlink:href="#DejaVuSans-20"/>
<use transform="translate(3e3)" xlink:href="#aa"/>
<use transform="translate(3055)" xlink:href="#w"/>
<use transform="translate(3116)" xlink:href="#x"/>
<use transform="translate(3213)" xlink:href="#x"/>
<use transform="translate(3311)" xlink:href="#p"/>
<use transform="translate(3338)" xlink:href="#o"/>
<use transform="translate(3378)" xlink:href="#am"/>
</g>
<path d="m47.6 87.8h82.6q2 0 2-2v-43q0-2-2-2h-82.6q-2 0-2 2v43q0 2 2 2z" fill="#fff" opacity=".8" stroke="#ccc"/>
<path d="m49.6 48.8h10 10" fill="none" stroke="#1f77b4" stroke-linecap="square" stroke-opacity=".9" stroke-width="1.5"/>
<use x="59.645553" y="48.831032" fill="#1f77b4" fill-opacity=".9" stroke="#1f77b4" stroke-opacity=".9" xlink:href="#a"/>
<g transform="translate(77.6 52.3) scale(.1 -.1)">
<defs>
<path id="ae" transform="scale(.0156)" d="m3513 3500-1266-1703 1331-1797h-678l-1019 1375-1018-1375h-679l1360 1831-1244 1669h678l928-1247 928 1247h679z"/>
</defs>
<use xlink:href="#s"/>
<use transform="translate(27.8)" xlink:href="#p"/>
<use transform="translate(55.6)" xlink:href="#z"/>
<use transform="translate(119)" xlink:href="#ab"/>
<use transform="translate(182)" xlink:href="#ae"/>
</g>
<path d="m49.6 63.5h10 10" fill="none" stroke="#1f77b4" stroke-dasharray="1.5,2.475" stroke-opacity=".9" stroke-width="1.5"/>
<use x="59.645553" y="63.509158" fill="#1f77b4" fill-opacity=".9" stroke="#1f77b4" stroke-opacity=".9" xlink:href="#a"/>
<g transform="translate(77.6 67) scale(.1 -.1)">
<use xlink:href="#s"/>
<use transform="translate(27.8)" xlink:href="#p"/>
<use transform="translate(55.6)" xlink:href="#z"/>
<use transform="translate(119)" xlink:href="#ab"/>
<use transform="translate(182)" xlink:href="#ae"/>
<use transform="translate(242)" xlink:href="#e"/>
<use transform="translate(275)" xlink:href="#ad"/>
<use transform="translate(334)" xlink:href="#ab"/>
<use transform="translate(398)" xlink:href="#s"/>
<use transform="translate(425)" xlink:href="#o"/>
<use transform="translate(465)" xlink:href="#r"/>
</g>
<path d="m49.6 78.2h10 10" fill="none" stroke="#2ca02c" stroke-linecap="square" stroke-opacity=".9" stroke-width="1.5"/>
<use x="59.645553" y="78.187283" fill="#2ca02c" fill-opacity=".9" stroke="#2ca02c" stroke-opacity=".9" xlink:href="#q"/>
<g transform="translate(77.6 81.7) scale(.1 -.1)">
<use xlink:href="#x"/>
<use transform="translate(97.4)" xlink:href="#u"/>
<use transform="translate(159)" xlink:href="#aa"/>
<use transform="translate(214)" xlink:href="#w"/>
<use transform="translate(275)" xlink:href="#v"/>
</g>
<path d="m40.6 706h670v-316h-670z" fill="#fff"/>
<path d="m92.4 706v-316" clip-path="url(#m)" fill="none" stroke="#b0b0b0" stroke-linecap="square" stroke-width=".8"/>
<use x="92.439361" y="705.793205" stroke="#000000" stroke-width=".8" xlink:href="#f"/>
<g transform="translate(71.5 720) scale(.1 -.1)">
<use xlink:href="#c"/>
<use transform="translate(63.6)" xlink:href="#b"/>
<use transform="translate(127)" xlink:href="#c"/>
<use transform="translate(191)" xlink:href="#t"/>
<use transform="translate(254)" xlink:href="#e"/>
<use transform="translate(291)" xlink:href="#b"/>
<use transform="translate(354)" xlink:href="#ai"/>
</g>
<path d="m169 706v-316" clip-path="url(#m)" fill="none" stroke="#b0b0b0" stroke-linecap="square" stroke-width=".8"/>
<use x="169.233084" y="705.793205" stroke="#000000" stroke-width=".8" xlink:href="#f"/>
<g transform="translate(148 720) scale(.1 -.1)">
<use xlink:href="#c"/>
<use transform="translate(63.6)" xlink:href="#b"/>
<use transform="translate(127)" xlink:href="#c"/>
<use transform="translate(191)" xlink:href="#t"/>
<use transform="translate(254)" xlink:href="#e"/>
<use transform="translate(291)" xlink:href="#b"/>
<use transform="translate(354)" xlink:href="#ac"/>
</g>
<path d="m244 706v-316" clip-path="url(#m)" fill="none" stroke="#b0b0b0" stroke-linecap="square" stroke-width=".8"/>
<use x="243.549589" y="705.793205" stroke="#000000" stroke-width=".8" xlink:href="#f"/>
<g transform="translate(223 720) scale(.1 -.1)">
<use xlink:href="#c"/>
<use transform="translate(63.6)" xlink:href="#b"/>
<use transform="translate(127)" xlink:href="#c"/>
<use transform="translate(191)" xlink:href="#t"/>
<use transform="translate(254)" xlink:href="#e"/>
<use transform="translate(291)" xlink:href="#d"/>
<use transform="translate(354)" xlink:href="#b"/>
</g>
<path d="m320 706v-316" clip-path="url(#m)" fill="none" stroke="#b0b0b0" stroke-linecap="square" stroke-width=".8"/>
<use x="320.343311" y="705.793205" stroke="#000000" stroke-width=".8" xlink:href="#f"/>
<g transform="translate(299 720) scale(.1 -.1)">
<use xlink:href="#c"/>
<use transform="translate(63.6)" xlink:href="#b"/>
<use transform="translate(127)" xlink:href="#c"/>
<use transform="translate(191)" xlink:href="#t"/>
<use transform="translate(254)" xlink:href="#e"/>
<use transform="translate(291)" xlink:href="#d"/>
<use transform="translate(354)" xlink:href="#d"/>
</g>
<path d="m395 706v-316" clip-path="url(#m)" fill="none" stroke="#b0b0b0" stroke-linecap="square" stroke-width=".8"/>
<use x="394.659817" y="705.793205" stroke="#000000" stroke-width=".8" xlink:href="#f"/>
<g transform="translate(374 720) scale(.1 -.1)">
<use xlink:href="#c"/>
<use transform="translate(63.6)" xlink:href="#b"/>
<use transform="translate(127)" xlink:href="#c"/>
<use transform="translate(191)" xlink:href="#t"/>
<use transform="translate(254)" xlink:href="#e"/>
<use transform="translate(291)" xlink:href="#d"/>
<use transform="translate(354)" xlink:href="#c"/>
</g>
<path d="m471 706v-316" clip-path="url(#m)" fill="none" stroke="#b0b0b0" stroke-linecap="square" stroke-width=".8"/>
<use x="471.453539" y="705.793205" stroke="#000000" stroke-width=".8" xlink:href="#f"/>
<g transform="translate(451 720) scale(.1 -.1)">
<use xlink:href="#c"/>
<use transform="translate(63.6)" xlink:href="#b"/>
<use transform="translate(127)" xlink:href="#c"/>
<use transform="translate(191)" xlink:href="#n"/>
<use transform="translate(254)" xlink:href="#e"/>
<use transform="translate(291)" xlink:href="#b"/>
<use transform="translate(354)" xlink:href="#d"/>
</g>
<path d="m548 706v-316" clip-path="url(#m)" fill="none" stroke="#b0b0b0" stroke-linecap="square" stroke-width=".8"/>
<use x="548.247261" y="705.793205" stroke="#000000" stroke-width=".8" xlink:href="#f"/>
<g transform="translate(527 720) scale(.1 -.1)">
<use xlink:href="#c"/>
<use transform="translate(63.6)" xlink:href="#b"/>
<use transform="translate(127)" xlink:href="#c"/>
<use transform="translate(191)" xlink:href="#n"/>
<use transform="translate(254)" xlink:href="#e"/>
<use transform="translate(291)" xlink:href="#b"/>
<use transform="translate(354)" xlink:href="#c"/>
</g>
<path d="m618 706v-316" clip-path="url(#m)" fill="none" stroke="#b0b0b0" stroke-linecap="square" stroke-width=".8"/>
<use x="617.609333" y="705.793205" stroke="#000000" stroke-width=".8" xlink:href="#f"/>
<g transform="translate(597 720) scale(.1 -.1)">
<use xlink:href="#c"/>
<use transform="translate(63.6)" xlink:href="#b"/>
<use transform="translate(127)" xlink:href="#c"/>
<use transform="translate(191)" xlink:href="#n"/>
<use transform="translate(254)" xlink:href="#e"/>
<use transform="translate(291)" xlink:href="#b"/>
<use transform="translate(354)" xlink:href="#af"/>
</g>
<path d="m694 706v-316" clip-path="url(#m)" fill="none" stroke="#b0b0b0" stroke-linecap="square" stroke-width=".8"/>
<use x="694.403055" y="705.793205" stroke="#000000" stroke-width=".8" xlink:href="#f"/>
<g transform="translate(674 720) scale(.1 -.1)">
<use xlink:href="#c"/>
<use transform="translate(63.6)" xlink:href="#b"/>
<use transform="translate(127)" xlink:href="#c"/>
<use transform="translate(191)" xlink:href="#n"/>
<use transform="translate(254)" xlink:href="#e"/>
<use transform="translate(291)" xlink:href="#b"/>
<use transform="translate(354)" xlink:href="#t"/>
</g>
<path d="m40.6 665h670" clip-path="url(#m)" fill="none" stroke="#b0b0b0" stroke-linecap="square" stroke-width=".8"/>
<use x="40.645553" y="665.373794" stroke="#000000" stroke-width=".8" xlink:href="#j"/>
<g transform="translate(3 669) scale(.1 -.1)">
<defs>
<path id="ay" transform="scale(.0156)" d="m2113 2584q-425 0-674-291-248-290-248-796 0-503 248-796 249-292 674-292t673 292q248 293 248 796 0 506-248 796-248 291-673 291zm1253 1979v-575q-238 112-480 171-242 60-480 60-625 0-955-422-329-422-376-1275 184 272 462 417 279 145 613 145 703 0 1111-427 408-426 408-1160 0-719-425-1154-425-434-1131-434-810 0-1238 620-428 621-428 1799 0 1106 525 1764t1409 658q238 0 480-47t505-140z"/>
</defs>
<use xlink:href="#b"/>
<use transform="translate(63.6)" xlink:href="#i"/>
<use transform="translate(95.4)" xlink:href="#ay"/>
<use transform="translate(159)" xlink:href="#b"/>
<use transform="translate(223)" xlink:href="#k"/>
</g>
<path d="m40.6 600h670" clip-path="url(#m)" fill="none" stroke="#b0b0b0" stroke-linecap="square" stroke-width=".8"/>
<use x="40.645553" y="600.181194" stroke="#000000" stroke-width=".8" xlink:href="#j"/>
<g transform="translate(3 604) scale(.1 -.1)">
<defs>
<path id="ax" transform="scale(.0156)" d="m525 4666h3e3v-269l-1694-4397h-659l1594 4134h-2241v532z"/>
</defs>
<use xlink:href="#b"/>
<use transform="translate(63.6)" xlink:href="#i"/>
<use transform="translate(95.4)" xlink:href="#ax"/>
<use transform="translate(159)" xlink:href="#b"/>
<use transform="translate(223)" xlink:href="#k"/>
</g>
<path d="m40.6 535h670" clip-path="url(#m)" fill="none" stroke="#b0b0b0" stroke-linecap="square" stroke-width=".8"/>
<use x="40.645553" y="534.988595" stroke="#000000" stroke-width=".8" xlink:href="#j"/>
<g transform="translate(3 539) scale(.1 -.1)">
<use xlink:href="#b"/>
<use transform="translate(63.6)" xlink:href="#i"/>
<use transform="translate(95.4)" xlink:href="#ai"/>
<use transform="translate(159)" xlink:href="#b"/>
<use transform="translate(223)" xlink:href="#k"/>
</g>
<path d="m40.6 470h670" clip-path="url(#m)" fill="none" stroke="#b0b0b0" stroke-linecap="square" stroke-width=".8"/>
<use x="40.645553" y="469.795996" stroke="#000000" stroke-width=".8" xlink:href="#j"/>
<g transform="translate(3 474) scale(.1 -.1)">
<use xlink:href="#b"/>
<use transform="translate(63.6)" xlink:href="#i"/>
<use transform="translate(95.4)" xlink:href="#ac"/>
<use transform="translate(159)" xlink:href="#b"/>
<use transform="translate(223)" xlink:href="#k"/>
</g>
<path d="m40.6 405h670" clip-path="url(#m)" fill="none" stroke="#b0b0b0" stroke-linecap="square" stroke-width=".8"/>
<use x="40.645553" y="404.603397" stroke="#000000" stroke-width=".8" xlink:href="#j"/>
<g transform="translate(3 408) scale(.1 -.1)">
<use xlink:href="#d"/>
<use transform="translate(63.6)" xlink:href="#i"/>
<use transform="translate(95.4)" xlink:href="#b"/>
<use transform="translate(159)" xlink:href="#b"/>
<use transform="translate(223)" xlink:href="#k"/>
</g>
<g stroke="#1f77b4" stroke-opacity=".9">
<path d="m71.1 581 11.8 19.6 17.7-19.6h9.75l0.0159-13 0.236 39.1 7.28-19.6 17.3 6.52h34.8l14-26.1 0.762 26.1 2.22 6.52 17.3 6.52 14.4-19.6 14-183 6.69 183 4.5-183 52.5 287 2.28-65.2 32.2-13 2.8-13 2.34 26.1 2.53 6.52 1.83 13 3.12-6.52h7.26l2.72 19.6 2.54-13 2.35 6.52 2.58-32.6 2.44 39.1 2.52-19.6 2.18-6.52 2.64-6.52 2.65-71.7 2.42-6.52h2.23l2.58 6.52 2.36 12 2.5 12 2.66-5.64 1.81-9.02 2.89-1.85 2.23 6.39 2.56-2.96 2.89 19.8 2.56-18.4 2.49-0.156 2.19-18.4 2.48 18 2.1-2.7 2.56 2.82 2.45-0.967 3.06-4.12 2.39-6.26 2.32 8.16 2.11 9.04 2.18-7.51 3.29-5.26 2.24 1.24 2.71-2.32 1.68 9.75 3.31-22.7 2.07-0.757 4.89-12.5 2.71 8.98 2.19 9.62 2.4-14.9 2.91 14.5 2.5-9.86 2.37-0.0327 2.58 2.47 2.35 0.585 2.53 0.266 2.56-8.06 2.15 15.7 2.76-38.6 2.67 27 2.3 4.34 2.65-3.93 2.28-5.53 2.68 1.86 2.08 12.3 3.02-21.7 1.9 26.8 2.86-1.29 1.84-3.74 3.13-51.5 0.261 3.72 2-12.6 2.76 2.35 2.35 7.99 2.39 4.87 2.7-16.6 2.46 0.657 2.43 0.428 0.196-5.2 2.37 9.08 1.61 1.04 0.788-5.89 2.37 4.05 2.04 16.2 2.55-14.4 3.01 10.5 1.18-6.78 1.29-15.6 2.46-4.53 2.31 10.7 1.99-17.3 2.39 21.5 2.42-6.95 0.727-6.72 1.79 8.3 3.13-7.5 2.13 12.3 2.89-4.66 2.38-5.41 2.57 4.08 2.46-4.82 2.3 7.27 2.71-5.5 2.39-1.4 2.03 6.43 2.74-30.1 2.24 34.4 3 2.63 2.06-18.3 2.85 0.771 2.27 5.09 2.71-6.2 1.85-3.95 2.48-0.43 3.14 7.54 2.19-9.86 2.42 4.42 2.55-2.8 2.66 10.5 2.31-12.6 2.42 5.61 2.47 6.93 0.482-3.1 2.16 3.62 2.49-9.25 2.47 7.89 2.55 0.552 2.22-1.69 2.52-10.3 2.33 12.4 1.85 3.03 0.936-14.8 2.49 8.17 2.32-5.9 2.61-2.54 2.3 4.05 2.22-11.5 2.8 12.7 2.53-12.4 1.54-16.2 1.04 29.8 2.49-43.4 2.5 57.7 2.44-9.42 2.39 5.12 1.62-10.4 3.39 7.21 2.51-4.4v0" clip-path="url(#m)" fill="none" stroke-linecap="square" stroke-width="1.5"/>
<g clip-path="url(#m)" fill="#1f77b4" fill-opacity=".9">
<use x="71.111327" y="580.623415" xlink:href="#a"/>
<use x="82.898005" y="600.181194" xlink:href="#a"/>
<use x="100.58628" y="580.623415" xlink:href="#a"/>
<use x="110.332006" y="580.623415" xlink:href="#a"/>
<use x="110.347862" y="567.584895" xlink:href="#a"/>
<use x="110.583685" y="606.700454" xlink:href="#a"/>
<use x="117.867448" y="587.142675" xlink:href="#a"/>
<use x="135.168083" y="593.661934" xlink:href="#a"/>
<use x="152.605654" y="593.661934" xlink:href="#a"/>
<use x="169.984994" y="593.661934" xlink:href="#a"/>
<use x="183.979606" y="567.584895" xlink:href="#a"/>
<use x="184.742095" y="593.661934" xlink:href="#a"/>
<use x="186.963993" y="600.181194" xlink:href="#a"/>
<use x="204.275237" y="606.700454" xlink:href="#a"/>
<use x="218.636041" y="587.142675" xlink:href="#a"/>
<use x="232.627959" y="404.603397" xlink:href="#a"/>
<use x="232.653935" y="404.603397" xlink:href="#a"/>
<use x="239.344714" y="587.142675" xlink:href="#a"/>
<use x="243.843357" y="404.603397" xlink:href="#a"/>
<use x="296.358204" y="691.450833" xlink:href="#a"/>
<use x="298.637329" y="626.258234" xlink:href="#a"/>
<use x="330.851097" y="613.219714" xlink:href="#a"/>
<use x="333.647858" y="600.181194" xlink:href="#a"/>
<use x="335.987222" y="626.258234" xlink:href="#a"/>
<use x="338.515044" y="632.777494" xlink:href="#a"/>
<use x="340.346579" y="645.816014" xlink:href="#a"/>
<use x="343.46664" y="639.296754" xlink:href="#a"/>
<use x="345.812082" y="639.296754" xlink:href="#a"/>
<use x="348.541723" y="639.296754" xlink:href="#a"/>
<use x="350.729931" y="639.296754" xlink:href="#a"/>
<use x="353.450512" y="658.854534" xlink:href="#a"/>
<use x="355.992583" y="645.816014" xlink:href="#a"/>
<use x="358.342929" y="652.335274" xlink:href="#a"/>
<use x="360.920496" y="619.738974" xlink:href="#a"/>
<use x="363.356885" y="658.854534" xlink:href="#a"/>
<use x="365.881438" y="639.296754" xlink:href="#a"/>
<use x="368.063281" y="632.777494" xlink:href="#a"/>
<use x="370.704442" y="626.258234" xlink:href="#a"/>
<use x="373.356067" y="554.546375" xlink:href="#a"/>
<use x="375.775941" y="548.027115" xlink:href="#a"/>
<use x="378.009164" y="548.027115" xlink:href="#a"/>
<use x="380.592723" y="554.546375" xlink:href="#a"/>
<use x="382.951555" y="566.546551" xlink:href="#a"/>
<use x="385.449559" y="578.571793" xlink:href="#a"/>
<use x="388.110503" y="572.93371" xlink:href="#a"/>
<use x="389.917237" y="563.91429" xlink:href="#a"/>
<use x="392.808183" y="562.066868" xlink:href="#a"/>
<use x="395.037678" y="568.454989" xlink:href="#a"/>
<use x="397.600566" y="565.498183" xlink:href="#a"/>
<use x="400.492286" y="585.316532" xlink:href="#a"/>
<use x="403.054858" y="566.905947" xlink:href="#a"/>
<use x="405.54082" y="566.750199" xlink:href="#a"/>
<use x="407.733529" y="548.342615" xlink:href="#a"/>
<use x="410.210803" y="566.328394" xlink:href="#a"/>
<use x="412.30775" y="563.629123" xlink:href="#a"/>
<use x="414.867312" y="566.446132" xlink:href="#a"/>
<use x="417.31838" y="565.479296" xlink:href="#a"/>
<use x="420.378001" y="561.3639" xlink:href="#a"/>
<use x="422.766537" y="555.10376" xlink:href="#a"/>
<use x="425.090075" y="563.263201" xlink:href="#a"/>
<use x="427.202991" y="572.303988" xlink:href="#a"/>
<use x="429.385265" y="564.792971" xlink:href="#a"/>
<use x="432.673082" y="559.537257" xlink:href="#a"/>
<use x="434.913902" y="560.77722" xlink:href="#a"/>
<use x="437.627745" y="558.452601" xlink:href="#a"/>
<use x="439.309099" y="568.205072" xlink:href="#a"/>
<use x="442.619251" y="545.472682" xlink:href="#a"/>
<use x="444.687498" y="544.715257" xlink:href="#a"/>
<use x="449.574467" y="532.179362" xlink:href="#a"/>
<use x="452.285701" y="541.163775" xlink:href="#a"/>
<use x="454.473336" y="550.787438" xlink:href="#a"/>
<use x="456.869039" y="535.922611" xlink:href="#a"/>
<use x="459.778995" y="550.385359" xlink:href="#a"/>
<use x="462.282704" y="540.529371" xlink:href="#a"/>
<use x="464.650769" y="540.496648" xlink:href="#a"/>
<use x="467.234013" y="542.966062" xlink:href="#a"/>
<use x="469.581979" y="543.551524" xlink:href="#a"/>
<use x="472.111636" y="543.81706" xlink:href="#a"/>
<use x="474.673032" y="535.75594" xlink:href="#a"/>
<use x="476.825831" y="551.45316" xlink:href="#a"/>
<use x="479.588415" y="512.85617" xlink:href="#a"/>
<use x="482.254835" y="539.819049" xlink:href="#a"/>
<use x="484.559593" y="544.157044" xlink:href="#a"/>
<use x="487.20924" y="540.223808" xlink:href="#a"/>
<use x="489.486645" y="534.689061" xlink:href="#a"/>
<use x="492.162441" y="536.545647" xlink:href="#a"/>
<use x="494.239777" y="548.860571" xlink:href="#a"/>
<use x="497.263386" y="527.145639" xlink:href="#a"/>
<use x="499.163589" y="553.960557" xlink:href="#a"/>
<use x="502.022481" y="552.669982" xlink:href="#a"/>
<use x="503.860667" y="548.934681" xlink:href="#a"/>
<use x="506.989874" y="497.398676" xlink:href="#a"/>
<use x="507.2511" y="501.120279" xlink:href="#a"/>
<use x="509.255151" y="488.54273" xlink:href="#a"/>
<use x="512.012919" y="490.887785" xlink:href="#a"/>
<use x="514.363207" y="498.878271" xlink:href="#a"/>
<use x="516.754094" y="503.747511" xlink:href="#a"/>
<use x="519.458848" y="487.104506" xlink:href="#a"/>
<use x="521.915736" y="487.762005" xlink:href="#a"/>
<use x="524.349917" y="488.190027" xlink:href="#a"/>
<use x="524.54583" y="482.98647" xlink:href="#a"/>
<use x="526.912977" y="492.068129" xlink:href="#a"/>
<use x="528.522221" y="493.112871" xlink:href="#a"/>
<use x="529.309999" y="487.218274" xlink:href="#a"/>
<use x="531.684085" y="491.269526" xlink:href="#a"/>
<use x="533.728276" y="507.492299" xlink:href="#a"/>
<use x="536.274849" y="493.120489" xlink:href="#a"/>
<use x="539.289284" y="503.59153" xlink:href="#a"/>
<use x="540.472814" y="496.815701" xlink:href="#a"/>
<use x="541.763232" y="481.183509" xlink:href="#a"/>
<use x="544.226113" y="476.65786" xlink:href="#a"/>
<use x="546.535344" y="487.371373" xlink:href="#a"/>
<use x="548.525203" y="470.096539" xlink:href="#a"/>
<use x="550.91328" y="491.595679" xlink:href="#a"/>
<use x="553.334214" y="484.640751" xlink:href="#a"/>
<use x="554.061696" y="477.920282" xlink:href="#a"/>
<use x="555.854725" y="486.222808" xlink:href="#a"/>
<use x="558.980807" y="478.723443" xlink:href="#a"/>
<use x="561.112446" y="490.98339" xlink:href="#a"/>
<use x="564.000095" y="486.327132" xlink:href="#a"/>
<use x="566.37894" y="480.921116" xlink:href="#a"/>
<use x="568.951748" y="485.00361" xlink:href="#a"/>
<use x="571.415202" y="480.183468" xlink:href="#a"/>
<use x="573.718899" y="487.449071" xlink:href="#a"/>
<use x="576.424141" y="481.953915" xlink:href="#a"/>
<use x="578.815515" y="480.552704" xlink:href="#a"/>
<use x="580.848553" y="486.987693" xlink:href="#a"/>
<use x="583.585018" y="456.910304" xlink:href="#a"/>
<use x="585.820792" y="491.360065" xlink:href="#a"/>
<use x="588.824016" y="493.990306" xlink:href="#a"/>
<use x="590.886585" y="475.733843" xlink:href="#a"/>
<use x="593.740374" y="476.504699" xlink:href="#a"/>
<use x="596.010382" y="481.591529" xlink:href="#a"/>
<use x="598.718777" y="475.395229" xlink:href="#a"/>
<use x="600.568776" y="471.442642" xlink:href="#a"/>
<use x="603.046595" y="471.012974" xlink:href="#a"/>
<use x="606.187672" y="478.55609" xlink:href="#a"/>
<use x="608.37998" y="468.695266" xlink:href="#a"/>
<use x="610.804642" y="473.118517" xlink:href="#a"/>
<use x="613.351272" y="470.31391" xlink:href="#a"/>
<use x="616.014911" y="480.833203" xlink:href="#a"/>
<use x="618.32807" y="468.270509" xlink:href="#a"/>
<use x="620.749951" y="473.87609" xlink:href="#a"/>
<use x="623.220172" y="480.808442" xlink:href="#a"/>
<use x="623.702168" y="477.707054" xlink:href="#a"/>
<use x="625.864228" y="481.330007" xlink:href="#a"/>
<use x="628.350935" y="472.080327" xlink:href="#a"/>
<use x="630.821041" y="479.967077" xlink:href="#a"/>
<use x="633.368991" y="480.51893" xlink:href="#a"/>
<use x="635.586415" y="478.827403" xlink:href="#a"/>
<use x="638.110166" y="468.554826" xlink:href="#a"/>
<use x="640.436513" y="480.960859" xlink:href="#a"/>
<use x="642.290211" y="483.995294" xlink:href="#a"/>
<use x="643.225963" y="469.213548" xlink:href="#a"/>
<use x="645.715365" y="477.382379" xlink:href="#a"/>
<use x="648.034201" y="471.485778" xlink:href="#a"/>
<use x="650.646919" y="468.950211" xlink:href="#a"/>
<use x="652.950014" y="473.003168" xlink:href="#a"/>
<use x="655.171854" y="461.508032" xlink:href="#a"/>
<use x="657.971539" y="474.250975" xlink:href="#a"/>
<use x="660.504092" y="461.854861" xlink:href="#a"/>
<use x="662.046503" y="445.693439" xlink:href="#a"/>
<use x="663.08897" y="475.520067" xlink:href="#a"/>
<use x="665.582042" y="432.150013" xlink:href="#a"/>
<use x="668.082081" y="489.823585" xlink:href="#a"/>
<use x="670.521681" y="480.398761" xlink:href="#a"/>
<use x="672.907923" y="485.515729" xlink:href="#a"/>
<use x="674.526916" y="475.135344" xlink:href="#a"/>
<use x="677.915543" y="482.343106" xlink:href="#a"/>
<use x="680.426821" y="477.939131" xlink:href="#a"/>
</g>
</g>
<g stroke="#1f77b4" stroke-opacity=".9">
<path d="m185 613 33.9 27.8 20.7-14.8 15.9 6.52 18.7 39.1 15 13h4.86l2.63-6.52h2.28l2.76 6.52 2.52-13 1.9 13 2.83-6.52h7.69l2.48-6.52h2.22l2.63 6.52 1.86-6.52 2.91 6.52 2.42-13 2.8 6.52 2.34-6.52 1.26 6.52 1.26-6.52 1.83 6.52h3.12l2.35-6.52 2.73 6.52h2.19l2.72-6.52 2.54-6.52 2.35 13 2.58 6.52 0.187-6.52 2.25-13 2.52 6.52h2.18l2.64-6.52 2.65-65.2 2.42-32.6 2.23-6.52 2.58 6.52 2.36 24.3 2.5-0.431 1.8 2.01 0.857 2.96 1.81-3.95 2.4-3.16 0.487 1.79 2.23-4.15 2.56 4.59 2.89 11.6 2.56-17.3 1.88 4.95 0.609-1.22 2.19-2.47 0.711-5.81 1.77 1.95 2.1 1.56 1.24 3.74 1.32 0.339 2.45-4.68 3.06 7.39 1.8-0.547 0.586 0.18 1.25-0.564 1.08 2.3 1.91-4.17 0.199-2.48 2.18-2.29 3.29 3.92 2.24-1.64 2.71 0.323 0.718-2.99 0.964 1.1 3.31-13 2.07 3.75 4.89-0.274 2.71-14.5 2.19 3.05 2.4 2.41 2.91-6.58 2.5 2.87 2.37 4.28 2.58-0.427 2.35-3.58 2.53 7.54 2.56-4.95 2.15-1.32 2.76-2.03 2.67-0.801 2.3 8.14 2.65-1.73 2.28-5.3 4.75 0.911 2.08-1.9 0.943 2.2 1.9-3.83 2.86 3.63 1.84-1.26 3.13-49.3 0.261-1.9 2-16.9 1.99-1.95 0.765 1.29 2.35 5.66 2.39 0.107 2.7 2.39 2.46 12.9 2.43-3.2 0.196 3.38 1.29-4.97 1.08 5 1.61-14 0.788 5.43 2.37-3.51 2.04-3.28 2.55-0.0896 3.01 11.8 1.18 2.7 1.29-1.18 2.46-14.1 2.31 0.474 1.99-18.7 2.39 7.52 2.42-0.361 0.727-0.902 1.79 9.81 3.13 0.282 2.13-8.02 2.89 2.69 2.38 10.2 2.57-4.14 2.46-2.07 2.3 4.53 2.71-5.63 2.39 2.24 1.89-1.39 0.14-2.86 2.74 1.03 2.24 3.07 3-1.39 2.06-1.36 2.85-4.33 2.27 1.3 2.71 1.27 1.85-3.3 2.48 3.78 3.14-0.839 2.19-2.22 0.953 5.99 0.268-0.399 1.2 2.47 1.82-0.648 0.726-0.81 2.66 13.3 2.06-8.71 0.255-2.66 2.42-4.16 2.47 12.3 0.482-7.86 2.16 4.17 2.49-6.75 2.47 2.28 2.55-3.91 2.22 3.7 2.52-1.93 2.33 9.99 1.85-27.8 0.936-1.22 2.49-5.59 2.32 6.34 2.29 2.8 0.328-2.52 2.3 2.59 2.22-1.96 2.8-2.88 2 3.04 0.535 6.8 1.54-5.41 1.04-8.12 2.49 1.7 2.5 3.12 2.44 8.22 2.39-0.879 1.62-1.8 3.23 1.28 0.159 3.13 2.51-0.549" clip-path="url(#m)" fill="none" stroke-dasharray="1.5,2.475" stroke-width="1.5"/>
<g clip-path="url(#m)" fill="#1f77b4" fill-opacity=".9">
<use x="184.742095" y="613.219714" xlink:href="#a"/>
<use x="218.636041" y="641.061418" xlink:href="#a"/>
<use x="239.344714" y="626.258234" xlink:href="#a"/>
<use x="255.207532" y="632.777494" xlink:href="#a"/>
<use x="273.891109" y="671.893053" xlink:href="#a"/>
<use x="288.870959" y="684.931573" xlink:href="#a"/>
<use x="291.316781" y="684.931573" xlink:href="#a"/>
<use x="293.727021" y="684.931573" xlink:href="#a"/>
<use x="296.358204" y="678.412313" xlink:href="#a"/>
<use x="298.637329" y="678.412313" xlink:href="#a"/>
<use x="301.39934" y="684.931573" xlink:href="#a"/>
<use x="303.916726" y="671.893053" xlink:href="#a"/>
<use x="305.815725" y="684.931573" xlink:href="#a"/>
<use x="308.646232" y="678.412313" xlink:href="#a"/>
<use x="311.14974" y="678.412313" xlink:href="#a"/>
<use x="313.622656" y="678.412313" xlink:href="#a"/>
<use x="316.340513" y="678.412313" xlink:href="#a"/>
<use x="318.816755" y="671.893053" xlink:href="#a"/>
<use x="321.039283" y="671.893053" xlink:href="#a"/>
<use x="323.665133" y="678.412313" xlink:href="#a"/>
<use x="325.523447" y="671.893053" xlink:href="#a"/>
<use x="328.433517" y="678.412313" xlink:href="#a"/>
<use x="330.851097" y="665.373794" xlink:href="#a"/>
<use x="333.647858" y="671.893053" xlink:href="#a"/>
<use x="335.987222" y="665.373794" xlink:href="#a"/>
<use x="337.25109" y="671.893053" xlink:href="#a"/>
<use x="338.515044" y="665.373794" xlink:href="#a"/>
<use x="340.346579" y="671.893053" xlink:href="#a"/>
<use x="341.460811" y="671.893053" xlink:href="#a"/>
<use x="343.46664" y="671.893053" xlink:href="#a"/>
<use x="345.812082" y="665.373794" xlink:href="#a"/>
<use x="348.541723" y="671.893053" xlink:href="#a"/>
<use x="350.729931" y="671.893053" xlink:href="#a"/>
<use x="353.450512" y="665.373794" xlink:href="#a"/>
<use x="355.992583" y="658.854534" xlink:href="#a"/>
<use x="358.342929" y="671.893053" xlink:href="#a"/>
<use x="360.920496" y="678.412313" xlink:href="#a"/>
<use x="361.107319" y="671.893053" xlink:href="#a"/>
<use x="363.356885" y="658.854534" xlink:href="#a"/>
<use x="365.881438" y="665.373794" xlink:href="#a"/>
<use x="368.063281" y="665.373794" xlink:href="#a"/>
<use x="370.704442" y="658.854534" xlink:href="#a"/>
<use x="372.816183" y="605.98804" xlink:href="#a"/>
<use x="373.356067" y="593.661934" xlink:href="#a"/>
<use x="375.370354" y="567.584895" xlink:href="#a"/>
<use x="375.775941" y="561.065635" xlink:href="#a"/>
<use x="378.009164" y="554.546375" xlink:href="#a"/>
<use x="380.592723" y="561.065635" xlink:href="#a"/>
<use x="382.951555" y="585.3487" xlink:href="#a"/>
<use x="385.449559" y="584.918113" xlink:href="#a"/>
<use x="387.253655" y="586.926335" xlink:href="#a"/>
<use x="388.110503" y="589.885345" xlink:href="#a"/>
<use x="389.917237" y="585.935162" xlink:href="#a"/>
<use x="392.32137" y="582.772851" xlink:href="#a"/>
<use x="392.808183" y="584.558746" xlink:href="#a"/>
<use x="395.037678" y="580.406617" xlink:href="#a"/>
<use x="397.600566" y="584.993338" xlink:href="#a"/>
<use x="400.492286" y="596.608508" xlink:href="#a"/>
<use x="403.054858" y="579.280087" xlink:href="#a"/>
<use x="404.931407" y="584.232411" xlink:href="#a"/>
<use x="405.54082" y="583.009033" xlink:href="#a"/>
<use x="407.733529" y="580.537096" xlink:href="#a"/>
<use x="408.444582" y="574.728327" xlink:href="#a"/>
<use x="410.210803" y="576.679388" xlink:href="#a"/>
<use x="412.30775" y="578.241788" xlink:href="#a"/>
<use x="413.544065" y="581.981857" xlink:href="#a"/>
<use x="414.867312" y="582.320724" xlink:href="#a"/>
<use x="417.31838" y="577.637747" xlink:href="#a"/>
<use x="420.378001" y="585.028138" xlink:href="#a"/>
<use x="421.75148" y="584.667982" xlink:href="#a"/>
<use x="422.180377" y="584.481446" xlink:href="#a"/>
<use x="422.766537" y="584.66113" xlink:href="#a"/>
<use x="424.011969" y="584.097319" xlink:href="#a"/>
<use x="425.090075" y="586.397706" xlink:href="#a"/>
<use x="427.004298" y="582.223926" xlink:href="#a"/>
<use x="427.202991" y="579.744693" xlink:href="#a"/>
<use x="429.385265" y="577.459448" xlink:href="#a"/>
<use x="432.673082" y="581.375468" xlink:href="#a"/>
<use x="434.913902" y="579.739551" xlink:href="#a"/>
<use x="437.627745" y="580.062235" xlink:href="#a"/>
<use x="438.345306" y="577.076297" xlink:href="#a"/>
<use x="439.309099" y="578.175575" xlink:href="#a"/>
<use x="442.619251" y="565.220893" xlink:href="#a"/>
<use x="444.687498" y="568.973197" xlink:href="#a"/>
<use x="449.574467" y="568.699161" xlink:href="#a"/>
<use x="452.285701" y="554.182155" xlink:href="#a"/>
<use x="454.473336" y="557.228415" xlink:href="#a"/>
<use x="456.869039" y="559.6374" xlink:href="#a"/>
<use x="459.778995" y="553.057301" xlink:href="#a"/>
<use x="462.282704" y="555.927426" xlink:href="#a"/>
<use x="464.650769" y="560.21212" xlink:href="#a"/>
<use x="467.234013" y="559.785278" xlink:href="#a"/>
<use x="469.581979" y="556.201561" xlink:href="#a"/>
<use x="472.111636" y="563.744572" xlink:href="#a"/>
<use x="474.673032" y="558.792233" xlink:href="#a"/>
<use x="476.825831" y="557.476826" xlink:href="#a"/>
<use x="479.588415" y="555.442715" xlink:href="#a"/>
<use x="482.254835" y="554.641857" xlink:href="#a"/>
<use x="484.559593" y="562.782575" xlink:href="#a"/>
<use x="487.20924" y="561.054717" xlink:href="#a"/>
<use x="489.486645" y="555.751948" xlink:href="#a"/>
<use x="494.239777" y="556.662786" xlink:href="#a"/>
<use x="496.319893" y="554.765235" xlink:href="#a"/>
<use x="497.263386" y="556.965589" xlink:href="#a"/>
<use x="499.163589" y="553.137402" xlink:href="#a"/>
<use x="502.022481" y="556.763803" xlink:href="#a"/>
<use x="503.860667" y="555.503421" xlink:href="#a"/>
<use x="506.989874" y="506.223861" xlink:href="#a"/>
<use x="507.2511" y="504.32152" xlink:href="#a"/>
<use x="509.255151" y="487.460551" xlink:href="#a"/>
<use x="511.247763" y="485.507935" xlink:href="#a"/>
<use x="512.012919" y="486.794396" xlink:href="#a"/>
<use x="514.363207" y="492.458686" xlink:href="#a"/>
<use x="516.754094" y="492.565936" xlink:href="#a"/>
<use x="519.458848" y="494.960495" xlink:href="#a"/>
<use x="521.915736" y="507.863627" xlink:href="#a"/>
<use x="524.349917" y="504.661556" xlink:href="#a"/>
<use x="524.54583" y="508.04539" xlink:href="#a"/>
<use x="525.83662" y="503.070591" xlink:href="#a"/>
<use x="526.912977" y="508.07369" xlink:href="#a"/>
<use x="528.522221" y="494.076119" xlink:href="#a"/>
<use x="529.309999" y="499.507593" xlink:href="#a"/>
<use x="531.684085" y="496.000829" xlink:href="#a"/>
<use x="533.728276" y="492.721545" xlink:href="#a"/>
<use x="536.274849" y="492.631944" xlink:href="#a"/>
<use x="539.289284" y="504.393707" xlink:href="#a"/>
<use x="540.472814" y="507.092087" xlink:href="#a"/>
<use x="541.763232" y="505.90928" xlink:href="#a"/>
<use x="544.226113" y="491.774978" xlink:href="#a"/>
<use x="546.535344" y="492.249199" xlink:href="#a"/>
<use x="548.525203" y="473.580132" xlink:href="#a"/>
<use x="550.91328" y="481.102675" xlink:href="#a"/>
<use x="553.334214" y="480.741696" xlink:href="#a"/>
<use x="554.061696" y="479.839307" xlink:href="#a"/>
<use x="555.854725" y="489.645051" xlink:href="#a"/>
<use x="558.980807" y="489.926828" xlink:href="#a"/>
<use x="561.112446" y="481.90303" xlink:href="#a"/>
<use x="564.000095" y="484.59472" xlink:href="#a"/>
<use x="566.37894" y="494.790127" xlink:href="#a"/>
<use x="568.951748" y="490.649289" xlink:href="#a"/>
<use x="571.415202" y="488.581924" xlink:href="#a"/>
<use x="573.718899" y="493.108873" xlink:href="#a"/>
<use x="576.424141" y="487.474453" xlink:href="#a"/>
<use x="578.815515" y="489.716993" xlink:href="#a"/>
<use x="580.708149" y="488.325194" xlink:href="#a"/>
<use x="580.848553" y="485.46195" xlink:href="#a"/>
<use x="583.585018" y="486.49098" xlink:href="#a"/>
<use x="585.820792" y="489.558616" xlink:href="#a"/>
<use x="588.824016" y="488.172924" xlink:href="#a"/>
<use x="590.886585" y="486.814909" xlink:href="#a"/>
<use x="593.740374" y="482.4803" xlink:href="#a"/>
<use x="596.010382" y="483.778838" xlink:href="#a"/>
<use x="598.718777" y="485.048907" xlink:href="#a"/>
<use x="600.568776" y="481.748502" xlink:href="#a"/>
<use x="603.046595" y="485.529989" xlink:href="#a"/>
<use x="606.187672" y="484.690654" xlink:href="#a"/>
<use x="608.37998" y="482.46963" xlink:href="#a"/>
<use x="609.333164" y="488.455404" xlink:href="#a"/>
<use x="609.601041" y="488.056125" xlink:href="#a"/>
<use x="610.804642" y="490.528133" xlink:href="#a"/>
<use x="612.625052" y="489.880307" xlink:href="#a"/>
<use x="613.351272" y="489.070769" xlink:href="#a"/>
<use x="616.014911" y="502.357726" xlink:href="#a"/>
<use x="618.072664" y="493.643871" xlink:href="#a"/>
<use x="618.32807" y="490.98765" xlink:href="#a"/>
<use x="620.749951" y="486.82526" xlink:href="#a"/>
<use x="623.220172" y="499.103494" xlink:href="#a"/>
<use x="623.702168" y="491.248336" xlink:href="#a"/>
<use x="625.864228" y="495.415889" xlink:href="#a"/>
<use x="628.350935" y="488.670797" xlink:href="#a"/>
<use x="630.821041" y="490.947859" xlink:href="#a"/>
<use x="633.368991" y="487.037855" xlink:href="#a"/>
<use x="635.586415" y="490.734754" xlink:href="#a"/>
<use x="638.110166" y="488.808401" xlink:href="#a"/>
<use x="640.436513" y="498.798158" xlink:href="#a"/>
<use x="642.290211" y="471.035572" xlink:href="#a"/>
<use x="643.225963" y="469.817566" xlink:href="#a"/>
<use x="645.715365" y="464.228963" xlink:href="#a"/>
<use x="648.034201" y="470.571878" xlink:href="#a"/>
<use x="650.319404" y="473.3733" xlink:href="#a"/>
<use x="650.646919" y="470.850616" xlink:href="#a"/>
<use x="652.950014" y="473.44114" xlink:href="#a"/>
<use x="655.171854" y="471.477719" xlink:href="#a"/>
<use x="657.971539" y="468.597927" xlink:href="#a"/>
<use x="659.969454" y="471.633696" xlink:href="#a"/>
<use x="660.504092" y="478.431637" xlink:href="#a"/>
<use x="662.046503" y="473.018553" xlink:href="#a"/>
<use x="663.08897" y="464.898636" xlink:href="#a"/>
<use x="665.582042" y="466.593966" xlink:href="#a"/>
<use x="668.082081" y="469.71854" xlink:href="#a"/>
<use x="670.521681" y="477.935449" xlink:href="#a"/>
<use x="672.907923" y="477.056915" xlink:href="#a"/>
<use x="674.526916" y="475.252801" xlink:href="#a"/>
<use x="677.756703" y="476.531286" xlink:href="#a"/>
<use x="677.915543" y="479.665221" xlink:href="#a"/>
<use x="680.426821" y="479.115722" xlink:href="#a"/>
</g>
</g>
<g stroke="#2ca02c" stroke-opacity=".9">
<path d="m185 577 391-112 76.6-7.84 8.21-1.21 1.54 3.04 1.04-1.03 2.49 0.219 2.5-31.6 2.44 35.5 2.39-35.8 1.62 32.6 3.39-47 2.51 14.9" clip-path="url(#m)" fill="none" stroke-linecap="square" stroke-width="1.5"/>
<g clip-path="url(#m)" fill="#2ca02c" fill-opacity=".9">
<use x="184.742095" y="577.293837" xlink:href="#q"/>
<use x="575.731437" y="465.615145" xlink:href="#q"/>
<use x="652.299027" y="457.771766" xlink:href="#q"/>
<use x="660.504092" y="456.558707" xlink:href="#q"/>
<use x="662.046503" y="459.602952" xlink:href="#q"/>
<use x="663.08897" y="458.57705" xlink:href="#q"/>
<use x="665.582042" y="458.795639" xlink:href="#q"/>
<use x="668.082081" y="427.224025" xlink:href="#q"/>
<use x="670.521681" y="462.677885" xlink:href="#q"/>
<use x="672.907923" y="426.923157" xlink:href="#q"/>
<use x="674.526916" y="459.555514" xlink:href="#q"/>
<use x="677.915543" y="412.531817" xlink:href="#q"/>
<use x="680.426821" y="427.405629" xlink:href="#q"/>
</g>
</g>
<path d="m40.6 706v-316" fill="none" stroke="#000" stroke-linecap="square" stroke-width=".8"/>
<path d="m711 706v-316" fill="none" stroke="#000" stroke-linecap="square" stroke-width=".8"/>
<path d="m40.6 706h670" fill="none" stroke="#000" stroke-linecap="square" stroke-width=".8"/>
<path d="m40.6 390h670" fill="none" stroke="#000" stroke-linecap="square" stroke-width=".8"/>
<g clip-path="url(#m)">
<g transform="translate(58.2 397) rotate(-90) scale(.1 -.1)">
<use xlink:href="#y"/>
<use transform="translate(35.2)" xlink:href="#u"/>
<use transform="translate(96.5)" xlink:href="#v"/>
<use transform="translate(149)" xlink:href="#o"/>
<use transform="translate(188)" xlink:href="#l"/>
<use transform="translate(249)" xlink:href="#r"/>
<use transform="translate(290)" xlink:href="#DejaVuSans-20"/>
<use transform="translate(322)" xlink:href="#ao"/>
</g>
</g>
<g clip-path="url(#m)">
<g transform="translate(58.2 465) rotate(-90) scale(.1 -.1)">
<use xlink:href="#ap"/>
<use transform="translate(143)" xlink:href="#DejaVuSans-20"/>
<use transform="translate(175)" xlink:href="#v"/>
<use transform="translate(227)" xlink:href="#s"/>
<use transform="translate(255)" xlink:href="#w"/>
<use transform="translate(316)" xlink:href="#ag"/>
<use transform="translate(398)" xlink:href="#l"/>
<use transform="translate(460)" xlink:href="#r"/>
</g>
</g>
<g transform="translate(229 384) scale(.12 -.12)">
<use xlink:href="#al"/>
<use transform="translate(63.2)" xlink:href="#y"/>
<use transform="translate(98.4)" xlink:href="#y"/>
<use transform="translate(134)" xlink:href="#l"/>
<use transform="translate(195)" xlink:href="#aa"/>
<use transform="translate(250)" xlink:href="#o"/>
<use transform="translate(289)" xlink:href="#DejaVuSans-20"/>
<use transform="translate(321)" xlink:href="#w"/>
<use transform="translate(382)" xlink:href="#y"/>
<use transform="translate(417)" xlink:href="#DejaVuSans-20"/>
<use transform="translate(449)" xlink:href="#y"/>
<use transform="translate(484)" xlink:href="#r"/>
<use transform="translate(523)" xlink:href="#l"/>
<use transform="translate(585)" xlink:href="#l"/>
<use transform="translate(646)" xlink:href="#DejaVuSans-20"/>
<use transform="translate(678)" xlink:href="#o"/>
<use transform="translate(717)" xlink:href="#aq"/>
<use transform="translate(781)" xlink:href="#r"/>
<use transform="translate(820)" xlink:href="#l"/>
<use transform="translate(881)" xlink:href="#u"/>
<use transform="translate(942)" xlink:href="#ak"/>
<use transform="translate(1006)" xlink:href="#p"/>
<use transform="translate(1034)" xlink:href="#z"/>
<use transform="translate(1097)" xlink:href="#aj"/>
<use transform="translate(1161)" xlink:href="#DejaVuSans-20"/>
<use transform="translate(1192)" xlink:href="#ad"/>
<use transform="translate(1252)" xlink:href="#v"/>
<use transform="translate(1304)" xlink:href="#i"/>
<use transform="translate(1335)" xlink:href="#DejaVuSans-20"/>
<use transform="translate(1367)" xlink:href="#ah"/>
<use transform="translate(1425)" xlink:href="#p"/>
<use transform="translate(1453)" xlink:href="#l"/>
<use transform="translate(1514)" xlink:href="#r"/>
<use transform="translate(1556)" xlink:href="#DejaVuSans-20"/>
<use transform="translate(1587)" xlink:href="#d"/>
<use transform="translate(1651)" xlink:href="#DejaVuSans-20"/>
<use transform="translate(1683)" xlink:href="#an"/>
<use transform="translate(1722)" xlink:href="#v"/>
<use transform="translate(1774)" xlink:href="#u"/>
<use transform="translate(1835)" xlink:href="#x"/>
<use transform="translate(1933)" xlink:href="#l"/>
<use transform="translate(1994)" xlink:href="#DejaVuSans-20"/>
<use transform="translate(2026)" xlink:href="#aa"/>
<use transform="translate(2081)" xlink:href="#w"/>
<use transform="translate(2142)" xlink:href="#x"/>
<use transform="translate(2239)" xlink:href="#x"/>
<use transform="translate(2337)" xlink:href="#p"/>
<use transform="translate(2365)" xlink:href="#o"/>
<use transform="translate(2404)" xlink:href="#am"/>
</g>
<path d="m47.6 442h82.6q2 0 2-2v-43q0-2-2-2h-82.6q-2 0-2 2v43q0 2 2 2z" fill="#fff" opacity=".8" stroke="#ccc"/>
<path d="m49.6 403h10 10" fill="none" stroke="#1f77b4" stroke-linecap="square" stroke-opacity=".9" stroke-width="1.5"/>
<use x="59.645553" y="403.359462" fill="#1f77b4" fill-opacity=".9" stroke="#1f77b4" stroke-opacity=".9" xlink:href="#a"/>
<g transform="translate(77.6 407) scale(.1 -.1)">
<use xlink:href="#s"/>
<use transform="translate(27.8)" xlink:href="#p"/>
<use transform="translate(55.6)" xlink:href="#z"/>
<use transform="translate(119)" xlink:href="#ab"/>
<use transform="translate(182)" xlink:href="#ae"/>
</g>
<path d="m49.6 418h10 10" fill="none" stroke="#1f77b4" stroke-dasharray="1.5,2.475" stroke-opacity=".9" stroke-width="1.5"/>
<use x="59.645553" y="418.037587" fill="#1f77b4" fill-opacity=".9" stroke="#1f77b4" stroke-opacity=".9" xlink:href="#a"/>
<g transform="translate(77.6 422) scale(.1 -.1)">
<use xlink:href="#s"/>
<use transform="translate(27.8)" xlink:href="#p"/>
<use transform="translate(55.6)" xlink:href="#z"/>
<use transform="translate(119)" xlink:href="#ab"/>
<use transform="translate(182)" xlink:href="#ae"/>
<use transform="translate(242)" xlink:href="#e"/>
<use transform="translate(275)" xlink:href="#ad"/>
<use transform="translate(334)" xlink:href="#ab"/>
<use transform="translate(398)" xlink:href="#s"/>
<use transform="translate(425)" xlink:href="#o"/>
<use transform="translate(465)" xlink:href="#r"/>
</g>
<path d="m49.6 433h10 10" fill="none" stroke="#2ca02c" stroke-linecap="square" stroke-opacity=".9" stroke-width="1.5"/>
<use x="59.645553" y="432.715712" fill="#2ca02c" fill-opacity=".9" stroke="#2ca02c" stroke-opacity=".9" xlink:href="#q"/>
<g transform="translate(77.6 436) scale(.1 -.1)">
<use xlink:href="#x"/>
<use transform="translate(97.4)" xlink:href="#u"/>
<use transform="translate(159)" xlink:href="#aa"/>
<use transform="translate(214)" xlink:href="#w"/>
<use transform="translate(275)" xlink:href="#v"/>
</g>
<path d="m40.6 1060h670v-316h-670z" fill="#fff"/>
<path d="m94.1 1060v-316" clip-path="url(#g)" fill="none" stroke="#b0b0b0" stroke-linecap="square" stroke-width=".8"/>
<use x="94.090839" y="1060.321635" stroke="#000000" stroke-width=".8" xlink:href="#f"/>
<g transform="translate(73.2 1075) scale(.1 -.1)">
<use xlink:href="#c"/>
<use transform="translate(63.6)" xlink:href="#b"/>
<use transform="translate(127)" xlink:href="#c"/>
<use transform="translate(191)" xlink:href="#t"/>
<use transform="translate(254)" xlink:href="#e"/>
<use transform="translate(291)" xlink:href="#b"/>
<use transform="translate(354)" xlink:href="#ai"/>
</g>
<path d="m171 1060v-316" clip-path="url(#g)" fill="none" stroke="#b0b0b0" stroke-linecap="square" stroke-width=".8"/>
<use x="170.884562" y="1060.321635" stroke="#000000" stroke-width=".8" xlink:href="#f"/>
<g transform="translate(150 1075) scale(.1 -.1)">
<use xlink:href="#c"/>
<use transform="translate(63.6)" xlink:href="#b"/>
<use transform="translate(127)" xlink:href="#c"/>
<use transform="translate(191)" xlink:href="#t"/>
<use transform="translate(254)" xlink:href="#e"/>
<use transform="translate(291)" xlink:href="#b"/>
<use transform="translate(354)" xlink:href="#ac"/>
</g>
<path d="m245 1060v-316" clip-path="url(#g)" fill="none" stroke="#b0b0b0" stroke-linecap="square" stroke-width=".8"/>
<use x="245.201067" y="1060.321635" stroke="#000000" stroke-width=".8" xlink:href="#f"/>
<g transform="translate(224 1075) scale(.1 -.1)">
<use xlink:href="#c"/>
<use transform="translate(63.6)" xlink:href="#b"/>
<use transform="translate(127)" xlink:href="#c"/>
<use transform="translate(191)" xlink:href="#t"/>
<use transform="translate(254)" xlink:href="#e"/>
<use transform="translate(291)" xlink:href="#d"/>
<use transform="translate(354)" xlink:href="#b"/>
</g>
<path d="m322 1060v-316" clip-path="url(#g)" fill="none" stroke="#b0b0b0" stroke-linecap="square" stroke-width=".8"/>
<use x="321.994789" y="1060.321635" stroke="#000000" stroke-width=".8" xlink:href="#f"/>
<g transform="translate(301 1075) scale(.1 -.1)">
<use xlink:href="#c"/>
<use transform="translate(63.6)" xlink:href="#b"/>
<use transform="translate(127)" xlink:href="#c"/>
<use transform="translate(191)" xlink:href="#t"/>
<use transform="translate(254)" xlink:href="#e"/>
<use transform="translate(291)" xlink:href="#d"/>
<use transform="translate(354)" xlink:href="#d"/>
</g>
<path d="m396 1060v-316" clip-path="url(#g)" fill="none" stroke="#b0b0b0" stroke-linecap="square" stroke-width=".8"/>
<use x="396.311295" y="1060.321635" stroke="#000000" stroke-width=".8" xlink:href="#f"/>
<g transform="translate(375 1075) scale(.1 -.1)">
<use xlink:href="#c"/>
<use transform="translate(63.6)" xlink:href="#b"/>
<use transform="translate(127)" xlink:href="#c"/>
<use transform="translate(191)" xlink:href="#t"/>
<use transform="translate(254)" xlink:href="#e"/>
<use transform="translate(291)" xlink:href="#d"/>
<use transform="translate(354)" xlink:href="#c"/>
</g>
<path d="m473 1060v-316" clip-path="url(#g)" fill="none" stroke="#b0b0b0" stroke-linecap="square" stroke-width=".8"/>
<use x="473.105017" y="1060.321635" stroke="#000000" stroke-width=".8" xlink:href="#f"/>
<g transform="translate(452 1075) scale(.1 -.1)">
<use xlink:href="#c"/>
<use transform="translate(63.6)" xlink:href="#b"/>
<use transform="translate(127)" xlink:href="#c"/>
<use transform="translate(191)" xlink:href="#n"/>
<use transform="translate(254)" xlink:href="#e"/>
<use transform="translate(291)" xlink:href="#b"/>
<use transform="translate(354)" xlink:href="#d"/>
</g>
<path d="m550 1060v-316" clip-path="url(#g)" fill="none" stroke="#b0b0b0" stroke-linecap="square" stroke-width=".8"/>
<use x="549.898739" y="1060.321635" stroke="#000000" stroke-width=".8" xlink:href="#f"/>
<g transform="translate(529 1075) scale(.1 -.1)">
<use xlink:href="#c"/>
<use transform="translate(63.6)" xlink:href="#b"/>
<use transform="translate(127)" xlink:href="#c"/>
<use transform="translate(191)" xlink:href="#n"/>
<use transform="translate(254)" xlink:href="#e"/>
<use transform="translate(291)" xlink:href="#b"/>
<use transform="translate(354)" xlink:href="#c"/>
</g>
<path d="m619 1060v-316" clip-path="url(#g)" fill="none" stroke="#b0b0b0" stroke-linecap="square" stroke-width=".8"/>
<use x="619.260811" y="1060.321635" stroke="#000000" stroke-width=".8" xlink:href="#f"/>
<g transform="translate(598 1075) scale(.1 -.1)">
<use xlink:href="#c"/>
<use transform="translate(63.6)" xlink:href="#b"/>
<use transform="translate(127)" xlink:href="#c"/>
<use transform="translate(191)" xlink:href="#n"/>
<use transform="translate(254)" xlink:href="#e"/>
<use transform="translate(291)" xlink:href="#b"/>
<use transform="translate(354)" xlink:href="#af"/>
</g>
<path d="m696 1060v-316" clip-path="url(#g)" fill="none" stroke="#b0b0b0" stroke-linecap="square" stroke-width=".8"/>
<use x="696.054533" y="1060.321635" stroke="#000000" stroke-width=".8" xlink:href="#f"/>
<g transform="translate(675 1075) scale(.1 -.1)">
<use xlink:href="#c"/>
<use transform="translate(63.6)" xlink:href="#b"/>
<use transform="translate(127)" xlink:href="#c"/>
<use transform="translate(191)" xlink:href="#n"/>
<use transform="translate(254)" xlink:href="#e"/>
<use transform="translate(291)" xlink:href="#b"/>
<use transform="translate(354)" xlink:href="#t"/>
</g>
<path d="m40.6 1060h670" clip-path="url(#g)" fill="none" stroke="#b0b0b0" stroke-linecap="square" stroke-width=".8"/>
<use x="40.645553" y="1060.321635" stroke="#000000" stroke-width=".8" xlink:href="#j"/>
<g transform="translate(3 1064) scale(.1 -.1)">
<use xlink:href="#b"/>
<use transform="translate(63.6)" xlink:href="#i"/>
<use transform="translate(95.4)" xlink:href="#ac"/>
<use transform="translate(159)" xlink:href="#b"/>
<use transform="translate(223)" xlink:href="#k"/>
</g>
<path d="m40.6 1021h670" clip-path="url(#g)" fill="none" stroke="#b0b0b0" stroke-linecap="square" stroke-width=".8"/>
<use x="40.645553" y="1020.880112" stroke="#000000" stroke-width=".8" xlink:href="#j"/>
<g transform="translate(3 1025) scale(.1 -.1)">
<use xlink:href="#b"/>
<use transform="translate(63.6)" xlink:href="#i"/>
<use transform="translate(95.4)" xlink:href="#ac"/>
<use transform="translate(159)" xlink:href="#n"/>
<use transform="translate(223)" xlink:href="#k"/>
</g>
<path d="m40.6 981h670" clip-path="url(#g)" fill="none" stroke="#b0b0b0" stroke-linecap="square" stroke-width=".8"/>
<use x="40.645553" y="981.43859" stroke="#000000" stroke-width=".8" xlink:href="#j"/>
<g transform="translate(3 985) scale(.1 -.1)">
<use xlink:href="#d"/>
<use transform="translate(63.6)" xlink:href="#i"/>
<use transform="translate(95.4)" xlink:href="#b"/>
<use transform="translate(159)" xlink:href="#b"/>
<use transform="translate(223)" xlink:href="#k"/>
</g>
<path d="m40.6 942h670" clip-path="url(#g)" fill="none" stroke="#b0b0b0" stroke-linecap="square" stroke-width=".8"/>
<use x="40.645553" y="941.997067" stroke="#000000" stroke-width=".8" xlink:href="#j"/>
<g transform="translate(3 946) scale(.1 -.1)">
<use xlink:href="#d"/>
<use transform="translate(63.6)" xlink:href="#i"/>
<use transform="translate(95.4)" xlink:href="#b"/>
<use transform="translate(159)" xlink:href="#n"/>
<use transform="translate(223)" xlink:href="#k"/>
</g>
<path d="m40.6 903h670" clip-path="url(#g)" fill="none" stroke="#b0b0b0" stroke-linecap="square" stroke-width=".8"/>
<use x="40.645553" y="902.555545" stroke="#000000" stroke-width=".8" xlink:href="#j"/>
<g transform="translate(3 906) scale(.1 -.1)">
<use xlink:href="#d"/>
<use transform="translate(63.6)" xlink:href="#i"/>
<use transform="translate(95.4)" xlink:href="#d"/>
<use transform="translate(159)" xlink:href="#b"/>
<use transform="translate(223)" xlink:href="#k"/>
</g>
<path d="m40.6 863h670" clip-path="url(#g)" fill="none" stroke="#b0b0b0" stroke-linecap="square" stroke-width=".8"/>
<use x="40.645553" y="863.114022" stroke="#000000" stroke-width=".8" xlink:href="#j"/>
<g transform="translate(3 867) scale(.1 -.1)">
<use xlink:href="#d"/>
<use transform="translate(63.6)" xlink:href="#i"/>
<use transform="translate(95.4)" xlink:href="#d"/>
<use transform="translate(159)" xlink:href="#n"/>
<use transform="translate(223)" xlink:href="#k"/>
</g>
<path d="m40.6 824h670" clip-path="url(#g)" fill="none" stroke="#b0b0b0" stroke-linecap="square" stroke-width=".8"/>
<use x="40.645553" y="823.6725" stroke="#000000" stroke-width=".8" xlink:href="#j"/>
<g transform="translate(3 827) scale(.1 -.1)">
<use xlink:href="#d"/>
<use transform="translate(63.6)" xlink:href="#i"/>
<use transform="translate(95.4)" xlink:href="#c"/>
<use transform="translate(159)" xlink:href="#b"/>
<use transform="translate(223)" xlink:href="#k"/>
</g>
<path d="m40.6 784h670" clip-path="url(#g)" fill="none" stroke="#b0b0b0" stroke-linecap="square" stroke-width=".8"/>
<use x="40.645553" y="784.230977" stroke="#000000" stroke-width=".8" xlink:href="#j"/>
<g transform="translate(3 788) scale(.1 -.1)">
<use xlink:href="#d"/>
<use transform="translate(63.6)" xlink:href="#i"/>
<use transform="translate(95.4)" xlink:href="#c"/>
<use transform="translate(159)" xlink:href="#n"/>
<use transform="translate(223)" xlink:href="#k"/>
</g>
<path d="m40.6 745h670" clip-path="url(#g)" fill="none" stroke="#b0b0b0" stroke-linecap="square" stroke-width=".8"/>
<use x="40.645553" y="744.789455" stroke="#000000" stroke-width=".8" xlink:href="#j"/>
<g transform="translate(3 749) scale(.1 -.1)">
<use xlink:href="#d"/>
<use transform="translate(63.6)" xlink:href="#i"/>
<use transform="translate(95.4)" xlink:href="#af"/>
<use transform="translate(159)" xlink:href="#b"/>
<use transform="translate(223)" xlink:href="#k"/>
</g>
<path d="m673 989" clip-path="url(#g)" fill="none" stroke="#1f77b4" stroke-linecap="square" stroke-opacity=".9" stroke-width="1.5"/>
<g clip-path="url(#g)">
<use x="672.907923" y="988.744875" fill="#1f77b4" fill-opacity=".9" stroke="#1f77b4" stroke-opacity=".9" xlink:href="#a"/>
</g>
<path d="m673 963" clip-path="url(#g)" fill="none" stroke="#1f77b4" stroke-dasharray="1.5,2.475" stroke-opacity=".9" stroke-width="1.5"/>
<g clip-path="url(#g)">
<use x="672.907923" y="963.030918" fill="#1f77b4" fill-opacity=".9" stroke="#1f77b4" stroke-opacity=".9" xlink:href="#a"/>
</g>
<path d="m673 967" clip-path="url(#g)" fill="none" stroke="#2ca02c" stroke-linecap="square" stroke-opacity=".9" stroke-width="1.5"/>
<g clip-path="url(#g)">
<use x="672.907923" y="966.706485" fill="#2ca02c" fill-opacity=".9" stroke="#2ca02c" stroke-opacity=".9" xlink:href="#q"/>
</g>
<path d="m40.6 1060v-316" fill="none" stroke="#000" stroke-linecap="square" stroke-width=".8"/>
<path d="m711 1060v-316" fill="none" stroke="#000" stroke-linecap="square" stroke-width=".8"/>
<path d="m40.6 1060h670" fill="none" stroke="#000" stroke-linecap="square" stroke-width=".8"/>
<path d="m40.6 745h670" fill="none" stroke="#000" stroke-linecap="square" stroke-width=".8"/>
<g clip-path="url(#g)">
<g transform="translate(58.2 974) rotate(-90) scale(.1 -.1)">
<use xlink:href="#y"/>
<use transform="translate(35.2)" xlink:href="#u"/>
<use transform="translate(96.5)" xlink:href="#v"/>
<use transform="translate(149)" xlink:href="#o"/>
<use transform="translate(188)" xlink:href="#l"/>
<use transform="translate(249)" xlink:href="#r"/>
<use transform="translate(290)" xlink:href="#DejaVuSans-20"/>
<use transform="translate(322)" xlink:href="#ao"/>
</g>
</g>
<g clip-path="url(#g)">
<g transform="translate(58.2 1042) rotate(-90) scale(.1 -.1)">
<use xlink:href="#ap"/>
<use transform="translate(143)" xlink:href="#DejaVuSans-20"/>
<use transform="translate(175)" xlink:href="#v"/>
<use transform="translate(227)" xlink:href="#s"/>
<use transform="translate(255)" xlink:href="#w"/>
<use transform="translate(316)" xlink:href="#ag"/>
<use transform="translate(398)" xlink:href="#l"/>
<use transform="translate(460)" xlink:href="#r"/>
</g>
</g>
<g transform="translate(265 739) scale(.12 -.12)">
<defs>
<path id="av" transform="scale(.0156)" d="m628 4666h631v-4341q0-844-320-1225t-1030-381h-240v531h197q418 0 590 235 172 234 172 840v4341z"/>
<path id="aw" transform="scale(.0156)" d="m628 4666h631v-4666h-631v4666z"/>
</defs>
<use xlink:href="#al"/>
<use transform="translate(63.2)" xlink:href="#y"/>
<use transform="translate(98.4)" xlink:href="#y"/>
<use transform="translate(134)" xlink:href="#l"/>
<use transform="translate(195)" xlink:href="#aa"/>
<use transform="translate(250)" xlink:href="#o"/>
<use transform="translate(289)" xlink:href="#DejaVuSans-20"/>
<use transform="translate(321)" xlink:href="#w"/>
<use transform="translate(382)" xlink:href="#y"/>
<use transform="translate(417)" xlink:href="#DejaVuSans-20"/>
<use transform="translate(449)" xlink:href="#av"/>
<use transform="translate(479)" xlink:href="#aw"/>
<use transform="translate(508)" xlink:href="#ah"/>
<use transform="translate(569)" xlink:href="#DejaVuSans-20"/>
<use transform="translate(601)" xlink:href="#ad"/>
<use transform="translate(660)" xlink:href="#v"/>
<use transform="translate(712)" xlink:href="#i"/>
<use transform="translate(744)" xlink:href="#DejaVuSans-20"/>
<use transform="translate(776)" xlink:href="#ah"/>
<use transform="translate(834)" xlink:href="#p"/>
<use transform="translate(862)" xlink:href="#l"/>
<use transform="translate(923)" xlink:href="#r"/>
<use transform="translate(964)" xlink:href="#DejaVuSans-20"/>
<use transform="translate(996)" xlink:href="#d"/>
<use transform="translate(1060)" xlink:href="#DejaVuSans-20"/>
<use transform="translate(1092)" xlink:href="#an"/>
<use transform="translate(1131)" xlink:href="#v"/>
<use transform="translate(1183)" xlink:href="#u"/>
<use transform="translate(1244)" xlink:href="#x"/>
<use transform="translate(1341)" xlink:href="#l"/>
<use transform="translate(1403)" xlink:href="#DejaVuSans-20"/>
<use transform="translate(1435)" xlink:href="#aa"/>
<use transform="translate(1490)" xlink:href="#w"/>
<use transform="translate(1551)" xlink:href="#x"/>
<use transform="translate(1648)" xlink:href="#x"/>
<use transform="translate(1746)" xlink:href="#p"/>
<use transform="translate(1773)" xlink:href="#o"/>
<use transform="translate(1813)" xlink:href="#am"/>
</g>
<path d="m47.6 797h82.6q2 0 2-2v-43q0-2-2-2h-82.6q-2 0-2 2v43q0 2 2 2z" fill="#fff" opacity=".8" stroke="#ccc"/>
<path d="m49.6 758h10 10" fill="none" stroke="#1f77b4" stroke-linecap="square" stroke-opacity=".9" stroke-width="1.5"/>
<use x="59.645553" y="757.887892" fill="#1f77b4" fill-opacity=".9" stroke="#1f77b4" stroke-opacity=".9" xlink:href="#a"/>
<g transform="translate(77.6 761) scale(.1 -.1)">
<use xlink:href="#s"/>
<use transform="translate(27.8)" xlink:href="#p"/>
<use transform="translate(55.6)" xlink:href="#z"/>
<use transform="translate(119)" xlink:href="#ab"/>
<use transform="translate(182)" xlink:href="#ae"/>
</g>
<path d="m49.6 773h10 10" fill="none" stroke="#1f77b4" stroke-dasharray="1.5,2.475" stroke-opacity=".9" stroke-width="1.5"/>
<use x="59.645553" y="772.566017" fill="#1f77b4" fill-opacity=".9" stroke="#1f77b4" stroke-opacity=".9" xlink:href="#a"/>
<g transform="translate(77.6 776) scale(.1 -.1)">
<use xlink:href="#s"/>
<use transform="translate(27.8)" xlink:href="#p"/>
<use transform="translate(55.6)" xlink:href="#z"/>
<use transform="translate(119)" xlink:href="#ab"/>
<use transform="translate(182)" xlink:href="#ae"/>
<use transform="translate(242)" xlink:href="#e"/>
<use transform="translate(275)" xlink:href="#ad"/>
<use transform="translate(334)" xlink:href="#ab"/>
<use transform="translate(398)" xlink:href="#s"/>
<use transform="translate(425)" xlink:href="#o"/>
<use transform="translate(465)" xlink:href="#r"/>
</g>
<path d="m49.6 787h10 10" fill="none" stroke="#2ca02c" stroke-linecap="square" stroke-opacity=".9" stroke-width="1.5"/>
<use x="59.645553" y="787.244142" fill="#2ca02c" fill-opacity=".9" stroke="#2ca02c" stroke-opacity=".9" xlink:href="#q"/>
<g transform="translate(77.6 791) scale(.1 -.1)">
<use xlink:href="#x"/>
<use transform="translate(97.4)" xlink:href="#u"/>
<use transform="translate(159)" xlink:href="#aa"/>
<use transform="translate(214)" xlink:href="#w"/>
<use transform="translate(275)" xlink:href="#v"/>
</g>
<g transform="translate(229 12.1) scale(.12 -.12)">
<defs>
<path id="au" transform="scale(.0156)" d="m1259 4147v-1753h794q441 0 681 228 241 228 241 650 0 419-241 647-240 228-681 228h-794zm-631 519h1425q785 0 1186-355 402-355 402-1039 0-691-402-1044-401-353-1186-353h-794v-1875h-631v4666z"/>
<path id="at" transform="scale(.0156)" d="m1159 525v-1856h-578v4831h578v-531q182 312 458 463 277 152 661 152 638 0 1036-506 399-506 399-1331t-399-1332q-398-506-1036-506-384 0-661 152-276 152-458 464zm1957 1222q0 634-261 995t-717 361q-457 0-718-361t-261-995 261-995 718-361q456 0 717 361t261 995z"/>
<path id="as" transform="scale(.0156)" d="m2059-325q-243-625-475-815-231-191-618-191h-460v481h338q237 0 368 113 132 112 291 531l103 262-1415 3444h609l1094-2737 1094 2737h609l-1538-3825z"/>
</defs>
<use xlink:href="#au"/>
<use transform="translate(56.7)" xlink:href="#l"/>
<use transform="translate(118)" xlink:href="#r"/>
<use transform="translate(159)" xlink:href="#y"/>
<use transform="translate(195)" xlink:href="#w"/>
<use transform="translate(256)" xlink:href="#r"/>
<use transform="translate(295)" xlink:href="#x"/>
<use transform="translate(392)" xlink:href="#u"/>
<use transform="translate(454)" xlink:href="#z"/>
<use transform="translate(517)" xlink:href="#aa"/>
<use transform="translate(572)" xlink:href="#l"/>
<use transform="translate(634)" xlink:href="#DejaVuSans-20"/>
<use transform="translate(665)" xlink:href="#p"/>
<use transform="translate(693)" xlink:href="#x"/>
<use transform="translate(791)" xlink:href="#at"/>
<use transform="translate(854)" xlink:href="#r"/>
<use transform="translate(893)" xlink:href="#w"/>
<use transform="translate(954)" xlink:href="#ad"/>
<use transform="translate(1013)" xlink:href="#l"/>
<use transform="translate(1075)" xlink:href="#x"/>
<use transform="translate(1172)" xlink:href="#l"/>
<use transform="translate(1234)" xlink:href="#z"/>
<use transform="translate(1297)" xlink:href="#o"/>
<use transform="translate(1336)" xlink:href="#DejaVuSans-20"/>
<use transform="translate(1368)" xlink:href="#ar"/>
<use transform="translate(1432)" xlink:href="#as"/>
<use transform="translate(1491)" xlink:href="#DejaVuSans-20"/>
<use transform="translate(1523)" xlink:href="#aa"/>
<use transform="translate(1578)" xlink:href="#w"/>
<use transform="translate(1639)" xlink:href="#z"/>
<use transform="translate(1702)" xlink:href="#y"/>
<use transform="translate(1737)" xlink:href="#p"/>
<use transform="translate(1765)" xlink:href="#aj"/>
<use transform="translate(1829)" xlink:href="#ab"/>
<use transform="translate(1892)" xlink:href="#r"/>
<use transform="translate(1933)" xlink:href="#u"/>
<use transform="translate(1994)" xlink:href="#o"/>
<use transform="translate(2034)" xlink:href="#p"/>
<use transform="translate(2061)" xlink:href="#w"/>
<use transform="translate(2123)" xlink:href="#z"/>
</g>
<defs>
<clipPath id="h">
<rect x="40.6" y="35.7" width="670" height="316"/>
</clipPath>
<clipPath id="m">
<rect x="40.6" y="390" width="670" height="316"/>
</clipPath>
<clipPath id="g">
<rect x="40.6" y="745" width="670" height="316"/>
</clipPath>
</defs>
</svg>
