<?xml version="1.0" encoding="UTF-8"?>
<!DOCTYPE svg  PUBLIC '-//W3C//DTD SVG 1.1//EN'  'http://www.w3.org/Graphics/SVG/1.1/DTD/svg11.dtd'>
<svg width="720pt" height="1080pt" version="1.1" viewBox="0 0 720 1080" xmlns="http://www.w3.org/2000/svg" xmlns:xlink="http://www.w3.org/1999/xlink">
<defs>
<style type="text/css">*{stroke-linejoin: round; stroke-linecap: butt}</style>
</defs>
<path d="m0 1080h720v-1080h-720z" fill="#fff"/>
<path d="m40.6 351h668v-316h-668z" fill="#fff"/>
<path d="m40.6 351v-316" clip-path="url(#n)" fill="none" stroke="#b0b0b0" stroke-linecap="square" stroke-width=".8"/>
<defs>
<path id="f" d="m0 0v3.5" stroke="#000" stroke-width=".8"/>
</defs>
<use x="40.645553" y="351.264775" stroke="#000000" stroke-width=".8" xlink:href="#f"/>
<g transform="translate(32.7 366) scale(.1 -.1)">
<defs>
<path id="b" transform="scale(.0156)" d="m2034 4250q-487 0-733-480-245-479-245-1442 0-959 245-1439 246-480 733-480 491 0 736 480 246 480 246 1439 0 963-246 1442-245 480-736 480zm0 500q785 0 1199-621 414-620 414-1801 0-1178-414-1799-414-620-1199-620-784 0-1198 620-414 621-414 1799 0 1181 414 1801 414 621 1198 621z"/>
<path id="c" transform="scale(.0156)" d="m684 794h660v-794h-660v794z"/>
</defs>
<use xlink:href="#b"/>
<use transform="translate(63.6)" xlink:href="#c"/>
<use transform="translate(95.4)" xlink:href="#b"/>
</g>
<path d="m174 351v-316" clip-path="url(#n)" fill="none" stroke="#b0b0b0" stroke-linecap="square" stroke-width=".8"/>
<use x="174.326081" y="351.264775" stroke="#000000" stroke-width=".8" xlink:href="#f"/>
<g transform="translate(166 366) scale(.1 -.1)">
<defs>
<path id="e" transform="scale(.0156)" d="m1228 531h2203v-531h-2962v531q359 372 979 998 621 627 780 809 303 340 423 576 121 236 121 464 0 372-261 606-261 235-680 235-297 0-627-103-329-103-704-313v638q381 153 712 231 332 78 607 78 725 0 1156-363 431-362 431-968 0-288-108-546-107-257-392-607-78-91-497-524-418-433-1181-1211z"/>
</defs>
<use xlink:href="#b"/>
<use transform="translate(63.6)" xlink:href="#c"/>
<use transform="translate(95.4)" xlink:href="#e"/>
</g>
<path d="m308 351v-316" clip-path="url(#n)" fill="none" stroke="#b0b0b0" stroke-linecap="square" stroke-width=".8"/>
<use x="308.00661" y="351.264775" stroke="#000000" stroke-width=".8" xlink:href="#f"/>
<g transform="translate(300 366) scale(.1 -.1)">
<defs>
<path id="x" transform="scale(.0156)" d="m2419 4116-1594-2491h1594v2491zm-166 550h794v-3041h666v-525h-666v-1100h-628v1100h-2106v609l1940 2957z"/>
</defs>
<use xlink:href="#b"/>
<use transform="translate(63.6)" xlink:href="#c"/>
<use transform="translate(95.4)" xlink:href="#x"/>
</g>
<path d="m442 351v-316" clip-path="url(#n)" fill="none" stroke="#b0b0b0" stroke-linecap="square" stroke-width=".8"/>
<use x="441.68714" y="351.264775" stroke="#000000" stroke-width=".8" xlink:href="#f"/>
<g transform="translate(434 366) scale(.1 -.1)">
<defs>
<path id="ac" transform="scale(.0156)" d="m2113 2584q-425 0-674-291-248-290-248-796 0-503 248-796 249-292 674-292t673 292q248 293 248 796 0 506-248 796-248 291-673 291zm1253 1979v-575q-238 112-480 171-242 60-480 60-625 0-955-422-329-422-376-1275 184 272 462 417 279 145 613 145 703 0 1111-427 408-426 408-1160 0-719-425-1154-425-434-1131-434-810 0-1238 620-428 621-428 1799 0 1106 525 1764t1409 658q238 0 480-47t505-140z"/>
</defs>
<use xlink:href="#b"/>
<use transform="translate(63.6)" xlink:href="#c"/>
<use transform="translate(95.4)" xlink:href="#ac"/>
</g>
<path d="m575 351v-316" clip-path="url(#n)" fill="none" stroke="#b0b0b0" stroke-linecap="square" stroke-width=".8"/>
<use x="575.367668" y="351.264775" stroke="#000000" stroke-width=".8" xlink:href="#f"/>
<g transform="translate(567 366) scale(.1 -.1)">
<defs>
<path id="z" transform="scale(.0156)" d="m2034 2216q-450 0-708-241-257-241-257-662 0-422 257-663 258-241 708-241t709 242q260 243 260 662 0 421-258 662-257 241-711 241zm-631 268q-406 100-633 378-226 279-226 679 0 559 398 884 399 325 1092 325 697 0 1094-325t397-884q0-400-227-679-226-278-629-378 456-106 710-416 255-309 255-755 0-679-414-1042-414-362-1186-362-771 0-1186 362-414 363-414 1042 0 446 256 755 257 310 713 416zm-231 997q0-362 226-565 227-203 636-203 407 0 636 203 230 203 230 565 0 363-230 566-229 203-636 203-409 0-636-203-226-203-226-566z"/>
</defs>
<use xlink:href="#b"/>
<use transform="translate(63.6)" xlink:href="#c"/>
<use transform="translate(95.4)" xlink:href="#z"/>
</g>
<path d="m709 351v-316" clip-path="url(#n)" fill="none" stroke="#b0b0b0" stroke-linecap="square" stroke-width=".8"/>
<use x="709.048197" y="351.264775" stroke="#000000" stroke-width=".8" xlink:href="#f"/>
<g transform="translate(701 366) scale(.1 -.1)">
<defs>
<path id="s" transform="scale(.0156)" d="m794 531h1031v3560l-1122-225v575l1116 225h631v-4135h1031v-531h-2687v531z"/>
</defs>
<use xlink:href="#s"/>
<use transform="translate(63.6)" xlink:href="#c"/>
<use transform="translate(95.4)" xlink:href="#b"/>
</g>
<path d="m40.6 351h668" clip-path="url(#n)" fill="none" stroke="#b0b0b0" stroke-linecap="square" stroke-width=".8"/>
<defs>
<path id="h" d="m0 0h-3.5" stroke="#000" stroke-width=".8"/>
</defs>
<use x="40.645553" y="351.264775" stroke="#000000" stroke-width=".8" xlink:href="#h"/>
<g transform="translate(3 355) scale(.1 -.1)">
<defs>
<path id="i" transform="scale(.0156)" d="m4488 3438-1429-1435 1429-1428-372-378-1435 1434-1434-1434-369 378 1425 1428-1425 1435 369 378 1434-1435 1435 1435 372-378z"/>
</defs>
<use xlink:href="#b"/>
<use transform="translate(63.6)" xlink:href="#c"/>
<use transform="translate(95.4)" xlink:href="#b"/>
<use transform="translate(159)" xlink:href="#b"/>
<use transform="translate(223)" xlink:href="#i"/>
</g>
<path d="m40.6 288h668" clip-path="url(#n)" fill="none" stroke="#b0b0b0" stroke-linecap="square" stroke-width=".8"/>
<use x="40.645553" y="288.158339" stroke="#000000" stroke-width=".8" xlink:href="#h"/>
<g transform="translate(3 292) scale(.1 -.1)">
<use xlink:href="#b"/>
<use transform="translate(63.6)" xlink:href="#c"/>
<use transform="translate(95.4)" xlink:href="#e"/>
<use transform="translate(159)" xlink:href="#b"/>
<use transform="translate(223)" xlink:href="#i"/>
</g>
<path d="m40.6 225h668" clip-path="url(#n)" fill="none" stroke="#b0b0b0" stroke-linecap="square" stroke-width=".8"/>
<use x="40.645553" y="225.051903" stroke="#000000" stroke-width=".8" xlink:href="#h"/>
<g transform="translate(3 229) scale(.1 -.1)">
<use xlink:href="#b"/>
<use transform="translate(63.6)" xlink:href="#c"/>
<use transform="translate(95.4)" xlink:href="#x"/>
<use transform="translate(159)" xlink:href="#b"/>
<use transform="translate(223)" xlink:href="#i"/>
</g>
<path d="m40.6 162h668" clip-path="url(#n)" fill="none" stroke="#b0b0b0" stroke-linecap="square" stroke-width=".8"/>
<use x="40.645553" y="161.945467" stroke="#000000" stroke-width=".8" xlink:href="#h"/>
<g transform="translate(3 166) scale(.1 -.1)">
<use xlink:href="#b"/>
<use transform="translate(63.6)" xlink:href="#c"/>
<use transform="translate(95.4)" xlink:href="#ac"/>
<use transform="translate(159)" xlink:href="#b"/>
<use transform="translate(223)" xlink:href="#i"/>
</g>
<path d="m40.6 98.8h668" clip-path="url(#n)" fill="none" stroke="#b0b0b0" stroke-linecap="square" stroke-width=".8"/>
<use x="40.645553" y="98.839031" stroke="#000000" stroke-width=".8" xlink:href="#h"/>
<g transform="translate(3 103) scale(.1 -.1)">
<use xlink:href="#b"/>
<use transform="translate(63.6)" xlink:href="#c"/>
<use transform="translate(95.4)" xlink:href="#z"/>
<use transform="translate(159)" xlink:href="#b"/>
<use transform="translate(223)" xlink:href="#i"/>
</g>
<path d="m40.6 35.7h668" clip-path="url(#n)" fill="none" stroke="#b0b0b0" stroke-linecap="square" stroke-width=".8"/>
<use x="40.645553" y="35.732595" stroke="#000000" stroke-width=".8" xlink:href="#h"/>
<g transform="translate(3 39.5) scale(.1 -.1)">
<use xlink:href="#s"/>
<use transform="translate(63.6)" xlink:href="#c"/>
<use transform="translate(95.4)" xlink:href="#b"/>
<use transform="translate(159)" xlink:href="#b"/>
<use transform="translate(223)" xlink:href="#i"/>
</g>
<path d="m40.6 351v-316" fill="none" stroke="#000" stroke-linecap="square" stroke-width=".8"/>
<path d="m709 351v-316" fill="none" stroke="#000" stroke-linecap="square" stroke-width=".8"/>
<path d="m40.6 351h668" fill="none" stroke="#000" stroke-linecap="square" stroke-width=".8"/>
<path d="m40.6 35.7h668" fill="none" stroke="#000" stroke-linecap="square" stroke-width=".8"/>
<g clip-path="url(#n)">
<g transform="translate(58.2 27.8) rotate(-90) scale(.1 -.1)">
<defs>
<path id="m" transform="scale(.0156)" d="m2375 4863v-479h-550q-309 0-430-125-120-125-120-450v-309h947v-447h-947v-3053h-578v3053h-550v447h550v244q0 584 272 851 272 268 862 268h544z"/>
<path id="p" transform="scale(.0156)" d="m2194 1759q-697 0-966-159t-269-544q0-306 202-486 202-179 548-179 479 0 768 339t289 901v128h-572zm1147 238v-2e3h-575v531q-197-318-491-470t-719-152q-537 0-855 302-317 302-317 808 0 590 395 890 396 300 1180 300h807v57q0 397-261 614t-733 217q-300 0-585-72-284-72-546-216v532q315 122 612 182 297 61 578 61 760 0 1135-394 375-393 375-1193z"/>
<path id="q" transform="scale(.0156)" d="m2834 3397v-544q-243 125-506 187-262 63-544 63-428 0-642-131t-214-394q0-200 153-314t616-217l197-44q612-131 870-370t258-667q0-488-386-773-386-284-1061-284-281 0-586 55t-642 164v594q319-166 628-249 309-82 613-82 406 0 624 139 219 139 219 392 0 234-158 359-157 125-692 241l-200 47q-534 112-772 345-237 233-237 639 0 494 350 762 350 269 994 269 318 0 599-47 282-46 519-140z"/>
<path id="j" transform="scale(.0156)" d="m1172 4494v-994h1184v-447h-1184v-1900q0-428 117-550t477-122h590v-481h-590q-666 0-919 248-253 249-253 905v1900h-422v447h422v994h578z"/>
<path id="d" transform="scale(.0156)" d="m3597 1894v-281h-2644q38-594 358-905t892-311q331 0 642 81t618 244v-544q-310-131-635-200t-659-69q-838 0-1327 487-489 488-489 1320 0 859 464 1363 464 505 1252 505 706 0 1117-455 411-454 411-1235zm-575 169q-6 471-264 752-258 282-683 282-481 0-770-272t-333-766l2050 4z"/>
<path id="k" transform="scale(.0156)" d="m2631 2963q-97 56-211 82-114 27-251 27-488 0-749-317t-261-911v-1844h-578v3500h578v-544q182 319 472 473 291 155 707 155 59 0 131-8 72-7 159-23l3-590z"/>
<path id="al" transform="scale(.0156)" d="m8863 2147v-281l-1229-1228-375 375 729 728h-7622v531h7622l-729 728 375 375 1229-1228z"/>
</defs>
<use xlink:href="#m"/>
<use transform="translate(35.2)" xlink:href="#p"/>
<use transform="translate(96.5)" xlink:href="#q"/>
<use transform="translate(149)" xlink:href="#j"/>
<use transform="translate(188)" xlink:href="#d"/>
<use transform="translate(249)" xlink:href="#k"/>
<use transform="translate(290)" xlink:href="#DejaVuSans-20"/>
<use transform="translate(322)" xlink:href="#al"/>
</g>
</g>
<g clip-path="url(#n)">
<g transform="translate(58.2 95.8) rotate(-90) scale(.1 -.1)">
<defs>
<path id="am" transform="scale(.0156)" d="m313 1866v281l1228 1228 375-375-728-728h7621v-531h-7621l728-728-375-375-1228 1228z"/>
<path id="u" transform="scale(.0156)" d="m603 4863h575v-4863h-575v4863z"/>
<path id="r" transform="scale(.0156)" d="m1959 3097q-462 0-731-361t-269-989 267-989q268-361 733-361 460 0 728 362 269 363 269 988 0 622-269 986-268 364-728 364zm0 487q750 0 1178-488 429-487 429-1349 0-859-429-1349-428-489-1178-489-753 0-1180 489-426 490-426 1349 0 862 426 1349 427 488 1180 488z"/>
<path id="ad" transform="scale(.0156)" d="m269 3500h575l719-2731 715 2731h678l719-2731 716 2731h575l-916-3500h-678l-753 2869-756-2869h-679l-915 3500z"/>
</defs>
<use xlink:href="#am"/>
<use transform="translate(143)" xlink:href="#DejaVuSans-20"/>
<use transform="translate(175)" xlink:href="#q"/>
<use transform="translate(227)" xlink:href="#u"/>
<use transform="translate(255)" xlink:href="#r"/>
<use transform="translate(316)" xlink:href="#ad"/>
<use transform="translate(398)" xlink:href="#d"/>
<use transform="translate(460)" xlink:href="#k"/>
</g>
</g>
<g transform="translate(170 29.7) scale(.12 -.12)">
<defs>
<path id="ah" transform="scale(.0156)" d="m628 4666h2950v-532h-2319v-1381h2222v-531h-2222v-1691h2375v-531h-3006v4666z"/>
<path id="v" transform="scale(.0156)" d="m3122 3366v-538q-244 135-489 202t-495 67q-560 0-870-355-309-354-309-995t309-996q310-354 870-354 250 0 495 67t489 202v-532q-241-112-499-168-257-57-548-57-791 0-1257 497-465 497-465 1341 0 856 470 1346 471 491 1290 491 265 0 518-55 253-54 491-163z"/>
<path id="ap" transform="scale(.0156)" d="m3116 1747q0 634-261 995t-717 361q-457 0-718-361t-261-995 261-995 718-361q456 0 717 361t261 995zm-1957 1222q182 312 458 463 277 152 661 152 638 0 1036-506 399-506 399-1331t-399-1332q-398-506-1036-506-384 0-661 152-276 152-458 464v-525h-578v4863h578v-1894z"/>
<path id="ab" transform="scale(.0156)" d="m544 1381v2119h575v-2097q0-497 193-746 194-248 582-248 465 0 735 297 271 297 271 810v1984h575v-3500h-575v538q-209-319-486-474-276-155-642-155-603 0-916 375-312 375-312 1097zm1447 2203z"/>
<path id="l" transform="scale(.0156)" d="m603 3500h575v-3500h-575v3500zm0 1363h575v-729h-575v729z"/>
<path id="ag" transform="scale(.0156)" d="m2906 2969v1894h575v-4863h-575v525q-181-312-458-464-276-152-664-152-634 0-1033 506-398 507-398 1332t398 1331q399 506 1033 506 388 0 664-152 277-151 458-463zm-1959-1222q0-634 261-995t717-361 718 361q263 361 263 995t-263 995q-262 361-718 361t-717-361-261-995z"/>
<path id="ao" transform="scale(.0156)" d="m3513 2113v-2113h-575v2094q0 497-194 743-194 247-581 247-466 0-735-297-269-296-269-809v-1978h-578v4863h578v-1907q207 316 486 472 280 156 646 156 603 0 912-373 310-373 310-1098z"/>
<path id="w" transform="scale(.0156)" d="m3513 2113v-2113h-575v2094q0 497-194 743-194 247-581 247-466 0-735-297-269-296-269-809v-1978h-578v3500h578v-544q207 316 486 472 280 156 646 156 603 0 912-373 310-373 310-1098z"/>
<path id="af" transform="scale(.0156)" d="m2906 1791q0 625-258 968-257 344-723 344-462 0-720-344-258-343-258-968 0-622 258-966t720-344q466 0 723 344 258 344 258 966zm575-1357q0-893-397-1329-396-436-1215-436-303 0-572 45t-522 139v559q253-137 500-202 247-66 503-66 566 0 847 295t281 892v285q-178-310-456-463t-666-153q-643 0-1037 490-394 491-394 1301 0 812 394 1302 394 491 1037 491 388 0 666-153t456-462v531h575v-3066z"/>
<path id="aa" transform="scale(.0156)" d="m191 3500h609l1094-2937 1094 2937h609l-1313-3500h-781l-1312 3500z"/>
<path id="ae" transform="scale(.0156)" d="m-19 4666h3947v-532h-1656v-4134h-634v4134h-1657v532z"/>
<path id="ak" transform="scale(.0156)" d="m1984 4856q-418-718-622-1422-203-703-203-1425 0-721 205-1429t620-1424h-500q-468 735-701 1444t-233 1409q0 697 231 1403 232 707 703 1444h500z"/>
<path id="t" transform="scale(.0156)" d="m3328 2828q216 388 516 572t706 184q547 0 844-383 297-382 297-1088v-2113h-578v2094q0 503-179 746-178 244-543 244-447 0-707-297-259-296-259-809v-1978h-578v2094q0 506-178 748t-550 242q-441 0-701-298-259-298-259-808v-1978h-578v3500h578v-544q197 322 472 475t653 153q382 0 649-194 267-193 395-562z"/>
<path id="aj" transform="scale(.0156)" d="m513 4856h500q468-737 701-1444 233-706 233-1403 0-700-233-1409t-701-1444h-500q415 716 620 1424t205 1429q0 722-205 1425-205 704-620 1422z"/>
</defs>
<use xlink:href="#ah"/>
<use transform="translate(63.2)" xlink:href="#m"/>
<use transform="translate(98.4)" xlink:href="#m"/>
<use transform="translate(134)" xlink:href="#d"/>
<use transform="translate(195)" xlink:href="#v"/>
<use transform="translate(250)" xlink:href="#j"/>
<use transform="translate(289)" xlink:href="#DejaVuSans-20"/>
<use transform="translate(321)" xlink:href="#r"/>
<use transform="translate(382)" xlink:href="#m"/>
<use transform="translate(417)" xlink:href="#DejaVuSans-20"/>
<use transform="translate(449)" xlink:href="#ap"/>
<use transform="translate(513)" xlink:href="#ab"/>
<use transform="translate(576)" xlink:href="#l"/>
<use transform="translate(604)" xlink:href="#u"/>
<use transform="translate(632)" xlink:href="#ag"/>
<use transform="translate(695)" xlink:href="#DejaVuSans-20"/>
<use transform="translate(727)" xlink:href="#ad"/>
<use transform="translate(809)" xlink:href="#l"/>
<use transform="translate(837)" xlink:href="#j"/>
<use transform="translate(876)" xlink:href="#ao"/>
<use transform="translate(939)" xlink:href="#DejaVuSans-20"/>
<use transform="translate(971)" xlink:href="#u"/>
<use transform="translate(999)" xlink:href="#p"/>
<use transform="translate(1060)" xlink:href="#j"/>
<use transform="translate(1099)" xlink:href="#d"/>
<use transform="translate(1161)" xlink:href="#q"/>
<use transform="translate(1213)" xlink:href="#j"/>
<use transform="translate(1252)" xlink:href="#DejaVuSans-20"/>
<use transform="translate(1284)" xlink:href="#v"/>
<use transform="translate(1339)" xlink:href="#u"/>
<use transform="translate(1367)" xlink:href="#p"/>
<use transform="translate(1428)" xlink:href="#w"/>
<use transform="translate(1491)" xlink:href="#af"/>
<use transform="translate(1555)" xlink:href="#DejaVuSans-20"/>
<use transform="translate(1586)" xlink:href="#p"/>
<use transform="translate(1648)" xlink:href="#w"/>
<use transform="translate(1711)" xlink:href="#ag"/>
<use transform="translate(1775)" xlink:href="#DejaVuSans-20"/>
<use transform="translate(1806)" xlink:href="#j"/>
<use transform="translate(1846)" xlink:href="#p"/>
<use transform="translate(1907)" xlink:href="#l"/>
<use transform="translate(1935)" xlink:href="#u"/>
<use transform="translate(1962)" xlink:href="#v"/>
<use transform="translate(2017)" xlink:href="#p"/>
<use transform="translate(2079)" xlink:href="#u"/>
<use transform="translate(2106)" xlink:href="#u"/>
<use transform="translate(2134)" xlink:href="#DejaVuSans-20"/>
<use transform="translate(2166)" xlink:href="#aa"/>
<use transform="translate(2225)" xlink:href="#q"/>
<use transform="translate(2277)" xlink:href="#c"/>
<use transform="translate(2309)" xlink:href="#DejaVuSans-20"/>
<use transform="translate(2341)" xlink:href="#ae"/>
<use transform="translate(2399)" xlink:href="#l"/>
<use transform="translate(2427)" xlink:href="#d"/>
<use transform="translate(2488)" xlink:href="#k"/>
<use transform="translate(2529)" xlink:href="#DejaVuSans-20"/>
<use transform="translate(2561)" xlink:href="#s"/>
<use transform="translate(2625)" xlink:href="#DejaVuSans-20"/>
<use transform="translate(2656)" xlink:href="#ak"/>
<use transform="translate(2696)" xlink:href="#q"/>
<use transform="translate(2748)" xlink:href="#p"/>
<use transform="translate(2809)" xlink:href="#t"/>
<use transform="translate(2906)" xlink:href="#d"/>
<use transform="translate(2968)" xlink:href="#DejaVuSans-20"/>
<use transform="translate(3e3)" xlink:href="#v"/>
<use transform="translate(3055)" xlink:href="#r"/>
<use transform="translate(3116)" xlink:href="#t"/>
<use transform="translate(3213)" xlink:href="#t"/>
<use transform="translate(3311)" xlink:href="#l"/>
<use transform="translate(3338)" xlink:href="#j"/>
<use transform="translate(3378)" xlink:href="#aj"/>
</g>
<path d="m47.6 48.7h4q2 0 2-2v-4q0-2-2-2h-4q-2 0-2 2v4q0 2 2 2z" fill="#fff" opacity=".8" stroke="#ccc"/>
<path d="m40.6 706h668v-316h-668z" fill="#fff"/>
<path d="m95.2 706v-316" clip-path="url(#g)" fill="none" stroke="#b0b0b0" stroke-linecap="square" stroke-width=".8"/>
<use x="95.247849" y="705.793205" stroke="#000000" stroke-width=".8" xlink:href="#f"/>
<g transform="translate(74.4 720) scale(.1 -.1)">
<defs>
<path id="y" transform="scale(.0156)" d="m313 2009h1684v-512h-1684v512z"/>
</defs>
<use xlink:href="#e"/>
<use transform="translate(63.6)" xlink:href="#b"/>
<use transform="translate(127)" xlink:href="#e"/>
<use transform="translate(191)" xlink:href="#x"/>
<use transform="translate(254)" xlink:href="#y"/>
<use transform="translate(291)" xlink:href="#b"/>
<use transform="translate(354)" xlink:href="#z"/>
</g>
<path d="m182 706v-316" clip-path="url(#g)" fill="none" stroke="#b0b0b0" stroke-linecap="square" stroke-width=".8"/>
<use x="182.455671" y="705.793205" stroke="#000000" stroke-width=".8" xlink:href="#f"/>
<g transform="translate(162 720) scale(.1 -.1)">
<defs>
<path id="aq" transform="scale(.0156)" d="m703 97v575q238-113 481-172 244-59 479-59 625 0 954 420 330 420 377 1277-181-269-460-413-278-144-615-144-700 0-1108 423-408 424-408 1159 0 718 425 1152 425 435 1131 435 810 0 1236-621 427-620 427-1801 0-1103-524-1761-523-658-1407-658-238 0-482 47-243 47-506 141zm1256 1978q425 0 673 290 249 291 249 798 0 503-249 795-248 292-673 292t-673-292-248-795q0-507 248-798 248-290 673-290z"/>
</defs>
<use xlink:href="#e"/>
<use transform="translate(63.6)" xlink:href="#b"/>
<use transform="translate(127)" xlink:href="#e"/>
<use transform="translate(191)" xlink:href="#x"/>
<use transform="translate(254)" xlink:href="#y"/>
<use transform="translate(291)" xlink:href="#b"/>
<use transform="translate(354)" xlink:href="#aq"/>
</g>
<path d="m267 706v-316" clip-path="url(#g)" fill="none" stroke="#b0b0b0" stroke-linecap="square" stroke-width=".8"/>
<use x="266.850338" y="705.793205" stroke="#000000" stroke-width=".8" xlink:href="#f"/>
<g transform="translate(246 720) scale(.1 -.1)">
<use xlink:href="#e"/>
<use transform="translate(63.6)" xlink:href="#b"/>
<use transform="translate(127)" xlink:href="#e"/>
<use transform="translate(191)" xlink:href="#x"/>
<use transform="translate(254)" xlink:href="#y"/>
<use transform="translate(291)" xlink:href="#s"/>
<use transform="translate(354)" xlink:href="#b"/>
</g>
<path d="m354 706v-316" clip-path="url(#g)" fill="none" stroke="#b0b0b0" stroke-linecap="square" stroke-width=".8"/>
<use x="354.05816" y="705.793205" stroke="#000000" stroke-width=".8" xlink:href="#f"/>
<g transform="translate(333 720) scale(.1 -.1)">
<use xlink:href="#e"/>
<use transform="translate(63.6)" xlink:href="#b"/>
<use transform="translate(127)" xlink:href="#e"/>
<use transform="translate(191)" xlink:href="#x"/>
<use transform="translate(254)" xlink:href="#y"/>
<use transform="translate(291)" xlink:href="#s"/>
<use transform="translate(354)" xlink:href="#s"/>
</g>
<path d="m438 706v-316" clip-path="url(#g)" fill="none" stroke="#b0b0b0" stroke-linecap="square" stroke-width=".8"/>
<use x="438.452827" y="705.793205" stroke="#000000" stroke-width=".8" xlink:href="#f"/>
<g transform="translate(418 720) scale(.1 -.1)">
<use xlink:href="#e"/>
<use transform="translate(63.6)" xlink:href="#b"/>
<use transform="translate(127)" xlink:href="#e"/>
<use transform="translate(191)" xlink:href="#x"/>
<use transform="translate(254)" xlink:href="#y"/>
<use transform="translate(291)" xlink:href="#s"/>
<use transform="translate(354)" xlink:href="#e"/>
</g>
<path d="m526 706v-316" clip-path="url(#g)" fill="none" stroke="#b0b0b0" stroke-linecap="square" stroke-width=".8"/>
<use x="525.660649" y="705.793205" stroke="#000000" stroke-width=".8" xlink:href="#f"/>
<g transform="translate(505 720) scale(.1 -.1)">
<defs>
<path id="ai" transform="scale(.0156)" d="m691 4666h2478v-532h-1900v-1143q137 47 274 70 138 23 276 23 781 0 1237-428 457-428 457-1159 0-753-469-1171-469-417-1322-417-294 0-599 50-304 50-629 150v635q281-153 581-228t634-75q541 0 856 284 316 284 316 772 0 487-316 771-315 285-856 285-253 0-505-56-251-56-513-175v2344z"/>
</defs>
<use xlink:href="#e"/>
<use transform="translate(63.6)" xlink:href="#b"/>
<use transform="translate(127)" xlink:href="#e"/>
<use transform="translate(191)" xlink:href="#ai"/>
<use transform="translate(254)" xlink:href="#y"/>
<use transform="translate(291)" xlink:href="#b"/>
<use transform="translate(354)" xlink:href="#s"/>
</g>
<path d="m613 706v-316" clip-path="url(#g)" fill="none" stroke="#b0b0b0" stroke-linecap="square" stroke-width=".8"/>
<use x="612.868472" y="705.793205" stroke="#000000" stroke-width=".8" xlink:href="#f"/>
<g transform="translate(592 720) scale(.1 -.1)">
<use xlink:href="#e"/>
<use transform="translate(63.6)" xlink:href="#b"/>
<use transform="translate(127)" xlink:href="#e"/>
<use transform="translate(191)" xlink:href="#ai"/>
<use transform="translate(254)" xlink:href="#y"/>
<use transform="translate(291)" xlink:href="#b"/>
<use transform="translate(354)" xlink:href="#e"/>
</g>
<path d="m692 706v-316" clip-path="url(#g)" fill="none" stroke="#b0b0b0" stroke-linecap="square" stroke-width=".8"/>
<use x="691.636827" y="705.793205" stroke="#000000" stroke-width=".8" xlink:href="#f"/>
<g transform="translate(671 720) scale(.1 -.1)">
<defs>
<path id="ax" transform="scale(.0156)" d="m2597 2516q453-97 707-404 255-306 255-756 0-690-475-1069-475-378-1350-378-293 0-604 58t-642 174v609q262-153 574-231 313-78 654-78 593 0 904 234t311 681q0 413-289 645-289 233-804 233h-544v519h569q465 0 712 186t247 536q0 359-255 551-254 193-729 193-260 0-557-57-297-56-653-174v562q360 100 674 150t592 50q719 0 1137-327 419-326 419-882 0-388-222-655t-631-370z"/>
</defs>
<use xlink:href="#e"/>
<use transform="translate(63.6)" xlink:href="#b"/>
<use transform="translate(127)" xlink:href="#e"/>
<use transform="translate(191)" xlink:href="#ai"/>
<use transform="translate(254)" xlink:href="#y"/>
<use transform="translate(291)" xlink:href="#b"/>
<use transform="translate(354)" xlink:href="#ax"/>
</g>
<path d="m40.6 665h668" clip-path="url(#g)" fill="none" stroke="#b0b0b0" stroke-linecap="square" stroke-width=".8"/>
<use x="40.645553" y="665.373794" stroke="#000000" stroke-width=".8" xlink:href="#h"/>
<g transform="translate(3 669) scale(.1 -.1)">
<use xlink:href="#b"/>
<use transform="translate(63.6)" xlink:href="#c"/>
<use transform="translate(95.4)" xlink:href="#ac"/>
<use transform="translate(159)" xlink:href="#b"/>
<use transform="translate(223)" xlink:href="#i"/>
</g>
<path d="m40.6 600h668" clip-path="url(#g)" fill="none" stroke="#b0b0b0" stroke-linecap="square" stroke-width=".8"/>
<use x="40.645553" y="600.181194" stroke="#000000" stroke-width=".8" xlink:href="#h"/>
<g transform="translate(3 604) scale(.1 -.1)">
<defs>
<path id="aw" transform="scale(.0156)" d="m525 4666h3e3v-269l-1694-4397h-659l1594 4134h-2241v532z"/>
</defs>
<use xlink:href="#b"/>
<use transform="translate(63.6)" xlink:href="#c"/>
<use transform="translate(95.4)" xlink:href="#aw"/>
<use transform="translate(159)" xlink:href="#b"/>
<use transform="translate(223)" xlink:href="#i"/>
</g>
<path d="m40.6 535h668" clip-path="url(#g)" fill="none" stroke="#b0b0b0" stroke-linecap="square" stroke-width=".8"/>
<use x="40.645553" y="534.988595" stroke="#000000" stroke-width=".8" xlink:href="#h"/>
<g transform="translate(3 539) scale(.1 -.1)">
<use xlink:href="#b"/>
<use transform="translate(63.6)" xlink:href="#c"/>
<use transform="translate(95.4)" xlink:href="#z"/>
<use transform="translate(159)" xlink:href="#b"/>
<use transform="translate(223)" xlink:href="#i"/>
</g>
<path d="m40.6 470h668" clip-path="url(#g)" fill="none" stroke="#b0b0b0" stroke-linecap="square" stroke-width=".8"/>
<use x="40.645553" y="469.795996" stroke="#000000" stroke-width=".8" xlink:href="#h"/>
<g transform="translate(3 474) scale(.1 -.1)">
<use xlink:href="#b"/>
<use transform="translate(63.6)" xlink:href="#c"/>
<use transform="translate(95.4)" xlink:href="#aq"/>
<use transform="translate(159)" xlink:href="#b"/>
<use transform="translate(223)" xlink:href="#i"/>
</g>
<path d="m40.6 405h668" clip-path="url(#g)" fill="none" stroke="#b0b0b0" stroke-linecap="square" stroke-width=".8"/>
<use x="40.645553" y="404.603397" stroke="#000000" stroke-width=".8" xlink:href="#h"/>
<g transform="translate(3 408) scale(.1 -.1)">
<use xlink:href="#s"/>
<use transform="translate(63.6)" xlink:href="#c"/>
<use transform="translate(95.4)" xlink:href="#b"/>
<use transform="translate(159)" xlink:href="#b"/>
<use transform="translate(223)" xlink:href="#i"/>
</g>
<path d="m71 581 13.4 19.6 20.1-19.6h11.1l0.018-13 0.268 39.1 8.27-19.6 19.6 6.52h39.5l15.9-26.1 0.866 26.1 2.52 6.52 19.7 6.52 16.3-19.6 15.9-183 7.6 183 5.11-183 59.6 287 2.59-65.2 36.6-13 3.18-13 2.66 26.1 2.87 6.52 2.08 13 3.54-6.52h8.25l3.09 19.6 2.89-13 2.67 6.52 2.93-32.6 2.77 39.1 2.87-19.6 2.48-6.52 3-6.52 3.01-71.7 2.75-6.52h2.54l2.93 6.52 2.68 12 2.84 12 3.02-5.64 2.05-9.02 3.28-1.85 2.53 6.39 2.91-2.96 3.28 19.8 2.91-18.4 2.82-0.156 2.49-18.4 2.81 18 2.38-2.7 2.91 2.82 2.78-0.967 3.47-4.12 2.71-6.26 2.64 8.16 2.4 9.04 2.48-7.51 3.73-5.26 2.54 1.24 3.08-2.32 1.91 9.75 3.76-22.7 2.35-0.757 5.55-12.5 3.08 8.98 2.48 9.62 2.72-14.9 3.3 14.5 2.84-9.86 2.69-0.0327 2.93 2.47 2.67 0.585 2.87 0.266 2.91-8.06 2.44 15.7 3.14-38.6 3.03 27 2.62 4.34 3.01-3.93 2.59-5.53 3.04 1.86 2.36 12.3 3.43-21.7 2.16 26.8 3.25-1.29 2.09-3.74 3.55-51.5 0.297 3.72 2.28-12.6 3.13 2.35 2.67 7.99 2.72 4.87 3.07-16.6 2.79 0.657 2.76 0.428 0.222-5.2 2.69 9.08 1.83 1.04 0.895-5.89 2.7 4.05 2.32 16.2 2.89-14.4 3.42 10.5 1.34-6.78 1.47-15.6 2.8-4.53 2.62 10.7 2.26-17.3 2.71 21.5 2.75-6.95 0.826-6.72 2.04 8.3 3.55-7.5 2.42 12.3 3.28-4.66 2.7-5.41 2.92 4.08 2.8-4.82 2.62 7.27 3.07-5.5 2.72-1.4 2.31 6.43 3.11-30.1 2.54 34.4 3.41 2.63 2.34-18.3 3.24 0.771 2.58 5.09 3.08-6.2 2.1-3.95 2.81-0.43 3.57 7.54v0" clip-path="url(#g)" fill="none" stroke="#1f77b4" stroke-linecap="square" stroke-opacity=".9" stroke-width="1.5"/>
<defs>
<path id="a" d="m-2.5 2.5h5v-5h-5z" stroke="#1f77b4" stroke-opacity=".9"/>
</defs>
<g clip-path="url(#g)" fill="#1f77b4" fill-opacity=".9" stroke="#1f77b4" stroke-opacity=".9">
<use x="71.027491" y="580.623415" xlink:href="#a"/>
<use x="84.412576" y="600.181194" xlink:href="#a"/>
<use x="104.499581" y="580.623415" xlink:href="#a"/>
<use x="115.566939" y="580.623415" xlink:href="#a"/>
<use x="115.584945" y="567.584895" xlink:href="#a"/>
<use x="115.852748" y="606.700454" xlink:href="#a"/>
<use x="124.124272" y="587.142675" xlink:href="#a"/>
<use x="143.77107" y="593.661934" xlink:href="#a"/>
<use x="163.573374" y="593.661934" xlink:href="#a"/>
<use x="183.309548" y="593.661934" xlink:href="#a"/>
<use x="199.201989" y="567.584895" xlink:href="#a"/>
<use x="200.067881" y="593.661934" xlink:href="#a"/>
<use x="202.591092" y="600.181194" xlink:href="#a"/>
<use x="222.249938" y="606.700454" xlink:href="#a"/>
<use x="238.55823" y="587.142675" xlink:href="#a"/>
<use x="254.44761" y="404.603397" xlink:href="#a"/>
<use x="254.477109" y="404.603397" xlink:href="#a"/>
<use x="262.075234" y="587.142675" xlink:href="#a"/>
<use x="267.183944" y="404.603397" xlink:href="#a"/>
<use x="326.8204" y="691.450833" xlink:href="#a"/>
<use x="329.408601" y="626.258234" xlink:href="#a"/>
<use x="365.990921" y="613.219714" xlink:href="#a"/>
<use x="369.166954" y="600.181194" xlink:href="#a"/>
<use x="371.823563" y="626.258234" xlink:href="#a"/>
<use x="374.694186" y="632.777494" xlink:href="#a"/>
<use x="376.774098" y="645.816014" xlink:href="#a"/>
<use x="380.317274" y="639.296754" xlink:href="#a"/>
<use x="382.980785" y="639.296754" xlink:href="#a"/>
<use x="386.080596" y="639.296754" xlink:href="#a"/>
<use x="388.56555" y="639.296754" xlink:href="#a"/>
<use x="391.655072" y="658.854534" xlink:href="#a"/>
<use x="394.541878" y="645.816014" xlink:href="#a"/>
<use x="397.210957" y="652.335274" xlink:href="#a"/>
<use x="400.138071" y="619.738974" xlink:href="#a"/>
<use x="402.904862" y="658.854534" xlink:href="#a"/>
<use x="405.771774" y="639.296754" xlink:href="#a"/>
<use x="408.249499" y="632.777494" xlink:href="#a"/>
<use x="411.248831" y="626.258234" xlink:href="#a"/>
<use x="414.260047" y="554.546375" xlink:href="#a"/>
<use x="417.008083" y="548.027115" xlink:href="#a"/>
<use x="419.544156" y="548.027115" xlink:href="#a"/>
<use x="422.478076" y="554.546375" xlink:href="#a"/>
<use x="425.156792" y="566.546551" xlink:href="#a"/>
<use x="427.993554" y="578.571793" xlink:href="#a"/>
<use x="431.015352" y="572.93371" xlink:href="#a"/>
<use x="433.067099" y="563.91429" xlink:href="#a"/>
<use x="436.350091" y="562.066868" xlink:href="#a"/>
<use x="438.881931" y="568.454989" xlink:href="#a"/>
<use x="441.792375" y="565.498183" xlink:href="#a"/>
<use x="445.076245" y="585.316532" xlink:href="#a"/>
<use x="447.986331" y="566.905947" xlink:href="#a"/>
<use x="450.809417" y="566.750199" xlink:href="#a"/>
<use x="453.299483" y="548.342615" xlink:href="#a"/>
<use x="456.112704" y="566.328394" xlink:href="#a"/>
<use x="458.494021" y="563.629123" xlink:href="#a"/>
<use x="461.400688" y="566.446132" xlink:href="#a"/>
<use x="464.184149" y="565.479296" xlink:href="#a"/>
<use x="467.658689" y="561.3639" xlink:href="#a"/>
<use x="470.371137" y="555.10376" xlink:href="#a"/>
<use x="473.009773" y="563.263201" xlink:href="#a"/>
<use x="475.409225" y="572.303988" xlink:href="#a"/>
<use x="477.88744" y="564.792971" xlink:href="#a"/>
<use x="481.621122" y="559.537257" xlink:href="#a"/>
<use x="484.165823" y="560.77722" xlink:href="#a"/>
<use x="487.247694" y="558.452601" xlink:href="#a"/>
<use x="489.157058" y="568.205072" xlink:href="#a"/>
<use x="492.916105" y="545.472682" xlink:href="#a"/>
<use x="495.264829" y="544.715257" xlink:href="#a"/>
<use x="500.814527" y="532.179362" xlink:href="#a"/>
<use x="503.893435" y="541.163775" xlink:href="#a"/>
<use x="506.377738" y="550.787438" xlink:href="#a"/>
<use x="509.098326" y="535.922611" xlink:href="#a"/>
<use x="512.402905" y="550.385359" xlink:href="#a"/>
<use x="515.246145" y="540.529371" xlink:href="#a"/>
<use x="517.935346" y="540.496648" xlink:href="#a"/>
<use x="520.868908" y="542.966062" xlink:href="#a"/>
<use x="523.535284" y="543.551524" xlink:href="#a"/>
<use x="526.407991" y="543.81706" xlink:href="#a"/>
<use x="529.316742" y="535.75594" xlink:href="#a"/>
<use x="531.761485" y="551.45316" xlink:href="#a"/>
<use x="534.898707" y="512.85617" xlink:href="#a"/>
<use x="537.926724" y="539.819049" xlink:href="#a"/>
<use x="540.544033" y="544.157044" xlink:href="#a"/>
<use x="543.553002" y="540.223808" xlink:href="#a"/>
<use x="546.13925" y="534.689061" xlink:href="#a"/>
<use x="549.177913" y="536.545647" xlink:href="#a"/>
<use x="551.536959" y="548.860571" xlink:href="#a"/>
<use x="554.970604" y="527.145639" xlink:href="#a"/>
<use x="557.128497" y="553.960557" xlink:href="#a"/>
<use x="560.375087" y="552.669982" xlink:href="#a"/>
<use x="562.462552" y="548.934681" xlink:href="#a"/>
<use x="566.016115" y="497.398676" xlink:href="#a"/>
<use x="566.312766" y="501.120279" xlink:href="#a"/>
<use x="568.588589" y="488.54273" xlink:href="#a"/>
<use x="571.720341" y="490.887785" xlink:href="#a"/>
<use x="574.389355" y="498.878271" xlink:href="#a"/>
<use x="577.104473" y="503.747511" xlink:href="#a"/>
<use x="580.176022" y="487.104506" xlink:href="#a"/>
<use x="582.966093" y="487.762005" xlink:href="#a"/>
<use x="585.730377" y="488.190027" xlink:href="#a"/>
<use x="585.952857" y="482.98647" xlink:href="#a"/>
<use x="588.641016" y="492.068129" xlink:href="#a"/>
<use x="590.468493" y="493.112871" xlink:href="#a"/>
<use x="591.363102" y="487.218274" xlink:href="#a"/>
<use x="594.05914" y="491.269526" xlink:href="#a"/>
<use x="596.380547" y="507.492299" xlink:href="#a"/>
<use x="599.272465" y="493.120489" xlink:href="#a"/>
<use x="602.695691" y="503.59153" xlink:href="#a"/>
<use x="604.039721" y="496.815701" xlink:href="#a"/>
<use x="605.505135" y="481.183509" xlink:href="#a"/>
<use x="608.30201" y="476.65786" xlink:href="#a"/>
<use x="610.924399" y="487.371373" xlink:href="#a"/>
<use x="613.184105" y="470.096539" xlink:href="#a"/>
<use x="615.896033" y="491.595679" xlink:href="#a"/>
<use x="618.645273" y="484.640751" xlink:href="#a"/>
<use x="619.47141" y="477.920282" xlink:href="#a"/>
<use x="621.507594" y="486.222808" xlink:href="#a"/>
<use x="625.057608" y="478.723443" xlink:href="#a"/>
<use x="627.478321" y="490.98339" xlink:href="#a"/>
<use x="630.757569" y="486.327132" xlink:href="#a"/>
<use x="633.459012" y="480.921116" xlink:href="#a"/>
<use x="636.380722" y="485.00361" xlink:href="#a"/>
<use x="639.178248" y="480.183468" xlink:href="#a"/>
<use x="641.794353" y="487.449071" xlink:href="#a"/>
<use x="644.866456" y="481.953915" xlink:href="#a"/>
<use x="647.582127" y="480.552704" xlink:href="#a"/>
<use x="649.890869" y="486.987693" xlink:href="#a"/>
<use x="652.998429" y="456.910304" xlink:href="#a"/>
<use x="655.537399" y="491.360065" xlink:href="#a"/>
<use x="658.947895" y="493.990306" xlink:href="#a"/>
<use x="661.290172" y="475.733843" xlink:href="#a"/>
<use x="664.530966" y="476.504699" xlink:href="#a"/>
<use x="667.108813" y="481.591529" xlink:href="#a"/>
<use x="670.184497" y="475.395229" xlink:href="#a"/>
<use x="672.285378" y="471.442642" xlink:href="#a"/>
<use x="675.099217" y="471.012974" xlink:href="#a"/>
<use x="678.666259" y="478.55609" xlink:href="#a"/>
</g>
<g stroke="#1f77b4" stroke-opacity=".9">
<path d="m200 613 38.5-209 23.5 222 18 6.52 21.2 39.1 17 13h5.51l2.99-6.52h2.59l3.14 6.52 2.86-13 2.16 13 3.21-6.52h8.74l2.81-6.52h2.52l2.98 6.52 2.11-6.52 3.3 6.52 2.75-13 3.18 6.52 2.66-6.52 1.44 6.52 1.44-6.52 2.08 6.52h3.54l2.66-6.52 3.1 6.52h2.48l3.09-6.52 2.89-6.52 2.67 13 2.93 6.52 0.212-6.52 2.55-13 2.87 6.52h2.48l3-6.52 3.01-65.2 2.75-32.6 2.54-6.52 2.93 6.52 2.68 24.3 2.84-0.431 2.05 2.01 0.973 2.96 2.05-3.95 2.73-3.16 0.553 1.79 2.53-4.15 2.91 4.59 3.28 11.6 2.91-17.3 2.13 4.95 0.692-1.22 2.49-2.47 0.807-5.81 2.01 1.95 2.38 1.56 1.4 3.74 1.5 0.339 2.78-4.68 3.47 7.39 2.05-0.547 0.666 0.18 1.41-0.564 1.22 2.3 2.17-4.17 0.226-2.48 2.48-2.29 3.73 3.92 2.54-1.64 3.08 0.323 0.815-2.99 1.09 1.1 3.76-13 2.35 3.75 5.55-0.274 3.08-14.5 2.48 3.05 2.72 2.41 3.3-6.58 2.84 2.87 2.69 4.28 2.93-0.427 2.67-3.58 2.87 7.54 2.91-4.95 2.44-1.32 3.14-2.03 3.03-0.801 2.62 8.14 3.01-1.73 2.59-5.3 5.4 0.911 2.36-1.9 1.07 2.2 2.16-3.83 3.25 3.63 2.09-1.26 3.55-49.3 0.297-1.9 2.28-16.9 2.26-1.95 0.869 1.29 2.67 5.66 2.72 0.107 3.07 2.39 2.79 12.9 2.76-3.2 0.222 3.38 1.47-4.97 1.22 5 1.83-14 0.895 5.43 2.7-3.51 2.32-3.28 2.89-0.0896 3.42 11.8 1.34 2.7 1.47-1.18 2.8-14.1 2.62 0.474 2.26-19.6 2.71 8.43 2.75-0.361 0.826-0.902 2.04 9.81 3.55 0.282 2.42-8.02 3.28 2.69 2.7 10.2 2.92-4.14 2.8-2.07 2.62 4.53 3.07-5.63 2.72 2.24 2.15-1.39 0.159-2.86 3.11 1.03 2.54 3.07 3.41-1.39 2.34-1.36 3.24-4.33 2.58 1.3 3.08 1.27 2.1-3.3 2.81 3.78 3.57-0.839" clip-path="url(#g)" fill="none" stroke-dasharray="1.5,2.475" stroke-width="1.5"/>
<g clip-path="url(#g)" fill="#1f77b4" fill-opacity=".9">
<use x="200.067881" y="613.219714" xlink:href="#a"/>
<use x="238.55823" y="404.603397" xlink:href="#a"/>
<use x="262.075234" y="626.258234" xlink:href="#a"/>
<use x="280.08923" y="632.777494" xlink:href="#a"/>
<use x="301.306512" y="671.893053" xlink:href="#a"/>
<use x="318.3178" y="684.931573" xlink:href="#a"/>
<use x="321.095303" y="684.931573" xlink:href="#a"/>
<use x="323.832399" y="684.931573" xlink:href="#a"/>
<use x="326.8204" y="678.412313" xlink:href="#a"/>
<use x="329.408601" y="678.412313" xlink:href="#a"/>
<use x="332.545172" y="684.931573" xlink:href="#a"/>
<use x="335.403943" y="671.893053" xlink:href="#a"/>
<use x="337.560468" y="684.931573" xlink:href="#a"/>
<use x="340.774824" y="678.412313" xlink:href="#a"/>
<use x="343.617837" y="678.412313" xlink:href="#a"/>
<use x="346.426108" y="678.412313" xlink:href="#a"/>
<use x="349.512537" y="678.412313" xlink:href="#a"/>
<use x="352.324586" y="671.893053" xlink:href="#a"/>
<use x="354.848514" y="671.893053" xlink:href="#a"/>
<use x="357.830458" y="678.412313" xlink:href="#a"/>
<use x="359.940781" y="671.893053" xlink:href="#a"/>
<use x="363.24549" y="678.412313" xlink:href="#a"/>
<use x="365.990921" y="665.373794" xlink:href="#a"/>
<use x="369.166954" y="671.893053" xlink:href="#a"/>
<use x="371.823563" y="665.373794" xlink:href="#a"/>
<use x="373.258826" y="671.893053" xlink:href="#a"/>
<use x="374.694186" y="665.373794" xlink:href="#a"/>
<use x="376.774098" y="671.893053" xlink:href="#a"/>
<use x="378.039432" y="671.893053" xlink:href="#a"/>
<use x="380.317274" y="671.893053" xlink:href="#a"/>
<use x="382.980785" y="665.373794" xlink:href="#a"/>
<use x="386.080596" y="671.893053" xlink:href="#a"/>
<use x="388.56555" y="671.893053" xlink:href="#a"/>
<use x="391.655072" y="665.373794" xlink:href="#a"/>
<use x="394.541878" y="658.854534" xlink:href="#a"/>
<use x="397.210957" y="671.893053" xlink:href="#a"/>
<use x="400.138071" y="678.412313" xlink:href="#a"/>
<use x="400.35023" y="671.893053" xlink:href="#a"/>
<use x="402.904862" y="658.854534" xlink:href="#a"/>
<use x="405.771774" y="665.373794" xlink:href="#a"/>
<use x="408.249499" y="665.373794" xlink:href="#a"/>
<use x="411.248831" y="658.854534" xlink:href="#a"/>
<use x="413.646949" y="605.98804" xlink:href="#a"/>
<use x="414.260047" y="593.661934" xlink:href="#a"/>
<use x="416.547494" y="567.584895" xlink:href="#a"/>
<use x="417.008083" y="561.065635" xlink:href="#a"/>
<use x="419.544156" y="554.546375" xlink:href="#a"/>
<use x="422.478076" y="561.065635" xlink:href="#a"/>
<use x="425.156792" y="585.3487" xlink:href="#a"/>
<use x="427.993554" y="584.918113" xlink:href="#a"/>
<use x="430.042306" y="586.926335" xlink:href="#a"/>
<use x="431.015352" y="589.885345" xlink:href="#a"/>
<use x="433.067099" y="585.935162" xlink:href="#a"/>
<use x="435.79726" y="582.772851" xlink:href="#a"/>
<use x="436.350091" y="584.558746" xlink:href="#a"/>
<use x="438.881931" y="580.406617" xlink:href="#a"/>
<use x="441.792375" y="584.993338" xlink:href="#a"/>
<use x="445.076245" y="596.608508" xlink:href="#a"/>
<use x="447.986331" y="579.280087" xlink:href="#a"/>
<use x="450.117362" y="584.232411" xlink:href="#a"/>
<use x="450.809417" y="583.009033" xlink:href="#a"/>
<use x="453.299483" y="580.537096" xlink:href="#a"/>
<use x="454.106963" y="574.728327" xlink:href="#a"/>
<use x="456.112704" y="576.679388" xlink:href="#a"/>
<use x="458.494021" y="578.241788" xlink:href="#a"/>
<use x="459.897994" y="581.981857" xlink:href="#a"/>
<use x="461.400688" y="582.320724" xlink:href="#a"/>
<use x="464.184149" y="577.637747" xlink:href="#a"/>
<use x="467.658689" y="585.028138" xlink:href="#a"/>
<use x="469.218427" y="584.667982" xlink:href="#a"/>
<use x="469.705487" y="584.481446" xlink:href="#a"/>
<use x="470.371137" y="584.66113" xlink:href="#a"/>
<use x="471.785464" y="584.097319" xlink:href="#a"/>
<use x="473.009773" y="586.397706" xlink:href="#a"/>
<use x="475.183587" y="582.223926" xlink:href="#a"/>
<use x="475.409225" y="579.744693" xlink:href="#a"/>
<use x="477.88744" y="577.459448" xlink:href="#a"/>
<use x="481.621122" y="581.375468" xlink:href="#a"/>
<use x="484.165823" y="579.739551" xlink:href="#a"/>
<use x="487.247694" y="580.062235" xlink:href="#a"/>
<use x="488.062565" y="577.076297" xlink:href="#a"/>
<use x="489.157058" y="578.175575" xlink:href="#a"/>
<use x="492.916105" y="565.220893" xlink:href="#a"/>
<use x="495.264829" y="568.973197" xlink:href="#a"/>
<use x="500.814527" y="568.699161" xlink:href="#a"/>
<use x="503.893435" y="554.182155" xlink:href="#a"/>
<use x="506.377738" y="557.228415" xlink:href="#a"/>
<use x="509.098326" y="559.6374" xlink:href="#a"/>
<use x="512.402905" y="553.057301" xlink:href="#a"/>
<use x="515.246145" y="555.927426" xlink:href="#a"/>
<use x="517.935346" y="560.21212" xlink:href="#a"/>
<use x="520.868908" y="559.785278" xlink:href="#a"/>
<use x="523.535284" y="556.201561" xlink:href="#a"/>
<use x="526.407991" y="563.744572" xlink:href="#a"/>
<use x="529.316742" y="558.792233" xlink:href="#a"/>
<use x="531.761485" y="557.476826" xlink:href="#a"/>
<use x="534.898707" y="555.442715" xlink:href="#a"/>
<use x="537.926724" y="554.641857" xlink:href="#a"/>
<use x="540.544033" y="562.782575" xlink:href="#a"/>
<use x="543.553002" y="561.054717" xlink:href="#a"/>
<use x="546.13925" y="555.751948" xlink:href="#a"/>
<use x="551.536959" y="556.662786" xlink:href="#a"/>
<use x="553.899163" y="554.765235" xlink:href="#a"/>
<use x="554.970604" y="556.965589" xlink:href="#a"/>
<use x="557.128497" y="553.137402" xlink:href="#a"/>
<use x="560.375087" y="556.763803" xlink:href="#a"/>
<use x="562.462552" y="555.503421" xlink:href="#a"/>
<use x="566.016115" y="506.223861" xlink:href="#a"/>
<use x="566.312766" y="504.32152" xlink:href="#a"/>
<use x="568.588589" y="487.460551" xlink:href="#a"/>
<use x="570.851421" y="485.507935" xlink:href="#a"/>
<use x="571.720341" y="486.794396" xlink:href="#a"/>
<use x="574.389355" y="492.458686" xlink:href="#a"/>
<use x="577.104473" y="492.565936" xlink:href="#a"/>
<use x="580.176022" y="494.960495" xlink:href="#a"/>
<use x="582.966093" y="507.863627" xlink:href="#a"/>
<use x="585.730377" y="504.661556" xlink:href="#a"/>
<use x="585.952857" y="508.04539" xlink:href="#a"/>
<use x="587.418693" y="503.070591" xlink:href="#a"/>
<use x="588.641016" y="508.07369" xlink:href="#a"/>
<use x="590.468493" y="494.076119" xlink:href="#a"/>
<use x="591.363102" y="499.507593" xlink:href="#a"/>
<use x="594.05914" y="496.000829" xlink:href="#a"/>
<use x="596.380547" y="492.721545" xlink:href="#a"/>
<use x="599.272465" y="492.631944" xlink:href="#a"/>
<use x="602.695691" y="504.393707" xlink:href="#a"/>
<use x="604.039721" y="507.092087" xlink:href="#a"/>
<use x="605.505135" y="505.90928" xlink:href="#a"/>
<use x="608.30201" y="491.774978" xlink:href="#a"/>
<use x="610.924399" y="492.249199" xlink:href="#a"/>
<use x="613.184105" y="472.671667" xlink:href="#a"/>
<use x="615.896033" y="481.102675" xlink:href="#a"/>
<use x="618.645273" y="480.741696" xlink:href="#a"/>
<use x="619.47141" y="479.839307" xlink:href="#a"/>
<use x="621.507594" y="489.645051" xlink:href="#a"/>
<use x="625.057608" y="489.926828" xlink:href="#a"/>
<use x="627.478321" y="481.90303" xlink:href="#a"/>
<use x="630.757569" y="484.59472" xlink:href="#a"/>
<use x="633.459012" y="494.790127" xlink:href="#a"/>
<use x="636.380722" y="490.649289" xlink:href="#a"/>
<use x="639.178248" y="488.581924" xlink:href="#a"/>
<use x="641.794353" y="493.108873" xlink:href="#a"/>
<use x="644.866456" y="487.474453" xlink:href="#a"/>
<use x="647.582127" y="489.716993" xlink:href="#a"/>
<use x="649.731424" y="488.325194" xlink:href="#a"/>
<use x="649.890869" y="485.46195" xlink:href="#a"/>
<use x="652.998429" y="486.49098" xlink:href="#a"/>
<use x="655.537399" y="489.558616" xlink:href="#a"/>
<use x="658.947895" y="488.172924" xlink:href="#a"/>
<use x="661.290172" y="486.814909" xlink:href="#a"/>
<use x="664.530966" y="482.4803" xlink:href="#a"/>
<use x="667.108813" y="483.778838" xlink:href="#a"/>
<use x="670.184497" y="485.048907" xlink:href="#a"/>
<use x="672.285378" y="481.748502" xlink:href="#a"/>
<use x="675.099217" y="485.529989" xlink:href="#a"/>
<use x="678.666259" y="484.690654" xlink:href="#a"/>
</g>
</g>
<path d="m40.6 706v-316" fill="none" stroke="#000" stroke-linecap="square" stroke-width=".8"/>
<path d="m709 706v-316" fill="none" stroke="#000" stroke-linecap="square" stroke-width=".8"/>
<path d="m40.6 706h668" fill="none" stroke="#000" stroke-linecap="square" stroke-width=".8"/>
<path d="m40.6 390h668" fill="none" stroke="#000" stroke-linecap="square" stroke-width=".8"/>
<g clip-path="url(#g)">
<g transform="translate(58.2 397) rotate(-90) scale(.1 -.1)">
<use xlink:href="#m"/>
<use transform="translate(35.2)" xlink:href="#p"/>
<use transform="translate(96.5)" xlink:href="#q"/>
<use transform="translate(149)" xlink:href="#j"/>
<use transform="translate(188)" xlink:href="#d"/>
<use transform="translate(249)" xlink:href="#k"/>
<use transform="translate(290)" xlink:href="#DejaVuSans-20"/>
<use transform="translate(322)" xlink:href="#al"/>
</g>
</g>
<g clip-path="url(#g)">
<g transform="translate(58.2 465) rotate(-90) scale(.1 -.1)">
<use xlink:href="#am"/>
<use transform="translate(143)" xlink:href="#DejaVuSans-20"/>
<use transform="translate(175)" xlink:href="#q"/>
<use transform="translate(227)" xlink:href="#u"/>
<use transform="translate(255)" xlink:href="#r"/>
<use transform="translate(316)" xlink:href="#ad"/>
<use transform="translate(398)" xlink:href="#d"/>
<use transform="translate(460)" xlink:href="#k"/>
</g>
</g>
<g transform="translate(228 384) scale(.12 -.12)">
<use xlink:href="#ah"/>
<use transform="translate(63.2)" xlink:href="#m"/>
<use transform="translate(98.4)" xlink:href="#m"/>
<use transform="translate(134)" xlink:href="#d"/>
<use transform="translate(195)" xlink:href="#v"/>
<use transform="translate(250)" xlink:href="#j"/>
<use transform="translate(289)" xlink:href="#DejaVuSans-20"/>
<use transform="translate(321)" xlink:href="#r"/>
<use transform="translate(382)" xlink:href="#m"/>
<use transform="translate(417)" xlink:href="#DejaVuSans-20"/>
<use transform="translate(449)" xlink:href="#m"/>
<use transform="translate(484)" xlink:href="#k"/>
<use transform="translate(523)" xlink:href="#d"/>
<use transform="translate(585)" xlink:href="#d"/>
<use transform="translate(646)" xlink:href="#DejaVuSans-20"/>
<use transform="translate(678)" xlink:href="#j"/>
<use transform="translate(717)" xlink:href="#ao"/>
<use transform="translate(781)" xlink:href="#k"/>
<use transform="translate(820)" xlink:href="#d"/>
<use transform="translate(881)" xlink:href="#p"/>
<use transform="translate(942)" xlink:href="#ag"/>
<use transform="translate(1006)" xlink:href="#l"/>
<use transform="translate(1034)" xlink:href="#w"/>
<use transform="translate(1097)" xlink:href="#af"/>
<use transform="translate(1161)" xlink:href="#DejaVuSans-20"/>
<use transform="translate(1192)" xlink:href="#aa"/>
<use transform="translate(1252)" xlink:href="#q"/>
<use transform="translate(1304)" xlink:href="#c"/>
<use transform="translate(1335)" xlink:href="#DejaVuSans-20"/>
<use transform="translate(1367)" xlink:href="#ae"/>
<use transform="translate(1425)" xlink:href="#l"/>
<use transform="translate(1453)" xlink:href="#d"/>
<use transform="translate(1514)" xlink:href="#k"/>
<use transform="translate(1556)" xlink:href="#DejaVuSans-20"/>
<use transform="translate(1587)" xlink:href="#s"/>
<use transform="translate(1651)" xlink:href="#DejaVuSans-20"/>
<use transform="translate(1683)" xlink:href="#ak"/>
<use transform="translate(1722)" xlink:href="#q"/>
<use transform="translate(1774)" xlink:href="#p"/>
<use transform="translate(1835)" xlink:href="#t"/>
<use transform="translate(1933)" xlink:href="#d"/>
<use transform="translate(1994)" xlink:href="#DejaVuSans-20"/>
<use transform="translate(2026)" xlink:href="#v"/>
<use transform="translate(2081)" xlink:href="#r"/>
<use transform="translate(2142)" xlink:href="#t"/>
<use transform="translate(2239)" xlink:href="#t"/>
<use transform="translate(2337)" xlink:href="#l"/>
<use transform="translate(2365)" xlink:href="#j"/>
<use transform="translate(2404)" xlink:href="#aj"/>
</g>
<path d="m47.6 428h82.6q2 0 2-2v-28.4q0-2-2-2h-82.6q-2 0-2 2v28.4q0 2 2 2z" fill="#fff" opacity=".8" stroke="#ccc"/>
<path d="m49.6 403h10 10" fill="none" stroke="#1f77b4" stroke-linecap="square" stroke-opacity=".9" stroke-width="1.5"/>
<use x="59.645553" y="403.359463" fill="#1f77b4" fill-opacity=".9" stroke="#1f77b4" stroke-opacity=".9" xlink:href="#a"/>
<g transform="translate(77.6 407) scale(.1 -.1)">
<defs>
<path id="an" transform="scale(.0156)" d="m3513 3500-1266-1703 1331-1797h-678l-1019 1375-1018-1375h-679l1360 1831-1244 1669h678l928-1247 928 1247h679z"/>
</defs>
<use xlink:href="#u"/>
<use transform="translate(27.8)" xlink:href="#l"/>
<use transform="translate(55.6)" xlink:href="#w"/>
<use transform="translate(119)" xlink:href="#ab"/>
<use transform="translate(182)" xlink:href="#an"/>
</g>
<path d="m49.6 418h10 10" fill="none" stroke="#1f77b4" stroke-dasharray="1.5,2.475" stroke-opacity=".9" stroke-width="1.5"/>
<use x="59.645553" y="418.037588" fill="#1f77b4" fill-opacity=".9" stroke="#1f77b4" stroke-opacity=".9" xlink:href="#a"/>
<g transform="translate(77.6 422) scale(.1 -.1)">
<use xlink:href="#u"/>
<use transform="translate(27.8)" xlink:href="#l"/>
<use transform="translate(55.6)" xlink:href="#w"/>
<use transform="translate(119)" xlink:href="#ab"/>
<use transform="translate(182)" xlink:href="#an"/>
<use transform="translate(242)" xlink:href="#y"/>
<use transform="translate(275)" xlink:href="#aa"/>
<use transform="translate(334)" xlink:href="#ab"/>
<use transform="translate(398)" xlink:href="#u"/>
<use transform="translate(425)" xlink:href="#j"/>
<use transform="translate(465)" xlink:href="#k"/>
</g>
<path d="m40.6 1060h668v-316h-668z" fill="#fff"/>
<path d="m40.6 1060v-316" clip-path="url(#o)" fill="none" stroke="#b0b0b0" stroke-linecap="square" stroke-width=".8"/>
<use x="40.645553" y="1060.321635" stroke="#000000" stroke-width=".8" xlink:href="#f"/>
<g transform="translate(32.7 1075) scale(.1 -.1)">
<use xlink:href="#b"/>
<use transform="translate(63.6)" xlink:href="#c"/>
<use transform="translate(95.4)" xlink:href="#b"/>
</g>
<path d="m174 1060v-316" clip-path="url(#o)" fill="none" stroke="#b0b0b0" stroke-linecap="square" stroke-width=".8"/>
<use x="174.326081" y="1060.321635" stroke="#000000" stroke-width=".8" xlink:href="#f"/>
<g transform="translate(166 1075) scale(.1 -.1)">
<use xlink:href="#b"/>
<use transform="translate(63.6)" xlink:href="#c"/>
<use transform="translate(95.4)" xlink:href="#e"/>
</g>
<path d="m308 1060v-316" clip-path="url(#o)" fill="none" stroke="#b0b0b0" stroke-linecap="square" stroke-width=".8"/>
<use x="308.00661" y="1060.321635" stroke="#000000" stroke-width=".8" xlink:href="#f"/>
<g transform="translate(300 1075) scale(.1 -.1)">
<use xlink:href="#b"/>
<use transform="translate(63.6)" xlink:href="#c"/>
<use transform="translate(95.4)" xlink:href="#x"/>
</g>
<path d="m442 1060v-316" clip-path="url(#o)" fill="none" stroke="#b0b0b0" stroke-linecap="square" stroke-width=".8"/>
<use x="441.68714" y="1060.321635" stroke="#000000" stroke-width=".8" xlink:href="#f"/>
<g transform="translate(434 1075) scale(.1 -.1)">
<use xlink:href="#b"/>
<use transform="translate(63.6)" xlink:href="#c"/>
<use transform="translate(95.4)" xlink:href="#ac"/>
</g>
<path d="m575 1060v-316" clip-path="url(#o)" fill="none" stroke="#b0b0b0" stroke-linecap="square" stroke-width=".8"/>
<use x="575.367668" y="1060.321635" stroke="#000000" stroke-width=".8" xlink:href="#f"/>
<g transform="translate(567 1075) scale(.1 -.1)">
<use xlink:href="#b"/>
<use transform="translate(63.6)" xlink:href="#c"/>
<use transform="translate(95.4)" xlink:href="#z"/>
</g>
<path d="m709 1060v-316" clip-path="url(#o)" fill="none" stroke="#b0b0b0" stroke-linecap="square" stroke-width=".8"/>
<use x="709.048197" y="1060.321635" stroke="#000000" stroke-width=".8" xlink:href="#f"/>
<g transform="translate(701 1075) scale(.1 -.1)">
<use xlink:href="#s"/>
<use transform="translate(63.6)" xlink:href="#c"/>
<use transform="translate(95.4)" xlink:href="#b"/>
</g>
<path d="m40.6 1060h668" clip-path="url(#o)" fill="none" stroke="#b0b0b0" stroke-linecap="square" stroke-width=".8"/>
<use x="40.645553" y="1060.321635" stroke="#000000" stroke-width=".8" xlink:href="#h"/>
<g transform="translate(3 1064) scale(.1 -.1)">
<use xlink:href="#b"/>
<use transform="translate(63.6)" xlink:href="#c"/>
<use transform="translate(95.4)" xlink:href="#b"/>
<use transform="translate(159)" xlink:href="#b"/>
<use transform="translate(223)" xlink:href="#i"/>
</g>
<path d="m40.6 997h668" clip-path="url(#o)" fill="none" stroke="#b0b0b0" stroke-linecap="square" stroke-width=".8"/>
<use x="40.645553" y="997.215199" stroke="#000000" stroke-width=".8" xlink:href="#h"/>
<g transform="translate(3 1e3) scale(.1 -.1)">
<use xlink:href="#b"/>
<use transform="translate(63.6)" xlink:href="#c"/>
<use transform="translate(95.4)" xlink:href="#e"/>
<use transform="translate(159)" xlink:href="#b"/>
<use transform="translate(223)" xlink:href="#i"/>
</g>
<path d="m40.6 934h668" clip-path="url(#o)" fill="none" stroke="#b0b0b0" stroke-linecap="square" stroke-width=".8"/>
<use x="40.645553" y="934.108763" stroke="#000000" stroke-width=".8" xlink:href="#h"/>
<g transform="translate(3 938) scale(.1 -.1)">
<use xlink:href="#b"/>
<use transform="translate(63.6)" xlink:href="#c"/>
<use transform="translate(95.4)" xlink:href="#x"/>
<use transform="translate(159)" xlink:href="#b"/>
<use transform="translate(223)" xlink:href="#i"/>
</g>
<path d="m40.6 871h668" clip-path="url(#o)" fill="none" stroke="#b0b0b0" stroke-linecap="square" stroke-width=".8"/>
<use x="40.645553" y="871.002327" stroke="#000000" stroke-width=".8" xlink:href="#h"/>
<g transform="translate(3 875) scale(.1 -.1)">
<use xlink:href="#b"/>
<use transform="translate(63.6)" xlink:href="#c"/>
<use transform="translate(95.4)" xlink:href="#ac"/>
<use transform="translate(159)" xlink:href="#b"/>
<use transform="translate(223)" xlink:href="#i"/>
</g>
<path d="m40.6 808h668" clip-path="url(#o)" fill="none" stroke="#b0b0b0" stroke-linecap="square" stroke-width=".8"/>
<use x="40.645553" y="807.895891" stroke="#000000" stroke-width=".8" xlink:href="#h"/>
<g transform="translate(3 812) scale(.1 -.1)">
<use xlink:href="#b"/>
<use transform="translate(63.6)" xlink:href="#c"/>
<use transform="translate(95.4)" xlink:href="#z"/>
<use transform="translate(159)" xlink:href="#b"/>
<use transform="translate(223)" xlink:href="#i"/>
</g>
<path d="m40.6 745h668" clip-path="url(#o)" fill="none" stroke="#b0b0b0" stroke-linecap="square" stroke-width=".8"/>
<use x="40.645553" y="744.789455" stroke="#000000" stroke-width=".8" xlink:href="#h"/>
<g transform="translate(3 749) scale(.1 -.1)">
<use xlink:href="#s"/>
<use transform="translate(63.6)" xlink:href="#c"/>
<use transform="translate(95.4)" xlink:href="#b"/>
<use transform="translate(159)" xlink:href="#b"/>
<use transform="translate(223)" xlink:href="#i"/>
</g>
<path d="m40.6 1060v-316" fill="none" stroke="#000" stroke-linecap="square" stroke-width=".8"/>
<path d="m709 1060v-316" fill="none" stroke="#000" stroke-linecap="square" stroke-width=".8"/>
<path d="m40.6 1060h668" fill="none" stroke="#000" stroke-linecap="square" stroke-width=".8"/>
<path d="m40.6 745h668" fill="none" stroke="#000" stroke-linecap="square" stroke-width=".8"/>
<g clip-path="url(#o)">
<g transform="translate(58.2 737) rotate(-90) scale(.1 -.1)">
<use xlink:href="#m"/>
<use transform="translate(35.2)" xlink:href="#p"/>
<use transform="translate(96.5)" xlink:href="#q"/>
<use transform="translate(149)" xlink:href="#j"/>
<use transform="translate(188)" xlink:href="#d"/>
<use transform="translate(249)" xlink:href="#k"/>
<use transform="translate(290)" xlink:href="#DejaVuSans-20"/>
<use transform="translate(322)" xlink:href="#al"/>
</g>
</g>
<g clip-path="url(#o)">
<g transform="translate(58.2 805) rotate(-90) scale(.1 -.1)">
<use xlink:href="#am"/>
<use transform="translate(143)" xlink:href="#DejaVuSans-20"/>
<use transform="translate(175)" xlink:href="#q"/>
<use transform="translate(227)" xlink:href="#u"/>
<use transform="translate(255)" xlink:href="#r"/>
<use transform="translate(316)" xlink:href="#ad"/>
<use transform="translate(398)" xlink:href="#d"/>
<use transform="translate(460)" xlink:href="#k"/>
</g>
</g>
<g transform="translate(264 739) scale(.12 -.12)">
<defs>
<path id="au" transform="scale(.0156)" d="m628 4666h631v-4341q0-844-320-1225t-1030-381h-240v531h197q418 0 590 235 172 234 172 840v4341z"/>
<path id="av" transform="scale(.0156)" d="m628 4666h631v-4666h-631v4666z"/>
</defs>
<use xlink:href="#ah"/>
<use transform="translate(63.2)" xlink:href="#m"/>
<use transform="translate(98.4)" xlink:href="#m"/>
<use transform="translate(134)" xlink:href="#d"/>
<use transform="translate(195)" xlink:href="#v"/>
<use transform="translate(250)" xlink:href="#j"/>
<use transform="translate(289)" xlink:href="#DejaVuSans-20"/>
<use transform="translate(321)" xlink:href="#r"/>
<use transform="translate(382)" xlink:href="#m"/>
<use transform="translate(417)" xlink:href="#DejaVuSans-20"/>
<use transform="translate(449)" xlink:href="#au"/>
<use transform="translate(479)" xlink:href="#av"/>
<use transform="translate(508)" xlink:href="#ae"/>
<use transform="translate(569)" xlink:href="#DejaVuSans-20"/>
<use transform="translate(601)" xlink:href="#aa"/>
<use transform="translate(660)" xlink:href="#q"/>
<use transform="translate(712)" xlink:href="#c"/>
<use transform="translate(744)" xlink:href="#DejaVuSans-20"/>
<use transform="translate(776)" xlink:href="#ae"/>
<use transform="translate(834)" xlink:href="#l"/>
<use transform="translate(862)" xlink:href="#d"/>
<use transform="translate(923)" xlink:href="#k"/>
<use transform="translate(964)" xlink:href="#DejaVuSans-20"/>
<use transform="translate(996)" xlink:href="#s"/>
<use transform="translate(1060)" xlink:href="#DejaVuSans-20"/>
<use transform="translate(1092)" xlink:href="#ak"/>
<use transform="translate(1131)" xlink:href="#q"/>
<use transform="translate(1183)" xlink:href="#p"/>
<use transform="translate(1244)" xlink:href="#t"/>
<use transform="translate(1341)" xlink:href="#d"/>
<use transform="translate(1403)" xlink:href="#DejaVuSans-20"/>
<use transform="translate(1435)" xlink:href="#v"/>
<use transform="translate(1490)" xlink:href="#r"/>
<use transform="translate(1551)" xlink:href="#t"/>
<use transform="translate(1648)" xlink:href="#t"/>
<use transform="translate(1746)" xlink:href="#l"/>
<use transform="translate(1773)" xlink:href="#j"/>
<use transform="translate(1813)" xlink:href="#aj"/>
</g>
<path d="m47.6 758h4q2 0 2-2v-4q0-2-2-2h-4q-2 0-2 2v4q0 2 2 2z" fill="#fff" opacity=".8" stroke="#ccc"/>
<g transform="translate(229 12.1) scale(.12 -.12)">
<defs>
<path id="at" transform="scale(.0156)" d="m1259 4147v-1753h794q441 0 681 228 241 228 241 650 0 419-241 647-240 228-681 228h-794zm-631 519h1425q785 0 1186-355 402-355 402-1039 0-691-402-1044-401-353-1186-353h-794v-1875h-631v4666z"/>
<path id="as" transform="scale(.0156)" d="m1159 525v-1856h-578v4831h578v-531q182 312 458 463 277 152 661 152 638 0 1036-506 399-506 399-1331t-399-1332q-398-506-1036-506-384 0-661 152-276 152-458 464zm1957 1222q0 634-261 995t-717 361q-457 0-718-361t-261-995 261-995 718-361q456 0 717 361t261 995z"/>
<path id="ar" transform="scale(.0156)" d="m2059-325q-243-625-475-815-231-191-618-191h-460v481h338q237 0 368 113 132 112 291 531l103 262-1415 3444h609l1094-2737 1094 2737h609l-1538-3825z"/>
</defs>
<use xlink:href="#at"/>
<use transform="translate(56.7)" xlink:href="#d"/>
<use transform="translate(118)" xlink:href="#k"/>
<use transform="translate(159)" xlink:href="#m"/>
<use transform="translate(195)" xlink:href="#r"/>
<use transform="translate(256)" xlink:href="#k"/>
<use transform="translate(295)" xlink:href="#t"/>
<use transform="translate(392)" xlink:href="#p"/>
<use transform="translate(454)" xlink:href="#w"/>
<use transform="translate(517)" xlink:href="#v"/>
<use transform="translate(572)" xlink:href="#d"/>
<use transform="translate(634)" xlink:href="#DejaVuSans-20"/>
<use transform="translate(665)" xlink:href="#l"/>
<use transform="translate(693)" xlink:href="#t"/>
<use transform="translate(791)" xlink:href="#as"/>
<use transform="translate(854)" xlink:href="#k"/>
<use transform="translate(893)" xlink:href="#r"/>
<use transform="translate(954)" xlink:href="#aa"/>
<use transform="translate(1013)" xlink:href="#d"/>
<use transform="translate(1075)" xlink:href="#t"/>
<use transform="translate(1172)" xlink:href="#d"/>
<use transform="translate(1234)" xlink:href="#w"/>
<use transform="translate(1297)" xlink:href="#j"/>
<use transform="translate(1336)" xlink:href="#DejaVuSans-20"/>
<use transform="translate(1368)" xlink:href="#ap"/>
<use transform="translate(1432)" xlink:href="#ar"/>
<use transform="translate(1491)" xlink:href="#DejaVuSans-20"/>
<use transform="translate(1523)" xlink:href="#v"/>
<use transform="translate(1578)" xlink:href="#r"/>
<use transform="translate(1639)" xlink:href="#w"/>
<use transform="translate(1702)" xlink:href="#m"/>
<use transform="translate(1737)" xlink:href="#l"/>
<use transform="translate(1765)" xlink:href="#af"/>
<use transform="translate(1829)" xlink:href="#ab"/>
<use transform="translate(1892)" xlink:href="#k"/>
<use transform="translate(1933)" xlink:href="#p"/>
<use transform="translate(1994)" xlink:href="#j"/>
<use transform="translate(2034)" xlink:href="#l"/>
<use transform="translate(2061)" xlink:href="#r"/>
<use transform="translate(2123)" xlink:href="#w"/>
</g>
<defs>
<clipPath id="n">
<rect x="40.6" y="35.7" width="668" height="316"/>
</clipPath>
<clipPath id="g">
<rect x="40.6" y="390" width="668" height="316"/>
</clipPath>
<clipPath id="o">
<rect x="40.6" y="745" width="668" height="316"/>
</clipPath>
</defs>
</svg>
