<?xml version="1.0" encoding="UTF-8"?>
<!DOCTYPE svg  PUBLIC '-//W3C//DTD SVG 1.1//EN'  'http://www.w3.org/Graphics/SVG/1.1/DTD/svg11.dtd'>
<svg width="720pt" height="1080pt" version="1.1" viewBox="0 0 720 1080" xmlns="http://www.w3.org/2000/svg" xmlns:xlink="http://www.w3.org/1999/xlink">
<defs>
<style type="text/css">*{stroke-linejoin: round; stroke-linecap: butt}</style>
</defs>
<path d="m0 1080h720v-1080h-720z" fill="#fff"/>
<path d="m40.6 351h676v-316h-676z" fill="#fff"/>
<path d="m62.2 351v-316" clip-path="url(#h)" fill="none" stroke="#b0b0b0" stroke-linecap="square" stroke-width=".8"/>
<defs>
<path id="k" d="m0 0v3.5" stroke="#000" stroke-width=".8"/>
</defs>
<use x="62.212529" y="351.264775" stroke="#000000" stroke-width=".8" xlink:href="#k"/>
<g transform="translate(41.3 366) scale(.1 -.1)">
<defs>
<path id="d" transform="scale(.0156)" d="m1228 531h2203v-531h-2962v531q359 372 979 998 621 627 780 809 303 340 423 576 121 236 121 464 0 372-261 606-261 235-680 235-297 0-627-103-329-103-704-313v638q381 153 712 231 332 78 607 78 725 0 1156-363 431-362 431-968 0-288-108-546-107-257-392-607-78-91-497-524-418-433-1181-1211z"/>
<path id="c" transform="scale(.0156)" d="m2034 4250q-487 0-733-480-245-479-245-1442 0-959 245-1439 246-480 733-480 491 0 736 480 246 480 246 1439 0 963-246 1442-245 480-736 480zm0 500q785 0 1199-621 414-620 414-1801 0-1178-414-1799-414-620-1199-620-784 0-1198 620-414 621-414 1799 0 1181 414 1801 414 621 1198 621z"/>
<path id="ad" transform="scale(.0156)" d="m2419 4116-1594-2491h1594v2491zm-166 550h794v-3041h666v-525h-666v-1100h-628v1100h-2106v609l1940 2957z"/>
<path id="f" transform="scale(.0156)" d="m313 2009h1684v-512h-1684v512z"/>
<path id="aa" transform="scale(.0156)" d="m703 97v575q238-113 481-172 244-59 479-59 625 0 954 420 330 420 377 1277-181-269-460-413-278-144-615-144-700 0-1108 423-408 424-408 1159 0 718 425 1152 425 435 1131 435 810 0 1236-621 427-620 427-1801 0-1103-524-1761-523-658-1407-658-238 0-482 47-243 47-506 141zm1256 1978q425 0 673 290 249 291 249 798 0 503-249 795-248 292-673 292t-673-292-248-795q0-507 248-798 248-290 673-290z"/>
</defs>
<use xlink:href="#d"/>
<use transform="translate(63.6)" xlink:href="#c"/>
<use transform="translate(127)" xlink:href="#d"/>
<use transform="translate(191)" xlink:href="#ad"/>
<use transform="translate(254)" xlink:href="#f"/>
<use transform="translate(291)" xlink:href="#c"/>
<use transform="translate(354)" xlink:href="#aa"/>
</g>
<path d="m162 351v-316" clip-path="url(#h)" fill="none" stroke="#b0b0b0" stroke-linecap="square" stroke-width=".8"/>
<use x="162.277039" y="351.264775" stroke="#000000" stroke-width=".8" xlink:href="#k"/>
<g transform="translate(141 366) scale(.1 -.1)">
<defs>
<path id="e" transform="scale(.0156)" d="m794 531h1031v3560l-1122-225v575l1116 225h631v-4135h1031v-531h-2687v531z"/>
</defs>
<use xlink:href="#d"/>
<use transform="translate(63.6)" xlink:href="#c"/>
<use transform="translate(127)" xlink:href="#d"/>
<use transform="translate(191)" xlink:href="#ad"/>
<use transform="translate(254)" xlink:href="#f"/>
<use transform="translate(291)" xlink:href="#e"/>
<use transform="translate(354)" xlink:href="#e"/>
</g>
<path d="m262 351v-316" clip-path="url(#h)" fill="none" stroke="#b0b0b0" stroke-linecap="square" stroke-width=".8"/>
<use x="262.34155" y="351.264775" stroke="#000000" stroke-width=".8" xlink:href="#k"/>
<g transform="translate(241 366) scale(.1 -.1)">
<defs>
<path id="i" transform="scale(.0156)" d="m691 4666h2478v-532h-1900v-1143q137 47 274 70 138 23 276 23 781 0 1237-428 457-428 457-1159 0-753-469-1171-469-417-1322-417-294 0-599 50-304 50-629 150v635q281-153 581-228t634-75q541 0 856 284 316 284 316 772 0 487-316 771-315 285-856 285-253 0-505-56-251-56-513-175v2344z"/>
</defs>
<use xlink:href="#d"/>
<use transform="translate(63.6)" xlink:href="#c"/>
<use transform="translate(127)" xlink:href="#d"/>
<use transform="translate(191)" xlink:href="#i"/>
<use transform="translate(254)" xlink:href="#f"/>
<use transform="translate(291)" xlink:href="#c"/>
<use transform="translate(354)" xlink:href="#e"/>
</g>
<path d="m359 351v-316" clip-path="url(#h)" fill="none" stroke="#b0b0b0" stroke-linecap="square" stroke-width=".8"/>
<use x="359.125256" y="351.264775" stroke="#000000" stroke-width=".8" xlink:href="#k"/>
<g transform="translate(338 366) scale(.1 -.1)">
<defs>
<path id="ae" transform="scale(.0156)" d="m2597 2516q453-97 707-404 255-306 255-756 0-690-475-1069-475-378-1350-378-293 0-604 58t-642 174v609q262-153 574-231 313-78 654-78 593 0 904 234t311 681q0 413-289 645-289 233-804 233h-544v519h569q465 0 712 186t247 536q0 359-255 551-254 193-729 193-260 0-557-57-297-56-653-174v562q360 100 674 150t592 50q719 0 1137-327 419-326 419-882 0-388-222-655t-631-370z"/>
</defs>
<use xlink:href="#d"/>
<use transform="translate(63.6)" xlink:href="#c"/>
<use transform="translate(127)" xlink:href="#d"/>
<use transform="translate(191)" xlink:href="#i"/>
<use transform="translate(254)" xlink:href="#f"/>
<use transform="translate(291)" xlink:href="#c"/>
<use transform="translate(354)" xlink:href="#ae"/>
</g>
<path d="m459 351v-316" clip-path="url(#h)" fill="none" stroke="#b0b0b0" stroke-linecap="square" stroke-width=".8"/>
<use x="459.189766" y="351.264775" stroke="#000000" stroke-width=".8" xlink:href="#k"/>
<g transform="translate(438 366) scale(.1 -.1)">
<use xlink:href="#d"/>
<use transform="translate(63.6)" xlink:href="#c"/>
<use transform="translate(127)" xlink:href="#d"/>
<use transform="translate(191)" xlink:href="#i"/>
<use transform="translate(254)" xlink:href="#f"/>
<use transform="translate(291)" xlink:href="#c"/>
<use transform="translate(354)" xlink:href="#i"/>
</g>
<path d="m559 351v-316" clip-path="url(#h)" fill="none" stroke="#b0b0b0" stroke-linecap="square" stroke-width=".8"/>
<use x="559.254277" y="351.264775" stroke="#000000" stroke-width=".8" xlink:href="#k"/>
<g transform="translate(538 366) scale(.1 -.1)">
<defs>
<path id="ah" transform="scale(.0156)" d="m525 4666h3e3v-269l-1694-4397h-659l1594 4134h-2241v532z"/>
</defs>
<use xlink:href="#d"/>
<use transform="translate(63.6)" xlink:href="#c"/>
<use transform="translate(127)" xlink:href="#d"/>
<use transform="translate(191)" xlink:href="#i"/>
<use transform="translate(254)" xlink:href="#f"/>
<use transform="translate(291)" xlink:href="#c"/>
<use transform="translate(354)" xlink:href="#ah"/>
</g>
<path d="m661 351v-316" clip-path="url(#h)" fill="none" stroke="#b0b0b0" stroke-linecap="square" stroke-width=".8"/>
<use x="660.959189" y="351.264775" stroke="#000000" stroke-width=".8" xlink:href="#k"/>
<g transform="translate(640 366) scale(.1 -.1)">
<use xlink:href="#d"/>
<use transform="translate(63.6)" xlink:href="#c"/>
<use transform="translate(127)" xlink:href="#d"/>
<use transform="translate(191)" xlink:href="#i"/>
<use transform="translate(254)" xlink:href="#f"/>
<use transform="translate(291)" xlink:href="#c"/>
<use transform="translate(354)" xlink:href="#aa"/>
</g>
<path d="m40.6 351h676" clip-path="url(#h)" fill="none" stroke="#b0b0b0" stroke-linecap="square" stroke-width=".8"/>
<defs>
<path id="l" d="m0 0h-3.5" stroke="#000" stroke-width=".8"/>
</defs>
<use x="40.645553" y="351.264775" stroke="#000000" stroke-width=".8" xlink:href="#l"/>
<g transform="translate(3 355) scale(.1 -.1)">
<defs>
<path id="j" transform="scale(.0156)" d="m684 794h660v-794h-660v794z"/>
<path id="m" transform="scale(.0156)" d="m4488 3438-1429-1435 1429-1428-372-378-1435 1434-1434-1434-369 378 1425 1428-1425 1435 369 378 1434-1435 1435 1435 372-378z"/>
</defs>
<use xlink:href="#c"/>
<use transform="translate(63.6)" xlink:href="#j"/>
<use transform="translate(95.4)" xlink:href="#aa"/>
<use transform="translate(159)" xlink:href="#c"/>
<use transform="translate(223)" xlink:href="#m"/>
</g>
<path d="m40.6 312h676" clip-path="url(#h)" fill="none" stroke="#b0b0b0" stroke-linecap="square" stroke-width=".8"/>
<use x="40.645553" y="311.823253" stroke="#000000" stroke-width=".8" xlink:href="#l"/>
<g transform="translate(3 316) scale(.1 -.1)">
<use xlink:href="#c"/>
<use transform="translate(63.6)" xlink:href="#j"/>
<use transform="translate(95.4)" xlink:href="#aa"/>
<use transform="translate(159)" xlink:href="#i"/>
<use transform="translate(223)" xlink:href="#m"/>
</g>
<path d="m40.6 272h676" clip-path="url(#h)" fill="none" stroke="#b0b0b0" stroke-linecap="square" stroke-width=".8"/>
<use x="40.645553" y="272.38173" stroke="#000000" stroke-width=".8" xlink:href="#l"/>
<g transform="translate(3 276) scale(.1 -.1)">
<use xlink:href="#e"/>
<use transform="translate(63.6)" xlink:href="#j"/>
<use transform="translate(95.4)" xlink:href="#c"/>
<use transform="translate(159)" xlink:href="#c"/>
<use transform="translate(223)" xlink:href="#m"/>
</g>
<path d="m40.6 233h676" clip-path="url(#h)" fill="none" stroke="#b0b0b0" stroke-linecap="square" stroke-width=".8"/>
<use x="40.645553" y="232.940208" stroke="#000000" stroke-width=".8" xlink:href="#l"/>
<g transform="translate(3 237) scale(.1 -.1)">
<use xlink:href="#e"/>
<use transform="translate(63.6)" xlink:href="#j"/>
<use transform="translate(95.4)" xlink:href="#c"/>
<use transform="translate(159)" xlink:href="#i"/>
<use transform="translate(223)" xlink:href="#m"/>
</g>
<path d="m40.6 193h676" clip-path="url(#h)" fill="none" stroke="#b0b0b0" stroke-linecap="square" stroke-width=".8"/>
<use x="40.645553" y="193.498685" stroke="#000000" stroke-width=".8" xlink:href="#l"/>
<g transform="translate(3 197) scale(.1 -.1)">
<use xlink:href="#e"/>
<use transform="translate(63.6)" xlink:href="#j"/>
<use transform="translate(95.4)" xlink:href="#e"/>
<use transform="translate(159)" xlink:href="#c"/>
<use transform="translate(223)" xlink:href="#m"/>
</g>
<path d="m40.6 154h676" clip-path="url(#h)" fill="none" stroke="#b0b0b0" stroke-linecap="square" stroke-width=".8"/>
<use x="40.645553" y="154.057163" stroke="#000000" stroke-width=".8" xlink:href="#l"/>
<g transform="translate(3 158) scale(.1 -.1)">
<use xlink:href="#e"/>
<use transform="translate(63.6)" xlink:href="#j"/>
<use transform="translate(95.4)" xlink:href="#e"/>
<use transform="translate(159)" xlink:href="#i"/>
<use transform="translate(223)" xlink:href="#m"/>
</g>
<path d="m40.6 115h676" clip-path="url(#h)" fill="none" stroke="#b0b0b0" stroke-linecap="square" stroke-width=".8"/>
<use x="40.645553" y="114.61564" stroke="#000000" stroke-width=".8" xlink:href="#l"/>
<g transform="translate(3 118) scale(.1 -.1)">
<use xlink:href="#e"/>
<use transform="translate(63.6)" xlink:href="#j"/>
<use transform="translate(95.4)" xlink:href="#d"/>
<use transform="translate(159)" xlink:href="#c"/>
<use transform="translate(223)" xlink:href="#m"/>
</g>
<path d="m40.6 75.2h676" clip-path="url(#h)" fill="none" stroke="#b0b0b0" stroke-linecap="square" stroke-width=".8"/>
<use x="40.645553" y="75.174118" stroke="#000000" stroke-width=".8" xlink:href="#l"/>
<g transform="translate(3 79) scale(.1 -.1)">
<use xlink:href="#e"/>
<use transform="translate(63.6)" xlink:href="#j"/>
<use transform="translate(95.4)" xlink:href="#d"/>
<use transform="translate(159)" xlink:href="#i"/>
<use transform="translate(223)" xlink:href="#m"/>
</g>
<path d="m40.6 35.7h676" clip-path="url(#h)" fill="none" stroke="#b0b0b0" stroke-linecap="square" stroke-width=".8"/>
<use x="40.645553" y="35.732595" stroke="#000000" stroke-width=".8" xlink:href="#l"/>
<g transform="translate(3 39.5) scale(.1 -.1)">
<use xlink:href="#e"/>
<use transform="translate(63.6)" xlink:href="#j"/>
<use transform="translate(95.4)" xlink:href="#ae"/>
<use transform="translate(159)" xlink:href="#c"/>
<use transform="translate(223)" xlink:href="#m"/>
</g>
<path d="m395 218 1.07 78.3 10.3-58.5 11.6-29.2 2.91 59.7 4.66-34.6 3.89 1.27 11.2-4.23 11.8 2.93 11.3 8.27 11.6-3.75 11.5 2.54 10.8 4.09 12.1-12.4 11.5 2.18 11.1 6.76 11.5-3.47 11.3 2.32 12.1-3.75 11.2 1.02 11.6 3.28 11.3-4.84 11.4 5.24 11.7-6.85 11.2 0.705 11.5 3.01 11.9-0.582 11.5-4.05 11.2 5.25" clip-path="url(#h)" fill="none" stroke="#1f77b4" stroke-dasharray="1.5,2.475" stroke-opacity=".9" stroke-width="1.5"/>
<defs>
<path id="a" d="m-2.5 2.5h5v-5h-5z" stroke="#1f77b4" stroke-opacity=".9"/>
</defs>
<g clip-path="url(#h)" fill="#1f77b4" fill-opacity=".9" stroke="#1f77b4" stroke-opacity=".9">
<use x="394.650132" y="217.972608" xlink:href="#a"/>
<use x="395.722222" y="296.236601" xlink:href="#a"/>
<use x="406.031407" y="237.786525" xlink:href="#a"/>
<use x="417.628383" y="208.609505" xlink:href="#a"/>
<use x="420.535407" y="268.348273" xlink:href="#a"/>
<use x="425.198913" y="233.780467" xlink:href="#a"/>
<use x="429.087786" y="235.050049" xlink:href="#a"/>
<use x="440.269725" y="230.815623" xlink:href="#a"/>
<use x="452.062429" y="233.746182" xlink:href="#a"/>
<use x="463.397131" y="242.018666" xlink:href="#a"/>
<use x="475.021106" y="238.265931" xlink:href="#a"/>
<use x="486.489546" y="240.808105" xlink:href="#a"/>
<use x="497.282782" y="244.894915" xlink:href="#a"/>
<use x="509.396352" y="232.452493" xlink:href="#a"/>
<use x="520.851483" y="234.631196" xlink:href="#a"/>
<use x="531.987457" y="241.389536" xlink:href="#a"/>
<use x="543.503325" y="237.922981" xlink:href="#a"/>
<use x="554.756291" y="240.240096" xlink:href="#a"/>
<use x="566.903144" y="236.494728" xlink:href="#a"/>
<use x="578.067711" y="237.514392" xlink:href="#a"/>
<use x="589.651644" y="240.796986" xlink:href="#a"/>
<use x="600.94993" y="235.961163" xlink:href="#a"/>
<use x="612.3504" y="241.196596" xlink:href="#a"/>
<use x="624.011207" y="234.349573" xlink:href="#a"/>
<use x="635.225139" y="235.054912" xlink:href="#a"/>
<use x="646.763751" y="238.062197" xlink:href="#a"/>
<use x="658.659683" y="237.479779" xlink:href="#a"/>
<use x="670.111055" y="233.425243" xlink:href="#a"/>
<use x="681.358345" y="238.674516" xlink:href="#a"/>
</g>
<path d="m395 180 11.4-2.98 11.6 45.3 11.5 19.4 11.2-18.7 23.1 19.8 11.6-11.4 11.5 8.54 10.8 3.35 12.1-5.19 11.5 7.39 11.1 0.914 11.5-5.32 11.3-9.35 12.1-2.7 11.2 11.3 11.6-11.2 11.3 11.7 11.4 2.95 11.7-12.7 11.2 6.39 11.5 10.5 11.9-7.76 11.5 3.14 11.2 2.59" clip-path="url(#h)" fill="none" stroke="#2ca02c" stroke-linecap="square" stroke-opacity=".9" stroke-width="1.5"/>
<defs>
<path id="b" d="m0-2.5-2.5 5h5z" stroke="#2ca02c" stroke-opacity=".9"/>
</defs>
<g clip-path="url(#h)" fill="#2ca02c" fill-opacity=".9" stroke="#2ca02c" stroke-opacity=".9">
<use x="394.650132" y="179.969255" xlink:href="#b"/>
<use x="406.031407" y="176.992682" xlink:href="#b"/>
<use x="417.628383" y="222.29429" xlink:href="#b"/>
<use x="429.087786" y="241.648786" xlink:href="#b"/>
<use x="440.269725" y="222.987989" xlink:href="#b"/>
<use x="463.397131" y="242.766761" xlink:href="#b"/>
<use x="475.021106" y="231.392996" xlink:href="#b"/>
<use x="486.489546" y="239.932954" xlink:href="#b"/>
<use x="497.282782" y="243.285585" xlink:href="#b"/>
<use x="509.396352" y="238.099275" xlink:href="#b"/>
<use x="520.851483" y="245.490371" xlink:href="#b"/>
<use x="531.987457" y="246.40392" xlink:href="#b"/>
<use x="543.503325" y="241.082656" xlink:href="#b"/>
<use x="554.756291" y="231.732085" xlink:href="#b"/>
<use x="566.903144" y="229.028803" xlink:href="#b"/>
<use x="578.067711" y="240.35378" xlink:href="#b"/>
<use x="589.651644" y="229.114718" xlink:href="#b"/>
<use x="600.94993" y="240.773911" xlink:href="#b"/>
<use x="612.3504" y="243.720306" xlink:href="#b"/>
<use x="624.011207" y="231.056954" xlink:href="#b"/>
<use x="635.225139" y="237.443133" xlink:href="#b"/>
<use x="646.763751" y="247.931794" xlink:href="#b"/>
<use x="658.659683" y="240.168016" xlink:href="#b"/>
<use x="670.111055" y="243.305943" xlink:href="#b"/>
<use x="681.358345" y="245.895074" xlink:href="#b"/>
</g>
<path d="m40.6 351v-316" fill="none" stroke="#000" stroke-linecap="square" stroke-width=".8"/>
<path d="m717 351v-316" fill="none" stroke="#000" stroke-linecap="square" stroke-width=".8"/>
<path d="m40.6 351h676" fill="none" stroke="#000" stroke-linecap="square" stroke-width=".8"/>
<path d="m40.6 35.7h676" fill="none" stroke="#000" stroke-linecap="square" stroke-width=".8"/>
<g clip-path="url(#h)">
<g transform="translate(58.2 264) rotate(-90) scale(.1 -.1)">
<defs>
<path id="x" transform="scale(.0156)" d="m2375 4863v-479h-550q-309 0-430-125-120-125-120-450v-309h947v-447h-947v-3053h-578v3053h-550v447h550v244q0 584 272 851 272 268 862 268h544z"/>
<path id="r" transform="scale(.0156)" d="m2194 1759q-697 0-966-159t-269-544q0-306 202-486 202-179 548-179 479 0 768 339t289 901v128h-572zm1147 238v-2e3h-575v531q-197-318-491-470t-719-152q-537 0-855 302-317 302-317 808 0 590 395 890 396 300 1180 300h807v57q0 397-261 614t-733 217q-300 0-585-72-284-72-546-216v532q315 122 612 182 297 61 578 61 760 0 1135-394 375-393 375-1193z"/>
<path id="s" transform="scale(.0156)" d="m2834 3397v-544q-243 125-506 187-262 63-544 63-428 0-642-131t-214-394q0-200 153-314t616-217l197-44q612-131 870-370t258-667q0-488-386-773-386-284-1061-284-281 0-586 55t-642 164v594q319-166 628-249 309-82 613-82 406 0 624 139 219 139 219 392 0 234-158 359-157 125-692 241l-200 47q-534 112-772 345-237 233-237 639 0 494 350 762 350 269 994 269 318 0 599-47 282-46 519-140z"/>
<path id="n" transform="scale(.0156)" d="m1172 4494v-994h1184v-447h-1184v-1900q0-428 117-550t477-122h590v-481h-590q-666 0-919 248-253 249-253 905v1900h-422v447h422v994h578z"/>
<path id="g" transform="scale(.0156)" d="m3597 1894v-281h-2644q38-594 358-905t892-311q331 0 642 81t618 244v-544q-310-131-635-200t-659-69q-838 0-1327 487-489 488-489 1320 0 859 464 1363 464 505 1252 505 706 0 1117-455 411-454 411-1235zm-575 169q-6 471-264 752-258 282-683 282-481 0-770-272t-333-766l2050 4z"/>
<path id="q" transform="scale(.0156)" d="m2631 2963q-97 56-211 82-114 27-251 27-488 0-749-317t-261-911v-1844h-578v3500h578v-544q182 319 472 473 291 155 707 155 59 0 131-8 72-7 159-23l3-590z"/>
<path id="ao" transform="scale(.0156)" d="m8863 2147v-281l-1229-1228-375 375 729 728h-7622v531h7622l-729 728 375 375 1229-1228z"/>
</defs>
<use xlink:href="#x"/>
<use transform="translate(35.2)" xlink:href="#r"/>
<use transform="translate(96.5)" xlink:href="#s"/>
<use transform="translate(149)" xlink:href="#n"/>
<use transform="translate(188)" xlink:href="#g"/>
<use transform="translate(249)" xlink:href="#q"/>
<use transform="translate(290)" xlink:href="#DejaVuSans-20"/>
<use transform="translate(322)" xlink:href="#ao"/>
</g>
</g>
<g clip-path="url(#h)">
<g transform="translate(58.2 332) rotate(-90) scale(.1 -.1)">
<defs>
<path id="ap" transform="scale(.0156)" d="m313 1866v281l1228 1228 375-375-728-728h7621v-531h-7621l728-728-375-375-1228 1228z"/>
<path id="w" transform="scale(.0156)" d="m603 4863h575v-4863h-575v4863z"/>
<path id="t" transform="scale(.0156)" d="m1959 3097q-462 0-731-361t-269-989 267-989q268-361 733-361 460 0 728 362 269 363 269 988 0 622-269 986-268 364-728 364zm0 487q750 0 1178-488 429-487 429-1349 0-859-429-1349-428-489-1178-489-753 0-1180 489-426 490-426 1349 0 862 426 1349 427 488 1180 488z"/>
<path id="af" transform="scale(.0156)" d="m269 3500h575l719-2731 715 2731h678l719-2731 716 2731h575l-916-3500h-678l-753 2869-756-2869h-679l-915 3500z"/>
</defs>
<use xlink:href="#ap"/>
<use transform="translate(143)" xlink:href="#DejaVuSans-20"/>
<use transform="translate(175)" xlink:href="#s"/>
<use transform="translate(227)" xlink:href="#w"/>
<use transform="translate(255)" xlink:href="#t"/>
<use transform="translate(316)" xlink:href="#af"/>
<use transform="translate(398)" xlink:href="#g"/>
<use transform="translate(460)" xlink:href="#q"/>
</g>
</g>
<g transform="translate(174 29.7) scale(.12 -.12)">
<defs>
<path id="al" transform="scale(.0156)" d="m628 4666h2950v-532h-2319v-1381h2222v-531h-2222v-1691h2375v-531h-3006v4666z"/>
<path id="y" transform="scale(.0156)" d="m3122 3366v-538q-244 135-489 202t-495 67q-560 0-870-355-309-354-309-995t309-996q310-354 870-354 250 0 495 67t489 202v-532q-241-112-499-168-257-57-548-57-791 0-1257 497-465 497-465 1341 0 856 470 1346 471 491 1290 491 265 0 518-55 253-54 491-163z"/>
<path id="ar" transform="scale(.0156)" d="m3116 1747q0 634-261 995t-717 361q-457 0-718-361t-261-995 261-995 718-361q456 0 717 361t261 995zm-1957 1222q182 312 458 463 277 152 661 152 638 0 1036-506 399-506 399-1331t-399-1332q-398-506-1036-506-384 0-661 152-276 152-458 464v-525h-578v4863h578v-1894z"/>
<path id="ab" transform="scale(.0156)" d="m544 1381v2119h575v-2097q0-497 193-746 194-248 582-248 465 0 735 297 271 297 271 810v1984h575v-3500h-575v538q-209-319-486-474-276-155-642-155-603 0-916 375-312 375-312 1097zm1447 2203z"/>
<path id="u" transform="scale(.0156)" d="m603 3500h575v-3500h-575v3500zm0 1363h575v-729h-575v729z"/>
<path id="ak" transform="scale(.0156)" d="m2906 2969v1894h575v-4863h-575v525q-181-312-458-464-276-152-664-152-634 0-1033 506-398 507-398 1332t398 1331q399 506 1033 506 388 0 664-152 277-151 458-463zm-1959-1222q0-634 261-995t717-361 718 361q263 361 263 995t-263 995q-262 361-718 361t-717-361-261-995z"/>
<path id="aq" transform="scale(.0156)" d="m3513 2113v-2113h-575v2094q0 497-194 743-194 247-581 247-466 0-735-297-269-296-269-809v-1978h-578v4863h578v-1907q207 316 486 472 280 156 646 156 603 0 912-373 310-373 310-1098z"/>
<path id="z" transform="scale(.0156)" d="m3513 2113v-2113h-575v2094q0 497-194 743-194 247-581 247-466 0-735-297-269-296-269-809v-1978h-578v3500h578v-544q207 316 486 472 280 156 646 156 603 0 912-373 310-373 310-1098z"/>
<path id="aj" transform="scale(.0156)" d="m2906 1791q0 625-258 968-257 344-723 344-462 0-720-344-258-343-258-968 0-622 258-966t720-344q466 0 723 344 258 344 258 966zm575-1357q0-893-397-1329-396-436-1215-436-303 0-572 45t-522 139v559q253-137 500-202 247-66 503-66 566 0 847 295t281 892v285q-178-310-456-463t-666-153q-643 0-1037 490-394 491-394 1301 0 812 394 1302 394 491 1037 491 388 0 666-153t456-462v531h575v-3066z"/>
<path id="ac" transform="scale(.0156)" d="m191 3500h609l1094-2937 1094 2937h609l-1313-3500h-781l-1312 3500z"/>
<path id="ag" transform="scale(.0156)" d="m-19 4666h3947v-532h-1656v-4134h-634v4134h-1657v532z"/>
<path id="an" transform="scale(.0156)" d="m1984 4856q-418-718-622-1422-203-703-203-1425 0-721 205-1429t620-1424h-500q-468 735-701 1444t-233 1409q0 697 231 1403 232 707 703 1444h500z"/>
<path id="v" transform="scale(.0156)" d="m3328 2828q216 388 516 572t706 184q547 0 844-383 297-382 297-1088v-2113h-578v2094q0 503-179 746-178 244-543 244-447 0-707-297-259-296-259-809v-1978h-578v2094q0 506-178 748t-550 242q-441 0-701-298-259-298-259-808v-1978h-578v3500h578v-544q197 322 472 475t653 153q382 0 649-194 267-193 395-562z"/>
<path id="am" transform="scale(.0156)" d="m513 4856h500q468-737 701-1444 233-706 233-1403 0-700-233-1409t-701-1444h-500q415 716 620 1424t205 1429q0 722-205 1425-205 704-620 1422z"/>
</defs>
<use xlink:href="#al"/>
<use transform="translate(63.2)" xlink:href="#x"/>
<use transform="translate(98.4)" xlink:href="#x"/>
<use transform="translate(134)" xlink:href="#g"/>
<use transform="translate(195)" xlink:href="#y"/>
<use transform="translate(250)" xlink:href="#n"/>
<use transform="translate(289)" xlink:href="#DejaVuSans-20"/>
<use transform="translate(321)" xlink:href="#t"/>
<use transform="translate(382)" xlink:href="#x"/>
<use transform="translate(417)" xlink:href="#DejaVuSans-20"/>
<use transform="translate(449)" xlink:href="#ar"/>
<use transform="translate(513)" xlink:href="#ab"/>
<use transform="translate(576)" xlink:href="#u"/>
<use transform="translate(604)" xlink:href="#w"/>
<use transform="translate(632)" xlink:href="#ak"/>
<use transform="translate(695)" xlink:href="#DejaVuSans-20"/>
<use transform="translate(727)" xlink:href="#af"/>
<use transform="translate(809)" xlink:href="#u"/>
<use transform="translate(837)" xlink:href="#n"/>
<use transform="translate(876)" xlink:href="#aq"/>
<use transform="translate(939)" xlink:href="#DejaVuSans-20"/>
<use transform="translate(971)" xlink:href="#w"/>
<use transform="translate(999)" xlink:href="#r"/>
<use transform="translate(1060)" xlink:href="#n"/>
<use transform="translate(1099)" xlink:href="#g"/>
<use transform="translate(1161)" xlink:href="#s"/>
<use transform="translate(1213)" xlink:href="#n"/>
<use transform="translate(1252)" xlink:href="#DejaVuSans-20"/>
<use transform="translate(1284)" xlink:href="#y"/>
<use transform="translate(1339)" xlink:href="#w"/>
<use transform="translate(1367)" xlink:href="#r"/>
<use transform="translate(1428)" xlink:href="#z"/>
<use transform="translate(1491)" xlink:href="#aj"/>
<use transform="translate(1555)" xlink:href="#DejaVuSans-20"/>
<use transform="translate(1586)" xlink:href="#r"/>
<use transform="translate(1648)" xlink:href="#z"/>
<use transform="translate(1711)" xlink:href="#ak"/>
<use transform="translate(1775)" xlink:href="#DejaVuSans-20"/>
<use transform="translate(1806)" xlink:href="#n"/>
<use transform="translate(1846)" xlink:href="#r"/>
<use transform="translate(1907)" xlink:href="#u"/>
<use transform="translate(1935)" xlink:href="#w"/>
<use transform="translate(1962)" xlink:href="#y"/>
<use transform="translate(2017)" xlink:href="#r"/>
<use transform="translate(2079)" xlink:href="#w"/>
<use transform="translate(2106)" xlink:href="#w"/>
<use transform="translate(2134)" xlink:href="#DejaVuSans-20"/>
<use transform="translate(2166)" xlink:href="#ac"/>
<use transform="translate(2225)" xlink:href="#s"/>
<use transform="translate(2277)" xlink:href="#j"/>
<use transform="translate(2309)" xlink:href="#DejaVuSans-20"/>
<use transform="translate(2341)" xlink:href="#ag"/>
<use transform="translate(2399)" xlink:href="#u"/>
<use transform="translate(2427)" xlink:href="#g"/>
<use transform="translate(2488)" xlink:href="#q"/>
<use transform="translate(2529)" xlink:href="#DejaVuSans-20"/>
<use transform="translate(2561)" xlink:href="#e"/>
<use transform="translate(2625)" xlink:href="#DejaVuSans-20"/>
<use transform="translate(2656)" xlink:href="#an"/>
<use transform="translate(2696)" xlink:href="#s"/>
<use transform="translate(2748)" xlink:href="#r"/>
<use transform="translate(2809)" xlink:href="#v"/>
<use transform="translate(2906)" xlink:href="#g"/>
<use transform="translate(2968)" xlink:href="#DejaVuSans-20"/>
<use transform="translate(3e3)" xlink:href="#y"/>
<use transform="translate(3055)" xlink:href="#t"/>
<use transform="translate(3116)" xlink:href="#v"/>
<use transform="translate(3213)" xlink:href="#v"/>
<use transform="translate(3311)" xlink:href="#u"/>
<use transform="translate(3338)" xlink:href="#n"/>
<use transform="translate(3378)" xlink:href="#am"/>
</g>
<path d="m47.6 73.1h82.6q2 0 2-2v-28.4q0-2-2-2h-82.6q-2 0-2 2v28.4q0 2 2 2z" fill="#fff" opacity=".8" stroke="#ccc"/>
<path d="m49.6 48.8h10 10" fill="none" stroke="#1f77b4" stroke-dasharray="1.5,2.475" stroke-opacity=".9" stroke-width="1.5"/>
<use x="59.645553" y="48.831032" fill="#1f77b4" fill-opacity=".9" stroke="#1f77b4" stroke-opacity=".9" xlink:href="#a"/>
<g transform="translate(77.6 52.3) scale(.1 -.1)">
<defs>
<path id="ai" transform="scale(.0156)" d="m3513 3500-1266-1703 1331-1797h-678l-1019 1375-1018-1375h-679l1360 1831-1244 1669h678l928-1247 928 1247h679z"/>
</defs>
<use xlink:href="#w"/>
<use transform="translate(27.8)" xlink:href="#u"/>
<use transform="translate(55.6)" xlink:href="#z"/>
<use transform="translate(119)" xlink:href="#ab"/>
<use transform="translate(182)" xlink:href="#ai"/>
<use transform="translate(242)" xlink:href="#f"/>
<use transform="translate(275)" xlink:href="#ac"/>
<use transform="translate(334)" xlink:href="#ab"/>
<use transform="translate(398)" xlink:href="#w"/>
<use transform="translate(425)" xlink:href="#n"/>
<use transform="translate(465)" xlink:href="#q"/>
</g>
<path d="m49.6 63.5h10 10" fill="none" stroke="#2ca02c" stroke-linecap="square" stroke-opacity=".9" stroke-width="1.5"/>
<use x="59.645553" y="63.509158" fill="#2ca02c" fill-opacity=".9" stroke="#2ca02c" stroke-opacity=".9" xlink:href="#b"/>
<g transform="translate(77.6 67) scale(.1 -.1)">
<use xlink:href="#v"/>
<use transform="translate(97.4)" xlink:href="#r"/>
<use transform="translate(159)" xlink:href="#y"/>
<use transform="translate(214)" xlink:href="#t"/>
<use transform="translate(275)" xlink:href="#s"/>
</g>
<path d="m40.6 706h676v-316h-676z" fill="#fff"/>
<path d="m61.6 706v-316" clip-path="url(#p)" fill="none" stroke="#b0b0b0" stroke-linecap="square" stroke-width=".8"/>
<use x="61.597379" y="705.793205" stroke="#000000" stroke-width=".8" xlink:href="#k"/>
<g transform="translate(40.7 720) scale(.1 -.1)">
<use xlink:href="#d"/>
<use transform="translate(63.6)" xlink:href="#c"/>
<use transform="translate(127)" xlink:href="#d"/>
<use transform="translate(191)" xlink:href="#ad"/>
<use transform="translate(254)" xlink:href="#f"/>
<use transform="translate(291)" xlink:href="#c"/>
<use transform="translate(354)" xlink:href="#aa"/>
</g>
<path d="m162 706v-316" clip-path="url(#p)" fill="none" stroke="#b0b0b0" stroke-linecap="square" stroke-width=".8"/>
<use x="161.661889" y="705.793205" stroke="#000000" stroke-width=".8" xlink:href="#k"/>
<g transform="translate(141 720) scale(.1 -.1)">
<use xlink:href="#d"/>
<use transform="translate(63.6)" xlink:href="#c"/>
<use transform="translate(127)" xlink:href="#d"/>
<use transform="translate(191)" xlink:href="#ad"/>
<use transform="translate(254)" xlink:href="#f"/>
<use transform="translate(291)" xlink:href="#e"/>
<use transform="translate(354)" xlink:href="#e"/>
</g>
<path d="m262 706v-316" clip-path="url(#p)" fill="none" stroke="#b0b0b0" stroke-linecap="square" stroke-width=".8"/>
<use x="261.726399" y="705.793205" stroke="#000000" stroke-width=".8" xlink:href="#k"/>
<g transform="translate(241 720) scale(.1 -.1)">
<use xlink:href="#d"/>
<use transform="translate(63.6)" xlink:href="#c"/>
<use transform="translate(127)" xlink:href="#d"/>
<use transform="translate(191)" xlink:href="#i"/>
<use transform="translate(254)" xlink:href="#f"/>
<use transform="translate(291)" xlink:href="#c"/>
<use transform="translate(354)" xlink:href="#e"/>
</g>
<path d="m359 706v-316" clip-path="url(#p)" fill="none" stroke="#b0b0b0" stroke-linecap="square" stroke-width=".8"/>
<use x="358.510106" y="705.793205" stroke="#000000" stroke-width=".8" xlink:href="#k"/>
<g transform="translate(338 720) scale(.1 -.1)">
<use xlink:href="#d"/>
<use transform="translate(63.6)" xlink:href="#c"/>
<use transform="translate(127)" xlink:href="#d"/>
<use transform="translate(191)" xlink:href="#i"/>
<use transform="translate(254)" xlink:href="#f"/>
<use transform="translate(291)" xlink:href="#c"/>
<use transform="translate(354)" xlink:href="#ae"/>
</g>
<path d="m459 706v-316" clip-path="url(#p)" fill="none" stroke="#b0b0b0" stroke-linecap="square" stroke-width=".8"/>
<use x="458.574616" y="705.793205" stroke="#000000" stroke-width=".8" xlink:href="#k"/>
<g transform="translate(438 720) scale(.1 -.1)">
<use xlink:href="#d"/>
<use transform="translate(63.6)" xlink:href="#c"/>
<use transform="translate(127)" xlink:href="#d"/>
<use transform="translate(191)" xlink:href="#i"/>
<use transform="translate(254)" xlink:href="#f"/>
<use transform="translate(291)" xlink:href="#c"/>
<use transform="translate(354)" xlink:href="#i"/>
</g>
<path d="m559 706v-316" clip-path="url(#p)" fill="none" stroke="#b0b0b0" stroke-linecap="square" stroke-width=".8"/>
<use x="558.639126" y="705.793205" stroke="#000000" stroke-width=".8" xlink:href="#k"/>
<g transform="translate(538 720) scale(.1 -.1)">
<use xlink:href="#d"/>
<use transform="translate(63.6)" xlink:href="#c"/>
<use transform="translate(127)" xlink:href="#d"/>
<use transform="translate(191)" xlink:href="#i"/>
<use transform="translate(254)" xlink:href="#f"/>
<use transform="translate(291)" xlink:href="#c"/>
<use transform="translate(354)" xlink:href="#ah"/>
</g>
<path d="m660 706v-316" clip-path="url(#p)" fill="none" stroke="#b0b0b0" stroke-linecap="square" stroke-width=".8"/>
<use x="660.344038" y="705.793205" stroke="#000000" stroke-width=".8" xlink:href="#k"/>
<g transform="translate(639 720) scale(.1 -.1)">
<use xlink:href="#d"/>
<use transform="translate(63.6)" xlink:href="#c"/>
<use transform="translate(127)" xlink:href="#d"/>
<use transform="translate(191)" xlink:href="#i"/>
<use transform="translate(254)" xlink:href="#f"/>
<use transform="translate(291)" xlink:href="#c"/>
<use transform="translate(354)" xlink:href="#aa"/>
</g>
<path d="m40.6 673h676" clip-path="url(#p)" fill="none" stroke="#b0b0b0" stroke-linecap="square" stroke-width=".8"/>
<use x="40.645553" y="673.16728" stroke="#000000" stroke-width=".8" xlink:href="#l"/>
<g transform="translate(3 677) scale(.1 -.1)">
<defs>
<path id="ay" transform="scale(.0156)" d="m2113 2584q-425 0-674-291-248-290-248-796 0-503 248-796 249-292 674-292t673 292q248 293 248 796 0 506-248 796-248 291-673 291zm1253 1979v-575q-238 112-480 171-242 60-480 60-625 0-955-422-329-422-376-1275 184 272 462 417 279 145 613 145 703 0 1111-427 408-426 408-1160 0-719-425-1154-425-434-1131-434-810 0-1238 620-428 621-428 1799 0 1106 525 1764t1409 658q238 0 480-47t505-140z"/>
</defs>
<use xlink:href="#c"/>
<use transform="translate(63.6)" xlink:href="#j"/>
<use transform="translate(95.4)" xlink:href="#ay"/>
<use transform="translate(159)" xlink:href="#c"/>
<use transform="translate(223)" xlink:href="#m"/>
</g>
<path d="m40.6 612h676" clip-path="url(#p)" fill="none" stroke="#b0b0b0" stroke-linecap="square" stroke-width=".8"/>
<use x="40.645553" y="612.222101" stroke="#000000" stroke-width=".8" xlink:href="#l"/>
<g transform="translate(3 616) scale(.1 -.1)">
<use xlink:href="#c"/>
<use transform="translate(63.6)" xlink:href="#j"/>
<use transform="translate(95.4)" xlink:href="#ah"/>
<use transform="translate(159)" xlink:href="#c"/>
<use transform="translate(223)" xlink:href="#m"/>
</g>
<path d="m40.6 551h676" clip-path="url(#p)" fill="none" stroke="#b0b0b0" stroke-linecap="square" stroke-width=".8"/>
<use x="40.645553" y="551.276922" stroke="#000000" stroke-width=".8" xlink:href="#l"/>
<g transform="translate(3 555) scale(.1 -.1)">
<defs>
<path id="ax" transform="scale(.0156)" d="m2034 2216q-450 0-708-241-257-241-257-662 0-422 257-663 258-241 708-241t709 242q260 243 260 662 0 421-258 662-257 241-711 241zm-631 268q-406 100-633 378-226 279-226 679 0 559 398 884 399 325 1092 325 697 0 1094-325t397-884q0-400-227-679-226-278-629-378 456-106 710-416 255-309 255-755 0-679-414-1042-414-362-1186-362-771 0-1186 362-414 363-414 1042 0 446 256 755 257 310 713 416zm-231 997q0-362 226-565 227-203 636-203 407 0 636 203 230 203 230 565 0 363-230 566-229 203-636 203-409 0-636-203-226-203-226-566z"/>
</defs>
<use xlink:href="#c"/>
<use transform="translate(63.6)" xlink:href="#j"/>
<use transform="translate(95.4)" xlink:href="#ax"/>
<use transform="translate(159)" xlink:href="#c"/>
<use transform="translate(223)" xlink:href="#m"/>
</g>
<path d="m40.6 490h676" clip-path="url(#p)" fill="none" stroke="#b0b0b0" stroke-linecap="square" stroke-width=".8"/>
<use x="40.645553" y="490.331743" stroke="#000000" stroke-width=".8" xlink:href="#l"/>
<g transform="translate(3 494) scale(.1 -.1)">
<use xlink:href="#c"/>
<use transform="translate(63.6)" xlink:href="#j"/>
<use transform="translate(95.4)" xlink:href="#aa"/>
<use transform="translate(159)" xlink:href="#c"/>
<use transform="translate(223)" xlink:href="#m"/>
</g>
<path d="m40.6 429h676" clip-path="url(#p)" fill="none" stroke="#b0b0b0" stroke-linecap="square" stroke-width=".8"/>
<use x="40.645553" y="429.386564" stroke="#000000" stroke-width=".8" xlink:href="#l"/>
<g transform="translate(3 433) scale(.1 -.1)">
<use xlink:href="#e"/>
<use transform="translate(63.6)" xlink:href="#j"/>
<use transform="translate(95.4)" xlink:href="#c"/>
<use transform="translate(159)" xlink:href="#c"/>
<use transform="translate(223)" xlink:href="#m"/>
</g>
<g stroke="#1f77b4" stroke-opacity=".9">
<path d="m71.4 624 22.4 26 13.7-13.8 10.5 6.09 12.4 36.6 9.92 12.2h3.22l1.74-6.09h1.51l1.83 6.09 1.67-12.2 1.26 12.2 1.87-6.09h5.1l1.64-6.09h1.47l1.74 6.09 1.23-6.09 1.93 6.09 1.6-12.2 1.85 6.09 1.55-6.09 0.837 6.09 0.837-6.09 1.21 6.09h2.07l1.55-6.09 1.81 6.09h1.45l1.8-6.09 1.68-6.09 1.56 12.2 1.71 6.09 0.124-6.09 1.49-12.2 1.67 6.09h1.44l1.75-6.09 1.76-60.9 1.6-30.5 1.48-6.09 1.71 6.09 1.56 22.7 1.65-0.403 1.19 1.88 0.567 2.77 1.2-3.69 1.59-2.96 0.322 1.67 1.48-3.88 1.7 4.29 1.91 10.9 1.7-16.2 1.24 4.63 0.404-1.14 1.45-2.31 0.471-5.43 1.17 1.82 1.39 1.46 0.819 3.5 0.876 0.317 1.62-4.38 2.03 6.91 1.19-0.511 0.388 0.168 0.825-0.527 0.714 2.15 1.27-3.9 0.132-2.32 1.45-2.14 2.18 3.66 1.48-1.53 1.8 0.302 0.475-2.79 0.638 1.03 2.19-12.1 1.37 3.51 3.24-0.256 1.8-13.6 1.45 2.85 1.59 2.25 1.93-6.15 1.66 2.68 1.57 4.01 1.71-0.399 1.55-3.35 1.68 7.05 1.7-4.63 1.43-1.23 1.83-1.9 1.77-0.749 1.53 7.61 1.75-1.62 1.51-4.96 3.15 0.851 1.38-1.77 0.625 2.06 1.26-3.58 1.89 3.39 1.22-1.18 2.25-47.8 1.33-15.8 1.32-1.83 0.507 1.2 1.56 5.3 1.58 0.1 1.79 2.24 1.63 12.1 1.61-2.99 0.13 3.16 0.855-4.65 0.713 4.68 1.07-13.1 0.522 5.08 2.93-6.34 1.69-0.0838 2 11 0.784 2.52 0.855-1.11 1.63-13.2 1.53 0.443 1.32-17.5 1.58 7.03 1.6-0.337 0.482-0.844 1.19 9.17 2.07 0.263 1.41-7.5 1.91 2.52 1.58 9.53 1.7-3.87 1.63-1.93 1.53 4.23 1.79-5.27 1.58 2.1 1.25-1.3 0.093-2.68 1.81 0.962 1.48 2.87 1.99-1.3 1.37-1.27 1.89-4.05 1.5 1.21 1.79 1.19 1.23-3.09 1.64 3.54 2.08-0.785 1.45-2.08 0.631 5.6 0.177-0.373 0.797 2.31 1.21-0.606 0.481-0.757 1.76 12.4 1.36-8.15 0.169-2.48 1.6-3.89 1.64 11.5 0.319-7.34 1.43 3.9 1.65-6.31 1.64 2.13 1.69-3.66 1.47 3.46 1.67-1.8 1.54 9.34 1.23-26 0.62-1.14 1.65-5.22 1.54 5.93 1.51 2.62 0.217-2.36 1.53 2.42 1.47-1.84 1.85-2.69 1.32 2.84 0.354 6.36 1.02-5.06 0.69-7.59 1.65 1.58 1.66 2.92 1.62 7.68 1.58-0.821 1.07-1.69 2.14 1.2 0.105 2.93 0.824-2.74 0.839 2.22 1.31 1.89 0.0175 37.3 0.246 1.33 1.4 0.0281 1.97-3.65 1.46 1.87 1.77 4.09 1.51-4.68 0.243 0.301 1.58-19.2 1.63-2.67 1.42-0.512 1.78-1.62 1.66 6.98 1.69-1.34 1.22-1.67 0.474-3.54 1.28 4.01 0.266-0.36 1.27-16.5 0.393 4.25 0.983-26.8 0.588-3.45 1.56 7.12 1.74 1.52 1.71-1.82 1.68-4.31 1.53-2.06 1.59 1.21 0.412 3.11 1.15-4.98 1.76 1.84 1.35 3.24 1.99 1.76 1.62-1.98 1.67-0.426 1.64 1.79 1.69 0.527 1.42-1.53 1.75 4.19 1.68-2.71 1.65-4 0.649 0.823 1.06 3.45 1.59-1.05 1.57 4.84 1.01 1.46 0.696-4.31 1.43-0.511 1.86-0.919 1.66 1.4 0.822 7.66 2.46-2.9 1.65 0.389 1.37-1.25 1.8-3.64 1.17 1.86 2.08 1.85 1.33-2.54 1.66-0.334 1.99 6.12 1.47-5.44 1.77-0.9 3.39 4.92 1.63 1.45 1.67-3.66 1.55-1.85 1.57-1.53 0.988 3.1 2.38-4.61 1.55 1.81 1.55 0.267 1.84-1.84 1.52 0.227 1.44 2.5 1.84-5.69 1.23 6.84 2.19-0.46 1.22-2.36 2.03 4.66 1.28-5.71 2.04-2.47 1.46 3.63 1.73 3.84 1.75-4.43 0.923 0.497 2.32-0.242 1.61 0.965 1.61 1.68 1.18 1.59 1.87-3.48 1.92 2.06 1.64-0.0792 1.66-2.13 1.47 3.67 1.73-4.56 1.22-2.69 1.88 1.46 1.88 3.88 1.51-3.82 1.37 6.28 2.07-7.63 1.11 1.99 1.43 2.1 2.25-2.68 2.96 6.41 1.66-2.29 1.87 0.275 1.29-1.43 2.12 2.04 1.7-1.89 1.25 5.45 1.9-2.99 1.77-1.08 1.64 1.5 1.54-1.26 1.36 1.82 1.79-1.41 1.88-0.244 1.14-0.298 1.69 0.303 1.69-2.66 1.5-2.68 1.89 5.91 1.9-1.42 1.67 2.14 2.93 1.67 1.78-4.2 1.3 4.31 1.72-1.22 1.84-1.64 1.61-1.19 1.56 2.6 1.94-0.965 1.2-0.339 1.74 3.85 1.51-3.35 1.84-2 1.87-2.99 1.55 4.01 1.72-0.619 1.75 7.4 1.33-8.04 1.59 0.553 1.92 4.97 1.7-7.05 1.57 4.71 1.55-3.45 3.3 1.29 1.17 2.76 2.29 0.411 1.44-0.81 1.68-0.546 1.67 0.117 1.65 2.93 1.75-6.95 1.06 6 2-1.01 1.67-0.055 1.78-1.65 1.69 2.87 1.1-4.08 1.85 5.34 1.81-5.49 1.74 2.05 1.74 0.632 1.38-1.68 1.84-1.83 1.46 1.26 1.78 0.396 1.51-1.49 1.69-2.05 1.79 4.56 1.67-2.2 1.08-4.38 2 1.46 3.03 4.33 2.01 0.12 1.6-3.55 1.29 3.51" clip-path="url(#p)" fill="none" stroke-dasharray="1.5,2.475" stroke-width="1.5"/>
<g clip-path="url(#p)" fill="#1f77b4" fill-opacity=".9">
<use x="71.388926" y="624.411136" xlink:href="#a"/>
<use x="93.833344" y="650.438901" xlink:href="#a"/>
<use x="107.546533" y="636.600172" xlink:href="#a"/>
<use x="118.050819" y="642.69469" xlink:href="#a"/>
<use x="130.423" y="679.261797" xlink:href="#a"/>
<use x="140.342589" y="691.450833" xlink:href="#a"/>
<use x="141.962201" y="691.450833" xlink:href="#a"/>
<use x="143.558251" y="691.450833" xlink:href="#a"/>
<use x="145.300608" y="685.356315" xlink:href="#a"/>
<use x="146.809835" y="685.356315" xlink:href="#a"/>
<use x="148.638826" y="691.450833" xlink:href="#a"/>
<use x="150.305828" y="679.261797" xlink:href="#a"/>
<use x="151.563336" y="691.450833" xlink:href="#a"/>
<use x="153.437685" y="685.356315" xlink:href="#a"/>
<use x="155.095497" y="685.356315" xlink:href="#a"/>
<use x="156.733051" y="685.356315" xlink:href="#a"/>
<use x="158.532803" y="685.356315" xlink:href="#a"/>
<use x="160.17256" y="679.261797" xlink:href="#a"/>
<use x="161.644308" y="679.261797" xlink:href="#a"/>
<use x="163.383134" y="685.356315" xlink:href="#a"/>
<use x="164.613701" y="679.261797" xlink:href="#a"/>
<use x="166.540736" y="685.356315" xlink:href="#a"/>
<use x="168.141647" y="673.16728" xlink:href="#a"/>
<use x="169.993649" y="679.261797" xlink:href="#a"/>
<use x="171.542766" y="673.16728" xlink:href="#a"/>
<use x="172.379693" y="679.261797" xlink:href="#a"/>
<use x="173.216678" y="673.16728" xlink:href="#a"/>
<use x="174.429512" y="679.261797" xlink:href="#a"/>
<use x="175.167351" y="679.261797" xlink:href="#a"/>
<use x="176.495602" y="679.261797" xlink:href="#a"/>
<use x="178.048743" y="673.16728" xlink:href="#a"/>
<use x="179.856299" y="679.261797" xlink:href="#a"/>
<use x="181.305321" y="679.261797" xlink:href="#a"/>
<use x="183.106877" y="673.16728" xlink:href="#a"/>
<use x="184.790225" y="667.072762" xlink:href="#a"/>
<use x="186.346613" y="679.261797" xlink:href="#a"/>
<use x="188.053467" y="685.356315" xlink:href="#a"/>
<use x="188.17718" y="679.261797" xlink:href="#a"/>
<use x="189.666832" y="667.072762" xlink:href="#a"/>
<use x="191.33858" y="673.16728" xlink:href="#a"/>
<use x="192.783387" y="673.16728" xlink:href="#a"/>
<use x="194.532351" y="667.072762" xlink:href="#a"/>
<use x="195.930737" y="617.65062" xlink:href="#a"/>
<use x="196.288246" y="606.127583" xlink:href="#a"/>
<use x="197.622097" y="581.749511" xlink:href="#a"/>
<use x="197.890675" y="575.654993" xlink:href="#a"/>
<use x="199.369505" y="569.560475" xlink:href="#a"/>
<use x="201.080327" y="575.654993" xlink:href="#a"/>
<use x="202.642335" y="598.355971" xlink:href="#a"/>
<use x="204.296501" y="597.953438" xlink:href="#a"/>
<use x="205.491166" y="599.83082" xlink:href="#a"/>
<use x="206.058566" y="602.597045" xlink:href="#a"/>
<use x="207.254977" y="598.904224" xlink:href="#a"/>
<use x="208.846984" y="595.947943" xlink:href="#a"/>
<use x="209.169349" y="597.617484" xlink:href="#a"/>
<use x="210.645711" y="593.735874" xlink:href="#a"/>
<use x="212.342843" y="598.023762" xlink:href="#a"/>
<use x="214.257727" y="608.882181" xlink:href="#a"/>
<use x="215.954651" y="592.68274" xlink:href="#a"/>
<use x="217.197293" y="597.31241" xlink:href="#a"/>
<use x="217.600843" y="596.168738" xlink:href="#a"/>
<use x="219.052846" y="593.857852" xlink:href="#a"/>
<use x="219.523702" y="588.427535" xlink:href="#a"/>
<use x="220.693286" y="590.251481" xlink:href="#a"/>
<use x="222.081874" y="591.712087" xlink:href="#a"/>
<use x="222.900556" y="595.208485" xlink:href="#a"/>
<use x="223.776804" y="595.525273" xlink:href="#a"/>
<use x="225.399891" y="591.147401" xlink:href="#a"/>
<use x="227.425958" y="598.056294" xlink:href="#a"/>
<use x="228.33547" y="597.719603" xlink:href="#a"/>
<use x="228.619483" y="597.54522" xlink:href="#a"/>
<use x="229.007636" y="597.713197" xlink:href="#a"/>
<use x="229.832355" y="597.18612" xlink:href="#a"/>
<use x="230.546272" y="599.336633" xlink:href="#a"/>
<use x="231.813862" y="595.434782" xlink:href="#a"/>
<use x="231.945436" y="593.117076" xlink:href="#a"/>
<use x="233.390527" y="590.980719" xlink:href="#a"/>
<use x="235.567705" y="594.641602" xlink:href="#a"/>
<use x="237.051566" y="593.112269" xlink:href="#a"/>
<use x="238.84866" y="593.413929" xlink:href="#a"/>
<use x="239.323826" y="590.622531" xlink:href="#a"/>
<use x="239.962045" y="591.650189" xlink:href="#a"/>
<use x="242.154013" y="579.539529" xlink:href="#a"/>
<use x="243.523597" y="583.047363" xlink:href="#a"/>
<use x="246.759726" y="582.791181" xlink:href="#a"/>
<use x="248.555093" y="569.219985" xlink:href="#a"/>
<use x="250.003735" y="572.067775" xlink:href="#a"/>
<use x="251.590159" y="574.319811" xlink:href="#a"/>
<use x="253.517118" y="568.168418" xlink:href="#a"/>
<use x="255.175063" y="570.851548" xlink:href="#a"/>
<use x="256.743185" y="574.857086" xlink:href="#a"/>
<use x="258.453797" y="574.458054" xlink:href="#a"/>
<use x="260.00861" y="571.107823" xlink:href="#a"/>
<use x="261.683737" y="578.159393" xlink:href="#a"/>
<use x="263.379882" y="573.529708" xlink:href="#a"/>
<use x="264.805456" y="572.300002" xlink:href="#a"/>
<use x="266.634827" y="570.398418" xlink:href="#a"/>
<use x="268.400518" y="569.649737" xlink:href="#a"/>
<use x="269.926718" y="577.260072" xlink:href="#a"/>
<use x="271.681303" y="575.644787" xlink:href="#a"/>
<use x="273.18939" y="570.687503" xlink:href="#a"/>
<use x="276.336892" y="571.538998" xlink:href="#a"/>
<use x="277.714336" y="569.765076" xlink:href="#a"/>
<use x="278.339113" y="571.822073" xlink:href="#a"/>
<use x="279.597419" y="568.243299" xlink:href="#a"/>
<use x="281.490564" y="571.633433" xlink:href="#a"/>
<use x="282.707803" y="570.455168" xlink:href="#a"/>
<use x="284.779949" y="524.386264" xlink:href="#a"/>
<use x="284.952932" y="522.607864" xlink:href="#a"/>
<use x="286.280005" y="506.845419" xlink:href="#a"/>
<use x="287.599504" y="505.02002" xlink:href="#a"/>
<use x="288.106186" y="506.222665" xlink:href="#a"/>
<use x="289.662537" y="511.517916" xlink:href="#a"/>
<use x="291.245771" y="511.618179" xlink:href="#a"/>
<use x="293.036847" y="513.856728" xlink:href="#a"/>
<use x="294.663788" y="525.919196" xlink:href="#a"/>
<use x="296.275691" y="522.925746" xlink:href="#a"/>
<use x="296.405424" y="526.089117" xlink:href="#a"/>
<use x="297.260179" y="521.438436" xlink:href="#a"/>
<use x="297.972938" y="526.115573" xlink:href="#a"/>
<use x="299.038572" y="513.029971" xlink:href="#a"/>
<use x="299.560235" y="518.107573" xlink:href="#a"/>
<use x="301.132344" y="514.829282" xlink:href="#a"/>
<use x="302.485998" y="511.763649" xlink:href="#a"/>
<use x="304.172327" y="511.679886" xlink:href="#a"/>
<use x="306.168472" y="522.675348" xlink:href="#a"/>
<use x="306.952201" y="525.197923" xlink:href="#a"/>
<use x="307.80671" y="524.092178" xlink:href="#a"/>
<use x="309.437618" y="510.878753" xlink:href="#a"/>
<use x="310.96678" y="511.322078" xlink:href="#a"/>
<use x="312.284456" y="493.869335" xlink:href="#a"/>
<use x="313.86583" y="500.901771" xlink:href="#a"/>
<use x="315.468962" y="500.56431" xlink:href="#a"/>
<use x="315.950697" y="499.720714" xlink:href="#a"/>
<use x="317.138033" y="508.887595" xlink:href="#a"/>
<use x="319.20811" y="509.151013" xlink:href="#a"/>
<use x="320.619672" y="501.649981" xlink:href="#a"/>
<use x="322.53186" y="504.166302" xlink:href="#a"/>
<use x="324.10712" y="513.697459" xlink:href="#a"/>
<use x="325.810822" y="509.826404" xlink:href="#a"/>
<use x="327.44211" y="507.893733" xlink:href="#a"/>
<use x="328.967608" y="512.125742" xlink:href="#a"/>
<use x="330.759007" y="506.858415" xlink:href="#a"/>
<use x="332.342564" y="508.95485" xlink:href="#a"/>
<use x="333.595858" y="507.653729" xlink:href="#a"/>
<use x="333.688833" y="504.977031" xlink:href="#a"/>
<use x="335.500907" y="505.939017" xlink:href="#a"/>
<use x="336.981427" y="508.806791" xlink:href="#a"/>
<use x="338.970148" y="507.511379" xlink:href="#a"/>
<use x="340.335972" y="506.241841" xlink:href="#a"/>
<use x="342.225738" y="502.18964" xlink:href="#a"/>
<use x="343.728927" y="503.403576" xlink:href="#a"/>
<use x="345.522414" y="504.590898" xlink:href="#a"/>
<use x="346.747475" y="501.505521" xlink:href="#a"/>
<use x="348.388276" y="505.040637" xlink:href="#a"/>
<use x="350.468283" y="504.255986" xlink:href="#a"/>
<use x="351.920019" y="502.179666" xlink:href="#a"/>
<use x="352.551213" y="507.775455" xlink:href="#a"/>
<use x="352.728601" y="507.40219" xlink:href="#a"/>
<use x="353.525619" y="509.713142" xlink:href="#a"/>
<use x="354.731087" y="509.107523" xlink:href="#a"/>
<use x="355.211987" y="508.350728" xlink:href="#a"/>
<use x="356.975836" y="520.772015" xlink:href="#a"/>
<use x="358.338471" y="512.625884" xlink:href="#a"/>
<use x="358.507599" y="510.142721" xlink:href="#a"/>
<use x="360.111358" y="506.251518" xlink:href="#a"/>
<use x="361.747127" y="517.729802" xlink:href="#a"/>
<use x="362.066303" y="510.386423" xlink:href="#a"/>
<use x="363.498009" y="514.282452" xlink:href="#a"/>
<use x="365.144695" y="507.976815" xlink:href="#a"/>
<use x="366.780389" y="510.105522" xlink:href="#a"/>
<use x="368.467629" y="506.450263" xlink:href="#a"/>
<use x="369.935998" y="509.906301" xlink:href="#a"/>
<use x="371.607214" y="508.105454" xlink:href="#a"/>
<use x="373.147711" y="517.44436" xlink:href="#a"/>
<use x="374.375221" y="491.490558" xlink:href="#a"/>
<use x="374.994872" y="490.351908" xlink:href="#a"/>
<use x="376.643343" y="485.127413" xlink:href="#a"/>
<use x="378.178865" y="491.057074" xlink:href="#a"/>
<use x="379.692117" y="493.675979" xlink:href="#a"/>
<use x="379.908995" y="491.317653" xlink:href="#a"/>
<use x="381.434094" y="493.739398" xlink:href="#a"/>
<use x="382.905387" y="491.903899" xlink:href="#a"/>
<use x="384.759325" y="489.21173" xlink:href="#a"/>
<use x="386.082336" y="492.049713" xlink:href="#a"/>
<use x="386.43637" y="498.404756" xlink:href="#a"/>
<use x="387.457748" y="493.344344" xlink:href="#a"/>
<use x="388.148065" y="485.753455" xlink:href="#a"/>
<use x="389.798966" y="487.338331" xlink:href="#a"/>
<use x="391.454481" y="490.259334" xlink:href="#a"/>
<use x="393.069973" y="497.940895" xlink:href="#a"/>
<use x="394.650132" y="497.119599" xlink:href="#a"/>
<use x="395.722222" y="495.433027" xlink:href="#a"/>
<use x="397.860972" y="496.628216" xlink:href="#a"/>
<use x="397.966155" y="499.557969" xlink:href="#a"/>
<use x="398.789678" y="496.821843" xlink:href="#a"/>
<use x="399.629112" y="499.044271" xlink:href="#a"/>
<use x="400.938339" y="500.932351" xlink:href="#a"/>
<use x="400.955806" y="538.278877" xlink:href="#a"/>
<use x="401.201639" y="539.612864" xlink:href="#a"/>
<use x="402.603726" y="539.640937" xlink:href="#a"/>
<use x="404.576101" y="535.987248" xlink:href="#a"/>
<use x="406.031407" y="537.854758" xlink:href="#a"/>
<use x="407.798959" y="541.945077" xlink:href="#a"/>
<use x="409.309343" y="537.263433" xlink:href="#a"/>
<use x="409.552214" y="537.564716" xlink:href="#a"/>
<use x="411.134063" y="518.405415" xlink:href="#a"/>
<use x="412.768693" y="515.739586" xlink:href="#a"/>
<use x="414.184071" y="515.227485" xlink:href="#a"/>
<use x="415.967096" y="513.603294" xlink:href="#a"/>
<use x="417.628383" y="520.581321" xlink:href="#a"/>
<use x="419.314731" y="519.239165" xlink:href="#a"/>
<use x="420.535407" y="517.5684" xlink:href="#a"/>
<use x="421.009187" y="514.027143" xlink:href="#a"/>
<use x="422.289839" y="518.035981" xlink:href="#a"/>
<use x="422.555949" y="517.676184" xlink:href="#a"/>
<use x="423.823387" y="501.203162" xlink:href="#a"/>
<use x="424.216058" y="505.455886" xlink:href="#a"/>
<use x="425.198913" y="478.690573" xlink:href="#a"/>
<use x="425.786572" y="475.239693" xlink:href="#a"/>
<use x="427.344384" y="482.362308" xlink:href="#a"/>
<use x="429.087786" y="483.878624" xlink:href="#a"/>
<use x="430.793424" y="482.059533" xlink:href="#a"/>
<use x="432.470697" y="477.750003" xlink:href="#a"/>
<use x="434.00489" y="475.687439" xlink:href="#a"/>
<use x="435.591846" y="476.901778" xlink:href="#a"/>
<use x="436.003826" y="480.007598" xlink:href="#a"/>
<use x="437.156626" y="475.027153" xlink:href="#a"/>
<use x="438.921159" y="476.865229" xlink:href="#a"/>
<use x="440.269725" y="480.103711" xlink:href="#a"/>
<use x="442.263421" y="481.866369" xlink:href="#a"/>
<use x="443.888349" y="479.881851" xlink:href="#a"/>
<use x="445.56228" y="479.456186" xlink:href="#a"/>
<use x="447.206176" y="481.242132" xlink:href="#a"/>
<use x="448.897935" y="481.769621" xlink:href="#a"/>
<use x="450.316465" y="480.239012" xlink:href="#a"/>
<use x="452.062429" y="484.43261" xlink:href="#a"/>
<use x="453.737937" y="481.720712" xlink:href="#a"/>
<use x="455.389236" y="477.72117" xlink:href="#a"/>
<use x="456.038505" y="478.544143" xlink:href="#a"/>
<use x="457.095843" y="481.992616" xlink:href="#a"/>
<use x="458.687887" y="480.938089" xlink:href="#a"/>
<use x="460.262559" y="485.775228" xlink:href="#a"/>
<use x="461.268691" y="487.237821" xlink:href="#a"/>
<use x="461.96421" y="482.924046" xlink:href="#a"/>
<use x="463.397131" y="482.413298" xlink:href="#a"/>
<use x="465.257374" y="481.49381" xlink:href="#a"/>
<use x="466.917787" y="482.895153" xlink:href="#a"/>
<use x="467.739601" y="490.558479" xlink:href="#a"/>
<use x="470.199938" y="487.659509" xlink:href="#a"/>
<use x="471.854846" y="488.04895" xlink:href="#a"/>
<use x="473.221126" y="486.796099" xlink:href="#a"/>
<use x="475.021106" y="483.151326" xlink:href="#a"/>
<use x="476.190025" y="485.008064" xlink:href="#a"/>
<use x="478.271892" y="486.85516" xlink:href="#a"/>
<use x="479.602459" y="484.315466" xlink:href="#a"/>
<use x="481.259835" y="483.981403" xlink:href="#a"/>
<use x="483.249107" y="490.105253" xlink:href="#a"/>
<use x="484.717646" y="484.665412" xlink:href="#a"/>
<use x="486.489546" y="483.765626" xlink:href="#a"/>
<use x="487.920835" y="485.887427" xlink:href="#a"/>
<use x="489.877925" y="488.686087" xlink:href="#a"/>
<use x="491.512688" y="490.135126" xlink:href="#a"/>
<use x="493.180259" y="486.478779" xlink:href="#a"/>
<use x="494.726034" y="484.628329" xlink:href="#a"/>
<use x="496.294383" y="483.094741" xlink:href="#a"/>
<use x="497.282782" y="486.196056" xlink:href="#a"/>
<use x="499.658859" y="481.58521" xlink:href="#a"/>
<use x="501.206361" y="483.399535" xlink:href="#a"/>
<use x="502.752991" y="483.666955" xlink:href="#a"/>
<use x="504.592044" y="481.825107" xlink:href="#a"/>
<use x="506.115207" y="482.052484" xlink:href="#a"/>
<use x="507.555969" y="484.547771" xlink:href="#a"/>
<use x="509.396352" y="478.860261" xlink:href="#a"/>
<use x="510.629995" y="485.701621" xlink:href="#a"/>
<use x="512.822552" y="485.241126" xlink:href="#a"/>
<use x="514.039525" y="482.884054" xlink:href="#a"/>
<use x="516.066104" y="487.547299" xlink:href="#a"/>
<use x="517.348789" y="481.832642" xlink:href="#a"/>
<use x="519.388772" y="479.363203" xlink:href="#a"/>
<use x="520.851483" y="482.998084" xlink:href="#a"/>
<use x="522.582885" y="486.8366" xlink:href="#a"/>
<use x="524.337071" y="482.407366" xlink:href="#a"/>
<use x="525.259835" y="482.904259" xlink:href="#a"/>
<use x="527.580624" y="482.662626" xlink:href="#a"/>
<use x="529.192926" y="483.62774" xlink:href="#a"/>
<use x="530.806766" y="485.311524" xlink:href="#a"/>
<use x="531.987457" y="486.89901" xlink:href="#a"/>
<use x="533.861806" y="483.414533" xlink:href="#a"/>
<use x="535.782842" y="485.472413" xlink:href="#a"/>
<use x="537.423301" y="485.39323" xlink:href="#a"/>
<use x="539.087853" y="483.258281" xlink:href="#a"/>
<use x="540.557152" y="486.930708" xlink:href="#a"/>
<use x="542.287054" y="482.370239" xlink:href="#a"/>
<use x="543.503325" y="479.676961" xlink:href="#a"/>
<use x="545.38449" y="481.133577" xlink:href="#a"/>
<use x="547.266243" y="485.008771" xlink:href="#a"/>
<use x="548.775849" y="481.190089" xlink:href="#a"/>
<use x="550.140933" y="487.469263" xlink:href="#a"/>
<use x="552.21458" y="479.843051" xlink:href="#a"/>
<use x="553.329161" y="481.834166" xlink:href="#a"/>
<use x="554.756291" y="483.931772" xlink:href="#a"/>
<use x="557.003319" y="481.252426" xlink:href="#a"/>
<use x="558.634778" y="484.798968" xlink:href="#a"/>
<use x="559.967643" y="487.661533" xlink:href="#a"/>
<use x="561.62798" y="485.374883" xlink:href="#a"/>
<use x="563.496557" y="485.650342" xlink:href="#a"/>
<use x="564.783798" y="484.21616" xlink:href="#a"/>
<use x="566.903144" y="486.257054" xlink:href="#a"/>
<use x="568.60039" y="484.364875" xlink:href="#a"/>
<use x="569.849051" y="489.815693" xlink:href="#a"/>
<use x="571.750854" y="486.821531" xlink:href="#a"/>
<use x="573.524121" y="485.74011" xlink:href="#a"/>
<use x="575.167484" y="487.237124" xlink:href="#a"/>
<use x="576.711095" y="485.980211" xlink:href="#a"/>
<use x="578.067711" y="487.800823" xlink:href="#a"/>
<use x="579.859318" y="486.390884" xlink:href="#a"/>
<use x="581.743654" y="486.146735" xlink:href="#a"/>
<use x="582.882936" y="485.84863" xlink:href="#a"/>
<use x="584.57741" y="486.151848" xlink:href="#a"/>
<use x="586.264138" y="483.488197" xlink:href="#a"/>
<use x="587.765106" y="480.81267" xlink:href="#a"/>
<use x="589.651644" y="486.727345" xlink:href="#a"/>
<use x="591.554851" y="485.304192" xlink:href="#a"/>
<use x="593.222574" y="487.441874" xlink:href="#a"/>
<use x="594.622972" y="488.215213" xlink:href="#a"/>
<use x="596.15221" y="489.116795" xlink:href="#a"/>
<use x="597.929047" y="484.91928" xlink:href="#a"/>
<use x="599.228685" y="489.229527" xlink:href="#a"/>
<use x="600.94993" y="488.007052" xlink:href="#a"/>
<use x="602.792287" y="486.364948" xlink:href="#a"/>
<use x="604.405957" y="485.172275" xlink:href="#a"/>
<use x="605.966807" y="487.773302" xlink:href="#a"/>
<use x="607.906202" y="486.808151" xlink:href="#a"/>
<use x="609.10136" y="486.469179" xlink:href="#a"/>
<use x="610.842255" y="490.322214" xlink:href="#a"/>
<use x="612.3504" y="486.971903" xlink:href="#a"/>
<use x="614.188618" y="484.972338" xlink:href="#a"/>
<use x="616.062796" y="481.984512" xlink:href="#a"/>
<use x="617.616754" y="485.993873" xlink:href="#a"/>
<use x="619.340467" y="485.374514" xlink:href="#a"/>
<use x="621.092071" y="492.769631" xlink:href="#a"/>
<use x="622.418005" y="484.729344" xlink:href="#a"/>
<use x="624.011207" y="485.282101" xlink:href="#a"/>
<use x="625.933003" y="490.255693" xlink:href="#a"/>
<use x="627.637711" y="483.201759" xlink:href="#a"/>
<use x="629.209022" y="487.913054" xlink:href="#a"/>
<use x="630.754303" y="484.460138" xlink:href="#a"/>
<use x="632.418514" y="485.171653" xlink:href="#a"/>
<use x="634.05134" y="485.752526" xlink:href="#a"/>
<use x="635.225139" y="488.517181" xlink:href="#a"/>
<use x="637.51198" y="488.92859" xlink:href="#a"/>
<use x="638.94773" y="488.118881" xlink:href="#a"/>
<use x="640.626161" y="487.572835" xlink:href="#a"/>
<use x="642.299238" y="487.690032" xlink:href="#a"/>
<use x="643.954013" y="490.615461" xlink:href="#a"/>
<use x="645.708578" y="483.662398" xlink:href="#a"/>
<use x="646.763751" y="489.665222" xlink:href="#a"/>
<use x="648.7662" y="488.659922" xlink:href="#a"/>
<use x="650.433125" y="488.604946" xlink:href="#a"/>
<use x="652.211195" y="486.952313" xlink:href="#a"/>
<use x="653.898075" y="489.818068" xlink:href="#a"/>
<use x="655.000486" y="485.739442" xlink:href="#a"/>
<use x="656.846318" y="491.07816" xlink:href="#a"/>
<use x="658.659683" y="485.583186" xlink:href="#a"/>
<use x="660.401547" y="487.637656" xlink:href="#a"/>
<use x="662.137525" y="488.270149" xlink:href="#a"/>
<use x="663.521272" y="486.589884" xlink:href="#a"/>
<use x="665.364617" y="484.764048" xlink:href="#a"/>
<use x="666.820606" y="486.02111" xlink:href="#a"/>
<use x="668.601031" y="486.416791" xlink:href="#a"/>
<use x="670.111055" y="484.926028" xlink:href="#a"/>
<use x="671.796549" y="482.876626" xlink:href="#a"/>
<use x="673.58246" y="487.439214" xlink:href="#a"/>
<use x="675.253639" y="485.239146" xlink:href="#a"/>
<use x="676.329924" y="480.857418" xlink:href="#a"/>
<use x="678.326506" y="482.313087" xlink:href="#a"/>
<use x="679.989331" y="484.729076" xlink:href="#a"/>
<use x="681.358345" y="486.64068" xlink:href="#a"/>
<use x="683.36347" y="486.761153" xlink:href="#a"/>
<use x="684.96776" y="483.21348" xlink:href="#a"/>
<use x="686.256387" y="486.725771" xlink:href="#a"/>
</g>
</g>
<g stroke="#2ca02c" stroke-opacity=".9">
<path d="m71.4 591 259-104 50.7-7.33 5.43-1.13 1.02 2.85 0.69-0.959 1.65 0.204 1.66-29.5 1.62 33.1 1.58-33.4 1.07 30.5 2.24-44 0.824 2.94 0.839 11 1.57 27.4 1.4-27.5 1.97-46 1.46 1.05 3.28 82 1.82-14.9 1.63-29 1.42-7.7 1.78-6.37 1.66-2.4 1.69 2.45 1.69-0.568 1.55-1.12 1.66 2.18 0.983 2.63 0.588-2.8 1.56 3.97 1.74 0.752 1.71-1.94 1.68 0.798 3.12 1.78 1.56-0.887 1.76-9.97 1.35-6.25 3.62 5.35 1.67-6.83 1.64 25.2 1.69-0.256 6.49-2.64 0.649-4.58 1.06 0.921 1.59-7.33 1.57 10.6 1.7 3.57 1.43 1.29 1.86-2.7 1.66-7.47 0.822 10.4 2.46-11.6 1.65 10.2 1.37-8.52 1.8 1.66 1.17 0.0716 2.08 2.58 1.33-0.47 1.66 1.17 1.99 5.61 1.47-5.4 1.77 3.47 1.43 1.93 1.96 1.3 1.63 0.0324 1.67-12 1.55 5.23 1.57 3.56 0.988-4.21 2.38-3.03 1.55-3.31 1.55-2.3 1.84 10.9 1.52-2.75 1.44 0.388 1.84-0.668 1.23 2.84 2.19 1.94 1.22-0.0635 2.03 2.67 1.28-2.05 2.04-7.08 1.46 5.53 1.73 3.77 1.75-3.14 0.923-0.148 2.32 2.78 1.61-3.05 1.61-0.572 1.18-1.64 1.87 2.77 1.92-4.18 1.64-0.568 1.66 3.6 1.47-2.59 1.73-4.23 1.22 0.346 1.88 0.317 1.88 1.48 1.51-7.54 1.37-3.67 2.07 2.49 1.11-0.502 1.43 1.16 2.25-1.89 1.63 9.54 1.33-9.56 1.66 11.4 1.87-14.2 1.29 2.02 2.12-0.872 1.7 1.94 1.25 3.21 1.9 5.63 1.77-0.279 1.64-7.34 1.54-2.61 1.36 11.2 1.79-7.74 1.88 2.36 1.14-7.25 1.69 7.55 1.69 1.55 1.5 5.43 1.89-15.3 1.9 4.06 1.67 8.32 1.4-5.12 1.53-0.451 1.78 3.71 1.3-1.89 1.72 3.53 1.84-1.38 1.61 7.74 1.56-5.94 1.94 3.94 1.2-10.3 1.74 12.5 1.51-5.91 1.84 3.55 3.43-0.69 1.72 6.73 1.75-10.8 1.33 3.19 1.59-5.85 1.92 30 1.7-17.9 1.57-3.89 1.55-1.31 1.66 4.61 1.63-13.7 1.17 7.17 2.29-0.648 1.44-4.63 1.68-0.0953 1.67 11 1.65 1.99 1.75-1.66 1.06 3.12 2-4.3 1.67 3.46 1.78-1.33 1.69 4.61 1.1-5.3 1.85-2.68 3.56-6.36 1.74 10.2 1.38-1.79 1.84-0.38 1.46 0.799 1.78-0.426 1.51-2.74 1.69-4.21 1.79 8.32 1.67-0.955 1.08 0.0969 2 1.91 1.66 4.01 1.37-5.51 2.01 1.19 1.6 1.16 1.29-3.02v0" clip-path="url(#p)" fill="none" stroke-linecap="square" stroke-width="1.5"/>
<g clip-path="url(#p)" fill="#2ca02c" fill-opacity=".9">
<use x="71.388926" y="590.825897" xlink:href="#b"/>
<use x="330.300302" y="486.423282" xlink:href="#b"/>
<use x="381.003014" y="479.090914" xlink:href="#b"/>
<use x="386.43637" y="477.956888" xlink:href="#b"/>
<use x="387.457748" y="480.802795" xlink:href="#b"/>
<use x="388.148065" y="479.843732" xlink:href="#b"/>
<use x="389.798966" y="480.04808" xlink:href="#b"/>
<use x="391.454481" y="450.533416" xlink:href="#b"/>
<use x="393.069973" y="483.67739" xlink:href="#b"/>
<use x="394.650132" y="450.25215" xlink:href="#b"/>
<use x="395.722222" y="480.758447" xlink:href="#b"/>
<use x="397.966155" y="436.798432" xlink:href="#b"/>
<use x="398.789678" y="439.734179" xlink:href="#b"/>
<use x="399.629112" y="450.703188" xlink:href="#b"/>
<use x="401.201639" y="478.115182" xlink:href="#b"/>
<use x="402.603726" y="450.585353" xlink:href="#b"/>
<use x="404.576101" y="404.603397" xlink:href="#b"/>
<use x="406.031407" y="405.648692" xlink:href="#b"/>
<use x="407.798959" y="451.152398" xlink:href="#b"/>
<use x="409.309343" y="487.675674" xlink:href="#b"/>
<use x="411.134063" y="472.726416" xlink:href="#b"/>
<use x="412.768693" y="443.695104" xlink:href="#b"/>
<use x="414.184071" y="435.990723" xlink:href="#b"/>
<use x="415.967096" y="429.619522" xlink:href="#b"/>
<use x="417.628383" y="427.221309" xlink:href="#b"/>
<use x="419.314731" y="429.666706" xlink:href="#b"/>
<use x="421.009187" y="429.098758" xlink:href="#b"/>
<use x="422.555949" y="427.981289" xlink:href="#b"/>
<use x="424.216058" y="430.156422" xlink:href="#b"/>
<use x="425.198913" y="432.783108" xlink:href="#b"/>
<use x="425.786572" y="429.978845" xlink:href="#b"/>
<use x="427.344384" y="433.945535" xlink:href="#b"/>
<use x="429.087786" y="434.697095" xlink:href="#b"/>
<use x="430.793424" y="432.755402" xlink:href="#b"/>
<use x="432.470697" y="433.55294" xlink:href="#b"/>
<use x="435.591846" y="435.33429" xlink:href="#b"/>
<use x="437.156626" y="434.447651" xlink:href="#b"/>
<use x="438.921159" y="424.476215" xlink:href="#b"/>
<use x="440.269725" y="418.229892" xlink:href="#b"/>
<use x="442.263421" y="421.212873" xlink:href="#b"/>
<use x="443.888349" y="423.577611" xlink:href="#b"/>
<use x="445.56228" y="416.742934" xlink:href="#b"/>
<use x="447.206176" y="441.965147" xlink:href="#b"/>
<use x="448.897935" y="441.7094" xlink:href="#b"/>
<use x="455.389236" y="439.066298" xlink:href="#b"/>
<use x="456.038505" y="434.490071" xlink:href="#b"/>
<use x="457.095843" y="435.410594" xlink:href="#b"/>
<use x="458.687887" y="428.080417" xlink:href="#b"/>
<use x="460.262559" y="438.725018" xlink:href="#b"/>
<use x="461.268691" y="440.736701" xlink:href="#b"/>
<use x="461.96421" y="442.296547" xlink:href="#b"/>
<use x="463.397131" y="443.58502" xlink:href="#b"/>
<use x="465.257374" y="440.881457" xlink:href="#b"/>
<use x="466.917787" y="433.415076" xlink:href="#b"/>
<use x="467.739601" y="443.824806" xlink:href="#b"/>
<use x="470.199938" y="432.25971" xlink:href="#b"/>
<use x="471.854846" y="442.429748" xlink:href="#b"/>
<use x="473.221126" y="433.912545" xlink:href="#b"/>
<use x="475.021106" y="435.575443" xlink:href="#b"/>
<use x="476.190025" y="435.64703" xlink:href="#b"/>
<use x="478.271892" y="438.231516" xlink:href="#b"/>
<use x="479.602459" y="437.76165" xlink:href="#b"/>
<use x="481.259835" y="438.933701" xlink:href="#b"/>
<use x="483.249107" y="444.547205" xlink:href="#b"/>
<use x="484.717646" y="439.144274" xlink:href="#b"/>
<use x="486.489546" y="442.61407" xlink:href="#b"/>
<use x="487.920835" y="444.542052" xlink:href="#b"/>
<use x="489.877925" y="445.846633" xlink:href="#b"/>
<use x="491.512688" y="445.879042" xlink:href="#b"/>
<use x="493.180259" y="433.843706" xlink:href="#b"/>
<use x="494.726034" y="439.070576" xlink:href="#b"/>
<use x="496.294383" y="442.627897" xlink:href="#b"/>
<use x="497.282782" y="438.421994" xlink:href="#b"/>
<use x="499.658859" y="435.387767" xlink:href="#b"/>
<use x="501.206361" y="432.075366" xlink:href="#b"/>
<use x="502.752991" y="429.775491" xlink:href="#b"/>
<use x="504.592044" y="440.633672" xlink:href="#b"/>
<use x="506.115207" y="437.882961" xlink:href="#b"/>
<use x="507.555969" y="438.271255" xlink:href="#b"/>
<use x="509.396352" y="437.603321" xlink:href="#b"/>
<use x="510.629995" y="440.438728" xlink:href="#b"/>
<use x="512.822552" y="442.374395" xlink:href="#b"/>
<use x="514.039525" y="442.310934" xlink:href="#b"/>
<use x="516.066104" y="444.984506" xlink:href="#b"/>
<use x="517.348789" y="442.938277" xlink:href="#b"/>
<use x="519.388772" y="435.858158" xlink:href="#b"/>
<use x="520.851483" y="441.385143" xlink:href="#b"/>
<use x="522.582885" y="445.152676" xlink:href="#b"/>
<use x="524.337071" y="442.009866" xlink:href="#b"/>
<use x="525.259835" y="441.861525" xlink:href="#b"/>
<use x="527.580624" y="444.645561" xlink:href="#b"/>
<use x="529.192926" y="441.598887" xlink:href="#b"/>
<use x="530.806766" y="441.027272" xlink:href="#b"/>
<use x="531.987457" y="439.383648" xlink:href="#b"/>
<use x="533.861806" y="442.151811" xlink:href="#b"/>
<use x="535.782842" y="437.970925" xlink:href="#b"/>
<use x="537.423301" y="437.403201" xlink:href="#b"/>
<use x="539.087853" y="441.006172" xlink:href="#b"/>
<use x="540.557152" y="438.415583" xlink:href="#b"/>
<use x="542.287054" y="434.187421" xlink:href="#b"/>
<use x="543.503325" y="434.53318" xlink:href="#b"/>
<use x="545.38449" y="434.850184" xlink:href="#b"/>
<use x="547.266243" y="436.328271" xlink:href="#b"/>
<use x="548.775849" y="428.790261" xlink:href="#b"/>
<use x="550.140933" y="425.122491" xlink:href="#b"/>
<use x="552.21458" y="427.614273" xlink:href="#b"/>
<use x="553.329161" y="427.112012" xlink:href="#b"/>
<use x="554.756291" y="428.276837" xlink:href="#b"/>
<use x="557.003319" y="426.385274" xlink:href="#b"/>
<use x="558.634778" y="435.928909" xlink:href="#b"/>
<use x="559.967643" y="426.36595" xlink:href="#b"/>
<use x="561.62798" y="437.781399" xlink:href="#b"/>
<use x="563.496557" y="423.614996" xlink:href="#b"/>
<use x="564.783798" y="425.630382" xlink:href="#b"/>
<use x="566.903144" y="424.758127" xlink:href="#b"/>
<use x="568.60039" y="426.701953" xlink:href="#b"/>
<use x="569.849051" y="429.915945" xlink:href="#b"/>
<use x="571.750854" y="435.542203" xlink:href="#b"/>
<use x="573.524121" y="435.263173" xlink:href="#b"/>
<use x="575.167484" y="427.927422" xlink:href="#b"/>
<use x="576.711095" y="425.318932" xlink:href="#b"/>
<use x="578.067711" y="436.535438" xlink:href="#b"/>
<use x="579.859318" y="428.799138" xlink:href="#b"/>
<use x="581.743654" y="431.160355" xlink:href="#b"/>
<use x="582.882936" y="423.913513" xlink:href="#b"/>
<use x="584.57741" y="431.464035" xlink:href="#b"/>
<use x="586.264138" y="433.016748" xlink:href="#b"/>
<use x="587.765106" y="438.450962" xlink:href="#b"/>
<use x="589.651644" y="423.190511" xlink:href="#b"/>
<use x="591.554851" y="427.247034" xlink:href="#b"/>
<use x="593.222574" y="435.568892" xlink:href="#b"/>
<use x="594.622972" y="430.446773" xlink:href="#b"/>
<use x="596.15221" y="429.995978" xlink:href="#b"/>
<use x="597.929047" y="433.703129" xlink:href="#b"/>
<use x="599.228685" y="431.814641" xlink:href="#b"/>
<use x="600.94993" y="435.344777" xlink:href="#b"/>
<use x="602.792287" y="433.967849" xlink:href="#b"/>
<use x="604.405957" y="441.707466" xlink:href="#b"/>
<use x="605.966807" y="435.765891" xlink:href="#b"/>
<use x="607.906202" y="439.705934" xlink:href="#b"/>
<use x="609.10136" y="429.40878" xlink:href="#b"/>
<use x="610.842255" y="441.876205" xlink:href="#b"/>
<use x="612.3504" y="435.966561" xlink:href="#b"/>
<use x="614.188618" y="439.511981" xlink:href="#b"/>
<use x="617.616754" y="438.821858" xlink:href="#b"/>
<use x="619.340467" y="445.548295" xlink:href="#b"/>
<use x="621.092071" y="434.73802" xlink:href="#b"/>
<use x="622.418005" y="437.930547" xlink:href="#b"/>
<use x="624.011207" y="432.085453" xlink:href="#b"/>
<use x="625.933003" y="462.060366" xlink:href="#b"/>
<use x="627.637711" y="444.126652" xlink:href="#b"/>
<use x="629.209022" y="440.233818" xlink:href="#b"/>
<use x="630.754303" y="438.927751" xlink:href="#b"/>
<use x="632.418514" y="443.537862" xlink:href="#b"/>
<use x="634.05134" y="429.807946" xlink:href="#b"/>
<use x="635.225139" y="436.978449" xlink:href="#b"/>
<use x="637.51198" y="436.330707" xlink:href="#b"/>
<use x="638.94773" y="431.6963" xlink:href="#b"/>
<use x="640.626161" y="431.600994" xlink:href="#b"/>
<use x="642.299238" y="442.578437" xlink:href="#b"/>
<use x="643.954013" y="444.564941" xlink:href="#b"/>
<use x="645.708578" y="442.903004" xlink:href="#b"/>
<use x="646.763751" y="446.018828" xlink:href="#b"/>
<use x="648.7662" y="441.715223" xlink:href="#b"/>
<use x="650.433125" y="445.172634" xlink:href="#b"/>
<use x="652.211195" y="443.847353" xlink:href="#b"/>
<use x="653.898075" y="448.457373" xlink:href="#b"/>
<use x="655.000486" y="443.153795" xlink:href="#b"/>
<use x="656.846318" y="440.477603" xlink:href="#b"/>
<use x="658.659683" y="437.240139" xlink:href="#b"/>
<use x="660.401547" y="434.113652" xlink:href="#b"/>
<use x="662.137525" y="444.297328" xlink:href="#b"/>
<use x="663.521272" y="442.506271" xlink:href="#b"/>
<use x="665.364617" y="442.126654" xlink:href="#b"/>
<use x="666.820606" y="442.925368" xlink:href="#b"/>
<use x="668.601031" y="442.499704" xlink:href="#b"/>
<use x="670.111055" y="439.757002" xlink:href="#b"/>
<use x="671.796549" y="435.551952" xlink:href="#b"/>
<use x="673.58246" y="443.869814" xlink:href="#b"/>
<use x="675.253639" y="442.914323" xlink:href="#b"/>
<use x="676.329924" y="443.011188" xlink:href="#b"/>
<use x="678.326506" y="444.923425" xlink:href="#b"/>
<use x="679.989331" y="448.935992" xlink:href="#b"/>
<use x="681.358345" y="443.425427" xlink:href="#b"/>
<use x="683.36347" y="444.617258" xlink:href="#b"/>
<use x="684.96776" y="445.780175" xlink:href="#b"/>
<use x="686.256387" y="442.757752" xlink:href="#b"/>
</g>
</g>
<path d="m40.6 706v-316" fill="none" stroke="#000" stroke-linecap="square" stroke-width=".8"/>
<path d="m717 706v-316" fill="none" stroke="#000" stroke-linecap="square" stroke-width=".8"/>
<path d="m40.6 706h676" fill="none" stroke="#000" stroke-linecap="square" stroke-width=".8"/>
<path d="m40.6 390h676" fill="none" stroke="#000" stroke-linecap="square" stroke-width=".8"/>
<g clip-path="url(#p)">
<g transform="translate(58.2 421) rotate(-90) scale(.1 -.1)">
<use xlink:href="#x"/>
<use transform="translate(35.2)" xlink:href="#r"/>
<use transform="translate(96.5)" xlink:href="#s"/>
<use transform="translate(149)" xlink:href="#n"/>
<use transform="translate(188)" xlink:href="#g"/>
<use transform="translate(249)" xlink:href="#q"/>
<use transform="translate(290)" xlink:href="#DejaVuSans-20"/>
<use transform="translate(322)" xlink:href="#ao"/>
</g>
</g>
<g clip-path="url(#p)">
<g transform="translate(58.2 489) rotate(-90) scale(.1 -.1)">
<use xlink:href="#ap"/>
<use transform="translate(143)" xlink:href="#DejaVuSans-20"/>
<use transform="translate(175)" xlink:href="#s"/>
<use transform="translate(227)" xlink:href="#w"/>
<use transform="translate(255)" xlink:href="#t"/>
<use transform="translate(316)" xlink:href="#af"/>
<use transform="translate(398)" xlink:href="#g"/>
<use transform="translate(460)" xlink:href="#q"/>
</g>
</g>
<g transform="translate(232 384) scale(.12 -.12)">
<use xlink:href="#al"/>
<use transform="translate(63.2)" xlink:href="#x"/>
<use transform="translate(98.4)" xlink:href="#x"/>
<use transform="translate(134)" xlink:href="#g"/>
<use transform="translate(195)" xlink:href="#y"/>
<use transform="translate(250)" xlink:href="#n"/>
<use transform="translate(289)" xlink:href="#DejaVuSans-20"/>
<use transform="translate(321)" xlink:href="#t"/>
<use transform="translate(382)" xlink:href="#x"/>
<use transform="translate(417)" xlink:href="#DejaVuSans-20"/>
<use transform="translate(449)" xlink:href="#x"/>
<use transform="translate(484)" xlink:href="#q"/>
<use transform="translate(523)" xlink:href="#g"/>
<use transform="translate(585)" xlink:href="#g"/>
<use transform="translate(646)" xlink:href="#DejaVuSans-20"/>
<use transform="translate(678)" xlink:href="#n"/>
<use transform="translate(717)" xlink:href="#aq"/>
<use transform="translate(781)" xlink:href="#q"/>
<use transform="translate(820)" xlink:href="#g"/>
<use transform="translate(881)" xlink:href="#r"/>
<use transform="translate(942)" xlink:href="#ak"/>
<use transform="translate(1006)" xlink:href="#u"/>
<use transform="translate(1034)" xlink:href="#z"/>
<use transform="translate(1097)" xlink:href="#aj"/>
<use transform="translate(1161)" xlink:href="#DejaVuSans-20"/>
<use transform="translate(1192)" xlink:href="#ac"/>
<use transform="translate(1252)" xlink:href="#s"/>
<use transform="translate(1304)" xlink:href="#j"/>
<use transform="translate(1335)" xlink:href="#DejaVuSans-20"/>
<use transform="translate(1367)" xlink:href="#ag"/>
<use transform="translate(1425)" xlink:href="#u"/>
<use transform="translate(1453)" xlink:href="#g"/>
<use transform="translate(1514)" xlink:href="#q"/>
<use transform="translate(1556)" xlink:href="#DejaVuSans-20"/>
<use transform="translate(1587)" xlink:href="#e"/>
<use transform="translate(1651)" xlink:href="#DejaVuSans-20"/>
<use transform="translate(1683)" xlink:href="#an"/>
<use transform="translate(1722)" xlink:href="#s"/>
<use transform="translate(1774)" xlink:href="#r"/>
<use transform="translate(1835)" xlink:href="#v"/>
<use transform="translate(1933)" xlink:href="#g"/>
<use transform="translate(1994)" xlink:href="#DejaVuSans-20"/>
<use transform="translate(2026)" xlink:href="#y"/>
<use transform="translate(2081)" xlink:href="#t"/>
<use transform="translate(2142)" xlink:href="#v"/>
<use transform="translate(2239)" xlink:href="#v"/>
<use transform="translate(2337)" xlink:href="#u"/>
<use transform="translate(2365)" xlink:href="#n"/>
<use transform="translate(2404)" xlink:href="#am"/>
</g>
<path d="m47.6 428h82.6q2 0 2-2v-28.4q0-2-2-2h-82.6q-2 0-2 2v28.4q0 2 2 2z" fill="#fff" opacity=".8" stroke="#ccc"/>
<path d="m49.6 403h10 10" fill="none" stroke="#1f77b4" stroke-dasharray="1.5,2.475" stroke-opacity=".9" stroke-width="1.5"/>
<use x="59.645553" y="403.359463" fill="#1f77b4" fill-opacity=".9" stroke="#1f77b4" stroke-opacity=".9" xlink:href="#a"/>
<g transform="translate(77.6 407) scale(.1 -.1)">
<use xlink:href="#w"/>
<use transform="translate(27.8)" xlink:href="#u"/>
<use transform="translate(55.6)" xlink:href="#z"/>
<use transform="translate(119)" xlink:href="#ab"/>
<use transform="translate(182)" xlink:href="#ai"/>
<use transform="translate(242)" xlink:href="#f"/>
<use transform="translate(275)" xlink:href="#ac"/>
<use transform="translate(334)" xlink:href="#ab"/>
<use transform="translate(398)" xlink:href="#w"/>
<use transform="translate(425)" xlink:href="#n"/>
<use transform="translate(465)" xlink:href="#q"/>
</g>
<path d="m49.6 418h10 10" fill="none" stroke="#2ca02c" stroke-linecap="square" stroke-opacity=".9" stroke-width="1.5"/>
<use x="59.645553" y="418.037588" fill="#2ca02c" fill-opacity=".9" stroke="#2ca02c" stroke-opacity=".9" xlink:href="#b"/>
<g transform="translate(77.6 422) scale(.1 -.1)">
<use xlink:href="#v"/>
<use transform="translate(97.4)" xlink:href="#r"/>
<use transform="translate(159)" xlink:href="#y"/>
<use transform="translate(214)" xlink:href="#t"/>
<use transform="translate(275)" xlink:href="#s"/>
</g>
<path d="m40.6 1060h676v-316h-676z" fill="#fff"/>
<path d="m62.2 1060v-316" clip-path="url(#o)" fill="none" stroke="#b0b0b0" stroke-linecap="square" stroke-width=".8"/>
<use x="62.212529" y="1060.321635" stroke="#000000" stroke-width=".8" xlink:href="#k"/>
<g transform="translate(41.3 1075) scale(.1 -.1)">
<use xlink:href="#d"/>
<use transform="translate(63.6)" xlink:href="#c"/>
<use transform="translate(127)" xlink:href="#d"/>
<use transform="translate(191)" xlink:href="#ad"/>
<use transform="translate(254)" xlink:href="#f"/>
<use transform="translate(291)" xlink:href="#c"/>
<use transform="translate(354)" xlink:href="#aa"/>
</g>
<path d="m162 1060v-316" clip-path="url(#o)" fill="none" stroke="#b0b0b0" stroke-linecap="square" stroke-width=".8"/>
<use x="162.277039" y="1060.321635" stroke="#000000" stroke-width=".8" xlink:href="#k"/>
<g transform="translate(141 1075) scale(.1 -.1)">
<use xlink:href="#d"/>
<use transform="translate(63.6)" xlink:href="#c"/>
<use transform="translate(127)" xlink:href="#d"/>
<use transform="translate(191)" xlink:href="#ad"/>
<use transform="translate(254)" xlink:href="#f"/>
<use transform="translate(291)" xlink:href="#e"/>
<use transform="translate(354)" xlink:href="#e"/>
</g>
<path d="m262 1060v-316" clip-path="url(#o)" fill="none" stroke="#b0b0b0" stroke-linecap="square" stroke-width=".8"/>
<use x="262.34155" y="1060.321635" stroke="#000000" stroke-width=".8" xlink:href="#k"/>
<g transform="translate(241 1075) scale(.1 -.1)">
<use xlink:href="#d"/>
<use transform="translate(63.6)" xlink:href="#c"/>
<use transform="translate(127)" xlink:href="#d"/>
<use transform="translate(191)" xlink:href="#i"/>
<use transform="translate(254)" xlink:href="#f"/>
<use transform="translate(291)" xlink:href="#c"/>
<use transform="translate(354)" xlink:href="#e"/>
</g>
<path d="m359 1060v-316" clip-path="url(#o)" fill="none" stroke="#b0b0b0" stroke-linecap="square" stroke-width=".8"/>
<use x="359.125256" y="1060.321635" stroke="#000000" stroke-width=".8" xlink:href="#k"/>
<g transform="translate(338 1075) scale(.1 -.1)">
<use xlink:href="#d"/>
<use transform="translate(63.6)" xlink:href="#c"/>
<use transform="translate(127)" xlink:href="#d"/>
<use transform="translate(191)" xlink:href="#i"/>
<use transform="translate(254)" xlink:href="#f"/>
<use transform="translate(291)" xlink:href="#c"/>
<use transform="translate(354)" xlink:href="#ae"/>
</g>
<path d="m459 1060v-316" clip-path="url(#o)" fill="none" stroke="#b0b0b0" stroke-linecap="square" stroke-width=".8"/>
<use x="459.189766" y="1060.321635" stroke="#000000" stroke-width=".8" xlink:href="#k"/>
<g transform="translate(438 1075) scale(.1 -.1)">
<use xlink:href="#d"/>
<use transform="translate(63.6)" xlink:href="#c"/>
<use transform="translate(127)" xlink:href="#d"/>
<use transform="translate(191)" xlink:href="#i"/>
<use transform="translate(254)" xlink:href="#f"/>
<use transform="translate(291)" xlink:href="#c"/>
<use transform="translate(354)" xlink:href="#i"/>
</g>
<path d="m559 1060v-316" clip-path="url(#o)" fill="none" stroke="#b0b0b0" stroke-linecap="square" stroke-width=".8"/>
<use x="559.254277" y="1060.321635" stroke="#000000" stroke-width=".8" xlink:href="#k"/>
<g transform="translate(538 1075) scale(.1 -.1)">
<use xlink:href="#d"/>
<use transform="translate(63.6)" xlink:href="#c"/>
<use transform="translate(127)" xlink:href="#d"/>
<use transform="translate(191)" xlink:href="#i"/>
<use transform="translate(254)" xlink:href="#f"/>
<use transform="translate(291)" xlink:href="#c"/>
<use transform="translate(354)" xlink:href="#ah"/>
</g>
<path d="m661 1060v-316" clip-path="url(#o)" fill="none" stroke="#b0b0b0" stroke-linecap="square" stroke-width=".8"/>
<use x="660.959189" y="1060.321635" stroke="#000000" stroke-width=".8" xlink:href="#k"/>
<g transform="translate(640 1075) scale(.1 -.1)">
<use xlink:href="#d"/>
<use transform="translate(63.6)" xlink:href="#c"/>
<use transform="translate(127)" xlink:href="#d"/>
<use transform="translate(191)" xlink:href="#i"/>
<use transform="translate(254)" xlink:href="#f"/>
<use transform="translate(291)" xlink:href="#c"/>
<use transform="translate(354)" xlink:href="#aa"/>
</g>
<path d="m40.6 1029h676" clip-path="url(#o)" fill="none" stroke="#b0b0b0" stroke-linecap="square" stroke-width=".8"/>
<use x="40.645553" y="1028.553649" stroke="#000000" stroke-width=".8" xlink:href="#l"/>
<g transform="translate(3 1032) scale(.1 -.1)">
<use xlink:href="#e"/>
<use transform="translate(63.6)" xlink:href="#j"/>
<use transform="translate(95.4)" xlink:href="#c"/>
<use transform="translate(159)" xlink:href="#c"/>
<use transform="translate(223)" xlink:href="#m"/>
</g>
<path d="m40.6 960h676" clip-path="url(#o)" fill="none" stroke="#b0b0b0" stroke-linecap="square" stroke-width=".8"/>
<use x="40.645553" y="960.22018" stroke="#000000" stroke-width=".8" xlink:href="#l"/>
<g transform="translate(3 964) scale(.1 -.1)">
<use xlink:href="#e"/>
<use transform="translate(63.6)" xlink:href="#j"/>
<use transform="translate(95.4)" xlink:href="#e"/>
<use transform="translate(159)" xlink:href="#c"/>
<use transform="translate(223)" xlink:href="#m"/>
</g>
<path d="m40.6 892h676" clip-path="url(#o)" fill="none" stroke="#b0b0b0" stroke-linecap="square" stroke-width=".8"/>
<use x="40.645553" y="891.88671" stroke="#000000" stroke-width=".8" xlink:href="#l"/>
<g transform="translate(3 896) scale(.1 -.1)">
<use xlink:href="#e"/>
<use transform="translate(63.6)" xlink:href="#j"/>
<use transform="translate(95.4)" xlink:href="#d"/>
<use transform="translate(159)" xlink:href="#c"/>
<use transform="translate(223)" xlink:href="#m"/>
</g>
<path d="m40.6 824h676" clip-path="url(#o)" fill="none" stroke="#b0b0b0" stroke-linecap="square" stroke-width=".8"/>
<use x="40.645553" y="823.553241" stroke="#000000" stroke-width=".8" xlink:href="#l"/>
<g transform="translate(3 827) scale(.1 -.1)">
<use xlink:href="#e"/>
<use transform="translate(63.6)" xlink:href="#j"/>
<use transform="translate(95.4)" xlink:href="#ae"/>
<use transform="translate(159)" xlink:href="#c"/>
<use transform="translate(223)" xlink:href="#m"/>
</g>
<path d="m40.6 755h676" clip-path="url(#o)" fill="none" stroke="#b0b0b0" stroke-linecap="square" stroke-width=".8"/>
<use x="40.645553" y="755.219771" stroke="#000000" stroke-width=".8" xlink:href="#l"/>
<g transform="translate(3 759) scale(.1 -.1)">
<use xlink:href="#e"/>
<use transform="translate(63.6)" xlink:href="#j"/>
<use transform="translate(95.4)" xlink:href="#ad"/>
<use transform="translate(159)" xlink:href="#c"/>
<use transform="translate(223)" xlink:href="#m"/>
</g>
<g stroke="#1f77b4" stroke-opacity=".9">
<path d="m395 1013 11.4 25.3 11.6-14.3 11.5 8.88 11.2-2.54 11.8-0.453 11.3-3.29 11.6-2 11.5-0.111 10.8 5.87 12.1-271 11.5 261 11.1 9.13 11.5-9.88 11.3 2.36 12.1 1.64 11.2-4.33 11.6 3.19 11.3-3.23 11.4 6.61 11.7-11.1 11.2 4.33 11.5-0.068 11.9-3.57 11.5 7.71 11.2 6.63" clip-path="url(#o)" fill="none" stroke-dasharray="1.5,2.475" stroke-width="1.5"/>
<g clip-path="url(#o)" fill="#1f77b4" fill-opacity=".9">
<use x="394.650132" y="1012.607762" xlink:href="#a"/>
<use x="406.031407" y="1037.953076" xlink:href="#a"/>
<use x="417.628383" y="1023.689392" xlink:href="#a"/>
<use x="429.087786" y="1032.568512" xlink:href="#a"/>
<use x="440.269725" y="1030.025913" xlink:href="#a"/>
<use x="452.062429" y="1029.57254" xlink:href="#a"/>
<use x="463.397131" y="1026.2804" xlink:href="#a"/>
<use x="475.021106" y="1024.278307" xlink:href="#a"/>
<use x="486.489546" y="1024.167402" xlink:href="#a"/>
<use x="497.282782" y="1030.036415" xlink:href="#a"/>
<use x="509.396352" y="759.131827" xlink:href="#a"/>
<use x="520.851483" y="1020.625702" xlink:href="#a"/>
<use x="531.987457" y="1029.758653" xlink:href="#a"/>
<use x="543.503325" y="1019.876515" xlink:href="#a"/>
<use x="554.756291" y="1022.234406" xlink:href="#a"/>
<use x="566.903144" y="1023.877103" xlink:href="#a"/>
<use x="578.067711" y="1019.551459" xlink:href="#a"/>
<use x="589.651644" y="1022.741906" xlink:href="#a"/>
<use x="600.94993" y="1019.510186" xlink:href="#a"/>
<use x="612.3504" y="1026.116477" xlink:href="#a"/>
<use x="624.011207" y="1015.017218" xlink:href="#a"/>
<use x="635.225139" y="1019.351438" xlink:href="#a"/>
<use x="646.763751" y="1019.283485" xlink:href="#a"/>
<use x="658.659683" y="1015.712986" xlink:href="#a"/>
<use x="670.111055" y="1023.418275" xlink:href="#a"/>
<use x="681.358345" y="1030.053136" xlink:href="#a"/>
</g>
</g>
<g stroke="#2ca02c" stroke-opacity=".9">
<path d="m395 1016 11.4-1.97 11.6 9.12 11.5 6.32 11.2-10.8 23.1 15.5 11.6-8.84 11.5 3.29 10.8-6.87 12.1-219 11.5 229 11.1-0.313 11.5 4.02 11.3-8.41 12.1-4.37 11.2 23.5 11.6-18.6 11.3-1.41 11.4 5.33 11.7-11.1 11.2-0.0128 11.5 11.5 11.9-7.71 11.5-0.589 11.2 4.44" clip-path="url(#o)" fill="none" stroke-linecap="square" stroke-width="1.5"/>
<g clip-path="url(#o)" fill="#2ca02c" fill-opacity=".9">
<use x="394.650132" y="1015.79177" xlink:href="#b"/>
<use x="406.031407" y="1013.821877" xlink:href="#b"/>
<use x="417.628383" y="1022.93787" xlink:href="#b"/>
<use x="429.087786" y="1029.260781" xlink:href="#b"/>
<use x="440.269725" y="1018.450343" xlink:href="#b"/>
<use x="463.397131" y="1033.928365" xlink:href="#b"/>
<use x="475.021106" y="1025.092435" xlink:href="#b"/>
<use x="486.489546" y="1028.377553" xlink:href="#b"/>
<use x="497.282782" y="1021.51104" xlink:href="#b"/>
<use x="509.396352" y="802.957734" xlink:href="#b"/>
<use x="520.851483" y="1031.502965" xlink:href="#b"/>
<use x="531.987457" y="1031.189963" xlink:href="#b"/>
<use x="543.503325" y="1035.214599" xlink:href="#b"/>
<use x="554.756291" y="1026.80849" xlink:href="#b"/>
<use x="566.903144" y="1022.441669" xlink:href="#b"/>
<use x="578.067711" y="1045.979263" xlink:href="#b"/>
<use x="589.651644" y="1027.419199" xlink:href="#b"/>
<use x="600.94993" y="1026.008118" xlink:href="#b"/>
<use x="612.3504" y="1031.337647" xlink:href="#b"/>
<use x="624.011207" y="1020.278497" xlink:href="#b"/>
<use x="635.225139" y="1020.265672" xlink:href="#b"/>
<use x="646.763751" y="1031.801347" xlink:href="#b"/>
<use x="658.659683" y="1024.092814" xlink:href="#b"/>
<use x="670.111055" y="1023.503369" xlink:href="#b"/>
<use x="681.358345" y="1027.946651" xlink:href="#b"/>
</g>
</g>
<path d="m40.6 1060v-316" fill="none" stroke="#000" stroke-linecap="square" stroke-width=".8"/>
<path d="m717 1060v-316" fill="none" stroke="#000" stroke-linecap="square" stroke-width=".8"/>
<path d="m40.6 1060h676" fill="none" stroke="#000" stroke-linecap="square" stroke-width=".8"/>
<path d="m40.6 745h676" fill="none" stroke="#000" stroke-linecap="square" stroke-width=".8"/>
<g clip-path="url(#o)">
<g transform="translate(58.2 1021) rotate(-90) scale(.1 -.1)">
<use xlink:href="#x"/>
<use transform="translate(35.2)" xlink:href="#r"/>
<use transform="translate(96.5)" xlink:href="#s"/>
<use transform="translate(149)" xlink:href="#n"/>
<use transform="translate(188)" xlink:href="#g"/>
<use transform="translate(249)" xlink:href="#q"/>
<use transform="translate(290)" xlink:href="#DejaVuSans-20"/>
<use transform="translate(322)" xlink:href="#ao"/>
</g>
</g>
<g clip-path="url(#o)">
<g transform="translate(58.2 1089) rotate(-90) scale(.1 -.1)">
<use xlink:href="#ap"/>
<use transform="translate(143)" xlink:href="#DejaVuSans-20"/>
<use transform="translate(175)" xlink:href="#s"/>
<use transform="translate(227)" xlink:href="#w"/>
<use transform="translate(255)" xlink:href="#t"/>
<use transform="translate(316)" xlink:href="#af"/>
<use transform="translate(398)" xlink:href="#g"/>
<use transform="translate(460)" xlink:href="#q"/>
</g>
</g>
<g transform="translate(268 739) scale(.12 -.12)">
<defs>
<path id="av" transform="scale(.0156)" d="m628 4666h631v-4341q0-844-320-1225t-1030-381h-240v531h197q418 0 590 235 172 234 172 840v4341z"/>
<path id="aw" transform="scale(.0156)" d="m628 4666h631v-4666h-631v4666z"/>
</defs>
<use xlink:href="#al"/>
<use transform="translate(63.2)" xlink:href="#x"/>
<use transform="translate(98.4)" xlink:href="#x"/>
<use transform="translate(134)" xlink:href="#g"/>
<use transform="translate(195)" xlink:href="#y"/>
<use transform="translate(250)" xlink:href="#n"/>
<use transform="translate(289)" xlink:href="#DejaVuSans-20"/>
<use transform="translate(321)" xlink:href="#t"/>
<use transform="translate(382)" xlink:href="#x"/>
<use transform="translate(417)" xlink:href="#DejaVuSans-20"/>
<use transform="translate(449)" xlink:href="#av"/>
<use transform="translate(479)" xlink:href="#aw"/>
<use transform="translate(508)" xlink:href="#ag"/>
<use transform="translate(569)" xlink:href="#DejaVuSans-20"/>
<use transform="translate(601)" xlink:href="#ac"/>
<use transform="translate(660)" xlink:href="#s"/>
<use transform="translate(712)" xlink:href="#j"/>
<use transform="translate(744)" xlink:href="#DejaVuSans-20"/>
<use transform="translate(776)" xlink:href="#ag"/>
<use transform="translate(834)" xlink:href="#u"/>
<use transform="translate(862)" xlink:href="#g"/>
<use transform="translate(923)" xlink:href="#q"/>
<use transform="translate(964)" xlink:href="#DejaVuSans-20"/>
<use transform="translate(996)" xlink:href="#e"/>
<use transform="translate(1060)" xlink:href="#DejaVuSans-20"/>
<use transform="translate(1092)" xlink:href="#an"/>
<use transform="translate(1131)" xlink:href="#s"/>
<use transform="translate(1183)" xlink:href="#r"/>
<use transform="translate(1244)" xlink:href="#v"/>
<use transform="translate(1341)" xlink:href="#g"/>
<use transform="translate(1403)" xlink:href="#DejaVuSans-20"/>
<use transform="translate(1435)" xlink:href="#y"/>
<use transform="translate(1490)" xlink:href="#t"/>
<use transform="translate(1551)" xlink:href="#v"/>
<use transform="translate(1648)" xlink:href="#v"/>
<use transform="translate(1746)" xlink:href="#u"/>
<use transform="translate(1773)" xlink:href="#n"/>
<use transform="translate(1813)" xlink:href="#am"/>
</g>
<path d="m47.6 782h82.6q2 0 2-2v-28.4q0-2-2-2h-82.6q-2 0-2 2v28.4q0 2 2 2z" fill="#fff" opacity=".8" stroke="#ccc"/>
<path d="m49.6 758h10 10" fill="none" stroke="#1f77b4" stroke-dasharray="1.5,2.475" stroke-opacity=".9" stroke-width="1.5"/>
<use x="59.645553" y="757.887892" fill="#1f77b4" fill-opacity=".9" stroke="#1f77b4" stroke-opacity=".9" xlink:href="#a"/>
<g transform="translate(77.6 761) scale(.1 -.1)">
<use xlink:href="#w"/>
<use transform="translate(27.8)" xlink:href="#u"/>
<use transform="translate(55.6)" xlink:href="#z"/>
<use transform="translate(119)" xlink:href="#ab"/>
<use transform="translate(182)" xlink:href="#ai"/>
<use transform="translate(242)" xlink:href="#f"/>
<use transform="translate(275)" xlink:href="#ac"/>
<use transform="translate(334)" xlink:href="#ab"/>
<use transform="translate(398)" xlink:href="#w"/>
<use transform="translate(425)" xlink:href="#n"/>
<use transform="translate(465)" xlink:href="#q"/>
</g>
<path d="m49.6 773h10 10" fill="none" stroke="#2ca02c" stroke-linecap="square" stroke-opacity=".9" stroke-width="1.5"/>
<use x="59.645553" y="772.566017" fill="#2ca02c" fill-opacity=".9" stroke="#2ca02c" stroke-opacity=".9" xlink:href="#b"/>
<g transform="translate(77.6 776) scale(.1 -.1)">
<use xlink:href="#v"/>
<use transform="translate(97.4)" xlink:href="#r"/>
<use transform="translate(159)" xlink:href="#y"/>
<use transform="translate(214)" xlink:href="#t"/>
<use transform="translate(275)" xlink:href="#s"/>
</g>
<g transform="translate(229 12.1) scale(.12 -.12)">
<defs>
<path id="au" transform="scale(.0156)" d="m1259 4147v-1753h794q441 0 681 228 241 228 241 650 0 419-241 647-240 228-681 228h-794zm-631 519h1425q785 0 1186-355 402-355 402-1039 0-691-402-1044-401-353-1186-353h-794v-1875h-631v4666z"/>
<path id="at" transform="scale(.0156)" d="m1159 525v-1856h-578v4831h578v-531q182 312 458 463 277 152 661 152 638 0 1036-506 399-506 399-1331t-399-1332q-398-506-1036-506-384 0-661 152-276 152-458 464zm1957 1222q0 634-261 995t-717 361q-457 0-718-361t-261-995 261-995 718-361q456 0 717 361t261 995z"/>
<path id="as" transform="scale(.0156)" d="m2059-325q-243-625-475-815-231-191-618-191h-460v481h338q237 0 368 113 132 112 291 531l103 262-1415 3444h609l1094-2737 1094 2737h609l-1538-3825z"/>
</defs>
<use xlink:href="#au"/>
<use transform="translate(56.7)" xlink:href="#g"/>
<use transform="translate(118)" xlink:href="#q"/>
<use transform="translate(159)" xlink:href="#x"/>
<use transform="translate(195)" xlink:href="#t"/>
<use transform="translate(256)" xlink:href="#q"/>
<use transform="translate(295)" xlink:href="#v"/>
<use transform="translate(392)" xlink:href="#r"/>
<use transform="translate(454)" xlink:href="#z"/>
<use transform="translate(517)" xlink:href="#y"/>
<use transform="translate(572)" xlink:href="#g"/>
<use transform="translate(634)" xlink:href="#DejaVuSans-20"/>
<use transform="translate(665)" xlink:href="#u"/>
<use transform="translate(693)" xlink:href="#v"/>
<use transform="translate(791)" xlink:href="#at"/>
<use transform="translate(854)" xlink:href="#q"/>
<use transform="translate(893)" xlink:href="#t"/>
<use transform="translate(954)" xlink:href="#ac"/>
<use transform="translate(1013)" xlink:href="#g"/>
<use transform="translate(1075)" xlink:href="#v"/>
<use transform="translate(1172)" xlink:href="#g"/>
<use transform="translate(1234)" xlink:href="#z"/>
<use transform="translate(1297)" xlink:href="#n"/>
<use transform="translate(1336)" xlink:href="#DejaVuSans-20"/>
<use transform="translate(1368)" xlink:href="#ar"/>
<use transform="translate(1432)" xlink:href="#as"/>
<use transform="translate(1491)" xlink:href="#DejaVuSans-20"/>
<use transform="translate(1523)" xlink:href="#y"/>
<use transform="translate(1578)" xlink:href="#t"/>
<use transform="translate(1639)" xlink:href="#z"/>
<use transform="translate(1702)" xlink:href="#x"/>
<use transform="translate(1737)" xlink:href="#u"/>
<use transform="translate(1765)" xlink:href="#aj"/>
<use transform="translate(1829)" xlink:href="#ab"/>
<use transform="translate(1892)" xlink:href="#q"/>
<use transform="translate(1933)" xlink:href="#r"/>
<use transform="translate(1994)" xlink:href="#n"/>
<use transform="translate(2034)" xlink:href="#u"/>
<use transform="translate(2061)" xlink:href="#t"/>
<use transform="translate(2123)" xlink:href="#z"/>
</g>
<defs>
<clipPath id="h">
<rect x="40.6" y="35.7" width="676" height="316"/>
</clipPath>
<clipPath id="p">
<rect x="40.6" y="390" width="676" height="316"/>
</clipPath>
<clipPath id="o">
<rect x="40.6" y="745" width="676" height="316"/>
</clipPath>
</defs>
</svg>
