<?xml version="1.0" encoding="UTF-8"?>
<!DOCTYPE svg  PUBLIC '-//W3C//DTD SVG 1.1//EN'  'http://www.w3.org/Graphics/SVG/1.1/DTD/svg11.dtd'>
<svg width="720pt" height="1080pt" version="1.1" viewBox="0 0 720 1080" xmlns="http://www.w3.org/2000/svg" xmlns:xlink="http://www.w3.org/1999/xlink">
<defs>
<style type="text/css">*{stroke-linejoin: round; stroke-linecap: butt}</style>
</defs>
<path d="m0 1080h720v-1080h-720z" fill="#fff"/>
<path d="m40.6 351h676v-316h-676z" fill="#fff"/>
<path d="m59 351v-316" clip-path="url(#k)" fill="none" stroke="#b0b0b0" stroke-linecap="square" stroke-width=".8"/>
<defs>
<path id="g" d="m0 0v3.5" stroke="#000" stroke-width=".8"/>
</defs>
<use x="59.020731" y="351.264775" stroke="#000000" stroke-width=".8" xlink:href="#g"/>
<g transform="translate(38.1 366) scale(.1 -.1)">
<defs>
<path id="d" transform="scale(.0156)" d="m1228 531h2203v-531h-2962v531q359 372 979 998 621 627 780 809 303 340 423 576 121 236 121 464 0 372-261 606-261 235-680 235-297 0-627-103-329-103-704-313v638q381 153 712 231 332 78 607 78 725 0 1156-363 431-362 431-968 0-288-108-546-107-257-392-607-78-91-497-524-418-433-1181-1211z"/>
<path id="c" transform="scale(.0156)" d="m2034 4250q-487 0-733-480-245-479-245-1442 0-959 245-1439 246-480 733-480 491 0 736 480 246 480 246 1439 0 963-246 1442-245 480-736 480zm0 500q785 0 1199-621 414-620 414-1801 0-1178-414-1799-414-620-1199-620-784 0-1198 620-414 621-414 1799 0 1181 414 1801 414 621 1198 621z"/>
<path id="v" transform="scale(.0156)" d="m2419 4116-1594-2491h1594v2491zm-166 550h794v-3041h666v-525h-666v-1100h-628v1100h-2106v609l1940 2957z"/>
<path id="f" transform="scale(.0156)" d="m313 2009h1684v-512h-1684v512z"/>
<path id="ad" transform="scale(.0156)" d="m703 97v575q238-113 481-172 244-59 479-59 625 0 954 420 330 420 377 1277-181-269-460-413-278-144-615-144-700 0-1108 423-408 424-408 1159 0 718 425 1152 425 435 1131 435 810 0 1236-621 427-620 427-1801 0-1103-524-1761-523-658-1407-658-238 0-482 47-243 47-506 141zm1256 1978q425 0 673 290 249 291 249 798 0 503-249 795-248 292-673 292t-673-292-248-795q0-507 248-798 248-290 673-290z"/>
</defs>
<use xlink:href="#d"/>
<use transform="translate(63.6)" xlink:href="#c"/>
<use transform="translate(127)" xlink:href="#d"/>
<use transform="translate(191)" xlink:href="#v"/>
<use transform="translate(254)" xlink:href="#f"/>
<use transform="translate(291)" xlink:href="#c"/>
<use transform="translate(354)" xlink:href="#ad"/>
</g>
<path d="m125 351v-316" clip-path="url(#k)" fill="none" stroke="#b0b0b0" stroke-linecap="square" stroke-width=".8"/>
<use x="125.350064" y="351.264775" stroke="#000000" stroke-width=".8" xlink:href="#g"/>
<g transform="translate(104 366) scale(.1 -.1)">
<defs>
<path id="e" transform="scale(.0156)" d="m794 531h1031v3560l-1122-225v575l1116 225h631v-4135h1031v-531h-2687v531z"/>
</defs>
<use xlink:href="#d"/>
<use transform="translate(63.6)" xlink:href="#c"/>
<use transform="translate(127)" xlink:href="#d"/>
<use transform="translate(191)" xlink:href="#v"/>
<use transform="translate(254)" xlink:href="#f"/>
<use transform="translate(291)" xlink:href="#e"/>
<use transform="translate(354)" xlink:href="#c"/>
</g>
<path d="m194 351v-316" clip-path="url(#k)" fill="none" stroke="#b0b0b0" stroke-linecap="square" stroke-width=".8"/>
<use x="193.890374" y="351.264775" stroke="#000000" stroke-width=".8" xlink:href="#g"/>
<g transform="translate(173 366) scale(.1 -.1)">
<use xlink:href="#d"/>
<use transform="translate(63.6)" xlink:href="#c"/>
<use transform="translate(127)" xlink:href="#d"/>
<use transform="translate(191)" xlink:href="#v"/>
<use transform="translate(254)" xlink:href="#f"/>
<use transform="translate(291)" xlink:href="#e"/>
<use transform="translate(354)" xlink:href="#e"/>
</g>
<path d="m260 351v-316" clip-path="url(#k)" fill="none" stroke="#b0b0b0" stroke-linecap="square" stroke-width=".8"/>
<use x="260.219707" y="351.264775" stroke="#000000" stroke-width=".8" xlink:href="#g"/>
<g transform="translate(239 366) scale(.1 -.1)">
<use xlink:href="#d"/>
<use transform="translate(63.6)" xlink:href="#c"/>
<use transform="translate(127)" xlink:href="#d"/>
<use transform="translate(191)" xlink:href="#v"/>
<use transform="translate(254)" xlink:href="#f"/>
<use transform="translate(291)" xlink:href="#e"/>
<use transform="translate(354)" xlink:href="#d"/>
</g>
<path d="m329 351v-316" clip-path="url(#k)" fill="none" stroke="#b0b0b0" stroke-linecap="square" stroke-width=".8"/>
<use x="328.760017" y="351.264775" stroke="#000000" stroke-width=".8" xlink:href="#g"/>
<g transform="translate(308 366) scale(.1 -.1)">
<defs>
<path id="h" transform="scale(.0156)" d="m691 4666h2478v-532h-1900v-1143q137 47 274 70 138 23 276 23 781 0 1237-428 457-428 457-1159 0-753-469-1171-469-417-1322-417-294 0-599 50-304 50-629 150v635q281-153 581-228t634-75q541 0 856 284 316 284 316 772 0 487-316 771-315 285-856 285-253 0-505-56-251-56-513-175v2344z"/>
</defs>
<use xlink:href="#d"/>
<use transform="translate(63.6)" xlink:href="#c"/>
<use transform="translate(127)" xlink:href="#d"/>
<use transform="translate(191)" xlink:href="#h"/>
<use transform="translate(254)" xlink:href="#f"/>
<use transform="translate(291)" xlink:href="#c"/>
<use transform="translate(354)" xlink:href="#e"/>
</g>
<path d="m397 351v-316" clip-path="url(#k)" fill="none" stroke="#b0b0b0" stroke-linecap="square" stroke-width=".8"/>
<use x="397.300327" y="351.264775" stroke="#000000" stroke-width=".8" xlink:href="#g"/>
<g transform="translate(376 366) scale(.1 -.1)">
<use xlink:href="#d"/>
<use transform="translate(63.6)" xlink:href="#c"/>
<use transform="translate(127)" xlink:href="#d"/>
<use transform="translate(191)" xlink:href="#h"/>
<use transform="translate(254)" xlink:href="#f"/>
<use transform="translate(291)" xlink:href="#c"/>
<use transform="translate(354)" xlink:href="#d"/>
</g>
<path d="m459 351v-316" clip-path="url(#k)" fill="none" stroke="#b0b0b0" stroke-linecap="square" stroke-width=".8"/>
<use x="459.207704" y="351.264775" stroke="#000000" stroke-width=".8" xlink:href="#g"/>
<g transform="translate(438 366) scale(.1 -.1)">
<defs>
<path id="ae" transform="scale(.0156)" d="m2597 2516q453-97 707-404 255-306 255-756 0-690-475-1069-475-378-1350-378-293 0-604 58t-642 174v609q262-153 574-231 313-78 654-78 593 0 904 234t311 681q0 413-289 645-289 233-804 233h-544v519h569q465 0 712 186t247 536q0 359-255 551-254 193-729 193-260 0-557-57-297-56-653-174v562q360 100 674 150t592 50q719 0 1137-327 419-326 419-882 0-388-222-655t-631-370z"/>
</defs>
<use xlink:href="#d"/>
<use transform="translate(63.6)" xlink:href="#c"/>
<use transform="translate(127)" xlink:href="#d"/>
<use transform="translate(191)" xlink:href="#h"/>
<use transform="translate(254)" xlink:href="#f"/>
<use transform="translate(291)" xlink:href="#c"/>
<use transform="translate(354)" xlink:href="#ae"/>
</g>
<path d="m528 351v-316" clip-path="url(#k)" fill="none" stroke="#b0b0b0" stroke-linecap="square" stroke-width=".8"/>
<use x="527.748014" y="351.264775" stroke="#000000" stroke-width=".8" xlink:href="#g"/>
<g transform="translate(507 366) scale(.1 -.1)">
<use xlink:href="#d"/>
<use transform="translate(63.6)" xlink:href="#c"/>
<use transform="translate(127)" xlink:href="#d"/>
<use transform="translate(191)" xlink:href="#h"/>
<use transform="translate(254)" xlink:href="#f"/>
<use transform="translate(291)" xlink:href="#c"/>
<use transform="translate(354)" xlink:href="#v"/>
</g>
<path d="m594 351v-316" clip-path="url(#k)" fill="none" stroke="#b0b0b0" stroke-linecap="square" stroke-width=".8"/>
<use x="594.077347" y="351.264775" stroke="#000000" stroke-width=".8" xlink:href="#g"/>
<g transform="translate(573 366) scale(.1 -.1)">
<use xlink:href="#d"/>
<use transform="translate(63.6)" xlink:href="#c"/>
<use transform="translate(127)" xlink:href="#d"/>
<use transform="translate(191)" xlink:href="#h"/>
<use transform="translate(254)" xlink:href="#f"/>
<use transform="translate(291)" xlink:href="#c"/>
<use transform="translate(354)" xlink:href="#h"/>
</g>
<path d="m663 351v-316" clip-path="url(#k)" fill="none" stroke="#b0b0b0" stroke-linecap="square" stroke-width=".8"/>
<use x="662.617657" y="351.264775" stroke="#000000" stroke-width=".8" xlink:href="#g"/>
<g transform="translate(642 366) scale(.1 -.1)">
<defs>
<path id="ah" transform="scale(.0156)" d="m2113 2584q-425 0-674-291-248-290-248-796 0-503 248-796 249-292 674-292t673 292q248 293 248 796 0 506-248 796-248 291-673 291zm1253 1979v-575q-238 112-480 171-242 60-480 60-625 0-955-422-329-422-376-1275 184 272 462 417 279 145 613 145 703 0 1111-427 408-426 408-1160 0-719-425-1154-425-434-1131-434-810 0-1238 620-428 621-428 1799 0 1106 525 1764t1409 658q238 0 480-47t505-140z"/>
</defs>
<use xlink:href="#d"/>
<use transform="translate(63.6)" xlink:href="#c"/>
<use transform="translate(127)" xlink:href="#d"/>
<use transform="translate(191)" xlink:href="#h"/>
<use transform="translate(254)" xlink:href="#f"/>
<use transform="translate(291)" xlink:href="#c"/>
<use transform="translate(354)" xlink:href="#ah"/>
</g>
<path d="m40.6 351h676" clip-path="url(#k)" fill="none" stroke="#b0b0b0" stroke-linecap="square" stroke-width=".8"/>
<defs>
<path id="l" d="m0 0h-3.5" stroke="#000" stroke-width=".8"/>
</defs>
<use x="40.645553" y="351.264775" stroke="#000000" stroke-width=".8" xlink:href="#l"/>
<g transform="translate(3 355) scale(.1 -.1)">
<defs>
<path id="i" transform="scale(.0156)" d="m684 794h660v-794h-660v794z"/>
<path id="m" transform="scale(.0156)" d="m4488 3438-1429-1435 1429-1428-372-378-1435 1434-1434-1434-369 378 1425 1428-1425 1435 369 378 1434-1435 1435 1435 372-378z"/>
</defs>
<use xlink:href="#c"/>
<use transform="translate(63.6)" xlink:href="#i"/>
<use transform="translate(95.4)" xlink:href="#ad"/>
<use transform="translate(159)" xlink:href="#c"/>
<use transform="translate(223)" xlink:href="#m"/>
</g>
<path d="m40.6 312h676" clip-path="url(#k)" fill="none" stroke="#b0b0b0" stroke-linecap="square" stroke-width=".8"/>
<use x="40.645553" y="311.823253" stroke="#000000" stroke-width=".8" xlink:href="#l"/>
<g transform="translate(3 316) scale(.1 -.1)">
<use xlink:href="#c"/>
<use transform="translate(63.6)" xlink:href="#i"/>
<use transform="translate(95.4)" xlink:href="#ad"/>
<use transform="translate(159)" xlink:href="#h"/>
<use transform="translate(223)" xlink:href="#m"/>
</g>
<path d="m40.6 272h676" clip-path="url(#k)" fill="none" stroke="#b0b0b0" stroke-linecap="square" stroke-width=".8"/>
<use x="40.645553" y="272.38173" stroke="#000000" stroke-width=".8" xlink:href="#l"/>
<g transform="translate(3 276) scale(.1 -.1)">
<use xlink:href="#e"/>
<use transform="translate(63.6)" xlink:href="#i"/>
<use transform="translate(95.4)" xlink:href="#c"/>
<use transform="translate(159)" xlink:href="#c"/>
<use transform="translate(223)" xlink:href="#m"/>
</g>
<path d="m40.6 233h676" clip-path="url(#k)" fill="none" stroke="#b0b0b0" stroke-linecap="square" stroke-width=".8"/>
<use x="40.645553" y="232.940208" stroke="#000000" stroke-width=".8" xlink:href="#l"/>
<g transform="translate(3 237) scale(.1 -.1)">
<use xlink:href="#e"/>
<use transform="translate(63.6)" xlink:href="#i"/>
<use transform="translate(95.4)" xlink:href="#c"/>
<use transform="translate(159)" xlink:href="#h"/>
<use transform="translate(223)" xlink:href="#m"/>
</g>
<path d="m40.6 193h676" clip-path="url(#k)" fill="none" stroke="#b0b0b0" stroke-linecap="square" stroke-width=".8"/>
<use x="40.645553" y="193.498685" stroke="#000000" stroke-width=".8" xlink:href="#l"/>
<g transform="translate(3 197) scale(.1 -.1)">
<use xlink:href="#e"/>
<use transform="translate(63.6)" xlink:href="#i"/>
<use transform="translate(95.4)" xlink:href="#e"/>
<use transform="translate(159)" xlink:href="#c"/>
<use transform="translate(223)" xlink:href="#m"/>
</g>
<path d="m40.6 154h676" clip-path="url(#k)" fill="none" stroke="#b0b0b0" stroke-linecap="square" stroke-width=".8"/>
<use x="40.645553" y="154.057163" stroke="#000000" stroke-width=".8" xlink:href="#l"/>
<g transform="translate(3 158) scale(.1 -.1)">
<use xlink:href="#e"/>
<use transform="translate(63.6)" xlink:href="#i"/>
<use transform="translate(95.4)" xlink:href="#e"/>
<use transform="translate(159)" xlink:href="#h"/>
<use transform="translate(223)" xlink:href="#m"/>
</g>
<path d="m40.6 115h676" clip-path="url(#k)" fill="none" stroke="#b0b0b0" stroke-linecap="square" stroke-width=".8"/>
<use x="40.645553" y="114.61564" stroke="#000000" stroke-width=".8" xlink:href="#l"/>
<g transform="translate(3 118) scale(.1 -.1)">
<use xlink:href="#e"/>
<use transform="translate(63.6)" xlink:href="#i"/>
<use transform="translate(95.4)" xlink:href="#d"/>
<use transform="translate(159)" xlink:href="#c"/>
<use transform="translate(223)" xlink:href="#m"/>
</g>
<path d="m40.6 75.2h676" clip-path="url(#k)" fill="none" stroke="#b0b0b0" stroke-linecap="square" stroke-width=".8"/>
<use x="40.645553" y="75.174118" stroke="#000000" stroke-width=".8" xlink:href="#l"/>
<g transform="translate(3 79) scale(.1 -.1)">
<use xlink:href="#e"/>
<use transform="translate(63.6)" xlink:href="#i"/>
<use transform="translate(95.4)" xlink:href="#d"/>
<use transform="translate(159)" xlink:href="#h"/>
<use transform="translate(223)" xlink:href="#m"/>
</g>
<path d="m40.6 35.7h676" clip-path="url(#k)" fill="none" stroke="#b0b0b0" stroke-linecap="square" stroke-width=".8"/>
<use x="40.645553" y="35.732595" stroke="#000000" stroke-width=".8" xlink:href="#l"/>
<g transform="translate(3 39.5) scale(.1 -.1)">
<use xlink:href="#e"/>
<use transform="translate(63.6)" xlink:href="#i"/>
<use transform="translate(95.4)" xlink:href="#ae"/>
<use transform="translate(159)" xlink:href="#c"/>
<use transform="translate(223)" xlink:href="#m"/>
</g>
<path d="m507 218 1.44 78.3 13.9-58.5 15.6-29.2 3.92 59.7 6.29-34.6 5.24 1.27 15.1-4.23 15.9 2.93 15.3 8.27 15.7-3.75 15.5 2.54 14.5 4.09 16.3-12.4 15.4 2.18" clip-path="url(#k)" fill="none" stroke="#1f77b4" stroke-dasharray="1.5,2.475" stroke-opacity=".9" stroke-width="1.5"/>
<defs>
<path id="a" d="m-2.5 2.5h5v-5h-5z" stroke="#1f77b4" stroke-opacity=".9"/>
</defs>
<g clip-path="url(#k)" fill="#1f77b4" fill-opacity=".9" stroke="#1f77b4" stroke-opacity=".9">
<use x="507.089089" y="217.972608" xlink:href="#a"/>
<use x="508.53408" y="296.236601" xlink:href="#a"/>
<use x="522.429077" y="237.786525" xlink:href="#a"/>
<use x="538.059794" y="208.609505" xlink:href="#a"/>
<use x="541.977959" y="268.348273" xlink:href="#a"/>
<use x="548.263559" y="233.780467" xlink:href="#a"/>
<use x="553.505086" y="235.050049" xlink:href="#a"/>
<use x="568.576405" y="230.815623" xlink:href="#a"/>
<use x="584.47093" y="233.746182" xlink:href="#a"/>
<use x="599.748146" y="242.018666" xlink:href="#a"/>
<use x="615.415252" y="238.265931" xlink:href="#a"/>
<use x="630.872725" y="240.808105" xlink:href="#a"/>
<use x="645.42014" y="244.894915" xlink:href="#a"/>
<use x="661.747136" y="232.452493" xlink:href="#a"/>
<use x="677.18667" y="234.631196" xlink:href="#a"/>
</g>
<path d="m507 180 15.3-2.98 15.6 45.3 15.4 19.4 15.1-18.7 31.2 19.8 15.7-11.4 15.5 8.54 14.5 3.35 16.3-5.19 15.4 7.39" clip-path="url(#k)" fill="none" stroke="#2ca02c" stroke-linecap="square" stroke-opacity=".9" stroke-width="1.5"/>
<defs>
<path id="b" d="m0-2.5-2.5 5h5z" stroke="#2ca02c" stroke-opacity=".9"/>
</defs>
<g clip-path="url(#k)" fill="#2ca02c" fill-opacity=".9" stroke="#2ca02c" stroke-opacity=".9">
<use x="507.089089" y="179.969255" xlink:href="#b"/>
<use x="522.429077" y="176.992682" xlink:href="#b"/>
<use x="538.059794" y="222.29429" xlink:href="#b"/>
<use x="553.505086" y="241.648786" xlink:href="#b"/>
<use x="568.576405" y="222.987989" xlink:href="#b"/>
<use x="599.748146" y="242.766761" xlink:href="#b"/>
<use x="615.415252" y="231.392996" xlink:href="#b"/>
<use x="630.872725" y="239.932954" xlink:href="#b"/>
<use x="645.42014" y="243.285585" xlink:href="#b"/>
<use x="661.747136" y="238.099275" xlink:href="#b"/>
<use x="677.18667" y="245.490371" xlink:href="#b"/>
</g>
<path d="m40.6 351v-316" fill="none" stroke="#000" stroke-linecap="square" stroke-width=".8"/>
<path d="m717 351v-316" fill="none" stroke="#000" stroke-linecap="square" stroke-width=".8"/>
<path d="m40.6 351h676" fill="none" stroke="#000" stroke-linecap="square" stroke-width=".8"/>
<path d="m40.6 35.7h676" fill="none" stroke="#000" stroke-linecap="square" stroke-width=".8"/>
<g clip-path="url(#k)">
<g transform="translate(58.2 264) rotate(-90) scale(.1 -.1)">
<defs>
<path id="y" transform="scale(.0156)" d="m2375 4863v-479h-550q-309 0-430-125-120-125-120-450v-309h947v-447h-947v-3053h-578v3053h-550v447h550v244q0 584 272 851 272 268 862 268h544z"/>
<path id="r" transform="scale(.0156)" d="m2194 1759q-697 0-966-159t-269-544q0-306 202-486 202-179 548-179 479 0 768 339t289 901v128h-572zm1147 238v-2e3h-575v531q-197-318-491-470t-719-152q-537 0-855 302-317 302-317 808 0 590 395 890 396 300 1180 300h807v57q0 397-261 614t-733 217q-300 0-585-72-284-72-546-216v532q315 122 612 182 297 61 578 61 760 0 1135-394 375-393 375-1193z"/>
<path id="s" transform="scale(.0156)" d="m2834 3397v-544q-243 125-506 187-262 63-544 63-428 0-642-131t-214-394q0-200 153-314t616-217l197-44q612-131 870-370t258-667q0-488-386-773-386-284-1061-284-281 0-586 55t-642 164v594q319-166 628-249 309-82 613-82 406 0 624 139 219 139 219 392 0 234-158 359-157 125-692 241l-200 47q-534 112-772 345-237 233-237 639 0 494 350 762 350 269 994 269 318 0 599-47 282-46 519-140z"/>
<path id="p" transform="scale(.0156)" d="m1172 4494v-994h1184v-447h-1184v-1900q0-428 117-550t477-122h590v-481h-590q-666 0-919 248-253 249-253 905v1900h-422v447h422v994h578z"/>
<path id="n" transform="scale(.0156)" d="m3597 1894v-281h-2644q38-594 358-905t892-311q331 0 642 81t618 244v-544q-310-131-635-200t-659-69q-838 0-1327 487-489 488-489 1320 0 859 464 1363 464 505 1252 505 706 0 1117-455 411-454 411-1235zm-575 169q-6 471-264 752-258 282-683 282-481 0-770-272t-333-766l2050 4z"/>
<path id="q" transform="scale(.0156)" d="m2631 2963q-97 56-211 82-114 27-251 27-488 0-749-317t-261-911v-1844h-578v3500h578v-544q182 319 472 473 291 155 707 155 59 0 131-8 72-7 159-23l3-590z"/>
<path id="ao" transform="scale(.0156)" d="m8863 2147v-281l-1229-1228-375 375 729 728h-7622v531h7622l-729 728 375 375 1229-1228z"/>
</defs>
<use xlink:href="#y"/>
<use transform="translate(35.2)" xlink:href="#r"/>
<use transform="translate(96.5)" xlink:href="#s"/>
<use transform="translate(149)" xlink:href="#p"/>
<use transform="translate(188)" xlink:href="#n"/>
<use transform="translate(249)" xlink:href="#q"/>
<use transform="translate(290)" xlink:href="#DejaVuSans-20"/>
<use transform="translate(322)" xlink:href="#ao"/>
</g>
</g>
<g clip-path="url(#k)">
<g transform="translate(58.2 332) rotate(-90) scale(.1 -.1)">
<defs>
<path id="ap" transform="scale(.0156)" d="m313 1866v281l1228 1228 375-375-728-728h7621v-531h-7621l728-728-375-375-1228 1228z"/>
<path id="x" transform="scale(.0156)" d="m603 4863h575v-4863h-575v4863z"/>
<path id="t" transform="scale(.0156)" d="m1959 3097q-462 0-731-361t-269-989 267-989q268-361 733-361 460 0 728 362 269 363 269 988 0 622-269 986-268 364-728 364zm0 487q750 0 1178-488 429-487 429-1349 0-859-429-1349-428-489-1178-489-753 0-1180 489-426 490-426 1349 0 862 426 1349 427 488 1180 488z"/>
<path id="af" transform="scale(.0156)" d="m269 3500h575l719-2731 715 2731h678l719-2731 716 2731h575l-916-3500h-678l-753 2869-756-2869h-679l-915 3500z"/>
</defs>
<use xlink:href="#ap"/>
<use transform="translate(143)" xlink:href="#DejaVuSans-20"/>
<use transform="translate(175)" xlink:href="#s"/>
<use transform="translate(227)" xlink:href="#x"/>
<use transform="translate(255)" xlink:href="#t"/>
<use transform="translate(316)" xlink:href="#af"/>
<use transform="translate(398)" xlink:href="#n"/>
<use transform="translate(460)" xlink:href="#q"/>
</g>
</g>
<g transform="translate(174 29.7) scale(.12 -.12)">
<defs>
<path id="al" transform="scale(.0156)" d="m628 4666h2950v-532h-2319v-1381h2222v-531h-2222v-1691h2375v-531h-3006v4666z"/>
<path id="z" transform="scale(.0156)" d="m3122 3366v-538q-244 135-489 202t-495 67q-560 0-870-355-309-354-309-995t309-996q310-354 870-354 250 0 495 67t489 202v-532q-241-112-499-168-257-57-548-57-791 0-1257 497-465 497-465 1341 0 856 470 1346 471 491 1290 491 265 0 518-55 253-54 491-163z"/>
<path id="ar" transform="scale(.0156)" d="m3116 1747q0 634-261 995t-717 361q-457 0-718-361t-261-995 261-995 718-361q456 0 717 361t261 995zm-1957 1222q182 312 458 463 277 152 661 152 638 0 1036-506 399-506 399-1331t-399-1332q-398-506-1036-506-384 0-661 152-276 152-458 464v-525h-578v4863h578v-1894z"/>
<path id="ab" transform="scale(.0156)" d="m544 1381v2119h575v-2097q0-497 193-746 194-248 582-248 465 0 735 297 271 297 271 810v1984h575v-3500h-575v538q-209-319-486-474-276-155-642-155-603 0-916 375-312 375-312 1097zm1447 2203z"/>
<path id="u" transform="scale(.0156)" d="m603 3500h575v-3500h-575v3500zm0 1363h575v-729h-575v729z"/>
<path id="ak" transform="scale(.0156)" d="m2906 2969v1894h575v-4863h-575v525q-181-312-458-464-276-152-664-152-634 0-1033 506-398 507-398 1332t398 1331q399 506 1033 506 388 0 664-152 277-151 458-463zm-1959-1222q0-634 261-995t717-361 718 361q263 361 263 995t-263 995q-262 361-718 361t-717-361-261-995z"/>
<path id="aq" transform="scale(.0156)" d="m3513 2113v-2113h-575v2094q0 497-194 743-194 247-581 247-466 0-735-297-269-296-269-809v-1978h-578v4863h578v-1907q207 316 486 472 280 156 646 156 603 0 912-373 310-373 310-1098z"/>
<path id="aa" transform="scale(.0156)" d="m3513 2113v-2113h-575v2094q0 497-194 743-194 247-581 247-466 0-735-297-269-296-269-809v-1978h-578v3500h578v-544q207 316 486 472 280 156 646 156 603 0 912-373 310-373 310-1098z"/>
<path id="aj" transform="scale(.0156)" d="m2906 1791q0 625-258 968-257 344-723 344-462 0-720-344-258-343-258-968 0-622 258-966t720-344q466 0 723 344 258 344 258 966zm575-1357q0-893-397-1329-396-436-1215-436-303 0-572 45t-522 139v559q253-137 500-202 247-66 503-66 566 0 847 295t281 892v285q-178-310-456-463t-666-153q-643 0-1037 490-394 491-394 1301 0 812 394 1302 394 491 1037 491 388 0 666-153t456-462v531h575v-3066z"/>
<path id="ac" transform="scale(.0156)" d="m191 3500h609l1094-2937 1094 2937h609l-1313-3500h-781l-1312 3500z"/>
<path id="ag" transform="scale(.0156)" d="m-19 4666h3947v-532h-1656v-4134h-634v4134h-1657v532z"/>
<path id="an" transform="scale(.0156)" d="m1984 4856q-418-718-622-1422-203-703-203-1425 0-721 205-1429t620-1424h-500q-468 735-701 1444t-233 1409q0 697 231 1403 232 707 703 1444h500z"/>
<path id="w" transform="scale(.0156)" d="m3328 2828q216 388 516 572t706 184q547 0 844-383 297-382 297-1088v-2113h-578v2094q0 503-179 746-178 244-543 244-447 0-707-297-259-296-259-809v-1978h-578v2094q0 506-178 748t-550 242q-441 0-701-298-259-298-259-808v-1978h-578v3500h578v-544q197 322 472 475t653 153q382 0 649-194 267-193 395-562z"/>
<path id="am" transform="scale(.0156)" d="m513 4856h500q468-737 701-1444 233-706 233-1403 0-700-233-1409t-701-1444h-500q415 716 620 1424t205 1429q0 722-205 1425-205 704-620 1422z"/>
</defs>
<use xlink:href="#al"/>
<use transform="translate(63.2)" xlink:href="#y"/>
<use transform="translate(98.4)" xlink:href="#y"/>
<use transform="translate(134)" xlink:href="#n"/>
<use transform="translate(195)" xlink:href="#z"/>
<use transform="translate(250)" xlink:href="#p"/>
<use transform="translate(289)" xlink:href="#DejaVuSans-20"/>
<use transform="translate(321)" xlink:href="#t"/>
<use transform="translate(382)" xlink:href="#y"/>
<use transform="translate(417)" xlink:href="#DejaVuSans-20"/>
<use transform="translate(449)" xlink:href="#ar"/>
<use transform="translate(513)" xlink:href="#ab"/>
<use transform="translate(576)" xlink:href="#u"/>
<use transform="translate(604)" xlink:href="#x"/>
<use transform="translate(632)" xlink:href="#ak"/>
<use transform="translate(695)" xlink:href="#DejaVuSans-20"/>
<use transform="translate(727)" xlink:href="#af"/>
<use transform="translate(809)" xlink:href="#u"/>
<use transform="translate(837)" xlink:href="#p"/>
<use transform="translate(876)" xlink:href="#aq"/>
<use transform="translate(939)" xlink:href="#DejaVuSans-20"/>
<use transform="translate(971)" xlink:href="#x"/>
<use transform="translate(999)" xlink:href="#r"/>
<use transform="translate(1060)" xlink:href="#p"/>
<use transform="translate(1099)" xlink:href="#n"/>
<use transform="translate(1161)" xlink:href="#s"/>
<use transform="translate(1213)" xlink:href="#p"/>
<use transform="translate(1252)" xlink:href="#DejaVuSans-20"/>
<use transform="translate(1284)" xlink:href="#z"/>
<use transform="translate(1339)" xlink:href="#x"/>
<use transform="translate(1367)" xlink:href="#r"/>
<use transform="translate(1428)" xlink:href="#aa"/>
<use transform="translate(1491)" xlink:href="#aj"/>
<use transform="translate(1555)" xlink:href="#DejaVuSans-20"/>
<use transform="translate(1586)" xlink:href="#r"/>
<use transform="translate(1648)" xlink:href="#aa"/>
<use transform="translate(1711)" xlink:href="#ak"/>
<use transform="translate(1775)" xlink:href="#DejaVuSans-20"/>
<use transform="translate(1806)" xlink:href="#p"/>
<use transform="translate(1846)" xlink:href="#r"/>
<use transform="translate(1907)" xlink:href="#u"/>
<use transform="translate(1935)" xlink:href="#x"/>
<use transform="translate(1962)" xlink:href="#z"/>
<use transform="translate(2017)" xlink:href="#r"/>
<use transform="translate(2079)" xlink:href="#x"/>
<use transform="translate(2106)" xlink:href="#x"/>
<use transform="translate(2134)" xlink:href="#DejaVuSans-20"/>
<use transform="translate(2166)" xlink:href="#ac"/>
<use transform="translate(2225)" xlink:href="#s"/>
<use transform="translate(2277)" xlink:href="#i"/>
<use transform="translate(2309)" xlink:href="#DejaVuSans-20"/>
<use transform="translate(2341)" xlink:href="#ag"/>
<use transform="translate(2399)" xlink:href="#u"/>
<use transform="translate(2427)" xlink:href="#n"/>
<use transform="translate(2488)" xlink:href="#q"/>
<use transform="translate(2529)" xlink:href="#DejaVuSans-20"/>
<use transform="translate(2561)" xlink:href="#e"/>
<use transform="translate(2625)" xlink:href="#DejaVuSans-20"/>
<use transform="translate(2656)" xlink:href="#an"/>
<use transform="translate(2696)" xlink:href="#s"/>
<use transform="translate(2748)" xlink:href="#r"/>
<use transform="translate(2809)" xlink:href="#w"/>
<use transform="translate(2906)" xlink:href="#n"/>
<use transform="translate(2968)" xlink:href="#DejaVuSans-20"/>
<use transform="translate(3e3)" xlink:href="#z"/>
<use transform="translate(3055)" xlink:href="#t"/>
<use transform="translate(3116)" xlink:href="#w"/>
<use transform="translate(3213)" xlink:href="#w"/>
<use transform="translate(3311)" xlink:href="#u"/>
<use transform="translate(3338)" xlink:href="#p"/>
<use transform="translate(3378)" xlink:href="#am"/>
</g>
<path d="m47.6 73.1h82.6q2 0 2-2v-28.4q0-2-2-2h-82.6q-2 0-2 2v28.4q0 2 2 2z" fill="#fff" opacity=".8" stroke="#ccc"/>
<path d="m49.6 48.8h10 10" fill="none" stroke="#1f77b4" stroke-dasharray="1.5,2.475" stroke-opacity=".9" stroke-width="1.5"/>
<use x="59.645553" y="48.831032" fill="#1f77b4" fill-opacity=".9" stroke="#1f77b4" stroke-opacity=".9" xlink:href="#a"/>
<g transform="translate(77.6 52.3) scale(.1 -.1)">
<defs>
<path id="ai" transform="scale(.0156)" d="m3513 3500-1266-1703 1331-1797h-678l-1019 1375-1018-1375h-679l1360 1831-1244 1669h678l928-1247 928 1247h679z"/>
</defs>
<use xlink:href="#x"/>
<use transform="translate(27.8)" xlink:href="#u"/>
<use transform="translate(55.6)" xlink:href="#aa"/>
<use transform="translate(119)" xlink:href="#ab"/>
<use transform="translate(182)" xlink:href="#ai"/>
<use transform="translate(242)" xlink:href="#f"/>
<use transform="translate(275)" xlink:href="#ac"/>
<use transform="translate(334)" xlink:href="#ab"/>
<use transform="translate(398)" xlink:href="#x"/>
<use transform="translate(425)" xlink:href="#p"/>
<use transform="translate(465)" xlink:href="#q"/>
</g>
<path d="m49.6 63.5h10 10" fill="none" stroke="#2ca02c" stroke-linecap="square" stroke-opacity=".9" stroke-width="1.5"/>
<use x="59.645553" y="63.509158" fill="#2ca02c" fill-opacity=".9" stroke="#2ca02c" stroke-opacity=".9" xlink:href="#b"/>
<g transform="translate(77.6 67) scale(.1 -.1)">
<use xlink:href="#w"/>
<use transform="translate(97.4)" xlink:href="#r"/>
<use transform="translate(159)" xlink:href="#z"/>
<use transform="translate(214)" xlink:href="#t"/>
<use transform="translate(275)" xlink:href="#s"/>
</g>
<path d="m40.6 706h676v-316h-676z" fill="#fff"/>
<path d="m58.2 706v-316" clip-path="url(#o)" fill="none" stroke="#b0b0b0" stroke-linecap="square" stroke-width=".8"/>
<use x="58.191615" y="705.793205" stroke="#000000" stroke-width=".8" xlink:href="#g"/>
<g transform="translate(37.3 720) scale(.1 -.1)">
<use xlink:href="#d"/>
<use transform="translate(63.6)" xlink:href="#c"/>
<use transform="translate(127)" xlink:href="#d"/>
<use transform="translate(191)" xlink:href="#v"/>
<use transform="translate(254)" xlink:href="#f"/>
<use transform="translate(291)" xlink:href="#c"/>
<use transform="translate(354)" xlink:href="#ad"/>
</g>
<path d="m125 706v-316" clip-path="url(#o)" fill="none" stroke="#b0b0b0" stroke-linecap="square" stroke-width=".8"/>
<use x="124.520947" y="705.793205" stroke="#000000" stroke-width=".8" xlink:href="#g"/>
<g transform="translate(104 720) scale(.1 -.1)">
<use xlink:href="#d"/>
<use transform="translate(63.6)" xlink:href="#c"/>
<use transform="translate(127)" xlink:href="#d"/>
<use transform="translate(191)" xlink:href="#v"/>
<use transform="translate(254)" xlink:href="#f"/>
<use transform="translate(291)" xlink:href="#e"/>
<use transform="translate(354)" xlink:href="#c"/>
</g>
<path d="m193 706v-316" clip-path="url(#o)" fill="none" stroke="#b0b0b0" stroke-linecap="square" stroke-width=".8"/>
<use x="193.061257" y="705.793205" stroke="#000000" stroke-width=".8" xlink:href="#g"/>
<g transform="translate(172 720) scale(.1 -.1)">
<use xlink:href="#d"/>
<use transform="translate(63.6)" xlink:href="#c"/>
<use transform="translate(127)" xlink:href="#d"/>
<use transform="translate(191)" xlink:href="#v"/>
<use transform="translate(254)" xlink:href="#f"/>
<use transform="translate(291)" xlink:href="#e"/>
<use transform="translate(354)" xlink:href="#e"/>
</g>
<path d="m259 706v-316" clip-path="url(#o)" fill="none" stroke="#b0b0b0" stroke-linecap="square" stroke-width=".8"/>
<use x="259.39059" y="705.793205" stroke="#000000" stroke-width=".8" xlink:href="#g"/>
<g transform="translate(238 720) scale(.1 -.1)">
<use xlink:href="#d"/>
<use transform="translate(63.6)" xlink:href="#c"/>
<use transform="translate(127)" xlink:href="#d"/>
<use transform="translate(191)" xlink:href="#v"/>
<use transform="translate(254)" xlink:href="#f"/>
<use transform="translate(291)" xlink:href="#e"/>
<use transform="translate(354)" xlink:href="#d"/>
</g>
<path d="m328 706v-316" clip-path="url(#o)" fill="none" stroke="#b0b0b0" stroke-linecap="square" stroke-width=".8"/>
<use x="327.9309" y="705.793205" stroke="#000000" stroke-width=".8" xlink:href="#g"/>
<g transform="translate(307 720) scale(.1 -.1)">
<use xlink:href="#d"/>
<use transform="translate(63.6)" xlink:href="#c"/>
<use transform="translate(127)" xlink:href="#d"/>
<use transform="translate(191)" xlink:href="#h"/>
<use transform="translate(254)" xlink:href="#f"/>
<use transform="translate(291)" xlink:href="#c"/>
<use transform="translate(354)" xlink:href="#e"/>
</g>
<path d="m396 706v-316" clip-path="url(#o)" fill="none" stroke="#b0b0b0" stroke-linecap="square" stroke-width=".8"/>
<use x="396.47121" y="705.793205" stroke="#000000" stroke-width=".8" xlink:href="#g"/>
<g transform="translate(376 720) scale(.1 -.1)">
<use xlink:href="#d"/>
<use transform="translate(63.6)" xlink:href="#c"/>
<use transform="translate(127)" xlink:href="#d"/>
<use transform="translate(191)" xlink:href="#h"/>
<use transform="translate(254)" xlink:href="#f"/>
<use transform="translate(291)" xlink:href="#c"/>
<use transform="translate(354)" xlink:href="#d"/>
</g>
<path d="m458 706v-316" clip-path="url(#o)" fill="none" stroke="#b0b0b0" stroke-linecap="square" stroke-width=".8"/>
<use x="458.378587" y="705.793205" stroke="#000000" stroke-width=".8" xlink:href="#g"/>
<g transform="translate(437 720) scale(.1 -.1)">
<use xlink:href="#d"/>
<use transform="translate(63.6)" xlink:href="#c"/>
<use transform="translate(127)" xlink:href="#d"/>
<use transform="translate(191)" xlink:href="#h"/>
<use transform="translate(254)" xlink:href="#f"/>
<use transform="translate(291)" xlink:href="#c"/>
<use transform="translate(354)" xlink:href="#ae"/>
</g>
<path d="m527 706v-316" clip-path="url(#o)" fill="none" stroke="#b0b0b0" stroke-linecap="square" stroke-width=".8"/>
<use x="526.918898" y="705.793205" stroke="#000000" stroke-width=".8" xlink:href="#g"/>
<g transform="translate(506 720) scale(.1 -.1)">
<use xlink:href="#d"/>
<use transform="translate(63.6)" xlink:href="#c"/>
<use transform="translate(127)" xlink:href="#d"/>
<use transform="translate(191)" xlink:href="#h"/>
<use transform="translate(254)" xlink:href="#f"/>
<use transform="translate(291)" xlink:href="#c"/>
<use transform="translate(354)" xlink:href="#v"/>
</g>
<path d="m593 706v-316" clip-path="url(#o)" fill="none" stroke="#b0b0b0" stroke-linecap="square" stroke-width=".8"/>
<use x="593.24823" y="705.793205" stroke="#000000" stroke-width=".8" xlink:href="#g"/>
<g transform="translate(572 720) scale(.1 -.1)">
<use xlink:href="#d"/>
<use transform="translate(63.6)" xlink:href="#c"/>
<use transform="translate(127)" xlink:href="#d"/>
<use transform="translate(191)" xlink:href="#h"/>
<use transform="translate(254)" xlink:href="#f"/>
<use transform="translate(291)" xlink:href="#c"/>
<use transform="translate(354)" xlink:href="#h"/>
</g>
<path d="m662 706v-316" clip-path="url(#o)" fill="none" stroke="#b0b0b0" stroke-linecap="square" stroke-width=".8"/>
<use x="661.78854" y="705.793205" stroke="#000000" stroke-width=".8" xlink:href="#g"/>
<g transform="translate(641 720) scale(.1 -.1)">
<use xlink:href="#d"/>
<use transform="translate(63.6)" xlink:href="#c"/>
<use transform="translate(127)" xlink:href="#d"/>
<use transform="translate(191)" xlink:href="#h"/>
<use transform="translate(254)" xlink:href="#f"/>
<use transform="translate(291)" xlink:href="#c"/>
<use transform="translate(354)" xlink:href="#ah"/>
</g>
<path d="m40.6 673h676" clip-path="url(#o)" fill="none" stroke="#b0b0b0" stroke-linecap="square" stroke-width=".8"/>
<use x="40.645553" y="673.16728" stroke="#000000" stroke-width=".8" xlink:href="#l"/>
<g transform="translate(3 677) scale(.1 -.1)">
<use xlink:href="#c"/>
<use transform="translate(63.6)" xlink:href="#i"/>
<use transform="translate(95.4)" xlink:href="#ah"/>
<use transform="translate(159)" xlink:href="#c"/>
<use transform="translate(223)" xlink:href="#m"/>
</g>
<path d="m40.6 612h676" clip-path="url(#o)" fill="none" stroke="#b0b0b0" stroke-linecap="square" stroke-width=".8"/>
<use x="40.645553" y="612.222101" stroke="#000000" stroke-width=".8" xlink:href="#l"/>
<g transform="translate(3 616) scale(.1 -.1)">
<defs>
<path id="ay" transform="scale(.0156)" d="m525 4666h3e3v-269l-1694-4397h-659l1594 4134h-2241v532z"/>
</defs>
<use xlink:href="#c"/>
<use transform="translate(63.6)" xlink:href="#i"/>
<use transform="translate(95.4)" xlink:href="#ay"/>
<use transform="translate(159)" xlink:href="#c"/>
<use transform="translate(223)" xlink:href="#m"/>
</g>
<path d="m40.6 551h676" clip-path="url(#o)" fill="none" stroke="#b0b0b0" stroke-linecap="square" stroke-width=".8"/>
<use x="40.645553" y="551.276922" stroke="#000000" stroke-width=".8" xlink:href="#l"/>
<g transform="translate(3 555) scale(.1 -.1)">
<defs>
<path id="ax" transform="scale(.0156)" d="m2034 2216q-450 0-708-241-257-241-257-662 0-422 257-663 258-241 708-241t709 242q260 243 260 662 0 421-258 662-257 241-711 241zm-631 268q-406 100-633 378-226 279-226 679 0 559 398 884 399 325 1092 325 697 0 1094-325t397-884q0-400-227-679-226-278-629-378 456-106 710-416 255-309 255-755 0-679-414-1042-414-362-1186-362-771 0-1186 362-414 363-414 1042 0 446 256 755 257 310 713 416zm-231 997q0-362 226-565 227-203 636-203 407 0 636 203 230 203 230 565 0 363-230 566-229 203-636 203-409 0-636-203-226-203-226-566z"/>
</defs>
<use xlink:href="#c"/>
<use transform="translate(63.6)" xlink:href="#i"/>
<use transform="translate(95.4)" xlink:href="#ax"/>
<use transform="translate(159)" xlink:href="#c"/>
<use transform="translate(223)" xlink:href="#m"/>
</g>
<path d="m40.6 490h676" clip-path="url(#o)" fill="none" stroke="#b0b0b0" stroke-linecap="square" stroke-width=".8"/>
<use x="40.645553" y="490.331743" stroke="#000000" stroke-width=".8" xlink:href="#l"/>
<g transform="translate(3 494) scale(.1 -.1)">
<use xlink:href="#c"/>
<use transform="translate(63.6)" xlink:href="#i"/>
<use transform="translate(95.4)" xlink:href="#ad"/>
<use transform="translate(159)" xlink:href="#c"/>
<use transform="translate(223)" xlink:href="#m"/>
</g>
<path d="m40.6 429h676" clip-path="url(#o)" fill="none" stroke="#b0b0b0" stroke-linecap="square" stroke-width=".8"/>
<use x="40.645553" y="429.386564" stroke="#000000" stroke-width=".8" xlink:href="#l"/>
<g transform="translate(3 433) scale(.1 -.1)">
<use xlink:href="#e"/>
<use transform="translate(63.6)" xlink:href="#i"/>
<use transform="translate(95.4)" xlink:href="#c"/>
<use transform="translate(159)" xlink:href="#c"/>
<use transform="translate(223)" xlink:href="#m"/>
</g>
<g stroke="#1f77b4" stroke-opacity=".9">
<path d="m71.4 624 30.3 26 18.5-13.8 14.2 6.09 16.7 36.6 13.4 12.2h4.33l2.35-6.09h2.03l2.47 6.09 2.25-12.2 1.69 12.2 2.53-6.09h6.87l2.21-6.09h1.98l2.34 6.09 1.66-6.09 2.6 6.09 2.16-12.2 2.5 6.09 2.09-6.09 1.13 6.09 1.13-6.09 1.63 6.09h2.78l2.09-6.09 2.44 6.09h1.95l2.43-6.09 2.27-6.09 2.1 12.2 2.3 6.09 0.167-6.09 2.01-12.2 2.25 6.09h1.95l2.36-6.09 2.37-60.9 2.16-30.5 1.99-6.09 2.31 6.09 2.11 22.7 2.23-0.403 1.61 1.88 0.765 2.77 1.61-3.69 2.15-2.96 0.434 1.67 1.99-3.88 2.29 4.29 2.58 10.9 2.29-16.2 1.67 4.63 0.544-1.14 1.96-2.31 0.635-5.43 1.58 1.82 1.87 1.46 1.1 3.5 1.18 0.317 2.19-4.38 2.73 6.91 1.61-0.511 0.523 0.168 1.11-0.527 0.962 2.15 1.71-3.9 0.177-2.32 1.95-2.14 2.93 3.66 2-1.53 2.42 0.302 0.64-2.79 0.86 1.03 2.95-12.1 1.85 3.51 4.36-0.256 2.42-13.6 1.95 2.85 2.14 2.25 2.6-6.15 2.23 2.68 2.11 4.01 2.31-0.399 2.1-3.35 2.26 7.05 2.29-4.63 1.92-1.23 2.47-1.9 2.38-0.749 2.06 7.61 2.36-1.62 2.03-4.96 4.24 0.851 1.86-1.77 0.842 2.06 1.7-3.58 2.55 3.39 1.64-1.18 2.79-46.1 0.233-1.78 1.79-15.8 1.78-1.83 0.683 1.2 2.1 5.3 2.13 0.1 2.41 2.24 2.19 12.1 2.17-2.99 0.175 3.16 1.15-4.65 0.961 4.68 1.44-13.1 0.703 5.08 2.12-3.28 1.82-3.07 2.27-0.0838 2.69 11 1.06 2.52 1.15-1.11 2.2-13.2 2.06 0.443 1.78-17.5 2.13 7.03 2.16-0.337 0.649-0.844 1.6 9.17 2.79 0.263 1.9-7.5 2.58 2.52 2.12 9.53 2.3-3.87 2.2-1.93 2.06 4.23 2.41-5.27 2.13 2.1 1.69-1.3 0.125-2.68 2.44 0.962 2 2.87 2.68-1.3 1.84-1.27 2.55-4.05 2.03 1.21 2.42 1.19 1.65-3.09 2.21 3.54 2.8-0.785 1.96-2.08 0.851 5.6 0.239-0.373 1.07 2.31 1.62-0.606 0.648-0.757 2.38 12.4 1.84-8.15 0.228-2.48 2.16-3.89 2.2 11.5 0.43-7.34 1.93 3.9 2.22-6.31 2.2 2.13 2.27-3.66 1.98 3.46 2.25-1.8 2.08 9.34 1.65-26 0.835-1.14 2.22-5.22 2.07 5.93 2.04 2.62 0.292-2.36 2.06 2.42 1.98-1.84 2.5-2.69 1.78 2.84 0.477 6.36 1.38-5.06 0.93-7.59 2.23 1.58 2.23 2.92 2.18 7.68 2.13-0.821 1.44-1.69 2.88 1.2 0.142 2.93 1.11-2.74 1.13 2.22 1.76 1.89 0.0235 37.3 0.331 1.33 1.89 0.0281 2.66-3.65 1.96 1.87 2.38 4.09 2.04-4.68 0.327 0.301 2.13-19.2 2.2-2.67 1.91-0.512 2.4-1.62 2.24 6.98 2.27-1.34 1.65-1.67 0.639-3.54 1.73 4.01 0.359-0.36 1.71-16.5 0.529 4.25 1.32-26.8 0.792-3.45 2.1 7.12 2.35 1.52 2.3-1.82 2.26-4.31 2.07-2.06 2.14 1.21 0.555 3.11 1.55-4.98 2.38 1.84 1.82 3.24 2.69 1.76 2.19-1.98 2.26-0.426 2.22 1.79 2.28 0.527 1.91-1.53 2.35 4.19 2.26-2.71 2.23-4 0.875 0.823 1.43 3.45 2.15-1.05 2.12 4.84 1.36 1.46 0.937-4.31 1.93-0.511 2.51-0.919 2.24 1.4 1.11 7.66 3.32-2.9 2.23 0.389 1.84-1.25 2.43-3.64 1.58 1.86 2.81 1.85 1.79-2.54 2.23-0.334 2.68 6.12 1.98-5.44 2.39-0.9 4.57 4.92 2.2 1.45 2.25-3.66 2.08-1.85 2.11-1.53 1.33 3.1 3.2-4.61 2.09 1.81 2.08 0.267 2.48-1.84 2.05 0.227 1.94 2.5 2.48-5.69 1.66 6.84 2.96-0.46 1.64-2.36 2.73 4.66 1.73-5.71 2.75-2.47 1.97 3.63 2.33 3.84 2.36-4.43 1.24 0.497 3.13-0.242" clip-path="url(#o)" fill="none" stroke-dasharray="1.5,2.475" stroke-width="1.5"/>
<g clip-path="url(#o)" fill="#1f77b4" fill-opacity=".9">
<use x="71.388926" y="624.411136" xlink:href="#a"/>
<use x="101.640117" y="650.438901" xlink:href="#a"/>
<use x="120.123123" y="636.600172" xlink:href="#a"/>
<use x="134.281083" y="642.69469" xlink:href="#a"/>
<use x="150.956641" y="679.261797" xlink:href="#a"/>
<use x="164.326531" y="691.450833" xlink:href="#a"/>
<use x="166.509487" y="691.450833" xlink:href="#a"/>
<use x="168.660687" y="691.450833" xlink:href="#a"/>
<use x="171.009083" y="685.356315" xlink:href="#a"/>
<use x="173.043259" y="685.356315" xlink:href="#a"/>
<use x="175.508423" y="691.450833" xlink:href="#a"/>
<use x="177.755252" y="679.261797" xlink:href="#a"/>
<use x="179.450156" y="691.450833" xlink:href="#a"/>
<use x="181.976454" y="685.356315" xlink:href="#a"/>
<use x="184.210898" y="685.356315" xlink:href="#a"/>
<use x="186.418037" y="685.356315" xlink:href="#a"/>
<use x="188.843792" y="685.356315" xlink:href="#a"/>
<use x="191.053899" y="679.261797" xlink:href="#a"/>
<use x="193.037561" y="679.261797" xlink:href="#a"/>
<use x="195.381197" y="685.356315" xlink:href="#a"/>
<use x="197.039789" y="679.261797" xlink:href="#a"/>
<use x="199.637099" y="685.356315" xlink:href="#a"/>
<use x="201.79485" y="673.16728" xlink:href="#a"/>
<use x="204.291028" y="679.261797" xlink:href="#a"/>
<use x="206.378969" y="673.16728" xlink:href="#a"/>
<use x="207.507003" y="679.261797" xlink:href="#a"/>
<use x="208.635113" y="673.16728" xlink:href="#a"/>
<use x="210.269804" y="679.261797" xlink:href="#a"/>
<use x="211.264283" y="679.261797" xlink:href="#a"/>
<use x="213.054536" y="679.261797" xlink:href="#a"/>
<use x="215.147902" y="673.16728" xlink:href="#a"/>
<use x="217.584174" y="679.261797" xlink:href="#a"/>
<use x="219.537204" y="679.261797" xlink:href="#a"/>
<use x="221.96539" y="673.16728" xlink:href="#a"/>
<use x="224.234252" y="667.072762" xlink:href="#a"/>
<use x="226.331994" y="679.261797" xlink:href="#a"/>
<use x="228.632537" y="685.356315" xlink:href="#a"/>
<use x="228.799282" y="679.261797" xlink:href="#a"/>
<use x="230.807075" y="667.072762" xlink:href="#a"/>
<use x="233.060302" y="673.16728" xlink:href="#a"/>
<use x="235.007651" y="673.16728" xlink:href="#a"/>
<use x="237.364952" y="667.072762" xlink:href="#a"/>
<use x="239.249734" y="617.65062" xlink:href="#a"/>
<use x="239.731594" y="606.127583" xlink:href="#a"/>
<use x="241.529396" y="581.749511" xlink:href="#a"/>
<use x="241.891392" y="575.654993" xlink:href="#a"/>
<use x="243.884599" y="569.560475" xlink:href="#a"/>
<use x="246.19049" y="575.654993" xlink:href="#a"/>
<use x="248.295806" y="598.355971" xlink:href="#a"/>
<use x="250.525337" y="597.953438" xlink:href="#a"/>
<use x="252.135538" y="599.83082" xlink:href="#a"/>
<use x="252.900295" y="602.597045" xlink:href="#a"/>
<use x="254.512851" y="598.904224" xlink:href="#a"/>
<use x="256.658599" y="595.947943" xlink:href="#a"/>
<use x="257.093092" y="597.617484" xlink:href="#a"/>
<use x="259.082972" y="593.735874" xlink:href="#a"/>
<use x="261.370413" y="598.023762" xlink:href="#a"/>
<use x="263.951346" y="608.882181" xlink:href="#a"/>
<use x="266.238505" y="592.68274" xlink:href="#a"/>
<use x="267.913372" y="597.31241" xlink:href="#a"/>
<use x="268.457288" y="596.168738" xlink:href="#a"/>
<use x="270.414336" y="593.857852" xlink:href="#a"/>
<use x="271.048968" y="588.427535" xlink:href="#a"/>
<use x="272.625365" y="590.251481" xlink:href="#a"/>
<use x="274.496942" y="591.712087" xlink:href="#a"/>
<use x="275.600384" y="595.208485" xlink:href="#a"/>
<use x="276.781414" y="595.525273" xlink:href="#a"/>
<use x="278.969054" y="591.147401" xlink:href="#a"/>
<use x="281.699842" y="598.056294" xlink:href="#a"/>
<use x="282.925706" y="597.719603" xlink:href="#a"/>
<use x="283.308507" y="597.54522" xlink:href="#a"/>
<use x="283.831669" y="597.713197" xlink:href="#a"/>
<use x="284.943249" y="597.18612" xlink:href="#a"/>
<use x="285.905485" y="599.336633" xlink:href="#a"/>
<use x="287.613977" y="595.434782" xlink:href="#a"/>
<use x="287.791316" y="593.117076" xlink:href="#a"/>
<use x="289.739049" y="590.980719" xlink:href="#a"/>
<use x="292.673508" y="594.641602" xlink:href="#a"/>
<use x="294.673496" y="593.112269" xlink:href="#a"/>
<use x="297.095668" y="593.413929" xlink:href="#a"/>
<use x="297.736109" y="590.622531" xlink:href="#a"/>
<use x="298.596318" y="591.650189" xlink:href="#a"/>
<use x="301.550711" y="579.539529" xlink:href="#a"/>
<use x="303.396673" y="583.047363" xlink:href="#a"/>
<use x="307.758415" y="582.791181" xlink:href="#a"/>
<use x="310.178259" y="569.219985" xlink:href="#a"/>
<use x="312.130777" y="572.067775" xlink:href="#a"/>
<use x="314.269002" y="574.319811" xlink:href="#a"/>
<use x="316.86621" y="568.168418" xlink:href="#a"/>
<use x="319.100833" y="570.851548" xlink:href="#a"/>
<use x="321.21439" y="574.857086" xlink:href="#a"/>
<use x="323.52" y="574.458054" xlink:href="#a"/>
<use x="325.615617" y="571.107823" xlink:href="#a"/>
<use x="327.873399" y="578.159393" xlink:href="#a"/>
<use x="330.159509" y="573.529708" xlink:href="#a"/>
<use x="332.080936" y="572.300002" xlink:href="#a"/>
<use x="334.546611" y="570.398418" xlink:href="#a"/>
<use x="336.926458" y="569.649737" xlink:href="#a"/>
<use x="338.983511" y="577.260072" xlink:href="#a"/>
<use x="341.348387" y="575.644787" xlink:href="#a"/>
<use x="343.381028" y="570.687503" xlink:href="#a"/>
<use x="347.623316" y="571.538998" xlink:href="#a"/>
<use x="349.479872" y="569.765076" xlink:href="#a"/>
<use x="350.321963" y="571.822073" xlink:href="#a"/>
<use x="352.017942" y="568.243299" xlink:href="#a"/>
<use x="354.569574" y="571.633433" xlink:href="#a"/>
<use x="356.210201" y="570.455168" xlink:href="#a"/>
<use x="359.003096" y="524.386264" xlink:href="#a"/>
<use x="359.236247" y="522.607864" xlink:href="#a"/>
<use x="361.024912" y="506.845419" xlink:href="#a"/>
<use x="362.803368" y="505.02002" xlink:href="#a"/>
<use x="363.486288" y="506.222665" xlink:href="#a"/>
<use x="365.583979" y="511.517916" xlink:href="#a"/>
<use x="367.717905" y="511.618179" xlink:href="#a"/>
<use x="370.131965" y="513.856728" xlink:href="#a"/>
<use x="372.3248" y="525.919196" xlink:href="#a"/>
<use x="374.497367" y="522.925746" xlink:href="#a"/>
<use x="374.672224" y="526.089117" xlink:href="#a"/>
<use x="375.824286" y="521.438436" xlink:href="#a"/>
<use x="376.784961" y="526.115573" xlink:href="#a"/>
<use x="378.221252" y="513.029971" xlink:href="#a"/>
<use x="378.924364" y="518.107573" xlink:href="#a"/>
<use x="381.043294" y="514.829282" xlink:href="#a"/>
<use x="382.867786" y="511.763649" xlink:href="#a"/>
<use x="385.140666" y="511.679886" xlink:href="#a"/>
<use x="387.831124" y="522.675348" xlink:href="#a"/>
<use x="388.887454" y="525.197923" xlink:href="#a"/>
<use x="390.039184" y="524.092178" xlink:href="#a"/>
<use x="392.237367" y="510.878753" xlink:href="#a"/>
<use x="394.298413" y="511.322078" xlink:href="#a"/>
<use x="396.074412" y="493.869335" xlink:href="#a"/>
<use x="398.20583" y="500.901771" xlink:href="#a"/>
<use x="400.366574" y="500.56431" xlink:href="#a"/>
<use x="401.01587" y="499.720714" xlink:href="#a"/>
<use x="402.616193" y="508.887595" xlink:href="#a"/>
<use x="405.406299" y="509.151013" xlink:href="#a"/>
<use x="407.30884" y="501.649981" xlink:href="#a"/>
<use x="409.886139" y="504.166302" xlink:href="#a"/>
<use x="412.009317" y="513.697459" xlink:href="#a"/>
<use x="414.305612" y="509.826404" xlink:href="#a"/>
<use x="416.504307" y="507.893733" xlink:href="#a"/>
<use x="418.560413" y="512.125742" xlink:href="#a"/>
<use x="420.974909" y="506.858415" xlink:href="#a"/>
<use x="423.10927" y="508.95485" xlink:href="#a"/>
<use x="424.798493" y="507.653729" xlink:href="#a"/>
<use x="424.923807" y="504.977031" xlink:href="#a"/>
<use x="427.36617" y="505.939017" xlink:href="#a"/>
<use x="429.361654" y="508.806791" xlink:href="#a"/>
<use x="432.042106" y="507.511379" xlink:href="#a"/>
<use x="433.883001" y="506.241841" xlink:href="#a"/>
<use x="436.430078" y="502.18964" xlink:href="#a"/>
<use x="438.456117" y="503.403576" xlink:href="#a"/>
<use x="440.873427" y="504.590898" xlink:href="#a"/>
<use x="442.524597" y="501.505521" xlink:href="#a"/>
<use x="444.736113" y="505.040637" xlink:href="#a"/>
<use x="447.539602" y="504.255986" xlink:href="#a"/>
<use x="449.496291" y="502.179666" xlink:href="#a"/>
<use x="450.347032" y="507.775455" xlink:href="#a"/>
<use x="450.586119" y="507.40219" xlink:href="#a"/>
<use x="451.660363" y="509.713142" xlink:href="#a"/>
<use x="453.285124" y="509.107523" xlink:href="#a"/>
<use x="453.933294" y="508.350728" xlink:href="#a"/>
<use x="456.310658" y="520.772015" xlink:href="#a"/>
<use x="458.147254" y="512.625884" xlink:href="#a"/>
<use x="458.375209" y="510.142721" xlink:href="#a"/>
<use x="460.536798" y="506.251518" xlink:href="#a"/>
<use x="462.741532" y="517.729802" xlink:href="#a"/>
<use x="463.171726" y="510.386423" xlink:href="#a"/>
<use x="465.101418" y="514.282452" xlink:href="#a"/>
<use x="467.320866" y="507.976815" xlink:href="#a"/>
<use x="469.525498" y="510.105522" xlink:href="#a"/>
<use x="471.799606" y="506.450263" xlink:href="#a"/>
<use x="473.778713" y="509.906301" xlink:href="#a"/>
<use x="476.031223" y="508.105454" xlink:href="#a"/>
<use x="478.107546" y="517.44436" xlink:href="#a"/>
<use x="479.762018" y="491.490558" xlink:href="#a"/>
<use x="480.597199" y="490.351908" xlink:href="#a"/>
<use x="482.819053" y="485.127413" xlink:href="#a"/>
<use x="484.888671" y="491.057074" xlink:href="#a"/>
<use x="486.928273" y="493.675979" xlink:href="#a"/>
<use x="487.220587" y="491.317653" xlink:href="#a"/>
<use x="489.276157" y="493.739398" xlink:href="#a"/>
<use x="491.259204" y="491.903899" xlink:href="#a"/>
<use x="493.757993" y="489.21173" xlink:href="#a"/>
<use x="495.541182" y="492.049713" xlink:href="#a"/>
<use x="496.01836" y="498.404756" xlink:href="#a"/>
<use x="497.395" y="493.344344" xlink:href="#a"/>
<use x="498.325428" y="485.753455" xlink:href="#a"/>
<use x="500.550557" y="487.338331" xlink:href="#a"/>
<use x="502.781904" y="490.259334" xlink:href="#a"/>
<use x="504.959308" y="497.940895" xlink:href="#a"/>
<use x="507.089089" y="497.119599" xlink:href="#a"/>
<use x="508.53408" y="495.433027" xlink:href="#a"/>
<use x="511.416745" y="496.628216" xlink:href="#a"/>
<use x="511.558513" y="499.557969" xlink:href="#a"/>
<use x="512.668481" y="496.821843" xlink:href="#a"/>
<use x="513.799892" y="499.044271" xlink:href="#a"/>
<use x="515.564503" y="500.932351" xlink:href="#a"/>
<use x="515.588046" y="538.278877" xlink:href="#a"/>
<use x="515.919386" y="539.612864" xlink:href="#a"/>
<use x="517.809157" y="539.640937" xlink:href="#a"/>
<use x="520.467577" y="535.987248" xlink:href="#a"/>
<use x="522.429077" y="537.854758" xlink:href="#a"/>
<use x="524.811431" y="541.945077" xlink:href="#a"/>
<use x="526.847169" y="537.263433" xlink:href="#a"/>
<use x="527.174516" y="537.564716" xlink:href="#a"/>
<use x="529.306574" y="518.405415" xlink:href="#a"/>
<use x="531.509773" y="515.739586" xlink:href="#a"/>
<use x="533.417458" y="515.227485" xlink:href="#a"/>
<use x="535.820668" y="513.603294" xlink:href="#a"/>
<use x="538.059794" y="520.581321" xlink:href="#a"/>
<use x="540.3327" y="519.239165" xlink:href="#a"/>
<use x="541.977959" y="517.5684" xlink:href="#a"/>
<use x="542.616532" y="514.027143" xlink:href="#a"/>
<use x="544.342631" y="518.035981" xlink:href="#a"/>
<use x="544.7013" y="517.676184" xlink:href="#a"/>
<use x="546.409588" y="501.203162" xlink:href="#a"/>
<use x="546.93884" y="505.455886" xlink:href="#a"/>
<use x="548.263559" y="478.690573" xlink:href="#a"/>
<use x="549.055621" y="475.239693" xlink:href="#a"/>
<use x="551.155283" y="482.362308" xlink:href="#a"/>
<use x="553.505086" y="483.878624" xlink:href="#a"/>
<use x="555.803991" y="482.059533" xlink:href="#a"/>
<use x="558.064665" y="477.750003" xlink:href="#a"/>
<use x="560.132492" y="475.687439" xlink:href="#a"/>
<use x="562.271434" y="476.901778" xlink:href="#a"/>
<use x="562.826712" y="480.007598" xlink:href="#a"/>
<use x="564.380486" y="475.027153" xlink:href="#a"/>
<use x="566.758772" y="476.865229" xlink:href="#a"/>
<use x="568.576405" y="480.103711" xlink:href="#a"/>
<use x="571.263562" y="481.866369" xlink:href="#a"/>
<use x="573.453684" y="479.881851" xlink:href="#a"/>
<use x="575.709854" y="479.456186" xlink:href="#a"/>
<use x="577.92554" y="481.242132" xlink:href="#a"/>
<use x="580.205739" y="481.769621" xlink:href="#a"/>
<use x="582.117672" y="480.239012" xlink:href="#a"/>
<use x="584.47093" y="484.43261" xlink:href="#a"/>
<use x="586.729224" y="481.720712" xlink:href="#a"/>
<use x="588.95489" y="477.72117" xlink:href="#a"/>
<use x="589.829992" y="478.544143" xlink:href="#a"/>
<use x="591.2551" y="481.992616" xlink:href="#a"/>
<use x="593.4009" y="480.938089" xlink:href="#a"/>
<use x="595.523285" y="485.775228" xlink:href="#a"/>
<use x="596.879377" y="487.237821" xlink:href="#a"/>
<use x="597.816816" y="482.924046" xlink:href="#a"/>
<use x="599.748146" y="482.413298" xlink:href="#a"/>
<use x="602.255431" y="481.49381" xlink:href="#a"/>
<use x="604.493381" y="482.895153" xlink:href="#a"/>
<use x="605.601045" y="490.558479" xlink:href="#a"/>
<use x="608.917153" y="487.659509" xlink:href="#a"/>
<use x="611.147681" y="488.04895" xlink:href="#a"/>
<use x="612.989191" y="486.796099" xlink:href="#a"/>
<use x="615.415252" y="483.151326" xlink:href="#a"/>
<use x="616.990753" y="485.008064" xlink:href="#a"/>
<use x="619.79675" y="486.85516" xlink:href="#a"/>
<use x="621.590124" y="484.315466" xlink:href="#a"/>
<use x="623.82398" y="483.981403" xlink:href="#a"/>
<use x="626.505174" y="490.105253" xlink:href="#a"/>
<use x="628.484511" y="484.665412" xlink:href="#a"/>
<use x="630.872725" y="483.765626" xlink:href="#a"/>
<use x="632.801854" y="485.887427" xlink:href="#a"/>
<use x="635.439674" y="488.686087" xlink:href="#a"/>
<use x="637.643051" y="490.135126" xlink:href="#a"/>
<use x="639.890648" y="486.478779" xlink:href="#a"/>
<use x="641.974085" y="484.628329" xlink:href="#a"/>
<use x="644.087949" y="483.094741" xlink:href="#a"/>
<use x="645.42014" y="486.196056" xlink:href="#a"/>
<use x="648.62268" y="481.58521" xlink:href="#a"/>
<use x="650.708445" y="483.399535" xlink:href="#a"/>
<use x="652.793034" y="483.666955" xlink:href="#a"/>
<use x="655.27176" y="481.825107" xlink:href="#a"/>
<use x="657.324719" y="482.052484" xlink:href="#a"/>
<use x="659.266618" y="484.547771" xlink:href="#a"/>
<use x="661.747136" y="478.860261" xlink:href="#a"/>
<use x="663.409873" y="485.701621" xlink:href="#a"/>
<use x="666.365059" y="485.241126" xlink:href="#a"/>
<use x="668.005329" y="482.884054" xlink:href="#a"/>
<use x="670.736807" y="487.547299" xlink:href="#a"/>
<use x="672.465644" y="481.832642" xlink:href="#a"/>
<use x="675.215189" y="479.363203" xlink:href="#a"/>
<use x="677.18667" y="482.998084" xlink:href="#a"/>
<use x="679.5203" y="486.8366" xlink:href="#a"/>
<use x="681.884639" y="482.407366" xlink:href="#a"/>
<use x="683.128365" y="482.904259" xlink:href="#a"/>
<use x="686.256387" y="482.662626" xlink:href="#a"/>
</g>
</g>
<g stroke="#2ca02c" stroke-opacity=".9">
<path d="m71.4 591 349-104 68.3-7.33 7.32-1.13 1.38 2.85 0.93-0.959 2.23 0.204 2.23-29.5 2.18 33.1 2.13-33.4 1.44 30.5 3.02-44 1.11 2.94 1.13 11 2.12 27.4 1.89-27.5 2.66-46 1.96 1.05 2.38 45.5 2.04 36.5 2.46-14.9 2.2-29 1.91-7.7 2.4-6.37 2.24-2.4 2.27 2.45 2.28-0.568 2.08-1.12 2.24 2.18 1.32 2.63 0.792-2.8 2.1 3.97 2.35 0.752 2.3-1.94 2.26 0.798 4.21 1.78 2.11-0.887 2.38-9.97 1.82-6.25 2.69 2.98 2.19 2.36 2.26-6.83 2.22 25.2 2.28-0.256 8.75-2.64 0.875-4.58 1.43 0.921 2.15-7.33 2.12 10.6 1.36 2.01 0.937 1.56 1.93 1.29 2.51-2.7 2.24-7.47 1.11 10.4 3.32-11.6 2.23 10.2 1.84-8.52 2.43 1.66 1.58 0.0716 2.81 2.58 1.79-0.47 2.23 1.17 2.68 5.61 1.98-5.4 2.39 3.47 1.93 1.93 2.64 1.3 2.2 0.0324 2.25-12 2.08 5.23 2.11 3.56 1.33-4.21 3.2-3.03 2.09-3.31 2.08-2.3 2.48 10.9 2.05-2.75 1.94 0.388 2.48-0.668 1.66 2.84 2.96 1.94 1.64-0.0635 2.73 2.67 1.73-2.05 2.75-7.08 1.97 5.53 2.33 3.77 2.36-3.14 1.24-0.148 3.13 2.78" clip-path="url(#o)" fill="none" stroke-linecap="square" stroke-width="1.5"/>
<g clip-path="url(#o)" fill="#2ca02c" fill-opacity=".9">
<use x="71.388926" y="590.825897" xlink:href="#b"/>
<use x="420.356654" y="486.423282" xlink:href="#b"/>
<use x="488.695135" y="479.090914" xlink:href="#b"/>
<use x="496.01836" y="477.956888" xlink:href="#b"/>
<use x="497.395" y="480.802795" xlink:href="#b"/>
<use x="498.325428" y="479.843732" xlink:href="#b"/>
<use x="500.550557" y="480.04808" xlink:href="#b"/>
<use x="502.781904" y="450.533416" xlink:href="#b"/>
<use x="504.959308" y="483.67739" xlink:href="#b"/>
<use x="507.089089" y="450.25215" xlink:href="#b"/>
<use x="508.53408" y="480.758447" xlink:href="#b"/>
<use x="511.558513" y="436.798432" xlink:href="#b"/>
<use x="512.668481" y="439.734179" xlink:href="#b"/>
<use x="513.799892" y="450.703188" xlink:href="#b"/>
<use x="515.919386" y="478.115182" xlink:href="#b"/>
<use x="517.809157" y="450.585353" xlink:href="#b"/>
<use x="520.467577" y="404.603397" xlink:href="#b"/>
<use x="522.429077" y="405.648692" xlink:href="#b"/>
<use x="524.811431" y="451.152398" xlink:href="#b"/>
<use x="526.847169" y="487.675674" xlink:href="#b"/>
<use x="529.306574" y="472.726416" xlink:href="#b"/>
<use x="531.509773" y="443.695104" xlink:href="#b"/>
<use x="533.417458" y="435.990723" xlink:href="#b"/>
<use x="535.820668" y="429.619522" xlink:href="#b"/>
<use x="538.059794" y="427.221309" xlink:href="#b"/>
<use x="540.3327" y="429.666706" xlink:href="#b"/>
<use x="542.616532" y="429.098758" xlink:href="#b"/>
<use x="544.7013" y="427.981289" xlink:href="#b"/>
<use x="546.93884" y="430.156422" xlink:href="#b"/>
<use x="548.263559" y="432.783108" xlink:href="#b"/>
<use x="549.055621" y="429.978845" xlink:href="#b"/>
<use x="551.155283" y="433.945535" xlink:href="#b"/>
<use x="553.505086" y="434.697095" xlink:href="#b"/>
<use x="555.803991" y="432.755402" xlink:href="#b"/>
<use x="558.064665" y="433.55294" xlink:href="#b"/>
<use x="562.271434" y="435.33429" xlink:href="#b"/>
<use x="564.380486" y="434.447651" xlink:href="#b"/>
<use x="566.758772" y="424.476215" xlink:href="#b"/>
<use x="568.576405" y="418.229892" xlink:href="#b"/>
<use x="571.263562" y="421.212873" xlink:href="#b"/>
<use x="573.453684" y="423.577611" xlink:href="#b"/>
<use x="575.709854" y="416.742934" xlink:href="#b"/>
<use x="577.92554" y="441.965147" xlink:href="#b"/>
<use x="580.205739" y="441.7094" xlink:href="#b"/>
<use x="588.95489" y="439.066298" xlink:href="#b"/>
<use x="589.829992" y="434.490071" xlink:href="#b"/>
<use x="591.2551" y="435.410594" xlink:href="#b"/>
<use x="593.4009" y="428.080417" xlink:href="#b"/>
<use x="595.523285" y="438.725018" xlink:href="#b"/>
<use x="596.879377" y="440.736701" xlink:href="#b"/>
<use x="597.816816" y="442.296547" xlink:href="#b"/>
<use x="599.748146" y="443.58502" xlink:href="#b"/>
<use x="602.255431" y="440.881457" xlink:href="#b"/>
<use x="604.493381" y="433.415076" xlink:href="#b"/>
<use x="605.601045" y="443.824806" xlink:href="#b"/>
<use x="608.917153" y="432.25971" xlink:href="#b"/>
<use x="611.147681" y="442.429748" xlink:href="#b"/>
<use x="612.989191" y="433.912545" xlink:href="#b"/>
<use x="615.415252" y="435.575443" xlink:href="#b"/>
<use x="616.990753" y="435.64703" xlink:href="#b"/>
<use x="619.79675" y="438.231516" xlink:href="#b"/>
<use x="621.590124" y="437.76165" xlink:href="#b"/>
<use x="623.82398" y="438.933701" xlink:href="#b"/>
<use x="626.505174" y="444.547205" xlink:href="#b"/>
<use x="628.484511" y="439.144274" xlink:href="#b"/>
<use x="630.872725" y="442.61407" xlink:href="#b"/>
<use x="632.801854" y="444.542052" xlink:href="#b"/>
<use x="635.439674" y="445.846633" xlink:href="#b"/>
<use x="637.643051" y="445.879042" xlink:href="#b"/>
<use x="639.890648" y="433.843706" xlink:href="#b"/>
<use x="641.974085" y="439.070576" xlink:href="#b"/>
<use x="644.087949" y="442.627897" xlink:href="#b"/>
<use x="645.42014" y="438.421994" xlink:href="#b"/>
<use x="648.62268" y="435.387767" xlink:href="#b"/>
<use x="650.708445" y="432.075366" xlink:href="#b"/>
<use x="652.793034" y="429.775491" xlink:href="#b"/>
<use x="655.27176" y="440.633672" xlink:href="#b"/>
<use x="657.324719" y="437.882961" xlink:href="#b"/>
<use x="659.266618" y="438.271255" xlink:href="#b"/>
<use x="661.747136" y="437.603321" xlink:href="#b"/>
<use x="663.409873" y="440.438728" xlink:href="#b"/>
<use x="666.365059" y="442.374395" xlink:href="#b"/>
<use x="668.005329" y="442.310934" xlink:href="#b"/>
<use x="670.736807" y="444.984506" xlink:href="#b"/>
<use x="672.465644" y="442.938277" xlink:href="#b"/>
<use x="675.215189" y="435.858158" xlink:href="#b"/>
<use x="677.18667" y="441.385143" xlink:href="#b"/>
<use x="679.5203" y="445.152676" xlink:href="#b"/>
<use x="681.884639" y="442.009866" xlink:href="#b"/>
<use x="683.128365" y="441.861525" xlink:href="#b"/>
<use x="686.256387" y="444.645561" xlink:href="#b"/>
</g>
</g>
<path d="m40.6 706v-316" fill="none" stroke="#000" stroke-linecap="square" stroke-width=".8"/>
<path d="m717 706v-316" fill="none" stroke="#000" stroke-linecap="square" stroke-width=".8"/>
<path d="m40.6 706h676" fill="none" stroke="#000" stroke-linecap="square" stroke-width=".8"/>
<path d="m40.6 390h676" fill="none" stroke="#000" stroke-linecap="square" stroke-width=".8"/>
<g clip-path="url(#o)">
<g transform="translate(58.2 421) rotate(-90) scale(.1 -.1)">
<use xlink:href="#y"/>
<use transform="translate(35.2)" xlink:href="#r"/>
<use transform="translate(96.5)" xlink:href="#s"/>
<use transform="translate(149)" xlink:href="#p"/>
<use transform="translate(188)" xlink:href="#n"/>
<use transform="translate(249)" xlink:href="#q"/>
<use transform="translate(290)" xlink:href="#DejaVuSans-20"/>
<use transform="translate(322)" xlink:href="#ao"/>
</g>
</g>
<g clip-path="url(#o)">
<g transform="translate(58.2 489) rotate(-90) scale(.1 -.1)">
<use xlink:href="#ap"/>
<use transform="translate(143)" xlink:href="#DejaVuSans-20"/>
<use transform="translate(175)" xlink:href="#s"/>
<use transform="translate(227)" xlink:href="#x"/>
<use transform="translate(255)" xlink:href="#t"/>
<use transform="translate(316)" xlink:href="#af"/>
<use transform="translate(398)" xlink:href="#n"/>
<use transform="translate(460)" xlink:href="#q"/>
</g>
</g>
<g transform="translate(232 384) scale(.12 -.12)">
<use xlink:href="#al"/>
<use transform="translate(63.2)" xlink:href="#y"/>
<use transform="translate(98.4)" xlink:href="#y"/>
<use transform="translate(134)" xlink:href="#n"/>
<use transform="translate(195)" xlink:href="#z"/>
<use transform="translate(250)" xlink:href="#p"/>
<use transform="translate(289)" xlink:href="#DejaVuSans-20"/>
<use transform="translate(321)" xlink:href="#t"/>
<use transform="translate(382)" xlink:href="#y"/>
<use transform="translate(417)" xlink:href="#DejaVuSans-20"/>
<use transform="translate(449)" xlink:href="#y"/>
<use transform="translate(484)" xlink:href="#q"/>
<use transform="translate(523)" xlink:href="#n"/>
<use transform="translate(585)" xlink:href="#n"/>
<use transform="translate(646)" xlink:href="#DejaVuSans-20"/>
<use transform="translate(678)" xlink:href="#p"/>
<use transform="translate(717)" xlink:href="#aq"/>
<use transform="translate(781)" xlink:href="#q"/>
<use transform="translate(820)" xlink:href="#n"/>
<use transform="translate(881)" xlink:href="#r"/>
<use transform="translate(942)" xlink:href="#ak"/>
<use transform="translate(1006)" xlink:href="#u"/>
<use transform="translate(1034)" xlink:href="#aa"/>
<use transform="translate(1097)" xlink:href="#aj"/>
<use transform="translate(1161)" xlink:href="#DejaVuSans-20"/>
<use transform="translate(1192)" xlink:href="#ac"/>
<use transform="translate(1252)" xlink:href="#s"/>
<use transform="translate(1304)" xlink:href="#i"/>
<use transform="translate(1335)" xlink:href="#DejaVuSans-20"/>
<use transform="translate(1367)" xlink:href="#ag"/>
<use transform="translate(1425)" xlink:href="#u"/>
<use transform="translate(1453)" xlink:href="#n"/>
<use transform="translate(1514)" xlink:href="#q"/>
<use transform="translate(1556)" xlink:href="#DejaVuSans-20"/>
<use transform="translate(1587)" xlink:href="#e"/>
<use transform="translate(1651)" xlink:href="#DejaVuSans-20"/>
<use transform="translate(1683)" xlink:href="#an"/>
<use transform="translate(1722)" xlink:href="#s"/>
<use transform="translate(1774)" xlink:href="#r"/>
<use transform="translate(1835)" xlink:href="#w"/>
<use transform="translate(1933)" xlink:href="#n"/>
<use transform="translate(1994)" xlink:href="#DejaVuSans-20"/>
<use transform="translate(2026)" xlink:href="#z"/>
<use transform="translate(2081)" xlink:href="#t"/>
<use transform="translate(2142)" xlink:href="#w"/>
<use transform="translate(2239)" xlink:href="#w"/>
<use transform="translate(2337)" xlink:href="#u"/>
<use transform="translate(2365)" xlink:href="#p"/>
<use transform="translate(2404)" xlink:href="#am"/>
</g>
<path d="m47.6 428h82.6q2 0 2-2v-28.4q0-2-2-2h-82.6q-2 0-2 2v28.4q0 2 2 2z" fill="#fff" opacity=".8" stroke="#ccc"/>
<path d="m49.6 403h10 10" fill="none" stroke="#1f77b4" stroke-dasharray="1.5,2.475" stroke-opacity=".9" stroke-width="1.5"/>
<use x="59.645553" y="403.359463" fill="#1f77b4" fill-opacity=".9" stroke="#1f77b4" stroke-opacity=".9" xlink:href="#a"/>
<g transform="translate(77.6 407) scale(.1 -.1)">
<use xlink:href="#x"/>
<use transform="translate(27.8)" xlink:href="#u"/>
<use transform="translate(55.6)" xlink:href="#aa"/>
<use transform="translate(119)" xlink:href="#ab"/>
<use transform="translate(182)" xlink:href="#ai"/>
<use transform="translate(242)" xlink:href="#f"/>
<use transform="translate(275)" xlink:href="#ac"/>
<use transform="translate(334)" xlink:href="#ab"/>
<use transform="translate(398)" xlink:href="#x"/>
<use transform="translate(425)" xlink:href="#p"/>
<use transform="translate(465)" xlink:href="#q"/>
</g>
<path d="m49.6 418h10 10" fill="none" stroke="#2ca02c" stroke-linecap="square" stroke-opacity=".9" stroke-width="1.5"/>
<use x="59.645553" y="418.037588" fill="#2ca02c" fill-opacity=".9" stroke="#2ca02c" stroke-opacity=".9" xlink:href="#b"/>
<g transform="translate(77.6 422) scale(.1 -.1)">
<use xlink:href="#w"/>
<use transform="translate(97.4)" xlink:href="#r"/>
<use transform="translate(159)" xlink:href="#z"/>
<use transform="translate(214)" xlink:href="#t"/>
<use transform="translate(275)" xlink:href="#s"/>
</g>
<path d="m40.6 1060h676v-316h-676z" fill="#fff"/>
<path d="m59 1060v-316" clip-path="url(#j)" fill="none" stroke="#b0b0b0" stroke-linecap="square" stroke-width=".8"/>
<use x="59.020731" y="1060.321635" stroke="#000000" stroke-width=".8" xlink:href="#g"/>
<g transform="translate(38.1 1075) scale(.1 -.1)">
<use xlink:href="#d"/>
<use transform="translate(63.6)" xlink:href="#c"/>
<use transform="translate(127)" xlink:href="#d"/>
<use transform="translate(191)" xlink:href="#v"/>
<use transform="translate(254)" xlink:href="#f"/>
<use transform="translate(291)" xlink:href="#c"/>
<use transform="translate(354)" xlink:href="#ad"/>
</g>
<path d="m125 1060v-316" clip-path="url(#j)" fill="none" stroke="#b0b0b0" stroke-linecap="square" stroke-width=".8"/>
<use x="125.350064" y="1060.321635" stroke="#000000" stroke-width=".8" xlink:href="#g"/>
<g transform="translate(104 1075) scale(.1 -.1)">
<use xlink:href="#d"/>
<use transform="translate(63.6)" xlink:href="#c"/>
<use transform="translate(127)" xlink:href="#d"/>
<use transform="translate(191)" xlink:href="#v"/>
<use transform="translate(254)" xlink:href="#f"/>
<use transform="translate(291)" xlink:href="#e"/>
<use transform="translate(354)" xlink:href="#c"/>
</g>
<path d="m194 1060v-316" clip-path="url(#j)" fill="none" stroke="#b0b0b0" stroke-linecap="square" stroke-width=".8"/>
<use x="193.890374" y="1060.321635" stroke="#000000" stroke-width=".8" xlink:href="#g"/>
<g transform="translate(173 1075) scale(.1 -.1)">
<use xlink:href="#d"/>
<use transform="translate(63.6)" xlink:href="#c"/>
<use transform="translate(127)" xlink:href="#d"/>
<use transform="translate(191)" xlink:href="#v"/>
<use transform="translate(254)" xlink:href="#f"/>
<use transform="translate(291)" xlink:href="#e"/>
<use transform="translate(354)" xlink:href="#e"/>
</g>
<path d="m260 1060v-316" clip-path="url(#j)" fill="none" stroke="#b0b0b0" stroke-linecap="square" stroke-width=".8"/>
<use x="260.219707" y="1060.321635" stroke="#000000" stroke-width=".8" xlink:href="#g"/>
<g transform="translate(239 1075) scale(.1 -.1)">
<use xlink:href="#d"/>
<use transform="translate(63.6)" xlink:href="#c"/>
<use transform="translate(127)" xlink:href="#d"/>
<use transform="translate(191)" xlink:href="#v"/>
<use transform="translate(254)" xlink:href="#f"/>
<use transform="translate(291)" xlink:href="#e"/>
<use transform="translate(354)" xlink:href="#d"/>
</g>
<path d="m329 1060v-316" clip-path="url(#j)" fill="none" stroke="#b0b0b0" stroke-linecap="square" stroke-width=".8"/>
<use x="328.760017" y="1060.321635" stroke="#000000" stroke-width=".8" xlink:href="#g"/>
<g transform="translate(308 1075) scale(.1 -.1)">
<use xlink:href="#d"/>
<use transform="translate(63.6)" xlink:href="#c"/>
<use transform="translate(127)" xlink:href="#d"/>
<use transform="translate(191)" xlink:href="#h"/>
<use transform="translate(254)" xlink:href="#f"/>
<use transform="translate(291)" xlink:href="#c"/>
<use transform="translate(354)" xlink:href="#e"/>
</g>
<path d="m397 1060v-316" clip-path="url(#j)" fill="none" stroke="#b0b0b0" stroke-linecap="square" stroke-width=".8"/>
<use x="397.300327" y="1060.321635" stroke="#000000" stroke-width=".8" xlink:href="#g"/>
<g transform="translate(376 1075) scale(.1 -.1)">
<use xlink:href="#d"/>
<use transform="translate(63.6)" xlink:href="#c"/>
<use transform="translate(127)" xlink:href="#d"/>
<use transform="translate(191)" xlink:href="#h"/>
<use transform="translate(254)" xlink:href="#f"/>
<use transform="translate(291)" xlink:href="#c"/>
<use transform="translate(354)" xlink:href="#d"/>
</g>
<path d="m459 1060v-316" clip-path="url(#j)" fill="none" stroke="#b0b0b0" stroke-linecap="square" stroke-width=".8"/>
<use x="459.207704" y="1060.321635" stroke="#000000" stroke-width=".8" xlink:href="#g"/>
<g transform="translate(438 1075) scale(.1 -.1)">
<use xlink:href="#d"/>
<use transform="translate(63.6)" xlink:href="#c"/>
<use transform="translate(127)" xlink:href="#d"/>
<use transform="translate(191)" xlink:href="#h"/>
<use transform="translate(254)" xlink:href="#f"/>
<use transform="translate(291)" xlink:href="#c"/>
<use transform="translate(354)" xlink:href="#ae"/>
</g>
<path d="m528 1060v-316" clip-path="url(#j)" fill="none" stroke="#b0b0b0" stroke-linecap="square" stroke-width=".8"/>
<use x="527.748014" y="1060.321635" stroke="#000000" stroke-width=".8" xlink:href="#g"/>
<g transform="translate(507 1075) scale(.1 -.1)">
<use xlink:href="#d"/>
<use transform="translate(63.6)" xlink:href="#c"/>
<use transform="translate(127)" xlink:href="#d"/>
<use transform="translate(191)" xlink:href="#h"/>
<use transform="translate(254)" xlink:href="#f"/>
<use transform="translate(291)" xlink:href="#c"/>
<use transform="translate(354)" xlink:href="#v"/>
</g>
<path d="m594 1060v-316" clip-path="url(#j)" fill="none" stroke="#b0b0b0" stroke-linecap="square" stroke-width=".8"/>
<use x="594.077347" y="1060.321635" stroke="#000000" stroke-width=".8" xlink:href="#g"/>
<g transform="translate(573 1075) scale(.1 -.1)">
<use xlink:href="#d"/>
<use transform="translate(63.6)" xlink:href="#c"/>
<use transform="translate(127)" xlink:href="#d"/>
<use transform="translate(191)" xlink:href="#h"/>
<use transform="translate(254)" xlink:href="#f"/>
<use transform="translate(291)" xlink:href="#c"/>
<use transform="translate(354)" xlink:href="#h"/>
</g>
<path d="m663 1060v-316" clip-path="url(#j)" fill="none" stroke="#b0b0b0" stroke-linecap="square" stroke-width=".8"/>
<use x="662.617657" y="1060.321635" stroke="#000000" stroke-width=".8" xlink:href="#g"/>
<g transform="translate(642 1075) scale(.1 -.1)">
<use xlink:href="#d"/>
<use transform="translate(63.6)" xlink:href="#c"/>
<use transform="translate(127)" xlink:href="#d"/>
<use transform="translate(191)" xlink:href="#h"/>
<use transform="translate(254)" xlink:href="#f"/>
<use transform="translate(291)" xlink:href="#c"/>
<use transform="translate(354)" xlink:href="#ah"/>
</g>
<path d="m40.6 1036h676" clip-path="url(#j)" fill="none" stroke="#b0b0b0" stroke-linecap="square" stroke-width=".8"/>
<use x="40.645553" y="1036.309263" stroke="#000000" stroke-width=".8" xlink:href="#l"/>
<g transform="translate(3 1040) scale(.1 -.1)">
<use xlink:href="#e"/>
<use transform="translate(63.6)" xlink:href="#i"/>
<use transform="translate(95.4)" xlink:href="#c"/>
<use transform="translate(159)" xlink:href="#c"/>
<use transform="translate(223)" xlink:href="#m"/>
</g>
<path d="m40.6 1e3h676" clip-path="url(#j)" fill="none" stroke="#b0b0b0" stroke-linecap="square" stroke-width=".8"/>
<use x="40.645553" y="1001.159" stroke="#000000" stroke-width=".8" xlink:href="#l"/>
<g transform="translate(3 1e3) scale(.1 -.1)">
<use xlink:href="#e"/>
<use transform="translate(63.6)" xlink:href="#i"/>
<use transform="translate(95.4)" xlink:href="#c"/>
<use transform="translate(159)" xlink:href="#h"/>
<use transform="translate(223)" xlink:href="#m"/>
</g>
<path d="m40.6 966h676" clip-path="url(#j)" fill="none" stroke="#b0b0b0" stroke-linecap="square" stroke-width=".8"/>
<use x="40.645553" y="966.008737" stroke="#000000" stroke-width=".8" xlink:href="#l"/>
<g transform="translate(3 970) scale(.1 -.1)">
<use xlink:href="#e"/>
<use transform="translate(63.6)" xlink:href="#i"/>
<use transform="translate(95.4)" xlink:href="#e"/>
<use transform="translate(159)" xlink:href="#c"/>
<use transform="translate(223)" xlink:href="#m"/>
</g>
<path d="m40.6 931h676" clip-path="url(#j)" fill="none" stroke="#b0b0b0" stroke-linecap="square" stroke-width=".8"/>
<use x="40.645553" y="930.858474" stroke="#000000" stroke-width=".8" xlink:href="#l"/>
<g transform="translate(3 935) scale(.1 -.1)">
<use xlink:href="#e"/>
<use transform="translate(63.6)" xlink:href="#i"/>
<use transform="translate(95.4)" xlink:href="#e"/>
<use transform="translate(159)" xlink:href="#h"/>
<use transform="translate(223)" xlink:href="#m"/>
</g>
<path d="m40.6 896h676" clip-path="url(#j)" fill="none" stroke="#b0b0b0" stroke-linecap="square" stroke-width=".8"/>
<use x="40.645553" y="895.708211" stroke="#000000" stroke-width=".8" xlink:href="#l"/>
<g transform="translate(3 900) scale(.1 -.1)">
<use xlink:href="#e"/>
<use transform="translate(63.6)" xlink:href="#i"/>
<use transform="translate(95.4)" xlink:href="#d"/>
<use transform="translate(159)" xlink:href="#c"/>
<use transform="translate(223)" xlink:href="#m"/>
</g>
<path d="m40.6 861h676" clip-path="url(#j)" fill="none" stroke="#b0b0b0" stroke-linecap="square" stroke-width=".8"/>
<use x="40.645553" y="860.557948" stroke="#000000" stroke-width=".8" xlink:href="#l"/>
<g transform="translate(3 864) scale(.1 -.1)">
<use xlink:href="#e"/>
<use transform="translate(63.6)" xlink:href="#i"/>
<use transform="translate(95.4)" xlink:href="#d"/>
<use transform="translate(159)" xlink:href="#h"/>
<use transform="translate(223)" xlink:href="#m"/>
</g>
<path d="m40.6 825h676" clip-path="url(#j)" fill="none" stroke="#b0b0b0" stroke-linecap="square" stroke-width=".8"/>
<use x="40.645553" y="825.407685" stroke="#000000" stroke-width=".8" xlink:href="#l"/>
<g transform="translate(3 829) scale(.1 -.1)">
<use xlink:href="#e"/>
<use transform="translate(63.6)" xlink:href="#i"/>
<use transform="translate(95.4)" xlink:href="#ae"/>
<use transform="translate(159)" xlink:href="#c"/>
<use transform="translate(223)" xlink:href="#m"/>
</g>
<path d="m40.6 790h676" clip-path="url(#j)" fill="none" stroke="#b0b0b0" stroke-linecap="square" stroke-width=".8"/>
<use x="40.645553" y="790.257421" stroke="#000000" stroke-width=".8" xlink:href="#l"/>
<g transform="translate(3 794) scale(.1 -.1)">
<use xlink:href="#e"/>
<use transform="translate(63.6)" xlink:href="#i"/>
<use transform="translate(95.4)" xlink:href="#ae"/>
<use transform="translate(159)" xlink:href="#h"/>
<use transform="translate(223)" xlink:href="#m"/>
</g>
<path d="m40.6 755h676" clip-path="url(#j)" fill="none" stroke="#b0b0b0" stroke-linecap="square" stroke-width=".8"/>
<use x="40.645553" y="755.107158" stroke="#000000" stroke-width=".8" xlink:href="#l"/>
<g transform="translate(3 759) scale(.1 -.1)">
<use xlink:href="#e"/>
<use transform="translate(63.6)" xlink:href="#i"/>
<use transform="translate(95.4)" xlink:href="#v"/>
<use transform="translate(159)" xlink:href="#c"/>
<use transform="translate(223)" xlink:href="#m"/>
</g>
<g stroke="#1f77b4" stroke-opacity=".9">
<path d="m507 1020 15.3 26.1 15.6-14.7 15.4 9.13 15.1-2.62 15.9-0.466 15.3-3.39 15.7-2.06 15.5-0.114 14.5 6.04 16.3-279 15.4 269" clip-path="url(#j)" fill="none" stroke-dasharray="1.5,2.475" stroke-width="1.5"/>
<g clip-path="url(#j)" fill="#1f77b4" fill-opacity=".9">
<use x="507.089089" y="1019.904356" xlink:href="#a"/>
<use x="522.429077" y="1045.979263" xlink:href="#a"/>
<use x="538.059794" y="1031.304983" xlink:href="#a"/>
<use x="553.505086" y="1040.439699" xlink:href="#a"/>
<use x="568.576405" y="1037.823909" xlink:href="#a"/>
<use x="584.47093" y="1037.357485" xlink:href="#a"/>
<use x="599.748146" y="1033.970577" xlink:href="#a"/>
<use x="615.415252" y="1031.910851" xlink:href="#a"/>
<use x="630.872725" y="1031.796753" xlink:href="#a"/>
<use x="645.42014" y="1037.834713" xlink:href="#a"/>
<use x="661.747136" y="759.131827" xlink:href="#a"/>
<use x="677.18667" y="1028.153101" xlink:href="#a"/>
</g>
</g>
<g stroke="#2ca02c" stroke-opacity=".9">
<path d="m507 1023 15.3-2.03 15.6 9.38 15.4 6.5 15.1-11.1 31.2 15.9 15.7-9.09 15.5 3.38 14.5-7.06 16.3-225 15.4 235" clip-path="url(#j)" fill="none" stroke-linecap="square" stroke-width="1.5"/>
<g clip-path="url(#j)" fill="#2ca02c" fill-opacity=".9">
<use x="507.089089" y="1023.18002" xlink:href="#b"/>
<use x="522.429077" y="1021.15342" xlink:href="#b"/>
<use x="538.059794" y="1030.531828" xlink:href="#b"/>
<use x="553.505086" y="1037.036751" xlink:href="#b"/>
<use x="568.576405" y="1025.915122" xlink:href="#b"/>
<use x="599.748146" y="1041.838696" xlink:href="#b"/>
<use x="615.415252" y="1032.748414" xlink:href="#b"/>
<use x="630.872725" y="1036.128098" xlink:href="#b"/>
<use x="645.42014" y="1029.063925" xlink:href="#b"/>
<use x="661.747136" y="804.219313" xlink:href="#b"/>
<use x="677.18667" y="1039.343479" xlink:href="#b"/>
</g>
</g>
<path d="m40.6 1060v-316" fill="none" stroke="#000" stroke-linecap="square" stroke-width=".8"/>
<path d="m717 1060v-316" fill="none" stroke="#000" stroke-linecap="square" stroke-width=".8"/>
<path d="m40.6 1060h676" fill="none" stroke="#000" stroke-linecap="square" stroke-width=".8"/>
<path d="m40.6 745h676" fill="none" stroke="#000" stroke-linecap="square" stroke-width=".8"/>
<g clip-path="url(#j)">
<g transform="translate(58.2 1028) rotate(-90) scale(.1 -.1)">
<use xlink:href="#y"/>
<use transform="translate(35.2)" xlink:href="#r"/>
<use transform="translate(96.5)" xlink:href="#s"/>
<use transform="translate(149)" xlink:href="#p"/>
<use transform="translate(188)" xlink:href="#n"/>
<use transform="translate(249)" xlink:href="#q"/>
<use transform="translate(290)" xlink:href="#DejaVuSans-20"/>
<use transform="translate(322)" xlink:href="#ao"/>
</g>
</g>
<g clip-path="url(#j)">
<g transform="translate(58.2 1096) rotate(-90) scale(.1 -.1)">
<use xlink:href="#ap"/>
<use transform="translate(143)" xlink:href="#DejaVuSans-20"/>
<use transform="translate(175)" xlink:href="#s"/>
<use transform="translate(227)" xlink:href="#x"/>
<use transform="translate(255)" xlink:href="#t"/>
<use transform="translate(316)" xlink:href="#af"/>
<use transform="translate(398)" xlink:href="#n"/>
<use transform="translate(460)" xlink:href="#q"/>
</g>
</g>
<g transform="translate(268 739) scale(.12 -.12)">
<defs>
<path id="av" transform="scale(.0156)" d="m628 4666h631v-4341q0-844-320-1225t-1030-381h-240v531h197q418 0 590 235 172 234 172 840v4341z"/>
<path id="aw" transform="scale(.0156)" d="m628 4666h631v-4666h-631v4666z"/>
</defs>
<use xlink:href="#al"/>
<use transform="translate(63.2)" xlink:href="#y"/>
<use transform="translate(98.4)" xlink:href="#y"/>
<use transform="translate(134)" xlink:href="#n"/>
<use transform="translate(195)" xlink:href="#z"/>
<use transform="translate(250)" xlink:href="#p"/>
<use transform="translate(289)" xlink:href="#DejaVuSans-20"/>
<use transform="translate(321)" xlink:href="#t"/>
<use transform="translate(382)" xlink:href="#y"/>
<use transform="translate(417)" xlink:href="#DejaVuSans-20"/>
<use transform="translate(449)" xlink:href="#av"/>
<use transform="translate(479)" xlink:href="#aw"/>
<use transform="translate(508)" xlink:href="#ag"/>
<use transform="translate(569)" xlink:href="#DejaVuSans-20"/>
<use transform="translate(601)" xlink:href="#ac"/>
<use transform="translate(660)" xlink:href="#s"/>
<use transform="translate(712)" xlink:href="#i"/>
<use transform="translate(744)" xlink:href="#DejaVuSans-20"/>
<use transform="translate(776)" xlink:href="#ag"/>
<use transform="translate(834)" xlink:href="#u"/>
<use transform="translate(862)" xlink:href="#n"/>
<use transform="translate(923)" xlink:href="#q"/>
<use transform="translate(964)" xlink:href="#DejaVuSans-20"/>
<use transform="translate(996)" xlink:href="#e"/>
<use transform="translate(1060)" xlink:href="#DejaVuSans-20"/>
<use transform="translate(1092)" xlink:href="#an"/>
<use transform="translate(1131)" xlink:href="#s"/>
<use transform="translate(1183)" xlink:href="#r"/>
<use transform="translate(1244)" xlink:href="#w"/>
<use transform="translate(1341)" xlink:href="#n"/>
<use transform="translate(1403)" xlink:href="#DejaVuSans-20"/>
<use transform="translate(1435)" xlink:href="#z"/>
<use transform="translate(1490)" xlink:href="#t"/>
<use transform="translate(1551)" xlink:href="#w"/>
<use transform="translate(1648)" xlink:href="#w"/>
<use transform="translate(1746)" xlink:href="#u"/>
<use transform="translate(1773)" xlink:href="#p"/>
<use transform="translate(1813)" xlink:href="#am"/>
</g>
<path d="m47.6 782h82.6q2 0 2-2v-28.4q0-2-2-2h-82.6q-2 0-2 2v28.4q0 2 2 2z" fill="#fff" opacity=".8" stroke="#ccc"/>
<path d="m49.6 758h10 10" fill="none" stroke="#1f77b4" stroke-dasharray="1.5,2.475" stroke-opacity=".9" stroke-width="1.5"/>
<use x="59.645553" y="757.887892" fill="#1f77b4" fill-opacity=".9" stroke="#1f77b4" stroke-opacity=".9" xlink:href="#a"/>
<g transform="translate(77.6 761) scale(.1 -.1)">
<use xlink:href="#x"/>
<use transform="translate(27.8)" xlink:href="#u"/>
<use transform="translate(55.6)" xlink:href="#aa"/>
<use transform="translate(119)" xlink:href="#ab"/>
<use transform="translate(182)" xlink:href="#ai"/>
<use transform="translate(242)" xlink:href="#f"/>
<use transform="translate(275)" xlink:href="#ac"/>
<use transform="translate(334)" xlink:href="#ab"/>
<use transform="translate(398)" xlink:href="#x"/>
<use transform="translate(425)" xlink:href="#p"/>
<use transform="translate(465)" xlink:href="#q"/>
</g>
<path d="m49.6 773h10 10" fill="none" stroke="#2ca02c" stroke-linecap="square" stroke-opacity=".9" stroke-width="1.5"/>
<use x="59.645553" y="772.566017" fill="#2ca02c" fill-opacity=".9" stroke="#2ca02c" stroke-opacity=".9" xlink:href="#b"/>
<g transform="translate(77.6 776) scale(.1 -.1)">
<use xlink:href="#w"/>
<use transform="translate(97.4)" xlink:href="#r"/>
<use transform="translate(159)" xlink:href="#z"/>
<use transform="translate(214)" xlink:href="#t"/>
<use transform="translate(275)" xlink:href="#s"/>
</g>
<g transform="translate(229 12.1) scale(.12 -.12)">
<defs>
<path id="au" transform="scale(.0156)" d="m1259 4147v-1753h794q441 0 681 228 241 228 241 650 0 419-241 647-240 228-681 228h-794zm-631 519h1425q785 0 1186-355 402-355 402-1039 0-691-402-1044-401-353-1186-353h-794v-1875h-631v4666z"/>
<path id="at" transform="scale(.0156)" d="m1159 525v-1856h-578v4831h578v-531q182 312 458 463 277 152 661 152 638 0 1036-506 399-506 399-1331t-399-1332q-398-506-1036-506-384 0-661 152-276 152-458 464zm1957 1222q0 634-261 995t-717 361q-457 0-718-361t-261-995 261-995 718-361q456 0 717 361t261 995z"/>
<path id="as" transform="scale(.0156)" d="m2059-325q-243-625-475-815-231-191-618-191h-460v481h338q237 0 368 113 132 112 291 531l103 262-1415 3444h609l1094-2737 1094 2737h609l-1538-3825z"/>
</defs>
<use xlink:href="#au"/>
<use transform="translate(56.7)" xlink:href="#n"/>
<use transform="translate(118)" xlink:href="#q"/>
<use transform="translate(159)" xlink:href="#y"/>
<use transform="translate(195)" xlink:href="#t"/>
<use transform="translate(256)" xlink:href="#q"/>
<use transform="translate(295)" xlink:href="#w"/>
<use transform="translate(392)" xlink:href="#r"/>
<use transform="translate(454)" xlink:href="#aa"/>
<use transform="translate(517)" xlink:href="#z"/>
<use transform="translate(572)" xlink:href="#n"/>
<use transform="translate(634)" xlink:href="#DejaVuSans-20"/>
<use transform="translate(665)" xlink:href="#u"/>
<use transform="translate(693)" xlink:href="#w"/>
<use transform="translate(791)" xlink:href="#at"/>
<use transform="translate(854)" xlink:href="#q"/>
<use transform="translate(893)" xlink:href="#t"/>
<use transform="translate(954)" xlink:href="#ac"/>
<use transform="translate(1013)" xlink:href="#n"/>
<use transform="translate(1075)" xlink:href="#w"/>
<use transform="translate(1172)" xlink:href="#n"/>
<use transform="translate(1234)" xlink:href="#aa"/>
<use transform="translate(1297)" xlink:href="#p"/>
<use transform="translate(1336)" xlink:href="#DejaVuSans-20"/>
<use transform="translate(1368)" xlink:href="#ar"/>
<use transform="translate(1432)" xlink:href="#as"/>
<use transform="translate(1491)" xlink:href="#DejaVuSans-20"/>
<use transform="translate(1523)" xlink:href="#z"/>
<use transform="translate(1578)" xlink:href="#t"/>
<use transform="translate(1639)" xlink:href="#aa"/>
<use transform="translate(1702)" xlink:href="#y"/>
<use transform="translate(1737)" xlink:href="#u"/>
<use transform="translate(1765)" xlink:href="#aj"/>
<use transform="translate(1829)" xlink:href="#ab"/>
<use transform="translate(1892)" xlink:href="#q"/>
<use transform="translate(1933)" xlink:href="#r"/>
<use transform="translate(1994)" xlink:href="#p"/>
<use transform="translate(2034)" xlink:href="#u"/>
<use transform="translate(2061)" xlink:href="#t"/>
<use transform="translate(2123)" xlink:href="#aa"/>
</g>
<defs>
<clipPath id="k">
<rect x="40.6" y="35.7" width="676" height="316"/>
</clipPath>
<clipPath id="o">
<rect x="40.6" y="390" width="676" height="316"/>
</clipPath>
<clipPath id="j">
<rect x="40.6" y="745" width="676" height="316"/>
</clipPath>
</defs>
</svg>
