<?xml version="1.0" encoding="UTF-8"?>
<!DOCTYPE svg  PUBLIC '-//W3C//DTD SVG 1.1//EN'  'http://www.w3.org/Graphics/SVG/1.1/DTD/svg11.dtd'>
<svg width="720pt" height="720pt" version="1.1" viewBox="0 0 720 720" xmlns="http://www.w3.org/2000/svg" xmlns:xlink="http://www.w3.org/1999/xlink">
<defs>
<style type="text/css">*{stroke-linejoin: round; stroke-linecap: butt}</style>
</defs>
<path d="m0 720h720v-720h-720z" fill="#fff"/>
<path d="m40.6 349h668v-313h-668z" fill="#fff"/>
<path d="m106 349v-313" clip-path="url(#e)" fill="none" stroke="#b0b0b0" stroke-linecap="square" stroke-width=".8"/>
<defs>
<path id="i" d="m0 0v3.5" stroke="#000" stroke-width=".8"/>
</defs>
<use x="105.718516" y="348.52899" stroke="#000000" stroke-width=".8" xlink:href="#i"/>
<g transform="translate(84.8 363) scale(.1 -.1)">
<defs>
<path id="h" transform="scale(.0156)" d="m1228 531h2203v-531h-2962v531q359 372 979 998 621 627 780 809 303 340 423 576 121 236 121 464 0 372-261 606-261 235-680 235-297 0-627-103-329-103-704-313v638q381 153 712 231 332 78 607 78 725 0 1156-363 431-362 431-968 0-288-108-546-107-257-392-607-78-91-497-524-418-433-1181-1211z"/>
<path id="b" transform="scale(.0156)" d="m2034 4250q-487 0-733-480-245-479-245-1442 0-959 245-1439 246-480 733-480 491 0 736 480 246 480 246 1439 0 963-246 1442-245 480-736 480zm0 500q785 0 1199-621 414-620 414-1801 0-1178-414-1799-414-620-1199-620-784 0-1198 620-414 621-414 1799 0 1181 414 1801 414 621 1198 621z"/>
<path id="u" transform="scale(.0156)" d="m2419 4116-1594-2491h1594v2491zm-166 550h794v-3041h666v-525h-666v-1100h-628v1100h-2106v609l1940 2957z"/>
<path id="w" transform="scale(.0156)" d="m313 2009h1684v-512h-1684v512z"/>
<path id="aa" transform="scale(.0156)" d="m2034 2216q-450 0-708-241-257-241-257-662 0-422 257-663 258-241 708-241t709 242q260 243 260 662 0 421-258 662-257 241-711 241zm-631 268q-406 100-633 378-226 279-226 679 0 559 398 884 399 325 1092 325 697 0 1094-325t397-884q0-400-227-679-226-278-629-378 456-106 710-416 255-309 255-755 0-679-414-1042-414-362-1186-362-771 0-1186 362-414 363-414 1042 0 446 256 755 257 310 713 416zm-231 997q0-362 226-565 227-203 636-203 407 0 636 203 230 203 230 565 0 363-230 566-229 203-636 203-409 0-636-203-226-203-226-566z"/>
</defs>
<use xlink:href="#h"/>
<use transform="translate(63.6)" xlink:href="#b"/>
<use transform="translate(127)" xlink:href="#h"/>
<use transform="translate(191)" xlink:href="#u"/>
<use transform="translate(254)" xlink:href="#w"/>
<use transform="translate(291)" xlink:href="#b"/>
<use transform="translate(354)" xlink:href="#aa"/>
</g>
<path d="m231 349v-313" clip-path="url(#e)" fill="none" stroke="#b0b0b0" stroke-linecap="square" stroke-width=".8"/>
<use x="230.627026" y="348.52899" stroke="#000000" stroke-width=".8" xlink:href="#i"/>
<g transform="translate(210 363) scale(.1 -.1)">
<defs>
<path id="ah" transform="scale(.0156)" d="m703 97v575q238-113 481-172 244-59 479-59 625 0 954 420 330 420 377 1277-181-269-460-413-278-144-615-144-700 0-1108 423-408 424-408 1159 0 718 425 1152 425 435 1131 435 810 0 1236-621 427-620 427-1801 0-1103-524-1761-523-658-1407-658-238 0-482 47-243 47-506 141zm1256 1978q425 0 673 290 249 291 249 798 0 503-249 795-248 292-673 292t-673-292-248-795q0-507 248-798 248-290 673-290z"/>
</defs>
<use xlink:href="#h"/>
<use transform="translate(63.6)" xlink:href="#b"/>
<use transform="translate(127)" xlink:href="#h"/>
<use transform="translate(191)" xlink:href="#u"/>
<use transform="translate(254)" xlink:href="#w"/>
<use transform="translate(291)" xlink:href="#b"/>
<use transform="translate(354)" xlink:href="#ah"/>
</g>
<path d="m352 349v-313" clip-path="url(#e)" fill="none" stroke="#b0b0b0" stroke-linecap="square" stroke-width=".8"/>
<use x="351.506229" y="348.52899" stroke="#000000" stroke-width=".8" xlink:href="#i"/>
<g transform="translate(331 363) scale(.1 -.1)">
<defs>
<path id="q" transform="scale(.0156)" d="m794 531h1031v3560l-1122-225v575l1116 225h631v-4135h1031v-531h-2687v531z"/>
</defs>
<use xlink:href="#h"/>
<use transform="translate(63.6)" xlink:href="#b"/>
<use transform="translate(127)" xlink:href="#h"/>
<use transform="translate(191)" xlink:href="#u"/>
<use transform="translate(254)" xlink:href="#w"/>
<use transform="translate(291)" xlink:href="#q"/>
<use transform="translate(354)" xlink:href="#b"/>
</g>
<path d="m476 349v-313" clip-path="url(#e)" fill="none" stroke="#b0b0b0" stroke-linecap="square" stroke-width=".8"/>
<use x="476.414739" y="348.52899" stroke="#000000" stroke-width=".8" xlink:href="#i"/>
<g transform="translate(456 363) scale(.1 -.1)">
<use xlink:href="#h"/>
<use transform="translate(63.6)" xlink:href="#b"/>
<use transform="translate(127)" xlink:href="#h"/>
<use transform="translate(191)" xlink:href="#u"/>
<use transform="translate(254)" xlink:href="#w"/>
<use transform="translate(291)" xlink:href="#q"/>
<use transform="translate(354)" xlink:href="#q"/>
</g>
<path d="m597 349v-313" clip-path="url(#e)" fill="none" stroke="#b0b0b0" stroke-linecap="square" stroke-width=".8"/>
<use x="597.293942" y="348.52899" stroke="#000000" stroke-width=".8" xlink:href="#i"/>
<g transform="translate(576 363) scale(.1 -.1)">
<use xlink:href="#h"/>
<use transform="translate(63.6)" xlink:href="#b"/>
<use transform="translate(127)" xlink:href="#h"/>
<use transform="translate(191)" xlink:href="#u"/>
<use transform="translate(254)" xlink:href="#w"/>
<use transform="translate(291)" xlink:href="#q"/>
<use transform="translate(354)" xlink:href="#h"/>
</g>
<path d="m40.6 308h668" clip-path="url(#e)" fill="none" stroke="#b0b0b0" stroke-linecap="square" stroke-width=".8"/>
<defs>
<path id="j" d="m0 0h-3.5" stroke="#000" stroke-width=".8"/>
</defs>
<use x="40.645553" y="308.46003" stroke="#000000" stroke-width=".8" xlink:href="#j"/>
<g transform="translate(3 312) scale(.1 -.1)">
<defs>
<path id="c" transform="scale(.0156)" d="m684 794h660v-794h-660v794z"/>
<path id="ac" transform="scale(.0156)" d="m2113 2584q-425 0-674-291-248-290-248-796 0-503 248-796 249-292 674-292t673 292q248 293 248 796 0 506-248 796-248 291-673 291zm1253 1979v-575q-238 112-480 171-242 60-480 60-625 0-955-422-329-422-376-1275 184 272 462 417 279 145 613 145 703 0 1111-427 408-426 408-1160 0-719-425-1154-425-434-1131-434-810 0-1238 620-428 621-428 1799 0 1106 525 1764t1409 658q238 0 480-47t505-140z"/>
<path id="k" transform="scale(.0156)" d="m4488 3438-1429-1435 1429-1428-372-378-1435 1434-1434-1434-369 378 1425 1428-1425 1435 369 378 1434-1435 1435 1435 372-378z"/>
</defs>
<use xlink:href="#b"/>
<use transform="translate(63.6)" xlink:href="#c"/>
<use transform="translate(95.4)" xlink:href="#ac"/>
<use transform="translate(159)" xlink:href="#b"/>
<use transform="translate(223)" xlink:href="#k"/>
</g>
<path d="m40.6 244h668" clip-path="url(#e)" fill="none" stroke="#b0b0b0" stroke-linecap="square" stroke-width=".8"/>
<use x="40.645553" y="243.832676" stroke="#000000" stroke-width=".8" xlink:href="#j"/>
<g transform="translate(3 248) scale(.1 -.1)">
<defs>
<path id="au" transform="scale(.0156)" d="m525 4666h3e3v-269l-1694-4397h-659l1594 4134h-2241v532z"/>
</defs>
<use xlink:href="#b"/>
<use transform="translate(63.6)" xlink:href="#c"/>
<use transform="translate(95.4)" xlink:href="#au"/>
<use transform="translate(159)" xlink:href="#b"/>
<use transform="translate(223)" xlink:href="#k"/>
</g>
<path d="m40.6 179h668" clip-path="url(#e)" fill="none" stroke="#b0b0b0" stroke-linecap="square" stroke-width=".8"/>
<use x="40.645553" y="179.205322" stroke="#000000" stroke-width=".8" xlink:href="#j"/>
<g transform="translate(3 183) scale(.1 -.1)">
<use xlink:href="#b"/>
<use transform="translate(63.6)" xlink:href="#c"/>
<use transform="translate(95.4)" xlink:href="#aa"/>
<use transform="translate(159)" xlink:href="#b"/>
<use transform="translate(223)" xlink:href="#k"/>
</g>
<path d="m40.6 115h668" clip-path="url(#e)" fill="none" stroke="#b0b0b0" stroke-linecap="square" stroke-width=".8"/>
<use x="40.645553" y="114.577967" stroke="#000000" stroke-width=".8" xlink:href="#j"/>
<g transform="translate(3 118) scale(.1 -.1)">
<use xlink:href="#b"/>
<use transform="translate(63.6)" xlink:href="#c"/>
<use transform="translate(95.4)" xlink:href="#ah"/>
<use transform="translate(159)" xlink:href="#b"/>
<use transform="translate(223)" xlink:href="#k"/>
</g>
<path d="m40.6 50h668" clip-path="url(#e)" fill="none" stroke="#b0b0b0" stroke-linecap="square" stroke-width=".8"/>
<use x="40.645553" y="49.950613" stroke="#000000" stroke-width=".8" xlink:href="#j"/>
<g transform="translate(3 53.7) scale(.1 -.1)">
<use xlink:href="#q"/>
<use transform="translate(63.6)" xlink:href="#c"/>
<use transform="translate(95.4)" xlink:href="#b"/>
<use transform="translate(159)" xlink:href="#b"/>
<use transform="translate(223)" xlink:href="#k"/>
</g>
<path d="m71 224 19.2 19.4 28.8-19.4h15.9l0.0258-12.9 0.384 38.8 11.8-19.4 28.1 6.46h28.4 28.3l22.8-25.9 1.24 25.9 3.61 6.46 28.2 6.46 23.4-19.4 22.8-181h0.0423l10.9 181 7.32-181 85.4 284 3.71-64.6 52.4-12.9 4.55-12.9 3.81 25.9 4.11 6.46 2.98 12.9 5.07-6.46h3.81 4.44 3.56l4.43 19.4 4.13-12.9 3.82 6.46 4.19-32.3 3.96 38.8 4.11-19.4 3.55-6.46 4.3-6.46 4.31-71.1 3.94-6.46h3.63l4.2 6.46 3.84 11.9 4.06 11.9 4.33-5.59 2.94-8.94 4.7-1.83 3.63 6.33 4.17-2.93 4.7 19.6 4.17-18.3 4.04-0.154 3.57-18.2 4.03 17.8 3.41-2.68 4.16 2.79 3.99-0.958 4.98-4.08 3.89-6.21 3.78 8.09 3.44 8.96 3.55-7.45 5.35-5.21 3.64 1.23 4.41-2.3 2.73 9.67 5.38-22.5 3.36-0.751" clip-path="url(#e)" fill="none" stroke="#1f77b4" stroke-linecap="square" stroke-opacity=".9" stroke-width="1.5"/>
<defs>
<path id="a" d="m-2.5 2.5h5v-5h-5z" stroke="#1f77b4" stroke-opacity=".9"/>
</defs>
<g clip-path="url(#e)" fill="#1f77b4" fill-opacity=".9" stroke="#1f77b4" stroke-opacity=".9">
<use x="71.027491" y="224.44447" xlink:href="#a"/>
<use x="90.199063" y="243.832676" xlink:href="#a"/>
<use x="118.969852" y="224.44447" xlink:href="#a"/>
<use x="134.821724" y="224.44447" xlink:href="#a"/>
<use x="134.847513" y="211.518999" xlink:href="#a"/>
<use x="135.23109" y="250.295411" xlink:href="#a"/>
<use x="147.078464" y="230.907205" xlink:href="#a"/>
<use x="175.218742" y="237.369941" xlink:href="#a"/>
<use x="203.58175" y="237.369941" xlink:href="#a"/>
<use x="231.850042" y="237.369941" xlink:href="#a"/>
<use x="254.612921" y="211.518999" xlink:href="#a"/>
<use x="255.853145" y="237.369941" xlink:href="#a"/>
<use x="259.467163" y="243.832676" xlink:href="#a"/>
<use x="287.624695" y="250.295411" xlink:href="#a"/>
<use x="310.983202" y="230.907205" xlink:href="#a"/>
<use x="333.741697" y="49.950613" xlink:href="#a"/>
<use x="333.783949" y="49.950613" xlink:href="#a"/>
<use x="344.666808" y="230.907205" xlink:href="#a"/>
<use x="351.984057" y="49.950613" xlink:href="#a"/>
<use x="437.401863" y="334.310972" xlink:href="#a"/>
<use x="441.108965" y="269.683618" xlink:href="#a"/>
<use x="493.506135" y="256.758147" xlink:href="#a"/>
<use x="498.055195" y="243.832676" xlink:href="#a"/>
<use x="501.860278" y="269.683618" xlink:href="#a"/>
<use x="505.971896" y="276.146353" xlink:href="#a"/>
<use x="508.950972" y="289.071824" xlink:href="#a"/>
<use x="514.025893" y="282.609089" xlink:href="#a"/>
<use x="517.840863" y="282.609089" xlink:href="#a"/>
<use x="522.280749" y="282.609089" xlink:href="#a"/>
<use x="525.83997" y="282.609089" xlink:href="#a"/>
<use x="530.265119" y="301.997295" xlink:href="#a"/>
<use x="534.399915" y="289.071824" xlink:href="#a"/>
<use x="538.22286" y="295.534559" xlink:href="#a"/>
<use x="542.415391" y="263.220882" xlink:href="#a"/>
<use x="546.378288" y="301.997295" xlink:href="#a"/>
<use x="550.48459" y="282.609089" xlink:href="#a"/>
<use x="554.033458" y="276.146353" xlink:href="#a"/>
<use x="558.329427" y="269.683618" xlink:href="#a"/>
<use x="562.642417" y="198.593528" xlink:href="#a"/>
<use x="566.578453" y="192.130792" xlink:href="#a"/>
<use x="570.210892" y="192.130792" xlink:href="#a"/>
<use x="574.41317" y="198.593528" xlink:href="#a"/>
<use x="578.249918" y="210.489658" xlink:href="#a"/>
<use x="582.313036" y="222.410637" xlink:href="#a"/>
<use x="586.641183" y="216.821438" xlink:href="#a"/>
<use x="589.579919" y="207.88022" xlink:href="#a"/>
<use x="594.282176" y="206.048815" xlink:href="#a"/>
<use x="597.908552" y="212.381549" xlink:href="#a"/>
<use x="602.077205" y="209.45038" xlink:href="#a"/>
<use x="606.780721" y="229.096896" xlink:href="#a"/>
<use x="610.948862" y="210.845937" xlink:href="#a"/>
<use x="614.992393" y="210.69154" xlink:href="#a"/>
<use x="618.558935" y="192.443557" xlink:href="#a"/>
<use x="622.588335" y="210.273393" xlink:href="#a"/>
<use x="625.999116" y="207.597525" xlink:href="#a"/>
<use x="630.16236" y="210.39011" xlink:href="#a"/>
<use x="634.149135" y="209.431656" xlink:href="#a"/>
<use x="639.125748" y="205.351942" xlink:href="#a"/>
<use x="643.010812" y="199.14608" xlink:href="#a"/>
<use x="646.790152" y="207.234776" xlink:href="#a"/>
<use x="650.226908" y="216.197176" xlink:href="#a"/>
<use x="653.776476" y="208.751282" xlink:href="#a"/>
<use x="659.124261" y="203.541137" xlink:href="#a"/>
<use x="662.769058" y="204.770349" xlink:href="#a"/>
<use x="667.183248" y="202.465886" xlink:href="#a"/>
<use x="669.918046" y="212.133799" xlink:href="#a"/>
<use x="675.302161" y="189.598508" xlink:href="#a"/>
<use x="678.666259" y="188.847649" xlink:href="#a"/>
</g>
<g stroke="#1f77b4" stroke-opacity=".9">
<path d="m256 257 55.1-207 33.7 220 25.8 6.46 30.4 38.8 24.4 12.9h3.98 3.92l4.28-6.46h3.71l4.49 6.46 4.09-12.9 3.09 12.9 4.6-6.46h4.07 4.02 4.42l4.03-6.46h3.62l4.27 6.46 3.02-6.46 4.73 6.46 3.93-12.9 4.55 6.46 3.81-6.46 2.06 6.46 2.06-6.46 2.98 6.46h1.81 3.26l3.81-6.46 4.44 6.46h3.56l4.43-6.46 4.13-6.46 3.82 12.9 4.19 6.46 0.304-6.46 3.66-12.9 4.11 6.46h3.55l4.3-6.46 3.43-52.4 0.878-12.2 3.28-25.9 0.66-6.46 3.63-6.46 4.2 6.46 3.84 24.1 4.06-0.427 2.93 1.99 1.39 2.93 2.94-3.92 3.91-3.13 0.792 1.77 3.63-4.12 4.17 4.55 4.7 11.5 4.17-17.2 3.05 4.91 0.991-1.21 3.57-2.45 1.16-5.76 2.87 1.93 3.41 1.55 2.01 3.71 2.15 0.336 3.99-4.64 4.98 7.33 2.23-0.357 0.698-0.185 0.953 0.178 2.03-0.559 1.75 2.28 3.11-4.14 0.323-2.46 3.55-2.27 5.35 3.88 3.64-1.62 4.41 0.32 1.17-2.96 1.57 1.09 5.38-12.8 3.36 3.72" clip-path="url(#e)" fill="none" stroke-dasharray="1.5,2.475" stroke-width="1.5"/>
<g clip-path="url(#e)" fill="#1f77b4" fill-opacity=".9">
<use x="255.853145" y="256.758147" xlink:href="#a"/>
<use x="310.983202" y="49.950613" xlink:href="#a"/>
<use x="344.666808" y="269.683618" xlink:href="#a"/>
<use x="370.468408" y="276.146353" xlink:href="#a"/>
<use x="400.858102" y="314.922766" xlink:href="#a"/>
<use x="425.223516" y="327.848237" xlink:href="#a"/>
<use x="429.201757" y="327.848237" xlink:href="#a"/>
<use x="433.122123" y="327.848237" xlink:href="#a"/>
<use x="437.401863" y="321.385501" xlink:href="#a"/>
<use x="441.108965" y="321.385501" xlink:href="#a"/>
<use x="445.601502" y="327.848237" xlink:href="#a"/>
<use x="449.696145" y="314.922766" xlink:href="#a"/>
<use x="452.784954" y="327.848237" xlink:href="#a"/>
<use x="457.388903" y="321.385501" xlink:href="#a"/>
<use x="461.460975" y="321.385501" xlink:href="#a"/>
<use x="465.483286" y="321.385501" xlink:href="#a"/>
<use x="469.904005" y="321.385501" xlink:href="#a"/>
<use x="473.931726" y="314.922766" xlink:href="#a"/>
<use x="477.546769" y="314.922766" xlink:href="#a"/>
<use x="481.817835" y="321.385501" xlink:href="#a"/>
<use x="484.840468" y="314.922766" xlink:href="#a"/>
<use x="489.57383" y="321.385501" xlink:href="#a"/>
<use x="493.506135" y="308.46003" xlink:href="#a"/>
<use x="498.055195" y="314.922766" xlink:href="#a"/>
<use x="501.860278" y="308.46003" xlink:href="#a"/>
<use x="503.916017" y="314.922766" xlink:href="#a"/>
<use x="505.971896" y="308.46003" xlink:href="#a"/>
<use x="508.950972" y="314.922766" xlink:href="#a"/>
<use x="510.76332" y="314.922766" xlink:href="#a"/>
<use x="514.025893" y="314.922766" xlink:href="#a"/>
<use x="517.840863" y="308.46003" xlink:href="#a"/>
<use x="522.280749" y="314.922766" xlink:href="#a"/>
<use x="525.83997" y="314.922766" xlink:href="#a"/>
<use x="530.265119" y="308.46003" xlink:href="#a"/>
<use x="534.399915" y="301.997295" xlink:href="#a"/>
<use x="538.22286" y="314.922766" xlink:href="#a"/>
<use x="542.415391" y="321.385501" xlink:href="#a"/>
<use x="542.719267" y="314.922766" xlink:href="#a"/>
<use x="546.378288" y="301.997295" xlink:href="#a"/>
<use x="550.48459" y="308.46003" xlink:href="#a"/>
<use x="554.033458" y="308.46003" xlink:href="#a"/>
<use x="558.329427" y="301.997295" xlink:href="#a"/>
<use x="561.764271" y="249.589174" xlink:href="#a"/>
<use x="562.642417" y="237.369941" xlink:href="#a"/>
<use x="565.918747" y="211.518999" xlink:href="#a"/>
<use x="566.578453" y="205.056263" xlink:href="#a"/>
<use x="570.210892" y="198.593528" xlink:href="#a"/>
<use x="574.41317" y="205.056263" xlink:href="#a"/>
<use x="578.249918" y="229.128785" xlink:href="#a"/>
<use x="582.313036" y="228.701931" xlink:href="#a"/>
<use x="585.247481" y="230.692741" xlink:href="#a"/>
<use x="586.641183" y="233.626095" xlink:href="#a"/>
<use x="589.579919" y="229.710162" xlink:href="#a"/>
<use x="593.490352" y="226.575269" xlink:href="#a"/>
<use x="594.282176" y="228.34568" xlink:href="#a"/>
<use x="597.908552" y="224.229551" xlink:href="#a"/>
<use x="602.077205" y="228.776504" xlink:href="#a"/>
<use x="606.780721" y="240.290966" xlink:href="#a"/>
<use x="610.948862" y="223.112789" xlink:href="#a"/>
<use x="614.001155" y="228.022175" xlink:href="#a"/>
<use x="614.992393" y="226.809404" xlink:href="#a"/>
<use x="618.558935" y="224.3589" xlink:href="#a"/>
<use x="619.715496" y="218.600494" xlink:href="#a"/>
<use x="622.588335" y="220.534639" xlink:href="#a"/>
<use x="625.999116" y="222.083492" xlink:href="#a"/>
<use x="628.010038" y="225.791134" xlink:href="#a"/>
<use x="630.16236" y="226.127063" xlink:href="#a"/>
<use x="634.149135" y="221.484688" xlink:href="#a"/>
<use x="639.125748" y="228.811002" xlink:href="#a"/>
<use x="641.359775" y="228.453969" xlink:href="#a"/>
<use x="642.057395" y="228.26905" xlink:href="#a"/>
<use x="643.010812" y="228.447176" xlink:href="#a"/>
<use x="645.036564" y="227.888254" xlink:href="#a"/>
<use x="646.790152" y="230.168696" xlink:href="#a"/>
<use x="649.903724" y="226.031104" xlink:href="#a"/>
<use x="650.226908" y="223.573367" xlink:href="#a"/>
<use x="653.776476" y="221.307936" xlink:href="#a"/>
<use x="659.124261" y="225.190002" xlink:href="#a"/>
<use x="662.769058" y="223.56827" xlink:href="#a"/>
<use x="667.183248" y="223.888156" xlink:href="#a"/>
<use x="668.350394" y="220.928107" xlink:href="#a"/>
<use x="669.918046" y="222.017854" xlink:href="#a"/>
<use x="675.302161" y="209.175494" xlink:href="#a"/>
<use x="678.666259" y="212.895264" xlink:href="#a"/>
</g>
</g>
<path d="m40.6 349v-313" fill="none" stroke="#000" stroke-linecap="square" stroke-width=".8"/>
<path d="m709 349v-313" fill="none" stroke="#000" stroke-linecap="square" stroke-width=".8"/>
<path d="m40.6 349h668" fill="none" stroke="#000" stroke-linecap="square" stroke-width=".8"/>
<path d="m40.6 35.7h668" fill="none" stroke="#000" stroke-linecap="square" stroke-width=".8"/>
<g clip-path="url(#e)">
<g transform="translate(58.2 42) rotate(-90) scale(.1 -.1)">
<defs>
<path id="l" transform="scale(.0156)" d="m2375 4863v-479h-550q-309 0-430-125-120-125-120-450v-309h947v-447h-947v-3053h-578v3053h-550v447h550v244q0 584 272 851 272 268 862 268h544z"/>
<path id="t" transform="scale(.0156)" d="m2194 1759q-697 0-966-159t-269-544q0-306 202-486 202-179 548-179 479 0 768 339t289 901v128h-572zm1147 238v-2e3h-575v531q-197-318-491-470t-719-152q-537 0-855 302-317 302-317 808 0 590 395 890 396 300 1180 300h807v57q0 397-261 614t-733 217q-300 0-585-72-284-72-546-216v532q315 122 612 182 297 61 578 61 760 0 1135-394 375-393 375-1193z"/>
<path id="r" transform="scale(.0156)" d="m2834 3397v-544q-243 125-506 187-262 63-544 63-428 0-642-131t-214-394q0-200 153-314t616-217l197-44q612-131 870-370t258-667q0-488-386-773-386-284-1061-284-281 0-586 55t-642 164v594q319-166 628-249 309-82 613-82 406 0 624 139 219 139 219 392 0 234-158 359-157 125-692 241l-200 47q-534 112-772 345-237 233-237 639 0 494 350 762 350 269 994 269 318 0 599-47 282-46 519-140z"/>
<path id="m" transform="scale(.0156)" d="m1172 4494v-994h1184v-447h-1184v-1900q0-428 117-550t477-122h590v-481h-590q-666 0-919 248-253 249-253 905v1900h-422v447h422v994h578z"/>
<path id="d" transform="scale(.0156)" d="m3597 1894v-281h-2644q38-594 358-905t892-311q331 0 642 81t618 244v-544q-310-131-635-200t-659-69q-838 0-1327 487-489 488-489 1320 0 859 464 1363 464 505 1252 505 706 0 1117-455 411-454 411-1235zm-575 169q-6 471-264 752-258 282-683 282-481 0-770-272t-333-766l2050 4z"/>
<path id="g" transform="scale(.0156)" d="m2631 2963q-97 56-211 82-114 27-251 27-488 0-749-317t-261-911v-1844h-578v3500h578v-544q182 319 472 473 291 155 707 155 59 0 131-8 72-7 159-23l3-590z"/>
<path id="ak" transform="scale(.0156)" d="m8863 2147v-281l-1229-1228-375 375 729 728h-7622v531h7622l-729 728 375 375 1229-1228z"/>
</defs>
<use xlink:href="#l"/>
<use transform="translate(35.2)" xlink:href="#t"/>
<use transform="translate(96.5)" xlink:href="#r"/>
<use transform="translate(149)" xlink:href="#m"/>
<use transform="translate(188)" xlink:href="#d"/>
<use transform="translate(249)" xlink:href="#g"/>
<use transform="translate(290)" xlink:href="#DejaVuSans-20"/>
<use transform="translate(322)" xlink:href="#ak"/>
</g>
</g>
<g clip-path="url(#e)">
<g transform="translate(58.2 110) rotate(-90) scale(.1 -.1)">
<defs>
<path id="al" transform="scale(.0156)" d="m313 1866v281l1228 1228 375-375-728-728h7621v-531h-7621l728-728-375-375-1228 1228z"/>
<path id="x" transform="scale(.0156)" d="m603 4863h575v-4863h-575v4863z"/>
<path id="n" transform="scale(.0156)" d="m1959 3097q-462 0-731-361t-269-989 267-989q268-361 733-361 460 0 728 362 269 363 269 988 0 622-269 986-268 364-728 364zm0 487q750 0 1178-488 429-487 429-1349 0-859-429-1349-428-489-1178-489-753 0-1180 489-426 490-426 1349 0 862 426 1349 427 488 1180 488z"/>
<path id="ae" transform="scale(.0156)" d="m269 3500h575l719-2731 715 2731h678l719-2731 716 2731h575l-916-3500h-678l-753 2869-756-2869h-679l-915 3500z"/>
</defs>
<use xlink:href="#al"/>
<use transform="translate(143)" xlink:href="#DejaVuSans-20"/>
<use transform="translate(175)" xlink:href="#r"/>
<use transform="translate(227)" xlink:href="#x"/>
<use transform="translate(255)" xlink:href="#n"/>
<use transform="translate(316)" xlink:href="#ae"/>
<use transform="translate(398)" xlink:href="#d"/>
<use transform="translate(460)" xlink:href="#g"/>
</g>
</g>
<g transform="translate(228 29.7) scale(.12 -.12)">
<defs>
<path id="ag" transform="scale(.0156)" d="m628 4666h2950v-532h-2319v-1381h2222v-531h-2222v-1691h2375v-531h-3006v4666z"/>
<path id="v" transform="scale(.0156)" d="m3122 3366v-538q-244 135-489 202t-495 67q-560 0-870-355-309-354-309-995t309-996q310-354 870-354 250 0 495 67t489 202v-532q-241-112-499-168-257-57-548-57-791 0-1257 497-465 497-465 1341 0 856 470 1346 471 491 1290 491 265 0 518-55 253-54 491-163z"/>
<path id="ao" transform="scale(.0156)" d="m3513 2113v-2113h-575v2094q0 497-194 743-194 247-581 247-466 0-735-297-269-296-269-809v-1978h-578v4863h578v-1907q207 316 486 472 280 156 646 156 603 0 912-373 310-373 310-1098z"/>
<path id="ap" transform="scale(.0156)" d="m2906 2969v1894h575v-4863h-575v525q-181-312-458-464-276-152-664-152-634 0-1033 506-398 507-398 1332t398 1331q399 506 1033 506 388 0 664-152 277-151 458-463zm-1959-1222q0-634 261-995t717-361 718 361q263 361 263 995t-263 995q-262 361-718 361t-717-361-261-995z"/>
<path id="o" transform="scale(.0156)" d="m603 3500h575v-3500h-575v3500zm0 1363h575v-729h-575v729z"/>
<path id="s" transform="scale(.0156)" d="m3513 2113v-2113h-575v2094q0 497-194 743-194 247-581 247-466 0-735-297-269-296-269-809v-1978h-578v3500h578v-544q207 316 486 472 280 156 646 156 603 0 912-373 310-373 310-1098z"/>
<path id="af" transform="scale(.0156)" d="m2906 1791q0 625-258 968-257 344-723 344-462 0-720-344-258-343-258-968 0-622 258-966t720-344q466 0 723 344 258 344 258 966zm575-1357q0-893-397-1329-396-436-1215-436-303 0-572 45t-522 139v559q253-137 500-202 247-66 503-66 566 0 847 295t281 892v285q-178-310-456-463t-666-153q-643 0-1037 490-394 491-394 1301 0 812 394 1302 394 491 1037 491 388 0 666-153t456-462v531h575v-3066z"/>
<path id="y" transform="scale(.0156)" d="m191 3500h609l1094-2937 1094 2937h609l-1313-3500h-781l-1312 3500z"/>
<path id="ab" transform="scale(.0156)" d="m-19 4666h3947v-532h-1656v-4134h-634v4134h-1657v532z"/>
<path id="aj" transform="scale(.0156)" d="m1984 4856q-418-718-622-1422-203-703-203-1425 0-721 205-1429t620-1424h-500q-468 735-701 1444t-233 1409q0 697 231 1403 232 707 703 1444h500z"/>
<path id="p" transform="scale(.0156)" d="m3328 2828q216 388 516 572t706 184q547 0 844-383 297-382 297-1088v-2113h-578v2094q0 503-179 746-178 244-543 244-447 0-707-297-259-296-259-809v-1978h-578v2094q0 506-178 748t-550 242q-441 0-701-298-259-298-259-808v-1978h-578v3500h578v-544q197 322 472 475t653 153q382 0 649-194 267-193 395-562z"/>
<path id="ai" transform="scale(.0156)" d="m513 4856h500q468-737 701-1444 233-706 233-1403 0-700-233-1409t-701-1444h-500q415 716 620 1424t205 1429q0 722-205 1425-205 704-620 1422z"/>
</defs>
<use xlink:href="#ag"/>
<use transform="translate(63.2)" xlink:href="#l"/>
<use transform="translate(98.4)" xlink:href="#l"/>
<use transform="translate(134)" xlink:href="#d"/>
<use transform="translate(195)" xlink:href="#v"/>
<use transform="translate(250)" xlink:href="#m"/>
<use transform="translate(289)" xlink:href="#DejaVuSans-20"/>
<use transform="translate(321)" xlink:href="#n"/>
<use transform="translate(382)" xlink:href="#l"/>
<use transform="translate(417)" xlink:href="#DejaVuSans-20"/>
<use transform="translate(449)" xlink:href="#l"/>
<use transform="translate(484)" xlink:href="#g"/>
<use transform="translate(523)" xlink:href="#d"/>
<use transform="translate(585)" xlink:href="#d"/>
<use transform="translate(646)" xlink:href="#DejaVuSans-20"/>
<use transform="translate(678)" xlink:href="#m"/>
<use transform="translate(717)" xlink:href="#ao"/>
<use transform="translate(781)" xlink:href="#g"/>
<use transform="translate(820)" xlink:href="#d"/>
<use transform="translate(881)" xlink:href="#t"/>
<use transform="translate(942)" xlink:href="#ap"/>
<use transform="translate(1006)" xlink:href="#o"/>
<use transform="translate(1034)" xlink:href="#s"/>
<use transform="translate(1097)" xlink:href="#af"/>
<use transform="translate(1161)" xlink:href="#DejaVuSans-20"/>
<use transform="translate(1192)" xlink:href="#y"/>
<use transform="translate(1252)" xlink:href="#r"/>
<use transform="translate(1304)" xlink:href="#c"/>
<use transform="translate(1335)" xlink:href="#DejaVuSans-20"/>
<use transform="translate(1367)" xlink:href="#ab"/>
<use transform="translate(1425)" xlink:href="#o"/>
<use transform="translate(1453)" xlink:href="#d"/>
<use transform="translate(1514)" xlink:href="#g"/>
<use transform="translate(1556)" xlink:href="#DejaVuSans-20"/>
<use transform="translate(1587)" xlink:href="#q"/>
<use transform="translate(1651)" xlink:href="#DejaVuSans-20"/>
<use transform="translate(1683)" xlink:href="#aj"/>
<use transform="translate(1722)" xlink:href="#r"/>
<use transform="translate(1774)" xlink:href="#t"/>
<use transform="translate(1835)" xlink:href="#p"/>
<use transform="translate(1933)" xlink:href="#d"/>
<use transform="translate(1994)" xlink:href="#DejaVuSans-20"/>
<use transform="translate(2026)" xlink:href="#v"/>
<use transform="translate(2081)" xlink:href="#n"/>
<use transform="translate(2142)" xlink:href="#p"/>
<use transform="translate(2239)" xlink:href="#p"/>
<use transform="translate(2337)" xlink:href="#o"/>
<use transform="translate(2365)" xlink:href="#m"/>
<use transform="translate(2404)" xlink:href="#ai"/>
</g>
<path d="m47.6 73.1h82.6q2 0 2-2v-28.4q0-2-2-2h-82.6q-2 0-2 2v28.4q0 2 2 2z" fill="#fff" opacity=".8" stroke="#ccc"/>
<path d="m49.6 48.8h10 10" fill="none" stroke="#1f77b4" stroke-linecap="square" stroke-opacity=".9" stroke-width="1.5"/>
<use x="59.645553" y="48.831032" fill="#1f77b4" fill-opacity=".9" stroke="#1f77b4" stroke-opacity=".9" xlink:href="#a"/>
<g transform="translate(77.6 52.3) scale(.1 -.1)">
<defs>
<path id="z" transform="scale(.0156)" d="m544 1381v2119h575v-2097q0-497 193-746 194-248 582-248 465 0 735 297 271 297 271 810v1984h575v-3500h-575v538q-209-319-486-474-276-155-642-155-603 0-916 375-312 375-312 1097zm1447 2203z"/>
<path id="ad" transform="scale(.0156)" d="m3513 3500-1266-1703 1331-1797h-678l-1019 1375-1018-1375h-679l1360 1831-1244 1669h678l928-1247 928 1247h679z"/>
</defs>
<use xlink:href="#x"/>
<use transform="translate(27.8)" xlink:href="#o"/>
<use transform="translate(55.6)" xlink:href="#s"/>
<use transform="translate(119)" xlink:href="#z"/>
<use transform="translate(182)" xlink:href="#ad"/>
</g>
<path d="m49.6 63.5h10 10" fill="none" stroke="#1f77b4" stroke-dasharray="1.5,2.475" stroke-opacity=".9" stroke-width="1.5"/>
<use x="59.645553" y="63.509158" fill="#1f77b4" fill-opacity=".9" stroke="#1f77b4" stroke-opacity=".9" xlink:href="#a"/>
<g transform="translate(77.6 67) scale(.1 -.1)">
<use xlink:href="#x"/>
<use transform="translate(27.8)" xlink:href="#o"/>
<use transform="translate(55.6)" xlink:href="#s"/>
<use transform="translate(119)" xlink:href="#z"/>
<use transform="translate(182)" xlink:href="#ad"/>
<use transform="translate(242)" xlink:href="#w"/>
<use transform="translate(275)" xlink:href="#y"/>
<use transform="translate(334)" xlink:href="#z"/>
<use transform="translate(398)" xlink:href="#x"/>
<use transform="translate(425)" xlink:href="#m"/>
<use transform="translate(465)" xlink:href="#g"/>
</g>
<path d="m40.6 700h668v-313h-668z" fill="#fff"/>
<path d="m40.6 700v-313" clip-path="url(#f)" fill="none" stroke="#b0b0b0" stroke-linecap="square" stroke-width=".8"/>
<use x="40.645553" y="700.321635" stroke="#000000" stroke-width=".8" xlink:href="#i"/>
<g transform="translate(32.7 715) scale(.1 -.1)">
<use xlink:href="#b"/>
<use transform="translate(63.6)" xlink:href="#c"/>
<use transform="translate(95.4)" xlink:href="#b"/>
</g>
<path d="m174 700v-313" clip-path="url(#f)" fill="none" stroke="#b0b0b0" stroke-linecap="square" stroke-width=".8"/>
<use x="174.326081" y="700.321635" stroke="#000000" stroke-width=".8" xlink:href="#i"/>
<g transform="translate(166 715) scale(.1 -.1)">
<use xlink:href="#b"/>
<use transform="translate(63.6)" xlink:href="#c"/>
<use transform="translate(95.4)" xlink:href="#h"/>
</g>
<path d="m308 700v-313" clip-path="url(#f)" fill="none" stroke="#b0b0b0" stroke-linecap="square" stroke-width=".8"/>
<use x="308.00661" y="700.321635" stroke="#000000" stroke-width=".8" xlink:href="#i"/>
<g transform="translate(300 715) scale(.1 -.1)">
<use xlink:href="#b"/>
<use transform="translate(63.6)" xlink:href="#c"/>
<use transform="translate(95.4)" xlink:href="#u"/>
</g>
<path d="m442 700v-313" clip-path="url(#f)" fill="none" stroke="#b0b0b0" stroke-linecap="square" stroke-width=".8"/>
<use x="441.68714" y="700.321635" stroke="#000000" stroke-width=".8" xlink:href="#i"/>
<g transform="translate(434 715) scale(.1 -.1)">
<use xlink:href="#b"/>
<use transform="translate(63.6)" xlink:href="#c"/>
<use transform="translate(95.4)" xlink:href="#ac"/>
</g>
<path d="m575 700v-313" clip-path="url(#f)" fill="none" stroke="#b0b0b0" stroke-linecap="square" stroke-width=".8"/>
<use x="575.367668" y="700.321635" stroke="#000000" stroke-width=".8" xlink:href="#i"/>
<g transform="translate(567 715) scale(.1 -.1)">
<use xlink:href="#b"/>
<use transform="translate(63.6)" xlink:href="#c"/>
<use transform="translate(95.4)" xlink:href="#aa"/>
</g>
<path d="m709 700v-313" clip-path="url(#f)" fill="none" stroke="#b0b0b0" stroke-linecap="square" stroke-width=".8"/>
<use x="709.048197" y="700.321635" stroke="#000000" stroke-width=".8" xlink:href="#i"/>
<g transform="translate(701 715) scale(.1 -.1)">
<use xlink:href="#q"/>
<use transform="translate(63.6)" xlink:href="#c"/>
<use transform="translate(95.4)" xlink:href="#b"/>
</g>
<path d="m40.6 700h668" clip-path="url(#f)" fill="none" stroke="#b0b0b0" stroke-linecap="square" stroke-width=".8"/>
<use x="40.645553" y="700.321635" stroke="#000000" stroke-width=".8" xlink:href="#j"/>
<g transform="translate(3 704) scale(.1 -.1)">
<use xlink:href="#b"/>
<use transform="translate(63.6)" xlink:href="#c"/>
<use transform="translate(95.4)" xlink:href="#b"/>
<use transform="translate(159)" xlink:href="#b"/>
<use transform="translate(223)" xlink:href="#k"/>
</g>
<path d="m40.6 638h668" clip-path="url(#f)" fill="none" stroke="#b0b0b0" stroke-linecap="square" stroke-width=".8"/>
<use x="40.645553" y="637.762356" stroke="#000000" stroke-width=".8" xlink:href="#j"/>
<g transform="translate(3 642) scale(.1 -.1)">
<use xlink:href="#b"/>
<use transform="translate(63.6)" xlink:href="#c"/>
<use transform="translate(95.4)" xlink:href="#h"/>
<use transform="translate(159)" xlink:href="#b"/>
<use transform="translate(223)" xlink:href="#k"/>
</g>
<path d="m40.6 575h668" clip-path="url(#f)" fill="none" stroke="#b0b0b0" stroke-linecap="square" stroke-width=".8"/>
<use x="40.645553" y="575.203077" stroke="#000000" stroke-width=".8" xlink:href="#j"/>
<g transform="translate(3 579) scale(.1 -.1)">
<use xlink:href="#b"/>
<use transform="translate(63.6)" xlink:href="#c"/>
<use transform="translate(95.4)" xlink:href="#u"/>
<use transform="translate(159)" xlink:href="#b"/>
<use transform="translate(223)" xlink:href="#k"/>
</g>
<path d="m40.6 513h668" clip-path="url(#f)" fill="none" stroke="#b0b0b0" stroke-linecap="square" stroke-width=".8"/>
<use x="40.645553" y="512.643798" stroke="#000000" stroke-width=".8" xlink:href="#j"/>
<g transform="translate(3 516) scale(.1 -.1)">
<use xlink:href="#b"/>
<use transform="translate(63.6)" xlink:href="#c"/>
<use transform="translate(95.4)" xlink:href="#ac"/>
<use transform="translate(159)" xlink:href="#b"/>
<use transform="translate(223)" xlink:href="#k"/>
</g>
<path d="m40.6 450h668" clip-path="url(#f)" fill="none" stroke="#b0b0b0" stroke-linecap="square" stroke-width=".8"/>
<use x="40.645553" y="450.084519" stroke="#000000" stroke-width=".8" xlink:href="#j"/>
<g transform="translate(3 454) scale(.1 -.1)">
<use xlink:href="#b"/>
<use transform="translate(63.6)" xlink:href="#c"/>
<use transform="translate(95.4)" xlink:href="#aa"/>
<use transform="translate(159)" xlink:href="#b"/>
<use transform="translate(223)" xlink:href="#k"/>
</g>
<path d="m40.6 388h668" clip-path="url(#f)" fill="none" stroke="#b0b0b0" stroke-linecap="square" stroke-width=".8"/>
<use x="40.645553" y="387.52524" stroke="#000000" stroke-width=".8" xlink:href="#j"/>
<g transform="translate(3 391) scale(.1 -.1)">
<use xlink:href="#q"/>
<use transform="translate(63.6)" xlink:href="#c"/>
<use transform="translate(95.4)" xlink:href="#b"/>
<use transform="translate(159)" xlink:href="#b"/>
<use transform="translate(223)" xlink:href="#k"/>
</g>
<path d="m40.6 700v-313" fill="none" stroke="#000" stroke-linecap="square" stroke-width=".8"/>
<path d="m709 700v-313" fill="none" stroke="#000" stroke-linecap="square" stroke-width=".8"/>
<path d="m40.6 700h668" fill="none" stroke="#000" stroke-linecap="square" stroke-width=".8"/>
<path d="m40.6 388h668" fill="none" stroke="#000" stroke-linecap="square" stroke-width=".8"/>
<g clip-path="url(#f)">
<g transform="translate(58.2 380) rotate(-90) scale(.1 -.1)">
<use xlink:href="#l"/>
<use transform="translate(35.2)" xlink:href="#t"/>
<use transform="translate(96.5)" xlink:href="#r"/>
<use transform="translate(149)" xlink:href="#m"/>
<use transform="translate(188)" xlink:href="#d"/>
<use transform="translate(249)" xlink:href="#g"/>
<use transform="translate(290)" xlink:href="#DejaVuSans-20"/>
<use transform="translate(322)" xlink:href="#ak"/>
</g>
</g>
<g clip-path="url(#f)">
<g transform="translate(58.2 448) rotate(-90) scale(.1 -.1)">
<use xlink:href="#al"/>
<use transform="translate(143)" xlink:href="#DejaVuSans-20"/>
<use transform="translate(175)" xlink:href="#r"/>
<use transform="translate(227)" xlink:href="#x"/>
<use transform="translate(255)" xlink:href="#n"/>
<use transform="translate(316)" xlink:href="#ae"/>
<use transform="translate(398)" xlink:href="#d"/>
<use transform="translate(460)" xlink:href="#g"/>
</g>
</g>
<g transform="translate(264 382) scale(.12 -.12)">
<defs>
<path id="as" transform="scale(.0156)" d="m628 4666h631v-4341q0-844-320-1225t-1030-381h-240v531h197q418 0 590 235 172 234 172 840v4341z"/>
<path id="at" transform="scale(.0156)" d="m628 4666h631v-4666h-631v4666z"/>
</defs>
<use xlink:href="#ag"/>
<use transform="translate(63.2)" xlink:href="#l"/>
<use transform="translate(98.4)" xlink:href="#l"/>
<use transform="translate(134)" xlink:href="#d"/>
<use transform="translate(195)" xlink:href="#v"/>
<use transform="translate(250)" xlink:href="#m"/>
<use transform="translate(289)" xlink:href="#DejaVuSans-20"/>
<use transform="translate(321)" xlink:href="#n"/>
<use transform="translate(382)" xlink:href="#l"/>
<use transform="translate(417)" xlink:href="#DejaVuSans-20"/>
<use transform="translate(449)" xlink:href="#as"/>
<use transform="translate(479)" xlink:href="#at"/>
<use transform="translate(508)" xlink:href="#ab"/>
<use transform="translate(569)" xlink:href="#DejaVuSans-20"/>
<use transform="translate(601)" xlink:href="#y"/>
<use transform="translate(660)" xlink:href="#r"/>
<use transform="translate(712)" xlink:href="#c"/>
<use transform="translate(744)" xlink:href="#DejaVuSans-20"/>
<use transform="translate(776)" xlink:href="#ab"/>
<use transform="translate(834)" xlink:href="#o"/>
<use transform="translate(862)" xlink:href="#d"/>
<use transform="translate(923)" xlink:href="#g"/>
<use transform="translate(964)" xlink:href="#DejaVuSans-20"/>
<use transform="translate(996)" xlink:href="#q"/>
<use transform="translate(1060)" xlink:href="#DejaVuSans-20"/>
<use transform="translate(1092)" xlink:href="#aj"/>
<use transform="translate(1131)" xlink:href="#r"/>
<use transform="translate(1183)" xlink:href="#t"/>
<use transform="translate(1244)" xlink:href="#p"/>
<use transform="translate(1341)" xlink:href="#d"/>
<use transform="translate(1403)" xlink:href="#DejaVuSans-20"/>
<use transform="translate(1435)" xlink:href="#v"/>
<use transform="translate(1490)" xlink:href="#n"/>
<use transform="translate(1551)" xlink:href="#p"/>
<use transform="translate(1648)" xlink:href="#p"/>
<use transform="translate(1746)" xlink:href="#o"/>
<use transform="translate(1773)" xlink:href="#m"/>
<use transform="translate(1813)" xlink:href="#ai"/>
</g>
<path d="m47.6 401h4q2 0 2-2v-4q0-2-2-2h-4q-2 0-2 2v4q0 2 2 2z" fill="#fff" opacity=".8" stroke="#ccc"/>
<g transform="translate(229 12.1) scale(.12 -.12)">
<defs>
<path id="ar" transform="scale(.0156)" d="m1259 4147v-1753h794q441 0 681 228 241 228 241 650 0 419-241 647-240 228-681 228h-794zm-631 519h1425q785 0 1186-355 402-355 402-1039 0-691-402-1044-401-353-1186-353h-794v-1875h-631v4666z"/>
<path id="an" transform="scale(.0156)" d="m1159 525v-1856h-578v4831h578v-531q182 312 458 463 277 152 661 152 638 0 1036-506 399-506 399-1331t-399-1332q-398-506-1036-506-384 0-661 152-276 152-458 464zm1957 1222q0 634-261 995t-717 361q-457 0-718-361t-261-995 261-995 718-361q456 0 717 361t261 995z"/>
<path id="aq" transform="scale(.0156)" d="m3116 1747q0 634-261 995t-717 361q-457 0-718-361t-261-995 261-995 718-361q456 0 717 361t261 995zm-1957 1222q182 312 458 463 277 152 661 152 638 0 1036-506 399-506 399-1331t-399-1332q-398-506-1036-506-384 0-661 152-276 152-458 464v-525h-578v4863h578v-1894z"/>
<path id="am" transform="scale(.0156)" d="m2059-325q-243-625-475-815-231-191-618-191h-460v481h338q237 0 368 113 132 112 291 531l103 262-1415 3444h609l1094-2737 1094 2737h609l-1538-3825z"/>
</defs>
<use xlink:href="#ar"/>
<use transform="translate(56.7)" xlink:href="#d"/>
<use transform="translate(118)" xlink:href="#g"/>
<use transform="translate(159)" xlink:href="#l"/>
<use transform="translate(195)" xlink:href="#n"/>
<use transform="translate(256)" xlink:href="#g"/>
<use transform="translate(295)" xlink:href="#p"/>
<use transform="translate(392)" xlink:href="#t"/>
<use transform="translate(454)" xlink:href="#s"/>
<use transform="translate(517)" xlink:href="#v"/>
<use transform="translate(572)" xlink:href="#d"/>
<use transform="translate(634)" xlink:href="#DejaVuSans-20"/>
<use transform="translate(665)" xlink:href="#o"/>
<use transform="translate(693)" xlink:href="#p"/>
<use transform="translate(791)" xlink:href="#an"/>
<use transform="translate(854)" xlink:href="#g"/>
<use transform="translate(893)" xlink:href="#n"/>
<use transform="translate(954)" xlink:href="#y"/>
<use transform="translate(1013)" xlink:href="#d"/>
<use transform="translate(1075)" xlink:href="#p"/>
<use transform="translate(1172)" xlink:href="#d"/>
<use transform="translate(1234)" xlink:href="#s"/>
<use transform="translate(1297)" xlink:href="#m"/>
<use transform="translate(1336)" xlink:href="#DejaVuSans-20"/>
<use transform="translate(1368)" xlink:href="#aq"/>
<use transform="translate(1432)" xlink:href="#am"/>
<use transform="translate(1491)" xlink:href="#DejaVuSans-20"/>
<use transform="translate(1523)" xlink:href="#v"/>
<use transform="translate(1578)" xlink:href="#n"/>
<use transform="translate(1639)" xlink:href="#s"/>
<use transform="translate(1702)" xlink:href="#l"/>
<use transform="translate(1737)" xlink:href="#o"/>
<use transform="translate(1765)" xlink:href="#af"/>
<use transform="translate(1829)" xlink:href="#z"/>
<use transform="translate(1892)" xlink:href="#g"/>
<use transform="translate(1933)" xlink:href="#t"/>
<use transform="translate(1994)" xlink:href="#m"/>
<use transform="translate(2034)" xlink:href="#o"/>
<use transform="translate(2061)" xlink:href="#n"/>
<use transform="translate(2123)" xlink:href="#s"/>
</g>
<defs>
<clipPath id="e">
<rect x="40.6" y="35.7" width="668" height="313"/>
</clipPath>
<clipPath id="f">
<rect x="40.6" y="388" width="668" height="313"/>
</clipPath>
</defs>
</svg>
