<?xml version="1.0" encoding="UTF-8"?>
<!DOCTYPE svg  PUBLIC '-//W3C//DTD SVG 1.1//EN'  'http://www.w3.org/Graphics/SVG/1.1/DTD/svg11.dtd'>
<svg width="720pt" height="1080pt" version="1.1" viewBox="0 0 720 1080" xmlns="http://www.w3.org/2000/svg" xmlns:xlink="http://www.w3.org/1999/xlink">
<defs>
<style type="text/css">*{stroke-linejoin: round; stroke-linecap: butt}</style>
</defs>
<path d="m0 1080h720v-1080h-720z" fill="#fff"/>
<path d="m40.6 351h676v-316h-676z" fill="#fff"/>
<path d="m61 351v-316" clip-path="url(#i)" fill="none" stroke="#b0b0b0" stroke-linecap="square" stroke-width=".8"/>
<defs>
<path id="f" d="m0 0v3.5" stroke="#000" stroke-width=".8"/>
</defs>
<use x="60.958853" y="351.264775" stroke="#000000" stroke-width=".8" xlink:href="#f"/>
<g transform="translate(40.1 366) scale(.1 -.1)">
<defs>
<path id="d" transform="scale(.0156)" d="m1228 531h2203v-531h-2962v531q359 372 979 998 621 627 780 809 303 340 423 576 121 236 121 464 0 372-261 606-261 235-680 235-297 0-627-103-329-103-704-313v638q381 153 712 231 332 78 607 78 725 0 1156-363 431-362 431-968 0-288-108-546-107-257-392-607-78-91-497-524-418-433-1181-1211z"/>
<path id="c" transform="scale(.0156)" d="m2034 4250q-487 0-733-480-245-479-245-1442 0-959 245-1439 246-480 733-480 491 0 736 480 246 480 246 1439 0 963-246 1442-245 480-736 480zm0 500q785 0 1199-621 414-620 414-1801 0-1178-414-1799-414-620-1199-620-784 0-1198 620-414 621-414 1799 0 1181 414 1801 414 621 1198 621z"/>
<path id="v" transform="scale(.0156)" d="m2419 4116-1594-2491h1594v2491zm-166 550h794v-3041h666v-525h-666v-1100h-628v1100h-2106v609l1940 2957z"/>
<path id="e" transform="scale(.0156)" d="m313 2009h1684v-512h-1684v512z"/>
<path id="ad" transform="scale(.0156)" d="m703 97v575q238-113 481-172 244-59 479-59 625 0 954 420 330 420 377 1277-181-269-460-413-278-144-615-144-700 0-1108 423-408 424-408 1159 0 718 425 1152 425 435 1131 435 810 0 1236-621 427-620 427-1801 0-1103-524-1761-523-658-1407-658-238 0-482 47-243 47-506 141zm1256 1978q425 0 673 290 249 291 249 798 0 503-249 795-248 292-673 292t-673-292-248-795q0-507 248-798 248-290 673-290z"/>
</defs>
<use xlink:href="#d"/>
<use transform="translate(63.6)" xlink:href="#c"/>
<use transform="translate(127)" xlink:href="#d"/>
<use transform="translate(191)" xlink:href="#v"/>
<use transform="translate(254)" xlink:href="#e"/>
<use transform="translate(291)" xlink:href="#c"/>
<use transform="translate(354)" xlink:href="#ad"/>
</g>
<path d="m117 351v-316" clip-path="url(#i)" fill="none" stroke="#b0b0b0" stroke-linecap="square" stroke-width=".8"/>
<use x="116.894242" y="351.264775" stroke="#000000" stroke-width=".8" xlink:href="#f"/>
<g transform="translate(96 366) scale(.1 -.1)">
<defs>
<path id="g" transform="scale(.0156)" d="m794 531h1031v3560l-1122-225v575l1116 225h631v-4135h1031v-531h-2687v531z"/>
</defs>
<use xlink:href="#d"/>
<use transform="translate(63.6)" xlink:href="#c"/>
<use transform="translate(127)" xlink:href="#d"/>
<use transform="translate(191)" xlink:href="#v"/>
<use transform="translate(254)" xlink:href="#e"/>
<use transform="translate(291)" xlink:href="#g"/>
<use transform="translate(354)" xlink:href="#c"/>
</g>
<path d="m175 351v-316" clip-path="url(#i)" fill="none" stroke="#b0b0b0" stroke-linecap="square" stroke-width=".8"/>
<use x="174.694145" y="351.264775" stroke="#000000" stroke-width=".8" xlink:href="#f"/>
<g transform="translate(154 366) scale(.1 -.1)">
<use xlink:href="#d"/>
<use transform="translate(63.6)" xlink:href="#c"/>
<use transform="translate(127)" xlink:href="#d"/>
<use transform="translate(191)" xlink:href="#v"/>
<use transform="translate(254)" xlink:href="#e"/>
<use transform="translate(291)" xlink:href="#g"/>
<use transform="translate(354)" xlink:href="#g"/>
</g>
<path d="m231 351v-316" clip-path="url(#i)" fill="none" stroke="#b0b0b0" stroke-linecap="square" stroke-width=".8"/>
<use x="230.629535" y="351.264775" stroke="#000000" stroke-width=".8" xlink:href="#f"/>
<g transform="translate(210 366) scale(.1 -.1)">
<use xlink:href="#d"/>
<use transform="translate(63.6)" xlink:href="#c"/>
<use transform="translate(127)" xlink:href="#d"/>
<use transform="translate(191)" xlink:href="#v"/>
<use transform="translate(254)" xlink:href="#e"/>
<use transform="translate(291)" xlink:href="#g"/>
<use transform="translate(354)" xlink:href="#d"/>
</g>
<path d="m288 351v-316" clip-path="url(#i)" fill="none" stroke="#b0b0b0" stroke-linecap="square" stroke-width=".8"/>
<use x="288.429437" y="351.264775" stroke="#000000" stroke-width=".8" xlink:href="#f"/>
<g transform="translate(268 366) scale(.1 -.1)">
<defs>
<path id="h" transform="scale(.0156)" d="m691 4666h2478v-532h-1900v-1143q137 47 274 70 138 23 276 23 781 0 1237-428 457-428 457-1159 0-753-469-1171-469-417-1322-417-294 0-599 50-304 50-629 150v635q281-153 581-228t634-75q541 0 856 284 316 284 316 772 0 487-316 771-315 285-856 285-253 0-505-56-251-56-513-175v2344z"/>
</defs>
<use xlink:href="#d"/>
<use transform="translate(63.6)" xlink:href="#c"/>
<use transform="translate(127)" xlink:href="#d"/>
<use transform="translate(191)" xlink:href="#h"/>
<use transform="translate(254)" xlink:href="#e"/>
<use transform="translate(291)" xlink:href="#c"/>
<use transform="translate(354)" xlink:href="#g"/>
</g>
<path d="m346 351v-316" clip-path="url(#i)" fill="none" stroke="#b0b0b0" stroke-linecap="square" stroke-width=".8"/>
<use x="346.22934" y="351.264775" stroke="#000000" stroke-width=".8" xlink:href="#f"/>
<g transform="translate(325 366) scale(.1 -.1)">
<use xlink:href="#d"/>
<use transform="translate(63.6)" xlink:href="#c"/>
<use transform="translate(127)" xlink:href="#d"/>
<use transform="translate(191)" xlink:href="#h"/>
<use transform="translate(254)" xlink:href="#e"/>
<use transform="translate(291)" xlink:href="#c"/>
<use transform="translate(354)" xlink:href="#d"/>
</g>
<path d="m398 351v-316" clip-path="url(#i)" fill="none" stroke="#b0b0b0" stroke-linecap="square" stroke-width=".8"/>
<use x="398.435704" y="351.264775" stroke="#000000" stroke-width=".8" xlink:href="#f"/>
<g transform="translate(378 366) scale(.1 -.1)">
<defs>
<path id="ae" transform="scale(.0156)" d="m2597 2516q453-97 707-404 255-306 255-756 0-690-475-1069-475-378-1350-378-293 0-604 58t-642 174v609q262-153 574-231 313-78 654-78 593 0 904 234t311 681q0 413-289 645-289 233-804 233h-544v519h569q465 0 712 186t247 536q0 359-255 551-254 193-729 193-260 0-557-57-297-56-653-174v562q360 100 674 150t592 50q719 0 1137-327 419-326 419-882 0-388-222-655t-631-370z"/>
</defs>
<use xlink:href="#d"/>
<use transform="translate(63.6)" xlink:href="#c"/>
<use transform="translate(127)" xlink:href="#d"/>
<use transform="translate(191)" xlink:href="#h"/>
<use transform="translate(254)" xlink:href="#e"/>
<use transform="translate(291)" xlink:href="#c"/>
<use transform="translate(354)" xlink:href="#ae"/>
</g>
<path d="m456 351v-316" clip-path="url(#i)" fill="none" stroke="#b0b0b0" stroke-linecap="square" stroke-width=".8"/>
<use x="456.235606" y="351.264775" stroke="#000000" stroke-width=".8" xlink:href="#f"/>
<g transform="translate(435 366) scale(.1 -.1)">
<use xlink:href="#d"/>
<use transform="translate(63.6)" xlink:href="#c"/>
<use transform="translate(127)" xlink:href="#d"/>
<use transform="translate(191)" xlink:href="#h"/>
<use transform="translate(254)" xlink:href="#e"/>
<use transform="translate(291)" xlink:href="#c"/>
<use transform="translate(354)" xlink:href="#v"/>
</g>
<path d="m512 351v-316" clip-path="url(#i)" fill="none" stroke="#b0b0b0" stroke-linecap="square" stroke-width=".8"/>
<use x="512.170996" y="351.264775" stroke="#000000" stroke-width=".8" xlink:href="#f"/>
<g transform="translate(491 366) scale(.1 -.1)">
<use xlink:href="#d"/>
<use transform="translate(63.6)" xlink:href="#c"/>
<use transform="translate(127)" xlink:href="#d"/>
<use transform="translate(191)" xlink:href="#h"/>
<use transform="translate(254)" xlink:href="#e"/>
<use transform="translate(291)" xlink:href="#c"/>
<use transform="translate(354)" xlink:href="#h"/>
</g>
<path d="m570 351v-316" clip-path="url(#i)" fill="none" stroke="#b0b0b0" stroke-linecap="square" stroke-width=".8"/>
<use x="569.970898" y="351.264775" stroke="#000000" stroke-width=".8" xlink:href="#f"/>
<g transform="translate(549 366) scale(.1 -.1)">
<defs>
<path id="aj" transform="scale(.0156)" d="m2113 2584q-425 0-674-291-248-290-248-796 0-503 248-796 249-292 674-292t673 292q248 293 248 796 0 506-248 796-248 291-673 291zm1253 1979v-575q-238 112-480 171-242 60-480 60-625 0-955-422-329-422-376-1275 184 272 462 417 279 145 613 145 703 0 1111-427 408-426 408-1160 0-719-425-1154-425-434-1131-434-810 0-1238 620-428 621-428 1799 0 1106 525 1764t1409 658q238 0 480-47t505-140z"/>
</defs>
<use xlink:href="#d"/>
<use transform="translate(63.6)" xlink:href="#c"/>
<use transform="translate(127)" xlink:href="#d"/>
<use transform="translate(191)" xlink:href="#h"/>
<use transform="translate(254)" xlink:href="#e"/>
<use transform="translate(291)" xlink:href="#c"/>
<use transform="translate(354)" xlink:href="#aj"/>
</g>
<path d="m626 351v-316" clip-path="url(#i)" fill="none" stroke="#b0b0b0" stroke-linecap="square" stroke-width=".8"/>
<use x="625.906288" y="351.264775" stroke="#000000" stroke-width=".8" xlink:href="#f"/>
<g transform="translate(605 366) scale(.1 -.1)">
<defs>
<path id="ai" transform="scale(.0156)" d="m525 4666h3e3v-269l-1694-4397h-659l1594 4134h-2241v532z"/>
</defs>
<use xlink:href="#d"/>
<use transform="translate(63.6)" xlink:href="#c"/>
<use transform="translate(127)" xlink:href="#d"/>
<use transform="translate(191)" xlink:href="#h"/>
<use transform="translate(254)" xlink:href="#e"/>
<use transform="translate(291)" xlink:href="#c"/>
<use transform="translate(354)" xlink:href="#ai"/>
</g>
<path d="m684 351v-316" clip-path="url(#i)" fill="none" stroke="#b0b0b0" stroke-linecap="square" stroke-width=".8"/>
<use x="683.706191" y="351.264775" stroke="#000000" stroke-width=".8" xlink:href="#f"/>
<g transform="translate(663 366) scale(.1 -.1)">
<defs>
<path id="ah" transform="scale(.0156)" d="m2034 2216q-450 0-708-241-257-241-257-662 0-422 257-663 258-241 708-241t709 242q260 243 260 662 0 421-258 662-257 241-711 241zm-631 268q-406 100-633 378-226 279-226 679 0 559 398 884 399 325 1092 325 697 0 1094-325t397-884q0-400-227-679-226-278-629-378 456-106 710-416 255-309 255-755 0-679-414-1042-414-362-1186-362-771 0-1186 362-414 363-414 1042 0 446 256 755 257 310 713 416zm-231 997q0-362 226-565 227-203 636-203 407 0 636 203 230 203 230 565 0 363-230 566-229 203-636 203-409 0-636-203-226-203-226-566z"/>
</defs>
<use xlink:href="#d"/>
<use transform="translate(63.6)" xlink:href="#c"/>
<use transform="translate(127)" xlink:href="#d"/>
<use transform="translate(191)" xlink:href="#h"/>
<use transform="translate(254)" xlink:href="#e"/>
<use transform="translate(291)" xlink:href="#c"/>
<use transform="translate(354)" xlink:href="#ah"/>
</g>
<path d="m40.6 351h676" clip-path="url(#i)" fill="none" stroke="#b0b0b0" stroke-linecap="square" stroke-width=".8"/>
<defs>
<path id="n" d="m0 0h-3.5" stroke="#000" stroke-width=".8"/>
</defs>
<use x="40.645553" y="351.264775" stroke="#000000" stroke-width=".8" xlink:href="#n"/>
<g transform="translate(3 355) scale(.1 -.1)">
<defs>
<path id="m" transform="scale(.0156)" d="m684 794h660v-794h-660v794z"/>
<path id="o" transform="scale(.0156)" d="m4488 3438-1429-1435 1429-1428-372-378-1435 1434-1434-1434-369 378 1425 1428-1425 1435 369 378 1434-1435 1435 1435 372-378z"/>
</defs>
<use xlink:href="#c"/>
<use transform="translate(63.6)" xlink:href="#m"/>
<use transform="translate(95.4)" xlink:href="#ad"/>
<use transform="translate(159)" xlink:href="#c"/>
<use transform="translate(223)" xlink:href="#o"/>
</g>
<path d="m40.6 312h676" clip-path="url(#i)" fill="none" stroke="#b0b0b0" stroke-linecap="square" stroke-width=".8"/>
<use x="40.645553" y="311.823253" stroke="#000000" stroke-width=".8" xlink:href="#n"/>
<g transform="translate(3 316) scale(.1 -.1)">
<use xlink:href="#c"/>
<use transform="translate(63.6)" xlink:href="#m"/>
<use transform="translate(95.4)" xlink:href="#ad"/>
<use transform="translate(159)" xlink:href="#h"/>
<use transform="translate(223)" xlink:href="#o"/>
</g>
<path d="m40.6 272h676" clip-path="url(#i)" fill="none" stroke="#b0b0b0" stroke-linecap="square" stroke-width=".8"/>
<use x="40.645553" y="272.38173" stroke="#000000" stroke-width=".8" xlink:href="#n"/>
<g transform="translate(3 276) scale(.1 -.1)">
<use xlink:href="#g"/>
<use transform="translate(63.6)" xlink:href="#m"/>
<use transform="translate(95.4)" xlink:href="#c"/>
<use transform="translate(159)" xlink:href="#c"/>
<use transform="translate(223)" xlink:href="#o"/>
</g>
<path d="m40.6 233h676" clip-path="url(#i)" fill="none" stroke="#b0b0b0" stroke-linecap="square" stroke-width=".8"/>
<use x="40.645553" y="232.940208" stroke="#000000" stroke-width=".8" xlink:href="#n"/>
<g transform="translate(3 237) scale(.1 -.1)">
<use xlink:href="#g"/>
<use transform="translate(63.6)" xlink:href="#m"/>
<use transform="translate(95.4)" xlink:href="#c"/>
<use transform="translate(159)" xlink:href="#h"/>
<use transform="translate(223)" xlink:href="#o"/>
</g>
<path d="m40.6 193h676" clip-path="url(#i)" fill="none" stroke="#b0b0b0" stroke-linecap="square" stroke-width=".8"/>
<use x="40.645553" y="193.498685" stroke="#000000" stroke-width=".8" xlink:href="#n"/>
<g transform="translate(3 197) scale(.1 -.1)">
<use xlink:href="#g"/>
<use transform="translate(63.6)" xlink:href="#m"/>
<use transform="translate(95.4)" xlink:href="#g"/>
<use transform="translate(159)" xlink:href="#c"/>
<use transform="translate(223)" xlink:href="#o"/>
</g>
<path d="m40.6 154h676" clip-path="url(#i)" fill="none" stroke="#b0b0b0" stroke-linecap="square" stroke-width=".8"/>
<use x="40.645553" y="154.057163" stroke="#000000" stroke-width=".8" xlink:href="#n"/>
<g transform="translate(3 158) scale(.1 -.1)">
<use xlink:href="#g"/>
<use transform="translate(63.6)" xlink:href="#m"/>
<use transform="translate(95.4)" xlink:href="#g"/>
<use transform="translate(159)" xlink:href="#h"/>
<use transform="translate(223)" xlink:href="#o"/>
</g>
<path d="m40.6 115h676" clip-path="url(#i)" fill="none" stroke="#b0b0b0" stroke-linecap="square" stroke-width=".8"/>
<use x="40.645553" y="114.61564" stroke="#000000" stroke-width=".8" xlink:href="#n"/>
<g transform="translate(3 118) scale(.1 -.1)">
<use xlink:href="#g"/>
<use transform="translate(63.6)" xlink:href="#m"/>
<use transform="translate(95.4)" xlink:href="#d"/>
<use transform="translate(159)" xlink:href="#c"/>
<use transform="translate(223)" xlink:href="#o"/>
</g>
<path d="m40.6 75.2h676" clip-path="url(#i)" fill="none" stroke="#b0b0b0" stroke-linecap="square" stroke-width=".8"/>
<use x="40.645553" y="75.174118" stroke="#000000" stroke-width=".8" xlink:href="#n"/>
<g transform="translate(3 79) scale(.1 -.1)">
<use xlink:href="#g"/>
<use transform="translate(63.6)" xlink:href="#m"/>
<use transform="translate(95.4)" xlink:href="#d"/>
<use transform="translate(159)" xlink:href="#h"/>
<use transform="translate(223)" xlink:href="#o"/>
</g>
<path d="m40.6 35.7h676" clip-path="url(#i)" fill="none" stroke="#b0b0b0" stroke-linecap="square" stroke-width=".8"/>
<use x="40.645553" y="35.732595" stroke="#000000" stroke-width=".8" xlink:href="#n"/>
<g transform="translate(3 39.5) scale(.1 -.1)">
<use xlink:href="#g"/>
<use transform="translate(63.6)" xlink:href="#m"/>
<use transform="translate(95.4)" xlink:href="#ae"/>
<use transform="translate(159)" xlink:href="#c"/>
<use transform="translate(223)" xlink:href="#o"/>
</g>
<path d="m439 218 1.22 78.3 11.7-58.5 13.2-29.2 3.3 59.7 5.3-34.6 4.42 1.27 12.7-4.23 13.4 2.93 12.9 8.27 13.2-3.75 13 2.54 12.3 4.09 13.8-12.4 13 2.18 12.7 6.76 13.1-3.47 12.8 2.32 13.8-3.75 12.7 1.02 13.2 3.28 12.8-4.84 13 5.24" clip-path="url(#i)" fill="none" stroke="#1f77b4" stroke-dasharray="1.5,2.475" stroke-opacity=".9" stroke-width="1.5"/>
<defs>
<path id="a" d="m-2.5 2.5h5v-5h-5z" stroke="#1f77b4" stroke-opacity=".9"/>
</defs>
<g clip-path="url(#i)" fill="#1f77b4" fill-opacity=".9" stroke="#1f77b4" stroke-opacity=".9">
<use x="438.813977" y="217.972608" xlink:href="#a"/>
<use x="440.032535" y="296.236601" xlink:href="#a"/>
<use x="451.750158" y="237.786525" xlink:href="#a"/>
<use x="464.931509" y="208.609505" xlink:href="#a"/>
<use x="468.235689" y="268.348273" xlink:href="#a"/>
<use x="473.536323" y="233.780467" xlink:href="#a"/>
<use x="477.956492" y="235.050049" xlink:href="#a"/>
<use x="490.666104" y="230.815623" xlink:href="#a"/>
<use x="504.069924" y="233.746182" xlink:href="#a"/>
<use x="516.95317" y="242.018666" xlink:href="#a"/>
<use x="530.165208" y="238.265931" xlink:href="#a"/>
<use x="543.200463" y="240.808105" xlink:href="#a"/>
<use x="555.468268" y="244.894915" xlink:href="#a"/>
<use x="569.23679" y="232.452493" xlink:href="#a"/>
<use x="582.256917" y="234.631196" xlink:href="#a"/>
<use x="594.914284" y="241.389536" xlink:href="#a"/>
<use x="608.003446" y="237.922981" xlink:href="#a"/>
<use x="620.793789" y="240.240096" xlink:href="#a"/>
<use x="634.600141" y="236.494728" xlink:href="#a"/>
<use x="647.290008" y="237.514392" xlink:href="#a"/>
<use x="660.456534" y="240.796986" xlink:href="#a"/>
<use x="673.298389" y="235.961163" xlink:href="#a"/>
<use x="686.256387" y="241.196596" xlink:href="#a"/>
</g>
<path d="m439 180 12.9-2.98 13.2 45.3 13 19.4 12.7-18.7 26.3 19.8 13.2-11.4 13 8.54 12.3 3.35 13.8-5.19 13 7.39 12.7 0.914 13.1-5.32 12.8-9.35 13.8-2.7 12.7 11.3 13.2-11.2 12.8 11.7 13 2.95" clip-path="url(#i)" fill="none" stroke="#2ca02c" stroke-linecap="square" stroke-opacity=".9" stroke-width="1.5"/>
<defs>
<path id="b" d="m0-2.5-2.5 5h5z" stroke="#2ca02c" stroke-opacity=".9"/>
</defs>
<g clip-path="url(#i)" fill="#2ca02c" fill-opacity=".9" stroke="#2ca02c" stroke-opacity=".9">
<use x="438.813977" y="179.969255" xlink:href="#b"/>
<use x="451.750158" y="176.992682" xlink:href="#b"/>
<use x="464.931509" y="222.29429" xlink:href="#b"/>
<use x="477.956492" y="241.648786" xlink:href="#b"/>
<use x="490.666104" y="222.987989" xlink:href="#b"/>
<use x="516.95317" y="242.766761" xlink:href="#b"/>
<use x="530.165208" y="231.392996" xlink:href="#b"/>
<use x="543.200463" y="239.932954" xlink:href="#b"/>
<use x="555.468268" y="243.285585" xlink:href="#b"/>
<use x="569.23679" y="238.099275" xlink:href="#b"/>
<use x="582.256917" y="245.490371" xlink:href="#b"/>
<use x="594.914284" y="246.40392" xlink:href="#b"/>
<use x="608.003446" y="241.082656" xlink:href="#b"/>
<use x="620.793789" y="231.732085" xlink:href="#b"/>
<use x="634.600141" y="229.028803" xlink:href="#b"/>
<use x="647.290008" y="240.35378" xlink:href="#b"/>
<use x="660.456534" y="229.114718" xlink:href="#b"/>
<use x="673.298389" y="240.773911" xlink:href="#b"/>
<use x="686.256387" y="243.720306" xlink:href="#b"/>
</g>
<path d="m40.6 351v-316" fill="none" stroke="#000" stroke-linecap="square" stroke-width=".8"/>
<path d="m717 351v-316" fill="none" stroke="#000" stroke-linecap="square" stroke-width=".8"/>
<path d="m40.6 351h676" fill="none" stroke="#000" stroke-linecap="square" stroke-width=".8"/>
<path d="m40.6 35.7h676" fill="none" stroke="#000" stroke-linecap="square" stroke-width=".8"/>
<g clip-path="url(#i)">
<g transform="translate(58.2 264) rotate(-90) scale(.1 -.1)">
<defs>
<path id="y" transform="scale(.0156)" d="m2375 4863v-479h-550q-309 0-430-125-120-125-120-450v-309h947v-447h-947v-3053h-578v3053h-550v447h550v244q0 584 272 851 272 268 862 268h544z"/>
<path id="r" transform="scale(.0156)" d="m2194 1759q-697 0-966-159t-269-544q0-306 202-486 202-179 548-179 479 0 768 339t289 901v128h-572zm1147 238v-2e3h-575v531q-197-318-491-470t-719-152q-537 0-855 302-317 302-317 808 0 590 395 890 396 300 1180 300h807v57q0 397-261 614t-733 217q-300 0-585-72-284-72-546-216v532q315 122 612 182 297 61 578 61 760 0 1135-394 375-393 375-1193z"/>
<path id="s" transform="scale(.0156)" d="m2834 3397v-544q-243 125-506 187-262 63-544 63-428 0-642-131t-214-394q0-200 153-314t616-217l197-44q612-131 870-370t258-667q0-488-386-773-386-284-1061-284-281 0-586 55t-642 164v594q319-166 628-249 309-82 613-82 406 0 624 139 219 139 219 392 0 234-158 359-157 125-692 241l-200 47q-534 112-772 345-237 233-237 639 0 494 350 762 350 269 994 269 318 0 599-47 282-46 519-140z"/>
<path id="p" transform="scale(.0156)" d="m1172 4494v-994h1184v-447h-1184v-1900q0-428 117-550t477-122h590v-481h-590q-666 0-919 248-253 249-253 905v1900h-422v447h422v994h578z"/>
<path id="l" transform="scale(.0156)" d="m3597 1894v-281h-2644q38-594 358-905t892-311q331 0 642 81t618 244v-544q-310-131-635-200t-659-69q-838 0-1327 487-489 488-489 1320 0 859 464 1363 464 505 1252 505 706 0 1117-455 411-454 411-1235zm-575 169q-6 471-264 752-258 282-683 282-481 0-770-272t-333-766l2050 4z"/>
<path id="q" transform="scale(.0156)" d="m2631 2963q-97 56-211 82-114 27-251 27-488 0-749-317t-261-911v-1844h-578v3500h578v-544q182 319 472 473 291 155 707 155 59 0 131-8 72-7 159-23l3-590z"/>
<path id="aq" transform="scale(.0156)" d="m8863 2147v-281l-1229-1228-375 375 729 728h-7622v531h7622l-729 728 375 375 1229-1228z"/>
</defs>
<use xlink:href="#y"/>
<use transform="translate(35.2)" xlink:href="#r"/>
<use transform="translate(96.5)" xlink:href="#s"/>
<use transform="translate(149)" xlink:href="#p"/>
<use transform="translate(188)" xlink:href="#l"/>
<use transform="translate(249)" xlink:href="#q"/>
<use transform="translate(290)" xlink:href="#DejaVuSans-20"/>
<use transform="translate(322)" xlink:href="#aq"/>
</g>
</g>
<g clip-path="url(#i)">
<g transform="translate(58.2 332) rotate(-90) scale(.1 -.1)">
<defs>
<path id="ar" transform="scale(.0156)" d="m313 1866v281l1228 1228 375-375-728-728h7621v-531h-7621l728-728-375-375-1228 1228z"/>
<path id="x" transform="scale(.0156)" d="m603 4863h575v-4863h-575v4863z"/>
<path id="t" transform="scale(.0156)" d="m1959 3097q-462 0-731-361t-269-989 267-989q268-361 733-361 460 0 728 362 269 363 269 988 0 622-269 986-268 364-728 364zm0 487q750 0 1178-488 429-487 429-1349 0-859-429-1349-428-489-1178-489-753 0-1180 489-426 490-426 1349 0 862 426 1349 427 488 1180 488z"/>
<path id="af" transform="scale(.0156)" d="m269 3500h575l719-2731 715 2731h678l719-2731 716 2731h575l-916-3500h-678l-753 2869-756-2869h-679l-915 3500z"/>
</defs>
<use xlink:href="#ar"/>
<use transform="translate(143)" xlink:href="#DejaVuSans-20"/>
<use transform="translate(175)" xlink:href="#s"/>
<use transform="translate(227)" xlink:href="#x"/>
<use transform="translate(255)" xlink:href="#t"/>
<use transform="translate(316)" xlink:href="#af"/>
<use transform="translate(398)" xlink:href="#l"/>
<use transform="translate(460)" xlink:href="#q"/>
</g>
</g>
<g transform="translate(174 29.7) scale(.12 -.12)">
<defs>
<path id="an" transform="scale(.0156)" d="m628 4666h2950v-532h-2319v-1381h2222v-531h-2222v-1691h2375v-531h-3006v4666z"/>
<path id="z" transform="scale(.0156)" d="m3122 3366v-538q-244 135-489 202t-495 67q-560 0-870-355-309-354-309-995t309-996q310-354 870-354 250 0 495 67t489 202v-532q-241-112-499-168-257-57-548-57-791 0-1257 497-465 497-465 1341 0 856 470 1346 471 491 1290 491 265 0 518-55 253-54 491-163z"/>
<path id="at" transform="scale(.0156)" d="m3116 1747q0 634-261 995t-717 361q-457 0-718-361t-261-995 261-995 718-361q456 0 717 361t261 995zm-1957 1222q182 312 458 463 277 152 661 152 638 0 1036-506 399-506 399-1331t-399-1332q-398-506-1036-506-384 0-661 152-276 152-458 464v-525h-578v4863h578v-1894z"/>
<path id="ab" transform="scale(.0156)" d="m544 1381v2119h575v-2097q0-497 193-746 194-248 582-248 465 0 735 297 271 297 271 810v1984h575v-3500h-575v538q-209-319-486-474-276-155-642-155-603 0-916 375-312 375-312 1097zm1447 2203z"/>
<path id="u" transform="scale(.0156)" d="m603 3500h575v-3500h-575v3500zm0 1363h575v-729h-575v729z"/>
<path id="am" transform="scale(.0156)" d="m2906 2969v1894h575v-4863h-575v525q-181-312-458-464-276-152-664-152-634 0-1033 506-398 507-398 1332t398 1331q399 506 1033 506 388 0 664-152 277-151 458-463zm-1959-1222q0-634 261-995t717-361 718 361q263 361 263 995t-263 995q-262 361-718 361t-717-361-261-995z"/>
<path id="as" transform="scale(.0156)" d="m3513 2113v-2113h-575v2094q0 497-194 743-194 247-581 247-466 0-735-297-269-296-269-809v-1978h-578v4863h578v-1907q207 316 486 472 280 156 646 156 603 0 912-373 310-373 310-1098z"/>
<path id="aa" transform="scale(.0156)" d="m3513 2113v-2113h-575v2094q0 497-194 743-194 247-581 247-466 0-735-297-269-296-269-809v-1978h-578v3500h578v-544q207 316 486 472 280 156 646 156 603 0 912-373 310-373 310-1098z"/>
<path id="al" transform="scale(.0156)" d="m2906 1791q0 625-258 968-257 344-723 344-462 0-720-344-258-343-258-968 0-622 258-966t720-344q466 0 723 344 258 344 258 966zm575-1357q0-893-397-1329-396-436-1215-436-303 0-572 45t-522 139v559q253-137 500-202 247-66 503-66 566 0 847 295t281 892v285q-178-310-456-463t-666-153q-643 0-1037 490-394 491-394 1301 0 812 394 1302 394 491 1037 491 388 0 666-153t456-462v531h575v-3066z"/>
<path id="ac" transform="scale(.0156)" d="m191 3500h609l1094-2937 1094 2937h609l-1313-3500h-781l-1312 3500z"/>
<path id="ag" transform="scale(.0156)" d="m-19 4666h3947v-532h-1656v-4134h-634v4134h-1657v532z"/>
<path id="ap" transform="scale(.0156)" d="m1984 4856q-418-718-622-1422-203-703-203-1425 0-721 205-1429t620-1424h-500q-468 735-701 1444t-233 1409q0 697 231 1403 232 707 703 1444h500z"/>
<path id="w" transform="scale(.0156)" d="m3328 2828q216 388 516 572t706 184q547 0 844-383 297-382 297-1088v-2113h-578v2094q0 503-179 746-178 244-543 244-447 0-707-297-259-296-259-809v-1978h-578v2094q0 506-178 748t-550 242q-441 0-701-298-259-298-259-808v-1978h-578v3500h578v-544q197 322 472 475t653 153q382 0 649-194 267-193 395-562z"/>
<path id="ao" transform="scale(.0156)" d="m513 4856h500q468-737 701-1444 233-706 233-1403 0-700-233-1409t-701-1444h-500q415 716 620 1424t205 1429q0 722-205 1425-205 704-620 1422z"/>
</defs>
<use xlink:href="#an"/>
<use transform="translate(63.2)" xlink:href="#y"/>
<use transform="translate(98.4)" xlink:href="#y"/>
<use transform="translate(134)" xlink:href="#l"/>
<use transform="translate(195)" xlink:href="#z"/>
<use transform="translate(250)" xlink:href="#p"/>
<use transform="translate(289)" xlink:href="#DejaVuSans-20"/>
<use transform="translate(321)" xlink:href="#t"/>
<use transform="translate(382)" xlink:href="#y"/>
<use transform="translate(417)" xlink:href="#DejaVuSans-20"/>
<use transform="translate(449)" xlink:href="#at"/>
<use transform="translate(513)" xlink:href="#ab"/>
<use transform="translate(576)" xlink:href="#u"/>
<use transform="translate(604)" xlink:href="#x"/>
<use transform="translate(632)" xlink:href="#am"/>
<use transform="translate(695)" xlink:href="#DejaVuSans-20"/>
<use transform="translate(727)" xlink:href="#af"/>
<use transform="translate(809)" xlink:href="#u"/>
<use transform="translate(837)" xlink:href="#p"/>
<use transform="translate(876)" xlink:href="#as"/>
<use transform="translate(939)" xlink:href="#DejaVuSans-20"/>
<use transform="translate(971)" xlink:href="#x"/>
<use transform="translate(999)" xlink:href="#r"/>
<use transform="translate(1060)" xlink:href="#p"/>
<use transform="translate(1099)" xlink:href="#l"/>
<use transform="translate(1161)" xlink:href="#s"/>
<use transform="translate(1213)" xlink:href="#p"/>
<use transform="translate(1252)" xlink:href="#DejaVuSans-20"/>
<use transform="translate(1284)" xlink:href="#z"/>
<use transform="translate(1339)" xlink:href="#x"/>
<use transform="translate(1367)" xlink:href="#r"/>
<use transform="translate(1428)" xlink:href="#aa"/>
<use transform="translate(1491)" xlink:href="#al"/>
<use transform="translate(1555)" xlink:href="#DejaVuSans-20"/>
<use transform="translate(1586)" xlink:href="#r"/>
<use transform="translate(1648)" xlink:href="#aa"/>
<use transform="translate(1711)" xlink:href="#am"/>
<use transform="translate(1775)" xlink:href="#DejaVuSans-20"/>
<use transform="translate(1806)" xlink:href="#p"/>
<use transform="translate(1846)" xlink:href="#r"/>
<use transform="translate(1907)" xlink:href="#u"/>
<use transform="translate(1935)" xlink:href="#x"/>
<use transform="translate(1962)" xlink:href="#z"/>
<use transform="translate(2017)" xlink:href="#r"/>
<use transform="translate(2079)" xlink:href="#x"/>
<use transform="translate(2106)" xlink:href="#x"/>
<use transform="translate(2134)" xlink:href="#DejaVuSans-20"/>
<use transform="translate(2166)" xlink:href="#ac"/>
<use transform="translate(2225)" xlink:href="#s"/>
<use transform="translate(2277)" xlink:href="#m"/>
<use transform="translate(2309)" xlink:href="#DejaVuSans-20"/>
<use transform="translate(2341)" xlink:href="#ag"/>
<use transform="translate(2399)" xlink:href="#u"/>
<use transform="translate(2427)" xlink:href="#l"/>
<use transform="translate(2488)" xlink:href="#q"/>
<use transform="translate(2529)" xlink:href="#DejaVuSans-20"/>
<use transform="translate(2561)" xlink:href="#g"/>
<use transform="translate(2625)" xlink:href="#DejaVuSans-20"/>
<use transform="translate(2656)" xlink:href="#ap"/>
<use transform="translate(2696)" xlink:href="#s"/>
<use transform="translate(2748)" xlink:href="#r"/>
<use transform="translate(2809)" xlink:href="#w"/>
<use transform="translate(2906)" xlink:href="#l"/>
<use transform="translate(2968)" xlink:href="#DejaVuSans-20"/>
<use transform="translate(3e3)" xlink:href="#z"/>
<use transform="translate(3055)" xlink:href="#t"/>
<use transform="translate(3116)" xlink:href="#w"/>
<use transform="translate(3213)" xlink:href="#w"/>
<use transform="translate(3311)" xlink:href="#u"/>
<use transform="translate(3338)" xlink:href="#p"/>
<use transform="translate(3378)" xlink:href="#ao"/>
</g>
<path d="m47.6 73.1h82.6q2 0 2-2v-28.4q0-2-2-2h-82.6q-2 0-2 2v28.4q0 2 2 2z" fill="#fff" opacity=".8" stroke="#ccc"/>
<path d="m49.6 48.8h10 10" fill="none" stroke="#1f77b4" stroke-dasharray="1.5,2.475" stroke-opacity=".9" stroke-width="1.5"/>
<use x="59.645553" y="48.831032" fill="#1f77b4" fill-opacity=".9" stroke="#1f77b4" stroke-opacity=".9" xlink:href="#a"/>
<g transform="translate(77.6 52.3) scale(.1 -.1)">
<defs>
<path id="ak" transform="scale(.0156)" d="m3513 3500-1266-1703 1331-1797h-678l-1019 1375-1018-1375h-679l1360 1831-1244 1669h678l928-1247 928 1247h679z"/>
</defs>
<use xlink:href="#x"/>
<use transform="translate(27.8)" xlink:href="#u"/>
<use transform="translate(55.6)" xlink:href="#aa"/>
<use transform="translate(119)" xlink:href="#ab"/>
<use transform="translate(182)" xlink:href="#ak"/>
<use transform="translate(242)" xlink:href="#e"/>
<use transform="translate(275)" xlink:href="#ac"/>
<use transform="translate(334)" xlink:href="#ab"/>
<use transform="translate(398)" xlink:href="#x"/>
<use transform="translate(425)" xlink:href="#p"/>
<use transform="translate(465)" xlink:href="#q"/>
</g>
<path d="m49.6 63.5h10 10" fill="none" stroke="#2ca02c" stroke-linecap="square" stroke-opacity=".9" stroke-width="1.5"/>
<use x="59.645553" y="63.509158" fill="#2ca02c" fill-opacity=".9" stroke="#2ca02c" stroke-opacity=".9" xlink:href="#b"/>
<g transform="translate(77.6 67) scale(.1 -.1)">
<use xlink:href="#w"/>
<use transform="translate(97.4)" xlink:href="#r"/>
<use transform="translate(159)" xlink:href="#z"/>
<use transform="translate(214)" xlink:href="#t"/>
<use transform="translate(275)" xlink:href="#s"/>
</g>
<path d="m40.6 706h676v-316h-676z" fill="#fff"/>
<path d="m60.3 706v-316" clip-path="url(#j)" fill="none" stroke="#b0b0b0" stroke-linecap="square" stroke-width=".8"/>
<use x="60.25966" y="705.793205" stroke="#000000" stroke-width=".8" xlink:href="#f"/>
<g transform="translate(39.4 720) scale(.1 -.1)">
<use xlink:href="#d"/>
<use transform="translate(63.6)" xlink:href="#c"/>
<use transform="translate(127)" xlink:href="#d"/>
<use transform="translate(191)" xlink:href="#v"/>
<use transform="translate(254)" xlink:href="#e"/>
<use transform="translate(291)" xlink:href="#c"/>
<use transform="translate(354)" xlink:href="#ad"/>
</g>
<path d="m116 706v-316" clip-path="url(#j)" fill="none" stroke="#b0b0b0" stroke-linecap="square" stroke-width=".8"/>
<use x="116.19505" y="705.793205" stroke="#000000" stroke-width=".8" xlink:href="#f"/>
<g transform="translate(95.3 720) scale(.1 -.1)">
<use xlink:href="#d"/>
<use transform="translate(63.6)" xlink:href="#c"/>
<use transform="translate(127)" xlink:href="#d"/>
<use transform="translate(191)" xlink:href="#v"/>
<use transform="translate(254)" xlink:href="#e"/>
<use transform="translate(291)" xlink:href="#g"/>
<use transform="translate(354)" xlink:href="#c"/>
</g>
<path d="m174 706v-316" clip-path="url(#j)" fill="none" stroke="#b0b0b0" stroke-linecap="square" stroke-width=".8"/>
<use x="173.994953" y="705.793205" stroke="#000000" stroke-width=".8" xlink:href="#f"/>
<g transform="translate(153 720) scale(.1 -.1)">
<use xlink:href="#d"/>
<use transform="translate(63.6)" xlink:href="#c"/>
<use transform="translate(127)" xlink:href="#d"/>
<use transform="translate(191)" xlink:href="#v"/>
<use transform="translate(254)" xlink:href="#e"/>
<use transform="translate(291)" xlink:href="#g"/>
<use transform="translate(354)" xlink:href="#g"/>
</g>
<path d="m230 706v-316" clip-path="url(#j)" fill="none" stroke="#b0b0b0" stroke-linecap="square" stroke-width=".8"/>
<use x="229.930342" y="705.793205" stroke="#000000" stroke-width=".8" xlink:href="#f"/>
<g transform="translate(209 720) scale(.1 -.1)">
<use xlink:href="#d"/>
<use transform="translate(63.6)" xlink:href="#c"/>
<use transform="translate(127)" xlink:href="#d"/>
<use transform="translate(191)" xlink:href="#v"/>
<use transform="translate(254)" xlink:href="#e"/>
<use transform="translate(291)" xlink:href="#g"/>
<use transform="translate(354)" xlink:href="#d"/>
</g>
<path d="m288 706v-316" clip-path="url(#j)" fill="none" stroke="#b0b0b0" stroke-linecap="square" stroke-width=".8"/>
<use x="287.730245" y="705.793205" stroke="#000000" stroke-width=".8" xlink:href="#f"/>
<g transform="translate(267 720) scale(.1 -.1)">
<use xlink:href="#d"/>
<use transform="translate(63.6)" xlink:href="#c"/>
<use transform="translate(127)" xlink:href="#d"/>
<use transform="translate(191)" xlink:href="#h"/>
<use transform="translate(254)" xlink:href="#e"/>
<use transform="translate(291)" xlink:href="#c"/>
<use transform="translate(354)" xlink:href="#g"/>
</g>
<path d="m346 706v-316" clip-path="url(#j)" fill="none" stroke="#b0b0b0" stroke-linecap="square" stroke-width=".8"/>
<use x="345.530148" y="705.793205" stroke="#000000" stroke-width=".8" xlink:href="#f"/>
<g transform="translate(325 720) scale(.1 -.1)">
<use xlink:href="#d"/>
<use transform="translate(63.6)" xlink:href="#c"/>
<use transform="translate(127)" xlink:href="#d"/>
<use transform="translate(191)" xlink:href="#h"/>
<use transform="translate(254)" xlink:href="#e"/>
<use transform="translate(291)" xlink:href="#c"/>
<use transform="translate(354)" xlink:href="#d"/>
</g>
<path d="m398 706v-316" clip-path="url(#j)" fill="none" stroke="#b0b0b0" stroke-linecap="square" stroke-width=".8"/>
<use x="397.736511" y="705.793205" stroke="#000000" stroke-width=".8" xlink:href="#f"/>
<g transform="translate(377 720) scale(.1 -.1)">
<use xlink:href="#d"/>
<use transform="translate(63.6)" xlink:href="#c"/>
<use transform="translate(127)" xlink:href="#d"/>
<use transform="translate(191)" xlink:href="#h"/>
<use transform="translate(254)" xlink:href="#e"/>
<use transform="translate(291)" xlink:href="#c"/>
<use transform="translate(354)" xlink:href="#ae"/>
</g>
<path d="m456 706v-316" clip-path="url(#j)" fill="none" stroke="#b0b0b0" stroke-linecap="square" stroke-width=".8"/>
<use x="455.536414" y="705.793205" stroke="#000000" stroke-width=".8" xlink:href="#f"/>
<g transform="translate(435 720) scale(.1 -.1)">
<use xlink:href="#d"/>
<use transform="translate(63.6)" xlink:href="#c"/>
<use transform="translate(127)" xlink:href="#d"/>
<use transform="translate(191)" xlink:href="#h"/>
<use transform="translate(254)" xlink:href="#e"/>
<use transform="translate(291)" xlink:href="#c"/>
<use transform="translate(354)" xlink:href="#v"/>
</g>
<path d="m511 706v-316" clip-path="url(#j)" fill="none" stroke="#b0b0b0" stroke-linecap="square" stroke-width=".8"/>
<use x="511.471803" y="705.793205" stroke="#000000" stroke-width=".8" xlink:href="#f"/>
<g transform="translate(491 720) scale(.1 -.1)">
<use xlink:href="#d"/>
<use transform="translate(63.6)" xlink:href="#c"/>
<use transform="translate(127)" xlink:href="#d"/>
<use transform="translate(191)" xlink:href="#h"/>
<use transform="translate(254)" xlink:href="#e"/>
<use transform="translate(291)" xlink:href="#c"/>
<use transform="translate(354)" xlink:href="#h"/>
</g>
<path d="m569 706v-316" clip-path="url(#j)" fill="none" stroke="#b0b0b0" stroke-linecap="square" stroke-width=".8"/>
<use x="569.271706" y="705.793205" stroke="#000000" stroke-width=".8" xlink:href="#f"/>
<g transform="translate(548 720) scale(.1 -.1)">
<use xlink:href="#d"/>
<use transform="translate(63.6)" xlink:href="#c"/>
<use transform="translate(127)" xlink:href="#d"/>
<use transform="translate(191)" xlink:href="#h"/>
<use transform="translate(254)" xlink:href="#e"/>
<use transform="translate(291)" xlink:href="#c"/>
<use transform="translate(354)" xlink:href="#aj"/>
</g>
<path d="m625 706v-316" clip-path="url(#j)" fill="none" stroke="#b0b0b0" stroke-linecap="square" stroke-width=".8"/>
<use x="625.207096" y="705.793205" stroke="#000000" stroke-width=".8" xlink:href="#f"/>
<g transform="translate(604 720) scale(.1 -.1)">
<use xlink:href="#d"/>
<use transform="translate(63.6)" xlink:href="#c"/>
<use transform="translate(127)" xlink:href="#d"/>
<use transform="translate(191)" xlink:href="#h"/>
<use transform="translate(254)" xlink:href="#e"/>
<use transform="translate(291)" xlink:href="#c"/>
<use transform="translate(354)" xlink:href="#ai"/>
</g>
<path d="m683 706v-316" clip-path="url(#j)" fill="none" stroke="#b0b0b0" stroke-linecap="square" stroke-width=".8"/>
<use x="683.006998" y="705.793205" stroke="#000000" stroke-width=".8" xlink:href="#f"/>
<g transform="translate(662 720) scale(.1 -.1)">
<use xlink:href="#d"/>
<use transform="translate(63.6)" xlink:href="#c"/>
<use transform="translate(127)" xlink:href="#d"/>
<use transform="translate(191)" xlink:href="#h"/>
<use transform="translate(254)" xlink:href="#e"/>
<use transform="translate(291)" xlink:href="#c"/>
<use transform="translate(354)" xlink:href="#ah"/>
</g>
<path d="m40.6 673h676" clip-path="url(#j)" fill="none" stroke="#b0b0b0" stroke-linecap="square" stroke-width=".8"/>
<use x="40.645553" y="673.16728" stroke="#000000" stroke-width=".8" xlink:href="#n"/>
<g transform="translate(3 677) scale(.1 -.1)">
<use xlink:href="#c"/>
<use transform="translate(63.6)" xlink:href="#m"/>
<use transform="translate(95.4)" xlink:href="#aj"/>
<use transform="translate(159)" xlink:href="#c"/>
<use transform="translate(223)" xlink:href="#o"/>
</g>
<path d="m40.6 612h676" clip-path="url(#j)" fill="none" stroke="#b0b0b0" stroke-linecap="square" stroke-width=".8"/>
<use x="40.645553" y="612.222101" stroke="#000000" stroke-width=".8" xlink:href="#n"/>
<g transform="translate(3 616) scale(.1 -.1)">
<use xlink:href="#c"/>
<use transform="translate(63.6)" xlink:href="#m"/>
<use transform="translate(95.4)" xlink:href="#ai"/>
<use transform="translate(159)" xlink:href="#c"/>
<use transform="translate(223)" xlink:href="#o"/>
</g>
<path d="m40.6 551h676" clip-path="url(#j)" fill="none" stroke="#b0b0b0" stroke-linecap="square" stroke-width=".8"/>
<use x="40.645553" y="551.276922" stroke="#000000" stroke-width=".8" xlink:href="#n"/>
<g transform="translate(3 555) scale(.1 -.1)">
<use xlink:href="#c"/>
<use transform="translate(63.6)" xlink:href="#m"/>
<use transform="translate(95.4)" xlink:href="#ah"/>
<use transform="translate(159)" xlink:href="#c"/>
<use transform="translate(223)" xlink:href="#o"/>
</g>
<path d="m40.6 490h676" clip-path="url(#j)" fill="none" stroke="#b0b0b0" stroke-linecap="square" stroke-width=".8"/>
<use x="40.645553" y="490.331743" stroke="#000000" stroke-width=".8" xlink:href="#n"/>
<g transform="translate(3 494) scale(.1 -.1)">
<use xlink:href="#c"/>
<use transform="translate(63.6)" xlink:href="#m"/>
<use transform="translate(95.4)" xlink:href="#ad"/>
<use transform="translate(159)" xlink:href="#c"/>
<use transform="translate(223)" xlink:href="#o"/>
</g>
<path d="m40.6 429h676" clip-path="url(#j)" fill="none" stroke="#b0b0b0" stroke-linecap="square" stroke-width=".8"/>
<use x="40.645553" y="429.386564" stroke="#000000" stroke-width=".8" xlink:href="#n"/>
<g transform="translate(3 433) scale(.1 -.1)">
<use xlink:href="#g"/>
<use transform="translate(63.6)" xlink:href="#m"/>
<use transform="translate(95.4)" xlink:href="#c"/>
<use transform="translate(159)" xlink:href="#c"/>
<use transform="translate(223)" xlink:href="#o"/>
</g>
<g stroke="#1f77b4" stroke-opacity=".9">
<path d="m71.4 624 25.5 26 15.6-13.8 11.9 6.09 14.1 36.6 11.3 12.2h3.65l1.98-6.09h1.72l2.08 6.09 1.89-12.2 1.43 12.2 2.13-6.09h5.79l1.86-6.09h1.67l1.98 6.09 1.4-6.09 2.19 6.09 1.82-12.2 2.11 6.09 1.76-6.09 0.951 6.09 0.951-6.09 1.38 6.09h2.35l1.77-6.09 2.05 6.09h1.65l2.05-6.09 1.91-6.09 1.77 12.2 1.94 6.09 0.141-6.09 1.69-12.2 1.9 6.09h1.64l1.99-6.09 2-60.9 1.82-30.5 1.68-6.09 1.94 6.09 1.78 22.7 1.88-0.403 1.36 1.88 0.645 2.77 1.36-3.69 1.81-2.96 0.366 1.67 1.68-3.88 1.93 4.29 2.18 10.9 1.93-16.2 1.41 4.63 0.459-1.14 1.65-2.31 0.535-5.43 1.33 1.82 1.58 1.46 0.931 3.5 0.996 0.317 1.84-4.38 2.3 6.91 1.36-0.511 0.441 0.168 0.937-0.527 0.811 2.15 1.44-3.9 0.15-2.32 1.64-2.14 2.47 3.66 1.69-1.53 2.04 0.302 0.54-2.79 0.725 1.03 2.49-12.1 1.56 3.51 3.68-0.256 2.04-13.6 1.65 2.85 1.8 2.25 2.19-6.15 1.88 2.68 1.78 4.01 1.94-0.399 1.77-3.35 1.9 7.05 1.93-4.63 1.62-1.23 2.08-1.9 2.01-0.749 1.73 7.61 1.99-1.62 1.71-4.96 3.58 0.851 1.57-1.77 0.71 2.06 1.43-3.58 2.15 3.39 1.38-1.18 2.55-47.8 1.51-15.8 1.5-1.83 0.576 1.2 1.77 5.3 1.8 0.1 2.04 2.24 1.85 12.1 1.83-2.99 0.147 3.16 0.972-4.65 0.81 4.68 1.21-13.1 0.593 5.08 1.79-3.28 1.54-3.07 1.92-0.0838 2.27 11 0.891 2.52 0.971-1.11 1.85-13.2 1.74 0.443 1.5-17.5 1.8 7.03 1.82-0.337 0.548-0.844 1.35 9.17 2.35 0.263 1.6-7.5 2.17 2.52 1.79 9.53 1.94-3.87 1.85-1.93 1.73 4.23 2.04-5.27 1.8 2.1 1.42-1.3 0.106-2.68 2.06 0.962 1.68 2.87 2.26-1.3 1.55-1.27 2.15-4.05 1.71 1.21 2.04 1.19 1.39-3.09 1.86 3.54 2.36-0.785 1.65-2.08 0.717 5.6 0.202-0.373 0.906 2.31 1.37-0.606 0.547-0.757 2 12.4 1.55-8.15 0.192-2.48 1.82-3.89 1.86 11.5 0.363-7.34 1.63 3.9 1.87-6.31 1.86 2.13 1.92-3.66 1.67 3.46 1.9-1.8 1.75 9.34 1.4-26 0.704-1.14 1.87-5.22 1.75 5.93 1.72 2.62 0.247-2.36 1.73 2.42 1.67-1.84 2.11-2.69 1.5 2.84 0.402 6.36 1.16-5.06 0.785-7.59 1.88 1.58 1.88 2.92 1.84 7.68 1.8-0.821 1.22-1.69 2.43 1.2 0.12 2.93 0.936-2.74 0.954 2.22 1.49 1.89 0.0199 37.3 0.279 1.33 1.59 0.0281 2.24-3.65 1.65 1.87 2.01 4.09 1.72-4.68 0.276 0.301 1.8-19.2 1.86-2.67 1.61-0.512 2.03-1.62 1.89 6.98 1.92-1.34 1.39-1.67 0.539-3.54 1.46 4.01 0.302-0.36 1.44-16.5 0.446 4.25 1.12-26.8 0.668-3.45 1.77 7.12 1.98 1.52 1.94-1.82 1.91-4.31 1.74-2.06 1.8 1.21 0.468 3.11 1.31-4.98 2.01 1.84 1.53 3.24 2.27 1.76 1.85-1.98 1.9-0.426 1.87 1.79 1.92 0.527 1.61-1.53 1.98 4.19 1.9-2.71 1.88-4 0.738 0.823 1.2 3.45 1.81-1.05 1.79 4.84 1.14 1.46 0.791-4.31 1.63-0.511 2.11-0.919 1.89 1.4 0.934 7.66 2.8-2.9 1.88 0.389 1.55-1.25 2.05-3.64 1.33 1.86 2.37 1.85 1.51-2.54 1.88-0.334 2.26 6.12 1.67-5.44 2.01-0.9 3.85 4.92 1.86 1.45 1.9-3.66 1.76-1.85 1.78-1.53 1.12 3.1 2.7-4.61 1.76 1.81 1.76 0.267 2.09-1.84 1.73 0.227 1.64 2.5 2.09-5.69 1.4 6.84 2.49-0.46 1.38-2.36 2.3 4.66 1.46-5.71 2.32-2.47 1.66 3.63 1.97 3.84 1.99-4.43 1.05 0.497 2.64-0.242 1.83 0.965 1.83 1.68 1.34 1.59 2.13-3.48 2.18 2.06 1.86-0.0792 1.89-2.13 1.67 3.67 1.97-4.56 1.38-2.69 2.14 1.46 2.14 3.88 1.72-3.82 1.55 6.28 2.36-7.63 1.27 1.99 1.62 2.1 2.55-2.68 3.37 6.41 1.89-2.29 2.12 0.275 1.46-1.43 2.41 2.04 1.93-1.89 1.42 5.45 2.16-2.99 2.02-1.08 1.87 1.5 1.75-1.26 1.54 1.82 2.04-1.41 2.14-0.244 1.29-0.298 1.93 0.303 1.92-2.66 1.71-2.68 2.14 5.91 2.16-1.42 1.9 2.14 3.33 1.67 2.02-4.2 1.48 4.31 1.96-1.22 2.09-1.64 1.83-1.19 1.77 2.6 2.2-0.965 1.36-0.339 1.98 3.85 1.71-3.35" clip-path="url(#j)" fill="none" stroke-dasharray="1.5,2.475" stroke-width="1.5"/>
<g clip-path="url(#j)" fill="#1f77b4" fill-opacity=".9">
<use x="71.388926" y="624.411136" xlink:href="#a"/>
<use x="96.899693" y="650.438901" xlink:href="#a"/>
<use x="112.486374" y="636.600172" xlink:href="#a"/>
<use x="124.425753" y="642.69469" xlink:href="#a"/>
<use x="138.488216" y="679.261797" xlink:href="#a"/>
<use x="149.763017" y="691.450833" xlink:href="#a"/>
<use x="151.6039" y="691.450833" xlink:href="#a"/>
<use x="153.418002" y="691.450833" xlink:href="#a"/>
<use x="155.398399" y="685.356315" xlink:href="#a"/>
<use x="157.113816" y="685.356315" xlink:href="#a"/>
<use x="159.192683" y="691.450833" xlink:href="#a"/>
<use x="161.08743" y="679.261797" xlink:href="#a"/>
<use x="162.516739" y="691.450833" xlink:href="#a"/>
<use x="164.647161" y="685.356315" xlink:href="#a"/>
<use x="166.531463" y="685.356315" xlink:href="#a"/>
<use x="168.392739" y="685.356315" xlink:href="#a"/>
<use x="170.438373" y="685.356315" xlink:href="#a"/>
<use x="172.302152" y="679.261797" xlink:href="#a"/>
<use x="173.97497" y="679.261797" xlink:href="#a"/>
<use x="175.951353" y="685.356315" xlink:href="#a"/>
<use x="177.35004" y="679.261797" xlink:href="#a"/>
<use x="179.540347" y="685.356315" xlink:href="#a"/>
<use x="181.359973" y="673.16728" xlink:href="#a"/>
<use x="183.464995" y="679.261797" xlink:href="#a"/>
<use x="185.225752" y="673.16728" xlink:href="#a"/>
<use x="186.17702" y="679.261797" xlink:href="#a"/>
<use x="187.128353" y="673.16728" xlink:href="#a"/>
<use x="188.506885" y="679.261797" xlink:href="#a"/>
<use x="189.345527" y="679.261797" xlink:href="#a"/>
<use x="190.855243" y="679.261797" xlink:href="#a"/>
<use x="192.620574" y="673.16728" xlink:href="#a"/>
<use x="194.675078" y="679.261797" xlink:href="#a"/>
<use x="196.322064" y="679.261797" xlink:href="#a"/>
<use x="198.369748" y="673.16728" xlink:href="#a"/>
<use x="200.283075" y="667.072762" xlink:href="#a"/>
<use x="202.052097" y="679.261797" xlink:href="#a"/>
<use x="203.99214" y="685.356315" xlink:href="#a"/>
<use x="204.132755" y="679.261797" xlink:href="#a"/>
<use x="205.825923" y="667.072762" xlink:href="#a"/>
<use x="207.726064" y="673.16728" xlink:href="#a"/>
<use x="209.36826" y="673.16728" xlink:href="#a"/>
<use x="211.356168" y="667.072762" xlink:href="#a"/>
<use x="212.9456" y="617.65062" xlink:href="#a"/>
<use x="213.351952" y="606.127583" xlink:href="#a"/>
<use x="214.868034" y="581.749511" xlink:href="#a"/>
<use x="215.173305" y="575.654993" xlink:href="#a"/>
<use x="216.854172" y="569.560475" xlink:href="#a"/>
<use x="218.798725" y="575.654993" xlink:href="#a"/>
<use x="220.574134" y="598.355971" xlink:href="#a"/>
<use x="222.454293" y="597.953438" xlink:href="#a"/>
<use x="223.812172" y="599.83082" xlink:href="#a"/>
<use x="224.45709" y="602.597045" xlink:href="#a"/>
<use x="225.816955" y="598.904224" xlink:href="#a"/>
<use x="227.62646" y="595.947943" xlink:href="#a"/>
<use x="227.992867" y="597.617484" xlink:href="#a"/>
<use x="229.670929" y="593.735874" xlink:href="#a"/>
<use x="231.599923" y="598.023762" xlink:href="#a"/>
<use x="233.776418" y="608.882181" xlink:href="#a"/>
<use x="235.705175" y="592.68274" xlink:href="#a"/>
<use x="237.117587" y="597.31241" xlink:href="#a"/>
<use x="237.57627" y="596.168738" xlink:href="#a"/>
<use x="239.226644" y="593.857852" xlink:href="#a"/>
<use x="239.761829" y="588.427535" xlink:href="#a"/>
<use x="241.091201" y="590.251481" xlink:href="#a"/>
<use x="242.669498" y="591.712087" xlink:href="#a"/>
<use x="243.600028" y="595.208485" xlink:href="#a"/>
<use x="244.595989" y="595.525273" xlink:href="#a"/>
<use x="246.440821" y="591.147401" xlink:href="#a"/>
<use x="248.743688" y="598.056294" xlink:href="#a"/>
<use x="249.777457" y="597.719603" xlink:href="#a"/>
<use x="250.100273" y="597.54522" xlink:href="#a"/>
<use x="250.541454" y="597.713197" xlink:href="#a"/>
<use x="251.478847" y="597.18612" xlink:href="#a"/>
<use x="252.290299" y="599.336633" xlink:href="#a"/>
<use x="253.731066" y="595.434782" xlink:href="#a"/>
<use x="253.880616" y="593.117076" xlink:href="#a"/>
<use x="255.523135" y="590.980719" xlink:href="#a"/>
<use x="257.997758" y="594.641602" xlink:href="#a"/>
<use x="259.684344" y="593.112269" xlink:href="#a"/>
<use x="261.726957" y="593.413929" xlink:href="#a"/>
<use x="262.26704" y="590.622531" xlink:href="#a"/>
<use x="262.992452" y="591.650189" xlink:href="#a"/>
<use x="265.483886" y="579.539529" xlink:href="#a"/>
<use x="267.040582" y="583.047363" xlink:href="#a"/>
<use x="270.71883" y="582.791181" xlink:href="#a"/>
<use x="272.759479" y="569.219985" xlink:href="#a"/>
<use x="274.406034" y="572.067775" xlink:href="#a"/>
<use x="276.209195" y="574.319811" xlink:href="#a"/>
<use x="278.399415" y="568.168418" xlink:href="#a"/>
<use x="280.283868" y="570.851548" xlink:href="#a"/>
<use x="282.066226" y="574.857086" xlink:href="#a"/>
<use x="284.010542" y="574.458054" xlink:href="#a"/>
<use x="285.777772" y="571.107823" xlink:href="#a"/>
<use x="287.681755" y="578.159393" xlink:href="#a"/>
<use x="289.609627" y="573.529708" xlink:href="#a"/>
<use x="291.229962" y="572.300002" xlink:href="#a"/>
<use x="293.309261" y="570.398418" xlink:href="#a"/>
<use x="295.31618" y="569.649737" xlink:href="#a"/>
<use x="297.050889" y="577.260072" xlink:href="#a"/>
<use x="299.045184" y="575.644787" xlink:href="#a"/>
<use x="300.759306" y="570.687503" xlink:href="#a"/>
<use x="304.336819" y="571.538998" xlink:href="#a"/>
<use x="305.902449" y="569.765076" xlink:href="#a"/>
<use x="306.612582" y="571.822073" xlink:href="#a"/>
<use x="308.042798" y="568.243299" xlink:href="#a"/>
<use x="310.194584" y="571.633433" xlink:href="#a"/>
<use x="311.578121" y="570.455168" xlink:href="#a"/>
<use x="313.933364" y="524.386264" xlink:href="#a"/>
<use x="314.129979" y="522.607864" xlink:href="#a"/>
<use x="315.638357" y="506.845419" xlink:href="#a"/>
<use x="317.138125" y="505.02002" xlink:href="#a"/>
<use x="317.714031" y="506.222665" xlink:href="#a"/>
<use x="319.483009" y="511.517916" xlink:href="#a"/>
<use x="321.282545" y="511.618179" xlink:href="#a"/>
<use x="323.318317" y="513.856728" xlink:href="#a"/>
<use x="325.167529" y="525.919196" xlink:href="#a"/>
<use x="326.999651" y="522.925746" xlink:href="#a"/>
<use x="327.147107" y="526.089117" xlink:href="#a"/>
<use x="328.118639" y="521.438436" xlink:href="#a"/>
<use x="328.928774" y="526.115573" xlink:href="#a"/>
<use x="330.139996" y="513.029971" xlink:href="#a"/>
<use x="330.732928" y="518.107573" xlink:href="#a"/>
<use x="332.519818" y="514.829282" xlink:href="#a"/>
<use x="334.058408" y="511.763649" xlink:href="#a"/>
<use x="335.975123" y="511.679886" xlink:href="#a"/>
<use x="338.24398" y="522.675348" xlink:href="#a"/>
<use x="339.134782" y="525.197923" xlink:href="#a"/>
<use x="340.106033" y="524.092178" xlink:href="#a"/>
<use x="341.959756" y="510.878753" xlink:href="#a"/>
<use x="343.697832" y="511.322078" xlink:href="#a"/>
<use x="345.195528" y="493.869335" xlink:href="#a"/>
<use x="346.992949" y="500.901771" xlink:href="#a"/>
<use x="348.8151" y="500.56431" xlink:href="#a"/>
<use x="349.36265" y="499.720714" xlink:href="#a"/>
<use x="350.712199" y="508.887595" xlink:href="#a"/>
<use x="353.065089" y="509.151013" xlink:href="#a"/>
<use x="354.669498" y="501.649981" xlink:href="#a"/>
<use x="356.842929" y="504.166302" xlink:href="#a"/>
<use x="358.633401" y="513.697459" xlink:href="#a"/>
<use x="360.569862" y="509.826404" xlink:href="#a"/>
<use x="362.424016" y="507.893733" xlink:href="#a"/>
<use x="364.157927" y="512.125742" xlink:href="#a"/>
<use x="366.194066" y="506.858415" xlink:href="#a"/>
<use x="367.993968" y="508.95485" xlink:href="#a"/>
<use x="369.418486" y="507.653729" xlink:href="#a"/>
<use x="369.524164" y="504.977031" xlink:href="#a"/>
<use x="371.583803" y="505.939017" xlink:href="#a"/>
<use x="373.266591" y="508.806791" xlink:href="#a"/>
<use x="375.527011" y="507.511379" xlink:href="#a"/>
<use x="377.079434" y="506.241841" xlink:href="#a"/>
<use x="379.227379" y="502.18964" xlink:href="#a"/>
<use x="380.935933" y="503.403576" xlink:href="#a"/>
<use x="382.974445" y="504.590898" xlink:href="#a"/>
<use x="384.366874" y="501.505521" xlink:href="#a"/>
<use x="386.23184" y="505.040637" xlink:href="#a"/>
<use x="388.596017" y="504.255986" xlink:href="#a"/>
<use x="390.246089" y="502.179666" xlink:href="#a"/>
<use x="390.963517" y="507.775455" xlink:href="#a"/>
<use x="391.165139" y="507.40219" xlink:href="#a"/>
<use x="392.071046" y="509.713142" xlink:href="#a"/>
<use x="393.441204" y="509.107523" xlink:href="#a"/>
<use x="393.987804" y="508.350728" xlink:href="#a"/>
<use x="395.99263" y="520.772015" xlink:href="#a"/>
<use x="397.541428" y="512.625884" xlink:href="#a"/>
<use x="397.733663" y="510.142721" xlink:href="#a"/>
<use x="399.556526" y="506.251518" xlink:href="#a"/>
<use x="401.415774" y="517.729802" xlink:href="#a"/>
<use x="401.778555" y="510.386423" xlink:href="#a"/>
<use x="403.405861" y="514.282452" xlink:href="#a"/>
<use x="405.277517" y="507.976815" xlink:href="#a"/>
<use x="407.136678" y="510.105522" xlink:href="#a"/>
<use x="409.054429" y="506.450263" xlink:href="#a"/>
<use x="410.723405" y="509.906301" xlink:href="#a"/>
<use x="412.622943" y="508.105454" xlink:href="#a"/>
<use x="414.373902" y="517.44436" xlink:href="#a"/>
<use x="415.769114" y="491.490558" xlink:href="#a"/>
<use x="416.473421" y="490.351908" xlink:href="#a"/>
<use x="418.347105" y="485.127413" xlink:href="#a"/>
<use x="420.09241" y="491.057074" xlink:href="#a"/>
<use x="421.812402" y="493.675979" xlink:href="#a"/>
<use x="422.05891" y="491.317653" xlink:href="#a"/>
<use x="423.792368" y="493.739398" xlink:href="#a"/>
<use x="425.464668" y="491.903899" xlink:href="#a"/>
<use x="427.571891" y="489.21173" xlink:href="#a"/>
<use x="429.075651" y="492.049713" xlink:href="#a"/>
<use x="429.478054" y="498.404756" xlink:href="#a"/>
<use x="430.638972" y="493.344344" xlink:href="#a"/>
<use x="431.4236" y="485.753455" xlink:href="#a"/>
<use x="433.300046" y="487.338331" xlink:href="#a"/>
<use x="435.181737" y="490.259334" xlink:href="#a"/>
<use x="437.017937" y="497.940895" xlink:href="#a"/>
<use x="438.813977" y="497.119599" xlink:href="#a"/>
<use x="440.032535" y="495.433027" xlink:href="#a"/>
<use x="442.46348" y="496.628216" xlink:href="#a"/>
<use x="442.583034" y="499.557969" xlink:href="#a"/>
<use x="443.519067" y="496.821843" xlink:href="#a"/>
<use x="444.473184" y="499.044271" xlink:href="#a"/>
<use x="445.961276" y="500.932351" xlink:href="#a"/>
<use x="445.98113" y="538.278877" xlink:href="#a"/>
<use x="446.260548" y="539.612864" xlink:href="#a"/>
<use x="447.854189" y="539.640937" xlink:href="#a"/>
<use x="450.096028" y="535.987248" xlink:href="#a"/>
<use x="451.750158" y="537.854758" xlink:href="#a"/>
<use x="453.759192" y="541.945077" xlink:href="#a"/>
<use x="455.475925" y="537.263433" xlink:href="#a"/>
<use x="455.751977" y="537.564716" xlink:href="#a"/>
<use x="457.549937" y="518.405415" xlink:href="#a"/>
<use x="459.407889" y="515.739586" xlink:href="#a"/>
<use x="461.016636" y="515.227485" xlink:href="#a"/>
<use x="463.043258" y="513.603294" xlink:href="#a"/>
<use x="464.931509" y="520.581321" xlink:href="#a"/>
<use x="466.848246" y="519.239165" xlink:href="#a"/>
<use x="468.235689" y="517.5684" xlink:href="#a"/>
<use x="468.774197" y="514.027143" xlink:href="#a"/>
<use x="470.229812" y="518.035981" xlink:href="#a"/>
<use x="470.532277" y="517.676184" xlink:href="#a"/>
<use x="471.972873" y="501.203162" xlink:href="#a"/>
<use x="472.41919" y="505.455886" xlink:href="#a"/>
<use x="473.536323" y="478.690573" xlink:href="#a"/>
<use x="474.204267" y="475.239693" xlink:href="#a"/>
<use x="475.974907" y="482.362308" xlink:href="#a"/>
<use x="477.956492" y="483.878624" xlink:href="#a"/>
<use x="479.895154" y="482.059533" xlink:href="#a"/>
<use x="481.801575" y="477.750003" xlink:href="#a"/>
<use x="483.54537" y="475.687439" xlink:href="#a"/>
<use x="485.349135" y="476.901778" xlink:href="#a"/>
<use x="485.8174" y="480.007598" xlink:href="#a"/>
<use x="487.127695" y="475.027153" xlink:href="#a"/>
<use x="489.133298" y="476.865229" xlink:href="#a"/>
<use x="490.666104" y="480.103711" xlink:href="#a"/>
<use x="492.932178" y="481.866369" xlink:href="#a"/>
<use x="494.779104" y="479.881851" xlink:href="#a"/>
<use x="496.681727" y="479.456186" xlink:href="#a"/>
<use x="498.550211" y="481.242132" xlink:href="#a"/>
<use x="500.473097" y="481.769621" xlink:href="#a"/>
<use x="502.085426" y="480.239012" xlink:href="#a"/>
<use x="504.069924" y="484.43261" xlink:href="#a"/>
<use x="505.974339" y="481.720712" xlink:href="#a"/>
<use x="507.851239" y="477.72117" xlink:href="#a"/>
<use x="508.58921" y="478.544143" xlink:href="#a"/>
<use x="509.791001" y="481.992616" xlink:href="#a"/>
<use x="511.60055" y="480.938089" xlink:href="#a"/>
<use x="513.390353" y="485.775228" xlink:href="#a"/>
<use x="514.533942" y="487.237821" xlink:href="#a"/>
<use x="515.324483" y="482.924046" xlink:href="#a"/>
<use x="516.95317" y="482.413298" xlink:href="#a"/>
<use x="519.067557" y="481.49381" xlink:href="#a"/>
<use x="520.954816" y="482.895153" xlink:href="#a"/>
<use x="521.888907" y="490.558479" xlink:href="#a"/>
<use x="524.685374" y="487.659509" xlink:href="#a"/>
<use x="526.566374" y="488.04895" xlink:href="#a"/>
<use x="528.119315" y="486.796099" xlink:href="#a"/>
<use x="530.165208" y="483.151326" xlink:href="#a"/>
<use x="531.493824" y="485.008064" xlink:href="#a"/>
<use x="533.860116" y="486.85516" xlink:href="#a"/>
<use x="535.372465" y="484.315466" xlink:href="#a"/>
<use x="537.25627" y="483.981403" xlink:href="#a"/>
<use x="539.517316" y="490.105253" xlink:href="#a"/>
<use x="541.186487" y="484.665412" xlink:href="#a"/>
<use x="543.200463" y="483.765626" xlink:href="#a"/>
<use x="544.827293" y="485.887427" xlink:href="#a"/>
<use x="547.051761" y="488.686087" xlink:href="#a"/>
<use x="548.909865" y="490.135126" xlink:href="#a"/>
<use x="550.805259" y="486.478779" xlink:href="#a"/>
<use x="552.562217" y="484.628329" xlink:href="#a"/>
<use x="554.344834" y="483.094741" xlink:href="#a"/>
<use x="555.468268" y="486.196056" xlink:href="#a"/>
<use x="558.168963" y="481.58521" xlink:href="#a"/>
<use x="559.927885" y="483.399535" xlink:href="#a"/>
<use x="561.685814" y="483.666955" xlink:href="#a"/>
<use x="563.776119" y="481.825107" xlink:href="#a"/>
<use x="565.507375" y="482.052484" xlink:href="#a"/>
<use x="567.144974" y="484.547771" xlink:href="#a"/>
<use x="569.23679" y="478.860261" xlink:href="#a"/>
<use x="570.638972" y="485.701621" xlink:href="#a"/>
<use x="573.131075" y="485.241126" xlink:href="#a"/>
<use x="574.514311" y="482.884054" xlink:href="#a"/>
<use x="576.817761" y="487.547299" xlink:href="#a"/>
<use x="578.275685" y="481.832642" xlink:href="#a"/>
<use x="580.594371" y="479.363203" xlink:href="#a"/>
<use x="582.256917" y="482.998084" xlink:href="#a"/>
<use x="584.224863" y="486.8366" xlink:href="#a"/>
<use x="586.218705" y="482.407366" xlink:href="#a"/>
<use x="587.267537" y="482.904259" xlink:href="#a"/>
<use x="589.905391" y="482.662626" xlink:href="#a"/>
<use x="591.737965" y="483.62774" xlink:href="#a"/>
<use x="593.572288" y="485.311524" xlink:href="#a"/>
<use x="594.914284" y="486.89901" xlink:href="#a"/>
<use x="597.044706" y="483.414533" xlink:href="#a"/>
<use x="599.228193" y="485.472413" xlink:href="#a"/>
<use x="601.092771" y="485.39323" xlink:href="#a"/>
<use x="602.984734" y="483.258281" xlink:href="#a"/>
<use x="604.654768" y="486.930708" xlink:href="#a"/>
<use x="606.621009" y="482.370239" xlink:href="#a"/>
<use x="608.003446" y="479.676961" xlink:href="#a"/>
<use x="610.141615" y="481.133577" xlink:href="#a"/>
<use x="612.280453" y="485.008771" xlink:href="#a"/>
<use x="613.996301" y="481.190089" xlink:href="#a"/>
<use x="615.547883" y="487.469263" xlink:href="#a"/>
<use x="617.90483" y="479.843051" xlink:href="#a"/>
<use x="619.171684" y="481.834166" xlink:href="#a"/>
<use x="620.793789" y="483.931772" xlink:href="#a"/>
<use x="623.347805" y="481.252426" xlink:href="#a"/>
<use x="625.202154" y="484.798968" xlink:href="#a"/>
<use x="626.717114" y="487.661533" xlink:href="#a"/>
<use x="628.604286" y="485.374883" xlink:href="#a"/>
<use x="630.728147" y="485.650342" xlink:href="#a"/>
<use x="632.191251" y="484.21616" xlink:href="#a"/>
<use x="634.600141" y="486.257054" xlink:href="#a"/>
<use x="636.529264" y="484.364875" xlink:href="#a"/>
<use x="637.948517" y="489.815693" xlink:href="#a"/>
<use x="640.110144" y="486.821531" xlink:href="#a"/>
<use x="642.125674" y="485.74011" xlink:href="#a"/>
<use x="643.993553" y="487.237124" xlink:href="#a"/>
<use x="645.748051" y="485.980211" xlink:href="#a"/>
<use x="647.290008" y="487.800823" xlink:href="#a"/>
<use x="649.326384" y="486.390884" xlink:href="#a"/>
<use x="651.468157" y="486.146735" xlink:href="#a"/>
<use x="652.763087" y="485.84863" xlink:href="#a"/>
<use x="654.68906" y="486.151848" xlink:href="#a"/>
<use x="656.606228" y="483.488197" xlink:href="#a"/>
<use x="658.312257" y="480.81267" xlink:href="#a"/>
<use x="660.456534" y="486.727345" xlink:href="#a"/>
<use x="662.619757" y="485.304192" xlink:href="#a"/>
<use x="664.515324" y="487.441874" xlink:href="#a"/>
<use x="666.107044" y="488.215213" xlink:href="#a"/>
<use x="667.845206" y="489.116795" xlink:href="#a"/>
<use x="669.864793" y="484.91928" xlink:href="#a"/>
<use x="671.341988" y="489.229527" xlink:href="#a"/>
<use x="673.298389" y="488.007052" xlink:href="#a"/>
<use x="675.392448" y="486.364948" xlink:href="#a"/>
<use x="677.226576" y="485.172275" xlink:href="#a"/>
<use x="679.000669" y="487.773302" xlink:href="#a"/>
<use x="681.205024" y="486.808151" xlink:href="#a"/>
<use x="682.563464" y="486.469179" xlink:href="#a"/>
<use x="684.5422" y="490.322214" xlink:href="#a"/>
<use x="686.256387" y="486.971903" xlink:href="#a"/>
</g>
</g>
<g stroke="#2ca02c" stroke-opacity=".9">
<path d="m71.4 591 294-104 57.6-7.33 6.18-1.13 1.16 2.85 0.785-0.959 1.88 0.204 1.88-29.5 1.84 33.1 1.8-33.4 1.22 30.5 2.55-44 0.936 2.94 0.954 11 1.79 27.4 1.59-27.5 2.24-46 1.65 1.05 3.73 82 2.07-14.9 1.86-29 1.61-7.7 2.03-6.37 1.89-2.4 1.92 2.45 1.93-0.568 1.76-1.12 1.89 2.18 1.12 2.63 0.668-2.8 1.77 3.97 1.98 0.752 1.94-1.94 1.91 0.798 3.55 1.78 1.78-0.887 2.01-9.97 1.53-6.25 4.11 5.35 1.9-6.83 1.87 25.2 1.92-0.256 7.38-2.64 0.738-4.58 1.2 0.921 1.81-7.33 1.79 10.6 1.93 3.57 1.63 1.29 2.11-2.7 1.89-7.47 0.934 10.4 2.8-11.6 1.88 10.2 1.55-8.52 2.05 1.66 1.33 0.0716 2.37 2.58 1.51-0.47 1.88 1.17 2.26 5.61 1.67-5.4 2.01 3.47 1.63 1.93 2.22 1.3 1.86 0.0324 1.9-12 1.76 5.23 1.78 3.56 1.12-4.21 2.7-3.03 1.76-3.31 1.76-2.3 2.09 10.9 1.73-2.75 1.64 0.388 2.09-0.668 1.4 2.84 2.49 1.94 1.38-0.0635 2.3 2.67 1.46-2.05 2.32-7.08 1.66 5.53 1.97 3.77 1.99-3.14 1.05-0.148 2.64 2.78 1.83-3.05 1.83-0.572 1.34-1.64 2.13 2.77 2.18-4.18 1.86-0.568 1.89 3.6 1.67-2.59 1.97-4.23 1.38 0.346 2.14 0.317 2.14 1.48 1.72-7.54 1.55-3.67 2.36 2.49 1.27-0.502 1.62 1.16 2.55-1.89 1.85 9.54 1.51-9.56 1.89 11.4 2.12-14.2 1.46 2.02 2.41-0.872 1.93 1.94 1.42 3.21 2.16 5.63 2.02-0.279 1.87-7.34 1.75-2.61 1.54 11.2 2.04-7.74 2.14 2.36 1.29-7.25 1.93 7.55 1.92 1.55 1.71 5.43 2.14-15.3 2.16 4.06 1.9 8.32 1.59-5.12 1.74-0.451 2.02 3.71 1.48-1.89 1.96 3.53 2.09-1.38 1.83 7.74 1.77-5.94 2.2 3.94 1.36-10.3 1.98 12.5 1.71-5.91v0" clip-path="url(#j)" fill="none" stroke-linecap="square" stroke-width="1.5"/>
<g clip-path="url(#j)" fill="#2ca02c" fill-opacity=".9">
<use x="71.388926" y="590.825897" xlink:href="#b"/>
<use x="365.672693" y="486.423282" xlink:href="#b"/>
<use x="423.302394" y="479.090914" xlink:href="#b"/>
<use x="429.478054" y="477.956888" xlink:href="#b"/>
<use x="430.638972" y="480.802795" xlink:href="#b"/>
<use x="431.4236" y="479.843732" xlink:href="#b"/>
<use x="433.300046" y="480.04808" xlink:href="#b"/>
<use x="435.181737" y="450.533416" xlink:href="#b"/>
<use x="437.017937" y="483.67739" xlink:href="#b"/>
<use x="438.813977" y="450.25215" xlink:href="#b"/>
<use x="440.032535" y="480.758447" xlink:href="#b"/>
<use x="442.583034" y="436.798432" xlink:href="#b"/>
<use x="443.519067" y="439.734179" xlink:href="#b"/>
<use x="444.473184" y="450.703188" xlink:href="#b"/>
<use x="446.260548" y="478.115182" xlink:href="#b"/>
<use x="447.854189" y="450.585353" xlink:href="#b"/>
<use x="450.096028" y="404.603397" xlink:href="#b"/>
<use x="451.750158" y="405.648692" xlink:href="#b"/>
<use x="453.759192" y="451.152398" xlink:href="#b"/>
<use x="455.475925" y="487.675674" xlink:href="#b"/>
<use x="457.549937" y="472.726416" xlink:href="#b"/>
<use x="459.407889" y="443.695104" xlink:href="#b"/>
<use x="461.016636" y="435.990723" xlink:href="#b"/>
<use x="463.043258" y="429.619522" xlink:href="#b"/>
<use x="464.931509" y="427.221309" xlink:href="#b"/>
<use x="466.848246" y="429.666706" xlink:href="#b"/>
<use x="468.774197" y="429.098758" xlink:href="#b"/>
<use x="470.532277" y="427.981289" xlink:href="#b"/>
<use x="472.41919" y="430.156422" xlink:href="#b"/>
<use x="473.536323" y="432.783108" xlink:href="#b"/>
<use x="474.204267" y="429.978845" xlink:href="#b"/>
<use x="475.974907" y="433.945535" xlink:href="#b"/>
<use x="477.956492" y="434.697095" xlink:href="#b"/>
<use x="479.895154" y="432.755402" xlink:href="#b"/>
<use x="481.801575" y="433.55294" xlink:href="#b"/>
<use x="485.349135" y="435.33429" xlink:href="#b"/>
<use x="487.127695" y="434.447651" xlink:href="#b"/>
<use x="489.133298" y="424.476215" xlink:href="#b"/>
<use x="490.666104" y="418.229892" xlink:href="#b"/>
<use x="492.932178" y="421.212873" xlink:href="#b"/>
<use x="494.779104" y="423.577611" xlink:href="#b"/>
<use x="496.681727" y="416.742934" xlink:href="#b"/>
<use x="498.550211" y="441.965147" xlink:href="#b"/>
<use x="500.473097" y="441.7094" xlink:href="#b"/>
<use x="507.851239" y="439.066298" xlink:href="#b"/>
<use x="508.58921" y="434.490071" xlink:href="#b"/>
<use x="509.791001" y="435.410594" xlink:href="#b"/>
<use x="511.60055" y="428.080417" xlink:href="#b"/>
<use x="513.390353" y="438.725018" xlink:href="#b"/>
<use x="514.533942" y="440.736701" xlink:href="#b"/>
<use x="515.324483" y="442.296547" xlink:href="#b"/>
<use x="516.95317" y="443.58502" xlink:href="#b"/>
<use x="519.067557" y="440.881457" xlink:href="#b"/>
<use x="520.954816" y="433.415076" xlink:href="#b"/>
<use x="521.888907" y="443.824806" xlink:href="#b"/>
<use x="524.685374" y="432.25971" xlink:href="#b"/>
<use x="526.566374" y="442.429748" xlink:href="#b"/>
<use x="528.119315" y="433.912545" xlink:href="#b"/>
<use x="530.165208" y="435.575443" xlink:href="#b"/>
<use x="531.493824" y="435.64703" xlink:href="#b"/>
<use x="533.860116" y="438.231516" xlink:href="#b"/>
<use x="535.372465" y="437.76165" xlink:href="#b"/>
<use x="537.25627" y="438.933701" xlink:href="#b"/>
<use x="539.517316" y="444.547205" xlink:href="#b"/>
<use x="541.186487" y="439.144274" xlink:href="#b"/>
<use x="543.200463" y="442.61407" xlink:href="#b"/>
<use x="544.827293" y="444.542052" xlink:href="#b"/>
<use x="547.051761" y="445.846633" xlink:href="#b"/>
<use x="548.909865" y="445.879042" xlink:href="#b"/>
<use x="550.805259" y="433.843706" xlink:href="#b"/>
<use x="552.562217" y="439.070576" xlink:href="#b"/>
<use x="554.344834" y="442.627897" xlink:href="#b"/>
<use x="555.468268" y="438.421994" xlink:href="#b"/>
<use x="558.168963" y="435.387767" xlink:href="#b"/>
<use x="559.927885" y="432.075366" xlink:href="#b"/>
<use x="561.685814" y="429.775491" xlink:href="#b"/>
<use x="563.776119" y="440.633672" xlink:href="#b"/>
<use x="565.507375" y="437.882961" xlink:href="#b"/>
<use x="567.144974" y="438.271255" xlink:href="#b"/>
<use x="569.23679" y="437.603321" xlink:href="#b"/>
<use x="570.638972" y="440.438728" xlink:href="#b"/>
<use x="573.131075" y="442.374395" xlink:href="#b"/>
<use x="574.514311" y="442.310934" xlink:href="#b"/>
<use x="576.817761" y="444.984506" xlink:href="#b"/>
<use x="578.275685" y="442.938277" xlink:href="#b"/>
<use x="580.594371" y="435.858158" xlink:href="#b"/>
<use x="582.256917" y="441.385143" xlink:href="#b"/>
<use x="584.224863" y="445.152676" xlink:href="#b"/>
<use x="586.218705" y="442.009866" xlink:href="#b"/>
<use x="587.267537" y="441.861525" xlink:href="#b"/>
<use x="589.905391" y="444.645561" xlink:href="#b"/>
<use x="591.737965" y="441.598887" xlink:href="#b"/>
<use x="593.572288" y="441.027272" xlink:href="#b"/>
<use x="594.914284" y="439.383648" xlink:href="#b"/>
<use x="597.044706" y="442.151811" xlink:href="#b"/>
<use x="599.228193" y="437.970925" xlink:href="#b"/>
<use x="601.092771" y="437.403201" xlink:href="#b"/>
<use x="602.984734" y="441.006172" xlink:href="#b"/>
<use x="604.654768" y="438.415583" xlink:href="#b"/>
<use x="606.621009" y="434.187421" xlink:href="#b"/>
<use x="608.003446" y="434.53318" xlink:href="#b"/>
<use x="610.141615" y="434.850184" xlink:href="#b"/>
<use x="612.280453" y="436.328271" xlink:href="#b"/>
<use x="613.996301" y="428.790261" xlink:href="#b"/>
<use x="615.547883" y="425.122491" xlink:href="#b"/>
<use x="617.90483" y="427.614273" xlink:href="#b"/>
<use x="619.171684" y="427.112012" xlink:href="#b"/>
<use x="620.793789" y="428.276837" xlink:href="#b"/>
<use x="623.347805" y="426.385274" xlink:href="#b"/>
<use x="625.202154" y="435.928909" xlink:href="#b"/>
<use x="626.717114" y="426.36595" xlink:href="#b"/>
<use x="628.604286" y="437.781399" xlink:href="#b"/>
<use x="630.728147" y="423.614996" xlink:href="#b"/>
<use x="632.191251" y="425.630382" xlink:href="#b"/>
<use x="634.600141" y="424.758127" xlink:href="#b"/>
<use x="636.529264" y="426.701953" xlink:href="#b"/>
<use x="637.948517" y="429.915945" xlink:href="#b"/>
<use x="640.110144" y="435.542203" xlink:href="#b"/>
<use x="642.125674" y="435.263173" xlink:href="#b"/>
<use x="643.993553" y="427.927422" xlink:href="#b"/>
<use x="645.748051" y="425.318932" xlink:href="#b"/>
<use x="647.290008" y="436.535438" xlink:href="#b"/>
<use x="649.326384" y="428.799138" xlink:href="#b"/>
<use x="651.468157" y="431.160355" xlink:href="#b"/>
<use x="652.763087" y="423.913513" xlink:href="#b"/>
<use x="654.68906" y="431.464035" xlink:href="#b"/>
<use x="656.606228" y="433.016748" xlink:href="#b"/>
<use x="658.312257" y="438.450962" xlink:href="#b"/>
<use x="660.456534" y="423.190511" xlink:href="#b"/>
<use x="662.619757" y="427.247034" xlink:href="#b"/>
<use x="664.515324" y="435.568892" xlink:href="#b"/>
<use x="666.107044" y="430.446773" xlink:href="#b"/>
<use x="667.845206" y="429.995978" xlink:href="#b"/>
<use x="669.864793" y="433.703129" xlink:href="#b"/>
<use x="671.341988" y="431.814641" xlink:href="#b"/>
<use x="673.298389" y="435.344777" xlink:href="#b"/>
<use x="675.392448" y="433.967849" xlink:href="#b"/>
<use x="677.226576" y="441.707466" xlink:href="#b"/>
<use x="679.000669" y="435.765891" xlink:href="#b"/>
<use x="681.205024" y="439.705934" xlink:href="#b"/>
<use x="682.563464" y="429.40878" xlink:href="#b"/>
<use x="684.5422" y="441.876205" xlink:href="#b"/>
<use x="686.256387" y="435.966561" xlink:href="#b"/>
</g>
</g>
<path d="m40.6 706v-316" fill="none" stroke="#000" stroke-linecap="square" stroke-width=".8"/>
<path d="m717 706v-316" fill="none" stroke="#000" stroke-linecap="square" stroke-width=".8"/>
<path d="m40.6 706h676" fill="none" stroke="#000" stroke-linecap="square" stroke-width=".8"/>
<path d="m40.6 390h676" fill="none" stroke="#000" stroke-linecap="square" stroke-width=".8"/>
<g clip-path="url(#j)">
<g transform="translate(58.2 421) rotate(-90) scale(.1 -.1)">
<use xlink:href="#y"/>
<use transform="translate(35.2)" xlink:href="#r"/>
<use transform="translate(96.5)" xlink:href="#s"/>
<use transform="translate(149)" xlink:href="#p"/>
<use transform="translate(188)" xlink:href="#l"/>
<use transform="translate(249)" xlink:href="#q"/>
<use transform="translate(290)" xlink:href="#DejaVuSans-20"/>
<use transform="translate(322)" xlink:href="#aq"/>
</g>
</g>
<g clip-path="url(#j)">
<g transform="translate(58.2 489) rotate(-90) scale(.1 -.1)">
<use xlink:href="#ar"/>
<use transform="translate(143)" xlink:href="#DejaVuSans-20"/>
<use transform="translate(175)" xlink:href="#s"/>
<use transform="translate(227)" xlink:href="#x"/>
<use transform="translate(255)" xlink:href="#t"/>
<use transform="translate(316)" xlink:href="#af"/>
<use transform="translate(398)" xlink:href="#l"/>
<use transform="translate(460)" xlink:href="#q"/>
</g>
</g>
<g transform="translate(232 384) scale(.12 -.12)">
<use xlink:href="#an"/>
<use transform="translate(63.2)" xlink:href="#y"/>
<use transform="translate(98.4)" xlink:href="#y"/>
<use transform="translate(134)" xlink:href="#l"/>
<use transform="translate(195)" xlink:href="#z"/>
<use transform="translate(250)" xlink:href="#p"/>
<use transform="translate(289)" xlink:href="#DejaVuSans-20"/>
<use transform="translate(321)" xlink:href="#t"/>
<use transform="translate(382)" xlink:href="#y"/>
<use transform="translate(417)" xlink:href="#DejaVuSans-20"/>
<use transform="translate(449)" xlink:href="#y"/>
<use transform="translate(484)" xlink:href="#q"/>
<use transform="translate(523)" xlink:href="#l"/>
<use transform="translate(585)" xlink:href="#l"/>
<use transform="translate(646)" xlink:href="#DejaVuSans-20"/>
<use transform="translate(678)" xlink:href="#p"/>
<use transform="translate(717)" xlink:href="#as"/>
<use transform="translate(781)" xlink:href="#q"/>
<use transform="translate(820)" xlink:href="#l"/>
<use transform="translate(881)" xlink:href="#r"/>
<use transform="translate(942)" xlink:href="#am"/>
<use transform="translate(1006)" xlink:href="#u"/>
<use transform="translate(1034)" xlink:href="#aa"/>
<use transform="translate(1097)" xlink:href="#al"/>
<use transform="translate(1161)" xlink:href="#DejaVuSans-20"/>
<use transform="translate(1192)" xlink:href="#ac"/>
<use transform="translate(1252)" xlink:href="#s"/>
<use transform="translate(1304)" xlink:href="#m"/>
<use transform="translate(1335)" xlink:href="#DejaVuSans-20"/>
<use transform="translate(1367)" xlink:href="#ag"/>
<use transform="translate(1425)" xlink:href="#u"/>
<use transform="translate(1453)" xlink:href="#l"/>
<use transform="translate(1514)" xlink:href="#q"/>
<use transform="translate(1556)" xlink:href="#DejaVuSans-20"/>
<use transform="translate(1587)" xlink:href="#g"/>
<use transform="translate(1651)" xlink:href="#DejaVuSans-20"/>
<use transform="translate(1683)" xlink:href="#ap"/>
<use transform="translate(1722)" xlink:href="#s"/>
<use transform="translate(1774)" xlink:href="#r"/>
<use transform="translate(1835)" xlink:href="#w"/>
<use transform="translate(1933)" xlink:href="#l"/>
<use transform="translate(1994)" xlink:href="#DejaVuSans-20"/>
<use transform="translate(2026)" xlink:href="#z"/>
<use transform="translate(2081)" xlink:href="#t"/>
<use transform="translate(2142)" xlink:href="#w"/>
<use transform="translate(2239)" xlink:href="#w"/>
<use transform="translate(2337)" xlink:href="#u"/>
<use transform="translate(2365)" xlink:href="#p"/>
<use transform="translate(2404)" xlink:href="#ao"/>
</g>
<path d="m47.6 428h82.6q2 0 2-2v-28.4q0-2-2-2h-82.6q-2 0-2 2v28.4q0 2 2 2z" fill="#fff" opacity=".8" stroke="#ccc"/>
<path d="m49.6 403h10 10" fill="none" stroke="#1f77b4" stroke-dasharray="1.5,2.475" stroke-opacity=".9" stroke-width="1.5"/>
<use x="59.645553" y="403.359463" fill="#1f77b4" fill-opacity=".9" stroke="#1f77b4" stroke-opacity=".9" xlink:href="#a"/>
<g transform="translate(77.6 407) scale(.1 -.1)">
<use xlink:href="#x"/>
<use transform="translate(27.8)" xlink:href="#u"/>
<use transform="translate(55.6)" xlink:href="#aa"/>
<use transform="translate(119)" xlink:href="#ab"/>
<use transform="translate(182)" xlink:href="#ak"/>
<use transform="translate(242)" xlink:href="#e"/>
<use transform="translate(275)" xlink:href="#ac"/>
<use transform="translate(334)" xlink:href="#ab"/>
<use transform="translate(398)" xlink:href="#x"/>
<use transform="translate(425)" xlink:href="#p"/>
<use transform="translate(465)" xlink:href="#q"/>
</g>
<path d="m49.6 418h10 10" fill="none" stroke="#2ca02c" stroke-linecap="square" stroke-opacity=".9" stroke-width="1.5"/>
<use x="59.645553" y="418.037588" fill="#2ca02c" fill-opacity=".9" stroke="#2ca02c" stroke-opacity=".9" xlink:href="#b"/>
<g transform="translate(77.6 422) scale(.1 -.1)">
<use xlink:href="#w"/>
<use transform="translate(97.4)" xlink:href="#r"/>
<use transform="translate(159)" xlink:href="#z"/>
<use transform="translate(214)" xlink:href="#t"/>
<use transform="translate(275)" xlink:href="#s"/>
</g>
<path d="m40.6 1060h676v-316h-676z" fill="#fff"/>
<path d="m61 1060v-316" clip-path="url(#k)" fill="none" stroke="#b0b0b0" stroke-linecap="square" stroke-width=".8"/>
<use x="60.958853" y="1060.321635" stroke="#000000" stroke-width=".8" xlink:href="#f"/>
<g transform="translate(40.1 1075) scale(.1 -.1)">
<use xlink:href="#d"/>
<use transform="translate(63.6)" xlink:href="#c"/>
<use transform="translate(127)" xlink:href="#d"/>
<use transform="translate(191)" xlink:href="#v"/>
<use transform="translate(254)" xlink:href="#e"/>
<use transform="translate(291)" xlink:href="#c"/>
<use transform="translate(354)" xlink:href="#ad"/>
</g>
<path d="m117 1060v-316" clip-path="url(#k)" fill="none" stroke="#b0b0b0" stroke-linecap="square" stroke-width=".8"/>
<use x="116.894242" y="1060.321635" stroke="#000000" stroke-width=".8" xlink:href="#f"/>
<g transform="translate(96 1075) scale(.1 -.1)">
<use xlink:href="#d"/>
<use transform="translate(63.6)" xlink:href="#c"/>
<use transform="translate(127)" xlink:href="#d"/>
<use transform="translate(191)" xlink:href="#v"/>
<use transform="translate(254)" xlink:href="#e"/>
<use transform="translate(291)" xlink:href="#g"/>
<use transform="translate(354)" xlink:href="#c"/>
</g>
<path d="m175 1060v-316" clip-path="url(#k)" fill="none" stroke="#b0b0b0" stroke-linecap="square" stroke-width=".8"/>
<use x="174.694145" y="1060.321635" stroke="#000000" stroke-width=".8" xlink:href="#f"/>
<g transform="translate(154 1075) scale(.1 -.1)">
<use xlink:href="#d"/>
<use transform="translate(63.6)" xlink:href="#c"/>
<use transform="translate(127)" xlink:href="#d"/>
<use transform="translate(191)" xlink:href="#v"/>
<use transform="translate(254)" xlink:href="#e"/>
<use transform="translate(291)" xlink:href="#g"/>
<use transform="translate(354)" xlink:href="#g"/>
</g>
<path d="m231 1060v-316" clip-path="url(#k)" fill="none" stroke="#b0b0b0" stroke-linecap="square" stroke-width=".8"/>
<use x="230.629535" y="1060.321635" stroke="#000000" stroke-width=".8" xlink:href="#f"/>
<g transform="translate(210 1075) scale(.1 -.1)">
<use xlink:href="#d"/>
<use transform="translate(63.6)" xlink:href="#c"/>
<use transform="translate(127)" xlink:href="#d"/>
<use transform="translate(191)" xlink:href="#v"/>
<use transform="translate(254)" xlink:href="#e"/>
<use transform="translate(291)" xlink:href="#g"/>
<use transform="translate(354)" xlink:href="#d"/>
</g>
<path d="m288 1060v-316" clip-path="url(#k)" fill="none" stroke="#b0b0b0" stroke-linecap="square" stroke-width=".8"/>
<use x="288.429437" y="1060.321635" stroke="#000000" stroke-width=".8" xlink:href="#f"/>
<g transform="translate(268 1075) scale(.1 -.1)">
<use xlink:href="#d"/>
<use transform="translate(63.6)" xlink:href="#c"/>
<use transform="translate(127)" xlink:href="#d"/>
<use transform="translate(191)" xlink:href="#h"/>
<use transform="translate(254)" xlink:href="#e"/>
<use transform="translate(291)" xlink:href="#c"/>
<use transform="translate(354)" xlink:href="#g"/>
</g>
<path d="m346 1060v-316" clip-path="url(#k)" fill="none" stroke="#b0b0b0" stroke-linecap="square" stroke-width=".8"/>
<use x="346.22934" y="1060.321635" stroke="#000000" stroke-width=".8" xlink:href="#f"/>
<g transform="translate(325 1075) scale(.1 -.1)">
<use xlink:href="#d"/>
<use transform="translate(63.6)" xlink:href="#c"/>
<use transform="translate(127)" xlink:href="#d"/>
<use transform="translate(191)" xlink:href="#h"/>
<use transform="translate(254)" xlink:href="#e"/>
<use transform="translate(291)" xlink:href="#c"/>
<use transform="translate(354)" xlink:href="#d"/>
</g>
<path d="m398 1060v-316" clip-path="url(#k)" fill="none" stroke="#b0b0b0" stroke-linecap="square" stroke-width=".8"/>
<use x="398.435704" y="1060.321635" stroke="#000000" stroke-width=".8" xlink:href="#f"/>
<g transform="translate(378 1075) scale(.1 -.1)">
<use xlink:href="#d"/>
<use transform="translate(63.6)" xlink:href="#c"/>
<use transform="translate(127)" xlink:href="#d"/>
<use transform="translate(191)" xlink:href="#h"/>
<use transform="translate(254)" xlink:href="#e"/>
<use transform="translate(291)" xlink:href="#c"/>
<use transform="translate(354)" xlink:href="#ae"/>
</g>
<path d="m456 1060v-316" clip-path="url(#k)" fill="none" stroke="#b0b0b0" stroke-linecap="square" stroke-width=".8"/>
<use x="456.235606" y="1060.321635" stroke="#000000" stroke-width=".8" xlink:href="#f"/>
<g transform="translate(435 1075) scale(.1 -.1)">
<use xlink:href="#d"/>
<use transform="translate(63.6)" xlink:href="#c"/>
<use transform="translate(127)" xlink:href="#d"/>
<use transform="translate(191)" xlink:href="#h"/>
<use transform="translate(254)" xlink:href="#e"/>
<use transform="translate(291)" xlink:href="#c"/>
<use transform="translate(354)" xlink:href="#v"/>
</g>
<path d="m512 1060v-316" clip-path="url(#k)" fill="none" stroke="#b0b0b0" stroke-linecap="square" stroke-width=".8"/>
<use x="512.170996" y="1060.321635" stroke="#000000" stroke-width=".8" xlink:href="#f"/>
<g transform="translate(491 1075) scale(.1 -.1)">
<use xlink:href="#d"/>
<use transform="translate(63.6)" xlink:href="#c"/>
<use transform="translate(127)" xlink:href="#d"/>
<use transform="translate(191)" xlink:href="#h"/>
<use transform="translate(254)" xlink:href="#e"/>
<use transform="translate(291)" xlink:href="#c"/>
<use transform="translate(354)" xlink:href="#h"/>
</g>
<path d="m570 1060v-316" clip-path="url(#k)" fill="none" stroke="#b0b0b0" stroke-linecap="square" stroke-width=".8"/>
<use x="569.970898" y="1060.321635" stroke="#000000" stroke-width=".8" xlink:href="#f"/>
<g transform="translate(549 1075) scale(.1 -.1)">
<use xlink:href="#d"/>
<use transform="translate(63.6)" xlink:href="#c"/>
<use transform="translate(127)" xlink:href="#d"/>
<use transform="translate(191)" xlink:href="#h"/>
<use transform="translate(254)" xlink:href="#e"/>
<use transform="translate(291)" xlink:href="#c"/>
<use transform="translate(354)" xlink:href="#aj"/>
</g>
<path d="m626 1060v-316" clip-path="url(#k)" fill="none" stroke="#b0b0b0" stroke-linecap="square" stroke-width=".8"/>
<use x="625.906288" y="1060.321635" stroke="#000000" stroke-width=".8" xlink:href="#f"/>
<g transform="translate(605 1075) scale(.1 -.1)">
<use xlink:href="#d"/>
<use transform="translate(63.6)" xlink:href="#c"/>
<use transform="translate(127)" xlink:href="#d"/>
<use transform="translate(191)" xlink:href="#h"/>
<use transform="translate(254)" xlink:href="#e"/>
<use transform="translate(291)" xlink:href="#c"/>
<use transform="translate(354)" xlink:href="#ai"/>
</g>
<path d="m684 1060v-316" clip-path="url(#k)" fill="none" stroke="#b0b0b0" stroke-linecap="square" stroke-width=".8"/>
<use x="683.706191" y="1060.321635" stroke="#000000" stroke-width=".8" xlink:href="#f"/>
<g transform="translate(663 1075) scale(.1 -.1)">
<use xlink:href="#d"/>
<use transform="translate(63.6)" xlink:href="#c"/>
<use transform="translate(127)" xlink:href="#d"/>
<use transform="translate(191)" xlink:href="#h"/>
<use transform="translate(254)" xlink:href="#e"/>
<use transform="translate(291)" xlink:href="#c"/>
<use transform="translate(354)" xlink:href="#ah"/>
</g>
<path d="m40.6 1029h676" clip-path="url(#k)" fill="none" stroke="#b0b0b0" stroke-linecap="square" stroke-width=".8"/>
<use x="40.645553" y="1028.553649" stroke="#000000" stroke-width=".8" xlink:href="#n"/>
<g transform="translate(3 1032) scale(.1 -.1)">
<use xlink:href="#g"/>
<use transform="translate(63.6)" xlink:href="#m"/>
<use transform="translate(95.4)" xlink:href="#c"/>
<use transform="translate(159)" xlink:href="#c"/>
<use transform="translate(223)" xlink:href="#o"/>
</g>
<path d="m40.6 960h676" clip-path="url(#k)" fill="none" stroke="#b0b0b0" stroke-linecap="square" stroke-width=".8"/>
<use x="40.645553" y="960.22018" stroke="#000000" stroke-width=".8" xlink:href="#n"/>
<g transform="translate(3 964) scale(.1 -.1)">
<use xlink:href="#g"/>
<use transform="translate(63.6)" xlink:href="#m"/>
<use transform="translate(95.4)" xlink:href="#g"/>
<use transform="translate(159)" xlink:href="#c"/>
<use transform="translate(223)" xlink:href="#o"/>
</g>
<path d="m40.6 892h676" clip-path="url(#k)" fill="none" stroke="#b0b0b0" stroke-linecap="square" stroke-width=".8"/>
<use x="40.645553" y="891.88671" stroke="#000000" stroke-width=".8" xlink:href="#n"/>
<g transform="translate(3 896) scale(.1 -.1)">
<use xlink:href="#g"/>
<use transform="translate(63.6)" xlink:href="#m"/>
<use transform="translate(95.4)" xlink:href="#d"/>
<use transform="translate(159)" xlink:href="#c"/>
<use transform="translate(223)" xlink:href="#o"/>
</g>
<path d="m40.6 824h676" clip-path="url(#k)" fill="none" stroke="#b0b0b0" stroke-linecap="square" stroke-width=".8"/>
<use x="40.645553" y="823.553241" stroke="#000000" stroke-width=".8" xlink:href="#n"/>
<g transform="translate(3 827) scale(.1 -.1)">
<use xlink:href="#g"/>
<use transform="translate(63.6)" xlink:href="#m"/>
<use transform="translate(95.4)" xlink:href="#ae"/>
<use transform="translate(159)" xlink:href="#c"/>
<use transform="translate(223)" xlink:href="#o"/>
</g>
<path d="m40.6 755h676" clip-path="url(#k)" fill="none" stroke="#b0b0b0" stroke-linecap="square" stroke-width=".8"/>
<use x="40.645553" y="755.219771" stroke="#000000" stroke-width=".8" xlink:href="#n"/>
<g transform="translate(3 759) scale(.1 -.1)">
<use xlink:href="#g"/>
<use transform="translate(63.6)" xlink:href="#m"/>
<use transform="translate(95.4)" xlink:href="#v"/>
<use transform="translate(159)" xlink:href="#c"/>
<use transform="translate(223)" xlink:href="#o"/>
</g>
<g stroke="#1f77b4" stroke-opacity=".9">
<path d="m439 1013 12.9 25.3 13.2-14.3 13 8.88 12.7-2.54 13.4-0.453 12.9-3.29 13.2-2 13-0.111 12.3 5.87 13.8-271 13 261 12.7 9.13 13.1-9.88 12.8 2.36 13.8 1.64 12.7-4.33 13.2 3.19 12.8-3.23 13 6.61" clip-path="url(#k)" fill="none" stroke-dasharray="1.5,2.475" stroke-width="1.5"/>
<g clip-path="url(#k)" fill="#1f77b4" fill-opacity=".9">
<use x="438.813977" y="1012.607762" xlink:href="#a"/>
<use x="451.750158" y="1037.953076" xlink:href="#a"/>
<use x="464.931509" y="1023.689392" xlink:href="#a"/>
<use x="477.956492" y="1032.568512" xlink:href="#a"/>
<use x="490.666104" y="1030.025913" xlink:href="#a"/>
<use x="504.069924" y="1029.57254" xlink:href="#a"/>
<use x="516.95317" y="1026.2804" xlink:href="#a"/>
<use x="530.165208" y="1024.278307" xlink:href="#a"/>
<use x="543.200463" y="1024.167402" xlink:href="#a"/>
<use x="555.468268" y="1030.036415" xlink:href="#a"/>
<use x="569.23679" y="759.131827" xlink:href="#a"/>
<use x="582.256917" y="1020.625702" xlink:href="#a"/>
<use x="594.914284" y="1029.758653" xlink:href="#a"/>
<use x="608.003446" y="1019.876515" xlink:href="#a"/>
<use x="620.793789" y="1022.234406" xlink:href="#a"/>
<use x="634.600141" y="1023.877103" xlink:href="#a"/>
<use x="647.290008" y="1019.551459" xlink:href="#a"/>
<use x="660.456534" y="1022.741906" xlink:href="#a"/>
<use x="673.298389" y="1019.510186" xlink:href="#a"/>
<use x="686.256387" y="1026.116477" xlink:href="#a"/>
</g>
</g>
<g stroke="#2ca02c" stroke-opacity=".9">
<path d="m439 1016 12.9-1.97 13.2 9.12 13 6.32 12.7-10.8 26.3 15.5 13.2-8.84 13 3.29 12.3-6.87 13.8-219 13 229 12.7-0.313 13.1 4.02 12.8-8.41 13.8-4.37 12.7 23.5 13.2-18.6 12.8-1.41 13 5.33" clip-path="url(#k)" fill="none" stroke-linecap="square" stroke-width="1.5"/>
<g clip-path="url(#k)" fill="#2ca02c" fill-opacity=".9">
<use x="438.813977" y="1015.79177" xlink:href="#b"/>
<use x="451.750158" y="1013.821877" xlink:href="#b"/>
<use x="464.931509" y="1022.93787" xlink:href="#b"/>
<use x="477.956492" y="1029.260781" xlink:href="#b"/>
<use x="490.666104" y="1018.450343" xlink:href="#b"/>
<use x="516.95317" y="1033.928365" xlink:href="#b"/>
<use x="530.165208" y="1025.092435" xlink:href="#b"/>
<use x="543.200463" y="1028.377553" xlink:href="#b"/>
<use x="555.468268" y="1021.51104" xlink:href="#b"/>
<use x="569.23679" y="802.957734" xlink:href="#b"/>
<use x="582.256917" y="1031.502965" xlink:href="#b"/>
<use x="594.914284" y="1031.189963" xlink:href="#b"/>
<use x="608.003446" y="1035.214599" xlink:href="#b"/>
<use x="620.793789" y="1026.80849" xlink:href="#b"/>
<use x="634.600141" y="1022.441669" xlink:href="#b"/>
<use x="647.290008" y="1045.979263" xlink:href="#b"/>
<use x="660.456534" y="1027.419199" xlink:href="#b"/>
<use x="673.298389" y="1026.008118" xlink:href="#b"/>
<use x="686.256387" y="1031.337647" xlink:href="#b"/>
</g>
</g>
<path d="m40.6 1060v-316" fill="none" stroke="#000" stroke-linecap="square" stroke-width=".8"/>
<path d="m717 1060v-316" fill="none" stroke="#000" stroke-linecap="square" stroke-width=".8"/>
<path d="m40.6 1060h676" fill="none" stroke="#000" stroke-linecap="square" stroke-width=".8"/>
<path d="m40.6 745h676" fill="none" stroke="#000" stroke-linecap="square" stroke-width=".8"/>
<g clip-path="url(#k)">
<g transform="translate(58.2 1021) rotate(-90) scale(.1 -.1)">
<use xlink:href="#y"/>
<use transform="translate(35.2)" xlink:href="#r"/>
<use transform="translate(96.5)" xlink:href="#s"/>
<use transform="translate(149)" xlink:href="#p"/>
<use transform="translate(188)" xlink:href="#l"/>
<use transform="translate(249)" xlink:href="#q"/>
<use transform="translate(290)" xlink:href="#DejaVuSans-20"/>
<use transform="translate(322)" xlink:href="#aq"/>
</g>
</g>
<g clip-path="url(#k)">
<g transform="translate(58.2 1089) rotate(-90) scale(.1 -.1)">
<use xlink:href="#ar"/>
<use transform="translate(143)" xlink:href="#DejaVuSans-20"/>
<use transform="translate(175)" xlink:href="#s"/>
<use transform="translate(227)" xlink:href="#x"/>
<use transform="translate(255)" xlink:href="#t"/>
<use transform="translate(316)" xlink:href="#af"/>
<use transform="translate(398)" xlink:href="#l"/>
<use transform="translate(460)" xlink:href="#q"/>
</g>
</g>
<g transform="translate(268 739) scale(.12 -.12)">
<defs>
<path id="ax" transform="scale(.0156)" d="m628 4666h631v-4341q0-844-320-1225t-1030-381h-240v531h197q418 0 590 235 172 234 172 840v4341z"/>
<path id="ay" transform="scale(.0156)" d="m628 4666h631v-4666h-631v4666z"/>
</defs>
<use xlink:href="#an"/>
<use transform="translate(63.2)" xlink:href="#y"/>
<use transform="translate(98.4)" xlink:href="#y"/>
<use transform="translate(134)" xlink:href="#l"/>
<use transform="translate(195)" xlink:href="#z"/>
<use transform="translate(250)" xlink:href="#p"/>
<use transform="translate(289)" xlink:href="#DejaVuSans-20"/>
<use transform="translate(321)" xlink:href="#t"/>
<use transform="translate(382)" xlink:href="#y"/>
<use transform="translate(417)" xlink:href="#DejaVuSans-20"/>
<use transform="translate(449)" xlink:href="#ax"/>
<use transform="translate(479)" xlink:href="#ay"/>
<use transform="translate(508)" xlink:href="#ag"/>
<use transform="translate(569)" xlink:href="#DejaVuSans-20"/>
<use transform="translate(601)" xlink:href="#ac"/>
<use transform="translate(660)" xlink:href="#s"/>
<use transform="translate(712)" xlink:href="#m"/>
<use transform="translate(744)" xlink:href="#DejaVuSans-20"/>
<use transform="translate(776)" xlink:href="#ag"/>
<use transform="translate(834)" xlink:href="#u"/>
<use transform="translate(862)" xlink:href="#l"/>
<use transform="translate(923)" xlink:href="#q"/>
<use transform="translate(964)" xlink:href="#DejaVuSans-20"/>
<use transform="translate(996)" xlink:href="#g"/>
<use transform="translate(1060)" xlink:href="#DejaVuSans-20"/>
<use transform="translate(1092)" xlink:href="#ap"/>
<use transform="translate(1131)" xlink:href="#s"/>
<use transform="translate(1183)" xlink:href="#r"/>
<use transform="translate(1244)" xlink:href="#w"/>
<use transform="translate(1341)" xlink:href="#l"/>
<use transform="translate(1403)" xlink:href="#DejaVuSans-20"/>
<use transform="translate(1435)" xlink:href="#z"/>
<use transform="translate(1490)" xlink:href="#t"/>
<use transform="translate(1551)" xlink:href="#w"/>
<use transform="translate(1648)" xlink:href="#w"/>
<use transform="translate(1746)" xlink:href="#u"/>
<use transform="translate(1773)" xlink:href="#p"/>
<use transform="translate(1813)" xlink:href="#ao"/>
</g>
<path d="m47.6 782h82.6q2 0 2-2v-28.4q0-2-2-2h-82.6q-2 0-2 2v28.4q0 2 2 2z" fill="#fff" opacity=".8" stroke="#ccc"/>
<path d="m49.6 758h10 10" fill="none" stroke="#1f77b4" stroke-dasharray="1.5,2.475" stroke-opacity=".9" stroke-width="1.5"/>
<use x="59.645553" y="757.887892" fill="#1f77b4" fill-opacity=".9" stroke="#1f77b4" stroke-opacity=".9" xlink:href="#a"/>
<g transform="translate(77.6 761) scale(.1 -.1)">
<use xlink:href="#x"/>
<use transform="translate(27.8)" xlink:href="#u"/>
<use transform="translate(55.6)" xlink:href="#aa"/>
<use transform="translate(119)" xlink:href="#ab"/>
<use transform="translate(182)" xlink:href="#ak"/>
<use transform="translate(242)" xlink:href="#e"/>
<use transform="translate(275)" xlink:href="#ac"/>
<use transform="translate(334)" xlink:href="#ab"/>
<use transform="translate(398)" xlink:href="#x"/>
<use transform="translate(425)" xlink:href="#p"/>
<use transform="translate(465)" xlink:href="#q"/>
</g>
<path d="m49.6 773h10 10" fill="none" stroke="#2ca02c" stroke-linecap="square" stroke-opacity=".9" stroke-width="1.5"/>
<use x="59.645553" y="772.566017" fill="#2ca02c" fill-opacity=".9" stroke="#2ca02c" stroke-opacity=".9" xlink:href="#b"/>
<g transform="translate(77.6 776) scale(.1 -.1)">
<use xlink:href="#w"/>
<use transform="translate(97.4)" xlink:href="#r"/>
<use transform="translate(159)" xlink:href="#z"/>
<use transform="translate(214)" xlink:href="#t"/>
<use transform="translate(275)" xlink:href="#s"/>
</g>
<g transform="translate(229 12.1) scale(.12 -.12)">
<defs>
<path id="aw" transform="scale(.0156)" d="m1259 4147v-1753h794q441 0 681 228 241 228 241 650 0 419-241 647-240 228-681 228h-794zm-631 519h1425q785 0 1186-355 402-355 402-1039 0-691-402-1044-401-353-1186-353h-794v-1875h-631v4666z"/>
<path id="av" transform="scale(.0156)" d="m1159 525v-1856h-578v4831h578v-531q182 312 458 463 277 152 661 152 638 0 1036-506 399-506 399-1331t-399-1332q-398-506-1036-506-384 0-661 152-276 152-458 464zm1957 1222q0 634-261 995t-717 361q-457 0-718-361t-261-995 261-995 718-361q456 0 717 361t261 995z"/>
<path id="au" transform="scale(.0156)" d="m2059-325q-243-625-475-815-231-191-618-191h-460v481h338q237 0 368 113 132 112 291 531l103 262-1415 3444h609l1094-2737 1094 2737h609l-1538-3825z"/>
</defs>
<use xlink:href="#aw"/>
<use transform="translate(56.7)" xlink:href="#l"/>
<use transform="translate(118)" xlink:href="#q"/>
<use transform="translate(159)" xlink:href="#y"/>
<use transform="translate(195)" xlink:href="#t"/>
<use transform="translate(256)" xlink:href="#q"/>
<use transform="translate(295)" xlink:href="#w"/>
<use transform="translate(392)" xlink:href="#r"/>
<use transform="translate(454)" xlink:href="#aa"/>
<use transform="translate(517)" xlink:href="#z"/>
<use transform="translate(572)" xlink:href="#l"/>
<use transform="translate(634)" xlink:href="#DejaVuSans-20"/>
<use transform="translate(665)" xlink:href="#u"/>
<use transform="translate(693)" xlink:href="#w"/>
<use transform="translate(791)" xlink:href="#av"/>
<use transform="translate(854)" xlink:href="#q"/>
<use transform="translate(893)" xlink:href="#t"/>
<use transform="translate(954)" xlink:href="#ac"/>
<use transform="translate(1013)" xlink:href="#l"/>
<use transform="translate(1075)" xlink:href="#w"/>
<use transform="translate(1172)" xlink:href="#l"/>
<use transform="translate(1234)" xlink:href="#aa"/>
<use transform="translate(1297)" xlink:href="#p"/>
<use transform="translate(1336)" xlink:href="#DejaVuSans-20"/>
<use transform="translate(1368)" xlink:href="#at"/>
<use transform="translate(1432)" xlink:href="#au"/>
<use transform="translate(1491)" xlink:href="#DejaVuSans-20"/>
<use transform="translate(1523)" xlink:href="#z"/>
<use transform="translate(1578)" xlink:href="#t"/>
<use transform="translate(1639)" xlink:href="#aa"/>
<use transform="translate(1702)" xlink:href="#y"/>
<use transform="translate(1737)" xlink:href="#u"/>
<use transform="translate(1765)" xlink:href="#al"/>
<use transform="translate(1829)" xlink:href="#ab"/>
<use transform="translate(1892)" xlink:href="#q"/>
<use transform="translate(1933)" xlink:href="#r"/>
<use transform="translate(1994)" xlink:href="#p"/>
<use transform="translate(2034)" xlink:href="#u"/>
<use transform="translate(2061)" xlink:href="#t"/>
<use transform="translate(2123)" xlink:href="#aa"/>
</g>
<defs>
<clipPath id="i">
<rect x="40.6" y="35.7" width="676" height="316"/>
</clipPath>
<clipPath id="j">
<rect x="40.6" y="390" width="676" height="316"/>
</clipPath>
<clipPath id="k">
<rect x="40.6" y="745" width="676" height="316"/>
</clipPath>
</defs>
</svg>
