<?xml version="1.0" encoding="UTF-8"?>
<!DOCTYPE svg  PUBLIC '-//W3C//DTD SVG 1.1//EN'  'http://www.w3.org/Graphics/SVG/1.1/DTD/svg11.dtd'>
<svg width="720pt" height="1080pt" version="1.1" viewBox="0 0 720 1080" xmlns="http://www.w3.org/2000/svg" xmlns:xlink="http://www.w3.org/1999/xlink">
<defs>
<style type="text/css">*{stroke-linejoin: round; stroke-linecap: butt}</style>
</defs>
<path d="m0 1080h720v-1080h-720z" fill="#fff"/>
<path d="m40.6 351h676v-316h-676z" fill="#fff"/>
<path d="m59.1 351v-316" clip-path="url(#k)" fill="none" stroke="#b0b0b0" stroke-linecap="square" stroke-width=".8"/>
<defs>
<path id="g" d="m0 0v3.5" stroke="#000" stroke-width=".8"/>
</defs>
<use x="59.107584" y="351.264775" stroke="#000000" stroke-width=".8" xlink:href="#g"/>
<g transform="translate(38.2 366) scale(.1 -.1)">
<defs>
<path id="d" transform="scale(.0156)" d="m1228 531h2203v-531h-2962v531q359 372 979 998 621 627 780 809 303 340 423 576 121 236 121 464 0 372-261 606-261 235-680 235-297 0-627-103-329-103-704-313v638q381 153 712 231 332 78 607 78 725 0 1156-363 431-362 431-968 0-288-108-546-107-257-392-607-78-91-497-524-418-433-1181-1211z"/>
<path id="c" transform="scale(.0156)" d="m2034 4250q-487 0-733-480-245-479-245-1442 0-959 245-1439 246-480 733-480 491 0 736 480 246 480 246 1439 0 963-246 1442-245 480-736 480zm0 500q785 0 1199-621 414-620 414-1801 0-1178-414-1799-414-620-1199-620-784 0-1198 620-414 621-414 1799 0 1181 414 1801 414 621 1198 621z"/>
<path id="v" transform="scale(.0156)" d="m2419 4116-1594-2491h1594v2491zm-166 550h794v-3041h666v-525h-666v-1100h-628v1100h-2106v609l1940 2957z"/>
<path id="f" transform="scale(.0156)" d="m313 2009h1684v-512h-1684v512z"/>
<path id="ad" transform="scale(.0156)" d="m703 97v575q238-113 481-172 244-59 479-59 625 0 954 420 330 420 377 1277-181-269-460-413-278-144-615-144-700 0-1108 423-408 424-408 1159 0 718 425 1152 425 435 1131 435 810 0 1236-621 427-620 427-1801 0-1103-524-1761-523-658-1407-658-238 0-482 47-243 47-506 141zm1256 1978q425 0 673 290 249 291 249 798 0 503-249 795-248 292-673 292t-673-292-248-795q0-507 248-798 248-290 673-290z"/>
</defs>
<use xlink:href="#d"/>
<use transform="translate(63.6)" xlink:href="#c"/>
<use transform="translate(127)" xlink:href="#d"/>
<use transform="translate(191)" xlink:href="#v"/>
<use transform="translate(254)" xlink:href="#f"/>
<use transform="translate(291)" xlink:href="#c"/>
<use transform="translate(354)" xlink:href="#ad"/>
</g>
<path d="m125 351v-316" clip-path="url(#k)" fill="none" stroke="#b0b0b0" stroke-linecap="square" stroke-width=".8"/>
<use x="124.971136" y="351.264775" stroke="#000000" stroke-width=".8" xlink:href="#g"/>
<g transform="translate(104 366) scale(.1 -.1)">
<defs>
<path id="e" transform="scale(.0156)" d="m794 531h1031v3560l-1122-225v575l1116 225h631v-4135h1031v-531h-2687v531z"/>
</defs>
<use xlink:href="#d"/>
<use transform="translate(63.6)" xlink:href="#c"/>
<use transform="translate(127)" xlink:href="#d"/>
<use transform="translate(191)" xlink:href="#v"/>
<use transform="translate(254)" xlink:href="#f"/>
<use transform="translate(291)" xlink:href="#e"/>
<use transform="translate(354)" xlink:href="#c"/>
</g>
<path d="m193 351v-316" clip-path="url(#k)" fill="none" stroke="#b0b0b0" stroke-linecap="square" stroke-width=".8"/>
<use x="193.030139" y="351.264775" stroke="#000000" stroke-width=".8" xlink:href="#g"/>
<g transform="translate(172 366) scale(.1 -.1)">
<use xlink:href="#d"/>
<use transform="translate(63.6)" xlink:href="#c"/>
<use transform="translate(127)" xlink:href="#d"/>
<use transform="translate(191)" xlink:href="#v"/>
<use transform="translate(254)" xlink:href="#f"/>
<use transform="translate(291)" xlink:href="#e"/>
<use transform="translate(354)" xlink:href="#e"/>
</g>
<path d="m259 351v-316" clip-path="url(#k)" fill="none" stroke="#b0b0b0" stroke-linecap="square" stroke-width=".8"/>
<use x="258.893691" y="351.264775" stroke="#000000" stroke-width=".8" xlink:href="#g"/>
<g transform="translate(238 366) scale(.1 -.1)">
<use xlink:href="#d"/>
<use transform="translate(63.6)" xlink:href="#c"/>
<use transform="translate(127)" xlink:href="#d"/>
<use transform="translate(191)" xlink:href="#v"/>
<use transform="translate(254)" xlink:href="#f"/>
<use transform="translate(291)" xlink:href="#e"/>
<use transform="translate(354)" xlink:href="#d"/>
</g>
<path d="m327 351v-316" clip-path="url(#k)" fill="none" stroke="#b0b0b0" stroke-linecap="square" stroke-width=".8"/>
<use x="326.952695" y="351.264775" stroke="#000000" stroke-width=".8" xlink:href="#g"/>
<g transform="translate(306 366) scale(.1 -.1)">
<defs>
<path id="h" transform="scale(.0156)" d="m691 4666h2478v-532h-1900v-1143q137 47 274 70 138 23 276 23 781 0 1237-428 457-428 457-1159 0-753-469-1171-469-417-1322-417-294 0-599 50-304 50-629 150v635q281-153 581-228t634-75q541 0 856 284 316 284 316 772 0 487-316 771-315 285-856 285-253 0-505-56-251-56-513-175v2344z"/>
</defs>
<use xlink:href="#d"/>
<use transform="translate(63.6)" xlink:href="#c"/>
<use transform="translate(127)" xlink:href="#d"/>
<use transform="translate(191)" xlink:href="#h"/>
<use transform="translate(254)" xlink:href="#f"/>
<use transform="translate(291)" xlink:href="#c"/>
<use transform="translate(354)" xlink:href="#e"/>
</g>
<path d="m395 351v-316" clip-path="url(#k)" fill="none" stroke="#b0b0b0" stroke-linecap="square" stroke-width=".8"/>
<use x="395.011699" y="351.264775" stroke="#000000" stroke-width=".8" xlink:href="#g"/>
<g transform="translate(374 366) scale(.1 -.1)">
<use xlink:href="#d"/>
<use transform="translate(63.6)" xlink:href="#c"/>
<use transform="translate(127)" xlink:href="#d"/>
<use transform="translate(191)" xlink:href="#h"/>
<use transform="translate(254)" xlink:href="#f"/>
<use transform="translate(291)" xlink:href="#c"/>
<use transform="translate(354)" xlink:href="#d"/>
</g>
<path d="m456 351v-316" clip-path="url(#k)" fill="none" stroke="#b0b0b0" stroke-linecap="square" stroke-width=".8"/>
<use x="456.484347" y="351.264775" stroke="#000000" stroke-width=".8" xlink:href="#g"/>
<g transform="translate(436 366) scale(.1 -.1)">
<defs>
<path id="ae" transform="scale(.0156)" d="m2597 2516q453-97 707-404 255-306 255-756 0-690-475-1069-475-378-1350-378-293 0-604 58t-642 174v609q262-153 574-231 313-78 654-78 593 0 904 234t311 681q0 413-289 645-289 233-804 233h-544v519h569q465 0 712 186t247 536q0 359-255 551-254 193-729 193-260 0-557-57-297-56-653-174v562q360 100 674 150t592 50q719 0 1137-327 419-326 419-882 0-388-222-655t-631-370z"/>
</defs>
<use xlink:href="#d"/>
<use transform="translate(63.6)" xlink:href="#c"/>
<use transform="translate(127)" xlink:href="#d"/>
<use transform="translate(191)" xlink:href="#h"/>
<use transform="translate(254)" xlink:href="#f"/>
<use transform="translate(291)" xlink:href="#c"/>
<use transform="translate(354)" xlink:href="#ae"/>
</g>
<path d="m525 351v-316" clip-path="url(#k)" fill="none" stroke="#b0b0b0" stroke-linecap="square" stroke-width=".8"/>
<use x="524.543351" y="351.264775" stroke="#000000" stroke-width=".8" xlink:href="#g"/>
<g transform="translate(504 366) scale(.1 -.1)">
<use xlink:href="#d"/>
<use transform="translate(63.6)" xlink:href="#c"/>
<use transform="translate(127)" xlink:href="#d"/>
<use transform="translate(191)" xlink:href="#h"/>
<use transform="translate(254)" xlink:href="#f"/>
<use transform="translate(291)" xlink:href="#c"/>
<use transform="translate(354)" xlink:href="#v"/>
</g>
<path d="m590 351v-316" clip-path="url(#k)" fill="none" stroke="#b0b0b0" stroke-linecap="square" stroke-width=".8"/>
<use x="590.406903" y="351.264775" stroke="#000000" stroke-width=".8" xlink:href="#g"/>
<g transform="translate(570 366) scale(.1 -.1)">
<use xlink:href="#d"/>
<use transform="translate(63.6)" xlink:href="#c"/>
<use transform="translate(127)" xlink:href="#d"/>
<use transform="translate(191)" xlink:href="#h"/>
<use transform="translate(254)" xlink:href="#f"/>
<use transform="translate(291)" xlink:href="#c"/>
<use transform="translate(354)" xlink:href="#h"/>
</g>
<path d="m658 351v-316" clip-path="url(#k)" fill="none" stroke="#b0b0b0" stroke-linecap="square" stroke-width=".8"/>
<use x="658.465907" y="351.264775" stroke="#000000" stroke-width=".8" xlink:href="#g"/>
<g transform="translate(638 366) scale(.1 -.1)">
<defs>
<path id="ah" transform="scale(.0156)" d="m2113 2584q-425 0-674-291-248-290-248-796 0-503 248-796 249-292 674-292t673 292q248 293 248 796 0 506-248 796-248 291-673 291zm1253 1979v-575q-238 112-480 171-242 60-480 60-625 0-955-422-329-422-376-1275 184 272 462 417 279 145 613 145 703 0 1111-427 408-426 408-1160 0-719-425-1154-425-434-1131-434-810 0-1238 620-428 621-428 1799 0 1106 525 1764t1409 658q238 0 480-47t505-140z"/>
</defs>
<use xlink:href="#d"/>
<use transform="translate(63.6)" xlink:href="#c"/>
<use transform="translate(127)" xlink:href="#d"/>
<use transform="translate(191)" xlink:href="#h"/>
<use transform="translate(254)" xlink:href="#f"/>
<use transform="translate(291)" xlink:href="#c"/>
<use transform="translate(354)" xlink:href="#ah"/>
</g>
<path d="m40.6 351h676" clip-path="url(#k)" fill="none" stroke="#b0b0b0" stroke-linecap="square" stroke-width=".8"/>
<defs>
<path id="l" d="m0 0h-3.5" stroke="#000" stroke-width=".8"/>
</defs>
<use x="40.645553" y="351.264775" stroke="#000000" stroke-width=".8" xlink:href="#l"/>
<g transform="translate(3 355) scale(.1 -.1)">
<defs>
<path id="i" transform="scale(.0156)" d="m684 794h660v-794h-660v794z"/>
<path id="m" transform="scale(.0156)" d="m4488 3438-1429-1435 1429-1428-372-378-1435 1434-1434-1434-369 378 1425 1428-1425 1435 369 378 1434-1435 1435 1435 372-378z"/>
</defs>
<use xlink:href="#c"/>
<use transform="translate(63.6)" xlink:href="#i"/>
<use transform="translate(95.4)" xlink:href="#ad"/>
<use transform="translate(159)" xlink:href="#c"/>
<use transform="translate(223)" xlink:href="#m"/>
</g>
<path d="m40.6 312h676" clip-path="url(#k)" fill="none" stroke="#b0b0b0" stroke-linecap="square" stroke-width=".8"/>
<use x="40.645553" y="311.823253" stroke="#000000" stroke-width=".8" xlink:href="#l"/>
<g transform="translate(3 316) scale(.1 -.1)">
<use xlink:href="#c"/>
<use transform="translate(63.6)" xlink:href="#i"/>
<use transform="translate(95.4)" xlink:href="#ad"/>
<use transform="translate(159)" xlink:href="#h"/>
<use transform="translate(223)" xlink:href="#m"/>
</g>
<path d="m40.6 272h676" clip-path="url(#k)" fill="none" stroke="#b0b0b0" stroke-linecap="square" stroke-width=".8"/>
<use x="40.645553" y="272.38173" stroke="#000000" stroke-width=".8" xlink:href="#l"/>
<g transform="translate(3 276) scale(.1 -.1)">
<use xlink:href="#e"/>
<use transform="translate(63.6)" xlink:href="#i"/>
<use transform="translate(95.4)" xlink:href="#c"/>
<use transform="translate(159)" xlink:href="#c"/>
<use transform="translate(223)" xlink:href="#m"/>
</g>
<path d="m40.6 233h676" clip-path="url(#k)" fill="none" stroke="#b0b0b0" stroke-linecap="square" stroke-width=".8"/>
<use x="40.645553" y="232.940208" stroke="#000000" stroke-width=".8" xlink:href="#l"/>
<g transform="translate(3 237) scale(.1 -.1)">
<use xlink:href="#e"/>
<use transform="translate(63.6)" xlink:href="#i"/>
<use transform="translate(95.4)" xlink:href="#c"/>
<use transform="translate(159)" xlink:href="#h"/>
<use transform="translate(223)" xlink:href="#m"/>
</g>
<path d="m40.6 193h676" clip-path="url(#k)" fill="none" stroke="#b0b0b0" stroke-linecap="square" stroke-width=".8"/>
<use x="40.645553" y="193.498685" stroke="#000000" stroke-width=".8" xlink:href="#l"/>
<g transform="translate(3 197) scale(.1 -.1)">
<use xlink:href="#e"/>
<use transform="translate(63.6)" xlink:href="#i"/>
<use transform="translate(95.4)" xlink:href="#e"/>
<use transform="translate(159)" xlink:href="#c"/>
<use transform="translate(223)" xlink:href="#m"/>
</g>
<path d="m40.6 154h676" clip-path="url(#k)" fill="none" stroke="#b0b0b0" stroke-linecap="square" stroke-width=".8"/>
<use x="40.645553" y="154.057163" stroke="#000000" stroke-width=".8" xlink:href="#l"/>
<g transform="translate(3 158) scale(.1 -.1)">
<use xlink:href="#e"/>
<use transform="translate(63.6)" xlink:href="#i"/>
<use transform="translate(95.4)" xlink:href="#e"/>
<use transform="translate(159)" xlink:href="#h"/>
<use transform="translate(223)" xlink:href="#m"/>
</g>
<path d="m40.6 115h676" clip-path="url(#k)" fill="none" stroke="#b0b0b0" stroke-linecap="square" stroke-width=".8"/>
<use x="40.645553" y="114.61564" stroke="#000000" stroke-width=".8" xlink:href="#l"/>
<g transform="translate(3 118) scale(.1 -.1)">
<use xlink:href="#e"/>
<use transform="translate(63.6)" xlink:href="#i"/>
<use transform="translate(95.4)" xlink:href="#d"/>
<use transform="translate(159)" xlink:href="#c"/>
<use transform="translate(223)" xlink:href="#m"/>
</g>
<path d="m40.6 75.2h676" clip-path="url(#k)" fill="none" stroke="#b0b0b0" stroke-linecap="square" stroke-width=".8"/>
<use x="40.645553" y="75.174118" stroke="#000000" stroke-width=".8" xlink:href="#l"/>
<g transform="translate(3 79) scale(.1 -.1)">
<use xlink:href="#e"/>
<use transform="translate(63.6)" xlink:href="#i"/>
<use transform="translate(95.4)" xlink:href="#d"/>
<use transform="translate(159)" xlink:href="#h"/>
<use transform="translate(223)" xlink:href="#m"/>
</g>
<path d="m40.6 35.7h676" clip-path="url(#k)" fill="none" stroke="#b0b0b0" stroke-linecap="square" stroke-width=".8"/>
<use x="40.645553" y="35.732595" stroke="#000000" stroke-width=".8" xlink:href="#l"/>
<g transform="translate(3 39.5) scale(.1 -.1)">
<use xlink:href="#e"/>
<use transform="translate(63.6)" xlink:href="#i"/>
<use transform="translate(95.4)" xlink:href="#ae"/>
<use transform="translate(159)" xlink:href="#c"/>
<use transform="translate(223)" xlink:href="#m"/>
</g>
<path d="m504 218 1.43 78.3 13.8-58.5 15.5-29.2 3.89 59.7 6.24-34.6 5.2 1.27 15-4.23 15.8 2.93 15.2 8.27 15.6-3.75 15.3 2.54 14.4 4.09 16.2-12.4 15.3 2.18" clip-path="url(#k)" fill="none" stroke="#1f77b4" stroke-dasharray="1.5,2.475" stroke-opacity=".9" stroke-width="1.5"/>
<defs>
<path id="a" d="m-2.5 2.5h5v-5h-5z" stroke="#1f77b4" stroke-opacity=".9"/>
</defs>
<g clip-path="url(#k)" fill="#1f77b4" fill-opacity=".9" stroke="#1f77b4" stroke-opacity=".9">
<use x="504.029497" y="217.972608" xlink:href="#a"/>
<use x="505.464342" y="296.236601" xlink:href="#a"/>
<use x="519.261765" y="237.786525" xlink:href="#a"/>
<use x="534.782719" y="208.609505" xlink:href="#a"/>
<use x="538.67337" y="268.348273" xlink:href="#a"/>
<use x="544.914831" y="233.780467" xlink:href="#a"/>
<use x="550.119551" y="235.050049" xlink:href="#a"/>
<use x="565.085035" y="230.815623" xlink:href="#a"/>
<use x="580.867945" y="233.746182" xlink:href="#a"/>
<use x="596.037881" y="242.018666" xlink:href="#a"/>
<use x="611.594969" y="238.265931" xlink:href="#a"/>
<use x="626.943895" y="240.808105" xlink:href="#a"/>
<use x="641.389155" y="244.894915" xlink:href="#a"/>
<use x="657.601498" y="232.452493" xlink:href="#a"/>
<use x="672.932612" y="234.631196" xlink:href="#a"/>
</g>
<path d="m504 180 15.2-2.98 15.5 45.3 15.3 19.4 15-18.7 31 19.8 15.6-11.4 15.3 8.54 14.4 3.35 16.2-5.19 15.3 7.39" clip-path="url(#k)" fill="none" stroke="#2ca02c" stroke-linecap="square" stroke-opacity=".9" stroke-width="1.5"/>
<defs>
<path id="b" d="m0-2.5-2.5 5h5z" stroke="#2ca02c" stroke-opacity=".9"/>
</defs>
<g clip-path="url(#k)" fill="#2ca02c" fill-opacity=".9" stroke="#2ca02c" stroke-opacity=".9">
<use x="504.029497" y="179.969255" xlink:href="#b"/>
<use x="519.261765" y="176.992682" xlink:href="#b"/>
<use x="534.782719" y="222.29429" xlink:href="#b"/>
<use x="550.119551" y="241.648786" xlink:href="#b"/>
<use x="565.085035" y="222.987989" xlink:href="#b"/>
<use x="596.037881" y="242.766761" xlink:href="#b"/>
<use x="611.594969" y="231.392996" xlink:href="#b"/>
<use x="626.943895" y="239.932954" xlink:href="#b"/>
<use x="641.389155" y="243.285585" xlink:href="#b"/>
<use x="657.601498" y="238.099275" xlink:href="#b"/>
<use x="672.932612" y="245.490371" xlink:href="#b"/>
</g>
<path d="m40.6 351v-316" fill="none" stroke="#000" stroke-linecap="square" stroke-width=".8"/>
<path d="m717 351v-316" fill="none" stroke="#000" stroke-linecap="square" stroke-width=".8"/>
<path d="m40.6 351h676" fill="none" stroke="#000" stroke-linecap="square" stroke-width=".8"/>
<path d="m40.6 35.7h676" fill="none" stroke="#000" stroke-linecap="square" stroke-width=".8"/>
<g clip-path="url(#k)">
<g transform="translate(58.2 264) rotate(-90) scale(.1 -.1)">
<defs>
<path id="y" transform="scale(.0156)" d="m2375 4863v-479h-550q-309 0-430-125-120-125-120-450v-309h947v-447h-947v-3053h-578v3053h-550v447h550v244q0 584 272 851 272 268 862 268h544z"/>
<path id="r" transform="scale(.0156)" d="m2194 1759q-697 0-966-159t-269-544q0-306 202-486 202-179 548-179 479 0 768 339t289 901v128h-572zm1147 238v-2e3h-575v531q-197-318-491-470t-719-152q-537 0-855 302-317 302-317 808 0 590 395 890 396 300 1180 300h807v57q0 397-261 614t-733 217q-300 0-585-72-284-72-546-216v532q315 122 612 182 297 61 578 61 760 0 1135-394 375-393 375-1193z"/>
<path id="s" transform="scale(.0156)" d="m2834 3397v-544q-243 125-506 187-262 63-544 63-428 0-642-131t-214-394q0-200 153-314t616-217l197-44q612-131 870-370t258-667q0-488-386-773-386-284-1061-284-281 0-586 55t-642 164v594q319-166 628-249 309-82 613-82 406 0 624 139 219 139 219 392 0 234-158 359-157 125-692 241l-200 47q-534 112-772 345-237 233-237 639 0 494 350 762 350 269 994 269 318 0 599-47 282-46 519-140z"/>
<path id="p" transform="scale(.0156)" d="m1172 4494v-994h1184v-447h-1184v-1900q0-428 117-550t477-122h590v-481h-590q-666 0-919 248-253 249-253 905v1900h-422v447h422v994h578z"/>
<path id="n" transform="scale(.0156)" d="m3597 1894v-281h-2644q38-594 358-905t892-311q331 0 642 81t618 244v-544q-310-131-635-200t-659-69q-838 0-1327 487-489 488-489 1320 0 859 464 1363 464 505 1252 505 706 0 1117-455 411-454 411-1235zm-575 169q-6 471-264 752-258 282-683 282-481 0-770-272t-333-766l2050 4z"/>
<path id="q" transform="scale(.0156)" d="m2631 2963q-97 56-211 82-114 27-251 27-488 0-749-317t-261-911v-1844h-578v3500h578v-544q182 319 472 473 291 155 707 155 59 0 131-8 72-7 159-23l3-590z"/>
<path id="ao" transform="scale(.0156)" d="m8863 2147v-281l-1229-1228-375 375 729 728h-7622v531h7622l-729 728 375 375 1229-1228z"/>
</defs>
<use xlink:href="#y"/>
<use transform="translate(35.2)" xlink:href="#r"/>
<use transform="translate(96.5)" xlink:href="#s"/>
<use transform="translate(149)" xlink:href="#p"/>
<use transform="translate(188)" xlink:href="#n"/>
<use transform="translate(249)" xlink:href="#q"/>
<use transform="translate(290)" xlink:href="#DejaVuSans-20"/>
<use transform="translate(322)" xlink:href="#ao"/>
</g>
</g>
<g clip-path="url(#k)">
<g transform="translate(58.2 332) rotate(-90) scale(.1 -.1)">
<defs>
<path id="ap" transform="scale(.0156)" d="m313 1866v281l1228 1228 375-375-728-728h7621v-531h-7621l728-728-375-375-1228 1228z"/>
<path id="x" transform="scale(.0156)" d="m603 4863h575v-4863h-575v4863z"/>
<path id="t" transform="scale(.0156)" d="m1959 3097q-462 0-731-361t-269-989 267-989q268-361 733-361 460 0 728 362 269 363 269 988 0 622-269 986-268 364-728 364zm0 487q750 0 1178-488 429-487 429-1349 0-859-429-1349-428-489-1178-489-753 0-1180 489-426 490-426 1349 0 862 426 1349 427 488 1180 488z"/>
<path id="af" transform="scale(.0156)" d="m269 3500h575l719-2731 715 2731h678l719-2731 716 2731h575l-916-3500h-678l-753 2869-756-2869h-679l-915 3500z"/>
</defs>
<use xlink:href="#ap"/>
<use transform="translate(143)" xlink:href="#DejaVuSans-20"/>
<use transform="translate(175)" xlink:href="#s"/>
<use transform="translate(227)" xlink:href="#x"/>
<use transform="translate(255)" xlink:href="#t"/>
<use transform="translate(316)" xlink:href="#af"/>
<use transform="translate(398)" xlink:href="#n"/>
<use transform="translate(460)" xlink:href="#q"/>
</g>
</g>
<g transform="translate(174 29.7) scale(.12 -.12)">
<defs>
<path id="al" transform="scale(.0156)" d="m628 4666h2950v-532h-2319v-1381h2222v-531h-2222v-1691h2375v-531h-3006v4666z"/>
<path id="z" transform="scale(.0156)" d="m3122 3366v-538q-244 135-489 202t-495 67q-560 0-870-355-309-354-309-995t309-996q310-354 870-354 250 0 495 67t489 202v-532q-241-112-499-168-257-57-548-57-791 0-1257 497-465 497-465 1341 0 856 470 1346 471 491 1290 491 265 0 518-55 253-54 491-163z"/>
<path id="ar" transform="scale(.0156)" d="m3116 1747q0 634-261 995t-717 361q-457 0-718-361t-261-995 261-995 718-361q456 0 717 361t261 995zm-1957 1222q182 312 458 463 277 152 661 152 638 0 1036-506 399-506 399-1331t-399-1332q-398-506-1036-506-384 0-661 152-276 152-458 464v-525h-578v4863h578v-1894z"/>
<path id="ab" transform="scale(.0156)" d="m544 1381v2119h575v-2097q0-497 193-746 194-248 582-248 465 0 735 297 271 297 271 810v1984h575v-3500h-575v538q-209-319-486-474-276-155-642-155-603 0-916 375-312 375-312 1097zm1447 2203z"/>
<path id="u" transform="scale(.0156)" d="m603 3500h575v-3500h-575v3500zm0 1363h575v-729h-575v729z"/>
<path id="ak" transform="scale(.0156)" d="m2906 2969v1894h575v-4863h-575v525q-181-312-458-464-276-152-664-152-634 0-1033 506-398 507-398 1332t398 1331q399 506 1033 506 388 0 664-152 277-151 458-463zm-1959-1222q0-634 261-995t717-361 718 361q263 361 263 995t-263 995q-262 361-718 361t-717-361-261-995z"/>
<path id="aq" transform="scale(.0156)" d="m3513 2113v-2113h-575v2094q0 497-194 743-194 247-581 247-466 0-735-297-269-296-269-809v-1978h-578v4863h578v-1907q207 316 486 472 280 156 646 156 603 0 912-373 310-373 310-1098z"/>
<path id="aa" transform="scale(.0156)" d="m3513 2113v-2113h-575v2094q0 497-194 743-194 247-581 247-466 0-735-297-269-296-269-809v-1978h-578v3500h578v-544q207 316 486 472 280 156 646 156 603 0 912-373 310-373 310-1098z"/>
<path id="aj" transform="scale(.0156)" d="m2906 1791q0 625-258 968-257 344-723 344-462 0-720-344-258-343-258-968 0-622 258-966t720-344q466 0 723 344 258 344 258 966zm575-1357q0-893-397-1329-396-436-1215-436-303 0-572 45t-522 139v559q253-137 500-202 247-66 503-66 566 0 847 295t281 892v285q-178-310-456-463t-666-153q-643 0-1037 490-394 491-394 1301 0 812 394 1302 394 491 1037 491 388 0 666-153t456-462v531h575v-3066z"/>
<path id="ac" transform="scale(.0156)" d="m191 3500h609l1094-2937 1094 2937h609l-1313-3500h-781l-1312 3500z"/>
<path id="ag" transform="scale(.0156)" d="m-19 4666h3947v-532h-1656v-4134h-634v4134h-1657v532z"/>
<path id="an" transform="scale(.0156)" d="m1984 4856q-418-718-622-1422-203-703-203-1425 0-721 205-1429t620-1424h-500q-468 735-701 1444t-233 1409q0 697 231 1403 232 707 703 1444h500z"/>
<path id="w" transform="scale(.0156)" d="m3328 2828q216 388 516 572t706 184q547 0 844-383 297-382 297-1088v-2113h-578v2094q0 503-179 746-178 244-543 244-447 0-707-297-259-296-259-809v-1978h-578v2094q0 506-178 748t-550 242q-441 0-701-298-259-298-259-808v-1978h-578v3500h578v-544q197 322 472 475t653 153q382 0 649-194 267-193 395-562z"/>
<path id="am" transform="scale(.0156)" d="m513 4856h500q468-737 701-1444 233-706 233-1403 0-700-233-1409t-701-1444h-500q415 716 620 1424t205 1429q0 722-205 1425-205 704-620 1422z"/>
</defs>
<use xlink:href="#al"/>
<use transform="translate(63.2)" xlink:href="#y"/>
<use transform="translate(98.4)" xlink:href="#y"/>
<use transform="translate(134)" xlink:href="#n"/>
<use transform="translate(195)" xlink:href="#z"/>
<use transform="translate(250)" xlink:href="#p"/>
<use transform="translate(289)" xlink:href="#DejaVuSans-20"/>
<use transform="translate(321)" xlink:href="#t"/>
<use transform="translate(382)" xlink:href="#y"/>
<use transform="translate(417)" xlink:href="#DejaVuSans-20"/>
<use transform="translate(449)" xlink:href="#ar"/>
<use transform="translate(513)" xlink:href="#ab"/>
<use transform="translate(576)" xlink:href="#u"/>
<use transform="translate(604)" xlink:href="#x"/>
<use transform="translate(632)" xlink:href="#ak"/>
<use transform="translate(695)" xlink:href="#DejaVuSans-20"/>
<use transform="translate(727)" xlink:href="#af"/>
<use transform="translate(809)" xlink:href="#u"/>
<use transform="translate(837)" xlink:href="#p"/>
<use transform="translate(876)" xlink:href="#aq"/>
<use transform="translate(939)" xlink:href="#DejaVuSans-20"/>
<use transform="translate(971)" xlink:href="#x"/>
<use transform="translate(999)" xlink:href="#r"/>
<use transform="translate(1060)" xlink:href="#p"/>
<use transform="translate(1099)" xlink:href="#n"/>
<use transform="translate(1161)" xlink:href="#s"/>
<use transform="translate(1213)" xlink:href="#p"/>
<use transform="translate(1252)" xlink:href="#DejaVuSans-20"/>
<use transform="translate(1284)" xlink:href="#z"/>
<use transform="translate(1339)" xlink:href="#x"/>
<use transform="translate(1367)" xlink:href="#r"/>
<use transform="translate(1428)" xlink:href="#aa"/>
<use transform="translate(1491)" xlink:href="#aj"/>
<use transform="translate(1555)" xlink:href="#DejaVuSans-20"/>
<use transform="translate(1586)" xlink:href="#r"/>
<use transform="translate(1648)" xlink:href="#aa"/>
<use transform="translate(1711)" xlink:href="#ak"/>
<use transform="translate(1775)" xlink:href="#DejaVuSans-20"/>
<use transform="translate(1806)" xlink:href="#p"/>
<use transform="translate(1846)" xlink:href="#r"/>
<use transform="translate(1907)" xlink:href="#u"/>
<use transform="translate(1935)" xlink:href="#x"/>
<use transform="translate(1962)" xlink:href="#z"/>
<use transform="translate(2017)" xlink:href="#r"/>
<use transform="translate(2079)" xlink:href="#x"/>
<use transform="translate(2106)" xlink:href="#x"/>
<use transform="translate(2134)" xlink:href="#DejaVuSans-20"/>
<use transform="translate(2166)" xlink:href="#ac"/>
<use transform="translate(2225)" xlink:href="#s"/>
<use transform="translate(2277)" xlink:href="#i"/>
<use transform="translate(2309)" xlink:href="#DejaVuSans-20"/>
<use transform="translate(2341)" xlink:href="#ag"/>
<use transform="translate(2399)" xlink:href="#u"/>
<use transform="translate(2427)" xlink:href="#n"/>
<use transform="translate(2488)" xlink:href="#q"/>
<use transform="translate(2529)" xlink:href="#DejaVuSans-20"/>
<use transform="translate(2561)" xlink:href="#e"/>
<use transform="translate(2625)" xlink:href="#DejaVuSans-20"/>
<use transform="translate(2656)" xlink:href="#an"/>
<use transform="translate(2696)" xlink:href="#s"/>
<use transform="translate(2748)" xlink:href="#r"/>
<use transform="translate(2809)" xlink:href="#w"/>
<use transform="translate(2906)" xlink:href="#n"/>
<use transform="translate(2968)" xlink:href="#DejaVuSans-20"/>
<use transform="translate(3e3)" xlink:href="#z"/>
<use transform="translate(3055)" xlink:href="#t"/>
<use transform="translate(3116)" xlink:href="#w"/>
<use transform="translate(3213)" xlink:href="#w"/>
<use transform="translate(3311)" xlink:href="#u"/>
<use transform="translate(3338)" xlink:href="#p"/>
<use transform="translate(3378)" xlink:href="#am"/>
</g>
<path d="m47.6 73.1h82.6q2 0 2-2v-28.4q0-2-2-2h-82.6q-2 0-2 2v28.4q0 2 2 2z" fill="#fff" opacity=".8" stroke="#ccc"/>
<path d="m49.6 48.8h10 10" fill="none" stroke="#1f77b4" stroke-dasharray="1.5,2.475" stroke-opacity=".9" stroke-width="1.5"/>
<use x="59.645553" y="48.831032" fill="#1f77b4" fill-opacity=".9" stroke="#1f77b4" stroke-opacity=".9" xlink:href="#a"/>
<g transform="translate(77.6 52.3) scale(.1 -.1)">
<defs>
<path id="ai" transform="scale(.0156)" d="m3513 3500-1266-1703 1331-1797h-678l-1019 1375-1018-1375h-679l1360 1831-1244 1669h678l928-1247 928 1247h679z"/>
</defs>
<use xlink:href="#x"/>
<use transform="translate(27.8)" xlink:href="#u"/>
<use transform="translate(55.6)" xlink:href="#aa"/>
<use transform="translate(119)" xlink:href="#ab"/>
<use transform="translate(182)" xlink:href="#ai"/>
<use transform="translate(242)" xlink:href="#f"/>
<use transform="translate(275)" xlink:href="#ac"/>
<use transform="translate(334)" xlink:href="#ab"/>
<use transform="translate(398)" xlink:href="#x"/>
<use transform="translate(425)" xlink:href="#p"/>
<use transform="translate(465)" xlink:href="#q"/>
</g>
<path d="m49.6 63.5h10 10" fill="none" stroke="#2ca02c" stroke-linecap="square" stroke-opacity=".9" stroke-width="1.5"/>
<use x="59.645553" y="63.509158" fill="#2ca02c" fill-opacity=".9" stroke="#2ca02c" stroke-opacity=".9" xlink:href="#b"/>
<g transform="translate(77.6 67) scale(.1 -.1)">
<use xlink:href="#w"/>
<use transform="translate(97.4)" xlink:href="#r"/>
<use transform="translate(159)" xlink:href="#z"/>
<use transform="translate(214)" xlink:href="#t"/>
<use transform="translate(275)" xlink:href="#s"/>
</g>
<path d="m40.6 706h676v-316h-676z" fill="#fff"/>
<path d="m58.3 706v-316" clip-path="url(#o)" fill="none" stroke="#b0b0b0" stroke-linecap="square" stroke-width=".8"/>
<use x="58.284289" y="705.793205" stroke="#000000" stroke-width=".8" xlink:href="#g"/>
<g transform="translate(37.4 720) scale(.1 -.1)">
<use xlink:href="#d"/>
<use transform="translate(63.6)" xlink:href="#c"/>
<use transform="translate(127)" xlink:href="#d"/>
<use transform="translate(191)" xlink:href="#v"/>
<use transform="translate(254)" xlink:href="#f"/>
<use transform="translate(291)" xlink:href="#c"/>
<use transform="translate(354)" xlink:href="#ad"/>
</g>
<path d="m124 706v-316" clip-path="url(#o)" fill="none" stroke="#b0b0b0" stroke-linecap="square" stroke-width=".8"/>
<use x="124.147841" y="705.793205" stroke="#000000" stroke-width=".8" xlink:href="#g"/>
<g transform="translate(103 720) scale(.1 -.1)">
<use xlink:href="#d"/>
<use transform="translate(63.6)" xlink:href="#c"/>
<use transform="translate(127)" xlink:href="#d"/>
<use transform="translate(191)" xlink:href="#v"/>
<use transform="translate(254)" xlink:href="#f"/>
<use transform="translate(291)" xlink:href="#e"/>
<use transform="translate(354)" xlink:href="#c"/>
</g>
<path d="m192 706v-316" clip-path="url(#o)" fill="none" stroke="#b0b0b0" stroke-linecap="square" stroke-width=".8"/>
<use x="192.206845" y="705.793205" stroke="#000000" stroke-width=".8" xlink:href="#g"/>
<g transform="translate(171 720) scale(.1 -.1)">
<use xlink:href="#d"/>
<use transform="translate(63.6)" xlink:href="#c"/>
<use transform="translate(127)" xlink:href="#d"/>
<use transform="translate(191)" xlink:href="#v"/>
<use transform="translate(254)" xlink:href="#f"/>
<use transform="translate(291)" xlink:href="#e"/>
<use transform="translate(354)" xlink:href="#e"/>
</g>
<path d="m258 706v-316" clip-path="url(#o)" fill="none" stroke="#b0b0b0" stroke-linecap="square" stroke-width=".8"/>
<use x="258.070397" y="705.793205" stroke="#000000" stroke-width=".8" xlink:href="#g"/>
<g transform="translate(237 720) scale(.1 -.1)">
<use xlink:href="#d"/>
<use transform="translate(63.6)" xlink:href="#c"/>
<use transform="translate(127)" xlink:href="#d"/>
<use transform="translate(191)" xlink:href="#v"/>
<use transform="translate(254)" xlink:href="#f"/>
<use transform="translate(291)" xlink:href="#e"/>
<use transform="translate(354)" xlink:href="#d"/>
</g>
<path d="m326 706v-316" clip-path="url(#o)" fill="none" stroke="#b0b0b0" stroke-linecap="square" stroke-width=".8"/>
<use x="326.129401" y="705.793205" stroke="#000000" stroke-width=".8" xlink:href="#g"/>
<g transform="translate(305 720) scale(.1 -.1)">
<use xlink:href="#d"/>
<use transform="translate(63.6)" xlink:href="#c"/>
<use transform="translate(127)" xlink:href="#d"/>
<use transform="translate(191)" xlink:href="#h"/>
<use transform="translate(254)" xlink:href="#f"/>
<use transform="translate(291)" xlink:href="#c"/>
<use transform="translate(354)" xlink:href="#e"/>
</g>
<path d="m394 706v-316" clip-path="url(#o)" fill="none" stroke="#b0b0b0" stroke-linecap="square" stroke-width=".8"/>
<use x="394.188404" y="705.793205" stroke="#000000" stroke-width=".8" xlink:href="#g"/>
<g transform="translate(373 720) scale(.1 -.1)">
<use xlink:href="#d"/>
<use transform="translate(63.6)" xlink:href="#c"/>
<use transform="translate(127)" xlink:href="#d"/>
<use transform="translate(191)" xlink:href="#h"/>
<use transform="translate(254)" xlink:href="#f"/>
<use transform="translate(291)" xlink:href="#c"/>
<use transform="translate(354)" xlink:href="#d"/>
</g>
<path d="m456 706v-316" clip-path="url(#o)" fill="none" stroke="#b0b0b0" stroke-linecap="square" stroke-width=".8"/>
<use x="455.661053" y="705.793205" stroke="#000000" stroke-width=".8" xlink:href="#g"/>
<g transform="translate(435 720) scale(.1 -.1)">
<use xlink:href="#d"/>
<use transform="translate(63.6)" xlink:href="#c"/>
<use transform="translate(127)" xlink:href="#d"/>
<use transform="translate(191)" xlink:href="#h"/>
<use transform="translate(254)" xlink:href="#f"/>
<use transform="translate(291)" xlink:href="#c"/>
<use transform="translate(354)" xlink:href="#ae"/>
</g>
<path d="m524 706v-316" clip-path="url(#o)" fill="none" stroke="#b0b0b0" stroke-linecap="square" stroke-width=".8"/>
<use x="523.720057" y="705.793205" stroke="#000000" stroke-width=".8" xlink:href="#g"/>
<g transform="translate(503 720) scale(.1 -.1)">
<use xlink:href="#d"/>
<use transform="translate(63.6)" xlink:href="#c"/>
<use transform="translate(127)" xlink:href="#d"/>
<use transform="translate(191)" xlink:href="#h"/>
<use transform="translate(254)" xlink:href="#f"/>
<use transform="translate(291)" xlink:href="#c"/>
<use transform="translate(354)" xlink:href="#v"/>
</g>
<path d="m590 706v-316" clip-path="url(#o)" fill="none" stroke="#b0b0b0" stroke-linecap="square" stroke-width=".8"/>
<use x="589.583609" y="705.793205" stroke="#000000" stroke-width=".8" xlink:href="#g"/>
<g transform="translate(569 720) scale(.1 -.1)">
<use xlink:href="#d"/>
<use transform="translate(63.6)" xlink:href="#c"/>
<use transform="translate(127)" xlink:href="#d"/>
<use transform="translate(191)" xlink:href="#h"/>
<use transform="translate(254)" xlink:href="#f"/>
<use transform="translate(291)" xlink:href="#c"/>
<use transform="translate(354)" xlink:href="#h"/>
</g>
<path d="m658 706v-316" clip-path="url(#o)" fill="none" stroke="#b0b0b0" stroke-linecap="square" stroke-width=".8"/>
<use x="657.642612" y="705.793205" stroke="#000000" stroke-width=".8" xlink:href="#g"/>
<g transform="translate(637 720) scale(.1 -.1)">
<use xlink:href="#d"/>
<use transform="translate(63.6)" xlink:href="#c"/>
<use transform="translate(127)" xlink:href="#d"/>
<use transform="translate(191)" xlink:href="#h"/>
<use transform="translate(254)" xlink:href="#f"/>
<use transform="translate(291)" xlink:href="#c"/>
<use transform="translate(354)" xlink:href="#ah"/>
</g>
<path d="m40.6 673h676" clip-path="url(#o)" fill="none" stroke="#b0b0b0" stroke-linecap="square" stroke-width=".8"/>
<use x="40.645553" y="673.16728" stroke="#000000" stroke-width=".8" xlink:href="#l"/>
<g transform="translate(3 677) scale(.1 -.1)">
<use xlink:href="#c"/>
<use transform="translate(63.6)" xlink:href="#i"/>
<use transform="translate(95.4)" xlink:href="#ah"/>
<use transform="translate(159)" xlink:href="#c"/>
<use transform="translate(223)" xlink:href="#m"/>
</g>
<path d="m40.6 612h676" clip-path="url(#o)" fill="none" stroke="#b0b0b0" stroke-linecap="square" stroke-width=".8"/>
<use x="40.645553" y="612.222101" stroke="#000000" stroke-width=".8" xlink:href="#l"/>
<g transform="translate(3 616) scale(.1 -.1)">
<defs>
<path id="ay" transform="scale(.0156)" d="m525 4666h3e3v-269l-1694-4397h-659l1594 4134h-2241v532z"/>
</defs>
<use xlink:href="#c"/>
<use transform="translate(63.6)" xlink:href="#i"/>
<use transform="translate(95.4)" xlink:href="#ay"/>
<use transform="translate(159)" xlink:href="#c"/>
<use transform="translate(223)" xlink:href="#m"/>
</g>
<path d="m40.6 551h676" clip-path="url(#o)" fill="none" stroke="#b0b0b0" stroke-linecap="square" stroke-width=".8"/>
<use x="40.645553" y="551.276922" stroke="#000000" stroke-width=".8" xlink:href="#l"/>
<g transform="translate(3 555) scale(.1 -.1)">
<defs>
<path id="ax" transform="scale(.0156)" d="m2034 2216q-450 0-708-241-257-241-257-662 0-422 257-663 258-241 708-241t709 242q260 243 260 662 0 421-258 662-257 241-711 241zm-631 268q-406 100-633 378-226 279-226 679 0 559 398 884 399 325 1092 325 697 0 1094-325t397-884q0-400-227-679-226-278-629-378 456-106 710-416 255-309 255-755 0-679-414-1042-414-362-1186-362-771 0-1186 362-414 363-414 1042 0 446 256 755 257 310 713 416zm-231 997q0-362 226-565 227-203 636-203 407 0 636 203 230 203 230 565 0 363-230 566-229 203-636 203-409 0-636-203-226-203-226-566z"/>
</defs>
<use xlink:href="#c"/>
<use transform="translate(63.6)" xlink:href="#i"/>
<use transform="translate(95.4)" xlink:href="#ax"/>
<use transform="translate(159)" xlink:href="#c"/>
<use transform="translate(223)" xlink:href="#m"/>
</g>
<path d="m40.6 490h676" clip-path="url(#o)" fill="none" stroke="#b0b0b0" stroke-linecap="square" stroke-width=".8"/>
<use x="40.645553" y="490.331743" stroke="#000000" stroke-width=".8" xlink:href="#l"/>
<g transform="translate(3 494) scale(.1 -.1)">
<use xlink:href="#c"/>
<use transform="translate(63.6)" xlink:href="#i"/>
<use transform="translate(95.4)" xlink:href="#ad"/>
<use transform="translate(159)" xlink:href="#c"/>
<use transform="translate(223)" xlink:href="#m"/>
</g>
<path d="m40.6 429h676" clip-path="url(#o)" fill="none" stroke="#b0b0b0" stroke-linecap="square" stroke-width=".8"/>
<use x="40.645553" y="429.386564" stroke="#000000" stroke-width=".8" xlink:href="#l"/>
<g transform="translate(3 433) scale(.1 -.1)">
<use xlink:href="#e"/>
<use transform="translate(63.6)" xlink:href="#i"/>
<use transform="translate(95.4)" xlink:href="#c"/>
<use transform="translate(159)" xlink:href="#c"/>
<use transform="translate(223)" xlink:href="#m"/>
</g>
<g stroke="#1f77b4" stroke-opacity=".9">
<path d="m71.4 624 30 26 18.4-13.8 14.1 6.09 16.6 36.6 13.3 12.2h4.3l2.33-6.09h2.02l2.45 6.09 2.23-12.2 1.68 12.2 2.51-6.09h6.82l2.19-6.09h1.97l2.33 6.09 1.65-6.09 2.58 6.09 2.14-12.2 2.48 6.09 2.07-6.09 1.12 6.09 1.12-6.09 1.62 6.09h2.77l2.08-6.09 2.42 6.09h1.94l2.41-6.09 2.25-6.09 2.08 12.2 2.28 6.09 0.166-6.09 1.99-12.2 2.24 6.09h1.93l2.34-6.09 2.35-60.9 2.14-30.5 1.98-6.09 2.29 6.09 2.09 22.7 2.21-0.403 1.6 1.88 0.759 2.77 1.6-3.69 2.13-2.96 0.431 1.67 1.98-3.88 2.27 4.29 2.56 10.9 2.27-16.2 1.66 4.63 0.54-1.14 1.94-2.31 0.63-5.43 1.57 1.82 1.86 1.46 1.1 3.5 1.17 0.317 2.17-4.38 2.71 6.91 1.6-0.511 0.519 0.168 1.1-0.527 0.955 2.15 1.7-3.9 0.176-2.32 1.93-2.14 2.91 3.66 1.99-1.53 2.41 0.302 0.636-2.79 0.854 1.03 2.93-12.1 1.83 3.51 4.33-0.256 2.4-13.6 1.94 2.85 2.12 2.25 2.58-6.15 2.22 2.68 2.1 4.01 2.29-0.399 2.08-3.35 2.24 7.05 2.27-4.63 1.91-1.23 2.45-1.9 2.36-0.749 2.04 7.61 2.35-1.62 2.02-4.96 4.21 0.851 1.84-1.77 0.836 2.06 1.68-3.58 2.53 3.39 1.63-1.18 2.77-46.1 0.232-1.78 1.78-15.8 1.77-1.83 0.678 1.2 2.08 5.3 2.12 0.1 2.4 2.24 2.18 12.1 2.16-2.99 0.174 3.16 1.14-4.65 0.954 4.68 1.43-13.1 0.698 5.08 2.1-3.28 1.81-3.07 2.26-0.0838 2.67 11 1.05 2.52 1.14-1.11 2.18-13.2 2.05 0.443 1.76-17.5 2.12 7.03 2.15-0.337 0.645-0.844 1.59 9.17 2.77 0.263 1.89-7.5 2.56 2.52 2.11 9.53 2.28-3.87 2.18-1.93 2.04 4.23 2.4-5.27 2.12 2.1 1.68-1.3 0.124-2.68 2.43 0.962 1.98 2.87 2.66-1.3 1.83-1.27 2.53-4.05 2.01 1.21 2.4 1.19 1.64-3.09 2.2 3.54 2.78-0.785 1.94-2.08 0.845 5.6 0.237-0.373 1.07 2.31 1.61-0.606 0.644-0.757 2.36 12.4 1.82-8.15 0.226-2.48 2.15-3.89 2.19 11.5 0.427-7.34 1.92 3.9 2.2-6.31 2.19 2.13 2.26-3.66 1.97 3.46 2.24-1.8 2.06 9.34 1.64-26 0.829-1.14 2.21-5.22 2.06 5.93 2.03 2.62 0.29-2.36 2.04 2.42 1.97-1.84 2.48-2.69 1.77 2.84 0.474 6.36 1.37-5.06 0.924-7.59 2.21 1.58 2.22 2.92 2.16 7.68 2.11-0.821 1.43-1.69 2.86 1.2 0.141 2.93 1.1-2.74 1.12 2.22 1.75 1.89 0.0234 37.3 0.329 1.33 1.88 0.0281 2.64-3.65 1.95 1.87 2.37 4.09 2.02-4.68 0.325 0.301 2.12-19.2 2.19-2.67 1.89-0.512 2.39-1.62 2.22 6.98 2.26-1.34 1.63-1.67 0.634-3.54 1.71 4.01 0.356-0.36 1.7-16.5 0.526 4.25 1.32-26.8 0.786-3.45 2.08 7.12 2.33 1.52 2.28-1.82 2.24-4.31 2.05-2.06 2.12 1.21 0.551 3.11 1.54-4.98 2.36 1.84 1.8 3.24 2.67 1.76 2.17-1.98 2.24-0.426 2.2 1.79 2.26 0.527 1.9-1.53 2.34 4.19 2.24-2.71 2.21-4 0.869 0.823 1.42 3.45 2.13-1.05 2.11 4.84 1.35 1.46 0.931-4.31 1.92-0.511 2.49-0.919 2.22 1.4 1.1 7.66 3.29-2.9 2.21 0.389 1.83-1.25 2.41-3.64 1.56 1.86 2.79 1.85 1.78-2.54 2.22-0.334 2.66 6.12 1.97-5.44 2.37-0.9 4.53 4.92 2.19 1.45 2.23-3.66 2.07-1.85 2.1-1.53 1.32 3.1 3.18-4.61 2.07 1.81 2.07 0.267 2.46-1.84 2.04 0.227 1.93 2.5 2.46-5.69 1.65 6.84 2.93-0.46 1.63-2.36 2.71 4.66 1.72-5.71 2.73-2.47 1.96 3.63 2.32 3.84 2.35-4.43 1.23 0.497 3.11-0.242 2.16 0.965 2.16 1.68" clip-path="url(#o)" fill="none" stroke-dasharray="1.5,2.475" stroke-width="1.5"/>
<g clip-path="url(#o)" fill="#1f77b4" fill-opacity=".9">
<use x="71.388926" y="624.411136" xlink:href="#a"/>
<use x="101.427686" y="650.438901" xlink:href="#a"/>
<use x="119.7809" y="636.600172" xlink:href="#a"/>
<use x="133.839439" y="642.69469" xlink:href="#a"/>
<use x="150.397897" y="679.261797" xlink:href="#a"/>
<use x="163.673901" y="691.450833" xlink:href="#a"/>
<use x="165.841528" y="691.450833" xlink:href="#a"/>
<use x="167.977621" y="691.450833" xlink:href="#a"/>
<use x="170.309526" y="685.356315" xlink:href="#a"/>
<use x="172.329418" y="685.356315" xlink:href="#a"/>
<use x="174.777271" y="691.450833" xlink:href="#a"/>
<use x="177.008322" y="679.261797" xlink:href="#a"/>
<use x="178.691324" y="691.450833" xlink:href="#a"/>
<use x="181.199882" y="685.356315" xlink:href="#a"/>
<use x="183.418635" y="685.356315" xlink:href="#a"/>
<use x="185.610275" y="685.356315" xlink:href="#a"/>
<use x="188.018995" y="685.356315" xlink:href="#a"/>
<use x="190.213583" y="679.261797" xlink:href="#a"/>
<use x="192.183315" y="679.261797" xlink:href="#a"/>
<use x="194.510494" y="685.356315" xlink:href="#a"/>
<use x="196.157438" y="679.261797" xlink:href="#a"/>
<use x="198.73651" y="685.356315" xlink:href="#a"/>
<use x="200.879108" y="673.16728" xlink:href="#a"/>
<use x="203.357758" y="679.261797" xlink:href="#a"/>
<use x="205.431037" y="673.16728" xlink:href="#a"/>
<use x="206.551149" y="679.261797" xlink:href="#a"/>
<use x="207.671338" y="673.16728" xlink:href="#a"/>
<use x="209.294549" y="679.261797" xlink:href="#a"/>
<use x="210.282045" y="679.261797" xlink:href="#a"/>
<use x="212.059726" y="679.261797" xlink:href="#a"/>
<use x="214.138391" y="673.16728" xlink:href="#a"/>
<use x="216.557556" y="679.261797" xlink:href="#a"/>
<use x="218.496871" y="679.261797" xlink:href="#a"/>
<use x="220.908006" y="673.16728" xlink:href="#a"/>
<use x="223.160936" y="667.072762" xlink:href="#a"/>
<use x="225.243947" y="679.261797" xlink:href="#a"/>
<use x="227.528335" y="685.356315" xlink:href="#a"/>
<use x="227.693908" y="679.261797" xlink:href="#a"/>
<use x="229.687602" y="667.072762" xlink:href="#a"/>
<use x="231.925006" y="673.16728" xlink:href="#a"/>
<use x="233.858681" y="673.16728" xlink:href="#a"/>
<use x="236.199429" y="667.072762" xlink:href="#a"/>
<use x="238.070975" y="617.65062" xlink:href="#a"/>
<use x="238.549452" y="606.127583" xlink:href="#a"/>
<use x="240.334628" y="581.749511" xlink:href="#a"/>
<use x="240.694083" y="575.654993" xlink:href="#a"/>
<use x="242.673293" y="569.560475" xlink:href="#a"/>
<use x="244.962991" y="575.654993" xlink:href="#a"/>
<use x="247.053524" y="598.355971" xlink:href="#a"/>
<use x="249.267398" y="597.953438" xlink:href="#a"/>
<use x="250.866292" y="599.83082" xlink:href="#a"/>
<use x="251.625679" y="602.597045" xlink:href="#a"/>
<use x="253.22691" y="598.904224" xlink:href="#a"/>
<use x="255.357591" y="595.947943" xlink:href="#a"/>
<use x="255.789033" y="597.617484" xlink:href="#a"/>
<use x="257.76494" y="593.735874" xlink:href="#a"/>
<use x="260.036317" y="598.023762" xlink:href="#a"/>
<use x="262.599126" y="608.882181" xlink:href="#a"/>
<use x="264.870224" y="592.68274" xlink:href="#a"/>
<use x="266.53333" y="597.31241" xlink:href="#a"/>
<use x="267.073426" y="596.168738" xlink:href="#a"/>
<use x="269.016731" y="593.857852" xlink:href="#a"/>
<use x="269.646907" y="588.427535" xlink:href="#a"/>
<use x="271.212234" y="590.251481" xlink:href="#a"/>
<use x="273.070669" y="591.712087" xlink:href="#a"/>
<use x="274.166362" y="595.208485" xlink:href="#a"/>
<use x="275.339099" y="595.525273" xlink:href="#a"/>
<use x="277.511376" y="591.147401" xlink:href="#a"/>
<use x="280.222988" y="598.056294" xlink:href="#a"/>
<use x="281.440244" y="597.719603" xlink:href="#a"/>
<use x="281.820357" y="597.54522" xlink:href="#a"/>
<use x="282.339845" y="597.713197" xlink:href="#a"/>
<use x="283.443619" y="597.18612" xlink:href="#a"/>
<use x="284.399098" y="599.336633" xlink:href="#a"/>
<use x="286.095592" y="595.434782" xlink:href="#a"/>
<use x="286.271686" y="593.117076" xlink:href="#a"/>
<use x="288.205742" y="590.980719" xlink:href="#a"/>
<use x="291.119594" y="594.641602" xlink:href="#a"/>
<use x="293.105538" y="593.112269" xlink:href="#a"/>
<use x="295.510701" y="593.413929" xlink:href="#a"/>
<use x="296.146645" y="590.622531" xlink:href="#a"/>
<use x="297.000813" y="591.650189" xlink:href="#a"/>
<use x="299.93446" y="579.539529" xlink:href="#a"/>
<use x="301.767459" y="583.047363" xlink:href="#a"/>
<use x="306.098572" y="582.791181" xlink:href="#a"/>
<use x="308.501423" y="569.219985" xlink:href="#a"/>
<use x="310.44023" y="572.067775" xlink:href="#a"/>
<use x="312.56344" y="574.319811" xlink:href="#a"/>
<use x="315.14241" y="568.168418" xlink:href="#a"/>
<use x="317.361341" y="570.851548" xlink:href="#a"/>
<use x="319.460055" y="574.857086" xlink:href="#a"/>
<use x="321.749475" y="574.458054" xlink:href="#a"/>
<use x="323.830377" y="571.107823" xlink:href="#a"/>
<use x="326.072304" y="578.159393" xlink:href="#a"/>
<use x="328.34236" y="573.529708" xlink:href="#a"/>
<use x="330.250294" y="572.300002" xlink:href="#a"/>
<use x="332.698655" y="570.398418" xlink:href="#a"/>
<use x="335.061789" y="569.649737" xlink:href="#a"/>
<use x="337.104398" y="577.260072" xlink:href="#a"/>
<use x="339.452667" y="575.644787" xlink:href="#a"/>
<use x="341.471034" y="570.687503" xlink:href="#a"/>
<use x="345.683532" y="571.538998" xlink:href="#a"/>
<use x="347.527051" y="569.765076" xlink:href="#a"/>
<use x="348.363228" y="571.822073" xlink:href="#a"/>
<use x="350.047297" y="568.243299" xlink:href="#a"/>
<use x="352.581011" y="571.633433" xlink:href="#a"/>
<use x="354.210118" y="570.455168" xlink:href="#a"/>
<use x="356.9834" y="524.386264" xlink:href="#a"/>
<use x="357.214914" y="522.607864" xlink:href="#a"/>
<use x="358.991019" y="506.845419" xlink:href="#a"/>
<use x="360.756985" y="505.02002" xlink:href="#a"/>
<use x="361.435111" y="506.222665" xlink:href="#a"/>
<use x="363.518071" y="511.517916" xlink:href="#a"/>
<use x="365.637012" y="511.618179" xlink:href="#a"/>
<use x="368.03412" y="513.856728" xlink:href="#a"/>
<use x="370.211556" y="525.919196" xlink:href="#a"/>
<use x="372.368867" y="522.925746" xlink:href="#a"/>
<use x="372.542495" y="526.089117" xlink:href="#a"/>
<use x="373.686468" y="521.438436" xlink:href="#a"/>
<use x="374.640397" y="526.115573" xlink:href="#a"/>
<use x="376.066602" y="513.029971" xlink:href="#a"/>
<use x="376.764776" y="518.107573" xlink:href="#a"/>
<use x="378.868827" y="514.829282" xlink:href="#a"/>
<use x="380.680506" y="511.763649" xlink:href="#a"/>
<use x="382.937426" y="511.679886" xlink:href="#a"/>
<use x="385.608991" y="522.675348" xlink:href="#a"/>
<use x="386.657903" y="525.197923" xlink:href="#a"/>
<use x="387.801546" y="524.092178" xlink:href="#a"/>
<use x="389.984292" y="510.878753" xlink:href="#a"/>
<use x="392.030865" y="511.322078" xlink:href="#a"/>
<use x="393.794392" y="493.869335" xlink:href="#a"/>
<use x="395.910843" y="500.901771" xlink:href="#a"/>
<use x="398.056414" y="500.56431" xlink:href="#a"/>
<use x="398.70115" y="499.720714" xlink:href="#a"/>
<use x="400.290236" y="508.887595" xlink:href="#a"/>
<use x="403.060748" y="509.151013" xlink:href="#a"/>
<use x="404.949929" y="501.649981" xlink:href="#a"/>
<use x="407.50913" y="504.166302" xlink:href="#a"/>
<use x="409.617399" y="513.697459" xlink:href="#a"/>
<use x="411.897569" y="509.826404" xlink:href="#a"/>
<use x="414.080823" y="507.893733" xlink:href="#a"/>
<use x="416.122492" y="512.125742" xlink:href="#a"/>
<use x="418.520032" y="506.858415" xlink:href="#a"/>
<use x="420.639405" y="508.95485" xlink:href="#a"/>
<use x="422.316766" y="507.653729" xlink:href="#a"/>
<use x="422.4412" y="504.977031" xlink:href="#a"/>
<use x="424.866412" y="505.939017" xlink:href="#a"/>
<use x="426.847883" y="508.806791" xlink:href="#a"/>
<use x="429.509513" y="507.511379" xlink:href="#a"/>
<use x="431.337481" y="506.241841" xlink:href="#a"/>
<use x="433.866671" y="502.18964" xlink:href="#a"/>
<use x="435.878483" y="503.403576" xlink:href="#a"/>
<use x="438.278818" y="504.590898" xlink:href="#a"/>
<use x="439.918393" y="501.505521" xlink:href="#a"/>
<use x="442.114379" y="505.040637" xlink:href="#a"/>
<use x="444.898181" y="504.255986" xlink:href="#a"/>
<use x="446.84113" y="502.179666" xlink:href="#a"/>
<use x="447.685897" y="507.775455" xlink:href="#a"/>
<use x="447.923305" y="507.40219" xlink:href="#a"/>
<use x="448.990005" y="509.713142" xlink:href="#a"/>
<use x="450.603357" y="509.107523" xlink:href="#a"/>
<use x="451.246975" y="508.350728" xlink:href="#a"/>
<use x="453.607645" y="520.772015" xlink:href="#a"/>
<use x="455.431344" y="512.625884" xlink:href="#a"/>
<use x="455.657699" y="510.142721" xlink:href="#a"/>
<use x="457.804109" y="506.251518" xlink:href="#a"/>
<use x="459.99336" y="517.729802" xlink:href="#a"/>
<use x="460.420533" y="510.386423" xlink:href="#a"/>
<use x="462.336675" y="514.282452" xlink:href="#a"/>
<use x="464.540537" y="507.976815" xlink:href="#a"/>
<use x="466.729687" y="510.105522" xlink:href="#a"/>
<use x="468.987826" y="506.450263" xlink:href="#a"/>
<use x="470.953035" y="509.906301" xlink:href="#a"/>
<use x="473.189728" y="508.105454" xlink:href="#a"/>
<use x="475.25147" y="517.44436" xlink:href="#a"/>
<use x="476.894324" y="491.490558" xlink:href="#a"/>
<use x="477.72364" y="490.351908" xlink:href="#a"/>
<use x="479.929891" y="485.127413" xlink:href="#a"/>
<use x="481.984977" y="491.057074" xlink:href="#a"/>
<use x="484.010255" y="493.675979" xlink:href="#a"/>
<use x="484.300517" y="491.317653" xlink:href="#a"/>
<use x="486.341652" y="493.739398" xlink:href="#a"/>
<use x="488.310774" y="491.903899" xlink:href="#a"/>
<use x="490.792016" y="489.21173" xlink:href="#a"/>
<use x="492.562683" y="492.049713" xlink:href="#a"/>
<use x="493.03651" y="498.404756" xlink:href="#a"/>
<use x="494.403483" y="493.344344" xlink:href="#a"/>
<use x="495.327377" y="485.753455" xlink:href="#a"/>
<use x="497.536881" y="487.338331" xlink:href="#a"/>
<use x="499.752559" y="490.259334" xlink:href="#a"/>
<use x="501.914672" y="497.940895" xlink:href="#a"/>
<use x="504.029497" y="497.119599" xlink:href="#a"/>
<use x="505.464342" y="495.433027" xlink:href="#a"/>
<use x="508.326764" y="496.628216" xlink:href="#a"/>
<use x="508.467537" y="499.557969" xlink:href="#a"/>
<use x="509.569709" y="496.821843" xlink:href="#a"/>
<use x="510.693176" y="499.044271" xlink:href="#a"/>
<use x="512.445396" y="500.932351" xlink:href="#a"/>
<use x="512.468773" y="538.278877" xlink:href="#a"/>
<use x="512.797786" y="539.612864" xlink:href="#a"/>
<use x="514.674287" y="539.640937" xlink:href="#a"/>
<use x="517.314038" y="535.987248" xlink:href="#a"/>
<use x="519.261765" y="537.854758" xlink:href="#a"/>
<use x="521.62739" y="541.945077" xlink:href="#a"/>
<use x="523.648831" y="537.263433" xlink:href="#a"/>
<use x="523.97388" y="537.564716" xlink:href="#a"/>
<use x="526.090967" y="518.405415" xlink:href="#a"/>
<use x="528.278694" y="515.739586" xlink:href="#a"/>
<use x="530.172982" y="515.227485" xlink:href="#a"/>
<use x="532.559316" y="513.603294" xlink:href="#a"/>
<use x="534.782719" y="520.581321" xlink:href="#a"/>
<use x="537.039664" y="519.239165" xlink:href="#a"/>
<use x="538.67337" y="517.5684" xlink:href="#a"/>
<use x="539.307459" y="514.027143" xlink:href="#a"/>
<use x="541.021436" y="518.035981" xlink:href="#a"/>
<use x="541.377587" y="517.676184" xlink:href="#a"/>
<use x="543.073878" y="501.203162" xlink:href="#a"/>
<use x="543.599415" y="505.455886" xlink:href="#a"/>
<use x="544.914831" y="478.690573" xlink:href="#a"/>
<use x="545.701331" y="475.239693" xlink:href="#a"/>
<use x="547.786248" y="482.362308" xlink:href="#a"/>
<use x="550.119551" y="483.878624" xlink:href="#a"/>
<use x="552.402312" y="482.059533" xlink:href="#a"/>
<use x="554.647111" y="477.750003" xlink:href="#a"/>
<use x="556.700417" y="475.687439" xlink:href="#a"/>
<use x="558.824339" y="476.901778" xlink:href="#a"/>
<use x="559.375717" y="480.007598" xlink:href="#a"/>
<use x="560.918581" y="475.027153" xlink:href="#a"/>
<use x="563.280166" y="476.865229" xlink:href="#a"/>
<use x="565.085035" y="480.103711" xlink:href="#a"/>
<use x="567.753322" y="481.866369" xlink:href="#a"/>
<use x="569.928065" y="479.881851" xlink:href="#a"/>
<use x="572.168391" y="479.456186" xlink:href="#a"/>
<use x="574.368518" y="481.242132" xlink:href="#a"/>
<use x="576.632705" y="481.769621" xlink:href="#a"/>
<use x="578.531212" y="480.239012" xlink:href="#a"/>
<use x="580.867945" y="484.43261" xlink:href="#a"/>
<use x="583.11038" y="481.720712" xlink:href="#a"/>
<use x="585.320417" y="477.72117" xlink:href="#a"/>
<use x="586.189374" y="478.544143" xlink:href="#a"/>
<use x="587.604475" y="481.992616" xlink:href="#a"/>
<use x="589.735206" y="480.938089" xlink:href="#a"/>
<use x="591.842688" y="485.775228" xlink:href="#a"/>
<use x="593.189257" y="487.237821" xlink:href="#a"/>
<use x="594.120113" y="482.924046" xlink:href="#a"/>
<use x="596.037881" y="482.413298" xlink:href="#a"/>
<use x="598.527559" y="481.49381" xlink:href="#a"/>
<use x="600.749793" y="482.895153" xlink:href="#a"/>
<use x="601.849679" y="490.558479" xlink:href="#a"/>
<use x="605.142501" y="487.659509" xlink:href="#a"/>
<use x="607.357366" y="488.04895" xlink:href="#a"/>
<use x="609.185943" y="486.796099" xlink:href="#a"/>
<use x="611.594969" y="483.151326" xlink:href="#a"/>
<use x="613.159406" y="485.008064" xlink:href="#a"/>
<use x="615.945698" y="486.85516" xlink:href="#a"/>
<use x="617.726479" y="484.315466" xlink:href="#a"/>
<use x="619.944648" y="483.981403" xlink:href="#a"/>
<use x="622.607014" y="490.105253" xlink:href="#a"/>
<use x="624.572452" y="484.665412" xlink:href="#a"/>
<use x="626.943895" y="483.765626" xlink:href="#a"/>
<use x="628.859478" y="485.887427" xlink:href="#a"/>
<use x="631.478774" y="488.686087" xlink:href="#a"/>
<use x="633.666678" y="490.135126" xlink:href="#a"/>
<use x="635.898492" y="486.478779" xlink:href="#a"/>
<use x="637.967299" y="484.628329" xlink:href="#a"/>
<use x="640.066319" y="483.094741" xlink:href="#a"/>
<use x="641.389155" y="486.196056" xlink:href="#a"/>
<use x="644.569205" y="481.58521" xlink:href="#a"/>
<use x="646.640324" y="483.399535" xlink:href="#a"/>
<use x="648.710275" y="483.666955" xlink:href="#a"/>
<use x="651.171594" y="481.825107" xlink:href="#a"/>
<use x="653.210137" y="482.052484" xlink:href="#a"/>
<use x="655.1384" y="484.547771" xlink:href="#a"/>
<use x="657.601498" y="478.860261" xlink:href="#a"/>
<use x="659.252559" y="485.701621" xlink:href="#a"/>
<use x="662.186994" y="485.241126" xlink:href="#a"/>
<use x="663.815745" y="482.884054" xlink:href="#a"/>
<use x="666.528042" y="487.547299" xlink:href="#a"/>
<use x="668.244738" y="481.832642" xlink:href="#a"/>
<use x="670.974976" y="479.363203" xlink:href="#a"/>
<use x="672.932612" y="482.998084" xlink:href="#a"/>
<use x="675.249856" y="486.8366" xlink:href="#a"/>
<use x="677.597591" y="482.407366" xlink:href="#a"/>
<use x="678.832584" y="482.904259" xlink:href="#a"/>
<use x="681.93864" y="482.662626" xlink:href="#a"/>
<use x="684.096484" y="483.62774" xlink:href="#a"/>
<use x="686.256387" y="485.311524" xlink:href="#a"/>
</g>
</g>
<g stroke="#2ca02c" stroke-opacity=".9">
<path d="m71.4 591 347-104 67.9-7.33 7.27-1.13 1.37 2.85 0.924-0.959 2.21 0.204 2.22-29.5 2.16 33.1 2.11-33.4 1.43 30.5 3-44 1.1 2.94 1.12 11 2.1 27.4 1.88-27.5 2.64-46 1.95 1.05 2.37 45.5 2.02 36.5 2.44-14.9 2.19-29 1.89-7.7 2.39-6.37 2.22-2.4 2.26 2.45 2.27-0.568 2.07-1.12 2.22 2.18 1.32 2.63 0.786-2.8 2.08 3.97 2.33 0.752 2.28-1.94 2.24 0.798 4.18 1.78 2.09-0.887 2.36-9.97 1.8-6.25 2.67 2.98 2.17 2.36 2.24-6.83 2.2 25.2 2.26-0.256 8.69-2.64 0.869-4.58 1.42 0.921 2.13-7.33 2.11 10.6 1.35 2.01 0.931 1.56 1.92 1.29 2.49-2.7 2.22-7.47 1.1 10.4 3.29-11.6 2.21 10.2 1.83-8.52 2.41 1.66 1.56 0.0716 2.79 2.58 1.78-0.47 2.22 1.17 2.66 5.61 1.97-5.4 2.37 3.47 1.92 1.93 2.62 1.3 2.19 0.0324 2.23-12 2.07 5.23 2.1 3.56 1.32-4.21 3.18-3.03 2.07-3.31 2.07-2.3 2.46 10.9 2.04-2.75 1.93 0.388 2.46-0.668 1.65 2.84 2.93 1.94 1.63-0.0635 2.71 2.67 1.72-2.05 2.73-7.08 1.96 5.53 2.32 3.77 2.35-3.14 1.23-0.148 3.11 2.78 2.16-3.05 2.16-0.572" clip-path="url(#o)" fill="none" stroke-linecap="square" stroke-width="1.5"/>
<g clip-path="url(#o)" fill="#2ca02c" fill-opacity=".9">
<use x="71.388926" y="590.825897" xlink:href="#b"/>
<use x="417.906118" y="486.423282" xlink:href="#b"/>
<use x="485.764711" y="479.090914" xlink:href="#b"/>
<use x="493.03651" y="477.956888" xlink:href="#b"/>
<use x="494.403483" y="480.802795" xlink:href="#b"/>
<use x="495.327377" y="479.843732" xlink:href="#b"/>
<use x="497.536881" y="480.04808" xlink:href="#b"/>
<use x="499.752559" y="450.533416" xlink:href="#b"/>
<use x="501.914672" y="483.67739" xlink:href="#b"/>
<use x="504.029497" y="450.25215" xlink:href="#b"/>
<use x="505.464342" y="480.758447" xlink:href="#b"/>
<use x="508.467537" y="436.798432" xlink:href="#b"/>
<use x="509.569709" y="439.734179" xlink:href="#b"/>
<use x="510.693176" y="450.703188" xlink:href="#b"/>
<use x="512.797786" y="478.115182" xlink:href="#b"/>
<use x="514.674287" y="450.585353" xlink:href="#b"/>
<use x="517.314038" y="404.603397" xlink:href="#b"/>
<use x="519.261765" y="405.648692" xlink:href="#b"/>
<use x="521.62739" y="451.152398" xlink:href="#b"/>
<use x="523.648831" y="487.675674" xlink:href="#b"/>
<use x="526.090967" y="472.726416" xlink:href="#b"/>
<use x="528.278694" y="443.695104" xlink:href="#b"/>
<use x="530.172982" y="435.990723" xlink:href="#b"/>
<use x="532.559316" y="429.619522" xlink:href="#b"/>
<use x="534.782719" y="427.221309" xlink:href="#b"/>
<use x="537.039664" y="429.666706" xlink:href="#b"/>
<use x="539.307459" y="429.098758" xlink:href="#b"/>
<use x="541.377587" y="427.981289" xlink:href="#b"/>
<use x="543.599415" y="430.156422" xlink:href="#b"/>
<use x="544.914831" y="432.783108" xlink:href="#b"/>
<use x="545.701331" y="429.978845" xlink:href="#b"/>
<use x="547.786248" y="433.945535" xlink:href="#b"/>
<use x="550.119551" y="434.697095" xlink:href="#b"/>
<use x="552.402312" y="432.755402" xlink:href="#b"/>
<use x="554.647111" y="433.55294" xlink:href="#b"/>
<use x="558.824339" y="435.33429" xlink:href="#b"/>
<use x="560.918581" y="434.447651" xlink:href="#b"/>
<use x="563.280166" y="424.476215" xlink:href="#b"/>
<use x="565.085035" y="418.229892" xlink:href="#b"/>
<use x="567.753322" y="421.212873" xlink:href="#b"/>
<use x="569.928065" y="423.577611" xlink:href="#b"/>
<use x="572.168391" y="416.742934" xlink:href="#b"/>
<use x="574.368518" y="441.965147" xlink:href="#b"/>
<use x="576.632705" y="441.7094" xlink:href="#b"/>
<use x="585.320417" y="439.066298" xlink:href="#b"/>
<use x="586.189374" y="434.490071" xlink:href="#b"/>
<use x="587.604475" y="435.410594" xlink:href="#b"/>
<use x="589.735206" y="428.080417" xlink:href="#b"/>
<use x="591.842688" y="438.725018" xlink:href="#b"/>
<use x="593.189257" y="440.736701" xlink:href="#b"/>
<use x="594.120113" y="442.296547" xlink:href="#b"/>
<use x="596.037881" y="443.58502" xlink:href="#b"/>
<use x="598.527559" y="440.881457" xlink:href="#b"/>
<use x="600.749793" y="433.415076" xlink:href="#b"/>
<use x="601.849679" y="443.824806" xlink:href="#b"/>
<use x="605.142501" y="432.25971" xlink:href="#b"/>
<use x="607.357366" y="442.429748" xlink:href="#b"/>
<use x="609.185943" y="433.912545" xlink:href="#b"/>
<use x="611.594969" y="435.575443" xlink:href="#b"/>
<use x="613.159406" y="435.64703" xlink:href="#b"/>
<use x="615.945698" y="438.231516" xlink:href="#b"/>
<use x="617.726479" y="437.76165" xlink:href="#b"/>
<use x="619.944648" y="438.933701" xlink:href="#b"/>
<use x="622.607014" y="444.547205" xlink:href="#b"/>
<use x="624.572452" y="439.144274" xlink:href="#b"/>
<use x="626.943895" y="442.61407" xlink:href="#b"/>
<use x="628.859478" y="444.542052" xlink:href="#b"/>
<use x="631.478774" y="445.846633" xlink:href="#b"/>
<use x="633.666678" y="445.879042" xlink:href="#b"/>
<use x="635.898492" y="433.843706" xlink:href="#b"/>
<use x="637.967299" y="439.070576" xlink:href="#b"/>
<use x="640.066319" y="442.627897" xlink:href="#b"/>
<use x="641.389155" y="438.421994" xlink:href="#b"/>
<use x="644.569205" y="435.387767" xlink:href="#b"/>
<use x="646.640324" y="432.075366" xlink:href="#b"/>
<use x="648.710275" y="429.775491" xlink:href="#b"/>
<use x="651.171594" y="440.633672" xlink:href="#b"/>
<use x="653.210137" y="437.882961" xlink:href="#b"/>
<use x="655.1384" y="438.271255" xlink:href="#b"/>
<use x="657.601498" y="437.603321" xlink:href="#b"/>
<use x="659.252559" y="440.438728" xlink:href="#b"/>
<use x="662.186994" y="442.374395" xlink:href="#b"/>
<use x="663.815745" y="442.310934" xlink:href="#b"/>
<use x="666.528042" y="444.984506" xlink:href="#b"/>
<use x="668.244738" y="442.938277" xlink:href="#b"/>
<use x="670.974976" y="435.858158" xlink:href="#b"/>
<use x="672.932612" y="441.385143" xlink:href="#b"/>
<use x="675.249856" y="445.152676" xlink:href="#b"/>
<use x="677.597591" y="442.009866" xlink:href="#b"/>
<use x="678.832584" y="441.861525" xlink:href="#b"/>
<use x="681.93864" y="444.645561" xlink:href="#b"/>
<use x="684.096484" y="441.598887" xlink:href="#b"/>
<use x="686.256387" y="441.027272" xlink:href="#b"/>
</g>
</g>
<path d="m40.6 706v-316" fill="none" stroke="#000" stroke-linecap="square" stroke-width=".8"/>
<path d="m717 706v-316" fill="none" stroke="#000" stroke-linecap="square" stroke-width=".8"/>
<path d="m40.6 706h676" fill="none" stroke="#000" stroke-linecap="square" stroke-width=".8"/>
<path d="m40.6 390h676" fill="none" stroke="#000" stroke-linecap="square" stroke-width=".8"/>
<g clip-path="url(#o)">
<g transform="translate(58.2 421) rotate(-90) scale(.1 -.1)">
<use xlink:href="#y"/>
<use transform="translate(35.2)" xlink:href="#r"/>
<use transform="translate(96.5)" xlink:href="#s"/>
<use transform="translate(149)" xlink:href="#p"/>
<use transform="translate(188)" xlink:href="#n"/>
<use transform="translate(249)" xlink:href="#q"/>
<use transform="translate(290)" xlink:href="#DejaVuSans-20"/>
<use transform="translate(322)" xlink:href="#ao"/>
</g>
</g>
<g clip-path="url(#o)">
<g transform="translate(58.2 489) rotate(-90) scale(.1 -.1)">
<use xlink:href="#ap"/>
<use transform="translate(143)" xlink:href="#DejaVuSans-20"/>
<use transform="translate(175)" xlink:href="#s"/>
<use transform="translate(227)" xlink:href="#x"/>
<use transform="translate(255)" xlink:href="#t"/>
<use transform="translate(316)" xlink:href="#af"/>
<use transform="translate(398)" xlink:href="#n"/>
<use transform="translate(460)" xlink:href="#q"/>
</g>
</g>
<g transform="translate(232 384) scale(.12 -.12)">
<use xlink:href="#al"/>
<use transform="translate(63.2)" xlink:href="#y"/>
<use transform="translate(98.4)" xlink:href="#y"/>
<use transform="translate(134)" xlink:href="#n"/>
<use transform="translate(195)" xlink:href="#z"/>
<use transform="translate(250)" xlink:href="#p"/>
<use transform="translate(289)" xlink:href="#DejaVuSans-20"/>
<use transform="translate(321)" xlink:href="#t"/>
<use transform="translate(382)" xlink:href="#y"/>
<use transform="translate(417)" xlink:href="#DejaVuSans-20"/>
<use transform="translate(449)" xlink:href="#y"/>
<use transform="translate(484)" xlink:href="#q"/>
<use transform="translate(523)" xlink:href="#n"/>
<use transform="translate(585)" xlink:href="#n"/>
<use transform="translate(646)" xlink:href="#DejaVuSans-20"/>
<use transform="translate(678)" xlink:href="#p"/>
<use transform="translate(717)" xlink:href="#aq"/>
<use transform="translate(781)" xlink:href="#q"/>
<use transform="translate(820)" xlink:href="#n"/>
<use transform="translate(881)" xlink:href="#r"/>
<use transform="translate(942)" xlink:href="#ak"/>
<use transform="translate(1006)" xlink:href="#u"/>
<use transform="translate(1034)" xlink:href="#aa"/>
<use transform="translate(1097)" xlink:href="#aj"/>
<use transform="translate(1161)" xlink:href="#DejaVuSans-20"/>
<use transform="translate(1192)" xlink:href="#ac"/>
<use transform="translate(1252)" xlink:href="#s"/>
<use transform="translate(1304)" xlink:href="#i"/>
<use transform="translate(1335)" xlink:href="#DejaVuSans-20"/>
<use transform="translate(1367)" xlink:href="#ag"/>
<use transform="translate(1425)" xlink:href="#u"/>
<use transform="translate(1453)" xlink:href="#n"/>
<use transform="translate(1514)" xlink:href="#q"/>
<use transform="translate(1556)" xlink:href="#DejaVuSans-20"/>
<use transform="translate(1587)" xlink:href="#e"/>
<use transform="translate(1651)" xlink:href="#DejaVuSans-20"/>
<use transform="translate(1683)" xlink:href="#an"/>
<use transform="translate(1722)" xlink:href="#s"/>
<use transform="translate(1774)" xlink:href="#r"/>
<use transform="translate(1835)" xlink:href="#w"/>
<use transform="translate(1933)" xlink:href="#n"/>
<use transform="translate(1994)" xlink:href="#DejaVuSans-20"/>
<use transform="translate(2026)" xlink:href="#z"/>
<use transform="translate(2081)" xlink:href="#t"/>
<use transform="translate(2142)" xlink:href="#w"/>
<use transform="translate(2239)" xlink:href="#w"/>
<use transform="translate(2337)" xlink:href="#u"/>
<use transform="translate(2365)" xlink:href="#p"/>
<use transform="translate(2404)" xlink:href="#am"/>
</g>
<path d="m47.6 428h82.6q2 0 2-2v-28.4q0-2-2-2h-82.6q-2 0-2 2v28.4q0 2 2 2z" fill="#fff" opacity=".8" stroke="#ccc"/>
<path d="m49.6 403h10 10" fill="none" stroke="#1f77b4" stroke-dasharray="1.5,2.475" stroke-opacity=".9" stroke-width="1.5"/>
<use x="59.645553" y="403.359463" fill="#1f77b4" fill-opacity=".9" stroke="#1f77b4" stroke-opacity=".9" xlink:href="#a"/>
<g transform="translate(77.6 407) scale(.1 -.1)">
<use xlink:href="#x"/>
<use transform="translate(27.8)" xlink:href="#u"/>
<use transform="translate(55.6)" xlink:href="#aa"/>
<use transform="translate(119)" xlink:href="#ab"/>
<use transform="translate(182)" xlink:href="#ai"/>
<use transform="translate(242)" xlink:href="#f"/>
<use transform="translate(275)" xlink:href="#ac"/>
<use transform="translate(334)" xlink:href="#ab"/>
<use transform="translate(398)" xlink:href="#x"/>
<use transform="translate(425)" xlink:href="#p"/>
<use transform="translate(465)" xlink:href="#q"/>
</g>
<path d="m49.6 418h10 10" fill="none" stroke="#2ca02c" stroke-linecap="square" stroke-opacity=".9" stroke-width="1.5"/>
<use x="59.645553" y="418.037588" fill="#2ca02c" fill-opacity=".9" stroke="#2ca02c" stroke-opacity=".9" xlink:href="#b"/>
<g transform="translate(77.6 422) scale(.1 -.1)">
<use xlink:href="#w"/>
<use transform="translate(97.4)" xlink:href="#r"/>
<use transform="translate(159)" xlink:href="#z"/>
<use transform="translate(214)" xlink:href="#t"/>
<use transform="translate(275)" xlink:href="#s"/>
</g>
<path d="m40.6 1060h676v-316h-676z" fill="#fff"/>
<path d="m59.1 1060v-316" clip-path="url(#j)" fill="none" stroke="#b0b0b0" stroke-linecap="square" stroke-width=".8"/>
<use x="59.107584" y="1060.321635" stroke="#000000" stroke-width=".8" xlink:href="#g"/>
<g transform="translate(38.2 1075) scale(.1 -.1)">
<use xlink:href="#d"/>
<use transform="translate(63.6)" xlink:href="#c"/>
<use transform="translate(127)" xlink:href="#d"/>
<use transform="translate(191)" xlink:href="#v"/>
<use transform="translate(254)" xlink:href="#f"/>
<use transform="translate(291)" xlink:href="#c"/>
<use transform="translate(354)" xlink:href="#ad"/>
</g>
<path d="m125 1060v-316" clip-path="url(#j)" fill="none" stroke="#b0b0b0" stroke-linecap="square" stroke-width=".8"/>
<use x="124.971136" y="1060.321635" stroke="#000000" stroke-width=".8" xlink:href="#g"/>
<g transform="translate(104 1075) scale(.1 -.1)">
<use xlink:href="#d"/>
<use transform="translate(63.6)" xlink:href="#c"/>
<use transform="translate(127)" xlink:href="#d"/>
<use transform="translate(191)" xlink:href="#v"/>
<use transform="translate(254)" xlink:href="#f"/>
<use transform="translate(291)" xlink:href="#e"/>
<use transform="translate(354)" xlink:href="#c"/>
</g>
<path d="m193 1060v-316" clip-path="url(#j)" fill="none" stroke="#b0b0b0" stroke-linecap="square" stroke-width=".8"/>
<use x="193.030139" y="1060.321635" stroke="#000000" stroke-width=".8" xlink:href="#g"/>
<g transform="translate(172 1075) scale(.1 -.1)">
<use xlink:href="#d"/>
<use transform="translate(63.6)" xlink:href="#c"/>
<use transform="translate(127)" xlink:href="#d"/>
<use transform="translate(191)" xlink:href="#v"/>
<use transform="translate(254)" xlink:href="#f"/>
<use transform="translate(291)" xlink:href="#e"/>
<use transform="translate(354)" xlink:href="#e"/>
</g>
<path d="m259 1060v-316" clip-path="url(#j)" fill="none" stroke="#b0b0b0" stroke-linecap="square" stroke-width=".8"/>
<use x="258.893691" y="1060.321635" stroke="#000000" stroke-width=".8" xlink:href="#g"/>
<g transform="translate(238 1075) scale(.1 -.1)">
<use xlink:href="#d"/>
<use transform="translate(63.6)" xlink:href="#c"/>
<use transform="translate(127)" xlink:href="#d"/>
<use transform="translate(191)" xlink:href="#v"/>
<use transform="translate(254)" xlink:href="#f"/>
<use transform="translate(291)" xlink:href="#e"/>
<use transform="translate(354)" xlink:href="#d"/>
</g>
<path d="m327 1060v-316" clip-path="url(#j)" fill="none" stroke="#b0b0b0" stroke-linecap="square" stroke-width=".8"/>
<use x="326.952695" y="1060.321635" stroke="#000000" stroke-width=".8" xlink:href="#g"/>
<g transform="translate(306 1075) scale(.1 -.1)">
<use xlink:href="#d"/>
<use transform="translate(63.6)" xlink:href="#c"/>
<use transform="translate(127)" xlink:href="#d"/>
<use transform="translate(191)" xlink:href="#h"/>
<use transform="translate(254)" xlink:href="#f"/>
<use transform="translate(291)" xlink:href="#c"/>
<use transform="translate(354)" xlink:href="#e"/>
</g>
<path d="m395 1060v-316" clip-path="url(#j)" fill="none" stroke="#b0b0b0" stroke-linecap="square" stroke-width=".8"/>
<use x="395.011699" y="1060.321635" stroke="#000000" stroke-width=".8" xlink:href="#g"/>
<g transform="translate(374 1075) scale(.1 -.1)">
<use xlink:href="#d"/>
<use transform="translate(63.6)" xlink:href="#c"/>
<use transform="translate(127)" xlink:href="#d"/>
<use transform="translate(191)" xlink:href="#h"/>
<use transform="translate(254)" xlink:href="#f"/>
<use transform="translate(291)" xlink:href="#c"/>
<use transform="translate(354)" xlink:href="#d"/>
</g>
<path d="m456 1060v-316" clip-path="url(#j)" fill="none" stroke="#b0b0b0" stroke-linecap="square" stroke-width=".8"/>
<use x="456.484347" y="1060.321635" stroke="#000000" stroke-width=".8" xlink:href="#g"/>
<g transform="translate(436 1075) scale(.1 -.1)">
<use xlink:href="#d"/>
<use transform="translate(63.6)" xlink:href="#c"/>
<use transform="translate(127)" xlink:href="#d"/>
<use transform="translate(191)" xlink:href="#h"/>
<use transform="translate(254)" xlink:href="#f"/>
<use transform="translate(291)" xlink:href="#c"/>
<use transform="translate(354)" xlink:href="#ae"/>
</g>
<path d="m525 1060v-316" clip-path="url(#j)" fill="none" stroke="#b0b0b0" stroke-linecap="square" stroke-width=".8"/>
<use x="524.543351" y="1060.321635" stroke="#000000" stroke-width=".8" xlink:href="#g"/>
<g transform="translate(504 1075) scale(.1 -.1)">
<use xlink:href="#d"/>
<use transform="translate(63.6)" xlink:href="#c"/>
<use transform="translate(127)" xlink:href="#d"/>
<use transform="translate(191)" xlink:href="#h"/>
<use transform="translate(254)" xlink:href="#f"/>
<use transform="translate(291)" xlink:href="#c"/>
<use transform="translate(354)" xlink:href="#v"/>
</g>
<path d="m590 1060v-316" clip-path="url(#j)" fill="none" stroke="#b0b0b0" stroke-linecap="square" stroke-width=".8"/>
<use x="590.406903" y="1060.321635" stroke="#000000" stroke-width=".8" xlink:href="#g"/>
<g transform="translate(570 1075) scale(.1 -.1)">
<use xlink:href="#d"/>
<use transform="translate(63.6)" xlink:href="#c"/>
<use transform="translate(127)" xlink:href="#d"/>
<use transform="translate(191)" xlink:href="#h"/>
<use transform="translate(254)" xlink:href="#f"/>
<use transform="translate(291)" xlink:href="#c"/>
<use transform="translate(354)" xlink:href="#h"/>
</g>
<path d="m658 1060v-316" clip-path="url(#j)" fill="none" stroke="#b0b0b0" stroke-linecap="square" stroke-width=".8"/>
<use x="658.465907" y="1060.321635" stroke="#000000" stroke-width=".8" xlink:href="#g"/>
<g transform="translate(638 1075) scale(.1 -.1)">
<use xlink:href="#d"/>
<use transform="translate(63.6)" xlink:href="#c"/>
<use transform="translate(127)" xlink:href="#d"/>
<use transform="translate(191)" xlink:href="#h"/>
<use transform="translate(254)" xlink:href="#f"/>
<use transform="translate(291)" xlink:href="#c"/>
<use transform="translate(354)" xlink:href="#ah"/>
</g>
<path d="m40.6 1036h676" clip-path="url(#j)" fill="none" stroke="#b0b0b0" stroke-linecap="square" stroke-width=".8"/>
<use x="40.645553" y="1036.309263" stroke="#000000" stroke-width=".8" xlink:href="#l"/>
<g transform="translate(3 1040) scale(.1 -.1)">
<use xlink:href="#e"/>
<use transform="translate(63.6)" xlink:href="#i"/>
<use transform="translate(95.4)" xlink:href="#c"/>
<use transform="translate(159)" xlink:href="#c"/>
<use transform="translate(223)" xlink:href="#m"/>
</g>
<path d="m40.6 1e3h676" clip-path="url(#j)" fill="none" stroke="#b0b0b0" stroke-linecap="square" stroke-width=".8"/>
<use x="40.645553" y="1001.159" stroke="#000000" stroke-width=".8" xlink:href="#l"/>
<g transform="translate(3 1e3) scale(.1 -.1)">
<use xlink:href="#e"/>
<use transform="translate(63.6)" xlink:href="#i"/>
<use transform="translate(95.4)" xlink:href="#c"/>
<use transform="translate(159)" xlink:href="#h"/>
<use transform="translate(223)" xlink:href="#m"/>
</g>
<path d="m40.6 966h676" clip-path="url(#j)" fill="none" stroke="#b0b0b0" stroke-linecap="square" stroke-width=".8"/>
<use x="40.645553" y="966.008737" stroke="#000000" stroke-width=".8" xlink:href="#l"/>
<g transform="translate(3 970) scale(.1 -.1)">
<use xlink:href="#e"/>
<use transform="translate(63.6)" xlink:href="#i"/>
<use transform="translate(95.4)" xlink:href="#e"/>
<use transform="translate(159)" xlink:href="#c"/>
<use transform="translate(223)" xlink:href="#m"/>
</g>
<path d="m40.6 931h676" clip-path="url(#j)" fill="none" stroke="#b0b0b0" stroke-linecap="square" stroke-width=".8"/>
<use x="40.645553" y="930.858474" stroke="#000000" stroke-width=".8" xlink:href="#l"/>
<g transform="translate(3 935) scale(.1 -.1)">
<use xlink:href="#e"/>
<use transform="translate(63.6)" xlink:href="#i"/>
<use transform="translate(95.4)" xlink:href="#e"/>
<use transform="translate(159)" xlink:href="#h"/>
<use transform="translate(223)" xlink:href="#m"/>
</g>
<path d="m40.6 896h676" clip-path="url(#j)" fill="none" stroke="#b0b0b0" stroke-linecap="square" stroke-width=".8"/>
<use x="40.645553" y="895.708211" stroke="#000000" stroke-width=".8" xlink:href="#l"/>
<g transform="translate(3 900) scale(.1 -.1)">
<use xlink:href="#e"/>
<use transform="translate(63.6)" xlink:href="#i"/>
<use transform="translate(95.4)" xlink:href="#d"/>
<use transform="translate(159)" xlink:href="#c"/>
<use transform="translate(223)" xlink:href="#m"/>
</g>
<path d="m40.6 861h676" clip-path="url(#j)" fill="none" stroke="#b0b0b0" stroke-linecap="square" stroke-width=".8"/>
<use x="40.645553" y="860.557948" stroke="#000000" stroke-width=".8" xlink:href="#l"/>
<g transform="translate(3 864) scale(.1 -.1)">
<use xlink:href="#e"/>
<use transform="translate(63.6)" xlink:href="#i"/>
<use transform="translate(95.4)" xlink:href="#d"/>
<use transform="translate(159)" xlink:href="#h"/>
<use transform="translate(223)" xlink:href="#m"/>
</g>
<path d="m40.6 825h676" clip-path="url(#j)" fill="none" stroke="#b0b0b0" stroke-linecap="square" stroke-width=".8"/>
<use x="40.645553" y="825.407685" stroke="#000000" stroke-width=".8" xlink:href="#l"/>
<g transform="translate(3 829) scale(.1 -.1)">
<use xlink:href="#e"/>
<use transform="translate(63.6)" xlink:href="#i"/>
<use transform="translate(95.4)" xlink:href="#ae"/>
<use transform="translate(159)" xlink:href="#c"/>
<use transform="translate(223)" xlink:href="#m"/>
</g>
<path d="m40.6 790h676" clip-path="url(#j)" fill="none" stroke="#b0b0b0" stroke-linecap="square" stroke-width=".8"/>
<use x="40.645553" y="790.257421" stroke="#000000" stroke-width=".8" xlink:href="#l"/>
<g transform="translate(3 794) scale(.1 -.1)">
<use xlink:href="#e"/>
<use transform="translate(63.6)" xlink:href="#i"/>
<use transform="translate(95.4)" xlink:href="#ae"/>
<use transform="translate(159)" xlink:href="#h"/>
<use transform="translate(223)" xlink:href="#m"/>
</g>
<path d="m40.6 755h676" clip-path="url(#j)" fill="none" stroke="#b0b0b0" stroke-linecap="square" stroke-width=".8"/>
<use x="40.645553" y="755.107158" stroke="#000000" stroke-width=".8" xlink:href="#l"/>
<g transform="translate(3 759) scale(.1 -.1)">
<use xlink:href="#e"/>
<use transform="translate(63.6)" xlink:href="#i"/>
<use transform="translate(95.4)" xlink:href="#v"/>
<use transform="translate(159)" xlink:href="#c"/>
<use transform="translate(223)" xlink:href="#m"/>
</g>
<g stroke="#1f77b4" stroke-opacity=".9">
<path d="m504 1020 15.2 26.1 15.5-14.7 15.3 9.13 15-2.62 15.8-0.466 15.2-3.39 15.6-2.06 15.3-0.114 14.4 6.04 16.2-279 15.3 269" clip-path="url(#j)" fill="none" stroke-dasharray="1.5,2.475" stroke-width="1.5"/>
<g clip-path="url(#j)" fill="#1f77b4" fill-opacity=".9">
<use x="504.029497" y="1019.904356" xlink:href="#a"/>
<use x="519.261765" y="1045.979263" xlink:href="#a"/>
<use x="534.782719" y="1031.304983" xlink:href="#a"/>
<use x="550.119551" y="1040.439699" xlink:href="#a"/>
<use x="565.085035" y="1037.823909" xlink:href="#a"/>
<use x="580.867945" y="1037.357485" xlink:href="#a"/>
<use x="596.037881" y="1033.970577" xlink:href="#a"/>
<use x="611.594969" y="1031.910851" xlink:href="#a"/>
<use x="626.943895" y="1031.796753" xlink:href="#a"/>
<use x="641.389155" y="1037.834713" xlink:href="#a"/>
<use x="657.601498" y="759.131827" xlink:href="#a"/>
<use x="672.932612" y="1028.153101" xlink:href="#a"/>
</g>
</g>
<g stroke="#2ca02c" stroke-opacity=".9">
<path d="m504 1023 15.2-2.03 15.5 9.38 15.3 6.5 15-11.1 31 15.9 15.6-9.09 15.3 3.38 14.4-7.06 16.2-225 15.3 235" clip-path="url(#j)" fill="none" stroke-linecap="square" stroke-width="1.5"/>
<g clip-path="url(#j)" fill="#2ca02c" fill-opacity=".9">
<use x="504.029497" y="1023.18002" xlink:href="#b"/>
<use x="519.261765" y="1021.15342" xlink:href="#b"/>
<use x="534.782719" y="1030.531828" xlink:href="#b"/>
<use x="550.119551" y="1037.036751" xlink:href="#b"/>
<use x="565.085035" y="1025.915122" xlink:href="#b"/>
<use x="596.037881" y="1041.838696" xlink:href="#b"/>
<use x="611.594969" y="1032.748414" xlink:href="#b"/>
<use x="626.943895" y="1036.128098" xlink:href="#b"/>
<use x="641.389155" y="1029.063925" xlink:href="#b"/>
<use x="657.601498" y="804.219313" xlink:href="#b"/>
<use x="672.932612" y="1039.343479" xlink:href="#b"/>
</g>
</g>
<path d="m40.6 1060v-316" fill="none" stroke="#000" stroke-linecap="square" stroke-width=".8"/>
<path d="m717 1060v-316" fill="none" stroke="#000" stroke-linecap="square" stroke-width=".8"/>
<path d="m40.6 1060h676" fill="none" stroke="#000" stroke-linecap="square" stroke-width=".8"/>
<path d="m40.6 745h676" fill="none" stroke="#000" stroke-linecap="square" stroke-width=".8"/>
<g clip-path="url(#j)">
<g transform="translate(58.2 1028) rotate(-90) scale(.1 -.1)">
<use xlink:href="#y"/>
<use transform="translate(35.2)" xlink:href="#r"/>
<use transform="translate(96.5)" xlink:href="#s"/>
<use transform="translate(149)" xlink:href="#p"/>
<use transform="translate(188)" xlink:href="#n"/>
<use transform="translate(249)" xlink:href="#q"/>
<use transform="translate(290)" xlink:href="#DejaVuSans-20"/>
<use transform="translate(322)" xlink:href="#ao"/>
</g>
</g>
<g clip-path="url(#j)">
<g transform="translate(58.2 1096) rotate(-90) scale(.1 -.1)">
<use xlink:href="#ap"/>
<use transform="translate(143)" xlink:href="#DejaVuSans-20"/>
<use transform="translate(175)" xlink:href="#s"/>
<use transform="translate(227)" xlink:href="#x"/>
<use transform="translate(255)" xlink:href="#t"/>
<use transform="translate(316)" xlink:href="#af"/>
<use transform="translate(398)" xlink:href="#n"/>
<use transform="translate(460)" xlink:href="#q"/>
</g>
</g>
<g transform="translate(268 739) scale(.12 -.12)">
<defs>
<path id="av" transform="scale(.0156)" d="m628 4666h631v-4341q0-844-320-1225t-1030-381h-240v531h197q418 0 590 235 172 234 172 840v4341z"/>
<path id="aw" transform="scale(.0156)" d="m628 4666h631v-4666h-631v4666z"/>
</defs>
<use xlink:href="#al"/>
<use transform="translate(63.2)" xlink:href="#y"/>
<use transform="translate(98.4)" xlink:href="#y"/>
<use transform="translate(134)" xlink:href="#n"/>
<use transform="translate(195)" xlink:href="#z"/>
<use transform="translate(250)" xlink:href="#p"/>
<use transform="translate(289)" xlink:href="#DejaVuSans-20"/>
<use transform="translate(321)" xlink:href="#t"/>
<use transform="translate(382)" xlink:href="#y"/>
<use transform="translate(417)" xlink:href="#DejaVuSans-20"/>
<use transform="translate(449)" xlink:href="#av"/>
<use transform="translate(479)" xlink:href="#aw"/>
<use transform="translate(508)" xlink:href="#ag"/>
<use transform="translate(569)" xlink:href="#DejaVuSans-20"/>
<use transform="translate(601)" xlink:href="#ac"/>
<use transform="translate(660)" xlink:href="#s"/>
<use transform="translate(712)" xlink:href="#i"/>
<use transform="translate(744)" xlink:href="#DejaVuSans-20"/>
<use transform="translate(776)" xlink:href="#ag"/>
<use transform="translate(834)" xlink:href="#u"/>
<use transform="translate(862)" xlink:href="#n"/>
<use transform="translate(923)" xlink:href="#q"/>
<use transform="translate(964)" xlink:href="#DejaVuSans-20"/>
<use transform="translate(996)" xlink:href="#e"/>
<use transform="translate(1060)" xlink:href="#DejaVuSans-20"/>
<use transform="translate(1092)" xlink:href="#an"/>
<use transform="translate(1131)" xlink:href="#s"/>
<use transform="translate(1183)" xlink:href="#r"/>
<use transform="translate(1244)" xlink:href="#w"/>
<use transform="translate(1341)" xlink:href="#n"/>
<use transform="translate(1403)" xlink:href="#DejaVuSans-20"/>
<use transform="translate(1435)" xlink:href="#z"/>
<use transform="translate(1490)" xlink:href="#t"/>
<use transform="translate(1551)" xlink:href="#w"/>
<use transform="translate(1648)" xlink:href="#w"/>
<use transform="translate(1746)" xlink:href="#u"/>
<use transform="translate(1773)" xlink:href="#p"/>
<use transform="translate(1813)" xlink:href="#am"/>
</g>
<path d="m47.6 782h82.6q2 0 2-2v-28.4q0-2-2-2h-82.6q-2 0-2 2v28.4q0 2 2 2z" fill="#fff" opacity=".8" stroke="#ccc"/>
<path d="m49.6 758h10 10" fill="none" stroke="#1f77b4" stroke-dasharray="1.5,2.475" stroke-opacity=".9" stroke-width="1.5"/>
<use x="59.645553" y="757.887892" fill="#1f77b4" fill-opacity=".9" stroke="#1f77b4" stroke-opacity=".9" xlink:href="#a"/>
<g transform="translate(77.6 761) scale(.1 -.1)">
<use xlink:href="#x"/>
<use transform="translate(27.8)" xlink:href="#u"/>
<use transform="translate(55.6)" xlink:href="#aa"/>
<use transform="translate(119)" xlink:href="#ab"/>
<use transform="translate(182)" xlink:href="#ai"/>
<use transform="translate(242)" xlink:href="#f"/>
<use transform="translate(275)" xlink:href="#ac"/>
<use transform="translate(334)" xlink:href="#ab"/>
<use transform="translate(398)" xlink:href="#x"/>
<use transform="translate(425)" xlink:href="#p"/>
<use transform="translate(465)" xlink:href="#q"/>
</g>
<path d="m49.6 773h10 10" fill="none" stroke="#2ca02c" stroke-linecap="square" stroke-opacity=".9" stroke-width="1.5"/>
<use x="59.645553" y="772.566017" fill="#2ca02c" fill-opacity=".9" stroke="#2ca02c" stroke-opacity=".9" xlink:href="#b"/>
<g transform="translate(77.6 776) scale(.1 -.1)">
<use xlink:href="#w"/>
<use transform="translate(97.4)" xlink:href="#r"/>
<use transform="translate(159)" xlink:href="#z"/>
<use transform="translate(214)" xlink:href="#t"/>
<use transform="translate(275)" xlink:href="#s"/>
</g>
<g transform="translate(229 12.1) scale(.12 -.12)">
<defs>
<path id="au" transform="scale(.0156)" d="m1259 4147v-1753h794q441 0 681 228 241 228 241 650 0 419-241 647-240 228-681 228h-794zm-631 519h1425q785 0 1186-355 402-355 402-1039 0-691-402-1044-401-353-1186-353h-794v-1875h-631v4666z"/>
<path id="at" transform="scale(.0156)" d="m1159 525v-1856h-578v4831h578v-531q182 312 458 463 277 152 661 152 638 0 1036-506 399-506 399-1331t-399-1332q-398-506-1036-506-384 0-661 152-276 152-458 464zm1957 1222q0 634-261 995t-717 361q-457 0-718-361t-261-995 261-995 718-361q456 0 717 361t261 995z"/>
<path id="as" transform="scale(.0156)" d="m2059-325q-243-625-475-815-231-191-618-191h-460v481h338q237 0 368 113 132 112 291 531l103 262-1415 3444h609l1094-2737 1094 2737h609l-1538-3825z"/>
</defs>
<use xlink:href="#au"/>
<use transform="translate(56.7)" xlink:href="#n"/>
<use transform="translate(118)" xlink:href="#q"/>
<use transform="translate(159)" xlink:href="#y"/>
<use transform="translate(195)" xlink:href="#t"/>
<use transform="translate(256)" xlink:href="#q"/>
<use transform="translate(295)" xlink:href="#w"/>
<use transform="translate(392)" xlink:href="#r"/>
<use transform="translate(454)" xlink:href="#aa"/>
<use transform="translate(517)" xlink:href="#z"/>
<use transform="translate(572)" xlink:href="#n"/>
<use transform="translate(634)" xlink:href="#DejaVuSans-20"/>
<use transform="translate(665)" xlink:href="#u"/>
<use transform="translate(693)" xlink:href="#w"/>
<use transform="translate(791)" xlink:href="#at"/>
<use transform="translate(854)" xlink:href="#q"/>
<use transform="translate(893)" xlink:href="#t"/>
<use transform="translate(954)" xlink:href="#ac"/>
<use transform="translate(1013)" xlink:href="#n"/>
<use transform="translate(1075)" xlink:href="#w"/>
<use transform="translate(1172)" xlink:href="#n"/>
<use transform="translate(1234)" xlink:href="#aa"/>
<use transform="translate(1297)" xlink:href="#p"/>
<use transform="translate(1336)" xlink:href="#DejaVuSans-20"/>
<use transform="translate(1368)" xlink:href="#ar"/>
<use transform="translate(1432)" xlink:href="#as"/>
<use transform="translate(1491)" xlink:href="#DejaVuSans-20"/>
<use transform="translate(1523)" xlink:href="#z"/>
<use transform="translate(1578)" xlink:href="#t"/>
<use transform="translate(1639)" xlink:href="#aa"/>
<use transform="translate(1702)" xlink:href="#y"/>
<use transform="translate(1737)" xlink:href="#u"/>
<use transform="translate(1765)" xlink:href="#aj"/>
<use transform="translate(1829)" xlink:href="#ab"/>
<use transform="translate(1892)" xlink:href="#q"/>
<use transform="translate(1933)" xlink:href="#r"/>
<use transform="translate(1994)" xlink:href="#p"/>
<use transform="translate(2034)" xlink:href="#u"/>
<use transform="translate(2061)" xlink:href="#t"/>
<use transform="translate(2123)" xlink:href="#aa"/>
</g>
<defs>
<clipPath id="k">
<rect x="40.6" y="35.7" width="676" height="316"/>
</clipPath>
<clipPath id="o">
<rect x="40.6" y="390" width="676" height="316"/>
</clipPath>
<clipPath id="j">
<rect x="40.6" y="745" width="676" height="316"/>
</clipPath>
</defs>
</svg>
