<?xml version="1.0" encoding="UTF-8"?>
<!DOCTYPE svg  PUBLIC '-//W3C//DTD SVG 1.1//EN'  'http://www.w3.org/Graphics/SVG/1.1/DTD/svg11.dtd'>
<svg width="720pt" height="1080pt" version="1.1" viewBox="0 0 720 1080" xmlns="http://www.w3.org/2000/svg" xmlns:xlink="http://www.w3.org/1999/xlink">
<defs>
<style type="text/css">*{stroke-linejoin: round; stroke-linecap: butt}</style>
</defs>
<path d="m0 1080h720v-1080h-720z" fill="#fff"/>
<path d="m40.6 351h676v-316h-676z" fill="#fff"/>
<path d="m90.6 351v-316" clip-path="url(#i)" fill="none" stroke="#b0b0b0" stroke-linecap="square" stroke-width=".8"/>
<defs>
<path id="g" d="m0 0v3.5" stroke="#000" stroke-width=".8"/>
</defs>
<use x="90.597055" y="351.264775" stroke="#000000" stroke-width=".8" xlink:href="#g"/>
<g transform="translate(69.7 366) scale(.1 -.1)">
<defs>
<path id="d" transform="scale(.0156)" d="m1228 531h2203v-531h-2962v531q359 372 979 998 621 627 780 809 303 340 423 576 121 236 121 464 0 372-261 606-261 235-680 235-297 0-627-103-329-103-704-313v638q381 153 712 231 332 78 607 78 725 0 1156-363 431-362 431-968 0-288-108-546-107-257-392-607-78-91-497-524-418-433-1181-1211z"/>
<path id="b" transform="scale(.0156)" d="m2034 4250q-487 0-733-480-245-479-245-1442 0-959 245-1439 246-480 733-480 491 0 736 480 246 480 246 1439 0 963-246 1442-245 480-736 480zm0 500q785 0 1199-621 414-620 414-1801 0-1178-414-1799-414-620-1199-620-784 0-1198 620-414 621-414 1799 0 1181 414 1801 414 621 1198 621z"/>
<path id="t" transform="scale(.0156)" d="m2419 4116-1594-2491h1594v2491zm-166 550h794v-3041h666v-525h-666v-1100h-628v1100h-2106v609l1940 2957z"/>
<path id="f" transform="scale(.0156)" d="m313 2009h1684v-512h-1684v512z"/>
<path id="ai" transform="scale(.0156)" d="m2034 2216q-450 0-708-241-257-241-257-662 0-422 257-663 258-241 708-241t709 242q260 243 260 662 0 421-258 662-257 241-711 241zm-631 268q-406 100-633 378-226 279-226 679 0 559 398 884 399 325 1092 325 697 0 1094-325t397-884q0-400-227-679-226-278-629-378 456-106 710-416 255-309 255-755 0-679-414-1042-414-362-1186-362-771 0-1186 362-414 363-414 1042 0 446 256 755 257 310 713 416zm-231 997q0-362 226-565 227-203 636-203 407 0 636 203 230 203 230 565 0 363-230 566-229 203-636 203-409 0-636-203-226-203-226-566z"/>
</defs>
<use xlink:href="#d"/>
<use transform="translate(63.6)" xlink:href="#b"/>
<use transform="translate(127)" xlink:href="#d"/>
<use transform="translate(191)" xlink:href="#t"/>
<use transform="translate(254)" xlink:href="#f"/>
<use transform="translate(291)" xlink:href="#b"/>
<use transform="translate(354)" xlink:href="#ai"/>
</g>
<path d="m155 351v-316" clip-path="url(#i)" fill="none" stroke="#b0b0b0" stroke-linecap="square" stroke-width=".8"/>
<use x="154.787443" y="351.264775" stroke="#000000" stroke-width=".8" xlink:href="#g"/>
<g transform="translate(134 366) scale(.1 -.1)">
<defs>
<path id="ac" transform="scale(.0156)" d="m703 97v575q238-113 481-172 244-59 479-59 625 0 954 420 330 420 377 1277-181-269-460-413-278-144-615-144-700 0-1108 423-408 424-408 1159 0 718 425 1152 425 435 1131 435 810 0 1236-621 427-620 427-1801 0-1103-524-1761-523-658-1407-658-238 0-482 47-243 47-506 141zm1256 1978q425 0 673 290 249 291 249 798 0 503-249 795-248 292-673 292t-673-292-248-795q0-507 248-798 248-290 673-290z"/>
</defs>
<use xlink:href="#d"/>
<use transform="translate(63.6)" xlink:href="#b"/>
<use transform="translate(127)" xlink:href="#d"/>
<use transform="translate(191)" xlink:href="#t"/>
<use transform="translate(254)" xlink:href="#f"/>
<use transform="translate(291)" xlink:href="#b"/>
<use transform="translate(354)" xlink:href="#ac"/>
</g>
<path d="m217 351v-316" clip-path="url(#i)" fill="none" stroke="#b0b0b0" stroke-linecap="square" stroke-width=".8"/>
<use x="216.907173" y="351.264775" stroke="#000000" stroke-width=".8" xlink:href="#g"/>
<g transform="translate(196 366) scale(.1 -.1)">
<defs>
<path id="e" transform="scale(.0156)" d="m794 531h1031v3560l-1122-225v575l1116 225h631v-4135h1031v-531h-2687v531z"/>
</defs>
<use xlink:href="#d"/>
<use transform="translate(63.6)" xlink:href="#b"/>
<use transform="translate(127)" xlink:href="#d"/>
<use transform="translate(191)" xlink:href="#t"/>
<use transform="translate(254)" xlink:href="#f"/>
<use transform="translate(291)" xlink:href="#e"/>
<use transform="translate(354)" xlink:href="#b"/>
</g>
<path d="m281 351v-316" clip-path="url(#i)" fill="none" stroke="#b0b0b0" stroke-linecap="square" stroke-width=".8"/>
<use x="281.09756" y="351.264775" stroke="#000000" stroke-width=".8" xlink:href="#g"/>
<g transform="translate(260 366) scale(.1 -.1)">
<use xlink:href="#d"/>
<use transform="translate(63.6)" xlink:href="#b"/>
<use transform="translate(127)" xlink:href="#d"/>
<use transform="translate(191)" xlink:href="#t"/>
<use transform="translate(254)" xlink:href="#f"/>
<use transform="translate(291)" xlink:href="#e"/>
<use transform="translate(354)" xlink:href="#e"/>
</g>
<path d="m343 351v-316" clip-path="url(#i)" fill="none" stroke="#b0b0b0" stroke-linecap="square" stroke-width=".8"/>
<use x="343.21729" y="351.264775" stroke="#000000" stroke-width=".8" xlink:href="#g"/>
<g transform="translate(322 366) scale(.1 -.1)">
<use xlink:href="#d"/>
<use transform="translate(63.6)" xlink:href="#b"/>
<use transform="translate(127)" xlink:href="#d"/>
<use transform="translate(191)" xlink:href="#t"/>
<use transform="translate(254)" xlink:href="#f"/>
<use transform="translate(291)" xlink:href="#e"/>
<use transform="translate(354)" xlink:href="#d"/>
</g>
<path d="m407 351v-316" clip-path="url(#i)" fill="none" stroke="#b0b0b0" stroke-linecap="square" stroke-width=".8"/>
<use x="407.407678" y="351.264775" stroke="#000000" stroke-width=".8" xlink:href="#g"/>
<g transform="translate(387 366) scale(.1 -.1)">
<defs>
<path id="j" transform="scale(.0156)" d="m691 4666h2478v-532h-1900v-1143q137 47 274 70 138 23 276 23 781 0 1237-428 457-428 457-1159 0-753-469-1171-469-417-1322-417-294 0-599 50-304 50-629 150v635q281-153 581-228t634-75q541 0 856 284 316 284 316 772 0 487-316 771-315 285-856 285-253 0-505-56-251-56-513-175v2344z"/>
</defs>
<use xlink:href="#d"/>
<use transform="translate(63.6)" xlink:href="#b"/>
<use transform="translate(127)" xlink:href="#d"/>
<use transform="translate(191)" xlink:href="#j"/>
<use transform="translate(254)" xlink:href="#f"/>
<use transform="translate(291)" xlink:href="#b"/>
<use transform="translate(354)" xlink:href="#e"/>
</g>
<path d="m472 351v-316" clip-path="url(#i)" fill="none" stroke="#b0b0b0" stroke-linecap="square" stroke-width=".8"/>
<use x="471.598065" y="351.264775" stroke="#000000" stroke-width=".8" xlink:href="#g"/>
<g transform="translate(451 366) scale(.1 -.1)">
<use xlink:href="#d"/>
<use transform="translate(63.6)" xlink:href="#b"/>
<use transform="translate(127)" xlink:href="#d"/>
<use transform="translate(191)" xlink:href="#j"/>
<use transform="translate(254)" xlink:href="#f"/>
<use transform="translate(291)" xlink:href="#b"/>
<use transform="translate(354)" xlink:href="#d"/>
</g>
<path d="m530 351v-316" clip-path="url(#i)" fill="none" stroke="#b0b0b0" stroke-linecap="square" stroke-width=".8"/>
<use x="529.57648" y="351.264775" stroke="#000000" stroke-width=".8" xlink:href="#g"/>
<g transform="translate(509 366) scale(.1 -.1)">
<defs>
<path id="af" transform="scale(.0156)" d="m2597 2516q453-97 707-404 255-306 255-756 0-690-475-1069-475-378-1350-378-293 0-604 58t-642 174v609q262-153 574-231 313-78 654-78 593 0 904 234t311 681q0 413-289 645-289 233-804 233h-544v519h569q465 0 712 186t247 536q0 359-255 551-254 193-729 193-260 0-557-57-297-56-653-174v562q360 100 674 150t592 50q719 0 1137-327 419-326 419-882 0-388-222-655t-631-370z"/>
</defs>
<use xlink:href="#d"/>
<use transform="translate(63.6)" xlink:href="#b"/>
<use transform="translate(127)" xlink:href="#d"/>
<use transform="translate(191)" xlink:href="#j"/>
<use transform="translate(254)" xlink:href="#f"/>
<use transform="translate(291)" xlink:href="#b"/>
<use transform="translate(354)" xlink:href="#af"/>
</g>
<path d="m594 351v-316" clip-path="url(#i)" fill="none" stroke="#b0b0b0" stroke-linecap="square" stroke-width=".8"/>
<use x="593.766868" y="351.264775" stroke="#000000" stroke-width=".8" xlink:href="#g"/>
<g transform="translate(573 366) scale(.1 -.1)">
<use xlink:href="#d"/>
<use transform="translate(63.6)" xlink:href="#b"/>
<use transform="translate(127)" xlink:href="#d"/>
<use transform="translate(191)" xlink:href="#j"/>
<use transform="translate(254)" xlink:href="#f"/>
<use transform="translate(291)" xlink:href="#b"/>
<use transform="translate(354)" xlink:href="#t"/>
</g>
<path d="m656 351v-316" clip-path="url(#i)" fill="none" stroke="#b0b0b0" stroke-linecap="square" stroke-width=".8"/>
<use x="655.886597" y="351.264775" stroke="#000000" stroke-width=".8" xlink:href="#g"/>
<g transform="translate(635 366) scale(.1 -.1)">
<use xlink:href="#d"/>
<use transform="translate(63.6)" xlink:href="#b"/>
<use transform="translate(127)" xlink:href="#d"/>
<use transform="translate(191)" xlink:href="#j"/>
<use transform="translate(254)" xlink:href="#f"/>
<use transform="translate(291)" xlink:href="#b"/>
<use transform="translate(354)" xlink:href="#j"/>
</g>
<path d="m40.6 351h676" clip-path="url(#i)" fill="none" stroke="#b0b0b0" stroke-linecap="square" stroke-width=".8"/>
<defs>
<path id="m" d="m0 0h-3.5" stroke="#000" stroke-width=".8"/>
</defs>
<use x="40.645553" y="351.264775" stroke="#000000" stroke-width=".8" xlink:href="#m"/>
<g transform="translate(3 355) scale(.1 -.1)">
<defs>
<path id="k" transform="scale(.0156)" d="m684 794h660v-794h-660v794z"/>
<path id="n" transform="scale(.0156)" d="m4488 3438-1429-1435 1429-1428-372-378-1435 1434-1434-1434-369 378 1425 1428-1425 1435 369 378 1434-1435 1435 1435 372-378z"/>
</defs>
<use xlink:href="#b"/>
<use transform="translate(63.6)" xlink:href="#k"/>
<use transform="translate(95.4)" xlink:href="#ac"/>
<use transform="translate(159)" xlink:href="#b"/>
<use transform="translate(223)" xlink:href="#n"/>
</g>
<path d="m40.6 312h676" clip-path="url(#i)" fill="none" stroke="#b0b0b0" stroke-linecap="square" stroke-width=".8"/>
<use x="40.645553" y="311.823253" stroke="#000000" stroke-width=".8" xlink:href="#m"/>
<g transform="translate(3 316) scale(.1 -.1)">
<use xlink:href="#b"/>
<use transform="translate(63.6)" xlink:href="#k"/>
<use transform="translate(95.4)" xlink:href="#ac"/>
<use transform="translate(159)" xlink:href="#j"/>
<use transform="translate(223)" xlink:href="#n"/>
</g>
<path d="m40.6 272h676" clip-path="url(#i)" fill="none" stroke="#b0b0b0" stroke-linecap="square" stroke-width=".8"/>
<use x="40.645553" y="272.38173" stroke="#000000" stroke-width=".8" xlink:href="#m"/>
<g transform="translate(3 276) scale(.1 -.1)">
<use xlink:href="#e"/>
<use transform="translate(63.6)" xlink:href="#k"/>
<use transform="translate(95.4)" xlink:href="#b"/>
<use transform="translate(159)" xlink:href="#b"/>
<use transform="translate(223)" xlink:href="#n"/>
</g>
<path d="m40.6 233h676" clip-path="url(#i)" fill="none" stroke="#b0b0b0" stroke-linecap="square" stroke-width=".8"/>
<use x="40.645553" y="232.940208" stroke="#000000" stroke-width=".8" xlink:href="#m"/>
<g transform="translate(3 237) scale(.1 -.1)">
<use xlink:href="#e"/>
<use transform="translate(63.6)" xlink:href="#k"/>
<use transform="translate(95.4)" xlink:href="#b"/>
<use transform="translate(159)" xlink:href="#j"/>
<use transform="translate(223)" xlink:href="#n"/>
</g>
<path d="m40.6 193h676" clip-path="url(#i)" fill="none" stroke="#b0b0b0" stroke-linecap="square" stroke-width=".8"/>
<use x="40.645553" y="193.498685" stroke="#000000" stroke-width=".8" xlink:href="#m"/>
<g transform="translate(3 197) scale(.1 -.1)">
<use xlink:href="#e"/>
<use transform="translate(63.6)" xlink:href="#k"/>
<use transform="translate(95.4)" xlink:href="#e"/>
<use transform="translate(159)" xlink:href="#b"/>
<use transform="translate(223)" xlink:href="#n"/>
</g>
<path d="m40.6 154h676" clip-path="url(#i)" fill="none" stroke="#b0b0b0" stroke-linecap="square" stroke-width=".8"/>
<use x="40.645553" y="154.057163" stroke="#000000" stroke-width=".8" xlink:href="#m"/>
<g transform="translate(3 158) scale(.1 -.1)">
<use xlink:href="#e"/>
<use transform="translate(63.6)" xlink:href="#k"/>
<use transform="translate(95.4)" xlink:href="#e"/>
<use transform="translate(159)" xlink:href="#j"/>
<use transform="translate(223)" xlink:href="#n"/>
</g>
<path d="m40.6 115h676" clip-path="url(#i)" fill="none" stroke="#b0b0b0" stroke-linecap="square" stroke-width=".8"/>
<use x="40.645553" y="114.61564" stroke="#000000" stroke-width=".8" xlink:href="#m"/>
<g transform="translate(3 118) scale(.1 -.1)">
<use xlink:href="#e"/>
<use transform="translate(63.6)" xlink:href="#k"/>
<use transform="translate(95.4)" xlink:href="#d"/>
<use transform="translate(159)" xlink:href="#b"/>
<use transform="translate(223)" xlink:href="#n"/>
</g>
<path d="m40.6 75.2h676" clip-path="url(#i)" fill="none" stroke="#b0b0b0" stroke-linecap="square" stroke-width=".8"/>
<use x="40.645553" y="75.174118" stroke="#000000" stroke-width=".8" xlink:href="#m"/>
<g transform="translate(3 79) scale(.1 -.1)">
<use xlink:href="#e"/>
<use transform="translate(63.6)" xlink:href="#k"/>
<use transform="translate(95.4)" xlink:href="#d"/>
<use transform="translate(159)" xlink:href="#j"/>
<use transform="translate(223)" xlink:href="#n"/>
</g>
<path d="m40.6 35.7h676" clip-path="url(#i)" fill="none" stroke="#b0b0b0" stroke-linecap="square" stroke-width=".8"/>
<use x="40.645553" y="35.732595" stroke="#000000" stroke-width=".8" xlink:href="#m"/>
<g transform="translate(3 39.5) scale(.1 -.1)">
<use xlink:href="#e"/>
<use transform="translate(63.6)" xlink:href="#k"/>
<use transform="translate(95.4)" xlink:href="#af"/>
<use transform="translate(159)" xlink:href="#b"/>
<use transform="translate(223)" xlink:href="#n"/>
</g>
<path d="m574 293 14.4-35.3 14.6 0.955 14.5-14.4 14.1 3.09" clip-path="url(#i)" fill="none" stroke="#1f77b4" stroke-linecap="square" stroke-opacity=".9" stroke-width="1.5"/>
<defs>
<path id="a" d="m-2.5 2.5h5v-5h-5z" stroke="#1f77b4" stroke-opacity=".9"/>
</defs>
<g clip-path="url(#i)" fill="#1f77b4" fill-opacity=".9" stroke="#1f77b4" stroke-opacity=".9">
<use x="574.419064" y="293.173427" xlink:href="#a"/>
<use x="588.785498" y="257.863159" xlink:href="#a"/>
<use x="603.424209" y="258.817937" xlink:href="#a"/>
<use x="617.889262" y="244.417815" xlink:href="#a"/>
<use x="632.004078" y="247.507907" xlink:href="#a"/>
</g>
<g stroke="#1f77b4" stroke-opacity=".9">
<path d="m574 218 1.35 78.3 13-58.5 14.6-29.2 3.67 59.7 5.89-34.6 4.91 1.27 14.1-4.23 14.9 2.93 14.3 8.27 14.7-3.75" clip-path="url(#i)" fill="none" stroke-dasharray="1.5,2.475" stroke-width="1.5"/>
<g clip-path="url(#i)" fill="#1f77b4" fill-opacity=".9">
<use x="574.419064" y="217.972608" xlink:href="#a"/>
<use x="575.772349" y="296.236601" xlink:href="#a"/>
<use x="588.785498" y="237.786525" xlink:href="#a"/>
<use x="603.424209" y="208.609505" xlink:href="#a"/>
<use x="607.093707" y="268.348273" xlink:href="#a"/>
<use x="612.98039" y="233.780467" xlink:href="#a"/>
<use x="617.889262" y="235.050049" xlink:href="#a"/>
<use x="632.004078" y="230.815623" xlink:href="#a"/>
<use x="646.889853" y="233.746182" xlink:href="#a"/>
<use x="661.197499" y="242.018666" xlink:href="#a"/>
<use x="675.870289" y="238.265931" xlink:href="#a"/>
</g>
</g>
<path d="m574 180 14.4-2.98 14.6 45.3 14.5 19.4 14.1-18.7 29.2 19.8 14.7-11.4" clip-path="url(#i)" fill="none" stroke="#2ca02c" stroke-linecap="square" stroke-opacity=".9" stroke-width="1.5"/>
<defs>
<path id="c" d="m0-2.5-2.5 5h5z" stroke="#2ca02c" stroke-opacity=".9"/>
</defs>
<g clip-path="url(#i)" fill="#2ca02c" fill-opacity=".9" stroke="#2ca02c" stroke-opacity=".9">
<use x="574.419064" y="179.969255" xlink:href="#c"/>
<use x="588.785498" y="176.992682" xlink:href="#c"/>
<use x="603.424209" y="222.29429" xlink:href="#c"/>
<use x="617.889262" y="241.648786" xlink:href="#c"/>
<use x="632.004078" y="222.987989" xlink:href="#c"/>
<use x="661.197499" y="242.766761" xlink:href="#c"/>
<use x="675.870289" y="231.392996" xlink:href="#c"/>
</g>
<path d="m40.6 351v-316" fill="none" stroke="#000" stroke-linecap="square" stroke-width=".8"/>
<path d="m717 351v-316" fill="none" stroke="#000" stroke-linecap="square" stroke-width=".8"/>
<path d="m40.6 351h676" fill="none" stroke="#000" stroke-linecap="square" stroke-width=".8"/>
<path d="m40.6 35.7h676" fill="none" stroke="#000" stroke-linecap="square" stroke-width=".8"/>
<g clip-path="url(#i)">
<g transform="translate(58.2 264) rotate(-90) scale(.1 -.1)">
<defs>
<path id="y" transform="scale(.0156)" d="m2375 4863v-479h-550q-309 0-430-125-120-125-120-450v-309h947v-447h-947v-3053h-578v3053h-550v447h550v244q0 584 272 851 272 268 862 268h544z"/>
<path id="u" transform="scale(.0156)" d="m2194 1759q-697 0-966-159t-269-544q0-306 202-486 202-179 548-179 479 0 768 339t289 901v128h-572zm1147 238v-2e3h-575v531q-197-318-491-470t-719-152q-537 0-855 302-317 302-317 808 0 590 395 890 396 300 1180 300h807v57q0 397-261 614t-733 217q-300 0-585-72-284-72-546-216v532q315 122 612 182 297 61 578 61 760 0 1135-394 375-393 375-1193z"/>
<path id="v" transform="scale(.0156)" d="m2834 3397v-544q-243 125-506 187-262 63-544 63-428 0-642-131t-214-394q0-200 153-314t616-217l197-44q612-131 870-370t258-667q0-488-386-773-386-284-1061-284-281 0-586 55t-642 164v594q319-166 628-249 309-82 613-82 406 0 624 139 219 139 219 392 0 234-158 359-157 125-692 241l-200 47q-534 112-772 345-237 233-237 639 0 494 350 762 350 269 994 269 318 0 599-47 282-46 519-140z"/>
<path id="p" transform="scale(.0156)" d="m1172 4494v-994h1184v-447h-1184v-1900q0-428 117-550t477-122h590v-481h-590q-666 0-919 248-253 249-253 905v1900h-422v447h422v994h578z"/>
<path id="o" transform="scale(.0156)" d="m3597 1894v-281h-2644q38-594 358-905t892-311q331 0 642 81t618 244v-544q-310-131-635-200t-659-69q-838 0-1327 487-489 488-489 1320 0 859 464 1363 464 505 1252 505 706 0 1117-455 411-454 411-1235zm-575 169q-6 471-264 752-258 282-683 282-481 0-770-272t-333-766l2050 4z"/>
<path id="r" transform="scale(.0156)" d="m2631 2963q-97 56-211 82-114 27-251 27-488 0-749-317t-261-911v-1844h-578v3500h578v-544q182 319 472 473 291 155 707 155 59 0 131-8 72-7 159-23l3-590z"/>
<path id="ao" transform="scale(.0156)" d="m8863 2147v-281l-1229-1228-375 375 729 728h-7622v531h7622l-729 728 375 375 1229-1228z"/>
</defs>
<use xlink:href="#y"/>
<use transform="translate(35.2)" xlink:href="#u"/>
<use transform="translate(96.5)" xlink:href="#v"/>
<use transform="translate(149)" xlink:href="#p"/>
<use transform="translate(188)" xlink:href="#o"/>
<use transform="translate(249)" xlink:href="#r"/>
<use transform="translate(290)" xlink:href="#DejaVuSans-20"/>
<use transform="translate(322)" xlink:href="#ao"/>
</g>
</g>
<g clip-path="url(#i)">
<g transform="translate(58.2 332) rotate(-90) scale(.1 -.1)">
<defs>
<path id="ap" transform="scale(.0156)" d="m313 1866v281l1228 1228 375-375-728-728h7621v-531h-7621l728-728-375-375-1228 1228z"/>
<path id="s" transform="scale(.0156)" d="m603 4863h575v-4863h-575v4863z"/>
<path id="w" transform="scale(.0156)" d="m1959 3097q-462 0-731-361t-269-989 267-989q268-361 733-361 460 0 728 362 269 363 269 988 0 622-269 986-268 364-728 364zm0 487q750 0 1178-488 429-487 429-1349 0-859-429-1349-428-489-1178-489-753 0-1180 489-426 490-426 1349 0 862 426 1349 427 488 1180 488z"/>
<path id="ag" transform="scale(.0156)" d="m269 3500h575l719-2731 715 2731h678l719-2731 716 2731h575l-916-3500h-678l-753 2869-756-2869h-679l-915 3500z"/>
</defs>
<use xlink:href="#ap"/>
<use transform="translate(143)" xlink:href="#DejaVuSans-20"/>
<use transform="translate(175)" xlink:href="#v"/>
<use transform="translate(227)" xlink:href="#s"/>
<use transform="translate(255)" xlink:href="#w"/>
<use transform="translate(316)" xlink:href="#ag"/>
<use transform="translate(398)" xlink:href="#o"/>
<use transform="translate(460)" xlink:href="#r"/>
</g>
</g>
<g transform="translate(174 29.7) scale(.12 -.12)">
<defs>
<path id="al" transform="scale(.0156)" d="m628 4666h2950v-532h-2319v-1381h2222v-531h-2222v-1691h2375v-531h-3006v4666z"/>
<path id="aa" transform="scale(.0156)" d="m3122 3366v-538q-244 135-489 202t-495 67q-560 0-870-355-309-354-309-995t309-996q310-354 870-354 250 0 495 67t489 202v-532q-241-112-499-168-257-57-548-57-791 0-1257 497-465 497-465 1341 0 856 470 1346 471 491 1290 491 265 0 518-55 253-54 491-163z"/>
<path id="ar" transform="scale(.0156)" d="m3116 1747q0 634-261 995t-717 361q-457 0-718-361t-261-995 261-995 718-361q456 0 717 361t261 995zm-1957 1222q182 312 458 463 277 152 661 152 638 0 1036-506 399-506 399-1331t-399-1332q-398-506-1036-506-384 0-661 152-276 152-458 464v-525h-578v4863h578v-1894z"/>
<path id="ab" transform="scale(.0156)" d="m544 1381v2119h575v-2097q0-497 193-746 194-248 582-248 465 0 735 297 271 297 271 810v1984h575v-3500h-575v538q-209-319-486-474-276-155-642-155-603 0-916 375-312 375-312 1097zm1447 2203z"/>
<path id="q" transform="scale(.0156)" d="m603 3500h575v-3500h-575v3500zm0 1363h575v-729h-575v729z"/>
<path id="ak" transform="scale(.0156)" d="m2906 2969v1894h575v-4863h-575v525q-181-312-458-464-276-152-664-152-634 0-1033 506-398 507-398 1332t398 1331q399 506 1033 506 388 0 664-152 277-151 458-463zm-1959-1222q0-634 261-995t717-361 718 361q263 361 263 995t-263 995q-262 361-718 361t-717-361-261-995z"/>
<path id="aq" transform="scale(.0156)" d="m3513 2113v-2113h-575v2094q0 497-194 743-194 247-581 247-466 0-735-297-269-296-269-809v-1978h-578v4863h578v-1907q207 316 486 472 280 156 646 156 603 0 912-373 310-373 310-1098z"/>
<path id="z" transform="scale(.0156)" d="m3513 2113v-2113h-575v2094q0 497-194 743-194 247-581 247-466 0-735-297-269-296-269-809v-1978h-578v3500h578v-544q207 316 486 472 280 156 646 156 603 0 912-373 310-373 310-1098z"/>
<path id="aj" transform="scale(.0156)" d="m2906 1791q0 625-258 968-257 344-723 344-462 0-720-344-258-343-258-968 0-622 258-966t720-344q466 0 723 344 258 344 258 966zm575-1357q0-893-397-1329-396-436-1215-436-303 0-572 45t-522 139v559q253-137 500-202 247-66 503-66 566 0 847 295t281 892v285q-178-310-456-463t-666-153q-643 0-1037 490-394 491-394 1301 0 812 394 1302 394 491 1037 491 388 0 666-153t456-462v531h575v-3066z"/>
<path id="ad" transform="scale(.0156)" d="m191 3500h609l1094-2937 1094 2937h609l-1313-3500h-781l-1312 3500z"/>
<path id="ah" transform="scale(.0156)" d="m-19 4666h3947v-532h-1656v-4134h-634v4134h-1657v532z"/>
<path id="an" transform="scale(.0156)" d="m1984 4856q-418-718-622-1422-203-703-203-1425 0-721 205-1429t620-1424h-500q-468 735-701 1444t-233 1409q0 697 231 1403 232 707 703 1444h500z"/>
<path id="x" transform="scale(.0156)" d="m3328 2828q216 388 516 572t706 184q547 0 844-383 297-382 297-1088v-2113h-578v2094q0 503-179 746-178 244-543 244-447 0-707-297-259-296-259-809v-1978h-578v2094q0 506-178 748t-550 242q-441 0-701-298-259-298-259-808v-1978h-578v3500h578v-544q197 322 472 475t653 153q382 0 649-194 267-193 395-562z"/>
<path id="am" transform="scale(.0156)" d="m513 4856h500q468-737 701-1444 233-706 233-1403 0-700-233-1409t-701-1444h-500q415 716 620 1424t205 1429q0 722-205 1425-205 704-620 1422z"/>
</defs>
<use xlink:href="#al"/>
<use transform="translate(63.2)" xlink:href="#y"/>
<use transform="translate(98.4)" xlink:href="#y"/>
<use transform="translate(134)" xlink:href="#o"/>
<use transform="translate(195)" xlink:href="#aa"/>
<use transform="translate(250)" xlink:href="#p"/>
<use transform="translate(289)" xlink:href="#DejaVuSans-20"/>
<use transform="translate(321)" xlink:href="#w"/>
<use transform="translate(382)" xlink:href="#y"/>
<use transform="translate(417)" xlink:href="#DejaVuSans-20"/>
<use transform="translate(449)" xlink:href="#ar"/>
<use transform="translate(513)" xlink:href="#ab"/>
<use transform="translate(576)" xlink:href="#q"/>
<use transform="translate(604)" xlink:href="#s"/>
<use transform="translate(632)" xlink:href="#ak"/>
<use transform="translate(695)" xlink:href="#DejaVuSans-20"/>
<use transform="translate(727)" xlink:href="#ag"/>
<use transform="translate(809)" xlink:href="#q"/>
<use transform="translate(837)" xlink:href="#p"/>
<use transform="translate(876)" xlink:href="#aq"/>
<use transform="translate(939)" xlink:href="#DejaVuSans-20"/>
<use transform="translate(971)" xlink:href="#s"/>
<use transform="translate(999)" xlink:href="#u"/>
<use transform="translate(1060)" xlink:href="#p"/>
<use transform="translate(1099)" xlink:href="#o"/>
<use transform="translate(1161)" xlink:href="#v"/>
<use transform="translate(1213)" xlink:href="#p"/>
<use transform="translate(1252)" xlink:href="#DejaVuSans-20"/>
<use transform="translate(1284)" xlink:href="#aa"/>
<use transform="translate(1339)" xlink:href="#s"/>
<use transform="translate(1367)" xlink:href="#u"/>
<use transform="translate(1428)" xlink:href="#z"/>
<use transform="translate(1491)" xlink:href="#aj"/>
<use transform="translate(1555)" xlink:href="#DejaVuSans-20"/>
<use transform="translate(1586)" xlink:href="#u"/>
<use transform="translate(1648)" xlink:href="#z"/>
<use transform="translate(1711)" xlink:href="#ak"/>
<use transform="translate(1775)" xlink:href="#DejaVuSans-20"/>
<use transform="translate(1806)" xlink:href="#p"/>
<use transform="translate(1846)" xlink:href="#u"/>
<use transform="translate(1907)" xlink:href="#q"/>
<use transform="translate(1935)" xlink:href="#s"/>
<use transform="translate(1962)" xlink:href="#aa"/>
<use transform="translate(2017)" xlink:href="#u"/>
<use transform="translate(2079)" xlink:href="#s"/>
<use transform="translate(2106)" xlink:href="#s"/>
<use transform="translate(2134)" xlink:href="#DejaVuSans-20"/>
<use transform="translate(2166)" xlink:href="#ad"/>
<use transform="translate(2225)" xlink:href="#v"/>
<use transform="translate(2277)" xlink:href="#k"/>
<use transform="translate(2309)" xlink:href="#DejaVuSans-20"/>
<use transform="translate(2341)" xlink:href="#ah"/>
<use transform="translate(2399)" xlink:href="#q"/>
<use transform="translate(2427)" xlink:href="#o"/>
<use transform="translate(2488)" xlink:href="#r"/>
<use transform="translate(2529)" xlink:href="#DejaVuSans-20"/>
<use transform="translate(2561)" xlink:href="#e"/>
<use transform="translate(2625)" xlink:href="#DejaVuSans-20"/>
<use transform="translate(2656)" xlink:href="#an"/>
<use transform="translate(2696)" xlink:href="#v"/>
<use transform="translate(2748)" xlink:href="#u"/>
<use transform="translate(2809)" xlink:href="#x"/>
<use transform="translate(2906)" xlink:href="#o"/>
<use transform="translate(2968)" xlink:href="#DejaVuSans-20"/>
<use transform="translate(3e3)" xlink:href="#aa"/>
<use transform="translate(3055)" xlink:href="#w"/>
<use transform="translate(3116)" xlink:href="#x"/>
<use transform="translate(3213)" xlink:href="#x"/>
<use transform="translate(3311)" xlink:href="#q"/>
<use transform="translate(3338)" xlink:href="#p"/>
<use transform="translate(3378)" xlink:href="#am"/>
</g>
<path d="m47.6 87.8h82.6q2 0 2-2v-43q0-2-2-2h-82.6q-2 0-2 2v43q0 2 2 2z" fill="#fff" opacity=".8" stroke="#ccc"/>
<path d="m49.6 48.8h10 10" fill="none" stroke="#1f77b4" stroke-linecap="square" stroke-opacity=".9" stroke-width="1.5"/>
<use x="59.645553" y="48.831032" fill="#1f77b4" fill-opacity=".9" stroke="#1f77b4" stroke-opacity=".9" xlink:href="#a"/>
<g transform="translate(77.6 52.3) scale(.1 -.1)">
<defs>
<path id="ae" transform="scale(.0156)" d="m3513 3500-1266-1703 1331-1797h-678l-1019 1375-1018-1375h-679l1360 1831-1244 1669h678l928-1247 928 1247h679z"/>
</defs>
<use xlink:href="#s"/>
<use transform="translate(27.8)" xlink:href="#q"/>
<use transform="translate(55.6)" xlink:href="#z"/>
<use transform="translate(119)" xlink:href="#ab"/>
<use transform="translate(182)" xlink:href="#ae"/>
</g>
<path d="m49.6 63.5h10 10" fill="none" stroke="#1f77b4" stroke-dasharray="1.5,2.475" stroke-opacity=".9" stroke-width="1.5"/>
<use x="59.645553" y="63.509158" fill="#1f77b4" fill-opacity=".9" stroke="#1f77b4" stroke-opacity=".9" xlink:href="#a"/>
<g transform="translate(77.6 67) scale(.1 -.1)">
<use xlink:href="#s"/>
<use transform="translate(27.8)" xlink:href="#q"/>
<use transform="translate(55.6)" xlink:href="#z"/>
<use transform="translate(119)" xlink:href="#ab"/>
<use transform="translate(182)" xlink:href="#ae"/>
<use transform="translate(242)" xlink:href="#f"/>
<use transform="translate(275)" xlink:href="#ad"/>
<use transform="translate(334)" xlink:href="#ab"/>
<use transform="translate(398)" xlink:href="#s"/>
<use transform="translate(425)" xlink:href="#p"/>
<use transform="translate(465)" xlink:href="#r"/>
</g>
<path d="m49.6 78.2h10 10" fill="none" stroke="#2ca02c" stroke-linecap="square" stroke-opacity=".9" stroke-width="1.5"/>
<use x="59.645553" y="78.187283" fill="#2ca02c" fill-opacity=".9" stroke="#2ca02c" stroke-opacity=".9" xlink:href="#c"/>
<g transform="translate(77.6 81.7) scale(.1 -.1)">
<use xlink:href="#x"/>
<use transform="translate(97.4)" xlink:href="#u"/>
<use transform="translate(159)" xlink:href="#aa"/>
<use transform="translate(214)" xlink:href="#w"/>
<use transform="translate(275)" xlink:href="#v"/>
</g>
<path d="m40.6 706h676v-316h-676z" fill="#fff"/>
<path d="m89.2 706v-316" clip-path="url(#l)" fill="none" stroke="#b0b0b0" stroke-linecap="square" stroke-width=".8"/>
<use x="89.216617" y="705.793205" stroke="#000000" stroke-width=".8" xlink:href="#g"/>
<g transform="translate(68.3 720) scale(.1 -.1)">
<use xlink:href="#d"/>
<use transform="translate(63.6)" xlink:href="#b"/>
<use transform="translate(127)" xlink:href="#d"/>
<use transform="translate(191)" xlink:href="#t"/>
<use transform="translate(254)" xlink:href="#f"/>
<use transform="translate(291)" xlink:href="#b"/>
<use transform="translate(354)" xlink:href="#ai"/>
</g>
<path d="m153 706v-316" clip-path="url(#l)" fill="none" stroke="#b0b0b0" stroke-linecap="square" stroke-width=".8"/>
<use x="153.407005" y="705.793205" stroke="#000000" stroke-width=".8" xlink:href="#g"/>
<g transform="translate(133 720) scale(.1 -.1)">
<use xlink:href="#d"/>
<use transform="translate(63.6)" xlink:href="#b"/>
<use transform="translate(127)" xlink:href="#d"/>
<use transform="translate(191)" xlink:href="#t"/>
<use transform="translate(254)" xlink:href="#f"/>
<use transform="translate(291)" xlink:href="#b"/>
<use transform="translate(354)" xlink:href="#ac"/>
</g>
<path d="m216 706v-316" clip-path="url(#l)" fill="none" stroke="#b0b0b0" stroke-linecap="square" stroke-width=".8"/>
<use x="215.526734" y="705.793205" stroke="#000000" stroke-width=".8" xlink:href="#g"/>
<g transform="translate(195 720) scale(.1 -.1)">
<use xlink:href="#d"/>
<use transform="translate(63.6)" xlink:href="#b"/>
<use transform="translate(127)" xlink:href="#d"/>
<use transform="translate(191)" xlink:href="#t"/>
<use transform="translate(254)" xlink:href="#f"/>
<use transform="translate(291)" xlink:href="#e"/>
<use transform="translate(354)" xlink:href="#b"/>
</g>
<path d="m280 706v-316" clip-path="url(#l)" fill="none" stroke="#b0b0b0" stroke-linecap="square" stroke-width=".8"/>
<use x="279.717122" y="705.793205" stroke="#000000" stroke-width=".8" xlink:href="#g"/>
<g transform="translate(259 720) scale(.1 -.1)">
<use xlink:href="#d"/>
<use transform="translate(63.6)" xlink:href="#b"/>
<use transform="translate(127)" xlink:href="#d"/>
<use transform="translate(191)" xlink:href="#t"/>
<use transform="translate(254)" xlink:href="#f"/>
<use transform="translate(291)" xlink:href="#e"/>
<use transform="translate(354)" xlink:href="#e"/>
</g>
<path d="m342 706v-316" clip-path="url(#l)" fill="none" stroke="#b0b0b0" stroke-linecap="square" stroke-width=".8"/>
<use x="341.836852" y="705.793205" stroke="#000000" stroke-width=".8" xlink:href="#g"/>
<g transform="translate(321 720) scale(.1 -.1)">
<use xlink:href="#d"/>
<use transform="translate(63.6)" xlink:href="#b"/>
<use transform="translate(127)" xlink:href="#d"/>
<use transform="translate(191)" xlink:href="#t"/>
<use transform="translate(254)" xlink:href="#f"/>
<use transform="translate(291)" xlink:href="#e"/>
<use transform="translate(354)" xlink:href="#d"/>
</g>
<path d="m406 706v-316" clip-path="url(#l)" fill="none" stroke="#b0b0b0" stroke-linecap="square" stroke-width=".8"/>
<use x="406.027239" y="705.793205" stroke="#000000" stroke-width=".8" xlink:href="#g"/>
<g transform="translate(385 720) scale(.1 -.1)">
<use xlink:href="#d"/>
<use transform="translate(63.6)" xlink:href="#b"/>
<use transform="translate(127)" xlink:href="#d"/>
<use transform="translate(191)" xlink:href="#j"/>
<use transform="translate(254)" xlink:href="#f"/>
<use transform="translate(291)" xlink:href="#b"/>
<use transform="translate(354)" xlink:href="#e"/>
</g>
<path d="m470 706v-316" clip-path="url(#l)" fill="none" stroke="#b0b0b0" stroke-linecap="square" stroke-width=".8"/>
<use x="470.217627" y="705.793205" stroke="#000000" stroke-width=".8" xlink:href="#g"/>
<g transform="translate(449 720) scale(.1 -.1)">
<use xlink:href="#d"/>
<use transform="translate(63.6)" xlink:href="#b"/>
<use transform="translate(127)" xlink:href="#d"/>
<use transform="translate(191)" xlink:href="#j"/>
<use transform="translate(254)" xlink:href="#f"/>
<use transform="translate(291)" xlink:href="#b"/>
<use transform="translate(354)" xlink:href="#d"/>
</g>
<path d="m528 706v-316" clip-path="url(#l)" fill="none" stroke="#b0b0b0" stroke-linecap="square" stroke-width=".8"/>
<use x="528.196042" y="705.793205" stroke="#000000" stroke-width=".8" xlink:href="#g"/>
<g transform="translate(507 720) scale(.1 -.1)">
<use xlink:href="#d"/>
<use transform="translate(63.6)" xlink:href="#b"/>
<use transform="translate(127)" xlink:href="#d"/>
<use transform="translate(191)" xlink:href="#j"/>
<use transform="translate(254)" xlink:href="#f"/>
<use transform="translate(291)" xlink:href="#b"/>
<use transform="translate(354)" xlink:href="#af"/>
</g>
<path d="m592 706v-316" clip-path="url(#l)" fill="none" stroke="#b0b0b0" stroke-linecap="square" stroke-width=".8"/>
<use x="592.386429" y="705.793205" stroke="#000000" stroke-width=".8" xlink:href="#g"/>
<g transform="translate(571 720) scale(.1 -.1)">
<use xlink:href="#d"/>
<use transform="translate(63.6)" xlink:href="#b"/>
<use transform="translate(127)" xlink:href="#d"/>
<use transform="translate(191)" xlink:href="#j"/>
<use transform="translate(254)" xlink:href="#f"/>
<use transform="translate(291)" xlink:href="#b"/>
<use transform="translate(354)" xlink:href="#t"/>
</g>
<path d="m655 706v-316" clip-path="url(#l)" fill="none" stroke="#b0b0b0" stroke-linecap="square" stroke-width=".8"/>
<use x="654.506159" y="705.793205" stroke="#000000" stroke-width=".8" xlink:href="#g"/>
<g transform="translate(634 720) scale(.1 -.1)">
<use xlink:href="#d"/>
<use transform="translate(63.6)" xlink:href="#b"/>
<use transform="translate(127)" xlink:href="#d"/>
<use transform="translate(191)" xlink:href="#j"/>
<use transform="translate(254)" xlink:href="#f"/>
<use transform="translate(291)" xlink:href="#b"/>
<use transform="translate(354)" xlink:href="#j"/>
</g>
<path d="m40.6 668h676" clip-path="url(#l)" fill="none" stroke="#b0b0b0" stroke-linecap="square" stroke-width=".8"/>
<use x="40.645553" y="667.579936" stroke="#000000" stroke-width=".8" xlink:href="#m"/>
<g transform="translate(3 671) scale(.1 -.1)">
<defs>
<path id="ay" transform="scale(.0156)" d="m2113 2584q-425 0-674-291-248-290-248-796 0-503 248-796 249-292 674-292t673 292q248 293 248 796 0 506-248 796-248 291-673 291zm1253 1979v-575q-238 112-480 171-242 60-480 60-625 0-955-422-329-422-376-1275 184 272 462 417 279 145 613 145 703 0 1111-427 408-426 408-1160 0-719-425-1154-425-434-1131-434-810 0-1238 620-428 621-428 1799 0 1106 525 1764t1409 658q238 0 480-47t505-140z"/>
</defs>
<use xlink:href="#b"/>
<use transform="translate(63.6)" xlink:href="#k"/>
<use transform="translate(95.4)" xlink:href="#ay"/>
<use transform="translate(159)" xlink:href="#b"/>
<use transform="translate(223)" xlink:href="#n"/>
</g>
<path d="m40.6 608h676" clip-path="url(#l)" fill="none" stroke="#b0b0b0" stroke-linecap="square" stroke-width=".8"/>
<use x="40.645553" y="607.902692" stroke="#000000" stroke-width=".8" xlink:href="#m"/>
<g transform="translate(3 612) scale(.1 -.1)">
<defs>
<path id="ax" transform="scale(.0156)" d="m525 4666h3e3v-269l-1694-4397h-659l1594 4134h-2241v532z"/>
</defs>
<use xlink:href="#b"/>
<use transform="translate(63.6)" xlink:href="#k"/>
<use transform="translate(95.4)" xlink:href="#ax"/>
<use transform="translate(159)" xlink:href="#b"/>
<use transform="translate(223)" xlink:href="#n"/>
</g>
<path d="m40.6 548h676" clip-path="url(#l)" fill="none" stroke="#b0b0b0" stroke-linecap="square" stroke-width=".8"/>
<use x="40.645553" y="548.225449" stroke="#000000" stroke-width=".8" xlink:href="#m"/>
<g transform="translate(3 552) scale(.1 -.1)">
<use xlink:href="#b"/>
<use transform="translate(63.6)" xlink:href="#k"/>
<use transform="translate(95.4)" xlink:href="#ai"/>
<use transform="translate(159)" xlink:href="#b"/>
<use transform="translate(223)" xlink:href="#n"/>
</g>
<path d="m40.6 489h676" clip-path="url(#l)" fill="none" stroke="#b0b0b0" stroke-linecap="square" stroke-width=".8"/>
<use x="40.645553" y="488.548205" stroke="#000000" stroke-width=".8" xlink:href="#m"/>
<g transform="translate(3 492) scale(.1 -.1)">
<use xlink:href="#b"/>
<use transform="translate(63.6)" xlink:href="#k"/>
<use transform="translate(95.4)" xlink:href="#ac"/>
<use transform="translate(159)" xlink:href="#b"/>
<use transform="translate(223)" xlink:href="#n"/>
</g>
<path d="m40.6 429h676" clip-path="url(#l)" fill="none" stroke="#b0b0b0" stroke-linecap="square" stroke-width=".8"/>
<use x="40.645553" y="428.870962" stroke="#000000" stroke-width=".8" xlink:href="#m"/>
<g transform="translate(3 433) scale(.1 -.1)">
<use xlink:href="#e"/>
<use transform="translate(63.6)" xlink:href="#k"/>
<use transform="translate(95.4)" xlink:href="#b"/>
<use transform="translate(159)" xlink:href="#b"/>
<use transform="translate(223)" xlink:href="#n"/>
</g>
<g stroke="#1f77b4" stroke-opacity=".9">
<path d="m71.4 590 9.85 17.9 14.8-17.9h8.15l0.0133-11.9 0.197 35.8 6.09-17.9 14.5 5.97h29.1l11.7-23.9 0.637 23.9 1.86 5.97 14.5 5.97 12-17.9 11.7-167 5.59 167 3.76-167 43.9 263 1.91-59.7 26.9-11.9 2.34-11.9 1.96 23.9 2.11 5.97 1.53 11.9 2.61-5.97h6.07l2.27 17.9 2.12-11.9 1.96 5.97 2.15-29.8 2.04 35.8 2.11-17.9 1.82-5.97 2.21-5.97 2.22-65.6 2.02-5.97h1.87l2.16 5.97 4.06 22 2.22-5.16 1.51-8.26 2.42-1.69 1.86 5.85 2.14-2.71 2.42 18.1 2.14-16.9 2.08-0.143 1.83-16.9 2.07 16.5 1.75-2.47 2.14 2.58 2.05-0.885 2.56-3.77 2-5.73 1.94 7.47 1.77 8.28 1.82-6.88 2.75-4.81 1.87 1.14 2.27-2.13 1.41 8.93 2.77-20.8 1.73-0.693 4.08-11.5 2.27 8.22 1.83 8.81 2-13.6 2.43 13.2 2.09-9.02 1.98-0.03 2.16 2.26 1.96 0.536 2.11 0.243 2.14-7.38 1.8 14.4 2.31-35.3 2.23 24.7 1.93 3.97 2.21-3.6 1.9-5.07 2.24 1.7 1.74 11.3 2.53-19.9 1.59 24.5 2.39-1.18 1.54-3.42 2.62-47.2 0.218 3.41 1.68-11.5 2.31 2.15 1.96 7.31 2 4.46 2.26-15.2 2.05 0.602 2.03 0.392 0.164-4.76 1.98 8.31 1.35 0.956 0.658-5.4 1.98 3.71 1.71 14.9 2.13-13.2 2.52 9.59 0.989-6.2 1.08-14.3 2.06-4.14 1.93 9.81 1.66-15.8 2 19.7 2.02-6.37 0.608-6.15 1.5 7.6 2.61-6.86 1.78 11.2 2.41-4.26 1.99-4.95 2.15 3.74 2.06-4.41 1.93 6.65 2.26-5.03 2-1.28 1.7 5.89 2.29-27.5 1.87 31.5 2.51 2.41 1.72-16.7 2.39 0.706 1.9 4.66 3.81-9.29 2.07-0.393 2.63 6.9 1.83-9.03 2.03 4.05 2.13-2.57 2.23 9.63 1.93-11.5 2.02 5.13 2.06 6.35 0.403-2.84 1.81 3.32 2.08-8.47 2.06 7.22 2.13 0.505 1.85-1.55 2.11-9.4 1.94 11.4 1.55 2.78 0.782-13.5 2.08 7.48 1.94-5.4 2.18-2.32 1.93 3.71 1.86-10.5 2.34 11.7 2.12-11.3 1.29-14.8 0.871 27.3 2.08-39.7 2.09 52.8 2.04-8.63 1.99 4.68 1.35-9.5 2.83 6.6 2.1-4.03 1.98-1.05 1.77-3.81 2.49 7.07 1.84-1.46 2.23-2.39 1.91-3.31 2.3-13.1 2.06-3.87 1.79 9.01 2.25-11.3 2.1 12.1 2.13-1.26 2.14-4.56 1.95-0.608 2.1 5.32 1.24-12.3 0.742 13.8 1.97-11.7 2.2 1.82 2.15 5.34 2.12 18.7 1.94-17 2-12.4 1.98 13.4 2.23 1.97 1.7-5.94 2.52-1.93 2.05 3.38 2.11-1.55 12.4 1.71 0.82 1.39 1.33-6.58 2.01 10.2 1.99 3.72 1.27-8.23 0.878 2.77 1.81-3.38 2.35 0.959 2.1 0.376 1.04 1.95 3.11 0.22 2.09-7.01 1.72 2.11 2.27-0.904 1.48 2.81 2.63-1.51 1.68 1.25 2.09 3.52 2.51-0.561v0" clip-path="url(#l)" fill="none" stroke-linecap="square" stroke-width="1.5"/>
<g clip-path="url(#l)" fill="#1f77b4" fill-opacity=".9">
<use x="71.388926" y="589.999519" xlink:href="#a"/>
<use x="81.241182" y="607.902692" xlink:href="#a"/>
<use x="96.026468" y="589.999519" xlink:href="#a"/>
<use x="104.172733" y="589.999519" xlink:href="#a"/>
<use x="104.185986" y="578.064071" xlink:href="#a"/>
<use x="104.383106" y="613.870417" xlink:href="#a"/>
<use x="110.471463" y="595.967244" xlink:href="#a"/>
<use x="124.93273" y="601.934968" xlink:href="#a"/>
<use x="139.508458" y="601.934968" xlink:href="#a"/>
<use x="154.035511" y="601.934968" xlink:href="#a"/>
<use x="165.733337" y="578.064071" xlink:href="#a"/>
<use x="166.370688" y="601.934968" xlink:href="#a"/>
<use x="168.227928" y="607.902692" xlink:href="#a"/>
<use x="182.698063" y="613.870417" xlink:href="#a"/>
<use x="194.701982" y="595.967244" xlink:href="#a"/>
<use x="206.397555" y="428.870962" xlink:href="#a"/>
<use x="206.419268" y="428.870962" xlink:href="#a"/>
<use x="212.011961" y="595.967244" xlink:href="#a"/>
<use x="215.77229" y="428.870962" xlink:href="#a"/>
<use x="259.668435" y="691.450833" xlink:href="#a"/>
<use x="261.573511" y="631.77359" xlink:href="#a"/>
<use x="288.500377" y="619.838141" xlink:href="#a"/>
<use x="290.838135" y="607.902692" xlink:href="#a"/>
<use x="292.793565" y="631.77359" xlink:href="#a"/>
<use x="294.906522" y="637.741314" xlink:href="#a"/>
<use x="296.437467" y="649.676763" xlink:href="#a"/>
<use x="299.045465" y="643.709038" xlink:href="#a"/>
<use x="301.005975" y="643.709038" xlink:href="#a"/>
<use x="303.287629" y="643.709038" xlink:href="#a"/>
<use x="305.11671" y="643.709038" xlink:href="#a"/>
<use x="307.390791" y="661.612211" xlink:href="#a"/>
<use x="309.515659" y="649.676763" xlink:href="#a"/>
<use x="311.480268" y="655.644487" xlink:href="#a"/>
<use x="313.634806" y="625.805865" xlink:href="#a"/>
<use x="315.671336" y="661.612211" xlink:href="#a"/>
<use x="317.781562" y="643.709038" xlink:href="#a"/>
<use x="319.605322" y="637.741314" xlink:href="#a"/>
<use x="321.813017" y="631.77359" xlink:href="#a"/>
<use x="324.02946" y="566.128622" xlink:href="#a"/>
<use x="326.052185" y="560.160898" xlink:href="#a"/>
<use x="327.918893" y="560.160898" xlink:href="#a"/>
<use x="330.07844" y="566.128622" xlink:href="#a"/>
<use x="332.050142" y="577.113572" xlink:href="#a"/>
<use x="334.138175" y="588.121467" xlink:href="#a"/>
<use x="336.362407" y="582.960371" xlink:href="#a"/>
<use x="337.872621" y="574.704003" xlink:href="#a"/>
<use x="340.289107" y="573.012874" xlink:href="#a"/>
<use x="342.152699" y="578.860554" xlink:href="#a"/>
<use x="344.294967" y="576.153897" xlink:href="#a"/>
<use x="346.7121" y="594.295595" xlink:href="#a"/>
<use x="348.854105" y="577.442562" xlink:href="#a"/>
<use x="350.932072" y="577.299991" xlink:href="#a"/>
<use x="352.764915" y="560.449706" xlink:href="#a"/>
<use x="354.835621" y="576.913871" xlink:href="#a"/>
<use x="356.588418" y="574.442961" xlink:href="#a"/>
<use x="358.727906" y="577.021648" xlink:href="#a"/>
<use x="360.776707" y="576.136607" xlink:href="#a"/>
<use x="363.334185" y="572.369378" xlink:href="#a"/>
<use x="365.330716" y="566.638851" xlink:href="#a"/>
<use x="367.272916" y="574.107996" xlink:href="#a"/>
<use x="369.039062" y="582.383924" xlink:href="#a"/>
<use x="370.863182" y="575.508347" xlink:href="#a"/>
<use x="373.611405" y="570.697271" xlink:href="#a"/>
<use x="375.484464" y="571.832332" xlink:href="#a"/>
<use x="377.752912" y="569.704378" xlink:href="#a"/>
<use x="379.158323" y="578.631781" xlink:href="#a"/>
<use x="381.925216" y="557.822572" xlink:href="#a"/>
<use x="383.654023" y="557.129226" xlink:href="#a"/>
<use x="387.738946" y="545.653879" xlink:href="#a"/>
<use x="390.005214" y="553.878203" xlink:href="#a"/>
<use x="391.833816" y="562.687695" xlink:href="#a"/>
<use x="393.836338" y="549.080446" xlink:href="#a"/>
<use x="396.268714" y="562.319632" xlink:href="#a"/>
<use x="398.361516" y="553.29747" xlink:href="#a"/>
<use x="400.340935" y="553.267515" xlink:href="#a"/>
<use x="402.500219" y="555.528014" xlink:href="#a"/>
<use x="404.462838" y="556.063946" xlink:href="#a"/>
<use x="406.57733" y="556.307017" xlink:href="#a"/>
<use x="408.718351" y="548.927875" xlink:href="#a"/>
<use x="410.517834" y="563.297096" xlink:href="#a"/>
<use x="412.827025" y="527.965448" xlink:href="#a"/>
<use x="415.055834" y="552.647242" xlink:href="#a"/>
<use x="416.982337" y="556.618238" xlink:href="#a"/>
<use x="419.197125" y="553.017758" xlink:href="#a"/>
<use x="421.100764" y="547.951256" xlink:href="#a"/>
<use x="423.33741" y="549.650773" xlink:href="#a"/>
<use x="425.073815" y="560.923842" xlink:href="#a"/>
<use x="427.601192" y="541.046015" xlink:href="#a"/>
<use x="429.189535" y="565.592364" xlink:href="#a"/>
<use x="431.579227" y="564.410974" xlink:href="#a"/>
<use x="433.115732" y="560.991683" xlink:href="#a"/>
<use x="435.731375" y="513.815673" xlink:href="#a"/>
<use x="435.949729" y="517.222425" xlink:href="#a"/>
<use x="437.624876" y="505.708948" xlink:href="#a"/>
<use x="439.930041" y="507.855609" xlink:href="#a"/>
<use x="441.894601" y="515.170092" xlink:href="#a"/>
<use x="443.893097" y="519.62739" xlink:href="#a"/>
<use x="446.153949" y="504.392399" xlink:href="#a"/>
<use x="448.207614" y="504.994273" xlink:href="#a"/>
<use x="450.242299" y="505.386084" xlink:href="#a"/>
<use x="450.406059" y="500.622753" xlink:href="#a"/>
<use x="452.384711" y="508.936095" xlink:href="#a"/>
<use x="453.729848" y="509.89245" xlink:href="#a"/>
<use x="454.388336" y="504.496542" xlink:href="#a"/>
<use x="456.372788" y="508.205054" xlink:href="#a"/>
<use x="458.081488" y="523.055366" xlink:href="#a"/>
<use x="460.210119" y="509.899424" xlink:href="#a"/>
<use x="462.729827" y="519.484606" xlink:href="#a"/>
<use x="463.719117" y="513.282018" xlink:href="#a"/>
<use x="464.797752" y="498.972324" xlink:href="#a"/>
<use x="466.856427" y="494.829549" xlink:href="#a"/>
<use x="468.786668" y="504.636689" xlink:href="#a"/>
<use x="470.449953" y="488.823322" xlink:href="#a"/>
<use x="472.4461" y="508.503615" xlink:href="#a"/>
<use x="474.469713" y="502.13708" xlink:href="#a"/>
<use x="475.077801" y="495.985169" xlink:href="#a"/>
<use x="476.576559" y="503.585294" xlink:href="#a"/>
<use x="479.18959" y="496.720382" xlink:href="#a"/>
<use x="480.971386" y="507.943126" xlink:href="#a"/>
<use x="483.385116" y="503.680791" xlink:href="#a"/>
<use x="485.373547" y="498.732129" xlink:href="#a"/>
<use x="487.524107" y="502.469241" xlink:href="#a"/>
<use x="489.583261" y="498.056888" xlink:href="#a"/>
<use x="491.508877" y="504.707814" xlink:href="#a"/>
<use x="493.770136" y="499.677553" xlink:href="#a"/>
<use x="495.769039" y="498.394885" xlink:href="#a"/>
<use x="497.468416" y="504.285469" xlink:href="#a"/>
<use x="499.755774" y="476.752655" xlink:href="#a"/>
<use x="501.624615" y="508.287934" xlink:href="#a"/>
<use x="504.134952" y="510.695654" xlink:href="#a"/>
<use x="505.859014" y="493.983705" xlink:href="#a"/>
<use x="508.24444" y="494.689345" xlink:href="#a"/>
<use x="510.141896" y="499.345825" xlink:href="#a"/>
<use x="512.405791" y="493.673738" xlink:href="#a"/>
<use x="513.95217" y="490.055543" xlink:href="#a"/>
<use x="516.023331" y="489.662226" xlink:href="#a"/>
<use x="518.648896" y="496.567187" xlink:href="#a"/>
<use x="520.481404" y="487.540599" xlink:href="#a"/>
<use x="522.508132" y="491.589638" xlink:href="#a"/>
<use x="524.636811" y="489.022303" xlink:href="#a"/>
<use x="526.863295" y="498.651654" xlink:href="#a"/>
<use x="528.79682" y="487.151776" xlink:href="#a"/>
<use x="530.821223" y="492.283119" xlink:href="#a"/>
<use x="532.886033" y="498.628988" xlink:href="#a"/>
<use x="533.288925" y="495.789981" xlink:href="#a"/>
<use x="535.096149" y="499.106428" xlink:href="#a"/>
<use x="537.174739" y="490.63928" xlink:href="#a"/>
<use x="539.239453" y="497.858803" xlink:href="#a"/>
<use x="541.369235" y="498.363969" xlink:href="#a"/>
<use x="543.222737" y="496.815547" xlink:href="#a"/>
<use x="545.332291" y="487.41204" xlink:href="#a"/>
<use x="547.27684" y="498.768511" xlink:href="#a"/>
<use x="548.826311" y="501.546229" xlink:href="#a"/>
<use x="549.608487" y="488.015033" xlink:href="#a"/>
<use x="551.68933" y="495.492773" xlink:href="#a"/>
<use x="553.6276" y="490.09503" xlink:href="#a"/>
<use x="555.811521" y="487.773975" xlink:href="#a"/>
<use x="557.736633" y="491.484047" xlink:href="#a"/>
<use x="559.593826" y="480.961411" xlink:href="#a"/>
<use x="561.934029" y="492.626289" xlink:href="#a"/>
<use x="564.050941" y="481.278898" xlink:href="#a"/>
<use x="565.340213" y="466.484748" xlink:href="#a"/>
<use x="566.211591" y="493.788014" xlink:href="#a"/>
<use x="568.295502" y="454.087108" xlink:href="#a"/>
<use x="570.385236" y="506.881441" xlink:href="#a"/>
<use x="572.42445" y="498.253966" xlink:href="#a"/>
<use x="574.419064" y="502.938034" xlink:href="#a"/>
<use x="575.772349" y="493.435839" xlink:href="#a"/>
<use x="578.604836" y="500.033818" xlink:href="#a"/>
<use x="580.703965" y="496.002424" xlink:href="#a"/>
<use x="582.688945" y="494.952811" xlink:href="#a"/>
<use x="584.458782" y="491.147613" xlink:href="#a"/>
<use x="586.948484" y="498.21521" xlink:href="#a"/>
<use x="588.785498" y="496.75772" xlink:href="#a"/>
<use x="591.016655" y="494.371729" xlink:href="#a"/>
<use x="592.923194" y="491.065635" xlink:href="#a"/>
<use x="595.226513" y="477.94173" xlink:href="#a"/>
<use x="597.289885" y="474.07371" xlink:href="#a"/>
<use x="599.076499" y="483.080267" xlink:href="#a"/>
<use x="601.327189" y="471.769676" xlink:href="#a"/>
<use x="603.424209" y="483.8717" xlink:href="#a"/>
<use x="605.552864" y="482.613013" xlink:href="#a"/>
<use x="607.691753" y="478.048267" xlink:href="#a"/>
<use x="609.64421" y="477.440231" xlink:href="#a"/>
<use x="611.739745" y="482.764765" xlink:href="#a"/>
<use x="612.98039" y="470.510414" xlink:href="#a"/>
<use x="613.722184" y="484.291617" xlink:href="#a"/>
<use x="615.688589" y="472.602267" xlink:href="#a"/>
<use x="617.889262" y="474.426391" xlink:href="#a"/>
<use x="620.042267" y="479.761692" xlink:href="#a"/>
<use x="622.159467" y="498.466134" xlink:href="#a"/>
<use x="624.096059" y="481.451646" xlink:href="#a"/>
<use x="626.099252" y="469.014528" xlink:href="#a"/>
<use x="628.074454" y="482.390595" xlink:href="#a"/>
<use x="630.301801" y="484.359303" xlink:href="#a"/>
<use x="632.004078" y="478.418315" xlink:href="#a"/>
<use x="634.520694" y="476.488341" xlink:href="#a"/>
<use x="636.571819" y="479.863757" xlink:href="#a"/>
<use x="638.684801" y="478.315267" xlink:href="#a"/>
<use x="651.089238" y="480.027682" xlink:href="#a"/>
<use x="651.908802" y="481.414343" xlink:href="#a"/>
<use x="653.243465" y="474.836322" xlink:href="#a"/>
<use x="655.253082" y="484.990337" xlink:href="#a"/>
<use x="657.240769" y="488.714762" xlink:href="#a"/>
<use x="658.510797" y="480.481092" xlink:href="#a"/>
<use x="659.388741" y="483.246677" xlink:href="#a"/>
<use x="661.197499" y="479.868669" xlink:href="#a"/>
<use x="663.545658" y="480.828027" xlink:href="#a"/>
<use x="665.641576" y="481.20381" xlink:href="#a"/>
<use x="666.678942" y="483.150837" xlink:href="#a"/>
<use x="669.784593" y="483.371147" xlink:href="#a"/>
<use x="671.87356" y="476.363239" xlink:href="#a"/>
<use x="673.598198" y="478.470719" xlink:href="#a"/>
<use x="675.870289" y="477.56695" xlink:href="#a"/>
<use x="677.345801" y="480.372485" xlink:href="#a"/>
<use x="679.973714" y="478.863215" xlink:href="#a"/>
<use x="681.653272" y="480.113675" xlink:href="#a"/>
<use x="683.745355" y="483.630591" xlink:href="#a"/>
<use x="686.256387" y="483.069425" xlink:href="#a"/>
</g>
</g>
<g stroke="#1f77b4" stroke-opacity=".9">
<path d="m166 620 28.3 25.5 17.3-13.6 13.3 5.97 15.6 35.8 12.5 11.9h4.06l2.2-5.97h1.91l2.31 5.97 2.1-11.9 1.59 11.9 2.37-5.97h6.43l2.07-5.97h1.86l2.19 5.97 1.55-5.97 2.43 5.97 2.02-11.9 2.34 5.97 1.96-5.97 1.06 5.97 1.06-5.97 1.53 5.97h2.61l1.96-5.97 2.28 5.97h1.83l2.27-5.97 2.12-5.97 1.96 11.9 2.15 5.97 0.156-5.97 1.88-11.9 2.11 5.97h1.82l2.21-5.97 2.22-59.7 2.02-29.8 1.87-5.97 2.16 5.97 1.97 22.2 2.09-0.394 1.51 1.84 0.716 2.71 1.51-3.62 2.01-2.89 0.407 1.63 1.86-3.8 2.14 4.2 2.42 10.6 2.14-15.9 1.57 4.53 0.509-1.12 1.83-2.26 0.594-5.32 1.48 1.79 1.75 1.43 1.03 3.42 1.11 0.31 2.05-4.29 2.56 6.77 1.51-0.5 0.49 0.164 1.04-0.516 0.901 2.11 1.6-3.82 0.166-2.27 1.82-2.09 2.75 3.58 1.87-1.5 2.27 0.295 0.6-2.73 0.806 1.01 2.77-11.9 1.73 3.43 4.08-0.251 2.27-13.3 1.83 2.79 2 2.21 2.43-6.02 2.09 2.63 1.98 3.92 2.16-0.391 1.96-3.28 2.11 6.9 2.14-4.53 1.8-1.2 2.31-1.86 2.23-0.733 1.93 7.45 2.21-1.58 1.9-4.85 3.97 0.834 1.74-1.74 0.789 2.01 1.59-3.5 2.39 3.32 1.54-1.15 2.62-45.1 0.218-1.74 1.68-15.4 1.67-1.79 0.64 1.18 1.96 5.19 2 0.0982 2.26 2.19 2.05 11.8 2.03-2.93 0.164 3.1 1.08-4.55 0.9 4.58 1.35-12.8 0.658 4.97 1.98-3.21 1.71-3 2.13-0.082 2.52 10.8 0.989 2.47 1.08-1.08 2.06-12.9 1.93 0.434 1.66-17.1 2 6.89 2.02-0.33 0.608-0.826 1.5 8.98 2.61 0.258 1.78-7.34 2.41 2.46 1.99 9.33 2.15-3.79 2.06-1.89 1.93 4.14 2.26-5.16 2 2.05 1.58-1.27 0.117-2.62 2.29 0.942 1.87 2.81 2.51-1.27 1.72-1.24 2.39-3.97 1.9 1.19 2.26 1.16 1.55-3.02 2.07 3.46 2.63-0.768 1.83-2.03 0.797 5.48 0.224-0.365 1.01 2.26 1.52-0.593 0.607-0.741 2.23 12.2 1.72-7.98 0.213-2.43 2.02-3.81 2.06 11.2 0.403-7.19 1.81 3.81 2.08-6.17 2.06 2.08 2.13-3.58 1.85 3.38 2.11-1.76 1.94 9.14 1.55-25.4 0.782-1.11 2.08-5.12 1.94 5.81 1.91 2.56 0.274-2.31 1.93 2.37 1.86-1.8 2.34-2.64 1.67 2.78 0.447 6.22 1.29-4.96 0.871-7.43 2.08 1.55 2.09 2.86 2.04 7.52 1.99-0.804 1.35-1.65 2.7 1.17 0.133 2.87 1.04-2.68 1.06 2.18 1.65 1.85 0.022 36.6 0.31 1.31 1.77 0.0275 2.49-3.58 1.84 1.83 2.23 4.01 1.91-4.58 0.307 0.295 2-18.8 2.06-2.61 1.79-0.501 2.25-1.59 2.1 6.83 2.13-1.31 1.54-1.64 0.598-3.47 1.62 3.93 0.336-0.352 1.6-16.1 0.496 4.16 1.24-26.2 0.742-3.38 1.97 6.97 2.2 1.48 2.15-1.78 2.12-4.22 1.94-2.02 2 1.19 0.52 3.04 1.46-4.88 2.23 1.8 1.7 3.17 2.52 1.73 2.05-1.94 2.11-0.417 2.08 1.75 2.14 0.517 1.79-1.5 2.2 4.11 2.11-2.66 2.08-3.92 0.82 0.806 1.33 3.38 2.01-1.03 1.99 4.74 1.27 1.43 0.878-4.22 1.81-0.5 2.35-0.9 2.1 1.37 1.04 7.5 3.11-2.84 2.09 0.381 1.72-1.23 2.27-3.57 1.48 1.82 2.63 1.81 1.68-2.49 2.09-0.327 2.51 6" clip-path="url(#l)" fill="none" stroke-dasharray="1.5,2.475" stroke-width="1.5"/>
<g clip-path="url(#l)" fill="#1f77b4" fill-opacity=".9">
<use x="166.370688" y="619.838141" xlink:href="#a"/>
<use x="194.701982" y="645.324411" xlink:href="#a"/>
<use x="212.011961" y="631.77359" xlink:href="#a"/>
<use x="225.271384" y="637.741314" xlink:href="#a"/>
<use x="240.888624" y="673.54766" xlink:href="#a"/>
<use x="253.409992" y="685.483109" xlink:href="#a"/>
<use x="255.454407" y="685.483109" xlink:href="#a"/>
<use x="257.46908" y="685.483109" xlink:href="#a"/>
<use x="259.668435" y="679.515384" xlink:href="#a"/>
<use x="261.573511" y="679.515384" xlink:href="#a"/>
<use x="263.882223" y="685.483109" xlink:href="#a"/>
<use x="265.986457" y="673.54766" xlink:href="#a"/>
<use x="267.573793" y="685.483109" xlink:href="#a"/>
<use x="269.939759" y="679.515384" xlink:href="#a"/>
<use x="272.032394" y="679.515384" xlink:href="#a"/>
<use x="274.099457" y="679.515384" xlink:href="#a"/>
<use x="276.37126" y="679.515384" xlink:href="#a"/>
<use x="278.441103" y="673.54766" xlink:href="#a"/>
<use x="280.298871" y="673.54766" xlink:href="#a"/>
<use x="282.493768" y="679.515384" xlink:href="#a"/>
<use x="284.047097" y="673.54766" xlink:href="#a"/>
<use x="286.479569" y="679.515384" xlink:href="#a"/>
<use x="288.500377" y="667.579936" xlink:href="#a"/>
<use x="290.838135" y="673.54766" xlink:href="#a"/>
<use x="292.793565" y="667.579936" xlink:href="#a"/>
<use x="293.850008" y="673.54766" xlink:href="#a"/>
<use x="294.906522" y="667.579936" xlink:href="#a"/>
<use x="296.437467" y="673.54766" xlink:href="#a"/>
<use x="297.368831" y="673.54766" xlink:href="#a"/>
<use x="299.045465" y="673.54766" xlink:href="#a"/>
<use x="301.005975" y="667.579936" xlink:href="#a"/>
<use x="303.287629" y="673.54766" xlink:href="#a"/>
<use x="305.11671" y="673.54766" xlink:href="#a"/>
<use x="307.390791" y="667.579936" xlink:href="#a"/>
<use x="309.515659" y="661.612211" xlink:href="#a"/>
<use x="311.480268" y="673.54766" xlink:href="#a"/>
<use x="313.634806" y="679.515384" xlink:href="#a"/>
<use x="313.790968" y="673.54766" xlink:href="#a"/>
<use x="315.671336" y="661.612211" xlink:href="#a"/>
<use x="317.781562" y="667.579936" xlink:href="#a"/>
<use x="319.605322" y="667.579936" xlink:href="#a"/>
<use x="321.813017" y="661.612211" xlink:href="#a"/>
<use x="323.578181" y="613.218274" xlink:href="#a"/>
<use x="324.02946" y="601.934968" xlink:href="#a"/>
<use x="325.713163" y="578.064071" xlink:href="#a"/>
<use x="326.052185" y="572.096346" xlink:href="#a"/>
<use x="327.918893" y="566.128622" xlink:href="#a"/>
<use x="330.07844" y="572.096346" xlink:href="#a"/>
<use x="332.050142" y="594.325041" xlink:href="#a"/>
<use x="334.138175" y="593.930882" xlink:href="#a"/>
<use x="335.646185" y="595.769207" xlink:href="#a"/>
<use x="336.362407" y="598.477881" xlink:href="#a"/>
<use x="337.872621" y="594.861888" xlink:href="#a"/>
<use x="339.882189" y="591.967111" xlink:href="#a"/>
<use x="340.289107" y="593.601918" xlink:href="#a"/>
<use x="342.152699" y="589.801063" xlink:href="#a"/>
<use x="344.294967" y="593.999743" xlink:href="#a"/>
<use x="346.7121" y="604.632258" xlink:href="#a"/>
<use x="348.854105" y="588.769838" xlink:href="#a"/>
<use x="350.422676" y="593.303191" xlink:href="#a"/>
<use x="350.932072" y="592.183312" xlink:href="#a"/>
<use x="352.764915" y="589.920503" xlink:href="#a"/>
<use x="353.359271" y="584.603161" xlink:href="#a"/>
<use x="354.835621" y="586.389161" xlink:href="#a"/>
<use x="356.588418" y="587.81938" xlink:href="#a"/>
<use x="357.62183" y="591.243037" xlink:href="#a"/>
<use x="358.727906" y="591.553235" xlink:href="#a"/>
<use x="360.776707" y="587.266442" xlink:href="#a"/>
<use x="363.334185" y="594.031599" xlink:href="#a"/>
<use x="364.48225" y="593.701912" xlink:href="#a"/>
<use x="364.840756" y="593.531157" xlink:href="#a"/>
<use x="365.330716" y="593.69564" xlink:href="#a"/>
<use x="366.371749" y="593.179528" xlink:href="#a"/>
<use x="367.272916" y="595.285301" xlink:href="#a"/>
<use x="368.872978" y="591.464626" xlink:href="#a"/>
<use x="369.039062" y="589.195138" xlink:href="#a"/>
<use x="370.863182" y="587.103228" xlink:href="#a"/>
<use x="373.611405" y="590.687948" xlink:href="#a"/>
<use x="375.484464" y="589.190431" xlink:href="#a"/>
<use x="377.752912" y="589.485816" xlink:href="#a"/>
<use x="378.352708" y="586.752491" xlink:href="#a"/>
<use x="379.158323" y="587.758769" xlink:href="#a"/>
<use x="381.925216" y="575.900066" xlink:href="#a"/>
<use x="383.654023" y="579.334921" xlink:href="#a"/>
<use x="387.738946" y="579.084069" xlink:href="#a"/>
<use x="390.005214" y="565.795215" xlink:href="#a"/>
<use x="391.833816" y="568.583758" xlink:href="#a"/>
<use x="393.836338" y="570.788942" xlink:href="#a"/>
<use x="396.268714" y="564.765525" xlink:href="#a"/>
<use x="398.361516" y="567.392835" xlink:href="#a"/>
<use x="400.340935" y="571.315039" xlink:href="#a"/>
<use x="402.500219" y="570.924309" xlink:href="#a"/>
<use x="404.462838" y="567.643778" xlink:href="#a"/>
<use x="406.57733" y="574.548643" xlink:href="#a"/>
<use x="408.718351" y="570.015276" xlink:href="#a"/>
<use x="410.517834" y="568.811154" xlink:href="#a"/>
<use x="412.827025" y="566.949131" xlink:href="#a"/>
<use x="415.055834" y="566.216026" xlink:href="#a"/>
<use x="416.982337" y="573.668032" xlink:href="#a"/>
<use x="419.197125" y="572.086352" xlink:href="#a"/>
<use x="421.100764" y="567.232202" xlink:href="#a"/>
<use x="425.073815" y="568.065982" xlink:href="#a"/>
<use x="426.812544" y="566.328966" xlink:href="#a"/>
<use x="427.601192" y="568.343169" xlink:href="#a"/>
<use x="429.189535" y="564.838849" xlink:href="#a"/>
<use x="431.579227" y="568.158453" xlink:href="#a"/>
<use x="433.115732" y="567.004701" xlink:href="#a"/>
<use x="435.731375" y="521.894238" xlink:href="#a"/>
<use x="435.949729" y="520.152837" xlink:href="#a"/>
<use x="437.624876" y="504.718322" xlink:href="#a"/>
<use x="439.290461" y="502.9309" xlink:href="#a"/>
<use x="439.930041" y="504.108524" xlink:href="#a"/>
<use x="441.894601" y="509.29361" xlink:href="#a"/>
<use x="443.893097" y="509.391787" xlink:href="#a"/>
<use x="446.153949" y="511.583764" xlink:href="#a"/>
<use x="448.207614" y="523.395279" xlink:href="#a"/>
<use x="450.242299" y="520.464106" xlink:href="#a"/>
<use x="450.406059" y="523.561664" xlink:href="#a"/>
<use x="451.485005" y="519.007739" xlink:href="#a"/>
<use x="452.384711" y="523.58757" xlink:href="#a"/>
<use x="453.729848" y="510.774207" xlink:href="#a"/>
<use x="454.388336" y="515.746173" xlink:href="#a"/>
<use x="456.372788" y="512.536085" xlink:href="#a"/>
<use x="458.081488" y="509.534231" xlink:href="#a"/>
<use x="460.210119" y="509.452211" xlink:href="#a"/>
<use x="462.729827" y="520.218918" xlink:href="#a"/>
<use x="463.719117" y="522.689012" xlink:href="#a"/>
<use x="464.797752" y="521.606271" xlink:href="#a"/>
<use x="466.856427" y="508.667745" xlink:href="#a"/>
<use x="468.786668" y="509.101846" xlink:href="#a"/>
<use x="470.449953" y="492.0122" xlink:href="#a"/>
<use x="472.4461" y="498.898329" xlink:href="#a"/>
<use x="474.469713" y="498.567889" xlink:href="#a"/>
<use x="475.077801" y="497.741843" xlink:href="#a"/>
<use x="476.576559" y="506.718012" xlink:href="#a"/>
<use x="479.18959" y="506.97595" xlink:href="#a"/>
<use x="480.971386" y="499.630973" xlink:href="#a"/>
<use x="483.385116" y="502.094943" xlink:href="#a"/>
<use x="485.373547" y="511.427809" xlink:href="#a"/>
<use x="487.524107" y="507.63729" xlink:href="#a"/>
<use x="489.583261" y="505.744827" xlink:href="#a"/>
<use x="491.508877" y="509.888791" xlink:href="#a"/>
<use x="493.770136" y="504.731048" xlink:href="#a"/>
<use x="495.769039" y="506.783867" xlink:href="#a"/>
<use x="497.351055" y="505.509816" xlink:href="#a"/>
<use x="497.468416" y="502.888805" xlink:href="#a"/>
<use x="499.755774" y="503.830778" xlink:href="#a"/>
<use x="501.624615" y="506.638889" xlink:href="#a"/>
<use x="504.134952" y="505.370428" xlink:href="#a"/>
<use x="505.859014" y="504.127302" xlink:href="#a"/>
<use x="508.24444" y="500.159405" xlink:href="#a"/>
<use x="510.141896" y="501.348085" xlink:href="#a"/>
<use x="512.405791" y="502.510706" xlink:href="#a"/>
<use x="513.95217" y="499.489518" xlink:href="#a"/>
<use x="516.023331" y="502.951088" xlink:href="#a"/>
<use x="518.648896" y="502.182761" xlink:href="#a"/>
<use x="520.481404" y="500.149638" xlink:href="#a"/>
<use x="521.278152" y="505.629009" xlink:href="#a"/>
<use x="521.502065" y="505.26351" xlink:href="#a"/>
<use x="522.508132" y="507.526384" xlink:href="#a"/>
<use x="524.029778" y="506.933364" xlink:href="#a"/>
<use x="524.636811" y="506.192314" xlink:href="#a"/>
<use x="526.863295" y="518.355182" xlink:href="#a"/>
<use x="528.583331" y="510.378527" xlink:href="#a"/>
<use x="528.79682" y="507.947025" xlink:href="#a"/>
<use x="530.821223" y="504.136777" xlink:href="#a"/>
<use x="532.886033" y="515.376261" xlink:href="#a"/>
<use x="533.288925" y="508.185657" xlink:href="#a"/>
<use x="535.096149" y="512.000631" xlink:href="#a"/>
<use x="537.174739" y="505.826181" xlink:href="#a"/>
<use x="539.239453" y="507.910601" xlink:href="#a"/>
<use x="541.369235" y="504.331387" xlink:href="#a"/>
<use x="543.222737" y="507.715524" xlink:href="#a"/>
<use x="545.332291" y="505.952143" xlink:href="#a"/>
<use x="547.27684" y="515.096757" xlink:href="#a"/>
<use x="548.826311" y="489.682912" xlink:href="#a"/>
<use x="549.608487" y="488.567951" xlink:href="#a"/>
<use x="551.68933" y="483.452149" xlink:href="#a"/>
<use x="553.6276" y="489.258447" xlink:href="#a"/>
<use x="555.537758" y="491.822866" xlink:href="#a"/>
<use x="555.811521" y="489.513604" xlink:href="#a"/>
<use x="557.736633" y="491.884966" xlink:href="#a"/>
<use x="559.593826" y="490.087653" xlink:href="#a"/>
<use x="561.934029" y="487.451494" xlink:href="#a"/>
<use x="563.604048" y="490.230434" xlink:href="#a"/>
<use x="564.050941" y="496.453263" xlink:href="#a"/>
<use x="565.340213" y="491.498131" xlink:href="#a"/>
<use x="566.211591" y="484.065167" xlink:href="#a"/>
<use x="568.295502" y="485.61707" xlink:href="#a"/>
<use x="570.385236" y="488.477303" xlink:href="#a"/>
<use x="572.42445" y="495.999053" xlink:href="#a"/>
<use x="574.419064" y="495.194844" xlink:href="#a"/>
<use x="575.772349" y="493.543359" xlink:href="#a"/>
<use x="578.472065" y="494.713684" xlink:href="#a"/>
<use x="578.604836" y="497.582484" xlink:href="#a"/>
<use x="579.644359" y="494.903283" xlink:href="#a"/>
<use x="580.703965" y="497.079474" xlink:href="#a"/>
<use x="582.356585" y="498.928273" xlink:href="#a"/>
<use x="582.378634" y="535.497823" xlink:href="#a"/>
<use x="582.688945" y="536.804056" xlink:href="#a"/>
<use x="584.458782" y="536.831545" xlink:href="#a"/>
<use x="586.948484" y="533.253869" xlink:href="#a"/>
<use x="588.785498" y="535.082527" xlink:href="#a"/>
<use x="591.016655" y="539.087749" xlink:href="#a"/>
<use x="592.923194" y="534.503504" xlink:href="#a"/>
<use x="593.229767" y="534.798519" xlink:href="#a"/>
<use x="595.226513" y="516.037818" xlink:href="#a"/>
<use x="597.289885" y="513.427451" xlink:href="#a"/>
<use x="599.076499" y="512.926004" xlink:href="#a"/>
<use x="601.327189" y="511.335603" xlink:href="#a"/>
<use x="603.424209" y="518.168455" xlink:href="#a"/>
<use x="605.552864" y="516.854222" xlink:href="#a"/>
<use x="607.093707" y="515.218216" xlink:href="#a"/>
<use x="607.691753" y="511.750634" xlink:href="#a"/>
<use x="609.308304" y="515.67607" xlink:href="#a"/>
<use x="609.64421" y="515.323758" xlink:href="#a"/>
<use x="611.244081" y="499.19345" xlink:href="#a"/>
<use x="611.739745" y="503.357698" xlink:href="#a"/>
<use x="612.98039" y="477.149225" xlink:href="#a"/>
<use x="613.722184" y="473.770139" xlink:href="#a"/>
<use x="615.688589" y="480.744571" xlink:href="#a"/>
<use x="617.889262" y="482.229341" xlink:href="#a"/>
<use x="620.042267" y="480.448095" xlink:href="#a"/>
<use x="622.159467" y="476.228223" xlink:href="#a"/>
<use x="624.096059" y="474.20857" xlink:href="#a"/>
<use x="626.099252" y="475.397644" xlink:href="#a"/>
<use x="626.619289" y="478.43885" xlink:href="#a"/>
<use x="628.074454" y="473.56202" xlink:href="#a"/>
<use x="630.301801" y="475.361856" xlink:href="#a"/>
<use x="632.004078" y="478.532963" xlink:href="#a"/>
<use x="634.520694" y="480.258949" xlink:href="#a"/>
<use x="636.571819" y="478.315718" xlink:href="#a"/>
<use x="638.684801" y="477.89891" xlink:href="#a"/>
<use x="640.759868" y="479.6477" xlink:href="#a"/>
<use x="642.895354" y="480.164215" xlink:href="#a"/>
<use x="644.685945" y="478.665449" xlink:href="#a"/>
<use x="646.889853" y="482.771802" xlink:href="#a"/>
<use x="649.004824" y="480.116323" xlink:href="#a"/>
<use x="651.089238" y="476.199989" xlink:href="#a"/>
<use x="651.908802" y="477.005841" xlink:href="#a"/>
<use x="653.243465" y="480.38257" xlink:href="#a"/>
<use x="655.253082" y="479.349982" xlink:href="#a"/>
<use x="657.240769" y="484.086487" xlink:href="#a"/>
<use x="658.510797" y="485.518651" xlink:href="#a"/>
<use x="659.388741" y="481.294622" xlink:href="#a"/>
<use x="661.197499" y="480.7945" xlink:href="#a"/>
<use x="663.545658" y="479.894142" xlink:href="#a"/>
<use x="665.641576" y="481.26633" xlink:href="#a"/>
<use x="666.678942" y="488.770224" xlink:href="#a"/>
<use x="669.784593" y="485.931566" xlink:href="#a"/>
<use x="671.87356" y="486.312905" xlink:href="#a"/>
<use x="673.598198" y="485.086119" xlink:href="#a"/>
<use x="675.870289" y="481.517174" xlink:href="#a"/>
<use x="677.345801" y="483.335283" xlink:href="#a"/>
<use x="679.973714" y="485.143952" xlink:href="#a"/>
<use x="681.653272" y="482.657094" xlink:href="#a"/>
<use x="683.745355" y="482.329981" xlink:href="#a"/>
<use x="686.256387" y="488.326428" xlink:href="#a"/>
</g>
</g>
<g stroke="#2ca02c" stroke-opacity=".9">
<path d="m166 587 327-102 64-7.18 6.86-1.11 1.29 2.79 0.871-0.939 2.08 0.2 2.09-28.9 2.04 32.5 1.99-32.7 1.35 29.9 2.83-43 1.04 2.87 1.06 10.7 1.98 26.8 1.77-27 2.49-45 1.84 1.02 2.23 44.6 1.91 35.8 2.3-14.6 2.06-28.4 1.79-7.54 2.25-6.24 2.1-2.35 2.13 2.39 2.14-0.556 1.95-1.09 2.1 2.13 1.24 2.57 0.742-2.75 1.97 3.88 2.2 0.736 2.15-1.9 2.12 0.781 3.94 1.74 1.98-0.868 2.23-9.76 1.7-6.12 2.52 2.92 2.05 2.32 2.11-6.69 2.08 24.7 2.14-0.25 8.19-2.59 0.82-4.48 1.33 0.901 2.01-7.18 1.99 10.4 1.27 1.97 0.878 1.53 1.81 1.26 2.35-2.65 2.1-7.31 1.04 10.2 3.11-11.3 2.09 9.96 1.72-8.34 2.27 1.63 1.48 0.0701 2.63 2.53 1.68-0.46 2.09 1.15 2.51 5.5" clip-path="url(#l)" fill="none" stroke-linecap="square" stroke-width="1.5"/>
<g clip-path="url(#l)" fill="#2ca02c" fill-opacity=".9">
<use x="166.370688" y="586.951627" xlink:href="#c"/>
<use x="493.191118" y="484.721058" xlink:href="#c"/>
<use x="557.192487" y="477.541237" xlink:href="#c"/>
<use x="564.050941" y="476.430803" xlink:href="#c"/>
<use x="565.340213" y="479.217503" xlink:href="#c"/>
<use x="566.211591" y="478.278393" xlink:href="#c"/>
<use x="568.295502" y="478.478489" xlink:href="#c"/>
<use x="570.385236" y="449.577864" xlink:href="#c"/>
<use x="572.42445" y="482.032293" xlink:href="#c"/>
<use x="574.419064" y="449.302449" xlink:href="#c"/>
<use x="575.772349" y="479.174078" xlink:href="#c"/>
<use x="578.604836" y="436.12863" xlink:href="#c"/>
<use x="579.644359" y="439.0033" xlink:href="#c"/>
<use x="580.703965" y="449.744103" xlink:href="#c"/>
<use x="582.688945" y="476.585804" xlink:href="#c"/>
<use x="584.458782" y="449.62872" xlink:href="#c"/>
<use x="586.948484" y="404.603397" xlink:href="#c"/>
<use x="588.785498" y="405.626945" xlink:href="#c"/>
<use x="591.016655" y="450.183968" xlink:href="#c"/>
<use x="592.923194" y="485.947394" xlink:href="#c"/>
<use x="595.226513" y="471.309149" xlink:href="#c"/>
<use x="597.289885" y="442.88182" xlink:href="#c"/>
<use x="599.076499" y="435.337724" xlink:href="#c"/>
<use x="601.327189" y="429.099073" xlink:href="#c"/>
<use x="603.424209" y="426.750755" xlink:href="#c"/>
<use x="605.552864" y="429.145275" xlink:href="#c"/>
<use x="607.691753" y="428.589144" xlink:href="#c"/>
<use x="609.64421" y="427.494924" xlink:href="#c"/>
<use x="611.739745" y="429.624804" xlink:href="#c"/>
<use x="612.98039" y="432.196843" xlink:href="#c"/>
<use x="613.722184" y="429.450921" xlink:href="#c"/>
<use x="615.688589" y="433.335086" xlink:href="#c"/>
<use x="617.889262" y="434.07101" xlink:href="#c"/>
<use x="620.042267" y="432.169713" xlink:href="#c"/>
<use x="622.159467" y="432.950659" xlink:href="#c"/>
<use x="626.099252" y="434.694948" xlink:href="#c"/>
<use x="628.074454" y="433.826755" xlink:href="#c"/>
<use x="630.301801" y="424.062771" xlink:href="#c"/>
<use x="632.004078" y="417.946399" xlink:href="#c"/>
<use x="634.520694" y="420.867321" xlink:href="#c"/>
<use x="636.571819" y="423.182861" xlink:href="#c"/>
<use x="638.684801" y="416.490376" xlink:href="#c"/>
<use x="640.759868" y="441.187854" xlink:href="#c"/>
<use x="642.895354" y="440.937427" xlink:href="#c"/>
<use x="651.089238" y="438.349314" xlink:href="#c"/>
<use x="651.908802" y="433.868293" xlink:href="#c"/>
<use x="653.243465" y="434.769665" xlink:href="#c"/>
<use x="655.253082" y="427.591989" xlink:href="#c"/>
<use x="657.240769" y="438.015133" xlink:href="#c"/>
<use x="658.510797" y="439.984965" xlink:href="#c"/>
<use x="659.388741" y="441.512359" xlink:href="#c"/>
<use x="661.197499" y="442.774025" xlink:href="#c"/>
<use x="663.545658" y="440.12671" xlink:href="#c"/>
<use x="665.641576" y="432.815663" xlink:href="#c"/>
<use x="666.678942" y="443.008823" xlink:href="#c"/>
<use x="669.784593" y="431.684333" xlink:href="#c"/>
<use x="671.87356" y="441.642789" xlink:href="#c"/>
<use x="673.598198" y="433.302782" xlink:href="#c"/>
<use x="675.870289" y="434.931085" xlink:href="#c"/>
<use x="677.345801" y="435.001182" xlink:href="#c"/>
<use x="679.973714" y="437.531899" xlink:href="#c"/>
<use x="681.653272" y="437.071808" xlink:href="#c"/>
<use x="683.745355" y="438.219476" xlink:href="#c"/>
<use x="686.256387" y="443.716193" xlink:href="#c"/>
</g>
</g>
<path d="m40.6 706v-316" fill="none" stroke="#000" stroke-linecap="square" stroke-width=".8"/>
<path d="m717 706v-316" fill="none" stroke="#000" stroke-linecap="square" stroke-width=".8"/>
<path d="m40.6 706h676" fill="none" stroke="#000" stroke-linecap="square" stroke-width=".8"/>
<path d="m40.6 390h676" fill="none" stroke="#000" stroke-linecap="square" stroke-width=".8"/>
<g clip-path="url(#l)">
<g transform="translate(58.2 421) rotate(-90) scale(.1 -.1)">
<use xlink:href="#y"/>
<use transform="translate(35.2)" xlink:href="#u"/>
<use transform="translate(96.5)" xlink:href="#v"/>
<use transform="translate(149)" xlink:href="#p"/>
<use transform="translate(188)" xlink:href="#o"/>
<use transform="translate(249)" xlink:href="#r"/>
<use transform="translate(290)" xlink:href="#DejaVuSans-20"/>
<use transform="translate(322)" xlink:href="#ao"/>
</g>
</g>
<g clip-path="url(#l)">
<g transform="translate(58.2 489) rotate(-90) scale(.1 -.1)">
<use xlink:href="#ap"/>
<use transform="translate(143)" xlink:href="#DejaVuSans-20"/>
<use transform="translate(175)" xlink:href="#v"/>
<use transform="translate(227)" xlink:href="#s"/>
<use transform="translate(255)" xlink:href="#w"/>
<use transform="translate(316)" xlink:href="#ag"/>
<use transform="translate(398)" xlink:href="#o"/>
<use transform="translate(460)" xlink:href="#r"/>
</g>
</g>
<g transform="translate(232 384) scale(.12 -.12)">
<use xlink:href="#al"/>
<use transform="translate(63.2)" xlink:href="#y"/>
<use transform="translate(98.4)" xlink:href="#y"/>
<use transform="translate(134)" xlink:href="#o"/>
<use transform="translate(195)" xlink:href="#aa"/>
<use transform="translate(250)" xlink:href="#p"/>
<use transform="translate(289)" xlink:href="#DejaVuSans-20"/>
<use transform="translate(321)" xlink:href="#w"/>
<use transform="translate(382)" xlink:href="#y"/>
<use transform="translate(417)" xlink:href="#DejaVuSans-20"/>
<use transform="translate(449)" xlink:href="#y"/>
<use transform="translate(484)" xlink:href="#r"/>
<use transform="translate(523)" xlink:href="#o"/>
<use transform="translate(585)" xlink:href="#o"/>
<use transform="translate(646)" xlink:href="#DejaVuSans-20"/>
<use transform="translate(678)" xlink:href="#p"/>
<use transform="translate(717)" xlink:href="#aq"/>
<use transform="translate(781)" xlink:href="#r"/>
<use transform="translate(820)" xlink:href="#o"/>
<use transform="translate(881)" xlink:href="#u"/>
<use transform="translate(942)" xlink:href="#ak"/>
<use transform="translate(1006)" xlink:href="#q"/>
<use transform="translate(1034)" xlink:href="#z"/>
<use transform="translate(1097)" xlink:href="#aj"/>
<use transform="translate(1161)" xlink:href="#DejaVuSans-20"/>
<use transform="translate(1192)" xlink:href="#ad"/>
<use transform="translate(1252)" xlink:href="#v"/>
<use transform="translate(1304)" xlink:href="#k"/>
<use transform="translate(1335)" xlink:href="#DejaVuSans-20"/>
<use transform="translate(1367)" xlink:href="#ah"/>
<use transform="translate(1425)" xlink:href="#q"/>
<use transform="translate(1453)" xlink:href="#o"/>
<use transform="translate(1514)" xlink:href="#r"/>
<use transform="translate(1556)" xlink:href="#DejaVuSans-20"/>
<use transform="translate(1587)" xlink:href="#e"/>
<use transform="translate(1651)" xlink:href="#DejaVuSans-20"/>
<use transform="translate(1683)" xlink:href="#an"/>
<use transform="translate(1722)" xlink:href="#v"/>
<use transform="translate(1774)" xlink:href="#u"/>
<use transform="translate(1835)" xlink:href="#x"/>
<use transform="translate(1933)" xlink:href="#o"/>
<use transform="translate(1994)" xlink:href="#DejaVuSans-20"/>
<use transform="translate(2026)" xlink:href="#aa"/>
<use transform="translate(2081)" xlink:href="#w"/>
<use transform="translate(2142)" xlink:href="#x"/>
<use transform="translate(2239)" xlink:href="#x"/>
<use transform="translate(2337)" xlink:href="#q"/>
<use transform="translate(2365)" xlink:href="#p"/>
<use transform="translate(2404)" xlink:href="#am"/>
</g>
<path d="m47.6 442h82.6q2 0 2-2v-43q0-2-2-2h-82.6q-2 0-2 2v43q0 2 2 2z" fill="#fff" opacity=".8" stroke="#ccc"/>
<path d="m49.6 403h10 10" fill="none" stroke="#1f77b4" stroke-linecap="square" stroke-opacity=".9" stroke-width="1.5"/>
<use x="59.645553" y="403.359462" fill="#1f77b4" fill-opacity=".9" stroke="#1f77b4" stroke-opacity=".9" xlink:href="#a"/>
<g transform="translate(77.6 407) scale(.1 -.1)">
<use xlink:href="#s"/>
<use transform="translate(27.8)" xlink:href="#q"/>
<use transform="translate(55.6)" xlink:href="#z"/>
<use transform="translate(119)" xlink:href="#ab"/>
<use transform="translate(182)" xlink:href="#ae"/>
</g>
<path d="m49.6 418h10 10" fill="none" stroke="#1f77b4" stroke-dasharray="1.5,2.475" stroke-opacity=".9" stroke-width="1.5"/>
<use x="59.645553" y="418.037587" fill="#1f77b4" fill-opacity=".9" stroke="#1f77b4" stroke-opacity=".9" xlink:href="#a"/>
<g transform="translate(77.6 422) scale(.1 -.1)">
<use xlink:href="#s"/>
<use transform="translate(27.8)" xlink:href="#q"/>
<use transform="translate(55.6)" xlink:href="#z"/>
<use transform="translate(119)" xlink:href="#ab"/>
<use transform="translate(182)" xlink:href="#ae"/>
<use transform="translate(242)" xlink:href="#f"/>
<use transform="translate(275)" xlink:href="#ad"/>
<use transform="translate(334)" xlink:href="#ab"/>
<use transform="translate(398)" xlink:href="#s"/>
<use transform="translate(425)" xlink:href="#p"/>
<use transform="translate(465)" xlink:href="#r"/>
</g>
<path d="m49.6 433h10 10" fill="none" stroke="#2ca02c" stroke-linecap="square" stroke-opacity=".9" stroke-width="1.5"/>
<use x="59.645553" y="432.715712" fill="#2ca02c" fill-opacity=".9" stroke="#2ca02c" stroke-opacity=".9" xlink:href="#c"/>
<g transform="translate(77.6 436) scale(.1 -.1)">
<use xlink:href="#x"/>
<use transform="translate(97.4)" xlink:href="#u"/>
<use transform="translate(159)" xlink:href="#aa"/>
<use transform="translate(214)" xlink:href="#w"/>
<use transform="translate(275)" xlink:href="#v"/>
</g>
<path d="m40.6 1060h676v-316h-676z" fill="#fff"/>
<path d="m90.6 1060v-316" clip-path="url(#h)" fill="none" stroke="#b0b0b0" stroke-linecap="square" stroke-width=".8"/>
<use x="90.597055" y="1060.321635" stroke="#000000" stroke-width=".8" xlink:href="#g"/>
<g transform="translate(69.7 1075) scale(.1 -.1)">
<use xlink:href="#d"/>
<use transform="translate(63.6)" xlink:href="#b"/>
<use transform="translate(127)" xlink:href="#d"/>
<use transform="translate(191)" xlink:href="#t"/>
<use transform="translate(254)" xlink:href="#f"/>
<use transform="translate(291)" xlink:href="#b"/>
<use transform="translate(354)" xlink:href="#ai"/>
</g>
<path d="m155 1060v-316" clip-path="url(#h)" fill="none" stroke="#b0b0b0" stroke-linecap="square" stroke-width=".8"/>
<use x="154.787443" y="1060.321635" stroke="#000000" stroke-width=".8" xlink:href="#g"/>
<g transform="translate(134 1075) scale(.1 -.1)">
<use xlink:href="#d"/>
<use transform="translate(63.6)" xlink:href="#b"/>
<use transform="translate(127)" xlink:href="#d"/>
<use transform="translate(191)" xlink:href="#t"/>
<use transform="translate(254)" xlink:href="#f"/>
<use transform="translate(291)" xlink:href="#b"/>
<use transform="translate(354)" xlink:href="#ac"/>
</g>
<path d="m217 1060v-316" clip-path="url(#h)" fill="none" stroke="#b0b0b0" stroke-linecap="square" stroke-width=".8"/>
<use x="216.907173" y="1060.321635" stroke="#000000" stroke-width=".8" xlink:href="#g"/>
<g transform="translate(196 1075) scale(.1 -.1)">
<use xlink:href="#d"/>
<use transform="translate(63.6)" xlink:href="#b"/>
<use transform="translate(127)" xlink:href="#d"/>
<use transform="translate(191)" xlink:href="#t"/>
<use transform="translate(254)" xlink:href="#f"/>
<use transform="translate(291)" xlink:href="#e"/>
<use transform="translate(354)" xlink:href="#b"/>
</g>
<path d="m281 1060v-316" clip-path="url(#h)" fill="none" stroke="#b0b0b0" stroke-linecap="square" stroke-width=".8"/>
<use x="281.09756" y="1060.321635" stroke="#000000" stroke-width=".8" xlink:href="#g"/>
<g transform="translate(260 1075) scale(.1 -.1)">
<use xlink:href="#d"/>
<use transform="translate(63.6)" xlink:href="#b"/>
<use transform="translate(127)" xlink:href="#d"/>
<use transform="translate(191)" xlink:href="#t"/>
<use transform="translate(254)" xlink:href="#f"/>
<use transform="translate(291)" xlink:href="#e"/>
<use transform="translate(354)" xlink:href="#e"/>
</g>
<path d="m343 1060v-316" clip-path="url(#h)" fill="none" stroke="#b0b0b0" stroke-linecap="square" stroke-width=".8"/>
<use x="343.21729" y="1060.321635" stroke="#000000" stroke-width=".8" xlink:href="#g"/>
<g transform="translate(322 1075) scale(.1 -.1)">
<use xlink:href="#d"/>
<use transform="translate(63.6)" xlink:href="#b"/>
<use transform="translate(127)" xlink:href="#d"/>
<use transform="translate(191)" xlink:href="#t"/>
<use transform="translate(254)" xlink:href="#f"/>
<use transform="translate(291)" xlink:href="#e"/>
<use transform="translate(354)" xlink:href="#d"/>
</g>
<path d="m407 1060v-316" clip-path="url(#h)" fill="none" stroke="#b0b0b0" stroke-linecap="square" stroke-width=".8"/>
<use x="407.407678" y="1060.321635" stroke="#000000" stroke-width=".8" xlink:href="#g"/>
<g transform="translate(387 1075) scale(.1 -.1)">
<use xlink:href="#d"/>
<use transform="translate(63.6)" xlink:href="#b"/>
<use transform="translate(127)" xlink:href="#d"/>
<use transform="translate(191)" xlink:href="#j"/>
<use transform="translate(254)" xlink:href="#f"/>
<use transform="translate(291)" xlink:href="#b"/>
<use transform="translate(354)" xlink:href="#e"/>
</g>
<path d="m472 1060v-316" clip-path="url(#h)" fill="none" stroke="#b0b0b0" stroke-linecap="square" stroke-width=".8"/>
<use x="471.598065" y="1060.321635" stroke="#000000" stroke-width=".8" xlink:href="#g"/>
<g transform="translate(451 1075) scale(.1 -.1)">
<use xlink:href="#d"/>
<use transform="translate(63.6)" xlink:href="#b"/>
<use transform="translate(127)" xlink:href="#d"/>
<use transform="translate(191)" xlink:href="#j"/>
<use transform="translate(254)" xlink:href="#f"/>
<use transform="translate(291)" xlink:href="#b"/>
<use transform="translate(354)" xlink:href="#d"/>
</g>
<path d="m530 1060v-316" clip-path="url(#h)" fill="none" stroke="#b0b0b0" stroke-linecap="square" stroke-width=".8"/>
<use x="529.57648" y="1060.321635" stroke="#000000" stroke-width=".8" xlink:href="#g"/>
<g transform="translate(509 1075) scale(.1 -.1)">
<use xlink:href="#d"/>
<use transform="translate(63.6)" xlink:href="#b"/>
<use transform="translate(127)" xlink:href="#d"/>
<use transform="translate(191)" xlink:href="#j"/>
<use transform="translate(254)" xlink:href="#f"/>
<use transform="translate(291)" xlink:href="#b"/>
<use transform="translate(354)" xlink:href="#af"/>
</g>
<path d="m594 1060v-316" clip-path="url(#h)" fill="none" stroke="#b0b0b0" stroke-linecap="square" stroke-width=".8"/>
<use x="593.766868" y="1060.321635" stroke="#000000" stroke-width=".8" xlink:href="#g"/>
<g transform="translate(573 1075) scale(.1 -.1)">
<use xlink:href="#d"/>
<use transform="translate(63.6)" xlink:href="#b"/>
<use transform="translate(127)" xlink:href="#d"/>
<use transform="translate(191)" xlink:href="#j"/>
<use transform="translate(254)" xlink:href="#f"/>
<use transform="translate(291)" xlink:href="#b"/>
<use transform="translate(354)" xlink:href="#t"/>
</g>
<path d="m656 1060v-316" clip-path="url(#h)" fill="none" stroke="#b0b0b0" stroke-linecap="square" stroke-width=".8"/>
<use x="655.886597" y="1060.321635" stroke="#000000" stroke-width=".8" xlink:href="#g"/>
<g transform="translate(635 1075) scale(.1 -.1)">
<use xlink:href="#d"/>
<use transform="translate(63.6)" xlink:href="#b"/>
<use transform="translate(127)" xlink:href="#d"/>
<use transform="translate(191)" xlink:href="#j"/>
<use transform="translate(254)" xlink:href="#f"/>
<use transform="translate(291)" xlink:href="#b"/>
<use transform="translate(354)" xlink:href="#j"/>
</g>
<path d="m40.6 1060h676" clip-path="url(#h)" fill="none" stroke="#b0b0b0" stroke-linecap="square" stroke-width=".8"/>
<use x="40.645553" y="1060.321635" stroke="#000000" stroke-width=".8" xlink:href="#m"/>
<g transform="translate(3 1064) scale(.1 -.1)">
<use xlink:href="#b"/>
<use transform="translate(63.6)" xlink:href="#k"/>
<use transform="translate(95.4)" xlink:href="#ac"/>
<use transform="translate(159)" xlink:href="#b"/>
<use transform="translate(223)" xlink:href="#n"/>
</g>
<path d="m40.6 1021h676" clip-path="url(#h)" fill="none" stroke="#b0b0b0" stroke-linecap="square" stroke-width=".8"/>
<use x="40.645553" y="1020.880112" stroke="#000000" stroke-width=".8" xlink:href="#m"/>
<g transform="translate(3 1025) scale(.1 -.1)">
<use xlink:href="#b"/>
<use transform="translate(63.6)" xlink:href="#k"/>
<use transform="translate(95.4)" xlink:href="#ac"/>
<use transform="translate(159)" xlink:href="#j"/>
<use transform="translate(223)" xlink:href="#n"/>
</g>
<path d="m40.6 981h676" clip-path="url(#h)" fill="none" stroke="#b0b0b0" stroke-linecap="square" stroke-width=".8"/>
<use x="40.645553" y="981.43859" stroke="#000000" stroke-width=".8" xlink:href="#m"/>
<g transform="translate(3 985) scale(.1 -.1)">
<use xlink:href="#e"/>
<use transform="translate(63.6)" xlink:href="#k"/>
<use transform="translate(95.4)" xlink:href="#b"/>
<use transform="translate(159)" xlink:href="#b"/>
<use transform="translate(223)" xlink:href="#n"/>
</g>
<path d="m40.6 942h676" clip-path="url(#h)" fill="none" stroke="#b0b0b0" stroke-linecap="square" stroke-width=".8"/>
<use x="40.645553" y="941.997067" stroke="#000000" stroke-width=".8" xlink:href="#m"/>
<g transform="translate(3 946) scale(.1 -.1)">
<use xlink:href="#e"/>
<use transform="translate(63.6)" xlink:href="#k"/>
<use transform="translate(95.4)" xlink:href="#b"/>
<use transform="translate(159)" xlink:href="#j"/>
<use transform="translate(223)" xlink:href="#n"/>
</g>
<path d="m40.6 903h676" clip-path="url(#h)" fill="none" stroke="#b0b0b0" stroke-linecap="square" stroke-width=".8"/>
<use x="40.645553" y="902.555545" stroke="#000000" stroke-width=".8" xlink:href="#m"/>
<g transform="translate(3 906) scale(.1 -.1)">
<use xlink:href="#e"/>
<use transform="translate(63.6)" xlink:href="#k"/>
<use transform="translate(95.4)" xlink:href="#e"/>
<use transform="translate(159)" xlink:href="#b"/>
<use transform="translate(223)" xlink:href="#n"/>
</g>
<path d="m40.6 863h676" clip-path="url(#h)" fill="none" stroke="#b0b0b0" stroke-linecap="square" stroke-width=".8"/>
<use x="40.645553" y="863.114022" stroke="#000000" stroke-width=".8" xlink:href="#m"/>
<g transform="translate(3 867) scale(.1 -.1)">
<use xlink:href="#e"/>
<use transform="translate(63.6)" xlink:href="#k"/>
<use transform="translate(95.4)" xlink:href="#e"/>
<use transform="translate(159)" xlink:href="#j"/>
<use transform="translate(223)" xlink:href="#n"/>
</g>
<path d="m40.6 824h676" clip-path="url(#h)" fill="none" stroke="#b0b0b0" stroke-linecap="square" stroke-width=".8"/>
<use x="40.645553" y="823.6725" stroke="#000000" stroke-width=".8" xlink:href="#m"/>
<g transform="translate(3 827) scale(.1 -.1)">
<use xlink:href="#e"/>
<use transform="translate(63.6)" xlink:href="#k"/>
<use transform="translate(95.4)" xlink:href="#d"/>
<use transform="translate(159)" xlink:href="#b"/>
<use transform="translate(223)" xlink:href="#n"/>
</g>
<path d="m40.6 784h676" clip-path="url(#h)" fill="none" stroke="#b0b0b0" stroke-linecap="square" stroke-width=".8"/>
<use x="40.645553" y="784.230977" stroke="#000000" stroke-width=".8" xlink:href="#m"/>
<g transform="translate(3 788) scale(.1 -.1)">
<use xlink:href="#e"/>
<use transform="translate(63.6)" xlink:href="#k"/>
<use transform="translate(95.4)" xlink:href="#d"/>
<use transform="translate(159)" xlink:href="#j"/>
<use transform="translate(223)" xlink:href="#n"/>
</g>
<path d="m40.6 745h676" clip-path="url(#h)" fill="none" stroke="#b0b0b0" stroke-linecap="square" stroke-width=".8"/>
<use x="40.645553" y="744.789455" stroke="#000000" stroke-width=".8" xlink:href="#m"/>
<g transform="translate(3 749) scale(.1 -.1)">
<use xlink:href="#e"/>
<use transform="translate(63.6)" xlink:href="#k"/>
<use transform="translate(95.4)" xlink:href="#af"/>
<use transform="translate(159)" xlink:href="#b"/>
<use transform="translate(223)" xlink:href="#n"/>
</g>
<g stroke="#1f77b4" stroke-opacity=".9">
<path d="m574 989 14.4-6.34 14.6 0.0266 14.5-3.74 14.1 6.72" clip-path="url(#h)" fill="none" stroke-linecap="square" stroke-width="1.5"/>
<g clip-path="url(#h)" fill="#1f77b4" fill-opacity=".9">
<use x="574.419064" y="988.744875" xlink:href="#a"/>
<use x="588.785498" y="982.400345" xlink:href="#a"/>
<use x="603.424209" y="982.426977" xlink:href="#a"/>
<use x="617.889262" y="978.685605" xlink:href="#a"/>
<use x="632.004078" y="985.402347" xlink:href="#a"/>
</g>
</g>
<g stroke="#1f77b4" stroke-opacity=".9">
<path d="m574 963 14.4 29.3 14.6-16.5 14.5 10.2 14.1-2.94 14.9-0.523 14.3-3.8 14.7-2.31" clip-path="url(#h)" fill="none" stroke-dasharray="1.5,2.475" stroke-width="1.5"/>
<g clip-path="url(#h)" fill="#1f77b4" fill-opacity=".9">
<use x="574.419064" y="963.030918" xlink:href="#a"/>
<use x="588.785498" y="992.289135" xlink:href="#a"/>
<use x="603.424209" y="975.823371" xlink:href="#a"/>
<use x="617.889262" y="986.073282" xlink:href="#a"/>
<use x="632.004078" y="983.138148" xlink:href="#a"/>
<use x="646.889853" y="982.614782" xlink:href="#a"/>
<use x="661.197499" y="978.814389" xlink:href="#a"/>
<use x="675.870289" y="976.503205" xlink:href="#a"/>
</g>
</g>
<g stroke="#2ca02c" stroke-opacity=".9">
<path d="m574 967 14.4-2.27 14.6 10.5 14.5 7.3 14.1-12.5 29.2 17.9 14.7-10.2" clip-path="url(#h)" fill="none" stroke-linecap="square" stroke-width="1.5"/>
<g clip-path="url(#h)" fill="#2ca02c" fill-opacity=".9">
<use x="574.419064" y="966.706485" xlink:href="#c"/>
<use x="588.785498" y="964.432472" xlink:href="#c"/>
<use x="603.424209" y="974.955826" xlink:href="#c"/>
<use x="617.889262" y="982.254892" xlink:href="#c"/>
<use x="632.004078" y="969.775498" xlink:href="#c"/>
<use x="661.197499" y="987.643074" xlink:href="#c"/>
<use x="675.870289" y="977.443021" xlink:href="#c"/>
</g>
</g>
<path d="m40.6 1060v-316" fill="none" stroke="#000" stroke-linecap="square" stroke-width=".8"/>
<path d="m717 1060v-316" fill="none" stroke="#000" stroke-linecap="square" stroke-width=".8"/>
<path d="m40.6 1060h676" fill="none" stroke="#000" stroke-linecap="square" stroke-width=".8"/>
<path d="m40.6 745h676" fill="none" stroke="#000" stroke-linecap="square" stroke-width=".8"/>
<g clip-path="url(#h)">
<g transform="translate(58.2 974) rotate(-90) scale(.1 -.1)">
<use xlink:href="#y"/>
<use transform="translate(35.2)" xlink:href="#u"/>
<use transform="translate(96.5)" xlink:href="#v"/>
<use transform="translate(149)" xlink:href="#p"/>
<use transform="translate(188)" xlink:href="#o"/>
<use transform="translate(249)" xlink:href="#r"/>
<use transform="translate(290)" xlink:href="#DejaVuSans-20"/>
<use transform="translate(322)" xlink:href="#ao"/>
</g>
</g>
<g clip-path="url(#h)">
<g transform="translate(58.2 1042) rotate(-90) scale(.1 -.1)">
<use xlink:href="#ap"/>
<use transform="translate(143)" xlink:href="#DejaVuSans-20"/>
<use transform="translate(175)" xlink:href="#v"/>
<use transform="translate(227)" xlink:href="#s"/>
<use transform="translate(255)" xlink:href="#w"/>
<use transform="translate(316)" xlink:href="#ag"/>
<use transform="translate(398)" xlink:href="#o"/>
<use transform="translate(460)" xlink:href="#r"/>
</g>
</g>
<g transform="translate(268 739) scale(.12 -.12)">
<defs>
<path id="av" transform="scale(.0156)" d="m628 4666h631v-4341q0-844-320-1225t-1030-381h-240v531h197q418 0 590 235 172 234 172 840v4341z"/>
<path id="aw" transform="scale(.0156)" d="m628 4666h631v-4666h-631v4666z"/>
</defs>
<use xlink:href="#al"/>
<use transform="translate(63.2)" xlink:href="#y"/>
<use transform="translate(98.4)" xlink:href="#y"/>
<use transform="translate(134)" xlink:href="#o"/>
<use transform="translate(195)" xlink:href="#aa"/>
<use transform="translate(250)" xlink:href="#p"/>
<use transform="translate(289)" xlink:href="#DejaVuSans-20"/>
<use transform="translate(321)" xlink:href="#w"/>
<use transform="translate(382)" xlink:href="#y"/>
<use transform="translate(417)" xlink:href="#DejaVuSans-20"/>
<use transform="translate(449)" xlink:href="#av"/>
<use transform="translate(479)" xlink:href="#aw"/>
<use transform="translate(508)" xlink:href="#ah"/>
<use transform="translate(569)" xlink:href="#DejaVuSans-20"/>
<use transform="translate(601)" xlink:href="#ad"/>
<use transform="translate(660)" xlink:href="#v"/>
<use transform="translate(712)" xlink:href="#k"/>
<use transform="translate(744)" xlink:href="#DejaVuSans-20"/>
<use transform="translate(776)" xlink:href="#ah"/>
<use transform="translate(834)" xlink:href="#q"/>
<use transform="translate(862)" xlink:href="#o"/>
<use transform="translate(923)" xlink:href="#r"/>
<use transform="translate(964)" xlink:href="#DejaVuSans-20"/>
<use transform="translate(996)" xlink:href="#e"/>
<use transform="translate(1060)" xlink:href="#DejaVuSans-20"/>
<use transform="translate(1092)" xlink:href="#an"/>
<use transform="translate(1131)" xlink:href="#v"/>
<use transform="translate(1183)" xlink:href="#u"/>
<use transform="translate(1244)" xlink:href="#x"/>
<use transform="translate(1341)" xlink:href="#o"/>
<use transform="translate(1403)" xlink:href="#DejaVuSans-20"/>
<use transform="translate(1435)" xlink:href="#aa"/>
<use transform="translate(1490)" xlink:href="#w"/>
<use transform="translate(1551)" xlink:href="#x"/>
<use transform="translate(1648)" xlink:href="#x"/>
<use transform="translate(1746)" xlink:href="#q"/>
<use transform="translate(1773)" xlink:href="#p"/>
<use transform="translate(1813)" xlink:href="#am"/>
</g>
<path d="m47.6 797h82.6q2 0 2-2v-43q0-2-2-2h-82.6q-2 0-2 2v43q0 2 2 2z" fill="#fff" opacity=".8" stroke="#ccc"/>
<path d="m49.6 758h10 10" fill="none" stroke="#1f77b4" stroke-linecap="square" stroke-opacity=".9" stroke-width="1.5"/>
<use x="59.645553" y="757.887892" fill="#1f77b4" fill-opacity=".9" stroke="#1f77b4" stroke-opacity=".9" xlink:href="#a"/>
<g transform="translate(77.6 761) scale(.1 -.1)">
<use xlink:href="#s"/>
<use transform="translate(27.8)" xlink:href="#q"/>
<use transform="translate(55.6)" xlink:href="#z"/>
<use transform="translate(119)" xlink:href="#ab"/>
<use transform="translate(182)" xlink:href="#ae"/>
</g>
<path d="m49.6 773h10 10" fill="none" stroke="#1f77b4" stroke-dasharray="1.5,2.475" stroke-opacity=".9" stroke-width="1.5"/>
<use x="59.645553" y="772.566017" fill="#1f77b4" fill-opacity=".9" stroke="#1f77b4" stroke-opacity=".9" xlink:href="#a"/>
<g transform="translate(77.6 776) scale(.1 -.1)">
<use xlink:href="#s"/>
<use transform="translate(27.8)" xlink:href="#q"/>
<use transform="translate(55.6)" xlink:href="#z"/>
<use transform="translate(119)" xlink:href="#ab"/>
<use transform="translate(182)" xlink:href="#ae"/>
<use transform="translate(242)" xlink:href="#f"/>
<use transform="translate(275)" xlink:href="#ad"/>
<use transform="translate(334)" xlink:href="#ab"/>
<use transform="translate(398)" xlink:href="#s"/>
<use transform="translate(425)" xlink:href="#p"/>
<use transform="translate(465)" xlink:href="#r"/>
</g>
<path d="m49.6 787h10 10" fill="none" stroke="#2ca02c" stroke-linecap="square" stroke-opacity=".9" stroke-width="1.5"/>
<use x="59.645553" y="787.244142" fill="#2ca02c" fill-opacity=".9" stroke="#2ca02c" stroke-opacity=".9" xlink:href="#c"/>
<g transform="translate(77.6 791) scale(.1 -.1)">
<use xlink:href="#x"/>
<use transform="translate(97.4)" xlink:href="#u"/>
<use transform="translate(159)" xlink:href="#aa"/>
<use transform="translate(214)" xlink:href="#w"/>
<use transform="translate(275)" xlink:href="#v"/>
</g>
<g transform="translate(229 12.1) scale(.12 -.12)">
<defs>
<path id="au" transform="scale(.0156)" d="m1259 4147v-1753h794q441 0 681 228 241 228 241 650 0 419-241 647-240 228-681 228h-794zm-631 519h1425q785 0 1186-355 402-355 402-1039 0-691-402-1044-401-353-1186-353h-794v-1875h-631v4666z"/>
<path id="at" transform="scale(.0156)" d="m1159 525v-1856h-578v4831h578v-531q182 312 458 463 277 152 661 152 638 0 1036-506 399-506 399-1331t-399-1332q-398-506-1036-506-384 0-661 152-276 152-458 464zm1957 1222q0 634-261 995t-717 361q-457 0-718-361t-261-995 261-995 718-361q456 0 717 361t261 995z"/>
<path id="as" transform="scale(.0156)" d="m2059-325q-243-625-475-815-231-191-618-191h-460v481h338q237 0 368 113 132 112 291 531l103 262-1415 3444h609l1094-2737 1094 2737h609l-1538-3825z"/>
</defs>
<use xlink:href="#au"/>
<use transform="translate(56.7)" xlink:href="#o"/>
<use transform="translate(118)" xlink:href="#r"/>
<use transform="translate(159)" xlink:href="#y"/>
<use transform="translate(195)" xlink:href="#w"/>
<use transform="translate(256)" xlink:href="#r"/>
<use transform="translate(295)" xlink:href="#x"/>
<use transform="translate(392)" xlink:href="#u"/>
<use transform="translate(454)" xlink:href="#z"/>
<use transform="translate(517)" xlink:href="#aa"/>
<use transform="translate(572)" xlink:href="#o"/>
<use transform="translate(634)" xlink:href="#DejaVuSans-20"/>
<use transform="translate(665)" xlink:href="#q"/>
<use transform="translate(693)" xlink:href="#x"/>
<use transform="translate(791)" xlink:href="#at"/>
<use transform="translate(854)" xlink:href="#r"/>
<use transform="translate(893)" xlink:href="#w"/>
<use transform="translate(954)" xlink:href="#ad"/>
<use transform="translate(1013)" xlink:href="#o"/>
<use transform="translate(1075)" xlink:href="#x"/>
<use transform="translate(1172)" xlink:href="#o"/>
<use transform="translate(1234)" xlink:href="#z"/>
<use transform="translate(1297)" xlink:href="#p"/>
<use transform="translate(1336)" xlink:href="#DejaVuSans-20"/>
<use transform="translate(1368)" xlink:href="#ar"/>
<use transform="translate(1432)" xlink:href="#as"/>
<use transform="translate(1491)" xlink:href="#DejaVuSans-20"/>
<use transform="translate(1523)" xlink:href="#aa"/>
<use transform="translate(1578)" xlink:href="#w"/>
<use transform="translate(1639)" xlink:href="#z"/>
<use transform="translate(1702)" xlink:href="#y"/>
<use transform="translate(1737)" xlink:href="#q"/>
<use transform="translate(1765)" xlink:href="#aj"/>
<use transform="translate(1829)" xlink:href="#ab"/>
<use transform="translate(1892)" xlink:href="#r"/>
<use transform="translate(1933)" xlink:href="#u"/>
<use transform="translate(1994)" xlink:href="#p"/>
<use transform="translate(2034)" xlink:href="#q"/>
<use transform="translate(2061)" xlink:href="#w"/>
<use transform="translate(2123)" xlink:href="#z"/>
</g>
<defs>
<clipPath id="i">
<rect x="40.6" y="35.7" width="676" height="316"/>
</clipPath>
<clipPath id="l">
<rect x="40.6" y="390" width="676" height="316"/>
</clipPath>
<clipPath id="h">
<rect x="40.6" y="745" width="676" height="316"/>
</clipPath>
</defs>
</svg>
