<?xml version="1.0" encoding="UTF-8"?>
<!DOCTYPE svg  PUBLIC '-//W3C//DTD SVG 1.1//EN'  'http://www.w3.org/Graphics/SVG/1.1/DTD/svg11.dtd'>
<svg width="720pt" height="720pt" version="1.1" viewBox="0 0 720 720" xmlns="http://www.w3.org/2000/svg" xmlns:xlink="http://www.w3.org/1999/xlink">
<defs>
<style type="text/css">*{stroke-linejoin: round; stroke-linecap: butt}</style>
</defs>
<path d="m0 720h720v-720h-720z" fill="#fff"/>
<path d="m40.6 349h665v-313h-665z" fill="#fff"/>
<path d="m112 349v-313" clip-path="url(#e)" fill="none" stroke="#b0b0b0" stroke-linecap="square" stroke-width=".8"/>
<defs>
<path id="i" d="m0 0v3.5" stroke="#000" stroke-width=".8"/>
</defs>
<use x="111.542828" y="348.52899" stroke="#000000" stroke-width=".8" xlink:href="#i"/>
<g transform="translate(82.5 363) scale(.1 -.1)">
<defs>
<path id="c" transform="scale(.0156)" d="m1228 531h2203v-531h-2962v531q359 372 979 998 621 627 780 809 303 340 423 576 121 236 121 464 0 372-261 606-261 235-680 235-297 0-627-103-329-103-704-313v638q381 153 712 231 332 78 607 78 725 0 1156-363 431-362 431-968 0-288-108-546-107-257-392-607-78-91-497-524-418-433-1181-1211z"/>
<path id="b" transform="scale(.0156)" d="m2034 4250q-487 0-733-480-245-479-245-1442 0-959 245-1439 246-480 733-480 491 0 736 480 246 480 246 1439 0 963-246 1442-245 480-736 480zm0 500q785 0 1199-621 414-620 414-1801 0-1178-414-1799-414-620-1199-620-784 0-1198 620-414 621-414 1799 0 1181 414 1801 414 621 1198 621z"/>
<path id="o" transform="scale(.0156)" d="m2419 4116-1594-2491h1594v2491zm-166 550h794v-3041h666v-525h-666v-1100h-628v1100h-2106v609l1940 2957z"/>
<path id="g" transform="scale(.0156)" d="m313 2009h1684v-512h-1684v512z"/>
<path id="y" transform="scale(.0156)" d="m2034 2216q-450 0-708-241-257-241-257-662 0-422 257-663 258-241 708-241t709 242q260 243 260 662 0 421-258 662-257 241-711 241zm-631 268q-406 100-633 378-226 279-226 679 0 559 398 884 399 325 1092 325 697 0 1094-325t397-884q0-400-227-679-226-278-629-378 456-106 710-416 255-309 255-755 0-679-414-1042-414-362-1186-362-771 0-1186 362-414 363-414 1042 0 446 256 755 257 310 713 416zm-231 997q0-362 226-565 227-203 636-203 407 0 636 203 230 203 230 565 0 363-230 566-229 203-636 203-409 0-636-203-226-203-226-566z"/>
<path id="d" transform="scale(.0156)" d="m794 531h1031v3560l-1122-225v575l1116 225h631v-4135h1031v-531h-2687v531z"/>
</defs>
<use xlink:href="#c"/>
<use x="63.623047" xlink:href="#b"/>
<use x="127.246094" xlink:href="#c"/>
<use x="190.869141" xlink:href="#o"/>
<use x="254.492188" xlink:href="#g"/>
<use x="290.576172" xlink:href="#b"/>
<use x="354.199219" xlink:href="#y"/>
<use x="417.822266" xlink:href="#g"/>
<use x="453.90625" xlink:href="#b"/>
<use x="517.529297" xlink:href="#d"/>
</g>
<path d="m178 349v-313" clip-path="url(#e)" fill="none" stroke="#b0b0b0" stroke-linecap="square" stroke-width=".8"/>
<use x="177.678485" y="348.52899" stroke="#000000" stroke-width=".8" xlink:href="#i"/>
<g transform="translate(149 363) scale(.1 -.1)">
<defs>
<path id="ab" transform="scale(.0156)" d="m691 4666h2478v-532h-1900v-1143q137 47 274 70 138 23 276 23 781 0 1237-428 457-428 457-1159 0-753-469-1171-469-417-1322-417-294 0-599 50-304 50-629 150v635q281-153 581-228t634-75q541 0 856 284 316 284 316 772 0 487-316 771-315 285-856 285-253 0-505-56-251-56-513-175v2344z"/>
</defs>
<use xlink:href="#c"/>
<use x="63.623047" xlink:href="#b"/>
<use x="127.246094" xlink:href="#c"/>
<use x="190.869141" xlink:href="#o"/>
<use x="254.492188" xlink:href="#g"/>
<use x="290.576172" xlink:href="#b"/>
<use x="354.199219" xlink:href="#y"/>
<use x="417.822266" xlink:href="#g"/>
<use x="453.90625" xlink:href="#d"/>
<use x="517.529297" xlink:href="#ab"/>
</g>
<path d="m258 349v-313" clip-path="url(#e)" fill="none" stroke="#b0b0b0" stroke-linecap="square" stroke-width=".8"/>
<use x="257.986067" y="348.52899" stroke="#000000" stroke-width=".8" xlink:href="#i"/>
<g transform="translate(229 363) scale(.1 -.1)">
<defs>
<path id="ad" transform="scale(.0156)" d="m703 97v575q238-113 481-172 244-59 479-59 625 0 954 420 330 420 377 1277-181-269-460-413-278-144-615-144-700 0-1108 423-408 424-408 1159 0 718 425 1152 425 435 1131 435 810 0 1236-621 427-620 427-1801 0-1103-524-1761-523-658-1407-658-238 0-482 47-243 47-506 141zm1256 1978q425 0 673 290 249 291 249 798 0 503-249 795-248 292-673 292t-673-292-248-795q0-507 248-798 248-290 673-290z"/>
</defs>
<use xlink:href="#c"/>
<use x="63.623047" xlink:href="#b"/>
<use x="127.246094" xlink:href="#c"/>
<use x="190.869141" xlink:href="#o"/>
<use x="254.492188" xlink:href="#g"/>
<use x="290.576172" xlink:href="#b"/>
<use x="354.199219" xlink:href="#ad"/>
<use x="417.822266" xlink:href="#g"/>
<use x="453.90625" xlink:href="#b"/>
<use x="517.529297" xlink:href="#d"/>
</g>
<path d="m324 349v-313" clip-path="url(#e)" fill="none" stroke="#b0b0b0" stroke-linecap="square" stroke-width=".8"/>
<use x="324.121723" y="348.52899" stroke="#000000" stroke-width=".8" xlink:href="#i"/>
<g transform="translate(295 363) scale(.1 -.1)">
<use xlink:href="#c"/>
<use x="63.623047" xlink:href="#b"/>
<use x="127.246094" xlink:href="#c"/>
<use x="190.869141" xlink:href="#o"/>
<use x="254.492188" xlink:href="#g"/>
<use x="290.576172" xlink:href="#b"/>
<use x="354.199219" xlink:href="#ad"/>
<use x="417.822266" xlink:href="#g"/>
<use x="453.90625" xlink:href="#d"/>
<use x="517.529297" xlink:href="#ab"/>
</g>
<path d="m400 349v-313" clip-path="url(#e)" fill="none" stroke="#b0b0b0" stroke-linecap="square" stroke-width=".8"/>
<use x="399.70533" y="348.52899" stroke="#000000" stroke-width=".8" xlink:href="#i"/>
<g transform="translate(371 363) scale(.1 -.1)">
<use xlink:href="#c"/>
<use x="63.623047" xlink:href="#b"/>
<use x="127.246094" xlink:href="#c"/>
<use x="190.869141" xlink:href="#o"/>
<use x="254.492188" xlink:href="#g"/>
<use x="290.576172" xlink:href="#d"/>
<use x="354.199219" xlink:href="#b"/>
<use x="417.822266" xlink:href="#g"/>
<use x="453.90625" xlink:href="#b"/>
<use x="517.529297" xlink:href="#d"/>
</g>
<path d="m466 349v-313" clip-path="url(#e)" fill="none" stroke="#b0b0b0" stroke-linecap="square" stroke-width=".8"/>
<use x="465.840987" y="348.52899" stroke="#000000" stroke-width=".8" xlink:href="#i"/>
<g transform="translate(437 363) scale(.1 -.1)">
<use xlink:href="#c"/>
<use x="63.623047" xlink:href="#b"/>
<use x="127.246094" xlink:href="#c"/>
<use x="190.869141" xlink:href="#o"/>
<use x="254.492188" xlink:href="#g"/>
<use x="290.576172" xlink:href="#d"/>
<use x="354.199219" xlink:href="#b"/>
<use x="417.822266" xlink:href="#g"/>
<use x="453.90625" xlink:href="#d"/>
<use x="517.529297" xlink:href="#ab"/>
</g>
<path d="m546 349v-313" clip-path="url(#e)" fill="none" stroke="#b0b0b0" stroke-linecap="square" stroke-width=".8"/>
<use x="546.148569" y="348.52899" stroke="#000000" stroke-width=".8" xlink:href="#i"/>
<g transform="translate(517 363) scale(.1 -.1)">
<use xlink:href="#c"/>
<use x="63.623047" xlink:href="#b"/>
<use x="127.246094" xlink:href="#c"/>
<use x="190.869141" xlink:href="#o"/>
<use x="254.492188" xlink:href="#g"/>
<use x="290.576172" xlink:href="#d"/>
<use x="354.199219" xlink:href="#d"/>
<use x="417.822266" xlink:href="#g"/>
<use x="453.90625" xlink:href="#b"/>
<use x="517.529297" xlink:href="#d"/>
</g>
<path d="m612 349v-313" clip-path="url(#e)" fill="none" stroke="#b0b0b0" stroke-linecap="square" stroke-width=".8"/>
<use x="612.284225" y="348.52899" stroke="#000000" stroke-width=".8" xlink:href="#i"/>
<g transform="translate(583 363) scale(.1 -.1)">
<use xlink:href="#c"/>
<use x="63.623047" xlink:href="#b"/>
<use x="127.246094" xlink:href="#c"/>
<use x="190.869141" xlink:href="#o"/>
<use x="254.492188" xlink:href="#g"/>
<use x="290.576172" xlink:href="#d"/>
<use x="354.199219" xlink:href="#d"/>
<use x="417.822266" xlink:href="#g"/>
<use x="453.90625" xlink:href="#d"/>
<use x="517.529297" xlink:href="#ab"/>
</g>
<path d="m688 349v-313" clip-path="url(#e)" fill="none" stroke="#b0b0b0" stroke-linecap="square" stroke-width=".8"/>
<use x="687.867832" y="348.52899" stroke="#000000" stroke-width=".8" xlink:href="#i"/>
<g transform="translate(659 363) scale(.1 -.1)">
<use xlink:href="#c"/>
<use x="63.623047" xlink:href="#b"/>
<use x="127.246094" xlink:href="#c"/>
<use x="190.869141" xlink:href="#o"/>
<use x="254.492188" xlink:href="#g"/>
<use x="290.576172" xlink:href="#d"/>
<use x="354.199219" xlink:href="#c"/>
<use x="417.822266" xlink:href="#g"/>
<use x="453.90625" xlink:href="#b"/>
<use x="517.529297" xlink:href="#d"/>
</g>
<path d="m40.6 308h665" clip-path="url(#e)" fill="none" stroke="#b0b0b0" stroke-linecap="square" stroke-width=".8"/>
<defs>
<path id="l" d="m0 0h-3.5" stroke="#000" stroke-width=".8"/>
</defs>
<use x="40.645553" y="308.46003" stroke="#000000" stroke-width=".8" xlink:href="#l"/>
<g transform="translate(3 312) scale(.1 -.1)">
<defs>
<path id="f" transform="scale(.0156)" d="m684 794h660v-794h-660v794z"/>
<path id="ae" transform="scale(.0156)" d="m2113 2584q-425 0-674-291-248-290-248-796 0-503 248-796 249-292 674-292t673 292q248 293 248 796 0 506-248 796-248 291-673 291zm1253 1979v-575q-238 112-480 171-242 60-480 60-625 0-955-422-329-422-376-1275 184 272 462 417 279 145 613 145 703 0 1111-427 408-426 408-1160 0-719-425-1154-425-434-1131-434-810 0-1238 620-428 621-428 1799 0 1106 525 1764t1409 658q238 0 480-47t505-140z"/>
<path id="m" transform="scale(.0156)" d="m4488 3438-1429-1435 1429-1428-372-378-1435 1434-1434-1434-369 378 1425 1428-1425 1435 369 378 1434-1435 1435 1435 372-378z"/>
</defs>
<use xlink:href="#b"/>
<use x="63.623047" xlink:href="#f"/>
<use x="95.410156" xlink:href="#ae"/>
<use x="159.033203" xlink:href="#b"/>
<use x="222.65625" xlink:href="#m"/>
</g>
<path d="m40.6 244h665" clip-path="url(#e)" fill="none" stroke="#b0b0b0" stroke-linecap="square" stroke-width=".8"/>
<use x="40.645553" y="243.832676" stroke="#000000" stroke-width=".8" xlink:href="#l"/>
<g transform="translate(3 248) scale(.1 -.1)">
<defs>
<path id="av" transform="scale(.0156)" d="m525 4666h3e3v-269l-1694-4397h-659l1594 4134h-2241v532z"/>
</defs>
<use xlink:href="#b"/>
<use x="63.623047" xlink:href="#f"/>
<use x="95.410156" xlink:href="#av"/>
<use x="159.033203" xlink:href="#b"/>
<use x="222.65625" xlink:href="#m"/>
</g>
<path d="m40.6 179h665" clip-path="url(#e)" fill="none" stroke="#b0b0b0" stroke-linecap="square" stroke-width=".8"/>
<use x="40.645553" y="179.205322" stroke="#000000" stroke-width=".8" xlink:href="#l"/>
<g transform="translate(3 183) scale(.1 -.1)">
<use xlink:href="#b"/>
<use x="63.623047" xlink:href="#f"/>
<use x="95.410156" xlink:href="#y"/>
<use x="159.033203" xlink:href="#b"/>
<use x="222.65625" xlink:href="#m"/>
</g>
<path d="m40.6 115h665" clip-path="url(#e)" fill="none" stroke="#b0b0b0" stroke-linecap="square" stroke-width=".8"/>
<use x="40.645553" y="114.577967" stroke="#000000" stroke-width=".8" xlink:href="#l"/>
<g transform="translate(3 118) scale(.1 -.1)">
<use xlink:href="#b"/>
<use x="63.623047" xlink:href="#f"/>
<use x="95.410156" xlink:href="#ad"/>
<use x="159.033203" xlink:href="#b"/>
<use x="222.65625" xlink:href="#m"/>
</g>
<path d="m40.6 50h665" clip-path="url(#e)" fill="none" stroke="#b0b0b0" stroke-linecap="square" stroke-width=".8"/>
<use x="40.645553" y="49.950613" stroke="#000000" stroke-width=".8" xlink:href="#l"/>
<g transform="translate(3 53.7) scale(.1 -.1)">
<use xlink:href="#d"/>
<use x="63.623047" xlink:href="#f"/>
<use x="95.410156" xlink:href="#b"/>
<use x="159.033203" xlink:href="#b"/>
<use x="222.65625" xlink:href="#m"/>
</g>
<path d="m70.9 224 22.5 19.4 33.7-19.4h18.6l0.0302-12.9 0.45 38.8 13.9-19.4 33 6.46h33.3 33.1l26.7-25.9 1.45 25.9 4.24 6.46 33 6.46 27.4-19.4 26.7-181h0.0495l12.8 181 8.58-181 100 284 4.35-64.6 61.4-12.9 5.33-12.9 4.46 25.9 4.82 6.46 3.49 12.9 5.95-6.46h4.47 5.21 4.17l5.19 19.4 4.85-12.9 4.48 6.46 4.92-32.3 4.65 38.8 4.81-19.4 4.16-6.46 5.04-6.46 5.06-71.1 4.61-6.46h4.26l4.93 6.46 4.5 11.9 4.76 11.9 5.07-5.59" clip-path="url(#e)" fill="none" stroke="#1f77b4" stroke-linecap="square" stroke-opacity=".9" stroke-width="1.5"/>
<defs>
<path id="a" d="m-2.5 2.5h5v-5h-5z" stroke="#1f77b4" stroke-opacity=".9"/>
</defs>
<g clip-path="url(#e)" fill="#1f77b4" fill-opacity=".9" stroke="#1f77b4" stroke-opacity=".9">
<use x="70.870931" y="224.44447" xlink:href="#a"/>
<use x="93.347759" y="243.832676" xlink:href="#a"/>
<use x="127.078748" y="224.44447" xlink:href="#a"/>
<use x="145.663545" y="224.44447" xlink:href="#a"/>
<use x="145.693781" y="211.518999" xlink:href="#a"/>
<use x="146.143488" y="250.295411" xlink:href="#a"/>
<use x="160.033397" y="230.907205" xlink:href="#a"/>
<use x="193.025172" y="237.369941" xlink:href="#a"/>
<use x="226.278077" y="237.369941" xlink:href="#a"/>
<use x="259.419936" y="237.369941" xlink:href="#a"/>
<use x="286.107226" y="211.518999" xlink:href="#a"/>
<use x="287.56127" y="237.369941" xlink:href="#a"/>
<use x="291.798359" y="243.832676" xlink:href="#a"/>
<use x="324.810363" y="250.295411" xlink:href="#a"/>
<use x="352.19597" y="230.907205" xlink:href="#a"/>
<use x="378.878121" y="49.950613" xlink:href="#a"/>
<use x="378.927657" y="49.950613" xlink:href="#a"/>
<use x="391.686765" y="230.907205" xlink:href="#a"/>
<use x="400.265537" y="49.950613" xlink:href="#a"/>
<use x="500.409716" y="334.310972" xlink:href="#a"/>
<use x="504.755937" y="269.683618" xlink:href="#a"/>
<use x="566.18659" y="256.758147" xlink:href="#a"/>
<use x="571.519926" y="243.832676" xlink:href="#a"/>
<use x="575.981021" y="269.683618" xlink:href="#a"/>
<use x="580.801499" y="276.146353" xlink:href="#a"/>
<use x="584.294179" y="289.071824" xlink:href="#a"/>
<use x="590.244037" y="282.609089" xlink:href="#a"/>
<use x="594.716723" y="282.609089" xlink:href="#a"/>
<use x="599.922063" y="282.609089" xlink:href="#a"/>
<use x="604.094908" y="282.609089" xlink:href="#a"/>
<use x="609.28297" y="301.997295" xlink:href="#a"/>
<use x="614.130622" y="289.071824" xlink:href="#a"/>
<use x="618.612657" y="295.534559" xlink:href="#a"/>
<use x="623.527998" y="263.220882" xlink:href="#a"/>
<use x="628.174115" y="301.997295" xlink:href="#a"/>
<use x="632.98836" y="282.609089" xlink:href="#a"/>
<use x="637.149067" y="276.146353" xlink:href="#a"/>
<use x="642.185678" y="269.683618" xlink:href="#a"/>
<use x="647.242245" y="198.593528" xlink:href="#a"/>
<use x="651.856869" y="192.130792" xlink:href="#a"/>
<use x="656.115555" y="192.130792" xlink:href="#a"/>
<use x="661.042322" y="198.593528" xlink:href="#a"/>
<use x="665.540542" y="210.489658" xlink:href="#a"/>
<use x="670.304157" y="222.410637" xlink:href="#a"/>
<use x="675.378494" y="216.821438" xlink:href="#a"/>
</g>
<g stroke="#1f77b4" stroke-opacity=".9">
<path d="m288 257 64.6-207 39.5 220 30.2 6.46 35.6 38.8 28.6 12.9h4.66 4.6l5.02-6.46h4.35l5.27 6.46 4.8-12.9 3.62 12.9 5.4-6.46h4.77 4.72 5.18l4.72-6.46h4.24l5.01 6.46 3.54-6.46 5.55 6.46 4.61-12.9 5.33 6.46 4.46-6.46 2.41 6.46 2.41-6.46 3.49 6.46h2.12 3.83l4.47-6.46 5.21 6.46h4.17l5.19-6.46 4.85-6.46 4.48 12.9 4.92 6.46 0.356-6.46 4.29-12.9 4.81 6.46h4.16l5.04-6.46 4.03-52.4 1.03-12.2 3.84-25.9 0.773-6.46 4.26-6.46 4.93 6.46 4.5 24.1 4.76-0.427 3.44 1.99 1.63 2.93" clip-path="url(#e)" fill="none" stroke-dasharray="1.5,2.475" stroke-width="1.5"/>
<g clip-path="url(#e)" fill="#1f77b4" fill-opacity=".9">
<use x="287.56127" y="256.758147" xlink:href="#a"/>
<use x="352.19597" y="49.950613" xlink:href="#a"/>
<use x="391.686765" y="269.683618" xlink:href="#a"/>
<use x="421.936665" y="276.146353" xlink:href="#a"/>
<use x="457.565664" y="314.922766" xlink:href="#a"/>
<use x="486.131773" y="327.848237" xlink:href="#a"/>
<use x="490.795879" y="327.848237" xlink:href="#a"/>
<use x="495.392132" y="327.848237" xlink:href="#a"/>
<use x="500.409716" y="321.385501" xlink:href="#a"/>
<use x="504.755937" y="321.385501" xlink:href="#a"/>
<use x="510.023006" y="327.848237" xlink:href="#a"/>
<use x="514.823582" y="314.922766" xlink:href="#a"/>
<use x="518.444913" y="327.848237" xlink:href="#a"/>
<use x="523.842602" y="321.385501" xlink:href="#a"/>
<use x="528.616715" y="321.385501" xlink:href="#a"/>
<use x="533.332489" y="321.385501" xlink:href="#a"/>
<use x="538.515357" y="321.385501" xlink:href="#a"/>
<use x="543.237474" y="314.922766" xlink:href="#a"/>
<use x="547.475766" y="314.922766" xlink:href="#a"/>
<use x="552.48318" y="321.385501" xlink:href="#a"/>
<use x="556.026927" y="314.922766" xlink:href="#a"/>
<use x="561.57634" y="321.385501" xlink:href="#a"/>
<use x="566.18659" y="308.46003" xlink:href="#a"/>
<use x="571.519926" y="314.922766" xlink:href="#a"/>
<use x="575.981021" y="308.46003" xlink:href="#a"/>
<use x="578.391178" y="314.922766" xlink:href="#a"/>
<use x="580.801499" y="308.46003" xlink:href="#a"/>
<use x="584.294179" y="314.922766" xlink:href="#a"/>
<use x="586.418983" y="314.922766" xlink:href="#a"/>
<use x="590.244037" y="314.922766" xlink:href="#a"/>
<use x="594.716723" y="308.46003" xlink:href="#a"/>
<use x="599.922063" y="314.922766" xlink:href="#a"/>
<use x="604.094908" y="314.922766" xlink:href="#a"/>
<use x="609.28297" y="308.46003" xlink:href="#a"/>
<use x="614.130622" y="301.997295" xlink:href="#a"/>
<use x="618.612657" y="314.922766" xlink:href="#a"/>
<use x="623.527998" y="321.385501" xlink:href="#a"/>
<use x="623.884264" y="314.922766" xlink:href="#a"/>
<use x="628.174115" y="301.997295" xlink:href="#a"/>
<use x="632.98836" y="308.46003" xlink:href="#a"/>
<use x="637.149067" y="308.46003" xlink:href="#a"/>
<use x="642.185678" y="301.997295" xlink:href="#a"/>
<use x="646.212703" y="249.589174" xlink:href="#a"/>
<use x="647.242245" y="237.369941" xlink:href="#a"/>
<use x="651.083427" y="211.518999" xlink:href="#a"/>
<use x="651.856869" y="205.056263" xlink:href="#a"/>
<use x="656.115555" y="198.593528" xlink:href="#a"/>
<use x="661.042322" y="205.056263" xlink:href="#a"/>
<use x="665.540542" y="229.128785" xlink:href="#a"/>
<use x="670.304157" y="228.701931" xlink:href="#a"/>
<use x="673.744513" y="230.692741" xlink:href="#a"/>
<use x="675.378494" y="233.626095" xlink:href="#a"/>
</g>
</g>
<path d="m40.6 349v-313" fill="none" stroke="#000" stroke-linecap="square" stroke-width=".8"/>
<path d="m706 349v-313" fill="none" stroke="#000" stroke-linecap="square" stroke-width=".8"/>
<path d="m40.6 349h665" fill="none" stroke="#000" stroke-linecap="square" stroke-width=".8"/>
<path d="m40.6 35.7h665" fill="none" stroke="#000" stroke-linecap="square" stroke-width=".8"/>
<g clip-path="url(#e)">
<g transform="translate(58.2 42) rotate(-90) scale(.1 -.1)">
<defs>
<path id="n" transform="scale(.0156)" d="m2375 4863v-479h-550q-309 0-430-125-120-125-120-450v-309h947v-447h-947v-3053h-578v3053h-550v447h550v244q0 584 272 851 272 268 862 268h544z"/>
<path id="v" transform="scale(.0156)" d="m2194 1759q-697 0-966-159t-269-544q0-306 202-486 202-179 548-179 479 0 768 339t289 901v128h-572zm1147 238v-2e3h-575v531q-197-318-491-470t-719-152q-537 0-855 302-317 302-317 808 0 590 395 890 396 300 1180 300h807v57q0 397-261 614t-733 217q-300 0-585-72-284-72-546-216v532q315 122 612 182 297 61 578 61 760 0 1135-394 375-393 375-1193z"/>
<path id="t" transform="scale(.0156)" d="m2834 3397v-544q-243 125-506 187-262 63-544 63-428 0-642-131t-214-394q0-200 153-314t616-217l197-44q612-131 870-370t258-667q0-488-386-773-386-284-1061-284-281 0-586 55t-642 164v594q319-166 628-249 309-82 613-82 406 0 624 139 219 139 219 392 0 234-158 359-157 125-692 241l-200 47q-534 112-772 345-237 233-237 639 0 494 350 762 350 269 994 269 318 0 599-47 282-46 519-140z"/>
<path id="p" transform="scale(.0156)" d="m1172 4494v-994h1184v-447h-1184v-1900q0-428 117-550t477-122h590v-481h-590q-666 0-919 248-253 249-253 905v1900h-422v447h422v994h578z"/>
<path id="h" transform="scale(.0156)" d="m3597 1894v-281h-2644q38-594 358-905t892-311q331 0 642 81t618 244v-544q-310-131-635-200t-659-69q-838 0-1327 487-489 488-489 1320 0 859 464 1363 464 505 1252 505 706 0 1117-455 411-454 411-1235zm-575 169q-6 471-264 752-258 282-683 282-481 0-770-272t-333-766l2050 4z"/>
<path id="k" transform="scale(.0156)" d="m2631 2963q-97 56-211 82-114 27-251 27-488 0-749-317t-261-911v-1844h-578v3500h578v-544q182 319 472 473 291 155 707 155 59 0 131-8 72-7 159-23l3-590z"/>
<path id="al" transform="scale(.0156)" d="m8863 2147v-281l-1229-1228-375 375 729 728h-7622v531h7622l-729 728 375 375 1229-1228z"/>
</defs>
<use xlink:href="#n"/>
<use x="35.205078" xlink:href="#v"/>
<use x="96.484375" xlink:href="#t"/>
<use x="148.583984" xlink:href="#p"/>
<use x="187.792969" xlink:href="#h"/>
<use x="249.316406" xlink:href="#k"/>
<use x="290.429688" xlink:href="#DejaVuSans-20"/>
<use x="322.216797" xlink:href="#al"/>
</g>
</g>
<g clip-path="url(#e)">
<g transform="translate(58.2 110) rotate(-90) scale(.1 -.1)">
<defs>
<path id="am" transform="scale(.0156)" d="m313 1866v281l1228 1228 375-375-728-728h7621v-531h-7621l728-728-375-375-1228 1228z"/>
<path id="x" transform="scale(.0156)" d="m603 4863h575v-4863h-575v4863z"/>
<path id="q" transform="scale(.0156)" d="m1959 3097q-462 0-731-361t-269-989 267-989q268-361 733-361 460 0 728 362 269 363 269 988 0 622-269 986-268 364-728 364zm0 487q750 0 1178-488 429-487 429-1349 0-859-429-1349-428-489-1178-489-753 0-1180 489-426 490-426 1349 0 862 426 1349 427 488 1180 488z"/>
<path id="ag" transform="scale(.0156)" d="m269 3500h575l719-2731 715 2731h678l719-2731 716 2731h575l-916-3500h-678l-753 2869-756-2869h-679l-915 3500z"/>
</defs>
<use xlink:href="#am"/>
<use x="143.359375" xlink:href="#DejaVuSans-20"/>
<use x="175.146484" xlink:href="#t"/>
<use x="227.246094" xlink:href="#x"/>
<use x="255.029297" xlink:href="#q"/>
<use x="316.210938" xlink:href="#ag"/>
<use x="397.998047" xlink:href="#h"/>
<use x="459.521484" xlink:href="#k"/>
</g>
</g>
<g transform="translate(227 29.7) scale(.12 -.12)">
<defs>
<path id="ai" transform="scale(.0156)" d="m628 4666h2950v-532h-2319v-1381h2222v-531h-2222v-1691h2375v-531h-3006v4666z"/>
<path id="w" transform="scale(.0156)" d="m3122 3366v-538q-244 135-489 202t-495 67q-560 0-870-355-309-354-309-995t309-996q310-354 870-354 250 0 495 67t489 202v-532q-241-112-499-168-257-57-548-57-791 0-1257 497-465 497-465 1341 0 856 470 1346 471 491 1290 491 265 0 518-55 253-54 491-163z"/>
<path id="ap" transform="scale(.0156)" d="m3513 2113v-2113h-575v2094q0 497-194 743-194 247-581 247-466 0-735-297-269-296-269-809v-1978h-578v4863h578v-1907q207 316 486 472 280 156 646 156 603 0 912-373 310-373 310-1098z"/>
<path id="aq" transform="scale(.0156)" d="m2906 2969v1894h575v-4863h-575v525q-181-312-458-464-276-152-664-152-634 0-1033 506-398 507-398 1332t398 1331q399 506 1033 506 388 0 664-152 277-151 458-463zm-1959-1222q0-634 261-995t717-361 718 361q263 361 263 995t-263 995q-262 361-718 361t-717-361-261-995z"/>
<path id="r" transform="scale(.0156)" d="m603 3500h575v-3500h-575v3500zm0 1363h575v-729h-575v729z"/>
<path id="u" transform="scale(.0156)" d="m3513 2113v-2113h-575v2094q0 497-194 743-194 247-581 247-466 0-735-297-269-296-269-809v-1978h-578v3500h578v-544q207 316 486 472 280 156 646 156 603 0 912-373 310-373 310-1098z"/>
<path id="ah" transform="scale(.0156)" d="m2906 1791q0 625-258 968-257 344-723 344-462 0-720-344-258-343-258-968 0-622 258-966t720-344q466 0 723 344 258 344 258 966zm575-1357q0-893-397-1329-396-436-1215-436-303 0-572 45t-522 139v559q253-137 500-202 247-66 503-66 566 0 847 295t281 892v285q-178-310-456-463t-666-153q-643 0-1037 490-394 491-394 1301 0 812 394 1302 394 491 1037 491 388 0 666-153t456-462v531h575v-3066z"/>
<path id="z" transform="scale(.0156)" d="m191 3500h609l1094-2937 1094 2937h609l-1313-3500h-781l-1312 3500z"/>
<path id="ac" transform="scale(.0156)" d="m-19 4666h3947v-532h-1656v-4134h-634v4134h-1657v532z"/>
<path id="ak" transform="scale(.0156)" d="m1984 4856q-418-718-622-1422-203-703-203-1425 0-721 205-1429t620-1424h-500q-468 735-701 1444t-233 1409q0 697 231 1403 232 707 703 1444h500z"/>
<path id="s" transform="scale(.0156)" d="m3328 2828q216 388 516 572t706 184q547 0 844-383 297-382 297-1088v-2113h-578v2094q0 503-179 746-178 244-543 244-447 0-707-297-259-296-259-809v-1978h-578v2094q0 506-178 748t-550 242q-441 0-701-298-259-298-259-808v-1978h-578v3500h578v-544q197 322 472 475t653 153q382 0 649-194 267-193 395-562z"/>
<path id="aj" transform="scale(.0156)" d="m513 4856h500q468-737 701-1444 233-706 233-1403 0-700-233-1409t-701-1444h-500q415 716 620 1424t205 1429q0 722-205 1425-205 704-620 1422z"/>
</defs>
<use xlink:href="#ai"/>
<use x="63.183594" xlink:href="#n"/>
<use x="98.388672" xlink:href="#n"/>
<use x="133.59375" xlink:href="#h"/>
<use x="195.117188" xlink:href="#w"/>
<use x="250.097656" xlink:href="#p"/>
<use x="289.306641" xlink:href="#DejaVuSans-20"/>
<use x="321.09375" xlink:href="#q"/>
<use x="382.275391" xlink:href="#n"/>
<use x="417.480469" xlink:href="#DejaVuSans-20"/>
<use x="449.267578" xlink:href="#n"/>
<use x="484.472656" xlink:href="#k"/>
<use x="523.335938" xlink:href="#h"/>
<use x="584.859375" xlink:href="#h"/>
<use x="646.382812" xlink:href="#DejaVuSans-20"/>
<use x="678.169922" xlink:href="#p"/>
<use x="717.378906" xlink:href="#ap"/>
<use x="780.757812" xlink:href="#k"/>
<use x="819.621094" xlink:href="#h"/>
<use x="881.144531" xlink:href="#v"/>
<use x="942.423828" xlink:href="#aq"/>
<use x="1005.900391" xlink:href="#r"/>
<use x="1033.683594" xlink:href="#u"/>
<use x="1097.0625" xlink:href="#ah"/>
<use x="1160.539062" xlink:href="#DejaVuSans-20"/>
<use x="1192.326172" xlink:href="#z"/>
<use x="1251.505859" xlink:href="#t"/>
<use x="1303.605469" xlink:href="#f"/>
<use x="1335.392578" xlink:href="#DejaVuSans-20"/>
<use x="1367.179688" xlink:href="#ac"/>
<use x="1425.138672" xlink:href="#r"/>
<use x="1452.921875" xlink:href="#h"/>
<use x="1514.445312" xlink:href="#k"/>
<use x="1555.558594" xlink:href="#DejaVuSans-20"/>
<use x="1587.345703" xlink:href="#d"/>
<use x="1650.96875" xlink:href="#DejaVuSans-20"/>
<use x="1682.755859" xlink:href="#ak"/>
<use x="1721.769531" xlink:href="#t"/>
<use x="1773.869141" xlink:href="#v"/>
<use x="1835.148438" xlink:href="#s"/>
<use x="1932.560547" xlink:href="#h"/>
<use x="1994.083984" xlink:href="#DejaVuSans-20"/>
<use x="2025.871094" xlink:href="#w"/>
<use x="2080.851562" xlink:href="#q"/>
<use x="2142.033203" xlink:href="#s"/>
<use x="2239.445312" xlink:href="#s"/>
<use x="2336.857422" xlink:href="#r"/>
<use x="2364.640625" xlink:href="#p"/>
<use x="2403.849609" xlink:href="#aj"/>
</g>
<path d="m47.6 73.1h82.6q2 0 2-2v-28.4q0-2-2-2h-82.6q-2 0-2 2v28.4q0 2 2 2z" fill="#fff" opacity=".8" stroke="#ccc"/>
<path d="m49.6 48.8h10 10" fill="none" stroke="#1f77b4" stroke-linecap="square" stroke-opacity=".9" stroke-width="1.5"/>
<use x="59.645553" y="48.831032" fill="#1f77b4" fill-opacity=".9" stroke="#1f77b4" stroke-opacity=".9" xlink:href="#a"/>
<g transform="translate(77.6 52.3) scale(.1 -.1)">
<defs>
<path id="aa" transform="scale(.0156)" d="m544 1381v2119h575v-2097q0-497 193-746 194-248 582-248 465 0 735 297 271 297 271 810v1984h575v-3500h-575v538q-209-319-486-474-276-155-642-155-603 0-916 375-312 375-312 1097zm1447 2203z"/>
<path id="af" transform="scale(.0156)" d="m3513 3500-1266-1703 1331-1797h-678l-1019 1375-1018-1375h-679l1360 1831-1244 1669h678l928-1247 928 1247h679z"/>
</defs>
<use xlink:href="#x"/>
<use x="27.783203" xlink:href="#r"/>
<use x="55.566406" xlink:href="#u"/>
<use x="118.945312" xlink:href="#aa"/>
<use x="182.324219" xlink:href="#af"/>
</g>
<path d="m49.6 63.5h10 10" fill="none" stroke="#1f77b4" stroke-dasharray="1.5,2.475" stroke-opacity=".9" stroke-width="1.5"/>
<use x="59.645553" y="63.509158" fill="#1f77b4" fill-opacity=".9" stroke="#1f77b4" stroke-opacity=".9" xlink:href="#a"/>
<g transform="translate(77.6 67) scale(.1 -.1)">
<use xlink:href="#x"/>
<use x="27.783203" xlink:href="#r"/>
<use x="55.566406" xlink:href="#u"/>
<use x="118.945312" xlink:href="#aa"/>
<use x="182.324219" xlink:href="#af"/>
<use x="241.503906" xlink:href="#g"/>
<use x="274.962891" xlink:href="#z"/>
<use x="334.142578" xlink:href="#aa"/>
<use x="397.521484" xlink:href="#x"/>
<use x="425.304688" xlink:href="#p"/>
<use x="464.513672" xlink:href="#k"/>
</g>
<path d="m40.6 700h665v-313h-665z" fill="#fff"/>
<path d="m40.6 700v-313" clip-path="url(#j)" fill="none" stroke="#b0b0b0" stroke-linecap="square" stroke-width=".8"/>
<use x="40.645553" y="700.321635" stroke="#000000" stroke-width=".8" xlink:href="#i"/>
<g transform="translate(32.7 715) scale(.1 -.1)">
<use xlink:href="#b"/>
<use x="63.623047" xlink:href="#f"/>
<use x="95.410156" xlink:href="#b"/>
</g>
<path d="m174 700v-313" clip-path="url(#j)" fill="none" stroke="#b0b0b0" stroke-linecap="square" stroke-width=".8"/>
<use x="173.637216" y="700.321635" stroke="#000000" stroke-width=".8" xlink:href="#i"/>
<g transform="translate(166 715) scale(.1 -.1)">
<use xlink:href="#b"/>
<use x="63.623047" xlink:href="#f"/>
<use x="95.410156" xlink:href="#c"/>
</g>
<path d="m307 700v-313" clip-path="url(#j)" fill="none" stroke="#b0b0b0" stroke-linecap="square" stroke-width=".8"/>
<use x="306.62888" y="700.321635" stroke="#000000" stroke-width=".8" xlink:href="#i"/>
<g transform="translate(299 715) scale(.1 -.1)">
<use xlink:href="#b"/>
<use x="63.623047" xlink:href="#f"/>
<use x="95.410156" xlink:href="#o"/>
</g>
<path d="m440 700v-313" clip-path="url(#j)" fill="none" stroke="#b0b0b0" stroke-linecap="square" stroke-width=".8"/>
<use x="439.620544" y="700.321635" stroke="#000000" stroke-width=".8" xlink:href="#i"/>
<g transform="translate(432 715) scale(.1 -.1)">
<use xlink:href="#b"/>
<use x="63.623047" xlink:href="#f"/>
<use x="95.410156" xlink:href="#ae"/>
</g>
<path d="m573 700v-313" clip-path="url(#j)" fill="none" stroke="#b0b0b0" stroke-linecap="square" stroke-width=".8"/>
<use x="572.612208" y="700.321635" stroke="#000000" stroke-width=".8" xlink:href="#i"/>
<g transform="translate(565 715) scale(.1 -.1)">
<use xlink:href="#b"/>
<use x="63.623047" xlink:href="#f"/>
<use x="95.410156" xlink:href="#y"/>
</g>
<path d="m706 700v-313" clip-path="url(#j)" fill="none" stroke="#b0b0b0" stroke-linecap="square" stroke-width=".8"/>
<use x="705.603872" y="700.321635" stroke="#000000" stroke-width=".8" xlink:href="#i"/>
<g transform="translate(698 715) scale(.1 -.1)">
<use xlink:href="#d"/>
<use x="63.623047" xlink:href="#f"/>
<use x="95.410156" xlink:href="#b"/>
</g>
<path d="m40.6 700h665" clip-path="url(#j)" fill="none" stroke="#b0b0b0" stroke-linecap="square" stroke-width=".8"/>
<use x="40.645553" y="700.321635" stroke="#000000" stroke-width=".8" xlink:href="#l"/>
<g transform="translate(3 704) scale(.1 -.1)">
<use xlink:href="#b"/>
<use x="63.623047" xlink:href="#f"/>
<use x="95.410156" xlink:href="#b"/>
<use x="159.033203" xlink:href="#b"/>
<use x="222.65625" xlink:href="#m"/>
</g>
<path d="m40.6 638h665" clip-path="url(#j)" fill="none" stroke="#b0b0b0" stroke-linecap="square" stroke-width=".8"/>
<use x="40.645553" y="637.762356" stroke="#000000" stroke-width=".8" xlink:href="#l"/>
<g transform="translate(3 642) scale(.1 -.1)">
<use xlink:href="#b"/>
<use x="63.623047" xlink:href="#f"/>
<use x="95.410156" xlink:href="#c"/>
<use x="159.033203" xlink:href="#b"/>
<use x="222.65625" xlink:href="#m"/>
</g>
<path d="m40.6 575h665" clip-path="url(#j)" fill="none" stroke="#b0b0b0" stroke-linecap="square" stroke-width=".8"/>
<use x="40.645553" y="575.203077" stroke="#000000" stroke-width=".8" xlink:href="#l"/>
<g transform="translate(3 579) scale(.1 -.1)">
<use xlink:href="#b"/>
<use x="63.623047" xlink:href="#f"/>
<use x="95.410156" xlink:href="#o"/>
<use x="159.033203" xlink:href="#b"/>
<use x="222.65625" xlink:href="#m"/>
</g>
<path d="m40.6 513h665" clip-path="url(#j)" fill="none" stroke="#b0b0b0" stroke-linecap="square" stroke-width=".8"/>
<use x="40.645553" y="512.643798" stroke="#000000" stroke-width=".8" xlink:href="#l"/>
<g transform="translate(3 516) scale(.1 -.1)">
<use xlink:href="#b"/>
<use x="63.623047" xlink:href="#f"/>
<use x="95.410156" xlink:href="#ae"/>
<use x="159.033203" xlink:href="#b"/>
<use x="222.65625" xlink:href="#m"/>
</g>
<path d="m40.6 450h665" clip-path="url(#j)" fill="none" stroke="#b0b0b0" stroke-linecap="square" stroke-width=".8"/>
<use x="40.645553" y="450.084519" stroke="#000000" stroke-width=".8" xlink:href="#l"/>
<g transform="translate(3 454) scale(.1 -.1)">
<use xlink:href="#b"/>
<use x="63.623047" xlink:href="#f"/>
<use x="95.410156" xlink:href="#y"/>
<use x="159.033203" xlink:href="#b"/>
<use x="222.65625" xlink:href="#m"/>
</g>
<path d="m40.6 388h665" clip-path="url(#j)" fill="none" stroke="#b0b0b0" stroke-linecap="square" stroke-width=".8"/>
<use x="40.645553" y="387.52524" stroke="#000000" stroke-width=".8" xlink:href="#l"/>
<g transform="translate(3 391) scale(.1 -.1)">
<use xlink:href="#d"/>
<use x="63.623047" xlink:href="#f"/>
<use x="95.410156" xlink:href="#b"/>
<use x="159.033203" xlink:href="#b"/>
<use x="222.65625" xlink:href="#m"/>
</g>
<path d="m40.6 700v-313" fill="none" stroke="#000" stroke-linecap="square" stroke-width=".8"/>
<path d="m706 700v-313" fill="none" stroke="#000" stroke-linecap="square" stroke-width=".8"/>
<path d="m40.6 700h665" fill="none" stroke="#000" stroke-linecap="square" stroke-width=".8"/>
<path d="m40.6 388h665" fill="none" stroke="#000" stroke-linecap="square" stroke-width=".8"/>
<g clip-path="url(#j)">
<g transform="translate(58.2 380) rotate(-90) scale(.1 -.1)">
<use xlink:href="#n"/>
<use x="35.205078" xlink:href="#v"/>
<use x="96.484375" xlink:href="#t"/>
<use x="148.583984" xlink:href="#p"/>
<use x="187.792969" xlink:href="#h"/>
<use x="249.316406" xlink:href="#k"/>
<use x="290.429688" xlink:href="#DejaVuSans-20"/>
<use x="322.216797" xlink:href="#al"/>
</g>
</g>
<g clip-path="url(#j)">
<g transform="translate(58.2 448) rotate(-90) scale(.1 -.1)">
<use xlink:href="#am"/>
<use x="143.359375" xlink:href="#DejaVuSans-20"/>
<use x="175.146484" xlink:href="#t"/>
<use x="227.246094" xlink:href="#x"/>
<use x="255.029297" xlink:href="#q"/>
<use x="316.210938" xlink:href="#ag"/>
<use x="397.998047" xlink:href="#h"/>
<use x="459.521484" xlink:href="#k"/>
</g>
</g>
<g transform="translate(262 382) scale(.12 -.12)">
<defs>
<path id="at" transform="scale(.0156)" d="m628 4666h631v-4341q0-844-320-1225t-1030-381h-240v531h197q418 0 590 235 172 234 172 840v4341z"/>
<path id="au" transform="scale(.0156)" d="m628 4666h631v-4666h-631v4666z"/>
</defs>
<use xlink:href="#ai"/>
<use x="63.183594" xlink:href="#n"/>
<use x="98.388672" xlink:href="#n"/>
<use x="133.59375" xlink:href="#h"/>
<use x="195.117188" xlink:href="#w"/>
<use x="250.097656" xlink:href="#p"/>
<use x="289.306641" xlink:href="#DejaVuSans-20"/>
<use x="321.09375" xlink:href="#q"/>
<use x="382.275391" xlink:href="#n"/>
<use x="417.480469" xlink:href="#DejaVuSans-20"/>
<use x="449.267578" xlink:href="#at"/>
<use x="478.759766" xlink:href="#au"/>
<use x="508.251953" xlink:href="#ac"/>
<use x="569.335938" xlink:href="#DejaVuSans-20"/>
<use x="601.123047" xlink:href="#z"/>
<use x="660.302734" xlink:href="#t"/>
<use x="712.402344" xlink:href="#f"/>
<use x="744.189453" xlink:href="#DejaVuSans-20"/>
<use x="775.976562" xlink:href="#ac"/>
<use x="833.935547" xlink:href="#r"/>
<use x="861.71875" xlink:href="#h"/>
<use x="923.242188" xlink:href="#k"/>
<use x="964.355469" xlink:href="#DejaVuSans-20"/>
<use x="996.142578" xlink:href="#d"/>
<use x="1059.765625" xlink:href="#DejaVuSans-20"/>
<use x="1091.552734" xlink:href="#ak"/>
<use x="1130.566406" xlink:href="#t"/>
<use x="1182.666016" xlink:href="#v"/>
<use x="1243.945312" xlink:href="#s"/>
<use x="1341.357422" xlink:href="#h"/>
<use x="1402.880859" xlink:href="#DejaVuSans-20"/>
<use x="1434.667969" xlink:href="#w"/>
<use x="1489.648438" xlink:href="#q"/>
<use x="1550.830078" xlink:href="#s"/>
<use x="1648.242188" xlink:href="#s"/>
<use x="1745.654297" xlink:href="#r"/>
<use x="1773.4375" xlink:href="#p"/>
<use x="1812.646484" xlink:href="#aj"/>
</g>
<path d="m47.6 401h4q2 0 2-2v-4q0-2-2-2h-4q-2 0-2 2v4q0 2 2 2z" fill="#fff" opacity=".8" stroke="#ccc"/>
<g transform="translate(229 12.1) scale(.12 -.12)">
<defs>
<path id="as" transform="scale(.0156)" d="m1259 4147v-1753h794q441 0 681 228 241 228 241 650 0 419-241 647-240 228-681 228h-794zm-631 519h1425q785 0 1186-355 402-355 402-1039 0-691-402-1044-401-353-1186-353h-794v-1875h-631v4666z"/>
<path id="ao" transform="scale(.0156)" d="m1159 525v-1856h-578v4831h578v-531q182 312 458 463 277 152 661 152 638 0 1036-506 399-506 399-1331t-399-1332q-398-506-1036-506-384 0-661 152-276 152-458 464zm1957 1222q0 634-261 995t-717 361q-457 0-718-361t-261-995 261-995 718-361q456 0 717 361t261 995z"/>
<path id="ar" transform="scale(.0156)" d="m3116 1747q0 634-261 995t-717 361q-457 0-718-361t-261-995 261-995 718-361q456 0 717 361t261 995zm-1957 1222q182 312 458 463 277 152 661 152 638 0 1036-506 399-506 399-1331t-399-1332q-398-506-1036-506-384 0-661 152-276 152-458 464v-525h-578v4863h578v-1894z"/>
<path id="an" transform="scale(.0156)" d="m2059-325q-243-625-475-815-231-191-618-191h-460v481h338q237 0 368 113 132 112 291 531l103 262-1415 3444h609l1094-2737 1094 2737h609l-1538-3825z"/>
</defs>
<use xlink:href="#as"/>
<use x="56.677734" xlink:href="#h"/>
<use x="118.201172" xlink:href="#k"/>
<use x="159.314453" xlink:href="#n"/>
<use x="194.519531" xlink:href="#q"/>
<use x="255.701172" xlink:href="#k"/>
<use x="295.064453" xlink:href="#s"/>
<use x="392.476562" xlink:href="#v"/>
<use x="453.755859" xlink:href="#u"/>
<use x="517.134766" xlink:href="#w"/>
<use x="572.115234" xlink:href="#h"/>
<use x="633.638672" xlink:href="#DejaVuSans-20"/>
<use x="665.425781" xlink:href="#r"/>
<use x="693.208984" xlink:href="#s"/>
<use x="790.621094" xlink:href="#ao"/>
<use x="854.097656" xlink:href="#k"/>
<use x="892.960938" xlink:href="#q"/>
<use x="954.142578" xlink:href="#z"/>
<use x="1013.322266" xlink:href="#h"/>
<use x="1074.845703" xlink:href="#s"/>
<use x="1172.257812" xlink:href="#h"/>
<use x="1233.78125" xlink:href="#u"/>
<use x="1297.160156" xlink:href="#p"/>
<use x="1336.369141" xlink:href="#DejaVuSans-20"/>
<use x="1368.15625" xlink:href="#ar"/>
<use x="1431.632812" xlink:href="#an"/>
<use x="1490.8125" xlink:href="#DejaVuSans-20"/>
<use x="1522.599609" xlink:href="#w"/>
<use x="1577.580078" xlink:href="#q"/>
<use x="1638.761719" xlink:href="#u"/>
<use x="1702.140625" xlink:href="#n"/>
<use x="1737.345703" xlink:href="#r"/>
<use x="1765.128906" xlink:href="#ah"/>
<use x="1828.605469" xlink:href="#aa"/>
<use x="1891.984375" xlink:href="#k"/>
<use x="1933.097656" xlink:href="#v"/>
<use x="1994.376953" xlink:href="#p"/>
<use x="2033.585938" xlink:href="#r"/>
<use x="2061.369141" xlink:href="#q"/>
<use x="2122.550781" xlink:href="#u"/>
</g>
<defs>
<clipPath id="e">
<rect x="40.6" y="35.7" width="665" height="313"/>
</clipPath>
<clipPath id="j">
<rect x="40.6" y="388" width="665" height="313"/>
</clipPath>
</defs>
</svg>
