<?xml version="1.0" encoding="UTF-8"?>
<!DOCTYPE svg  PUBLIC '-//W3C//DTD SVG 1.1//EN'  'http://www.w3.org/Graphics/SVG/1.1/DTD/svg11.dtd'>
<svg width="720pt" height="1080pt" version="1.1" viewBox="0 0 720 1080" xmlns="http://www.w3.org/2000/svg" xmlns:xlink="http://www.w3.org/1999/xlink">
<defs>
<style type="text/css">*{stroke-linejoin: round; stroke-linecap: butt}</style>
</defs>
<path d="m0 1080h720v-1080h-720z" fill="#fff"/>
<path d="m40.6 351h676v-316h-676z" fill="#fff"/>
<path d="m94.3 351v-316" clip-path="url(#g)" fill="none" stroke="#b0b0b0" stroke-linecap="square" stroke-width=".8"/>
<defs>
<path id="f" d="m0 0v3.5" stroke="#000" stroke-width=".8"/>
</defs>
<use x="94.296956" y="351.264775" stroke="#000000" stroke-width=".8" xlink:href="#f"/>
<g transform="translate(73.4 366) scale(.1 -.1)">
<defs>
<path id="c" transform="scale(.0156)" d="m1228 531h2203v-531h-2962v531q359 372 979 998 621 627 780 809 303 340 423 576 121 236 121 464 0 372-261 606-261 235-680 235-297 0-627-103-329-103-704-313v638q381 153 712 231 332 78 607 78 725 0 1156-363 431-362 431-968 0-288-108-546-107-257-392-607-78-91-497-524-418-433-1181-1211z"/>
<path id="b" transform="scale(.0156)" d="m2034 4250q-487 0-733-480-245-479-245-1442 0-959 245-1439 246-480 733-480 491 0 736 480 246 480 246 1439 0 963-246 1442-245 480-736 480zm0 500q785 0 1199-621 414-620 414-1801 0-1178-414-1799-414-620-1199-620-784 0-1198 620-414 621-414 1799 0 1181 414 1801 414 621 1198 621z"/>
<path id="t" transform="scale(.0156)" d="m2419 4116-1594-2491h1594v2491zm-166 550h794v-3041h666v-525h-666v-1100h-628v1100h-2106v609l1940 2957z"/>
<path id="e" transform="scale(.0156)" d="m313 2009h1684v-512h-1684v512z"/>
<path id="ai" transform="scale(.0156)" d="m2034 2216q-450 0-708-241-257-241-257-662 0-422 257-663 258-241 708-241t709 242q260 243 260 662 0 421-258 662-257 241-711 241zm-631 268q-406 100-633 378-226 279-226 679 0 559 398 884 399 325 1092 325 697 0 1094-325t397-884q0-400-227-679-226-278-629-378 456-106 710-416 255-309 255-755 0-679-414-1042-414-362-1186-362-771 0-1186 362-414 363-414 1042 0 446 256 755 257 310 713 416zm-231 997q0-362 226-565 227-203 636-203 407 0 636 203 230 203 230 565 0 363-230 566-229 203-636 203-409 0-636-203-226-203-226-566z"/>
</defs>
<use xlink:href="#c"/>
<use transform="translate(63.6)" xlink:href="#b"/>
<use transform="translate(127)" xlink:href="#c"/>
<use transform="translate(191)" xlink:href="#t"/>
<use transform="translate(254)" xlink:href="#e"/>
<use transform="translate(291)" xlink:href="#b"/>
<use transform="translate(354)" xlink:href="#ai"/>
</g>
<path d="m171 351v-316" clip-path="url(#g)" fill="none" stroke="#b0b0b0" stroke-linecap="square" stroke-width=".8"/>
<use x="170.851798" y="351.264775" stroke="#000000" stroke-width=".8" xlink:href="#f"/>
<g transform="translate(150 366) scale(.1 -.1)">
<defs>
<path id="ac" transform="scale(.0156)" d="m703 97v575q238-113 481-172 244-59 479-59 625 0 954 420 330 420 377 1277-181-269-460-413-278-144-615-144-700 0-1108 423-408 424-408 1159 0 718 425 1152 425 435 1131 435 810 0 1236-621 427-620 427-1801 0-1103-524-1761-523-658-1407-658-238 0-482 47-243 47-506 141zm1256 1978q425 0 673 290 249 291 249 798 0 503-249 795-248 292-673 292t-673-292-248-795q0-507 248-798 248-290 673-290z"/>
</defs>
<use xlink:href="#c"/>
<use transform="translate(63.6)" xlink:href="#b"/>
<use transform="translate(127)" xlink:href="#c"/>
<use transform="translate(191)" xlink:href="#t"/>
<use transform="translate(254)" xlink:href="#e"/>
<use transform="translate(291)" xlink:href="#b"/>
<use transform="translate(354)" xlink:href="#ac"/>
</g>
<path d="m245 351v-316" clip-path="url(#g)" fill="none" stroke="#b0b0b0" stroke-linecap="square" stroke-width=".8"/>
<use x="244.937129" y="351.264775" stroke="#000000" stroke-width=".8" xlink:href="#f"/>
<g transform="translate(224 366) scale(.1 -.1)">
<defs>
<path id="d" transform="scale(.0156)" d="m794 531h1031v3560l-1122-225v575l1116 225h631v-4135h1031v-531h-2687v531z"/>
</defs>
<use xlink:href="#c"/>
<use transform="translate(63.6)" xlink:href="#b"/>
<use transform="translate(127)" xlink:href="#c"/>
<use transform="translate(191)" xlink:href="#t"/>
<use transform="translate(254)" xlink:href="#e"/>
<use transform="translate(291)" xlink:href="#d"/>
<use transform="translate(354)" xlink:href="#b"/>
</g>
<path d="m321 351v-316" clip-path="url(#g)" fill="none" stroke="#b0b0b0" stroke-linecap="square" stroke-width=".8"/>
<use x="321.491971" y="351.264775" stroke="#000000" stroke-width=".8" xlink:href="#f"/>
<g transform="translate(301 366) scale(.1 -.1)">
<use xlink:href="#c"/>
<use transform="translate(63.6)" xlink:href="#b"/>
<use transform="translate(127)" xlink:href="#c"/>
<use transform="translate(191)" xlink:href="#t"/>
<use transform="translate(254)" xlink:href="#e"/>
<use transform="translate(291)" xlink:href="#d"/>
<use transform="translate(354)" xlink:href="#d"/>
</g>
<path d="m396 351v-316" clip-path="url(#g)" fill="none" stroke="#b0b0b0" stroke-linecap="square" stroke-width=".8"/>
<use x="395.577303" y="351.264775" stroke="#000000" stroke-width=".8" xlink:href="#f"/>
<g transform="translate(375 366) scale(.1 -.1)">
<use xlink:href="#c"/>
<use transform="translate(63.6)" xlink:href="#b"/>
<use transform="translate(127)" xlink:href="#c"/>
<use transform="translate(191)" xlink:href="#t"/>
<use transform="translate(254)" xlink:href="#e"/>
<use transform="translate(291)" xlink:href="#d"/>
<use transform="translate(354)" xlink:href="#c"/>
</g>
<path d="m472 351v-316" clip-path="url(#g)" fill="none" stroke="#b0b0b0" stroke-linecap="square" stroke-width=".8"/>
<use x="472.132145" y="351.264775" stroke="#000000" stroke-width=".8" xlink:href="#f"/>
<g transform="translate(451 366) scale(.1 -.1)">
<defs>
<path id="o" transform="scale(.0156)" d="m691 4666h2478v-532h-1900v-1143q137 47 274 70 138 23 276 23 781 0 1237-428 457-428 457-1159 0-753-469-1171-469-417-1322-417-294 0-599 50-304 50-629 150v635q281-153 581-228t634-75q541 0 856 284 316 284 316 772 0 487-316 771-315 285-856 285-253 0-505-56-251-56-513-175v2344z"/>
</defs>
<use xlink:href="#c"/>
<use transform="translate(63.6)" xlink:href="#b"/>
<use transform="translate(127)" xlink:href="#c"/>
<use transform="translate(191)" xlink:href="#o"/>
<use transform="translate(254)" xlink:href="#e"/>
<use transform="translate(291)" xlink:href="#b"/>
<use transform="translate(354)" xlink:href="#d"/>
</g>
<path d="m549 351v-316" clip-path="url(#g)" fill="none" stroke="#b0b0b0" stroke-linecap="square" stroke-width=".8"/>
<use x="548.686987" y="351.264775" stroke="#000000" stroke-width=".8" xlink:href="#f"/>
<g transform="translate(528 366) scale(.1 -.1)">
<use xlink:href="#c"/>
<use transform="translate(63.6)" xlink:href="#b"/>
<use transform="translate(127)" xlink:href="#c"/>
<use transform="translate(191)" xlink:href="#o"/>
<use transform="translate(254)" xlink:href="#e"/>
<use transform="translate(291)" xlink:href="#b"/>
<use transform="translate(354)" xlink:href="#c"/>
</g>
<path d="m618 351v-316" clip-path="url(#g)" fill="none" stroke="#b0b0b0" stroke-linecap="square" stroke-width=".8"/>
<use x="617.833296" y="351.264775" stroke="#000000" stroke-width=".8" xlink:href="#f"/>
<g transform="translate(597 366) scale(.1 -.1)">
<defs>
<path id="af" transform="scale(.0156)" d="m2597 2516q453-97 707-404 255-306 255-756 0-690-475-1069-475-378-1350-378-293 0-604 58t-642 174v609q262-153 574-231 313-78 654-78 593 0 904 234t311 681q0 413-289 645-289 233-804 233h-544v519h569q465 0 712 186t247 536q0 359-255 551-254 193-729 193-260 0-557-57-297-56-653-174v562q360 100 674 150t592 50q719 0 1137-327 419-326 419-882 0-388-222-655t-631-370z"/>
</defs>
<use xlink:href="#c"/>
<use transform="translate(63.6)" xlink:href="#b"/>
<use transform="translate(127)" xlink:href="#c"/>
<use transform="translate(191)" xlink:href="#o"/>
<use transform="translate(254)" xlink:href="#e"/>
<use transform="translate(291)" xlink:href="#b"/>
<use transform="translate(354)" xlink:href="#af"/>
</g>
<path d="m694 351v-316" clip-path="url(#g)" fill="none" stroke="#b0b0b0" stroke-linecap="square" stroke-width=".8"/>
<use x="694.388138" y="351.264775" stroke="#000000" stroke-width=".8" xlink:href="#f"/>
<g transform="translate(673 366) scale(.1 -.1)">
<use xlink:href="#c"/>
<use transform="translate(63.6)" xlink:href="#b"/>
<use transform="translate(127)" xlink:href="#c"/>
<use transform="translate(191)" xlink:href="#o"/>
<use transform="translate(254)" xlink:href="#e"/>
<use transform="translate(291)" xlink:href="#b"/>
<use transform="translate(354)" xlink:href="#t"/>
</g>
<path d="m40.6 351h676" clip-path="url(#g)" fill="none" stroke="#b0b0b0" stroke-linecap="square" stroke-width=".8"/>
<defs>
<path id="j" d="m0 0h-3.5" stroke="#000" stroke-width=".8"/>
</defs>
<use x="40.645553" y="351.264775" stroke="#000000" stroke-width=".8" xlink:href="#j"/>
<g transform="translate(3 355) scale(.1 -.1)">
<defs>
<path id="i" transform="scale(.0156)" d="m684 794h660v-794h-660v794z"/>
<path id="k" transform="scale(.0156)" d="m4488 3438-1429-1435 1429-1428-372-378-1435 1434-1434-1434-369 378 1425 1428-1425 1435 369 378 1434-1435 1435 1435 372-378z"/>
</defs>
<use xlink:href="#b"/>
<use transform="translate(63.6)" xlink:href="#i"/>
<use transform="translate(95.4)" xlink:href="#ac"/>
<use transform="translate(159)" xlink:href="#b"/>
<use transform="translate(223)" xlink:href="#k"/>
</g>
<path d="m40.6 312h676" clip-path="url(#g)" fill="none" stroke="#b0b0b0" stroke-linecap="square" stroke-width=".8"/>
<use x="40.645553" y="311.823253" stroke="#000000" stroke-width=".8" xlink:href="#j"/>
<g transform="translate(3 316) scale(.1 -.1)">
<use xlink:href="#b"/>
<use transform="translate(63.6)" xlink:href="#i"/>
<use transform="translate(95.4)" xlink:href="#ac"/>
<use transform="translate(159)" xlink:href="#o"/>
<use transform="translate(223)" xlink:href="#k"/>
</g>
<path d="m40.6 272h676" clip-path="url(#g)" fill="none" stroke="#b0b0b0" stroke-linecap="square" stroke-width=".8"/>
<use x="40.645553" y="272.38173" stroke="#000000" stroke-width=".8" xlink:href="#j"/>
<g transform="translate(3 276) scale(.1 -.1)">
<use xlink:href="#d"/>
<use transform="translate(63.6)" xlink:href="#i"/>
<use transform="translate(95.4)" xlink:href="#b"/>
<use transform="translate(159)" xlink:href="#b"/>
<use transform="translate(223)" xlink:href="#k"/>
</g>
<path d="m40.6 233h676" clip-path="url(#g)" fill="none" stroke="#b0b0b0" stroke-linecap="square" stroke-width=".8"/>
<use x="40.645553" y="232.940208" stroke="#000000" stroke-width=".8" xlink:href="#j"/>
<g transform="translate(3 237) scale(.1 -.1)">
<use xlink:href="#d"/>
<use transform="translate(63.6)" xlink:href="#i"/>
<use transform="translate(95.4)" xlink:href="#b"/>
<use transform="translate(159)" xlink:href="#o"/>
<use transform="translate(223)" xlink:href="#k"/>
</g>
<path d="m40.6 193h676" clip-path="url(#g)" fill="none" stroke="#b0b0b0" stroke-linecap="square" stroke-width=".8"/>
<use x="40.645553" y="193.498685" stroke="#000000" stroke-width=".8" xlink:href="#j"/>
<g transform="translate(3 197) scale(.1 -.1)">
<use xlink:href="#d"/>
<use transform="translate(63.6)" xlink:href="#i"/>
<use transform="translate(95.4)" xlink:href="#d"/>
<use transform="translate(159)" xlink:href="#b"/>
<use transform="translate(223)" xlink:href="#k"/>
</g>
<path d="m40.6 154h676" clip-path="url(#g)" fill="none" stroke="#b0b0b0" stroke-linecap="square" stroke-width=".8"/>
<use x="40.645553" y="154.057163" stroke="#000000" stroke-width=".8" xlink:href="#j"/>
<g transform="translate(3 158) scale(.1 -.1)">
<use xlink:href="#d"/>
<use transform="translate(63.6)" xlink:href="#i"/>
<use transform="translate(95.4)" xlink:href="#d"/>
<use transform="translate(159)" xlink:href="#o"/>
<use transform="translate(223)" xlink:href="#k"/>
</g>
<path d="m40.6 115h676" clip-path="url(#g)" fill="none" stroke="#b0b0b0" stroke-linecap="square" stroke-width=".8"/>
<use x="40.645553" y="114.61564" stroke="#000000" stroke-width=".8" xlink:href="#j"/>
<g transform="translate(3 118) scale(.1 -.1)">
<use xlink:href="#d"/>
<use transform="translate(63.6)" xlink:href="#i"/>
<use transform="translate(95.4)" xlink:href="#c"/>
<use transform="translate(159)" xlink:href="#b"/>
<use transform="translate(223)" xlink:href="#k"/>
</g>
<path d="m40.6 75.2h676" clip-path="url(#g)" fill="none" stroke="#b0b0b0" stroke-linecap="square" stroke-width=".8"/>
<use x="40.645553" y="75.174118" stroke="#000000" stroke-width=".8" xlink:href="#j"/>
<g transform="translate(3 79) scale(.1 -.1)">
<use xlink:href="#d"/>
<use transform="translate(63.6)" xlink:href="#i"/>
<use transform="translate(95.4)" xlink:href="#c"/>
<use transform="translate(159)" xlink:href="#o"/>
<use transform="translate(223)" xlink:href="#k"/>
</g>
<path d="m40.6 35.7h676" clip-path="url(#g)" fill="none" stroke="#b0b0b0" stroke-linecap="square" stroke-width=".8"/>
<use x="40.645553" y="35.732595" stroke="#000000" stroke-width=".8" xlink:href="#j"/>
<g transform="translate(3 39.5) scale(.1 -.1)">
<use xlink:href="#d"/>
<use transform="translate(63.6)" xlink:href="#i"/>
<use transform="translate(95.4)" xlink:href="#af"/>
<use transform="translate(159)" xlink:href="#b"/>
<use transform="translate(223)" xlink:href="#k"/>
</g>
<path d="m671 293" clip-path="url(#g)" fill="none" stroke="#1f77b4" stroke-linecap="square" stroke-opacity=".9" stroke-width="1.5"/>
<defs>
<path id="a" d="m-2.5 2.5h5v-5h-5z" stroke="#1f77b4" stroke-opacity=".9"/>
</defs>
<g clip-path="url(#g)">
<use x="671.31353" y="293.173427" fill="#1f77b4" fill-opacity=".9" stroke="#1f77b4" stroke-opacity=".9" xlink:href="#a"/>
</g>
<g stroke="#1f77b4" stroke-opacity=".9">
<path d="m671 218 1.61 78.3" clip-path="url(#g)" fill="none" stroke-dasharray="1.5,2.475" stroke-width="1.5"/>
<g clip-path="url(#g)" fill="#1f77b4" fill-opacity=".9">
<use x="671.31353" y="217.972608" xlink:href="#a"/>
<use x="672.927487" y="296.236601" xlink:href="#a"/>
</g>
</g>
<path d="m671 180" clip-path="url(#g)" fill="none" stroke="#2ca02c" stroke-linecap="square" stroke-opacity=".9" stroke-width="1.5"/>
<defs>
<path id="n" d="m0-2.5-2.5 5h5z" stroke="#2ca02c" stroke-opacity=".9"/>
</defs>
<g clip-path="url(#g)">
<use x="671.31353" y="179.969255" fill="#2ca02c" fill-opacity=".9" stroke="#2ca02c" stroke-opacity=".9" xlink:href="#n"/>
</g>
<path d="m40.6 351v-316" fill="none" stroke="#000" stroke-linecap="square" stroke-width=".8"/>
<path d="m717 351v-316" fill="none" stroke="#000" stroke-linecap="square" stroke-width=".8"/>
<path d="m40.6 351h676" fill="none" stroke="#000" stroke-linecap="square" stroke-width=".8"/>
<path d="m40.6 35.7h676" fill="none" stroke="#000" stroke-linecap="square" stroke-width=".8"/>
<g clip-path="url(#g)">
<g transform="translate(58.2 264) rotate(-90) scale(.1 -.1)">
<defs>
<path id="y" transform="scale(.0156)" d="m2375 4863v-479h-550q-309 0-430-125-120-125-120-450v-309h947v-447h-947v-3053h-578v3053h-550v447h550v244q0 584 272 851 272 268 862 268h544z"/>
<path id="u" transform="scale(.0156)" d="m2194 1759q-697 0-966-159t-269-544q0-306 202-486 202-179 548-179 479 0 768 339t289 901v128h-572zm1147 238v-2e3h-575v531q-197-318-491-470t-719-152q-537 0-855 302-317 302-317 808 0 590 395 890 396 300 1180 300h807v57q0 397-261 614t-733 217q-300 0-585-72-284-72-546-216v532q315 122 612 182 297 61 578 61 760 0 1135-394 375-393 375-1193z"/>
<path id="v" transform="scale(.0156)" d="m2834 3397v-544q-243 125-506 187-262 63-544 63-428 0-642-131t-214-394q0-200 153-314t616-217l197-44q612-131 870-370t258-667q0-488-386-773-386-284-1061-284-281 0-586 55t-642 164v594q319-166 628-249 309-82 613-82 406 0 624 139 219 139 219 392 0 234-158 359-157 125-692 241l-200 47q-534 112-772 345-237 233-237 639 0 494 350 762 350 269 994 269 318 0 599-47 282-46 519-140z"/>
<path id="p" transform="scale(.0156)" d="m1172 4494v-994h1184v-447h-1184v-1900q0-428 117-550t477-122h590v-481h-590q-666 0-919 248-253 249-253 905v1900h-422v447h422v994h578z"/>
<path id="l" transform="scale(.0156)" d="m3597 1894v-281h-2644q38-594 358-905t892-311q331 0 642 81t618 244v-544q-310-131-635-200t-659-69q-838 0-1327 487-489 488-489 1320 0 859 464 1363 464 505 1252 505 706 0 1117-455 411-454 411-1235zm-575 169q-6 471-264 752-258 282-683 282-481 0-770-272t-333-766l2050 4z"/>
<path id="r" transform="scale(.0156)" d="m2631 2963q-97 56-211 82-114 27-251 27-488 0-749-317t-261-911v-1844h-578v3500h578v-544q182 319 472 473 291 155 707 155 59 0 131-8 72-7 159-23l3-590z"/>
<path id="ao" transform="scale(.0156)" d="m8863 2147v-281l-1229-1228-375 375 729 728h-7622v531h7622l-729 728 375 375 1229-1228z"/>
</defs>
<use xlink:href="#y"/>
<use transform="translate(35.2)" xlink:href="#u"/>
<use transform="translate(96.5)" xlink:href="#v"/>
<use transform="translate(149)" xlink:href="#p"/>
<use transform="translate(188)" xlink:href="#l"/>
<use transform="translate(249)" xlink:href="#r"/>
<use transform="translate(290)" xlink:href="#DejaVuSans-20"/>
<use transform="translate(322)" xlink:href="#ao"/>
</g>
</g>
<g clip-path="url(#g)">
<g transform="translate(58.2 332) rotate(-90) scale(.1 -.1)">
<defs>
<path id="ap" transform="scale(.0156)" d="m313 1866v281l1228 1228 375-375-728-728h7621v-531h-7621l728-728-375-375-1228 1228z"/>
<path id="s" transform="scale(.0156)" d="m603 4863h575v-4863h-575v4863z"/>
<path id="w" transform="scale(.0156)" d="m1959 3097q-462 0-731-361t-269-989 267-989q268-361 733-361 460 0 728 362 269 363 269 988 0 622-269 986-268 364-728 364zm0 487q750 0 1178-488 429-487 429-1349 0-859-429-1349-428-489-1178-489-753 0-1180 489-426 490-426 1349 0 862 426 1349 427 488 1180 488z"/>
<path id="ag" transform="scale(.0156)" d="m269 3500h575l719-2731 715 2731h678l719-2731 716 2731h575l-916-3500h-678l-753 2869-756-2869h-679l-915 3500z"/>
</defs>
<use xlink:href="#ap"/>
<use transform="translate(143)" xlink:href="#DejaVuSans-20"/>
<use transform="translate(175)" xlink:href="#v"/>
<use transform="translate(227)" xlink:href="#s"/>
<use transform="translate(255)" xlink:href="#w"/>
<use transform="translate(316)" xlink:href="#ag"/>
<use transform="translate(398)" xlink:href="#l"/>
<use transform="translate(460)" xlink:href="#r"/>
</g>
</g>
<g transform="translate(174 29.7) scale(.12 -.12)">
<defs>
<path id="al" transform="scale(.0156)" d="m628 4666h2950v-532h-2319v-1381h2222v-531h-2222v-1691h2375v-531h-3006v4666z"/>
<path id="aa" transform="scale(.0156)" d="m3122 3366v-538q-244 135-489 202t-495 67q-560 0-870-355-309-354-309-995t309-996q310-354 870-354 250 0 495 67t489 202v-532q-241-112-499-168-257-57-548-57-791 0-1257 497-465 497-465 1341 0 856 470 1346 471 491 1290 491 265 0 518-55 253-54 491-163z"/>
<path id="ar" transform="scale(.0156)" d="m3116 1747q0 634-261 995t-717 361q-457 0-718-361t-261-995 261-995 718-361q456 0 717 361t261 995zm-1957 1222q182 312 458 463 277 152 661 152 638 0 1036-506 399-506 399-1331t-399-1332q-398-506-1036-506-384 0-661 152-276 152-458 464v-525h-578v4863h578v-1894z"/>
<path id="ab" transform="scale(.0156)" d="m544 1381v2119h575v-2097q0-497 193-746 194-248 582-248 465 0 735 297 271 297 271 810v1984h575v-3500h-575v538q-209-319-486-474-276-155-642-155-603 0-916 375-312 375-312 1097zm1447 2203z"/>
<path id="q" transform="scale(.0156)" d="m603 3500h575v-3500h-575v3500zm0 1363h575v-729h-575v729z"/>
<path id="ak" transform="scale(.0156)" d="m2906 2969v1894h575v-4863h-575v525q-181-312-458-464-276-152-664-152-634 0-1033 506-398 507-398 1332t398 1331q399 506 1033 506 388 0 664-152 277-151 458-463zm-1959-1222q0-634 261-995t717-361 718 361q263 361 263 995t-263 995q-262 361-718 361t-717-361-261-995z"/>
<path id="aq" transform="scale(.0156)" d="m3513 2113v-2113h-575v2094q0 497-194 743-194 247-581 247-466 0-735-297-269-296-269-809v-1978h-578v4863h578v-1907q207 316 486 472 280 156 646 156 603 0 912-373 310-373 310-1098z"/>
<path id="z" transform="scale(.0156)" d="m3513 2113v-2113h-575v2094q0 497-194 743-194 247-581 247-466 0-735-297-269-296-269-809v-1978h-578v3500h578v-544q207 316 486 472 280 156 646 156 603 0 912-373 310-373 310-1098z"/>
<path id="aj" transform="scale(.0156)" d="m2906 1791q0 625-258 968-257 344-723 344-462 0-720-344-258-343-258-968 0-622 258-966t720-344q466 0 723 344 258 344 258 966zm575-1357q0-893-397-1329-396-436-1215-436-303 0-572 45t-522 139v559q253-137 500-202 247-66 503-66 566 0 847 295t281 892v285q-178-310-456-463t-666-153q-643 0-1037 490-394 491-394 1301 0 812 394 1302 394 491 1037 491 388 0 666-153t456-462v531h575v-3066z"/>
<path id="ad" transform="scale(.0156)" d="m191 3500h609l1094-2937 1094 2937h609l-1313-3500h-781l-1312 3500z"/>
<path id="ah" transform="scale(.0156)" d="m-19 4666h3947v-532h-1656v-4134h-634v4134h-1657v532z"/>
<path id="an" transform="scale(.0156)" d="m1984 4856q-418-718-622-1422-203-703-203-1425 0-721 205-1429t620-1424h-500q-468 735-701 1444t-233 1409q0 697 231 1403 232 707 703 1444h500z"/>
<path id="x" transform="scale(.0156)" d="m3328 2828q216 388 516 572t706 184q547 0 844-383 297-382 297-1088v-2113h-578v2094q0 503-179 746-178 244-543 244-447 0-707-297-259-296-259-809v-1978h-578v2094q0 506-178 748t-550 242q-441 0-701-298-259-298-259-808v-1978h-578v3500h578v-544q197 322 472 475t653 153q382 0 649-194 267-193 395-562z"/>
<path id="am" transform="scale(.0156)" d="m513 4856h500q468-737 701-1444 233-706 233-1403 0-700-233-1409t-701-1444h-500q415 716 620 1424t205 1429q0 722-205 1425-205 704-620 1422z"/>
</defs>
<use xlink:href="#al"/>
<use transform="translate(63.2)" xlink:href="#y"/>
<use transform="translate(98.4)" xlink:href="#y"/>
<use transform="translate(134)" xlink:href="#l"/>
<use transform="translate(195)" xlink:href="#aa"/>
<use transform="translate(250)" xlink:href="#p"/>
<use transform="translate(289)" xlink:href="#DejaVuSans-20"/>
<use transform="translate(321)" xlink:href="#w"/>
<use transform="translate(382)" xlink:href="#y"/>
<use transform="translate(417)" xlink:href="#DejaVuSans-20"/>
<use transform="translate(449)" xlink:href="#ar"/>
<use transform="translate(513)" xlink:href="#ab"/>
<use transform="translate(576)" xlink:href="#q"/>
<use transform="translate(604)" xlink:href="#s"/>
<use transform="translate(632)" xlink:href="#ak"/>
<use transform="translate(695)" xlink:href="#DejaVuSans-20"/>
<use transform="translate(727)" xlink:href="#ag"/>
<use transform="translate(809)" xlink:href="#q"/>
<use transform="translate(837)" xlink:href="#p"/>
<use transform="translate(876)" xlink:href="#aq"/>
<use transform="translate(939)" xlink:href="#DejaVuSans-20"/>
<use transform="translate(971)" xlink:href="#s"/>
<use transform="translate(999)" xlink:href="#u"/>
<use transform="translate(1060)" xlink:href="#p"/>
<use transform="translate(1099)" xlink:href="#l"/>
<use transform="translate(1161)" xlink:href="#v"/>
<use transform="translate(1213)" xlink:href="#p"/>
<use transform="translate(1252)" xlink:href="#DejaVuSans-20"/>
<use transform="translate(1284)" xlink:href="#aa"/>
<use transform="translate(1339)" xlink:href="#s"/>
<use transform="translate(1367)" xlink:href="#u"/>
<use transform="translate(1428)" xlink:href="#z"/>
<use transform="translate(1491)" xlink:href="#aj"/>
<use transform="translate(1555)" xlink:href="#DejaVuSans-20"/>
<use transform="translate(1586)" xlink:href="#u"/>
<use transform="translate(1648)" xlink:href="#z"/>
<use transform="translate(1711)" xlink:href="#ak"/>
<use transform="translate(1775)" xlink:href="#DejaVuSans-20"/>
<use transform="translate(1806)" xlink:href="#p"/>
<use transform="translate(1846)" xlink:href="#u"/>
<use transform="translate(1907)" xlink:href="#q"/>
<use transform="translate(1935)" xlink:href="#s"/>
<use transform="translate(1962)" xlink:href="#aa"/>
<use transform="translate(2017)" xlink:href="#u"/>
<use transform="translate(2079)" xlink:href="#s"/>
<use transform="translate(2106)" xlink:href="#s"/>
<use transform="translate(2134)" xlink:href="#DejaVuSans-20"/>
<use transform="translate(2166)" xlink:href="#ad"/>
<use transform="translate(2225)" xlink:href="#v"/>
<use transform="translate(2277)" xlink:href="#i"/>
<use transform="translate(2309)" xlink:href="#DejaVuSans-20"/>
<use transform="translate(2341)" xlink:href="#ah"/>
<use transform="translate(2399)" xlink:href="#q"/>
<use transform="translate(2427)" xlink:href="#l"/>
<use transform="translate(2488)" xlink:href="#r"/>
<use transform="translate(2529)" xlink:href="#DejaVuSans-20"/>
<use transform="translate(2561)" xlink:href="#d"/>
<use transform="translate(2625)" xlink:href="#DejaVuSans-20"/>
<use transform="translate(2656)" xlink:href="#an"/>
<use transform="translate(2696)" xlink:href="#v"/>
<use transform="translate(2748)" xlink:href="#u"/>
<use transform="translate(2809)" xlink:href="#x"/>
<use transform="translate(2906)" xlink:href="#l"/>
<use transform="translate(2968)" xlink:href="#DejaVuSans-20"/>
<use transform="translate(3e3)" xlink:href="#aa"/>
<use transform="translate(3055)" xlink:href="#w"/>
<use transform="translate(3116)" xlink:href="#x"/>
<use transform="translate(3213)" xlink:href="#x"/>
<use transform="translate(3311)" xlink:href="#q"/>
<use transform="translate(3338)" xlink:href="#p"/>
<use transform="translate(3378)" xlink:href="#am"/>
</g>
<path d="m47.6 87.8h82.6q2 0 2-2v-43q0-2-2-2h-82.6q-2 0-2 2v43q0 2 2 2z" fill="#fff" opacity=".8" stroke="#ccc"/>
<path d="m49.6 48.8h10 10" fill="none" stroke="#1f77b4" stroke-linecap="square" stroke-opacity=".9" stroke-width="1.5"/>
<use x="59.645553" y="48.831032" fill="#1f77b4" fill-opacity=".9" stroke="#1f77b4" stroke-opacity=".9" xlink:href="#a"/>
<g transform="translate(77.6 52.3) scale(.1 -.1)">
<defs>
<path id="ae" transform="scale(.0156)" d="m3513 3500-1266-1703 1331-1797h-678l-1019 1375-1018-1375h-679l1360 1831-1244 1669h678l928-1247 928 1247h679z"/>
</defs>
<use xlink:href="#s"/>
<use transform="translate(27.8)" xlink:href="#q"/>
<use transform="translate(55.6)" xlink:href="#z"/>
<use transform="translate(119)" xlink:href="#ab"/>
<use transform="translate(182)" xlink:href="#ae"/>
</g>
<path d="m49.6 63.5h10 10" fill="none" stroke="#1f77b4" stroke-dasharray="1.5,2.475" stroke-opacity=".9" stroke-width="1.5"/>
<use x="59.645553" y="63.509158" fill="#1f77b4" fill-opacity=".9" stroke="#1f77b4" stroke-opacity=".9" xlink:href="#a"/>
<g transform="translate(77.6 67) scale(.1 -.1)">
<use xlink:href="#s"/>
<use transform="translate(27.8)" xlink:href="#q"/>
<use transform="translate(55.6)" xlink:href="#z"/>
<use transform="translate(119)" xlink:href="#ab"/>
<use transform="translate(182)" xlink:href="#ae"/>
<use transform="translate(242)" xlink:href="#e"/>
<use transform="translate(275)" xlink:href="#ad"/>
<use transform="translate(334)" xlink:href="#ab"/>
<use transform="translate(398)" xlink:href="#s"/>
<use transform="translate(425)" xlink:href="#p"/>
<use transform="translate(465)" xlink:href="#r"/>
</g>
<path d="m49.6 78.2h10 10" fill="none" stroke="#2ca02c" stroke-linecap="square" stroke-opacity=".9" stroke-width="1.5"/>
<use x="59.645553" y="78.187283" fill="#2ca02c" fill-opacity=".9" stroke="#2ca02c" stroke-opacity=".9" xlink:href="#n"/>
<g transform="translate(77.6 81.7) scale(.1 -.1)">
<use xlink:href="#x"/>
<use transform="translate(97.4)" xlink:href="#u"/>
<use transform="translate(159)" xlink:href="#aa"/>
<use transform="translate(214)" xlink:href="#w"/>
<use transform="translate(275)" xlink:href="#v"/>
</g>
<path d="m40.6 706h676v-316h-676z" fill="#fff"/>
<path d="m92.7 706v-316" clip-path="url(#m)" fill="none" stroke="#b0b0b0" stroke-linecap="square" stroke-width=".8"/>
<use x="92.650615" y="705.793205" stroke="#000000" stroke-width=".8" xlink:href="#f"/>
<g transform="translate(71.8 720) scale(.1 -.1)">
<use xlink:href="#c"/>
<use transform="translate(63.6)" xlink:href="#b"/>
<use transform="translate(127)" xlink:href="#c"/>
<use transform="translate(191)" xlink:href="#t"/>
<use transform="translate(254)" xlink:href="#e"/>
<use transform="translate(291)" xlink:href="#b"/>
<use transform="translate(354)" xlink:href="#ai"/>
</g>
<path d="m169 706v-316" clip-path="url(#m)" fill="none" stroke="#b0b0b0" stroke-linecap="square" stroke-width=".8"/>
<use x="169.205457" y="705.793205" stroke="#000000" stroke-width=".8" xlink:href="#f"/>
<g transform="translate(148 720) scale(.1 -.1)">
<use xlink:href="#c"/>
<use transform="translate(63.6)" xlink:href="#b"/>
<use transform="translate(127)" xlink:href="#c"/>
<use transform="translate(191)" xlink:href="#t"/>
<use transform="translate(254)" xlink:href="#e"/>
<use transform="translate(291)" xlink:href="#b"/>
<use transform="translate(354)" xlink:href="#ac"/>
</g>
<path d="m243 706v-316" clip-path="url(#m)" fill="none" stroke="#b0b0b0" stroke-linecap="square" stroke-width=".8"/>
<use x="243.290789" y="705.793205" stroke="#000000" stroke-width=".8" xlink:href="#f"/>
<g transform="translate(222 720) scale(.1 -.1)">
<use xlink:href="#c"/>
<use transform="translate(63.6)" xlink:href="#b"/>
<use transform="translate(127)" xlink:href="#c"/>
<use transform="translate(191)" xlink:href="#t"/>
<use transform="translate(254)" xlink:href="#e"/>
<use transform="translate(291)" xlink:href="#d"/>
<use transform="translate(354)" xlink:href="#b"/>
</g>
<path d="m320 706v-316" clip-path="url(#m)" fill="none" stroke="#b0b0b0" stroke-linecap="square" stroke-width=".8"/>
<use x="319.845631" y="705.793205" stroke="#000000" stroke-width=".8" xlink:href="#f"/>
<g transform="translate(299 720) scale(.1 -.1)">
<use xlink:href="#c"/>
<use transform="translate(63.6)" xlink:href="#b"/>
<use transform="translate(127)" xlink:href="#c"/>
<use transform="translate(191)" xlink:href="#t"/>
<use transform="translate(254)" xlink:href="#e"/>
<use transform="translate(291)" xlink:href="#d"/>
<use transform="translate(354)" xlink:href="#d"/>
</g>
<path d="m394 706v-316" clip-path="url(#m)" fill="none" stroke="#b0b0b0" stroke-linecap="square" stroke-width=".8"/>
<use x="393.930962" y="705.793205" stroke="#000000" stroke-width=".8" xlink:href="#f"/>
<g transform="translate(373 720) scale(.1 -.1)">
<use xlink:href="#c"/>
<use transform="translate(63.6)" xlink:href="#b"/>
<use transform="translate(127)" xlink:href="#c"/>
<use transform="translate(191)" xlink:href="#t"/>
<use transform="translate(254)" xlink:href="#e"/>
<use transform="translate(291)" xlink:href="#d"/>
<use transform="translate(354)" xlink:href="#c"/>
</g>
<path d="m470 706v-316" clip-path="url(#m)" fill="none" stroke="#b0b0b0" stroke-linecap="square" stroke-width=".8"/>
<use x="470.485804" y="705.793205" stroke="#000000" stroke-width=".8" xlink:href="#f"/>
<g transform="translate(450 720) scale(.1 -.1)">
<use xlink:href="#c"/>
<use transform="translate(63.6)" xlink:href="#b"/>
<use transform="translate(127)" xlink:href="#c"/>
<use transform="translate(191)" xlink:href="#o"/>
<use transform="translate(254)" xlink:href="#e"/>
<use transform="translate(291)" xlink:href="#b"/>
<use transform="translate(354)" xlink:href="#d"/>
</g>
<path d="m547 706v-316" clip-path="url(#m)" fill="none" stroke="#b0b0b0" stroke-linecap="square" stroke-width=".8"/>
<use x="547.040646" y="705.793205" stroke="#000000" stroke-width=".8" xlink:href="#f"/>
<g transform="translate(526 720) scale(.1 -.1)">
<use xlink:href="#c"/>
<use transform="translate(63.6)" xlink:href="#b"/>
<use transform="translate(127)" xlink:href="#c"/>
<use transform="translate(191)" xlink:href="#o"/>
<use transform="translate(254)" xlink:href="#e"/>
<use transform="translate(291)" xlink:href="#b"/>
<use transform="translate(354)" xlink:href="#c"/>
</g>
<path d="m616 706v-316" clip-path="url(#m)" fill="none" stroke="#b0b0b0" stroke-linecap="square" stroke-width=".8"/>
<use x="616.186955" y="705.793205" stroke="#000000" stroke-width=".8" xlink:href="#f"/>
<g transform="translate(595 720) scale(.1 -.1)">
<use xlink:href="#c"/>
<use transform="translate(63.6)" xlink:href="#b"/>
<use transform="translate(127)" xlink:href="#c"/>
<use transform="translate(191)" xlink:href="#o"/>
<use transform="translate(254)" xlink:href="#e"/>
<use transform="translate(291)" xlink:href="#b"/>
<use transform="translate(354)" xlink:href="#af"/>
</g>
<path d="m693 706v-316" clip-path="url(#m)" fill="none" stroke="#b0b0b0" stroke-linecap="square" stroke-width=".8"/>
<use x="692.741797" y="705.793205" stroke="#000000" stroke-width=".8" xlink:href="#f"/>
<g transform="translate(672 720) scale(.1 -.1)">
<use xlink:href="#c"/>
<use transform="translate(63.6)" xlink:href="#b"/>
<use transform="translate(127)" xlink:href="#c"/>
<use transform="translate(191)" xlink:href="#o"/>
<use transform="translate(254)" xlink:href="#e"/>
<use transform="translate(291)" xlink:href="#b"/>
<use transform="translate(354)" xlink:href="#t"/>
</g>
<path d="m40.6 668h676" clip-path="url(#m)" fill="none" stroke="#b0b0b0" stroke-linecap="square" stroke-width=".8"/>
<use x="40.645553" y="667.579936" stroke="#000000" stroke-width=".8" xlink:href="#j"/>
<g transform="translate(3 671) scale(.1 -.1)">
<defs>
<path id="ay" transform="scale(.0156)" d="m2113 2584q-425 0-674-291-248-290-248-796 0-503 248-796 249-292 674-292t673 292q248 293 248 796 0 506-248 796-248 291-673 291zm1253 1979v-575q-238 112-480 171-242 60-480 60-625 0-955-422-329-422-376-1275 184 272 462 417 279 145 613 145 703 0 1111-427 408-426 408-1160 0-719-425-1154-425-434-1131-434-810 0-1238 620-428 621-428 1799 0 1106 525 1764t1409 658q238 0 480-47t505-140z"/>
</defs>
<use xlink:href="#b"/>
<use transform="translate(63.6)" xlink:href="#i"/>
<use transform="translate(95.4)" xlink:href="#ay"/>
<use transform="translate(159)" xlink:href="#b"/>
<use transform="translate(223)" xlink:href="#k"/>
</g>
<path d="m40.6 608h676" clip-path="url(#m)" fill="none" stroke="#b0b0b0" stroke-linecap="square" stroke-width=".8"/>
<use x="40.645553" y="607.902692" stroke="#000000" stroke-width=".8" xlink:href="#j"/>
<g transform="translate(3 612) scale(.1 -.1)">
<defs>
<path id="ax" transform="scale(.0156)" d="m525 4666h3e3v-269l-1694-4397h-659l1594 4134h-2241v532z"/>
</defs>
<use xlink:href="#b"/>
<use transform="translate(63.6)" xlink:href="#i"/>
<use transform="translate(95.4)" xlink:href="#ax"/>
<use transform="translate(159)" xlink:href="#b"/>
<use transform="translate(223)" xlink:href="#k"/>
</g>
<path d="m40.6 548h676" clip-path="url(#m)" fill="none" stroke="#b0b0b0" stroke-linecap="square" stroke-width=".8"/>
<use x="40.645553" y="548.225449" stroke="#000000" stroke-width=".8" xlink:href="#j"/>
<g transform="translate(3 552) scale(.1 -.1)">
<use xlink:href="#b"/>
<use transform="translate(63.6)" xlink:href="#i"/>
<use transform="translate(95.4)" xlink:href="#ai"/>
<use transform="translate(159)" xlink:href="#b"/>
<use transform="translate(223)" xlink:href="#k"/>
</g>
<path d="m40.6 489h676" clip-path="url(#m)" fill="none" stroke="#b0b0b0" stroke-linecap="square" stroke-width=".8"/>
<use x="40.645553" y="488.548205" stroke="#000000" stroke-width=".8" xlink:href="#j"/>
<g transform="translate(3 492) scale(.1 -.1)">
<use xlink:href="#b"/>
<use transform="translate(63.6)" xlink:href="#i"/>
<use transform="translate(95.4)" xlink:href="#ac"/>
<use transform="translate(159)" xlink:href="#b"/>
<use transform="translate(223)" xlink:href="#k"/>
</g>
<path d="m40.6 429h676" clip-path="url(#m)" fill="none" stroke="#b0b0b0" stroke-linecap="square" stroke-width=".8"/>
<use x="40.645553" y="428.870962" stroke="#000000" stroke-width=".8" xlink:href="#j"/>
<g transform="translate(3 433) scale(.1 -.1)">
<use xlink:href="#d"/>
<use transform="translate(63.6)" xlink:href="#i"/>
<use transform="translate(95.4)" xlink:href="#b"/>
<use transform="translate(159)" xlink:href="#b"/>
<use transform="translate(223)" xlink:href="#k"/>
</g>
<g stroke="#1f77b4" stroke-opacity=".9">
<path d="m71.4 590 11.8 17.9 17.6-17.9h9.72l0.0158-11.9 0.235 35.8 7.26-17.9 17.2 5.97h34.7l14-23.9 0.76 23.9 2.21 5.97 17.3 5.97 14.3-17.9 14-167 6.67 167 4.48-167 52.4 263 2.27-59.7 32.1-11.9 2.79-11.9 2.33 23.9 2.52 5.97 1.83 11.9 3.11-5.97h7.24l2.71 17.9 2.53-11.9 2.34 5.97 2.57-29.8 2.43 35.8 2.52-17.9 2.18-5.97 2.63-5.97 2.64-65.6 2.41-5.97h2.23l2.58 5.97 2.35 11 2.49 11 2.65-5.16 1.8-8.26 2.88-1.69 2.22 5.85 2.55-2.71 2.88 18.1 2.55-16.9 2.48-0.143 2.19-16.9 2.47 16.5 2.09-2.47 2.55 2.58 2.44-0.885 3.05-3.77 2.38-5.73 2.32 7.47 2.11 8.28 2.18-6.88 3.28-4.81 2.23 1.14 2.71-2.13 1.68 8.93 3.3-20.8 2.06-0.693 4.87-11.5 2.7 8.22 2.18 8.81 2.39-13.6 2.9 13.2 2.5-9.02 2.36-0.03 2.58 2.26 2.34 0.536 2.52 0.243 2.55-7.38 2.15 14.4 2.75-35.3 2.66 24.7 2.3 3.97 2.64-3.6 2.27-5.07 2.67 1.7 2.07 11.3 3.01-19.9 1.89 24.5 2.85-1.18 1.83-3.42 3.12-47.2 0.26 3.41 2-11.5 2.75 2.15 2.34 7.31 2.38 4.46 2.7-15.2 2.45 0.602 2.43 0.392 0.195-4.76 2.36 8.31 1.6 0.956 0.785-5.4 2.37 3.71 2.04 14.9 2.54-13.2 3.01 9.59 1.18-6.2 1.29-14.3 2.46-4.14 2.3 9.81 1.98-15.8 2.38 19.7 2.41-6.37 0.725-6.15 1.79 7.6 3.12-6.86 2.13 11.2 2.88-4.26 2.37-4.95 2.56 3.74 2.46-4.41 2.3 6.65 2.7-5.03 2.38-1.28 2.03 5.89 2.73-27.5 2.23 31.5 2.99 2.41 2.06-16.7 2.84 0.706 2.26 4.66 4.54-9.29 2.47-0.393 3.13 6.9 2.19-9.03 2.42 4.05 2.54-2.57 2.66 9.63 2.31-11.5 2.41 5.13 2.46 6.35 0.48-2.84 2.16 3.32 2.48-8.47 2.46 7.22 2.54 0.505 2.21-1.55 2.52-9.4 2.32 11.4 1.85 2.78 0.933-13.5 2.48 7.48 2.31-5.4 2.6-2.32 2.3 3.71 2.21-10.5 2.79 11.7 2.52-11.3 1.54-14.8 1.04 27.3 2.49-39.7 2.49 52.8 2.43-8.63 2.38 4.68 1.61-9.5 3.38 6.6 2.5-4.03 2.37-1.05 2.11-3.81 2.97 7.07v0" clip-path="url(#m)" fill="none" stroke-linecap="square" stroke-width="1.5"/>
<g clip-path="url(#m)" fill="#1f77b4" fill-opacity=".9">
<use x="71.388926" y="589.999519" xlink:href="#a"/>
<use x="83.138939" y="607.902692" xlink:href="#a"/>
<use x="100.772191" y="589.999519" xlink:href="#a"/>
<use x="110.487602" y="589.999519" xlink:href="#a"/>
<use x="110.503408" y="578.064071" xlink:href="#a"/>
<use x="110.738497" y="613.870417" xlink:href="#a"/>
<use x="117.999603" y="595.967244" xlink:href="#a"/>
<use x="135.246422" y="601.934968" xlink:href="#a"/>
<use x="152.629751" y="601.934968" xlink:href="#a"/>
<use x="169.955028" y="601.934968" xlink:href="#a"/>
<use x="183.906108" y="578.064071" xlink:href="#a"/>
<use x="184.666226" y="601.934968" xlink:href="#a"/>
<use x="186.881211" y="607.902692" xlink:href="#a"/>
<use x="204.138606" y="613.870417" xlink:href="#a"/>
<use x="218.454739" y="595.967244" xlink:href="#a"/>
<use x="232.403132" y="428.870962" xlink:href="#a"/>
<use x="232.429027" y="428.870962" xlink:href="#a"/>
<use x="239.098994" y="595.967244" xlink:href="#a"/>
<use x="243.583643" y="428.870962" xlink:href="#a"/>
<use x="295.935133" y="691.450833" xlink:href="#a"/>
<use x="298.207169" y="631.77359" xlink:href="#a"/>
<use x="330.320731" y="619.838141" xlink:href="#a"/>
<use x="333.108791" y="607.902692" xlink:href="#a"/>
<use x="335.440879" y="631.77359" xlink:href="#a"/>
<use x="337.960838" y="637.741314" xlink:href="#a"/>
<use x="339.786675" y="649.676763" xlink:href="#a"/>
<use x="342.89703" y="643.709038" xlink:href="#a"/>
<use x="345.235177" y="643.709038" xlink:href="#a"/>
<use x="347.956326" y="643.709038" xlink:href="#a"/>
<use x="350.137728" y="643.709038" xlink:href="#a"/>
<use x="352.849845" y="661.612211" xlink:href="#a"/>
<use x="355.38401" y="649.676763" xlink:href="#a"/>
<use x="357.727044" y="655.644487" xlink:href="#a"/>
<use x="360.296593" y="625.805865" xlink:href="#a"/>
<use x="362.725403" y="661.612211" xlink:href="#a"/>
<use x="365.242103" y="643.709038" xlink:href="#a"/>
<use x="367.41716" y="637.741314" xlink:href="#a"/>
<use x="370.050104" y="631.77359" xlink:href="#a"/>
<use x="372.693481" y="566.128622" xlink:href="#a"/>
<use x="375.105828" y="560.160898" xlink:href="#a"/>
<use x="377.332103" y="560.160898" xlink:href="#a"/>
<use x="379.907626" y="566.128622" xlink:href="#a"/>
<use x="382.259121" y="577.113572" xlink:href="#a"/>
<use x="384.749354" y="588.121467" xlink:href="#a"/>
<use x="387.402021" y="582.960371" xlink:href="#a"/>
<use x="389.203134" y="574.704003" xlink:href="#a"/>
<use x="392.085088" y="573.012874" xlink:href="#a"/>
<use x="394.307648" y="578.860554" xlink:href="#a"/>
<use x="396.862563" y="576.153897" xlink:href="#a"/>
<use x="399.745288" y="594.295595" xlink:href="#a"/>
<use x="402.299889" y="577.442562" xlink:href="#a"/>
<use x="404.778118" y="577.299991" xlink:href="#a"/>
<use x="406.964006" y="560.449706" xlink:href="#a"/>
<use x="409.433575" y="576.913871" xlink:href="#a"/>
<use x="411.523999" y="574.442961" xlink:href="#a"/>
<use x="414.075598" y="577.021648" xlink:href="#a"/>
<use x="416.519042" y="576.136607" xlink:href="#a"/>
<use x="419.569145" y="572.369378" xlink:href="#a"/>
<use x="421.950251" y="566.638851" xlink:href="#a"/>
<use x="424.266561" y="574.107996" xlink:href="#a"/>
<use x="426.372905" y="582.383924" xlink:href="#a"/>
<use x="428.54839" y="575.508347" xlink:href="#a"/>
<use x="431.82598" y="570.697271" xlink:href="#a"/>
<use x="434.05983" y="571.832332" xlink:href="#a"/>
<use x="436.765231" y="569.704378" xlink:href="#a"/>
<use x="438.441354" y="578.631781" xlink:href="#a"/>
<use x="441.74121" y="557.822572" xlink:href="#a"/>
<use x="443.803023" y="557.129226" xlink:href="#a"/>
<use x="448.674791" y="545.653879" xlink:href="#a"/>
<use x="451.377591" y="553.878203" xlink:href="#a"/>
<use x="453.558421" y="562.687695" xlink:href="#a"/>
<use x="455.946672" y="549.080446" xlink:href="#a"/>
<use x="458.847576" y="562.319632" xlink:href="#a"/>
<use x="461.343497" y="553.29747" xlink:href="#a"/>
<use x="463.704195" y="553.267515" xlink:href="#a"/>
<use x="466.279404" y="555.528014" xlink:href="#a"/>
<use x="468.620066" y="556.063946" xlink:href="#a"/>
<use x="471.141854" y="556.307017" xlink:href="#a"/>
<use x="473.695282" y="548.927875" xlink:href="#a"/>
<use x="475.841385" y="563.297096" xlink:href="#a"/>
<use x="478.595375" y="527.965448" xlink:href="#a"/>
<use x="481.253501" y="552.647242" xlink:href="#a"/>
<use x="483.551089" y="556.618238" xlink:href="#a"/>
<use x="486.192494" y="553.017758" xlink:href="#a"/>
<use x="488.462815" y="547.951256" xlink:href="#a"/>
<use x="491.130287" y="549.650773" xlink:href="#a"/>
<use x="493.201161" y="560.923842" xlink:href="#a"/>
<use x="496.215365" y="541.046015" xlink:href="#a"/>
<use x="498.109657" y="565.592364" xlink:href="#a"/>
<use x="500.959656" y="564.410974" xlink:href="#a"/>
<use x="502.792125" y="560.991683" xlink:href="#a"/>
<use x="505.911597" y="513.815673" xlink:href="#a"/>
<use x="506.172011" y="517.222425" xlink:href="#a"/>
<use x="508.169828" y="505.708948" xlink:href="#a"/>
<use x="510.919017" y="507.855609" xlink:href="#a"/>
<use x="513.261994" y="515.170092" xlink:href="#a"/>
<use x="515.645444" y="519.62739" xlink:href="#a"/>
<use x="518.341784" y="504.392399" xlink:href="#a"/>
<use x="520.79103" y="504.994273" xlink:href="#a"/>
<use x="523.217639" y="505.386084" xlink:href="#a"/>
<use x="523.412942" y="500.622753" xlink:href="#a"/>
<use x="525.772726" y="508.936095" xlink:href="#a"/>
<use x="527.376964" y="509.89245" xlink:href="#a"/>
<use x="528.162292" y="504.496542" xlink:href="#a"/>
<use x="530.528992" y="508.205054" xlink:href="#a"/>
<use x="532.566825" y="523.055366" xlink:href="#a"/>
<use x="535.105476" y="509.899424" xlink:href="#a"/>
<use x="538.110534" y="519.484606" xlink:href="#a"/>
<use x="539.290383" y="513.282018" xlink:href="#a"/>
<use x="540.576787" y="498.972324" xlink:href="#a"/>
<use x="543.032007" y="494.829549" xlink:href="#a"/>
<use x="545.334054" y="504.636689" xlink:href="#a"/>
<use x="547.317723" y="488.823322" xlink:href="#a"/>
<use x="549.698372" y="508.503615" xlink:href="#a"/>
<use x="552.111776" y="502.13708" xlink:href="#a"/>
<use x="552.836994" y="495.985169" xlink:href="#a"/>
<use x="554.624446" y="503.585294" xlink:href="#a"/>
<use x="557.740803" y="496.720382" xlink:href="#a"/>
<use x="559.865812" y="507.943126" xlink:href="#a"/>
<use x="562.744478" y="503.680791" xlink:href="#a"/>
<use x="565.115924" y="498.732129" xlink:href="#a"/>
<use x="567.680728" y="502.469241" xlink:href="#a"/>
<use x="570.136519" y="498.056888" xlink:href="#a"/>
<use x="572.43305" y="504.707814" xlink:href="#a"/>
<use x="575.129877" y="499.677553" xlink:href="#a"/>
<use x="577.513812" y="498.394885" xlink:href="#a"/>
<use x="579.540526" y="504.285469" xlink:href="#a"/>
<use x="582.268478" y="476.752655" xlink:href="#a"/>
<use x="584.497298" y="508.287934" xlink:href="#a"/>
<use x="587.49118" y="510.695654" xlink:href="#a"/>
<use x="589.547334" y="493.983705" xlink:href="#a"/>
<use x="592.392245" y="494.689345" xlink:href="#a"/>
<use x="594.655191" y="499.345825" xlink:href="#a"/>
<use x="597.355161" y="493.673738" xlink:href="#a"/>
<use x="599.199406" y="490.055543" xlink:href="#a"/>
<use x="601.669517" y="489.662226" xlink:href="#a"/>
<use x="604.800823" y="496.567187" xlink:href="#a"/>
<use x="606.986312" y="487.540599" xlink:href="#a"/>
<use x="609.403431" y="491.589638" xlink:href="#a"/>
<use x="611.94214" y="489.022303" xlink:href="#a"/>
<use x="614.597493" y="498.651654" xlink:href="#a"/>
<use x="616.903456" y="487.151776" xlink:href="#a"/>
<use x="619.317804" y="492.283119" xlink:href="#a"/>
<use x="621.780341" y="498.628988" xlink:href="#a"/>
<use x="622.260838" y="495.789981" xlink:href="#a"/>
<use x="624.416172" y="499.106428" xlink:href="#a"/>
<use x="626.895144" y="490.63928" xlink:href="#a"/>
<use x="629.357566" y="497.858803" xlink:href="#a"/>
<use x="631.89759" y="498.363969" xlink:href="#a"/>
<use x="634.108117" y="496.815547" xlink:href="#a"/>
<use x="636.624017" y="487.41204" xlink:href="#a"/>
<use x="638.943128" y="498.768511" xlink:href="#a"/>
<use x="640.79106" y="501.546229" xlink:href="#a"/>
<use x="641.7239" y="488.015033" xlink:href="#a"/>
<use x="644.205559" y="495.492773" xlink:href="#a"/>
<use x="646.517181" y="490.09503" xlink:href="#a"/>
<use x="649.121772" y="487.773975" xlink:href="#a"/>
<use x="651.417703" y="491.484047" xlink:href="#a"/>
<use x="653.632631" y="480.961411" xlink:href="#a"/>
<use x="656.423607" y="492.626289" xlink:href="#a"/>
<use x="658.948282" y="481.278898" xlink:href="#a"/>
<use x="660.485896" y="466.484748" xlink:href="#a"/>
<use x="661.52512" y="493.788014" xlink:href="#a"/>
<use x="664.010437" y="454.087108" xlink:href="#a"/>
<use x="666.5027" y="506.881441" xlink:href="#a"/>
<use x="668.934711" y="498.253966" xlink:href="#a"/>
<use x="671.31353" y="502.938034" xlink:href="#a"/>
<use x="672.927487" y="493.435839" xlink:href="#a"/>
<use x="676.305572" y="500.033818" xlink:href="#a"/>
<use x="678.809039" y="496.002424" xlink:href="#a"/>
<use x="681.176368" y="494.952811" xlink:href="#a"/>
<use x="683.287114" y="491.147613" xlink:href="#a"/>
<use x="686.256387" y="498.21521" xlink:href="#a"/>
</g>
</g>
<g stroke="#1f77b4" stroke-opacity=".9">
<path d="m185 620 33.8 25.5 20.6-13.6 15.8 5.97 18.6 35.8 14.9 11.9h4.84l2.62-5.97h2.27l2.75 5.97 2.51-11.9 1.89 11.9 2.82-5.97h7.67l2.47-5.97h2.22l2.62 5.97 1.85-5.97 2.9 5.97 2.41-11.9 2.79 5.97 2.33-5.97 1.26 5.97 1.26-5.97 1.83 5.97h3.11l2.34-5.97 2.72 5.97h2.18l2.71-5.97 2.53-5.97 2.34 11.9 2.57 5.97 0.186-5.97 2.24-11.9 2.52 5.97h2.18l2.63-5.97 2.64-59.7 2.41-29.8 2.23-5.97 2.58 5.97 2.35 22.2 2.49-0.394 1.8 1.84 0.854 2.71 1.8-3.62 2.4-2.89 0.485 1.63 2.22-3.8 2.55 4.2 2.88 10.6 2.55-15.9 1.87 4.53 0.608-1.12 2.19-2.26 0.709-5.32 1.76 1.79 2.09 1.43 1.23 3.42 1.32 0.31 2.44-4.29 3.05 6.77 1.8-0.5 0.584 0.164 1.24-0.516 1.07 2.11 1.91-3.82 0.198-2.27 2.18-2.09 3.28 3.58 2.23-1.5 2.71 0.295 0.715-2.73 0.961 1.01 3.3-11.9 2.06 3.43 4.87-0.251 2.7-13.3 2.18 2.79 2.39 2.21 2.9-6.02 2.5 2.63 2.36 3.92 2.58-0.391 2.34-3.28 2.52 6.9 2.55-4.53 2.15-1.2 2.75-1.86 2.66-0.733 2.3 7.45 2.64-1.58 2.27-4.85 4.74 0.834 2.07-1.74 0.941 2.01 1.89-3.5 2.85 3.32 1.83-1.15 3.12-45.1 0.26-1.74 2-15.4 1.99-1.79 0.763 1.18 2.34 5.19 2.38 0.0982 2.7 2.19 2.45 11.8 2.43-2.93 0.195 3.1 1.29-4.55 1.07 4.58 1.6-12.8 0.785 4.97 2.37-3.21 2.04-3 2.54-0.082 3.01 10.8 1.18 2.47 1.29-1.08 2.46-12.9 2.3 0.434 1.98-17.1 2.38 6.89 2.41-0.33 0.725-0.826 1.79 8.98 3.12 0.258 2.13-7.34 2.88 2.46 2.37 9.33 2.56-3.79 2.46-1.89 2.3 4.14 2.7-5.16 2.38 2.05 1.89-1.27 0.14-2.62 2.73 0.942 2.23 2.81 2.99-1.27 2.06-1.24 2.84-3.97 2.26 1.19 2.7 1.16 1.84-3.02 2.47 3.46 3.13-0.768 2.19-2.03 0.95 5.48 0.267-0.365 1.2 2.26 1.81-0.593 0.724-0.741 2.66 12.2 2.05-7.98 0.255-2.43 2.41-3.81 2.46 11.2 0.48-7.19 2.16 3.81 2.48-6.17 2.46 2.08 2.54-3.58 2.21 3.38 2.52-1.76 2.32 9.14 1.85-25.4 0.933-1.11 2.48-5.12 2.31 5.81 2.28 2.56 0.326-2.31 2.3 2.37 2.21-1.8 2.79-2.64 1.99 2.78 0.533 6.22 1.54-4.96 1.04-7.43 2.49 1.55 2.49 2.86 2.43 7.52 2.38-0.804 1.61-1.65 3.22 1.17 0.158 2.87 2.5-0.503 1.97 1.85 0.0263 36.6 0.37 1.31 2.11 0.0275 2.97-3.58" clip-path="url(#m)" fill="none" stroke-dasharray="1.5,2.475" stroke-width="1.5"/>
<g clip-path="url(#m)" fill="#1f77b4" fill-opacity=".9">
<use x="184.666226" y="619.838141" xlink:href="#a"/>
<use x="218.454739" y="645.324411" xlink:href="#a"/>
<use x="239.098994" y="631.77359" xlink:href="#a"/>
<use x="254.912468" y="637.741314" xlink:href="#a"/>
<use x="273.537926" y="673.54766" xlink:href="#a"/>
<use x="288.471179" y="685.483109" xlink:href="#a"/>
<use x="290.909392" y="685.483109" xlink:href="#a"/>
<use x="293.312135" y="685.483109" xlink:href="#a"/>
<use x="295.935133" y="679.515384" xlink:href="#a"/>
<use x="298.207169" y="679.515384" xlink:href="#a"/>
<use x="300.960588" y="685.483109" xlink:href="#a"/>
<use x="303.470143" y="673.54766" xlink:href="#a"/>
<use x="305.363235" y="685.483109" xlink:href="#a"/>
<use x="308.184937" y="679.515384" xlink:href="#a"/>
<use x="310.680658" y="679.515384" xlink:href="#a"/>
<use x="313.145882" y="679.515384" xlink:href="#a"/>
<use x="315.855284" y="679.515384" xlink:href="#a"/>
<use x="318.323823" y="673.54766" xlink:href="#a"/>
<use x="320.539438" y="673.54766" xlink:href="#a"/>
<use x="323.157119" y="679.515384" xlink:href="#a"/>
<use x="325.009653" y="673.54766" xlink:href="#a"/>
<use x="327.910671" y="679.515384" xlink:href="#a"/>
<use x="330.320731" y="667.579936" xlink:href="#a"/>
<use x="333.108791" y="673.54766" xlink:href="#a"/>
<use x="335.440879" y="667.579936" xlink:href="#a"/>
<use x="336.700815" y="673.54766" xlink:href="#a"/>
<use x="337.960838" y="667.579936" xlink:href="#a"/>
<use x="339.786675" y="673.54766" xlink:href="#a"/>
<use x="340.897441" y="673.54766" xlink:href="#a"/>
<use x="342.89703" y="673.54766" xlink:href="#a"/>
<use x="345.235177" y="667.579936" xlink:href="#a"/>
<use x="347.956326" y="673.54766" xlink:href="#a"/>
<use x="350.137728" y="673.54766" xlink:href="#a"/>
<use x="352.849845" y="667.579936" xlink:href="#a"/>
<use x="355.38401" y="661.612211" xlink:href="#a"/>
<use x="357.727044" y="673.54766" xlink:href="#a"/>
<use x="360.296593" y="679.515384" xlink:href="#a"/>
<use x="360.482835" y="673.54766" xlink:href="#a"/>
<use x="362.725403" y="661.612211" xlink:href="#a"/>
<use x="365.242103" y="667.579936" xlink:href="#a"/>
<use x="367.41716" y="667.579936" xlink:href="#a"/>
<use x="370.050104" y="661.612211" xlink:href="#a"/>
<use x="372.155277" y="613.218274" xlink:href="#a"/>
<use x="372.693481" y="601.934968" xlink:href="#a"/>
<use x="374.701503" y="578.064071" xlink:href="#a"/>
<use x="375.105828" y="572.096346" xlink:href="#a"/>
<use x="377.332103" y="566.128622" xlink:href="#a"/>
<use x="379.907626" y="572.096346" xlink:href="#a"/>
<use x="382.259121" y="594.325041" xlink:href="#a"/>
<use x="384.749354" y="593.930882" xlink:href="#a"/>
<use x="386.547838" y="595.769207" xlink:href="#a"/>
<use x="387.402021" y="598.477881" xlink:href="#a"/>
<use x="389.203134" y="594.861888" xlink:href="#a"/>
<use x="391.599789" y="591.967111" xlink:href="#a"/>
<use x="392.085088" y="593.601918" xlink:href="#a"/>
<use x="394.307648" y="589.801063" xlink:href="#a"/>
<use x="396.862563" y="593.999743" xlink:href="#a"/>
<use x="399.745288" y="604.632258" xlink:href="#a"/>
<use x="402.299889" y="588.769838" xlink:href="#a"/>
<use x="404.170601" y="593.303191" xlink:href="#a"/>
<use x="404.778118" y="592.183312" xlink:href="#a"/>
<use x="406.964006" y="589.920503" xlink:href="#a"/>
<use x="407.672848" y="584.603161" xlink:href="#a"/>
<use x="409.433575" y="586.389161" xlink:href="#a"/>
<use x="411.523999" y="587.81938" xlink:href="#a"/>
<use x="412.756468" y="591.243037" xlink:href="#a"/>
<use x="414.075598" y="591.553235" xlink:href="#a"/>
<use x="416.519042" y="587.266442" xlink:href="#a"/>
<use x="419.569145" y="594.031599" xlink:href="#a"/>
<use x="420.938352" y="593.701912" xlink:href="#a"/>
<use x="421.365915" y="593.531157" xlink:href="#a"/>
<use x="421.950251" y="593.69564" xlink:href="#a"/>
<use x="423.191809" y="593.179528" xlink:href="#a"/>
<use x="424.266561" y="595.285301" xlink:href="#a"/>
<use x="426.17483" y="591.464626" xlink:href="#a"/>
<use x="426.372905" y="589.195138" xlink:href="#a"/>
<use x="428.54839" y="587.103228" xlink:href="#a"/>
<use x="431.82598" y="590.687948" xlink:href="#a"/>
<use x="434.05983" y="589.190431" xlink:href="#a"/>
<use x="436.765231" y="589.485816" xlink:href="#a"/>
<use x="437.48056" y="586.752491" xlink:href="#a"/>
<use x="438.441354" y="587.758769" xlink:href="#a"/>
<use x="441.74121" y="575.900066" xlink:href="#a"/>
<use x="443.803023" y="579.334921" xlink:href="#a"/>
<use x="448.674791" y="579.084069" xlink:href="#a"/>
<use x="451.377591" y="565.795215" xlink:href="#a"/>
<use x="453.558421" y="568.583758" xlink:href="#a"/>
<use x="455.946672" y="570.788942" xlink:href="#a"/>
<use x="458.847576" y="564.765525" xlink:href="#a"/>
<use x="461.343497" y="567.392835" xlink:href="#a"/>
<use x="463.704195" y="571.315039" xlink:href="#a"/>
<use x="466.279404" y="570.924309" xlink:href="#a"/>
<use x="468.620066" y="567.643778" xlink:href="#a"/>
<use x="471.141854" y="574.548643" xlink:href="#a"/>
<use x="473.695282" y="570.015276" xlink:href="#a"/>
<use x="475.841385" y="568.811154" xlink:href="#a"/>
<use x="478.595375" y="566.949131" xlink:href="#a"/>
<use x="481.253501" y="566.216026" xlink:href="#a"/>
<use x="483.551089" y="573.668032" xlink:href="#a"/>
<use x="486.192494" y="572.086352" xlink:href="#a"/>
<use x="488.462815" y="567.232202" xlink:href="#a"/>
<use x="493.201161" y="568.065982" xlink:href="#a"/>
<use x="495.274807" y="566.328966" xlink:href="#a"/>
<use x="496.215365" y="568.343169" xlink:href="#a"/>
<use x="498.109657" y="564.838849" xlink:href="#a"/>
<use x="500.959656" y="568.158453" xlink:href="#a"/>
<use x="502.792125" y="567.004701" xlink:href="#a"/>
<use x="505.911597" y="521.894238" xlink:href="#a"/>
<use x="506.172011" y="520.152837" xlink:href="#a"/>
<use x="508.169828" y="504.718322" xlink:href="#a"/>
<use x="510.156241" y="502.9309" xlink:href="#a"/>
<use x="510.919017" y="504.108524" xlink:href="#a"/>
<use x="513.261994" y="509.29361" xlink:href="#a"/>
<use x="515.645444" y="509.391787" xlink:href="#a"/>
<use x="518.341784" y="511.583764" xlink:href="#a"/>
<use x="520.79103" y="523.395279" xlink:href="#a"/>
<use x="523.217639" y="520.464106" xlink:href="#a"/>
<use x="523.412942" y="523.561664" xlink:href="#a"/>
<use x="524.699717" y="519.007739" xlink:href="#a"/>
<use x="525.772726" y="523.58757" xlink:href="#a"/>
<use x="527.376964" y="510.774207" xlink:href="#a"/>
<use x="528.162292" y="515.746173" xlink:href="#a"/>
<use x="530.528992" y="512.536085" xlink:href="#a"/>
<use x="532.566825" y="509.534231" xlink:href="#a"/>
<use x="535.105476" y="509.452211" xlink:href="#a"/>
<use x="538.110534" y="520.218918" xlink:href="#a"/>
<use x="539.290383" y="522.689012" xlink:href="#a"/>
<use x="540.576787" y="521.606271" xlink:href="#a"/>
<use x="543.032007" y="508.667745" xlink:href="#a"/>
<use x="545.334054" y="509.101846" xlink:href="#a"/>
<use x="547.317723" y="492.0122" xlink:href="#a"/>
<use x="549.698372" y="498.898329" xlink:href="#a"/>
<use x="552.111776" y="498.567889" xlink:href="#a"/>
<use x="552.836994" y="497.741843" xlink:href="#a"/>
<use x="554.624446" y="506.718012" xlink:href="#a"/>
<use x="557.740803" y="506.97595" xlink:href="#a"/>
<use x="559.865812" y="499.630973" xlink:href="#a"/>
<use x="562.744478" y="502.094943" xlink:href="#a"/>
<use x="565.115924" y="511.427809" xlink:href="#a"/>
<use x="567.680728" y="507.63729" xlink:href="#a"/>
<use x="570.136519" y="505.744827" xlink:href="#a"/>
<use x="572.43305" y="509.888791" xlink:href="#a"/>
<use x="575.129877" y="504.731048" xlink:href="#a"/>
<use x="577.513812" y="506.783867" xlink:href="#a"/>
<use x="579.400559" y="505.509816" xlink:href="#a"/>
<use x="579.540526" y="502.888805" xlink:href="#a"/>
<use x="582.268478" y="503.830778" xlink:href="#a"/>
<use x="584.497298" y="506.638889" xlink:href="#a"/>
<use x="587.49118" y="505.370428" xlink:href="#a"/>
<use x="589.547334" y="504.127302" xlink:href="#a"/>
<use x="592.392245" y="500.159405" xlink:href="#a"/>
<use x="594.655191" y="501.348085" xlink:href="#a"/>
<use x="597.355161" y="502.510706" xlink:href="#a"/>
<use x="599.199406" y="499.489518" xlink:href="#a"/>
<use x="601.669517" y="502.951088" xlink:href="#a"/>
<use x="604.800823" y="502.182761" xlink:href="#a"/>
<use x="606.986312" y="500.149638" xlink:href="#a"/>
<use x="607.93653" y="505.629009" xlink:href="#a"/>
<use x="608.203575" y="505.26351" xlink:href="#a"/>
<use x="609.403431" y="507.526384" xlink:href="#a"/>
<use x="611.218179" y="506.933364" xlink:href="#a"/>
<use x="611.94214" y="506.192314" xlink:href="#a"/>
<use x="614.597493" y="518.355182" xlink:href="#a"/>
<use x="616.648845" y="510.378527" xlink:href="#a"/>
<use x="616.903456" y="507.947025" xlink:href="#a"/>
<use x="619.317804" y="504.136777" xlink:href="#a"/>
<use x="621.780341" y="515.376261" xlink:href="#a"/>
<use x="622.260838" y="508.185657" xlink:href="#a"/>
<use x="624.416172" y="512.000631" xlink:href="#a"/>
<use x="626.895144" y="505.826181" xlink:href="#a"/>
<use x="629.357566" y="507.910601" xlink:href="#a"/>
<use x="631.89759" y="504.331387" xlink:href="#a"/>
<use x="634.108117" y="507.715524" xlink:href="#a"/>
<use x="636.624017" y="505.952143" xlink:href="#a"/>
<use x="638.943128" y="515.096757" xlink:href="#a"/>
<use x="640.79106" y="489.682912" xlink:href="#a"/>
<use x="641.7239" y="488.567951" xlink:href="#a"/>
<use x="644.205559" y="483.452149" xlink:href="#a"/>
<use x="646.517181" y="489.258447" xlink:href="#a"/>
<use x="648.795276" y="491.822866" xlink:href="#a"/>
<use x="649.121772" y="489.513604" xlink:href="#a"/>
<use x="651.417703" y="491.884966" xlink:href="#a"/>
<use x="653.632631" y="490.087653" xlink:href="#a"/>
<use x="656.423607" y="487.451494" xlink:href="#a"/>
<use x="658.415308" y="490.230434" xlink:href="#a"/>
<use x="658.948282" y="496.453263" xlink:href="#a"/>
<use x="660.485896" y="491.498131" xlink:href="#a"/>
<use x="661.52512" y="484.065167" xlink:href="#a"/>
<use x="664.010437" y="485.61707" xlink:href="#a"/>
<use x="666.5027" y="488.477303" xlink:href="#a"/>
<use x="668.934711" y="495.999053" xlink:href="#a"/>
<use x="671.31353" y="495.194844" xlink:href="#a"/>
<use x="672.927487" y="493.543359" xlink:href="#a"/>
<use x="676.147226" y="494.713684" xlink:href="#a"/>
<use x="676.305572" y="497.582484" xlink:href="#a"/>
<use x="678.809039" y="497.079474" xlink:href="#a"/>
<use x="680.779989" y="498.928273" xlink:href="#a"/>
<use x="680.806285" y="535.497823" xlink:href="#a"/>
<use x="681.176368" y="536.804056" xlink:href="#a"/>
<use x="683.287114" y="536.831545" xlink:href="#a"/>
<use x="686.256387" y="533.253869" xlink:href="#a"/>
</g>
</g>
<g stroke="#2ca02c" stroke-opacity=".9">
<path d="m185 587 390-102 76.3-7.18 8.18-1.11 1.54 2.79 1.04-0.939 2.49 0.2 2.49-28.9 2.43 32.5 2.38-32.7 1.61 29.9 3.38-43 2.5 13.6 2.37 26.8 2.11-27 2.97-45" clip-path="url(#m)" fill="none" stroke-linecap="square" stroke-width="1.5"/>
<g clip-path="url(#m)" fill="#2ca02c" fill-opacity=".9">
<use x="184.666226" y="586.951627" xlink:href="#n"/>
<use x="574.439328" y="484.721058" xlink:href="#n"/>
<use x="650.768742" y="477.541237" xlink:href="#n"/>
<use x="658.948282" y="476.430803" xlink:href="#n"/>
<use x="660.485896" y="479.217503" xlink:href="#n"/>
<use x="661.52512" y="478.278393" xlink:href="#n"/>
<use x="664.010437" y="478.478489" xlink:href="#n"/>
<use x="666.5027" y="449.577864" xlink:href="#n"/>
<use x="668.934711" y="482.032293" xlink:href="#n"/>
<use x="671.31353" y="449.302449" xlink:href="#n"/>
<use x="672.927487" y="479.174078" xlink:href="#n"/>
<use x="676.305572" y="436.12863" xlink:href="#n"/>
<use x="678.809039" y="449.744103" xlink:href="#n"/>
<use x="681.176368" y="476.585804" xlink:href="#n"/>
<use x="683.287114" y="449.62872" xlink:href="#n"/>
<use x="686.256387" y="404.603397" xlink:href="#n"/>
</g>
</g>
<path d="m40.6 706v-316" fill="none" stroke="#000" stroke-linecap="square" stroke-width=".8"/>
<path d="m717 706v-316" fill="none" stroke="#000" stroke-linecap="square" stroke-width=".8"/>
<path d="m40.6 706h676" fill="none" stroke="#000" stroke-linecap="square" stroke-width=".8"/>
<path d="m40.6 390h676" fill="none" stroke="#000" stroke-linecap="square" stroke-width=".8"/>
<g clip-path="url(#m)">
<g transform="translate(58.2 421) rotate(-90) scale(.1 -.1)">
<use xlink:href="#y"/>
<use transform="translate(35.2)" xlink:href="#u"/>
<use transform="translate(96.5)" xlink:href="#v"/>
<use transform="translate(149)" xlink:href="#p"/>
<use transform="translate(188)" xlink:href="#l"/>
<use transform="translate(249)" xlink:href="#r"/>
<use transform="translate(290)" xlink:href="#DejaVuSans-20"/>
<use transform="translate(322)" xlink:href="#ao"/>
</g>
</g>
<g clip-path="url(#m)">
<g transform="translate(58.2 489) rotate(-90) scale(.1 -.1)">
<use xlink:href="#ap"/>
<use transform="translate(143)" xlink:href="#DejaVuSans-20"/>
<use transform="translate(175)" xlink:href="#v"/>
<use transform="translate(227)" xlink:href="#s"/>
<use transform="translate(255)" xlink:href="#w"/>
<use transform="translate(316)" xlink:href="#ag"/>
<use transform="translate(398)" xlink:href="#l"/>
<use transform="translate(460)" xlink:href="#r"/>
</g>
</g>
<g transform="translate(232 384) scale(.12 -.12)">
<use xlink:href="#al"/>
<use transform="translate(63.2)" xlink:href="#y"/>
<use transform="translate(98.4)" xlink:href="#y"/>
<use transform="translate(134)" xlink:href="#l"/>
<use transform="translate(195)" xlink:href="#aa"/>
<use transform="translate(250)" xlink:href="#p"/>
<use transform="translate(289)" xlink:href="#DejaVuSans-20"/>
<use transform="translate(321)" xlink:href="#w"/>
<use transform="translate(382)" xlink:href="#y"/>
<use transform="translate(417)" xlink:href="#DejaVuSans-20"/>
<use transform="translate(449)" xlink:href="#y"/>
<use transform="translate(484)" xlink:href="#r"/>
<use transform="translate(523)" xlink:href="#l"/>
<use transform="translate(585)" xlink:href="#l"/>
<use transform="translate(646)" xlink:href="#DejaVuSans-20"/>
<use transform="translate(678)" xlink:href="#p"/>
<use transform="translate(717)" xlink:href="#aq"/>
<use transform="translate(781)" xlink:href="#r"/>
<use transform="translate(820)" xlink:href="#l"/>
<use transform="translate(881)" xlink:href="#u"/>
<use transform="translate(942)" xlink:href="#ak"/>
<use transform="translate(1006)" xlink:href="#q"/>
<use transform="translate(1034)" xlink:href="#z"/>
<use transform="translate(1097)" xlink:href="#aj"/>
<use transform="translate(1161)" xlink:href="#DejaVuSans-20"/>
<use transform="translate(1192)" xlink:href="#ad"/>
<use transform="translate(1252)" xlink:href="#v"/>
<use transform="translate(1304)" xlink:href="#i"/>
<use transform="translate(1335)" xlink:href="#DejaVuSans-20"/>
<use transform="translate(1367)" xlink:href="#ah"/>
<use transform="translate(1425)" xlink:href="#q"/>
<use transform="translate(1453)" xlink:href="#l"/>
<use transform="translate(1514)" xlink:href="#r"/>
<use transform="translate(1556)" xlink:href="#DejaVuSans-20"/>
<use transform="translate(1587)" xlink:href="#d"/>
<use transform="translate(1651)" xlink:href="#DejaVuSans-20"/>
<use transform="translate(1683)" xlink:href="#an"/>
<use transform="translate(1722)" xlink:href="#v"/>
<use transform="translate(1774)" xlink:href="#u"/>
<use transform="translate(1835)" xlink:href="#x"/>
<use transform="translate(1933)" xlink:href="#l"/>
<use transform="translate(1994)" xlink:href="#DejaVuSans-20"/>
<use transform="translate(2026)" xlink:href="#aa"/>
<use transform="translate(2081)" xlink:href="#w"/>
<use transform="translate(2142)" xlink:href="#x"/>
<use transform="translate(2239)" xlink:href="#x"/>
<use transform="translate(2337)" xlink:href="#q"/>
<use transform="translate(2365)" xlink:href="#p"/>
<use transform="translate(2404)" xlink:href="#am"/>
</g>
<path d="m47.6 442h82.6q2 0 2-2v-43q0-2-2-2h-82.6q-2 0-2 2v43q0 2 2 2z" fill="#fff" opacity=".8" stroke="#ccc"/>
<path d="m49.6 403h10 10" fill="none" stroke="#1f77b4" stroke-linecap="square" stroke-opacity=".9" stroke-width="1.5"/>
<use x="59.645553" y="403.359462" fill="#1f77b4" fill-opacity=".9" stroke="#1f77b4" stroke-opacity=".9" xlink:href="#a"/>
<g transform="translate(77.6 407) scale(.1 -.1)">
<use xlink:href="#s"/>
<use transform="translate(27.8)" xlink:href="#q"/>
<use transform="translate(55.6)" xlink:href="#z"/>
<use transform="translate(119)" xlink:href="#ab"/>
<use transform="translate(182)" xlink:href="#ae"/>
</g>
<path d="m49.6 418h10 10" fill="none" stroke="#1f77b4" stroke-dasharray="1.5,2.475" stroke-opacity=".9" stroke-width="1.5"/>
<use x="59.645553" y="418.037587" fill="#1f77b4" fill-opacity=".9" stroke="#1f77b4" stroke-opacity=".9" xlink:href="#a"/>
<g transform="translate(77.6 422) scale(.1 -.1)">
<use xlink:href="#s"/>
<use transform="translate(27.8)" xlink:href="#q"/>
<use transform="translate(55.6)" xlink:href="#z"/>
<use transform="translate(119)" xlink:href="#ab"/>
<use transform="translate(182)" xlink:href="#ae"/>
<use transform="translate(242)" xlink:href="#e"/>
<use transform="translate(275)" xlink:href="#ad"/>
<use transform="translate(334)" xlink:href="#ab"/>
<use transform="translate(398)" xlink:href="#s"/>
<use transform="translate(425)" xlink:href="#p"/>
<use transform="translate(465)" xlink:href="#r"/>
</g>
<path d="m49.6 433h10 10" fill="none" stroke="#2ca02c" stroke-linecap="square" stroke-opacity=".9" stroke-width="1.5"/>
<use x="59.645553" y="432.715712" fill="#2ca02c" fill-opacity=".9" stroke="#2ca02c" stroke-opacity=".9" xlink:href="#n"/>
<g transform="translate(77.6 436) scale(.1 -.1)">
<use xlink:href="#x"/>
<use transform="translate(97.4)" xlink:href="#u"/>
<use transform="translate(159)" xlink:href="#aa"/>
<use transform="translate(214)" xlink:href="#w"/>
<use transform="translate(275)" xlink:href="#v"/>
</g>
<path d="m40.6 1060h676v-316h-676z" fill="#fff"/>
<path d="m94.3 1060v-316" clip-path="url(#h)" fill="none" stroke="#b0b0b0" stroke-linecap="square" stroke-width=".8"/>
<use x="94.296956" y="1060.321635" stroke="#000000" stroke-width=".8" xlink:href="#f"/>
<g transform="translate(73.4 1075) scale(.1 -.1)">
<use xlink:href="#c"/>
<use transform="translate(63.6)" xlink:href="#b"/>
<use transform="translate(127)" xlink:href="#c"/>
<use transform="translate(191)" xlink:href="#t"/>
<use transform="translate(254)" xlink:href="#e"/>
<use transform="translate(291)" xlink:href="#b"/>
<use transform="translate(354)" xlink:href="#ai"/>
</g>
<path d="m171 1060v-316" clip-path="url(#h)" fill="none" stroke="#b0b0b0" stroke-linecap="square" stroke-width=".8"/>
<use x="170.851798" y="1060.321635" stroke="#000000" stroke-width=".8" xlink:href="#f"/>
<g transform="translate(150 1075) scale(.1 -.1)">
<use xlink:href="#c"/>
<use transform="translate(63.6)" xlink:href="#b"/>
<use transform="translate(127)" xlink:href="#c"/>
<use transform="translate(191)" xlink:href="#t"/>
<use transform="translate(254)" xlink:href="#e"/>
<use transform="translate(291)" xlink:href="#b"/>
<use transform="translate(354)" xlink:href="#ac"/>
</g>
<path d="m245 1060v-316" clip-path="url(#h)" fill="none" stroke="#b0b0b0" stroke-linecap="square" stroke-width=".8"/>
<use x="244.937129" y="1060.321635" stroke="#000000" stroke-width=".8" xlink:href="#f"/>
<g transform="translate(224 1075) scale(.1 -.1)">
<use xlink:href="#c"/>
<use transform="translate(63.6)" xlink:href="#b"/>
<use transform="translate(127)" xlink:href="#c"/>
<use transform="translate(191)" xlink:href="#t"/>
<use transform="translate(254)" xlink:href="#e"/>
<use transform="translate(291)" xlink:href="#d"/>
<use transform="translate(354)" xlink:href="#b"/>
</g>
<path d="m321 1060v-316" clip-path="url(#h)" fill="none" stroke="#b0b0b0" stroke-linecap="square" stroke-width=".8"/>
<use x="321.491971" y="1060.321635" stroke="#000000" stroke-width=".8" xlink:href="#f"/>
<g transform="translate(301 1075) scale(.1 -.1)">
<use xlink:href="#c"/>
<use transform="translate(63.6)" xlink:href="#b"/>
<use transform="translate(127)" xlink:href="#c"/>
<use transform="translate(191)" xlink:href="#t"/>
<use transform="translate(254)" xlink:href="#e"/>
<use transform="translate(291)" xlink:href="#d"/>
<use transform="translate(354)" xlink:href="#d"/>
</g>
<path d="m396 1060v-316" clip-path="url(#h)" fill="none" stroke="#b0b0b0" stroke-linecap="square" stroke-width=".8"/>
<use x="395.577303" y="1060.321635" stroke="#000000" stroke-width=".8" xlink:href="#f"/>
<g transform="translate(375 1075) scale(.1 -.1)">
<use xlink:href="#c"/>
<use transform="translate(63.6)" xlink:href="#b"/>
<use transform="translate(127)" xlink:href="#c"/>
<use transform="translate(191)" xlink:href="#t"/>
<use transform="translate(254)" xlink:href="#e"/>
<use transform="translate(291)" xlink:href="#d"/>
<use transform="translate(354)" xlink:href="#c"/>
</g>
<path d="m472 1060v-316" clip-path="url(#h)" fill="none" stroke="#b0b0b0" stroke-linecap="square" stroke-width=".8"/>
<use x="472.132145" y="1060.321635" stroke="#000000" stroke-width=".8" xlink:href="#f"/>
<g transform="translate(451 1075) scale(.1 -.1)">
<use xlink:href="#c"/>
<use transform="translate(63.6)" xlink:href="#b"/>
<use transform="translate(127)" xlink:href="#c"/>
<use transform="translate(191)" xlink:href="#o"/>
<use transform="translate(254)" xlink:href="#e"/>
<use transform="translate(291)" xlink:href="#b"/>
<use transform="translate(354)" xlink:href="#d"/>
</g>
<path d="m549 1060v-316" clip-path="url(#h)" fill="none" stroke="#b0b0b0" stroke-linecap="square" stroke-width=".8"/>
<use x="548.686987" y="1060.321635" stroke="#000000" stroke-width=".8" xlink:href="#f"/>
<g transform="translate(528 1075) scale(.1 -.1)">
<use xlink:href="#c"/>
<use transform="translate(63.6)" xlink:href="#b"/>
<use transform="translate(127)" xlink:href="#c"/>
<use transform="translate(191)" xlink:href="#o"/>
<use transform="translate(254)" xlink:href="#e"/>
<use transform="translate(291)" xlink:href="#b"/>
<use transform="translate(354)" xlink:href="#c"/>
</g>
<path d="m618 1060v-316" clip-path="url(#h)" fill="none" stroke="#b0b0b0" stroke-linecap="square" stroke-width=".8"/>
<use x="617.833296" y="1060.321635" stroke="#000000" stroke-width=".8" xlink:href="#f"/>
<g transform="translate(597 1075) scale(.1 -.1)">
<use xlink:href="#c"/>
<use transform="translate(63.6)" xlink:href="#b"/>
<use transform="translate(127)" xlink:href="#c"/>
<use transform="translate(191)" xlink:href="#o"/>
<use transform="translate(254)" xlink:href="#e"/>
<use transform="translate(291)" xlink:href="#b"/>
<use transform="translate(354)" xlink:href="#af"/>
</g>
<path d="m694 1060v-316" clip-path="url(#h)" fill="none" stroke="#b0b0b0" stroke-linecap="square" stroke-width=".8"/>
<use x="694.388138" y="1060.321635" stroke="#000000" stroke-width=".8" xlink:href="#f"/>
<g transform="translate(673 1075) scale(.1 -.1)">
<use xlink:href="#c"/>
<use transform="translate(63.6)" xlink:href="#b"/>
<use transform="translate(127)" xlink:href="#c"/>
<use transform="translate(191)" xlink:href="#o"/>
<use transform="translate(254)" xlink:href="#e"/>
<use transform="translate(291)" xlink:href="#b"/>
<use transform="translate(354)" xlink:href="#t"/>
</g>
<path d="m40.6 1060h676" clip-path="url(#h)" fill="none" stroke="#b0b0b0" stroke-linecap="square" stroke-width=".8"/>
<use x="40.645553" y="1060.321635" stroke="#000000" stroke-width=".8" xlink:href="#j"/>
<g transform="translate(3 1064) scale(.1 -.1)">
<use xlink:href="#b"/>
<use transform="translate(63.6)" xlink:href="#i"/>
<use transform="translate(95.4)" xlink:href="#ac"/>
<use transform="translate(159)" xlink:href="#b"/>
<use transform="translate(223)" xlink:href="#k"/>
</g>
<path d="m40.6 1021h676" clip-path="url(#h)" fill="none" stroke="#b0b0b0" stroke-linecap="square" stroke-width=".8"/>
<use x="40.645553" y="1020.880112" stroke="#000000" stroke-width=".8" xlink:href="#j"/>
<g transform="translate(3 1025) scale(.1 -.1)">
<use xlink:href="#b"/>
<use transform="translate(63.6)" xlink:href="#i"/>
<use transform="translate(95.4)" xlink:href="#ac"/>
<use transform="translate(159)" xlink:href="#o"/>
<use transform="translate(223)" xlink:href="#k"/>
</g>
<path d="m40.6 981h676" clip-path="url(#h)" fill="none" stroke="#b0b0b0" stroke-linecap="square" stroke-width=".8"/>
<use x="40.645553" y="981.43859" stroke="#000000" stroke-width=".8" xlink:href="#j"/>
<g transform="translate(3 985) scale(.1 -.1)">
<use xlink:href="#d"/>
<use transform="translate(63.6)" xlink:href="#i"/>
<use transform="translate(95.4)" xlink:href="#b"/>
<use transform="translate(159)" xlink:href="#b"/>
<use transform="translate(223)" xlink:href="#k"/>
</g>
<path d="m40.6 942h676" clip-path="url(#h)" fill="none" stroke="#b0b0b0" stroke-linecap="square" stroke-width=".8"/>
<use x="40.645553" y="941.997067" stroke="#000000" stroke-width=".8" xlink:href="#j"/>
<g transform="translate(3 946) scale(.1 -.1)">
<use xlink:href="#d"/>
<use transform="translate(63.6)" xlink:href="#i"/>
<use transform="translate(95.4)" xlink:href="#b"/>
<use transform="translate(159)" xlink:href="#o"/>
<use transform="translate(223)" xlink:href="#k"/>
</g>
<path d="m40.6 903h676" clip-path="url(#h)" fill="none" stroke="#b0b0b0" stroke-linecap="square" stroke-width=".8"/>
<use x="40.645553" y="902.555545" stroke="#000000" stroke-width=".8" xlink:href="#j"/>
<g transform="translate(3 906) scale(.1 -.1)">
<use xlink:href="#d"/>
<use transform="translate(63.6)" xlink:href="#i"/>
<use transform="translate(95.4)" xlink:href="#d"/>
<use transform="translate(159)" xlink:href="#b"/>
<use transform="translate(223)" xlink:href="#k"/>
</g>
<path d="m40.6 863h676" clip-path="url(#h)" fill="none" stroke="#b0b0b0" stroke-linecap="square" stroke-width=".8"/>
<use x="40.645553" y="863.114022" stroke="#000000" stroke-width=".8" xlink:href="#j"/>
<g transform="translate(3 867) scale(.1 -.1)">
<use xlink:href="#d"/>
<use transform="translate(63.6)" xlink:href="#i"/>
<use transform="translate(95.4)" xlink:href="#d"/>
<use transform="translate(159)" xlink:href="#o"/>
<use transform="translate(223)" xlink:href="#k"/>
</g>
<path d="m40.6 824h676" clip-path="url(#h)" fill="none" stroke="#b0b0b0" stroke-linecap="square" stroke-width=".8"/>
<use x="40.645553" y="823.6725" stroke="#000000" stroke-width=".8" xlink:href="#j"/>
<g transform="translate(3 827) scale(.1 -.1)">
<use xlink:href="#d"/>
<use transform="translate(63.6)" xlink:href="#i"/>
<use transform="translate(95.4)" xlink:href="#c"/>
<use transform="translate(159)" xlink:href="#b"/>
<use transform="translate(223)" xlink:href="#k"/>
</g>
<path d="m40.6 784h676" clip-path="url(#h)" fill="none" stroke="#b0b0b0" stroke-linecap="square" stroke-width=".8"/>
<use x="40.645553" y="784.230977" stroke="#000000" stroke-width=".8" xlink:href="#j"/>
<g transform="translate(3 788) scale(.1 -.1)">
<use xlink:href="#d"/>
<use transform="translate(63.6)" xlink:href="#i"/>
<use transform="translate(95.4)" xlink:href="#c"/>
<use transform="translate(159)" xlink:href="#o"/>
<use transform="translate(223)" xlink:href="#k"/>
</g>
<path d="m40.6 745h676" clip-path="url(#h)" fill="none" stroke="#b0b0b0" stroke-linecap="square" stroke-width=".8"/>
<use x="40.645553" y="744.789455" stroke="#000000" stroke-width=".8" xlink:href="#j"/>
<g transform="translate(3 749) scale(.1 -.1)">
<use xlink:href="#d"/>
<use transform="translate(63.6)" xlink:href="#i"/>
<use transform="translate(95.4)" xlink:href="#af"/>
<use transform="translate(159)" xlink:href="#b"/>
<use transform="translate(223)" xlink:href="#k"/>
</g>
<path d="m671 989" clip-path="url(#h)" fill="none" stroke="#1f77b4" stroke-linecap="square" stroke-opacity=".9" stroke-width="1.5"/>
<g clip-path="url(#h)">
<use x="671.31353" y="988.744875" fill="#1f77b4" fill-opacity=".9" stroke="#1f77b4" stroke-opacity=".9" xlink:href="#a"/>
</g>
<path d="m671 963" clip-path="url(#h)" fill="none" stroke="#1f77b4" stroke-dasharray="1.5,2.475" stroke-opacity=".9" stroke-width="1.5"/>
<g clip-path="url(#h)">
<use x="671.31353" y="963.030918" fill="#1f77b4" fill-opacity=".9" stroke="#1f77b4" stroke-opacity=".9" xlink:href="#a"/>
</g>
<path d="m671 967" clip-path="url(#h)" fill="none" stroke="#2ca02c" stroke-linecap="square" stroke-opacity=".9" stroke-width="1.5"/>
<g clip-path="url(#h)">
<use x="671.31353" y="966.706485" fill="#2ca02c" fill-opacity=".9" stroke="#2ca02c" stroke-opacity=".9" xlink:href="#n"/>
</g>
<path d="m40.6 1060v-316" fill="none" stroke="#000" stroke-linecap="square" stroke-width=".8"/>
<path d="m717 1060v-316" fill="none" stroke="#000" stroke-linecap="square" stroke-width=".8"/>
<path d="m40.6 1060h676" fill="none" stroke="#000" stroke-linecap="square" stroke-width=".8"/>
<path d="m40.6 745h676" fill="none" stroke="#000" stroke-linecap="square" stroke-width=".8"/>
<g clip-path="url(#h)">
<g transform="translate(58.2 974) rotate(-90) scale(.1 -.1)">
<use xlink:href="#y"/>
<use transform="translate(35.2)" xlink:href="#u"/>
<use transform="translate(96.5)" xlink:href="#v"/>
<use transform="translate(149)" xlink:href="#p"/>
<use transform="translate(188)" xlink:href="#l"/>
<use transform="translate(249)" xlink:href="#r"/>
<use transform="translate(290)" xlink:href="#DejaVuSans-20"/>
<use transform="translate(322)" xlink:href="#ao"/>
</g>
</g>
<g clip-path="url(#h)">
<g transform="translate(58.2 1042) rotate(-90) scale(.1 -.1)">
<use xlink:href="#ap"/>
<use transform="translate(143)" xlink:href="#DejaVuSans-20"/>
<use transform="translate(175)" xlink:href="#v"/>
<use transform="translate(227)" xlink:href="#s"/>
<use transform="translate(255)" xlink:href="#w"/>
<use transform="translate(316)" xlink:href="#ag"/>
<use transform="translate(398)" xlink:href="#l"/>
<use transform="translate(460)" xlink:href="#r"/>
</g>
</g>
<g transform="translate(268 739) scale(.12 -.12)">
<defs>
<path id="av" transform="scale(.0156)" d="m628 4666h631v-4341q0-844-320-1225t-1030-381h-240v531h197q418 0 590 235 172 234 172 840v4341z"/>
<path id="aw" transform="scale(.0156)" d="m628 4666h631v-4666h-631v4666z"/>
</defs>
<use xlink:href="#al"/>
<use transform="translate(63.2)" xlink:href="#y"/>
<use transform="translate(98.4)" xlink:href="#y"/>
<use transform="translate(134)" xlink:href="#l"/>
<use transform="translate(195)" xlink:href="#aa"/>
<use transform="translate(250)" xlink:href="#p"/>
<use transform="translate(289)" xlink:href="#DejaVuSans-20"/>
<use transform="translate(321)" xlink:href="#w"/>
<use transform="translate(382)" xlink:href="#y"/>
<use transform="translate(417)" xlink:href="#DejaVuSans-20"/>
<use transform="translate(449)" xlink:href="#av"/>
<use transform="translate(479)" xlink:href="#aw"/>
<use transform="translate(508)" xlink:href="#ah"/>
<use transform="translate(569)" xlink:href="#DejaVuSans-20"/>
<use transform="translate(601)" xlink:href="#ad"/>
<use transform="translate(660)" xlink:href="#v"/>
<use transform="translate(712)" xlink:href="#i"/>
<use transform="translate(744)" xlink:href="#DejaVuSans-20"/>
<use transform="translate(776)" xlink:href="#ah"/>
<use transform="translate(834)" xlink:href="#q"/>
<use transform="translate(862)" xlink:href="#l"/>
<use transform="translate(923)" xlink:href="#r"/>
<use transform="translate(964)" xlink:href="#DejaVuSans-20"/>
<use transform="translate(996)" xlink:href="#d"/>
<use transform="translate(1060)" xlink:href="#DejaVuSans-20"/>
<use transform="translate(1092)" xlink:href="#an"/>
<use transform="translate(1131)" xlink:href="#v"/>
<use transform="translate(1183)" xlink:href="#u"/>
<use transform="translate(1244)" xlink:href="#x"/>
<use transform="translate(1341)" xlink:href="#l"/>
<use transform="translate(1403)" xlink:href="#DejaVuSans-20"/>
<use transform="translate(1435)" xlink:href="#aa"/>
<use transform="translate(1490)" xlink:href="#w"/>
<use transform="translate(1551)" xlink:href="#x"/>
<use transform="translate(1648)" xlink:href="#x"/>
<use transform="translate(1746)" xlink:href="#q"/>
<use transform="translate(1773)" xlink:href="#p"/>
<use transform="translate(1813)" xlink:href="#am"/>
</g>
<path d="m47.6 797h82.6q2 0 2-2v-43q0-2-2-2h-82.6q-2 0-2 2v43q0 2 2 2z" fill="#fff" opacity=".8" stroke="#ccc"/>
<path d="m49.6 758h10 10" fill="none" stroke="#1f77b4" stroke-linecap="square" stroke-opacity=".9" stroke-width="1.5"/>
<use x="59.645553" y="757.887892" fill="#1f77b4" fill-opacity=".9" stroke="#1f77b4" stroke-opacity=".9" xlink:href="#a"/>
<g transform="translate(77.6 761) scale(.1 -.1)">
<use xlink:href="#s"/>
<use transform="translate(27.8)" xlink:href="#q"/>
<use transform="translate(55.6)" xlink:href="#z"/>
<use transform="translate(119)" xlink:href="#ab"/>
<use transform="translate(182)" xlink:href="#ae"/>
</g>
<path d="m49.6 773h10 10" fill="none" stroke="#1f77b4" stroke-dasharray="1.5,2.475" stroke-opacity=".9" stroke-width="1.5"/>
<use x="59.645553" y="772.566017" fill="#1f77b4" fill-opacity=".9" stroke="#1f77b4" stroke-opacity=".9" xlink:href="#a"/>
<g transform="translate(77.6 776) scale(.1 -.1)">
<use xlink:href="#s"/>
<use transform="translate(27.8)" xlink:href="#q"/>
<use transform="translate(55.6)" xlink:href="#z"/>
<use transform="translate(119)" xlink:href="#ab"/>
<use transform="translate(182)" xlink:href="#ae"/>
<use transform="translate(242)" xlink:href="#e"/>
<use transform="translate(275)" xlink:href="#ad"/>
<use transform="translate(334)" xlink:href="#ab"/>
<use transform="translate(398)" xlink:href="#s"/>
<use transform="translate(425)" xlink:href="#p"/>
<use transform="translate(465)" xlink:href="#r"/>
</g>
<path d="m49.6 787h10 10" fill="none" stroke="#2ca02c" stroke-linecap="square" stroke-opacity=".9" stroke-width="1.5"/>
<use x="59.645553" y="787.244142" fill="#2ca02c" fill-opacity=".9" stroke="#2ca02c" stroke-opacity=".9" xlink:href="#n"/>
<g transform="translate(77.6 791) scale(.1 -.1)">
<use xlink:href="#x"/>
<use transform="translate(97.4)" xlink:href="#u"/>
<use transform="translate(159)" xlink:href="#aa"/>
<use transform="translate(214)" xlink:href="#w"/>
<use transform="translate(275)" xlink:href="#v"/>
</g>
<g transform="translate(229 12.1) scale(.12 -.12)">
<defs>
<path id="au" transform="scale(.0156)" d="m1259 4147v-1753h794q441 0 681 228 241 228 241 650 0 419-241 647-240 228-681 228h-794zm-631 519h1425q785 0 1186-355 402-355 402-1039 0-691-402-1044-401-353-1186-353h-794v-1875h-631v4666z"/>
<path id="at" transform="scale(.0156)" d="m1159 525v-1856h-578v4831h578v-531q182 312 458 463 277 152 661 152 638 0 1036-506 399-506 399-1331t-399-1332q-398-506-1036-506-384 0-661 152-276 152-458 464zm1957 1222q0 634-261 995t-717 361q-457 0-718-361t-261-995 261-995 718-361q456 0 717 361t261 995z"/>
<path id="as" transform="scale(.0156)" d="m2059-325q-243-625-475-815-231-191-618-191h-460v481h338q237 0 368 113 132 112 291 531l103 262-1415 3444h609l1094-2737 1094 2737h609l-1538-3825z"/>
</defs>
<use xlink:href="#au"/>
<use transform="translate(56.7)" xlink:href="#l"/>
<use transform="translate(118)" xlink:href="#r"/>
<use transform="translate(159)" xlink:href="#y"/>
<use transform="translate(195)" xlink:href="#w"/>
<use transform="translate(256)" xlink:href="#r"/>
<use transform="translate(295)" xlink:href="#x"/>
<use transform="translate(392)" xlink:href="#u"/>
<use transform="translate(454)" xlink:href="#z"/>
<use transform="translate(517)" xlink:href="#aa"/>
<use transform="translate(572)" xlink:href="#l"/>
<use transform="translate(634)" xlink:href="#DejaVuSans-20"/>
<use transform="translate(665)" xlink:href="#q"/>
<use transform="translate(693)" xlink:href="#x"/>
<use transform="translate(791)" xlink:href="#at"/>
<use transform="translate(854)" xlink:href="#r"/>
<use transform="translate(893)" xlink:href="#w"/>
<use transform="translate(954)" xlink:href="#ad"/>
<use transform="translate(1013)" xlink:href="#l"/>
<use transform="translate(1075)" xlink:href="#x"/>
<use transform="translate(1172)" xlink:href="#l"/>
<use transform="translate(1234)" xlink:href="#z"/>
<use transform="translate(1297)" xlink:href="#p"/>
<use transform="translate(1336)" xlink:href="#DejaVuSans-20"/>
<use transform="translate(1368)" xlink:href="#ar"/>
<use transform="translate(1432)" xlink:href="#as"/>
<use transform="translate(1491)" xlink:href="#DejaVuSans-20"/>
<use transform="translate(1523)" xlink:href="#aa"/>
<use transform="translate(1578)" xlink:href="#w"/>
<use transform="translate(1639)" xlink:href="#z"/>
<use transform="translate(1702)" xlink:href="#y"/>
<use transform="translate(1737)" xlink:href="#q"/>
<use transform="translate(1765)" xlink:href="#aj"/>
<use transform="translate(1829)" xlink:href="#ab"/>
<use transform="translate(1892)" xlink:href="#r"/>
<use transform="translate(1933)" xlink:href="#u"/>
<use transform="translate(1994)" xlink:href="#p"/>
<use transform="translate(2034)" xlink:href="#q"/>
<use transform="translate(2061)" xlink:href="#w"/>
<use transform="translate(2123)" xlink:href="#z"/>
</g>
<defs>
<clipPath id="g">
<rect x="40.6" y="35.7" width="676" height="316"/>
</clipPath>
<clipPath id="m">
<rect x="40.6" y="390" width="676" height="316"/>
</clipPath>
<clipPath id="h">
<rect x="40.6" y="745" width="676" height="316"/>
</clipPath>
</defs>
</svg>
