<?xml version="1.0" encoding="UTF-8"?>
<!DOCTYPE svg  PUBLIC '-//W3C//DTD SVG 1.1//EN'  'http://www.w3.org/Graphics/SVG/1.1/DTD/svg11.dtd'>
<svg width="720pt" height="1080pt" version="1.1" viewBox="0 0 720 1080" xmlns="http://www.w3.org/2000/svg" xmlns:xlink="http://www.w3.org/1999/xlink">
<defs>
<style type="text/css">*{stroke-linejoin: round; stroke-linecap: butt}</style>
</defs>
<path d="m0 1080h720v-1080h-720z" fill="#fff"/>
<path d="m40.6 351h676v-316h-676z" fill="#fff"/>
<path d="m60.9 351v-316" clip-path="url(#i)" fill="none" stroke="#b0b0b0" stroke-linecap="square" stroke-width=".8"/>
<defs>
<path id="f" d="m0 0v3.5" stroke="#000" stroke-width=".8"/>
</defs>
<use x="60.895831" y="351.264775" stroke="#000000" stroke-width=".8" xlink:href="#f"/>
<g transform="translate(40 366) scale(.1 -.1)">
<defs>
<path id="d" transform="scale(.0156)" d="m1228 531h2203v-531h-2962v531q359 372 979 998 621 627 780 809 303 340 423 576 121 236 121 464 0 372-261 606-261 235-680 235-297 0-627-103-329-103-704-313v638q381 153 712 231 332 78 607 78 725 0 1156-363 431-362 431-968 0-288-108-546-107-257-392-607-78-91-497-524-418-433-1181-1211z"/>
<path id="c" transform="scale(.0156)" d="m2034 4250q-487 0-733-480-245-479-245-1442 0-959 245-1439 246-480 733-480 491 0 736 480 246 480 246 1439 0 963-246 1442-245 480-736 480zm0 500q785 0 1199-621 414-620 414-1801 0-1178-414-1799-414-620-1199-620-784 0-1198 620-414 621-414 1799 0 1181 414 1801 414 621 1198 621z"/>
<path id="v" transform="scale(.0156)" d="m2419 4116-1594-2491h1594v2491zm-166 550h794v-3041h666v-525h-666v-1100h-628v1100h-2106v609l1940 2957z"/>
<path id="e" transform="scale(.0156)" d="m313 2009h1684v-512h-1684v512z"/>
<path id="ad" transform="scale(.0156)" d="m703 97v575q238-113 481-172 244-59 479-59 625 0 954 420 330 420 377 1277-181-269-460-413-278-144-615-144-700 0-1108 423-408 424-408 1159 0 718 425 1152 425 435 1131 435 810 0 1236-621 427-620 427-1801 0-1103-524-1761-523-658-1407-658-238 0-482 47-243 47-506 141zm1256 1978q425 0 673 290 249 291 249 798 0 503-249 795-248 292-673 292t-673-292-248-795q0-507 248-798 248-290 673-290z"/>
</defs>
<use xlink:href="#d"/>
<use transform="translate(63.6)" xlink:href="#c"/>
<use transform="translate(127)" xlink:href="#d"/>
<use transform="translate(191)" xlink:href="#v"/>
<use transform="translate(254)" xlink:href="#e"/>
<use transform="translate(291)" xlink:href="#c"/>
<use transform="translate(354)" xlink:href="#ad"/>
</g>
<path d="m117 351v-316" clip-path="url(#i)" fill="none" stroke="#b0b0b0" stroke-linecap="square" stroke-width=".8"/>
<use x="117.169201" y="351.264775" stroke="#000000" stroke-width=".8" xlink:href="#f"/>
<g transform="translate(96.3 366) scale(.1 -.1)">
<defs>
<path id="g" transform="scale(.0156)" d="m794 531h1031v3560l-1122-225v575l1116 225h631v-4135h1031v-531h-2687v531z"/>
</defs>
<use xlink:href="#d"/>
<use transform="translate(63.6)" xlink:href="#c"/>
<use transform="translate(127)" xlink:href="#d"/>
<use transform="translate(191)" xlink:href="#v"/>
<use transform="translate(254)" xlink:href="#e"/>
<use transform="translate(291)" xlink:href="#g"/>
<use transform="translate(354)" xlink:href="#c"/>
</g>
<path d="m175 351v-316" clip-path="url(#i)" fill="none" stroke="#b0b0b0" stroke-linecap="square" stroke-width=".8"/>
<use x="175.31835" y="351.264775" stroke="#000000" stroke-width=".8" xlink:href="#f"/>
<g transform="translate(154 366) scale(.1 -.1)">
<use xlink:href="#d"/>
<use transform="translate(63.6)" xlink:href="#c"/>
<use transform="translate(127)" xlink:href="#d"/>
<use transform="translate(191)" xlink:href="#v"/>
<use transform="translate(254)" xlink:href="#e"/>
<use transform="translate(291)" xlink:href="#g"/>
<use transform="translate(354)" xlink:href="#g"/>
</g>
<path d="m232 351v-316" clip-path="url(#i)" fill="none" stroke="#b0b0b0" stroke-linecap="square" stroke-width=".8"/>
<use x="231.59172" y="351.264775" stroke="#000000" stroke-width=".8" xlink:href="#f"/>
<g transform="translate(211 366) scale(.1 -.1)">
<use xlink:href="#d"/>
<use transform="translate(63.6)" xlink:href="#c"/>
<use transform="translate(127)" xlink:href="#d"/>
<use transform="translate(191)" xlink:href="#v"/>
<use transform="translate(254)" xlink:href="#e"/>
<use transform="translate(291)" xlink:href="#g"/>
<use transform="translate(354)" xlink:href="#d"/>
</g>
<path d="m290 351v-316" clip-path="url(#i)" fill="none" stroke="#b0b0b0" stroke-linecap="square" stroke-width=".8"/>
<use x="289.740869" y="351.264775" stroke="#000000" stroke-width=".8" xlink:href="#f"/>
<g transform="translate(269 366) scale(.1 -.1)">
<defs>
<path id="h" transform="scale(.0156)" d="m691 4666h2478v-532h-1900v-1143q137 47 274 70 138 23 276 23 781 0 1237-428 457-428 457-1159 0-753-469-1171-469-417-1322-417-294 0-599 50-304 50-629 150v635q281-153 581-228t634-75q541 0 856 284 316 284 316 772 0 487-316 771-315 285-856 285-253 0-505-56-251-56-513-175v2344z"/>
</defs>
<use xlink:href="#d"/>
<use transform="translate(63.6)" xlink:href="#c"/>
<use transform="translate(127)" xlink:href="#d"/>
<use transform="translate(191)" xlink:href="#h"/>
<use transform="translate(254)" xlink:href="#e"/>
<use transform="translate(291)" xlink:href="#c"/>
<use transform="translate(354)" xlink:href="#g"/>
</g>
<path d="m348 351v-316" clip-path="url(#i)" fill="none" stroke="#b0b0b0" stroke-linecap="square" stroke-width=".8"/>
<use x="347.890018" y="351.264775" stroke="#000000" stroke-width=".8" xlink:href="#f"/>
<g transform="translate(327 366) scale(.1 -.1)">
<use xlink:href="#d"/>
<use transform="translate(63.6)" xlink:href="#c"/>
<use transform="translate(127)" xlink:href="#d"/>
<use transform="translate(191)" xlink:href="#h"/>
<use transform="translate(254)" xlink:href="#e"/>
<use transform="translate(291)" xlink:href="#c"/>
<use transform="translate(354)" xlink:href="#d"/>
</g>
<path d="m400 351v-316" clip-path="url(#i)" fill="none" stroke="#b0b0b0" stroke-linecap="square" stroke-width=".8"/>
<use x="400.41183" y="351.264775" stroke="#000000" stroke-width=".8" xlink:href="#f"/>
<g transform="translate(380 366) scale(.1 -.1)">
<defs>
<path id="ae" transform="scale(.0156)" d="m2597 2516q453-97 707-404 255-306 255-756 0-690-475-1069-475-378-1350-378-293 0-604 58t-642 174v609q262-153 574-231 313-78 654-78 593 0 904 234t311 681q0 413-289 645-289 233-804 233h-544v519h569q465 0 712 186t247 536q0 359-255 551-254 193-729 193-260 0-557-57-297-56-653-174v562q360 100 674 150t592 50q719 0 1137-327 419-326 419-882 0-388-222-655t-631-370z"/>
</defs>
<use xlink:href="#d"/>
<use transform="translate(63.6)" xlink:href="#c"/>
<use transform="translate(127)" xlink:href="#d"/>
<use transform="translate(191)" xlink:href="#h"/>
<use transform="translate(254)" xlink:href="#e"/>
<use transform="translate(291)" xlink:href="#c"/>
<use transform="translate(354)" xlink:href="#ae"/>
</g>
<path d="m459 351v-316" clip-path="url(#i)" fill="none" stroke="#b0b0b0" stroke-linecap="square" stroke-width=".8"/>
<use x="458.56098" y="351.264775" stroke="#000000" stroke-width=".8" xlink:href="#f"/>
<g transform="translate(438 366) scale(.1 -.1)">
<use xlink:href="#d"/>
<use transform="translate(63.6)" xlink:href="#c"/>
<use transform="translate(127)" xlink:href="#d"/>
<use transform="translate(191)" xlink:href="#h"/>
<use transform="translate(254)" xlink:href="#e"/>
<use transform="translate(291)" xlink:href="#c"/>
<use transform="translate(354)" xlink:href="#v"/>
</g>
<path d="m515 351v-316" clip-path="url(#i)" fill="none" stroke="#b0b0b0" stroke-linecap="square" stroke-width=".8"/>
<use x="514.83435" y="351.264775" stroke="#000000" stroke-width=".8" xlink:href="#f"/>
<g transform="translate(494 366) scale(.1 -.1)">
<use xlink:href="#d"/>
<use transform="translate(63.6)" xlink:href="#c"/>
<use transform="translate(127)" xlink:href="#d"/>
<use transform="translate(191)" xlink:href="#h"/>
<use transform="translate(254)" xlink:href="#e"/>
<use transform="translate(291)" xlink:href="#c"/>
<use transform="translate(354)" xlink:href="#h"/>
</g>
<path d="m573 351v-316" clip-path="url(#i)" fill="none" stroke="#b0b0b0" stroke-linecap="square" stroke-width=".8"/>
<use x="572.983499" y="351.264775" stroke="#000000" stroke-width=".8" xlink:href="#f"/>
<g transform="translate(552 366) scale(.1 -.1)">
<defs>
<path id="aj" transform="scale(.0156)" d="m2113 2584q-425 0-674-291-248-290-248-796 0-503 248-796 249-292 674-292t673 292q248 293 248 796 0 506-248 796-248 291-673 291zm1253 1979v-575q-238 112-480 171-242 60-480 60-625 0-955-422-329-422-376-1275 184 272 462 417 279 145 613 145 703 0 1111-427 408-426 408-1160 0-719-425-1154-425-434-1131-434-810 0-1238 620-428 621-428 1799 0 1106 525 1764t1409 658q238 0 480-47t505-140z"/>
</defs>
<use xlink:href="#d"/>
<use transform="translate(63.6)" xlink:href="#c"/>
<use transform="translate(127)" xlink:href="#d"/>
<use transform="translate(191)" xlink:href="#h"/>
<use transform="translate(254)" xlink:href="#e"/>
<use transform="translate(291)" xlink:href="#c"/>
<use transform="translate(354)" xlink:href="#aj"/>
</g>
<path d="m629 351v-316" clip-path="url(#i)" fill="none" stroke="#b0b0b0" stroke-linecap="square" stroke-width=".8"/>
<use x="629.256869" y="351.264775" stroke="#000000" stroke-width=".8" xlink:href="#f"/>
<g transform="translate(608 366) scale(.1 -.1)">
<defs>
<path id="ai" transform="scale(.0156)" d="m525 4666h3e3v-269l-1694-4397h-659l1594 4134h-2241v532z"/>
</defs>
<use xlink:href="#d"/>
<use transform="translate(63.6)" xlink:href="#c"/>
<use transform="translate(127)" xlink:href="#d"/>
<use transform="translate(191)" xlink:href="#h"/>
<use transform="translate(254)" xlink:href="#e"/>
<use transform="translate(291)" xlink:href="#c"/>
<use transform="translate(354)" xlink:href="#ai"/>
</g>
<path d="m687 351v-316" clip-path="url(#i)" fill="none" stroke="#b0b0b0" stroke-linecap="square" stroke-width=".8"/>
<use x="687.406018" y="351.264775" stroke="#000000" stroke-width=".8" xlink:href="#f"/>
<g transform="translate(667 366) scale(.1 -.1)">
<defs>
<path id="ah" transform="scale(.0156)" d="m2034 2216q-450 0-708-241-257-241-257-662 0-422 257-663 258-241 708-241t709 242q260 243 260 662 0 421-258 662-257 241-711 241zm-631 268q-406 100-633 378-226 279-226 679 0 559 398 884 399 325 1092 325 697 0 1094-325t397-884q0-400-227-679-226-278-629-378 456-106 710-416 255-309 255-755 0-679-414-1042-414-362-1186-362-771 0-1186 362-414 363-414 1042 0 446 256 755 257 310 713 416zm-231 997q0-362 226-565 227-203 636-203 407 0 636 203 230 203 230 565 0 363-230 566-229 203-636 203-409 0-636-203-226-203-226-566z"/>
</defs>
<use xlink:href="#d"/>
<use transform="translate(63.6)" xlink:href="#c"/>
<use transform="translate(127)" xlink:href="#d"/>
<use transform="translate(191)" xlink:href="#h"/>
<use transform="translate(254)" xlink:href="#e"/>
<use transform="translate(291)" xlink:href="#c"/>
<use transform="translate(354)" xlink:href="#ah"/>
</g>
<path d="m40.6 351h676" clip-path="url(#i)" fill="none" stroke="#b0b0b0" stroke-linecap="square" stroke-width=".8"/>
<defs>
<path id="n" d="m0 0h-3.5" stroke="#000" stroke-width=".8"/>
</defs>
<use x="40.645553" y="351.264775" stroke="#000000" stroke-width=".8" xlink:href="#n"/>
<g transform="translate(3 355) scale(.1 -.1)">
<defs>
<path id="m" transform="scale(.0156)" d="m684 794h660v-794h-660v794z"/>
<path id="o" transform="scale(.0156)" d="m4488 3438-1429-1435 1429-1428-372-378-1435 1434-1434-1434-369 378 1425 1428-1425 1435 369 378 1434-1435 1435 1435 372-378z"/>
</defs>
<use xlink:href="#c"/>
<use transform="translate(63.6)" xlink:href="#m"/>
<use transform="translate(95.4)" xlink:href="#ad"/>
<use transform="translate(159)" xlink:href="#c"/>
<use transform="translate(223)" xlink:href="#o"/>
</g>
<path d="m40.6 312h676" clip-path="url(#i)" fill="none" stroke="#b0b0b0" stroke-linecap="square" stroke-width=".8"/>
<use x="40.645553" y="311.823253" stroke="#000000" stroke-width=".8" xlink:href="#n"/>
<g transform="translate(3 316) scale(.1 -.1)">
<use xlink:href="#c"/>
<use transform="translate(63.6)" xlink:href="#m"/>
<use transform="translate(95.4)" xlink:href="#ad"/>
<use transform="translate(159)" xlink:href="#h"/>
<use transform="translate(223)" xlink:href="#o"/>
</g>
<path d="m40.6 272h676" clip-path="url(#i)" fill="none" stroke="#b0b0b0" stroke-linecap="square" stroke-width=".8"/>
<use x="40.645553" y="272.38173" stroke="#000000" stroke-width=".8" xlink:href="#n"/>
<g transform="translate(3 276) scale(.1 -.1)">
<use xlink:href="#g"/>
<use transform="translate(63.6)" xlink:href="#m"/>
<use transform="translate(95.4)" xlink:href="#c"/>
<use transform="translate(159)" xlink:href="#c"/>
<use transform="translate(223)" xlink:href="#o"/>
</g>
<path d="m40.6 233h676" clip-path="url(#i)" fill="none" stroke="#b0b0b0" stroke-linecap="square" stroke-width=".8"/>
<use x="40.645553" y="232.940208" stroke="#000000" stroke-width=".8" xlink:href="#n"/>
<g transform="translate(3 237) scale(.1 -.1)">
<use xlink:href="#g"/>
<use transform="translate(63.6)" xlink:href="#m"/>
<use transform="translate(95.4)" xlink:href="#c"/>
<use transform="translate(159)" xlink:href="#h"/>
<use transform="translate(223)" xlink:href="#o"/>
</g>
<path d="m40.6 193h676" clip-path="url(#i)" fill="none" stroke="#b0b0b0" stroke-linecap="square" stroke-width=".8"/>
<use x="40.645553" y="193.498685" stroke="#000000" stroke-width=".8" xlink:href="#n"/>
<g transform="translate(3 197) scale(.1 -.1)">
<use xlink:href="#g"/>
<use transform="translate(63.6)" xlink:href="#m"/>
<use transform="translate(95.4)" xlink:href="#g"/>
<use transform="translate(159)" xlink:href="#c"/>
<use transform="translate(223)" xlink:href="#o"/>
</g>
<path d="m40.6 154h676" clip-path="url(#i)" fill="none" stroke="#b0b0b0" stroke-linecap="square" stroke-width=".8"/>
<use x="40.645553" y="154.057163" stroke="#000000" stroke-width=".8" xlink:href="#n"/>
<g transform="translate(3 158) scale(.1 -.1)">
<use xlink:href="#g"/>
<use transform="translate(63.6)" xlink:href="#m"/>
<use transform="translate(95.4)" xlink:href="#g"/>
<use transform="translate(159)" xlink:href="#h"/>
<use transform="translate(223)" xlink:href="#o"/>
</g>
<path d="m40.6 115h676" clip-path="url(#i)" fill="none" stroke="#b0b0b0" stroke-linecap="square" stroke-width=".8"/>
<use x="40.645553" y="114.61564" stroke="#000000" stroke-width=".8" xlink:href="#n"/>
<g transform="translate(3 118) scale(.1 -.1)">
<use xlink:href="#g"/>
<use transform="translate(63.6)" xlink:href="#m"/>
<use transform="translate(95.4)" xlink:href="#d"/>
<use transform="translate(159)" xlink:href="#c"/>
<use transform="translate(223)" xlink:href="#o"/>
</g>
<path d="m40.6 75.2h676" clip-path="url(#i)" fill="none" stroke="#b0b0b0" stroke-linecap="square" stroke-width=".8"/>
<use x="40.645553" y="75.174118" stroke="#000000" stroke-width=".8" xlink:href="#n"/>
<g transform="translate(3 79) scale(.1 -.1)">
<use xlink:href="#g"/>
<use transform="translate(63.6)" xlink:href="#m"/>
<use transform="translate(95.4)" xlink:href="#d"/>
<use transform="translate(159)" xlink:href="#h"/>
<use transform="translate(223)" xlink:href="#o"/>
</g>
<path d="m40.6 35.7h676" clip-path="url(#i)" fill="none" stroke="#b0b0b0" stroke-linecap="square" stroke-width=".8"/>
<use x="40.645553" y="35.732595" stroke="#000000" stroke-width=".8" xlink:href="#n"/>
<g transform="translate(3 39.5) scale(.1 -.1)">
<use xlink:href="#g"/>
<use transform="translate(63.6)" xlink:href="#m"/>
<use transform="translate(95.4)" xlink:href="#ae"/>
<use transform="translate(159)" xlink:href="#c"/>
<use transform="translate(223)" xlink:href="#o"/>
</g>
<path d="m441 218 1.23 78.3 11.8-58.5 13.3-29.2 3.32 59.7 5.33-34.6 4.45 1.27 12.8-4.23 13.5 2.93 13 8.27 13.3-3.75 13.1 2.54 12.3 4.09 13.9-12.4 13.1 2.18 12.7 6.76 13.2-3.47 12.9 2.32 13.9-3.75 12.8 1.02 13.2 3.28 12.9-4.84" clip-path="url(#i)" fill="none" stroke="#1f77b4" stroke-dasharray="1.5,2.475" stroke-opacity=".9" stroke-width="1.5"/>
<defs>
<path id="a" d="m-2.5 2.5h5v-5h-5z" stroke="#1f77b4" stroke-opacity=".9"/>
</defs>
<g clip-path="url(#i)" fill="#1f77b4" fill-opacity=".9" stroke="#1f77b4" stroke-opacity=".9">
<use x="441.034083" y="217.972608" xlink:href="#a"/>
<use x="442.260004" y="296.236601" xlink:href="#a"/>
<use x="454.048428" y="237.786525" xlink:href="#a"/>
<use x="467.309426" y="208.609505" xlink:href="#a"/>
<use x="470.633571" y="268.348273" xlink:href="#a"/>
<use x="475.966233" y="233.780467" xlink:href="#a"/>
<use x="480.41311" y="235.050049" xlink:href="#a"/>
<use x="493.199518" y="230.815623" xlink:href="#a"/>
<use x="506.684329" y="233.746182" xlink:href="#a"/>
<use x="519.645419" y="242.018666" xlink:href="#a"/>
<use x="532.937289" y="238.265931" xlink:href="#a"/>
<use x="546.051307" y="240.808105" xlink:href="#a"/>
<use x="558.393238" y="244.894915" xlink:href="#a"/>
<use x="572.244954" y="232.452493" xlink:href="#a"/>
<use x="585.343753" y="234.631196" xlink:href="#a"/>
<use x="598.077601" y="241.389536" xlink:href="#a"/>
<use x="611.245852" y="237.922981" xlink:href="#a"/>
<use x="624.113479" y="240.240096" xlink:href="#a"/>
<use x="638.003253" y="236.494728" xlink:href="#a"/>
<use x="650.769796" y="237.514392" xlink:href="#a"/>
<use x="664.015879" y="240.796986" xlink:href="#a"/>
<use x="676.935328" y="235.961163" xlink:href="#a"/>
</g>
<path d="m441 180 13-2.98 13.3 45.3 13.1 19.4 12.8-18.7 26.4 19.8 13.3-11.4 13.1 8.54 12.3 3.35 13.9-5.19 13.1 7.39 12.7 0.914 13.2-5.32 12.9-9.35 13.9-2.7 12.8 11.3 13.2-11.2 12.9 11.7" clip-path="url(#i)" fill="none" stroke="#2ca02c" stroke-linecap="square" stroke-opacity=".9" stroke-width="1.5"/>
<defs>
<path id="b" d="m0-2.5-2.5 5h5z" stroke="#2ca02c" stroke-opacity=".9"/>
</defs>
<g clip-path="url(#i)" fill="#2ca02c" fill-opacity=".9" stroke="#2ca02c" stroke-opacity=".9">
<use x="441.034083" y="179.969255" xlink:href="#b"/>
<use x="454.048428" y="176.992682" xlink:href="#b"/>
<use x="467.309426" y="222.29429" xlink:href="#b"/>
<use x="480.41311" y="241.648786" xlink:href="#b"/>
<use x="493.199518" y="222.987989" xlink:href="#b"/>
<use x="519.645419" y="242.766761" xlink:href="#b"/>
<use x="532.937289" y="231.392996" xlink:href="#b"/>
<use x="546.051307" y="239.932954" xlink:href="#b"/>
<use x="558.393238" y="243.285585" xlink:href="#b"/>
<use x="572.244954" y="238.099275" xlink:href="#b"/>
<use x="585.343753" y="245.490371" xlink:href="#b"/>
<use x="598.077601" y="246.40392" xlink:href="#b"/>
<use x="611.245852" y="241.082656" xlink:href="#b"/>
<use x="624.113479" y="231.732085" xlink:href="#b"/>
<use x="638.003253" y="229.028803" xlink:href="#b"/>
<use x="650.769796" y="240.35378" xlink:href="#b"/>
<use x="664.015879" y="229.114718" xlink:href="#b"/>
<use x="676.935328" y="240.773911" xlink:href="#b"/>
</g>
<path d="m40.6 351v-316" fill="none" stroke="#000" stroke-linecap="square" stroke-width=".8"/>
<path d="m717 351v-316" fill="none" stroke="#000" stroke-linecap="square" stroke-width=".8"/>
<path d="m40.6 351h676" fill="none" stroke="#000" stroke-linecap="square" stroke-width=".8"/>
<path d="m40.6 35.7h676" fill="none" stroke="#000" stroke-linecap="square" stroke-width=".8"/>
<g clip-path="url(#i)">
<g transform="translate(58.2 264) rotate(-90) scale(.1 -.1)">
<defs>
<path id="y" transform="scale(.0156)" d="m2375 4863v-479h-550q-309 0-430-125-120-125-120-450v-309h947v-447h-947v-3053h-578v3053h-550v447h550v244q0 584 272 851 272 268 862 268h544z"/>
<path id="r" transform="scale(.0156)" d="m2194 1759q-697 0-966-159t-269-544q0-306 202-486 202-179 548-179 479 0 768 339t289 901v128h-572zm1147 238v-2e3h-575v531q-197-318-491-470t-719-152q-537 0-855 302-317 302-317 808 0 590 395 890 396 300 1180 300h807v57q0 397-261 614t-733 217q-300 0-585-72-284-72-546-216v532q315 122 612 182 297 61 578 61 760 0 1135-394 375-393 375-1193z"/>
<path id="s" transform="scale(.0156)" d="m2834 3397v-544q-243 125-506 187-262 63-544 63-428 0-642-131t-214-394q0-200 153-314t616-217l197-44q612-131 870-370t258-667q0-488-386-773-386-284-1061-284-281 0-586 55t-642 164v594q319-166 628-249 309-82 613-82 406 0 624 139 219 139 219 392 0 234-158 359-157 125-692 241l-200 47q-534 112-772 345-237 233-237 639 0 494 350 762 350 269 994 269 318 0 599-47 282-46 519-140z"/>
<path id="p" transform="scale(.0156)" d="m1172 4494v-994h1184v-447h-1184v-1900q0-428 117-550t477-122h590v-481h-590q-666 0-919 248-253 249-253 905v1900h-422v447h422v994h578z"/>
<path id="l" transform="scale(.0156)" d="m3597 1894v-281h-2644q38-594 358-905t892-311q331 0 642 81t618 244v-544q-310-131-635-200t-659-69q-838 0-1327 487-489 488-489 1320 0 859 464 1363 464 505 1252 505 706 0 1117-455 411-454 411-1235zm-575 169q-6 471-264 752-258 282-683 282-481 0-770-272t-333-766l2050 4z"/>
<path id="q" transform="scale(.0156)" d="m2631 2963q-97 56-211 82-114 27-251 27-488 0-749-317t-261-911v-1844h-578v3500h578v-544q182 319 472 473 291 155 707 155 59 0 131-8 72-7 159-23l3-590z"/>
<path id="aq" transform="scale(.0156)" d="m8863 2147v-281l-1229-1228-375 375 729 728h-7622v531h7622l-729 728 375 375 1229-1228z"/>
</defs>
<use xlink:href="#y"/>
<use transform="translate(35.2)" xlink:href="#r"/>
<use transform="translate(96.5)" xlink:href="#s"/>
<use transform="translate(149)" xlink:href="#p"/>
<use transform="translate(188)" xlink:href="#l"/>
<use transform="translate(249)" xlink:href="#q"/>
<use transform="translate(290)" xlink:href="#DejaVuSans-20"/>
<use transform="translate(322)" xlink:href="#aq"/>
</g>
</g>
<g clip-path="url(#i)">
<g transform="translate(58.2 332) rotate(-90) scale(.1 -.1)">
<defs>
<path id="ar" transform="scale(.0156)" d="m313 1866v281l1228 1228 375-375-728-728h7621v-531h-7621l728-728-375-375-1228 1228z"/>
<path id="x" transform="scale(.0156)" d="m603 4863h575v-4863h-575v4863z"/>
<path id="t" transform="scale(.0156)" d="m1959 3097q-462 0-731-361t-269-989 267-989q268-361 733-361 460 0 728 362 269 363 269 988 0 622-269 986-268 364-728 364zm0 487q750 0 1178-488 429-487 429-1349 0-859-429-1349-428-489-1178-489-753 0-1180 489-426 490-426 1349 0 862 426 1349 427 488 1180 488z"/>
<path id="af" transform="scale(.0156)" d="m269 3500h575l719-2731 715 2731h678l719-2731 716 2731h575l-916-3500h-678l-753 2869-756-2869h-679l-915 3500z"/>
</defs>
<use xlink:href="#ar"/>
<use transform="translate(143)" xlink:href="#DejaVuSans-20"/>
<use transform="translate(175)" xlink:href="#s"/>
<use transform="translate(227)" xlink:href="#x"/>
<use transform="translate(255)" xlink:href="#t"/>
<use transform="translate(316)" xlink:href="#af"/>
<use transform="translate(398)" xlink:href="#l"/>
<use transform="translate(460)" xlink:href="#q"/>
</g>
</g>
<g transform="translate(174 29.7) scale(.12 -.12)">
<defs>
<path id="an" transform="scale(.0156)" d="m628 4666h2950v-532h-2319v-1381h2222v-531h-2222v-1691h2375v-531h-3006v4666z"/>
<path id="z" transform="scale(.0156)" d="m3122 3366v-538q-244 135-489 202t-495 67q-560 0-870-355-309-354-309-995t309-996q310-354 870-354 250 0 495 67t489 202v-532q-241-112-499-168-257-57-548-57-791 0-1257 497-465 497-465 1341 0 856 470 1346 471 491 1290 491 265 0 518-55 253-54 491-163z"/>
<path id="at" transform="scale(.0156)" d="m3116 1747q0 634-261 995t-717 361q-457 0-718-361t-261-995 261-995 718-361q456 0 717 361t261 995zm-1957 1222q182 312 458 463 277 152 661 152 638 0 1036-506 399-506 399-1331t-399-1332q-398-506-1036-506-384 0-661 152-276 152-458 464v-525h-578v4863h578v-1894z"/>
<path id="ab" transform="scale(.0156)" d="m544 1381v2119h575v-2097q0-497 193-746 194-248 582-248 465 0 735 297 271 297 271 810v1984h575v-3500h-575v538q-209-319-486-474-276-155-642-155-603 0-916 375-312 375-312 1097zm1447 2203z"/>
<path id="u" transform="scale(.0156)" d="m603 3500h575v-3500h-575v3500zm0 1363h575v-729h-575v729z"/>
<path id="am" transform="scale(.0156)" d="m2906 2969v1894h575v-4863h-575v525q-181-312-458-464-276-152-664-152-634 0-1033 506-398 507-398 1332t398 1331q399 506 1033 506 388 0 664-152 277-151 458-463zm-1959-1222q0-634 261-995t717-361 718 361q263 361 263 995t-263 995q-262 361-718 361t-717-361-261-995z"/>
<path id="as" transform="scale(.0156)" d="m3513 2113v-2113h-575v2094q0 497-194 743-194 247-581 247-466 0-735-297-269-296-269-809v-1978h-578v4863h578v-1907q207 316 486 472 280 156 646 156 603 0 912-373 310-373 310-1098z"/>
<path id="aa" transform="scale(.0156)" d="m3513 2113v-2113h-575v2094q0 497-194 743-194 247-581 247-466 0-735-297-269-296-269-809v-1978h-578v3500h578v-544q207 316 486 472 280 156 646 156 603 0 912-373 310-373 310-1098z"/>
<path id="al" transform="scale(.0156)" d="m2906 1791q0 625-258 968-257 344-723 344-462 0-720-344-258-343-258-968 0-622 258-966t720-344q466 0 723 344 258 344 258 966zm575-1357q0-893-397-1329-396-436-1215-436-303 0-572 45t-522 139v559q253-137 500-202 247-66 503-66 566 0 847 295t281 892v285q-178-310-456-463t-666-153q-643 0-1037 490-394 491-394 1301 0 812 394 1302 394 491 1037 491 388 0 666-153t456-462v531h575v-3066z"/>
<path id="ac" transform="scale(.0156)" d="m191 3500h609l1094-2937 1094 2937h609l-1313-3500h-781l-1312 3500z"/>
<path id="ag" transform="scale(.0156)" d="m-19 4666h3947v-532h-1656v-4134h-634v4134h-1657v532z"/>
<path id="ap" transform="scale(.0156)" d="m1984 4856q-418-718-622-1422-203-703-203-1425 0-721 205-1429t620-1424h-500q-468 735-701 1444t-233 1409q0 697 231 1403 232 707 703 1444h500z"/>
<path id="w" transform="scale(.0156)" d="m3328 2828q216 388 516 572t706 184q547 0 844-383 297-382 297-1088v-2113h-578v2094q0 503-179 746-178 244-543 244-447 0-707-297-259-296-259-809v-1978h-578v2094q0 506-178 748t-550 242q-441 0-701-298-259-298-259-808v-1978h-578v3500h578v-544q197 322 472 475t653 153q382 0 649-194 267-193 395-562z"/>
<path id="ao" transform="scale(.0156)" d="m513 4856h500q468-737 701-1444 233-706 233-1403 0-700-233-1409t-701-1444h-500q415 716 620 1424t205 1429q0 722-205 1425-205 704-620 1422z"/>
</defs>
<use xlink:href="#an"/>
<use transform="translate(63.2)" xlink:href="#y"/>
<use transform="translate(98.4)" xlink:href="#y"/>
<use transform="translate(134)" xlink:href="#l"/>
<use transform="translate(195)" xlink:href="#z"/>
<use transform="translate(250)" xlink:href="#p"/>
<use transform="translate(289)" xlink:href="#DejaVuSans-20"/>
<use transform="translate(321)" xlink:href="#t"/>
<use transform="translate(382)" xlink:href="#y"/>
<use transform="translate(417)" xlink:href="#DejaVuSans-20"/>
<use transform="translate(449)" xlink:href="#at"/>
<use transform="translate(513)" xlink:href="#ab"/>
<use transform="translate(576)" xlink:href="#u"/>
<use transform="translate(604)" xlink:href="#x"/>
<use transform="translate(632)" xlink:href="#am"/>
<use transform="translate(695)" xlink:href="#DejaVuSans-20"/>
<use transform="translate(727)" xlink:href="#af"/>
<use transform="translate(809)" xlink:href="#u"/>
<use transform="translate(837)" xlink:href="#p"/>
<use transform="translate(876)" xlink:href="#as"/>
<use transform="translate(939)" xlink:href="#DejaVuSans-20"/>
<use transform="translate(971)" xlink:href="#x"/>
<use transform="translate(999)" xlink:href="#r"/>
<use transform="translate(1060)" xlink:href="#p"/>
<use transform="translate(1099)" xlink:href="#l"/>
<use transform="translate(1161)" xlink:href="#s"/>
<use transform="translate(1213)" xlink:href="#p"/>
<use transform="translate(1252)" xlink:href="#DejaVuSans-20"/>
<use transform="translate(1284)" xlink:href="#z"/>
<use transform="translate(1339)" xlink:href="#x"/>
<use transform="translate(1367)" xlink:href="#r"/>
<use transform="translate(1428)" xlink:href="#aa"/>
<use transform="translate(1491)" xlink:href="#al"/>
<use transform="translate(1555)" xlink:href="#DejaVuSans-20"/>
<use transform="translate(1586)" xlink:href="#r"/>
<use transform="translate(1648)" xlink:href="#aa"/>
<use transform="translate(1711)" xlink:href="#am"/>
<use transform="translate(1775)" xlink:href="#DejaVuSans-20"/>
<use transform="translate(1806)" xlink:href="#p"/>
<use transform="translate(1846)" xlink:href="#r"/>
<use transform="translate(1907)" xlink:href="#u"/>
<use transform="translate(1935)" xlink:href="#x"/>
<use transform="translate(1962)" xlink:href="#z"/>
<use transform="translate(2017)" xlink:href="#r"/>
<use transform="translate(2079)" xlink:href="#x"/>
<use transform="translate(2106)" xlink:href="#x"/>
<use transform="translate(2134)" xlink:href="#DejaVuSans-20"/>
<use transform="translate(2166)" xlink:href="#ac"/>
<use transform="translate(2225)" xlink:href="#s"/>
<use transform="translate(2277)" xlink:href="#m"/>
<use transform="translate(2309)" xlink:href="#DejaVuSans-20"/>
<use transform="translate(2341)" xlink:href="#ag"/>
<use transform="translate(2399)" xlink:href="#u"/>
<use transform="translate(2427)" xlink:href="#l"/>
<use transform="translate(2488)" xlink:href="#q"/>
<use transform="translate(2529)" xlink:href="#DejaVuSans-20"/>
<use transform="translate(2561)" xlink:href="#g"/>
<use transform="translate(2625)" xlink:href="#DejaVuSans-20"/>
<use transform="translate(2656)" xlink:href="#ap"/>
<use transform="translate(2696)" xlink:href="#s"/>
<use transform="translate(2748)" xlink:href="#r"/>
<use transform="translate(2809)" xlink:href="#w"/>
<use transform="translate(2906)" xlink:href="#l"/>
<use transform="translate(2968)" xlink:href="#DejaVuSans-20"/>
<use transform="translate(3e3)" xlink:href="#z"/>
<use transform="translate(3055)" xlink:href="#t"/>
<use transform="translate(3116)" xlink:href="#w"/>
<use transform="translate(3213)" xlink:href="#w"/>
<use transform="translate(3311)" xlink:href="#u"/>
<use transform="translate(3338)" xlink:href="#p"/>
<use transform="translate(3378)" xlink:href="#ao"/>
</g>
<path d="m47.6 73.1h82.6q2 0 2-2v-28.4q0-2-2-2h-82.6q-2 0-2 2v28.4q0 2 2 2z" fill="#fff" opacity=".8" stroke="#ccc"/>
<path d="m49.6 48.8h10 10" fill="none" stroke="#1f77b4" stroke-dasharray="1.5,2.475" stroke-opacity=".9" stroke-width="1.5"/>
<use x="59.645553" y="48.831032" fill="#1f77b4" fill-opacity=".9" stroke="#1f77b4" stroke-opacity=".9" xlink:href="#a"/>
<g transform="translate(77.6 52.3) scale(.1 -.1)">
<defs>
<path id="ak" transform="scale(.0156)" d="m3513 3500-1266-1703 1331-1797h-678l-1019 1375-1018-1375h-679l1360 1831-1244 1669h678l928-1247 928 1247h679z"/>
</defs>
<use xlink:href="#x"/>
<use transform="translate(27.8)" xlink:href="#u"/>
<use transform="translate(55.6)" xlink:href="#aa"/>
<use transform="translate(119)" xlink:href="#ab"/>
<use transform="translate(182)" xlink:href="#ak"/>
<use transform="translate(242)" xlink:href="#e"/>
<use transform="translate(275)" xlink:href="#ac"/>
<use transform="translate(334)" xlink:href="#ab"/>
<use transform="translate(398)" xlink:href="#x"/>
<use transform="translate(425)" xlink:href="#p"/>
<use transform="translate(465)" xlink:href="#q"/>
</g>
<path d="m49.6 63.5h10 10" fill="none" stroke="#2ca02c" stroke-linecap="square" stroke-opacity=".9" stroke-width="1.5"/>
<use x="59.645553" y="63.509158" fill="#2ca02c" fill-opacity=".9" stroke="#2ca02c" stroke-opacity=".9" xlink:href="#b"/>
<g transform="translate(77.6 67) scale(.1 -.1)">
<use xlink:href="#w"/>
<use transform="translate(97.4)" xlink:href="#r"/>
<use transform="translate(159)" xlink:href="#z"/>
<use transform="translate(214)" xlink:href="#t"/>
<use transform="translate(275)" xlink:href="#s"/>
</g>
<path d="m40.6 706h676v-316h-676z" fill="#fff"/>
<path d="m60.2 706v-316" clip-path="url(#j)" fill="none" stroke="#b0b0b0" stroke-linecap="square" stroke-width=".8"/>
<use x="60.192414" y="705.793205" stroke="#000000" stroke-width=".8" xlink:href="#f"/>
<g transform="translate(39.3 720) scale(.1 -.1)">
<use xlink:href="#d"/>
<use transform="translate(63.6)" xlink:href="#c"/>
<use transform="translate(127)" xlink:href="#d"/>
<use transform="translate(191)" xlink:href="#v"/>
<use transform="translate(254)" xlink:href="#e"/>
<use transform="translate(291)" xlink:href="#c"/>
<use transform="translate(354)" xlink:href="#ad"/>
</g>
<path d="m116 706v-316" clip-path="url(#j)" fill="none" stroke="#b0b0b0" stroke-linecap="square" stroke-width=".8"/>
<use x="116.465784" y="705.793205" stroke="#000000" stroke-width=".8" xlink:href="#f"/>
<g transform="translate(95.6 720) scale(.1 -.1)">
<use xlink:href="#d"/>
<use transform="translate(63.6)" xlink:href="#c"/>
<use transform="translate(127)" xlink:href="#d"/>
<use transform="translate(191)" xlink:href="#v"/>
<use transform="translate(254)" xlink:href="#e"/>
<use transform="translate(291)" xlink:href="#g"/>
<use transform="translate(354)" xlink:href="#c"/>
</g>
<path d="m175 706v-316" clip-path="url(#j)" fill="none" stroke="#b0b0b0" stroke-linecap="square" stroke-width=".8"/>
<use x="174.614933" y="705.793205" stroke="#000000" stroke-width=".8" xlink:href="#f"/>
<g transform="translate(154 720) scale(.1 -.1)">
<use xlink:href="#d"/>
<use transform="translate(63.6)" xlink:href="#c"/>
<use transform="translate(127)" xlink:href="#d"/>
<use transform="translate(191)" xlink:href="#v"/>
<use transform="translate(254)" xlink:href="#e"/>
<use transform="translate(291)" xlink:href="#g"/>
<use transform="translate(354)" xlink:href="#g"/>
</g>
<path d="m231 706v-316" clip-path="url(#j)" fill="none" stroke="#b0b0b0" stroke-linecap="square" stroke-width=".8"/>
<use x="230.888303" y="705.793205" stroke="#000000" stroke-width=".8" xlink:href="#f"/>
<g transform="translate(210 720) scale(.1 -.1)">
<use xlink:href="#d"/>
<use transform="translate(63.6)" xlink:href="#c"/>
<use transform="translate(127)" xlink:href="#d"/>
<use transform="translate(191)" xlink:href="#v"/>
<use transform="translate(254)" xlink:href="#e"/>
<use transform="translate(291)" xlink:href="#g"/>
<use transform="translate(354)" xlink:href="#d"/>
</g>
<path d="m289 706v-316" clip-path="url(#j)" fill="none" stroke="#b0b0b0" stroke-linecap="square" stroke-width=".8"/>
<use x="289.037452" y="705.793205" stroke="#000000" stroke-width=".8" xlink:href="#f"/>
<g transform="translate(268 720) scale(.1 -.1)">
<use xlink:href="#d"/>
<use transform="translate(63.6)" xlink:href="#c"/>
<use transform="translate(127)" xlink:href="#d"/>
<use transform="translate(191)" xlink:href="#h"/>
<use transform="translate(254)" xlink:href="#e"/>
<use transform="translate(291)" xlink:href="#c"/>
<use transform="translate(354)" xlink:href="#g"/>
</g>
<path d="m347 706v-316" clip-path="url(#j)" fill="none" stroke="#b0b0b0" stroke-linecap="square" stroke-width=".8"/>
<use x="347.186601" y="705.793205" stroke="#000000" stroke-width=".8" xlink:href="#f"/>
<g transform="translate(326 720) scale(.1 -.1)">
<use xlink:href="#d"/>
<use transform="translate(63.6)" xlink:href="#c"/>
<use transform="translate(127)" xlink:href="#d"/>
<use transform="translate(191)" xlink:href="#h"/>
<use transform="translate(254)" xlink:href="#e"/>
<use transform="translate(291)" xlink:href="#c"/>
<use transform="translate(354)" xlink:href="#d"/>
</g>
<path d="m400 706v-316" clip-path="url(#j)" fill="none" stroke="#b0b0b0" stroke-linecap="square" stroke-width=".8"/>
<use x="399.708413" y="705.793205" stroke="#000000" stroke-width=".8" xlink:href="#f"/>
<g transform="translate(379 720) scale(.1 -.1)">
<use xlink:href="#d"/>
<use transform="translate(63.6)" xlink:href="#c"/>
<use transform="translate(127)" xlink:href="#d"/>
<use transform="translate(191)" xlink:href="#h"/>
<use transform="translate(254)" xlink:href="#e"/>
<use transform="translate(291)" xlink:href="#c"/>
<use transform="translate(354)" xlink:href="#ae"/>
</g>
<path d="m458 706v-316" clip-path="url(#j)" fill="none" stroke="#b0b0b0" stroke-linecap="square" stroke-width=".8"/>
<use x="457.857562" y="705.793205" stroke="#000000" stroke-width=".8" xlink:href="#f"/>
<g transform="translate(437 720) scale(.1 -.1)">
<use xlink:href="#d"/>
<use transform="translate(63.6)" xlink:href="#c"/>
<use transform="translate(127)" xlink:href="#d"/>
<use transform="translate(191)" xlink:href="#h"/>
<use transform="translate(254)" xlink:href="#e"/>
<use transform="translate(291)" xlink:href="#c"/>
<use transform="translate(354)" xlink:href="#v"/>
</g>
<path d="m514 706v-316" clip-path="url(#j)" fill="none" stroke="#b0b0b0" stroke-linecap="square" stroke-width=".8"/>
<use x="514.130933" y="705.793205" stroke="#000000" stroke-width=".8" xlink:href="#f"/>
<g transform="translate(493 720) scale(.1 -.1)">
<use xlink:href="#d"/>
<use transform="translate(63.6)" xlink:href="#c"/>
<use transform="translate(127)" xlink:href="#d"/>
<use transform="translate(191)" xlink:href="#h"/>
<use transform="translate(254)" xlink:href="#e"/>
<use transform="translate(291)" xlink:href="#c"/>
<use transform="translate(354)" xlink:href="#h"/>
</g>
<path d="m572 706v-316" clip-path="url(#j)" fill="none" stroke="#b0b0b0" stroke-linecap="square" stroke-width=".8"/>
<use x="572.280082" y="705.793205" stroke="#000000" stroke-width=".8" xlink:href="#f"/>
<g transform="translate(551 720) scale(.1 -.1)">
<use xlink:href="#d"/>
<use transform="translate(63.6)" xlink:href="#c"/>
<use transform="translate(127)" xlink:href="#d"/>
<use transform="translate(191)" xlink:href="#h"/>
<use transform="translate(254)" xlink:href="#e"/>
<use transform="translate(291)" xlink:href="#c"/>
<use transform="translate(354)" xlink:href="#aj"/>
</g>
<path d="m629 706v-316" clip-path="url(#j)" fill="none" stroke="#b0b0b0" stroke-linecap="square" stroke-width=".8"/>
<use x="628.553452" y="705.793205" stroke="#000000" stroke-width=".8" xlink:href="#f"/>
<g transform="translate(608 720) scale(.1 -.1)">
<use xlink:href="#d"/>
<use transform="translate(63.6)" xlink:href="#c"/>
<use transform="translate(127)" xlink:href="#d"/>
<use transform="translate(191)" xlink:href="#h"/>
<use transform="translate(254)" xlink:href="#e"/>
<use transform="translate(291)" xlink:href="#c"/>
<use transform="translate(354)" xlink:href="#ai"/>
</g>
<path d="m687 706v-316" clip-path="url(#j)" fill="none" stroke="#b0b0b0" stroke-linecap="square" stroke-width=".8"/>
<use x="686.702601" y="705.793205" stroke="#000000" stroke-width=".8" xlink:href="#f"/>
<g transform="translate(666 720) scale(.1 -.1)">
<use xlink:href="#d"/>
<use transform="translate(63.6)" xlink:href="#c"/>
<use transform="translate(127)" xlink:href="#d"/>
<use transform="translate(191)" xlink:href="#h"/>
<use transform="translate(254)" xlink:href="#e"/>
<use transform="translate(291)" xlink:href="#c"/>
<use transform="translate(354)" xlink:href="#ah"/>
</g>
<path d="m40.6 673h676" clip-path="url(#j)" fill="none" stroke="#b0b0b0" stroke-linecap="square" stroke-width=".8"/>
<use x="40.645553" y="673.16728" stroke="#000000" stroke-width=".8" xlink:href="#n"/>
<g transform="translate(3 677) scale(.1 -.1)">
<use xlink:href="#c"/>
<use transform="translate(63.6)" xlink:href="#m"/>
<use transform="translate(95.4)" xlink:href="#aj"/>
<use transform="translate(159)" xlink:href="#c"/>
<use transform="translate(223)" xlink:href="#o"/>
</g>
<path d="m40.6 612h676" clip-path="url(#j)" fill="none" stroke="#b0b0b0" stroke-linecap="square" stroke-width=".8"/>
<use x="40.645553" y="612.222101" stroke="#000000" stroke-width=".8" xlink:href="#n"/>
<g transform="translate(3 616) scale(.1 -.1)">
<use xlink:href="#c"/>
<use transform="translate(63.6)" xlink:href="#m"/>
<use transform="translate(95.4)" xlink:href="#ai"/>
<use transform="translate(159)" xlink:href="#c"/>
<use transform="translate(223)" xlink:href="#o"/>
</g>
<path d="m40.6 551h676" clip-path="url(#j)" fill="none" stroke="#b0b0b0" stroke-linecap="square" stroke-width=".8"/>
<use x="40.645553" y="551.276922" stroke="#000000" stroke-width=".8" xlink:href="#n"/>
<g transform="translate(3 555) scale(.1 -.1)">
<use xlink:href="#c"/>
<use transform="translate(63.6)" xlink:href="#m"/>
<use transform="translate(95.4)" xlink:href="#ah"/>
<use transform="translate(159)" xlink:href="#c"/>
<use transform="translate(223)" xlink:href="#o"/>
</g>
<path d="m40.6 490h676" clip-path="url(#j)" fill="none" stroke="#b0b0b0" stroke-linecap="square" stroke-width=".8"/>
<use x="40.645553" y="490.331743" stroke="#000000" stroke-width=".8" xlink:href="#n"/>
<g transform="translate(3 494) scale(.1 -.1)">
<use xlink:href="#c"/>
<use transform="translate(63.6)" xlink:href="#m"/>
<use transform="translate(95.4)" xlink:href="#ad"/>
<use transform="translate(159)" xlink:href="#c"/>
<use transform="translate(223)" xlink:href="#o"/>
</g>
<path d="m40.6 429h676" clip-path="url(#j)" fill="none" stroke="#b0b0b0" stroke-linecap="square" stroke-width=".8"/>
<use x="40.645553" y="429.386564" stroke="#000000" stroke-width=".8" xlink:href="#n"/>
<g transform="translate(3 433) scale(.1 -.1)">
<use xlink:href="#g"/>
<use transform="translate(63.6)" xlink:href="#m"/>
<use transform="translate(95.4)" xlink:href="#c"/>
<use transform="translate(159)" xlink:href="#c"/>
<use transform="translate(223)" xlink:href="#o"/>
</g>
<g stroke="#1f77b4" stroke-opacity=".9">
<path d="m71.4 624 25.7 26 15.7-13.8 12 6.09 14.1 36.6 11.3 12.2h3.68l1.99-6.09h1.73l2.09 6.09 1.91-12.2 1.44 12.2 2.14-6.09h5.83l1.88-6.09h1.68l1.99 6.09 1.41-6.09 2.2 6.09 1.83-12.2 2.12 6.09 1.77-6.09 0.957 6.09 0.957-6.09 1.39 6.09h2.36l1.78-6.09 2.07 6.09h1.66l2.06-6.09 1.92-6.09 1.78 12.2 1.95 6.09 0.141-6.09 1.7-12.2 1.91 6.09h1.65l2-6.09 2.01-60.9 1.83-30.5 1.69-6.09 1.96 6.09 1.79 22.7 1.89-0.403 1.37 1.88 0.649 2.77 1.37-3.69 1.82-2.96 0.369 1.67 1.69-3.88 1.94 4.29 2.19 10.9 1.94-16.2 1.42 4.63 0.461-1.14 1.66-2.31 0.538-5.43 1.34 1.82 1.59 1.46 0.936 3.5 1 0.317 1.86-4.38 2.32 6.91 1.36-0.511 0.444 0.168 0.943-0.527 0.816 2.15 1.45-3.9 0.15-2.32 1.65-2.14 2.49 3.66 1.7-1.53 2.05 0.302 0.543-2.79 0.73 1.03 2.51-12.1 1.57 3.51 3.7-0.256 2.05-13.6 1.66 2.85 1.81 2.25 2.2-6.15 1.9 2.68 1.79 4.01 1.96-0.399 1.78-3.35 1.92 7.05 1.94-4.63 1.63-1.23 2.09-1.9 2.02-0.749 1.75 7.61 2.01-1.62 1.72-4.96 3.6 0.851 1.58-1.77 0.714 2.06 1.44-3.58 2.16 3.39 1.39-1.18 2.57-47.8 1.52-15.8 1.51-1.83 0.579 1.2 1.78 5.3 1.81 0.1 2.05 2.24 1.86 12.1 1.84-2.99 0.148 3.16 0.977-4.65 0.815 4.68 1.22-13.1 0.597 5.08 1.8-3.28 1.55-3.07 1.93-0.0838 2.28 11 0.896 2.52 0.977-1.11 1.86-13.2 1.75 0.443 1.51-17.5 1.81 7.03 1.83-0.337 0.551-0.844 1.36 9.17 2.37 0.263 1.61-7.5 2.19 2.52 1.8 9.53 1.95-3.87 1.87-1.93 1.74 4.23 2.05-5.27 1.81 2.1 1.43-1.3 0.106-2.68 2.07 0.962 1.69 2.87 2.27-1.3 1.56-1.27 2.16-4.05 1.72 1.21 2.05 1.19 1.4-3.09 1.88 3.54 2.38-0.785 1.66-2.08 0.722 5.6 0.203-0.373 0.911 2.31 1.38-0.606 0.55-0.757 2.02 12.4 1.56-8.15 0.193-2.48 1.83-3.89 1.87 11.5 0.365-7.34 1.64 3.9 1.88-6.31 1.87 2.13 1.93-3.66 1.68 3.46 1.91-1.8 1.76 9.34 1.4-26 0.709-1.14 1.89-5.22 1.76 5.93 1.73 2.62 0.248-2.36 1.74 2.42 1.68-1.84 2.12-2.69 1.51 2.84 0.405 6.36 1.17-5.06 0.789-7.59 1.89 1.58 1.89 2.92 1.85 7.68 1.81-0.821 1.23-1.69 2.45 1.2 0.12 2.93 0.942-2.74 0.96 2.22 1.5 1.89 0.02 37.3 0.281 1.33 1.6 0.0281 2.26-3.65 1.66 1.87 2.02 4.09 1.73-4.68 0.278 0.301 1.81-19.2 1.87-2.67 1.62-0.512 2.04-1.62 1.9 6.98 1.93-1.34 1.4-1.67 0.542-3.54 1.46 4.01 0.304-0.36 1.45-16.5 0.449 4.25 1.12-26.8 0.672-3.45 1.78 7.12 1.99 1.52 1.95-1.82 1.92-4.31 1.75-2.06 1.81 1.21 0.471 3.11 1.32-4.98 2.02 1.84 1.54 3.24 2.28 1.76 1.86-1.98 1.91-0.426 1.88 1.79 1.93 0.527 1.62-1.53 2 4.19 1.92-2.71 1.89-4 0.742 0.823 1.21 3.45 1.82-1.05 1.8 4.84 1.15 1.46 0.795-4.31 1.64-0.511 2.13-0.919 1.9 1.4 0.94 7.66 2.81-2.9 1.89 0.389 1.56-1.25 2.06-3.64 1.34 1.86 2.38 1.85 1.52-2.54 1.9-0.334 2.27 6.12 1.68-5.44 2.03-0.9 3.87 4.92 1.87 1.45 1.91-3.66 1.77-1.85 1.79-1.53 1.13 3.1 2.72-4.61 1.77 1.81 1.77 0.267 2.1-1.84 1.74 0.227 1.65 2.5 2.1-5.69 1.41 6.84 2.51-0.46 1.39-2.36 2.32 4.66 1.47-5.71 2.33-2.47 1.67 3.63 1.98 3.84 2.01-4.43 1.06 0.497 2.65-0.242 1.84 0.965 1.85 1.68 1.35 1.59 2.14-3.48 2.2 2.06 1.88-0.0792 1.9-2.13 1.68 3.67 1.98-4.56 1.39-2.69 2.15 1.46 2.15 3.88 1.73-3.82 1.56 6.28 2.37-7.63 1.27 1.99 1.63 2.1 2.57-2.68 3.39 6.41 1.9-2.29 2.14 0.275 1.47-1.43 2.42 2.04 1.94-1.89 1.43 5.45 2.17-2.99 2.03-1.08 1.88 1.5 1.77-1.26 1.55 1.82 2.05-1.41 2.15-0.244 1.3-0.298 1.94 0.303 1.93-2.66 1.72-2.68 2.16 5.91 2.18-1.42 1.91 2.14 3.35 1.67 2.03-4.2 1.49 4.31 1.97-1.22 2.11-1.64 1.85-1.19 1.78 2.6 2.22-0.965 1.37-0.339" clip-path="url(#j)" fill="none" stroke-dasharray="1.5,2.475" stroke-width="1.5"/>
<g clip-path="url(#j)" fill="#1f77b4" fill-opacity=".9">
<use x="71.388926" y="624.411136" xlink:href="#a"/>
<use x="97.053838" y="650.438901" xlink:href="#a"/>
<use x="112.734699" y="636.600172" xlink:href="#a"/>
<use x="124.746219" y="642.69469" xlink:href="#a"/>
<use x="138.893653" y="679.261797" xlink:href="#a"/>
<use x="150.23658" y="691.450833" xlink:href="#a"/>
<use x="152.088586" y="691.450833" xlink:href="#a"/>
<use x="153.913649" y="691.450833" xlink:href="#a"/>
<use x="155.906013" y="685.356315" xlink:href="#a"/>
<use x="157.631795" y="685.356315" xlink:href="#a"/>
<use x="159.723223" y="691.450833" xlink:href="#a"/>
<use x="161.629419" y="679.261797" xlink:href="#a"/>
<use x="163.067364" y="691.450833" xlink:href="#a"/>
<use x="165.210658" y="685.356315" xlink:href="#a"/>
<use x="167.106346" y="685.356315" xlink:href="#a"/>
<use x="168.978868" y="685.356315" xlink:href="#a"/>
<use x="171.036863" y="685.356315" xlink:href="#a"/>
<use x="172.911904" y="679.261797" xlink:href="#a"/>
<use x="174.594829" y="679.261797" xlink:href="#a"/>
<use x="176.583155" y="685.356315" xlink:href="#a"/>
<use x="177.990293" y="679.261797" xlink:href="#a"/>
<use x="180.193834" y="685.356315" xlink:href="#a"/>
<use x="182.024455" y="673.16728" xlink:href="#a"/>
<use x="184.142197" y="679.261797" xlink:href="#a"/>
<use x="185.913592" y="673.16728" xlink:href="#a"/>
<use x="186.870609" y="679.261797" xlink:href="#a"/>
<use x="187.82769" y="673.16728" xlink:href="#a"/>
<use x="189.214551" y="679.261797" xlink:href="#a"/>
<use x="190.058261" y="679.261797" xlink:href="#a"/>
<use x="191.577099" y="679.261797" xlink:href="#a"/>
<use x="193.353097" y="673.16728" xlink:href="#a"/>
<use x="195.420014" y="679.261797" xlink:href="#a"/>
<use x="197.076952" y="679.261797" xlink:href="#a"/>
<use x="199.137009" y="673.16728" xlink:href="#a"/>
<use x="201.061897" y="667.072762" xlink:href="#a"/>
<use x="202.841608" y="679.261797" xlink:href="#a"/>
<use x="204.793373" y="685.356315" xlink:href="#a"/>
<use x="204.934838" y="679.261797" xlink:href="#a"/>
<use x="206.638236" y="667.072762" xlink:href="#a"/>
<use x="208.549859" y="673.16728" xlink:href="#a"/>
<use x="210.201978" y="673.16728" xlink:href="#a"/>
<use x="212.201897" y="667.072762" xlink:href="#a"/>
<use x="213.800933" y="617.65062" xlink:href="#a"/>
<use x="214.20974" y="606.127583" xlink:href="#a"/>
<use x="215.734983" y="581.749511" xlink:href="#a"/>
<use x="216.042098" y="575.654993" xlink:href="#a"/>
<use x="217.733122" y="569.560475" xlink:href="#a"/>
<use x="219.689425" y="575.654993" xlink:href="#a"/>
<use x="221.475562" y="598.355971" xlink:href="#a"/>
<use x="223.367081" y="597.953438" xlink:href="#a"/>
<use x="224.733164" y="599.83082" xlink:href="#a"/>
<use x="225.38198" y="602.597045" xlink:href="#a"/>
<use x="226.750061" y="598.904224" xlink:href="#a"/>
<use x="228.5705" y="595.947943" xlink:href="#a"/>
<use x="228.939121" y="597.617484" xlink:href="#a"/>
<use x="230.627322" y="593.735874" xlink:href="#a"/>
<use x="232.567972" y="598.023762" xlink:href="#a"/>
<use x="234.757618" y="608.882181" xlink:href="#a"/>
<use x="236.698029" y="592.68274" xlink:href="#a"/>
<use x="238.118975" y="597.31241" xlink:href="#a"/>
<use x="238.58043" y="596.168738" xlink:href="#a"/>
<use x="240.240776" y="593.857852" xlink:href="#a"/>
<use x="240.779195" y="588.427535" xlink:href="#a"/>
<use x="242.116599" y="590.251481" xlink:href="#a"/>
<use x="243.704433" y="591.712087" xlink:href="#a"/>
<use x="244.640585" y="595.208485" xlink:href="#a"/>
<use x="245.642564" y="595.525273" xlink:href="#a"/>
<use x="247.498543" y="591.147401" xlink:href="#a"/>
<use x="249.815326" y="598.056294" xlink:href="#a"/>
<use x="250.855341" y="597.719603" xlink:href="#a"/>
<use x="251.180107" y="597.54522" xlink:href="#a"/>
<use x="251.623954" y="597.713197" xlink:href="#a"/>
<use x="252.567011" y="597.18612" xlink:href="#a"/>
<use x="253.383366" y="599.336633" xlink:href="#a"/>
<use x="254.832839" y="595.434782" xlink:href="#a"/>
<use x="254.983292" y="593.117076" xlink:href="#a"/>
<use x="256.635736" y="590.980719" xlink:href="#a"/>
<use x="259.125312" y="594.641602" xlink:href="#a"/>
<use x="260.822089" y="593.112269" xlink:href="#a"/>
<use x="262.877044" y="593.413929" xlink:href="#a"/>
<use x="263.42039" y="590.622531" xlink:href="#a"/>
<use x="264.150185" y="591.650189" xlink:href="#a"/>
<use x="266.656673" y="579.539529" xlink:href="#a"/>
<use x="268.222775" y="583.047363" xlink:href="#a"/>
<use x="271.923248" y="582.791181" xlink:href="#a"/>
<use x="273.976228" y="569.219985" xlink:href="#a"/>
<use x="275.632732" y="572.067775" xlink:href="#a"/>
<use x="277.446788" y="574.319811" xlink:href="#a"/>
<use x="279.650242" y="568.168418" xlink:href="#a"/>
<use x="281.546081" y="570.851548" xlink:href="#a"/>
<use x="283.339209" y="574.857086" xlink:href="#a"/>
<use x="285.295273" y="574.458054" xlink:href="#a"/>
<use x="287.073182" y="571.107823" xlink:href="#a"/>
<use x="288.988669" y="578.159393" xlink:href="#a"/>
<use x="290.92819" y="573.529708" xlink:href="#a"/>
<use x="292.558315" y="572.300002" xlink:href="#a"/>
<use x="294.650178" y="570.398418" xlink:href="#a"/>
<use x="296.669224" y="569.649737" xlink:href="#a"/>
<use x="298.414415" y="577.260072" xlink:href="#a"/>
<use x="300.42076" y="575.644787" xlink:href="#a"/>
<use x="302.14524" y="570.687503" xlink:href="#a"/>
<use x="305.744369" y="571.538998" xlink:href="#a"/>
<use x="307.319459" y="569.765076" xlink:href="#a"/>
<use x="308.033883" y="571.822073" xlink:href="#a"/>
<use x="309.47274" y="568.243299" xlink:href="#a"/>
<use x="311.637528" y="571.633433" xlink:href="#a"/>
<use x="313.029425" y="570.455168" xlink:href="#a"/>
<use x="315.398899" y="524.386264" xlink:href="#a"/>
<use x="315.596703" y="522.607864" xlink:href="#a"/>
<use x="317.114195" y="506.845419" xlink:href="#a"/>
<use x="318.623025" y="505.02002" xlink:href="#a"/>
<use x="319.20241" y="506.222665" xlink:href="#a"/>
<use x="320.982077" y="511.517916" xlink:href="#a"/>
<use x="322.792486" y="511.618179" xlink:href="#a"/>
<use x="324.840559" y="513.856728" xlink:href="#a"/>
<use x="326.700945" y="525.919196" xlink:href="#a"/>
<use x="328.544137" y="522.925746" xlink:href="#a"/>
<use x="328.692484" y="526.089117" xlink:href="#a"/>
<use x="329.669887" y="521.438436" xlink:href="#a"/>
<use x="330.484917" y="526.115573" xlink:href="#a"/>
<use x="331.703457" y="513.029971" xlink:href="#a"/>
<use x="332.299972" y="518.107573" xlink:href="#a"/>
<use x="334.097659" y="514.829282" xlink:href="#a"/>
<use x="335.645545" y="511.763649" xlink:href="#a"/>
<use x="337.573842" y="511.679886" xlink:href="#a"/>
<use x="339.856409" y="522.675348" xlink:href="#a"/>
<use x="340.752592" y="525.197923" xlink:href="#a"/>
<use x="341.729713" y="524.092178" xlink:href="#a"/>
<use x="343.594636" y="510.878753" xlink:href="#a"/>
<use x="345.343214" y="511.322078" xlink:href="#a"/>
<use x="346.84996" y="493.869335" xlink:href="#a"/>
<use x="348.658241" y="500.901771" xlink:href="#a"/>
<use x="350.491403" y="500.56431" xlink:href="#a"/>
<use x="351.042261" y="499.720714" xlink:href="#a"/>
<use x="352.399964" y="508.887595" xlink:href="#a"/>
<use x="354.767071" y="509.151013" xlink:href="#a"/>
<use x="356.381175" y="501.649981" xlink:href="#a"/>
<use x="358.567738" y="504.166302" xlink:href="#a"/>
<use x="360.369029" y="513.697459" xlink:href="#a"/>
<use x="362.31719" y="509.826404" xlink:href="#a"/>
<use x="364.182548" y="507.893733" xlink:href="#a"/>
<use x="365.926936" y="512.125742" xlink:href="#a"/>
<use x="367.975378" y="506.858415" xlink:href="#a"/>
<use x="369.786156" y="508.95485" xlink:href="#a"/>
<use x="371.219282" y="507.653729" xlink:href="#a"/>
<use x="371.325597" y="504.977031" xlink:href="#a"/>
<use x="373.397682" y="505.939017" xlink:href="#a"/>
<use x="375.090638" y="508.806791" xlink:href="#a"/>
<use x="377.364716" y="507.511379" xlink:href="#a"/>
<use x="378.926519" y="506.241841" xlink:href="#a"/>
<use x="381.087442" y="502.18964" xlink:href="#a"/>
<use x="382.80632" y="503.403576" xlink:href="#a"/>
<use x="384.85715" y="504.590898" xlink:href="#a"/>
<use x="386.257992" y="501.505521" xlink:href="#a"/>
<use x="388.134227" y="505.040637" xlink:href="#a"/>
<use x="390.512689" y="504.255986" xlink:href="#a"/>
<use x="392.172732" y="502.179666" xlink:href="#a"/>
<use x="392.894494" y="507.775455" xlink:href="#a"/>
<use x="393.097334" y="507.40219" xlink:href="#a"/>
<use x="394.008716" y="509.713142" xlink:href="#a"/>
<use x="395.387153" y="509.107523" xlink:href="#a"/>
<use x="395.937055" y="508.350728" xlink:href="#a"/>
<use x="397.953996" y="520.772015" xlink:href="#a"/>
<use x="399.512151" y="512.625884" xlink:href="#a"/>
<use x="399.705548" y="510.142721" xlink:href="#a"/>
<use x="401.539426" y="506.251518" xlink:href="#a"/>
<use x="403.409907" y="517.729802" xlink:href="#a"/>
<use x="403.774881" y="510.386423" xlink:href="#a"/>
<use x="405.412019" y="514.282452" xlink:href="#a"/>
<use x="407.294984" y="507.976815" xlink:href="#a"/>
<use x="409.165379" y="510.105522" xlink:href="#a"/>
<use x="411.094718" y="506.450263" xlink:href="#a"/>
<use x="412.773779" y="509.906301" xlink:href="#a"/>
<use x="414.684794" y="508.105454" xlink:href="#a"/>
<use x="416.446332" y="517.44436" xlink:href="#a"/>
<use x="417.849975" y="491.490558" xlink:href="#a"/>
<use x="418.558538" y="490.351908" xlink:href="#a"/>
<use x="420.443544" y="485.127413" xlink:href="#a"/>
<use x="422.199394" y="491.057074" xlink:href="#a"/>
<use x="423.929779" y="493.675979" xlink:href="#a"/>
<use x="424.177777" y="491.317653" xlink:href="#a"/>
<use x="425.921708" y="493.739398" xlink:href="#a"/>
<use x="427.604113" y="491.903899" xlink:href="#a"/>
<use x="429.724069" y="489.21173" xlink:href="#a"/>
<use x="431.236915" y="492.049713" xlink:href="#a"/>
<use x="431.641749" y="498.404756" xlink:href="#a"/>
<use x="432.809682" y="493.344344" xlink:href="#a"/>
<use x="433.59905" y="485.753455" xlink:href="#a"/>
<use x="435.486835" y="487.338331" xlink:href="#a"/>
<use x="437.379896" y="490.259334" xlink:href="#a"/>
<use x="439.227191" y="497.940895" xlink:href="#a"/>
<use x="441.034083" y="497.119599" xlink:href="#a"/>
<use x="442.260004" y="495.433027" xlink:href="#a"/>
<use x="444.705638" y="496.628216" xlink:href="#a"/>
<use x="444.825913" y="499.557969" xlink:href="#a"/>
<use x="445.767602" y="496.821843" xlink:href="#a"/>
<use x="446.727484" y="499.044271" xlink:href="#a"/>
<use x="448.224569" y="500.932351" xlink:href="#a"/>
<use x="448.244542" y="538.278877" xlink:href="#a"/>
<use x="448.525649" y="539.612864" xlink:href="#a"/>
<use x="450.128919" y="539.640937" xlink:href="#a"/>
<use x="452.384304" y="535.987248" xlink:href="#a"/>
<use x="454.048428" y="537.854758" xlink:href="#a"/>
<use x="456.069602" y="541.945077" xlink:href="#a"/>
<use x="457.796708" y="537.263433" xlink:href="#a"/>
<use x="458.074428" y="537.564716" xlink:href="#a"/>
<use x="459.883252" y="518.405415" xlink:href="#a"/>
<use x="461.752431" y="515.739586" xlink:href="#a"/>
<use x="463.370898" y="515.227485" xlink:href="#a"/>
<use x="465.409766" y="513.603294" xlink:href="#a"/>
<use x="467.309426" y="520.581321" xlink:href="#a"/>
<use x="469.237744" y="519.239165" xlink:href="#a"/>
<use x="470.633571" y="517.5684" xlink:href="#a"/>
<use x="471.175333" y="514.027143" xlink:href="#a"/>
<use x="472.639743" y="518.035981" xlink:href="#a"/>
<use x="472.944036" y="517.676184" xlink:href="#a"/>
<use x="474.393336" y="501.203162" xlink:href="#a"/>
<use x="474.842351" y="505.455886" xlink:href="#a"/>
<use x="475.966233" y="478.690573" xlink:href="#a"/>
<use x="476.638214" y="475.239693" xlink:href="#a"/>
<use x="478.419552" y="482.362308" xlink:href="#a"/>
<use x="480.41311" y="483.878624" xlink:href="#a"/>
<use x="482.363486" y="482.059533" xlink:href="#a"/>
<use x="484.281427" y="477.750003" xlink:href="#a"/>
<use x="486.035758" y="475.687439" xlink:href="#a"/>
<use x="487.850422" y="476.901778" xlink:href="#a"/>
<use x="488.321516" y="480.007598" xlink:href="#a"/>
<use x="489.639728" y="475.027153" xlink:href="#a"/>
<use x="491.65745" y="476.865229" xlink:href="#a"/>
<use x="493.199518" y="480.103711" xlink:href="#a"/>
<use x="495.479285" y="481.866369" xlink:href="#a"/>
<use x="497.33737" y="479.881851" xlink:href="#a"/>
<use x="499.251489" y="479.456186" xlink:href="#a"/>
<use x="501.131263" y="481.242132" xlink:href="#a"/>
<use x="503.065769" y="481.769621" xlink:href="#a"/>
<use x="504.68784" y="480.239012" xlink:href="#a"/>
<use x="506.684329" y="484.43261" xlink:href="#a"/>
<use x="508.60025" y="481.720712" xlink:href="#a"/>
<use x="510.488491" y="477.72117" xlink:href="#a"/>
<use x="511.230922" y="478.544143" xlink:href="#a"/>
<use x="512.439974" y="481.992616" xlink:href="#a"/>
<use x="514.260457" y="480.938089" xlink:href="#a"/>
<use x="516.061074" y="485.775228" xlink:href="#a"/>
<use x="517.211574" y="487.237821" xlink:href="#a"/>
<use x="518.006891" y="482.924046" xlink:href="#a"/>
<use x="519.645419" y="482.413298" xlink:href="#a"/>
<use x="521.772583" y="481.49381" xlink:href="#a"/>
<use x="523.671244" y="482.895153" xlink:href="#a"/>
<use x="524.610979" y="490.558479" xlink:href="#a"/>
<use x="527.424344" y="487.659509" xlink:href="#a"/>
<use x="529.31671" y="488.04895" xlink:href="#a"/>
<use x="530.879034" y="486.796099" xlink:href="#a"/>
<use x="532.937289" y="483.151326" xlink:href="#a"/>
<use x="534.273933" y="485.008064" xlink:href="#a"/>
<use x="536.654523" y="486.85516" xlink:href="#a"/>
<use x="538.17601" y="484.315466" xlink:href="#a"/>
<use x="540.071198" y="483.981403" xlink:href="#a"/>
<use x="542.345905" y="490.105253" xlink:href="#a"/>
<use x="544.025162" y="484.665412" xlink:href="#a"/>
<use x="546.051307" y="483.765626" xlink:href="#a"/>
<use x="547.687968" y="485.887427" xlink:href="#a"/>
<use x="549.925876" y="488.686087" xlink:href="#a"/>
<use x="551.795207" y="490.135126" xlink:href="#a"/>
<use x="553.702054" y="486.478779" xlink:href="#a"/>
<use x="555.469628" y="484.628329" xlink:href="#a"/>
<use x="557.263016" y="483.094741" xlink:href="#a"/>
<use x="558.393238" y="486.196056" xlink:href="#a"/>
<use x="561.110252" y="481.58521" xlink:href="#a"/>
<use x="562.879802" y="483.399535" xlink:href="#a"/>
<use x="564.648353" y="483.666955" xlink:href="#a"/>
<use x="566.751288" y="481.825107" xlink:href="#a"/>
<use x="568.493005" y="482.052484" xlink:href="#a"/>
<use x="570.1405" y="484.547771" xlink:href="#a"/>
<use x="572.244954" y="478.860261" xlink:href="#a"/>
<use x="573.65561" y="485.701621" xlink:href="#a"/>
<use x="576.162771" y="485.241126" xlink:href="#a"/>
<use x="577.554364" y="482.884054" xlink:href="#a"/>
<use x="579.871733" y="487.547299" xlink:href="#a"/>
<use x="581.338466" y="481.832642" xlink:href="#a"/>
<use x="583.671162" y="479.363203" xlink:href="#a"/>
<use x="585.343753" y="482.998084" xlink:href="#a"/>
<use x="587.32359" y="486.8366" xlink:href="#a"/>
<use x="589.32948" y="482.407366" xlink:href="#a"/>
<use x="590.384649" y="482.904259" xlink:href="#a"/>
<use x="593.038442" y="482.662626" xlink:href="#a"/>
<use x="594.88209" y="483.62774" xlink:href="#a"/>
<use x="596.727496" y="485.311524" xlink:href="#a"/>
<use x="598.077601" y="486.89901" xlink:href="#a"/>
<use x="600.220895" y="483.414533" xlink:href="#a"/>
<use x="602.417576" y="485.472413" xlink:href="#a"/>
<use x="604.29342" y="485.39323" xlink:href="#a"/>
<use x="606.196815" y="483.258281" xlink:href="#a"/>
<use x="607.87694" y="486.930708" xlink:href="#a"/>
<use x="609.855061" y="482.370239" xlink:href="#a"/>
<use x="611.245852" y="479.676961" xlink:href="#a"/>
<use x="613.39694" y="481.133577" xlink:href="#a"/>
<use x="615.548702" y="485.008771" xlink:href="#a"/>
<use x="617.274918" y="481.190089" xlink:href="#a"/>
<use x="618.835874" y="487.469263" xlink:href="#a"/>
<use x="621.207063" y="479.843051" xlink:href="#a"/>
<use x="622.481573" y="481.834166" xlink:href="#a"/>
<use x="624.113479" y="483.931772" xlink:href="#a"/>
<use x="626.682927" y="481.252426" xlink:href="#a"/>
<use x="628.54848" y="484.798968" xlink:href="#a"/>
<use x="630.072594" y="487.661533" xlink:href="#a"/>
<use x="631.971169" y="485.374883" xlink:href="#a"/>
<use x="634.107864" y="485.650342" xlink:href="#a"/>
<use x="635.579807" y="484.21616" xlink:href="#a"/>
<use x="638.003253" y="486.257054" xlink:href="#a"/>
<use x="639.944033" y="484.364875" xlink:href="#a"/>
<use x="641.371861" y="489.815693" xlink:href="#a"/>
<use x="643.546549" y="486.821531" xlink:href="#a"/>
<use x="645.574257" y="485.74011" xlink:href="#a"/>
<use x="647.453423" y="487.237124" xlink:href="#a"/>
<use x="649.218523" y="485.980211" xlink:href="#a"/>
<use x="650.769796" y="487.800823" xlink:href="#a"/>
<use x="652.818477" y="486.390884" xlink:href="#a"/>
<use x="654.973191" y="486.146735" xlink:href="#a"/>
<use x="656.275946" y="485.84863" xlink:href="#a"/>
<use x="658.213556" y="486.151848" xlink:href="#a"/>
<use x="660.142308" y="483.488197" xlink:href="#a"/>
<use x="661.858646" y="480.81267" xlink:href="#a"/>
<use x="664.015879" y="486.727345" xlink:href="#a"/>
<use x="666.192173" y="485.304192" xlink:href="#a"/>
<use x="668.099194" y="487.441874" xlink:href="#a"/>
<use x="669.700531" y="488.215213" xlink:href="#a"/>
<use x="671.449196" y="489.116795" xlink:href="#a"/>
<use x="673.480986" y="484.91928" xlink:href="#a"/>
<use x="674.967107" y="489.229527" xlink:href="#a"/>
<use x="676.935328" y="488.007052" xlink:href="#a"/>
<use x="679.042041" y="486.364948" xlink:href="#a"/>
<use x="680.887252" y="485.172275" xlink:href="#a"/>
<use x="682.672064" y="487.773302" xlink:href="#a"/>
<use x="684.889739" y="486.808151" xlink:href="#a"/>
<use x="686.256387" y="486.469179" xlink:href="#a"/>
</g>
</g>
<g stroke="#2ca02c" stroke-opacity=".9">
<path d="m71.4 591 296-104 58-7.33 6.21-1.13 1.17 2.85 0.789-0.959 1.89 0.204 1.89-29.5 1.85 33.1 1.81-33.4 1.23 30.5 2.57-44 0.942 2.94 0.96 11 1.8 27.4 1.6-27.5 2.26-46 1.66 1.05 3.75 82 2.09-14.9 1.87-29 1.62-7.7 2.04-6.37 1.9-2.4 1.93 2.45 1.94-0.568 1.77-1.12 1.9 2.18 1.12 2.63 0.672-2.8 1.78 3.97 1.99 0.752 1.95-1.94 1.92 0.798 3.57 1.78 1.79-0.887 2.02-9.97 1.54-6.25 4.14 5.35 1.91-6.83 1.88 25.2 1.93-0.256 7.42-2.64 0.742-4.58 1.21 0.921 1.82-7.33 1.8 10.6 1.95 3.57 1.64 1.29 2.13-2.7 1.9-7.47 0.94 10.4 2.81-11.6 1.89 10.2 1.56-8.52 2.06 1.66 1.34 0.0716 2.38 2.58 1.52-0.47 1.9 1.17 2.27 5.61 1.68-5.4 2.03 3.47 1.64 1.93 2.24 1.3 1.87 0.0324 1.91-12 1.77 5.23 1.79 3.56 1.13-4.21 2.72-3.03 1.77-3.31 1.77-2.3 2.1 10.9 1.74-2.75 1.65 0.388 2.1-0.668 1.41 2.84 2.51 1.94 1.39-0.0635 2.32 2.67 1.47-2.05 2.33-7.08 1.67 5.53 1.98 3.77 2.01-3.14 1.06-0.148 2.65 2.78 1.84-3.05 1.85-0.572 1.35-1.64 2.14 2.77 2.2-4.18 1.88-0.568 1.9 3.6 1.68-2.59 1.98-4.23 1.39 0.346 2.15 0.317 2.15 1.48 1.73-7.54 1.56-3.67 2.37 2.49 1.27-0.502 1.63 1.16 2.57-1.89 1.87 9.54 1.52-9.56 1.9 11.4 2.14-14.2 1.47 2.02 2.42-0.872 1.94 1.94 1.43 3.21 2.17 5.63 2.03-0.279 1.88-7.34 1.77-2.61 1.55 11.2 2.05-7.74 2.15 2.36 1.3-7.25 1.94 7.55 1.93 1.55 1.72 5.43 2.16-15.3 2.18 4.06 1.91 8.32 1.6-5.12 1.75-0.451 2.03 3.71 1.49-1.89 1.97 3.53 2.11-1.38 1.85 7.74 1.78-5.94 2.22 3.94 1.37-10.3v0" clip-path="url(#j)" fill="none" stroke-linecap="square" stroke-width="1.5"/>
<g clip-path="url(#j)" fill="#2ca02c" fill-opacity=".9">
<use x="71.388926" y="590.825897" xlink:href="#b"/>
<use x="367.450855" y="486.423282" xlink:href="#b"/>
<use x="425.428774" y="479.090914" xlink:href="#b"/>
<use x="431.641749" y="477.956888" xlink:href="#b"/>
<use x="432.809682" y="480.802795" xlink:href="#b"/>
<use x="433.59905" y="479.843732" xlink:href="#b"/>
<use x="435.486835" y="480.04808" xlink:href="#b"/>
<use x="437.379896" y="450.533416" xlink:href="#b"/>
<use x="439.227191" y="483.67739" xlink:href="#b"/>
<use x="441.034083" y="450.25215" xlink:href="#b"/>
<use x="442.260004" y="480.758447" xlink:href="#b"/>
<use x="444.825913" y="436.798432" xlink:href="#b"/>
<use x="445.767602" y="439.734179" xlink:href="#b"/>
<use x="446.727484" y="450.703188" xlink:href="#b"/>
<use x="448.525649" y="478.115182" xlink:href="#b"/>
<use x="450.128919" y="450.585353" xlink:href="#b"/>
<use x="452.384304" y="404.603397" xlink:href="#b"/>
<use x="454.048428" y="405.648692" xlink:href="#b"/>
<use x="456.069602" y="451.152398" xlink:href="#b"/>
<use x="457.796708" y="487.675674" xlink:href="#b"/>
<use x="459.883252" y="472.726416" xlink:href="#b"/>
<use x="461.752431" y="443.695104" xlink:href="#b"/>
<use x="463.370898" y="435.990723" xlink:href="#b"/>
<use x="465.409766" y="429.619522" xlink:href="#b"/>
<use x="467.309426" y="427.221309" xlink:href="#b"/>
<use x="469.237744" y="429.666706" xlink:href="#b"/>
<use x="471.175333" y="429.098758" xlink:href="#b"/>
<use x="472.944036" y="427.981289" xlink:href="#b"/>
<use x="474.842351" y="430.156422" xlink:href="#b"/>
<use x="475.966233" y="432.783108" xlink:href="#b"/>
<use x="476.638214" y="429.978845" xlink:href="#b"/>
<use x="478.419552" y="433.945535" xlink:href="#b"/>
<use x="480.41311" y="434.697095" xlink:href="#b"/>
<use x="482.363486" y="432.755402" xlink:href="#b"/>
<use x="484.281427" y="433.55294" xlink:href="#b"/>
<use x="487.850422" y="435.33429" xlink:href="#b"/>
<use x="489.639728" y="434.447651" xlink:href="#b"/>
<use x="491.65745" y="424.476215" xlink:href="#b"/>
<use x="493.199518" y="418.229892" xlink:href="#b"/>
<use x="495.479285" y="421.212873" xlink:href="#b"/>
<use x="497.33737" y="423.577611" xlink:href="#b"/>
<use x="499.251489" y="416.742934" xlink:href="#b"/>
<use x="501.131263" y="441.965147" xlink:href="#b"/>
<use x="503.065769" y="441.7094" xlink:href="#b"/>
<use x="510.488491" y="439.066298" xlink:href="#b"/>
<use x="511.230922" y="434.490071" xlink:href="#b"/>
<use x="512.439974" y="435.410594" xlink:href="#b"/>
<use x="514.260457" y="428.080417" xlink:href="#b"/>
<use x="516.061074" y="438.725018" xlink:href="#b"/>
<use x="517.211574" y="440.736701" xlink:href="#b"/>
<use x="518.006891" y="442.296547" xlink:href="#b"/>
<use x="519.645419" y="443.58502" xlink:href="#b"/>
<use x="521.772583" y="440.881457" xlink:href="#b"/>
<use x="523.671244" y="433.415076" xlink:href="#b"/>
<use x="524.610979" y="443.824806" xlink:href="#b"/>
<use x="527.424344" y="432.25971" xlink:href="#b"/>
<use x="529.31671" y="442.429748" xlink:href="#b"/>
<use x="530.879034" y="433.912545" xlink:href="#b"/>
<use x="532.937289" y="435.575443" xlink:href="#b"/>
<use x="534.273933" y="435.64703" xlink:href="#b"/>
<use x="536.654523" y="438.231516" xlink:href="#b"/>
<use x="538.17601" y="437.76165" xlink:href="#b"/>
<use x="540.071198" y="438.933701" xlink:href="#b"/>
<use x="542.345905" y="444.547205" xlink:href="#b"/>
<use x="544.025162" y="439.144274" xlink:href="#b"/>
<use x="546.051307" y="442.61407" xlink:href="#b"/>
<use x="547.687968" y="444.542052" xlink:href="#b"/>
<use x="549.925876" y="445.846633" xlink:href="#b"/>
<use x="551.795207" y="445.879042" xlink:href="#b"/>
<use x="553.702054" y="433.843706" xlink:href="#b"/>
<use x="555.469628" y="439.070576" xlink:href="#b"/>
<use x="557.263016" y="442.627897" xlink:href="#b"/>
<use x="558.393238" y="438.421994" xlink:href="#b"/>
<use x="561.110252" y="435.387767" xlink:href="#b"/>
<use x="562.879802" y="432.075366" xlink:href="#b"/>
<use x="564.648353" y="429.775491" xlink:href="#b"/>
<use x="566.751288" y="440.633672" xlink:href="#b"/>
<use x="568.493005" y="437.882961" xlink:href="#b"/>
<use x="570.1405" y="438.271255" xlink:href="#b"/>
<use x="572.244954" y="437.603321" xlink:href="#b"/>
<use x="573.65561" y="440.438728" xlink:href="#b"/>
<use x="576.162771" y="442.374395" xlink:href="#b"/>
<use x="577.554364" y="442.310934" xlink:href="#b"/>
<use x="579.871733" y="444.984506" xlink:href="#b"/>
<use x="581.338466" y="442.938277" xlink:href="#b"/>
<use x="583.671162" y="435.858158" xlink:href="#b"/>
<use x="585.343753" y="441.385143" xlink:href="#b"/>
<use x="587.32359" y="445.152676" xlink:href="#b"/>
<use x="589.32948" y="442.009866" xlink:href="#b"/>
<use x="590.384649" y="441.861525" xlink:href="#b"/>
<use x="593.038442" y="444.645561" xlink:href="#b"/>
<use x="594.88209" y="441.598887" xlink:href="#b"/>
<use x="596.727496" y="441.027272" xlink:href="#b"/>
<use x="598.077601" y="439.383648" xlink:href="#b"/>
<use x="600.220895" y="442.151811" xlink:href="#b"/>
<use x="602.417576" y="437.970925" xlink:href="#b"/>
<use x="604.29342" y="437.403201" xlink:href="#b"/>
<use x="606.196815" y="441.006172" xlink:href="#b"/>
<use x="607.87694" y="438.415583" xlink:href="#b"/>
<use x="609.855061" y="434.187421" xlink:href="#b"/>
<use x="611.245852" y="434.53318" xlink:href="#b"/>
<use x="613.39694" y="434.850184" xlink:href="#b"/>
<use x="615.548702" y="436.328271" xlink:href="#b"/>
<use x="617.274918" y="428.790261" xlink:href="#b"/>
<use x="618.835874" y="425.122491" xlink:href="#b"/>
<use x="621.207063" y="427.614273" xlink:href="#b"/>
<use x="622.481573" y="427.112012" xlink:href="#b"/>
<use x="624.113479" y="428.276837" xlink:href="#b"/>
<use x="626.682927" y="426.385274" xlink:href="#b"/>
<use x="628.54848" y="435.928909" xlink:href="#b"/>
<use x="630.072594" y="426.36595" xlink:href="#b"/>
<use x="631.971169" y="437.781399" xlink:href="#b"/>
<use x="634.107864" y="423.614996" xlink:href="#b"/>
<use x="635.579807" y="425.630382" xlink:href="#b"/>
<use x="638.003253" y="424.758127" xlink:href="#b"/>
<use x="639.944033" y="426.701953" xlink:href="#b"/>
<use x="641.371861" y="429.915945" xlink:href="#b"/>
<use x="643.546549" y="435.542203" xlink:href="#b"/>
<use x="645.574257" y="435.263173" xlink:href="#b"/>
<use x="647.453423" y="427.927422" xlink:href="#b"/>
<use x="649.218523" y="425.318932" xlink:href="#b"/>
<use x="650.769796" y="436.535438" xlink:href="#b"/>
<use x="652.818477" y="428.799138" xlink:href="#b"/>
<use x="654.973191" y="431.160355" xlink:href="#b"/>
<use x="656.275946" y="423.913513" xlink:href="#b"/>
<use x="658.213556" y="431.464035" xlink:href="#b"/>
<use x="660.142308" y="433.016748" xlink:href="#b"/>
<use x="661.858646" y="438.450962" xlink:href="#b"/>
<use x="664.015879" y="423.190511" xlink:href="#b"/>
<use x="666.192173" y="427.247034" xlink:href="#b"/>
<use x="668.099194" y="435.568892" xlink:href="#b"/>
<use x="669.700531" y="430.446773" xlink:href="#b"/>
<use x="671.449196" y="429.995978" xlink:href="#b"/>
<use x="673.480986" y="433.703129" xlink:href="#b"/>
<use x="674.967107" y="431.814641" xlink:href="#b"/>
<use x="676.935328" y="435.344777" xlink:href="#b"/>
<use x="679.042041" y="433.967849" xlink:href="#b"/>
<use x="680.887252" y="441.707466" xlink:href="#b"/>
<use x="682.672064" y="435.765891" xlink:href="#b"/>
<use x="684.889739" y="439.705934" xlink:href="#b"/>
<use x="686.256387" y="429.40878" xlink:href="#b"/>
</g>
</g>
<path d="m40.6 706v-316" fill="none" stroke="#000" stroke-linecap="square" stroke-width=".8"/>
<path d="m717 706v-316" fill="none" stroke="#000" stroke-linecap="square" stroke-width=".8"/>
<path d="m40.6 706h676" fill="none" stroke="#000" stroke-linecap="square" stroke-width=".8"/>
<path d="m40.6 390h676" fill="none" stroke="#000" stroke-linecap="square" stroke-width=".8"/>
<g clip-path="url(#j)">
<g transform="translate(58.2 421) rotate(-90) scale(.1 -.1)">
<use xlink:href="#y"/>
<use transform="translate(35.2)" xlink:href="#r"/>
<use transform="translate(96.5)" xlink:href="#s"/>
<use transform="translate(149)" xlink:href="#p"/>
<use transform="translate(188)" xlink:href="#l"/>
<use transform="translate(249)" xlink:href="#q"/>
<use transform="translate(290)" xlink:href="#DejaVuSans-20"/>
<use transform="translate(322)" xlink:href="#aq"/>
</g>
</g>
<g clip-path="url(#j)">
<g transform="translate(58.2 489) rotate(-90) scale(.1 -.1)">
<use xlink:href="#ar"/>
<use transform="translate(143)" xlink:href="#DejaVuSans-20"/>
<use transform="translate(175)" xlink:href="#s"/>
<use transform="translate(227)" xlink:href="#x"/>
<use transform="translate(255)" xlink:href="#t"/>
<use transform="translate(316)" xlink:href="#af"/>
<use transform="translate(398)" xlink:href="#l"/>
<use transform="translate(460)" xlink:href="#q"/>
</g>
</g>
<g transform="translate(232 384) scale(.12 -.12)">
<use xlink:href="#an"/>
<use transform="translate(63.2)" xlink:href="#y"/>
<use transform="translate(98.4)" xlink:href="#y"/>
<use transform="translate(134)" xlink:href="#l"/>
<use transform="translate(195)" xlink:href="#z"/>
<use transform="translate(250)" xlink:href="#p"/>
<use transform="translate(289)" xlink:href="#DejaVuSans-20"/>
<use transform="translate(321)" xlink:href="#t"/>
<use transform="translate(382)" xlink:href="#y"/>
<use transform="translate(417)" xlink:href="#DejaVuSans-20"/>
<use transform="translate(449)" xlink:href="#y"/>
<use transform="translate(484)" xlink:href="#q"/>
<use transform="translate(523)" xlink:href="#l"/>
<use transform="translate(585)" xlink:href="#l"/>
<use transform="translate(646)" xlink:href="#DejaVuSans-20"/>
<use transform="translate(678)" xlink:href="#p"/>
<use transform="translate(717)" xlink:href="#as"/>
<use transform="translate(781)" xlink:href="#q"/>
<use transform="translate(820)" xlink:href="#l"/>
<use transform="translate(881)" xlink:href="#r"/>
<use transform="translate(942)" xlink:href="#am"/>
<use transform="translate(1006)" xlink:href="#u"/>
<use transform="translate(1034)" xlink:href="#aa"/>
<use transform="translate(1097)" xlink:href="#al"/>
<use transform="translate(1161)" xlink:href="#DejaVuSans-20"/>
<use transform="translate(1192)" xlink:href="#ac"/>
<use transform="translate(1252)" xlink:href="#s"/>
<use transform="translate(1304)" xlink:href="#m"/>
<use transform="translate(1335)" xlink:href="#DejaVuSans-20"/>
<use transform="translate(1367)" xlink:href="#ag"/>
<use transform="translate(1425)" xlink:href="#u"/>
<use transform="translate(1453)" xlink:href="#l"/>
<use transform="translate(1514)" xlink:href="#q"/>
<use transform="translate(1556)" xlink:href="#DejaVuSans-20"/>
<use transform="translate(1587)" xlink:href="#g"/>
<use transform="translate(1651)" xlink:href="#DejaVuSans-20"/>
<use transform="translate(1683)" xlink:href="#ap"/>
<use transform="translate(1722)" xlink:href="#s"/>
<use transform="translate(1774)" xlink:href="#r"/>
<use transform="translate(1835)" xlink:href="#w"/>
<use transform="translate(1933)" xlink:href="#l"/>
<use transform="translate(1994)" xlink:href="#DejaVuSans-20"/>
<use transform="translate(2026)" xlink:href="#z"/>
<use transform="translate(2081)" xlink:href="#t"/>
<use transform="translate(2142)" xlink:href="#w"/>
<use transform="translate(2239)" xlink:href="#w"/>
<use transform="translate(2337)" xlink:href="#u"/>
<use transform="translate(2365)" xlink:href="#p"/>
<use transform="translate(2404)" xlink:href="#ao"/>
</g>
<path d="m47.6 428h82.6q2 0 2-2v-28.4q0-2-2-2h-82.6q-2 0-2 2v28.4q0 2 2 2z" fill="#fff" opacity=".8" stroke="#ccc"/>
<path d="m49.6 403h10 10" fill="none" stroke="#1f77b4" stroke-dasharray="1.5,2.475" stroke-opacity=".9" stroke-width="1.5"/>
<use x="59.645553" y="403.359463" fill="#1f77b4" fill-opacity=".9" stroke="#1f77b4" stroke-opacity=".9" xlink:href="#a"/>
<g transform="translate(77.6 407) scale(.1 -.1)">
<use xlink:href="#x"/>
<use transform="translate(27.8)" xlink:href="#u"/>
<use transform="translate(55.6)" xlink:href="#aa"/>
<use transform="translate(119)" xlink:href="#ab"/>
<use transform="translate(182)" xlink:href="#ak"/>
<use transform="translate(242)" xlink:href="#e"/>
<use transform="translate(275)" xlink:href="#ac"/>
<use transform="translate(334)" xlink:href="#ab"/>
<use transform="translate(398)" xlink:href="#x"/>
<use transform="translate(425)" xlink:href="#p"/>
<use transform="translate(465)" xlink:href="#q"/>
</g>
<path d="m49.6 418h10 10" fill="none" stroke="#2ca02c" stroke-linecap="square" stroke-opacity=".9" stroke-width="1.5"/>
<use x="59.645553" y="418.037588" fill="#2ca02c" fill-opacity=".9" stroke="#2ca02c" stroke-opacity=".9" xlink:href="#b"/>
<g transform="translate(77.6 422) scale(.1 -.1)">
<use xlink:href="#w"/>
<use transform="translate(97.4)" xlink:href="#r"/>
<use transform="translate(159)" xlink:href="#z"/>
<use transform="translate(214)" xlink:href="#t"/>
<use transform="translate(275)" xlink:href="#s"/>
</g>
<path d="m40.6 1060h676v-316h-676z" fill="#fff"/>
<path d="m60.9 1060v-316" clip-path="url(#k)" fill="none" stroke="#b0b0b0" stroke-linecap="square" stroke-width=".8"/>
<use x="60.895831" y="1060.321635" stroke="#000000" stroke-width=".8" xlink:href="#f"/>
<g transform="translate(40 1075) scale(.1 -.1)">
<use xlink:href="#d"/>
<use transform="translate(63.6)" xlink:href="#c"/>
<use transform="translate(127)" xlink:href="#d"/>
<use transform="translate(191)" xlink:href="#v"/>
<use transform="translate(254)" xlink:href="#e"/>
<use transform="translate(291)" xlink:href="#c"/>
<use transform="translate(354)" xlink:href="#ad"/>
</g>
<path d="m117 1060v-316" clip-path="url(#k)" fill="none" stroke="#b0b0b0" stroke-linecap="square" stroke-width=".8"/>
<use x="117.169201" y="1060.321635" stroke="#000000" stroke-width=".8" xlink:href="#f"/>
<g transform="translate(96.3 1075) scale(.1 -.1)">
<use xlink:href="#d"/>
<use transform="translate(63.6)" xlink:href="#c"/>
<use transform="translate(127)" xlink:href="#d"/>
<use transform="translate(191)" xlink:href="#v"/>
<use transform="translate(254)" xlink:href="#e"/>
<use transform="translate(291)" xlink:href="#g"/>
<use transform="translate(354)" xlink:href="#c"/>
</g>
<path d="m175 1060v-316" clip-path="url(#k)" fill="none" stroke="#b0b0b0" stroke-linecap="square" stroke-width=".8"/>
<use x="175.31835" y="1060.321635" stroke="#000000" stroke-width=".8" xlink:href="#f"/>
<g transform="translate(154 1075) scale(.1 -.1)">
<use xlink:href="#d"/>
<use transform="translate(63.6)" xlink:href="#c"/>
<use transform="translate(127)" xlink:href="#d"/>
<use transform="translate(191)" xlink:href="#v"/>
<use transform="translate(254)" xlink:href="#e"/>
<use transform="translate(291)" xlink:href="#g"/>
<use transform="translate(354)" xlink:href="#g"/>
</g>
<path d="m232 1060v-316" clip-path="url(#k)" fill="none" stroke="#b0b0b0" stroke-linecap="square" stroke-width=".8"/>
<use x="231.59172" y="1060.321635" stroke="#000000" stroke-width=".8" xlink:href="#f"/>
<g transform="translate(211 1075) scale(.1 -.1)">
<use xlink:href="#d"/>
<use transform="translate(63.6)" xlink:href="#c"/>
<use transform="translate(127)" xlink:href="#d"/>
<use transform="translate(191)" xlink:href="#v"/>
<use transform="translate(254)" xlink:href="#e"/>
<use transform="translate(291)" xlink:href="#g"/>
<use transform="translate(354)" xlink:href="#d"/>
</g>
<path d="m290 1060v-316" clip-path="url(#k)" fill="none" stroke="#b0b0b0" stroke-linecap="square" stroke-width=".8"/>
<use x="289.740869" y="1060.321635" stroke="#000000" stroke-width=".8" xlink:href="#f"/>
<g transform="translate(269 1075) scale(.1 -.1)">
<use xlink:href="#d"/>
<use transform="translate(63.6)" xlink:href="#c"/>
<use transform="translate(127)" xlink:href="#d"/>
<use transform="translate(191)" xlink:href="#h"/>
<use transform="translate(254)" xlink:href="#e"/>
<use transform="translate(291)" xlink:href="#c"/>
<use transform="translate(354)" xlink:href="#g"/>
</g>
<path d="m348 1060v-316" clip-path="url(#k)" fill="none" stroke="#b0b0b0" stroke-linecap="square" stroke-width=".8"/>
<use x="347.890018" y="1060.321635" stroke="#000000" stroke-width=".8" xlink:href="#f"/>
<g transform="translate(327 1075) scale(.1 -.1)">
<use xlink:href="#d"/>
<use transform="translate(63.6)" xlink:href="#c"/>
<use transform="translate(127)" xlink:href="#d"/>
<use transform="translate(191)" xlink:href="#h"/>
<use transform="translate(254)" xlink:href="#e"/>
<use transform="translate(291)" xlink:href="#c"/>
<use transform="translate(354)" xlink:href="#d"/>
</g>
<path d="m400 1060v-316" clip-path="url(#k)" fill="none" stroke="#b0b0b0" stroke-linecap="square" stroke-width=".8"/>
<use x="400.41183" y="1060.321635" stroke="#000000" stroke-width=".8" xlink:href="#f"/>
<g transform="translate(380 1075) scale(.1 -.1)">
<use xlink:href="#d"/>
<use transform="translate(63.6)" xlink:href="#c"/>
<use transform="translate(127)" xlink:href="#d"/>
<use transform="translate(191)" xlink:href="#h"/>
<use transform="translate(254)" xlink:href="#e"/>
<use transform="translate(291)" xlink:href="#c"/>
<use transform="translate(354)" xlink:href="#ae"/>
</g>
<path d="m459 1060v-316" clip-path="url(#k)" fill="none" stroke="#b0b0b0" stroke-linecap="square" stroke-width=".8"/>
<use x="458.56098" y="1060.321635" stroke="#000000" stroke-width=".8" xlink:href="#f"/>
<g transform="translate(438 1075) scale(.1 -.1)">
<use xlink:href="#d"/>
<use transform="translate(63.6)" xlink:href="#c"/>
<use transform="translate(127)" xlink:href="#d"/>
<use transform="translate(191)" xlink:href="#h"/>
<use transform="translate(254)" xlink:href="#e"/>
<use transform="translate(291)" xlink:href="#c"/>
<use transform="translate(354)" xlink:href="#v"/>
</g>
<path d="m515 1060v-316" clip-path="url(#k)" fill="none" stroke="#b0b0b0" stroke-linecap="square" stroke-width=".8"/>
<use x="514.83435" y="1060.321635" stroke="#000000" stroke-width=".8" xlink:href="#f"/>
<g transform="translate(494 1075) scale(.1 -.1)">
<use xlink:href="#d"/>
<use transform="translate(63.6)" xlink:href="#c"/>
<use transform="translate(127)" xlink:href="#d"/>
<use transform="translate(191)" xlink:href="#h"/>
<use transform="translate(254)" xlink:href="#e"/>
<use transform="translate(291)" xlink:href="#c"/>
<use transform="translate(354)" xlink:href="#h"/>
</g>
<path d="m573 1060v-316" clip-path="url(#k)" fill="none" stroke="#b0b0b0" stroke-linecap="square" stroke-width=".8"/>
<use x="572.983499" y="1060.321635" stroke="#000000" stroke-width=".8" xlink:href="#f"/>
<g transform="translate(552 1075) scale(.1 -.1)">
<use xlink:href="#d"/>
<use transform="translate(63.6)" xlink:href="#c"/>
<use transform="translate(127)" xlink:href="#d"/>
<use transform="translate(191)" xlink:href="#h"/>
<use transform="translate(254)" xlink:href="#e"/>
<use transform="translate(291)" xlink:href="#c"/>
<use transform="translate(354)" xlink:href="#aj"/>
</g>
<path d="m629 1060v-316" clip-path="url(#k)" fill="none" stroke="#b0b0b0" stroke-linecap="square" stroke-width=".8"/>
<use x="629.256869" y="1060.321635" stroke="#000000" stroke-width=".8" xlink:href="#f"/>
<g transform="translate(608 1075) scale(.1 -.1)">
<use xlink:href="#d"/>
<use transform="translate(63.6)" xlink:href="#c"/>
<use transform="translate(127)" xlink:href="#d"/>
<use transform="translate(191)" xlink:href="#h"/>
<use transform="translate(254)" xlink:href="#e"/>
<use transform="translate(291)" xlink:href="#c"/>
<use transform="translate(354)" xlink:href="#ai"/>
</g>
<path d="m687 1060v-316" clip-path="url(#k)" fill="none" stroke="#b0b0b0" stroke-linecap="square" stroke-width=".8"/>
<use x="687.406018" y="1060.321635" stroke="#000000" stroke-width=".8" xlink:href="#f"/>
<g transform="translate(667 1075) scale(.1 -.1)">
<use xlink:href="#d"/>
<use transform="translate(63.6)" xlink:href="#c"/>
<use transform="translate(127)" xlink:href="#d"/>
<use transform="translate(191)" xlink:href="#h"/>
<use transform="translate(254)" xlink:href="#e"/>
<use transform="translate(291)" xlink:href="#c"/>
<use transform="translate(354)" xlink:href="#ah"/>
</g>
<path d="m40.6 1029h676" clip-path="url(#k)" fill="none" stroke="#b0b0b0" stroke-linecap="square" stroke-width=".8"/>
<use x="40.645553" y="1028.553649" stroke="#000000" stroke-width=".8" xlink:href="#n"/>
<g transform="translate(3 1032) scale(.1 -.1)">
<use xlink:href="#g"/>
<use transform="translate(63.6)" xlink:href="#m"/>
<use transform="translate(95.4)" xlink:href="#c"/>
<use transform="translate(159)" xlink:href="#c"/>
<use transform="translate(223)" xlink:href="#o"/>
</g>
<path d="m40.6 960h676" clip-path="url(#k)" fill="none" stroke="#b0b0b0" stroke-linecap="square" stroke-width=".8"/>
<use x="40.645553" y="960.22018" stroke="#000000" stroke-width=".8" xlink:href="#n"/>
<g transform="translate(3 964) scale(.1 -.1)">
<use xlink:href="#g"/>
<use transform="translate(63.6)" xlink:href="#m"/>
<use transform="translate(95.4)" xlink:href="#g"/>
<use transform="translate(159)" xlink:href="#c"/>
<use transform="translate(223)" xlink:href="#o"/>
</g>
<path d="m40.6 892h676" clip-path="url(#k)" fill="none" stroke="#b0b0b0" stroke-linecap="square" stroke-width=".8"/>
<use x="40.645553" y="891.88671" stroke="#000000" stroke-width=".8" xlink:href="#n"/>
<g transform="translate(3 896) scale(.1 -.1)">
<use xlink:href="#g"/>
<use transform="translate(63.6)" xlink:href="#m"/>
<use transform="translate(95.4)" xlink:href="#d"/>
<use transform="translate(159)" xlink:href="#c"/>
<use transform="translate(223)" xlink:href="#o"/>
</g>
<path d="m40.6 824h676" clip-path="url(#k)" fill="none" stroke="#b0b0b0" stroke-linecap="square" stroke-width=".8"/>
<use x="40.645553" y="823.553241" stroke="#000000" stroke-width=".8" xlink:href="#n"/>
<g transform="translate(3 827) scale(.1 -.1)">
<use xlink:href="#g"/>
<use transform="translate(63.6)" xlink:href="#m"/>
<use transform="translate(95.4)" xlink:href="#ae"/>
<use transform="translate(159)" xlink:href="#c"/>
<use transform="translate(223)" xlink:href="#o"/>
</g>
<path d="m40.6 755h676" clip-path="url(#k)" fill="none" stroke="#b0b0b0" stroke-linecap="square" stroke-width=".8"/>
<use x="40.645553" y="755.219771" stroke="#000000" stroke-width=".8" xlink:href="#n"/>
<g transform="translate(3 759) scale(.1 -.1)">
<use xlink:href="#g"/>
<use transform="translate(63.6)" xlink:href="#m"/>
<use transform="translate(95.4)" xlink:href="#v"/>
<use transform="translate(159)" xlink:href="#c"/>
<use transform="translate(223)" xlink:href="#o"/>
</g>
<g stroke="#1f77b4" stroke-opacity=".9">
<path d="m441 1013 13 25.3 13.3-14.3 13.1 8.88 12.8-2.54 13.5-0.453 13-3.29 13.3-2 13.1-0.111 12.3 5.87 13.9-271 13.1 261 12.7 9.13 13.2-9.88 12.9 2.36 13.9 1.64 12.8-4.33 13.2 3.19 12.9-3.23" clip-path="url(#k)" fill="none" stroke-dasharray="1.5,2.475" stroke-width="1.5"/>
<g clip-path="url(#k)" fill="#1f77b4" fill-opacity=".9">
<use x="441.034083" y="1012.607762" xlink:href="#a"/>
<use x="454.048428" y="1037.953076" xlink:href="#a"/>
<use x="467.309426" y="1023.689392" xlink:href="#a"/>
<use x="480.41311" y="1032.568512" xlink:href="#a"/>
<use x="493.199518" y="1030.025913" xlink:href="#a"/>
<use x="506.684329" y="1029.57254" xlink:href="#a"/>
<use x="519.645419" y="1026.2804" xlink:href="#a"/>
<use x="532.937289" y="1024.278307" xlink:href="#a"/>
<use x="546.051307" y="1024.167402" xlink:href="#a"/>
<use x="558.393238" y="1030.036415" xlink:href="#a"/>
<use x="572.244954" y="759.131827" xlink:href="#a"/>
<use x="585.343753" y="1020.625702" xlink:href="#a"/>
<use x="598.077601" y="1029.758653" xlink:href="#a"/>
<use x="611.245852" y="1019.876515" xlink:href="#a"/>
<use x="624.113479" y="1022.234406" xlink:href="#a"/>
<use x="638.003253" y="1023.877103" xlink:href="#a"/>
<use x="650.769796" y="1019.551459" xlink:href="#a"/>
<use x="664.015879" y="1022.741906" xlink:href="#a"/>
<use x="676.935328" y="1019.510186" xlink:href="#a"/>
</g>
</g>
<g stroke="#2ca02c" stroke-opacity=".9">
<path d="m441 1016 13-1.97 13.3 9.12 13.1 6.32 12.8-10.8 26.4 15.5 13.3-8.84 13.1 3.29 12.3-6.87 13.9-219 13.1 229 12.7-0.313 13.2 4.02 12.9-8.41 13.9-4.37 12.8 23.5 13.2-18.6 12.9-1.41" clip-path="url(#k)" fill="none" stroke-linecap="square" stroke-width="1.5"/>
<g clip-path="url(#k)" fill="#2ca02c" fill-opacity=".9">
<use x="441.034083" y="1015.79177" xlink:href="#b"/>
<use x="454.048428" y="1013.821877" xlink:href="#b"/>
<use x="467.309426" y="1022.93787" xlink:href="#b"/>
<use x="480.41311" y="1029.260781" xlink:href="#b"/>
<use x="493.199518" y="1018.450343" xlink:href="#b"/>
<use x="519.645419" y="1033.928365" xlink:href="#b"/>
<use x="532.937289" y="1025.092435" xlink:href="#b"/>
<use x="546.051307" y="1028.377553" xlink:href="#b"/>
<use x="558.393238" y="1021.51104" xlink:href="#b"/>
<use x="572.244954" y="802.957734" xlink:href="#b"/>
<use x="585.343753" y="1031.502965" xlink:href="#b"/>
<use x="598.077601" y="1031.189963" xlink:href="#b"/>
<use x="611.245852" y="1035.214599" xlink:href="#b"/>
<use x="624.113479" y="1026.80849" xlink:href="#b"/>
<use x="638.003253" y="1022.441669" xlink:href="#b"/>
<use x="650.769796" y="1045.979263" xlink:href="#b"/>
<use x="664.015879" y="1027.419199" xlink:href="#b"/>
<use x="676.935328" y="1026.008118" xlink:href="#b"/>
</g>
</g>
<path d="m40.6 1060v-316" fill="none" stroke="#000" stroke-linecap="square" stroke-width=".8"/>
<path d="m717 1060v-316" fill="none" stroke="#000" stroke-linecap="square" stroke-width=".8"/>
<path d="m40.6 1060h676" fill="none" stroke="#000" stroke-linecap="square" stroke-width=".8"/>
<path d="m40.6 745h676" fill="none" stroke="#000" stroke-linecap="square" stroke-width=".8"/>
<g clip-path="url(#k)">
<g transform="translate(58.2 1021) rotate(-90) scale(.1 -.1)">
<use xlink:href="#y"/>
<use transform="translate(35.2)" xlink:href="#r"/>
<use transform="translate(96.5)" xlink:href="#s"/>
<use transform="translate(149)" xlink:href="#p"/>
<use transform="translate(188)" xlink:href="#l"/>
<use transform="translate(249)" xlink:href="#q"/>
<use transform="translate(290)" xlink:href="#DejaVuSans-20"/>
<use transform="translate(322)" xlink:href="#aq"/>
</g>
</g>
<g clip-path="url(#k)">
<g transform="translate(58.2 1089) rotate(-90) scale(.1 -.1)">
<use xlink:href="#ar"/>
<use transform="translate(143)" xlink:href="#DejaVuSans-20"/>
<use transform="translate(175)" xlink:href="#s"/>
<use transform="translate(227)" xlink:href="#x"/>
<use transform="translate(255)" xlink:href="#t"/>
<use transform="translate(316)" xlink:href="#af"/>
<use transform="translate(398)" xlink:href="#l"/>
<use transform="translate(460)" xlink:href="#q"/>
</g>
</g>
<g transform="translate(268 739) scale(.12 -.12)">
<defs>
<path id="ax" transform="scale(.0156)" d="m628 4666h631v-4341q0-844-320-1225t-1030-381h-240v531h197q418 0 590 235 172 234 172 840v4341z"/>
<path id="ay" transform="scale(.0156)" d="m628 4666h631v-4666h-631v4666z"/>
</defs>
<use xlink:href="#an"/>
<use transform="translate(63.2)" xlink:href="#y"/>
<use transform="translate(98.4)" xlink:href="#y"/>
<use transform="translate(134)" xlink:href="#l"/>
<use transform="translate(195)" xlink:href="#z"/>
<use transform="translate(250)" xlink:href="#p"/>
<use transform="translate(289)" xlink:href="#DejaVuSans-20"/>
<use transform="translate(321)" xlink:href="#t"/>
<use transform="translate(382)" xlink:href="#y"/>
<use transform="translate(417)" xlink:href="#DejaVuSans-20"/>
<use transform="translate(449)" xlink:href="#ax"/>
<use transform="translate(479)" xlink:href="#ay"/>
<use transform="translate(508)" xlink:href="#ag"/>
<use transform="translate(569)" xlink:href="#DejaVuSans-20"/>
<use transform="translate(601)" xlink:href="#ac"/>
<use transform="translate(660)" xlink:href="#s"/>
<use transform="translate(712)" xlink:href="#m"/>
<use transform="translate(744)" xlink:href="#DejaVuSans-20"/>
<use transform="translate(776)" xlink:href="#ag"/>
<use transform="translate(834)" xlink:href="#u"/>
<use transform="translate(862)" xlink:href="#l"/>
<use transform="translate(923)" xlink:href="#q"/>
<use transform="translate(964)" xlink:href="#DejaVuSans-20"/>
<use transform="translate(996)" xlink:href="#g"/>
<use transform="translate(1060)" xlink:href="#DejaVuSans-20"/>
<use transform="translate(1092)" xlink:href="#ap"/>
<use transform="translate(1131)" xlink:href="#s"/>
<use transform="translate(1183)" xlink:href="#r"/>
<use transform="translate(1244)" xlink:href="#w"/>
<use transform="translate(1341)" xlink:href="#l"/>
<use transform="translate(1403)" xlink:href="#DejaVuSans-20"/>
<use transform="translate(1435)" xlink:href="#z"/>
<use transform="translate(1490)" xlink:href="#t"/>
<use transform="translate(1551)" xlink:href="#w"/>
<use transform="translate(1648)" xlink:href="#w"/>
<use transform="translate(1746)" xlink:href="#u"/>
<use transform="translate(1773)" xlink:href="#p"/>
<use transform="translate(1813)" xlink:href="#ao"/>
</g>
<path d="m47.6 782h82.6q2 0 2-2v-28.4q0-2-2-2h-82.6q-2 0-2 2v28.4q0 2 2 2z" fill="#fff" opacity=".8" stroke="#ccc"/>
<path d="m49.6 758h10 10" fill="none" stroke="#1f77b4" stroke-dasharray="1.5,2.475" stroke-opacity=".9" stroke-width="1.5"/>
<use x="59.645553" y="757.887892" fill="#1f77b4" fill-opacity=".9" stroke="#1f77b4" stroke-opacity=".9" xlink:href="#a"/>
<g transform="translate(77.6 761) scale(.1 -.1)">
<use xlink:href="#x"/>
<use transform="translate(27.8)" xlink:href="#u"/>
<use transform="translate(55.6)" xlink:href="#aa"/>
<use transform="translate(119)" xlink:href="#ab"/>
<use transform="translate(182)" xlink:href="#ak"/>
<use transform="translate(242)" xlink:href="#e"/>
<use transform="translate(275)" xlink:href="#ac"/>
<use transform="translate(334)" xlink:href="#ab"/>
<use transform="translate(398)" xlink:href="#x"/>
<use transform="translate(425)" xlink:href="#p"/>
<use transform="translate(465)" xlink:href="#q"/>
</g>
<path d="m49.6 773h10 10" fill="none" stroke="#2ca02c" stroke-linecap="square" stroke-opacity=".9" stroke-width="1.5"/>
<use x="59.645553" y="772.566017" fill="#2ca02c" fill-opacity=".9" stroke="#2ca02c" stroke-opacity=".9" xlink:href="#b"/>
<g transform="translate(77.6 776) scale(.1 -.1)">
<use xlink:href="#w"/>
<use transform="translate(97.4)" xlink:href="#r"/>
<use transform="translate(159)" xlink:href="#z"/>
<use transform="translate(214)" xlink:href="#t"/>
<use transform="translate(275)" xlink:href="#s"/>
</g>
<g transform="translate(229 12.1) scale(.12 -.12)">
<defs>
<path id="aw" transform="scale(.0156)" d="m1259 4147v-1753h794q441 0 681 228 241 228 241 650 0 419-241 647-240 228-681 228h-794zm-631 519h1425q785 0 1186-355 402-355 402-1039 0-691-402-1044-401-353-1186-353h-794v-1875h-631v4666z"/>
<path id="av" transform="scale(.0156)" d="m1159 525v-1856h-578v4831h578v-531q182 312 458 463 277 152 661 152 638 0 1036-506 399-506 399-1331t-399-1332q-398-506-1036-506-384 0-661 152-276 152-458 464zm1957 1222q0 634-261 995t-717 361q-457 0-718-361t-261-995 261-995 718-361q456 0 717 361t261 995z"/>
<path id="au" transform="scale(.0156)" d="m2059-325q-243-625-475-815-231-191-618-191h-460v481h338q237 0 368 113 132 112 291 531l103 262-1415 3444h609l1094-2737 1094 2737h609l-1538-3825z"/>
</defs>
<use xlink:href="#aw"/>
<use transform="translate(56.7)" xlink:href="#l"/>
<use transform="translate(118)" xlink:href="#q"/>
<use transform="translate(159)" xlink:href="#y"/>
<use transform="translate(195)" xlink:href="#t"/>
<use transform="translate(256)" xlink:href="#q"/>
<use transform="translate(295)" xlink:href="#w"/>
<use transform="translate(392)" xlink:href="#r"/>
<use transform="translate(454)" xlink:href="#aa"/>
<use transform="translate(517)" xlink:href="#z"/>
<use transform="translate(572)" xlink:href="#l"/>
<use transform="translate(634)" xlink:href="#DejaVuSans-20"/>
<use transform="translate(665)" xlink:href="#u"/>
<use transform="translate(693)" xlink:href="#w"/>
<use transform="translate(791)" xlink:href="#av"/>
<use transform="translate(854)" xlink:href="#q"/>
<use transform="translate(893)" xlink:href="#t"/>
<use transform="translate(954)" xlink:href="#ac"/>
<use transform="translate(1013)" xlink:href="#l"/>
<use transform="translate(1075)" xlink:href="#w"/>
<use transform="translate(1172)" xlink:href="#l"/>
<use transform="translate(1234)" xlink:href="#aa"/>
<use transform="translate(1297)" xlink:href="#p"/>
<use transform="translate(1336)" xlink:href="#DejaVuSans-20"/>
<use transform="translate(1368)" xlink:href="#at"/>
<use transform="translate(1432)" xlink:href="#au"/>
<use transform="translate(1491)" xlink:href="#DejaVuSans-20"/>
<use transform="translate(1523)" xlink:href="#z"/>
<use transform="translate(1578)" xlink:href="#t"/>
<use transform="translate(1639)" xlink:href="#aa"/>
<use transform="translate(1702)" xlink:href="#y"/>
<use transform="translate(1737)" xlink:href="#u"/>
<use transform="translate(1765)" xlink:href="#al"/>
<use transform="translate(1829)" xlink:href="#ab"/>
<use transform="translate(1892)" xlink:href="#q"/>
<use transform="translate(1933)" xlink:href="#r"/>
<use transform="translate(1994)" xlink:href="#p"/>
<use transform="translate(2034)" xlink:href="#u"/>
<use transform="translate(2061)" xlink:href="#t"/>
<use transform="translate(2123)" xlink:href="#aa"/>
</g>
<defs>
<clipPath id="i">
<rect x="40.6" y="35.7" width="676" height="316"/>
</clipPath>
<clipPath id="j">
<rect x="40.6" y="390" width="676" height="316"/>
</clipPath>
<clipPath id="k">
<rect x="40.6" y="745" width="676" height="316"/>
</clipPath>
</defs>
</svg>
