<?xml version="1.0" encoding="UTF-8"?>
<!DOCTYPE svg  PUBLIC '-//W3C//DTD SVG 1.1//EN'  'http://www.w3.org/Graphics/SVG/1.1/DTD/svg11.dtd'>
<svg width="720pt" height="1080pt" version="1.1" viewBox="0 0 720 1080" xmlns="http://www.w3.org/2000/svg" xmlns:xlink="http://www.w3.org/1999/xlink">
<defs>
<style type="text/css">*{stroke-linejoin: round; stroke-linecap: butt}</style>
</defs>
<path d="m0 1080h720v-1080h-720z" fill="#fff"/>
<path d="m40.6 351h676v-316h-676z" fill="#fff"/>
<path d="m60.3 351v-316" clip-path="url(#i)" fill="none" stroke="#b0b0b0" stroke-linecap="square" stroke-width=".8"/>
<defs>
<path id="g" d="m0 0v3.5" stroke="#000" stroke-width=".8"/>
</defs>
<use x="60.292375" y="351.264775" stroke="#000000" stroke-width=".8" xlink:href="#g"/>
<g transform="translate(39.4 366) scale(.1 -.1)">
<defs>
<path id="d" transform="scale(.0156)" d="m1228 531h2203v-531h-2962v531q359 372 979 998 621 627 780 809 303 340 423 576 121 236 121 464 0 372-261 606-261 235-680 235-297 0-627-103-329-103-704-313v638q381 153 712 231 332 78 607 78 725 0 1156-363 431-362 431-968 0-288-108-546-107-257-392-607-78-91-497-524-418-433-1181-1211z"/>
<path id="c" transform="scale(.0156)" d="m2034 4250q-487 0-733-480-245-479-245-1442 0-959 245-1439 246-480 733-480 491 0 736 480 246 480 246 1439 0 963-246 1442-245 480-736 480zm0 500q785 0 1199-621 414-620 414-1801 0-1178-414-1799-414-620-1199-620-784 0-1198 620-414 621-414 1799 0 1181 414 1801 414 621 1198 621z"/>
<path id="v" transform="scale(.0156)" d="m2419 4116-1594-2491h1594v2491zm-166 550h794v-3041h666v-525h-666v-1100h-628v1100h-2106v609l1940 2957z"/>
<path id="e" transform="scale(.0156)" d="m313 2009h1684v-512h-1684v512z"/>
<path id="ad" transform="scale(.0156)" d="m703 97v575q238-113 481-172 244-59 479-59 625 0 954 420 330 420 377 1277-181-269-460-413-278-144-615-144-700 0-1108 423-408 424-408 1159 0 718 425 1152 425 435 1131 435 810 0 1236-621 427-620 427-1801 0-1103-524-1761-523-658-1407-658-238 0-482 47-243 47-506 141zm1256 1978q425 0 673 290 249 291 249 798 0 503-249 795-248 292-673 292t-673-292-248-795q0-507 248-798 248-290 673-290z"/>
</defs>
<use xlink:href="#d"/>
<use transform="translate(63.6)" xlink:href="#c"/>
<use transform="translate(127)" xlink:href="#d"/>
<use transform="translate(191)" xlink:href="#v"/>
<use transform="translate(254)" xlink:href="#e"/>
<use transform="translate(291)" xlink:href="#c"/>
<use transform="translate(354)" xlink:href="#ad"/>
</g>
<path d="m120 351v-316" clip-path="url(#i)" fill="none" stroke="#b0b0b0" stroke-linecap="square" stroke-width=".8"/>
<use x="119.802016" y="351.264775" stroke="#000000" stroke-width=".8" xlink:href="#g"/>
<g transform="translate(98.9 366) scale(.1 -.1)">
<defs>
<path id="f" transform="scale(.0156)" d="m794 531h1031v3560l-1122-225v575l1116 225h631v-4135h1031v-531h-2687v531z"/>
</defs>
<use xlink:href="#d"/>
<use transform="translate(63.6)" xlink:href="#c"/>
<use transform="translate(127)" xlink:href="#d"/>
<use transform="translate(191)" xlink:href="#v"/>
<use transform="translate(254)" xlink:href="#e"/>
<use transform="translate(291)" xlink:href="#f"/>
<use transform="translate(354)" xlink:href="#c"/>
</g>
<path d="m181 351v-316" clip-path="url(#i)" fill="none" stroke="#b0b0b0" stroke-linecap="square" stroke-width=".8"/>
<use x="181.295313" y="351.264775" stroke="#000000" stroke-width=".8" xlink:href="#g"/>
<g transform="translate(160 366) scale(.1 -.1)">
<use xlink:href="#d"/>
<use transform="translate(63.6)" xlink:href="#c"/>
<use transform="translate(127)" xlink:href="#d"/>
<use transform="translate(191)" xlink:href="#v"/>
<use transform="translate(254)" xlink:href="#e"/>
<use transform="translate(291)" xlink:href="#f"/>
<use transform="translate(354)" xlink:href="#f"/>
</g>
<path d="m241 351v-316" clip-path="url(#i)" fill="none" stroke="#b0b0b0" stroke-linecap="square" stroke-width=".8"/>
<use x="240.804954" y="351.264775" stroke="#000000" stroke-width=".8" xlink:href="#g"/>
<g transform="translate(220 366) scale(.1 -.1)">
<use xlink:href="#d"/>
<use transform="translate(63.6)" xlink:href="#c"/>
<use transform="translate(127)" xlink:href="#d"/>
<use transform="translate(191)" xlink:href="#v"/>
<use transform="translate(254)" xlink:href="#e"/>
<use transform="translate(291)" xlink:href="#f"/>
<use transform="translate(354)" xlink:href="#d"/>
</g>
<path d="m302 351v-316" clip-path="url(#i)" fill="none" stroke="#b0b0b0" stroke-linecap="square" stroke-width=".8"/>
<use x="302.298251" y="351.264775" stroke="#000000" stroke-width=".8" xlink:href="#g"/>
<g transform="translate(281 366) scale(.1 -.1)">
<defs>
<path id="h" transform="scale(.0156)" d="m691 4666h2478v-532h-1900v-1143q137 47 274 70 138 23 276 23 781 0 1237-428 457-428 457-1159 0-753-469-1171-469-417-1322-417-294 0-599 50-304 50-629 150v635q281-153 581-228t634-75q541 0 856 284 316 284 316 772 0 487-316 771-315 285-856 285-253 0-505-56-251-56-513-175v2344z"/>
</defs>
<use xlink:href="#d"/>
<use transform="translate(63.6)" xlink:href="#c"/>
<use transform="translate(127)" xlink:href="#d"/>
<use transform="translate(191)" xlink:href="#h"/>
<use transform="translate(254)" xlink:href="#e"/>
<use transform="translate(291)" xlink:href="#c"/>
<use transform="translate(354)" xlink:href="#f"/>
</g>
<path d="m364 351v-316" clip-path="url(#i)" fill="none" stroke="#b0b0b0" stroke-linecap="square" stroke-width=".8"/>
<use x="363.791547" y="351.264775" stroke="#000000" stroke-width=".8" xlink:href="#g"/>
<g transform="translate(343 366) scale(.1 -.1)">
<use xlink:href="#d"/>
<use transform="translate(63.6)" xlink:href="#c"/>
<use transform="translate(127)" xlink:href="#d"/>
<use transform="translate(191)" xlink:href="#h"/>
<use transform="translate(254)" xlink:href="#e"/>
<use transform="translate(291)" xlink:href="#c"/>
<use transform="translate(354)" xlink:href="#d"/>
</g>
<path d="m419 351v-316" clip-path="url(#i)" fill="none" stroke="#b0b0b0" stroke-linecap="square" stroke-width=".8"/>
<use x="419.333879" y="351.264775" stroke="#000000" stroke-width=".8" xlink:href="#g"/>
<g transform="translate(398 366) scale(.1 -.1)">
<defs>
<path id="ae" transform="scale(.0156)" d="m2597 2516q453-97 707-404 255-306 255-756 0-690-475-1069-475-378-1350-378-293 0-604 58t-642 174v609q262-153 574-231 313-78 654-78 593 0 904 234t311 681q0 413-289 645-289 233-804 233h-544v519h569q465 0 712 186t247 536q0 359-255 551-254 193-729 193-260 0-557-57-297-56-653-174v562q360 100 674 150t592 50q719 0 1137-327 419-326 419-882 0-388-222-655t-631-370z"/>
</defs>
<use xlink:href="#d"/>
<use transform="translate(63.6)" xlink:href="#c"/>
<use transform="translate(127)" xlink:href="#d"/>
<use transform="translate(191)" xlink:href="#h"/>
<use transform="translate(254)" xlink:href="#e"/>
<use transform="translate(291)" xlink:href="#c"/>
<use transform="translate(354)" xlink:href="#ae"/>
</g>
<path d="m481 351v-316" clip-path="url(#i)" fill="none" stroke="#b0b0b0" stroke-linecap="square" stroke-width=".8"/>
<use x="480.827176" y="351.264775" stroke="#000000" stroke-width=".8" xlink:href="#g"/>
<g transform="translate(460 366) scale(.1 -.1)">
<use xlink:href="#d"/>
<use transform="translate(63.6)" xlink:href="#c"/>
<use transform="translate(127)" xlink:href="#d"/>
<use transform="translate(191)" xlink:href="#h"/>
<use transform="translate(254)" xlink:href="#e"/>
<use transform="translate(291)" xlink:href="#c"/>
<use transform="translate(354)" xlink:href="#v"/>
</g>
<path d="m540 351v-316" clip-path="url(#i)" fill="none" stroke="#b0b0b0" stroke-linecap="square" stroke-width=".8"/>
<use x="540.336817" y="351.264775" stroke="#000000" stroke-width=".8" xlink:href="#g"/>
<g transform="translate(519 366) scale(.1 -.1)">
<use xlink:href="#d"/>
<use transform="translate(63.6)" xlink:href="#c"/>
<use transform="translate(127)" xlink:href="#d"/>
<use transform="translate(191)" xlink:href="#h"/>
<use transform="translate(254)" xlink:href="#e"/>
<use transform="translate(291)" xlink:href="#c"/>
<use transform="translate(354)" xlink:href="#h"/>
</g>
<path d="m602 351v-316" clip-path="url(#i)" fill="none" stroke="#b0b0b0" stroke-linecap="square" stroke-width=".8"/>
<use x="601.830113" y="351.264775" stroke="#000000" stroke-width=".8" xlink:href="#g"/>
<g transform="translate(581 366) scale(.1 -.1)">
<defs>
<path id="ai" transform="scale(.0156)" d="m2113 2584q-425 0-674-291-248-290-248-796 0-503 248-796 249-292 674-292t673 292q248 293 248 796 0 506-248 796-248 291-673 291zm1253 1979v-575q-238 112-480 171-242 60-480 60-625 0-955-422-329-422-376-1275 184 272 462 417 279 145 613 145 703 0 1111-427 408-426 408-1160 0-719-425-1154-425-434-1131-434-810 0-1238 620-428 621-428 1799 0 1106 525 1764t1409 658q238 0 480-47t505-140z"/>
</defs>
<use xlink:href="#d"/>
<use transform="translate(63.6)" xlink:href="#c"/>
<use transform="translate(127)" xlink:href="#d"/>
<use transform="translate(191)" xlink:href="#h"/>
<use transform="translate(254)" xlink:href="#e"/>
<use transform="translate(291)" xlink:href="#c"/>
<use transform="translate(354)" xlink:href="#ai"/>
</g>
<path d="m661 351v-316" clip-path="url(#i)" fill="none" stroke="#b0b0b0" stroke-linecap="square" stroke-width=".8"/>
<use x="661.339755" y="351.264775" stroke="#000000" stroke-width=".8" xlink:href="#g"/>
<g transform="translate(640 366) scale(.1 -.1)">
<defs>
<path id="ah" transform="scale(.0156)" d="m525 4666h3e3v-269l-1694-4397h-659l1594 4134h-2241v532z"/>
</defs>
<use xlink:href="#d"/>
<use transform="translate(63.6)" xlink:href="#c"/>
<use transform="translate(127)" xlink:href="#d"/>
<use transform="translate(191)" xlink:href="#h"/>
<use transform="translate(254)" xlink:href="#e"/>
<use transform="translate(291)" xlink:href="#c"/>
<use transform="translate(354)" xlink:href="#ah"/>
</g>
<path d="m40.6 351h676" clip-path="url(#i)" fill="none" stroke="#b0b0b0" stroke-linecap="square" stroke-width=".8"/>
<defs>
<path id="n" d="m0 0h-3.5" stroke="#000" stroke-width=".8"/>
</defs>
<use x="40.645553" y="351.264775" stroke="#000000" stroke-width=".8" xlink:href="#n"/>
<g transform="translate(3 355) scale(.1 -.1)">
<defs>
<path id="m" transform="scale(.0156)" d="m684 794h660v-794h-660v794z"/>
<path id="o" transform="scale(.0156)" d="m4488 3438-1429-1435 1429-1428-372-378-1435 1434-1434-1434-369 378 1425 1428-1425 1435 369 378 1434-1435 1435 1435 372-378z"/>
</defs>
<use xlink:href="#c"/>
<use transform="translate(63.6)" xlink:href="#m"/>
<use transform="translate(95.4)" xlink:href="#ad"/>
<use transform="translate(159)" xlink:href="#c"/>
<use transform="translate(223)" xlink:href="#o"/>
</g>
<path d="m40.6 312h676" clip-path="url(#i)" fill="none" stroke="#b0b0b0" stroke-linecap="square" stroke-width=".8"/>
<use x="40.645553" y="311.823253" stroke="#000000" stroke-width=".8" xlink:href="#n"/>
<g transform="translate(3 316) scale(.1 -.1)">
<use xlink:href="#c"/>
<use transform="translate(63.6)" xlink:href="#m"/>
<use transform="translate(95.4)" xlink:href="#ad"/>
<use transform="translate(159)" xlink:href="#h"/>
<use transform="translate(223)" xlink:href="#o"/>
</g>
<path d="m40.6 272h676" clip-path="url(#i)" fill="none" stroke="#b0b0b0" stroke-linecap="square" stroke-width=".8"/>
<use x="40.645553" y="272.38173" stroke="#000000" stroke-width=".8" xlink:href="#n"/>
<g transform="translate(3 276) scale(.1 -.1)">
<use xlink:href="#f"/>
<use transform="translate(63.6)" xlink:href="#m"/>
<use transform="translate(95.4)" xlink:href="#c"/>
<use transform="translate(159)" xlink:href="#c"/>
<use transform="translate(223)" xlink:href="#o"/>
</g>
<path d="m40.6 233h676" clip-path="url(#i)" fill="none" stroke="#b0b0b0" stroke-linecap="square" stroke-width=".8"/>
<use x="40.645553" y="232.940208" stroke="#000000" stroke-width=".8" xlink:href="#n"/>
<g transform="translate(3 237) scale(.1 -.1)">
<use xlink:href="#f"/>
<use transform="translate(63.6)" xlink:href="#m"/>
<use transform="translate(95.4)" xlink:href="#c"/>
<use transform="translate(159)" xlink:href="#h"/>
<use transform="translate(223)" xlink:href="#o"/>
</g>
<path d="m40.6 193h676" clip-path="url(#i)" fill="none" stroke="#b0b0b0" stroke-linecap="square" stroke-width=".8"/>
<use x="40.645553" y="193.498685" stroke="#000000" stroke-width=".8" xlink:href="#n"/>
<g transform="translate(3 197) scale(.1 -.1)">
<use xlink:href="#f"/>
<use transform="translate(63.6)" xlink:href="#m"/>
<use transform="translate(95.4)" xlink:href="#f"/>
<use transform="translate(159)" xlink:href="#c"/>
<use transform="translate(223)" xlink:href="#o"/>
</g>
<path d="m40.6 154h676" clip-path="url(#i)" fill="none" stroke="#b0b0b0" stroke-linecap="square" stroke-width=".8"/>
<use x="40.645553" y="154.057163" stroke="#000000" stroke-width=".8" xlink:href="#n"/>
<g transform="translate(3 158) scale(.1 -.1)">
<use xlink:href="#f"/>
<use transform="translate(63.6)" xlink:href="#m"/>
<use transform="translate(95.4)" xlink:href="#f"/>
<use transform="translate(159)" xlink:href="#h"/>
<use transform="translate(223)" xlink:href="#o"/>
</g>
<path d="m40.6 115h676" clip-path="url(#i)" fill="none" stroke="#b0b0b0" stroke-linecap="square" stroke-width=".8"/>
<use x="40.645553" y="114.61564" stroke="#000000" stroke-width=".8" xlink:href="#n"/>
<g transform="translate(3 118) scale(.1 -.1)">
<use xlink:href="#f"/>
<use transform="translate(63.6)" xlink:href="#m"/>
<use transform="translate(95.4)" xlink:href="#d"/>
<use transform="translate(159)" xlink:href="#c"/>
<use transform="translate(223)" xlink:href="#o"/>
</g>
<path d="m40.6 75.2h676" clip-path="url(#i)" fill="none" stroke="#b0b0b0" stroke-linecap="square" stroke-width=".8"/>
<use x="40.645553" y="75.174118" stroke="#000000" stroke-width=".8" xlink:href="#n"/>
<g transform="translate(3 79) scale(.1 -.1)">
<use xlink:href="#f"/>
<use transform="translate(63.6)" xlink:href="#m"/>
<use transform="translate(95.4)" xlink:href="#d"/>
<use transform="translate(159)" xlink:href="#h"/>
<use transform="translate(223)" xlink:href="#o"/>
</g>
<path d="m40.6 35.7h676" clip-path="url(#i)" fill="none" stroke="#b0b0b0" stroke-linecap="square" stroke-width=".8"/>
<use x="40.645553" y="35.732595" stroke="#000000" stroke-width=".8" xlink:href="#n"/>
<g transform="translate(3 39.5) scale(.1 -.1)">
<use xlink:href="#f"/>
<use transform="translate(63.6)" xlink:href="#m"/>
<use transform="translate(95.4)" xlink:href="#ae"/>
<use transform="translate(159)" xlink:href="#c"/>
<use transform="translate(223)" xlink:href="#o"/>
</g>
<path d="m462 218 1.3 78.3 12.5-58.5 14-29.2 3.52 59.7 5.64-34.6 4.7 1.27 13.5-4.23 14.3 2.93 13.7 8.27 14.1-3.75 13.9 2.54 13.1 4.09 14.6-12.4 13.9 2.18 13.5 6.76 13.9-3.47 13.6 2.32 14.7-3.75 13.5 1.02" clip-path="url(#i)" fill="none" stroke="#1f77b4" stroke-dasharray="1.5,2.475" stroke-opacity=".9" stroke-width="1.5"/>
<defs>
<path id="a" d="m-2.5 2.5h5v-5h-5z" stroke="#1f77b4" stroke-opacity=".9"/>
</defs>
<g clip-path="url(#i)" fill="#1f77b4" fill-opacity=".9" stroke="#1f77b4" stroke-opacity=".9">
<use x="462.29231" y="217.972608" xlink:href="#a"/>
<use x="463.588734" y="296.236601" xlink:href="#a"/>
<use x="476.055108" y="237.786525" xlink:href="#a"/>
<use x="490.078744" y="208.609505" xlink:href="#a"/>
<use x="493.59406" y="268.348273" xlink:href="#a"/>
<use x="499.233402" y="233.780467" xlink:href="#a"/>
<use x="503.936018" y="235.050049" xlink:href="#a"/>
<use x="517.457771" y="230.815623" xlink:href="#a"/>
<use x="531.71809" y="233.746182" xlink:href="#a"/>
<use x="545.42457" y="242.018666" xlink:href="#a"/>
<use x="559.480853" y="238.265931" xlink:href="#a"/>
<use x="573.349056" y="240.808105" xlink:href="#a"/>
<use x="586.40077" y="244.894915" xlink:href="#a"/>
<use x="601.049095" y="232.452493" xlink:href="#a"/>
<use x="614.901204" y="234.631196" xlink:href="#a"/>
<use x="628.367373" y="241.389536" xlink:href="#a"/>
<use x="642.292927" y="237.922981" xlink:href="#a"/>
<use x="655.900569" y="240.240096" xlink:href="#a"/>
<use x="670.589142" y="236.494728" xlink:href="#a"/>
<use x="684.089887" y="237.514392" xlink:href="#a"/>
</g>
<path d="m462 180 13.8-2.98 14 45.3 13.9 19.4 13.5-18.7 28 19.8 14.1-11.4 13.9 8.54 13.1 3.35 14.6-5.19 13.9 7.39 13.5 0.914 13.9-5.32 13.6-9.35 14.7-2.7 13.5 11.3" clip-path="url(#i)" fill="none" stroke="#2ca02c" stroke-linecap="square" stroke-opacity=".9" stroke-width="1.5"/>
<defs>
<path id="b" d="m0-2.5-2.5 5h5z" stroke="#2ca02c" stroke-opacity=".9"/>
</defs>
<g clip-path="url(#i)" fill="#2ca02c" fill-opacity=".9" stroke="#2ca02c" stroke-opacity=".9">
<use x="462.29231" y="179.969255" xlink:href="#b"/>
<use x="476.055108" y="176.992682" xlink:href="#b"/>
<use x="490.078744" y="222.29429" xlink:href="#b"/>
<use x="503.936018" y="241.648786" xlink:href="#b"/>
<use x="517.457771" y="222.987989" xlink:href="#b"/>
<use x="545.42457" y="242.766761" xlink:href="#b"/>
<use x="559.480853" y="231.392996" xlink:href="#b"/>
<use x="573.349056" y="239.932954" xlink:href="#b"/>
<use x="586.40077" y="243.285585" xlink:href="#b"/>
<use x="601.049095" y="238.099275" xlink:href="#b"/>
<use x="614.901204" y="245.490371" xlink:href="#b"/>
<use x="628.367373" y="246.40392" xlink:href="#b"/>
<use x="642.292927" y="241.082656" xlink:href="#b"/>
<use x="655.900569" y="231.732085" xlink:href="#b"/>
<use x="670.589142" y="229.028803" xlink:href="#b"/>
<use x="684.089887" y="240.35378" xlink:href="#b"/>
</g>
<path d="m40.6 351v-316" fill="none" stroke="#000" stroke-linecap="square" stroke-width=".8"/>
<path d="m717 351v-316" fill="none" stroke="#000" stroke-linecap="square" stroke-width=".8"/>
<path d="m40.6 351h676" fill="none" stroke="#000" stroke-linecap="square" stroke-width=".8"/>
<path d="m40.6 35.7h676" fill="none" stroke="#000" stroke-linecap="square" stroke-width=".8"/>
<g clip-path="url(#i)">
<g transform="translate(58.2 264) rotate(-90) scale(.1 -.1)">
<defs>
<path id="y" transform="scale(.0156)" d="m2375 4863v-479h-550q-309 0-430-125-120-125-120-450v-309h947v-447h-947v-3053h-578v3053h-550v447h550v244q0 584 272 851 272 268 862 268h544z"/>
<path id="r" transform="scale(.0156)" d="m2194 1759q-697 0-966-159t-269-544q0-306 202-486 202-179 548-179 479 0 768 339t289 901v128h-572zm1147 238v-2e3h-575v531q-197-318-491-470t-719-152q-537 0-855 302-317 302-317 808 0 590 395 890 396 300 1180 300h807v57q0 397-261 614t-733 217q-300 0-585-72-284-72-546-216v532q315 122 612 182 297 61 578 61 760 0 1135-394 375-393 375-1193z"/>
<path id="s" transform="scale(.0156)" d="m2834 3397v-544q-243 125-506 187-262 63-544 63-428 0-642-131t-214-394q0-200 153-314t616-217l197-44q612-131 870-370t258-667q0-488-386-773-386-284-1061-284-281 0-586 55t-642 164v594q319-166 628-249 309-82 613-82 406 0 624 139 219 139 219 392 0 234-158 359-157 125-692 241l-200 47q-534 112-772 345-237 233-237 639 0 494 350 762 350 269 994 269 318 0 599-47 282-46 519-140z"/>
<path id="p" transform="scale(.0156)" d="m1172 4494v-994h1184v-447h-1184v-1900q0-428 117-550t477-122h590v-481h-590q-666 0-919 248-253 249-253 905v1900h-422v447h422v994h578z"/>
<path id="j" transform="scale(.0156)" d="m3597 1894v-281h-2644q38-594 358-905t892-311q331 0 642 81t618 244v-544q-310-131-635-200t-659-69q-838 0-1327 487-489 488-489 1320 0 859 464 1363 464 505 1252 505 706 0 1117-455 411-454 411-1235zm-575 169q-6 471-264 752-258 282-683 282-481 0-770-272t-333-766l2050 4z"/>
<path id="q" transform="scale(.0156)" d="m2631 2963q-97 56-211 82-114 27-251 27-488 0-749-317t-261-911v-1844h-578v3500h578v-544q182 319 472 473 291 155 707 155 59 0 131-8 72-7 159-23l3-590z"/>
<path id="ap" transform="scale(.0156)" d="m8863 2147v-281l-1229-1228-375 375 729 728h-7622v531h7622l-729 728 375 375 1229-1228z"/>
</defs>
<use xlink:href="#y"/>
<use transform="translate(35.2)" xlink:href="#r"/>
<use transform="translate(96.5)" xlink:href="#s"/>
<use transform="translate(149)" xlink:href="#p"/>
<use transform="translate(188)" xlink:href="#j"/>
<use transform="translate(249)" xlink:href="#q"/>
<use transform="translate(290)" xlink:href="#DejaVuSans-20"/>
<use transform="translate(322)" xlink:href="#ap"/>
</g>
</g>
<g clip-path="url(#i)">
<g transform="translate(58.2 332) rotate(-90) scale(.1 -.1)">
<defs>
<path id="aq" transform="scale(.0156)" d="m313 1866v281l1228 1228 375-375-728-728h7621v-531h-7621l728-728-375-375-1228 1228z"/>
<path id="x" transform="scale(.0156)" d="m603 4863h575v-4863h-575v4863z"/>
<path id="t" transform="scale(.0156)" d="m1959 3097q-462 0-731-361t-269-989 267-989q268-361 733-361 460 0 728 362 269 363 269 988 0 622-269 986-268 364-728 364zm0 487q750 0 1178-488 429-487 429-1349 0-859-429-1349-428-489-1178-489-753 0-1180 489-426 490-426 1349 0 862 426 1349 427 488 1180 488z"/>
<path id="af" transform="scale(.0156)" d="m269 3500h575l719-2731 715 2731h678l719-2731 716 2731h575l-916-3500h-678l-753 2869-756-2869h-679l-915 3500z"/>
</defs>
<use xlink:href="#aq"/>
<use transform="translate(143)" xlink:href="#DejaVuSans-20"/>
<use transform="translate(175)" xlink:href="#s"/>
<use transform="translate(227)" xlink:href="#x"/>
<use transform="translate(255)" xlink:href="#t"/>
<use transform="translate(316)" xlink:href="#af"/>
<use transform="translate(398)" xlink:href="#j"/>
<use transform="translate(460)" xlink:href="#q"/>
</g>
</g>
<g transform="translate(174 29.7) scale(.12 -.12)">
<defs>
<path id="am" transform="scale(.0156)" d="m628 4666h2950v-532h-2319v-1381h2222v-531h-2222v-1691h2375v-531h-3006v4666z"/>
<path id="z" transform="scale(.0156)" d="m3122 3366v-538q-244 135-489 202t-495 67q-560 0-870-355-309-354-309-995t309-996q310-354 870-354 250 0 495 67t489 202v-532q-241-112-499-168-257-57-548-57-791 0-1257 497-465 497-465 1341 0 856 470 1346 471 491 1290 491 265 0 518-55 253-54 491-163z"/>
<path id="as" transform="scale(.0156)" d="m3116 1747q0 634-261 995t-717 361q-457 0-718-361t-261-995 261-995 718-361q456 0 717 361t261 995zm-1957 1222q182 312 458 463 277 152 661 152 638 0 1036-506 399-506 399-1331t-399-1332q-398-506-1036-506-384 0-661 152-276 152-458 464v-525h-578v4863h578v-1894z"/>
<path id="ab" transform="scale(.0156)" d="m544 1381v2119h575v-2097q0-497 193-746 194-248 582-248 465 0 735 297 271 297 271 810v1984h575v-3500h-575v538q-209-319-486-474-276-155-642-155-603 0-916 375-312 375-312 1097zm1447 2203z"/>
<path id="u" transform="scale(.0156)" d="m603 3500h575v-3500h-575v3500zm0 1363h575v-729h-575v729z"/>
<path id="al" transform="scale(.0156)" d="m2906 2969v1894h575v-4863h-575v525q-181-312-458-464-276-152-664-152-634 0-1033 506-398 507-398 1332t398 1331q399 506 1033 506 388 0 664-152 277-151 458-463zm-1959-1222q0-634 261-995t717-361 718 361q263 361 263 995t-263 995q-262 361-718 361t-717-361-261-995z"/>
<path id="ar" transform="scale(.0156)" d="m3513 2113v-2113h-575v2094q0 497-194 743-194 247-581 247-466 0-735-297-269-296-269-809v-1978h-578v4863h578v-1907q207 316 486 472 280 156 646 156 603 0 912-373 310-373 310-1098z"/>
<path id="aa" transform="scale(.0156)" d="m3513 2113v-2113h-575v2094q0 497-194 743-194 247-581 247-466 0-735-297-269-296-269-809v-1978h-578v3500h578v-544q207 316 486 472 280 156 646 156 603 0 912-373 310-373 310-1098z"/>
<path id="ak" transform="scale(.0156)" d="m2906 1791q0 625-258 968-257 344-723 344-462 0-720-344-258-343-258-968 0-622 258-966t720-344q466 0 723 344 258 344 258 966zm575-1357q0-893-397-1329-396-436-1215-436-303 0-572 45t-522 139v559q253-137 500-202 247-66 503-66 566 0 847 295t281 892v285q-178-310-456-463t-666-153q-643 0-1037 490-394 491-394 1301 0 812 394 1302 394 491 1037 491 388 0 666-153t456-462v531h575v-3066z"/>
<path id="ac" transform="scale(.0156)" d="m191 3500h609l1094-2937 1094 2937h609l-1313-3500h-781l-1312 3500z"/>
<path id="ag" transform="scale(.0156)" d="m-19 4666h3947v-532h-1656v-4134h-634v4134h-1657v532z"/>
<path id="ao" transform="scale(.0156)" d="m1984 4856q-418-718-622-1422-203-703-203-1425 0-721 205-1429t620-1424h-500q-468 735-701 1444t-233 1409q0 697 231 1403 232 707 703 1444h500z"/>
<path id="w" transform="scale(.0156)" d="m3328 2828q216 388 516 572t706 184q547 0 844-383 297-382 297-1088v-2113h-578v2094q0 503-179 746-178 244-543 244-447 0-707-297-259-296-259-809v-1978h-578v2094q0 506-178 748t-550 242q-441 0-701-298-259-298-259-808v-1978h-578v3500h578v-544q197 322 472 475t653 153q382 0 649-194 267-193 395-562z"/>
<path id="an" transform="scale(.0156)" d="m513 4856h500q468-737 701-1444 233-706 233-1403 0-700-233-1409t-701-1444h-500q415 716 620 1424t205 1429q0 722-205 1425-205 704-620 1422z"/>
</defs>
<use xlink:href="#am"/>
<use transform="translate(63.2)" xlink:href="#y"/>
<use transform="translate(98.4)" xlink:href="#y"/>
<use transform="translate(134)" xlink:href="#j"/>
<use transform="translate(195)" xlink:href="#z"/>
<use transform="translate(250)" xlink:href="#p"/>
<use transform="translate(289)" xlink:href="#DejaVuSans-20"/>
<use transform="translate(321)" xlink:href="#t"/>
<use transform="translate(382)" xlink:href="#y"/>
<use transform="translate(417)" xlink:href="#DejaVuSans-20"/>
<use transform="translate(449)" xlink:href="#as"/>
<use transform="translate(513)" xlink:href="#ab"/>
<use transform="translate(576)" xlink:href="#u"/>
<use transform="translate(604)" xlink:href="#x"/>
<use transform="translate(632)" xlink:href="#al"/>
<use transform="translate(695)" xlink:href="#DejaVuSans-20"/>
<use transform="translate(727)" xlink:href="#af"/>
<use transform="translate(809)" xlink:href="#u"/>
<use transform="translate(837)" xlink:href="#p"/>
<use transform="translate(876)" xlink:href="#ar"/>
<use transform="translate(939)" xlink:href="#DejaVuSans-20"/>
<use transform="translate(971)" xlink:href="#x"/>
<use transform="translate(999)" xlink:href="#r"/>
<use transform="translate(1060)" xlink:href="#p"/>
<use transform="translate(1099)" xlink:href="#j"/>
<use transform="translate(1161)" xlink:href="#s"/>
<use transform="translate(1213)" xlink:href="#p"/>
<use transform="translate(1252)" xlink:href="#DejaVuSans-20"/>
<use transform="translate(1284)" xlink:href="#z"/>
<use transform="translate(1339)" xlink:href="#x"/>
<use transform="translate(1367)" xlink:href="#r"/>
<use transform="translate(1428)" xlink:href="#aa"/>
<use transform="translate(1491)" xlink:href="#ak"/>
<use transform="translate(1555)" xlink:href="#DejaVuSans-20"/>
<use transform="translate(1586)" xlink:href="#r"/>
<use transform="translate(1648)" xlink:href="#aa"/>
<use transform="translate(1711)" xlink:href="#al"/>
<use transform="translate(1775)" xlink:href="#DejaVuSans-20"/>
<use transform="translate(1806)" xlink:href="#p"/>
<use transform="translate(1846)" xlink:href="#r"/>
<use transform="translate(1907)" xlink:href="#u"/>
<use transform="translate(1935)" xlink:href="#x"/>
<use transform="translate(1962)" xlink:href="#z"/>
<use transform="translate(2017)" xlink:href="#r"/>
<use transform="translate(2079)" xlink:href="#x"/>
<use transform="translate(2106)" xlink:href="#x"/>
<use transform="translate(2134)" xlink:href="#DejaVuSans-20"/>
<use transform="translate(2166)" xlink:href="#ac"/>
<use transform="translate(2225)" xlink:href="#s"/>
<use transform="translate(2277)" xlink:href="#m"/>
<use transform="translate(2309)" xlink:href="#DejaVuSans-20"/>
<use transform="translate(2341)" xlink:href="#ag"/>
<use transform="translate(2399)" xlink:href="#u"/>
<use transform="translate(2427)" xlink:href="#j"/>
<use transform="translate(2488)" xlink:href="#q"/>
<use transform="translate(2529)" xlink:href="#DejaVuSans-20"/>
<use transform="translate(2561)" xlink:href="#f"/>
<use transform="translate(2625)" xlink:href="#DejaVuSans-20"/>
<use transform="translate(2656)" xlink:href="#ao"/>
<use transform="translate(2696)" xlink:href="#s"/>
<use transform="translate(2748)" xlink:href="#r"/>
<use transform="translate(2809)" xlink:href="#w"/>
<use transform="translate(2906)" xlink:href="#j"/>
<use transform="translate(2968)" xlink:href="#DejaVuSans-20"/>
<use transform="translate(3e3)" xlink:href="#z"/>
<use transform="translate(3055)" xlink:href="#t"/>
<use transform="translate(3116)" xlink:href="#w"/>
<use transform="translate(3213)" xlink:href="#w"/>
<use transform="translate(3311)" xlink:href="#u"/>
<use transform="translate(3338)" xlink:href="#p"/>
<use transform="translate(3378)" xlink:href="#an"/>
</g>
<path d="m47.6 73.1h82.6q2 0 2-2v-28.4q0-2-2-2h-82.6q-2 0-2 2v28.4q0 2 2 2z" fill="#fff" opacity=".8" stroke="#ccc"/>
<path d="m49.6 48.8h10 10" fill="none" stroke="#1f77b4" stroke-dasharray="1.5,2.475" stroke-opacity=".9" stroke-width="1.5"/>
<use x="59.645553" y="48.831032" fill="#1f77b4" fill-opacity=".9" stroke="#1f77b4" stroke-opacity=".9" xlink:href="#a"/>
<g transform="translate(77.6 52.3) scale(.1 -.1)">
<defs>
<path id="aj" transform="scale(.0156)" d="m3513 3500-1266-1703 1331-1797h-678l-1019 1375-1018-1375h-679l1360 1831-1244 1669h678l928-1247 928 1247h679z"/>
</defs>
<use xlink:href="#x"/>
<use transform="translate(27.8)" xlink:href="#u"/>
<use transform="translate(55.6)" xlink:href="#aa"/>
<use transform="translate(119)" xlink:href="#ab"/>
<use transform="translate(182)" xlink:href="#aj"/>
<use transform="translate(242)" xlink:href="#e"/>
<use transform="translate(275)" xlink:href="#ac"/>
<use transform="translate(334)" xlink:href="#ab"/>
<use transform="translate(398)" xlink:href="#x"/>
<use transform="translate(425)" xlink:href="#p"/>
<use transform="translate(465)" xlink:href="#q"/>
</g>
<path d="m49.6 63.5h10 10" fill="none" stroke="#2ca02c" stroke-linecap="square" stroke-opacity=".9" stroke-width="1.5"/>
<use x="59.645553" y="63.509158" fill="#2ca02c" fill-opacity=".9" stroke="#2ca02c" stroke-opacity=".9" xlink:href="#b"/>
<g transform="translate(77.6 67) scale(.1 -.1)">
<use xlink:href="#w"/>
<use transform="translate(97.4)" xlink:href="#r"/>
<use transform="translate(159)" xlink:href="#z"/>
<use transform="translate(214)" xlink:href="#t"/>
<use transform="translate(275)" xlink:href="#s"/>
</g>
<path d="m40.6 706h676v-316h-676z" fill="#fff"/>
<path d="m59.5 706v-316" clip-path="url(#l)" fill="none" stroke="#b0b0b0" stroke-linecap="square" stroke-width=".8"/>
<use x="59.548504" y="705.793205" stroke="#000000" stroke-width=".8" xlink:href="#g"/>
<g transform="translate(38.7 720) scale(.1 -.1)">
<use xlink:href="#d"/>
<use transform="translate(63.6)" xlink:href="#c"/>
<use transform="translate(127)" xlink:href="#d"/>
<use transform="translate(191)" xlink:href="#v"/>
<use transform="translate(254)" xlink:href="#e"/>
<use transform="translate(291)" xlink:href="#c"/>
<use transform="translate(354)" xlink:href="#ad"/>
</g>
<path d="m119 706v-316" clip-path="url(#l)" fill="none" stroke="#b0b0b0" stroke-linecap="square" stroke-width=".8"/>
<use x="119.058146" y="705.793205" stroke="#000000" stroke-width=".8" xlink:href="#g"/>
<g transform="translate(98.2 720) scale(.1 -.1)">
<use xlink:href="#d"/>
<use transform="translate(63.6)" xlink:href="#c"/>
<use transform="translate(127)" xlink:href="#d"/>
<use transform="translate(191)" xlink:href="#v"/>
<use transform="translate(254)" xlink:href="#e"/>
<use transform="translate(291)" xlink:href="#f"/>
<use transform="translate(354)" xlink:href="#c"/>
</g>
<path d="m181 706v-316" clip-path="url(#l)" fill="none" stroke="#b0b0b0" stroke-linecap="square" stroke-width=".8"/>
<use x="180.551442" y="705.793205" stroke="#000000" stroke-width=".8" xlink:href="#g"/>
<g transform="translate(160 720) scale(.1 -.1)">
<use xlink:href="#d"/>
<use transform="translate(63.6)" xlink:href="#c"/>
<use transform="translate(127)" xlink:href="#d"/>
<use transform="translate(191)" xlink:href="#v"/>
<use transform="translate(254)" xlink:href="#e"/>
<use transform="translate(291)" xlink:href="#f"/>
<use transform="translate(354)" xlink:href="#f"/>
</g>
<path d="m240 706v-316" clip-path="url(#l)" fill="none" stroke="#b0b0b0" stroke-linecap="square" stroke-width=".8"/>
<use x="240.061084" y="705.793205" stroke="#000000" stroke-width=".8" xlink:href="#g"/>
<g transform="translate(219 720) scale(.1 -.1)">
<use xlink:href="#d"/>
<use transform="translate(63.6)" xlink:href="#c"/>
<use transform="translate(127)" xlink:href="#d"/>
<use transform="translate(191)" xlink:href="#v"/>
<use transform="translate(254)" xlink:href="#e"/>
<use transform="translate(291)" xlink:href="#f"/>
<use transform="translate(354)" xlink:href="#d"/>
</g>
<path d="m302 706v-316" clip-path="url(#l)" fill="none" stroke="#b0b0b0" stroke-linecap="square" stroke-width=".8"/>
<use x="301.55438" y="705.793205" stroke="#000000" stroke-width=".8" xlink:href="#g"/>
<g transform="translate(281 720) scale(.1 -.1)">
<use xlink:href="#d"/>
<use transform="translate(63.6)" xlink:href="#c"/>
<use transform="translate(127)" xlink:href="#d"/>
<use transform="translate(191)" xlink:href="#h"/>
<use transform="translate(254)" xlink:href="#e"/>
<use transform="translate(291)" xlink:href="#c"/>
<use transform="translate(354)" xlink:href="#f"/>
</g>
<path d="m363 706v-316" clip-path="url(#l)" fill="none" stroke="#b0b0b0" stroke-linecap="square" stroke-width=".8"/>
<use x="363.047677" y="705.793205" stroke="#000000" stroke-width=".8" xlink:href="#g"/>
<g transform="translate(342 720) scale(.1 -.1)">
<use xlink:href="#d"/>
<use transform="translate(63.6)" xlink:href="#c"/>
<use transform="translate(127)" xlink:href="#d"/>
<use transform="translate(191)" xlink:href="#h"/>
<use transform="translate(254)" xlink:href="#e"/>
<use transform="translate(291)" xlink:href="#c"/>
<use transform="translate(354)" xlink:href="#d"/>
</g>
<path d="m419 706v-316" clip-path="url(#l)" fill="none" stroke="#b0b0b0" stroke-linecap="square" stroke-width=".8"/>
<use x="418.590009" y="705.793205" stroke="#000000" stroke-width=".8" xlink:href="#g"/>
<g transform="translate(398 720) scale(.1 -.1)">
<use xlink:href="#d"/>
<use transform="translate(63.6)" xlink:href="#c"/>
<use transform="translate(127)" xlink:href="#d"/>
<use transform="translate(191)" xlink:href="#h"/>
<use transform="translate(254)" xlink:href="#e"/>
<use transform="translate(291)" xlink:href="#c"/>
<use transform="translate(354)" xlink:href="#ae"/>
</g>
<path d="m480 706v-316" clip-path="url(#l)" fill="none" stroke="#b0b0b0" stroke-linecap="square" stroke-width=".8"/>
<use x="480.083305" y="705.793205" stroke="#000000" stroke-width=".8" xlink:href="#g"/>
<g transform="translate(459 720) scale(.1 -.1)">
<use xlink:href="#d"/>
<use transform="translate(63.6)" xlink:href="#c"/>
<use transform="translate(127)" xlink:href="#d"/>
<use transform="translate(191)" xlink:href="#h"/>
<use transform="translate(254)" xlink:href="#e"/>
<use transform="translate(291)" xlink:href="#c"/>
<use transform="translate(354)" xlink:href="#v"/>
</g>
<path d="m540 706v-316" clip-path="url(#l)" fill="none" stroke="#b0b0b0" stroke-linecap="square" stroke-width=".8"/>
<use x="539.592947" y="705.793205" stroke="#000000" stroke-width=".8" xlink:href="#g"/>
<g transform="translate(519 720) scale(.1 -.1)">
<use xlink:href="#d"/>
<use transform="translate(63.6)" xlink:href="#c"/>
<use transform="translate(127)" xlink:href="#d"/>
<use transform="translate(191)" xlink:href="#h"/>
<use transform="translate(254)" xlink:href="#e"/>
<use transform="translate(291)" xlink:href="#c"/>
<use transform="translate(354)" xlink:href="#h"/>
</g>
<path d="m601 706v-316" clip-path="url(#l)" fill="none" stroke="#b0b0b0" stroke-linecap="square" stroke-width=".8"/>
<use x="601.086243" y="705.793205" stroke="#000000" stroke-width=".8" xlink:href="#g"/>
<g transform="translate(580 720) scale(.1 -.1)">
<use xlink:href="#d"/>
<use transform="translate(63.6)" xlink:href="#c"/>
<use transform="translate(127)" xlink:href="#d"/>
<use transform="translate(191)" xlink:href="#h"/>
<use transform="translate(254)" xlink:href="#e"/>
<use transform="translate(291)" xlink:href="#c"/>
<use transform="translate(354)" xlink:href="#ai"/>
</g>
<path d="m661 706v-316" clip-path="url(#l)" fill="none" stroke="#b0b0b0" stroke-linecap="square" stroke-width=".8"/>
<use x="660.595885" y="705.793205" stroke="#000000" stroke-width=".8" xlink:href="#g"/>
<g transform="translate(640 720) scale(.1 -.1)">
<use xlink:href="#d"/>
<use transform="translate(63.6)" xlink:href="#c"/>
<use transform="translate(127)" xlink:href="#d"/>
<use transform="translate(191)" xlink:href="#h"/>
<use transform="translate(254)" xlink:href="#e"/>
<use transform="translate(291)" xlink:href="#c"/>
<use transform="translate(354)" xlink:href="#ah"/>
</g>
<path d="m40.6 673h676" clip-path="url(#l)" fill="none" stroke="#b0b0b0" stroke-linecap="square" stroke-width=".8"/>
<use x="40.645553" y="673.16728" stroke="#000000" stroke-width=".8" xlink:href="#n"/>
<g transform="translate(3 677) scale(.1 -.1)">
<use xlink:href="#c"/>
<use transform="translate(63.6)" xlink:href="#m"/>
<use transform="translate(95.4)" xlink:href="#ai"/>
<use transform="translate(159)" xlink:href="#c"/>
<use transform="translate(223)" xlink:href="#o"/>
</g>
<path d="m40.6 612h676" clip-path="url(#l)" fill="none" stroke="#b0b0b0" stroke-linecap="square" stroke-width=".8"/>
<use x="40.645553" y="612.222101" stroke="#000000" stroke-width=".8" xlink:href="#n"/>
<g transform="translate(3 616) scale(.1 -.1)">
<use xlink:href="#c"/>
<use transform="translate(63.6)" xlink:href="#m"/>
<use transform="translate(95.4)" xlink:href="#ah"/>
<use transform="translate(159)" xlink:href="#c"/>
<use transform="translate(223)" xlink:href="#o"/>
</g>
<path d="m40.6 551h676" clip-path="url(#l)" fill="none" stroke="#b0b0b0" stroke-linecap="square" stroke-width=".8"/>
<use x="40.645553" y="551.276922" stroke="#000000" stroke-width=".8" xlink:href="#n"/>
<g transform="translate(3 555) scale(.1 -.1)">
<defs>
<path id="ay" transform="scale(.0156)" d="m2034 2216q-450 0-708-241-257-241-257-662 0-422 257-663 258-241 708-241t709 242q260 243 260 662 0 421-258 662-257 241-711 241zm-631 268q-406 100-633 378-226 279-226 679 0 559 398 884 399 325 1092 325 697 0 1094-325t397-884q0-400-227-679-226-278-629-378 456-106 710-416 255-309 255-755 0-679-414-1042-414-362-1186-362-771 0-1186 362-414 363-414 1042 0 446 256 755 257 310 713 416zm-231 997q0-362 226-565 227-203 636-203 407 0 636 203 230 203 230 565 0 363-230 566-229 203-636 203-409 0-636-203-226-203-226-566z"/>
</defs>
<use xlink:href="#c"/>
<use transform="translate(63.6)" xlink:href="#m"/>
<use transform="translate(95.4)" xlink:href="#ay"/>
<use transform="translate(159)" xlink:href="#c"/>
<use transform="translate(223)" xlink:href="#o"/>
</g>
<path d="m40.6 490h676" clip-path="url(#l)" fill="none" stroke="#b0b0b0" stroke-linecap="square" stroke-width=".8"/>
<use x="40.645553" y="490.331743" stroke="#000000" stroke-width=".8" xlink:href="#n"/>
<g transform="translate(3 494) scale(.1 -.1)">
<use xlink:href="#c"/>
<use transform="translate(63.6)" xlink:href="#m"/>
<use transform="translate(95.4)" xlink:href="#ad"/>
<use transform="translate(159)" xlink:href="#c"/>
<use transform="translate(223)" xlink:href="#o"/>
</g>
<path d="m40.6 429h676" clip-path="url(#l)" fill="none" stroke="#b0b0b0" stroke-linecap="square" stroke-width=".8"/>
<use x="40.645553" y="429.386564" stroke="#000000" stroke-width=".8" xlink:href="#n"/>
<g transform="translate(3 433) scale(.1 -.1)">
<use xlink:href="#f"/>
<use transform="translate(63.6)" xlink:href="#m"/>
<use transform="translate(95.4)" xlink:href="#c"/>
<use transform="translate(159)" xlink:href="#c"/>
<use transform="translate(223)" xlink:href="#o"/>
</g>
<g stroke="#1f77b4" stroke-opacity=".9">
<path d="m71.4 624 27.1 26 16.6-13.8 12.7 6.09 15 36.6 12 12.2h3.89l2.11-6.09h1.83l2.21 6.09 2.02-12.2 1.52 12.2 2.27-6.09h6.16l1.98-6.09h1.78l2.1 6.09 1.49-6.09 2.33 6.09 1.94-12.2 2.24 6.09 1.87-6.09 1.01 6.09 1.01-6.09 1.47 6.09h2.5l1.88-6.09 2.19 6.09h1.75l2.18-6.09 2.04-6.09 1.88 12.2 2.06 6.09 0.15-6.09 1.8-12.2 2.02 6.09h1.75l2.11-6.09 2.12-60.9 1.94-30.5 1.79-6.09 2.07 6.09 1.89 22.7 2-0.403 1.44 1.88 0.686 2.77 1.45-3.69 1.93-2.96 0.39 1.67 1.79-3.88 2.05 4.29 2.32 10.9 2.05-16.2 1.5 4.63 0.488-1.14 1.76-2.31 0.569-5.43 1.41 1.82 1.68 1.46 0.99 3.5 1.06 0.317 1.96-4.38 2.45 6.91 1.44-0.511 0.469 0.168 0.997-0.527 0.863 2.15 1.53-3.9 0.159-2.32 1.75-2.14 2.63 3.66 1.79-1.53 2.17 0.302 0.575-2.79 0.772 1.03 2.65-12.1 1.66 3.51 3.91-0.256 2.17-13.6 1.75 2.85 1.92 2.25 2.33-6.15 2 2.68 1.9 4.01 2.07-0.399 1.88-3.35 2.03 7.05 2.05-4.63 1.72-1.23 2.21-1.9 2.14-0.749 1.85 7.61 2.12-1.62 1.82-4.96 3.81 0.851 1.67-1.77 0.756 2.06 1.52-3.58 2.29 3.39 1.47-1.18 2.51-46.1 0.209-1.78 1.6-15.8 1.6-1.83 0.613 1.2 1.88 5.3 1.91 0.1 2.17 2.24 1.97 12.1 1.95-2.99 0.157 3.16 1.03-4.65 0.862 4.68 1.29-13.1 0.631 5.08 1.9-3.28 1.64-3.07 2.04-0.0838 2.41 11 0.948 2.52 1.03-1.11 1.97-13.2 1.85 0.443 1.59-17.5 1.91 7.03 1.94-0.337 0.583-0.844 1.44 9.17 2.5 0.263 1.71-7.5 2.31 2.52 1.9 9.53 2.06-3.87 1.97-1.93 1.84 4.23 2.17-5.27 1.91 2.1 1.52-1.3 0.112-2.68 2.19 0.962 1.79 2.87 2.4-1.3 1.65-1.27 2.29-4.05 1.82 1.21 2.17 1.19 1.48-3.09 1.98 3.54 2.52-0.785 1.76-2.08 0.763 5.6 0.215-0.373 0.964 2.31 1.46-0.606 0.582-0.757 2.13 12.4 1.65-8.15 0.205-2.48 1.94-3.89 1.98 11.5 0.386-7.34 1.73 3.9 1.99-6.31 1.98 2.13 2.04-3.66 1.78 3.46 2.02-1.8 1.86 9.34 1.48-26 0.749-1.14 1.99-5.22 1.86 5.93 1.83 2.62 0.262-2.36 1.84 2.42 1.78-1.84 2.24-2.69 1.6 2.84 0.428 6.36 1.24-5.06 0.835-7.59 2 1.58 2 2.92 1.95 7.68 1.91-0.821 1.3-1.69 2.59 1.2 0.127 2.93 0.996-2.74 1.02 2.22 1.58 1.89 0.0211 37.3 0.297 1.33 1.7 0.0281 2.39-3.65 1.76 1.87 2.14 4.09 1.83-4.68 0.294 0.301 1.91-19.2 1.98-2.67 1.71-0.512 2.16-1.62 2.01 6.98 2.04-1.34 1.48-1.67 0.573-3.54 1.55 4.01 0.322-0.36 1.53-16.5 0.475 4.25 1.19-26.8 0.711-3.45 1.88 7.12 2.11 1.52 2.06-1.82 2.03-4.31 1.86-2.06 1.92 1.21 0.498 3.11 1.39-4.98 2.13 1.84 1.63 3.24 2.41 1.76 1.96-1.98 2.02-0.426 1.99 1.79 2.05 0.527 1.72-1.53 2.11 4.19 2.03-2.71 2-4 0.785 0.823 1.28 3.45 1.93-1.05 1.9 4.84 1.22 1.46 0.841-4.31 1.73-0.511 2.25-0.919 2.01 1.4 0.994 7.66 2.98-2.9 2 0.389 1.65-1.25 2.18-3.64 1.41 1.86 2.52 1.85 1.61-2.54 2-0.334 2.41 6.12 1.78-5.44 2.14-0.9 4.1 4.92 1.98 1.45 2.02-3.66 1.87-1.85 1.9-1.53 1.2 3.1 2.87-4.61 1.87 1.81 1.87 0.267 2.22-1.84 1.84 0.227 1.74 2.5 2.23-5.69 1.49 6.84 2.65-0.46 1.47-2.36 2.45 4.66 1.55-5.71 2.47-2.47 1.77 3.63 2.09 3.84 2.12-4.43 1.12 0.497 2.81-0.242 1.95 0.965 1.95 1.68 1.43 1.59 2.27-3.48 2.32 2.06 1.98-0.0792 2.01-2.13 1.78 3.67 2.09-4.56 1.47-2.69 2.27 1.46 2.28 3.88 1.83-3.82 1.65 6.28 2.51-7.63 1.35 1.99 1.73 2.1 2.72-2.68 3.58 6.41 2.01-2.29 2.26 0.275 1.56-1.43 2.56 2.04 2.05-1.89 1.51 5.45 2.3-2.99 2.14-1.08 1.99 1.5 1.87-1.26 1.64 1.82 2.17-1.41" clip-path="url(#l)" fill="none" stroke-dasharray="1.5,2.475" stroke-width="1.5"/>
<g clip-path="url(#l)" fill="#1f77b4" fill-opacity=".9">
<use x="71.388926" y="624.411136" xlink:href="#a"/>
<use x="98.529822" y="650.438901" xlink:href="#a"/>
<use x="115.112487" y="636.600172" xlink:href="#a"/>
<use x="127.814788" y="642.69469" xlink:href="#a"/>
<use x="142.775838" y="679.261797" xlink:href="#a"/>
<use x="154.771094" y="691.450833" xlink:href="#a"/>
<use x="156.729609" y="691.450833" xlink:href="#a"/>
<use x="158.659631" y="691.450833" xlink:href="#a"/>
<use x="160.766576" y="685.356315" xlink:href="#a"/>
<use x="162.591607" y="685.356315" xlink:href="#a"/>
<use x="164.803313" y="691.450833" xlink:href="#a"/>
<use x="166.819133" y="679.261797" xlink:href="#a"/>
<use x="168.339775" y="691.450833" xlink:href="#a"/>
<use x="170.60633" y="685.356315" xlink:href="#a"/>
<use x="172.611038" y="685.356315" xlink:href="#a"/>
<use x="174.591249" y="685.356315" xlink:href="#a"/>
<use x="176.767598" y="685.356315" xlink:href="#a"/>
<use x="178.750472" y="679.261797" xlink:href="#a"/>
<use x="180.530182" y="679.261797" xlink:href="#a"/>
<use x="182.632856" y="685.356315" xlink:href="#a"/>
<use x="184.120919" y="679.261797" xlink:href="#a"/>
<use x="186.451185" y="685.356315" xlink:href="#a"/>
<use x="188.387085" y="673.16728" xlink:href="#a"/>
<use x="190.626617" y="679.261797" xlink:href="#a"/>
<use x="192.499885" y="673.16728" xlink:href="#a"/>
<use x="193.51194" y="679.261797" xlink:href="#a"/>
<use x="194.524063" y="673.16728" xlink:href="#a"/>
<use x="195.990682" y="679.261797" xlink:href="#a"/>
<use x="196.882913" y="679.261797" xlink:href="#a"/>
<use x="198.489099" y="679.261797" xlink:href="#a"/>
<use x="200.367235" y="673.16728" xlink:href="#a"/>
<use x="202.55302" y="679.261797" xlink:href="#a"/>
<use x="204.305248" y="679.261797" xlink:href="#a"/>
<use x="206.483779" y="673.16728" xlink:href="#a"/>
<use x="208.519367" y="667.072762" xlink:href="#a"/>
<use x="210.401428" y="679.261797" xlink:href="#a"/>
<use x="212.465439" y="685.356315" xlink:href="#a"/>
<use x="212.61504" y="679.261797" xlink:href="#a"/>
<use x="214.4164" y="667.072762" xlink:href="#a"/>
<use x="216.43796" y="673.16728" xlink:href="#a"/>
<use x="218.185092" y="673.16728" xlink:href="#a"/>
<use x="220.300026" y="667.072762" xlink:href="#a"/>
<use x="221.991023" y="617.65062" xlink:href="#a"/>
<use x="222.42334" y="606.127583" xlink:href="#a"/>
<use x="224.036299" y="581.749511" xlink:href="#a"/>
<use x="224.361077" y="575.654993" xlink:href="#a"/>
<use x="226.149351" y="569.560475" xlink:href="#a"/>
<use x="228.21816" y="575.654993" xlink:href="#a"/>
<use x="230.107017" y="598.355971" xlink:href="#a"/>
<use x="232.107317" y="597.953438" xlink:href="#a"/>
<use x="233.551964" y="599.83082" xlink:href="#a"/>
<use x="234.238093" y="602.597045" xlink:href="#a"/>
<use x="235.684852" y="598.904224" xlink:href="#a"/>
<use x="237.609985" y="595.947943" xlink:href="#a"/>
<use x="237.999805" y="597.617484" xlink:href="#a"/>
<use x="239.785094" y="593.735874" xlink:href="#a"/>
<use x="241.83735" y="598.023762" xlink:href="#a"/>
<use x="244.152923" y="608.882181" xlink:href="#a"/>
<use x="246.204926" y="592.68274" xlink:href="#a"/>
<use x="247.707591" y="597.31241" xlink:href="#a"/>
<use x="248.195584" y="596.168738" xlink:href="#a"/>
<use x="249.951416" y="593.857852" xlink:href="#a"/>
<use x="250.520799" y="588.427535" xlink:href="#a"/>
<use x="251.935117" y="590.251481" xlink:href="#a"/>
<use x="253.614267" y="591.712087" xlink:href="#a"/>
<use x="254.604258" y="595.208485" xlink:href="#a"/>
<use x="255.66386" y="595.525273" xlink:href="#a"/>
<use x="257.626576" y="591.147401" xlink:href="#a"/>
<use x="260.076596" y="598.056294" xlink:href="#a"/>
<use x="261.176423" y="597.719603" xlink:href="#a"/>
<use x="261.519866" y="597.54522" xlink:href="#a"/>
<use x="261.989239" y="597.713197" xlink:href="#a"/>
<use x="262.98653" y="597.18612" xlink:href="#a"/>
<use x="263.849834" y="599.336633" xlink:href="#a"/>
<use x="265.382666" y="595.434782" xlink:href="#a"/>
<use x="265.541772" y="593.117076" xlink:href="#a"/>
<use x="267.289247" y="590.980719" xlink:href="#a"/>
<use x="269.921998" y="594.641602" xlink:href="#a"/>
<use x="271.716356" y="593.112269" xlink:href="#a"/>
<use x="273.889491" y="593.413929" xlink:href="#a"/>
<use x="274.464085" y="590.622531" xlink:href="#a"/>
<use x="275.235851" y="591.650189" xlink:href="#a"/>
<use x="277.886487" y="579.539529" xlink:href="#a"/>
<use x="279.542655" y="583.047363" xlink:href="#a"/>
<use x="283.455942" y="582.791181" xlink:href="#a"/>
<use x="285.626987" y="569.219985" xlink:href="#a"/>
<use x="287.378757" y="572.067775" xlink:href="#a"/>
<use x="289.297139" y="574.319811" xlink:href="#a"/>
<use x="291.627313" y="568.168418" xlink:href="#a"/>
<use x="293.632182" y="570.851548" xlink:href="#a"/>
<use x="295.528432" y="574.857086" xlink:href="#a"/>
<use x="297.596989" y="574.458054" xlink:href="#a"/>
<use x="299.477145" y="571.107823" xlink:href="#a"/>
<use x="301.502791" y="578.159393" xlink:href="#a"/>
<use x="303.553854" y="573.529708" xlink:href="#a"/>
<use x="305.277728" y="572.300002" xlink:href="#a"/>
<use x="307.489893" y="570.398418" xlink:href="#a"/>
<use x="309.625054" y="569.649737" xlink:href="#a"/>
<use x="311.47061" y="577.260072" xlink:href="#a"/>
<use x="313.59234" y="575.644787" xlink:href="#a"/>
<use x="315.415994" y="570.687503" xlink:href="#a"/>
<use x="319.222109" y="571.538998" xlink:href="#a"/>
<use x="320.887782" y="569.765076" xlink:href="#a"/>
<use x="321.643292" y="571.822073" xlink:href="#a"/>
<use x="323.164898" y="568.243299" xlink:href="#a"/>
<use x="325.454182" y="571.633433" xlink:href="#a"/>
<use x="326.926128" y="570.455168" xlink:href="#a"/>
<use x="329.431869" y="524.386264" xlink:href="#a"/>
<use x="329.641048" y="522.607864" xlink:href="#a"/>
<use x="331.245811" y="506.845419" xlink:href="#a"/>
<use x="332.841414" y="505.02002" xlink:href="#a"/>
<use x="333.45412" y="506.222665" xlink:href="#a"/>
<use x="335.336135" y="511.517916" xlink:href="#a"/>
<use x="337.25066" y="511.618179" xlink:href="#a"/>
<use x="339.416517" y="513.856728" xlink:href="#a"/>
<use x="341.383894" y="525.919196" xlink:href="#a"/>
<use x="343.333087" y="522.925746" xlink:href="#a"/>
<use x="343.489966" y="526.089117" xlink:href="#a"/>
<use x="344.523579" y="521.438436" xlink:href="#a"/>
<use x="345.385481" y="526.115573" xlink:href="#a"/>
<use x="346.674099" y="513.029971" xlink:href="#a"/>
<use x="347.30492" y="518.107573" xlink:href="#a"/>
<use x="349.205991" y="514.829282" xlink:href="#a"/>
<use x="350.842896" y="511.763649" xlink:href="#a"/>
<use x="352.882089" y="511.679886" xlink:href="#a"/>
<use x="355.295926" y="522.675348" xlink:href="#a"/>
<use x="356.243649" y="525.197923" xlink:href="#a"/>
<use x="357.276963" y="524.092178" xlink:href="#a"/>
<use x="359.249138" y="510.878753" xlink:href="#a"/>
<use x="361.098277" y="511.322078" xlink:href="#a"/>
<use x="362.691675" y="493.869335" xlink:href="#a"/>
<use x="364.60395" y="500.901771" xlink:href="#a"/>
<use x="366.542536" y="500.56431" xlink:href="#a"/>
<use x="367.125074" y="499.720714" xlink:href="#a"/>
<use x="368.560859" y="508.887595" xlink:href="#a"/>
<use x="371.064098" y="509.151013" xlink:href="#a"/>
<use x="372.771028" y="501.649981" xlink:href="#a"/>
<use x="375.083341" y="504.166302" xlink:href="#a"/>
<use x="376.988223" y="513.697459" xlink:href="#a"/>
<use x="379.048423" y="509.826404" xlink:href="#a"/>
<use x="381.021058" y="507.893733" xlink:href="#a"/>
<use x="382.865765" y="512.125742" xlink:href="#a"/>
<use x="385.032012" y="506.858415" xlink:href="#a"/>
<use x="386.946928" y="508.95485" xlink:href="#a"/>
<use x="388.462472" y="507.653729" xlink:href="#a"/>
<use x="388.574902" y="504.977031" xlink:href="#a"/>
<use x="390.766152" y="505.939017" xlink:href="#a"/>
<use x="392.556469" y="508.806791" xlink:href="#a"/>
<use x="394.961329" y="507.511379" xlink:href="#a"/>
<use x="396.612951" y="506.241841" xlink:href="#a"/>
<use x="398.898149" y="502.18964" xlink:href="#a"/>
<use x="400.715879" y="503.403576" xlink:href="#a"/>
<use x="402.884652" y="504.590898" xlink:href="#a"/>
<use x="404.366056" y="501.505521" xlink:href="#a"/>
<use x="406.350193" y="505.040637" xlink:href="#a"/>
<use x="408.86544" y="504.255986" xlink:href="#a"/>
<use x="410.620951" y="502.179666" xlink:href="#a"/>
<use x="411.384222" y="507.775455" xlink:href="#a"/>
<use x="411.598728" y="507.40219" xlink:href="#a"/>
<use x="412.562522" y="509.713142" xlink:href="#a"/>
<use x="414.020233" y="509.107523" xlink:href="#a"/>
<use x="414.601761" y="508.350728" xlink:href="#a"/>
<use x="416.734695" y="520.772015" xlink:href="#a"/>
<use x="418.38246" y="512.625884" xlink:href="#a"/>
<use x="418.586978" y="510.142721" xlink:href="#a"/>
<use x="420.526322" y="506.251518" xlink:href="#a"/>
<use x="422.504375" y="517.729802" xlink:href="#a"/>
<use x="422.890338" y="510.386423" xlink:href="#a"/>
<use x="424.621628" y="514.282452" xlink:href="#a"/>
<use x="426.612882" y="507.976815" xlink:href="#a"/>
<use x="428.590843" y="510.105522" xlink:href="#a"/>
<use x="430.631137" y="506.450263" xlink:href="#a"/>
<use x="432.406761" y="509.906301" xlink:href="#a"/>
<use x="434.427678" y="508.105454" xlink:href="#a"/>
<use x="436.290523" y="517.44436" xlink:href="#a"/>
<use x="437.774889" y="491.490558" xlink:href="#a"/>
<use x="438.5242" y="490.351908" xlink:href="#a"/>
<use x="440.517613" y="485.127413" xlink:href="#a"/>
<use x="442.374442" y="491.057074" xlink:href="#a"/>
<use x="444.204341" y="493.675979" xlink:href="#a"/>
<use x="444.466601" y="491.317653" xlink:href="#a"/>
<use x="446.310826" y="493.739398" xlink:href="#a"/>
<use x="448.089985" y="491.903899" xlink:href="#a"/>
<use x="450.331859" y="489.21173" xlink:href="#a"/>
<use x="451.931709" y="492.049713" xlink:href="#a"/>
<use x="452.359825" y="498.404756" xlink:href="#a"/>
<use x="453.594925" y="493.344344" xlink:href="#a"/>
<use x="454.42969" y="485.753455" xlink:href="#a"/>
<use x="456.426041" y="487.338331" xlink:href="#a"/>
<use x="458.427971" y="490.259334" xlink:href="#a"/>
<use x="460.381504" y="497.940895" xlink:href="#a"/>
<use x="462.29231" y="497.119599" xlink:href="#a"/>
<use x="463.588734" y="495.433027" xlink:href="#a"/>
<use x="466.175016" y="496.628216" xlink:href="#a"/>
<use x="466.302208" y="499.557969" xlink:href="#a"/>
<use x="467.298053" y="496.821843" xlink:href="#a"/>
<use x="468.313138" y="499.044271" xlink:href="#a"/>
<use x="469.89632" y="500.932351" xlink:href="#a"/>
<use x="469.917442" y="538.278877" xlink:href="#a"/>
<use x="470.214715" y="539.612864" xlink:href="#a"/>
<use x="471.910188" y="539.640937" xlink:href="#a"/>
<use x="474.295281" y="535.987248" xlink:href="#a"/>
<use x="476.055108" y="537.854758" xlink:href="#a"/>
<use x="478.192519" y="541.945077" xlink:href="#a"/>
<use x="480.018951" y="537.263433" xlink:href="#a"/>
<use x="480.312642" y="537.564716" xlink:href="#a"/>
<use x="482.225491" y="518.405415" xlink:href="#a"/>
<use x="484.202167" y="515.739586" xlink:href="#a"/>
<use x="485.913712" y="515.227485" xlink:href="#a"/>
<use x="488.069834" y="513.603294" xlink:href="#a"/>
<use x="490.078744" y="520.581321" xlink:href="#a"/>
<use x="492.117959" y="519.239165" xlink:href="#a"/>
<use x="493.59406" y="517.5684" xlink:href="#a"/>
<use x="494.166978" y="514.027143" xlink:href="#a"/>
<use x="495.715606" y="518.035981" xlink:href="#a"/>
<use x="496.037399" y="517.676184" xlink:href="#a"/>
<use x="497.570048" y="501.203162" xlink:href="#a"/>
<use x="498.044885" y="505.455886" xlink:href="#a"/>
<use x="499.233402" y="478.690573" xlink:href="#a"/>
<use x="499.944028" y="475.239693" xlink:href="#a"/>
<use x="501.827811" y="482.362308" xlink:href="#a"/>
<use x="503.936018" y="483.878624" xlink:href="#a"/>
<use x="505.99856" y="482.059533" xlink:href="#a"/>
<use x="508.026801" y="477.750003" xlink:href="#a"/>
<use x="509.882023" y="475.687439" xlink:href="#a"/>
<use x="511.801049" y="476.901778" xlink:href="#a"/>
<use x="512.299235" y="480.007598" xlink:href="#a"/>
<use x="513.693258" y="475.027153" xlink:href="#a"/>
<use x="515.827018" y="476.865229" xlink:href="#a"/>
<use x="517.457771" y="480.103711" xlink:href="#a"/>
<use x="519.868646" y="481.866369" xlink:href="#a"/>
<use x="521.833589" y="479.881851" xlink:href="#a"/>
<use x="523.857789" y="479.456186" xlink:href="#a"/>
<use x="525.845668" y="481.242132" xlink:href="#a"/>
<use x="527.891427" y="481.769621" xlink:href="#a"/>
<use x="529.606783" y="480.239012" xlink:href="#a"/>
<use x="531.71809" y="484.43261" xlink:href="#a"/>
<use x="533.744196" y="481.720712" xlink:href="#a"/>
<use x="535.741029" y="477.72117" xlink:href="#a"/>
<use x="536.526157" y="478.544143" xlink:href="#a"/>
<use x="537.804742" y="481.992616" xlink:href="#a"/>
<use x="539.72992" y="480.938089" xlink:href="#a"/>
<use x="541.634091" y="485.775228" xlink:href="#a"/>
<use x="542.850755" y="487.237821" xlink:href="#a"/>
<use x="543.691811" y="482.924046" xlink:href="#a"/>
<use x="545.42457" y="482.413298" xlink:href="#a"/>
<use x="547.674067" y="481.49381" xlink:href="#a"/>
<use x="549.68192" y="482.895153" xlink:href="#a"/>
<use x="550.675699" y="490.558479" xlink:href="#a"/>
<use x="553.65086" y="487.659509" xlink:href="#a"/>
<use x="555.652055" y="488.04895" xlink:href="#a"/>
<use x="557.304228" y="486.796099" xlink:href="#a"/>
<use x="559.480853" y="483.151326" xlink:href="#a"/>
<use x="560.894368" y="485.008064" xlink:href="#a"/>
<use x="563.411864" y="486.85516" xlink:href="#a"/>
<use x="565.020852" y="484.315466" xlink:href="#a"/>
<use x="567.025032" y="483.981403" xlink:href="#a"/>
<use x="569.430557" y="490.105253" xlink:href="#a"/>
<use x="571.206388" y="484.665412" xlink:href="#a"/>
<use x="573.349056" y="483.765626" xlink:href="#a"/>
<use x="575.079841" y="485.887427" xlink:href="#a"/>
<use x="577.446451" y="488.686087" xlink:href="#a"/>
<use x="579.423287" y="490.135126" xlink:href="#a"/>
<use x="581.439796" y="486.478779" xlink:href="#a"/>
<use x="583.309023" y="484.628329" xlink:href="#a"/>
<use x="585.205549" y="483.094741" xlink:href="#a"/>
<use x="586.40077" y="486.196056" xlink:href="#a"/>
<use x="589.274038" y="481.58521" xlink:href="#a"/>
<use x="591.145355" y="483.399535" xlink:href="#a"/>
<use x="593.015615" y="483.666955" xlink:href="#a"/>
<use x="595.23949" y="481.825107" xlink:href="#a"/>
<use x="597.081373" y="482.052484" xlink:href="#a"/>
<use x="598.823614" y="484.547771" xlink:href="#a"/>
<use x="601.049095" y="478.860261" xlink:href="#a"/>
<use x="602.540877" y="485.701621" xlink:href="#a"/>
<use x="605.192225" y="485.241126" xlink:href="#a"/>
<use x="606.663848" y="482.884054" xlink:href="#a"/>
<use x="609.114489" y="487.547299" xlink:href="#a"/>
<use x="610.665573" y="481.832642" xlink:href="#a"/>
<use x="613.132422" y="479.363203" xlink:href="#a"/>
<use x="614.901204" y="482.998084" xlink:href="#a"/>
<use x="616.994901" y="486.8366" xlink:href="#a"/>
<use x="619.116149" y="482.407366" xlink:href="#a"/>
<use x="620.232001" y="482.904259" xlink:href="#a"/>
<use x="623.038413" y="482.662626" xlink:href="#a"/>
<use x="624.988088" y="483.62774" xlink:href="#a"/>
<use x="626.939624" y="485.311524" xlink:href="#a"/>
<use x="628.367373" y="486.89901" xlink:href="#a"/>
<use x="630.633928" y="483.414533" xlink:href="#a"/>
<use x="632.956939" y="485.472413" xlink:href="#a"/>
<use x="634.940663" y="485.39323" xlink:href="#a"/>
<use x="636.953521" y="483.258281" xlink:href="#a"/>
<use x="638.73027" y="486.930708" xlink:href="#a"/>
<use x="640.822153" y="482.370239" xlink:href="#a"/>
<use x="642.292927" y="479.676961" xlink:href="#a"/>
<use x="644.567725" y="481.133577" xlink:href="#a"/>
<use x="646.843234" y="485.008771" xlink:href="#a"/>
<use x="648.668724" y="481.190089" xlink:href="#a"/>
<use x="650.319451" y="487.469263" xlink:href="#a"/>
<use x="652.827006" y="479.843051" xlink:href="#a"/>
<use x="654.174813" y="481.834166" xlink:href="#a"/>
<use x="655.900569" y="483.931772" xlink:href="#a"/>
<use x="658.617786" y="481.252426" xlink:href="#a"/>
<use x="660.590627" y="484.798968" xlink:href="#a"/>
<use x="662.202392" y="487.661533" xlink:href="#a"/>
<use x="664.210154" y="485.374883" xlink:href="#a"/>
<use x="666.46973" y="485.650342" xlink:href="#a"/>
<use x="668.026325" y="484.21616" xlink:href="#a"/>
<use x="670.589142" y="486.257054" xlink:href="#a"/>
<use x="672.641536" y="484.364875" xlink:href="#a"/>
<use x="674.151478" y="489.815693" xlink:href="#a"/>
<use x="676.451232" y="486.821531" xlink:href="#a"/>
<use x="678.595554" y="485.74011" xlink:href="#a"/>
<use x="680.58279" y="487.237124" xlink:href="#a"/>
<use x="682.4494" y="485.980211" xlink:href="#a"/>
<use x="684.089887" y="487.800823" xlink:href="#a"/>
<use x="686.256387" y="486.390884" xlink:href="#a"/>
</g>
</g>
<g stroke="#2ca02c" stroke-opacity=".9">
<path d="m71.4 591 313-104 61.3-7.33 6.57-1.13 1.24 2.85 0.835-0.959 2 0.204 2-29.5 1.95 33.1 1.91-33.4 1.3 30.5 2.71-44 0.996 2.94 1.02 11 1.9 27.4 1.7-27.5 2.39-46 1.76 1.05 2.14 45.5 1.83 36.5 2.21-14.9 1.98-29 1.71-7.7 2.16-6.37 2.01-2.4 2.04 2.45 2.05-0.568 1.87-1.12 2.01 2.18 1.19 2.63 0.711-2.8 1.88 3.97 2.11 0.752 2.06-1.94 2.03 0.798 3.77 1.78 1.89-0.887 2.13-9.97 1.63-6.25 2.41 2.98 1.96 2.36 2.02-6.83 1.99 25.2 2.05-0.256 7.85-2.64 0.785-4.58 1.28 0.921 1.93-7.33 1.9 10.6 1.22 2.01 0.841 1.56 1.73 1.29 2.25-2.7 2.01-7.47 0.994 10.4 2.98-11.6 2 10.2 1.65-8.52 2.18 1.66 1.41 0.0716 2.52 2.58 1.61-0.47 2 1.17 2.41 5.61 1.78-5.4 2.14 3.47 1.73 1.93 2.37 1.3 1.98 0.0324 2.02-12 1.87 5.23 1.9 3.56 1.2-4.21 2.87-3.03 1.87-3.31 1.87-2.3 2.22 10.9 1.84-2.75 1.74 0.388 2.23-0.668 1.49 2.84 2.65 1.94 1.47-0.0635 2.45 2.67 1.55-2.05 2.47-7.08 1.77 5.53 2.09 3.77 2.12-3.14 1.12-0.148 2.81 2.78 1.95-3.05 1.95-0.572 1.43-1.64 2.27 2.77 2.32-4.18 1.98-0.568 2.01 3.6 1.78-2.59 2.09-4.23 1.47 0.346 2.27 0.317 2.28 1.48 1.83-7.54 1.65-3.67 2.51 2.49 1.35-0.502 1.73 1.16 2.72-1.89 1.97 9.54 1.61-9.56 2.01 11.4 2.26-14.2 1.56 2.02 2.56-0.872 2.05 1.94 1.51 3.21 2.3 5.63 2.14-0.279 1.99-7.34 1.87-2.61 1.64 11.2 2.17-7.74" clip-path="url(#l)" fill="none" stroke-linecap="square" stroke-width="1.5"/>
<g clip-path="url(#l)" fill="#2ca02c" fill-opacity=".9">
<use x="71.388926" y="590.825897" xlink:href="#b"/>
<use x="384.477323" y="486.423282" xlink:href="#b"/>
<use x="445.789542" y="479.090914" xlink:href="#b"/>
<use x="452.359825" y="477.956888" xlink:href="#b"/>
<use x="453.594925" y="480.802795" xlink:href="#b"/>
<use x="454.42969" y="479.843732" xlink:href="#b"/>
<use x="456.426041" y="480.04808" xlink:href="#b"/>
<use x="458.427971" y="450.533416" xlink:href="#b"/>
<use x="460.381504" y="483.67739" xlink:href="#b"/>
<use x="462.29231" y="450.25215" xlink:href="#b"/>
<use x="463.588734" y="480.758447" xlink:href="#b"/>
<use x="466.302208" y="436.798432" xlink:href="#b"/>
<use x="467.298053" y="439.734179" xlink:href="#b"/>
<use x="468.313138" y="450.703188" xlink:href="#b"/>
<use x="470.214715" y="478.115182" xlink:href="#b"/>
<use x="471.910188" y="450.585353" xlink:href="#b"/>
<use x="474.295281" y="404.603397" xlink:href="#b"/>
<use x="476.055108" y="405.648692" xlink:href="#b"/>
<use x="478.192519" y="451.152398" xlink:href="#b"/>
<use x="480.018951" y="487.675674" xlink:href="#b"/>
<use x="482.225491" y="472.726416" xlink:href="#b"/>
<use x="484.202167" y="443.695104" xlink:href="#b"/>
<use x="485.913712" y="435.990723" xlink:href="#b"/>
<use x="488.069834" y="429.619522" xlink:href="#b"/>
<use x="490.078744" y="427.221309" xlink:href="#b"/>
<use x="492.117959" y="429.666706" xlink:href="#b"/>
<use x="494.166978" y="429.098758" xlink:href="#b"/>
<use x="496.037399" y="427.981289" xlink:href="#b"/>
<use x="498.044885" y="430.156422" xlink:href="#b"/>
<use x="499.233402" y="432.783108" xlink:href="#b"/>
<use x="499.944028" y="429.978845" xlink:href="#b"/>
<use x="501.827811" y="433.945535" xlink:href="#b"/>
<use x="503.936018" y="434.697095" xlink:href="#b"/>
<use x="505.99856" y="432.755402" xlink:href="#b"/>
<use x="508.026801" y="433.55294" xlink:href="#b"/>
<use x="511.801049" y="435.33429" xlink:href="#b"/>
<use x="513.693258" y="434.447651" xlink:href="#b"/>
<use x="515.827018" y="424.476215" xlink:href="#b"/>
<use x="517.457771" y="418.229892" xlink:href="#b"/>
<use x="519.868646" y="421.212873" xlink:href="#b"/>
<use x="521.833589" y="423.577611" xlink:href="#b"/>
<use x="523.857789" y="416.742934" xlink:href="#b"/>
<use x="525.845668" y="441.965147" xlink:href="#b"/>
<use x="527.891427" y="441.7094" xlink:href="#b"/>
<use x="535.741029" y="439.066298" xlink:href="#b"/>
<use x="536.526157" y="434.490071" xlink:href="#b"/>
<use x="537.804742" y="435.410594" xlink:href="#b"/>
<use x="539.72992" y="428.080417" xlink:href="#b"/>
<use x="541.634091" y="438.725018" xlink:href="#b"/>
<use x="542.850755" y="440.736701" xlink:href="#b"/>
<use x="543.691811" y="442.296547" xlink:href="#b"/>
<use x="545.42457" y="443.58502" xlink:href="#b"/>
<use x="547.674067" y="440.881457" xlink:href="#b"/>
<use x="549.68192" y="433.415076" xlink:href="#b"/>
<use x="550.675699" y="443.824806" xlink:href="#b"/>
<use x="553.65086" y="432.25971" xlink:href="#b"/>
<use x="555.652055" y="442.429748" xlink:href="#b"/>
<use x="557.304228" y="433.912545" xlink:href="#b"/>
<use x="559.480853" y="435.575443" xlink:href="#b"/>
<use x="560.894368" y="435.64703" xlink:href="#b"/>
<use x="563.411864" y="438.231516" xlink:href="#b"/>
<use x="565.020852" y="437.76165" xlink:href="#b"/>
<use x="567.025032" y="438.933701" xlink:href="#b"/>
<use x="569.430557" y="444.547205" xlink:href="#b"/>
<use x="571.206388" y="439.144274" xlink:href="#b"/>
<use x="573.349056" y="442.61407" xlink:href="#b"/>
<use x="575.079841" y="444.542052" xlink:href="#b"/>
<use x="577.446451" y="445.846633" xlink:href="#b"/>
<use x="579.423287" y="445.879042" xlink:href="#b"/>
<use x="581.439796" y="433.843706" xlink:href="#b"/>
<use x="583.309023" y="439.070576" xlink:href="#b"/>
<use x="585.205549" y="442.627897" xlink:href="#b"/>
<use x="586.40077" y="438.421994" xlink:href="#b"/>
<use x="589.274038" y="435.387767" xlink:href="#b"/>
<use x="591.145355" y="432.075366" xlink:href="#b"/>
<use x="593.015615" y="429.775491" xlink:href="#b"/>
<use x="595.23949" y="440.633672" xlink:href="#b"/>
<use x="597.081373" y="437.882961" xlink:href="#b"/>
<use x="598.823614" y="438.271255" xlink:href="#b"/>
<use x="601.049095" y="437.603321" xlink:href="#b"/>
<use x="602.540877" y="440.438728" xlink:href="#b"/>
<use x="605.192225" y="442.374395" xlink:href="#b"/>
<use x="606.663848" y="442.310934" xlink:href="#b"/>
<use x="609.114489" y="444.984506" xlink:href="#b"/>
<use x="610.665573" y="442.938277" xlink:href="#b"/>
<use x="613.132422" y="435.858158" xlink:href="#b"/>
<use x="614.901204" y="441.385143" xlink:href="#b"/>
<use x="616.994901" y="445.152676" xlink:href="#b"/>
<use x="619.116149" y="442.009866" xlink:href="#b"/>
<use x="620.232001" y="441.861525" xlink:href="#b"/>
<use x="623.038413" y="444.645561" xlink:href="#b"/>
<use x="624.988088" y="441.598887" xlink:href="#b"/>
<use x="626.939624" y="441.027272" xlink:href="#b"/>
<use x="628.367373" y="439.383648" xlink:href="#b"/>
<use x="630.633928" y="442.151811" xlink:href="#b"/>
<use x="632.956939" y="437.970925" xlink:href="#b"/>
<use x="634.940663" y="437.403201" xlink:href="#b"/>
<use x="636.953521" y="441.006172" xlink:href="#b"/>
<use x="638.73027" y="438.415583" xlink:href="#b"/>
<use x="640.822153" y="434.187421" xlink:href="#b"/>
<use x="642.292927" y="434.53318" xlink:href="#b"/>
<use x="644.567725" y="434.850184" xlink:href="#b"/>
<use x="646.843234" y="436.328271" xlink:href="#b"/>
<use x="648.668724" y="428.790261" xlink:href="#b"/>
<use x="650.319451" y="425.122491" xlink:href="#b"/>
<use x="652.827006" y="427.614273" xlink:href="#b"/>
<use x="654.174813" y="427.112012" xlink:href="#b"/>
<use x="655.900569" y="428.276837" xlink:href="#b"/>
<use x="658.617786" y="426.385274" xlink:href="#b"/>
<use x="660.590627" y="435.928909" xlink:href="#b"/>
<use x="662.202392" y="426.36595" xlink:href="#b"/>
<use x="664.210154" y="437.781399" xlink:href="#b"/>
<use x="666.46973" y="423.614996" xlink:href="#b"/>
<use x="668.026325" y="425.630382" xlink:href="#b"/>
<use x="670.589142" y="424.758127" xlink:href="#b"/>
<use x="672.641536" y="426.701953" xlink:href="#b"/>
<use x="674.151478" y="429.915945" xlink:href="#b"/>
<use x="676.451232" y="435.542203" xlink:href="#b"/>
<use x="678.595554" y="435.263173" xlink:href="#b"/>
<use x="680.58279" y="427.927422" xlink:href="#b"/>
<use x="682.4494" y="425.318932" xlink:href="#b"/>
<use x="684.089887" y="436.535438" xlink:href="#b"/>
<use x="686.256387" y="428.799138" xlink:href="#b"/>
</g>
</g>
<path d="m40.6 706v-316" fill="none" stroke="#000" stroke-linecap="square" stroke-width=".8"/>
<path d="m717 706v-316" fill="none" stroke="#000" stroke-linecap="square" stroke-width=".8"/>
<path d="m40.6 706h676" fill="none" stroke="#000" stroke-linecap="square" stroke-width=".8"/>
<path d="m40.6 390h676" fill="none" stroke="#000" stroke-linecap="square" stroke-width=".8"/>
<g clip-path="url(#l)">
<g transform="translate(58.2 421) rotate(-90) scale(.1 -.1)">
<use xlink:href="#y"/>
<use transform="translate(35.2)" xlink:href="#r"/>
<use transform="translate(96.5)" xlink:href="#s"/>
<use transform="translate(149)" xlink:href="#p"/>
<use transform="translate(188)" xlink:href="#j"/>
<use transform="translate(249)" xlink:href="#q"/>
<use transform="translate(290)" xlink:href="#DejaVuSans-20"/>
<use transform="translate(322)" xlink:href="#ap"/>
</g>
</g>
<g clip-path="url(#l)">
<g transform="translate(58.2 489) rotate(-90) scale(.1 -.1)">
<use xlink:href="#aq"/>
<use transform="translate(143)" xlink:href="#DejaVuSans-20"/>
<use transform="translate(175)" xlink:href="#s"/>
<use transform="translate(227)" xlink:href="#x"/>
<use transform="translate(255)" xlink:href="#t"/>
<use transform="translate(316)" xlink:href="#af"/>
<use transform="translate(398)" xlink:href="#j"/>
<use transform="translate(460)" xlink:href="#q"/>
</g>
</g>
<g transform="translate(232 384) scale(.12 -.12)">
<use xlink:href="#am"/>
<use transform="translate(63.2)" xlink:href="#y"/>
<use transform="translate(98.4)" xlink:href="#y"/>
<use transform="translate(134)" xlink:href="#j"/>
<use transform="translate(195)" xlink:href="#z"/>
<use transform="translate(250)" xlink:href="#p"/>
<use transform="translate(289)" xlink:href="#DejaVuSans-20"/>
<use transform="translate(321)" xlink:href="#t"/>
<use transform="translate(382)" xlink:href="#y"/>
<use transform="translate(417)" xlink:href="#DejaVuSans-20"/>
<use transform="translate(449)" xlink:href="#y"/>
<use transform="translate(484)" xlink:href="#q"/>
<use transform="translate(523)" xlink:href="#j"/>
<use transform="translate(585)" xlink:href="#j"/>
<use transform="translate(646)" xlink:href="#DejaVuSans-20"/>
<use transform="translate(678)" xlink:href="#p"/>
<use transform="translate(717)" xlink:href="#ar"/>
<use transform="translate(781)" xlink:href="#q"/>
<use transform="translate(820)" xlink:href="#j"/>
<use transform="translate(881)" xlink:href="#r"/>
<use transform="translate(942)" xlink:href="#al"/>
<use transform="translate(1006)" xlink:href="#u"/>
<use transform="translate(1034)" xlink:href="#aa"/>
<use transform="translate(1097)" xlink:href="#ak"/>
<use transform="translate(1161)" xlink:href="#DejaVuSans-20"/>
<use transform="translate(1192)" xlink:href="#ac"/>
<use transform="translate(1252)" xlink:href="#s"/>
<use transform="translate(1304)" xlink:href="#m"/>
<use transform="translate(1335)" xlink:href="#DejaVuSans-20"/>
<use transform="translate(1367)" xlink:href="#ag"/>
<use transform="translate(1425)" xlink:href="#u"/>
<use transform="translate(1453)" xlink:href="#j"/>
<use transform="translate(1514)" xlink:href="#q"/>
<use transform="translate(1556)" xlink:href="#DejaVuSans-20"/>
<use transform="translate(1587)" xlink:href="#f"/>
<use transform="translate(1651)" xlink:href="#DejaVuSans-20"/>
<use transform="translate(1683)" xlink:href="#ao"/>
<use transform="translate(1722)" xlink:href="#s"/>
<use transform="translate(1774)" xlink:href="#r"/>
<use transform="translate(1835)" xlink:href="#w"/>
<use transform="translate(1933)" xlink:href="#j"/>
<use transform="translate(1994)" xlink:href="#DejaVuSans-20"/>
<use transform="translate(2026)" xlink:href="#z"/>
<use transform="translate(2081)" xlink:href="#t"/>
<use transform="translate(2142)" xlink:href="#w"/>
<use transform="translate(2239)" xlink:href="#w"/>
<use transform="translate(2337)" xlink:href="#u"/>
<use transform="translate(2365)" xlink:href="#p"/>
<use transform="translate(2404)" xlink:href="#an"/>
</g>
<path d="m47.6 428h82.6q2 0 2-2v-28.4q0-2-2-2h-82.6q-2 0-2 2v28.4q0 2 2 2z" fill="#fff" opacity=".8" stroke="#ccc"/>
<path d="m49.6 403h10 10" fill="none" stroke="#1f77b4" stroke-dasharray="1.5,2.475" stroke-opacity=".9" stroke-width="1.5"/>
<use x="59.645553" y="403.359463" fill="#1f77b4" fill-opacity=".9" stroke="#1f77b4" stroke-opacity=".9" xlink:href="#a"/>
<g transform="translate(77.6 407) scale(.1 -.1)">
<use xlink:href="#x"/>
<use transform="translate(27.8)" xlink:href="#u"/>
<use transform="translate(55.6)" xlink:href="#aa"/>
<use transform="translate(119)" xlink:href="#ab"/>
<use transform="translate(182)" xlink:href="#aj"/>
<use transform="translate(242)" xlink:href="#e"/>
<use transform="translate(275)" xlink:href="#ac"/>
<use transform="translate(334)" xlink:href="#ab"/>
<use transform="translate(398)" xlink:href="#x"/>
<use transform="translate(425)" xlink:href="#p"/>
<use transform="translate(465)" xlink:href="#q"/>
</g>
<path d="m49.6 418h10 10" fill="none" stroke="#2ca02c" stroke-linecap="square" stroke-opacity=".9" stroke-width="1.5"/>
<use x="59.645553" y="418.037588" fill="#2ca02c" fill-opacity=".9" stroke="#2ca02c" stroke-opacity=".9" xlink:href="#b"/>
<g transform="translate(77.6 422) scale(.1 -.1)">
<use xlink:href="#w"/>
<use transform="translate(97.4)" xlink:href="#r"/>
<use transform="translate(159)" xlink:href="#z"/>
<use transform="translate(214)" xlink:href="#t"/>
<use transform="translate(275)" xlink:href="#s"/>
</g>
<path d="m40.6 1060h676v-316h-676z" fill="#fff"/>
<path d="m60.3 1060v-316" clip-path="url(#k)" fill="none" stroke="#b0b0b0" stroke-linecap="square" stroke-width=".8"/>
<use x="60.292375" y="1060.321635" stroke="#000000" stroke-width=".8" xlink:href="#g"/>
<g transform="translate(39.4 1075) scale(.1 -.1)">
<use xlink:href="#d"/>
<use transform="translate(63.6)" xlink:href="#c"/>
<use transform="translate(127)" xlink:href="#d"/>
<use transform="translate(191)" xlink:href="#v"/>
<use transform="translate(254)" xlink:href="#e"/>
<use transform="translate(291)" xlink:href="#c"/>
<use transform="translate(354)" xlink:href="#ad"/>
</g>
<path d="m120 1060v-316" clip-path="url(#k)" fill="none" stroke="#b0b0b0" stroke-linecap="square" stroke-width=".8"/>
<use x="119.802016" y="1060.321635" stroke="#000000" stroke-width=".8" xlink:href="#g"/>
<g transform="translate(98.9 1075) scale(.1 -.1)">
<use xlink:href="#d"/>
<use transform="translate(63.6)" xlink:href="#c"/>
<use transform="translate(127)" xlink:href="#d"/>
<use transform="translate(191)" xlink:href="#v"/>
<use transform="translate(254)" xlink:href="#e"/>
<use transform="translate(291)" xlink:href="#f"/>
<use transform="translate(354)" xlink:href="#c"/>
</g>
<path d="m181 1060v-316" clip-path="url(#k)" fill="none" stroke="#b0b0b0" stroke-linecap="square" stroke-width=".8"/>
<use x="181.295313" y="1060.321635" stroke="#000000" stroke-width=".8" xlink:href="#g"/>
<g transform="translate(160 1075) scale(.1 -.1)">
<use xlink:href="#d"/>
<use transform="translate(63.6)" xlink:href="#c"/>
<use transform="translate(127)" xlink:href="#d"/>
<use transform="translate(191)" xlink:href="#v"/>
<use transform="translate(254)" xlink:href="#e"/>
<use transform="translate(291)" xlink:href="#f"/>
<use transform="translate(354)" xlink:href="#f"/>
</g>
<path d="m241 1060v-316" clip-path="url(#k)" fill="none" stroke="#b0b0b0" stroke-linecap="square" stroke-width=".8"/>
<use x="240.804954" y="1060.321635" stroke="#000000" stroke-width=".8" xlink:href="#g"/>
<g transform="translate(220 1075) scale(.1 -.1)">
<use xlink:href="#d"/>
<use transform="translate(63.6)" xlink:href="#c"/>
<use transform="translate(127)" xlink:href="#d"/>
<use transform="translate(191)" xlink:href="#v"/>
<use transform="translate(254)" xlink:href="#e"/>
<use transform="translate(291)" xlink:href="#f"/>
<use transform="translate(354)" xlink:href="#d"/>
</g>
<path d="m302 1060v-316" clip-path="url(#k)" fill="none" stroke="#b0b0b0" stroke-linecap="square" stroke-width=".8"/>
<use x="302.298251" y="1060.321635" stroke="#000000" stroke-width=".8" xlink:href="#g"/>
<g transform="translate(281 1075) scale(.1 -.1)">
<use xlink:href="#d"/>
<use transform="translate(63.6)" xlink:href="#c"/>
<use transform="translate(127)" xlink:href="#d"/>
<use transform="translate(191)" xlink:href="#h"/>
<use transform="translate(254)" xlink:href="#e"/>
<use transform="translate(291)" xlink:href="#c"/>
<use transform="translate(354)" xlink:href="#f"/>
</g>
<path d="m364 1060v-316" clip-path="url(#k)" fill="none" stroke="#b0b0b0" stroke-linecap="square" stroke-width=".8"/>
<use x="363.791547" y="1060.321635" stroke="#000000" stroke-width=".8" xlink:href="#g"/>
<g transform="translate(343 1075) scale(.1 -.1)">
<use xlink:href="#d"/>
<use transform="translate(63.6)" xlink:href="#c"/>
<use transform="translate(127)" xlink:href="#d"/>
<use transform="translate(191)" xlink:href="#h"/>
<use transform="translate(254)" xlink:href="#e"/>
<use transform="translate(291)" xlink:href="#c"/>
<use transform="translate(354)" xlink:href="#d"/>
</g>
<path d="m419 1060v-316" clip-path="url(#k)" fill="none" stroke="#b0b0b0" stroke-linecap="square" stroke-width=".8"/>
<use x="419.333879" y="1060.321635" stroke="#000000" stroke-width=".8" xlink:href="#g"/>
<g transform="translate(398 1075) scale(.1 -.1)">
<use xlink:href="#d"/>
<use transform="translate(63.6)" xlink:href="#c"/>
<use transform="translate(127)" xlink:href="#d"/>
<use transform="translate(191)" xlink:href="#h"/>
<use transform="translate(254)" xlink:href="#e"/>
<use transform="translate(291)" xlink:href="#c"/>
<use transform="translate(354)" xlink:href="#ae"/>
</g>
<path d="m481 1060v-316" clip-path="url(#k)" fill="none" stroke="#b0b0b0" stroke-linecap="square" stroke-width=".8"/>
<use x="480.827176" y="1060.321635" stroke="#000000" stroke-width=".8" xlink:href="#g"/>
<g transform="translate(460 1075) scale(.1 -.1)">
<use xlink:href="#d"/>
<use transform="translate(63.6)" xlink:href="#c"/>
<use transform="translate(127)" xlink:href="#d"/>
<use transform="translate(191)" xlink:href="#h"/>
<use transform="translate(254)" xlink:href="#e"/>
<use transform="translate(291)" xlink:href="#c"/>
<use transform="translate(354)" xlink:href="#v"/>
</g>
<path d="m540 1060v-316" clip-path="url(#k)" fill="none" stroke="#b0b0b0" stroke-linecap="square" stroke-width=".8"/>
<use x="540.336817" y="1060.321635" stroke="#000000" stroke-width=".8" xlink:href="#g"/>
<g transform="translate(519 1075) scale(.1 -.1)">
<use xlink:href="#d"/>
<use transform="translate(63.6)" xlink:href="#c"/>
<use transform="translate(127)" xlink:href="#d"/>
<use transform="translate(191)" xlink:href="#h"/>
<use transform="translate(254)" xlink:href="#e"/>
<use transform="translate(291)" xlink:href="#c"/>
<use transform="translate(354)" xlink:href="#h"/>
</g>
<path d="m602 1060v-316" clip-path="url(#k)" fill="none" stroke="#b0b0b0" stroke-linecap="square" stroke-width=".8"/>
<use x="601.830113" y="1060.321635" stroke="#000000" stroke-width=".8" xlink:href="#g"/>
<g transform="translate(581 1075) scale(.1 -.1)">
<use xlink:href="#d"/>
<use transform="translate(63.6)" xlink:href="#c"/>
<use transform="translate(127)" xlink:href="#d"/>
<use transform="translate(191)" xlink:href="#h"/>
<use transform="translate(254)" xlink:href="#e"/>
<use transform="translate(291)" xlink:href="#c"/>
<use transform="translate(354)" xlink:href="#ai"/>
</g>
<path d="m661 1060v-316" clip-path="url(#k)" fill="none" stroke="#b0b0b0" stroke-linecap="square" stroke-width=".8"/>
<use x="661.339755" y="1060.321635" stroke="#000000" stroke-width=".8" xlink:href="#g"/>
<g transform="translate(640 1075) scale(.1 -.1)">
<use xlink:href="#d"/>
<use transform="translate(63.6)" xlink:href="#c"/>
<use transform="translate(127)" xlink:href="#d"/>
<use transform="translate(191)" xlink:href="#h"/>
<use transform="translate(254)" xlink:href="#e"/>
<use transform="translate(291)" xlink:href="#c"/>
<use transform="translate(354)" xlink:href="#ah"/>
</g>
<path d="m40.6 1029h676" clip-path="url(#k)" fill="none" stroke="#b0b0b0" stroke-linecap="square" stroke-width=".8"/>
<use x="40.645553" y="1028.553649" stroke="#000000" stroke-width=".8" xlink:href="#n"/>
<g transform="translate(3 1032) scale(.1 -.1)">
<use xlink:href="#f"/>
<use transform="translate(63.6)" xlink:href="#m"/>
<use transform="translate(95.4)" xlink:href="#c"/>
<use transform="translate(159)" xlink:href="#c"/>
<use transform="translate(223)" xlink:href="#o"/>
</g>
<path d="m40.6 960h676" clip-path="url(#k)" fill="none" stroke="#b0b0b0" stroke-linecap="square" stroke-width=".8"/>
<use x="40.645553" y="960.22018" stroke="#000000" stroke-width=".8" xlink:href="#n"/>
<g transform="translate(3 964) scale(.1 -.1)">
<use xlink:href="#f"/>
<use transform="translate(63.6)" xlink:href="#m"/>
<use transform="translate(95.4)" xlink:href="#f"/>
<use transform="translate(159)" xlink:href="#c"/>
<use transform="translate(223)" xlink:href="#o"/>
</g>
<path d="m40.6 892h676" clip-path="url(#k)" fill="none" stroke="#b0b0b0" stroke-linecap="square" stroke-width=".8"/>
<use x="40.645553" y="891.88671" stroke="#000000" stroke-width=".8" xlink:href="#n"/>
<g transform="translate(3 896) scale(.1 -.1)">
<use xlink:href="#f"/>
<use transform="translate(63.6)" xlink:href="#m"/>
<use transform="translate(95.4)" xlink:href="#d"/>
<use transform="translate(159)" xlink:href="#c"/>
<use transform="translate(223)" xlink:href="#o"/>
</g>
<path d="m40.6 824h676" clip-path="url(#k)" fill="none" stroke="#b0b0b0" stroke-linecap="square" stroke-width=".8"/>
<use x="40.645553" y="823.553241" stroke="#000000" stroke-width=".8" xlink:href="#n"/>
<g transform="translate(3 827) scale(.1 -.1)">
<use xlink:href="#f"/>
<use transform="translate(63.6)" xlink:href="#m"/>
<use transform="translate(95.4)" xlink:href="#ae"/>
<use transform="translate(159)" xlink:href="#c"/>
<use transform="translate(223)" xlink:href="#o"/>
</g>
<path d="m40.6 755h676" clip-path="url(#k)" fill="none" stroke="#b0b0b0" stroke-linecap="square" stroke-width=".8"/>
<use x="40.645553" y="755.219771" stroke="#000000" stroke-width=".8" xlink:href="#n"/>
<g transform="translate(3 759) scale(.1 -.1)">
<use xlink:href="#f"/>
<use transform="translate(63.6)" xlink:href="#m"/>
<use transform="translate(95.4)" xlink:href="#v"/>
<use transform="translate(159)" xlink:href="#c"/>
<use transform="translate(223)" xlink:href="#o"/>
</g>
<g stroke="#1f77b4" stroke-opacity=".9">
<path d="m462 1013 13.8 25.3 14-14.3 13.9 8.88 13.5-2.54 14.3-0.453 13.7-3.29 14.1-2 13.9-0.111 13.1 5.87 14.6-271 13.9 261 13.5 9.13 13.9-9.88 13.6 2.36 14.7 1.64 13.5-4.33" clip-path="url(#k)" fill="none" stroke-dasharray="1.5,2.475" stroke-width="1.5"/>
<g clip-path="url(#k)" fill="#1f77b4" fill-opacity=".9">
<use x="462.29231" y="1012.607762" xlink:href="#a"/>
<use x="476.055108" y="1037.953076" xlink:href="#a"/>
<use x="490.078744" y="1023.689392" xlink:href="#a"/>
<use x="503.936018" y="1032.568512" xlink:href="#a"/>
<use x="517.457771" y="1030.025913" xlink:href="#a"/>
<use x="531.71809" y="1029.57254" xlink:href="#a"/>
<use x="545.42457" y="1026.2804" xlink:href="#a"/>
<use x="559.480853" y="1024.278307" xlink:href="#a"/>
<use x="573.349056" y="1024.167402" xlink:href="#a"/>
<use x="586.40077" y="1030.036415" xlink:href="#a"/>
<use x="601.049095" y="759.131827" xlink:href="#a"/>
<use x="614.901204" y="1020.625702" xlink:href="#a"/>
<use x="628.367373" y="1029.758653" xlink:href="#a"/>
<use x="642.292927" y="1019.876515" xlink:href="#a"/>
<use x="655.900569" y="1022.234406" xlink:href="#a"/>
<use x="670.589142" y="1023.877103" xlink:href="#a"/>
<use x="684.089887" y="1019.551459" xlink:href="#a"/>
</g>
</g>
<g stroke="#2ca02c" stroke-opacity=".9">
<path d="m462 1016 13.8-1.97 14 9.12 13.9 6.32 13.5-10.8 28 15.5 14.1-8.84 13.9 3.29 13.1-6.87 14.6-219 13.9 229 13.5-0.313 13.9 4.02 13.6-8.41 14.7-4.37 13.5 23.5" clip-path="url(#k)" fill="none" stroke-linecap="square" stroke-width="1.5"/>
<g clip-path="url(#k)" fill="#2ca02c" fill-opacity=".9">
<use x="462.29231" y="1015.79177" xlink:href="#b"/>
<use x="476.055108" y="1013.821877" xlink:href="#b"/>
<use x="490.078744" y="1022.93787" xlink:href="#b"/>
<use x="503.936018" y="1029.260781" xlink:href="#b"/>
<use x="517.457771" y="1018.450343" xlink:href="#b"/>
<use x="545.42457" y="1033.928365" xlink:href="#b"/>
<use x="559.480853" y="1025.092435" xlink:href="#b"/>
<use x="573.349056" y="1028.377553" xlink:href="#b"/>
<use x="586.40077" y="1021.51104" xlink:href="#b"/>
<use x="601.049095" y="802.957734" xlink:href="#b"/>
<use x="614.901204" y="1031.502965" xlink:href="#b"/>
<use x="628.367373" y="1031.189963" xlink:href="#b"/>
<use x="642.292927" y="1035.214599" xlink:href="#b"/>
<use x="655.900569" y="1026.80849" xlink:href="#b"/>
<use x="670.589142" y="1022.441669" xlink:href="#b"/>
<use x="684.089887" y="1045.979263" xlink:href="#b"/>
</g>
</g>
<path d="m40.6 1060v-316" fill="none" stroke="#000" stroke-linecap="square" stroke-width=".8"/>
<path d="m717 1060v-316" fill="none" stroke="#000" stroke-linecap="square" stroke-width=".8"/>
<path d="m40.6 1060h676" fill="none" stroke="#000" stroke-linecap="square" stroke-width=".8"/>
<path d="m40.6 745h676" fill="none" stroke="#000" stroke-linecap="square" stroke-width=".8"/>
<g clip-path="url(#k)">
<g transform="translate(58.2 1021) rotate(-90) scale(.1 -.1)">
<use xlink:href="#y"/>
<use transform="translate(35.2)" xlink:href="#r"/>
<use transform="translate(96.5)" xlink:href="#s"/>
<use transform="translate(149)" xlink:href="#p"/>
<use transform="translate(188)" xlink:href="#j"/>
<use transform="translate(249)" xlink:href="#q"/>
<use transform="translate(290)" xlink:href="#DejaVuSans-20"/>
<use transform="translate(322)" xlink:href="#ap"/>
</g>
</g>
<g clip-path="url(#k)">
<g transform="translate(58.2 1089) rotate(-90) scale(.1 -.1)">
<use xlink:href="#aq"/>
<use transform="translate(143)" xlink:href="#DejaVuSans-20"/>
<use transform="translate(175)" xlink:href="#s"/>
<use transform="translate(227)" xlink:href="#x"/>
<use transform="translate(255)" xlink:href="#t"/>
<use transform="translate(316)" xlink:href="#af"/>
<use transform="translate(398)" xlink:href="#j"/>
<use transform="translate(460)" xlink:href="#q"/>
</g>
</g>
<g transform="translate(268 739) scale(.12 -.12)">
<defs>
<path id="aw" transform="scale(.0156)" d="m628 4666h631v-4341q0-844-320-1225t-1030-381h-240v531h197q418 0 590 235 172 234 172 840v4341z"/>
<path id="ax" transform="scale(.0156)" d="m628 4666h631v-4666h-631v4666z"/>
</defs>
<use xlink:href="#am"/>
<use transform="translate(63.2)" xlink:href="#y"/>
<use transform="translate(98.4)" xlink:href="#y"/>
<use transform="translate(134)" xlink:href="#j"/>
<use transform="translate(195)" xlink:href="#z"/>
<use transform="translate(250)" xlink:href="#p"/>
<use transform="translate(289)" xlink:href="#DejaVuSans-20"/>
<use transform="translate(321)" xlink:href="#t"/>
<use transform="translate(382)" xlink:href="#y"/>
<use transform="translate(417)" xlink:href="#DejaVuSans-20"/>
<use transform="translate(449)" xlink:href="#aw"/>
<use transform="translate(479)" xlink:href="#ax"/>
<use transform="translate(508)" xlink:href="#ag"/>
<use transform="translate(569)" xlink:href="#DejaVuSans-20"/>
<use transform="translate(601)" xlink:href="#ac"/>
<use transform="translate(660)" xlink:href="#s"/>
<use transform="translate(712)" xlink:href="#m"/>
<use transform="translate(744)" xlink:href="#DejaVuSans-20"/>
<use transform="translate(776)" xlink:href="#ag"/>
<use transform="translate(834)" xlink:href="#u"/>
<use transform="translate(862)" xlink:href="#j"/>
<use transform="translate(923)" xlink:href="#q"/>
<use transform="translate(964)" xlink:href="#DejaVuSans-20"/>
<use transform="translate(996)" xlink:href="#f"/>
<use transform="translate(1060)" xlink:href="#DejaVuSans-20"/>
<use transform="translate(1092)" xlink:href="#ao"/>
<use transform="translate(1131)" xlink:href="#s"/>
<use transform="translate(1183)" xlink:href="#r"/>
<use transform="translate(1244)" xlink:href="#w"/>
<use transform="translate(1341)" xlink:href="#j"/>
<use transform="translate(1403)" xlink:href="#DejaVuSans-20"/>
<use transform="translate(1435)" xlink:href="#z"/>
<use transform="translate(1490)" xlink:href="#t"/>
<use transform="translate(1551)" xlink:href="#w"/>
<use transform="translate(1648)" xlink:href="#w"/>
<use transform="translate(1746)" xlink:href="#u"/>
<use transform="translate(1773)" xlink:href="#p"/>
<use transform="translate(1813)" xlink:href="#an"/>
</g>
<path d="m47.6 782h82.6q2 0 2-2v-28.4q0-2-2-2h-82.6q-2 0-2 2v28.4q0 2 2 2z" fill="#fff" opacity=".8" stroke="#ccc"/>
<path d="m49.6 758h10 10" fill="none" stroke="#1f77b4" stroke-dasharray="1.5,2.475" stroke-opacity=".9" stroke-width="1.5"/>
<use x="59.645553" y="757.887892" fill="#1f77b4" fill-opacity=".9" stroke="#1f77b4" stroke-opacity=".9" xlink:href="#a"/>
<g transform="translate(77.6 761) scale(.1 -.1)">
<use xlink:href="#x"/>
<use transform="translate(27.8)" xlink:href="#u"/>
<use transform="translate(55.6)" xlink:href="#aa"/>
<use transform="translate(119)" xlink:href="#ab"/>
<use transform="translate(182)" xlink:href="#aj"/>
<use transform="translate(242)" xlink:href="#e"/>
<use transform="translate(275)" xlink:href="#ac"/>
<use transform="translate(334)" xlink:href="#ab"/>
<use transform="translate(398)" xlink:href="#x"/>
<use transform="translate(425)" xlink:href="#p"/>
<use transform="translate(465)" xlink:href="#q"/>
</g>
<path d="m49.6 773h10 10" fill="none" stroke="#2ca02c" stroke-linecap="square" stroke-opacity=".9" stroke-width="1.5"/>
<use x="59.645553" y="772.566017" fill="#2ca02c" fill-opacity=".9" stroke="#2ca02c" stroke-opacity=".9" xlink:href="#b"/>
<g transform="translate(77.6 776) scale(.1 -.1)">
<use xlink:href="#w"/>
<use transform="translate(97.4)" xlink:href="#r"/>
<use transform="translate(159)" xlink:href="#z"/>
<use transform="translate(214)" xlink:href="#t"/>
<use transform="translate(275)" xlink:href="#s"/>
</g>
<g transform="translate(229 12.1) scale(.12 -.12)">
<defs>
<path id="av" transform="scale(.0156)" d="m1259 4147v-1753h794q441 0 681 228 241 228 241 650 0 419-241 647-240 228-681 228h-794zm-631 519h1425q785 0 1186-355 402-355 402-1039 0-691-402-1044-401-353-1186-353h-794v-1875h-631v4666z"/>
<path id="au" transform="scale(.0156)" d="m1159 525v-1856h-578v4831h578v-531q182 312 458 463 277 152 661 152 638 0 1036-506 399-506 399-1331t-399-1332q-398-506-1036-506-384 0-661 152-276 152-458 464zm1957 1222q0 634-261 995t-717 361q-457 0-718-361t-261-995 261-995 718-361q456 0 717 361t261 995z"/>
<path id="at" transform="scale(.0156)" d="m2059-325q-243-625-475-815-231-191-618-191h-460v481h338q237 0 368 113 132 112 291 531l103 262-1415 3444h609l1094-2737 1094 2737h609l-1538-3825z"/>
</defs>
<use xlink:href="#av"/>
<use transform="translate(56.7)" xlink:href="#j"/>
<use transform="translate(118)" xlink:href="#q"/>
<use transform="translate(159)" xlink:href="#y"/>
<use transform="translate(195)" xlink:href="#t"/>
<use transform="translate(256)" xlink:href="#q"/>
<use transform="translate(295)" xlink:href="#w"/>
<use transform="translate(392)" xlink:href="#r"/>
<use transform="translate(454)" xlink:href="#aa"/>
<use transform="translate(517)" xlink:href="#z"/>
<use transform="translate(572)" xlink:href="#j"/>
<use transform="translate(634)" xlink:href="#DejaVuSans-20"/>
<use transform="translate(665)" xlink:href="#u"/>
<use transform="translate(693)" xlink:href="#w"/>
<use transform="translate(791)" xlink:href="#au"/>
<use transform="translate(854)" xlink:href="#q"/>
<use transform="translate(893)" xlink:href="#t"/>
<use transform="translate(954)" xlink:href="#ac"/>
<use transform="translate(1013)" xlink:href="#j"/>
<use transform="translate(1075)" xlink:href="#w"/>
<use transform="translate(1172)" xlink:href="#j"/>
<use transform="translate(1234)" xlink:href="#aa"/>
<use transform="translate(1297)" xlink:href="#p"/>
<use transform="translate(1336)" xlink:href="#DejaVuSans-20"/>
<use transform="translate(1368)" xlink:href="#as"/>
<use transform="translate(1432)" xlink:href="#at"/>
<use transform="translate(1491)" xlink:href="#DejaVuSans-20"/>
<use transform="translate(1523)" xlink:href="#z"/>
<use transform="translate(1578)" xlink:href="#t"/>
<use transform="translate(1639)" xlink:href="#aa"/>
<use transform="translate(1702)" xlink:href="#y"/>
<use transform="translate(1737)" xlink:href="#u"/>
<use transform="translate(1765)" xlink:href="#ak"/>
<use transform="translate(1829)" xlink:href="#ab"/>
<use transform="translate(1892)" xlink:href="#q"/>
<use transform="translate(1933)" xlink:href="#r"/>
<use transform="translate(1994)" xlink:href="#p"/>
<use transform="translate(2034)" xlink:href="#u"/>
<use transform="translate(2061)" xlink:href="#t"/>
<use transform="translate(2123)" xlink:href="#aa"/>
</g>
<defs>
<clipPath id="i">
<rect x="40.6" y="35.7" width="676" height="316"/>
</clipPath>
<clipPath id="l">
<rect x="40.6" y="390" width="676" height="316"/>
</clipPath>
<clipPath id="k">
<rect x="40.6" y="745" width="676" height="316"/>
</clipPath>
</defs>
</svg>
