<?xml version="1.0" encoding="UTF-8"?>
<!DOCTYPE svg  PUBLIC '-//W3C//DTD SVG 1.1//EN'  'http://www.w3.org/Graphics/SVG/1.1/DTD/svg11.dtd'>
<svg width="720pt" height="720pt" version="1.1" viewBox="0 0 720 720" xmlns="http://www.w3.org/2000/svg" xmlns:xlink="http://www.w3.org/1999/xlink">
<defs>
<style type="text/css">*{stroke-linejoin: round; stroke-linecap: butt}</style>
</defs>
<path d="m0 720h720v-720h-720z" fill="#fff"/>
<path d="m40.6 349h661v-313h-661z" fill="#fff"/>
<path d="m99.6 349v-313" clip-path="url(#g)" fill="none" stroke="#b0b0b0" stroke-linecap="square" stroke-width=".8"/>
<defs>
<path id="k" d="m0 0v3.5" stroke="#000" stroke-width=".8"/>
</defs>
<use x="99.563525" y="348.52899" stroke="#000000" stroke-width=".8" xlink:href="#k"/>
<g transform="translate(70.5 363) scale(.1 -.1)">
<defs>
<path id="c" transform="scale(.0156)" d="m1228 531h2203v-531h-2962v531q359 372 979 998 621 627 780 809 303 340 423 576 121 236 121 464 0 372-261 606-261 235-680 235-297 0-627-103-329-103-704-313v638q381 153 712 231 332 78 607 78 725 0 1156-363 431-362 431-968 0-288-108-546-107-257-392-607-78-91-497-524-418-433-1181-1211z"/>
<path id="b" transform="scale(.0156)" d="m2034 4250q-487 0-733-480-245-479-245-1442 0-959 245-1439 246-480 733-480 491 0 736 480 246 480 246 1439 0 963-246 1442-245 480-736 480zm0 500q785 0 1199-621 414-620 414-1801 0-1178-414-1799-414-620-1199-620-784 0-1198 620-414 621-414 1799 0 1181 414 1801 414 621 1198 621z"/>
<path id="m" transform="scale(.0156)" d="m2419 4116-1594-2491h1594v2491zm-166 550h794v-3041h666v-525h-666v-1100h-628v1100h-2106v609l1940 2957z"/>
<path id="f" transform="scale(.0156)" d="m313 2009h1684v-512h-1684v512z"/>
<path id="l" transform="scale(.0156)" d="m691 4666h2478v-532h-1900v-1143q137 47 274 70 138 23 276 23 781 0 1237-428 457-428 457-1159 0-753-469-1171-469-417-1322-417-294 0-599 50-304 50-629 150v635q281-153 581-228t634-75q541 0 856 284 316 284 316 772 0 487-316 771-315 285-856 285-253 0-505-56-251-56-513-175v2344z"/>
<path id="d" transform="scale(.0156)" d="m794 531h1031v3560l-1122-225v575l1116 225h631v-4135h1031v-531h-2687v531z"/>
</defs>
<use xlink:href="#c"/>
<use transform="translate(63.6)" xlink:href="#b"/>
<use transform="translate(127)" xlink:href="#c"/>
<use transform="translate(191)" xlink:href="#m"/>
<use transform="translate(254)" xlink:href="#f"/>
<use transform="translate(291)" xlink:href="#b"/>
<use transform="translate(354)" xlink:href="#l"/>
<use transform="translate(418)" xlink:href="#f"/>
<use transform="translate(454)" xlink:href="#d"/>
<use transform="translate(518)" xlink:href="#l"/>
</g>
<path d="m175 349v-313" clip-path="url(#g)" fill="none" stroke="#b0b0b0" stroke-linecap="square" stroke-width=".8"/>
<use x="174.789789" y="348.52899" stroke="#000000" stroke-width=".8" xlink:href="#k"/>
<g transform="translate(146 363) scale(.1 -.1)">
<defs>
<path id="ah" transform="scale(.0156)" d="m2113 2584q-425 0-674-291-248-290-248-796 0-503 248-796 249-292 674-292t673 292q248 293 248 796 0 506-248 796-248 291-673 291zm1253 1979v-575q-238 112-480 171-242 60-480 60-625 0-955-422-329-422-376-1275 184 272 462 417 279 145 613 145 703 0 1111-427 408-426 408-1160 0-719-425-1154-425-434-1131-434-810 0-1238 620-428 621-428 1799 0 1106 525 1764t1409 658q238 0 480-47t505-140z"/>
</defs>
<use xlink:href="#c"/>
<use transform="translate(63.6)" xlink:href="#b"/>
<use transform="translate(127)" xlink:href="#c"/>
<use transform="translate(191)" xlink:href="#m"/>
<use transform="translate(254)" xlink:href="#f"/>
<use transform="translate(291)" xlink:href="#b"/>
<use transform="translate(354)" xlink:href="#ah"/>
<use transform="translate(418)" xlink:href="#f"/>
<use transform="translate(454)" xlink:href="#b"/>
<use transform="translate(518)" xlink:href="#d"/>
</g>
<path d="m237 349v-313" clip-path="url(#g)" fill="none" stroke="#b0b0b0" stroke-linecap="square" stroke-width=".8"/>
<use x="236.74083" y="348.52899" stroke="#000000" stroke-width=".8" xlink:href="#k"/>
<g transform="translate(208 363) scale(.1 -.1)">
<use xlink:href="#c"/>
<use transform="translate(63.6)" xlink:href="#b"/>
<use transform="translate(127)" xlink:href="#c"/>
<use transform="translate(191)" xlink:href="#m"/>
<use transform="translate(254)" xlink:href="#f"/>
<use transform="translate(291)" xlink:href="#b"/>
<use transform="translate(354)" xlink:href="#ah"/>
<use transform="translate(418)" xlink:href="#f"/>
<use transform="translate(454)" xlink:href="#d"/>
<use transform="translate(518)" xlink:href="#l"/>
</g>
<path d="m308 349v-313" clip-path="url(#g)" fill="none" stroke="#b0b0b0" stroke-linecap="square" stroke-width=".8"/>
<use x="307.54202" y="348.52899" stroke="#000000" stroke-width=".8" xlink:href="#k"/>
<g transform="translate(278 363) scale(.1 -.1)">
<defs>
<path id="al" transform="scale(.0156)" d="m525 4666h3e3v-269l-1694-4397h-659l1594 4134h-2241v532z"/>
</defs>
<use xlink:href="#c"/>
<use transform="translate(63.6)" xlink:href="#b"/>
<use transform="translate(127)" xlink:href="#c"/>
<use transform="translate(191)" xlink:href="#m"/>
<use transform="translate(254)" xlink:href="#f"/>
<use transform="translate(291)" xlink:href="#b"/>
<use transform="translate(354)" xlink:href="#al"/>
<use transform="translate(418)" xlink:href="#f"/>
<use transform="translate(454)" xlink:href="#b"/>
<use transform="translate(518)" xlink:href="#d"/>
</g>
<path d="m369 349v-313" clip-path="url(#g)" fill="none" stroke="#b0b0b0" stroke-linecap="square" stroke-width=".8"/>
<use x="369.493061" y="348.52899" stroke="#000000" stroke-width=".8" xlink:href="#k"/>
<g transform="translate(340 363) scale(.1 -.1)">
<use xlink:href="#c"/>
<use transform="translate(63.6)" xlink:href="#b"/>
<use transform="translate(127)" xlink:href="#c"/>
<use transform="translate(191)" xlink:href="#m"/>
<use transform="translate(254)" xlink:href="#f"/>
<use transform="translate(291)" xlink:href="#b"/>
<use transform="translate(354)" xlink:href="#al"/>
<use transform="translate(418)" xlink:href="#f"/>
<use transform="translate(454)" xlink:href="#d"/>
<use transform="translate(518)" xlink:href="#l"/>
</g>
<path d="m445 349v-313" clip-path="url(#g)" fill="none" stroke="#b0b0b0" stroke-linecap="square" stroke-width=".8"/>
<use x="444.719325" y="348.52899" stroke="#000000" stroke-width=".8" xlink:href="#k"/>
<g transform="translate(416 363) scale(.1 -.1)">
<defs>
<path id="ag" transform="scale(.0156)" d="m2034 2216q-450 0-708-241-257-241-257-662 0-422 257-663 258-241 708-241t709 242q260 243 260 662 0 421-258 662-257 241-711 241zm-631 268q-406 100-633 378-226 279-226 679 0 559 398 884 399 325 1092 325 697 0 1094-325t397-884q0-400-227-679-226-278-629-378 456-106 710-416 255-309 255-755 0-679-414-1042-414-362-1186-362-771 0-1186 362-414 363-414 1042 0 446 256 755 257 310 713 416zm-231 997q0-362 226-565 227-203 636-203 407 0 636 203 230 203 230 565 0 363-230 566-229 203-636 203-409 0-636-203-226-203-226-566z"/>
</defs>
<use xlink:href="#c"/>
<use transform="translate(63.6)" xlink:href="#b"/>
<use transform="translate(127)" xlink:href="#c"/>
<use transform="translate(191)" xlink:href="#m"/>
<use transform="translate(254)" xlink:href="#f"/>
<use transform="translate(291)" xlink:href="#b"/>
<use transform="translate(354)" xlink:href="#ag"/>
<use transform="translate(418)" xlink:href="#f"/>
<use transform="translate(454)" xlink:href="#b"/>
<use transform="translate(518)" xlink:href="#d"/>
</g>
<path d="m507 349v-313" clip-path="url(#g)" fill="none" stroke="#b0b0b0" stroke-linecap="square" stroke-width=".8"/>
<use x="506.670366" y="348.52899" stroke="#000000" stroke-width=".8" xlink:href="#k"/>
<g transform="translate(478 363) scale(.1 -.1)">
<use xlink:href="#c"/>
<use transform="translate(63.6)" xlink:href="#b"/>
<use transform="translate(127)" xlink:href="#c"/>
<use transform="translate(191)" xlink:href="#m"/>
<use transform="translate(254)" xlink:href="#f"/>
<use transform="translate(291)" xlink:href="#b"/>
<use transform="translate(354)" xlink:href="#ag"/>
<use transform="translate(418)" xlink:href="#f"/>
<use transform="translate(454)" xlink:href="#d"/>
<use transform="translate(518)" xlink:href="#l"/>
</g>
<path d="m582 349v-313" clip-path="url(#g)" fill="none" stroke="#b0b0b0" stroke-linecap="square" stroke-width=".8"/>
<use x="581.896631" y="348.52899" stroke="#000000" stroke-width=".8" xlink:href="#k"/>
<g transform="translate(553 363) scale(.1 -.1)">
<defs>
<path id="w" transform="scale(.0156)" d="m703 97v575q238-113 481-172 244-59 479-59 625 0 954 420 330 420 377 1277-181-269-460-413-278-144-615-144-700 0-1108 423-408 424-408 1159 0 718 425 1152 425 435 1131 435 810 0 1236-621 427-620 427-1801 0-1103-524-1761-523-658-1407-658-238 0-482 47-243 47-506 141zm1256 1978q425 0 673 290 249 291 249 798 0 503-249 795-248 292-673 292t-673-292-248-795q0-507 248-798 248-290 673-290z"/>
</defs>
<use xlink:href="#c"/>
<use transform="translate(63.6)" xlink:href="#b"/>
<use transform="translate(127)" xlink:href="#c"/>
<use transform="translate(191)" xlink:href="#m"/>
<use transform="translate(254)" xlink:href="#f"/>
<use transform="translate(291)" xlink:href="#b"/>
<use transform="translate(354)" xlink:href="#w"/>
<use transform="translate(418)" xlink:href="#f"/>
<use transform="translate(454)" xlink:href="#b"/>
<use transform="translate(518)" xlink:href="#d"/>
</g>
<path d="m644 349v-313" clip-path="url(#g)" fill="none" stroke="#b0b0b0" stroke-linecap="square" stroke-width=".8"/>
<use x="643.847672" y="348.52899" stroke="#000000" stroke-width=".8" xlink:href="#k"/>
<g transform="translate(615 363) scale(.1 -.1)">
<use xlink:href="#c"/>
<use transform="translate(63.6)" xlink:href="#b"/>
<use transform="translate(127)" xlink:href="#c"/>
<use transform="translate(191)" xlink:href="#m"/>
<use transform="translate(254)" xlink:href="#f"/>
<use transform="translate(291)" xlink:href="#b"/>
<use transform="translate(354)" xlink:href="#w"/>
<use transform="translate(418)" xlink:href="#f"/>
<use transform="translate(454)" xlink:href="#d"/>
<use transform="translate(518)" xlink:href="#l"/>
</g>
<path d="m40.6 349h661" clip-path="url(#g)" fill="none" stroke="#b0b0b0" stroke-linecap="square" stroke-width=".8"/>
<defs>
<path id="i" d="m0 0h-3.5" stroke="#000" stroke-width=".8"/>
</defs>
<use x="40.645553" y="348.52899" stroke="#000000" stroke-width=".8" xlink:href="#i"/>
<g transform="translate(3 352) scale(.1 -.1)">
<defs>
<path id="e" transform="scale(.0156)" d="m684 794h660v-794h-660v794z"/>
<path id="j" transform="scale(.0156)" d="m4488 3438-1429-1435 1429-1428-372-378-1435 1434-1434-1434-369 378 1425 1428-1425 1435 369 378 1434-1435 1435 1435 372-378z"/>
</defs>
<use xlink:href="#b"/>
<use transform="translate(63.6)" xlink:href="#e"/>
<use transform="translate(95.4)" xlink:href="#w"/>
<use transform="translate(159)" xlink:href="#b"/>
<use transform="translate(223)" xlink:href="#j"/>
</g>
<path d="m40.6 309h661" clip-path="url(#g)" fill="none" stroke="#b0b0b0" stroke-linecap="square" stroke-width=".8"/>
<use x="40.645553" y="309.429441" stroke="#000000" stroke-width=".8" xlink:href="#i"/>
<g transform="translate(3 313) scale(.1 -.1)">
<use xlink:href="#b"/>
<use transform="translate(63.6)" xlink:href="#e"/>
<use transform="translate(95.4)" xlink:href="#w"/>
<use transform="translate(159)" xlink:href="#l"/>
<use transform="translate(223)" xlink:href="#j"/>
</g>
<path d="m40.6 270h661" clip-path="url(#g)" fill="none" stroke="#b0b0b0" stroke-linecap="square" stroke-width=".8"/>
<use x="40.645553" y="270.329891" stroke="#000000" stroke-width=".8" xlink:href="#i"/>
<g transform="translate(3 274) scale(.1 -.1)">
<use xlink:href="#d"/>
<use transform="translate(63.6)" xlink:href="#e"/>
<use transform="translate(95.4)" xlink:href="#b"/>
<use transform="translate(159)" xlink:href="#b"/>
<use transform="translate(223)" xlink:href="#j"/>
</g>
<path d="m40.6 231h661" clip-path="url(#g)" fill="none" stroke="#b0b0b0" stroke-linecap="square" stroke-width=".8"/>
<use x="40.645553" y="231.230342" stroke="#000000" stroke-width=".8" xlink:href="#i"/>
<g transform="translate(3 235) scale(.1 -.1)">
<use xlink:href="#d"/>
<use transform="translate(63.6)" xlink:href="#e"/>
<use transform="translate(95.4)" xlink:href="#b"/>
<use transform="translate(159)" xlink:href="#l"/>
<use transform="translate(223)" xlink:href="#j"/>
</g>
<path d="m40.6 192h661" clip-path="url(#g)" fill="none" stroke="#b0b0b0" stroke-linecap="square" stroke-width=".8"/>
<use x="40.645553" y="192.130792" stroke="#000000" stroke-width=".8" xlink:href="#i"/>
<g transform="translate(3 196) scale(.1 -.1)">
<use xlink:href="#d"/>
<use transform="translate(63.6)" xlink:href="#e"/>
<use transform="translate(95.4)" xlink:href="#d"/>
<use transform="translate(159)" xlink:href="#b"/>
<use transform="translate(223)" xlink:href="#j"/>
</g>
<path d="m40.6 153h661" clip-path="url(#g)" fill="none" stroke="#b0b0b0" stroke-linecap="square" stroke-width=".8"/>
<use x="40.645553" y="153.031243" stroke="#000000" stroke-width=".8" xlink:href="#i"/>
<g transform="translate(3 157) scale(.1 -.1)">
<use xlink:href="#d"/>
<use transform="translate(63.6)" xlink:href="#e"/>
<use transform="translate(95.4)" xlink:href="#d"/>
<use transform="translate(159)" xlink:href="#l"/>
<use transform="translate(223)" xlink:href="#j"/>
</g>
<path d="m40.6 114h661" clip-path="url(#g)" fill="none" stroke="#b0b0b0" stroke-linecap="square" stroke-width=".8"/>
<use x="40.645553" y="113.931694" stroke="#000000" stroke-width=".8" xlink:href="#i"/>
<g transform="translate(3 118) scale(.1 -.1)">
<use xlink:href="#d"/>
<use transform="translate(63.6)" xlink:href="#e"/>
<use transform="translate(95.4)" xlink:href="#c"/>
<use transform="translate(159)" xlink:href="#b"/>
<use transform="translate(223)" xlink:href="#j"/>
</g>
<path d="m40.6 74.8h661" clip-path="url(#g)" fill="none" stroke="#b0b0b0" stroke-linecap="square" stroke-width=".8"/>
<use x="40.645553" y="74.832144" stroke="#000000" stroke-width=".8" xlink:href="#i"/>
<g transform="translate(3 78.6) scale(.1 -.1)">
<use xlink:href="#d"/>
<use transform="translate(63.6)" xlink:href="#e"/>
<use transform="translate(95.4)" xlink:href="#c"/>
<use transform="translate(159)" xlink:href="#l"/>
<use transform="translate(223)" xlink:href="#j"/>
</g>
<path d="m40.6 35.7h661" clip-path="url(#g)" fill="none" stroke="#b0b0b0" stroke-linecap="square" stroke-width=".8"/>
<use x="40.645553" y="35.732595" stroke="#000000" stroke-width=".8" xlink:href="#i"/>
<g transform="translate(3 39.5) scale(.1 -.1)">
<defs>
<path id="p" transform="scale(.0156)" d="m2597 2516q453-97 707-404 255-306 255-756 0-690-475-1069-475-378-1350-378-293 0-604 58t-642 174v609q262-153 574-231 313-78 654-78 593 0 904 234t311 681q0 413-289 645-289 233-804 233h-544v519h569q465 0 712 186t247 536q0 359-255 551-254 193-729 193-260 0-557-57-297-56-653-174v562q360 100 674 150t592 50q719 0 1137-327 419-326 419-882 0-388-222-655t-631-370z"/>
</defs>
<use xlink:href="#d"/>
<use transform="translate(63.6)" xlink:href="#e"/>
<use transform="translate(95.4)" xlink:href="#p"/>
<use transform="translate(159)" xlink:href="#b"/>
<use transform="translate(223)" xlink:href="#j"/>
</g>
<path d="m70.7 270h436 102" clip-path="url(#g)" fill="none" stroke="#1f77b4" stroke-linecap="square" stroke-opacity=".9" stroke-width="1.5"/>
<defs>
<path id="a" d="m-2.5 2.5h5v-5h-5z" stroke="#1f77b4" stroke-opacity=".9"/>
</defs>
<g clip-path="url(#g)" fill="#1f77b4" fill-opacity=".9" stroke="#1f77b4" stroke-opacity=".9">
<use x="70.680696" y="270.329891" xlink:href="#a"/>
<use x="506.582223" y="270.329891" xlink:href="#a"/>
<use x="608.309869" y="270.329891" xlink:href="#a"/>
</g>
<g stroke="#1f77b4" stroke-opacity=".9">
<path d="m608 263h63.1" clip-path="url(#g)" fill="none" stroke-dasharray="1.5,2.475" stroke-width="1.5"/>
<g clip-path="url(#g)" fill="#1f77b4" fill-opacity=".9">
<use x="608.309869" y="262.509981" xlink:href="#a"/>
<use x="671.383567" y="262.509981" xlink:href="#a"/>
</g>
</g>
<path d="m40.6 349v-313" fill="none" stroke="#000" stroke-linecap="square" stroke-width=".8"/>
<path d="m701 349v-313" fill="none" stroke="#000" stroke-linecap="square" stroke-width=".8"/>
<path d="m40.6 349h661" fill="none" stroke="#000" stroke-linecap="square" stroke-width=".8"/>
<path d="m40.6 35.7h661" fill="none" stroke="#000" stroke-linecap="square" stroke-width=".8"/>
<path d="m71.1 261-0.348 7.35" fill="none" stroke="#888" stroke-linecap="round"/>
<g transform="translate(73.8 257) rotate(-90) scale(.08 -.08)" fill="#888">
<defs>
<path id="ak" transform="scale(.0156)" d="m3116 1747q0 634-261 995t-717 361q-457 0-718-361t-261-995 261-995 718-361q456 0 717 361t261 995zm-1957 1222q182 312 458 463 277 152 661 152 638 0 1036-506 399-506 399-1331t-399-1332q-398-506-1036-506-384 0-661 152-276 152-458 464v-525h-578v4863h578v-1894z"/>
</defs>
<use xlink:href="#ak"/>
<use transform="translate(63.5)" xlink:href="#d"/>
</g>
<path d="m609 261-0.326 7.34" fill="none" stroke="#888" stroke-linecap="round"/>
<g transform="translate(611 257) rotate(-90) scale(.08 -.08)" fill="#888">
<defs>
<path id="n" transform="scale(.0156)" d="m2631 2963q-97 56-211 82-114 27-251 27-488 0-749-317t-261-911v-1844h-578v3500h578v-544q182 319 472 473 291 155 707 155 59 0 131-8 72-7 159-23l3-590z"/>
<path id="ac" transform="scale(.0156)" d="m3122 3366v-538q-244 135-489 202t-495 67q-560 0-870-355-309-354-309-995t309-996q310-354 870-354 250 0 495 67t489 202v-532q-241-112-499-168-257-57-548-57-791 0-1257 497-465 497-465 1341 0 856 470 1346 471 491 1290 491 265 0 518-55 253-54 491-163z"/>
</defs>
<use xlink:href="#n"/>
<use transform="translate(38.9)" xlink:href="#ac"/>
<use transform="translate(93.8)" xlink:href="#c"/>
</g>
<g clip-path="url(#g)">
<g transform="translate(58.2 262) rotate(-90) scale(.1 -.1)">
<defs>
<path id="ab" transform="scale(.0156)" d="m2375 4863v-479h-550q-309 0-430-125-120-125-120-450v-309h947v-447h-947v-3053h-578v3053h-550v447h550v244q0 584 272 851 272 268 862 268h544z"/>
<path id="aa" transform="scale(.0156)" d="m2194 1759q-697 0-966-159t-269-544q0-306 202-486 202-179 548-179 479 0 768 339t289 901v128h-572zm1147 238v-2e3h-575v531q-197-318-491-470t-719-152q-537 0-855 302-317 302-317 808 0 590 395 890 396 300 1180 300h807v57q0 397-261 614t-733 217q-300 0-585-72-284-72-546-216v532q315 122 612 182 297 61 578 61 760 0 1135-394 375-393 375-1193z"/>
<path id="y" transform="scale(.0156)" d="m2834 3397v-544q-243 125-506 187-262 63-544 63-428 0-642-131t-214-394q0-200 153-314t616-217l197-44q612-131 870-370t258-667q0-488-386-773-386-284-1061-284-281 0-586 55t-642 164v594q319-166 628-249 309-82 613-82 406 0 624 139 219 139 219 392 0 234-158 359-157 125-692 241l-200 47q-534 112-772 345-237 233-237 639 0 494 350 762 350 269 994 269 318 0 599-47 282-46 519-140z"/>
<path id="q" transform="scale(.0156)" d="m1172 4494v-994h1184v-447h-1184v-1900q0-428 117-550t477-122h590v-481h-590q-666 0-919 248-253 249-253 905v1900h-422v447h422v994h578z"/>
<path id="t" transform="scale(.0156)" d="m3597 1894v-281h-2644q38-594 358-905t892-311q331 0 642 81t618 244v-544q-310-131-635-200t-659-69q-838 0-1327 487-489 488-489 1320 0 859 464 1363 464 505 1252 505 706 0 1117-455 411-454 411-1235zm-575 169q-6 471-264 752-258 282-683 282-481 0-770-272t-333-766l2050 4z"/>
<path id="am" transform="scale(.0156)" d="m8863 2147v-281l-1229-1228-375 375 729 728h-7622v531h7622l-729 728 375 375 1229-1228z"/>
</defs>
<use xlink:href="#ab"/>
<use transform="translate(35.2)" xlink:href="#aa"/>
<use transform="translate(96.5)" xlink:href="#y"/>
<use transform="translate(149)" xlink:href="#q"/>
<use transform="translate(188)" xlink:href="#t"/>
<use transform="translate(249)" xlink:href="#n"/>
<use transform="translate(290)" xlink:href="#DejaVuSans-20"/>
<use transform="translate(322)" xlink:href="#am"/>
</g>
</g>
<g clip-path="url(#g)">
<g transform="translate(58.2 330) rotate(-90) scale(.1 -.1)">
<defs>
<path id="an" transform="scale(.0156)" d="m313 1866v281l1228 1228 375-375-728-728h7621v-531h-7621l728-728-375-375-1228 1228z"/>
<path id="s" transform="scale(.0156)" d="m603 4863h575v-4863h-575v4863z"/>
<path id="r" transform="scale(.0156)" d="m1959 3097q-462 0-731-361t-269-989 267-989q268-361 733-361 460 0 728 362 269 363 269 988 0 622-269 986-268 364-728 364zm0 487q750 0 1178-488 429-487 429-1349 0-859-429-1349-428-489-1178-489-753 0-1180 489-426 490-426 1349 0 862 426 1349 427 488 1180 488z"/>
<path id="ai" transform="scale(.0156)" d="m269 3500h575l719-2731 715 2731h678l719-2731 716 2731h575l-916-3500h-678l-753 2869-756-2869h-679l-915 3500z"/>
</defs>
<use xlink:href="#an"/>
<use transform="translate(143)" xlink:href="#DejaVuSans-20"/>
<use transform="translate(175)" xlink:href="#y"/>
<use transform="translate(227)" xlink:href="#s"/>
<use transform="translate(255)" xlink:href="#r"/>
<use transform="translate(316)" xlink:href="#ai"/>
<use transform="translate(398)" xlink:href="#t"/>
<use transform="translate(460)" xlink:href="#n"/>
</g>
</g>
<g transform="translate(298 29.7) scale(.12 -.12)">
<defs>
<path id="af" transform="scale(.0156)" d="m1259 4147v-1753h794q441 0 681 228 241 228 241 650 0 419-241 647-240 228-681 228h-794zm-631 519h1425q785 0 1186-355 402-355 402-1039 0-691-402-1044-401-353-1186-353h-794v-1875h-631v4666z"/>
<path id="ad" transform="scale(.0156)" d="m2059-325q-243-625-475-815-231-191-618-191h-460v481h338q237 0 368 113 132 112 291 531l103 262-1415 3444h609l1094-2737 1094 2737h609l-1538-3825z"/>
<path id="aj" transform="scale(.0156)" d="m3513 2113v-2113h-575v2094q0 497-194 743-194 247-581 247-466 0-735-297-269-296-269-809v-1978h-578v4863h578v-1907q207 316 486 472 280 156 646 156 603 0 912-373 310-373 310-1098z"/>
<path id="o" transform="scale(.0156)" d="m3513 2113v-2113h-575v2094q0 497-194 743-194 247-581 247-466 0-735-297-269-296-269-809v-1978h-578v3500h578v-544q207 316 486 472 280 156 646 156 603 0 912-373 310-373 310-1098z"/>
<path id="x" transform="scale(.0156)" d="m3513 3500-1266-1703 1331-1797h-678l-1019 1375-1018-1375h-679l1360 1831-1244 1669h678l928-1247 928 1247h679z"/>
<path id="z" transform="scale(.0156)" d="m191 3500h609l1094-2937 1094 2937h609l-1313-3500h-781l-1312 3500z"/>
</defs>
<use xlink:href="#af"/>
<use transform="translate(60.3)" xlink:href="#ad"/>
<use transform="translate(119)" xlink:href="#q"/>
<use transform="translate(159)" xlink:href="#aj"/>
<use transform="translate(222)" xlink:href="#r"/>
<use transform="translate(283)" xlink:href="#o"/>
<use transform="translate(347)" xlink:href="#DejaVuSans-20"/>
<use transform="translate(378)" xlink:href="#p"/>
<use transform="translate(442)" xlink:href="#e"/>
<use transform="translate(474)" xlink:href="#d"/>
<use transform="translate(537)" xlink:href="#p"/>
<use transform="translate(601)" xlink:href="#e"/>
<use transform="translate(633)" xlink:href="#x"/>
<use transform="translate(692)" xlink:href="#DejaVuSans-20"/>
<use transform="translate(724)" xlink:href="#z"/>
<use transform="translate(783)" xlink:href="#y"/>
<use transform="translate(835)" xlink:href="#e"/>
<use transform="translate(867)" xlink:href="#DejaVuSans-20"/>
<use transform="translate(899)" xlink:href="#p"/>
<use transform="translate(962)" xlink:href="#e"/>
<use transform="translate(994)" xlink:href="#d"/>
<use transform="translate(1058)" xlink:href="#c"/>
<use transform="translate(1121)" xlink:href="#e"/>
<use transform="translate(1153)" xlink:href="#ah"/>
</g>
<path d="m47.6 73.1h82.6q2 0 2-2v-28.4q0-2-2-2h-82.6q-2 0-2 2v28.4q0 2 2 2z" fill="#fff" opacity=".8" stroke="#ccc"/>
<path d="m49.6 48.8h10 10" fill="none" stroke="#1f77b4" stroke-linecap="square" stroke-opacity=".9" stroke-width="1.5"/>
<use x="59.645553" y="48.831032" fill="#1f77b4" fill-opacity=".9" stroke="#1f77b4" stroke-opacity=".9" xlink:href="#a"/>
<g transform="translate(77.6 52.3) scale(.1 -.1)">
<defs>
<path id="v" transform="scale(.0156)" d="m603 3500h575v-3500h-575v3500zm0 1363h575v-729h-575v729z"/>
<path id="u" transform="scale(.0156)" d="m544 1381v2119h575v-2097q0-497 193-746 194-248 582-248 465 0 735 297 271 297 271 810v1984h575v-3500h-575v538q-209-319-486-474-276-155-642-155-603 0-916 375-312 375-312 1097zm1447 2203z"/>
</defs>
<use xlink:href="#s"/>
<use transform="translate(27.8)" xlink:href="#v"/>
<use transform="translate(55.6)" xlink:href="#o"/>
<use transform="translate(119)" xlink:href="#u"/>
<use transform="translate(182)" xlink:href="#x"/>
</g>
<path d="m49.6 63.5h10 10" fill="none" stroke="#1f77b4" stroke-dasharray="1.5,2.475" stroke-opacity=".9" stroke-width="1.5"/>
<use x="59.645553" y="63.509158" fill="#1f77b4" fill-opacity=".9" stroke="#1f77b4" stroke-opacity=".9" xlink:href="#a"/>
<g transform="translate(77.6 67) scale(.1 -.1)">
<use xlink:href="#s"/>
<use transform="translate(27.8)" xlink:href="#v"/>
<use transform="translate(55.6)" xlink:href="#o"/>
<use transform="translate(119)" xlink:href="#u"/>
<use transform="translate(182)" xlink:href="#x"/>
<use transform="translate(242)" xlink:href="#f"/>
<use transform="translate(275)" xlink:href="#z"/>
<use transform="translate(334)" xlink:href="#u"/>
<use transform="translate(398)" xlink:href="#s"/>
<use transform="translate(425)" xlink:href="#q"/>
<use transform="translate(465)" xlink:href="#n"/>
</g>
<path d="m40.6 700h661v-313h-661z" fill="#fff"/>
<path d="m95.1 700v-313" clip-path="url(#h)" fill="none" stroke="#b0b0b0" stroke-linecap="square" stroke-width=".8"/>
<use x="95.08884" y="700.321635" stroke="#000000" stroke-width=".8" xlink:href="#k"/>
<g transform="translate(74.2 715) scale(.1 -.1)">
<use xlink:href="#c"/>
<use transform="translate(63.6)" xlink:href="#b"/>
<use transform="translate(127)" xlink:href="#c"/>
<use transform="translate(191)" xlink:href="#m"/>
<use transform="translate(254)" xlink:href="#f"/>
<use transform="translate(291)" xlink:href="#b"/>
<use transform="translate(354)" xlink:href="#ag"/>
</g>
<path d="m183 700v-313" clip-path="url(#h)" fill="none" stroke="#b0b0b0" stroke-linecap="square" stroke-width=".8"/>
<use x="182.972803" y="700.321635" stroke="#000000" stroke-width=".8" xlink:href="#k"/>
<g transform="translate(162 715) scale(.1 -.1)">
<use xlink:href="#c"/>
<use transform="translate(63.6)" xlink:href="#b"/>
<use transform="translate(127)" xlink:href="#c"/>
<use transform="translate(191)" xlink:href="#m"/>
<use transform="translate(254)" xlink:href="#f"/>
<use transform="translate(291)" xlink:href="#b"/>
<use transform="translate(354)" xlink:href="#w"/>
</g>
<path d="m268 700v-313" clip-path="url(#h)" fill="none" stroke="#b0b0b0" stroke-linecap="square" stroke-width=".8"/>
<use x="268.0218" y="700.321635" stroke="#000000" stroke-width=".8" xlink:href="#k"/>
<g transform="translate(247 715) scale(.1 -.1)">
<use xlink:href="#c"/>
<use transform="translate(63.6)" xlink:href="#b"/>
<use transform="translate(127)" xlink:href="#c"/>
<use transform="translate(191)" xlink:href="#m"/>
<use transform="translate(254)" xlink:href="#f"/>
<use transform="translate(291)" xlink:href="#d"/>
<use transform="translate(354)" xlink:href="#b"/>
</g>
<path d="m356 700v-313" clip-path="url(#h)" fill="none" stroke="#b0b0b0" stroke-linecap="square" stroke-width=".8"/>
<use x="355.905764" y="700.321635" stroke="#000000" stroke-width=".8" xlink:href="#k"/>
<g transform="translate(335 715) scale(.1 -.1)">
<use xlink:href="#c"/>
<use transform="translate(63.6)" xlink:href="#b"/>
<use transform="translate(127)" xlink:href="#c"/>
<use transform="translate(191)" xlink:href="#m"/>
<use transform="translate(254)" xlink:href="#f"/>
<use transform="translate(291)" xlink:href="#d"/>
<use transform="translate(354)" xlink:href="#d"/>
</g>
<path d="m441 700v-313" clip-path="url(#h)" fill="none" stroke="#b0b0b0" stroke-linecap="square" stroke-width=".8"/>
<use x="440.954761" y="700.321635" stroke="#000000" stroke-width=".8" xlink:href="#k"/>
<g transform="translate(420 715) scale(.1 -.1)">
<use xlink:href="#c"/>
<use transform="translate(63.6)" xlink:href="#b"/>
<use transform="translate(127)" xlink:href="#c"/>
<use transform="translate(191)" xlink:href="#m"/>
<use transform="translate(254)" xlink:href="#f"/>
<use transform="translate(291)" xlink:href="#d"/>
<use transform="translate(354)" xlink:href="#c"/>
</g>
<path d="m529 700v-313" clip-path="url(#h)" fill="none" stroke="#b0b0b0" stroke-linecap="square" stroke-width=".8"/>
<use x="528.838725" y="700.321635" stroke="#000000" stroke-width=".8" xlink:href="#k"/>
<g transform="translate(508 715) scale(.1 -.1)">
<use xlink:href="#c"/>
<use transform="translate(63.6)" xlink:href="#b"/>
<use transform="translate(127)" xlink:href="#c"/>
<use transform="translate(191)" xlink:href="#l"/>
<use transform="translate(254)" xlink:href="#f"/>
<use transform="translate(291)" xlink:href="#b"/>
<use transform="translate(354)" xlink:href="#d"/>
</g>
<path d="m617 700v-313" clip-path="url(#h)" fill="none" stroke="#b0b0b0" stroke-linecap="square" stroke-width=".8"/>
<use x="616.722689" y="700.321635" stroke="#000000" stroke-width=".8" xlink:href="#k"/>
<g transform="translate(596 715) scale(.1 -.1)">
<use xlink:href="#c"/>
<use transform="translate(63.6)" xlink:href="#b"/>
<use transform="translate(127)" xlink:href="#c"/>
<use transform="translate(191)" xlink:href="#l"/>
<use transform="translate(254)" xlink:href="#f"/>
<use transform="translate(291)" xlink:href="#b"/>
<use transform="translate(354)" xlink:href="#c"/>
</g>
<path d="m696 700v-313" clip-path="url(#h)" fill="none" stroke="#b0b0b0" stroke-linecap="square" stroke-width=".8"/>
<use x="696.101753" y="700.321635" stroke="#000000" stroke-width=".8" xlink:href="#k"/>
<g transform="translate(675 715) scale(.1 -.1)">
<use xlink:href="#c"/>
<use transform="translate(63.6)" xlink:href="#b"/>
<use transform="translate(127)" xlink:href="#c"/>
<use transform="translate(191)" xlink:href="#l"/>
<use transform="translate(254)" xlink:href="#f"/>
<use transform="translate(291)" xlink:href="#b"/>
<use transform="translate(354)" xlink:href="#p"/>
</g>
<path d="m40.6 700h661" clip-path="url(#h)" fill="none" stroke="#b0b0b0" stroke-linecap="square" stroke-width=".8"/>
<use x="40.645553" y="700.321635" stroke="#000000" stroke-width=".8" xlink:href="#i"/>
<g transform="translate(3 704) scale(.1 -.1)">
<use xlink:href="#b"/>
<use transform="translate(63.6)" xlink:href="#e"/>
<use transform="translate(95.4)" xlink:href="#w"/>
<use transform="translate(159)" xlink:href="#b"/>
<use transform="translate(223)" xlink:href="#j"/>
</g>
<path d="m40.6 661h661" clip-path="url(#h)" fill="none" stroke="#b0b0b0" stroke-linecap="square" stroke-width=".8"/>
<use x="40.645553" y="661.222086" stroke="#000000" stroke-width=".8" xlink:href="#i"/>
<g transform="translate(3 665) scale(.1 -.1)">
<use xlink:href="#b"/>
<use transform="translate(63.6)" xlink:href="#e"/>
<use transform="translate(95.4)" xlink:href="#w"/>
<use transform="translate(159)" xlink:href="#l"/>
<use transform="translate(223)" xlink:href="#j"/>
</g>
<path d="m40.6 622h661" clip-path="url(#h)" fill="none" stroke="#b0b0b0" stroke-linecap="square" stroke-width=".8"/>
<use x="40.645553" y="622.122536" stroke="#000000" stroke-width=".8" xlink:href="#i"/>
<g transform="translate(3 626) scale(.1 -.1)">
<use xlink:href="#d"/>
<use transform="translate(63.6)" xlink:href="#e"/>
<use transform="translate(95.4)" xlink:href="#b"/>
<use transform="translate(159)" xlink:href="#b"/>
<use transform="translate(223)" xlink:href="#j"/>
</g>
<path d="m40.6 583h661" clip-path="url(#h)" fill="none" stroke="#b0b0b0" stroke-linecap="square" stroke-width=".8"/>
<use x="40.645553" y="583.022987" stroke="#000000" stroke-width=".8" xlink:href="#i"/>
<g transform="translate(3 587) scale(.1 -.1)">
<use xlink:href="#d"/>
<use transform="translate(63.6)" xlink:href="#e"/>
<use transform="translate(95.4)" xlink:href="#b"/>
<use transform="translate(159)" xlink:href="#l"/>
<use transform="translate(223)" xlink:href="#j"/>
</g>
<path d="m40.6 544h661" clip-path="url(#h)" fill="none" stroke="#b0b0b0" stroke-linecap="square" stroke-width=".8"/>
<use x="40.645553" y="543.923437" stroke="#000000" stroke-width=".8" xlink:href="#i"/>
<g transform="translate(3 548) scale(.1 -.1)">
<use xlink:href="#d"/>
<use transform="translate(63.6)" xlink:href="#e"/>
<use transform="translate(95.4)" xlink:href="#d"/>
<use transform="translate(159)" xlink:href="#b"/>
<use transform="translate(223)" xlink:href="#j"/>
</g>
<path d="m40.6 505h661" clip-path="url(#h)" fill="none" stroke="#b0b0b0" stroke-linecap="square" stroke-width=".8"/>
<use x="40.645553" y="504.823888" stroke="#000000" stroke-width=".8" xlink:href="#i"/>
<g transform="translate(3 509) scale(.1 -.1)">
<use xlink:href="#d"/>
<use transform="translate(63.6)" xlink:href="#e"/>
<use transform="translate(95.4)" xlink:href="#d"/>
<use transform="translate(159)" xlink:href="#l"/>
<use transform="translate(223)" xlink:href="#j"/>
</g>
<path d="m40.6 466h661" clip-path="url(#h)" fill="none" stroke="#b0b0b0" stroke-linecap="square" stroke-width=".8"/>
<use x="40.645553" y="465.724339" stroke="#000000" stroke-width=".8" xlink:href="#i"/>
<g transform="translate(3 470) scale(.1 -.1)">
<use xlink:href="#d"/>
<use transform="translate(63.6)" xlink:href="#e"/>
<use transform="translate(95.4)" xlink:href="#c"/>
<use transform="translate(159)" xlink:href="#b"/>
<use transform="translate(223)" xlink:href="#j"/>
</g>
<path d="m40.6 427h661" clip-path="url(#h)" fill="none" stroke="#b0b0b0" stroke-linecap="square" stroke-width=".8"/>
<use x="40.645553" y="426.624789" stroke="#000000" stroke-width=".8" xlink:href="#i"/>
<g transform="translate(3 430) scale(.1 -.1)">
<use xlink:href="#d"/>
<use transform="translate(63.6)" xlink:href="#e"/>
<use transform="translate(95.4)" xlink:href="#c"/>
<use transform="translate(159)" xlink:href="#l"/>
<use transform="translate(223)" xlink:href="#j"/>
</g>
<path d="m40.6 388h661" clip-path="url(#h)" fill="none" stroke="#b0b0b0" stroke-linecap="square" stroke-width=".8"/>
<use x="40.645553" y="387.52524" stroke="#000000" stroke-width=".8" xlink:href="#i"/>
<g transform="translate(3 391) scale(.1 -.1)">
<use xlink:href="#d"/>
<use transform="translate(63.6)" xlink:href="#e"/>
<use transform="translate(95.4)" xlink:href="#p"/>
<use transform="translate(159)" xlink:href="#b"/>
<use transform="translate(223)" xlink:href="#j"/>
</g>
<g stroke="#1f77b4" stroke-opacity=".9">
<path d="m70.7 614h33.7l11.2 7.82h0.27l8.34-15.6 14 15.6h5.84l20-15.6h19.9l16 23.5 0.0318-7.82 0.63-7.82 2.75-31.3 19.8 15.6 16.4 15.6 16 7.82h75.5l36.9 70.4 3.2-7.82 2.68-62.6h39.7l3.03-7.82 2.77-15.6 2.56 7.82 5.66-14.8 2.86 12.9 3.05-3.72 2.07 6.02 3.31-3.62 2.55-0.372 2.93-6.23 3.31-29.5 2.93-3.56 2.84 6.31 2.51 22.5 2.84-29 2.4-0.437 2.93-10.4 2.81 11.1 3.5 5.34 2.73 22.7 2.66-17.2 2.42-18.4 2.5 0.331 3.76 2.71 2.56 6.8 3.11 5.77 1.92-0.0353 3.79 4.61 2.37-0.114 5.59 16 3.1-10.3 2.5-14.4 2.74 10.8 3.33-12.5 2.87-27.2 2.71 11.3 2.96 8.25 2.69-11.5 2.89-3.19 2.93 11.4 2.46-12.2 3.16 40.8 3.05-28.7 2.64 2.51 3.03-3.02 2.61 21.8 3.06 3.09 2.38 24.4 3.46-8.54 2.17-6.99 3.27 13.6 2.1 2.53 3.58 9.64 0.299-9.68 2.29-8.67 3.16-3.52 2.69-7.97 2.74-4.94 3.1 20.4 2.81 2.54 2.79 15.6 0.224-3.7 2.71-6.28 1.84-5.74 0.902-3.34 2.72 7.3 2.34-7.16 2.91-35.1 3.45 36 1.35 9.62 1.48 18.8 2.82-32.6 2.64-12.1 2.28 11.3 2.73-15.6 2.77-1.35 0.833 2.09 2.05-3.86 3.58 3.1 2.44-13.1 3.3 1.59 2.72-15.5 2.94-11.2 2.82 24.3 2.64 5.93 3.1-14.1 2.74 15.4 2.33-12.3 3.13 39 2.56-46 3.44-3.59 2.36 24.1 3.27-4.25 2.6-0.0822v0" clip-path="url(#h)" fill="none" stroke-linecap="square" stroke-width="1.5"/>
<g clip-path="url(#h)" fill="#1f77b4" fill-opacity=".9">
<use x="70.680696" y="614.302626" xlink:href="#a"/>
<use x="84.169559" y="614.302626" xlink:href="#a"/>
<use x="104.412303" y="614.302626" xlink:href="#a"/>
<use x="115.565468" y="622.122536" xlink:href="#a"/>
<use x="115.583613" y="622.122536" xlink:href="#a"/>
<use x="115.853493" y="622.122536" xlink:href="#a"/>
<use x="124.189148" y="606.482716" xlink:href="#a"/>
<use x="138.051741" y="622.122536" xlink:href="#a"/>
<use x="138.148996" y="622.122536" xlink:href="#a"/>
<use x="143.988272" y="622.122536" xlink:href="#a"/>
<use x="163.944107" y="606.482716" xlink:href="#a"/>
<use x="183.833301" y="606.482716" xlink:href="#a"/>
<use x="199.848959" y="629.942446" xlink:href="#a"/>
<use x="199.880787" y="622.122536" xlink:href="#a"/>
<use x="200.511173" y="614.302626" xlink:href="#a"/>
<use x="203.264339" y="583.022987" xlink:href="#a"/>
<use x="223.075604" y="598.662807" xlink:href="#a"/>
<use x="239.510338" y="614.302626" xlink:href="#a"/>
<use x="255.522912" y="622.122536" xlink:href="#a"/>
<use x="255.55264" y="622.122536" xlink:href="#a"/>
<use x="263.209674" y="622.122536" xlink:href="#a"/>
<use x="268.357993" y="622.122536" xlink:href="#a"/>
<use x="268.475953" y="622.122536" xlink:href="#a"/>
<use x="328.456824" y="622.122536" xlink:href="#a"/>
<use x="331.065091" y="622.122536" xlink:href="#a"/>
<use x="367.931043" y="692.501725" xlink:href="#a"/>
<use x="371.1317" y="684.681815" xlink:href="#a"/>
<use x="373.808906" y="622.122536" xlink:href="#a"/>
<use x="376.701786" y="622.122536" xlink:href="#a"/>
<use x="378.797824" y="622.122536" xlink:href="#a"/>
<use x="382.368471" y="622.122536" xlink:href="#a"/>
<use x="385.052633" y="622.122536" xlink:href="#a"/>
<use x="388.176477" y="622.122536" xlink:href="#a"/>
<use x="390.680698" y="622.122536" xlink:href="#a"/>
<use x="393.794174" y="622.122536" xlink:href="#a"/>
<use x="396.703361" y="622.122536" xlink:href="#a"/>
<use x="399.393134" y="622.122536" xlink:href="#a"/>
<use x="402.342943" y="622.122536" xlink:href="#a"/>
<use x="405.131185" y="622.122536" xlink:href="#a"/>
<use x="408.020325" y="622.122536" xlink:href="#a"/>
<use x="410.517261" y="622.122536" xlink:href="#a"/>
<use x="413.539847" y="622.122536" xlink:href="#a"/>
<use x="416.57441" y="614.302626" xlink:href="#a"/>
<use x="419.343752" y="598.662807" xlink:href="#a"/>
<use x="421.899487" y="606.482716" xlink:href="#a"/>
<use x="424.856154" y="598.662807" xlink:href="#a"/>
<use x="427.555639" y="591.679868" xlink:href="#a"/>
<use x="430.414395" y="604.6241" xlink:href="#a"/>
<use x="433.459621" y="600.906034" xlink:href="#a"/>
<use x="435.527277" y="606.92298" xlink:href="#a"/>
<use x="438.835722" y="603.301336" xlink:href="#a"/>
<use x="441.387192" y="602.9292" xlink:href="#a"/>
<use x="444.320201" y="596.701844" xlink:href="#a"/>
<use x="447.629532" y="567.242394" xlink:href="#a"/>
<use x="450.562181" y="563.677813" xlink:href="#a"/>
<use x="453.407155" y="569.983497" xlink:href="#a"/>
<use x="455.916527" y="592.470989" xlink:href="#a"/>
<use x="458.751559" y="563.483019" xlink:href="#a"/>
<use x="461.151339" y="563.04603" xlink:href="#a"/>
<use x="464.080542" y="552.692321" xlink:href="#a"/>
<use x="466.885584" y="563.792811" xlink:href="#a"/>
<use x="470.387063" y="569.131342" xlink:href="#a"/>
<use x="473.120541" y="591.801607" xlink:href="#a"/>
<use x="475.779635" y="574.635422" xlink:href="#a"/>
<use x="478.197691" y="556.208749" xlink:href="#a"/>
<use x="480.695119" y="556.539822" xlink:href="#a"/>
<use x="484.45775" y="559.246645" xlink:href="#a"/>
<use x="487.02218" y="566.047266" xlink:href="#a"/>
<use x="490.127945" y="571.815908" xlink:href="#a"/>
<use x="492.052113" y="571.78058" xlink:href="#a"/>
<use x="495.840305" y="576.394407" xlink:href="#a"/>
<use x="498.207239" y="576.280023" xlink:href="#a"/>
<use x="503.799965" y="592.32865" xlink:href="#a"/>
<use x="506.902744" y="582.040473" xlink:href="#a"/>
<use x="509.406309" y="567.645161" xlink:href="#a"/>
<use x="512.14799" y="578.429681" xlink:href="#a"/>
<use x="515.47819" y="565.91644" xlink:href="#a"/>
<use x="518.343475" y="538.750218" xlink:href="#a"/>
<use x="521.053526" y="550.058214" xlink:href="#a"/>
<use x="524.009832" y="558.312039" xlink:href="#a"/>
<use x="526.696881" y="546.842742" xlink:href="#a"/>
<use x="529.591861" y="543.653482" xlink:href="#a"/>
<use x="532.523164" y="555.01158" xlink:href="#a"/>
<use x="534.986862" y="542.827655" xlink:href="#a"/>
<use x="538.148407" y="583.62978" xlink:href="#a"/>
<use x="541.199901" y="554.956756" xlink:href="#a"/>
<use x="543.837503" y="557.467785" xlink:href="#a"/>
<use x="546.869801" y="554.451662" xlink:href="#a"/>
<use x="549.4761" y="576.273325" xlink:href="#a"/>
<use x="552.538324" y="579.365846" xlink:href="#a"/>
<use x="554.91566" y="603.777835" xlink:href="#a"/>
<use x="558.375927" y="595.236961" xlink:href="#a"/>
<use x="560.550549" y="588.249133" xlink:href="#a"/>
<use x="563.822311" y="601.896489" xlink:href="#a"/>
<use x="565.925961" y="604.429509" xlink:href="#a"/>
<use x="569.507075" y="614.067908" xlink:href="#a"/>
<use x="569.806026" y="604.386524" xlink:href="#a"/>
<use x="572.099494" y="595.71375" xlink:href="#a"/>
<use x="575.255528" y="592.19439" xlink:href="#a"/>
<use x="577.945235" y="584.226528" xlink:href="#a"/>
<use x="580.681404" y="579.283123" xlink:href="#a"/>
<use x="583.776768" y="599.682936" xlink:href="#a"/>
<use x="586.58847" y="602.224402" xlink:href="#a"/>
<use x="589.374186" y="617.853958" xlink:href="#a"/>
<use x="589.598391" y="614.150015" xlink:href="#a"/>
<use x="592.307392" y="607.867774" xlink:href="#a"/>
<use x="594.149038" y="602.124136" xlink:href="#a"/>
<use x="595.050583" y="598.779987" xlink:href="#a"/>
<use x="597.767525" y="606.083997" xlink:href="#a"/>
<use x="600.10693" y="598.92885" xlink:href="#a"/>
<use x="603.021269" y="563.799052" xlink:href="#a"/>
<use x="606.471036" y="599.783618" xlink:href="#a"/>
<use x="607.825487" y="609.400741" xlink:href="#a"/>
<use x="609.302262" y="628.175135" xlink:href="#a"/>
<use x="612.120823" y="595.615818" xlink:href="#a"/>
<use x="614.763543" y="583.502137" xlink:href="#a"/>
<use x="617.040769" y="594.75846" xlink:href="#a"/>
<use x="619.773723" y="579.167434" xlink:href="#a"/>
<use x="622.544279" y="577.819483" xlink:href="#a"/>
<use x="623.376821" y="579.912097" xlink:href="#a"/>
<use x="625.428792" y="576.052008" xlink:href="#a"/>
<use x="629.00633" y="579.14983" xlink:href="#a"/>
<use x="631.445812" y="566.065622" xlink:href="#a"/>
<use x="634.750484" y="567.65338" xlink:href="#a"/>
<use x="637.472872" y="552.135565" xlink:href="#a"/>
<use x="640.417234" y="540.896964" xlink:href="#a"/>
<use x="643.236451" y="565.243153" xlink:href="#a"/>
<use x="645.872839" y="571.170311" xlink:href="#a"/>
<use x="648.96876" y="557.074485" xlink:href="#a"/>
<use x="651.705487" y="572.465464" xlink:href="#a"/>
<use x="654.032128" y="560.132484" xlink:href="#a"/>
<use x="657.163782" y="599.176775" xlink:href="#a"/>
<use x="659.722438" y="553.16072" xlink:href="#a"/>
<use x="663.159375" y="549.574738" xlink:href="#a"/>
<use x="665.519813" y="573.677681" xlink:href="#a"/>
<use x="668.785734" y="569.430164" xlink:href="#a"/>
<use x="671.383567" y="569.34797" xlink:href="#a"/>
</g>
</g>
<g stroke="#1f77b4" stroke-opacity=".9">
<path d="m240 606v15.6l23.7-15.6h18.2l21.4 15.6h111l2.42 1.08 0.618-1.08h8.28l2.7 1.76 2.26-2.24 0.604 6.63 2.06-2.71 0.981-2.15 2.07-2.09 2.75 7.27 0.557-1.38 2.55-0.219 2.93-0.721 3.31-19.7 2.93 1.15 2.15-8.55 0.697 0.584 2.51 1.5 0.814 4.83 1.61-5.52 0.413 4.39 2.4-0.192 1.41-2.45 1.51-2.97 2.81 6.35 3.5-15.5 1.57-1.13 0.491 1.47 0.671-5.46 1.43 2.37 1.23 3.12 2.19-2.27 0.227-0.0714 2.5-0.151 3.76-2.73 2.56-0.781 3.11 2.78 0.821 1.82 1.1 5.25 3.79-6.93 2.37-2.93 5.59-4.61 3.1 5.27 2.5 1.77 2.74-9.4 3.33 4.11 2.87-0.63 2.71 0.611 2.96-3.88 2.69 4.41 2.89-7.68 2.93 1.46 2.46 2.98 3.16 4.78 3.05 0.805 2.64-9.25 3.03-1.71 2.61 0.302 5.44 4.34 2.38-2.97 1.08-0.478 2.17 1.52 3.27-1.37 2.1 1.23 3.58-6.04 0.299-2.78 2.29 20.7 2.14-12.2 0.138 8.17 0.876-1.38 2.69 2.91 2.62-7.22 0.119 3.79 5.91-3.65 2.51 0.913 0.28 1.45 0.114 3.36 0.11-0.846 1.48 3.61 1.23-0.0351 1.84-5.55 0.902-2.36 2.72 4.24 5.25 1.7 3.45-1.65 1.35-3.07 1.48 0.546 2.82-5.79 2.64 2.97 2.28 8.38 2.73-14.1 2.77 3.36 0.833-1.17 2.05 1.15 3.58 6.13 2.44 5.69 3.3-1.61 2.72-12.6 2.94 5.49 2.82-0.552 2.64-1.88 5.83 10.2 2.17-3.76 0.161 6.17 3.13-4.13 2.56-4.91 3.44 1.65 2.36 3.32 3.27 4.37" clip-path="url(#h)" fill="none" stroke-dasharray="1.5,2.475" stroke-width="1.5"/>
<g clip-path="url(#h)" fill="#1f77b4" fill-opacity=".9">
<use x="239.510338" y="606.482716" xlink:href="#a"/>
<use x="239.510338" y="622.122536" xlink:href="#a"/>
<use x="263.209674" y="606.482716" xlink:href="#a"/>
<use x="281.363337" y="606.482716" xlink:href="#a"/>
<use x="302.745121" y="622.122536" xlink:href="#a"/>
<use x="313.458604" y="622.122536" xlink:href="#a"/>
<use x="317.532457" y="622.122536" xlink:href="#a"/>
<use x="318.916308" y="622.122536" xlink:href="#a"/>
<use x="319.888301" y="622.122536" xlink:href="#a"/>
<use x="322.687339" y="622.122536" xlink:href="#a"/>
<use x="325.445656" y="622.122536" xlink:href="#a"/>
<use x="328.456824" y="622.122536" xlink:href="#a"/>
<use x="331.065091" y="622.122536" xlink:href="#a"/>
<use x="334.225981" y="622.122536" xlink:href="#a"/>
<use x="337.106917" y="622.122536" xlink:href="#a"/>
<use x="339.280162" y="622.122536" xlink:href="#a"/>
<use x="342.519439" y="622.122536" xlink:href="#a"/>
<use x="345.384494" y="622.122536" xlink:href="#a"/>
<use x="348.214539" y="622.122536" xlink:href="#a"/>
<use x="351.324898" y="622.122536" xlink:href="#a"/>
<use x="354.158749" y="622.122536" xlink:href="#a"/>
<use x="356.702245" y="622.122536" xlink:href="#a"/>
<use x="359.70731" y="622.122536" xlink:href="#a"/>
<use x="361.833994" y="622.122536" xlink:href="#a"/>
<use x="365.164325" y="622.122536" xlink:href="#a"/>
<use x="367.931043" y="622.122536" xlink:href="#a"/>
<use x="371.1317" y="622.122536" xlink:href="#a"/>
<use x="373.808906" y="622.122536" xlink:href="#a"/>
<use x="375.255297" y="622.122536" xlink:href="#a"/>
<use x="376.701786" y="622.122536" xlink:href="#a"/>
<use x="378.797824" y="622.122536" xlink:href="#a"/>
<use x="380.072968" y="622.122536" xlink:href="#a"/>
<use x="382.368471" y="622.122536" xlink:href="#a"/>
<use x="385.052633" y="622.122536" xlink:href="#a"/>
<use x="388.176477" y="622.122536" xlink:href="#a"/>
<use x="390.680698" y="622.122536" xlink:href="#a"/>
<use x="393.794174" y="622.122536" xlink:href="#a"/>
<use x="396.703361" y="622.122536" xlink:href="#a"/>
<use x="399.393134" y="622.122536" xlink:href="#a"/>
<use x="402.342943" y="622.122536" xlink:href="#a"/>
<use x="402.556747" y="622.122536" xlink:href="#a"/>
<use x="405.131185" y="622.122536" xlink:href="#a"/>
<use x="408.020325" y="622.122536" xlink:href="#a"/>
<use x="410.517261" y="622.122536" xlink:href="#a"/>
<use x="413.539847" y="622.122536" xlink:href="#a"/>
<use x="415.956558" y="623.200972" xlink:href="#a"/>
<use x="416.57441" y="622.122536" xlink:href="#a"/>
<use x="418.879592" y="622.122536" xlink:href="#a"/>
<use x="419.343752" y="622.122536" xlink:href="#a"/>
<use x="421.899487" y="622.122536" xlink:href="#a"/>
<use x="424.856154" y="622.122536" xlink:href="#a"/>
<use x="427.555639" y="623.878193" xlink:href="#a"/>
<use x="429.810882" y="621.641085" xlink:href="#a"/>
<use x="430.414395" y="628.271427" xlink:href="#a"/>
<use x="432.479031" y="625.564859" xlink:href="#a"/>
<use x="433.459621" y="623.416581" xlink:href="#a"/>
<use x="435.527277" y="621.325225" xlink:href="#a"/>
<use x="438.278605" y="628.597474" xlink:href="#a"/>
<use x="438.835722" y="627.219937" xlink:href="#a"/>
<use x="441.387192" y="627.000651" xlink:href="#a"/>
<use x="444.320201" y="626.279279" xlink:href="#a"/>
<use x="447.629532" y="606.559551" xlink:href="#a"/>
<use x="450.562181" y="607.71141" xlink:href="#a"/>
<use x="452.709734" y="599.162446" xlink:href="#a"/>
<use x="453.407155" y="599.746843" xlink:href="#a"/>
<use x="455.916527" y="601.251225" xlink:href="#a"/>
<use x="456.730267" y="606.083589" xlink:href="#a"/>
<use x="458.338619" y="600.56511" xlink:href="#a"/>
<use x="458.751559" y="604.954554" xlink:href="#a"/>
<use x="461.151339" y="604.762565" xlink:href="#a"/>
<use x="462.566197" y="602.317455" xlink:href="#a"/>
<use x="464.080542" y="599.347315" xlink:href="#a"/>
<use x="466.885584" y="605.696901" xlink:href="#a"/>
<use x="470.387063" y="590.234359" xlink:href="#a"/>
<use x="471.958894" y="589.108605" xlink:href="#a"/>
<use x="472.44973" y="590.579732" xlink:href="#a"/>
<use x="473.120541" y="585.121192" xlink:href="#a"/>
<use x="474.545834" y="587.492718" xlink:href="#a"/>
<use x="475.779635" y="590.61317" xlink:href="#a"/>
<use x="477.970303" y="588.343965" xlink:href="#a"/>
<use x="478.197691" y="588.272547" xlink:href="#a"/>
<use x="480.695119" y="588.121622" xlink:href="#a"/>
<use x="484.45775" y="585.390592" xlink:href="#a"/>
<use x="487.02218" y="584.609411" xlink:href="#a"/>
<use x="490.127945" y="587.391485" xlink:href="#a"/>
<use x="490.949134" y="589.207309" xlink:href="#a"/>
<use x="492.052113" y="594.454251" xlink:href="#a"/>
<use x="495.840305" y="587.525486" xlink:href="#a"/>
<use x="498.207239" y="584.591801" xlink:href="#a"/>
<use x="503.799965" y="579.982205" xlink:href="#a"/>
<use x="506.902744" y="585.250107" xlink:href="#a"/>
<use x="509.406309" y="587.017958" xlink:href="#a"/>
<use x="512.14799" y="577.61491" xlink:href="#a"/>
<use x="515.47819" y="581.721627" xlink:href="#a"/>
<use x="518.343475" y="581.09147" xlink:href="#a"/>
<use x="521.053526" y="581.702812" xlink:href="#a"/>
<use x="524.009832" y="577.818605" xlink:href="#a"/>
<use x="526.696881" y="582.22792" xlink:href="#a"/>
<use x="529.591861" y="574.544231" xlink:href="#a"/>
<use x="532.523164" y="576.006777" xlink:href="#a"/>
<use x="534.986862" y="578.985031" xlink:href="#a"/>
<use x="538.148407" y="583.766131" xlink:href="#a"/>
<use x="541.199901" y="584.571014" xlink:href="#a"/>
<use x="543.837503" y="575.322024" xlink:href="#a"/>
<use x="546.869801" y="573.616427" xlink:href="#a"/>
<use x="549.4761" y="573.918754" xlink:href="#a"/>
<use x="554.91566" y="578.26015" xlink:href="#a"/>
<use x="557.296178" y="575.292735" xlink:href="#a"/>
<use x="558.375927" y="574.814273" xlink:href="#a"/>
<use x="560.550549" y="576.330991" xlink:href="#a"/>
<use x="563.822311" y="574.958866" xlink:href="#a"/>
<use x="565.925961" y="576.184029" xlink:href="#a"/>
<use x="569.507075" y="570.14414" xlink:href="#a"/>
<use x="569.806026" y="567.366795" xlink:href="#a"/>
<use x="572.099494" y="588.033559" xlink:href="#a"/>
<use x="574.241929" y="575.82996" xlink:href="#a"/>
<use x="574.28022" y="581.59743" xlink:href="#a"/>
<use x="574.379871" y="583.99551" xlink:href="#a"/>
<use x="575.255528" y="582.610982" xlink:href="#a"/>
<use x="577.945235" y="585.517957" xlink:href="#a"/>
<use x="580.562099" y="578.295552" xlink:href="#a"/>
<use x="580.681404" y="582.089956" xlink:href="#a"/>
<use x="583.776768" y="580.176103" xlink:href="#a"/>
<use x="586.58847" y="578.442117" xlink:href="#a"/>
<use x="589.094003" y="579.354835" xlink:href="#a"/>
<use x="589.374186" y="580.804656" xlink:href="#a"/>
<use x="589.488536" y="584.169231" xlink:href="#a"/>
<use x="589.598391" y="583.323589" xlink:href="#a"/>
<use x="591.075593" y="586.932861" xlink:href="#a"/>
<use x="592.307392" y="586.897794" xlink:href="#a"/>
<use x="594.149038" y="581.34434" xlink:href="#a"/>
<use x="595.050583" y="578.985515" xlink:href="#a"/>
<use x="597.767525" y="583.223646" xlink:href="#a"/>
<use x="600.10693" y="583.993875" xlink:href="#a"/>
<use x="603.021269" y="584.923603" xlink:href="#a"/>
<use x="606.471036" y="583.274034" xlink:href="#a"/>
<use x="607.825487" y="580.207954" xlink:href="#a"/>
<use x="609.302262" y="580.753566" xlink:href="#a"/>
<use x="612.120823" y="574.958965" xlink:href="#a"/>
<use x="614.763543" y="577.925539" xlink:href="#a"/>
<use x="617.040769" y="586.305979" xlink:href="#a"/>
<use x="619.773723" y="572.178617" xlink:href="#a"/>
<use x="622.544279" y="575.539855" xlink:href="#a"/>
<use x="623.376821" y="574.37255" xlink:href="#a"/>
<use x="625.428792" y="575.523654" xlink:href="#a"/>
<use x="629.00633" y="581.654548" xlink:href="#a"/>
<use x="631.445812" y="587.348357" xlink:href="#a"/>
<use x="634.750484" y="585.741436" xlink:href="#a"/>
<use x="637.472872" y="573.09848" xlink:href="#a"/>
<use x="640.417234" y="578.590469" xlink:href="#a"/>
<use x="643.236451" y="578.038134" xlink:href="#a"/>
<use x="645.872839" y="576.16071" xlink:href="#a"/>
<use x="648.96876" y="581.633143" xlink:href="#a"/>
<use x="651.705487" y="586.318899" xlink:href="#a"/>
<use x="653.871447" y="582.563768" xlink:href="#a"/>
<use x="654.032128" y="588.73337" xlink:href="#a"/>
<use x="657.163782" y="584.5988" xlink:href="#a"/>
<use x="659.722438" y="579.692866" xlink:href="#a"/>
<use x="663.159375" y="581.344452" xlink:href="#a"/>
<use x="665.519813" y="584.663929" xlink:href="#a"/>
<use x="668.785734" y="589.038219" xlink:href="#a"/>
</g>
</g>
<path d="m40.6 700v-313" fill="none" stroke="#000" stroke-linecap="square" stroke-width=".8"/>
<path d="m701 700v-313" fill="none" stroke="#000" stroke-linecap="square" stroke-width=".8"/>
<path d="m40.6 700h661" fill="none" stroke="#000" stroke-linecap="square" stroke-width=".8"/>
<path d="m40.6 388h661" fill="none" stroke="#000" stroke-linecap="square" stroke-width=".8"/>
<path d="m71.1 605-0.349 7.35" fill="none" stroke="#888" stroke-linecap="round"/>
<g transform="translate(73.8 601) rotate(-90) scale(.08 -.08)" fill="#888">
<use xlink:href="#aa"/>
<use transform="translate(61.3)" xlink:href="#b"/>
</g>
<g clip-path="url(#h)">
<g transform="translate(58.2 614) rotate(-90) scale(.1 -.1)">
<use xlink:href="#ab"/>
<use transform="translate(35.2)" xlink:href="#aa"/>
<use transform="translate(96.5)" xlink:href="#y"/>
<use transform="translate(149)" xlink:href="#q"/>
<use transform="translate(188)" xlink:href="#t"/>
<use transform="translate(249)" xlink:href="#n"/>
<use transform="translate(290)" xlink:href="#DejaVuSans-20"/>
<use transform="translate(322)" xlink:href="#am"/>
</g>
</g>
<g clip-path="url(#h)">
<g transform="translate(58.2 682) rotate(-90) scale(.1 -.1)">
<use xlink:href="#an"/>
<use transform="translate(143)" xlink:href="#DejaVuSans-20"/>
<use transform="translate(175)" xlink:href="#y"/>
<use transform="translate(227)" xlink:href="#s"/>
<use transform="translate(255)" xlink:href="#r"/>
<use transform="translate(316)" xlink:href="#ai"/>
<use transform="translate(398)" xlink:href="#t"/>
<use transform="translate(460)" xlink:href="#n"/>
</g>
</g>
<g transform="translate(289 382) scale(.12 -.12)">
<use xlink:href="#af"/>
<use transform="translate(60.3)" xlink:href="#ad"/>
<use transform="translate(119)" xlink:href="#q"/>
<use transform="translate(159)" xlink:href="#aj"/>
<use transform="translate(222)" xlink:href="#r"/>
<use transform="translate(283)" xlink:href="#o"/>
<use transform="translate(347)" xlink:href="#DejaVuSans-20"/>
<use transform="translate(378)" xlink:href="#p"/>
<use transform="translate(442)" xlink:href="#e"/>
<use transform="translate(474)" xlink:href="#d"/>
<use transform="translate(537)" xlink:href="#m"/>
<use transform="translate(601)" xlink:href="#e"/>
<use transform="translate(633)" xlink:href="#x"/>
<use transform="translate(692)" xlink:href="#DejaVuSans-20"/>
<use transform="translate(724)" xlink:href="#z"/>
<use transform="translate(783)" xlink:href="#y"/>
<use transform="translate(835)" xlink:href="#e"/>
<use transform="translate(867)" xlink:href="#DejaVuSans-20"/>
<use transform="translate(899)" xlink:href="#p"/>
<use transform="translate(962)" xlink:href="#e"/>
<use transform="translate(994)" xlink:href="#d"/>
<use transform="translate(1058)" xlink:href="#p"/>
<use transform="translate(1121)" xlink:href="#e"/>
<use transform="translate(1153)" xlink:href="#b"/>
<use transform="translate(1217)" xlink:href="#n"/>
<use transform="translate(1256)" xlink:href="#ac"/>
<use transform="translate(1311)" xlink:href="#c"/>
</g>
<path d="m47.6 425h82.6q2 0 2-2v-28.4q0-2-2-2h-82.6q-2 0-2 2v28.4q0 2 2 2z" fill="#fff" opacity=".8" stroke="#ccc"/>
<path d="m49.6 401h10 10" fill="none" stroke="#1f77b4" stroke-linecap="square" stroke-opacity=".9" stroke-width="1.5"/>
<use x="59.645553" y="400.623678" fill="#1f77b4" fill-opacity=".9" stroke="#1f77b4" stroke-opacity=".9" xlink:href="#a"/>
<g transform="translate(77.6 404) scale(.1 -.1)">
<use xlink:href="#s"/>
<use transform="translate(27.8)" xlink:href="#v"/>
<use transform="translate(55.6)" xlink:href="#o"/>
<use transform="translate(119)" xlink:href="#u"/>
<use transform="translate(182)" xlink:href="#x"/>
</g>
<path d="m49.6 415h10 10" fill="none" stroke="#1f77b4" stroke-dasharray="1.5,2.475" stroke-opacity=".9" stroke-width="1.5"/>
<use x="59.645553" y="415.301803" fill="#1f77b4" fill-opacity=".9" stroke="#1f77b4" stroke-opacity=".9" xlink:href="#a"/>
<g transform="translate(77.6 419) scale(.1 -.1)">
<use xlink:href="#s"/>
<use transform="translate(27.8)" xlink:href="#v"/>
<use transform="translate(55.6)" xlink:href="#o"/>
<use transform="translate(119)" xlink:href="#u"/>
<use transform="translate(182)" xlink:href="#x"/>
<use transform="translate(242)" xlink:href="#f"/>
<use transform="translate(275)" xlink:href="#z"/>
<use transform="translate(334)" xlink:href="#u"/>
<use transform="translate(398)" xlink:href="#s"/>
<use transform="translate(425)" xlink:href="#q"/>
<use transform="translate(465)" xlink:href="#n"/>
</g>
<g transform="translate(229 12.1) scale(.12 -.12)">
<defs>
<path id="ae" transform="scale(.0156)" d="m3328 2828q216 388 516 572t706 184q547 0 844-383 297-382 297-1088v-2113h-578v2094q0 503-179 746-178 244-543 244-447 0-707-297-259-296-259-809v-1978h-578v2094q0 506-178 748t-550 242q-441 0-701-298-259-298-259-808v-1978h-578v3500h578v-544q197 322 472 475t653 153q382 0 649-194 267-193 395-562z"/>
<path id="ao" transform="scale(.0156)" d="m1159 525v-1856h-578v4831h578v-531q182 312 458 463 277 152 661 152 638 0 1036-506 399-506 399-1331t-399-1332q-398-506-1036-506-384 0-661 152-276 152-458 464zm1957 1222q0 634-261 995t-717 361q-457 0-718-361t-261-995 261-995 718-361q456 0 717 361t261 995z"/>
<path id="ap" transform="scale(.0156)" d="m2906 1791q0 625-258 968-257 344-723 344-462 0-720-344-258-343-258-968 0-622 258-966t720-344q466 0 723 344 258 344 258 966zm575-1357q0-893-397-1329-396-436-1215-436-303 0-572 45t-522 139v559q253-137 500-202 247-66 503-66 566 0 847 295t281 892v285q-178-310-456-463t-666-153q-643 0-1037 490-394 491-394 1301 0 812 394 1302 394 491 1037 491 388 0 666-153t456-462v531h575v-3066z"/>
</defs>
<use xlink:href="#af"/>
<use transform="translate(56.7)" xlink:href="#t"/>
<use transform="translate(118)" xlink:href="#n"/>
<use transform="translate(159)" xlink:href="#ab"/>
<use transform="translate(195)" xlink:href="#r"/>
<use transform="translate(256)" xlink:href="#n"/>
<use transform="translate(295)" xlink:href="#ae"/>
<use transform="translate(392)" xlink:href="#aa"/>
<use transform="translate(454)" xlink:href="#o"/>
<use transform="translate(517)" xlink:href="#ac"/>
<use transform="translate(572)" xlink:href="#t"/>
<use transform="translate(634)" xlink:href="#DejaVuSans-20"/>
<use transform="translate(665)" xlink:href="#v"/>
<use transform="translate(693)" xlink:href="#ae"/>
<use transform="translate(791)" xlink:href="#ao"/>
<use transform="translate(854)" xlink:href="#n"/>
<use transform="translate(893)" xlink:href="#r"/>
<use transform="translate(954)" xlink:href="#z"/>
<use transform="translate(1013)" xlink:href="#t"/>
<use transform="translate(1075)" xlink:href="#ae"/>
<use transform="translate(1172)" xlink:href="#t"/>
<use transform="translate(1234)" xlink:href="#o"/>
<use transform="translate(1297)" xlink:href="#q"/>
<use transform="translate(1336)" xlink:href="#DejaVuSans-20"/>
<use transform="translate(1368)" xlink:href="#ak"/>
<use transform="translate(1432)" xlink:href="#ad"/>
<use transform="translate(1491)" xlink:href="#DejaVuSans-20"/>
<use transform="translate(1523)" xlink:href="#ac"/>
<use transform="translate(1578)" xlink:href="#r"/>
<use transform="translate(1639)" xlink:href="#o"/>
<use transform="translate(1702)" xlink:href="#ab"/>
<use transform="translate(1737)" xlink:href="#v"/>
<use transform="translate(1765)" xlink:href="#ap"/>
<use transform="translate(1829)" xlink:href="#u"/>
<use transform="translate(1892)" xlink:href="#n"/>
<use transform="translate(1933)" xlink:href="#aa"/>
<use transform="translate(1994)" xlink:href="#q"/>
<use transform="translate(2034)" xlink:href="#v"/>
<use transform="translate(2061)" xlink:href="#r"/>
<use transform="translate(2123)" xlink:href="#o"/>
</g>
<defs>
<clipPath id="g">
<rect x="40.6" y="35.7" width="661" height="313"/>
</clipPath>
<clipPath id="h">
<rect x="40.6" y="388" width="661" height="313"/>
</clipPath>
</defs>
</svg>
