<?xml version="1.0" encoding="UTF-8"?>
<!DOCTYPE svg  PUBLIC '-//W3C//DTD SVG 1.1//EN'  'http://www.w3.org/Graphics/SVG/1.1/DTD/svg11.dtd'>
<svg width="720pt" height="720pt" version="1.1" viewBox="0 0 720 720" xmlns="http://www.w3.org/2000/svg" xmlns:xlink="http://www.w3.org/1999/xlink">
<defs>
<style type="text/css">*{stroke-linejoin: round; stroke-linecap: butt}</style>
</defs>
<path d="m0 720h720v-720h-720z" fill="#fff"/>
<path d="m40.6 349h676v-313h-676z" fill="#fff"/>
<path d="m101 349v-313" clip-path="url(#g)" fill="none" stroke="#b0b0b0" stroke-linecap="square" stroke-width=".8"/>
<defs>
<path id="j" d="m0 0v3.5" stroke="#000" stroke-width=".8"/>
</defs>
<use x="100.952813" y="348.52899" stroke="#000000" stroke-width=".8" xlink:href="#j"/>
<g transform="translate(71.9 363) scale(.1 -.1)">
<defs>
<path id="c" transform="scale(.0156)" d="m1228 531h2203v-531h-2962v531q359 372 979 998 621 627 780 809 303 340 423 576 121 236 121 464 0 372-261 606-261 235-680 235-297 0-627-103-329-103-704-313v638q381 153 712 231 332 78 607 78 725 0 1156-363 431-362 431-968 0-288-108-546-107-257-392-607-78-91-497-524-418-433-1181-1211z"/>
<path id="b" transform="scale(.0156)" d="m2034 4250q-487 0-733-480-245-479-245-1442 0-959 245-1439 246-480 733-480 491 0 736 480 246 480 246 1439 0 963-246 1442-245 480-736 480zm0 500q785 0 1199-621 414-620 414-1801 0-1178-414-1799-414-620-1199-620-784 0-1198 620-414 621-414 1799 0 1181 414 1801 414 621 1198 621z"/>
<path id="k" transform="scale(.0156)" d="m2419 4116-1594-2491h1594v2491zm-166 550h794v-3041h666v-525h-666v-1100h-628v1100h-2106v609l1940 2957z"/>
<path id="f" transform="scale(.0156)" d="m313 2009h1684v-512h-1684v512z"/>
<path id="n" transform="scale(.0156)" d="m691 4666h2478v-532h-1900v-1143q137 47 274 70 138 23 276 23 781 0 1237-428 457-428 457-1159 0-753-469-1171-469-417-1322-417-294 0-599 50-304 50-629 150v635q281-153 581-228t634-75q541 0 856 284 316 284 316 772 0 487-316 771-315 285-856 285-253 0-505-56-251-56-513-175v2344z"/>
<path id="d" transform="scale(.0156)" d="m794 531h1031v3560l-1122-225v575l1116 225h631v-4135h1031v-531h-2687v531z"/>
</defs>
<use xlink:href="#c"/>
<use transform="translate(63.6)" xlink:href="#b"/>
<use transform="translate(127)" xlink:href="#c"/>
<use transform="translate(191)" xlink:href="#k"/>
<use transform="translate(254)" xlink:href="#f"/>
<use transform="translate(291)" xlink:href="#b"/>
<use transform="translate(354)" xlink:href="#n"/>
<use transform="translate(418)" xlink:href="#f"/>
<use transform="translate(454)" xlink:href="#d"/>
<use transform="translate(518)" xlink:href="#n"/>
</g>
<path d="m178 349v-313" clip-path="url(#g)" fill="none" stroke="#b0b0b0" stroke-linecap="square" stroke-width=".8"/>
<use x="177.952914" y="348.52899" stroke="#000000" stroke-width=".8" xlink:href="#j"/>
<g transform="translate(149 363) scale(.1 -.1)">
<defs>
<path id="ag" transform="scale(.0156)" d="m2113 2584q-425 0-674-291-248-290-248-796 0-503 248-796 249-292 674-292t673 292q248 293 248 796 0 506-248 796-248 291-673 291zm1253 1979v-575q-238 112-480 171-242 60-480 60-625 0-955-422-329-422-376-1275 184 272 462 417 279 145 613 145 703 0 1111-427 408-426 408-1160 0-719-425-1154-425-434-1131-434-810 0-1238 620-428 621-428 1799 0 1106 525 1764t1409 658q238 0 480-47t505-140z"/>
</defs>
<use xlink:href="#c"/>
<use transform="translate(63.6)" xlink:href="#b"/>
<use transform="translate(127)" xlink:href="#c"/>
<use transform="translate(191)" xlink:href="#k"/>
<use transform="translate(254)" xlink:href="#f"/>
<use transform="translate(291)" xlink:href="#b"/>
<use transform="translate(354)" xlink:href="#ag"/>
<use transform="translate(418)" xlink:href="#f"/>
<use transform="translate(454)" xlink:href="#b"/>
<use transform="translate(518)" xlink:href="#d"/>
</g>
<path d="m241 349v-313" clip-path="url(#g)" fill="none" stroke="#b0b0b0" stroke-linecap="square" stroke-width=".8"/>
<use x="241.364762" y="348.52899" stroke="#000000" stroke-width=".8" xlink:href="#j"/>
<g transform="translate(212 363) scale(.1 -.1)">
<use xlink:href="#c"/>
<use transform="translate(63.6)" xlink:href="#b"/>
<use transform="translate(127)" xlink:href="#c"/>
<use transform="translate(191)" xlink:href="#k"/>
<use transform="translate(254)" xlink:href="#f"/>
<use transform="translate(291)" xlink:href="#b"/>
<use transform="translate(354)" xlink:href="#ag"/>
<use transform="translate(418)" xlink:href="#f"/>
<use transform="translate(454)" xlink:href="#d"/>
<use transform="translate(518)" xlink:href="#n"/>
</g>
<path d="m314 349v-313" clip-path="url(#g)" fill="none" stroke="#b0b0b0" stroke-linecap="square" stroke-width=".8"/>
<use x="313.835446" y="348.52899" stroke="#000000" stroke-width=".8" xlink:href="#j"/>
<g transform="translate(285 363) scale(.1 -.1)">
<defs>
<path id="am" transform="scale(.0156)" d="m525 4666h3e3v-269l-1694-4397h-659l1594 4134h-2241v532z"/>
</defs>
<use xlink:href="#c"/>
<use transform="translate(63.6)" xlink:href="#b"/>
<use transform="translate(127)" xlink:href="#c"/>
<use transform="translate(191)" xlink:href="#k"/>
<use transform="translate(254)" xlink:href="#f"/>
<use transform="translate(291)" xlink:href="#b"/>
<use transform="translate(354)" xlink:href="#am"/>
<use transform="translate(418)" xlink:href="#f"/>
<use transform="translate(454)" xlink:href="#b"/>
<use transform="translate(518)" xlink:href="#d"/>
</g>
<path d="m377 349v-313" clip-path="url(#g)" fill="none" stroke="#b0b0b0" stroke-linecap="square" stroke-width=".8"/>
<use x="377.247294" y="348.52899" stroke="#000000" stroke-width=".8" xlink:href="#j"/>
<g transform="translate(348 363) scale(.1 -.1)">
<use xlink:href="#c"/>
<use transform="translate(63.6)" xlink:href="#b"/>
<use transform="translate(127)" xlink:href="#c"/>
<use transform="translate(191)" xlink:href="#k"/>
<use transform="translate(254)" xlink:href="#f"/>
<use transform="translate(291)" xlink:href="#b"/>
<use transform="translate(354)" xlink:href="#am"/>
<use transform="translate(418)" xlink:href="#f"/>
<use transform="translate(454)" xlink:href="#d"/>
<use transform="translate(518)" xlink:href="#n"/>
</g>
<path d="m454 349v-313" clip-path="url(#g)" fill="none" stroke="#b0b0b0" stroke-linecap="square" stroke-width=".8"/>
<use x="454.247396" y="348.52899" stroke="#000000" stroke-width=".8" xlink:href="#j"/>
<g transform="translate(425 363) scale(.1 -.1)">
<defs>
<path id="af" transform="scale(.0156)" d="m2034 2216q-450 0-708-241-257-241-257-662 0-422 257-663 258-241 708-241t709 242q260 243 260 662 0 421-258 662-257 241-711 241zm-631 268q-406 100-633 378-226 279-226 679 0 559 398 884 399 325 1092 325 697 0 1094-325t397-884q0-400-227-679-226-278-629-378 456-106 710-416 255-309 255-755 0-679-414-1042-414-362-1186-362-771 0-1186 362-414 363-414 1042 0 446 256 755 257 310 713 416zm-231 997q0-362 226-565 227-203 636-203 407 0 636 203 230 203 230 565 0 363-230 566-229 203-636 203-409 0-636-203-226-203-226-566z"/>
</defs>
<use xlink:href="#c"/>
<use transform="translate(63.6)" xlink:href="#b"/>
<use transform="translate(127)" xlink:href="#c"/>
<use transform="translate(191)" xlink:href="#k"/>
<use transform="translate(254)" xlink:href="#f"/>
<use transform="translate(291)" xlink:href="#b"/>
<use transform="translate(354)" xlink:href="#af"/>
<use transform="translate(418)" xlink:href="#f"/>
<use transform="translate(454)" xlink:href="#b"/>
<use transform="translate(518)" xlink:href="#d"/>
</g>
<path d="m518 349v-313" clip-path="url(#g)" fill="none" stroke="#b0b0b0" stroke-linecap="square" stroke-width=".8"/>
<use x="517.659244" y="348.52899" stroke="#000000" stroke-width=".8" xlink:href="#j"/>
<g transform="translate(489 363) scale(.1 -.1)">
<use xlink:href="#c"/>
<use transform="translate(63.6)" xlink:href="#b"/>
<use transform="translate(127)" xlink:href="#c"/>
<use transform="translate(191)" xlink:href="#k"/>
<use transform="translate(254)" xlink:href="#f"/>
<use transform="translate(291)" xlink:href="#b"/>
<use transform="translate(354)" xlink:href="#af"/>
<use transform="translate(418)" xlink:href="#f"/>
<use transform="translate(454)" xlink:href="#d"/>
<use transform="translate(518)" xlink:href="#n"/>
</g>
<path d="m595 349v-313" clip-path="url(#g)" fill="none" stroke="#b0b0b0" stroke-linecap="square" stroke-width=".8"/>
<use x="594.659346" y="348.52899" stroke="#000000" stroke-width=".8" xlink:href="#j"/>
<g transform="translate(566 363) scale(.1 -.1)">
<defs>
<path id="ad" transform="scale(.0156)" d="m703 97v575q238-113 481-172 244-59 479-59 625 0 954 420 330 420 377 1277-181-269-460-413-278-144-615-144-700 0-1108 423-408 424-408 1159 0 718 425 1152 425 435 1131 435 810 0 1236-621 427-620 427-1801 0-1103-524-1761-523-658-1407-658-238 0-482 47-243 47-506 141zm1256 1978q425 0 673 290 249 291 249 798 0 503-249 795-248 292-673 292t-673-292-248-795q0-507 248-798 248-290 673-290z"/>
</defs>
<use xlink:href="#c"/>
<use transform="translate(63.6)" xlink:href="#b"/>
<use transform="translate(127)" xlink:href="#c"/>
<use transform="translate(191)" xlink:href="#k"/>
<use transform="translate(254)" xlink:href="#f"/>
<use transform="translate(291)" xlink:href="#b"/>
<use transform="translate(354)" xlink:href="#ad"/>
<use transform="translate(418)" xlink:href="#f"/>
<use transform="translate(454)" xlink:href="#b"/>
<use transform="translate(518)" xlink:href="#d"/>
</g>
<path d="m658 349v-313" clip-path="url(#g)" fill="none" stroke="#b0b0b0" stroke-linecap="square" stroke-width=".8"/>
<use x="658.071194" y="348.52899" stroke="#000000" stroke-width=".8" xlink:href="#j"/>
<g transform="translate(629 363) scale(.1 -.1)">
<use xlink:href="#c"/>
<use transform="translate(63.6)" xlink:href="#b"/>
<use transform="translate(127)" xlink:href="#c"/>
<use transform="translate(191)" xlink:href="#k"/>
<use transform="translate(254)" xlink:href="#f"/>
<use transform="translate(291)" xlink:href="#b"/>
<use transform="translate(354)" xlink:href="#ad"/>
<use transform="translate(418)" xlink:href="#f"/>
<use transform="translate(454)" xlink:href="#d"/>
<use transform="translate(518)" xlink:href="#n"/>
</g>
<path d="m40.6 349h676" clip-path="url(#g)" fill="none" stroke="#b0b0b0" stroke-linecap="square" stroke-width=".8"/>
<defs>
<path id="l" d="m0 0h-3.5" stroke="#000" stroke-width=".8"/>
</defs>
<use x="40.645553" y="348.52899" stroke="#000000" stroke-width=".8" xlink:href="#l"/>
<g transform="translate(3 352) scale(.1 -.1)">
<defs>
<path id="h" transform="scale(.0156)" d="m684 794h660v-794h-660v794z"/>
<path id="m" transform="scale(.0156)" d="m4488 3438-1429-1435 1429-1428-372-378-1435 1434-1434-1434-369 378 1425 1428-1425 1435 369 378 1434-1435 1435 1435 372-378z"/>
</defs>
<use xlink:href="#b"/>
<use transform="translate(63.6)" xlink:href="#h"/>
<use transform="translate(95.4)" xlink:href="#ad"/>
<use transform="translate(159)" xlink:href="#b"/>
<use transform="translate(223)" xlink:href="#m"/>
</g>
<path d="m40.6 309h676" clip-path="url(#g)" fill="none" stroke="#b0b0b0" stroke-linecap="square" stroke-width=".8"/>
<use x="40.645553" y="309.429441" stroke="#000000" stroke-width=".8" xlink:href="#l"/>
<g transform="translate(3 313) scale(.1 -.1)">
<use xlink:href="#b"/>
<use transform="translate(63.6)" xlink:href="#h"/>
<use transform="translate(95.4)" xlink:href="#ad"/>
<use transform="translate(159)" xlink:href="#n"/>
<use transform="translate(223)" xlink:href="#m"/>
</g>
<path d="m40.6 270h676" clip-path="url(#g)" fill="none" stroke="#b0b0b0" stroke-linecap="square" stroke-width=".8"/>
<use x="40.645553" y="270.329891" stroke="#000000" stroke-width=".8" xlink:href="#l"/>
<g transform="translate(3 274) scale(.1 -.1)">
<use xlink:href="#d"/>
<use transform="translate(63.6)" xlink:href="#h"/>
<use transform="translate(95.4)" xlink:href="#b"/>
<use transform="translate(159)" xlink:href="#b"/>
<use transform="translate(223)" xlink:href="#m"/>
</g>
<path d="m40.6 231h676" clip-path="url(#g)" fill="none" stroke="#b0b0b0" stroke-linecap="square" stroke-width=".8"/>
<use x="40.645553" y="231.230342" stroke="#000000" stroke-width=".8" xlink:href="#l"/>
<g transform="translate(3 235) scale(.1 -.1)">
<use xlink:href="#d"/>
<use transform="translate(63.6)" xlink:href="#h"/>
<use transform="translate(95.4)" xlink:href="#b"/>
<use transform="translate(159)" xlink:href="#n"/>
<use transform="translate(223)" xlink:href="#m"/>
</g>
<path d="m40.6 192h676" clip-path="url(#g)" fill="none" stroke="#b0b0b0" stroke-linecap="square" stroke-width=".8"/>
<use x="40.645553" y="192.130792" stroke="#000000" stroke-width=".8" xlink:href="#l"/>
<g transform="translate(3 196) scale(.1 -.1)">
<use xlink:href="#d"/>
<use transform="translate(63.6)" xlink:href="#h"/>
<use transform="translate(95.4)" xlink:href="#d"/>
<use transform="translate(159)" xlink:href="#b"/>
<use transform="translate(223)" xlink:href="#m"/>
</g>
<path d="m40.6 153h676" clip-path="url(#g)" fill="none" stroke="#b0b0b0" stroke-linecap="square" stroke-width=".8"/>
<use x="40.645553" y="153.031243" stroke="#000000" stroke-width=".8" xlink:href="#l"/>
<g transform="translate(3 157) scale(.1 -.1)">
<use xlink:href="#d"/>
<use transform="translate(63.6)" xlink:href="#h"/>
<use transform="translate(95.4)" xlink:href="#d"/>
<use transform="translate(159)" xlink:href="#n"/>
<use transform="translate(223)" xlink:href="#m"/>
</g>
<path d="m40.6 114h676" clip-path="url(#g)" fill="none" stroke="#b0b0b0" stroke-linecap="square" stroke-width=".8"/>
<use x="40.645553" y="113.931694" stroke="#000000" stroke-width=".8" xlink:href="#l"/>
<g transform="translate(3 118) scale(.1 -.1)">
<use xlink:href="#d"/>
<use transform="translate(63.6)" xlink:href="#h"/>
<use transform="translate(95.4)" xlink:href="#c"/>
<use transform="translate(159)" xlink:href="#b"/>
<use transform="translate(223)" xlink:href="#m"/>
</g>
<path d="m40.6 74.8h676" clip-path="url(#g)" fill="none" stroke="#b0b0b0" stroke-linecap="square" stroke-width=".8"/>
<use x="40.645553" y="74.832144" stroke="#000000" stroke-width=".8" xlink:href="#l"/>
<g transform="translate(3 78.6) scale(.1 -.1)">
<use xlink:href="#d"/>
<use transform="translate(63.6)" xlink:href="#h"/>
<use transform="translate(95.4)" xlink:href="#c"/>
<use transform="translate(159)" xlink:href="#n"/>
<use transform="translate(223)" xlink:href="#m"/>
</g>
<path d="m40.6 35.7h676" clip-path="url(#g)" fill="none" stroke="#b0b0b0" stroke-linecap="square" stroke-width=".8"/>
<use x="40.645553" y="35.732595" stroke="#000000" stroke-width=".8" xlink:href="#l"/>
<g transform="translate(3 39.5) scale(.1 -.1)">
<defs>
<path id="v" transform="scale(.0156)" d="m2597 2516q453-97 707-404 255-306 255-756 0-690-475-1069-475-378-1350-378-293 0-604 58t-642 174v609q262-153 574-231 313-78 654-78 593 0 904 234t311 681q0 413-289 645-289 233-804 233h-544v519h569q465 0 712 186t247 536q0 359-255 551-254 193-729 193-260 0-557-57-297-56-653-174v562q360 100 674 150t592 50q719 0 1137-327 419-326 419-882 0-388-222-655t-631-370z"/>
</defs>
<use xlink:href="#d"/>
<use transform="translate(63.6)" xlink:href="#h"/>
<use transform="translate(95.4)" xlink:href="#v"/>
<use transform="translate(159)" xlink:href="#b"/>
<use transform="translate(223)" xlink:href="#m"/>
</g>
<path d="m71.4 270h446 104" clip-path="url(#g)" fill="none" stroke="#1f77b4" stroke-linecap="square" stroke-opacity=".9" stroke-width="1.5"/>
<defs>
<path id="a" d="m-2.5 2.5h5v-5h-5z" stroke="#1f77b4" stroke-opacity=".9"/>
</defs>
<g clip-path="url(#g)" fill="#1f77b4" fill-opacity=".9" stroke="#1f77b4" stroke-opacity=".9">
<use x="71.388926" y="270.329891" xlink:href="#a"/>
<use x="517.569023" y="270.329891" xlink:href="#a"/>
<use x="621.695409" y="270.329891" xlink:href="#a"/>
</g>
<g stroke="#1f77b4" stroke-opacity=".9">
<path d="m622 263h64.6" clip-path="url(#g)" fill="none" stroke-dasharray="1.5,2.475" stroke-width="1.5"/>
<g clip-path="url(#g)" fill="#1f77b4" fill-opacity=".9">
<use x="621.695409" y="262.509981" xlink:href="#a"/>
<use x="686.256387" y="262.509981" xlink:href="#a"/>
</g>
</g>
<path d="m622 210" clip-path="url(#g)" fill="none" stroke="#2ca02c" stroke-linecap="square" stroke-opacity=".9" stroke-width="1.5"/>
<defs>
<path id="e" d="m0-2.5-2.5 5h5z" stroke="#2ca02c" stroke-opacity=".9"/>
</defs>
<g clip-path="url(#g)">
<use x="621.695409" y="210.261046" fill="#2ca02c" fill-opacity=".9" stroke="#2ca02c" stroke-opacity=".9" xlink:href="#e"/>
</g>
<path d="m40.6 349v-313" fill="none" stroke="#000" stroke-linecap="square" stroke-width=".8"/>
<path d="m717 349v-313" fill="none" stroke="#000" stroke-linecap="square" stroke-width=".8"/>
<path d="m40.6 349h676" fill="none" stroke="#000" stroke-linecap="square" stroke-width=".8"/>
<path d="m40.6 35.7h676" fill="none" stroke="#000" stroke-linecap="square" stroke-width=".8"/>
<path d="m71.8 261-0.348 7.35" fill="none" stroke="#888" stroke-linecap="round"/>
<g transform="translate(74.5 257) rotate(-90) scale(.08 -.08)" fill="#888">
<defs>
<path id="al" transform="scale(.0156)" d="m3116 1747q0 634-261 995t-717 361q-457 0-718-361t-261-995 261-995 718-361q456 0 717 361t261 995zm-1957 1222q182 312 458 463 277 152 661 152 638 0 1036-506 399-506 399-1331t-399-1332q-398-506-1036-506-384 0-661 152-276 152-458 464v-525h-578v4863h578v-1894z"/>
</defs>
<use xlink:href="#al"/>
<use transform="translate(63.5)" xlink:href="#d"/>
</g>
<path d="m622 261-0.326 7.34" fill="none" stroke="#888" stroke-linecap="round"/>
<g transform="translate(625 257) rotate(-90) scale(.08 -.08)" fill="#888">
<defs>
<path id="o" transform="scale(.0156)" d="m2631 2963q-97 56-211 82-114 27-251 27-488 0-749-317t-261-911v-1844h-578v3500h578v-544q182 319 472 473 291 155 707 155 59 0 131-8 72-7 159-23l3-590z"/>
<path id="aa" transform="scale(.0156)" d="m3122 3366v-538q-244 135-489 202t-495 67q-560 0-870-355-309-354-309-995t309-996q310-354 870-354 250 0 495 67t489 202v-532q-241-112-499-168-257-57-548-57-791 0-1257 497-465 497-465 1341 0 856 470 1346 471 491 1290 491 265 0 518-55 253-54 491-163z"/>
</defs>
<use xlink:href="#o"/>
<use transform="translate(38.9)" xlink:href="#aa"/>
<use transform="translate(93.8)" xlink:href="#c"/>
</g>
<g clip-path="url(#g)">
<g transform="translate(58.2 262) rotate(-90) scale(.1 -.1)">
<defs>
<path id="ae" transform="scale(.0156)" d="m2375 4863v-479h-550q-309 0-430-125-120-125-120-450v-309h947v-447h-947v-3053h-578v3053h-550v447h550v244q0 584 272 851 272 268 862 268h544z"/>
<path id="y" transform="scale(.0156)" d="m2194 1759q-697 0-966-159t-269-544q0-306 202-486 202-179 548-179 479 0 768 339t289 901v128h-572zm1147 238v-2e3h-575v531q-197-318-491-470t-719-152q-537 0-855 302-317 302-317 808 0 590 395 890 396 300 1180 300h807v57q0 397-261 614t-733 217q-300 0-585-72-284-72-546-216v532q315 122 612 182 297 61 578 61 760 0 1135-394 375-393 375-1193z"/>
<path id="s" transform="scale(.0156)" d="m2834 3397v-544q-243 125-506 187-262 63-544 63-428 0-642-131t-214-394q0-200 153-314t616-217l197-44q612-131 870-370t258-667q0-488-386-773-386-284-1061-284-281 0-586 55t-642 164v594q319-166 628-249 309-82 613-82 406 0 624 139 219 139 219 392 0 234-158 359-157 125-692 241l-200 47q-534 112-772 345-237 233-237 639 0 494 350 762 350 269 994 269 318 0 599-47 282-46 519-140z"/>
<path id="r" transform="scale(.0156)" d="m1172 4494v-994h1184v-447h-1184v-1900q0-428 117-550t477-122h590v-481h-590q-666 0-919 248-253 249-253 905v1900h-422v447h422v994h578z"/>
<path id="u" transform="scale(.0156)" d="m3597 1894v-281h-2644q38-594 358-905t892-311q331 0 642 81t618 244v-544q-310-131-635-200t-659-69q-838 0-1327 487-489 488-489 1320 0 859 464 1363 464 505 1252 505 706 0 1117-455 411-454 411-1235zm-575 169q-6 471-264 752-258 282-683 282-481 0-770-272t-333-766l2050 4z"/>
<path id="an" transform="scale(.0156)" d="m8863 2147v-281l-1229-1228-375 375 729 728h-7622v531h7622l-729 728 375 375 1229-1228z"/>
</defs>
<use xlink:href="#ae"/>
<use transform="translate(35.2)" xlink:href="#y"/>
<use transform="translate(96.5)" xlink:href="#s"/>
<use transform="translate(149)" xlink:href="#r"/>
<use transform="translate(188)" xlink:href="#u"/>
<use transform="translate(249)" xlink:href="#o"/>
<use transform="translate(290)" xlink:href="#DejaVuSans-20"/>
<use transform="translate(322)" xlink:href="#an"/>
</g>
</g>
<g clip-path="url(#g)">
<g transform="translate(58.2 330) rotate(-90) scale(.1 -.1)">
<defs>
<path id="ao" transform="scale(.0156)" d="m313 1866v281l1228 1228 375-375-728-728h7621v-531h-7621l728-728-375-375-1228 1228z"/>
<path id="t" transform="scale(.0156)" d="m603 4863h575v-4863h-575v4863z"/>
<path id="p" transform="scale(.0156)" d="m1959 3097q-462 0-731-361t-269-989 267-989q268-361 733-361 460 0 728 362 269 363 269 988 0 622-269 986-268 364-728 364zm0 487q750 0 1178-488 429-487 429-1349 0-859-429-1349-428-489-1178-489-753 0-1180 489-426 490-426 1349 0 862 426 1349 427 488 1180 488z"/>
<path id="aj" transform="scale(.0156)" d="m269 3500h575l719-2731 715 2731h678l719-2731 716 2731h575l-916-3500h-678l-753 2869-756-2869h-679l-915 3500z"/>
</defs>
<use xlink:href="#ao"/>
<use transform="translate(143)" xlink:href="#DejaVuSans-20"/>
<use transform="translate(175)" xlink:href="#s"/>
<use transform="translate(227)" xlink:href="#t"/>
<use transform="translate(255)" xlink:href="#p"/>
<use transform="translate(316)" xlink:href="#aj"/>
<use transform="translate(398)" xlink:href="#u"/>
<use transform="translate(460)" xlink:href="#o"/>
</g>
</g>
<g transform="translate(306 29.7) scale(.12 -.12)">
<defs>
<path id="ai" transform="scale(.0156)" d="m1259 4147v-1753h794q441 0 681 228 241 228 241 650 0 419-241 647-240 228-681 228h-794zm-631 519h1425q785 0 1186-355 402-355 402-1039 0-691-402-1044-401-353-1186-353h-794v-1875h-631v4666z"/>
<path id="ah" transform="scale(.0156)" d="m2059-325q-243-625-475-815-231-191-618-191h-460v481h338q237 0 368 113 132 112 291 531l103 262-1415 3444h609l1094-2737 1094 2737h609l-1538-3825z"/>
<path id="ak" transform="scale(.0156)" d="m3513 2113v-2113h-575v2094q0 497-194 743-194 247-581 247-466 0-735-297-269-296-269-809v-1978h-578v4863h578v-1907q207 316 486 472 280 156 646 156 603 0 912-373 310-373 310-1098z"/>
<path id="q" transform="scale(.0156)" d="m3513 2113v-2113h-575v2094q0 497-194 743-194 247-581 247-466 0-735-297-269-296-269-809v-1978h-578v3500h578v-544q207 316 486 472 280 156 646 156 603 0 912-373 310-373 310-1098z"/>
<path id="z" transform="scale(.0156)" d="m3513 3500-1266-1703 1331-1797h-678l-1019 1375-1018-1375h-679l1360 1831-1244 1669h678l928-1247 928 1247h679z"/>
<path id="ab" transform="scale(.0156)" d="m191 3500h609l1094-2937 1094 2937h609l-1313-3500h-781l-1312 3500z"/>
</defs>
<use xlink:href="#ai"/>
<use transform="translate(60.3)" xlink:href="#ah"/>
<use transform="translate(119)" xlink:href="#r"/>
<use transform="translate(159)" xlink:href="#ak"/>
<use transform="translate(222)" xlink:href="#p"/>
<use transform="translate(283)" xlink:href="#q"/>
<use transform="translate(347)" xlink:href="#DejaVuSans-20"/>
<use transform="translate(378)" xlink:href="#v"/>
<use transform="translate(442)" xlink:href="#h"/>
<use transform="translate(474)" xlink:href="#d"/>
<use transform="translate(537)" xlink:href="#v"/>
<use transform="translate(601)" xlink:href="#h"/>
<use transform="translate(633)" xlink:href="#z"/>
<use transform="translate(692)" xlink:href="#DejaVuSans-20"/>
<use transform="translate(724)" xlink:href="#ab"/>
<use transform="translate(783)" xlink:href="#s"/>
<use transform="translate(835)" xlink:href="#h"/>
<use transform="translate(867)" xlink:href="#DejaVuSans-20"/>
<use transform="translate(899)" xlink:href="#v"/>
<use transform="translate(962)" xlink:href="#h"/>
<use transform="translate(994)" xlink:href="#d"/>
<use transform="translate(1058)" xlink:href="#c"/>
<use transform="translate(1121)" xlink:href="#h"/>
<use transform="translate(1153)" xlink:href="#ag"/>
</g>
<path d="m47.6 87.8h82.6q2 0 2-2v-43q0-2-2-2h-82.6q-2 0-2 2v43q0 2 2 2z" fill="#fff" opacity=".8" stroke="#ccc"/>
<path d="m49.6 48.8h10 10" fill="none" stroke="#1f77b4" stroke-linecap="square" stroke-opacity=".9" stroke-width="1.5"/>
<use x="59.645553" y="48.831032" fill="#1f77b4" fill-opacity=".9" stroke="#1f77b4" stroke-opacity=".9" xlink:href="#a"/>
<g transform="translate(77.6 52.3) scale(.1 -.1)">
<defs>
<path id="x" transform="scale(.0156)" d="m603 3500h575v-3500h-575v3500zm0 1363h575v-729h-575v729z"/>
<path id="w" transform="scale(.0156)" d="m544 1381v2119h575v-2097q0-497 193-746 194-248 582-248 465 0 735 297 271 297 271 810v1984h575v-3500h-575v538q-209-319-486-474-276-155-642-155-603 0-916 375-312 375-312 1097zm1447 2203z"/>
</defs>
<use xlink:href="#t"/>
<use transform="translate(27.8)" xlink:href="#x"/>
<use transform="translate(55.6)" xlink:href="#q"/>
<use transform="translate(119)" xlink:href="#w"/>
<use transform="translate(182)" xlink:href="#z"/>
</g>
<path d="m49.6 63.5h10 10" fill="none" stroke="#1f77b4" stroke-dasharray="1.5,2.475" stroke-opacity=".9" stroke-width="1.5"/>
<use x="59.645553" y="63.509157" fill="#1f77b4" fill-opacity=".9" stroke="#1f77b4" stroke-opacity=".9" xlink:href="#a"/>
<g transform="translate(77.6 67) scale(.1 -.1)">
<use xlink:href="#t"/>
<use transform="translate(27.8)" xlink:href="#x"/>
<use transform="translate(55.6)" xlink:href="#q"/>
<use transform="translate(119)" xlink:href="#w"/>
<use transform="translate(182)" xlink:href="#z"/>
<use transform="translate(242)" xlink:href="#f"/>
<use transform="translate(275)" xlink:href="#ab"/>
<use transform="translate(334)" xlink:href="#w"/>
<use transform="translate(398)" xlink:href="#t"/>
<use transform="translate(425)" xlink:href="#r"/>
<use transform="translate(465)" xlink:href="#o"/>
</g>
<path d="m49.6 78.2h10 10" fill="none" stroke="#2ca02c" stroke-linecap="square" stroke-opacity=".9" stroke-width="1.5"/>
<use x="59.645553" y="78.187282" fill="#2ca02c" fill-opacity=".9" stroke="#2ca02c" stroke-opacity=".9" xlink:href="#e"/>
<g transform="translate(77.6 81.7) scale(.1 -.1)">
<defs>
<path id="ac" transform="scale(.0156)" d="m3328 2828q216 388 516 572t706 184q547 0 844-383 297-382 297-1088v-2113h-578v2094q0 503-179 746-178 244-543 244-447 0-707-297-259-296-259-809v-1978h-578v2094q0 506-178 748t-550 242q-441 0-701-298-259-298-259-808v-1978h-578v3500h578v-544q197 322 472 475t653 153q382 0 649-194 267-193 395-562z"/>
</defs>
<use xlink:href="#ac"/>
<use transform="translate(97.4)" xlink:href="#y"/>
<use transform="translate(159)" xlink:href="#aa"/>
<use transform="translate(214)" xlink:href="#p"/>
<use transform="translate(275)" xlink:href="#s"/>
</g>
<path d="m40.6 700h676v-313h-676z" fill="#fff"/>
<path d="m91.7 700v-313" clip-path="url(#i)" fill="none" stroke="#b0b0b0" stroke-linecap="square" stroke-width=".8"/>
<use x="91.693756" y="700.321635" stroke="#000000" stroke-width=".8" xlink:href="#j"/>
<g transform="translate(70.8 715) scale(.1 -.1)">
<use xlink:href="#c"/>
<use transform="translate(63.6)" xlink:href="#b"/>
<use transform="translate(127)" xlink:href="#c"/>
<use transform="translate(191)" xlink:href="#k"/>
<use transform="translate(254)" xlink:href="#f"/>
<use transform="translate(291)" xlink:href="#b"/>
<use transform="translate(354)" xlink:href="#af"/>
</g>
<path d="m165 700v-313" clip-path="url(#i)" fill="none" stroke="#b0b0b0" stroke-linecap="square" stroke-width=".8"/>
<use x="164.80333" y="700.321635" stroke="#000000" stroke-width=".8" xlink:href="#j"/>
<g transform="translate(144 715) scale(.1 -.1)">
<use xlink:href="#c"/>
<use transform="translate(63.6)" xlink:href="#b"/>
<use transform="translate(127)" xlink:href="#c"/>
<use transform="translate(191)" xlink:href="#k"/>
<use transform="translate(254)" xlink:href="#f"/>
<use transform="translate(291)" xlink:href="#b"/>
<use transform="translate(354)" xlink:href="#ad"/>
</g>
<path d="m236 700v-313" clip-path="url(#i)" fill="none" stroke="#b0b0b0" stroke-linecap="square" stroke-width=".8"/>
<use x="235.554531" y="700.321635" stroke="#000000" stroke-width=".8" xlink:href="#j"/>
<g transform="translate(215 715) scale(.1 -.1)">
<use xlink:href="#c"/>
<use transform="translate(63.6)" xlink:href="#b"/>
<use transform="translate(127)" xlink:href="#c"/>
<use transform="translate(191)" xlink:href="#k"/>
<use transform="translate(254)" xlink:href="#f"/>
<use transform="translate(291)" xlink:href="#d"/>
<use transform="translate(354)" xlink:href="#b"/>
</g>
<path d="m309 700v-313" clip-path="url(#i)" fill="none" stroke="#b0b0b0" stroke-linecap="square" stroke-width=".8"/>
<use x="308.664106" y="700.321635" stroke="#000000" stroke-width=".8" xlink:href="#j"/>
<g transform="translate(288 715) scale(.1 -.1)">
<use xlink:href="#c"/>
<use transform="translate(63.6)" xlink:href="#b"/>
<use transform="translate(127)" xlink:href="#c"/>
<use transform="translate(191)" xlink:href="#k"/>
<use transform="translate(254)" xlink:href="#f"/>
<use transform="translate(291)" xlink:href="#d"/>
<use transform="translate(354)" xlink:href="#d"/>
</g>
<path d="m379 700v-313" clip-path="url(#i)" fill="none" stroke="#b0b0b0" stroke-linecap="square" stroke-width=".8"/>
<use x="379.415307" y="700.321635" stroke="#000000" stroke-width=".8" xlink:href="#j"/>
<g transform="translate(359 715) scale(.1 -.1)">
<use xlink:href="#c"/>
<use transform="translate(63.6)" xlink:href="#b"/>
<use transform="translate(127)" xlink:href="#c"/>
<use transform="translate(191)" xlink:href="#k"/>
<use transform="translate(254)" xlink:href="#f"/>
<use transform="translate(291)" xlink:href="#d"/>
<use transform="translate(354)" xlink:href="#c"/>
</g>
<path d="m453 700v-313" clip-path="url(#i)" fill="none" stroke="#b0b0b0" stroke-linecap="square" stroke-width=".8"/>
<use x="452.524881" y="700.321635" stroke="#000000" stroke-width=".8" xlink:href="#j"/>
<g transform="translate(432 715) scale(.1 -.1)">
<use xlink:href="#c"/>
<use transform="translate(63.6)" xlink:href="#b"/>
<use transform="translate(127)" xlink:href="#c"/>
<use transform="translate(191)" xlink:href="#n"/>
<use transform="translate(254)" xlink:href="#f"/>
<use transform="translate(291)" xlink:href="#b"/>
<use transform="translate(354)" xlink:href="#d"/>
</g>
<path d="m526 700v-313" clip-path="url(#i)" fill="none" stroke="#b0b0b0" stroke-linecap="square" stroke-width=".8"/>
<use x="525.634455" y="700.321635" stroke="#000000" stroke-width=".8" xlink:href="#j"/>
<g transform="translate(505 715) scale(.1 -.1)">
<use xlink:href="#c"/>
<use transform="translate(63.6)" xlink:href="#b"/>
<use transform="translate(127)" xlink:href="#c"/>
<use transform="translate(191)" xlink:href="#n"/>
<use transform="translate(254)" xlink:href="#f"/>
<use transform="translate(291)" xlink:href="#b"/>
<use transform="translate(354)" xlink:href="#c"/>
</g>
<path d="m592 700v-313" clip-path="url(#i)" fill="none" stroke="#b0b0b0" stroke-linecap="square" stroke-width=".8"/>
<use x="591.66891" y="700.321635" stroke="#000000" stroke-width=".8" xlink:href="#j"/>
<g transform="translate(571 715) scale(.1 -.1)">
<use xlink:href="#c"/>
<use transform="translate(63.6)" xlink:href="#b"/>
<use transform="translate(127)" xlink:href="#c"/>
<use transform="translate(191)" xlink:href="#n"/>
<use transform="translate(254)" xlink:href="#f"/>
<use transform="translate(291)" xlink:href="#b"/>
<use transform="translate(354)" xlink:href="#v"/>
</g>
<path d="m665 700v-313" clip-path="url(#i)" fill="none" stroke="#b0b0b0" stroke-linecap="square" stroke-width=".8"/>
<use x="664.778484" y="700.321635" stroke="#000000" stroke-width=".8" xlink:href="#j"/>
<g transform="translate(644 715) scale(.1 -.1)">
<use xlink:href="#c"/>
<use transform="translate(63.6)" xlink:href="#b"/>
<use transform="translate(127)" xlink:href="#c"/>
<use transform="translate(191)" xlink:href="#n"/>
<use transform="translate(254)" xlink:href="#f"/>
<use transform="translate(291)" xlink:href="#b"/>
<use transform="translate(354)" xlink:href="#k"/>
</g>
<path d="m40.6 684h676" clip-path="url(#i)" fill="none" stroke="#b0b0b0" stroke-linecap="square" stroke-width=".8"/>
<use x="40.645553" y="683.959731" stroke="#000000" stroke-width=".8" xlink:href="#l"/>
<g transform="translate(3 688) scale(.1 -.1)">
<use xlink:href="#d"/>
<use transform="translate(63.6)" xlink:href="#h"/>
<use transform="translate(95.4)" xlink:href="#b"/>
<use transform="translate(159)" xlink:href="#b"/>
<use transform="translate(223)" xlink:href="#m"/>
</g>
<path d="m40.6 632h676" clip-path="url(#i)" fill="none" stroke="#b0b0b0" stroke-linecap="square" stroke-width=".8"/>
<use x="40.645553" y="632.175456" stroke="#000000" stroke-width=".8" xlink:href="#l"/>
<g transform="translate(3 636) scale(.1 -.1)">
<use xlink:href="#d"/>
<use transform="translate(63.6)" xlink:href="#h"/>
<use transform="translate(95.4)" xlink:href="#c"/>
<use transform="translate(159)" xlink:href="#b"/>
<use transform="translate(223)" xlink:href="#m"/>
</g>
<path d="m40.6 580h676" clip-path="url(#i)" fill="none" stroke="#b0b0b0" stroke-linecap="square" stroke-width=".8"/>
<use x="40.645553" y="580.391182" stroke="#000000" stroke-width=".8" xlink:href="#l"/>
<g transform="translate(3 584) scale(.1 -.1)">
<use xlink:href="#d"/>
<use transform="translate(63.6)" xlink:href="#h"/>
<use transform="translate(95.4)" xlink:href="#k"/>
<use transform="translate(159)" xlink:href="#b"/>
<use transform="translate(223)" xlink:href="#m"/>
</g>
<path d="m40.6 529h676" clip-path="url(#i)" fill="none" stroke="#b0b0b0" stroke-linecap="square" stroke-width=".8"/>
<use x="40.645553" y="528.606908" stroke="#000000" stroke-width=".8" xlink:href="#l"/>
<g transform="translate(3 532) scale(.1 -.1)">
<use xlink:href="#d"/>
<use transform="translate(63.6)" xlink:href="#h"/>
<use transform="translate(95.4)" xlink:href="#ag"/>
<use transform="translate(159)" xlink:href="#b"/>
<use transform="translate(223)" xlink:href="#m"/>
</g>
<path d="m40.6 477h676" clip-path="url(#i)" fill="none" stroke="#b0b0b0" stroke-linecap="square" stroke-width=".8"/>
<use x="40.645553" y="476.822634" stroke="#000000" stroke-width=".8" xlink:href="#l"/>
<g transform="translate(3 481) scale(.1 -.1)">
<use xlink:href="#d"/>
<use transform="translate(63.6)" xlink:href="#h"/>
<use transform="translate(95.4)" xlink:href="#af"/>
<use transform="translate(159)" xlink:href="#b"/>
<use transform="translate(223)" xlink:href="#m"/>
</g>
<path d="m40.6 425h676" clip-path="url(#i)" fill="none" stroke="#b0b0b0" stroke-linecap="square" stroke-width=".8"/>
<use x="40.645553" y="425.038359" stroke="#000000" stroke-width=".8" xlink:href="#l"/>
<g transform="translate(3 429) scale(.1 -.1)">
<use xlink:href="#c"/>
<use transform="translate(63.6)" xlink:href="#h"/>
<use transform="translate(95.4)" xlink:href="#b"/>
<use transform="translate(159)" xlink:href="#b"/>
<use transform="translate(223)" xlink:href="#m"/>
</g>
<g stroke="#1f77b4" stroke-opacity=".9">
<path d="m71.4 558 11.2-2.46 16.8-1.67 9.28 14.9 0.0151 1.25 0.225-7.99 6.93-9.98 11.5 13.9 0.0809-1.26 4.86-0.514 16.6-10.9 16.5 2.85 13.3 17.7 0.0265-0.423 0.524-12.6 2.29-15.4 16.5 4.69 13.7 4.86 13.3-152 0.0247 6.85 6.37 150 4.28-158 0.0981 20.2 49.9 134 2.17 7.56 30.7 38.9 2.66-2.31 2.23-45.5 2.41-6.45 1.74 0.752 2.97 0.991 4.83 3.02 2.08 0.33 2.59 1.98 2.42-9.48 2.24 5.36 2.45 0.851 2.32-6.87 2.4-2.14 2.08 7.65 2.51-5.56 2.52 10.6 2.3-6.51 2.13 7.62 2.46-4.74 2.25 2.71 2.38 6.41 2.53-3.08 1.72 3.23 2.75-2.61 2.12 0.249 2.44-1.8 2.75-13.9 2.44-1.25 2.37 1.6 2.09 12 2.36-14.2 2 0.324 2.44-4.87 2.33 4.26 2.91 2.33 2.27 11.4 4.22-15.1 2.08-1.19 3.13 0.753 2.13 1.85 2.58 4.29 1.6 0.284 3.15 0.81 1.97-0.158 4.65 7.87 2.58-4.15 2.08-6.05 2.28 3.91 2.77-4.62 2.38-13.9 2.25 5.8 2.46 3.81 2.24-4.91 2.41-1.57 2.44 5.64 2.05-6.5 2.63 19.1 2.54-14.4 2.19 2.59 2.52-2.13 2.17 10.6 2.55 1.42 1.98 12.4 2.88-3.95 1.81-4.59 2.72 6.49 1.75 1.98 2.98 3.77 0.249-4.9 1.91-4.58 2.63-0.669 2.24-4.67 2.28-0.869 2.57 9.54 2.34 1.19 2.32 6.78 0.187-0.442 2.25-3.43 1.53-3.38 0.75-0.261 2.26 1.88 1.95-2.69 2.42-17.9 2.87 16.7 1.13 5.1 1.23 9.53 2.34-15.4 2.2-4.99 1.89 4.92 2.27-7.44 2.3-1.95 0.693 2.83 1.71-2.73 2.98 2.93 2.03-7.91 2.75 0.721 2.26-7.72 2.45-4.25 2.35 11.6 2.19 2.61 2.58-5.8 2.28 7.02 1.94-5.87 2.61 17.8 2.13-21.3 2.86-1.95 1.96 10.6 2.72-2.72 2.16 1.09 2.58-1.86 1.76 20.1 2.36-29.2 2.99 2.58 2.09 15.9 2.31-6.3 2.42-2.48 2.54-3.8 2.2 1.06 2.31-2.83 2.35-0.307 0.459 2.53 2.06 2.52 2.37-0.219 2.35-1.17 2.43 6.35 2.11-2.75 2.4 1.23 2.21-1.18 1.76 8.73 0.891-7.86 2.37 6.94 2.21 9.61 2.49-1.16 2.19-10.1 2.12 9.03 2.67-0.521 2.41-3.87 1.47 14.7 0.992-15.8 2.37 25.1 2.38-24.2 2.32 3.49 2.27-20.4 1.54 16.5 3.23-1.71 2.39 0.375 2.26-4.84 2.02-7.46 2.84-13.2 2.09 0.41 2.54 2.47 2.17 4.91 2.62 7.88 2.35-2.13 2.03 5.96 2.56 0.962 2.39-5.94 2.42-3.67 2.44-0.917 2.22 4.55v0" clip-path="url(#i)" fill="none" stroke-linecap="square" stroke-width="1.5"/>
<g clip-path="url(#i)" fill="#1f77b4" fill-opacity=".9">
<use x="71.388926" y="558.4446" xlink:href="#a"/>
<use x="82.610142" y="555.985241" xlink:href="#a"/>
<use x="99.449829" y="554.310742" xlink:href="#a"/>
<use x="108.728008" y="569.235723" xlink:href="#a"/>
<use x="108.743103" y="570.489218" xlink:href="#a"/>
<use x="108.967613" y="562.501039" xlink:href="#a"/>
<use x="115.90194" y="552.519716" xlink:href="#a"/>
<use x="127.434058" y="566.439825" xlink:href="#a"/>
<use x="127.514963" y="565.176841" xlink:href="#a"/>
<use x="132.372585" y="564.662392" xlink:href="#a"/>
<use x="148.973595" y="553.777382" xlink:href="#a"/>
<use x="165.519168" y="556.628799" xlink:href="#a"/>
<use x="178.842394" y="574.353702" xlink:href="#a"/>
<use x="178.868871" y="573.931187" xlink:href="#a"/>
<use x="179.393282" y="561.285861" xlink:href="#a"/>
<use x="181.683606" y="545.83766" xlink:href="#a"/>
<use x="198.16435" y="550.523904" xlink:href="#a"/>
<use x="211.836201" y="555.387562" xlink:href="#a"/>
<use x="225.156862" y="402.932852" xlink:href="#a"/>
<use x="225.181592" y="409.778044" xlink:href="#a"/>
<use x="231.551384" y="559.406374" xlink:href="#a"/>
<use x="235.834206" y="401.743258" xlink:href="#a"/>
<use x="235.932335" y="421.928803" xlink:href="#a"/>
<use x="285.829674" y="556.068938" xlink:href="#a"/>
<use x="287.99946" y="563.624791" xlink:href="#a"/>
<use x="318.667785" y="602.56308" xlink:href="#a"/>
<use x="321.330372" y="600.256463" xlink:href="#a"/>
<use x="323.557507" y="554.78273" xlink:href="#a"/>
<use x="325.964057" y="548.332929" xlink:href="#a"/>
<use x="327.707725" y="549.085321" xlink:href="#a"/>
<use x="330.678102" y="550.075963" xlink:href="#a"/>
<use x="332.911023" y="551.441011" xlink:href="#a"/>
<use x="335.50971" y="553.091198" xlink:href="#a"/>
<use x="337.59294" y="553.421149" xlink:href="#a"/>
<use x="340.183001" y="555.40612" xlink:href="#a"/>
<use x="342.603118" y="545.930251" xlink:href="#a"/>
<use x="344.840707" y="551.292408" xlink:href="#a"/>
<use x="347.294616" y="552.143063" xlink:href="#a"/>
<use x="349.61412" y="545.27629" xlink:href="#a"/>
<use x="352.017559" y="543.134854" xlink:href="#a"/>
<use x="354.094729" y="550.78863" xlink:href="#a"/>
<use x="356.609181" y="545.229773" xlink:href="#a"/>
<use x="359.133596" y="555.852997" xlink:href="#a"/>
<use x="361.437377" y="549.338639" xlink:href="#a"/>
<use x="363.563462" y="556.955558" xlink:href="#a"/>
<use x="366.023076" y="552.215687" xlink:href="#a"/>
<use x="368.268744" y="554.927347" xlink:href="#a"/>
<use x="370.646907" y="561.338692" xlink:href="#a"/>
<use x="373.180193" y="558.255162" xlink:href="#a"/>
<use x="374.90025" y="561.487518" xlink:href="#a"/>
<use x="377.652505" y="558.875536" xlink:href="#a"/>
<use x="379.775041" y="559.124819" xlink:href="#a"/>
<use x="382.214974" y="557.326636" xlink:href="#a"/>
<use x="384.967966" y="543.452838" xlink:href="#a"/>
<use x="387.407599" y="542.207488" xlink:href="#a"/>
<use x="389.774298" y="543.808179" xlink:href="#a"/>
<use x="391.861813" y="555.817918" xlink:href="#a"/>
<use x="394.220241" y="541.648135" xlink:href="#a"/>
<use x="396.216588" y="541.972291" xlink:href="#a"/>
<use x="398.653355" y="537.100042" xlink:href="#a"/>
<use x="400.986835" y="541.356983" xlink:href="#a"/>
<use x="403.899672" y="543.683285" xlink:href="#a"/>
<use x="406.173618" y="555.057973" xlink:href="#a"/>
<use x="408.385685" y="547.256107" xlink:href="#a"/>
<use x="410.397236" y="539.944312" xlink:href="#a"/>
<use x="412.474815" y="538.753392" xlink:href="#a"/>
<use x="415.604901" y="539.506144" xlink:href="#a"/>
<use x="417.738219" y="541.3523" xlink:href="#a"/>
<use x="420.321866" y="545.640561" xlink:href="#a"/>
<use x="421.922557" y="545.924064" xlink:href="#a"/>
<use x="425.073906" y="546.734264" xlink:href="#a"/>
<use x="427.04293" y="546.576669" xlink:href="#a"/>
<use x="431.695449" y="554.449895" xlink:href="#a"/>
<use x="434.276612" y="550.302618" xlink:href="#a"/>
<use x="436.359296" y="544.253288" xlink:href="#a"/>
<use x="438.640067" y="548.163313" xlink:href="#a"/>
<use x="441.410419" y="543.54038" xlink:href="#a"/>
<use x="443.794014" y="529.642058" xlink:href="#a"/>
<use x="446.048471" y="535.43721" xlink:href="#a"/>
<use x="448.507785" y="539.251013" xlink:href="#a"/>
<use x="450.743108" y="534.339784" xlink:href="#a"/>
<use x="453.151406" y="532.772761" xlink:href="#a"/>
<use x="455.58992" y="538.416938" xlink:href="#a"/>
<use x="457.63944" y="531.92089" xlink:href="#a"/>
<use x="460.26949" y="550.982422" xlink:href="#a"/>
<use x="462.80799" y="536.540128" xlink:href="#a"/>
<use x="465.002178" y="539.130145" xlink:href="#a"/>
<use x="467.524709" y="536.996128" xlink:href="#a"/>
<use x="469.692857" y="547.632966" xlink:href="#a"/>
<use x="472.240282" y="549.050426" xlink:href="#a"/>
<use x="474.217958" y="561.443825" xlink:href="#a"/>
<use x="477.096511" y="557.494834" xlink:href="#a"/>
<use x="478.905553" y="552.903506" xlink:href="#a"/>
<use x="481.62729" y="559.398331" xlink:href="#a"/>
<use x="483.377291" y="561.382031" xlink:href="#a"/>
<use x="486.356375" y="565.149495" xlink:href="#a"/>
<use x="486.605069" y="560.251174" xlink:href="#a"/>
<use x="488.512976" y="555.668821" xlink:href="#a"/>
<use x="491.138441" y="554.999615" xlink:href="#a"/>
<use x="493.375975" y="550.328907" xlink:href="#a"/>
<use x="495.65216" y="549.46019" xlink:href="#a"/>
<use x="498.227154" y="559.003071" xlink:href="#a"/>
<use x="500.566175" y="560.191375" xlink:href="#a"/>
<use x="502.883577" y="566.969431" xlink:href="#a"/>
<use x="503.07009" y="566.527304" xlink:href="#a"/>
<use x="505.323675" y="563.10098" xlink:href="#a"/>
<use x="506.855716" y="559.718093" xlink:href="#a"/>
<use x="507.605701" y="559.456706" xlink:href="#a"/>
<use x="509.865891" y="561.33371" xlink:href="#a"/>
<use x="511.812013" y="558.641428" xlink:href="#a"/>
<use x="514.236415" y="540.733416" xlink:href="#a"/>
<use x="517.106233" y="557.424259" xlink:href="#a"/>
<use x="518.232985" y="562.526233" xlink:href="#a"/>
<use x="519.461495" y="572.054807" xlink:href="#a"/>
<use x="521.80622" y="556.697417" xlink:href="#a"/>
<use x="524.004667" y="551.705198" xlink:href="#a"/>
<use x="525.899063" y="556.626107" xlink:href="#a"/>
<use x="528.172573" y="549.181777" xlink:href="#a"/>
<use x="530.477364" y="547.232395" xlink:href="#a"/>
<use x="531.169945" y="550.063053" xlink:href="#a"/>
<use x="532.876955" y="547.332552" xlink:href="#a"/>
<use x="535.853063" y="550.265443" xlink:href="#a"/>
<use x="537.882438" y="542.358959" xlink:href="#a"/>
<use x="540.631554" y="543.079705" xlink:href="#a"/>
<use x="542.896275" y="535.364616" xlink:href="#a"/>
<use x="545.345653" y="531.115772" xlink:href="#a"/>
<use x="547.690924" y="542.681388" xlink:href="#a"/>
<use x="549.884102" y="545.293997" xlink:href="#a"/>
<use x="552.45956" y="539.490636" xlink:href="#a"/>
<use x="554.73621" y="546.514707" xlink:href="#a"/>
<use x="556.671714" y="540.649246" xlink:href="#a"/>
<use x="559.276897" y="558.475716" xlink:href="#a"/>
<use x="561.405411" y="537.197757" xlink:href="#a"/>
<use x="564.264557" y="535.246336" xlink:href="#a"/>
<use x="566.228175" y="545.893596" xlink:href="#a"/>
<use x="568.945054" y="543.174446" xlink:href="#a"/>
<use x="571.10616" y="544.263234" xlink:href="#a"/>
<use x="573.68462" y="542.400765" xlink:href="#a"/>
<use x="575.445867" y="562.480785" xlink:href="#a"/>
<use x="577.804813" y="533.311687" xlink:href="#a"/>
<use x="580.795198" y="535.893931" xlink:href="#a"/>
<use x="582.882331" y="551.82569" xlink:href="#a"/>
<use x="585.190671" y="545.527949" xlink:href="#a"/>
<use x="587.615128" y="543.04461" xlink:href="#a"/>
<use x="590.15098" y="539.2435" xlink:href="#a"/>
<use x="592.353166" y="540.306295" xlink:href="#a"/>
<use x="594.658858" y="537.472556" xlink:href="#a"/>
<use x="597.010571" y="537.165087" xlink:href="#a"/>
<use x="597.469444" y="539.695639" xlink:href="#a"/>
<use x="599.52778" y="542.212613" xlink:href="#a"/>
<use x="601.895188" y="541.993241" xlink:href="#a"/>
<use x="604.246792" y="540.81909" xlink:href="#a"/>
<use x="606.672504" y="547.166041" xlink:href="#a"/>
<use x="608.783549" y="544.417523" xlink:href="#a"/>
<use x="611.186224" y="545.647509" xlink:href="#a"/>
<use x="613.400965" y="544.466745" xlink:href="#a"/>
<use x="615.165733" y="553.19618" xlink:href="#a"/>
<use x="616.056592" y="545.337108" xlink:href="#a"/>
<use x="618.426566" y="552.279367" xlink:href="#a"/>
<use x="620.634157" y="561.886389" xlink:href="#a"/>
<use x="623.121531" y="560.723879" xlink:href="#a"/>
<use x="625.314136" y="550.636715" xlink:href="#a"/>
<use x="627.429384" y="559.665543" xlink:href="#a"/>
<use x="630.094755" y="559.144275" xlink:href="#a"/>
<use x="632.50581" y="555.27145" xlink:href="#a"/>
<use x="633.974225" y="569.97866" xlink:href="#a"/>
<use x="634.966679" y="554.182223" xlink:href="#a"/>
<use x="637.340148" y="579.325106" xlink:href="#a"/>
<use x="639.720248" y="555.173543" xlink:href="#a"/>
<use x="642.04281" y="558.65947" xlink:href="#a"/>
<use x="644.314573" y="538.265471" xlink:href="#a"/>
<use x="645.855895" y="554.795221" xlink:href="#a"/>
<use x="649.081954" y="553.080506" xlink:href="#a"/>
<use x="651.472755" y="553.455945" xlink:href="#a"/>
<use x="653.733545" y="548.613191" xlink:href="#a"/>
<use x="655.749299" y="541.14919" xlink:href="#a"/>
<use x="658.584943" y="527.947167" xlink:href="#a"/>
<use x="660.677207" y="528.356687" xlink:href="#a"/>
<use x="663.218382" y="530.826838" xlink:href="#a"/>
<use x="665.389832" y="535.739503" xlink:href="#a"/>
<use x="668.013195" y="543.61683" xlink:href="#a"/>
<use x="670.363271" y="541.486072" xlink:href="#a"/>
<use x="672.398132" y="547.445253" xlink:href="#a"/>
<use x="674.961553" y="548.407344" xlink:href="#a"/>
<use x="677.349952" y="542.472011" xlink:href="#a"/>
<use x="679.774381" y="538.806882" xlink:href="#a"/>
<use x="682.210466" y="537.889579" xlink:href="#a"/>
<use x="684.434216" y="542.434653" xlink:href="#a"/>
</g>
</g>
<g stroke="#1f77b4" stroke-opacity=".9">
<path d="m212 684v-5.18h34.8l17.8 5.18h92.2l2.01 0.357 0.514-0.357h6.89l2.25 0.581 1.88-0.741 0.502 2.2 1.72-0.896 0.816-0.711 1.72-0.692 2.29 2.41 0.463-0.456 2.12-0.0726 2.44-0.239 2.75-6.53 2.44 0.381 1.79-2.83 0.58 0.193 2.09 0.498 0.677 1.6 1.34-1.83 0.344 1.45 2-0.0636 2.44-1.79 2.33 2.1 2.91-5.12 1.31-0.373 0.408 0.487 0.558-1.81 1.19 0.785 1.03 1.03 2.01-0.775 2.08-0.05 3.13-0.904 2.13-0.259 2.58 0.921 0.683 0.601 0.918 1.74 3.15-2.29 1.97-0.971 4.65-1.53 2.58 1.74 2.08 0.585 2.28-3.11 2.77 1.36 2.38-0.209 2.25 0.202 2.46-1.29 2.24 1.46 2.41-2.54 2.44 0.484 2.05 0.986 2.63 1.58 2.54 0.267 2.19-3.06 2.52-0.565 2.17 0.1 4.53 1.44 1.98-0.983 0.898-0.158 1.81 0.502 2.72-0.454 1.75 0.406 2.98-2 0.249-0.92 1.91 6.84 1.78-4.04 0.115 2.7 0.728-0.458 2.24 0.963 2.18-2.39 0.0992 1.26 4.91-1.21 2.08 0.302 0.233 0.48 0.0951 1.11 0.0914-0.28 1.23 1.2 1.02-0.0116 2.28-2.62 2.26 1.4 4.37 0.563 2.87-0.546 1.13-1.02 1.23 0.181 2.34-1.92 2.2 0.982 1.89 2.77 2.27-4.68 2.3 1.11 0.693-0.387 1.71 0.381 2.98 2.03 2.03 1.89 2.75-0.532 2.26-4.19 2.45 1.82 2.35-0.183 2.19-0.622 4.85 3.36 1.8-1.24 0.134 2.04 2.61-1.37 2.13-1.62 2.86 0.547 4.68 2.55 2.16-2.26 2.58-0.624 1.76 1.28 2.36-0.493 2.99 0.601 2.09 0.605 0.907-3.26 0.255 1.12 1.15-0.854 1.73 0.782 0.691-1.13 2.54-2.65 1.63-0.374 0.334 2.84 0.243-0.0284 2.31 2.52 2.35-5.76 0.459 2.99 2.06-2.3 2.37 2.74 2.35 0.212 2.43 2.58 2.11-3.34 2.4-0.0319 2.21-3.45 1.76 12.3 0.891 1.23 2.37 2.1 2.21-1.45 2.18-0.434 0.312-1.15 2.19-0.252 2.12 1.53 2.67 1.05 1.9-1.49 0.509 0.735 1.47-0.748 0.992 2.05 2.37-0.831 2.38-1.3 2.32-1.89 2.27 0.499 1.54-0.41 3.07-0.445 0.151-0.477 1.18 0.202 1.21 0.077 1.88-0.434 0.0251-7.25 0.353-0.665 2.02-1.13 2.84 0.257 4.63-0.588 2.17 1.73 0.349-0.799 2.27 8.49 2.35-0.203 4.6 1.45 2.39-2.22 2.42-0.622 1.75 0.277 0.681 0.468 2.22 0.325 1.82-12.6" clip-path="url(#i)" fill="none" stroke-dasharray="1.5,2.475" stroke-width="1.5"/>
<g clip-path="url(#i)" fill="#1f77b4" fill-opacity=".9">
<use x="211.836201" y="683.959731" xlink:href="#a"/>
<use x="211.836201" y="678.781303" xlink:href="#a"/>
<use x="231.551384" y="678.781303" xlink:href="#a"/>
<use x="246.653189" y="678.781303" xlink:href="#a"/>
<use x="264.440429" y="683.959731" xlink:href="#a"/>
<use x="273.352842" y="683.959731" xlink:href="#a"/>
<use x="276.74183" y="683.959731" xlink:href="#a"/>
<use x="277.893038" y="683.959731" xlink:href="#a"/>
<use x="278.701627" y="683.959731" xlink:href="#a"/>
<use x="281.030111" y="683.959731" xlink:href="#a"/>
<use x="283.324721" y="683.959731" xlink:href="#a"/>
<use x="285.829674" y="683.959731" xlink:href="#a"/>
<use x="287.99946" y="683.959731" xlink:href="#a"/>
<use x="290.628964" y="683.959731" xlink:href="#a"/>
<use x="293.025579" y="683.959731" xlink:href="#a"/>
<use x="294.833474" y="683.959731" xlink:href="#a"/>
<use x="297.528189" y="683.959731" xlink:href="#a"/>
<use x="299.911593" y="683.959731" xlink:href="#a"/>
<use x="302.265872" y="683.959731" xlink:href="#a"/>
<use x="304.85334" y="683.959731" xlink:href="#a"/>
<use x="307.210785" y="683.959731" xlink:href="#a"/>
<use x="309.326689" y="683.959731" xlink:href="#a"/>
<use x="311.826564" y="683.959731" xlink:href="#a"/>
<use x="313.595726" y="683.959731" xlink:href="#a"/>
<use x="316.366187" y="683.959731" xlink:href="#a"/>
<use x="318.667785" y="683.959731" xlink:href="#a"/>
<use x="321.330372" y="683.959731" xlink:href="#a"/>
<use x="323.557507" y="683.959731" xlink:href="#a"/>
<use x="324.760741" y="683.959731" xlink:href="#a"/>
<use x="325.964057" y="683.959731" xlink:href="#a"/>
<use x="327.707725" y="683.959731" xlink:href="#a"/>
<use x="328.768502" y="683.959731" xlink:href="#a"/>
<use x="330.678102" y="683.959731" xlink:href="#a"/>
<use x="332.911023" y="683.959731" xlink:href="#a"/>
<use x="335.50971" y="683.959731" xlink:href="#a"/>
<use x="337.59294" y="683.959731" xlink:href="#a"/>
<use x="340.183001" y="683.959731" xlink:href="#a"/>
<use x="342.603118" y="683.959731" xlink:href="#a"/>
<use x="344.840707" y="683.959731" xlink:href="#a"/>
<use x="347.294616" y="683.959731" xlink:href="#a"/>
<use x="347.472477" y="683.959731" xlink:href="#a"/>
<use x="349.61412" y="683.959731" xlink:href="#a"/>
<use x="352.017559" y="683.959731" xlink:href="#a"/>
<use x="354.094729" y="683.959731" xlink:href="#a"/>
<use x="356.609181" y="683.959731" xlink:href="#a"/>
<use x="358.619613" y="684.316807" xlink:href="#a"/>
<use x="359.133596" y="683.959731" xlink:href="#a"/>
<use x="361.051248" y="683.959731" xlink:href="#a"/>
<use x="361.437377" y="683.959731" xlink:href="#a"/>
<use x="363.563462" y="683.959731" xlink:href="#a"/>
<use x="366.023076" y="683.959731" xlink:href="#a"/>
<use x="368.268744" y="684.541038" xlink:href="#a"/>
<use x="370.144852" y="683.80032" xlink:href="#a"/>
<use x="370.646907" y="685.995661" xlink:href="#a"/>
<use x="372.364453" y="685.099502" xlink:href="#a"/>
<use x="373.180193" y="684.388196" xlink:href="#a"/>
<use x="374.90025" y="683.695737" xlink:href="#a"/>
<use x="377.189046" y="686.103617" xlink:href="#a"/>
<use x="377.652505" y="685.647507" xlink:href="#a"/>
<use x="379.775041" y="685.5749" xlink:href="#a"/>
<use x="382.214974" y="685.33605" xlink:href="#a"/>
<use x="384.967966" y="678.806744" xlink:href="#a"/>
<use x="387.407599" y="679.18813" xlink:href="#a"/>
<use x="389.194122" y="676.357523" xlink:href="#a"/>
<use x="389.774298" y="676.55102" xlink:href="#a"/>
<use x="391.861813" y="677.049129" xlink:href="#a"/>
<use x="392.538754" y="678.64915" xlink:href="#a"/>
<use x="393.876721" y="676.821952" xlink:href="#a"/>
<use x="394.220241" y="678.27532" xlink:href="#a"/>
<use x="396.216588" y="678.211752" xlink:href="#a"/>
<use x="397.393591" y="677.402163" xlink:href="#a"/>
<use x="398.653355" y="676.418734" xlink:href="#a"/>
<use x="400.986835" y="678.521116" xlink:href="#a"/>
<use x="403.899672" y="673.401386" xlink:href="#a"/>
<use x="405.207259" y="673.028643" xlink:href="#a"/>
<use x="405.615579" y="673.515741" xlink:href="#a"/>
<use x="406.173618" y="671.708389" xlink:href="#a"/>
<use x="407.359302" y="672.493614" xlink:href="#a"/>
<use x="408.385685" y="673.526812" xlink:href="#a"/>
<use x="410.208075" y="672.775466" xlink:href="#a"/>
<use x="410.397236" y="672.751819" xlink:href="#a"/>
<use x="412.474815" y="672.701847" xlink:href="#a"/>
<use x="415.604901" y="671.797589" xlink:href="#a"/>
<use x="417.738219" y="671.538936" xlink:href="#a"/>
<use x="420.321866" y="672.460095" xlink:href="#a"/>
<use x="421.005003" y="673.061324" xlink:href="#a"/>
<use x="421.922557" y="674.798614" xlink:href="#a"/>
<use x="425.073906" y="672.504463" xlink:href="#a"/>
<use x="427.04293" y="671.533105" xlink:href="#a"/>
<use x="431.695449" y="670.006843" xlink:href="#a"/>
<use x="434.276612" y="671.751073" xlink:href="#a"/>
<use x="436.359296" y="672.336418" xlink:href="#a"/>
<use x="438.640067" y="669.223019" xlink:href="#a"/>
<use x="441.410419" y="670.582775" xlink:href="#a"/>
<use x="443.794014" y="670.374127" xlink:href="#a"/>
<use x="446.048471" y="670.576545" xlink:href="#a"/>
<use x="448.507785" y="669.290464" xlink:href="#a"/>
<use x="450.743108" y="670.750411" xlink:href="#a"/>
<use x="453.151406" y="668.206301" xlink:href="#a"/>
<use x="455.58992" y="668.690558" xlink:href="#a"/>
<use x="457.63944" y="669.676674" xlink:href="#a"/>
<use x="460.26949" y="671.259721" xlink:href="#a"/>
<use x="462.80799" y="671.526222" xlink:href="#a"/>
<use x="465.002178" y="668.463832" xlink:href="#a"/>
<use x="467.524709" y="667.8991" xlink:href="#a"/>
<use x="469.692857" y="667.999202" xlink:href="#a"/>
<use x="474.217958" y="669.436662" xlink:href="#a"/>
<use x="476.198282" y="668.454135" xlink:href="#a"/>
<use x="477.096511" y="668.295714" xlink:href="#a"/>
<use x="478.905553" y="668.797907" xlink:href="#a"/>
<use x="481.62729" y="668.343589" xlink:href="#a"/>
<use x="483.377291" y="668.749247" xlink:href="#a"/>
<use x="486.356375" y="666.749407" xlink:href="#a"/>
<use x="486.605069" y="665.829814" xlink:href="#a"/>
<use x="488.512976" y="672.672689" xlink:href="#a"/>
<use x="490.295241" y="668.632013" xlink:href="#a"/>
<use x="490.327095" y="670.541653" xlink:href="#a"/>
<use x="490.409993" y="671.33567" xlink:href="#a"/>
<use x="491.138441" y="670.877245" xlink:href="#a"/>
<use x="493.375975" y="671.83976" xlink:href="#a"/>
<use x="495.552912" y="669.448383" xlink:href="#a"/>
<use x="495.65216" y="670.704731" xlink:href="#a"/>
<use x="498.227154" y="670.071044" xlink:href="#a"/>
<use x="500.566175" y="669.496912" xlink:href="#a"/>
<use x="502.650497" y="669.799118" xlink:href="#a"/>
<use x="502.883577" y="670.279161" xlink:href="#a"/>
<use x="502.978704" y="671.39319" xlink:href="#a"/>
<use x="503.07009" y="671.113193" xlink:href="#a"/>
<use x="504.298956" y="672.308242" xlink:href="#a"/>
<use x="505.323675" y="672.296631" xlink:href="#a"/>
<use x="506.855716" y="670.457853" xlink:href="#a"/>
<use x="507.605701" y="669.676834" xlink:href="#a"/>
<use x="509.865891" y="671.080102" xlink:href="#a"/>
<use x="511.812013" y="671.335128" xlink:href="#a"/>
<use x="514.236415" y="671.642966" xlink:href="#a"/>
<use x="517.106233" y="671.096785" xlink:href="#a"/>
<use x="518.232985" y="670.08159" xlink:href="#a"/>
<use x="519.461495" y="670.262245" xlink:href="#a"/>
<use x="521.80622" y="668.343622" xlink:href="#a"/>
<use x="524.004667" y="669.32587" xlink:href="#a"/>
<use x="525.899063" y="672.100678" xlink:href="#a"/>
<use x="528.172573" y="667.423034" xlink:href="#a"/>
<use x="530.477364" y="668.535958" xlink:href="#a"/>
<use x="531.169945" y="668.149456" xlink:href="#a"/>
<use x="532.876955" y="668.530593" xlink:href="#a"/>
<use x="535.853063" y="670.560565" xlink:href="#a"/>
<use x="537.882438" y="672.445815" xlink:href="#a"/>
<use x="540.631554" y="671.913755" xlink:href="#a"/>
<use x="542.896275" y="667.727605" xlink:href="#a"/>
<use x="545.345653" y="669.546032" xlink:href="#a"/>
<use x="547.690924" y="669.363151" xlink:href="#a"/>
<use x="549.884102" y="668.741526" xlink:href="#a"/>
<use x="552.45956" y="670.553478" xlink:href="#a"/>
<use x="554.73621" y="672.104956" xlink:href="#a"/>
<use x="556.538045" y="670.861612" xlink:href="#a"/>
<use x="556.671714" y="672.9044" xlink:href="#a"/>
<use x="559.276897" y="671.535422" xlink:href="#a"/>
<use x="561.405411" y="669.911041" xlink:href="#a"/>
<use x="564.264557" y="670.45789" xlink:href="#a"/>
<use x="566.228175" y="671.556987" xlink:href="#a"/>
<use x="568.945054" y="673.005337" xlink:href="#a"/>
<use x="571.10616" y="670.748741" xlink:href="#a"/>
<use x="573.68462" y="670.124653" xlink:href="#a"/>
<use x="575.445867" y="671.407515" xlink:href="#a"/>
<use x="577.804813" y="670.914772" xlink:href="#a"/>
<use x="580.795198" y="671.515287" xlink:href="#a"/>
<use x="582.882331" y="672.120314" xlink:href="#a"/>
<use x="583.789786" y="668.857622" xlink:href="#a"/>
<use x="584.044813" y="669.974235" xlink:href="#a"/>
<use x="585.190671" y="669.120648" xlink:href="#a"/>
<use x="586.923748" y="669.902641" xlink:href="#a"/>
<use x="587.615128" y="668.768356" xlink:href="#a"/>
<use x="590.15098" y="666.119523" xlink:href="#a"/>
<use x="591.776347" y="665.745988" xlink:href="#a"/>
<use x="592.110013" y="668.590688" xlink:href="#a"/>
<use x="592.353166" y="668.562309" xlink:href="#a"/>
<use x="594.658858" y="671.082655" xlink:href="#a"/>
<use x="597.010571" y="665.318761" xlink:href="#a"/>
<use x="597.469444" y="668.310359" xlink:href="#a"/>
<use x="599.52778" y="666.011841" xlink:href="#a"/>
<use x="601.895188" y="668.75226" xlink:href="#a"/>
<use x="604.246792" y="668.964749" xlink:href="#a"/>
<use x="606.672504" y="671.548304" xlink:href="#a"/>
<use x="608.783549" y="668.208219" xlink:href="#a"/>
<use x="611.186224" y="668.176343" xlink:href="#a"/>
<use x="613.400965" y="664.728558" xlink:href="#a"/>
<use x="615.165733" y="677.030496" xlink:href="#a"/>
<use x="616.056592" y="678.261313" xlink:href="#a"/>
<use x="618.426566" y="680.366264" xlink:href="#a"/>
<use x="620.634157" y="678.918046" xlink:href="#a"/>
<use x="622.809729" y="678.483861" xlink:href="#a"/>
<use x="623.121531" y="677.336542" xlink:href="#a"/>
<use x="625.314136" y="677.084042" xlink:href="#a"/>
<use x="627.429384" y="678.609517" xlink:href="#a"/>
<use x="630.094755" y="679.655694" xlink:href="#a"/>
<use x="631.996821" y="678.16787" xlink:href="#a"/>
<use x="632.50581" y="678.903033" xlink:href="#a"/>
<use x="633.974225" y="678.155155" xlink:href="#a"/>
<use x="634.966679" y="680.206689" xlink:href="#a"/>
<use x="637.340148" y="679.375605" xlink:href="#a"/>
<use x="639.720248" y="678.073352" xlink:href="#a"/>
<use x="642.04281" y="676.181491" xlink:href="#a"/>
<use x="644.314573" y="676.680067" xlink:href="#a"/>
<use x="645.855895" y="676.269912" xlink:href="#a"/>
<use x="648.930734" y="675.824643" xlink:href="#a"/>
<use x="649.081954" y="675.347812" xlink:href="#a"/>
<use x="650.265917" y="675.549844" xlink:href="#a"/>
<use x="651.472755" y="675.626865" xlink:href="#a"/>
<use x="653.355004" y="675.192688" xlink:href="#a"/>
<use x="653.380116" y="667.946022" xlink:href="#a"/>
<use x="653.733545" y="667.281345" xlink:href="#a"/>
<use x="655.749299" y="666.155969" xlink:href="#a"/>
<use x="658.584943" y="666.413031" xlink:href="#a"/>
<use x="660.677207" y="666.189736" xlink:href="#a"/>
<use x="663.218382" y="665.825102" xlink:href="#a"/>
<use x="665.389832" y="667.557005" xlink:href="#a"/>
<use x="665.739003" y="666.758191" xlink:href="#a"/>
<use x="668.013195" y="675.243453" xlink:href="#a"/>
<use x="670.363271" y="675.040756" xlink:href="#a"/>
<use x="672.398132" y="675.68545" xlink:href="#a"/>
<use x="674.961553" y="676.495679" xlink:href="#a"/>
<use x="677.349952" y="674.27888" xlink:href="#a"/>
<use x="679.774381" y="673.656865" xlink:href="#a"/>
<use x="681.529322" y="673.93352" xlink:href="#a"/>
<use x="682.210466" y="674.401389" xlink:href="#a"/>
<use x="684.051635" y="674.675317" xlink:href="#a"/>
<use x="684.434216" y="674.726004" xlink:href="#a"/>
<use x="686.256387" y="662.084094" xlink:href="#a"/>
</g>
</g>
<g stroke="#2ca02c" stroke-opacity=".9">
<path d="m552 586 72.9 9.76 7.81-4.23 1.47 5.36 0.992-0.694 2.37-0.109 2.38 16.3 2.32-16.2 2.27 17.9 1.54-13.9 3.23-1.82 1.18 0.657 1.21 18.3 2.26-1.67 2.02-6.1 2.84-1.29 2.09-1.48 2.54 0.873 2.17-1.77 2.62-18.8 2.35 17 2.03-15.2 2.56 0.417 2.39-0.969 2.42-2.86 2.44 1.44 2.22 2.62" clip-path="url(#i)" fill="none" stroke-linecap="square" stroke-width="1.5"/>
<g clip-path="url(#i)" fill="#2ca02c" fill-opacity=".9">
<use x="551.800089" y="586.350895" xlink:href="#e"/>
<use x="624.69438" y="596.114601" xlink:href="#e"/>
<use x="632.50581" y="591.882631" xlink:href="#e"/>
<use x="633.974225" y="597.241462" xlink:href="#e"/>
<use x="634.966679" y="596.547775" xlink:href="#e"/>
<use x="637.340148" y="596.439168" xlink:href="#e"/>
<use x="639.720248" y="612.784078" xlink:href="#e"/>
<use x="642.04281" y="596.556906" xlink:href="#e"/>
<use x="644.314573" y="614.506358" xlink:href="#e"/>
<use x="645.855895" y="600.601" xlink:href="#e"/>
<use x="649.081954" y="598.782023" xlink:href="#e"/>
<use x="650.265917" y="599.438546" xlink:href="#e"/>
<use x="651.472755" y="617.696913" xlink:href="#e"/>
<use x="653.733545" y="616.023503" xlink:href="#e"/>
<use x="655.749299" y="609.925307" xlink:href="#e"/>
<use x="658.584943" y="608.634352" xlink:href="#e"/>
<use x="660.677207" y="607.152143" xlink:href="#e"/>
<use x="663.218382" y="608.025024" xlink:href="#e"/>
<use x="665.389832" y="606.250137" xlink:href="#e"/>
<use x="668.013195" y="587.497453" xlink:href="#e"/>
<use x="670.363271" y="604.530425" xlink:href="#e"/>
<use x="672.398132" y="589.336368" xlink:href="#e"/>
<use x="674.961553" y="589.753736" xlink:href="#e"/>
<use x="677.349952" y="588.785197" xlink:href="#e"/>
<use x="679.774381" y="585.921512" xlink:href="#e"/>
<use x="682.210466" y="587.361907" xlink:href="#e"/>
<use x="684.434216" y="589.979185" xlink:href="#e"/>
</g>
</g>
<path d="m40.6 700v-313" fill="none" stroke="#000" stroke-linecap="square" stroke-width=".8"/>
<path d="m717 700v-313" fill="none" stroke="#000" stroke-linecap="square" stroke-width=".8"/>
<path d="m40.6 700h676" fill="none" stroke="#000" stroke-linecap="square" stroke-width=".8"/>
<path d="m40.6 388h676" fill="none" stroke="#000" stroke-linecap="square" stroke-width=".8"/>
<path d="m71.8 549-0.349 7.35" fill="none" stroke="#888" stroke-linecap="round"/>
<g transform="translate(74.5 545) rotate(-90) scale(.08 -.08)" fill="#888">
<use xlink:href="#y"/>
<use transform="translate(61.3)" xlink:href="#b"/>
</g>
<g clip-path="url(#i)">
<g transform="translate(58.2 676) rotate(-90) scale(.1 -.1)">
<use xlink:href="#ae"/>
<use transform="translate(35.2)" xlink:href="#y"/>
<use transform="translate(96.5)" xlink:href="#s"/>
<use transform="translate(149)" xlink:href="#r"/>
<use transform="translate(188)" xlink:href="#u"/>
<use transform="translate(249)" xlink:href="#o"/>
<use transform="translate(290)" xlink:href="#DejaVuSans-20"/>
<use transform="translate(322)" xlink:href="#an"/>
</g>
</g>
<g clip-path="url(#i)">
<g transform="translate(58.2 744) rotate(-90) scale(.1 -.1)">
<use xlink:href="#ao"/>
<use transform="translate(143)" xlink:href="#DejaVuSans-20"/>
<use transform="translate(175)" xlink:href="#s"/>
<use transform="translate(227)" xlink:href="#t"/>
<use transform="translate(255)" xlink:href="#p"/>
<use transform="translate(316)" xlink:href="#aj"/>
<use transform="translate(398)" xlink:href="#u"/>
<use transform="translate(460)" xlink:href="#o"/>
</g>
</g>
<g transform="translate(296 382) scale(.12 -.12)">
<use xlink:href="#ai"/>
<use transform="translate(60.3)" xlink:href="#ah"/>
<use transform="translate(119)" xlink:href="#r"/>
<use transform="translate(159)" xlink:href="#ak"/>
<use transform="translate(222)" xlink:href="#p"/>
<use transform="translate(283)" xlink:href="#q"/>
<use transform="translate(347)" xlink:href="#DejaVuSans-20"/>
<use transform="translate(378)" xlink:href="#v"/>
<use transform="translate(442)" xlink:href="#h"/>
<use transform="translate(474)" xlink:href="#d"/>
<use transform="translate(537)" xlink:href="#k"/>
<use transform="translate(601)" xlink:href="#h"/>
<use transform="translate(633)" xlink:href="#z"/>
<use transform="translate(692)" xlink:href="#DejaVuSans-20"/>
<use transform="translate(724)" xlink:href="#ab"/>
<use transform="translate(783)" xlink:href="#s"/>
<use transform="translate(835)" xlink:href="#h"/>
<use transform="translate(867)" xlink:href="#DejaVuSans-20"/>
<use transform="translate(899)" xlink:href="#v"/>
<use transform="translate(962)" xlink:href="#h"/>
<use transform="translate(994)" xlink:href="#d"/>
<use transform="translate(1058)" xlink:href="#v"/>
<use transform="translate(1121)" xlink:href="#h"/>
<use transform="translate(1153)" xlink:href="#b"/>
<use transform="translate(1217)" xlink:href="#o"/>
<use transform="translate(1256)" xlink:href="#aa"/>
<use transform="translate(1311)" xlink:href="#c"/>
</g>
<path d="m47.6 440h82.6q2 0 2-2v-43q0-2-2-2h-82.6q-2 0-2 2v43q0 2 2 2z" fill="#fff" opacity=".8" stroke="#ccc"/>
<path d="m49.6 401h10 10" fill="none" stroke="#1f77b4" stroke-linecap="square" stroke-opacity=".9" stroke-width="1.5"/>
<use x="59.645553" y="400.623678" fill="#1f77b4" fill-opacity=".9" stroke="#1f77b4" stroke-opacity=".9" xlink:href="#a"/>
<g transform="translate(77.6 404) scale(.1 -.1)">
<use xlink:href="#t"/>
<use transform="translate(27.8)" xlink:href="#x"/>
<use transform="translate(55.6)" xlink:href="#q"/>
<use transform="translate(119)" xlink:href="#w"/>
<use transform="translate(182)" xlink:href="#z"/>
</g>
<path d="m49.6 415h10 10" fill="none" stroke="#1f77b4" stroke-dasharray="1.5,2.475" stroke-opacity=".9" stroke-width="1.5"/>
<use x="59.645553" y="415.301803" fill="#1f77b4" fill-opacity=".9" stroke="#1f77b4" stroke-opacity=".9" xlink:href="#a"/>
<g transform="translate(77.6 419) scale(.1 -.1)">
<use xlink:href="#t"/>
<use transform="translate(27.8)" xlink:href="#x"/>
<use transform="translate(55.6)" xlink:href="#q"/>
<use transform="translate(119)" xlink:href="#w"/>
<use transform="translate(182)" xlink:href="#z"/>
<use transform="translate(242)" xlink:href="#f"/>
<use transform="translate(275)" xlink:href="#ab"/>
<use transform="translate(334)" xlink:href="#w"/>
<use transform="translate(398)" xlink:href="#t"/>
<use transform="translate(425)" xlink:href="#r"/>
<use transform="translate(465)" xlink:href="#o"/>
</g>
<path d="m49.6 430h10 10" fill="none" stroke="#2ca02c" stroke-linecap="square" stroke-opacity=".9" stroke-width="1.5"/>
<use x="59.645553" y="429.979928" fill="#2ca02c" fill-opacity=".9" stroke="#2ca02c" stroke-opacity=".9" xlink:href="#e"/>
<g transform="translate(77.6 433) scale(.1 -.1)">
<use xlink:href="#ac"/>
<use transform="translate(97.4)" xlink:href="#y"/>
<use transform="translate(159)" xlink:href="#aa"/>
<use transform="translate(214)" xlink:href="#p"/>
<use transform="translate(275)" xlink:href="#s"/>
</g>
<g transform="translate(229 12.1) scale(.12 -.12)">
<defs>
<path id="ap" transform="scale(.0156)" d="m1159 525v-1856h-578v4831h578v-531q182 312 458 463 277 152 661 152 638 0 1036-506 399-506 399-1331t-399-1332q-398-506-1036-506-384 0-661 152-276 152-458 464zm1957 1222q0 634-261 995t-717 361q-457 0-718-361t-261-995 261-995 718-361q456 0 717 361t261 995z"/>
<path id="aq" transform="scale(.0156)" d="m2906 1791q0 625-258 968-257 344-723 344-462 0-720-344-258-343-258-968 0-622 258-966t720-344q466 0 723 344 258 344 258 966zm575-1357q0-893-397-1329-396-436-1215-436-303 0-572 45t-522 139v559q253-137 500-202 247-66 503-66 566 0 847 295t281 892v285q-178-310-456-463t-666-153q-643 0-1037 490-394 491-394 1301 0 812 394 1302 394 491 1037 491 388 0 666-153t456-462v531h575v-3066z"/>
</defs>
<use xlink:href="#ai"/>
<use transform="translate(56.7)" xlink:href="#u"/>
<use transform="translate(118)" xlink:href="#o"/>
<use transform="translate(159)" xlink:href="#ae"/>
<use transform="translate(195)" xlink:href="#p"/>
<use transform="translate(256)" xlink:href="#o"/>
<use transform="translate(295)" xlink:href="#ac"/>
<use transform="translate(392)" xlink:href="#y"/>
<use transform="translate(454)" xlink:href="#q"/>
<use transform="translate(517)" xlink:href="#aa"/>
<use transform="translate(572)" xlink:href="#u"/>
<use transform="translate(634)" xlink:href="#DejaVuSans-20"/>
<use transform="translate(665)" xlink:href="#x"/>
<use transform="translate(693)" xlink:href="#ac"/>
<use transform="translate(791)" xlink:href="#ap"/>
<use transform="translate(854)" xlink:href="#o"/>
<use transform="translate(893)" xlink:href="#p"/>
<use transform="translate(954)" xlink:href="#ab"/>
<use transform="translate(1013)" xlink:href="#u"/>
<use transform="translate(1075)" xlink:href="#ac"/>
<use transform="translate(1172)" xlink:href="#u"/>
<use transform="translate(1234)" xlink:href="#q"/>
<use transform="translate(1297)" xlink:href="#r"/>
<use transform="translate(1336)" xlink:href="#DejaVuSans-20"/>
<use transform="translate(1368)" xlink:href="#al"/>
<use transform="translate(1432)" xlink:href="#ah"/>
<use transform="translate(1491)" xlink:href="#DejaVuSans-20"/>
<use transform="translate(1523)" xlink:href="#aa"/>
<use transform="translate(1578)" xlink:href="#p"/>
<use transform="translate(1639)" xlink:href="#q"/>
<use transform="translate(1702)" xlink:href="#ae"/>
<use transform="translate(1737)" xlink:href="#x"/>
<use transform="translate(1765)" xlink:href="#aq"/>
<use transform="translate(1829)" xlink:href="#w"/>
<use transform="translate(1892)" xlink:href="#o"/>
<use transform="translate(1933)" xlink:href="#y"/>
<use transform="translate(1994)" xlink:href="#r"/>
<use transform="translate(2034)" xlink:href="#x"/>
<use transform="translate(2061)" xlink:href="#p"/>
<use transform="translate(2123)" xlink:href="#q"/>
</g>
<defs>
<clipPath id="g">
<rect x="40.6" y="35.7" width="676" height="313"/>
</clipPath>
<clipPath id="i">
<rect x="40.6" y="388" width="676" height="313"/>
</clipPath>
</defs>
</svg>
