<?xml version="1.0" encoding="UTF-8"?>
<!DOCTYPE svg  PUBLIC '-//W3C//DTD SVG 1.1//EN'  'http://www.w3.org/Graphics/SVG/1.1/DTD/svg11.dtd'>
<svg width="720pt" height="720pt" version="1.1" viewBox="0 0 720 720" xmlns="http://www.w3.org/2000/svg" xmlns:xlink="http://www.w3.org/1999/xlink">
<defs>
<style type="text/css">*{stroke-linejoin: round; stroke-linecap: butt}</style>
</defs>
<path d="m0 720h720v-720h-720z" fill="#fff"/>
<path d="m40.6 349h676v-313h-676z" fill="#fff"/>
<path d="m72.7 349v-313" clip-path="url(#h)" fill="none" stroke="#b0b0b0" stroke-linecap="square" stroke-width=".8"/>
<defs>
<path id="j" d="m0 0v3.5" stroke="#000" stroke-width=".8"/>
</defs>
<use x="72.726484" y="348.52899" stroke="#000000" stroke-width=".8" xlink:href="#j"/>
<g transform="translate(43.7 363) scale(.1 -.1)">
<defs>
<path id="d" transform="scale(.0156)" d="m1228 531h2203v-531h-2962v531q359 372 979 998 621 627 780 809 303 340 423 576 121 236 121 464 0 372-261 606-261 235-680 235-297 0-627-103-329-103-704-313v638q381 153 712 231 332 78 607 78 725 0 1156-363 431-362 431-968 0-288-108-546-107-257-392-607-78-91-497-524-418-433-1181-1211z"/>
<path id="c" transform="scale(.0156)" d="m2034 4250q-487 0-733-480-245-479-245-1442 0-959 245-1439 246-480 733-480 491 0 736 480 246 480 246 1439 0 963-246 1442-245 480-736 480zm0 500q785 0 1199-621 414-620 414-1801 0-1178-414-1799-414-620-1199-620-784 0-1198 620-414 621-414 1799 0 1181 414 1801 414 621 1198 621z"/>
<path id="m" transform="scale(.0156)" d="m2419 4116-1594-2491h1594v2491zm-166 550h794v-3041h666v-525h-666v-1100h-628v1100h-2106v609l1940 2957z"/>
<path id="f" transform="scale(.0156)" d="m313 2009h1684v-512h-1684v512z"/>
<path id="n" transform="scale(.0156)" d="m703 97v575q238-113 481-172 244-59 479-59 625 0 954 420 330 420 377 1277-181-269-460-413-278-144-615-144-700 0-1108 423-408 424-408 1159 0 718 425 1152 425 435 1131 435 810 0 1236-621 427-620 427-1801 0-1103-524-1761-523-658-1407-658-238 0-482 47-243 47-506 141zm1256 1978q425 0 673 290 249 291 249 798 0 503-249 795-248 292-673 292t-673-292-248-795q0-507 248-798 248-290 673-290z"/>
<path id="aj" transform="scale(.0156)" d="m525 4666h3e3v-269l-1694-4397h-659l1594 4134h-2241v532z"/>
</defs>
<use xlink:href="#d"/>
<use transform="translate(63.6)" xlink:href="#c"/>
<use transform="translate(127)" xlink:href="#d"/>
<use transform="translate(191)" xlink:href="#m"/>
<use transform="translate(254)" xlink:href="#f"/>
<use transform="translate(291)" xlink:href="#c"/>
<use transform="translate(354)" xlink:href="#n"/>
<use transform="translate(418)" xlink:href="#f"/>
<use transform="translate(454)" xlink:href="#c"/>
<use transform="translate(518)" xlink:href="#aj"/>
</g>
<path d="m159 349v-313" clip-path="url(#h)" fill="none" stroke="#b0b0b0" stroke-linecap="square" stroke-width=".8"/>
<use x="159.001248" y="348.52899" stroke="#000000" stroke-width=".8" xlink:href="#j"/>
<g transform="translate(130 363) scale(.1 -.1)">
<use xlink:href="#d"/>
<use transform="translate(63.6)" xlink:href="#c"/>
<use transform="translate(127)" xlink:href="#d"/>
<use transform="translate(191)" xlink:href="#m"/>
<use transform="translate(254)" xlink:href="#f"/>
<use transform="translate(291)" xlink:href="#c"/>
<use transform="translate(354)" xlink:href="#n"/>
<use transform="translate(418)" xlink:href="#f"/>
<use transform="translate(454)" xlink:href="#c"/>
<use transform="translate(518)" xlink:href="#n"/>
</g>
<path d="m245 349v-313" clip-path="url(#h)" fill="none" stroke="#b0b0b0" stroke-linecap="square" stroke-width=".8"/>
<use x="245.276012" y="348.52899" stroke="#000000" stroke-width=".8" xlink:href="#j"/>
<g transform="translate(216 363) scale(.1 -.1)">
<defs>
<path id="e" transform="scale(.0156)" d="m794 531h1031v3560l-1122-225v575l1116 225h631v-4135h1031v-531h-2687v531z"/>
</defs>
<use xlink:href="#d"/>
<use transform="translate(63.6)" xlink:href="#c"/>
<use transform="translate(127)" xlink:href="#d"/>
<use transform="translate(191)" xlink:href="#m"/>
<use transform="translate(254)" xlink:href="#f"/>
<use transform="translate(291)" xlink:href="#c"/>
<use transform="translate(354)" xlink:href="#n"/>
<use transform="translate(418)" xlink:href="#f"/>
<use transform="translate(454)" xlink:href="#e"/>
<use transform="translate(518)" xlink:href="#e"/>
</g>
<path d="m332 349v-313" clip-path="url(#h)" fill="none" stroke="#b0b0b0" stroke-linecap="square" stroke-width=".8"/>
<use x="331.550776" y="348.52899" stroke="#000000" stroke-width=".8" xlink:href="#j"/>
<g transform="translate(302 363) scale(.1 -.1)">
<defs>
<path id="r" transform="scale(.0156)" d="m2597 2516q453-97 707-404 255-306 255-756 0-690-475-1069-475-378-1350-378-293 0-604 58t-642 174v609q262-153 574-231 313-78 654-78 593 0 904 234t311 681q0 413-289 645-289 233-804 233h-544v519h569q465 0 712 186t247 536q0 359-255 551-254 193-729 193-260 0-557-57-297-56-653-174v562q360 100 674 150t592 50q719 0 1137-327 419-326 419-882 0-388-222-655t-631-370z"/>
</defs>
<use xlink:href="#d"/>
<use transform="translate(63.6)" xlink:href="#c"/>
<use transform="translate(127)" xlink:href="#d"/>
<use transform="translate(191)" xlink:href="#m"/>
<use transform="translate(254)" xlink:href="#f"/>
<use transform="translate(291)" xlink:href="#c"/>
<use transform="translate(354)" xlink:href="#n"/>
<use transform="translate(418)" xlink:href="#f"/>
<use transform="translate(454)" xlink:href="#e"/>
<use transform="translate(518)" xlink:href="#r"/>
</g>
<path d="m418 349v-313" clip-path="url(#h)" fill="none" stroke="#b0b0b0" stroke-linecap="square" stroke-width=".8"/>
<use x="417.82554" y="348.52899" stroke="#000000" stroke-width=".8" xlink:href="#j"/>
<g transform="translate(389 363) scale(.1 -.1)">
<defs>
<path id="p" transform="scale(.0156)" d="m691 4666h2478v-532h-1900v-1143q137 47 274 70 138 23 276 23 781 0 1237-428 457-428 457-1159 0-753-469-1171-469-417-1322-417-294 0-599 50-304 50-629 150v635q281-153 581-228t634-75q541 0 856 284 316 284 316 772 0 487-316 771-315 285-856 285-253 0-505-56-251-56-513-175v2344z"/>
</defs>
<use xlink:href="#d"/>
<use transform="translate(63.6)" xlink:href="#c"/>
<use transform="translate(127)" xlink:href="#d"/>
<use transform="translate(191)" xlink:href="#m"/>
<use transform="translate(254)" xlink:href="#f"/>
<use transform="translate(291)" xlink:href="#c"/>
<use transform="translate(354)" xlink:href="#n"/>
<use transform="translate(418)" xlink:href="#f"/>
<use transform="translate(454)" xlink:href="#e"/>
<use transform="translate(518)" xlink:href="#p"/>
</g>
<path d="m504 349v-313" clip-path="url(#h)" fill="none" stroke="#b0b0b0" stroke-linecap="square" stroke-width=".8"/>
<use x="504.100304" y="348.52899" stroke="#000000" stroke-width=".8" xlink:href="#j"/>
<g transform="translate(475 363) scale(.1 -.1)">
<use xlink:href="#d"/>
<use transform="translate(63.6)" xlink:href="#c"/>
<use transform="translate(127)" xlink:href="#d"/>
<use transform="translate(191)" xlink:href="#m"/>
<use transform="translate(254)" xlink:href="#f"/>
<use transform="translate(291)" xlink:href="#c"/>
<use transform="translate(354)" xlink:href="#n"/>
<use transform="translate(418)" xlink:href="#f"/>
<use transform="translate(454)" xlink:href="#e"/>
<use transform="translate(518)" xlink:href="#aj"/>
</g>
<path d="m590 349v-313" clip-path="url(#h)" fill="none" stroke="#b0b0b0" stroke-linecap="square" stroke-width=".8"/>
<use x="590.375068" y="348.52899" stroke="#000000" stroke-width=".8" xlink:href="#j"/>
<g transform="translate(561 363) scale(.1 -.1)">
<use xlink:href="#d"/>
<use transform="translate(63.6)" xlink:href="#c"/>
<use transform="translate(127)" xlink:href="#d"/>
<use transform="translate(191)" xlink:href="#m"/>
<use transform="translate(254)" xlink:href="#f"/>
<use transform="translate(291)" xlink:href="#c"/>
<use transform="translate(354)" xlink:href="#n"/>
<use transform="translate(418)" xlink:href="#f"/>
<use transform="translate(454)" xlink:href="#e"/>
<use transform="translate(518)" xlink:href="#n"/>
</g>
<path d="m677 349v-313" clip-path="url(#h)" fill="none" stroke="#b0b0b0" stroke-linecap="square" stroke-width=".8"/>
<use x="676.649832" y="348.52899" stroke="#000000" stroke-width=".8" xlink:href="#j"/>
<g transform="translate(648 363) scale(.1 -.1)">
<use xlink:href="#d"/>
<use transform="translate(63.6)" xlink:href="#c"/>
<use transform="translate(127)" xlink:href="#d"/>
<use transform="translate(191)" xlink:href="#m"/>
<use transform="translate(254)" xlink:href="#f"/>
<use transform="translate(291)" xlink:href="#c"/>
<use transform="translate(354)" xlink:href="#n"/>
<use transform="translate(418)" xlink:href="#f"/>
<use transform="translate(454)" xlink:href="#d"/>
<use transform="translate(518)" xlink:href="#e"/>
</g>
<path d="m40.6 349h676" clip-path="url(#h)" fill="none" stroke="#b0b0b0" stroke-linecap="square" stroke-width=".8"/>
<defs>
<path id="k" d="m0 0h-3.5" stroke="#000" stroke-width=".8"/>
</defs>
<use x="40.645553" y="348.52899" stroke="#000000" stroke-width=".8" xlink:href="#k"/>
<g transform="translate(3 352) scale(.1 -.1)">
<defs>
<path id="g" transform="scale(.0156)" d="m684 794h660v-794h-660v794z"/>
<path id="l" transform="scale(.0156)" d="m4488 3438-1429-1435 1429-1428-372-378-1435 1434-1434-1434-369 378 1425 1428-1425 1435 369 378 1434-1435 1435 1435 372-378z"/>
</defs>
<use xlink:href="#c"/>
<use transform="translate(63.6)" xlink:href="#g"/>
<use transform="translate(95.4)" xlink:href="#n"/>
<use transform="translate(159)" xlink:href="#c"/>
<use transform="translate(223)" xlink:href="#l"/>
</g>
<path d="m40.6 309h676" clip-path="url(#h)" fill="none" stroke="#b0b0b0" stroke-linecap="square" stroke-width=".8"/>
<use x="40.645553" y="309.429441" stroke="#000000" stroke-width=".8" xlink:href="#k"/>
<g transform="translate(3 313) scale(.1 -.1)">
<use xlink:href="#c"/>
<use transform="translate(63.6)" xlink:href="#g"/>
<use transform="translate(95.4)" xlink:href="#n"/>
<use transform="translate(159)" xlink:href="#p"/>
<use transform="translate(223)" xlink:href="#l"/>
</g>
<path d="m40.6 270h676" clip-path="url(#h)" fill="none" stroke="#b0b0b0" stroke-linecap="square" stroke-width=".8"/>
<use x="40.645553" y="270.329891" stroke="#000000" stroke-width=".8" xlink:href="#k"/>
<g transform="translate(3 274) scale(.1 -.1)">
<use xlink:href="#e"/>
<use transform="translate(63.6)" xlink:href="#g"/>
<use transform="translate(95.4)" xlink:href="#c"/>
<use transform="translate(159)" xlink:href="#c"/>
<use transform="translate(223)" xlink:href="#l"/>
</g>
<path d="m40.6 231h676" clip-path="url(#h)" fill="none" stroke="#b0b0b0" stroke-linecap="square" stroke-width=".8"/>
<use x="40.645553" y="231.230342" stroke="#000000" stroke-width=".8" xlink:href="#k"/>
<g transform="translate(3 235) scale(.1 -.1)">
<use xlink:href="#e"/>
<use transform="translate(63.6)" xlink:href="#g"/>
<use transform="translate(95.4)" xlink:href="#c"/>
<use transform="translate(159)" xlink:href="#p"/>
<use transform="translate(223)" xlink:href="#l"/>
</g>
<path d="m40.6 192h676" clip-path="url(#h)" fill="none" stroke="#b0b0b0" stroke-linecap="square" stroke-width=".8"/>
<use x="40.645553" y="192.130792" stroke="#000000" stroke-width=".8" xlink:href="#k"/>
<g transform="translate(3 196) scale(.1 -.1)">
<use xlink:href="#e"/>
<use transform="translate(63.6)" xlink:href="#g"/>
<use transform="translate(95.4)" xlink:href="#e"/>
<use transform="translate(159)" xlink:href="#c"/>
<use transform="translate(223)" xlink:href="#l"/>
</g>
<path d="m40.6 153h676" clip-path="url(#h)" fill="none" stroke="#b0b0b0" stroke-linecap="square" stroke-width=".8"/>
<use x="40.645553" y="153.031243" stroke="#000000" stroke-width=".8" xlink:href="#k"/>
<g transform="translate(3 157) scale(.1 -.1)">
<use xlink:href="#e"/>
<use transform="translate(63.6)" xlink:href="#g"/>
<use transform="translate(95.4)" xlink:href="#e"/>
<use transform="translate(159)" xlink:href="#p"/>
<use transform="translate(223)" xlink:href="#l"/>
</g>
<path d="m40.6 114h676" clip-path="url(#h)" fill="none" stroke="#b0b0b0" stroke-linecap="square" stroke-width=".8"/>
<use x="40.645553" y="113.931694" stroke="#000000" stroke-width=".8" xlink:href="#k"/>
<g transform="translate(3 118) scale(.1 -.1)">
<use xlink:href="#e"/>
<use transform="translate(63.6)" xlink:href="#g"/>
<use transform="translate(95.4)" xlink:href="#d"/>
<use transform="translate(159)" xlink:href="#c"/>
<use transform="translate(223)" xlink:href="#l"/>
</g>
<path d="m40.6 74.8h676" clip-path="url(#h)" fill="none" stroke="#b0b0b0" stroke-linecap="square" stroke-width=".8"/>
<use x="40.645553" y="74.832144" stroke="#000000" stroke-width=".8" xlink:href="#k"/>
<g transform="translate(3 78.6) scale(.1 -.1)">
<use xlink:href="#e"/>
<use transform="translate(63.6)" xlink:href="#g"/>
<use transform="translate(95.4)" xlink:href="#d"/>
<use transform="translate(159)" xlink:href="#p"/>
<use transform="translate(223)" xlink:href="#l"/>
</g>
<path d="m40.6 35.7h676" clip-path="url(#h)" fill="none" stroke="#b0b0b0" stroke-linecap="square" stroke-width=".8"/>
<use x="40.645553" y="35.732595" stroke="#000000" stroke-width=".8" xlink:href="#k"/>
<g transform="translate(3 39.5) scale(.1 -.1)">
<use xlink:href="#e"/>
<use transform="translate(63.6)" xlink:href="#g"/>
<use transform="translate(95.4)" xlink:href="#r"/>
<use transform="translate(159)" xlink:href="#c"/>
<use transform="translate(223)" xlink:href="#l"/>
</g>
<path d="m71.4 263h615" clip-path="url(#h)" fill="none" stroke="#1f77b4" stroke-dasharray="1.5,2.475" stroke-opacity=".9" stroke-width="1.5"/>
<defs>
<path id="a" d="m-2.5 2.5h5v-5h-5z" stroke="#1f77b4" stroke-opacity=".9"/>
</defs>
<g clip-path="url(#h)" fill="#1f77b4" fill-opacity=".9" stroke="#1f77b4" stroke-opacity=".9">
<use x="71.388926" y="262.509981" xlink:href="#a"/>
<use x="686.256387" y="262.509981" xlink:href="#a"/>
</g>
<path d="m71.4 210" clip-path="url(#h)" fill="none" stroke="#2ca02c" stroke-linecap="square" stroke-opacity=".9" stroke-width="1.5"/>
<defs>
<path id="b" d="m0-2.5-2.5 5h5z" stroke="#2ca02c" stroke-opacity=".9"/>
</defs>
<g clip-path="url(#h)">
<use x="71.388926" y="210.261046" fill="#2ca02c" fill-opacity=".9" stroke="#2ca02c" stroke-opacity=".9" xlink:href="#b"/>
</g>
<path d="m40.6 349v-313" fill="none" stroke="#000" stroke-linecap="square" stroke-width=".8"/>
<path d="m717 349v-313" fill="none" stroke="#000" stroke-linecap="square" stroke-width=".8"/>
<path d="m40.6 349h676" fill="none" stroke="#000" stroke-linecap="square" stroke-width=".8"/>
<path d="m40.6 35.7h676" fill="none" stroke="#000" stroke-linecap="square" stroke-width=".8"/>
<g clip-path="url(#h)">
<g transform="translate(58.2 262) rotate(-90) scale(.1 -.1)">
<defs>
<path id="ae" transform="scale(.0156)" d="m2375 4863v-479h-550q-309 0-430-125-120-125-120-450v-309h947v-447h-947v-3053h-578v3053h-550v447h550v244q0 584 272 851 272 268 862 268h544z"/>
<path id="x" transform="scale(.0156)" d="m2194 1759q-697 0-966-159t-269-544q0-306 202-486 202-179 548-179 479 0 768 339t289 901v128h-572zm1147 238v-2e3h-575v531q-197-318-491-470t-719-152q-537 0-855 302-317 302-317 808 0 590 395 890 396 300 1180 300h807v57q0 397-261 614t-733 217q-300 0-585-72-284-72-546-216v532q315 122 612 182 297 61 578 61 760 0 1135-394 375-393 375-1193z"/>
<path id="t" transform="scale(.0156)" d="m2834 3397v-544q-243 125-506 187-262 63-544 63-428 0-642-131t-214-394q0-200 153-314t616-217l197-44q612-131 870-370t258-667q0-488-386-773-386-284-1061-284-281 0-586 55t-642 164v594q319-166 628-249 309-82 613-82 406 0 624 139 219 139 219 392 0 234-158 359-157 125-692 241l-200 47q-534 112-772 345-237 233-237 639 0 494 350 762 350 269 994 269 318 0 599-47 282-46 519-140z"/>
<path id="s" transform="scale(.0156)" d="m1172 4494v-994h1184v-447h-1184v-1900q0-428 117-550t477-122h590v-481h-590q-666 0-919 248-253 249-253 905v1900h-422v447h422v994h578z"/>
<path id="v" transform="scale(.0156)" d="m3597 1894v-281h-2644q38-594 358-905t892-311q331 0 642 81t618 244v-544q-310-131-635-200t-659-69q-838 0-1327 487-489 488-489 1320 0 859 464 1363 464 505 1252 505 706 0 1117-455 411-454 411-1235zm-575 169q-6 471-264 752-258 282-683 282-481 0-770-272t-333-766l2050 4z"/>
<path id="o" transform="scale(.0156)" d="m2631 2963q-97 56-211 82-114 27-251 27-488 0-749-317t-261-911v-1844h-578v3500h578v-544q182 319 472 473 291 155 707 155 59 0 131-8 72-7 159-23l3-590z"/>
<path id="ak" transform="scale(.0156)" d="m8863 2147v-281l-1229-1228-375 375 729 728h-7622v531h7622l-729 728 375 375 1229-1228z"/>
</defs>
<use xlink:href="#ae"/>
<use transform="translate(35.2)" xlink:href="#x"/>
<use transform="translate(96.5)" xlink:href="#t"/>
<use transform="translate(149)" xlink:href="#s"/>
<use transform="translate(188)" xlink:href="#v"/>
<use transform="translate(249)" xlink:href="#o"/>
<use transform="translate(290)" xlink:href="#DejaVuSans-20"/>
<use transform="translate(322)" xlink:href="#ak"/>
</g>
</g>
<g clip-path="url(#h)">
<g transform="translate(58.2 330) rotate(-90) scale(.1 -.1)">
<defs>
<path id="al" transform="scale(.0156)" d="m313 1866v281l1228 1228 375-375-728-728h7621v-531h-7621l728-728-375-375-1228 1228z"/>
<path id="w" transform="scale(.0156)" d="m603 4863h575v-4863h-575v4863z"/>
<path id="q" transform="scale(.0156)" d="m1959 3097q-462 0-731-361t-269-989 267-989q268-361 733-361 460 0 728 362 269 363 269 988 0 622-269 986-268 364-728 364zm0 487q750 0 1178-488 429-487 429-1349 0-859-429-1349-428-489-1178-489-753 0-1180 489-426 490-426 1349 0 862 426 1349 427 488 1180 488z"/>
<path id="ah" transform="scale(.0156)" d="m269 3500h575l719-2731 715 2731h678l719-2731 716 2731h575l-916-3500h-678l-753 2869-756-2869h-679l-915 3500z"/>
</defs>
<use xlink:href="#al"/>
<use transform="translate(143)" xlink:href="#DejaVuSans-20"/>
<use transform="translate(175)" xlink:href="#t"/>
<use transform="translate(227)" xlink:href="#w"/>
<use transform="translate(255)" xlink:href="#q"/>
<use transform="translate(316)" xlink:href="#ah"/>
<use transform="translate(398)" xlink:href="#v"/>
<use transform="translate(460)" xlink:href="#o"/>
</g>
</g>
<g transform="translate(306 29.7) scale(.12 -.12)">
<defs>
<path id="ag" transform="scale(.0156)" d="m1259 4147v-1753h794q441 0 681 228 241 228 241 650 0 419-241 647-240 228-681 228h-794zm-631 519h1425q785 0 1186-355 402-355 402-1039 0-691-402-1044-401-353-1186-353h-794v-1875h-631v4666z"/>
<path id="af" transform="scale(.0156)" d="m2059-325q-243-625-475-815-231-191-618-191h-460v481h338q237 0 368 113 132 112 291 531l103 262-1415 3444h609l1094-2737 1094 2737h609l-1538-3825z"/>
<path id="ai" transform="scale(.0156)" d="m3513 2113v-2113h-575v2094q0 497-194 743-194 247-581 247-466 0-735-297-269-296-269-809v-1978h-578v4863h578v-1907q207 316 486 472 280 156 646 156 603 0 912-373 310-373 310-1098z"/>
<path id="u" transform="scale(.0156)" d="m3513 2113v-2113h-575v2094q0 497-194 743-194 247-581 247-466 0-735-297-269-296-269-809v-1978h-578v3500h578v-544q207 316 486 472 280 156 646 156 603 0 912-373 310-373 310-1098z"/>
<path id="ad" transform="scale(.0156)" d="m3513 3500-1266-1703 1331-1797h-678l-1019 1375-1018-1375h-679l1360 1831-1244 1669h678l928-1247 928 1247h679z"/>
<path id="y" transform="scale(.0156)" d="m191 3500h609l1094-2937 1094 2937h609l-1313-3500h-781l-1312 3500z"/>
<path id="ap" transform="scale(.0156)" d="m2113 2584q-425 0-674-291-248-290-248-796 0-503 248-796 249-292 674-292t673 292q248 293 248 796 0 506-248 796-248 291-673 291zm1253 1979v-575q-238 112-480 171-242 60-480 60-625 0-955-422-329-422-376-1275 184 272 462 417 279 145 613 145 703 0 1111-427 408-426 408-1160 0-719-425-1154-425-434-1131-434-810 0-1238 620-428 621-428 1799 0 1106 525 1764t1409 658q238 0 480-47t505-140z"/>
</defs>
<use xlink:href="#ag"/>
<use transform="translate(60.3)" xlink:href="#af"/>
<use transform="translate(119)" xlink:href="#s"/>
<use transform="translate(159)" xlink:href="#ai"/>
<use transform="translate(222)" xlink:href="#q"/>
<use transform="translate(283)" xlink:href="#u"/>
<use transform="translate(347)" xlink:href="#DejaVuSans-20"/>
<use transform="translate(378)" xlink:href="#r"/>
<use transform="translate(442)" xlink:href="#g"/>
<use transform="translate(474)" xlink:href="#e"/>
<use transform="translate(537)" xlink:href="#r"/>
<use transform="translate(601)" xlink:href="#g"/>
<use transform="translate(633)" xlink:href="#ad"/>
<use transform="translate(692)" xlink:href="#DejaVuSans-20"/>
<use transform="translate(724)" xlink:href="#y"/>
<use transform="translate(783)" xlink:href="#t"/>
<use transform="translate(835)" xlink:href="#g"/>
<use transform="translate(867)" xlink:href="#DejaVuSans-20"/>
<use transform="translate(899)" xlink:href="#r"/>
<use transform="translate(962)" xlink:href="#g"/>
<use transform="translate(994)" xlink:href="#e"/>
<use transform="translate(1058)" xlink:href="#d"/>
<use transform="translate(1121)" xlink:href="#g"/>
<use transform="translate(1153)" xlink:href="#ap"/>
</g>
<path d="m47.6 73.1h82.6q2 0 2-2v-28.4q0-2-2-2h-82.6q-2 0-2 2v28.4q0 2 2 2z" fill="#fff" opacity=".8" stroke="#ccc"/>
<path d="m49.6 48.8h10 10" fill="none" stroke="#1f77b4" stroke-dasharray="1.5,2.475" stroke-opacity=".9" stroke-width="1.5"/>
<use x="59.645553" y="48.831032" fill="#1f77b4" fill-opacity=".9" stroke="#1f77b4" stroke-opacity=".9" xlink:href="#a"/>
<g transform="translate(77.6 52.3) scale(.1 -.1)">
<defs>
<path id="ab" transform="scale(.0156)" d="m603 3500h575v-3500h-575v3500zm0 1363h575v-729h-575v729z"/>
<path id="z" transform="scale(.0156)" d="m544 1381v2119h575v-2097q0-497 193-746 194-248 582-248 465 0 735 297 271 297 271 810v1984h575v-3500h-575v538q-209-319-486-474-276-155-642-155-603 0-916 375-312 375-312 1097zm1447 2203z"/>
</defs>
<use xlink:href="#w"/>
<use transform="translate(27.8)" xlink:href="#ab"/>
<use transform="translate(55.6)" xlink:href="#u"/>
<use transform="translate(119)" xlink:href="#z"/>
<use transform="translate(182)" xlink:href="#ad"/>
<use transform="translate(242)" xlink:href="#f"/>
<use transform="translate(275)" xlink:href="#y"/>
<use transform="translate(334)" xlink:href="#z"/>
<use transform="translate(398)" xlink:href="#w"/>
<use transform="translate(425)" xlink:href="#s"/>
<use transform="translate(465)" xlink:href="#o"/>
</g>
<path d="m49.6 63.5h10 10" fill="none" stroke="#2ca02c" stroke-linecap="square" stroke-opacity=".9" stroke-width="1.5"/>
<use x="59.645553" y="63.509158" fill="#2ca02c" fill-opacity=".9" stroke="#2ca02c" stroke-opacity=".9" xlink:href="#b"/>
<g transform="translate(77.6 67) scale(.1 -.1)">
<defs>
<path id="aa" transform="scale(.0156)" d="m3328 2828q216 388 516 572t706 184q547 0 844-383 297-382 297-1088v-2113h-578v2094q0 503-179 746-178 244-543 244-447 0-707-297-259-296-259-809v-1978h-578v2094q0 506-178 748t-550 242q-441 0-701-298-259-298-259-808v-1978h-578v3500h578v-544q197 322 472 475t653 153q382 0 649-194 267-193 395-562z"/>
<path id="ac" transform="scale(.0156)" d="m3122 3366v-538q-244 135-489 202t-495 67q-560 0-870-355-309-354-309-995t309-996q310-354 870-354 250 0 495 67t489 202v-532q-241-112-499-168-257-57-548-57-791 0-1257 497-465 497-465 1341 0 856 470 1346 471 491 1290 491 265 0 518-55 253-54 491-163z"/>
</defs>
<use xlink:href="#aa"/>
<use transform="translate(97.4)" xlink:href="#x"/>
<use transform="translate(159)" xlink:href="#ac"/>
<use transform="translate(214)" xlink:href="#q"/>
<use transform="translate(275)" xlink:href="#t"/>
</g>
<path d="m40.6 700h676v-313h-676z" fill="#fff"/>
<path d="m99.5 700v-313" clip-path="url(#i)" fill="none" stroke="#b0b0b0" stroke-linecap="square" stroke-width=".8"/>
<use x="99.529929" y="700.321635" stroke="#000000" stroke-width=".8" xlink:href="#j"/>
<g transform="translate(78.6 715) scale(.1 -.1)">
<use xlink:href="#d"/>
<use transform="translate(63.6)" xlink:href="#c"/>
<use transform="translate(127)" xlink:href="#d"/>
<use transform="translate(191)" xlink:href="#m"/>
<use transform="translate(254)" xlink:href="#f"/>
<use transform="translate(291)" xlink:href="#e"/>
<use transform="translate(354)" xlink:href="#c"/>
</g>
<path d="m183 700v-313" clip-path="url(#i)" fill="none" stroke="#b0b0b0" stroke-linecap="square" stroke-width=".8"/>
<use x="183.153885" y="700.321635" stroke="#000000" stroke-width=".8" xlink:href="#j"/>
<g transform="translate(162 715) scale(.1 -.1)">
<use xlink:href="#d"/>
<use transform="translate(63.6)" xlink:href="#c"/>
<use transform="translate(127)" xlink:href="#d"/>
<use transform="translate(191)" xlink:href="#m"/>
<use transform="translate(254)" xlink:href="#f"/>
<use transform="translate(291)" xlink:href="#e"/>
<use transform="translate(354)" xlink:href="#e"/>
</g>
<path d="m264 700v-313" clip-path="url(#i)" fill="none" stroke="#b0b0b0" stroke-linecap="square" stroke-width=".8"/>
<use x="264.080295" y="700.321635" stroke="#000000" stroke-width=".8" xlink:href="#j"/>
<g transform="translate(243 715) scale(.1 -.1)">
<use xlink:href="#d"/>
<use transform="translate(63.6)" xlink:href="#c"/>
<use transform="translate(127)" xlink:href="#d"/>
<use transform="translate(191)" xlink:href="#m"/>
<use transform="translate(254)" xlink:href="#f"/>
<use transform="translate(291)" xlink:href="#e"/>
<use transform="translate(354)" xlink:href="#d"/>
</g>
<path d="m348 700v-313" clip-path="url(#i)" fill="none" stroke="#b0b0b0" stroke-linecap="square" stroke-width=".8"/>
<use x="347.704251" y="700.321635" stroke="#000000" stroke-width=".8" xlink:href="#j"/>
<g transform="translate(327 715) scale(.1 -.1)">
<use xlink:href="#d"/>
<use transform="translate(63.6)" xlink:href="#c"/>
<use transform="translate(127)" xlink:href="#d"/>
<use transform="translate(191)" xlink:href="#p"/>
<use transform="translate(254)" xlink:href="#f"/>
<use transform="translate(291)" xlink:href="#c"/>
<use transform="translate(354)" xlink:href="#e"/>
</g>
<path d="m431 700v-313" clip-path="url(#i)" fill="none" stroke="#b0b0b0" stroke-linecap="square" stroke-width=".8"/>
<use x="431.328207" y="700.321635" stroke="#000000" stroke-width=".8" xlink:href="#j"/>
<g transform="translate(410 715) scale(.1 -.1)">
<use xlink:href="#d"/>
<use transform="translate(63.6)" xlink:href="#c"/>
<use transform="translate(127)" xlink:href="#d"/>
<use transform="translate(191)" xlink:href="#p"/>
<use transform="translate(254)" xlink:href="#f"/>
<use transform="translate(291)" xlink:href="#c"/>
<use transform="translate(354)" xlink:href="#d"/>
</g>
<path d="m507 700v-313" clip-path="url(#i)" fill="none" stroke="#b0b0b0" stroke-linecap="square" stroke-width=".8"/>
<use x="506.859522" y="700.321635" stroke="#000000" stroke-width=".8" xlink:href="#j"/>
<g transform="translate(486 715) scale(.1 -.1)">
<use xlink:href="#d"/>
<use transform="translate(63.6)" xlink:href="#c"/>
<use transform="translate(127)" xlink:href="#d"/>
<use transform="translate(191)" xlink:href="#p"/>
<use transform="translate(254)" xlink:href="#f"/>
<use transform="translate(291)" xlink:href="#c"/>
<use transform="translate(354)" xlink:href="#r"/>
</g>
<path d="m590 700v-313" clip-path="url(#i)" fill="none" stroke="#b0b0b0" stroke-linecap="square" stroke-width=".8"/>
<use x="590.483478" y="700.321635" stroke="#000000" stroke-width=".8" xlink:href="#j"/>
<g transform="translate(570 715) scale(.1 -.1)">
<use xlink:href="#d"/>
<use transform="translate(63.6)" xlink:href="#c"/>
<use transform="translate(127)" xlink:href="#d"/>
<use transform="translate(191)" xlink:href="#p"/>
<use transform="translate(254)" xlink:href="#f"/>
<use transform="translate(291)" xlink:href="#c"/>
<use transform="translate(354)" xlink:href="#m"/>
</g>
<path d="m671 700v-313" clip-path="url(#i)" fill="none" stroke="#b0b0b0" stroke-linecap="square" stroke-width=".8"/>
<use x="671.409888" y="700.321635" stroke="#000000" stroke-width=".8" xlink:href="#j"/>
<g transform="translate(651 715) scale(.1 -.1)">
<use xlink:href="#d"/>
<use transform="translate(63.6)" xlink:href="#c"/>
<use transform="translate(127)" xlink:href="#d"/>
<use transform="translate(191)" xlink:href="#p"/>
<use transform="translate(254)" xlink:href="#f"/>
<use transform="translate(291)" xlink:href="#c"/>
<use transform="translate(354)" xlink:href="#p"/>
</g>
<path d="m40.6 680h676" clip-path="url(#i)" fill="none" stroke="#b0b0b0" stroke-linecap="square" stroke-width=".8"/>
<use x="40.645553" y="680.369372" stroke="#000000" stroke-width=".8" xlink:href="#k"/>
<g transform="translate(3 684) scale(.1 -.1)">
<use xlink:href="#e"/>
<use transform="translate(63.6)" xlink:href="#g"/>
<use transform="translate(95.4)" xlink:href="#c"/>
<use transform="translate(159)" xlink:href="#c"/>
<use transform="translate(223)" xlink:href="#l"/>
</g>
<path d="m40.6 611h676" clip-path="url(#i)" fill="none" stroke="#b0b0b0" stroke-linecap="square" stroke-width=".8"/>
<use x="40.645553" y="611.115767" stroke="#000000" stroke-width=".8" xlink:href="#k"/>
<g transform="translate(3 615) scale(.1 -.1)">
<use xlink:href="#e"/>
<use transform="translate(63.6)" xlink:href="#g"/>
<use transform="translate(95.4)" xlink:href="#e"/>
<use transform="translate(159)" xlink:href="#c"/>
<use transform="translate(223)" xlink:href="#l"/>
</g>
<path d="m40.6 542h676" clip-path="url(#i)" fill="none" stroke="#b0b0b0" stroke-linecap="square" stroke-width=".8"/>
<use x="40.645553" y="541.862163" stroke="#000000" stroke-width=".8" xlink:href="#k"/>
<g transform="translate(3 546) scale(.1 -.1)">
<use xlink:href="#e"/>
<use transform="translate(63.6)" xlink:href="#g"/>
<use transform="translate(95.4)" xlink:href="#d"/>
<use transform="translate(159)" xlink:href="#c"/>
<use transform="translate(223)" xlink:href="#l"/>
</g>
<path d="m40.6 473h676" clip-path="url(#i)" fill="none" stroke="#b0b0b0" stroke-linecap="square" stroke-width=".8"/>
<use x="40.645553" y="472.608558" stroke="#000000" stroke-width=".8" xlink:href="#k"/>
<g transform="translate(3 476) scale(.1 -.1)">
<use xlink:href="#e"/>
<use transform="translate(63.6)" xlink:href="#g"/>
<use transform="translate(95.4)" xlink:href="#r"/>
<use transform="translate(159)" xlink:href="#c"/>
<use transform="translate(223)" xlink:href="#l"/>
</g>
<path d="m40.6 403h676" clip-path="url(#i)" fill="none" stroke="#b0b0b0" stroke-linecap="square" stroke-width=".8"/>
<use x="40.645553" y="403.354953" stroke="#000000" stroke-width=".8" xlink:href="#k"/>
<g transform="translate(3 407) scale(.1 -.1)">
<use xlink:href="#e"/>
<use transform="translate(63.6)" xlink:href="#g"/>
<use transform="translate(95.4)" xlink:href="#m"/>
<use transform="translate(159)" xlink:href="#c"/>
<use transform="translate(223)" xlink:href="#l"/>
</g>
<g stroke="#1f77b4" stroke-opacity=".9">
<path d="m71.4 680v-13.9h39.8l20.3 13.9h105l2.3 0.955 0.588-0.955h7.88l2.57 1.55 2.15-1.98 0.574 5.87 1.96-2.4 0.933-1.9 1.97-1.85 2.62 6.44 0.53-1.22 2.43-0.194 2.79-0.639 3.15-17.5 2.79 1.02 2.04-7.57 0.664 0.518 2.39 1.33 0.774 4.28 1.53-4.89 0.393 3.89 2.28-0.17 1.35-2.17 1.44-2.63 2.67 5.62 3.33-13.7 1.5-0.997 0.467 1.3 0.638-4.83 1.36 2.1 1.17 2.76 2.3-2.07 2.38-0.134 3.58-2.42 2.44-0.692 2.96 2.46 0.781 1.61 1.05 4.65 3.6-6.14 2.25-2.6 5.32-4.08 2.95 4.67 2.38 1.57 2.61-8.33 3.17 3.64 2.73-0.558 2.58 0.541 2.81-3.44 2.56 3.9 2.75-6.8 2.79 1.3 2.34 2.64 3.01 4.23 2.9 0.713 2.51-8.19 2.89-1.51 2.48 0.268 5.18 3.84 2.27-2.63 1.03-0.424 2.07 1.34 3.11-1.22 2 1.09 3.41-5.35 0.284-2.46 2.18 18.3 2.04-10.8 0.131 7.23 0.833-1.23 2.56 2.57 2.49-6.4 0.114 3.36 5.62-3.23 2.38 0.808 0.267 1.28 0.109 2.98 0.105-0.749 1.41 3.2 1.17-0.0311 2.61-7.01 2.59 3.75 5 1.51 3.28-1.46 1.29-2.72 1.41 0.483 2.68-5.13 2.51 2.63 2.17 7.42 2.6-12.5 2.64 2.98 0.792-1.03 1.95 1.02 3.4 5.43 2.32 5.04 3.14-1.42 2.59-11.2 2.8 4.86 2.68-0.489 2.51-1.66 5.55 9 2.06-3.33 0.153 5.46 2.98-3.66 2.43-4.34 3.27 1.46 2.25 2.94 3.11 3.87 2.47-6.04 2.95-1.67 2.01 3.43 2.7-1.32 3.42 1.61 2.39 1.62 1.04-8.73 0.292 2.99 1.31-2.28 1.98 2.09 0.791-3.03 2.9-7.08 1.86-0.999 0.382 7.61 0.278-0.0759 2.64 6.74 2.69-15.4 0.525 8 2.35-6.15 2.71 7.33 2.69 0.568 2.77 6.91 2.41-8.93 2.75-0.0853 2.53-9.22 2.02 32.9 1.02 3.29 2.71 5.63 2.53-3.87 2.49-1.16 0.357-3.07 2.51-0.675 2.42 4.08 3.05 2.8 2.18-3.98 0.582 1.97 1.68-2 1.14 5.49 2.71-2.22 2.72-3.48 2.66-5.06 2.6 1.33 1.76-1.1 3.52-1.19 0.173-1.28 1.35 0.54 1.38 0.206 2.15-1.16 0.0287-19.4 0.404-1.78 2.31-3.01 3.24 0.688 2.39-0.597 2.91-0.975 2.48 4.63 0.399-2.14 2.6 22.7 2.69-0.542 5.26 3.89 2.73-5.93 2.77-1.66 2.01 0.74 0.779 1.25 2.54 0.868 2.08-33.8 0.646 2.93 1.62 0.96 0.966 5.15 2.56-3.1 2.87-4.01 2.8 0.714 2.76 7.32 2.52 2.13 2.61-1.21 0.677-4.16 1.9 3.96 2.9 1.31 2.22-5.26 3.28-0.813 2.67 1.16 2.75 1.01 2.7-1.51 2.78 0.784 2.33-0.189 2.87-2.26 2.76 0.72 2.72-1.23 1.07 2.73 1.74-4.76 2.62 9.34 2.59-0.987 1.65-4.54 1.14 5.98 2.36 3.5 3.06 1.51 2.73 3.8 1.35-14" clip-path="url(#i)" fill="none" stroke-dasharray="1.5,2.475" stroke-width="1.5"/>
<g clip-path="url(#i)" fill="#1f77b4" fill-opacity=".9">
<use x="71.388926" y="680.369372" xlink:href="#a"/>
<use x="71.388926" y="666.518651" xlink:href="#a"/>
<use x="93.939482" y="666.518651" xlink:href="#a"/>
<use x="111.21318" y="666.518651" xlink:href="#a"/>
<use x="131.558523" y="680.369372" xlink:href="#a"/>
<use x="141.75269" y="680.369372" xlink:href="#a"/>
<use x="145.629071" y="680.369372" xlink:href="#a"/>
<use x="146.945843" y="680.369372" xlink:href="#a"/>
<use x="147.87072" y="680.369372" xlink:href="#a"/>
<use x="150.53408" y="680.369372" xlink:href="#a"/>
<use x="153.158693" y="680.369372" xlink:href="#a"/>
<use x="156.0239" y="680.369372" xlink:href="#a"/>
<use x="158.505737" y="680.369372" xlink:href="#a"/>
<use x="161.513408" y="680.369372" xlink:href="#a"/>
<use x="164.254696" y="680.369372" xlink:href="#a"/>
<use x="166.322597" y="680.369372" xlink:href="#a"/>
<use x="169.404857" y="680.369372" xlink:href="#a"/>
<use x="172.131034" y="680.369372" xlink:href="#a"/>
<use x="174.823898" y="680.369372" xlink:href="#a"/>
<use x="177.783488" y="680.369372" xlink:href="#a"/>
<use x="180.479973" y="680.369372" xlink:href="#a"/>
<use x="182.900179" y="680.369372" xlink:href="#a"/>
<use x="185.759578" y="680.369372" xlink:href="#a"/>
<use x="187.783176" y="680.369372" xlink:href="#a"/>
<use x="190.952075" y="680.369372" xlink:href="#a"/>
<use x="193.584681" y="680.369372" xlink:href="#a"/>
<use x="196.630193" y="680.369372" xlink:href="#a"/>
<use x="199.177627" y="680.369372" xlink:href="#a"/>
<use x="200.553906" y="680.369372" xlink:href="#a"/>
<use x="201.93028" y="680.369372" xlink:href="#a"/>
<use x="203.924716" y="680.369372" xlink:href="#a"/>
<use x="205.13805" y="680.369372" xlink:href="#a"/>
<use x="207.322283" y="680.369372" xlink:href="#a"/>
<use x="209.876335" y="680.369372" xlink:href="#a"/>
<use x="212.848757" y="680.369372" xlink:href="#a"/>
<use x="215.23159" y="680.369372" xlink:href="#a"/>
<use x="218.194146" y="680.369372" xlink:href="#a"/>
<use x="220.962317" y="680.369372" xlink:href="#a"/>
<use x="223.521708" y="680.369372" xlink:href="#a"/>
<use x="226.328531" y="680.369372" xlink:href="#a"/>
<use x="226.531971" y="680.369372" xlink:href="#a"/>
<use x="228.981618" y="680.369372" xlink:href="#a"/>
<use x="231.730712" y="680.369372" xlink:href="#a"/>
<use x="234.106614" y="680.369372" xlink:href="#a"/>
<use x="236.982686" y="680.369372" xlink:href="#a"/>
<use x="239.282251" y="681.324441" xlink:href="#a"/>
<use x="239.870154" y="680.369372" xlink:href="#a"/>
<use x="242.063597" y="680.369372" xlink:href="#a"/>
<use x="242.505258" y="680.369372" xlink:href="#a"/>
<use x="244.937109" y="680.369372" xlink:href="#a"/>
<use x="247.750457" y="680.369372" xlink:href="#a"/>
<use x="250.31909" y="681.924192" xlink:href="#a"/>
<use x="252.465013" y="679.942996" xlink:href="#a"/>
<use x="253.039272" y="685.814868" xlink:href="#a"/>
<use x="255.00383" y="683.417914" xlink:href="#a"/>
<use x="255.936887" y="681.515386" xlink:href="#a"/>
<use x="257.904317" y="679.663268" xlink:href="#a"/>
<use x="260.52228" y="686.103617" xlink:href="#a"/>
<use x="261.052392" y="684.883661" xlink:href="#a"/>
<use x="263.480184" y="684.689461" xlink:href="#a"/>
<use x="266.271021" y="684.050609" xlink:href="#a"/>
<use x="269.419939" y="666.586696" xlink:href="#a"/>
<use x="272.210433" y="667.60679" xlink:href="#a"/>
<use x="274.253887" y="660.035775" xlink:href="#a"/>
<use x="274.917502" y="660.55332" xlink:href="#a"/>
<use x="277.305237" y="661.88561" xlink:href="#a"/>
<use x="278.079533" y="666.165182" xlink:href="#a"/>
<use x="279.609923" y="661.277982" xlink:href="#a"/>
<use x="280.002847" y="665.165301" xlink:href="#a"/>
<use x="282.286301" y="664.995274" xlink:href="#a"/>
<use x="283.632577" y="662.82987" xlink:href="#a"/>
<use x="285.073517" y="660.199495" xlink:href="#a"/>
<use x="287.74259" y="665.822728" xlink:href="#a"/>
<use x="291.074341" y="652.129005" xlink:href="#a"/>
<use x="292.569981" y="651.132031" xlink:href="#a"/>
<use x="293.037025" y="652.43487" xlink:href="#a"/>
<use x="293.67532" y="647.600753" xlink:href="#a"/>
<use x="295.031524" y="649.700991" xlink:href="#a"/>
<use x="296.205519" y="652.464482" xlink:href="#a"/>
<use x="298.289998" y="650.45486" xlink:href="#a"/>
<use x="298.506364" y="650.391613" xlink:href="#a"/>
<use x="300.882734" y="650.257953" xlink:href="#a"/>
<use x="304.462979" y="647.839336" xlink:href="#a"/>
<use x="306.903103" y="647.147517" xlink:href="#a"/>
<use x="309.858322" y="649.611339" xlink:href="#a"/>
<use x="310.639706" y="651.219444" xlink:href="#a"/>
<use x="311.68922" y="655.866168" xlink:href="#a"/>
<use x="315.293786" y="649.730011" xlink:href="#a"/>
<use x="317.545988" y="647.131921" xlink:href="#a"/>
<use x="322.867617" y="643.049634" xlink:href="#a"/>
<use x="325.819995" y="647.714921" xlink:href="#a"/>
<use x="328.202204" y="649.280541" xlink:href="#a"/>
<use x="330.810988" y="640.953144" xlink:href="#a"/>
<use x="333.979762" y="644.590077" xlink:href="#a"/>
<use x="336.706158" y="644.032006" xlink:href="#a"/>
<use x="339.284845" y="644.573415" xlink:href="#a"/>
<use x="342.097849" y="641.133537" xlink:href="#a"/>
<use x="344.654649" y="645.038454" xlink:href="#a"/>
<use x="347.4093" y="638.233731" xlink:href="#a"/>
<use x="350.198514" y="639.52897" xlink:href="#a"/>
<use x="352.542788" y="642.166531" xlink:href="#a"/>
<use x="355.551084" y="646.400703" xlink:href="#a"/>
<use x="358.454662" y="647.113512" xlink:href="#a"/>
<use x="360.964411" y="638.922549" xlink:href="#a"/>
<use x="363.849725" y="637.412062" xlink:href="#a"/>
<use x="366.329689" y="637.679805" xlink:href="#a"/>
<use x="371.505576" y="641.524572" xlink:href="#a"/>
<use x="373.770703" y="638.896611" xlink:href="#a"/>
<use x="374.798113" y="638.472882" xlink:href="#a"/>
<use x="376.867325" y="639.816097" xlink:href="#a"/>
<use x="379.980494" y="638.600934" xlink:href="#a"/>
<use x="381.982174" y="639.685946" xlink:href="#a"/>
<use x="385.3897" y="634.336983" xlink:href="#a"/>
<use x="385.67416" y="631.877349" xlink:href="#a"/>
<use x="387.856457" y="650.179963" xlink:href="#a"/>
<use x="389.895041" y="639.372381" xlink:href="#a"/>
<use x="389.931476" y="644.480088" xlink:href="#a"/>
<use x="390.026296" y="646.603842" xlink:href="#a"/>
<use x="390.859507" y="645.377695" xlink:href="#a"/>
<use x="393.418836" y="647.952131" xlink:href="#a"/>
<use x="395.908853" y="641.555924" xlink:href="#a"/>
<use x="396.022375" y="644.916272" xlink:href="#a"/>
<use x="398.967697" y="643.221352" xlink:href="#a"/>
<use x="401.643107" y="641.685723" xlink:href="#a"/>
<use x="404.02719" y="642.494032" xlink:href="#a"/>
<use x="404.293791" y="643.778002" xlink:href="#a"/>
<use x="404.402598" y="646.757691" xlink:href="#a"/>
<use x="404.507128" y="646.008785" xlink:href="#a"/>
<use x="405.912725" y="649.205178" xlink:href="#a"/>
<use x="407.084815" y="649.174123" xlink:href="#a"/>
<use x="408.837191" y="644.25595" xlink:href="#a"/>
<use x="409.695035" y="642.16696" xlink:href="#a"/>
<use x="412.280278" y="645.920275" xlink:href="#a"/>
<use x="414.506285" y="646.602394" xlink:href="#a"/>
<use x="417.279357" y="647.425767" xlink:href="#a"/>
<use x="420.561904" y="645.964898" xlink:href="#a"/>
<use x="421.8507" y="643.249559" xlink:href="#a"/>
<use x="423.255891" y="643.732757" xlink:href="#a"/>
<use x="425.937827" y="638.601022" xlink:href="#a"/>
<use x="428.452447" y="641.228238" xlink:href="#a"/>
<use x="430.619289" y="648.650008" xlink:href="#a"/>
<use x="433.219768" y="636.138728" xlink:href="#a"/>
<use x="435.856027" y="639.115462" xlink:href="#a"/>
<use x="436.648213" y="638.081689" xlink:href="#a"/>
<use x="438.600719" y="639.101114" xlink:href="#a"/>
<use x="442.004842" y="644.530672" xlink:href="#a"/>
<use x="444.326075" y="649.573144" xlink:href="#a"/>
<use x="447.470559" y="648.150045" xlink:href="#a"/>
<use x="450.060985" y="636.953365" xlink:href="#a"/>
<use x="452.862625" y="641.817105" xlink:href="#a"/>
<use x="455.545185" y="641.327953" xlink:href="#a"/>
<use x="458.053779" y="639.665295" xlink:href="#a"/>
<use x="460.999631" y="644.511716" xlink:href="#a"/>
<use x="463.603701" y="648.66145" xlink:href="#a"/>
<use x="465.66467" y="645.335882" xlink:href="#a"/>
<use x="465.817563" y="650.79972" xlink:href="#a"/>
<use x="468.797415" y="647.138119" xlink:href="#a"/>
<use x="471.232045" y="642.793394" xlink:href="#a"/>
<use x="474.502384" y="644.256049" xlink:href="#a"/>
<use x="476.748404" y="647.195798" xlink:href="#a"/>
<use x="479.856016" y="651.069696" xlink:href="#a"/>
<use x="482.327924" y="645.033987" xlink:href="#a"/>
<use x="485.277211" y="643.36474" xlink:href="#a"/>
<use x="487.291754" y="646.796007" xlink:href="#a"/>
<use x="489.989956" y="645.478068" xlink:href="#a"/>
<use x="493.410409" y="647.084265" xlink:href="#a"/>
<use x="495.797706" y="648.702527" xlink:href="#a"/>
<use x="496.835669" y="639.975816" xlink:href="#a"/>
<use x="497.127372" y="642.962417" xlink:href="#a"/>
<use x="498.438024" y="640.679331" xlink:href="#a"/>
<use x="500.420346" y="642.770925" xlink:href="#a"/>
<use x="501.211159" y="639.737057" xlink:href="#a"/>
<use x="504.111708" y="632.652234" xlink:href="#a"/>
<use x="505.97083" y="631.65314" xlink:href="#a"/>
<use x="506.352483" y="639.261851" xlink:href="#a"/>
<use x="506.630605" y="639.185945" xlink:href="#a"/>
<use x="509.267895" y="645.927105" xlink:href="#a"/>
<use x="511.957824" y="630.510438" xlink:href="#a"/>
<use x="512.48269" y="638.512053" xlink:href="#a"/>
<use x="514.837049" y="632.364217" xlink:href="#a"/>
<use x="517.54493" y="639.694005" xlink:href="#a"/>
<use x="520.234734" y="640.26235" xlink:href="#a"/>
<use x="523.009305" y="647.172575" xlink:href="#a"/>
<use x="525.423953" y="638.238861" xlink:href="#a"/>
<use x="528.172173" y="638.153604" xlink:href="#a"/>
<use x="530.705432" y="628.931825" xlink:href="#a"/>
<use x="532.724002" y="661.835774" xlink:href="#a"/>
<use x="533.742982" y="665.127834" xlink:href="#a"/>
<use x="536.453798" y="670.757939" xlink:href="#a"/>
<use x="538.978877" y="666.884397" xlink:href="#a"/>
<use x="541.467333" y="665.723082" xlink:href="#a"/>
<use x="541.823977" y="662.654353" xlink:href="#a"/>
<use x="544.331915" y="661.978993" xlink:href="#a"/>
<use x="546.751371" y="666.059174" xlink:href="#a"/>
<use x="549.800068" y="668.85738" xlink:href="#a"/>
<use x="551.975683" y="664.877903" xlink:href="#a"/>
<use x="552.557873" y="666.844242" xlink:href="#a"/>
<use x="554.23747" y="664.843894" xlink:href="#a"/>
<use x="555.372657" y="670.331125" xlink:href="#a"/>
<use x="558.087469" y="668.108229" xlink:href="#a"/>
<use x="560.809869" y="664.625096" xlink:href="#a"/>
<use x="563.466453" y="659.564943" xlink:href="#a"/>
<use x="566.064934" y="660.898483" xlink:href="#a"/>
<use x="567.827924" y="659.801442" xlink:href="#a"/>
<use x="571.344976" y="658.610482" xlink:href="#a"/>
<use x="571.517944" y="657.335104" xlink:href="#a"/>
<use x="572.872181" y="657.875478" xlink:href="#a"/>
<use x="574.252582" y="658.081487" xlink:href="#a"/>
<use x="576.40553" y="656.920195" xlink:href="#a"/>
<use x="576.434254" y="637.537564" xlink:href="#a"/>
<use x="576.838512" y="635.759754" xlink:href="#a"/>
<use x="579.144165" y="632.749716" xlink:href="#a"/>
<use x="582.387622" y="633.437277" xlink:href="#a"/>
<use x="584.780789" y="632.840031" xlink:href="#a"/>
<use x="587.687427" y="631.864748" xlink:href="#a"/>
<use x="590.171169" y="636.497062" xlink:href="#a"/>
<use x="590.570556" y="634.360477" xlink:href="#a"/>
<use x="593.171815" y="657.055975" xlink:href="#a"/>
<use x="595.859871" y="656.513824" xlink:href="#a"/>
<use x="598.187379" y="658.238183" xlink:href="#a"/>
<use x="601.119463" y="660.405301" xlink:href="#a"/>
<use x="603.851354" y="654.476036" xlink:href="#a"/>
<use x="606.624457" y="652.812335" xlink:href="#a"/>
<use x="608.631788" y="653.552304" xlink:href="#a"/>
<use x="609.410892" y="654.803711" xlink:href="#a"/>
<use x="611.516852" y="655.536385" xlink:href="#a"/>
<use x="611.954454" y="655.671956" xlink:href="#a"/>
<use x="614.038683" y="621.858687" xlink:href="#a"/>
<use x="614.684409" y="624.791197" xlink:href="#a"/>
<use x="616.300658" y="625.751181" xlink:href="#a"/>
<use x="617.267029" y="630.901781" xlink:href="#a"/>
<use x="619.828762" y="627.799342" xlink:href="#a"/>
<use x="622.695686" y="623.785943" xlink:href="#a"/>
<use x="625.500511" y="624.500438" xlink:href="#a"/>
<use x="628.25869" y="631.820903" xlink:href="#a"/>
<use x="630.781583" y="633.951486" xlink:href="#a"/>
<use x="633.391241" y="632.739047" xlink:href="#a"/>
<use x="634.068719" y="628.582267" xlink:href="#a"/>
<use x="635.964433" y="632.546037" xlink:href="#a"/>
<use x="638.866106" y="633.860112" xlink:href="#a"/>
<use x="641.083746" y="628.601075" xlink:href="#a"/>
<use x="644.362265" y="627.788572" xlink:href="#a"/>
<use x="647.034366" y="628.946073" xlink:href="#a"/>
<use x="649.78705" y="629.957019" xlink:href="#a"/>
<use x="652.490342" y="628.448219" xlink:href="#a"/>
<use x="655.272344" y="629.232585" xlink:href="#a"/>
<use x="657.605035" y="629.044069" xlink:href="#a"/>
<use x="660.476174" y="626.779666" xlink:href="#a"/>
<use x="663.23145" y="627.499936" xlink:href="#a"/>
<use x="665.946918" y="626.271125" xlink:href="#a"/>
<use x="667.014603" y="628.998809" xlink:href="#a"/>
<use x="668.753335" y="624.239346" xlink:href="#a"/>
<use x="671.37136" y="633.580907" xlink:href="#a"/>
<use x="673.960818" y="632.593889" xlink:href="#a"/>
<use x="675.615345" y="628.050064" xlink:href="#a"/>
<use x="676.759086" y="634.026734" xlink:href="#a"/>
<use x="679.115443" y="637.523858" xlink:href="#a"/>
<use x="682.174505" y="639.029315" xlink:href="#a"/>
<use x="684.90496" y="642.82532" xlink:href="#a"/>
<use x="686.256387" y="628.83468" xlink:href="#a"/>
</g>
</g>
<g stroke="#2ca02c" stroke-opacity=".9">
<path d="m460 419 83.4 26.1 8.93-11.3 1.68 14.3 1.14-1.86 2.71-0.29 2.72 43.7 2.66-43.4 2.6 48 1.76-37.2 3.69-4.87 1.35 1.76 1.38 48.8 2.59-4.48 2.31-16.3 3.24-3.45 2.39-3.96 2.91 2.33 2.48-4.75 3-50.2 2.69 45.6 2.33-40.6 2.93 1.12 2.73-2.59 2.77-7.66 2.79 3.85 2.54 7 2.73-5.34 1.62-6.07 0.966-6.11 2.56-2.34 2.87 5.15 2.8 1.92 2.76-5.14 2.52 2.51 2.61-11.9 2.57 2.76 2.9 19.1 2.22 10.4 3.28-6.76 2.67-0.585 2.75 3.95 2.7-14.8 2.78-10.1 10.7 7.78 1.07 18.3 1.74-11.7 2.62 15.4 2.59-5.84 1.65 3.9 1.14-19.2 2.36 6.93 3.06-9.21 2.73 16.1 1.35-3.09" clip-path="url(#i)" fill="none" stroke-linecap="square" stroke-width="1.5"/>
<g clip-path="url(#i)" fill="#2ca02c" fill-opacity=".9">
<use x="460.245317" y="419.295376" xlink:href="#b"/>
<use x="543.623029" y="445.410324" xlink:href="#b"/>
<use x="552.557873" y="434.09109" xlink:href="#b"/>
<use x="554.23747" y="448.424335" xlink:href="#b"/>
<use x="555.372657" y="446.568932" xlink:href="#b"/>
<use x="558.087469" y="446.278442" xlink:href="#b"/>
<use x="560.809869" y="489.996114" xlink:href="#b"/>
<use x="563.466453" y="446.593356" xlink:href="#b"/>
<use x="566.064934" y="494.60269" xlink:href="#b"/>
<use x="567.827924" y="457.410079" xlink:href="#b"/>
<use x="571.517944" y="452.544867" xlink:href="#b"/>
<use x="572.872181" y="454.300866" xlink:href="#b"/>
<use x="574.252582" y="503.136455" xlink:href="#b"/>
<use x="576.838512" y="498.66059" xlink:href="#b"/>
<use x="579.144165" y="482.349769" xlink:href="#b"/>
<use x="582.387622" y="478.896855" xlink:href="#b"/>
<use x="584.780789" y="474.932397" xlink:href="#b"/>
<use x="587.687427" y="477.267089" xlink:href="#b"/>
<use x="590.171169" y="472.519806" xlink:href="#b"/>
<use x="593.171815" y="422.362069" xlink:href="#b"/>
<use x="595.859871" y="467.920097" xlink:href="#b"/>
<use x="598.187379" y="427.280609" xlink:href="#b"/>
<use x="601.119463" y="428.396941" xlink:href="#b"/>
<use x="603.851354" y="425.806395" xlink:href="#b"/>
<use x="606.624457" y="418.146905" xlink:href="#b"/>
<use x="609.410892" y="421.999527" xlink:href="#b"/>
<use x="611.954454" y="428.999948" xlink:href="#b"/>
<use x="614.684409" y="423.664939" xlink:href="#b"/>
<use x="616.300658" y="417.598436" xlink:href="#b"/>
<use x="617.267029" y="411.492281" xlink:href="#b"/>
<use x="619.828762" y="409.157236" xlink:href="#b"/>
<use x="622.695686" y="414.307568" xlink:href="#b"/>
<use x="625.500511" y="416.232522" xlink:href="#b"/>
<use x="628.25869" y="411.089526" xlink:href="#b"/>
<use x="630.781583" y="413.595748" xlink:href="#b"/>
<use x="633.391241" y="401.743258" xlink:href="#b"/>
<use x="635.964433" y="404.500949" xlink:href="#b"/>
<use x="638.866106" y="423.601668" xlink:href="#b"/>
<use x="641.083746" y="433.982242" xlink:href="#b"/>
<use x="644.362265" y="427.218619" xlink:href="#b"/>
<use x="647.034366" y="426.633447" xlink:href="#b"/>
<use x="649.78705" y="430.586624" xlink:href="#b"/>
<use x="652.490342" y="415.769878" xlink:href="#b"/>
<use x="655.272344" y="405.626383" xlink:href="#b"/>
<use x="665.946918" y="413.407091" xlink:href="#b"/>
<use x="667.014603" y="431.694009" xlink:href="#b"/>
<use x="668.753335" y="420.021278" xlink:href="#b"/>
<use x="671.37136" y="435.451867" xlink:href="#b"/>
<use x="673.960818" y="429.611552" xlink:href="#b"/>
<use x="675.615345" y="433.514445" xlink:href="#b"/>
<use x="676.759086" y="414.304105" xlink:href="#b"/>
<use x="679.115443" y="421.229825" xlink:href="#b"/>
<use x="682.174505" y="412.015374" xlink:href="#b"/>
<use x="684.90496" y="428.16304" xlink:href="#b"/>
<use x="686.256387" y="425.068938" xlink:href="#b"/>
</g>
</g>
<path d="m40.6 700v-313" fill="none" stroke="#000" stroke-linecap="square" stroke-width=".8"/>
<path d="m717 700v-313" fill="none" stroke="#000" stroke-linecap="square" stroke-width=".8"/>
<path d="m40.6 700h676" fill="none" stroke="#000" stroke-linecap="square" stroke-width=".8"/>
<path d="m40.6 388h676" fill="none" stroke="#000" stroke-linecap="square" stroke-width=".8"/>
<g clip-path="url(#i)">
<g transform="translate(58.2 672) rotate(-90) scale(.1 -.1)">
<use xlink:href="#ae"/>
<use transform="translate(35.2)" xlink:href="#x"/>
<use transform="translate(96.5)" xlink:href="#t"/>
<use transform="translate(149)" xlink:href="#s"/>
<use transform="translate(188)" xlink:href="#v"/>
<use transform="translate(249)" xlink:href="#o"/>
<use transform="translate(290)" xlink:href="#DejaVuSans-20"/>
<use transform="translate(322)" xlink:href="#ak"/>
</g>
</g>
<g clip-path="url(#i)">
<g transform="translate(58.2 740) rotate(-90) scale(.1 -.1)">
<use xlink:href="#al"/>
<use transform="translate(143)" xlink:href="#DejaVuSans-20"/>
<use transform="translate(175)" xlink:href="#t"/>
<use transform="translate(227)" xlink:href="#w"/>
<use transform="translate(255)" xlink:href="#q"/>
<use transform="translate(316)" xlink:href="#ah"/>
<use transform="translate(398)" xlink:href="#v"/>
<use transform="translate(460)" xlink:href="#o"/>
</g>
</g>
<g transform="translate(296 382) scale(.12 -.12)">
<use xlink:href="#ag"/>
<use transform="translate(60.3)" xlink:href="#af"/>
<use transform="translate(119)" xlink:href="#s"/>
<use transform="translate(159)" xlink:href="#ai"/>
<use transform="translate(222)" xlink:href="#q"/>
<use transform="translate(283)" xlink:href="#u"/>
<use transform="translate(347)" xlink:href="#DejaVuSans-20"/>
<use transform="translate(378)" xlink:href="#r"/>
<use transform="translate(442)" xlink:href="#g"/>
<use transform="translate(474)" xlink:href="#e"/>
<use transform="translate(537)" xlink:href="#m"/>
<use transform="translate(601)" xlink:href="#g"/>
<use transform="translate(633)" xlink:href="#ad"/>
<use transform="translate(692)" xlink:href="#DejaVuSans-20"/>
<use transform="translate(724)" xlink:href="#y"/>
<use transform="translate(783)" xlink:href="#t"/>
<use transform="translate(835)" xlink:href="#g"/>
<use transform="translate(867)" xlink:href="#DejaVuSans-20"/>
<use transform="translate(899)" xlink:href="#r"/>
<use transform="translate(962)" xlink:href="#g"/>
<use transform="translate(994)" xlink:href="#e"/>
<use transform="translate(1058)" xlink:href="#r"/>
<use transform="translate(1121)" xlink:href="#g"/>
<use transform="translate(1153)" xlink:href="#c"/>
<use transform="translate(1217)" xlink:href="#o"/>
<use transform="translate(1256)" xlink:href="#ac"/>
<use transform="translate(1311)" xlink:href="#d"/>
</g>
<path d="m47.6 425h82.6q2 0 2-2v-28.4q0-2-2-2h-82.6q-2 0-2 2v28.4q0 2 2 2z" fill="#fff" opacity=".8" stroke="#ccc"/>
<path d="m49.6 401h10 10" fill="none" stroke="#1f77b4" stroke-dasharray="1.5,2.475" stroke-opacity=".9" stroke-width="1.5"/>
<use x="59.645553" y="400.623678" fill="#1f77b4" fill-opacity=".9" stroke="#1f77b4" stroke-opacity=".9" xlink:href="#a"/>
<g transform="translate(77.6 404) scale(.1 -.1)">
<use xlink:href="#w"/>
<use transform="translate(27.8)" xlink:href="#ab"/>
<use transform="translate(55.6)" xlink:href="#u"/>
<use transform="translate(119)" xlink:href="#z"/>
<use transform="translate(182)" xlink:href="#ad"/>
<use transform="translate(242)" xlink:href="#f"/>
<use transform="translate(275)" xlink:href="#y"/>
<use transform="translate(334)" xlink:href="#z"/>
<use transform="translate(398)" xlink:href="#w"/>
<use transform="translate(425)" xlink:href="#s"/>
<use transform="translate(465)" xlink:href="#o"/>
</g>
<path d="m49.6 415h10 10" fill="none" stroke="#2ca02c" stroke-linecap="square" stroke-opacity=".9" stroke-width="1.5"/>
<use x="59.645553" y="415.301803" fill="#2ca02c" fill-opacity=".9" stroke="#2ca02c" stroke-opacity=".9" xlink:href="#b"/>
<g transform="translate(77.6 419) scale(.1 -.1)">
<use xlink:href="#aa"/>
<use transform="translate(97.4)" xlink:href="#x"/>
<use transform="translate(159)" xlink:href="#ac"/>
<use transform="translate(214)" xlink:href="#q"/>
<use transform="translate(275)" xlink:href="#t"/>
</g>
<g transform="translate(229 12.1) scale(.12 -.12)">
<defs>
<path id="am" transform="scale(.0156)" d="m1159 525v-1856h-578v4831h578v-531q182 312 458 463 277 152 661 152 638 0 1036-506 399-506 399-1331t-399-1332q-398-506-1036-506-384 0-661 152-276 152-458 464zm1957 1222q0 634-261 995t-717 361q-457 0-718-361t-261-995 261-995 718-361q456 0 717 361t261 995z"/>
<path id="ao" transform="scale(.0156)" d="m3116 1747q0 634-261 995t-717 361q-457 0-718-361t-261-995 261-995 718-361q456 0 717 361t261 995zm-1957 1222q182 312 458 463 277 152 661 152 638 0 1036-506 399-506 399-1331t-399-1332q-398-506-1036-506-384 0-661 152-276 152-458 464v-525h-578v4863h578v-1894z"/>
<path id="an" transform="scale(.0156)" d="m2906 1791q0 625-258 968-257 344-723 344-462 0-720-344-258-343-258-968 0-622 258-966t720-344q466 0 723 344 258 344 258 966zm575-1357q0-893-397-1329-396-436-1215-436-303 0-572 45t-522 139v559q253-137 500-202 247-66 503-66 566 0 847 295t281 892v285q-178-310-456-463t-666-153q-643 0-1037 490-394 491-394 1301 0 812 394 1302 394 491 1037 491 388 0 666-153t456-462v531h575v-3066z"/>
</defs>
<use xlink:href="#ag"/>
<use transform="translate(56.7)" xlink:href="#v"/>
<use transform="translate(118)" xlink:href="#o"/>
<use transform="translate(159)" xlink:href="#ae"/>
<use transform="translate(195)" xlink:href="#q"/>
<use transform="translate(256)" xlink:href="#o"/>
<use transform="translate(295)" xlink:href="#aa"/>
<use transform="translate(392)" xlink:href="#x"/>
<use transform="translate(454)" xlink:href="#u"/>
<use transform="translate(517)" xlink:href="#ac"/>
<use transform="translate(572)" xlink:href="#v"/>
<use transform="translate(634)" xlink:href="#DejaVuSans-20"/>
<use transform="translate(665)" xlink:href="#ab"/>
<use transform="translate(693)" xlink:href="#aa"/>
<use transform="translate(791)" xlink:href="#am"/>
<use transform="translate(854)" xlink:href="#o"/>
<use transform="translate(893)" xlink:href="#q"/>
<use transform="translate(954)" xlink:href="#y"/>
<use transform="translate(1013)" xlink:href="#v"/>
<use transform="translate(1075)" xlink:href="#aa"/>
<use transform="translate(1172)" xlink:href="#v"/>
<use transform="translate(1234)" xlink:href="#u"/>
<use transform="translate(1297)" xlink:href="#s"/>
<use transform="translate(1336)" xlink:href="#DejaVuSans-20"/>
<use transform="translate(1368)" xlink:href="#ao"/>
<use transform="translate(1432)" xlink:href="#af"/>
<use transform="translate(1491)" xlink:href="#DejaVuSans-20"/>
<use transform="translate(1523)" xlink:href="#ac"/>
<use transform="translate(1578)" xlink:href="#q"/>
<use transform="translate(1639)" xlink:href="#u"/>
<use transform="translate(1702)" xlink:href="#ae"/>
<use transform="translate(1737)" xlink:href="#ab"/>
<use transform="translate(1765)" xlink:href="#an"/>
<use transform="translate(1829)" xlink:href="#z"/>
<use transform="translate(1892)" xlink:href="#o"/>
<use transform="translate(1933)" xlink:href="#x"/>
<use transform="translate(1994)" xlink:href="#s"/>
<use transform="translate(2034)" xlink:href="#ab"/>
<use transform="translate(2061)" xlink:href="#q"/>
<use transform="translate(2123)" xlink:href="#u"/>
</g>
<defs>
<clipPath id="h">
<rect x="40.6" y="35.7" width="676" height="313"/>
</clipPath>
<clipPath id="i">
<rect x="40.6" y="388" width="676" height="313"/>
</clipPath>
</defs>
</svg>
