<?xml version="1.0" encoding="UTF-8"?>
<!DOCTYPE svg  PUBLIC '-//W3C//DTD SVG 1.1//EN'  'http://www.w3.org/Graphics/SVG/1.1/DTD/svg11.dtd'>
<svg width="720pt" height="720pt" version="1.1" viewBox="0 0 720 720" xmlns="http://www.w3.org/2000/svg" xmlns:xlink="http://www.w3.org/1999/xlink">
<defs>
<style type="text/css">*{stroke-linejoin: round; stroke-linecap: butt}</style>
</defs>
<path d="m0 720h720v-720h-720z" fill="#fff"/>
<path d="m40.6 349h676v-313h-676z" fill="#fff"/>
<path d="m101 349v-313" clip-path="url(#g)" fill="none" stroke="#b0b0b0" stroke-linecap="square" stroke-width=".8"/>
<defs>
<path id="k" d="m0 0v3.5" stroke="#000" stroke-width=".8"/>
</defs>
<use x="100.952813" y="348.52899" stroke="#000000" stroke-width=".8" xlink:href="#k"/>
<g transform="translate(71.9 363) scale(.1 -.1)">
<defs>
<path id="c" transform="scale(.0156)" d="m1228 531h2203v-531h-2962v531q359 372 979 998 621 627 780 809 303 340 423 576 121 236 121 464 0 372-261 606-261 235-680 235-297 0-627-103-329-103-704-313v638q381 153 712 231 332 78 607 78 725 0 1156-363 431-362 431-968 0-288-108-546-107-257-392-607-78-91-497-524-418-433-1181-1211z"/>
<path id="b" transform="scale(.0156)" d="m2034 4250q-487 0-733-480-245-479-245-1442 0-959 245-1439 246-480 733-480 491 0 736 480 246 480 246 1439 0 963-246 1442-245 480-736 480zm0 500q785 0 1199-621 414-620 414-1801 0-1178-414-1799-414-620-1199-620-784 0-1198 620-414 621-414 1799 0 1181 414 1801 414 621 1198 621z"/>
<path id="m" transform="scale(.0156)" d="m2419 4116-1594-2491h1594v2491zm-166 550h794v-3041h666v-525h-666v-1100h-628v1100h-2106v609l1940 2957z"/>
<path id="f" transform="scale(.0156)" d="m313 2009h1684v-512h-1684v512z"/>
<path id="l" transform="scale(.0156)" d="m691 4666h2478v-532h-1900v-1143q137 47 274 70 138 23 276 23 781 0 1237-428 457-428 457-1159 0-753-469-1171-469-417-1322-417-294 0-599 50-304 50-629 150v635q281-153 581-228t634-75q541 0 856 284 316 284 316 772 0 487-316 771-315 285-856 285-253 0-505-56-251-56-513-175v2344z"/>
<path id="d" transform="scale(.0156)" d="m794 531h1031v3560l-1122-225v575l1116 225h631v-4135h1031v-531h-2687v531z"/>
</defs>
<use xlink:href="#c"/>
<use transform="translate(63.6)" xlink:href="#b"/>
<use transform="translate(127)" xlink:href="#c"/>
<use transform="translate(191)" xlink:href="#m"/>
<use transform="translate(254)" xlink:href="#f"/>
<use transform="translate(291)" xlink:href="#b"/>
<use transform="translate(354)" xlink:href="#l"/>
<use transform="translate(418)" xlink:href="#f"/>
<use transform="translate(454)" xlink:href="#d"/>
<use transform="translate(518)" xlink:href="#l"/>
</g>
<path d="m178 349v-313" clip-path="url(#g)" fill="none" stroke="#b0b0b0" stroke-linecap="square" stroke-width=".8"/>
<use x="177.952914" y="348.52899" stroke="#000000" stroke-width=".8" xlink:href="#k"/>
<g transform="translate(149 363) scale(.1 -.1)">
<defs>
<path id="ah" transform="scale(.0156)" d="m2113 2584q-425 0-674-291-248-290-248-796 0-503 248-796 249-292 674-292t673 292q248 293 248 796 0 506-248 796-248 291-673 291zm1253 1979v-575q-238 112-480 171-242 60-480 60-625 0-955-422-329-422-376-1275 184 272 462 417 279 145 613 145 703 0 1111-427 408-426 408-1160 0-719-425-1154-425-434-1131-434-810 0-1238 620-428 621-428 1799 0 1106 525 1764t1409 658q238 0 480-47t505-140z"/>
</defs>
<use xlink:href="#c"/>
<use transform="translate(63.6)" xlink:href="#b"/>
<use transform="translate(127)" xlink:href="#c"/>
<use transform="translate(191)" xlink:href="#m"/>
<use transform="translate(254)" xlink:href="#f"/>
<use transform="translate(291)" xlink:href="#b"/>
<use transform="translate(354)" xlink:href="#ah"/>
<use transform="translate(418)" xlink:href="#f"/>
<use transform="translate(454)" xlink:href="#b"/>
<use transform="translate(518)" xlink:href="#d"/>
</g>
<path d="m241 349v-313" clip-path="url(#g)" fill="none" stroke="#b0b0b0" stroke-linecap="square" stroke-width=".8"/>
<use x="241.364762" y="348.52899" stroke="#000000" stroke-width=".8" xlink:href="#k"/>
<g transform="translate(212 363) scale(.1 -.1)">
<use xlink:href="#c"/>
<use transform="translate(63.6)" xlink:href="#b"/>
<use transform="translate(127)" xlink:href="#c"/>
<use transform="translate(191)" xlink:href="#m"/>
<use transform="translate(254)" xlink:href="#f"/>
<use transform="translate(291)" xlink:href="#b"/>
<use transform="translate(354)" xlink:href="#ah"/>
<use transform="translate(418)" xlink:href="#f"/>
<use transform="translate(454)" xlink:href="#d"/>
<use transform="translate(518)" xlink:href="#l"/>
</g>
<path d="m314 349v-313" clip-path="url(#g)" fill="none" stroke="#b0b0b0" stroke-linecap="square" stroke-width=".8"/>
<use x="313.835446" y="348.52899" stroke="#000000" stroke-width=".8" xlink:href="#k"/>
<g transform="translate(285 363) scale(.1 -.1)">
<defs>
<path id="al" transform="scale(.0156)" d="m525 4666h3e3v-269l-1694-4397h-659l1594 4134h-2241v532z"/>
</defs>
<use xlink:href="#c"/>
<use transform="translate(63.6)" xlink:href="#b"/>
<use transform="translate(127)" xlink:href="#c"/>
<use transform="translate(191)" xlink:href="#m"/>
<use transform="translate(254)" xlink:href="#f"/>
<use transform="translate(291)" xlink:href="#b"/>
<use transform="translate(354)" xlink:href="#al"/>
<use transform="translate(418)" xlink:href="#f"/>
<use transform="translate(454)" xlink:href="#b"/>
<use transform="translate(518)" xlink:href="#d"/>
</g>
<path d="m377 349v-313" clip-path="url(#g)" fill="none" stroke="#b0b0b0" stroke-linecap="square" stroke-width=".8"/>
<use x="377.247294" y="348.52899" stroke="#000000" stroke-width=".8" xlink:href="#k"/>
<g transform="translate(348 363) scale(.1 -.1)">
<use xlink:href="#c"/>
<use transform="translate(63.6)" xlink:href="#b"/>
<use transform="translate(127)" xlink:href="#c"/>
<use transform="translate(191)" xlink:href="#m"/>
<use transform="translate(254)" xlink:href="#f"/>
<use transform="translate(291)" xlink:href="#b"/>
<use transform="translate(354)" xlink:href="#al"/>
<use transform="translate(418)" xlink:href="#f"/>
<use transform="translate(454)" xlink:href="#d"/>
<use transform="translate(518)" xlink:href="#l"/>
</g>
<path d="m454 349v-313" clip-path="url(#g)" fill="none" stroke="#b0b0b0" stroke-linecap="square" stroke-width=".8"/>
<use x="454.247396" y="348.52899" stroke="#000000" stroke-width=".8" xlink:href="#k"/>
<g transform="translate(425 363) scale(.1 -.1)">
<defs>
<path id="ag" transform="scale(.0156)" d="m2034 2216q-450 0-708-241-257-241-257-662 0-422 257-663 258-241 708-241t709 242q260 243 260 662 0 421-258 662-257 241-711 241zm-631 268q-406 100-633 378-226 279-226 679 0 559 398 884 399 325 1092 325 697 0 1094-325t397-884q0-400-227-679-226-278-629-378 456-106 710-416 255-309 255-755 0-679-414-1042-414-362-1186-362-771 0-1186 362-414 363-414 1042 0 446 256 755 257 310 713 416zm-231 997q0-362 226-565 227-203 636-203 407 0 636 203 230 203 230 565 0 363-230 566-229 203-636 203-409 0-636-203-226-203-226-566z"/>
</defs>
<use xlink:href="#c"/>
<use transform="translate(63.6)" xlink:href="#b"/>
<use transform="translate(127)" xlink:href="#c"/>
<use transform="translate(191)" xlink:href="#m"/>
<use transform="translate(254)" xlink:href="#f"/>
<use transform="translate(291)" xlink:href="#b"/>
<use transform="translate(354)" xlink:href="#ag"/>
<use transform="translate(418)" xlink:href="#f"/>
<use transform="translate(454)" xlink:href="#b"/>
<use transform="translate(518)" xlink:href="#d"/>
</g>
<path d="m518 349v-313" clip-path="url(#g)" fill="none" stroke="#b0b0b0" stroke-linecap="square" stroke-width=".8"/>
<use x="517.659244" y="348.52899" stroke="#000000" stroke-width=".8" xlink:href="#k"/>
<g transform="translate(489 363) scale(.1 -.1)">
<use xlink:href="#c"/>
<use transform="translate(63.6)" xlink:href="#b"/>
<use transform="translate(127)" xlink:href="#c"/>
<use transform="translate(191)" xlink:href="#m"/>
<use transform="translate(254)" xlink:href="#f"/>
<use transform="translate(291)" xlink:href="#b"/>
<use transform="translate(354)" xlink:href="#ag"/>
<use transform="translate(418)" xlink:href="#f"/>
<use transform="translate(454)" xlink:href="#d"/>
<use transform="translate(518)" xlink:href="#l"/>
</g>
<path d="m595 349v-313" clip-path="url(#g)" fill="none" stroke="#b0b0b0" stroke-linecap="square" stroke-width=".8"/>
<use x="594.659346" y="348.52899" stroke="#000000" stroke-width=".8" xlink:href="#k"/>
<g transform="translate(566 363) scale(.1 -.1)">
<defs>
<path id="w" transform="scale(.0156)" d="m703 97v575q238-113 481-172 244-59 479-59 625 0 954 420 330 420 377 1277-181-269-460-413-278-144-615-144-700 0-1108 423-408 424-408 1159 0 718 425 1152 425 435 1131 435 810 0 1236-621 427-620 427-1801 0-1103-524-1761-523-658-1407-658-238 0-482 47-243 47-506 141zm1256 1978q425 0 673 290 249 291 249 798 0 503-249 795-248 292-673 292t-673-292-248-795q0-507 248-798 248-290 673-290z"/>
</defs>
<use xlink:href="#c"/>
<use transform="translate(63.6)" xlink:href="#b"/>
<use transform="translate(127)" xlink:href="#c"/>
<use transform="translate(191)" xlink:href="#m"/>
<use transform="translate(254)" xlink:href="#f"/>
<use transform="translate(291)" xlink:href="#b"/>
<use transform="translate(354)" xlink:href="#w"/>
<use transform="translate(418)" xlink:href="#f"/>
<use transform="translate(454)" xlink:href="#b"/>
<use transform="translate(518)" xlink:href="#d"/>
</g>
<path d="m658 349v-313" clip-path="url(#g)" fill="none" stroke="#b0b0b0" stroke-linecap="square" stroke-width=".8"/>
<use x="658.071194" y="348.52899" stroke="#000000" stroke-width=".8" xlink:href="#k"/>
<g transform="translate(629 363) scale(.1 -.1)">
<use xlink:href="#c"/>
<use transform="translate(63.6)" xlink:href="#b"/>
<use transform="translate(127)" xlink:href="#c"/>
<use transform="translate(191)" xlink:href="#m"/>
<use transform="translate(254)" xlink:href="#f"/>
<use transform="translate(291)" xlink:href="#b"/>
<use transform="translate(354)" xlink:href="#w"/>
<use transform="translate(418)" xlink:href="#f"/>
<use transform="translate(454)" xlink:href="#d"/>
<use transform="translate(518)" xlink:href="#l"/>
</g>
<path d="m40.6 349h676" clip-path="url(#g)" fill="none" stroke="#b0b0b0" stroke-linecap="square" stroke-width=".8"/>
<defs>
<path id="i" d="m0 0h-3.5" stroke="#000" stroke-width=".8"/>
</defs>
<use x="40.645553" y="348.52899" stroke="#000000" stroke-width=".8" xlink:href="#i"/>
<g transform="translate(3 352) scale(.1 -.1)">
<defs>
<path id="e" transform="scale(.0156)" d="m684 794h660v-794h-660v794z"/>
<path id="j" transform="scale(.0156)" d="m4488 3438-1429-1435 1429-1428-372-378-1435 1434-1434-1434-369 378 1425 1428-1425 1435 369 378 1434-1435 1435 1435 372-378z"/>
</defs>
<use xlink:href="#b"/>
<use transform="translate(63.6)" xlink:href="#e"/>
<use transform="translate(95.4)" xlink:href="#w"/>
<use transform="translate(159)" xlink:href="#b"/>
<use transform="translate(223)" xlink:href="#j"/>
</g>
<path d="m40.6 309h676" clip-path="url(#g)" fill="none" stroke="#b0b0b0" stroke-linecap="square" stroke-width=".8"/>
<use x="40.645553" y="309.429441" stroke="#000000" stroke-width=".8" xlink:href="#i"/>
<g transform="translate(3 313) scale(.1 -.1)">
<use xlink:href="#b"/>
<use transform="translate(63.6)" xlink:href="#e"/>
<use transform="translate(95.4)" xlink:href="#w"/>
<use transform="translate(159)" xlink:href="#l"/>
<use transform="translate(223)" xlink:href="#j"/>
</g>
<path d="m40.6 270h676" clip-path="url(#g)" fill="none" stroke="#b0b0b0" stroke-linecap="square" stroke-width=".8"/>
<use x="40.645553" y="270.329891" stroke="#000000" stroke-width=".8" xlink:href="#i"/>
<g transform="translate(3 274) scale(.1 -.1)">
<use xlink:href="#d"/>
<use transform="translate(63.6)" xlink:href="#e"/>
<use transform="translate(95.4)" xlink:href="#b"/>
<use transform="translate(159)" xlink:href="#b"/>
<use transform="translate(223)" xlink:href="#j"/>
</g>
<path d="m40.6 231h676" clip-path="url(#g)" fill="none" stroke="#b0b0b0" stroke-linecap="square" stroke-width=".8"/>
<use x="40.645553" y="231.230342" stroke="#000000" stroke-width=".8" xlink:href="#i"/>
<g transform="translate(3 235) scale(.1 -.1)">
<use xlink:href="#d"/>
<use transform="translate(63.6)" xlink:href="#e"/>
<use transform="translate(95.4)" xlink:href="#b"/>
<use transform="translate(159)" xlink:href="#l"/>
<use transform="translate(223)" xlink:href="#j"/>
</g>
<path d="m40.6 192h676" clip-path="url(#g)" fill="none" stroke="#b0b0b0" stroke-linecap="square" stroke-width=".8"/>
<use x="40.645553" y="192.130792" stroke="#000000" stroke-width=".8" xlink:href="#i"/>
<g transform="translate(3 196) scale(.1 -.1)">
<use xlink:href="#d"/>
<use transform="translate(63.6)" xlink:href="#e"/>
<use transform="translate(95.4)" xlink:href="#d"/>
<use transform="translate(159)" xlink:href="#b"/>
<use transform="translate(223)" xlink:href="#j"/>
</g>
<path d="m40.6 153h676" clip-path="url(#g)" fill="none" stroke="#b0b0b0" stroke-linecap="square" stroke-width=".8"/>
<use x="40.645553" y="153.031243" stroke="#000000" stroke-width=".8" xlink:href="#i"/>
<g transform="translate(3 157) scale(.1 -.1)">
<use xlink:href="#d"/>
<use transform="translate(63.6)" xlink:href="#e"/>
<use transform="translate(95.4)" xlink:href="#d"/>
<use transform="translate(159)" xlink:href="#l"/>
<use transform="translate(223)" xlink:href="#j"/>
</g>
<path d="m40.6 114h676" clip-path="url(#g)" fill="none" stroke="#b0b0b0" stroke-linecap="square" stroke-width=".8"/>
<use x="40.645553" y="113.931694" stroke="#000000" stroke-width=".8" xlink:href="#i"/>
<g transform="translate(3 118) scale(.1 -.1)">
<use xlink:href="#d"/>
<use transform="translate(63.6)" xlink:href="#e"/>
<use transform="translate(95.4)" xlink:href="#c"/>
<use transform="translate(159)" xlink:href="#b"/>
<use transform="translate(223)" xlink:href="#j"/>
</g>
<path d="m40.6 74.8h676" clip-path="url(#g)" fill="none" stroke="#b0b0b0" stroke-linecap="square" stroke-width=".8"/>
<use x="40.645553" y="74.832144" stroke="#000000" stroke-width=".8" xlink:href="#i"/>
<g transform="translate(3 78.6) scale(.1 -.1)">
<use xlink:href="#d"/>
<use transform="translate(63.6)" xlink:href="#e"/>
<use transform="translate(95.4)" xlink:href="#c"/>
<use transform="translate(159)" xlink:href="#l"/>
<use transform="translate(223)" xlink:href="#j"/>
</g>
<path d="m40.6 35.7h676" clip-path="url(#g)" fill="none" stroke="#b0b0b0" stroke-linecap="square" stroke-width=".8"/>
<use x="40.645553" y="35.732595" stroke="#000000" stroke-width=".8" xlink:href="#i"/>
<g transform="translate(3 39.5) scale(.1 -.1)">
<defs>
<path id="t" transform="scale(.0156)" d="m2597 2516q453-97 707-404 255-306 255-756 0-690-475-1069-475-378-1350-378-293 0-604 58t-642 174v609q262-153 574-231 313-78 654-78 593 0 904 234t311 681q0 413-289 645-289 233-804 233h-544v519h569q465 0 712 186t247 536q0 359-255 551-254 193-729 193-260 0-557-57-297-56-653-174v562q360 100 674 150t592 50q719 0 1137-327 419-326 419-882 0-388-222-655t-631-370z"/>
</defs>
<use xlink:href="#d"/>
<use transform="translate(63.6)" xlink:href="#e"/>
<use transform="translate(95.4)" xlink:href="#t"/>
<use transform="translate(159)" xlink:href="#b"/>
<use transform="translate(223)" xlink:href="#j"/>
</g>
<path d="m71.4 270h446 104" clip-path="url(#g)" fill="none" stroke="#1f77b4" stroke-linecap="square" stroke-opacity=".9" stroke-width="1.5"/>
<defs>
<path id="a" d="m-2.5 2.5h5v-5h-5z" stroke="#1f77b4" stroke-opacity=".9"/>
</defs>
<g clip-path="url(#g)" fill="#1f77b4" fill-opacity=".9" stroke="#1f77b4" stroke-opacity=".9">
<use x="71.388926" y="270.329891" xlink:href="#a"/>
<use x="517.569023" y="270.329891" xlink:href="#a"/>
<use x="621.695409" y="270.329891" xlink:href="#a"/>
</g>
<g stroke="#1f77b4" stroke-opacity=".9">
<path d="m622 263h64.6" clip-path="url(#g)" fill="none" stroke-dasharray="1.5,2.475" stroke-width="1.5"/>
<g clip-path="url(#g)" fill="#1f77b4" fill-opacity=".9">
<use x="621.695409" y="262.509981" xlink:href="#a"/>
<use x="686.256387" y="262.509981" xlink:href="#a"/>
</g>
</g>
<path d="m40.6 349v-313" fill="none" stroke="#000" stroke-linecap="square" stroke-width=".8"/>
<path d="m717 349v-313" fill="none" stroke="#000" stroke-linecap="square" stroke-width=".8"/>
<path d="m40.6 349h676" fill="none" stroke="#000" stroke-linecap="square" stroke-width=".8"/>
<path d="m40.6 35.7h676" fill="none" stroke="#000" stroke-linecap="square" stroke-width=".8"/>
<path d="m71.8 261-0.348 7.35" fill="none" stroke="#888" stroke-linecap="round"/>
<g transform="translate(74.5 257) rotate(-90) scale(.08 -.08)" fill="#888">
<defs>
<path id="ak" transform="scale(.0156)" d="m3116 1747q0 634-261 995t-717 361q-457 0-718-361t-261-995 261-995 718-361q456 0 717 361t261 995zm-1957 1222q182 312 458 463 277 152 661 152 638 0 1036-506 399-506 399-1331t-399-1332q-398-506-1036-506-384 0-661 152-276 152-458 464v-525h-578v4863h578v-1894z"/>
</defs>
<use xlink:href="#ak"/>
<use transform="translate(63.5)" xlink:href="#d"/>
</g>
<path d="m622 261-0.326 7.34" fill="none" stroke="#888" stroke-linecap="round"/>
<g transform="translate(625 257) rotate(-90) scale(.08 -.08)" fill="#888">
<defs>
<path id="n" transform="scale(.0156)" d="m2631 2963q-97 56-211 82-114 27-251 27-488 0-749-317t-261-911v-1844h-578v3500h578v-544q182 319 472 473 291 155 707 155 59 0 131-8 72-7 159-23l3-590z"/>
<path id="ac" transform="scale(.0156)" d="m3122 3366v-538q-244 135-489 202t-495 67q-560 0-870-355-309-354-309-995t309-996q310-354 870-354 250 0 495 67t489 202v-532q-241-112-499-168-257-57-548-57-791 0-1257 497-465 497-465 1341 0 856 470 1346 471 491 1290 491 265 0 518-55 253-54 491-163z"/>
</defs>
<use xlink:href="#n"/>
<use transform="translate(38.9)" xlink:href="#ac"/>
<use transform="translate(93.8)" xlink:href="#c"/>
</g>
<g clip-path="url(#g)">
<g transform="translate(58.2 262) rotate(-90) scale(.1 -.1)">
<defs>
<path id="ab" transform="scale(.0156)" d="m2375 4863v-479h-550q-309 0-430-125-120-125-120-450v-309h947v-447h-947v-3053h-578v3053h-550v447h550v244q0 584 272 851 272 268 862 268h544z"/>
<path id="aa" transform="scale(.0156)" d="m2194 1759q-697 0-966-159t-269-544q0-306 202-486 202-179 548-179 479 0 768 339t289 901v128h-572zm1147 238v-2e3h-575v531q-197-318-491-470t-719-152q-537 0-855 302-317 302-317 808 0 590 395 890 396 300 1180 300h807v57q0 397-261 614t-733 217q-300 0-585-72-284-72-546-216v532q315 122 612 182 297 61 578 61 760 0 1135-394 375-393 375-1193z"/>
<path id="y" transform="scale(.0156)" d="m2834 3397v-544q-243 125-506 187-262 63-544 63-428 0-642-131t-214-394q0-200 153-314t616-217l197-44q612-131 870-370t258-667q0-488-386-773-386-284-1061-284-281 0-586 55t-642 164v594q319-166 628-249 309-82 613-82 406 0 624 139 219 139 219 392 0 234-158 359-157 125-692 241l-200 47q-534 112-772 345-237 233-237 639 0 494 350 762 350 269 994 269 318 0 599-47 282-46 519-140z"/>
<path id="p" transform="scale(.0156)" d="m1172 4494v-994h1184v-447h-1184v-1900q0-428 117-550t477-122h590v-481h-590q-666 0-919 248-253 249-253 905v1900h-422v447h422v994h578z"/>
<path id="s" transform="scale(.0156)" d="m3597 1894v-281h-2644q38-594 358-905t892-311q331 0 642 81t618 244v-544q-310-131-635-200t-659-69q-838 0-1327 487-489 488-489 1320 0 859 464 1363 464 505 1252 505 706 0 1117-455 411-454 411-1235zm-575 169q-6 471-264 752-258 282-683 282-481 0-770-272t-333-766l2050 4z"/>
<path id="am" transform="scale(.0156)" d="m8863 2147v-281l-1229-1228-375 375 729 728h-7622v531h7622l-729 728 375 375 1229-1228z"/>
</defs>
<use xlink:href="#ab"/>
<use transform="translate(35.2)" xlink:href="#aa"/>
<use transform="translate(96.5)" xlink:href="#y"/>
<use transform="translate(149)" xlink:href="#p"/>
<use transform="translate(188)" xlink:href="#s"/>
<use transform="translate(249)" xlink:href="#n"/>
<use transform="translate(290)" xlink:href="#DejaVuSans-20"/>
<use transform="translate(322)" xlink:href="#am"/>
</g>
</g>
<g clip-path="url(#g)">
<g transform="translate(58.2 330) rotate(-90) scale(.1 -.1)">
<defs>
<path id="an" transform="scale(.0156)" d="m313 1866v281l1228 1228 375-375-728-728h7621v-531h-7621l728-728-375-375-1228 1228z"/>
<path id="r" transform="scale(.0156)" d="m603 4863h575v-4863h-575v4863z"/>
<path id="q" transform="scale(.0156)" d="m1959 3097q-462 0-731-361t-269-989 267-989q268-361 733-361 460 0 728 362 269 363 269 988 0 622-269 986-268 364-728 364zm0 487q750 0 1178-488 429-487 429-1349 0-859-429-1349-428-489-1178-489-753 0-1180 489-426 490-426 1349 0 862 426 1349 427 488 1180 488z"/>
<path id="ai" transform="scale(.0156)" d="m269 3500h575l719-2731 715 2731h678l719-2731 716 2731h575l-916-3500h-678l-753 2869-756-2869h-679l-915 3500z"/>
</defs>
<use xlink:href="#an"/>
<use transform="translate(143)" xlink:href="#DejaVuSans-20"/>
<use transform="translate(175)" xlink:href="#y"/>
<use transform="translate(227)" xlink:href="#r"/>
<use transform="translate(255)" xlink:href="#q"/>
<use transform="translate(316)" xlink:href="#ai"/>
<use transform="translate(398)" xlink:href="#s"/>
<use transform="translate(460)" xlink:href="#n"/>
</g>
</g>
<g transform="translate(306 29.7) scale(.12 -.12)">
<defs>
<path id="af" transform="scale(.0156)" d="m1259 4147v-1753h794q441 0 681 228 241 228 241 650 0 419-241 647-240 228-681 228h-794zm-631 519h1425q785 0 1186-355 402-355 402-1039 0-691-402-1044-401-353-1186-353h-794v-1875h-631v4666z"/>
<path id="ad" transform="scale(.0156)" d="m2059-325q-243-625-475-815-231-191-618-191h-460v481h338q237 0 368 113 132 112 291 531l103 262-1415 3444h609l1094-2737 1094 2737h609l-1538-3825z"/>
<path id="aj" transform="scale(.0156)" d="m3513 2113v-2113h-575v2094q0 497-194 743-194 247-581 247-466 0-735-297-269-296-269-809v-1978h-578v4863h578v-1907q207 316 486 472 280 156 646 156 603 0 912-373 310-373 310-1098z"/>
<path id="o" transform="scale(.0156)" d="m3513 2113v-2113h-575v2094q0 497-194 743-194 247-581 247-466 0-735-297-269-296-269-809v-1978h-578v3500h578v-544q207 316 486 472 280 156 646 156 603 0 912-373 310-373 310-1098z"/>
<path id="x" transform="scale(.0156)" d="m3513 3500-1266-1703 1331-1797h-678l-1019 1375-1018-1375h-679l1360 1831-1244 1669h678l928-1247 928 1247h679z"/>
<path id="z" transform="scale(.0156)" d="m191 3500h609l1094-2937 1094 2937h609l-1313-3500h-781l-1312 3500z"/>
</defs>
<use xlink:href="#af"/>
<use transform="translate(60.3)" xlink:href="#ad"/>
<use transform="translate(119)" xlink:href="#p"/>
<use transform="translate(159)" xlink:href="#aj"/>
<use transform="translate(222)" xlink:href="#q"/>
<use transform="translate(283)" xlink:href="#o"/>
<use transform="translate(347)" xlink:href="#DejaVuSans-20"/>
<use transform="translate(378)" xlink:href="#t"/>
<use transform="translate(442)" xlink:href="#e"/>
<use transform="translate(474)" xlink:href="#d"/>
<use transform="translate(537)" xlink:href="#t"/>
<use transform="translate(601)" xlink:href="#e"/>
<use transform="translate(633)" xlink:href="#x"/>
<use transform="translate(692)" xlink:href="#DejaVuSans-20"/>
<use transform="translate(724)" xlink:href="#z"/>
<use transform="translate(783)" xlink:href="#y"/>
<use transform="translate(835)" xlink:href="#e"/>
<use transform="translate(867)" xlink:href="#DejaVuSans-20"/>
<use transform="translate(899)" xlink:href="#t"/>
<use transform="translate(962)" xlink:href="#e"/>
<use transform="translate(994)" xlink:href="#d"/>
<use transform="translate(1058)" xlink:href="#c"/>
<use transform="translate(1121)" xlink:href="#e"/>
<use transform="translate(1153)" xlink:href="#ah"/>
</g>
<path d="m47.6 73.1h82.6q2 0 2-2v-28.4q0-2-2-2h-82.6q-2 0-2 2v28.4q0 2 2 2z" fill="#fff" opacity=".8" stroke="#ccc"/>
<path d="m49.6 48.8h10 10" fill="none" stroke="#1f77b4" stroke-linecap="square" stroke-opacity=".9" stroke-width="1.5"/>
<use x="59.645553" y="48.831032" fill="#1f77b4" fill-opacity=".9" stroke="#1f77b4" stroke-opacity=".9" xlink:href="#a"/>
<g transform="translate(77.6 52.3) scale(.1 -.1)">
<defs>
<path id="v" transform="scale(.0156)" d="m603 3500h575v-3500h-575v3500zm0 1363h575v-729h-575v729z"/>
<path id="u" transform="scale(.0156)" d="m544 1381v2119h575v-2097q0-497 193-746 194-248 582-248 465 0 735 297 271 297 271 810v1984h575v-3500h-575v538q-209-319-486-474-276-155-642-155-603 0-916 375-312 375-312 1097zm1447 2203z"/>
</defs>
<use xlink:href="#r"/>
<use transform="translate(27.8)" xlink:href="#v"/>
<use transform="translate(55.6)" xlink:href="#o"/>
<use transform="translate(119)" xlink:href="#u"/>
<use transform="translate(182)" xlink:href="#x"/>
</g>
<path d="m49.6 63.5h10 10" fill="none" stroke="#1f77b4" stroke-dasharray="1.5,2.475" stroke-opacity=".9" stroke-width="1.5"/>
<use x="59.645553" y="63.509158" fill="#1f77b4" fill-opacity=".9" stroke="#1f77b4" stroke-opacity=".9" xlink:href="#a"/>
<g transform="translate(77.6 67) scale(.1 -.1)">
<use xlink:href="#r"/>
<use transform="translate(27.8)" xlink:href="#v"/>
<use transform="translate(55.6)" xlink:href="#o"/>
<use transform="translate(119)" xlink:href="#u"/>
<use transform="translate(182)" xlink:href="#x"/>
<use transform="translate(242)" xlink:href="#f"/>
<use transform="translate(275)" xlink:href="#z"/>
<use transform="translate(334)" xlink:href="#u"/>
<use transform="translate(398)" xlink:href="#r"/>
<use transform="translate(425)" xlink:href="#p"/>
<use transform="translate(465)" xlink:href="#n"/>
</g>
<path d="m40.6 700h676v-313h-676z" fill="#fff"/>
<path d="m104 700v-313" clip-path="url(#h)" fill="none" stroke="#b0b0b0" stroke-linecap="square" stroke-width=".8"/>
<use x="104.091929" y="700.321635" stroke="#000000" stroke-width=".8" xlink:href="#k"/>
<g transform="translate(83.2 715) scale(.1 -.1)">
<use xlink:href="#c"/>
<use transform="translate(63.6)" xlink:href="#b"/>
<use transform="translate(127)" xlink:href="#c"/>
<use transform="translate(191)" xlink:href="#m"/>
<use transform="translate(254)" xlink:href="#f"/>
<use transform="translate(291)" xlink:href="#b"/>
<use transform="translate(354)" xlink:href="#ag"/>
</g>
<path d="m222 700v-313" clip-path="url(#h)" fill="none" stroke="#b0b0b0" stroke-linecap="square" stroke-width=".8"/>
<use x="221.842364" y="700.321635" stroke="#000000" stroke-width=".8" xlink:href="#k"/>
<g transform="translate(201 715) scale(.1 -.1)">
<use xlink:href="#c"/>
<use transform="translate(63.6)" xlink:href="#b"/>
<use transform="translate(127)" xlink:href="#c"/>
<use transform="translate(191)" xlink:href="#m"/>
<use transform="translate(254)" xlink:href="#f"/>
<use transform="translate(291)" xlink:href="#b"/>
<use transform="translate(354)" xlink:href="#w"/>
</g>
<path d="m336 700v-313" clip-path="url(#h)" fill="none" stroke="#b0b0b0" stroke-linecap="square" stroke-width=".8"/>
<use x="335.794399" y="700.321635" stroke="#000000" stroke-width=".8" xlink:href="#k"/>
<g transform="translate(315 715) scale(.1 -.1)">
<use xlink:href="#c"/>
<use transform="translate(63.6)" xlink:href="#b"/>
<use transform="translate(127)" xlink:href="#c"/>
<use transform="translate(191)" xlink:href="#m"/>
<use transform="translate(254)" xlink:href="#f"/>
<use transform="translate(291)" xlink:href="#d"/>
<use transform="translate(354)" xlink:href="#b"/>
</g>
<path d="m454 700v-313" clip-path="url(#h)" fill="none" stroke="#b0b0b0" stroke-linecap="square" stroke-width=".8"/>
<use x="453.544834" y="700.321635" stroke="#000000" stroke-width=".8" xlink:href="#k"/>
<g transform="translate(433 715) scale(.1 -.1)">
<use xlink:href="#c"/>
<use transform="translate(63.6)" xlink:href="#b"/>
<use transform="translate(127)" xlink:href="#c"/>
<use transform="translate(191)" xlink:href="#m"/>
<use transform="translate(254)" xlink:href="#f"/>
<use transform="translate(291)" xlink:href="#d"/>
<use transform="translate(354)" xlink:href="#d"/>
</g>
<path d="m567 700v-313" clip-path="url(#h)" fill="none" stroke="#b0b0b0" stroke-linecap="square" stroke-width=".8"/>
<use x="567.496869" y="700.321635" stroke="#000000" stroke-width=".8" xlink:href="#k"/>
<g transform="translate(547 715) scale(.1 -.1)">
<use xlink:href="#c"/>
<use transform="translate(63.6)" xlink:href="#b"/>
<use transform="translate(127)" xlink:href="#c"/>
<use transform="translate(191)" xlink:href="#m"/>
<use transform="translate(254)" xlink:href="#f"/>
<use transform="translate(291)" xlink:href="#d"/>
<use transform="translate(354)" xlink:href="#c"/>
</g>
<path d="m685 700v-313" clip-path="url(#h)" fill="none" stroke="#b0b0b0" stroke-linecap="square" stroke-width=".8"/>
<use x="685.247305" y="700.321635" stroke="#000000" stroke-width=".8" xlink:href="#k"/>
<g transform="translate(664 715) scale(.1 -.1)">
<use xlink:href="#c"/>
<use transform="translate(63.6)" xlink:href="#b"/>
<use transform="translate(127)" xlink:href="#c"/>
<use transform="translate(191)" xlink:href="#l"/>
<use transform="translate(254)" xlink:href="#f"/>
<use transform="translate(291)" xlink:href="#b"/>
<use transform="translate(354)" xlink:href="#d"/>
</g>
<path d="m40.6 700h676" clip-path="url(#h)" fill="none" stroke="#b0b0b0" stroke-linecap="square" stroke-width=".8"/>
<use x="40.645553" y="700.321635" stroke="#000000" stroke-width=".8" xlink:href="#i"/>
<g transform="translate(3 704) scale(.1 -.1)">
<use xlink:href="#b"/>
<use transform="translate(63.6)" xlink:href="#e"/>
<use transform="translate(95.4)" xlink:href="#w"/>
<use transform="translate(159)" xlink:href="#b"/>
<use transform="translate(223)" xlink:href="#j"/>
</g>
<path d="m40.6 661h676" clip-path="url(#h)" fill="none" stroke="#b0b0b0" stroke-linecap="square" stroke-width=".8"/>
<use x="40.645553" y="661.222086" stroke="#000000" stroke-width=".8" xlink:href="#i"/>
<g transform="translate(3 665) scale(.1 -.1)">
<use xlink:href="#b"/>
<use transform="translate(63.6)" xlink:href="#e"/>
<use transform="translate(95.4)" xlink:href="#w"/>
<use transform="translate(159)" xlink:href="#l"/>
<use transform="translate(223)" xlink:href="#j"/>
</g>
<path d="m40.6 622h676" clip-path="url(#h)" fill="none" stroke="#b0b0b0" stroke-linecap="square" stroke-width=".8"/>
<use x="40.645553" y="622.122536" stroke="#000000" stroke-width=".8" xlink:href="#i"/>
<g transform="translate(3 626) scale(.1 -.1)">
<use xlink:href="#d"/>
<use transform="translate(63.6)" xlink:href="#e"/>
<use transform="translate(95.4)" xlink:href="#b"/>
<use transform="translate(159)" xlink:href="#b"/>
<use transform="translate(223)" xlink:href="#j"/>
</g>
<path d="m40.6 583h676" clip-path="url(#h)" fill="none" stroke="#b0b0b0" stroke-linecap="square" stroke-width=".8"/>
<use x="40.645553" y="583.022987" stroke="#000000" stroke-width=".8" xlink:href="#i"/>
<g transform="translate(3 587) scale(.1 -.1)">
<use xlink:href="#d"/>
<use transform="translate(63.6)" xlink:href="#e"/>
<use transform="translate(95.4)" xlink:href="#b"/>
<use transform="translate(159)" xlink:href="#l"/>
<use transform="translate(223)" xlink:href="#j"/>
</g>
<path d="m40.6 544h676" clip-path="url(#h)" fill="none" stroke="#b0b0b0" stroke-linecap="square" stroke-width=".8"/>
<use x="40.645553" y="543.923437" stroke="#000000" stroke-width=".8" xlink:href="#i"/>
<g transform="translate(3 548) scale(.1 -.1)">
<use xlink:href="#d"/>
<use transform="translate(63.6)" xlink:href="#e"/>
<use transform="translate(95.4)" xlink:href="#d"/>
<use transform="translate(159)" xlink:href="#b"/>
<use transform="translate(223)" xlink:href="#j"/>
</g>
<path d="m40.6 505h676" clip-path="url(#h)" fill="none" stroke="#b0b0b0" stroke-linecap="square" stroke-width=".8"/>
<use x="40.645553" y="504.823888" stroke="#000000" stroke-width=".8" xlink:href="#i"/>
<g transform="translate(3 509) scale(.1 -.1)">
<use xlink:href="#d"/>
<use transform="translate(63.6)" xlink:href="#e"/>
<use transform="translate(95.4)" xlink:href="#d"/>
<use transform="translate(159)" xlink:href="#l"/>
<use transform="translate(223)" xlink:href="#j"/>
</g>
<path d="m40.6 466h676" clip-path="url(#h)" fill="none" stroke="#b0b0b0" stroke-linecap="square" stroke-width=".8"/>
<use x="40.645553" y="465.724339" stroke="#000000" stroke-width=".8" xlink:href="#i"/>
<g transform="translate(3 470) scale(.1 -.1)">
<use xlink:href="#d"/>
<use transform="translate(63.6)" xlink:href="#e"/>
<use transform="translate(95.4)" xlink:href="#c"/>
<use transform="translate(159)" xlink:href="#b"/>
<use transform="translate(223)" xlink:href="#j"/>
</g>
<path d="m40.6 427h676" clip-path="url(#h)" fill="none" stroke="#b0b0b0" stroke-linecap="square" stroke-width=".8"/>
<use x="40.645553" y="426.624789" stroke="#000000" stroke-width=".8" xlink:href="#i"/>
<g transform="translate(3 430) scale(.1 -.1)">
<use xlink:href="#d"/>
<use transform="translate(63.6)" xlink:href="#e"/>
<use transform="translate(95.4)" xlink:href="#c"/>
<use transform="translate(159)" xlink:href="#l"/>
<use transform="translate(223)" xlink:href="#j"/>
</g>
<path d="m40.6 388h676" clip-path="url(#h)" fill="none" stroke="#b0b0b0" stroke-linecap="square" stroke-width=".8"/>
<use x="40.645553" y="387.52524" stroke="#000000" stroke-width=".8" xlink:href="#i"/>
<g transform="translate(3 391) scale(.1 -.1)">
<use xlink:href="#d"/>
<use transform="translate(63.6)" xlink:href="#e"/>
<use transform="translate(95.4)" xlink:href="#t"/>
<use transform="translate(159)" xlink:href="#b"/>
<use transform="translate(223)" xlink:href="#j"/>
</g>
<g stroke="#1f77b4" stroke-opacity=".9">
<path d="m71.4 614h18.1 27.1l14.9 7.82h0.0243 0.362l11.2-15.6 18.6 15.6h0.13 7.82l26.7-15.6h26.6l21.5 23.5 0.0426-7.82 0.845-7.82 3.69-31.3 26.5 15.6 22 15.6 21.5 7.82h0.0398 10.3 6.9 0.158 80.4 3.49l49.4 70.4 4.29-7.82 3.59-62.6h3.88 2.81 4.78 3.6 4.19 3.36 4.17 3.9 3.6 3.95 3.74 3.87 3.35 4.05l4.07-7.82 3.71-15.6 3.42 7.82 3.96-7.82 3.62-6.98 3.83 12.9 4.08-3.72 2.77 6.02 4.43-3.62 3.42-0.372 3.93-6.23 4.43-29.5 3.93-3.56 3.81 6.31 3.36 22.5 3.8-29 3.22-0.437 3.92-10.4 3.76 11.1 4.69 5.34 3.66 22.7 3.56-17.2 3.24-18.4 3.35 0.331 5.04 2.71 3.44 6.8 4.16 5.77 2.58-0.0353 5.08 4.61 3.17-0.114 7.49 16 4.16-10.3 3.35-14.4 3.67 10.8 4.46-12.5 3.84-27.2 3.63 11.3 3.96 8.25 3.6-11.5 3.88-3.19" clip-path="url(#h)" fill="none" stroke-linecap="square" stroke-width="1.5"/>
<g clip-path="url(#h)" fill="#1f77b4" fill-opacity=".9">
<use x="71.388926" y="614.302626" xlink:href="#a"/>
<use x="89.461841" y="614.302626" xlink:href="#a"/>
<use x="116.583876" y="614.302626" xlink:href="#a"/>
<use x="131.527332" y="622.122536" xlink:href="#a"/>
<use x="131.551643" y="622.122536" xlink:href="#a"/>
<use x="131.913239" y="622.122536" xlink:href="#a"/>
<use x="143.081681" y="606.482716" xlink:href="#a"/>
<use x="161.655335" y="622.122536" xlink:href="#a"/>
<use x="161.785641" y="622.122536" xlink:href="#a"/>
<use x="169.609337" y="622.122536" xlink:href="#a"/>
<use x="196.346959" y="606.482716" xlink:href="#a"/>
<use x="222.995293" y="606.482716" xlink:href="#a"/>
<use x="244.45371" y="629.942446" xlink:href="#a"/>
<use x="244.496354" y="622.122536" xlink:href="#a"/>
<use x="245.340971" y="614.302626" xlink:href="#a"/>
<use x="249.029772" y="583.022987" xlink:href="#a"/>
<use x="275.573694" y="598.662807" xlink:href="#a"/>
<use x="297.593606" y="614.302626" xlink:href="#a"/>
<use x="319.04789" y="622.122536" xlink:href="#a"/>
<use x="319.08772" y="622.122536" xlink:href="#a"/>
<use x="329.346921" y="622.122536" xlink:href="#a"/>
<use x="336.244843" y="622.122536" xlink:href="#a"/>
<use x="336.40289" y="622.122536" xlink:href="#a"/>
<use x="416.767651" y="622.122536" xlink:href="#a"/>
<use x="420.262312" y="622.122536" xlink:href="#a"/>
<use x="469.656782" y="692.501725" xlink:href="#a"/>
<use x="473.94515" y="684.681815" xlink:href="#a"/>
<use x="477.532177" y="622.122536" xlink:href="#a"/>
<use x="481.408173" y="622.122536" xlink:href="#a"/>
<use x="484.216528" y="622.122536" xlink:href="#a"/>
<use x="489.000623" y="622.122536" xlink:href="#a"/>
<use x="492.59697" y="622.122536" xlink:href="#a"/>
<use x="496.782422" y="622.122536" xlink:href="#a"/>
<use x="500.137676" y="622.122536" xlink:href="#a"/>
<use x="504.309235" y="622.122536" xlink:href="#a"/>
<use x="508.20708" y="622.122536" xlink:href="#a"/>
<use x="511.810945" y="622.122536" xlink:href="#a"/>
<use x="515.763217" y="622.122536" xlink:href="#a"/>
<use x="519.499015" y="622.122536" xlink:href="#a"/>
<use x="523.369999" y="622.122536" xlink:href="#a"/>
<use x="526.715493" y="622.122536" xlink:href="#a"/>
<use x="530.765275" y="622.122536" xlink:href="#a"/>
<use x="534.831103" y="614.302626" xlink:href="#a"/>
<use x="538.541578" y="598.662807" xlink:href="#a"/>
<use x="541.965854" y="606.482716" xlink:href="#a"/>
<use x="545.927314" y="598.662807" xlink:href="#a"/>
<use x="549.544192" y="591.679868" xlink:href="#a"/>
<use x="553.374466" y="604.6241" xlink:href="#a"/>
<use x="557.454582" y="600.906034" xlink:href="#a"/>
<use x="560.224909" y="606.92298" xlink:href="#a"/>
<use x="564.657696" y="603.301336" xlink:href="#a"/>
<use x="568.076257" y="602.9292" xlink:href="#a"/>
<use x="572.00602" y="596.701844" xlink:href="#a"/>
<use x="576.439994" y="567.242394" xlink:href="#a"/>
<use x="580.369272" y="563.677813" xlink:href="#a"/>
<use x="584.181082" y="569.983497" xlink:href="#a"/>
<use x="587.543239" y="592.470989" xlink:href="#a"/>
<use x="591.341728" y="563.483019" xlink:href="#a"/>
<use x="594.557048" y="563.04603" xlink:href="#a"/>
<use x="598.481711" y="552.692321" xlink:href="#a"/>
<use x="602.240018" y="563.792811" xlink:href="#a"/>
<use x="606.931439" y="569.131342" xlink:href="#a"/>
<use x="610.593863" y="591.801607" xlink:href="#a"/>
<use x="614.156622" y="574.635422" xlink:href="#a"/>
<use x="617.39643" y="556.208749" xlink:href="#a"/>
<use x="620.742584" y="556.539822" xlink:href="#a"/>
<use x="625.783906" y="559.246645" xlink:href="#a"/>
<use x="629.219833" y="566.047266" xlink:href="#a"/>
<use x="633.38106" y="571.815908" xlink:href="#a"/>
<use x="635.959137" y="571.78058" xlink:href="#a"/>
<use x="641.034707" y="576.394407" xlink:href="#a"/>
<use x="644.20602" y="576.280023" xlink:href="#a"/>
<use x="651.699377" y="592.32865" xlink:href="#a"/>
<use x="655.856604" y="582.040473" xlink:href="#a"/>
<use x="659.210979" y="567.645161" xlink:href="#a"/>
<use x="662.884394" y="578.429681" xlink:href="#a"/>
<use x="667.346328" y="565.91644" xlink:href="#a"/>
<use x="671.185351" y="538.750218" xlink:href="#a"/>
<use x="674.816385" y="550.058214" xlink:href="#a"/>
<use x="678.777361" y="558.312039" xlink:href="#a"/>
<use x="682.377577" y="546.842742" xlink:href="#a"/>
<use x="686.256387" y="543.653482" xlink:href="#a"/>
</g>
</g>
<g stroke="#1f77b4" stroke-opacity=".9">
<path d="m298 606v15.6l31.8-15.6h24.3l28.6 15.6h14.4 5.46 1.85 1.3 3.75 3.7 4.03 3.49 4.24 3.86 2.91 4.34 3.84 3.79 4.17 3.8 3.41 4.03 2.85 4.46 3.71 4.29 3.59 1.94 1.94 2.81 1.71 3.08 3.6 4.19 3.36 4.17 3.9 3.6 3.95 0.286 3.45 3.87 3.35 4.05l3.24 1.08 0.828-1.08h3.09 0.622 3.42 3.96l3.62 1.76 3.02-2.24 0.809 6.63 2.77-2.71 1.31-2.15 2.77-2.09 3.69 7.27 0.746-1.38 3.42-0.219 3.93-0.721 4.43-19.7 3.93 1.15 2.88-8.55 0.934 0.584 3.36 1.5 1.09 4.83 2.15-5.52 0.553 4.39 3.22-0.192 1.9-2.45 2.03-2.97 3.76 6.35 4.69-15.5 2.11-1.13 0.658 1.47 0.899-5.46 1.91 2.37 1.65 3.12 2.94-2.27 0.305-0.0714 3.35-0.151 5.04-2.73 3.44-0.781 4.16 2.78 1.1 1.82 1.48 5.25 5.08-6.93 3.17-2.93 7.49-4.61 4.16 5.27 3.35 1.77 3.67-9.4 4.46 4.11 3.84-0.63 3.63 0.611 3.96-3.88 3.6 4.41 3.88-7.68" clip-path="url(#h)" fill="none" stroke-dasharray="1.5,2.475" stroke-width="1.5"/>
<g clip-path="url(#h)" fill="#1f77b4" fill-opacity=".9">
<use x="297.593606" y="606.482716" xlink:href="#a"/>
<use x="297.593606" y="622.122536" xlink:href="#a"/>
<use x="329.346921" y="606.482716" xlink:href="#a"/>
<use x="353.669921" y="606.482716" xlink:href="#a"/>
<use x="382.318087" y="622.122536" xlink:href="#a"/>
<use x="396.672438" y="622.122536" xlink:href="#a"/>
<use x="402.130749" y="622.122536" xlink:href="#a"/>
<use x="403.984888" y="622.122536" xlink:href="#a"/>
<use x="405.287203" y="622.122536" xlink:href="#a"/>
<use x="409.037465" y="622.122536" xlink:href="#a"/>
<use x="412.733168" y="622.122536" xlink:href="#a"/>
<use x="416.767651" y="622.122536" xlink:href="#a"/>
<use x="420.262312" y="622.122536" xlink:href="#a"/>
<use x="424.497397" y="622.122536" xlink:href="#a"/>
<use x="428.35739" y="622.122536" xlink:href="#a"/>
<use x="431.26919" y="622.122536" xlink:href="#a"/>
<use x="435.609303" y="622.122536" xlink:href="#a"/>
<use x="439.448018" y="622.122536" xlink:href="#a"/>
<use x="443.239825" y="622.122536" xlink:href="#a"/>
<use x="447.407207" y="622.122536" xlink:href="#a"/>
<use x="451.204114" y="622.122536" xlink:href="#a"/>
<use x="454.611992" y="622.122536" xlink:href="#a"/>
<use x="458.638297" y="622.122536" xlink:href="#a"/>
<use x="461.487713" y="622.122536" xlink:href="#a"/>
<use x="465.949824" y="622.122536" xlink:href="#a"/>
<use x="469.656782" y="622.122536" xlink:href="#a"/>
<use x="473.94515" y="622.122536" xlink:href="#a"/>
<use x="477.532177" y="622.122536" xlink:href="#a"/>
<use x="479.470109" y="622.122536" xlink:href="#a"/>
<use x="481.408173" y="622.122536" xlink:href="#a"/>
<use x="484.216528" y="622.122536" xlink:href="#a"/>
<use x="485.925017" y="622.122536" xlink:href="#a"/>
<use x="489.000623" y="622.122536" xlink:href="#a"/>
<use x="492.59697" y="622.122536" xlink:href="#a"/>
<use x="496.782422" y="622.122536" xlink:href="#a"/>
<use x="500.137676" y="622.122536" xlink:href="#a"/>
<use x="504.309235" y="622.122536" xlink:href="#a"/>
<use x="508.20708" y="622.122536" xlink:href="#a"/>
<use x="511.810945" y="622.122536" xlink:href="#a"/>
<use x="515.763217" y="622.122536" xlink:href="#a"/>
<use x="516.04968" y="622.122536" xlink:href="#a"/>
<use x="519.499015" y="622.122536" xlink:href="#a"/>
<use x="523.369999" y="622.122536" xlink:href="#a"/>
<use x="526.715493" y="622.122536" xlink:href="#a"/>
<use x="530.765275" y="622.122536" xlink:href="#a"/>
<use x="534.00328" y="623.200972" xlink:href="#a"/>
<use x="534.831103" y="622.122536" xlink:href="#a"/>
<use x="537.919678" y="622.122536" xlink:href="#a"/>
<use x="538.541578" y="622.122536" xlink:href="#a"/>
<use x="541.965854" y="622.122536" xlink:href="#a"/>
<use x="545.927314" y="622.122536" xlink:href="#a"/>
<use x="549.544192" y="623.878193" xlink:href="#a"/>
<use x="552.565855" y="621.641085" xlink:href="#a"/>
<use x="553.374466" y="628.271427" xlink:href="#a"/>
<use x="556.140749" y="625.564859" xlink:href="#a"/>
<use x="557.454582" y="623.416581" xlink:href="#a"/>
<use x="560.224909" y="621.325225" xlink:href="#a"/>
<use x="563.911249" y="628.597474" xlink:href="#a"/>
<use x="564.657696" y="627.219937" xlink:href="#a"/>
<use x="568.076257" y="627.000651" xlink:href="#a"/>
<use x="572.00602" y="626.279279" xlink:href="#a"/>
<use x="576.439994" y="606.559551" xlink:href="#a"/>
<use x="580.369272" y="607.71141" xlink:href="#a"/>
<use x="583.246649" y="599.162446" xlink:href="#a"/>
<use x="584.181082" y="599.746843" xlink:href="#a"/>
<use x="587.543239" y="601.251225" xlink:href="#a"/>
<use x="588.633521" y="606.083589" xlink:href="#a"/>
<use x="590.788454" y="600.56511" xlink:href="#a"/>
<use x="591.341728" y="604.954554" xlink:href="#a"/>
<use x="594.557048" y="604.762565" xlink:href="#a"/>
<use x="596.452732" y="602.317455" xlink:href="#a"/>
<use x="598.481711" y="599.347315" xlink:href="#a"/>
<use x="602.240018" y="605.696901" xlink:href="#a"/>
<use x="606.931439" y="590.234359" xlink:href="#a"/>
<use x="609.037441" y="589.108605" xlink:href="#a"/>
<use x="609.695084" y="590.579732" xlink:href="#a"/>
<use x="610.593863" y="585.121192" xlink:href="#a"/>
<use x="612.503526" y="587.492718" xlink:href="#a"/>
<use x="614.156622" y="590.61317" xlink:href="#a"/>
<use x="617.091766" y="588.343965" xlink:href="#a"/>
<use x="617.39643" y="588.272547" xlink:href="#a"/>
<use x="620.742584" y="588.121622" xlink:href="#a"/>
<use x="625.783906" y="585.390592" xlink:href="#a"/>
<use x="629.219833" y="584.609411" xlink:href="#a"/>
<use x="633.38106" y="587.391485" xlink:href="#a"/>
<use x="634.481322" y="589.207309" xlink:href="#a"/>
<use x="635.959137" y="594.454251" xlink:href="#a"/>
<use x="641.034707" y="587.525486" xlink:href="#a"/>
<use x="644.20602" y="584.591801" xlink:href="#a"/>
<use x="651.699377" y="579.982205" xlink:href="#a"/>
<use x="655.856604" y="585.250107" xlink:href="#a"/>
<use x="659.210979" y="587.017958" xlink:href="#a"/>
<use x="662.884394" y="577.61491" xlink:href="#a"/>
<use x="667.346328" y="581.721627" xlink:href="#a"/>
<use x="671.185351" y="581.09147" xlink:href="#a"/>
<use x="674.816385" y="581.702812" xlink:href="#a"/>
<use x="678.777361" y="577.818605" xlink:href="#a"/>
<use x="682.377577" y="582.22792" xlink:href="#a"/>
<use x="686.256387" y="574.544231" xlink:href="#a"/>
</g>
</g>
<path d="m40.6 700v-313" fill="none" stroke="#000" stroke-linecap="square" stroke-width=".8"/>
<path d="m717 700v-313" fill="none" stroke="#000" stroke-linecap="square" stroke-width=".8"/>
<path d="m40.6 700h676" fill="none" stroke="#000" stroke-linecap="square" stroke-width=".8"/>
<path d="m40.6 388h676" fill="none" stroke="#000" stroke-linecap="square" stroke-width=".8"/>
<path d="m71.8 605-0.349 7.35" fill="none" stroke="#888" stroke-linecap="round"/>
<g transform="translate(74.5 601) rotate(-90) scale(.08 -.08)" fill="#888">
<use xlink:href="#aa"/>
<use transform="translate(61.3)" xlink:href="#b"/>
</g>
<g clip-path="url(#h)">
<g transform="translate(58.2 614) rotate(-90) scale(.1 -.1)">
<use xlink:href="#ab"/>
<use transform="translate(35.2)" xlink:href="#aa"/>
<use transform="translate(96.5)" xlink:href="#y"/>
<use transform="translate(149)" xlink:href="#p"/>
<use transform="translate(188)" xlink:href="#s"/>
<use transform="translate(249)" xlink:href="#n"/>
<use transform="translate(290)" xlink:href="#DejaVuSans-20"/>
<use transform="translate(322)" xlink:href="#am"/>
</g>
</g>
<g clip-path="url(#h)">
<g transform="translate(58.2 682) rotate(-90) scale(.1 -.1)">
<use xlink:href="#an"/>
<use transform="translate(143)" xlink:href="#DejaVuSans-20"/>
<use transform="translate(175)" xlink:href="#y"/>
<use transform="translate(227)" xlink:href="#r"/>
<use transform="translate(255)" xlink:href="#q"/>
<use transform="translate(316)" xlink:href="#ai"/>
<use transform="translate(398)" xlink:href="#s"/>
<use transform="translate(460)" xlink:href="#n"/>
</g>
</g>
<g transform="translate(296 382) scale(.12 -.12)">
<use xlink:href="#af"/>
<use transform="translate(60.3)" xlink:href="#ad"/>
<use transform="translate(119)" xlink:href="#p"/>
<use transform="translate(159)" xlink:href="#aj"/>
<use transform="translate(222)" xlink:href="#q"/>
<use transform="translate(283)" xlink:href="#o"/>
<use transform="translate(347)" xlink:href="#DejaVuSans-20"/>
<use transform="translate(378)" xlink:href="#t"/>
<use transform="translate(442)" xlink:href="#e"/>
<use transform="translate(474)" xlink:href="#d"/>
<use transform="translate(537)" xlink:href="#m"/>
<use transform="translate(601)" xlink:href="#e"/>
<use transform="translate(633)" xlink:href="#x"/>
<use transform="translate(692)" xlink:href="#DejaVuSans-20"/>
<use transform="translate(724)" xlink:href="#z"/>
<use transform="translate(783)" xlink:href="#y"/>
<use transform="translate(835)" xlink:href="#e"/>
<use transform="translate(867)" xlink:href="#DejaVuSans-20"/>
<use transform="translate(899)" xlink:href="#t"/>
<use transform="translate(962)" xlink:href="#e"/>
<use transform="translate(994)" xlink:href="#d"/>
<use transform="translate(1058)" xlink:href="#t"/>
<use transform="translate(1121)" xlink:href="#e"/>
<use transform="translate(1153)" xlink:href="#b"/>
<use transform="translate(1217)" xlink:href="#n"/>
<use transform="translate(1256)" xlink:href="#ac"/>
<use transform="translate(1311)" xlink:href="#c"/>
</g>
<path d="m47.6 425h82.6q2 0 2-2v-28.4q0-2-2-2h-82.6q-2 0-2 2v28.4q0 2 2 2z" fill="#fff" opacity=".8" stroke="#ccc"/>
<path d="m49.6 401h10 10" fill="none" stroke="#1f77b4" stroke-linecap="square" stroke-opacity=".9" stroke-width="1.5"/>
<use x="59.645553" y="400.623678" fill="#1f77b4" fill-opacity=".9" stroke="#1f77b4" stroke-opacity=".9" xlink:href="#a"/>
<g transform="translate(77.6 404) scale(.1 -.1)">
<use xlink:href="#r"/>
<use transform="translate(27.8)" xlink:href="#v"/>
<use transform="translate(55.6)" xlink:href="#o"/>
<use transform="translate(119)" xlink:href="#u"/>
<use transform="translate(182)" xlink:href="#x"/>
</g>
<path d="m49.6 415h10 10" fill="none" stroke="#1f77b4" stroke-dasharray="1.5,2.475" stroke-opacity=".9" stroke-width="1.5"/>
<use x="59.645553" y="415.301803" fill="#1f77b4" fill-opacity=".9" stroke="#1f77b4" stroke-opacity=".9" xlink:href="#a"/>
<g transform="translate(77.6 419) scale(.1 -.1)">
<use xlink:href="#r"/>
<use transform="translate(27.8)" xlink:href="#v"/>
<use transform="translate(55.6)" xlink:href="#o"/>
<use transform="translate(119)" xlink:href="#u"/>
<use transform="translate(182)" xlink:href="#x"/>
<use transform="translate(242)" xlink:href="#f"/>
<use transform="translate(275)" xlink:href="#z"/>
<use transform="translate(334)" xlink:href="#u"/>
<use transform="translate(398)" xlink:href="#r"/>
<use transform="translate(425)" xlink:href="#p"/>
<use transform="translate(465)" xlink:href="#n"/>
</g>
<g transform="translate(229 12.1) scale(.12 -.12)">
<defs>
<path id="ae" transform="scale(.0156)" d="m3328 2828q216 388 516 572t706 184q547 0 844-383 297-382 297-1088v-2113h-578v2094q0 503-179 746-178 244-543 244-447 0-707-297-259-296-259-809v-1978h-578v2094q0 506-178 748t-550 242q-441 0-701-298-259-298-259-808v-1978h-578v3500h578v-544q197 322 472 475t653 153q382 0 649-194 267-193 395-562z"/>
<path id="ao" transform="scale(.0156)" d="m1159 525v-1856h-578v4831h578v-531q182 312 458 463 277 152 661 152 638 0 1036-506 399-506 399-1331t-399-1332q-398-506-1036-506-384 0-661 152-276 152-458 464zm1957 1222q0 634-261 995t-717 361q-457 0-718-361t-261-995 261-995 718-361q456 0 717 361t261 995z"/>
<path id="ap" transform="scale(.0156)" d="m2906 1791q0 625-258 968-257 344-723 344-462 0-720-344-258-343-258-968 0-622 258-966t720-344q466 0 723 344 258 344 258 966zm575-1357q0-893-397-1329-396-436-1215-436-303 0-572 45t-522 139v559q253-137 500-202 247-66 503-66 566 0 847 295t281 892v285q-178-310-456-463t-666-153q-643 0-1037 490-394 491-394 1301 0 812 394 1302 394 491 1037 491 388 0 666-153t456-462v531h575v-3066z"/>
</defs>
<use xlink:href="#af"/>
<use transform="translate(56.7)" xlink:href="#s"/>
<use transform="translate(118)" xlink:href="#n"/>
<use transform="translate(159)" xlink:href="#ab"/>
<use transform="translate(195)" xlink:href="#q"/>
<use transform="translate(256)" xlink:href="#n"/>
<use transform="translate(295)" xlink:href="#ae"/>
<use transform="translate(392)" xlink:href="#aa"/>
<use transform="translate(454)" xlink:href="#o"/>
<use transform="translate(517)" xlink:href="#ac"/>
<use transform="translate(572)" xlink:href="#s"/>
<use transform="translate(634)" xlink:href="#DejaVuSans-20"/>
<use transform="translate(665)" xlink:href="#v"/>
<use transform="translate(693)" xlink:href="#ae"/>
<use transform="translate(791)" xlink:href="#ao"/>
<use transform="translate(854)" xlink:href="#n"/>
<use transform="translate(893)" xlink:href="#q"/>
<use transform="translate(954)" xlink:href="#z"/>
<use transform="translate(1013)" xlink:href="#s"/>
<use transform="translate(1075)" xlink:href="#ae"/>
<use transform="translate(1172)" xlink:href="#s"/>
<use transform="translate(1234)" xlink:href="#o"/>
<use transform="translate(1297)" xlink:href="#p"/>
<use transform="translate(1336)" xlink:href="#DejaVuSans-20"/>
<use transform="translate(1368)" xlink:href="#ak"/>
<use transform="translate(1432)" xlink:href="#ad"/>
<use transform="translate(1491)" xlink:href="#DejaVuSans-20"/>
<use transform="translate(1523)" xlink:href="#ac"/>
<use transform="translate(1578)" xlink:href="#q"/>
<use transform="translate(1639)" xlink:href="#o"/>
<use transform="translate(1702)" xlink:href="#ab"/>
<use transform="translate(1737)" xlink:href="#v"/>
<use transform="translate(1765)" xlink:href="#ap"/>
<use transform="translate(1829)" xlink:href="#u"/>
<use transform="translate(1892)" xlink:href="#n"/>
<use transform="translate(1933)" xlink:href="#aa"/>
<use transform="translate(1994)" xlink:href="#p"/>
<use transform="translate(2034)" xlink:href="#v"/>
<use transform="translate(2061)" xlink:href="#q"/>
<use transform="translate(2123)" xlink:href="#o"/>
</g>
<defs>
<clipPath id="g">
<rect x="40.6" y="35.7" width="676" height="313"/>
</clipPath>
<clipPath id="h">
<rect x="40.6" y="388" width="676" height="313"/>
</clipPath>
</defs>
</svg>
