<?xml version="1.0" encoding="UTF-8"?>
<!DOCTYPE svg  PUBLIC '-//W3C//DTD SVG 1.1//EN'  'http://www.w3.org/Graphics/SVG/1.1/DTD/svg11.dtd'>
<svg width="720pt" height="720pt" version="1.1" viewBox="0 0 720 720" xmlns="http://www.w3.org/2000/svg" xmlns:xlink="http://www.w3.org/1999/xlink">
<defs>
<style type="text/css">*{stroke-linejoin: round; stroke-linecap: butt}</style>
</defs>
<path d="m0 720h720v-720h-720z" fill="#fff"/>
<path d="m40.6 349h676v-313h-676z" fill="#fff"/>
<path d="m101 349v-313" clip-path="url(#g)" fill="none" stroke="#b0b0b0" stroke-linecap="square" stroke-width=".8"/>
<defs>
<path id="i" d="m0 0v3.5" stroke="#000" stroke-width=".8"/>
</defs>
<use x="100.952813" y="348.52899" stroke="#000000" stroke-width=".8" xlink:href="#i"/>
<g transform="translate(71.9 363) scale(.1 -.1)">
<defs>
<path id="c" transform="scale(.0156)" d="m1228 531h2203v-531h-2962v531q359 372 979 998 621 627 780 809 303 340 423 576 121 236 121 464 0 372-261 606-261 235-680 235-297 0-627-103-329-103-704-313v638q381 153 712 231 332 78 607 78 725 0 1156-363 431-362 431-968 0-288-108-546-107-257-392-607-78-91-497-524-418-433-1181-1211z"/>
<path id="b" transform="scale(.0156)" d="m2034 4250q-487 0-733-480-245-479-245-1442 0-959 245-1439 246-480 733-480 491 0 736 480 246 480 246 1439 0 963-246 1442-245 480-736 480zm0 500q785 0 1199-621 414-620 414-1801 0-1178-414-1799-414-620-1199-620-784 0-1198 620-414 621-414 1799 0 1181 414 1801 414 621 1198 621z"/>
<path id="j" transform="scale(.0156)" d="m2419 4116-1594-2491h1594v2491zm-166 550h794v-3041h666v-525h-666v-1100h-628v1100h-2106v609l1940 2957z"/>
<path id="e" transform="scale(.0156)" d="m313 2009h1684v-512h-1684v512z"/>
<path id="m" transform="scale(.0156)" d="m691 4666h2478v-532h-1900v-1143q137 47 274 70 138 23 276 23 781 0 1237-428 457-428 457-1159 0-753-469-1171-469-417-1322-417-294 0-599 50-304 50-629 150v635q281-153 581-228t634-75q541 0 856 284 316 284 316 772 0 487-316 771-315 285-856 285-253 0-505-56-251-56-513-175v2344z"/>
<path id="d" transform="scale(.0156)" d="m794 531h1031v3560l-1122-225v575l1116 225h631v-4135h1031v-531h-2687v531z"/>
</defs>
<use xlink:href="#c"/>
<use transform="translate(63.6)" xlink:href="#b"/>
<use transform="translate(127)" xlink:href="#c"/>
<use transform="translate(191)" xlink:href="#j"/>
<use transform="translate(254)" xlink:href="#e"/>
<use transform="translate(291)" xlink:href="#b"/>
<use transform="translate(354)" xlink:href="#m"/>
<use transform="translate(418)" xlink:href="#e"/>
<use transform="translate(454)" xlink:href="#d"/>
<use transform="translate(518)" xlink:href="#m"/>
</g>
<path d="m178 349v-313" clip-path="url(#g)" fill="none" stroke="#b0b0b0" stroke-linecap="square" stroke-width=".8"/>
<use x="177.952914" y="348.52899" stroke="#000000" stroke-width=".8" xlink:href="#i"/>
<g transform="translate(149 363) scale(.1 -.1)">
<defs>
<path id="ae" transform="scale(.0156)" d="m2113 2584q-425 0-674-291-248-290-248-796 0-503 248-796 249-292 674-292t673 292q248 293 248 796 0 506-248 796-248 291-673 291zm1253 1979v-575q-238 112-480 171-242 60-480 60-625 0-955-422-329-422-376-1275 184 272 462 417 279 145 613 145 703 0 1111-427 408-426 408-1160 0-719-425-1154-425-434-1131-434-810 0-1238 620-428 621-428 1799 0 1106 525 1764t1409 658q238 0 480-47t505-140z"/>
</defs>
<use xlink:href="#c"/>
<use transform="translate(63.6)" xlink:href="#b"/>
<use transform="translate(127)" xlink:href="#c"/>
<use transform="translate(191)" xlink:href="#j"/>
<use transform="translate(254)" xlink:href="#e"/>
<use transform="translate(291)" xlink:href="#b"/>
<use transform="translate(354)" xlink:href="#ae"/>
<use transform="translate(418)" xlink:href="#e"/>
<use transform="translate(454)" xlink:href="#b"/>
<use transform="translate(518)" xlink:href="#d"/>
</g>
<path d="m241 349v-313" clip-path="url(#g)" fill="none" stroke="#b0b0b0" stroke-linecap="square" stroke-width=".8"/>
<use x="241.364762" y="348.52899" stroke="#000000" stroke-width=".8" xlink:href="#i"/>
<g transform="translate(212 363) scale(.1 -.1)">
<use xlink:href="#c"/>
<use transform="translate(63.6)" xlink:href="#b"/>
<use transform="translate(127)" xlink:href="#c"/>
<use transform="translate(191)" xlink:href="#j"/>
<use transform="translate(254)" xlink:href="#e"/>
<use transform="translate(291)" xlink:href="#b"/>
<use transform="translate(354)" xlink:href="#ae"/>
<use transform="translate(418)" xlink:href="#e"/>
<use transform="translate(454)" xlink:href="#d"/>
<use transform="translate(518)" xlink:href="#m"/>
</g>
<path d="m314 349v-313" clip-path="url(#g)" fill="none" stroke="#b0b0b0" stroke-linecap="square" stroke-width=".8"/>
<use x="313.835446" y="348.52899" stroke="#000000" stroke-width=".8" xlink:href="#i"/>
<g transform="translate(285 363) scale(.1 -.1)">
<defs>
<path id="al" transform="scale(.0156)" d="m525 4666h3e3v-269l-1694-4397h-659l1594 4134h-2241v532z"/>
</defs>
<use xlink:href="#c"/>
<use transform="translate(63.6)" xlink:href="#b"/>
<use transform="translate(127)" xlink:href="#c"/>
<use transform="translate(191)" xlink:href="#j"/>
<use transform="translate(254)" xlink:href="#e"/>
<use transform="translate(291)" xlink:href="#b"/>
<use transform="translate(354)" xlink:href="#al"/>
<use transform="translate(418)" xlink:href="#e"/>
<use transform="translate(454)" xlink:href="#b"/>
<use transform="translate(518)" xlink:href="#d"/>
</g>
<path d="m377 349v-313" clip-path="url(#g)" fill="none" stroke="#b0b0b0" stroke-linecap="square" stroke-width=".8"/>
<use x="377.247294" y="348.52899" stroke="#000000" stroke-width=".8" xlink:href="#i"/>
<g transform="translate(348 363) scale(.1 -.1)">
<use xlink:href="#c"/>
<use transform="translate(63.6)" xlink:href="#b"/>
<use transform="translate(127)" xlink:href="#c"/>
<use transform="translate(191)" xlink:href="#j"/>
<use transform="translate(254)" xlink:href="#e"/>
<use transform="translate(291)" xlink:href="#b"/>
<use transform="translate(354)" xlink:href="#al"/>
<use transform="translate(418)" xlink:href="#e"/>
<use transform="translate(454)" xlink:href="#d"/>
<use transform="translate(518)" xlink:href="#m"/>
</g>
<path d="m454 349v-313" clip-path="url(#g)" fill="none" stroke="#b0b0b0" stroke-linecap="square" stroke-width=".8"/>
<use x="454.247396" y="348.52899" stroke="#000000" stroke-width=".8" xlink:href="#i"/>
<g transform="translate(425 363) scale(.1 -.1)">
<defs>
<path id="ad" transform="scale(.0156)" d="m2034 2216q-450 0-708-241-257-241-257-662 0-422 257-663 258-241 708-241t709 242q260 243 260 662 0 421-258 662-257 241-711 241zm-631 268q-406 100-633 378-226 279-226 679 0 559 398 884 399 325 1092 325 697 0 1094-325t397-884q0-400-227-679-226-278-629-378 456-106 710-416 255-309 255-755 0-679-414-1042-414-362-1186-362-771 0-1186 362-414 363-414 1042 0 446 256 755 257 310 713 416zm-231 997q0-362 226-565 227-203 636-203 407 0 636 203 230 203 230 565 0 363-230 566-229 203-636 203-409 0-636-203-226-203-226-566z"/>
</defs>
<use xlink:href="#c"/>
<use transform="translate(63.6)" xlink:href="#b"/>
<use transform="translate(127)" xlink:href="#c"/>
<use transform="translate(191)" xlink:href="#j"/>
<use transform="translate(254)" xlink:href="#e"/>
<use transform="translate(291)" xlink:href="#b"/>
<use transform="translate(354)" xlink:href="#ad"/>
<use transform="translate(418)" xlink:href="#e"/>
<use transform="translate(454)" xlink:href="#b"/>
<use transform="translate(518)" xlink:href="#d"/>
</g>
<path d="m518 349v-313" clip-path="url(#g)" fill="none" stroke="#b0b0b0" stroke-linecap="square" stroke-width=".8"/>
<use x="517.659244" y="348.52899" stroke="#000000" stroke-width=".8" xlink:href="#i"/>
<g transform="translate(489 363) scale(.1 -.1)">
<use xlink:href="#c"/>
<use transform="translate(63.6)" xlink:href="#b"/>
<use transform="translate(127)" xlink:href="#c"/>
<use transform="translate(191)" xlink:href="#j"/>
<use transform="translate(254)" xlink:href="#e"/>
<use transform="translate(291)" xlink:href="#b"/>
<use transform="translate(354)" xlink:href="#ad"/>
<use transform="translate(418)" xlink:href="#e"/>
<use transform="translate(454)" xlink:href="#d"/>
<use transform="translate(518)" xlink:href="#m"/>
</g>
<path d="m595 349v-313" clip-path="url(#g)" fill="none" stroke="#b0b0b0" stroke-linecap="square" stroke-width=".8"/>
<use x="594.659346" y="348.52899" stroke="#000000" stroke-width=".8" xlink:href="#i"/>
<g transform="translate(566 363) scale(.1 -.1)">
<defs>
<path id="aa" transform="scale(.0156)" d="m703 97v575q238-113 481-172 244-59 479-59 625 0 954 420 330 420 377 1277-181-269-460-413-278-144-615-144-700 0-1108 423-408 424-408 1159 0 718 425 1152 425 435 1131 435 810 0 1236-621 427-620 427-1801 0-1103-524-1761-523-658-1407-658-238 0-482 47-243 47-506 141zm1256 1978q425 0 673 290 249 291 249 798 0 503-249 795-248 292-673 292t-673-292-248-795q0-507 248-798 248-290 673-290z"/>
</defs>
<use xlink:href="#c"/>
<use transform="translate(63.6)" xlink:href="#b"/>
<use transform="translate(127)" xlink:href="#c"/>
<use transform="translate(191)" xlink:href="#j"/>
<use transform="translate(254)" xlink:href="#e"/>
<use transform="translate(291)" xlink:href="#b"/>
<use transform="translate(354)" xlink:href="#aa"/>
<use transform="translate(418)" xlink:href="#e"/>
<use transform="translate(454)" xlink:href="#b"/>
<use transform="translate(518)" xlink:href="#d"/>
</g>
<path d="m658 349v-313" clip-path="url(#g)" fill="none" stroke="#b0b0b0" stroke-linecap="square" stroke-width=".8"/>
<use x="658.071194" y="348.52899" stroke="#000000" stroke-width=".8" xlink:href="#i"/>
<g transform="translate(629 363) scale(.1 -.1)">
<use xlink:href="#c"/>
<use transform="translate(63.6)" xlink:href="#b"/>
<use transform="translate(127)" xlink:href="#c"/>
<use transform="translate(191)" xlink:href="#j"/>
<use transform="translate(254)" xlink:href="#e"/>
<use transform="translate(291)" xlink:href="#b"/>
<use transform="translate(354)" xlink:href="#aa"/>
<use transform="translate(418)" xlink:href="#e"/>
<use transform="translate(454)" xlink:href="#d"/>
<use transform="translate(518)" xlink:href="#m"/>
</g>
<path d="m40.6 349h676" clip-path="url(#g)" fill="none" stroke="#b0b0b0" stroke-linecap="square" stroke-width=".8"/>
<defs>
<path id="k" d="m0 0h-3.5" stroke="#000" stroke-width=".8"/>
</defs>
<use x="40.645553" y="348.52899" stroke="#000000" stroke-width=".8" xlink:href="#k"/>
<g transform="translate(3 352) scale(.1 -.1)">
<defs>
<path id="f" transform="scale(.0156)" d="m684 794h660v-794h-660v794z"/>
<path id="l" transform="scale(.0156)" d="m4488 3438-1429-1435 1429-1428-372-378-1435 1434-1434-1434-369 378 1425 1428-1425 1435 369 378 1434-1435 1435 1435 372-378z"/>
</defs>
<use xlink:href="#b"/>
<use transform="translate(63.6)" xlink:href="#f"/>
<use transform="translate(95.4)" xlink:href="#aa"/>
<use transform="translate(159)" xlink:href="#b"/>
<use transform="translate(223)" xlink:href="#l"/>
</g>
<path d="m40.6 309h676" clip-path="url(#g)" fill="none" stroke="#b0b0b0" stroke-linecap="square" stroke-width=".8"/>
<use x="40.645553" y="309.429441" stroke="#000000" stroke-width=".8" xlink:href="#k"/>
<g transform="translate(3 313) scale(.1 -.1)">
<use xlink:href="#b"/>
<use transform="translate(63.6)" xlink:href="#f"/>
<use transform="translate(95.4)" xlink:href="#aa"/>
<use transform="translate(159)" xlink:href="#m"/>
<use transform="translate(223)" xlink:href="#l"/>
</g>
<path d="m40.6 270h676" clip-path="url(#g)" fill="none" stroke="#b0b0b0" stroke-linecap="square" stroke-width=".8"/>
<use x="40.645553" y="270.329891" stroke="#000000" stroke-width=".8" xlink:href="#k"/>
<g transform="translate(3 274) scale(.1 -.1)">
<use xlink:href="#d"/>
<use transform="translate(63.6)" xlink:href="#f"/>
<use transform="translate(95.4)" xlink:href="#b"/>
<use transform="translate(159)" xlink:href="#b"/>
<use transform="translate(223)" xlink:href="#l"/>
</g>
<path d="m40.6 231h676" clip-path="url(#g)" fill="none" stroke="#b0b0b0" stroke-linecap="square" stroke-width=".8"/>
<use x="40.645553" y="231.230342" stroke="#000000" stroke-width=".8" xlink:href="#k"/>
<g transform="translate(3 235) scale(.1 -.1)">
<use xlink:href="#d"/>
<use transform="translate(63.6)" xlink:href="#f"/>
<use transform="translate(95.4)" xlink:href="#b"/>
<use transform="translate(159)" xlink:href="#m"/>
<use transform="translate(223)" xlink:href="#l"/>
</g>
<path d="m40.6 192h676" clip-path="url(#g)" fill="none" stroke="#b0b0b0" stroke-linecap="square" stroke-width=".8"/>
<use x="40.645553" y="192.130792" stroke="#000000" stroke-width=".8" xlink:href="#k"/>
<g transform="translate(3 196) scale(.1 -.1)">
<use xlink:href="#d"/>
<use transform="translate(63.6)" xlink:href="#f"/>
<use transform="translate(95.4)" xlink:href="#d"/>
<use transform="translate(159)" xlink:href="#b"/>
<use transform="translate(223)" xlink:href="#l"/>
</g>
<path d="m40.6 153h676" clip-path="url(#g)" fill="none" stroke="#b0b0b0" stroke-linecap="square" stroke-width=".8"/>
<use x="40.645553" y="153.031243" stroke="#000000" stroke-width=".8" xlink:href="#k"/>
<g transform="translate(3 157) scale(.1 -.1)">
<use xlink:href="#d"/>
<use transform="translate(63.6)" xlink:href="#f"/>
<use transform="translate(95.4)" xlink:href="#d"/>
<use transform="translate(159)" xlink:href="#m"/>
<use transform="translate(223)" xlink:href="#l"/>
</g>
<path d="m40.6 114h676" clip-path="url(#g)" fill="none" stroke="#b0b0b0" stroke-linecap="square" stroke-width=".8"/>
<use x="40.645553" y="113.931694" stroke="#000000" stroke-width=".8" xlink:href="#k"/>
<g transform="translate(3 118) scale(.1 -.1)">
<use xlink:href="#d"/>
<use transform="translate(63.6)" xlink:href="#f"/>
<use transform="translate(95.4)" xlink:href="#c"/>
<use transform="translate(159)" xlink:href="#b"/>
<use transform="translate(223)" xlink:href="#l"/>
</g>
<path d="m40.6 74.8h676" clip-path="url(#g)" fill="none" stroke="#b0b0b0" stroke-linecap="square" stroke-width=".8"/>
<use x="40.645553" y="74.832144" stroke="#000000" stroke-width=".8" xlink:href="#k"/>
<g transform="translate(3 78.6) scale(.1 -.1)">
<use xlink:href="#d"/>
<use transform="translate(63.6)" xlink:href="#f"/>
<use transform="translate(95.4)" xlink:href="#c"/>
<use transform="translate(159)" xlink:href="#m"/>
<use transform="translate(223)" xlink:href="#l"/>
</g>
<path d="m40.6 35.7h676" clip-path="url(#g)" fill="none" stroke="#b0b0b0" stroke-linecap="square" stroke-width=".8"/>
<use x="40.645553" y="35.732595" stroke="#000000" stroke-width=".8" xlink:href="#k"/>
<g transform="translate(3 39.5) scale(.1 -.1)">
<defs>
<path id="t" transform="scale(.0156)" d="m2597 2516q453-97 707-404 255-306 255-756 0-690-475-1069-475-378-1350-378-293 0-604 58t-642 174v609q262-153 574-231 313-78 654-78 593 0 904 234t311 681q0 413-289 645-289 233-804 233h-544v519h569q465 0 712 186t247 536q0 359-255 551-254 193-729 193-260 0-557-57-297-56-653-174v562q360 100 674 150t592 50q719 0 1137-327 419-326 419-882 0-388-222-655t-631-370z"/>
</defs>
<use xlink:href="#d"/>
<use transform="translate(63.6)" xlink:href="#f"/>
<use transform="translate(95.4)" xlink:href="#t"/>
<use transform="translate(159)" xlink:href="#b"/>
<use transform="translate(223)" xlink:href="#l"/>
</g>
<path d="m71.4 270h446 104" clip-path="url(#g)" fill="none" stroke="#1f77b4" stroke-linecap="square" stroke-opacity=".9" stroke-width="1.5"/>
<defs>
<path id="a" d="m-2.5 2.5h5v-5h-5z" stroke="#1f77b4" stroke-opacity=".9"/>
</defs>
<g clip-path="url(#g)" fill="#1f77b4" fill-opacity=".9" stroke="#1f77b4" stroke-opacity=".9">
<use x="71.388926" y="270.329891" xlink:href="#a"/>
<use x="517.569023" y="270.329891" xlink:href="#a"/>
<use x="621.695409" y="270.329891" xlink:href="#a"/>
</g>
<g stroke="#1f77b4" stroke-opacity=".9">
<path d="m622 263h64.6" clip-path="url(#g)" fill="none" stroke-dasharray="1.5,2.475" stroke-width="1.5"/>
<g clip-path="url(#g)" fill="#1f77b4" fill-opacity=".9">
<use x="621.695409" y="262.509981" xlink:href="#a"/>
<use x="686.256387" y="262.509981" xlink:href="#a"/>
</g>
</g>
<path d="m40.6 349v-313" fill="none" stroke="#000" stroke-linecap="square" stroke-width=".8"/>
<path d="m717 349v-313" fill="none" stroke="#000" stroke-linecap="square" stroke-width=".8"/>
<path d="m40.6 349h676" fill="none" stroke="#000" stroke-linecap="square" stroke-width=".8"/>
<path d="m40.6 35.7h676" fill="none" stroke="#000" stroke-linecap="square" stroke-width=".8"/>
<path d="m71.8 261-0.348 7.35" fill="none" stroke="#888" stroke-linecap="round"/>
<g transform="translate(74.5 257) rotate(-90) scale(.08 -.08)" fill="#888">
<defs>
<path id="ak" transform="scale(.0156)" d="m3116 1747q0 634-261 995t-717 361q-457 0-718-361t-261-995 261-995 718-361q456 0 717 361t261 995zm-1957 1222q182 312 458 463 277 152 661 152 638 0 1036-506 399-506 399-1331t-399-1332q-398-506-1036-506-384 0-661 152-276 152-458 464v-525h-578v4863h578v-1894z"/>
</defs>
<use xlink:href="#ak"/>
<use transform="translate(63.5)" xlink:href="#d"/>
</g>
<path d="m622 261-0.326 7.34" fill="none" stroke="#888" stroke-linecap="round"/>
<g transform="translate(625 257) rotate(-90) scale(.08 -.08)" fill="#888">
<defs>
<path id="n" transform="scale(.0156)" d="m2631 2963q-97 56-211 82-114 27-251 27-488 0-749-317t-261-911v-1844h-578v3500h578v-544q182 319 472 473 291 155 707 155 59 0 131-8 72-7 159-23l3-590z"/>
<path id="ac" transform="scale(.0156)" d="m3122 3366v-538q-244 135-489 202t-495 67q-560 0-870-355-309-354-309-995t309-996q310-354 870-354 250 0 495 67t489 202v-532q-241-112-499-168-257-57-548-57-791 0-1257 497-465 497-465 1341 0 856 470 1346 471 491 1290 491 265 0 518-55 253-54 491-163z"/>
</defs>
<use xlink:href="#n"/>
<use transform="translate(38.9)" xlink:href="#ac"/>
<use transform="translate(93.8)" xlink:href="#c"/>
</g>
<g clip-path="url(#g)">
<g transform="translate(58.2 262) rotate(-90) scale(.1 -.1)">
<defs>
<path id="ab" transform="scale(.0156)" d="m2375 4863v-479h-550q-309 0-430-125-120-125-120-450v-309h947v-447h-947v-3053h-578v3053h-550v447h550v244q0 584 272 851 272 268 862 268h544z"/>
<path id="z" transform="scale(.0156)" d="m2194 1759q-697 0-966-159t-269-544q0-306 202-486 202-179 548-179 479 0 768 339t289 901v128h-572zm1147 238v-2e3h-575v531q-197-318-491-470t-719-152q-537 0-855 302-317 302-317 808 0 590 395 890 396 300 1180 300h807v57q0 397-261 614t-733 217q-300 0-585-72-284-72-546-216v532q315 122 612 182 297 61 578 61 760 0 1135-394 375-393 375-1193z"/>
<path id="x" transform="scale(.0156)" d="m2834 3397v-544q-243 125-506 187-262 63-544 63-428 0-642-131t-214-394q0-200 153-314t616-217l197-44q612-131 870-370t258-667q0-488-386-773-386-284-1061-284-281 0-586 55t-642 164v594q319-166 628-249 309-82 613-82 406 0 624 139 219 139 219 392 0 234-158 359-157 125-692 241l-200 47q-534 112-772 345-237 233-237 639 0 494 350 762 350 269 994 269 318 0 599-47 282-46 519-140z"/>
<path id="p" transform="scale(.0156)" d="m1172 4494v-994h1184v-447h-1184v-1900q0-428 117-550t477-122h590v-481h-590q-666 0-919 248-253 249-253 905v1900h-422v447h422v994h578z"/>
<path id="s" transform="scale(.0156)" d="m3597 1894v-281h-2644q38-594 358-905t892-311q331 0 642 81t618 244v-544q-310-131-635-200t-659-69q-838 0-1327 487-489 488-489 1320 0 859 464 1363 464 505 1252 505 706 0 1117-455 411-454 411-1235zm-575 169q-6 471-264 752-258 282-683 282-481 0-770-272t-333-766l2050 4z"/>
<path id="am" transform="scale(.0156)" d="m8863 2147v-281l-1229-1228-375 375 729 728h-7622v531h7622l-729 728 375 375 1229-1228z"/>
</defs>
<use xlink:href="#ab"/>
<use transform="translate(35.2)" xlink:href="#z"/>
<use transform="translate(96.5)" xlink:href="#x"/>
<use transform="translate(149)" xlink:href="#p"/>
<use transform="translate(188)" xlink:href="#s"/>
<use transform="translate(249)" xlink:href="#n"/>
<use transform="translate(290)" xlink:href="#DejaVuSans-20"/>
<use transform="translate(322)" xlink:href="#am"/>
</g>
</g>
<g clip-path="url(#g)">
<g transform="translate(58.2 330) rotate(-90) scale(.1 -.1)">
<defs>
<path id="an" transform="scale(.0156)" d="m313 1866v281l1228 1228 375-375-728-728h7621v-531h-7621l728-728-375-375-1228 1228z"/>
<path id="r" transform="scale(.0156)" d="m603 4863h575v-4863h-575v4863z"/>
<path id="q" transform="scale(.0156)" d="m1959 3097q-462 0-731-361t-269-989 267-989q268-361 733-361 460 0 728 362 269 363 269 988 0 622-269 986-268 364-728 364zm0 487q750 0 1178-488 429-487 429-1349 0-859-429-1349-428-489-1178-489-753 0-1180 489-426 490-426 1349 0 862 426 1349 427 488 1180 488z"/>
<path id="ai" transform="scale(.0156)" d="m269 3500h575l719-2731 715 2731h678l719-2731 716 2731h575l-916-3500h-678l-753 2869-756-2869h-679l-915 3500z"/>
</defs>
<use xlink:href="#an"/>
<use transform="translate(143)" xlink:href="#DejaVuSans-20"/>
<use transform="translate(175)" xlink:href="#x"/>
<use transform="translate(227)" xlink:href="#r"/>
<use transform="translate(255)" xlink:href="#q"/>
<use transform="translate(316)" xlink:href="#ai"/>
<use transform="translate(398)" xlink:href="#s"/>
<use transform="translate(460)" xlink:href="#n"/>
</g>
</g>
<g transform="translate(306 29.7) scale(.12 -.12)">
<defs>
<path id="ah" transform="scale(.0156)" d="m1259 4147v-1753h794q441 0 681 228 241 228 241 650 0 419-241 647-240 228-681 228h-794zm-631 519h1425q785 0 1186-355 402-355 402-1039 0-691-402-1044-401-353-1186-353h-794v-1875h-631v4666z"/>
<path id="af" transform="scale(.0156)" d="m2059-325q-243-625-475-815-231-191-618-191h-460v481h338q237 0 368 113 132 112 291 531l103 262-1415 3444h609l1094-2737 1094 2737h609l-1538-3825z"/>
<path id="aj" transform="scale(.0156)" d="m3513 2113v-2113h-575v2094q0 497-194 743-194 247-581 247-466 0-735-297-269-296-269-809v-1978h-578v4863h578v-1907q207 316 486 472 280 156 646 156 603 0 912-373 310-373 310-1098z"/>
<path id="o" transform="scale(.0156)" d="m3513 2113v-2113h-575v2094q0 497-194 743-194 247-581 247-466 0-735-297-269-296-269-809v-1978h-578v3500h578v-544q207 316 486 472 280 156 646 156 603 0 912-373 310-373 310-1098z"/>
<path id="w" transform="scale(.0156)" d="m3513 3500-1266-1703 1331-1797h-678l-1019 1375-1018-1375h-679l1360 1831-1244 1669h678l928-1247 928 1247h679z"/>
<path id="y" transform="scale(.0156)" d="m191 3500h609l1094-2937 1094 2937h609l-1313-3500h-781l-1312 3500z"/>
</defs>
<use xlink:href="#ah"/>
<use transform="translate(60.3)" xlink:href="#af"/>
<use transform="translate(119)" xlink:href="#p"/>
<use transform="translate(159)" xlink:href="#aj"/>
<use transform="translate(222)" xlink:href="#q"/>
<use transform="translate(283)" xlink:href="#o"/>
<use transform="translate(347)" xlink:href="#DejaVuSans-20"/>
<use transform="translate(378)" xlink:href="#t"/>
<use transform="translate(442)" xlink:href="#f"/>
<use transform="translate(474)" xlink:href="#d"/>
<use transform="translate(537)" xlink:href="#t"/>
<use transform="translate(601)" xlink:href="#f"/>
<use transform="translate(633)" xlink:href="#w"/>
<use transform="translate(692)" xlink:href="#DejaVuSans-20"/>
<use transform="translate(724)" xlink:href="#y"/>
<use transform="translate(783)" xlink:href="#x"/>
<use transform="translate(835)" xlink:href="#f"/>
<use transform="translate(867)" xlink:href="#DejaVuSans-20"/>
<use transform="translate(899)" xlink:href="#t"/>
<use transform="translate(962)" xlink:href="#f"/>
<use transform="translate(994)" xlink:href="#d"/>
<use transform="translate(1058)" xlink:href="#c"/>
<use transform="translate(1121)" xlink:href="#f"/>
<use transform="translate(1153)" xlink:href="#ae"/>
</g>
<path d="m47.6 73.1h82.6q2 0 2-2v-28.4q0-2-2-2h-82.6q-2 0-2 2v28.4q0 2 2 2z" fill="#fff" opacity=".8" stroke="#ccc"/>
<path d="m49.6 48.8h10 10" fill="none" stroke="#1f77b4" stroke-linecap="square" stroke-opacity=".9" stroke-width="1.5"/>
<use x="59.645553" y="48.831032" fill="#1f77b4" fill-opacity=".9" stroke="#1f77b4" stroke-opacity=".9" xlink:href="#a"/>
<g transform="translate(77.6 52.3) scale(.1 -.1)">
<defs>
<path id="v" transform="scale(.0156)" d="m603 3500h575v-3500h-575v3500zm0 1363h575v-729h-575v729z"/>
<path id="u" transform="scale(.0156)" d="m544 1381v2119h575v-2097q0-497 193-746 194-248 582-248 465 0 735 297 271 297 271 810v1984h575v-3500h-575v538q-209-319-486-474-276-155-642-155-603 0-916 375-312 375-312 1097zm1447 2203z"/>
</defs>
<use xlink:href="#r"/>
<use transform="translate(27.8)" xlink:href="#v"/>
<use transform="translate(55.6)" xlink:href="#o"/>
<use transform="translate(119)" xlink:href="#u"/>
<use transform="translate(182)" xlink:href="#w"/>
</g>
<path d="m49.6 63.5h10 10" fill="none" stroke="#1f77b4" stroke-dasharray="1.5,2.475" stroke-opacity=".9" stroke-width="1.5"/>
<use x="59.645553" y="63.509158" fill="#1f77b4" fill-opacity=".9" stroke="#1f77b4" stroke-opacity=".9" xlink:href="#a"/>
<g transform="translate(77.6 67) scale(.1 -.1)">
<use xlink:href="#r"/>
<use transform="translate(27.8)" xlink:href="#v"/>
<use transform="translate(55.6)" xlink:href="#o"/>
<use transform="translate(119)" xlink:href="#u"/>
<use transform="translate(182)" xlink:href="#w"/>
<use transform="translate(242)" xlink:href="#e"/>
<use transform="translate(275)" xlink:href="#y"/>
<use transform="translate(334)" xlink:href="#u"/>
<use transform="translate(398)" xlink:href="#r"/>
<use transform="translate(425)" xlink:href="#p"/>
<use transform="translate(465)" xlink:href="#n"/>
</g>
<path d="m40.6 700h676v-313h-676z" fill="#fff"/>
<path d="m95.1 700v-313" clip-path="url(#h)" fill="none" stroke="#b0b0b0" stroke-linecap="square" stroke-width=".8"/>
<use x="95.141333" y="700.321635" stroke="#000000" stroke-width=".8" xlink:href="#i"/>
<g transform="translate(74.2 715) scale(.1 -.1)">
<use xlink:href="#c"/>
<use transform="translate(63.6)" xlink:href="#b"/>
<use transform="translate(127)" xlink:href="#c"/>
<use transform="translate(191)" xlink:href="#j"/>
<use transform="translate(254)" xlink:href="#e"/>
<use transform="translate(291)" xlink:href="#b"/>
<use transform="translate(354)" xlink:href="#ad"/>
</g>
<path d="m181 700v-313" clip-path="url(#h)" fill="none" stroke="#b0b0b0" stroke-linecap="square" stroke-width=".8"/>
<use x="180.664254" y="700.321635" stroke="#000000" stroke-width=".8" xlink:href="#i"/>
<g transform="translate(160 715) scale(.1 -.1)">
<use xlink:href="#c"/>
<use transform="translate(63.6)" xlink:href="#b"/>
<use transform="translate(127)" xlink:href="#c"/>
<use transform="translate(191)" xlink:href="#j"/>
<use transform="translate(254)" xlink:href="#e"/>
<use transform="translate(291)" xlink:href="#b"/>
<use transform="translate(354)" xlink:href="#aa"/>
</g>
<path d="m263 700v-313" clip-path="url(#h)" fill="none" stroke="#b0b0b0" stroke-linecap="square" stroke-width=".8"/>
<use x="263.428371" y="700.321635" stroke="#000000" stroke-width=".8" xlink:href="#i"/>
<g transform="translate(243 715) scale(.1 -.1)">
<use xlink:href="#c"/>
<use transform="translate(63.6)" xlink:href="#b"/>
<use transform="translate(127)" xlink:href="#c"/>
<use transform="translate(191)" xlink:href="#j"/>
<use transform="translate(254)" xlink:href="#e"/>
<use transform="translate(291)" xlink:href="#d"/>
<use transform="translate(354)" xlink:href="#b"/>
</g>
<path d="m349 700v-313" clip-path="url(#h)" fill="none" stroke="#b0b0b0" stroke-linecap="square" stroke-width=".8"/>
<use x="348.951292" y="700.321635" stroke="#000000" stroke-width=".8" xlink:href="#i"/>
<g transform="translate(328 715) scale(.1 -.1)">
<use xlink:href="#c"/>
<use transform="translate(63.6)" xlink:href="#b"/>
<use transform="translate(127)" xlink:href="#c"/>
<use transform="translate(191)" xlink:href="#j"/>
<use transform="translate(254)" xlink:href="#e"/>
<use transform="translate(291)" xlink:href="#d"/>
<use transform="translate(354)" xlink:href="#d"/>
</g>
<path d="m432 700v-313" clip-path="url(#h)" fill="none" stroke="#b0b0b0" stroke-linecap="square" stroke-width=".8"/>
<use x="431.715409" y="700.321635" stroke="#000000" stroke-width=".8" xlink:href="#i"/>
<g transform="translate(411 715) scale(.1 -.1)">
<use xlink:href="#c"/>
<use transform="translate(63.6)" xlink:href="#b"/>
<use transform="translate(127)" xlink:href="#c"/>
<use transform="translate(191)" xlink:href="#j"/>
<use transform="translate(254)" xlink:href="#e"/>
<use transform="translate(291)" xlink:href="#d"/>
<use transform="translate(354)" xlink:href="#c"/>
</g>
<path d="m517 700v-313" clip-path="url(#h)" fill="none" stroke="#b0b0b0" stroke-linecap="square" stroke-width=".8"/>
<use x="517.23833" y="700.321635" stroke="#000000" stroke-width=".8" xlink:href="#i"/>
<g transform="translate(496 715) scale(.1 -.1)">
<use xlink:href="#c"/>
<use transform="translate(63.6)" xlink:href="#b"/>
<use transform="translate(127)" xlink:href="#c"/>
<use transform="translate(191)" xlink:href="#m"/>
<use transform="translate(254)" xlink:href="#e"/>
<use transform="translate(291)" xlink:href="#b"/>
<use transform="translate(354)" xlink:href="#d"/>
</g>
<path d="m603 700v-313" clip-path="url(#h)" fill="none" stroke="#b0b0b0" stroke-linecap="square" stroke-width=".8"/>
<use x="602.761251" y="700.321635" stroke="#000000" stroke-width=".8" xlink:href="#i"/>
<g transform="translate(582 715) scale(.1 -.1)">
<use xlink:href="#c"/>
<use transform="translate(63.6)" xlink:href="#b"/>
<use transform="translate(127)" xlink:href="#c"/>
<use transform="translate(191)" xlink:href="#m"/>
<use transform="translate(254)" xlink:href="#e"/>
<use transform="translate(291)" xlink:href="#b"/>
<use transform="translate(354)" xlink:href="#c"/>
</g>
<path d="m680 700v-313" clip-path="url(#h)" fill="none" stroke="#b0b0b0" stroke-linecap="square" stroke-width=".8"/>
<use x="680.00776" y="700.321635" stroke="#000000" stroke-width=".8" xlink:href="#i"/>
<g transform="translate(659 715) scale(.1 -.1)">
<use xlink:href="#c"/>
<use transform="translate(63.6)" xlink:href="#b"/>
<use transform="translate(127)" xlink:href="#c"/>
<use transform="translate(191)" xlink:href="#m"/>
<use transform="translate(254)" xlink:href="#e"/>
<use transform="translate(291)" xlink:href="#b"/>
<use transform="translate(354)" xlink:href="#t"/>
</g>
<path d="m40.6 684h676" clip-path="url(#h)" fill="none" stroke="#b0b0b0" stroke-linecap="square" stroke-width=".8"/>
<use x="40.645553" y="683.959731" stroke="#000000" stroke-width=".8" xlink:href="#k"/>
<g transform="translate(3 688) scale(.1 -.1)">
<use xlink:href="#d"/>
<use transform="translate(63.6)" xlink:href="#f"/>
<use transform="translate(95.4)" xlink:href="#b"/>
<use transform="translate(159)" xlink:href="#b"/>
<use transform="translate(223)" xlink:href="#l"/>
</g>
<path d="m40.6 632h676" clip-path="url(#h)" fill="none" stroke="#b0b0b0" stroke-linecap="square" stroke-width=".8"/>
<use x="40.645553" y="632.175456" stroke="#000000" stroke-width=".8" xlink:href="#k"/>
<g transform="translate(3 636) scale(.1 -.1)">
<use xlink:href="#d"/>
<use transform="translate(63.6)" xlink:href="#f"/>
<use transform="translate(95.4)" xlink:href="#c"/>
<use transform="translate(159)" xlink:href="#b"/>
<use transform="translate(223)" xlink:href="#l"/>
</g>
<path d="m40.6 580h676" clip-path="url(#h)" fill="none" stroke="#b0b0b0" stroke-linecap="square" stroke-width=".8"/>
<use x="40.645553" y="580.391182" stroke="#000000" stroke-width=".8" xlink:href="#k"/>
<g transform="translate(3 584) scale(.1 -.1)">
<use xlink:href="#d"/>
<use transform="translate(63.6)" xlink:href="#f"/>
<use transform="translate(95.4)" xlink:href="#j"/>
<use transform="translate(159)" xlink:href="#b"/>
<use transform="translate(223)" xlink:href="#l"/>
</g>
<path d="m40.6 529h676" clip-path="url(#h)" fill="none" stroke="#b0b0b0" stroke-linecap="square" stroke-width=".8"/>
<use x="40.645553" y="528.606908" stroke="#000000" stroke-width=".8" xlink:href="#k"/>
<g transform="translate(3 532) scale(.1 -.1)">
<use xlink:href="#d"/>
<use transform="translate(63.6)" xlink:href="#f"/>
<use transform="translate(95.4)" xlink:href="#ae"/>
<use transform="translate(159)" xlink:href="#b"/>
<use transform="translate(223)" xlink:href="#l"/>
</g>
<path d="m40.6 477h676" clip-path="url(#h)" fill="none" stroke="#b0b0b0" stroke-linecap="square" stroke-width=".8"/>
<use x="40.645553" y="476.822634" stroke="#000000" stroke-width=".8" xlink:href="#k"/>
<g transform="translate(3 481) scale(.1 -.1)">
<use xlink:href="#d"/>
<use transform="translate(63.6)" xlink:href="#f"/>
<use transform="translate(95.4)" xlink:href="#ad"/>
<use transform="translate(159)" xlink:href="#b"/>
<use transform="translate(223)" xlink:href="#l"/>
</g>
<path d="m40.6 425h676" clip-path="url(#h)" fill="none" stroke="#b0b0b0" stroke-linecap="square" stroke-width=".8"/>
<use x="40.645553" y="425.038359" stroke="#000000" stroke-width=".8" xlink:href="#k"/>
<g transform="translate(3 429) scale(.1 -.1)">
<use xlink:href="#c"/>
<use transform="translate(63.6)" xlink:href="#f"/>
<use transform="translate(95.4)" xlink:href="#b"/>
<use transform="translate(159)" xlink:href="#b"/>
<use transform="translate(223)" xlink:href="#l"/>
</g>
<g stroke="#1f77b4" stroke-opacity=".9">
<path d="m71.4 558 13.1-2.46 19.7-1.67 10.9 14.9 0.0177 1.25 0.263-7.99 8.11-9.98 13.5 13.9 0.0946-1.26 5.68-0.514 19.4-10.9 19.4 2.85 15.6 17.7 0.031-0.423 0.613-12.6 2.68-15.4 19.3 4.69 16 4.86 15.6-152 0.0289 6.85 7.45 150 5.01-158 0.115 20.2 58.4 134 2.54 7.56 35.9 38.9 3.11-2.31 2.61-45.5 2.82-6.45 2.04 0.752 3.47 0.991 5.65 3.02 2.44 0.33 3.03 1.98 2.83-9.48 2.62 5.36 2.87 0.851 2.71-6.87 2.81-2.14 2.43 7.65 2.94-5.56 2.95 10.6 2.69-6.51 2.49 7.62 2.88-4.74 2.63 2.71 2.78 6.41 2.96-3.08 2.01 3.23 3.22-2.61 2.48 0.249 2.85-1.8 3.22-13.9 2.85-1.25 2.77 1.6 2.44 12 2.76-14.2 2.34 0.324 2.85-4.87 2.73 4.26 3.41 2.33 2.66 11.4 4.94-15.1 2.43-1.19 3.66 0.753 2.5 1.85 3.02 4.29 1.87 0.284 3.69 0.81 2.3-0.158 5.44 7.87 3.02-4.15 2.44-6.05 2.67 3.91 3.24-4.62 2.79-13.9 2.64 5.8 2.88 3.81 2.61-4.91 2.82-1.57 2.85 5.64 2.4-6.5 3.08 19.1 2.97-14.4 2.57 2.59 2.95-2.13 2.54 10.6 2.98 1.42 2.31 12.4 3.37-3.95 2.12-4.59 3.18 6.49 2.05 1.98 3.48 3.77 0.291-4.9 2.23-4.58 3.07-0.669 2.62-4.67 2.66-0.869 3.01 9.54 2.74 1.19 2.71 6.78 0.218-0.442 2.64-3.43 1.79-3.38 0.877-0.261 2.64 1.88 2.28-2.69 2.84-17.9 3.36 16.7 1.32 5.1 1.44 9.53 2.74-15.4 2.57-4.99 2.22 4.92 2.66-7.44 2.7-1.95 0.81 2.83 2-2.73 3.48 2.93 2.37-7.91 3.22 0.721 2.65-7.72 2.87-4.25 2.74 11.6 2.57 2.61 3.01-5.8 2.66 7.02 2.26-5.87 3.05 17.8 2.49-21.3 3.34-1.95 2.3 10.6 3.18-2.72 2.53 1.09 3.02-1.86 2.06 20.1 2.76-29.2 3.5 2.58 2.44 15.9 2.7-6.3 2.84-2.48 2.97-3.8 2.58 1.06 2.7-2.83 2.75-0.307v0" clip-path="url(#h)" fill="none" stroke-linecap="square" stroke-width="1.5"/>
<g clip-path="url(#h)" fill="#1f77b4" fill-opacity=".9">
<use x="71.388926" y="558.4446" xlink:href="#a"/>
<use x="84.515404" y="555.985241" xlink:href="#a"/>
<use x="104.214317" y="554.310742" xlink:href="#a"/>
<use x="115.067848" y="569.235723" xlink:href="#a"/>
<use x="115.085506" y="570.489218" xlink:href="#a"/>
<use x="115.348135" y="562.501039" xlink:href="#a"/>
<use x="123.459848" y="552.519716" xlink:href="#a"/>
<use x="136.950016" y="566.439825" xlink:href="#a"/>
<use x="137.044659" y="565.176841" xlink:href="#a"/>
<use x="142.72706" y="564.662392" xlink:href="#a"/>
<use x="162.146773" y="553.777382" xlink:href="#a"/>
<use x="181.501634" y="556.628799" xlink:href="#a"/>
<use x="197.087024" y="574.353702" xlink:href="#a"/>
<use x="197.117997" y="573.931187" xlink:href="#a"/>
<use x="197.731447" y="561.285861" xlink:href="#a"/>
<use x="200.410648" y="545.83766" xlink:href="#a"/>
<use x="219.689675" y="550.523904" xlink:href="#a"/>
<use x="235.682882" y="555.387562" xlink:href="#a"/>
<use x="251.265271" y="402.932852" xlink:href="#a"/>
<use x="251.2942" y="409.778044" xlink:href="#a"/>
<use x="258.745525" y="559.406374" xlink:href="#a"/>
<use x="263.755532" y="401.743258" xlink:href="#a"/>
<use x="263.870322" y="421.928803" xlink:href="#a"/>
<use x="322.23978" y="556.068938" xlink:href="#a"/>
<use x="324.777975" y="563.624791" xlink:href="#a"/>
<use x="360.653506" y="602.56308" xlink:href="#a"/>
<use x="363.768176" y="600.256463" xlink:href="#a"/>
<use x="366.373458" y="554.78273" xlink:href="#a"/>
<use x="369.188619" y="548.332929" xlink:href="#a"/>
<use x="371.228346" y="549.085321" xlink:href="#a"/>
<use x="374.703066" y="550.075963" xlink:href="#a"/>
<use x="377.315117" y="551.441011" xlink:href="#a"/>
<use x="380.355038" y="553.091198" xlink:href="#a"/>
<use x="382.791981" y="553.421149" xlink:href="#a"/>
<use x="385.821812" y="555.40612" xlink:href="#a"/>
<use x="388.652843" y="545.930251" xlink:href="#a"/>
<use x="391.270354" y="551.292408" xlink:href="#a"/>
<use x="394.140915" y="552.143063" xlink:href="#a"/>
<use x="396.85425" y="545.27629" xlink:href="#a"/>
<use x="399.665771" y="543.134854" xlink:href="#a"/>
<use x="402.095626" y="550.78863" xlink:href="#a"/>
<use x="405.037009" y="545.229773" xlink:href="#a"/>
<use x="407.990047" y="555.852997" xlink:href="#a"/>
<use x="410.684989" y="549.338639" xlink:href="#a"/>
<use x="413.172064" y="556.955558" xlink:href="#a"/>
<use x="416.049298" y="552.215687" xlink:href="#a"/>
<use x="418.676261" y="554.927347" xlink:href="#a"/>
<use x="421.458214" y="561.338692" xlink:href="#a"/>
<use x="424.42163" y="558.255162" xlink:href="#a"/>
<use x="426.433736" y="561.487518" xlink:href="#a"/>
<use x="429.653299" y="558.875536" xlink:href="#a"/>
<use x="432.136222" y="559.124819" xlink:href="#a"/>
<use x="434.990435" y="557.326636" xlink:href="#a"/>
<use x="438.210859" y="543.452838" xlink:href="#a"/>
<use x="441.064721" y="542.207488" xlink:href="#a"/>
<use x="443.833263" y="543.808179" xlink:href="#a"/>
<use x="446.27522" y="555.817918" xlink:href="#a"/>
<use x="449.034088" y="541.648135" xlink:href="#a"/>
<use x="451.369396" y="541.972291" xlink:href="#a"/>
<use x="454.219905" y="537.100042" xlink:href="#a"/>
<use x="456.949588" y="541.356983" xlink:href="#a"/>
<use x="460.356998" y="543.683285" xlink:href="#a"/>
<use x="463.017041" y="555.057973" xlink:href="#a"/>
<use x="465.604697" y="547.256107" xlink:href="#a"/>
<use x="467.95779" y="539.944312" xlink:href="#a"/>
<use x="470.388124" y="538.753392" xlink:href="#a"/>
<use x="474.04967" y="539.506144" xlink:href="#a"/>
<use x="476.545206" y="541.3523" xlink:href="#a"/>
<use x="479.567533" y="545.640561" xlink:href="#a"/>
<use x="481.440007" y="545.924064" xlink:href="#a"/>
<use x="485.126427" y="546.734264" xlink:href="#a"/>
<use x="487.429773" y="546.576669" xlink:href="#a"/>
<use x="492.872248" y="554.449895" xlink:href="#a"/>
<use x="495.89167" y="550.302618" xlink:href="#a"/>
<use x="498.327974" y="544.253288" xlink:href="#a"/>
<use x="500.996" y="548.163313" xlink:href="#a"/>
<use x="504.236732" y="543.54038" xlink:href="#a"/>
<use x="507.02504" y="529.642058" xlink:href="#a"/>
<use x="509.662284" y="535.43721" xlink:href="#a"/>
<use x="512.539167" y="539.251013" xlink:href="#a"/>
<use x="515.154028" y="534.339784" xlink:href="#a"/>
<use x="517.971233" y="532.772761" xlink:href="#a"/>
<use x="520.823785" y="538.416938" xlink:href="#a"/>
<use x="523.221294" y="531.92089" xlink:href="#a"/>
<use x="526.297903" y="550.982422" xlink:href="#a"/>
<use x="529.267417" y="536.540128" xlink:href="#a"/>
<use x="531.834159" y="539.130145" xlink:href="#a"/>
<use x="534.784993" y="536.996128" xlink:href="#a"/>
<use x="537.321273" y="547.632966" xlink:href="#a"/>
<use x="540.301228" y="549.050426" xlink:href="#a"/>
<use x="542.614696" y="561.443825" xlink:href="#a"/>
<use x="545.982001" y="557.494834" xlink:href="#a"/>
<use x="548.098202" y="552.903506" xlink:href="#a"/>
<use x="551.282066" y="559.398331" xlink:href="#a"/>
<use x="553.3292" y="561.382031" xlink:href="#a"/>
<use x="556.814106" y="565.149495" xlink:href="#a"/>
<use x="557.105026" y="560.251174" xlink:href="#a"/>
<use x="559.336879" y="555.668821" xlink:href="#a"/>
<use x="562.408124" y="554.999615" xlink:href="#a"/>
<use x="565.025571" y="550.328907" xlink:href="#a"/>
<use x="567.688232" y="549.46019" xlink:href="#a"/>
<use x="570.700437" y="559.003071" xlink:href="#a"/>
<use x="573.436602" y="560.191375" xlink:href="#a"/>
<use x="576.147478" y="566.969431" xlink:href="#a"/>
<use x="576.36566" y="566.527304" xlink:href="#a"/>
<use x="579.001882" y="563.10098" xlink:href="#a"/>
<use x="580.794051" y="559.718093" xlink:href="#a"/>
<use x="581.671376" y="559.456706" xlink:href="#a"/>
<use x="584.315326" y="561.33371" xlink:href="#a"/>
<use x="586.591882" y="558.641428" xlink:href="#a"/>
<use x="589.427926" y="540.733416" xlink:href="#a"/>
<use x="592.785014" y="557.424259" xlink:href="#a"/>
<use x="594.103077" y="562.526233" xlink:href="#a"/>
<use x="595.540177" y="572.054807" xlink:href="#a"/>
<use x="598.283016" y="556.697417" xlink:href="#a"/>
<use x="600.854738" y="551.705198" xlink:href="#a"/>
<use x="603.070786" y="556.626107" xlink:href="#a"/>
<use x="605.730318" y="549.181777" xlink:href="#a"/>
<use x="608.426442" y="547.232395" xlink:href="#a"/>
<use x="609.236617" y="550.063053" xlink:href="#a"/>
<use x="611.233461" y="547.332552" xlink:href="#a"/>
<use x="614.714886" y="550.265443" xlink:href="#a"/>
<use x="617.088831" y="542.358959" xlink:href="#a"/>
<use x="620.304721" y="543.079705" xlink:href="#a"/>
<use x="622.953971" y="535.364616" xlink:href="#a"/>
<use x="625.819232" y="531.115772" xlink:href="#a"/>
<use x="628.562709" y="542.681388" xlink:href="#a"/>
<use x="631.128269" y="545.293997" xlink:href="#a"/>
<use x="634.141017" y="539.490636" xlink:href="#a"/>
<use x="636.80422" y="546.514707" xlink:href="#a"/>
<use x="639.068355" y="540.649246" xlink:href="#a"/>
<use x="642.115876" y="558.475716" xlink:href="#a"/>
<use x="644.605792" y="537.197757" xlink:href="#a"/>
<use x="647.950395" y="535.246336" xlink:href="#a"/>
<use x="650.247418" y="545.893596" xlink:href="#a"/>
<use x="653.425599" y="543.174446" xlink:href="#a"/>
<use x="655.95364" y="544.263234" xlink:href="#a"/>
<use x="658.969901" y="542.400765" xlink:href="#a"/>
<use x="661.030191" y="562.480785" xlink:href="#a"/>
<use x="663.789665" y="533.311687" xlink:href="#a"/>
<use x="667.28779" y="535.893931" xlink:href="#a"/>
<use x="669.7293" y="551.82569" xlink:href="#a"/>
<use x="672.429575" y="545.527949" xlink:href="#a"/>
<use x="675.265683" y="543.04461" xlink:href="#a"/>
<use x="678.232099" y="539.2435" xlink:href="#a"/>
<use x="680.808196" y="540.306295" xlink:href="#a"/>
<use x="683.505374" y="537.472556" xlink:href="#a"/>
<use x="686.256387" y="537.165087" xlink:href="#a"/>
</g>
</g>
<g stroke="#1f77b4" stroke-opacity=".9">
<path d="m236 679v5.18l23.1-5.18h17.7l20.8 5.18h108l2.35 0.357 0.601-0.357h8.06l2.63 0.581 2.19-0.741 0.587 2.2 2.01-0.896 0.954-0.711 2.01-0.692 2.68 2.41 0.542-0.456 2.48-0.0726 2.85-0.239 3.22-6.53 2.85 0.381 2.09-2.83 0.679 0.193 2.44 0.498 0.792 1.6 1.57-1.83 0.402 1.45 2.34-0.0636 2.85-1.79 2.73 2.1 3.41-5.12 1.53-0.373 0.478 0.487 0.653-1.81 1.39 0.785 1.2 1.03 2.35-0.775 2.43-0.05 3.66-0.904 2.5-0.259 3.02 0.921 0.799 0.601 1.07 1.74 3.69-2.29 2.3-0.971 5.44-1.53 3.02 1.74 2.44 0.585 2.67-3.11 3.24 1.36 2.79-0.209 2.64 0.202 2.88-1.29 2.61 1.46 2.82-2.54 2.85 0.484 2.4 0.986 3.08 1.58 2.97 0.267 2.57-3.06 2.95-0.565 2.54 0.1 5.29 1.44 2.32-0.983 1.05-0.158 2.12 0.502 3.18-0.454 2.05 0.406 3.48-2 0.291-0.92 2.23 6.84 2.08-4.04 0.134 2.7 0.852-0.458 2.62 0.963 2.55-2.39 0.116 1.26 5.75-1.21 2.44 0.302 0.273 0.48 0.111 1.11 0.107-0.28 1.44 1.2 1.2-0.0116 2.67-2.62 2.64 1.4 5.11 0.563 3.36-0.546 1.32-1.02 1.44 0.181 2.74-1.92 2.57 0.982 2.22 2.77 2.66-4.68 2.7 1.11 0.81-0.387 2 0.381 3.48 2.03 2.37 1.89 3.22-0.532 2.65-4.19 2.87 1.82 2.74-0.183 2.57-0.622 5.68 3.36 2.11-1.24 0.156 2.04 3.05-1.37 2.49-1.62 3.34 0.547 5.48 2.55 2.53-2.26 3.02-0.624 2.06 1.28 2.76-0.493 3.5 0.601 2.44 0.605 2.7-3 2.03 0.782 0.809-1.13 2.97-2.65 1.9-0.374 0.39 2.84 0.284-0.0284 2.7 2.52 2.75-5.76" clip-path="url(#h)" fill="none" stroke-dasharray="1.5,2.475" stroke-width="1.5"/>
<g clip-path="url(#h)" fill="#1f77b4" fill-opacity=".9">
<use x="235.682882" y="678.781303" xlink:href="#a"/>
<use x="235.682882" y="683.959731" xlink:href="#a"/>
<use x="258.745525" y="678.781303" xlink:href="#a"/>
<use x="276.411481" y="678.781303" xlink:href="#a"/>
<use x="297.218833" y="683.959731" xlink:href="#a"/>
<use x="307.644494" y="683.959731" xlink:href="#a"/>
<use x="311.608901" y="683.959731" xlink:href="#a"/>
<use x="312.955575" y="683.959731" xlink:href="#a"/>
<use x="313.901455" y="683.959731" xlink:href="#a"/>
<use x="316.625295" y="683.959731" xlink:href="#a"/>
<use x="319.309509" y="683.959731" xlink:href="#a"/>
<use x="322.23978" y="683.959731" xlink:href="#a"/>
<use x="324.777975" y="683.959731" xlink:href="#a"/>
<use x="327.853946" y="683.959731" xlink:href="#a"/>
<use x="330.657484" y="683.959731" xlink:href="#a"/>
<use x="332.772344" y="683.959731" xlink:href="#a"/>
<use x="335.924597" y="683.959731" xlink:href="#a"/>
<use x="338.712681" y="683.959731" xlink:href="#a"/>
<use x="341.466695" y="683.959731" xlink:href="#a"/>
<use x="344.493493" y="683.959731" xlink:href="#a"/>
<use x="347.251211" y="683.959731" xlink:href="#a"/>
<use x="349.726375" y="683.959731" xlink:href="#a"/>
<use x="352.650707" y="683.959731" xlink:href="#a"/>
<use x="354.720257" y="683.959731" xlink:href="#a"/>
<use x="357.961118" y="683.959731" xlink:href="#a"/>
<use x="360.653506" y="683.959731" xlink:href="#a"/>
<use x="363.768176" y="683.959731" xlink:href="#a"/>
<use x="366.373458" y="683.959731" xlink:href="#a"/>
<use x="367.780991" y="683.959731" xlink:href="#a"/>
<use x="369.188619" y="683.959731" xlink:href="#a"/>
<use x="371.228346" y="683.959731" xlink:href="#a"/>
<use x="372.469233" y="683.959731" xlink:href="#a"/>
<use x="374.703066" y="683.959731" xlink:href="#a"/>
<use x="377.315117" y="683.959731" xlink:href="#a"/>
<use x="380.355038" y="683.959731" xlink:href="#a"/>
<use x="382.791981" y="683.959731" xlink:href="#a"/>
<use x="385.821812" y="683.959731" xlink:href="#a"/>
<use x="388.652843" y="683.959731" xlink:href="#a"/>
<use x="391.270354" y="683.959731" xlink:href="#a"/>
<use x="394.140915" y="683.959731" xlink:href="#a"/>
<use x="394.348975" y="683.959731" xlink:href="#a"/>
<use x="396.85425" y="683.959731" xlink:href="#a"/>
<use x="399.665771" y="683.959731" xlink:href="#a"/>
<use x="402.095626" y="683.959731" xlink:href="#a"/>
<use x="405.037009" y="683.959731" xlink:href="#a"/>
<use x="407.388793" y="684.316807" xlink:href="#a"/>
<use x="407.990047" y="683.959731" xlink:href="#a"/>
<use x="410.233299" y="683.959731" xlink:href="#a"/>
<use x="410.684989" y="683.959731" xlink:href="#a"/>
<use x="413.172064" y="683.959731" xlink:href="#a"/>
<use x="416.049298" y="683.959731" xlink:href="#a"/>
<use x="418.676261" y="684.541038" xlink:href="#a"/>
<use x="420.870915" y="683.80032" xlink:href="#a"/>
<use x="421.458214" y="685.995661" xlink:href="#a"/>
<use x="423.467384" y="685.099502" xlink:href="#a"/>
<use x="424.42163" y="684.388196" xlink:href="#a"/>
<use x="426.433736" y="683.695737" xlink:href="#a"/>
<use x="429.111149" y="686.103617" xlink:href="#a"/>
<use x="429.653299" y="685.647507" xlink:href="#a"/>
<use x="432.136222" y="685.5749" xlink:href="#a"/>
<use x="434.990435" y="685.33605" xlink:href="#a"/>
<use x="438.210859" y="678.806744" xlink:href="#a"/>
<use x="441.064721" y="679.18813" xlink:href="#a"/>
<use x="443.154579" y="676.357523" xlink:href="#a"/>
<use x="443.833263" y="676.55102" xlink:href="#a"/>
<use x="446.27522" y="677.049129" xlink:href="#a"/>
<use x="447.067099" y="678.64915" xlink:href="#a"/>
<use x="448.632241" y="676.821952" xlink:href="#a"/>
<use x="449.034088" y="678.27532" xlink:href="#a"/>
<use x="451.369396" y="678.211752" xlink:href="#a"/>
<use x="452.746244" y="677.402163" xlink:href="#a"/>
<use x="454.219905" y="676.418734" xlink:href="#a"/>
<use x="456.949588" y="678.521116" xlink:href="#a"/>
<use x="460.356998" y="673.401386" xlink:href="#a"/>
<use x="461.886602" y="673.028643" xlink:href="#a"/>
<use x="462.364251" y="673.515741" xlink:href="#a"/>
<use x="463.017041" y="671.708389" xlink:href="#a"/>
<use x="464.404042" y="672.493614" xlink:href="#a"/>
<use x="465.604697" y="673.526812" xlink:href="#a"/>
<use x="467.736511" y="672.775466" xlink:href="#a"/>
<use x="467.95779" y="672.751819" xlink:href="#a"/>
<use x="470.388124" y="672.701847" xlink:href="#a"/>
<use x="474.04967" y="671.797589" xlink:href="#a"/>
<use x="476.545206" y="671.538936" xlink:href="#a"/>
<use x="479.567533" y="672.460095" xlink:href="#a"/>
<use x="480.36666" y="673.061324" xlink:href="#a"/>
<use x="481.440007" y="674.798614" xlink:href="#a"/>
<use x="485.126427" y="672.504463" xlink:href="#a"/>
<use x="487.429773" y="671.533105" xlink:href="#a"/>
<use x="492.872248" y="670.006843" xlink:href="#a"/>
<use x="495.89167" y="671.751073" xlink:href="#a"/>
<use x="498.327974" y="672.336418" xlink:href="#a"/>
<use x="500.996" y="669.223019" xlink:href="#a"/>
<use x="504.236732" y="670.582775" xlink:href="#a"/>
<use x="507.02504" y="670.374127" xlink:href="#a"/>
<use x="509.662284" y="670.576545" xlink:href="#a"/>
<use x="512.539167" y="669.290464" xlink:href="#a"/>
<use x="515.154028" y="670.750411" xlink:href="#a"/>
<use x="517.971233" y="668.206301" xlink:href="#a"/>
<use x="520.823785" y="668.690558" xlink:href="#a"/>
<use x="523.221294" y="669.676674" xlink:href="#a"/>
<use x="526.297903" y="671.259721" xlink:href="#a"/>
<use x="529.267417" y="671.526222" xlink:href="#a"/>
<use x="531.834159" y="668.463832" xlink:href="#a"/>
<use x="534.784993" y="667.8991" xlink:href="#a"/>
<use x="537.321273" y="667.999202" xlink:href="#a"/>
<use x="542.614696" y="669.436662" xlink:href="#a"/>
<use x="544.931261" y="668.454135" xlink:href="#a"/>
<use x="545.982001" y="668.295714" xlink:href="#a"/>
<use x="548.098202" y="668.797907" xlink:href="#a"/>
<use x="551.282066" y="668.343589" xlink:href="#a"/>
<use x="553.3292" y="668.749247" xlink:href="#a"/>
<use x="556.814106" y="666.749407" xlink:href="#a"/>
<use x="557.105026" y="665.829814" xlink:href="#a"/>
<use x="559.336879" y="672.672689" xlink:href="#a"/>
<use x="561.421756" y="668.632013" xlink:href="#a"/>
<use x="561.459019" y="670.541653" xlink:href="#a"/>
<use x="561.555992" y="671.33567" xlink:href="#a"/>
<use x="562.408124" y="670.877245" xlink:href="#a"/>
<use x="565.025571" y="671.83976" xlink:href="#a"/>
<use x="567.572132" y="669.448383" xlink:href="#a"/>
<use x="567.688232" y="670.704731" xlink:href="#a"/>
<use x="570.700437" y="670.071044" xlink:href="#a"/>
<use x="573.436602" y="669.496912" xlink:href="#a"/>
<use x="575.874823" y="669.799118" xlink:href="#a"/>
<use x="576.147478" y="670.279161" xlink:href="#a"/>
<use x="576.258756" y="671.39319" xlink:href="#a"/>
<use x="576.36566" y="671.113193" xlink:href="#a"/>
<use x="577.803176" y="672.308242" xlink:href="#a"/>
<use x="579.001882" y="672.296631" xlink:href="#a"/>
<use x="580.794051" y="670.457853" xlink:href="#a"/>
<use x="581.671376" y="669.676834" xlink:href="#a"/>
<use x="584.315326" y="671.080102" xlink:href="#a"/>
<use x="586.591882" y="671.335128" xlink:href="#a"/>
<use x="589.427926" y="671.642966" xlink:href="#a"/>
<use x="592.785014" y="671.096785" xlink:href="#a"/>
<use x="594.103077" y="670.08159" xlink:href="#a"/>
<use x="595.540177" y="670.262245" xlink:href="#a"/>
<use x="598.283016" y="668.343622" xlink:href="#a"/>
<use x="600.854738" y="669.32587" xlink:href="#a"/>
<use x="603.070786" y="672.100678" xlink:href="#a"/>
<use x="605.730318" y="667.423034" xlink:href="#a"/>
<use x="608.426442" y="668.535958" xlink:href="#a"/>
<use x="609.236617" y="668.149456" xlink:href="#a"/>
<use x="611.233461" y="668.530593" xlink:href="#a"/>
<use x="614.714886" y="670.560565" xlink:href="#a"/>
<use x="617.088831" y="672.445815" xlink:href="#a"/>
<use x="620.304721" y="671.913755" xlink:href="#a"/>
<use x="622.953971" y="667.727605" xlink:href="#a"/>
<use x="625.819232" y="669.546032" xlink:href="#a"/>
<use x="628.562709" y="669.363151" xlink:href="#a"/>
<use x="631.128269" y="668.741526" xlink:href="#a"/>
<use x="634.141017" y="670.553478" xlink:href="#a"/>
<use x="636.80422" y="672.104956" xlink:href="#a"/>
<use x="638.911991" y="670.861612" xlink:href="#a"/>
<use x="639.068355" y="672.9044" xlink:href="#a"/>
<use x="642.115876" y="671.535422" xlink:href="#a"/>
<use x="644.605792" y="669.911041" xlink:href="#a"/>
<use x="647.950395" y="670.45789" xlink:href="#a"/>
<use x="650.247418" y="671.556987" xlink:href="#a"/>
<use x="653.425599" y="673.005337" xlink:href="#a"/>
<use x="655.95364" y="670.748741" xlink:href="#a"/>
<use x="658.969901" y="670.124653" xlink:href="#a"/>
<use x="661.030191" y="671.407515" xlink:href="#a"/>
<use x="663.789665" y="670.914772" xlink:href="#a"/>
<use x="667.28779" y="671.515287" xlink:href="#a"/>
<use x="669.7293" y="672.120314" xlink:href="#a"/>
<use x="672.429575" y="669.120648" xlink:href="#a"/>
<use x="674.456912" y="669.902641" xlink:href="#a"/>
<use x="675.265683" y="668.768356" xlink:href="#a"/>
<use x="678.232099" y="666.119523" xlink:href="#a"/>
<use x="680.133439" y="665.745988" xlink:href="#a"/>
<use x="680.523758" y="668.590688" xlink:href="#a"/>
<use x="680.808196" y="668.562309" xlink:href="#a"/>
<use x="683.505374" y="671.082655" xlink:href="#a"/>
<use x="686.256387" y="665.318761" xlink:href="#a"/>
</g>
</g>
<path d="m40.6 700v-313" fill="none" stroke="#000" stroke-linecap="square" stroke-width=".8"/>
<path d="m717 700v-313" fill="none" stroke="#000" stroke-linecap="square" stroke-width=".8"/>
<path d="m40.6 700h676" fill="none" stroke="#000" stroke-linecap="square" stroke-width=".8"/>
<path d="m40.6 388h676" fill="none" stroke="#000" stroke-linecap="square" stroke-width=".8"/>
<path d="m71.8 549-0.349 7.35" fill="none" stroke="#888" stroke-linecap="round"/>
<g transform="translate(74.5 545) rotate(-90) scale(.08 -.08)" fill="#888">
<use xlink:href="#z"/>
<use transform="translate(61.3)" xlink:href="#b"/>
</g>
<g clip-path="url(#h)">
<g transform="translate(58.2 676) rotate(-90) scale(.1 -.1)">
<use xlink:href="#ab"/>
<use transform="translate(35.2)" xlink:href="#z"/>
<use transform="translate(96.5)" xlink:href="#x"/>
<use transform="translate(149)" xlink:href="#p"/>
<use transform="translate(188)" xlink:href="#s"/>
<use transform="translate(249)" xlink:href="#n"/>
<use transform="translate(290)" xlink:href="#DejaVuSans-20"/>
<use transform="translate(322)" xlink:href="#am"/>
</g>
</g>
<g clip-path="url(#h)">
<g transform="translate(58.2 744) rotate(-90) scale(.1 -.1)">
<use xlink:href="#an"/>
<use transform="translate(143)" xlink:href="#DejaVuSans-20"/>
<use transform="translate(175)" xlink:href="#x"/>
<use transform="translate(227)" xlink:href="#r"/>
<use transform="translate(255)" xlink:href="#q"/>
<use transform="translate(316)" xlink:href="#ai"/>
<use transform="translate(398)" xlink:href="#s"/>
<use transform="translate(460)" xlink:href="#n"/>
</g>
</g>
<g transform="translate(296 382) scale(.12 -.12)">
<use xlink:href="#ah"/>
<use transform="translate(60.3)" xlink:href="#af"/>
<use transform="translate(119)" xlink:href="#p"/>
<use transform="translate(159)" xlink:href="#aj"/>
<use transform="translate(222)" xlink:href="#q"/>
<use transform="translate(283)" xlink:href="#o"/>
<use transform="translate(347)" xlink:href="#DejaVuSans-20"/>
<use transform="translate(378)" xlink:href="#t"/>
<use transform="translate(442)" xlink:href="#f"/>
<use transform="translate(474)" xlink:href="#d"/>
<use transform="translate(537)" xlink:href="#j"/>
<use transform="translate(601)" xlink:href="#f"/>
<use transform="translate(633)" xlink:href="#w"/>
<use transform="translate(692)" xlink:href="#DejaVuSans-20"/>
<use transform="translate(724)" xlink:href="#y"/>
<use transform="translate(783)" xlink:href="#x"/>
<use transform="translate(835)" xlink:href="#f"/>
<use transform="translate(867)" xlink:href="#DejaVuSans-20"/>
<use transform="translate(899)" xlink:href="#t"/>
<use transform="translate(962)" xlink:href="#f"/>
<use transform="translate(994)" xlink:href="#d"/>
<use transform="translate(1058)" xlink:href="#t"/>
<use transform="translate(1121)" xlink:href="#f"/>
<use transform="translate(1153)" xlink:href="#b"/>
<use transform="translate(1217)" xlink:href="#n"/>
<use transform="translate(1256)" xlink:href="#ac"/>
<use transform="translate(1311)" xlink:href="#c"/>
</g>
<path d="m47.6 425h82.6q2 0 2-2v-28.4q0-2-2-2h-82.6q-2 0-2 2v28.4q0 2 2 2z" fill="#fff" opacity=".8" stroke="#ccc"/>
<path d="m49.6 401h10 10" fill="none" stroke="#1f77b4" stroke-linecap="square" stroke-opacity=".9" stroke-width="1.5"/>
<use x="59.645553" y="400.623678" fill="#1f77b4" fill-opacity=".9" stroke="#1f77b4" stroke-opacity=".9" xlink:href="#a"/>
<g transform="translate(77.6 404) scale(.1 -.1)">
<use xlink:href="#r"/>
<use transform="translate(27.8)" xlink:href="#v"/>
<use transform="translate(55.6)" xlink:href="#o"/>
<use transform="translate(119)" xlink:href="#u"/>
<use transform="translate(182)" xlink:href="#w"/>
</g>
<path d="m49.6 415h10 10" fill="none" stroke="#1f77b4" stroke-dasharray="1.5,2.475" stroke-opacity=".9" stroke-width="1.5"/>
<use x="59.645553" y="415.301803" fill="#1f77b4" fill-opacity=".9" stroke="#1f77b4" stroke-opacity=".9" xlink:href="#a"/>
<g transform="translate(77.6 419) scale(.1 -.1)">
<use xlink:href="#r"/>
<use transform="translate(27.8)" xlink:href="#v"/>
<use transform="translate(55.6)" xlink:href="#o"/>
<use transform="translate(119)" xlink:href="#u"/>
<use transform="translate(182)" xlink:href="#w"/>
<use transform="translate(242)" xlink:href="#e"/>
<use transform="translate(275)" xlink:href="#y"/>
<use transform="translate(334)" xlink:href="#u"/>
<use transform="translate(398)" xlink:href="#r"/>
<use transform="translate(425)" xlink:href="#p"/>
<use transform="translate(465)" xlink:href="#n"/>
</g>
<g transform="translate(229 12.1) scale(.12 -.12)">
<defs>
<path id="ag" transform="scale(.0156)" d="m3328 2828q216 388 516 572t706 184q547 0 844-383 297-382 297-1088v-2113h-578v2094q0 503-179 746-178 244-543 244-447 0-707-297-259-296-259-809v-1978h-578v2094q0 506-178 748t-550 242q-441 0-701-298-259-298-259-808v-1978h-578v3500h578v-544q197 322 472 475t653 153q382 0 649-194 267-193 395-562z"/>
<path id="ao" transform="scale(.0156)" d="m1159 525v-1856h-578v4831h578v-531q182 312 458 463 277 152 661 152 638 0 1036-506 399-506 399-1331t-399-1332q-398-506-1036-506-384 0-661 152-276 152-458 464zm1957 1222q0 634-261 995t-717 361q-457 0-718-361t-261-995 261-995 718-361q456 0 717 361t261 995z"/>
<path id="ap" transform="scale(.0156)" d="m2906 1791q0 625-258 968-257 344-723 344-462 0-720-344-258-343-258-968 0-622 258-966t720-344q466 0 723 344 258 344 258 966zm575-1357q0-893-397-1329-396-436-1215-436-303 0-572 45t-522 139v559q253-137 500-202 247-66 503-66 566 0 847 295t281 892v285q-178-310-456-463t-666-153q-643 0-1037 490-394 491-394 1301 0 812 394 1302 394 491 1037 491 388 0 666-153t456-462v531h575v-3066z"/>
</defs>
<use xlink:href="#ah"/>
<use transform="translate(56.7)" xlink:href="#s"/>
<use transform="translate(118)" xlink:href="#n"/>
<use transform="translate(159)" xlink:href="#ab"/>
<use transform="translate(195)" xlink:href="#q"/>
<use transform="translate(256)" xlink:href="#n"/>
<use transform="translate(295)" xlink:href="#ag"/>
<use transform="translate(392)" xlink:href="#z"/>
<use transform="translate(454)" xlink:href="#o"/>
<use transform="translate(517)" xlink:href="#ac"/>
<use transform="translate(572)" xlink:href="#s"/>
<use transform="translate(634)" xlink:href="#DejaVuSans-20"/>
<use transform="translate(665)" xlink:href="#v"/>
<use transform="translate(693)" xlink:href="#ag"/>
<use transform="translate(791)" xlink:href="#ao"/>
<use transform="translate(854)" xlink:href="#n"/>
<use transform="translate(893)" xlink:href="#q"/>
<use transform="translate(954)" xlink:href="#y"/>
<use transform="translate(1013)" xlink:href="#s"/>
<use transform="translate(1075)" xlink:href="#ag"/>
<use transform="translate(1172)" xlink:href="#s"/>
<use transform="translate(1234)" xlink:href="#o"/>
<use transform="translate(1297)" xlink:href="#p"/>
<use transform="translate(1336)" xlink:href="#DejaVuSans-20"/>
<use transform="translate(1368)" xlink:href="#ak"/>
<use transform="translate(1432)" xlink:href="#af"/>
<use transform="translate(1491)" xlink:href="#DejaVuSans-20"/>
<use transform="translate(1523)" xlink:href="#ac"/>
<use transform="translate(1578)" xlink:href="#q"/>
<use transform="translate(1639)" xlink:href="#o"/>
<use transform="translate(1702)" xlink:href="#ab"/>
<use transform="translate(1737)" xlink:href="#v"/>
<use transform="translate(1765)" xlink:href="#ap"/>
<use transform="translate(1829)" xlink:href="#u"/>
<use transform="translate(1892)" xlink:href="#n"/>
<use transform="translate(1933)" xlink:href="#z"/>
<use transform="translate(1994)" xlink:href="#p"/>
<use transform="translate(2034)" xlink:href="#v"/>
<use transform="translate(2061)" xlink:href="#q"/>
<use transform="translate(2123)" xlink:href="#o"/>
</g>
<defs>
<clipPath id="g">
<rect x="40.6" y="35.7" width="676" height="313"/>
</clipPath>
<clipPath id="h">
<rect x="40.6" y="388" width="676" height="313"/>
</clipPath>
</defs>
</svg>
