<?xml version="1.0" encoding="UTF-8"?>
<!DOCTYPE svg  PUBLIC '-//W3C//DTD SVG 1.1//EN'  'http://www.w3.org/Graphics/SVG/1.1/DTD/svg11.dtd'>
<svg width="720pt" height="720pt" version="1.1" viewBox="0 0 720 720" xmlns="http://www.w3.org/2000/svg" xmlns:xlink="http://www.w3.org/1999/xlink">
<defs>
<style type="text/css">*{stroke-linejoin: round; stroke-linecap: butt}</style>
</defs>
<path d="m0 720h720v-720h-720z" fill="#fff"/>
<path d="m40.6 349h676v-313h-676z" fill="#fff"/>
<path d="m101 349v-313" clip-path="url(#g)" fill="none" stroke="#b0b0b0" stroke-linecap="square" stroke-width=".8"/>
<defs>
<path id="j" d="m0 0v3.5" stroke="#000" stroke-width=".8"/>
</defs>
<use x="100.952813" y="348.52899" stroke="#000000" stroke-width=".8" xlink:href="#j"/>
<g transform="translate(71.9 363) scale(.1 -.1)">
<defs>
<path id="c" transform="scale(.0156)" d="m1228 531h2203v-531h-2962v531q359 372 979 998 621 627 780 809 303 340 423 576 121 236 121 464 0 372-261 606-261 235-680 235-297 0-627-103-329-103-704-313v638q381 153 712 231 332 78 607 78 725 0 1156-363 431-362 431-968 0-288-108-546-107-257-392-607-78-91-497-524-418-433-1181-1211z"/>
<path id="b" transform="scale(.0156)" d="m2034 4250q-487 0-733-480-245-479-245-1442 0-959 245-1439 246-480 733-480 491 0 736 480 246 480 246 1439 0 963-246 1442-245 480-736 480zm0 500q785 0 1199-621 414-620 414-1801 0-1178-414-1799-414-620-1199-620-784 0-1198 620-414 621-414 1799 0 1181 414 1801 414 621 1198 621z"/>
<path id="n" transform="scale(.0156)" d="m2419 4116-1594-2491h1594v2491zm-166 550h794v-3041h666v-525h-666v-1100h-628v1100h-2106v609l1940 2957z"/>
<path id="f" transform="scale(.0156)" d="m313 2009h1684v-512h-1684v512z"/>
<path id="k" transform="scale(.0156)" d="m691 4666h2478v-532h-1900v-1143q137 47 274 70 138 23 276 23 781 0 1237-428 457-428 457-1159 0-753-469-1171-469-417-1322-417-294 0-599 50-304 50-629 150v635q281-153 581-228t634-75q541 0 856 284 316 284 316 772 0 487-316 771-315 285-856 285-253 0-505-56-251-56-513-175v2344z"/>
<path id="d" transform="scale(.0156)" d="m794 531h1031v3560l-1122-225v575l1116 225h631v-4135h1031v-531h-2687v531z"/>
</defs>
<use xlink:href="#c"/>
<use transform="translate(63.6)" xlink:href="#b"/>
<use transform="translate(127)" xlink:href="#c"/>
<use transform="translate(191)" xlink:href="#n"/>
<use transform="translate(254)" xlink:href="#f"/>
<use transform="translate(291)" xlink:href="#b"/>
<use transform="translate(354)" xlink:href="#k"/>
<use transform="translate(418)" xlink:href="#f"/>
<use transform="translate(454)" xlink:href="#d"/>
<use transform="translate(518)" xlink:href="#k"/>
</g>
<path d="m178 349v-313" clip-path="url(#g)" fill="none" stroke="#b0b0b0" stroke-linecap="square" stroke-width=".8"/>
<use x="177.952914" y="348.52899" stroke="#000000" stroke-width=".8" xlink:href="#j"/>
<g transform="translate(149 363) scale(.1 -.1)">
<defs>
<path id="ah" transform="scale(.0156)" d="m2113 2584q-425 0-674-291-248-290-248-796 0-503 248-796 249-292 674-292t673 292q248 293 248 796 0 506-248 796-248 291-673 291zm1253 1979v-575q-238 112-480 171-242 60-480 60-625 0-955-422-329-422-376-1275 184 272 462 417 279 145 613 145 703 0 1111-427 408-426 408-1160 0-719-425-1154-425-434-1131-434-810 0-1238 620-428 621-428 1799 0 1106 525 1764t1409 658q238 0 480-47t505-140z"/>
</defs>
<use xlink:href="#c"/>
<use transform="translate(63.6)" xlink:href="#b"/>
<use transform="translate(127)" xlink:href="#c"/>
<use transform="translate(191)" xlink:href="#n"/>
<use transform="translate(254)" xlink:href="#f"/>
<use transform="translate(291)" xlink:href="#b"/>
<use transform="translate(354)" xlink:href="#ah"/>
<use transform="translate(418)" xlink:href="#f"/>
<use transform="translate(454)" xlink:href="#b"/>
<use transform="translate(518)" xlink:href="#d"/>
</g>
<path d="m241 349v-313" clip-path="url(#g)" fill="none" stroke="#b0b0b0" stroke-linecap="square" stroke-width=".8"/>
<use x="241.364762" y="348.52899" stroke="#000000" stroke-width=".8" xlink:href="#j"/>
<g transform="translate(212 363) scale(.1 -.1)">
<use xlink:href="#c"/>
<use transform="translate(63.6)" xlink:href="#b"/>
<use transform="translate(127)" xlink:href="#c"/>
<use transform="translate(191)" xlink:href="#n"/>
<use transform="translate(254)" xlink:href="#f"/>
<use transform="translate(291)" xlink:href="#b"/>
<use transform="translate(354)" xlink:href="#ah"/>
<use transform="translate(418)" xlink:href="#f"/>
<use transform="translate(454)" xlink:href="#d"/>
<use transform="translate(518)" xlink:href="#k"/>
</g>
<path d="m314 349v-313" clip-path="url(#g)" fill="none" stroke="#b0b0b0" stroke-linecap="square" stroke-width=".8"/>
<use x="313.835446" y="348.52899" stroke="#000000" stroke-width=".8" xlink:href="#j"/>
<g transform="translate(285 363) scale(.1 -.1)">
<defs>
<path id="al" transform="scale(.0156)" d="m525 4666h3e3v-269l-1694-4397h-659l1594 4134h-2241v532z"/>
</defs>
<use xlink:href="#c"/>
<use transform="translate(63.6)" xlink:href="#b"/>
<use transform="translate(127)" xlink:href="#c"/>
<use transform="translate(191)" xlink:href="#n"/>
<use transform="translate(254)" xlink:href="#f"/>
<use transform="translate(291)" xlink:href="#b"/>
<use transform="translate(354)" xlink:href="#al"/>
<use transform="translate(418)" xlink:href="#f"/>
<use transform="translate(454)" xlink:href="#b"/>
<use transform="translate(518)" xlink:href="#d"/>
</g>
<path d="m377 349v-313" clip-path="url(#g)" fill="none" stroke="#b0b0b0" stroke-linecap="square" stroke-width=".8"/>
<use x="377.247294" y="348.52899" stroke="#000000" stroke-width=".8" xlink:href="#j"/>
<g transform="translate(348 363) scale(.1 -.1)">
<use xlink:href="#c"/>
<use transform="translate(63.6)" xlink:href="#b"/>
<use transform="translate(127)" xlink:href="#c"/>
<use transform="translate(191)" xlink:href="#n"/>
<use transform="translate(254)" xlink:href="#f"/>
<use transform="translate(291)" xlink:href="#b"/>
<use transform="translate(354)" xlink:href="#al"/>
<use transform="translate(418)" xlink:href="#f"/>
<use transform="translate(454)" xlink:href="#d"/>
<use transform="translate(518)" xlink:href="#k"/>
</g>
<path d="m454 349v-313" clip-path="url(#g)" fill="none" stroke="#b0b0b0" stroke-linecap="square" stroke-width=".8"/>
<use x="454.247396" y="348.52899" stroke="#000000" stroke-width=".8" xlink:href="#j"/>
<g transform="translate(425 363) scale(.1 -.1)">
<defs>
<path id="ag" transform="scale(.0156)" d="m2034 2216q-450 0-708-241-257-241-257-662 0-422 257-663 258-241 708-241t709 242q260 243 260 662 0 421-258 662-257 241-711 241zm-631 268q-406 100-633 378-226 279-226 679 0 559 398 884 399 325 1092 325 697 0 1094-325t397-884q0-400-227-679-226-278-629-378 456-106 710-416 255-309 255-755 0-679-414-1042-414-362-1186-362-771 0-1186 362-414 363-414 1042 0 446 256 755 257 310 713 416zm-231 997q0-362 226-565 227-203 636-203 407 0 636 203 230 203 230 565 0 363-230 566-229 203-636 203-409 0-636-203-226-203-226-566z"/>
</defs>
<use xlink:href="#c"/>
<use transform="translate(63.6)" xlink:href="#b"/>
<use transform="translate(127)" xlink:href="#c"/>
<use transform="translate(191)" xlink:href="#n"/>
<use transform="translate(254)" xlink:href="#f"/>
<use transform="translate(291)" xlink:href="#b"/>
<use transform="translate(354)" xlink:href="#ag"/>
<use transform="translate(418)" xlink:href="#f"/>
<use transform="translate(454)" xlink:href="#b"/>
<use transform="translate(518)" xlink:href="#d"/>
</g>
<path d="m518 349v-313" clip-path="url(#g)" fill="none" stroke="#b0b0b0" stroke-linecap="square" stroke-width=".8"/>
<use x="517.659244" y="348.52899" stroke="#000000" stroke-width=".8" xlink:href="#j"/>
<g transform="translate(489 363) scale(.1 -.1)">
<use xlink:href="#c"/>
<use transform="translate(63.6)" xlink:href="#b"/>
<use transform="translate(127)" xlink:href="#c"/>
<use transform="translate(191)" xlink:href="#n"/>
<use transform="translate(254)" xlink:href="#f"/>
<use transform="translate(291)" xlink:href="#b"/>
<use transform="translate(354)" xlink:href="#ag"/>
<use transform="translate(418)" xlink:href="#f"/>
<use transform="translate(454)" xlink:href="#d"/>
<use transform="translate(518)" xlink:href="#k"/>
</g>
<path d="m595 349v-313" clip-path="url(#g)" fill="none" stroke="#b0b0b0" stroke-linecap="square" stroke-width=".8"/>
<use x="594.659346" y="348.52899" stroke="#000000" stroke-width=".8" xlink:href="#j"/>
<g transform="translate(566 363) scale(.1 -.1)">
<defs>
<path id="ac" transform="scale(.0156)" d="m703 97v575q238-113 481-172 244-59 479-59 625 0 954 420 330 420 377 1277-181-269-460-413-278-144-615-144-700 0-1108 423-408 424-408 1159 0 718 425 1152 425 435 1131 435 810 0 1236-621 427-620 427-1801 0-1103-524-1761-523-658-1407-658-238 0-482 47-243 47-506 141zm1256 1978q425 0 673 290 249 291 249 798 0 503-249 795-248 292-673 292t-673-292-248-795q0-507 248-798 248-290 673-290z"/>
</defs>
<use xlink:href="#c"/>
<use transform="translate(63.6)" xlink:href="#b"/>
<use transform="translate(127)" xlink:href="#c"/>
<use transform="translate(191)" xlink:href="#n"/>
<use transform="translate(254)" xlink:href="#f"/>
<use transform="translate(291)" xlink:href="#b"/>
<use transform="translate(354)" xlink:href="#ac"/>
<use transform="translate(418)" xlink:href="#f"/>
<use transform="translate(454)" xlink:href="#b"/>
<use transform="translate(518)" xlink:href="#d"/>
</g>
<path d="m658 349v-313" clip-path="url(#g)" fill="none" stroke="#b0b0b0" stroke-linecap="square" stroke-width=".8"/>
<use x="658.071194" y="348.52899" stroke="#000000" stroke-width=".8" xlink:href="#j"/>
<g transform="translate(629 363) scale(.1 -.1)">
<use xlink:href="#c"/>
<use transform="translate(63.6)" xlink:href="#b"/>
<use transform="translate(127)" xlink:href="#c"/>
<use transform="translate(191)" xlink:href="#n"/>
<use transform="translate(254)" xlink:href="#f"/>
<use transform="translate(291)" xlink:href="#b"/>
<use transform="translate(354)" xlink:href="#ac"/>
<use transform="translate(418)" xlink:href="#f"/>
<use transform="translate(454)" xlink:href="#d"/>
<use transform="translate(518)" xlink:href="#k"/>
</g>
<path d="m40.6 349h676" clip-path="url(#g)" fill="none" stroke="#b0b0b0" stroke-linecap="square" stroke-width=".8"/>
<defs>
<path id="l" d="m0 0h-3.5" stroke="#000" stroke-width=".8"/>
</defs>
<use x="40.645553" y="348.52899" stroke="#000000" stroke-width=".8" xlink:href="#l"/>
<g transform="translate(3 352) scale(.1 -.1)">
<defs>
<path id="h" transform="scale(.0156)" d="m684 794h660v-794h-660v794z"/>
<path id="m" transform="scale(.0156)" d="m4488 3438-1429-1435 1429-1428-372-378-1435 1434-1434-1434-369 378 1425 1428-1425 1435 369 378 1434-1435 1435 1435 372-378z"/>
</defs>
<use xlink:href="#b"/>
<use transform="translate(63.6)" xlink:href="#h"/>
<use transform="translate(95.4)" xlink:href="#ac"/>
<use transform="translate(159)" xlink:href="#b"/>
<use transform="translate(223)" xlink:href="#m"/>
</g>
<path d="m40.6 309h676" clip-path="url(#g)" fill="none" stroke="#b0b0b0" stroke-linecap="square" stroke-width=".8"/>
<use x="40.645553" y="309.429441" stroke="#000000" stroke-width=".8" xlink:href="#l"/>
<g transform="translate(3 313) scale(.1 -.1)">
<use xlink:href="#b"/>
<use transform="translate(63.6)" xlink:href="#h"/>
<use transform="translate(95.4)" xlink:href="#ac"/>
<use transform="translate(159)" xlink:href="#k"/>
<use transform="translate(223)" xlink:href="#m"/>
</g>
<path d="m40.6 270h676" clip-path="url(#g)" fill="none" stroke="#b0b0b0" stroke-linecap="square" stroke-width=".8"/>
<use x="40.645553" y="270.329891" stroke="#000000" stroke-width=".8" xlink:href="#l"/>
<g transform="translate(3 274) scale(.1 -.1)">
<use xlink:href="#d"/>
<use transform="translate(63.6)" xlink:href="#h"/>
<use transform="translate(95.4)" xlink:href="#b"/>
<use transform="translate(159)" xlink:href="#b"/>
<use transform="translate(223)" xlink:href="#m"/>
</g>
<path d="m40.6 231h676" clip-path="url(#g)" fill="none" stroke="#b0b0b0" stroke-linecap="square" stroke-width=".8"/>
<use x="40.645553" y="231.230342" stroke="#000000" stroke-width=".8" xlink:href="#l"/>
<g transform="translate(3 235) scale(.1 -.1)">
<use xlink:href="#d"/>
<use transform="translate(63.6)" xlink:href="#h"/>
<use transform="translate(95.4)" xlink:href="#b"/>
<use transform="translate(159)" xlink:href="#k"/>
<use transform="translate(223)" xlink:href="#m"/>
</g>
<path d="m40.6 192h676" clip-path="url(#g)" fill="none" stroke="#b0b0b0" stroke-linecap="square" stroke-width=".8"/>
<use x="40.645553" y="192.130792" stroke="#000000" stroke-width=".8" xlink:href="#l"/>
<g transform="translate(3 196) scale(.1 -.1)">
<use xlink:href="#d"/>
<use transform="translate(63.6)" xlink:href="#h"/>
<use transform="translate(95.4)" xlink:href="#d"/>
<use transform="translate(159)" xlink:href="#b"/>
<use transform="translate(223)" xlink:href="#m"/>
</g>
<path d="m40.6 153h676" clip-path="url(#g)" fill="none" stroke="#b0b0b0" stroke-linecap="square" stroke-width=".8"/>
<use x="40.645553" y="153.031243" stroke="#000000" stroke-width=".8" xlink:href="#l"/>
<g transform="translate(3 157) scale(.1 -.1)">
<use xlink:href="#d"/>
<use transform="translate(63.6)" xlink:href="#h"/>
<use transform="translate(95.4)" xlink:href="#d"/>
<use transform="translate(159)" xlink:href="#k"/>
<use transform="translate(223)" xlink:href="#m"/>
</g>
<path d="m40.6 114h676" clip-path="url(#g)" fill="none" stroke="#b0b0b0" stroke-linecap="square" stroke-width=".8"/>
<use x="40.645553" y="113.931694" stroke="#000000" stroke-width=".8" xlink:href="#l"/>
<g transform="translate(3 118) scale(.1 -.1)">
<use xlink:href="#d"/>
<use transform="translate(63.6)" xlink:href="#h"/>
<use transform="translate(95.4)" xlink:href="#c"/>
<use transform="translate(159)" xlink:href="#b"/>
<use transform="translate(223)" xlink:href="#m"/>
</g>
<path d="m40.6 74.8h676" clip-path="url(#g)" fill="none" stroke="#b0b0b0" stroke-linecap="square" stroke-width=".8"/>
<use x="40.645553" y="74.832144" stroke="#000000" stroke-width=".8" xlink:href="#l"/>
<g transform="translate(3 78.6) scale(.1 -.1)">
<use xlink:href="#d"/>
<use transform="translate(63.6)" xlink:href="#h"/>
<use transform="translate(95.4)" xlink:href="#c"/>
<use transform="translate(159)" xlink:href="#k"/>
<use transform="translate(223)" xlink:href="#m"/>
</g>
<path d="m40.6 35.7h676" clip-path="url(#g)" fill="none" stroke="#b0b0b0" stroke-linecap="square" stroke-width=".8"/>
<use x="40.645553" y="35.732595" stroke="#000000" stroke-width=".8" xlink:href="#l"/>
<g transform="translate(3 39.5) scale(.1 -.1)">
<defs>
<path id="r" transform="scale(.0156)" d="m2597 2516q453-97 707-404 255-306 255-756 0-690-475-1069-475-378-1350-378-293 0-604 58t-642 174v609q262-153 574-231 313-78 654-78 593 0 904 234t311 681q0 413-289 645-289 233-804 233h-544v519h569q465 0 712 186t247 536q0 359-255 551-254 193-729 193-260 0-557-57-297-56-653-174v562q360 100 674 150t592 50q719 0 1137-327 419-326 419-882 0-388-222-655t-631-370z"/>
</defs>
<use xlink:href="#d"/>
<use transform="translate(63.6)" xlink:href="#h"/>
<use transform="translate(95.4)" xlink:href="#r"/>
<use transform="translate(159)" xlink:href="#b"/>
<use transform="translate(223)" xlink:href="#m"/>
</g>
<path d="m71.4 270 446-7.82h104" clip-path="url(#g)" fill="none" stroke="#1f77b4" stroke-linecap="square" stroke-opacity=".9" stroke-width="1.5"/>
<defs>
<path id="a" d="m-2.5 2.5h5v-5h-5z" stroke="#1f77b4" stroke-opacity=".9"/>
</defs>
<g clip-path="url(#g)" fill="#1f77b4" fill-opacity=".9" stroke="#1f77b4" stroke-opacity=".9">
<use x="71.388926" y="270.329891" xlink:href="#a"/>
<use x="517.569023" y="262.509981" xlink:href="#a"/>
<use x="621.695409" y="262.509981" xlink:href="#a"/>
</g>
<g stroke="#1f77b4" stroke-opacity=".9">
<path d="m622 255h64.6" clip-path="url(#g)" fill="none" stroke-dasharray="1.5,2.475" stroke-width="1.5"/>
<g clip-path="url(#g)" fill="#1f77b4" fill-opacity=".9">
<use x="621.695409" y="254.690071" xlink:href="#a"/>
<use x="686.256387" y="254.690071" xlink:href="#a"/>
</g>
</g>
<path d="m622 223" clip-path="url(#g)" fill="none" stroke="#2ca02c" stroke-linecap="square" stroke-opacity=".9" stroke-width="1.5"/>
<defs>
<path id="e" d="m0-2.5-2.5 5h5z" stroke="#2ca02c" stroke-opacity=".9"/>
</defs>
<g clip-path="url(#g)">
<use x="621.695409" y="223.410432" fill="#2ca02c" fill-opacity=".9" stroke="#2ca02c" stroke-opacity=".9" xlink:href="#e"/>
</g>
<path d="m40.6 349v-313" fill="none" stroke="#000" stroke-linecap="square" stroke-width=".8"/>
<path d="m717 349v-313" fill="none" stroke="#000" stroke-linecap="square" stroke-width=".8"/>
<path d="m40.6 349h676" fill="none" stroke="#000" stroke-linecap="square" stroke-width=".8"/>
<path d="m40.6 35.7h676" fill="none" stroke="#000" stroke-linecap="square" stroke-width=".8"/>
<path d="m71.8 261-0.348 7.35" fill="none" stroke="#888" stroke-linecap="round"/>
<g transform="translate(74.5 257) rotate(-90) scale(.08 -.08)" fill="#888">
<defs>
<path id="aj" transform="scale(.0156)" d="m3116 1747q0 634-261 995t-717 361q-457 0-718-361t-261-995 261-995 718-361q456 0 717 361t261 995zm-1957 1222q182 312 458 463 277 152 661 152 638 0 1036-506 399-506 399-1331t-399-1332q-398-506-1036-506-384 0-661 152-276 152-458 464v-525h-578v4863h578v-1894z"/>
</defs>
<use xlink:href="#aj"/>
<use transform="translate(63.5)" xlink:href="#d"/>
</g>
<path d="m622 253-0.326 7.34" fill="none" stroke="#888" stroke-linecap="round"/>
<g transform="translate(625 249) rotate(-90) scale(.08 -.08)" fill="#888">
<defs>
<path id="p" transform="scale(.0156)" d="m2631 2963q-97 56-211 82-114 27-251 27-488 0-749-317t-261-911v-1844h-578v3500h578v-544q182 319 472 473 291 155 707 155 59 0 131-8 72-7 159-23l3-590z"/>
<path id="ab" transform="scale(.0156)" d="m3122 3366v-538q-244 135-489 202t-495 67q-560 0-870-355-309-354-309-995t309-996q310-354 870-354 250 0 495 67t489 202v-532q-241-112-499-168-257-57-548-57-791 0-1257 497-465 497-465 1341 0 856 470 1346 471 491 1290 491 265 0 518-55 253-54 491-163z"/>
</defs>
<use xlink:href="#p"/>
<use transform="translate(38.9)" xlink:href="#ab"/>
<use transform="translate(93.8)" xlink:href="#c"/>
</g>
<g clip-path="url(#g)">
<g transform="translate(58.2 262) rotate(-90) scale(.1 -.1)">
<defs>
<path id="x" transform="scale(.0156)" d="m3328 2828q216 388 516 572t706 184q547 0 844-383 297-382 297-1088v-2113h-578v2094q0 503-179 746-178 244-543 244-447 0-707-297-259-296-259-809v-1978h-578v2094q0 506-178 748t-550 242q-441 0-701-298-259-298-259-808v-1978h-578v3500h578v-544q197 322 472 475t653 153q382 0 649-194 267-193 395-562z"/>
<path id="q" transform="scale(.0156)" d="m1959 3097q-462 0-731-361t-269-989 267-989q268-361 733-361 460 0 728 362 269 363 269 988 0 622-269 986-268 364-728 364zm0 487q750 0 1178-488 429-487 429-1349 0-859-429-1349-428-489-1178-489-753 0-1180 489-426 490-426 1349 0 862 426 1349 427 488 1180 488z"/>
<path id="u" transform="scale(.0156)" d="m3597 1894v-281h-2644q38-594 358-905t892-311q331 0 642 81t618 244v-544q-310-131-635-200t-659-69q-838 0-1327 487-489 488-489 1320 0 859 464 1363 464 505 1252 505 706 0 1117-455 411-454 411-1235zm-575 169q-6 471-264 752-258 282-683 282-481 0-770-272t-333-766l2050 4z"/>
<path id="am" transform="scale(.0156)" d="m8863 2147v-281l-1229-1228-375 375 729 728h-7622v531h7622l-729 728 375 375 1229-1228z"/>
</defs>
<use xlink:href="#x"/>
<use transform="translate(97.4)" xlink:href="#q"/>
<use transform="translate(159)" xlink:href="#p"/>
<use transform="translate(197)" xlink:href="#u"/>
<use transform="translate(259)" xlink:href="#DejaVuSans-20"/>
<use transform="translate(291)" xlink:href="#am"/>
</g>
</g>
<g clip-path="url(#g)">
<g transform="translate(58.2 317) rotate(-90) scale(.1 -.1)">
<defs>
<path id="an" transform="scale(.0156)" d="m313 1866v281l1228 1228 375-375-728-728h7621v-531h-7621l728-728-375-375-1228 1228z"/>
<path id="t" transform="scale(.0156)" d="m603 4863h575v-4863h-575v4863z"/>
<path id="o" transform="scale(.0156)" d="m2834 3397v-544q-243 125-506 187-262 63-544 63-428 0-642-131t-214-394q0-200 153-314t616-217l197-44q612-131 870-370t258-667q0-488-386-773-386-284-1061-284-281 0-586 55t-642 164v594q319-166 628-249 309-82 613-82 406 0 624 139 219 139 219 392 0 234-158 359-157 125-692 241l-200 47q-534 112-772 345-237 233-237 639 0 494 350 762 350 269 994 269 318 0 599-47 282-46 519-140z"/>
</defs>
<use xlink:href="#an"/>
<use transform="translate(143)" xlink:href="#DejaVuSans-20"/>
<use transform="translate(175)" xlink:href="#t"/>
<use transform="translate(203)" xlink:href="#u"/>
<use transform="translate(264)" xlink:href="#o"/>
<use transform="translate(317)" xlink:href="#o"/>
</g>
</g>
<g transform="translate(306 29.7) scale(.12 -.12)">
<defs>
<path id="ak" transform="scale(.0156)" d="m1259 4147v-1753h794q441 0 681 228 241 228 241 650 0 419-241 647-240 228-681 228h-794zm-631 519h1425q785 0 1186-355 402-355 402-1039 0-691-402-1044-401-353-1186-353h-794v-1875h-631v4666z"/>
<path id="ad" transform="scale(.0156)" d="m2059-325q-243-625-475-815-231-191-618-191h-460v481h338q237 0 368 113 132 112 291 531l103 262-1415 3444h609l1094-2737 1094 2737h609l-1538-3825z"/>
<path id="ae" transform="scale(.0156)" d="m1172 4494v-994h1184v-447h-1184v-1900q0-428 117-550t477-122h590v-481h-590q-666 0-919 248-253 249-253 905v1900h-422v447h422v994h578z"/>
<path id="af" transform="scale(.0156)" d="m3513 2113v-2113h-575v2094q0 497-194 743-194 247-581 247-466 0-735-297-269-296-269-809v-1978h-578v4863h578v-1907q207 316 486 472 280 156 646 156 603 0 912-373 310-373 310-1098z"/>
<path id="s" transform="scale(.0156)" d="m3513 2113v-2113h-575v2094q0 497-194 743-194 247-581 247-466 0-735-297-269-296-269-809v-1978h-578v3500h578v-544q207 316 486 472 280 156 646 156 603 0 912-373 310-373 310-1098z"/>
<path id="w" transform="scale(.0156)" d="m3513 3500-1266-1703 1331-1797h-678l-1019 1375-1018-1375h-679l1360 1831-1244 1669h678l928-1247 928 1247h679z"/>
<path id="z" transform="scale(.0156)" d="m191 3500h609l1094-2937 1094 2937h609l-1313-3500h-781l-1312 3500z"/>
</defs>
<use xlink:href="#ak"/>
<use transform="translate(60.3)" xlink:href="#ad"/>
<use transform="translate(119)" xlink:href="#ae"/>
<use transform="translate(159)" xlink:href="#af"/>
<use transform="translate(222)" xlink:href="#q"/>
<use transform="translate(283)" xlink:href="#s"/>
<use transform="translate(347)" xlink:href="#DejaVuSans-20"/>
<use transform="translate(378)" xlink:href="#r"/>
<use transform="translate(442)" xlink:href="#h"/>
<use transform="translate(474)" xlink:href="#d"/>
<use transform="translate(537)" xlink:href="#r"/>
<use transform="translate(601)" xlink:href="#h"/>
<use transform="translate(633)" xlink:href="#w"/>
<use transform="translate(692)" xlink:href="#DejaVuSans-20"/>
<use transform="translate(724)" xlink:href="#z"/>
<use transform="translate(783)" xlink:href="#o"/>
<use transform="translate(835)" xlink:href="#h"/>
<use transform="translate(867)" xlink:href="#DejaVuSans-20"/>
<use transform="translate(899)" xlink:href="#r"/>
<use transform="translate(962)" xlink:href="#h"/>
<use transform="translate(994)" xlink:href="#d"/>
<use transform="translate(1058)" xlink:href="#c"/>
<use transform="translate(1121)" xlink:href="#h"/>
<use transform="translate(1153)" xlink:href="#ah"/>
</g>
<path d="m47.6 87.8h82.6q2 0 2-2v-43q0-2-2-2h-82.6q-2 0-2 2v43q0 2 2 2z" fill="#fff" opacity=".8" stroke="#ccc"/>
<path d="m49.6 48.8h10 10" fill="none" stroke="#1f77b4" stroke-linecap="square" stroke-opacity=".9" stroke-width="1.5"/>
<use x="59.645553" y="48.831032" fill="#1f77b4" fill-opacity=".9" stroke="#1f77b4" stroke-opacity=".9" xlink:href="#a"/>
<g transform="translate(77.6 52.3) scale(.1 -.1)">
<defs>
<path id="aa" transform="scale(.0156)" d="m603 3500h575v-3500h-575v3500zm0 1363h575v-729h-575v729z"/>
<path id="v" transform="scale(.0156)" d="m544 1381v2119h575v-2097q0-497 193-746 194-248 582-248 465 0 735 297 271 297 271 810v1984h575v-3500h-575v538q-209-319-486-474-276-155-642-155-603 0-916 375-312 375-312 1097zm1447 2203z"/>
</defs>
<use xlink:href="#t"/>
<use transform="translate(27.8)" xlink:href="#aa"/>
<use transform="translate(55.6)" xlink:href="#s"/>
<use transform="translate(119)" xlink:href="#v"/>
<use transform="translate(182)" xlink:href="#w"/>
</g>
<path d="m49.6 63.5h10 10" fill="none" stroke="#1f77b4" stroke-dasharray="1.5,2.475" stroke-opacity=".9" stroke-width="1.5"/>
<use x="59.645553" y="63.509157" fill="#1f77b4" fill-opacity=".9" stroke="#1f77b4" stroke-opacity=".9" xlink:href="#a"/>
<g transform="translate(77.6 67) scale(.1 -.1)">
<use xlink:href="#t"/>
<use transform="translate(27.8)" xlink:href="#aa"/>
<use transform="translate(55.6)" xlink:href="#s"/>
<use transform="translate(119)" xlink:href="#v"/>
<use transform="translate(182)" xlink:href="#w"/>
<use transform="translate(242)" xlink:href="#f"/>
<use transform="translate(275)" xlink:href="#z"/>
<use transform="translate(334)" xlink:href="#v"/>
<use transform="translate(398)" xlink:href="#t"/>
<use transform="translate(425)" xlink:href="#ae"/>
<use transform="translate(465)" xlink:href="#p"/>
</g>
<path d="m49.6 78.2h10 10" fill="none" stroke="#2ca02c" stroke-linecap="square" stroke-opacity=".9" stroke-width="1.5"/>
<use x="59.645553" y="78.187282" fill="#2ca02c" fill-opacity=".9" stroke="#2ca02c" stroke-opacity=".9" xlink:href="#e"/>
<g transform="translate(77.6 81.7) scale(.1 -.1)">
<defs>
<path id="y" transform="scale(.0156)" d="m2194 1759q-697 0-966-159t-269-544q0-306 202-486 202-179 548-179 479 0 768 339t289 901v128h-572zm1147 238v-2e3h-575v531q-197-318-491-470t-719-152q-537 0-855 302-317 302-317 808 0 590 395 890 396 300 1180 300h807v57q0 397-261 614t-733 217q-300 0-585-72-284-72-546-216v532q315 122 612 182 297 61 578 61 760 0 1135-394 375-393 375-1193z"/>
</defs>
<use xlink:href="#x"/>
<use transform="translate(97.4)" xlink:href="#y"/>
<use transform="translate(159)" xlink:href="#ab"/>
<use transform="translate(214)" xlink:href="#q"/>
<use transform="translate(275)" xlink:href="#o"/>
</g>
<path d="m40.6 700h676v-313h-676z" fill="#fff"/>
<path d="m91.7 700v-313" clip-path="url(#i)" fill="none" stroke="#b0b0b0" stroke-linecap="square" stroke-width=".8"/>
<use x="91.67513" y="700.321635" stroke="#000000" stroke-width=".8" xlink:href="#j"/>
<g transform="translate(70.8 715) scale(.1 -.1)">
<use xlink:href="#c"/>
<use transform="translate(63.6)" xlink:href="#b"/>
<use transform="translate(127)" xlink:href="#c"/>
<use transform="translate(191)" xlink:href="#n"/>
<use transform="translate(254)" xlink:href="#f"/>
<use transform="translate(291)" xlink:href="#b"/>
<use transform="translate(354)" xlink:href="#ag"/>
</g>
<path d="m165 700v-313" clip-path="url(#i)" fill="none" stroke="#b0b0b0" stroke-linecap="square" stroke-width=".8"/>
<use x="164.717641" y="700.321635" stroke="#000000" stroke-width=".8" xlink:href="#j"/>
<g transform="translate(144 715) scale(.1 -.1)">
<use xlink:href="#c"/>
<use transform="translate(63.6)" xlink:href="#b"/>
<use transform="translate(127)" xlink:href="#c"/>
<use transform="translate(191)" xlink:href="#n"/>
<use transform="translate(254)" xlink:href="#f"/>
<use transform="translate(291)" xlink:href="#b"/>
<use transform="translate(354)" xlink:href="#ac"/>
</g>
<path d="m235 700v-313" clip-path="url(#i)" fill="none" stroke="#b0b0b0" stroke-linecap="square" stroke-width=".8"/>
<use x="235.403942" y="700.321635" stroke="#000000" stroke-width=".8" xlink:href="#j"/>
<g transform="translate(215 715) scale(.1 -.1)">
<use xlink:href="#c"/>
<use transform="translate(63.6)" xlink:href="#b"/>
<use transform="translate(127)" xlink:href="#c"/>
<use transform="translate(191)" xlink:href="#n"/>
<use transform="translate(254)" xlink:href="#f"/>
<use transform="translate(291)" xlink:href="#d"/>
<use transform="translate(354)" xlink:href="#b"/>
</g>
<path d="m308 700v-313" clip-path="url(#i)" fill="none" stroke="#b0b0b0" stroke-linecap="square" stroke-width=".8"/>
<use x="308.446453" y="700.321635" stroke="#000000" stroke-width=".8" xlink:href="#j"/>
<g transform="translate(288 715) scale(.1 -.1)">
<use xlink:href="#c"/>
<use transform="translate(63.6)" xlink:href="#b"/>
<use transform="translate(127)" xlink:href="#c"/>
<use transform="translate(191)" xlink:href="#n"/>
<use transform="translate(254)" xlink:href="#f"/>
<use transform="translate(291)" xlink:href="#d"/>
<use transform="translate(354)" xlink:href="#d"/>
</g>
<path d="m379 700v-313" clip-path="url(#i)" fill="none" stroke="#b0b0b0" stroke-linecap="square" stroke-width=".8"/>
<use x="379.132754" y="700.321635" stroke="#000000" stroke-width=".8" xlink:href="#j"/>
<g transform="translate(358 715) scale(.1 -.1)">
<use xlink:href="#c"/>
<use transform="translate(63.6)" xlink:href="#b"/>
<use transform="translate(127)" xlink:href="#c"/>
<use transform="translate(191)" xlink:href="#n"/>
<use transform="translate(254)" xlink:href="#f"/>
<use transform="translate(291)" xlink:href="#d"/>
<use transform="translate(354)" xlink:href="#c"/>
</g>
<path d="m452 700v-313" clip-path="url(#i)" fill="none" stroke="#b0b0b0" stroke-linecap="square" stroke-width=".8"/>
<use x="452.175265" y="700.321635" stroke="#000000" stroke-width=".8" xlink:href="#j"/>
<g transform="translate(431 715) scale(.1 -.1)">
<use xlink:href="#c"/>
<use transform="translate(63.6)" xlink:href="#b"/>
<use transform="translate(127)" xlink:href="#c"/>
<use transform="translate(191)" xlink:href="#k"/>
<use transform="translate(254)" xlink:href="#f"/>
<use transform="translate(291)" xlink:href="#b"/>
<use transform="translate(354)" xlink:href="#d"/>
</g>
<path d="m525 700v-313" clip-path="url(#i)" fill="none" stroke="#b0b0b0" stroke-linecap="square" stroke-width=".8"/>
<use x="525.217776" y="700.321635" stroke="#000000" stroke-width=".8" xlink:href="#j"/>
<g transform="translate(504 715) scale(.1 -.1)">
<use xlink:href="#c"/>
<use transform="translate(63.6)" xlink:href="#b"/>
<use transform="translate(127)" xlink:href="#c"/>
<use transform="translate(191)" xlink:href="#k"/>
<use transform="translate(254)" xlink:href="#f"/>
<use transform="translate(291)" xlink:href="#b"/>
<use transform="translate(354)" xlink:href="#c"/>
</g>
<path d="m591 700v-313" clip-path="url(#i)" fill="none" stroke="#b0b0b0" stroke-linecap="square" stroke-width=".8"/>
<use x="591.191657" y="700.321635" stroke="#000000" stroke-width=".8" xlink:href="#j"/>
<g transform="translate(570 715) scale(.1 -.1)">
<use xlink:href="#c"/>
<use transform="translate(63.6)" xlink:href="#b"/>
<use transform="translate(127)" xlink:href="#c"/>
<use transform="translate(191)" xlink:href="#k"/>
<use transform="translate(254)" xlink:href="#f"/>
<use transform="translate(291)" xlink:href="#b"/>
<use transform="translate(354)" xlink:href="#r"/>
</g>
<path d="m664 700v-313" clip-path="url(#i)" fill="none" stroke="#b0b0b0" stroke-linecap="square" stroke-width=".8"/>
<use x="664.234168" y="700.321635" stroke="#000000" stroke-width=".8" xlink:href="#j"/>
<g transform="translate(643 715) scale(.1 -.1)">
<use xlink:href="#c"/>
<use transform="translate(63.6)" xlink:href="#b"/>
<use transform="translate(127)" xlink:href="#c"/>
<use transform="translate(191)" xlink:href="#k"/>
<use transform="translate(254)" xlink:href="#f"/>
<use transform="translate(291)" xlink:href="#b"/>
<use transform="translate(354)" xlink:href="#n"/>
</g>
<path d="m40.6 660h676" clip-path="url(#i)" fill="none" stroke="#b0b0b0" stroke-linecap="square" stroke-width=".8"/>
<use x="40.645553" y="660.252675" stroke="#000000" stroke-width=".8" xlink:href="#l"/>
<g transform="translate(3 664) scale(.1 -.1)">
<use xlink:href="#d"/>
<use transform="translate(63.6)" xlink:href="#h"/>
<use transform="translate(95.4)" xlink:href="#b"/>
<use transform="translate(159)" xlink:href="#b"/>
<use transform="translate(223)" xlink:href="#m"/>
</g>
<path d="m40.6 617h676" clip-path="url(#i)" fill="none" stroke="#b0b0b0" stroke-linecap="square" stroke-width=".8"/>
<use x="40.645553" y="617.167772" stroke="#000000" stroke-width=".8" xlink:href="#l"/>
<g transform="translate(3 621) scale(.1 -.1)">
<use xlink:href="#d"/>
<use transform="translate(63.6)" xlink:href="#h"/>
<use transform="translate(95.4)" xlink:href="#b"/>
<use transform="translate(159)" xlink:href="#k"/>
<use transform="translate(223)" xlink:href="#m"/>
</g>
<path d="m40.6 574h676" clip-path="url(#i)" fill="none" stroke="#b0b0b0" stroke-linecap="square" stroke-width=".8"/>
<use x="40.645553" y="574.08287" stroke="#000000" stroke-width=".8" xlink:href="#l"/>
<g transform="translate(3 578) scale(.1 -.1)">
<use xlink:href="#d"/>
<use transform="translate(63.6)" xlink:href="#h"/>
<use transform="translate(95.4)" xlink:href="#d"/>
<use transform="translate(159)" xlink:href="#b"/>
<use transform="translate(223)" xlink:href="#m"/>
</g>
<path d="m40.6 531h676" clip-path="url(#i)" fill="none" stroke="#b0b0b0" stroke-linecap="square" stroke-width=".8"/>
<use x="40.645553" y="530.997967" stroke="#000000" stroke-width=".8" xlink:href="#l"/>
<g transform="translate(3 535) scale(.1 -.1)">
<use xlink:href="#d"/>
<use transform="translate(63.6)" xlink:href="#h"/>
<use transform="translate(95.4)" xlink:href="#d"/>
<use transform="translate(159)" xlink:href="#k"/>
<use transform="translate(223)" xlink:href="#m"/>
</g>
<path d="m40.6 488h676" clip-path="url(#i)" fill="none" stroke="#b0b0b0" stroke-linecap="square" stroke-width=".8"/>
<use x="40.645553" y="487.913064" stroke="#000000" stroke-width=".8" xlink:href="#l"/>
<g transform="translate(3 492) scale(.1 -.1)">
<use xlink:href="#d"/>
<use transform="translate(63.6)" xlink:href="#h"/>
<use transform="translate(95.4)" xlink:href="#c"/>
<use transform="translate(159)" xlink:href="#b"/>
<use transform="translate(223)" xlink:href="#m"/>
</g>
<path d="m40.6 445h676" clip-path="url(#i)" fill="none" stroke="#b0b0b0" stroke-linecap="square" stroke-width=".8"/>
<use x="40.645553" y="444.828161" stroke="#000000" stroke-width=".8" xlink:href="#l"/>
<g transform="translate(3 449) scale(.1 -.1)">
<use xlink:href="#d"/>
<use transform="translate(63.6)" xlink:href="#h"/>
<use transform="translate(95.4)" xlink:href="#c"/>
<use transform="translate(159)" xlink:href="#k"/>
<use transform="translate(223)" xlink:href="#m"/>
</g>
<path d="m40.6 402h676" clip-path="url(#i)" fill="none" stroke="#b0b0b0" stroke-linecap="square" stroke-width=".8"/>
<use x="40.645553" y="401.743258" stroke="#000000" stroke-width=".8" xlink:href="#l"/>
<g transform="translate(3 406) scale(.1 -.1)">
<use xlink:href="#d"/>
<use transform="translate(63.6)" xlink:href="#h"/>
<use transform="translate(95.4)" xlink:href="#r"/>
<use transform="translate(159)" xlink:href="#b"/>
<use transform="translate(223)" xlink:href="#m"/>
</g>
<g stroke="#1f77b4" stroke-opacity=".9">
<path d="m71.4 660 11.2-8.62h16.8l9.28 8.62h7.15l11.6-8.62h51.3l0.524 8.62 2.29-8.62 16.5 8.62h13.7l13.3-8.62m6.39 8.62 4.28 8.62 0.098 8.62 49.9-25.9h63.7l2.4 8.62 2.08-8.62h2.51l2.52-94.8h30.6l2.09-8.62h9.12l2.91 8.62h18l3.15-8.62h28.1l2.44 8.62 2.05-8.62h12l2.55 8.62h4.85l1.81-8.62h2.72l1.75 8.62h3.22l1.91-8.62h7.13l2.57 8.62 2.34-8.62h2.32l0.186 8.62 2.25-8.62h2.28l2.26-146 1.94 146h9.99l2.2 8.62 1.89-8.62h2.27l2.3 8.62 0.692-8.62h91.9l2.19-8.62h4.78l2.41 8.62 1.47-8.62h0.992l2.37-8.62h8.51l3.22 8.62 2.39-8.62h2.26l2.01-8.62h12.3l2.35 8.62 2.03 8.62 2.56-8.62 2.39 8.62h7.08l2.38-8.62v0" clip-path="url(#i)" fill="none" stroke-linecap="square" stroke-width="1.5"/>
<g clip-path="url(#i)" fill="#1f77b4" fill-opacity=".9">
<use x="71.388926" y="660.252675" xlink:href="#a"/>
<use x="82.599849" y="651.635695" xlink:href="#a"/>
<use x="99.424089" y="651.635695" xlink:href="#a"/>
<use x="108.693757" y="660.252675" xlink:href="#a"/>
<use x="108.708838" y="660.252675" xlink:href="#a"/>
<use x="108.933142" y="660.252675" xlink:href="#a"/>
<use x="115.861108" y="660.252675" xlink:href="#a"/>
<use x="127.382648" y="651.635695" xlink:href="#a"/>
<use x="127.463479" y="651.635695" xlink:href="#a"/>
<use x="132.316645" y="651.635695" xlink:href="#a"/>
<use x="148.902427" y="651.635695" xlink:href="#a"/>
<use x="165.432822" y="651.635695" xlink:href="#a"/>
<use x="178.743827" y="651.635695" xlink:href="#a"/>
<use x="178.77028" y="651.635695" xlink:href="#a"/>
<use x="179.294209" y="660.252675" xlink:href="#a"/>
<use x="181.582433" y="651.635695" xlink:href="#a"/>
<use x="198.048059" y="660.252675" xlink:href="#a"/>
<use x="211.707369" y="660.252675" xlink:href="#a"/>
<use x="225.01581" y="651.635695" xlink:href="#a"/>
<use x="231.404467" y="660.252675" xlink:href="#a"/>
<use x="235.68336" y="668.869656" xlink:href="#a"/>
<use x="235.781399" y="677.486636" xlink:href="#a"/>
<use x="285.632968" y="651.635695" xlink:href="#a"/>
<use x="287.800763" y="651.635695" xlink:href="#a"/>
<use x="318.440956" y="651.635695" xlink:href="#a"/>
<use x="321.101101" y="651.635695" xlink:href="#a"/>
<use x="323.326192" y="651.635695" xlink:href="#a"/>
<use x="325.730536" y="651.635695" xlink:href="#a"/>
<use x="327.472604" y="651.635695" xlink:href="#a"/>
<use x="330.440256" y="651.635695" xlink:href="#a"/>
<use x="332.671129" y="651.635695" xlink:href="#a"/>
<use x="335.267432" y="651.635695" xlink:href="#a"/>
<use x="337.348751" y="651.635695" xlink:href="#a"/>
<use x="339.936437" y="651.635695" xlink:href="#a"/>
<use x="342.354334" y="651.635695" xlink:href="#a"/>
<use x="344.58987" y="651.635695" xlink:href="#a"/>
<use x="347.041528" y="651.635695" xlink:href="#a"/>
<use x="349.358904" y="651.635695" xlink:href="#a"/>
<use x="351.760139" y="660.252675" xlink:href="#a"/>
<use x="353.835403" y="651.635695" xlink:href="#a"/>
<use x="356.347549" y="651.635695" xlink:href="#a"/>
<use x="358.869648" y="556.848908" xlink:href="#a"/>
<use x="361.171316" y="556.848908" xlink:href="#a"/>
<use x="363.29545" y="556.848908" xlink:href="#a"/>
<use x="365.752808" y="556.848908" xlink:href="#a"/>
<use x="367.996417" y="556.848908" xlink:href="#a"/>
<use x="370.372398" y="556.848908" xlink:href="#a"/>
<use x="372.90336" y="556.848908" xlink:href="#a"/>
<use x="374.621839" y="556.848908" xlink:href="#a"/>
<use x="377.371569" y="556.848908" xlink:href="#a"/>
<use x="379.492158" y="556.848908" xlink:href="#a"/>
<use x="381.929854" y="556.848908" xlink:href="#a"/>
<use x="384.68032" y="556.848908" xlink:href="#a"/>
<use x="387.117715" y="556.848908" xlink:href="#a"/>
<use x="389.482243" y="556.848908" xlink:href="#a"/>
<use x="391.567844" y="548.231928" xlink:href="#a"/>
<use x="393.924108" y="548.231928" xlink:href="#a"/>
<use x="395.918624" y="548.231928" xlink:href="#a"/>
<use x="398.353156" y="548.231928" xlink:href="#a"/>
<use x="400.684495" y="548.231928" xlink:href="#a"/>
<use x="403.59466" y="556.848908" xlink:href="#a"/>
<use x="405.86652" y="556.848908" xlink:href="#a"/>
<use x="408.076558" y="556.848908" xlink:href="#a"/>
<use x="410.086264" y="556.848908" xlink:href="#a"/>
<use x="412.161937" y="556.848908" xlink:href="#a"/>
<use x="415.289152" y="556.848908" xlink:href="#a"/>
<use x="417.420513" y="556.848908" xlink:href="#a"/>
<use x="420.00179" y="556.848908" xlink:href="#a"/>
<use x="421.601013" y="556.848908" xlink:href="#a"/>
<use x="424.749471" y="548.231928" xlink:href="#a"/>
<use x="426.716689" y="548.231928" xlink:href="#a"/>
<use x="431.36494" y="548.231928" xlink:href="#a"/>
<use x="433.943736" y="548.231928" xlink:href="#a"/>
<use x="436.024509" y="548.231928" xlink:href="#a"/>
<use x="438.303188" y="548.231928" xlink:href="#a"/>
<use x="441.070998" y="548.231928" xlink:href="#a"/>
<use x="443.452407" y="548.231928" xlink:href="#a"/>
<use x="445.704796" y="548.231928" xlink:href="#a"/>
<use x="448.161854" y="548.231928" xlink:href="#a"/>
<use x="450.395127" y="548.231928" xlink:href="#a"/>
<use x="452.801215" y="548.231928" xlink:href="#a"/>
<use x="455.237493" y="556.848908" xlink:href="#a"/>
<use x="457.285132" y="548.231928" xlink:href="#a"/>
<use x="459.91277" y="548.231928" xlink:href="#a"/>
<use x="462.448941" y="548.231928" xlink:href="#a"/>
<use x="464.641116" y="548.231928" xlink:href="#a"/>
<use x="467.161334" y="548.231928" xlink:href="#a"/>
<use x="469.327492" y="548.231928" xlink:href="#a"/>
<use x="471.872581" y="556.848908" xlink:href="#a"/>
<use x="473.848443" y="556.848908" xlink:href="#a"/>
<use x="476.724356" y="556.848908" xlink:href="#a"/>
<use x="478.531738" y="548.231928" xlink:href="#a"/>
<use x="481.250979" y="548.231928" xlink:href="#a"/>
<use x="482.999374" y="556.848908" xlink:href="#a"/>
<use x="485.975725" y="556.848908" xlink:href="#a"/>
<use x="486.224191" y="556.848908" xlink:href="#a"/>
<use x="488.130349" y="548.231928" xlink:href="#a"/>
<use x="490.753405" y="548.231928" xlink:href="#a"/>
<use x="492.988886" y="548.231928" xlink:href="#a"/>
<use x="495.262984" y="548.231928" xlink:href="#a"/>
<use x="497.835616" y="556.848908" xlink:href="#a"/>
<use x="500.172491" y="548.231928" xlink:href="#a"/>
<use x="502.487767" y="548.231928" xlink:href="#a"/>
<use x="502.674109" y="556.848908" xlink:href="#a"/>
<use x="504.925626" y="548.231928" xlink:href="#a"/>
<use x="506.456263" y="548.231928" xlink:href="#a"/>
<use x="507.20556" y="548.231928" xlink:href="#a"/>
<use x="509.463676" y="401.743258" xlink:href="#a"/>
<use x="511.408013" y="548.231928" xlink:href="#a"/>
<use x="513.830191" y="548.231928" xlink:href="#a"/>
<use x="516.697377" y="548.231928" xlink:href="#a"/>
<use x="517.823095" y="548.231928" xlink:href="#a"/>
<use x="519.050478" y="548.231928" xlink:href="#a"/>
<use x="521.393053" y="548.231928" xlink:href="#a"/>
<use x="523.589482" y="556.848908" xlink:href="#a"/>
<use x="525.482141" y="548.231928" xlink:href="#a"/>
<use x="527.753565" y="548.231928" xlink:href="#a"/>
<use x="530.056243" y="556.848908" xlink:href="#a"/>
<use x="530.748188" y="548.231928" xlink:href="#a"/>
<use x="532.453632" y="548.231928" xlink:href="#a"/>
<use x="535.427011" y="548.231928" xlink:href="#a"/>
<use x="537.454524" y="548.231928" xlink:href="#a"/>
<use x="540.201118" y="548.231928" xlink:href="#a"/>
<use x="542.463761" y="548.231928" xlink:href="#a"/>
<use x="544.910892" y="548.231928" xlink:href="#a"/>
<use x="547.254012" y="548.231928" xlink:href="#a"/>
<use x="549.445179" y="548.231928" xlink:href="#a"/>
<use x="552.018274" y="548.231928" xlink:href="#a"/>
<use x="554.292835" y="548.231928" xlink:href="#a"/>
<use x="556.226564" y="548.231928" xlink:href="#a"/>
<use x="558.829358" y="548.231928" xlink:href="#a"/>
<use x="560.955919" y="548.231928" xlink:href="#a"/>
<use x="563.812442" y="548.231928" xlink:href="#a"/>
<use x="565.77426" y="548.231928" xlink:href="#a"/>
<use x="568.488646" y="548.231928" xlink:href="#a"/>
<use x="570.647769" y="548.231928" xlink:href="#a"/>
<use x="573.223865" y="548.231928" xlink:href="#a"/>
<use x="574.983496" y="548.231928" xlink:href="#a"/>
<use x="577.340278" y="548.231928" xlink:href="#a"/>
<use x="580.32792" y="548.231928" xlink:href="#a"/>
<use x="582.413138" y="548.231928" xlink:href="#a"/>
<use x="584.719361" y="548.231928" xlink:href="#a"/>
<use x="587.141594" y="548.231928" xlink:href="#a"/>
<use x="589.67512" y="548.231928" xlink:href="#a"/>
<use x="591.875285" y="548.231928" xlink:href="#a"/>
<use x="594.178862" y="548.231928" xlink:href="#a"/>
<use x="596.528418" y="548.231928" xlink:href="#a"/>
<use x="596.98687" y="548.231928" xlink:href="#a"/>
<use x="599.043318" y="548.231928" xlink:href="#a"/>
<use x="601.408555" y="548.231928" xlink:href="#a"/>
<use x="603.758001" y="548.231928" xlink:href="#a"/>
<use x="606.181489" y="548.231928" xlink:href="#a"/>
<use x="608.290597" y="548.231928" xlink:href="#a"/>
<use x="610.691068" y="548.231928" xlink:href="#a"/>
<use x="612.903778" y="548.231928" xlink:href="#a"/>
<use x="614.666927" y="548.231928" xlink:href="#a"/>
<use x="615.556969" y="548.231928" xlink:href="#a"/>
<use x="617.924769" y="548.231928" xlink:href="#a"/>
<use x="620.130334" y="548.231928" xlink:href="#a"/>
<use x="622.615427" y="548.231928" xlink:href="#a"/>
<use x="624.80602" y="539.614947" xlink:href="#a"/>
<use x="626.919328" y="539.614947" xlink:href="#a"/>
<use x="629.582254" y="539.614947" xlink:href="#a"/>
<use x="631.991097" y="548.231928" xlink:href="#a"/>
<use x="633.458165" y="539.614947" xlink:href="#a"/>
<use x="634.44971" y="539.614947" xlink:href="#a"/>
<use x="636.821001" y="530.997967" xlink:href="#a"/>
<use x="639.198918" y="530.997967" xlink:href="#a"/>
<use x="641.519349" y="530.997967" xlink:href="#a"/>
<use x="643.789028" y="530.997967" xlink:href="#a"/>
<use x="645.328937" y="530.997967" xlink:href="#a"/>
<use x="648.552036" y="539.614947" xlink:href="#a"/>
<use x="650.940644" y="530.997967" xlink:href="#a"/>
<use x="653.19936" y="530.997967" xlink:href="#a"/>
<use x="655.213265" y="522.380986" xlink:href="#a"/>
<use x="658.046308" y="522.380986" xlink:href="#a"/>
<use x="660.136653" y="522.380986" xlink:href="#a"/>
<use x="662.675497" y="522.380986" xlink:href="#a"/>
<use x="664.844956" y="522.380986" xlink:href="#a"/>
<use x="667.465912" y="522.380986" xlink:href="#a"/>
<use x="669.813832" y="530.997967" xlink:href="#a"/>
<use x="671.846826" y="539.614947" xlink:href="#a"/>
<use x="674.407896" y="530.997967" xlink:href="#a"/>
<use x="676.794104" y="539.614947" xlink:href="#a"/>
<use x="679.21631" y="539.614947" xlink:href="#a"/>
<use x="681.65016" y="539.614947" xlink:href="#a"/>
<use x="683.87187" y="539.614947" xlink:href="#a"/>
<use x="686.256387" y="530.997967" xlink:href="#a"/>
</g>
</g>
<g stroke="#1f77b4" stroke-opacity=".9">
<path d="m212 652v8.62h61.5l3.39 25.9 1.15-25.9h50.8l1.91-8.62 2.23 8.62 2.6-8.62 2.08 8.62h7.24l2.45-8.62 0.178 8.62h2.14l2.4 8.62 2.08-8.62 2.51-8.62 2.01-68.9h33.9l1.34-8.62h7.1l2.91 8.62 1.31-8.62 0.408 8.62 0.558-8.62 1.18 8.62h14.5l3.15-8.62h6.62l2.58 8.62 2.08-8.62h12.1l2.23 8.62 2.41-8.62h2.44l2.05 8.62 2.63-8.62 2.54 8.62 2.19-8.62h16.6l1.75 8.62h2.98l0.248-8.62 1.91 8.62 1.81-8.62h17.3l2.26-164 1.94 164h31.1l2.45-8.62 2.34 8.62 2.19-8.62 2.57 8.62h56.3l2.4-8.62 2.21 8.62 1.76-8.62h0.89l2.37 8.62h2.21l2.17-8.62 0.312 8.62h2.19l2.11-8.62 2.66 8.62h3.88l0.992-8.62h2.37l2.38-8.62h6.13l3.07 8.62 0.151-8.62 1.18 8.62h3.46l2.01-17.2h12.3l2.35 8.62 2.03-8.62h2.56l2.39 8.62h6.7l0.382-8.62 1.82 8.62h0.564" clip-path="url(#i)" fill="none" stroke-dasharray="1.5,2.475" stroke-width="1.5"/>
<g clip-path="url(#i)" fill="#1f77b4" fill-opacity=".9">
<use x="211.707369" y="651.635695" xlink:href="#a"/>
<use x="211.707369" y="660.252675" xlink:href="#a"/>
<use x="231.404467" y="660.252675" xlink:href="#a"/>
<use x="246.492419" y="660.252675" xlink:href="#a"/>
<use x="264.263343" y="660.252675" xlink:href="#a"/>
<use x="273.16758" y="660.252675" xlink:href="#a"/>
<use x="276.55346" y="686.103617" xlink:href="#a"/>
<use x="277.703612" y="660.252675" xlink:href="#a"/>
<use x="278.511459" y="660.252675" xlink:href="#a"/>
<use x="280.837808" y="660.252675" xlink:href="#a"/>
<use x="283.130313" y="660.252675" xlink:href="#a"/>
<use x="285.632968" y="660.252675" xlink:href="#a"/>
<use x="287.800763" y="660.252675" xlink:href="#a"/>
<use x="290.427855" y="660.252675" xlink:href="#a"/>
<use x="292.822272" y="660.252675" xlink:href="#a"/>
<use x="294.628509" y="660.252675" xlink:href="#a"/>
<use x="297.320751" y="660.252675" xlink:href="#a"/>
<use x="299.701969" y="660.252675" xlink:href="#a"/>
<use x="302.054088" y="660.252675" xlink:href="#a"/>
<use x="304.639183" y="660.252675" xlink:href="#a"/>
<use x="306.994466" y="660.252675" xlink:href="#a"/>
<use x="309.108428" y="660.252675" xlink:href="#a"/>
<use x="311.606011" y="660.252675" xlink:href="#a"/>
<use x="313.37355" y="660.252675" xlink:href="#a"/>
<use x="316.14147" y="660.252675" xlink:href="#a"/>
<use x="318.440956" y="660.252675" xlink:href="#a"/>
<use x="321.101101" y="660.252675" xlink:href="#a"/>
<use x="323.326192" y="660.252675" xlink:href="#a"/>
<use x="324.528323" y="660.252675" xlink:href="#a"/>
<use x="325.730536" y="660.252675" xlink:href="#a"/>
<use x="327.472604" y="660.252675" xlink:href="#a"/>
<use x="328.532407" y="660.252675" xlink:href="#a"/>
<use x="330.440256" y="651.635695" xlink:href="#a"/>
<use x="332.671129" y="660.252675" xlink:href="#a"/>
<use x="335.267432" y="651.635695" xlink:href="#a"/>
<use x="337.348751" y="660.252675" xlink:href="#a"/>
<use x="339.936437" y="660.252675" xlink:href="#a"/>
<use x="342.354334" y="660.252675" xlink:href="#a"/>
<use x="344.58987" y="660.252675" xlink:href="#a"/>
<use x="347.041528" y="651.635695" xlink:href="#a"/>
<use x="347.219226" y="660.252675" xlink:href="#a"/>
<use x="349.358904" y="660.252675" xlink:href="#a"/>
<use x="351.760139" y="668.869656" xlink:href="#a"/>
<use x="353.835403" y="660.252675" xlink:href="#a"/>
<use x="356.347549" y="651.635695" xlink:href="#a"/>
<use x="358.356136" y="582.69985" xlink:href="#a"/>
<use x="358.869648" y="582.69985" xlink:href="#a"/>
<use x="360.785541" y="582.69985" xlink:href="#a"/>
<use x="361.171316" y="582.69985" xlink:href="#a"/>
<use x="363.29545" y="582.69985" xlink:href="#a"/>
<use x="365.752808" y="582.69985" xlink:href="#a"/>
<use x="367.996417" y="582.69985" xlink:href="#a"/>
<use x="369.870803" y="582.69985" xlink:href="#a"/>
<use x="370.372398" y="582.69985" xlink:href="#a"/>
<use x="372.088368" y="582.69985" xlink:href="#a"/>
<use x="372.90336" y="582.69985" xlink:href="#a"/>
<use x="374.621839" y="582.69985" xlink:href="#a"/>
<use x="376.908536" y="582.69985" xlink:href="#a"/>
<use x="377.371569" y="582.69985" xlink:href="#a"/>
<use x="379.492158" y="582.69985" xlink:href="#a"/>
<use x="381.929854" y="582.69985" xlink:href="#a"/>
<use x="384.68032" y="582.69985" xlink:href="#a"/>
<use x="387.117715" y="582.69985" xlink:href="#a"/>
<use x="388.902599" y="582.69985" xlink:href="#a"/>
<use x="389.482243" y="582.69985" xlink:href="#a"/>
<use x="391.567844" y="582.69985" xlink:href="#a"/>
<use x="392.244163" y="582.69985" xlink:href="#a"/>
<use x="393.580903" y="574.08287" xlink:href="#a"/>
<use x="393.924108" y="574.08287" xlink:href="#a"/>
<use x="395.918624" y="574.08287" xlink:href="#a"/>
<use x="397.094547" y="574.08287" xlink:href="#a"/>
<use x="398.353156" y="574.08287" xlink:href="#a"/>
<use x="400.684495" y="574.08287" xlink:href="#a"/>
<use x="403.59466" y="582.69985" xlink:href="#a"/>
<use x="404.901047" y="574.08287" xlink:href="#a"/>
<use x="405.308993" y="582.69985" xlink:href="#a"/>
<use x="405.86652" y="574.08287" xlink:href="#a"/>
<use x="407.051116" y="582.69985" xlink:href="#a"/>
<use x="408.076558" y="582.69985" xlink:href="#a"/>
<use x="409.897276" y="582.69985" xlink:href="#a"/>
<use x="410.086264" y="582.69985" xlink:href="#a"/>
<use x="412.161937" y="582.69985" xlink:href="#a"/>
<use x="415.289152" y="582.69985" xlink:href="#a"/>
<use x="417.420513" y="582.69985" xlink:href="#a"/>
<use x="420.00179" y="582.69985" xlink:href="#a"/>
<use x="420.6843" y="582.69985" xlink:href="#a"/>
<use x="421.601013" y="582.69985" xlink:href="#a"/>
<use x="424.749471" y="574.08287" xlink:href="#a"/>
<use x="426.716689" y="574.08287" xlink:href="#a"/>
<use x="431.36494" y="574.08287" xlink:href="#a"/>
<use x="433.943736" y="582.69985" xlink:href="#a"/>
<use x="436.024509" y="574.08287" xlink:href="#a"/>
<use x="438.303188" y="574.08287" xlink:href="#a"/>
<use x="441.070998" y="574.08287" xlink:href="#a"/>
<use x="443.452407" y="574.08287" xlink:href="#a"/>
<use x="445.704796" y="574.08287" xlink:href="#a"/>
<use x="448.161854" y="574.08287" xlink:href="#a"/>
<use x="450.395127" y="582.69985" xlink:href="#a"/>
<use x="452.801215" y="574.08287" xlink:href="#a"/>
<use x="455.237493" y="574.08287" xlink:href="#a"/>
<use x="457.285132" y="582.69985" xlink:href="#a"/>
<use x="459.91277" y="574.08287" xlink:href="#a"/>
<use x="462.448941" y="582.69985" xlink:href="#a"/>
<use x="464.641116" y="574.08287" xlink:href="#a"/>
<use x="467.161334" y="574.08287" xlink:href="#a"/>
<use x="469.327492" y="574.08287" xlink:href="#a"/>
<use x="473.848443" y="574.08287" xlink:href="#a"/>
<use x="475.826951" y="574.08287" xlink:href="#a"/>
<use x="476.724356" y="574.08287" xlink:href="#a"/>
<use x="478.531738" y="574.08287" xlink:href="#a"/>
<use x="481.250979" y="574.08287" xlink:href="#a"/>
<use x="482.999374" y="582.69985" xlink:href="#a"/>
<use x="485.975725" y="582.69985" xlink:href="#a"/>
<use x="486.224191" y="574.08287" xlink:href="#a"/>
<use x="488.130349" y="582.69985" xlink:href="#a"/>
<use x="489.910978" y="574.08287" xlink:href="#a"/>
<use x="489.942803" y="574.08287" xlink:href="#a"/>
<use x="490.025625" y="574.08287" xlink:href="#a"/>
<use x="490.753405" y="574.08287" xlink:href="#a"/>
<use x="492.988886" y="574.08287" xlink:href="#a"/>
<use x="495.163826" y="574.08287" xlink:href="#a"/>
<use x="495.262984" y="574.08287" xlink:href="#a"/>
<use x="497.835616" y="574.08287" xlink:href="#a"/>
<use x="500.172491" y="574.08287" xlink:href="#a"/>
<use x="502.2549" y="574.08287" xlink:href="#a"/>
<use x="502.487767" y="574.08287" xlink:href="#a"/>
<use x="502.582806" y="574.08287" xlink:href="#a"/>
<use x="502.674109" y="574.08287" xlink:href="#a"/>
<use x="503.901848" y="574.08287" xlink:href="#a"/>
<use x="504.925626" y="574.08287" xlink:href="#a"/>
<use x="506.456263" y="574.08287" xlink:href="#a"/>
<use x="507.20556" y="574.08287" xlink:href="#a"/>
<use x="509.463676" y="410.360239" xlink:href="#a"/>
<use x="511.408013" y="574.08287" xlink:href="#a"/>
<use x="513.830191" y="574.08287" xlink:href="#a"/>
<use x="516.697377" y="574.08287" xlink:href="#a"/>
<use x="517.823095" y="574.08287" xlink:href="#a"/>
<use x="519.050478" y="574.08287" xlink:href="#a"/>
<use x="521.393053" y="574.08287" xlink:href="#a"/>
<use x="523.589482" y="574.08287" xlink:href="#a"/>
<use x="525.482141" y="574.08287" xlink:href="#a"/>
<use x="527.753565" y="574.08287" xlink:href="#a"/>
<use x="530.056243" y="574.08287" xlink:href="#a"/>
<use x="530.748188" y="574.08287" xlink:href="#a"/>
<use x="532.453632" y="574.08287" xlink:href="#a"/>
<use x="535.427011" y="574.08287" xlink:href="#a"/>
<use x="537.454524" y="574.08287" xlink:href="#a"/>
<use x="540.201118" y="574.08287" xlink:href="#a"/>
<use x="542.463761" y="574.08287" xlink:href="#a"/>
<use x="544.910892" y="565.465889" xlink:href="#a"/>
<use x="547.254012" y="574.08287" xlink:href="#a"/>
<use x="549.445179" y="565.465889" xlink:href="#a"/>
<use x="552.018274" y="574.08287" xlink:href="#a"/>
<use x="554.292835" y="574.08287" xlink:href="#a"/>
<use x="556.093018" y="574.08287" xlink:href="#a"/>
<use x="556.226564" y="574.08287" xlink:href="#a"/>
<use x="558.829358" y="574.08287" xlink:href="#a"/>
<use x="560.955919" y="574.08287" xlink:href="#a"/>
<use x="563.812442" y="574.08287" xlink:href="#a"/>
<use x="565.77426" y="574.08287" xlink:href="#a"/>
<use x="568.488646" y="574.08287" xlink:href="#a"/>
<use x="570.647769" y="574.08287" xlink:href="#a"/>
<use x="573.223865" y="574.08287" xlink:href="#a"/>
<use x="574.983496" y="574.08287" xlink:href="#a"/>
<use x="577.340278" y="574.08287" xlink:href="#a"/>
<use x="580.32792" y="574.08287" xlink:href="#a"/>
<use x="582.413138" y="574.08287" xlink:href="#a"/>
<use x="583.319761" y="574.08287" xlink:href="#a"/>
<use x="583.574554" y="574.08287" xlink:href="#a"/>
<use x="584.719361" y="574.08287" xlink:href="#a"/>
<use x="586.450848" y="574.08287" xlink:href="#a"/>
<use x="587.141594" y="574.08287" xlink:href="#a"/>
<use x="589.67512" y="574.08287" xlink:href="#a"/>
<use x="591.298996" y="574.08287" xlink:href="#a"/>
<use x="591.632356" y="574.08287" xlink:href="#a"/>
<use x="591.875285" y="574.08287" xlink:href="#a"/>
<use x="594.178862" y="574.08287" xlink:href="#a"/>
<use x="596.528418" y="574.08287" xlink:href="#a"/>
<use x="596.98687" y="574.08287" xlink:href="#a"/>
<use x="599.043318" y="574.08287" xlink:href="#a"/>
<use x="601.408555" y="574.08287" xlink:href="#a"/>
<use x="603.758001" y="574.08287" xlink:href="#a"/>
<use x="606.181489" y="574.08287" xlink:href="#a"/>
<use x="608.290597" y="574.08287" xlink:href="#a"/>
<use x="610.691068" y="565.465889" xlink:href="#a"/>
<use x="612.903778" y="574.08287" xlink:href="#a"/>
<use x="614.666927" y="565.465889" xlink:href="#a"/>
<use x="615.556969" y="565.465889" xlink:href="#a"/>
<use x="617.924769" y="574.08287" xlink:href="#a"/>
<use x="620.130334" y="574.08287" xlink:href="#a"/>
<use x="622.303911" y="565.465889" xlink:href="#a"/>
<use x="622.615427" y="574.08287" xlink:href="#a"/>
<use x="624.80602" y="574.08287" xlink:href="#a"/>
<use x="626.919328" y="565.465889" xlink:href="#a"/>
<use x="629.582254" y="574.08287" xlink:href="#a"/>
<use x="631.482576" y="574.08287" xlink:href="#a"/>
<use x="631.991097" y="574.08287" xlink:href="#a"/>
<use x="633.458165" y="574.08287" xlink:href="#a"/>
<use x="634.44971" y="565.465889" xlink:href="#a"/>
<use x="636.821001" y="565.465889" xlink:href="#a"/>
<use x="639.198918" y="556.848908" xlink:href="#a"/>
<use x="641.519349" y="556.848908" xlink:href="#a"/>
<use x="643.789028" y="556.848908" xlink:href="#a"/>
<use x="645.328937" y="556.848908" xlink:href="#a"/>
<use x="648.400955" y="565.465889" xlink:href="#a"/>
<use x="648.552036" y="556.848908" xlink:href="#a"/>
<use x="649.734913" y="565.465889" xlink:href="#a"/>
<use x="650.940644" y="565.465889" xlink:href="#a"/>
<use x="652.821167" y="565.465889" xlink:href="#a"/>
<use x="652.846256" y="565.465889" xlink:href="#a"/>
<use x="653.19936" y="565.465889" xlink:href="#a"/>
<use x="655.213265" y="548.231928" xlink:href="#a"/>
<use x="658.046308" y="548.231928" xlink:href="#a"/>
<use x="660.136653" y="548.231928" xlink:href="#a"/>
<use x="662.675497" y="548.231928" xlink:href="#a"/>
<use x="664.844956" y="548.231928" xlink:href="#a"/>
<use x="665.193805" y="548.231928" xlink:href="#a"/>
<use x="667.465912" y="548.231928" xlink:href="#a"/>
<use x="669.813832" y="556.848908" xlink:href="#a"/>
<use x="671.846826" y="548.231928" xlink:href="#a"/>
<use x="674.407896" y="548.231928" xlink:href="#a"/>
<use x="676.794104" y="556.848908" xlink:href="#a"/>
<use x="679.21631" y="556.848908" xlink:href="#a"/>
<use x="680.969641" y="556.848908" xlink:href="#a"/>
<use x="681.65016" y="556.848908" xlink:href="#a"/>
<use x="683.48964" y="556.848908" xlink:href="#a"/>
<use x="683.87187" y="548.231928" xlink:href="#a"/>
<use x="685.692369" y="556.848908" xlink:href="#a"/>
<use x="686.256387" y="556.848908" xlink:href="#a"/>
</g>
</g>
<g stroke="#2ca02c" stroke-opacity=".9">
<path d="m551 600 72.8 8.62 7.8-8.62 1.47 8.62 0.992-8.62h2.37 2.38 2.32 2.27 1.54 3.22 1.18 1.21 2.26l2.01-8.62h2.83 2.09l2.54 8.62h2.17l2.62-8.62 2.35 8.62 2.03-8.62h2.56 2.39 2.42 2.43 2.22 2.38" clip-path="url(#i)" fill="none" stroke-linecap="square" stroke-width="1.5"/>
<g clip-path="url(#i)" fill="#2ca02c" fill-opacity=".9">
<use x="551.359408" y="599.933811" xlink:href="#e"/>
<use x="624.186833" y="608.550792" xlink:href="#e"/>
<use x="631.991097" y="599.933811" xlink:href="#e"/>
<use x="633.458165" y="608.550792" xlink:href="#e"/>
<use x="634.44971" y="599.933811" xlink:href="#e"/>
<use x="636.821001" y="599.933811" xlink:href="#e"/>
<use x="639.198918" y="599.933811" xlink:href="#e"/>
<use x="641.519349" y="599.933811" xlink:href="#e"/>
<use x="643.789028" y="599.933811" xlink:href="#e"/>
<use x="645.328937" y="599.933811" xlink:href="#e"/>
<use x="648.552036" y="599.933811" xlink:href="#e"/>
<use x="649.734913" y="599.933811" xlink:href="#e"/>
<use x="650.940644" y="599.933811" xlink:href="#e"/>
<use x="653.19936" y="599.933811" xlink:href="#e"/>
<use x="655.213265" y="591.316831" xlink:href="#e"/>
<use x="658.046308" y="591.316831" xlink:href="#e"/>
<use x="660.136653" y="591.316831" xlink:href="#e"/>
<use x="662.675497" y="599.933811" xlink:href="#e"/>
<use x="664.844956" y="599.933811" xlink:href="#e"/>
<use x="667.465912" y="591.316831" xlink:href="#e"/>
<use x="669.813832" y="599.933811" xlink:href="#e"/>
<use x="671.846826" y="591.316831" xlink:href="#e"/>
<use x="674.407896" y="591.316831" xlink:href="#e"/>
<use x="676.794104" y="591.316831" xlink:href="#e"/>
<use x="679.21631" y="591.316831" xlink:href="#e"/>
<use x="681.65016" y="591.316831" xlink:href="#e"/>
<use x="683.87187" y="591.316831" xlink:href="#e"/>
<use x="686.256387" y="591.316831" xlink:href="#e"/>
</g>
</g>
<path d="m40.6 700v-313" fill="none" stroke="#000" stroke-linecap="square" stroke-width=".8"/>
<path d="m717 700v-313" fill="none" stroke="#000" stroke-linecap="square" stroke-width=".8"/>
<path d="m40.6 700h676" fill="none" stroke="#000" stroke-linecap="square" stroke-width=".8"/>
<path d="m40.6 388h676" fill="none" stroke="#000" stroke-linecap="square" stroke-width=".8"/>
<path d="m71.8 651-0.349 7.35" fill="none" stroke="#888" stroke-linecap="round"/>
<g transform="translate(74.5 647) rotate(-90) scale(.08 -.08)" fill="#888">
<use xlink:href="#y"/>
<use transform="translate(61.3)" xlink:href="#b"/>
</g>
<g clip-path="url(#i)">
<g transform="translate(58.2 652) rotate(-90) scale(.1 -.1)">
<use xlink:href="#x"/>
<use transform="translate(97.4)" xlink:href="#q"/>
<use transform="translate(159)" xlink:href="#p"/>
<use transform="translate(197)" xlink:href="#u"/>
<use transform="translate(259)" xlink:href="#DejaVuSans-20"/>
<use transform="translate(291)" xlink:href="#am"/>
</g>
</g>
<g clip-path="url(#i)">
<g transform="translate(58.2 707) rotate(-90) scale(.1 -.1)">
<use xlink:href="#an"/>
<use transform="translate(143)" xlink:href="#DejaVuSans-20"/>
<use transform="translate(175)" xlink:href="#t"/>
<use transform="translate(203)" xlink:href="#u"/>
<use transform="translate(264)" xlink:href="#o"/>
<use transform="translate(317)" xlink:href="#o"/>
</g>
</g>
<g transform="translate(296 382) scale(.12 -.12)">
<use xlink:href="#ak"/>
<use transform="translate(60.3)" xlink:href="#ad"/>
<use transform="translate(119)" xlink:href="#ae"/>
<use transform="translate(159)" xlink:href="#af"/>
<use transform="translate(222)" xlink:href="#q"/>
<use transform="translate(283)" xlink:href="#s"/>
<use transform="translate(347)" xlink:href="#DejaVuSans-20"/>
<use transform="translate(378)" xlink:href="#r"/>
<use transform="translate(442)" xlink:href="#h"/>
<use transform="translate(474)" xlink:href="#d"/>
<use transform="translate(537)" xlink:href="#n"/>
<use transform="translate(601)" xlink:href="#h"/>
<use transform="translate(633)" xlink:href="#w"/>
<use transform="translate(692)" xlink:href="#DejaVuSans-20"/>
<use transform="translate(724)" xlink:href="#z"/>
<use transform="translate(783)" xlink:href="#o"/>
<use transform="translate(835)" xlink:href="#h"/>
<use transform="translate(867)" xlink:href="#DejaVuSans-20"/>
<use transform="translate(899)" xlink:href="#r"/>
<use transform="translate(962)" xlink:href="#h"/>
<use transform="translate(994)" xlink:href="#d"/>
<use transform="translate(1058)" xlink:href="#r"/>
<use transform="translate(1121)" xlink:href="#h"/>
<use transform="translate(1153)" xlink:href="#b"/>
<use transform="translate(1217)" xlink:href="#p"/>
<use transform="translate(1256)" xlink:href="#ab"/>
<use transform="translate(1311)" xlink:href="#c"/>
</g>
<path d="m47.6 440h82.6q2 0 2-2v-43q0-2-2-2h-82.6q-2 0-2 2v43q0 2 2 2z" fill="#fff" opacity=".8" stroke="#ccc"/>
<path d="m49.6 401h10 10" fill="none" stroke="#1f77b4" stroke-linecap="square" stroke-opacity=".9" stroke-width="1.5"/>
<use x="59.645553" y="400.623678" fill="#1f77b4" fill-opacity=".9" stroke="#1f77b4" stroke-opacity=".9" xlink:href="#a"/>
<g transform="translate(77.6 404) scale(.1 -.1)">
<use xlink:href="#t"/>
<use transform="translate(27.8)" xlink:href="#aa"/>
<use transform="translate(55.6)" xlink:href="#s"/>
<use transform="translate(119)" xlink:href="#v"/>
<use transform="translate(182)" xlink:href="#w"/>
</g>
<path d="m49.6 415h10 10" fill="none" stroke="#1f77b4" stroke-dasharray="1.5,2.475" stroke-opacity=".9" stroke-width="1.5"/>
<use x="59.645553" y="415.301803" fill="#1f77b4" fill-opacity=".9" stroke="#1f77b4" stroke-opacity=".9" xlink:href="#a"/>
<g transform="translate(77.6 419) scale(.1 -.1)">
<use xlink:href="#t"/>
<use transform="translate(27.8)" xlink:href="#aa"/>
<use transform="translate(55.6)" xlink:href="#s"/>
<use transform="translate(119)" xlink:href="#v"/>
<use transform="translate(182)" xlink:href="#w"/>
<use transform="translate(242)" xlink:href="#f"/>
<use transform="translate(275)" xlink:href="#z"/>
<use transform="translate(334)" xlink:href="#v"/>
<use transform="translate(398)" xlink:href="#t"/>
<use transform="translate(425)" xlink:href="#ae"/>
<use transform="translate(465)" xlink:href="#p"/>
</g>
<path d="m49.6 430h10 10" fill="none" stroke="#2ca02c" stroke-linecap="square" stroke-opacity=".9" stroke-width="1.5"/>
<use x="59.645553" y="429.979928" fill="#2ca02c" fill-opacity=".9" stroke="#2ca02c" stroke-opacity=".9" xlink:href="#e"/>
<g transform="translate(77.6 433) scale(.1 -.1)">
<use xlink:href="#x"/>
<use transform="translate(97.4)" xlink:href="#y"/>
<use transform="translate(159)" xlink:href="#ab"/>
<use transform="translate(214)" xlink:href="#q"/>
<use transform="translate(275)" xlink:href="#o"/>
</g>
<g transform="translate(239 12.1) scale(.12 -.12)">
<defs>
<path id="ap" transform="scale(.0156)" d="m628 4666h941l1190-3175 1197 3175h941v-4666h-616v4097l-1203-3200h-634l-1203 3200v-4097h-613v4666z"/>
<path id="ai" transform="scale(.0156)" d="m2906 1791q0 625-258 968-257 344-723 344-462 0-720-344-258-343-258-968 0-622 258-966t720-344q466 0 723 344 258 344 258 966zm575-1357q0-893-397-1329-396-436-1215-436-303 0-572 45t-522 139v559q253-137 500-202 247-66 503-66 566 0 847 295t281 892v285q-178-310-456-463t-666-153q-643 0-1037 490-394 491-394 1301 0 812 394 1302 394 491 1037 491 388 0 666-153t456-462v531h575v-3066z"/>
<path id="ao" transform="scale(.0156)" d="m603 3500h575v-3563q0-668-255-968-254-300-820-300h-219v487h154q328 0 446 152 119 151 119 629v3563zm0 1363h575v-729h-575v729z"/>
</defs>
<use xlink:href="#ap"/>
<use transform="translate(86.3)" xlink:href="#u"/>
<use transform="translate(148)" xlink:href="#x"/>
<use transform="translate(245)" xlink:href="#q"/>
<use transform="translate(306)" xlink:href="#p"/>
<use transform="translate(348)" xlink:href="#ad"/>
<use transform="translate(407)" xlink:href="#DejaVuSans-20"/>
<use transform="translate(438)" xlink:href="#v"/>
<use transform="translate(502)" xlink:href="#o"/>
<use transform="translate(554)" xlink:href="#y"/>
<use transform="translate(615)" xlink:href="#ai"/>
<use transform="translate(679)" xlink:href="#u"/>
<use transform="translate(740)" xlink:href="#DejaVuSans-20"/>
<use transform="translate(772)" xlink:href="#ab"/>
<use transform="translate(827)" xlink:href="#af"/>
<use transform="translate(890)" xlink:href="#y"/>
<use transform="translate(952)" xlink:href="#s"/>
<use transform="translate(1015)" xlink:href="#ai"/>
<use transform="translate(1079)" xlink:href="#u"/>
<use transform="translate(1140)" xlink:href="#DejaVuSans-20"/>
<use transform="translate(1172)" xlink:href="#aj"/>
<use transform="translate(1235)" xlink:href="#ad"/>
<use transform="translate(1294)" xlink:href="#DejaVuSans-20"/>
<use transform="translate(1326)" xlink:href="#x"/>
<use transform="translate(1424)" xlink:href="#y"/>
<use transform="translate(1485)" xlink:href="#ao"/>
<use transform="translate(1513)" xlink:href="#q"/>
<use transform="translate(1574)" xlink:href="#p"/>
<use transform="translate(1615)" xlink:href="#DejaVuSans-20"/>
<use transform="translate(1647)" xlink:href="#z"/>
<use transform="translate(1706)" xlink:href="#u"/>
<use transform="translate(1768)" xlink:href="#p"/>
<use transform="translate(1809)" xlink:href="#o"/>
<use transform="translate(1861)" xlink:href="#aa"/>
<use transform="translate(1889)" xlink:href="#q"/>
<use transform="translate(1950)" xlink:href="#s"/>
</g>
<defs>
<clipPath id="g">
<rect x="40.6" y="35.7" width="676" height="313"/>
</clipPath>
<clipPath id="i">
<rect x="40.6" y="388" width="676" height="313"/>
</clipPath>
</defs>
</svg>
