<?xml version="1.0" encoding="UTF-8"?>
<!DOCTYPE svg  PUBLIC '-//W3C//DTD SVG 1.1//EN'  'http://www.w3.org/Graphics/SVG/1.1/DTD/svg11.dtd'>
<svg width="720pt" height="720pt" version="1.1" viewBox="0 0 720 720" xmlns="http://www.w3.org/2000/svg" xmlns:xlink="http://www.w3.org/1999/xlink">
<defs>
<style type="text/css">*{stroke-linejoin: round; stroke-linecap: butt}</style>
</defs>
<path d="m0 720h720v-720h-720z" fill="#fff"/>
<path d="m40.6 349h663v-313h-663z" fill="#fff"/>
<path d="m99.7 349v-313" clip-path="url(#g)" fill="none" stroke="#b0b0b0" stroke-linecap="square" stroke-width=".8"/>
<defs>
<path id="k" d="m0 0v3.5" stroke="#000" stroke-width=".8"/>
</defs>
<use x="99.743948" y="348.52899" stroke="#000000" stroke-width=".8" xlink:href="#k"/>
<g transform="translate(70.7 363) scale(.1 -.1)">
<defs>
<path id="c" transform="scale(.0156)" d="m1228 531h2203v-531h-2962v531q359 372 979 998 621 627 780 809 303 340 423 576 121 236 121 464 0 372-261 606-261 235-680 235-297 0-627-103-329-103-704-313v638q381 153 712 231 332 78 607 78 725 0 1156-363 431-362 431-968 0-288-108-546-107-257-392-607-78-91-497-524-418-433-1181-1211z"/>
<path id="b" transform="scale(.0156)" d="m2034 4250q-487 0-733-480-245-479-245-1442 0-959 245-1439 246-480 733-480 491 0 736 480 246 480 246 1439 0 963-246 1442-245 480-736 480zm0 500q785 0 1199-621 414-620 414-1801 0-1178-414-1799-414-620-1199-620-784 0-1198 620-414 621-414 1799 0 1181 414 1801 414 621 1198 621z"/>
<path id="m" transform="scale(.0156)" d="m2419 4116-1594-2491h1594v2491zm-166 550h794v-3041h666v-525h-666v-1100h-628v1100h-2106v609l1940 2957z"/>
<path id="f" transform="scale(.0156)" d="m313 2009h1684v-512h-1684v512z"/>
<path id="l" transform="scale(.0156)" d="m691 4666h2478v-532h-1900v-1143q137 47 274 70 138 23 276 23 781 0 1237-428 457-428 457-1159 0-753-469-1171-469-417-1322-417-294 0-599 50-304 50-629 150v635q281-153 581-228t634-75q541 0 856 284 316 284 316 772 0 487-316 771-315 285-856 285-253 0-505-56-251-56-513-175v2344z"/>
<path id="d" transform="scale(.0156)" d="m794 531h1031v3560l-1122-225v575l1116 225h631v-4135h1031v-531h-2687v531z"/>
</defs>
<use xlink:href="#c"/>
<use transform="translate(63.6)" xlink:href="#b"/>
<use transform="translate(127)" xlink:href="#c"/>
<use transform="translate(191)" xlink:href="#m"/>
<use transform="translate(254)" xlink:href="#f"/>
<use transform="translate(291)" xlink:href="#b"/>
<use transform="translate(354)" xlink:href="#l"/>
<use transform="translate(418)" xlink:href="#f"/>
<use transform="translate(454)" xlink:href="#d"/>
<use transform="translate(518)" xlink:href="#l"/>
</g>
<path d="m175 349v-313" clip-path="url(#g)" fill="none" stroke="#b0b0b0" stroke-linecap="square" stroke-width=".8"/>
<use x="175.200574" y="348.52899" stroke="#000000" stroke-width=".8" xlink:href="#k"/>
<g transform="translate(146 363) scale(.1 -.1)">
<defs>
<path id="ag" transform="scale(.0156)" d="m2113 2584q-425 0-674-291-248-290-248-796 0-503 248-796 249-292 674-292t673 292q248 293 248 796 0 506-248 796-248 291-673 291zm1253 1979v-575q-238 112-480 171-242 60-480 60-625 0-955-422-329-422-376-1275 184 272 462 417 279 145 613 145 703 0 1111-427 408-426 408-1160 0-719-425-1154-425-434-1131-434-810 0-1238 620-428 621-428 1799 0 1106 525 1764t1409 658q238 0 480-47t505-140z"/>
</defs>
<use xlink:href="#c"/>
<use transform="translate(63.6)" xlink:href="#b"/>
<use transform="translate(127)" xlink:href="#c"/>
<use transform="translate(191)" xlink:href="#m"/>
<use transform="translate(254)" xlink:href="#f"/>
<use transform="translate(291)" xlink:href="#b"/>
<use transform="translate(354)" xlink:href="#ag"/>
<use transform="translate(418)" xlink:href="#f"/>
<use transform="translate(454)" xlink:href="#b"/>
<use transform="translate(518)" xlink:href="#d"/>
</g>
<path d="m237 349v-313" clip-path="url(#g)" fill="none" stroke="#b0b0b0" stroke-linecap="square" stroke-width=".8"/>
<use x="237.341326" y="348.52899" stroke="#000000" stroke-width=".8" xlink:href="#k"/>
<g transform="translate(208 363) scale(.1 -.1)">
<use xlink:href="#c"/>
<use transform="translate(63.6)" xlink:href="#b"/>
<use transform="translate(127)" xlink:href="#c"/>
<use transform="translate(191)" xlink:href="#m"/>
<use transform="translate(254)" xlink:href="#f"/>
<use transform="translate(291)" xlink:href="#b"/>
<use transform="translate(354)" xlink:href="#ag"/>
<use transform="translate(418)" xlink:href="#f"/>
<use transform="translate(454)" xlink:href="#d"/>
<use transform="translate(518)" xlink:href="#l"/>
</g>
<path d="m308 349v-313" clip-path="url(#g)" fill="none" stroke="#b0b0b0" stroke-linecap="square" stroke-width=".8"/>
<use x="308.359328" y="348.52899" stroke="#000000" stroke-width=".8" xlink:href="#k"/>
<g transform="translate(279 363) scale(.1 -.1)">
<defs>
<path id="ak" transform="scale(.0156)" d="m525 4666h3e3v-269l-1694-4397h-659l1594 4134h-2241v532z"/>
</defs>
<use xlink:href="#c"/>
<use transform="translate(63.6)" xlink:href="#b"/>
<use transform="translate(127)" xlink:href="#c"/>
<use transform="translate(191)" xlink:href="#m"/>
<use transform="translate(254)" xlink:href="#f"/>
<use transform="translate(291)" xlink:href="#b"/>
<use transform="translate(354)" xlink:href="#ak"/>
<use transform="translate(418)" xlink:href="#f"/>
<use transform="translate(454)" xlink:href="#b"/>
<use transform="translate(518)" xlink:href="#d"/>
</g>
<path d="m371 349v-313" clip-path="url(#g)" fill="none" stroke="#b0b0b0" stroke-linecap="square" stroke-width=".8"/>
<use x="370.500079" y="348.52899" stroke="#000000" stroke-width=".8" xlink:href="#k"/>
<g transform="translate(341 363) scale(.1 -.1)">
<use xlink:href="#c"/>
<use transform="translate(63.6)" xlink:href="#b"/>
<use transform="translate(127)" xlink:href="#c"/>
<use transform="translate(191)" xlink:href="#m"/>
<use transform="translate(254)" xlink:href="#f"/>
<use transform="translate(291)" xlink:href="#b"/>
<use transform="translate(354)" xlink:href="#ak"/>
<use transform="translate(418)" xlink:href="#f"/>
<use transform="translate(454)" xlink:href="#d"/>
<use transform="translate(518)" xlink:href="#l"/>
</g>
<path d="m446 349v-313" clip-path="url(#g)" fill="none" stroke="#b0b0b0" stroke-linecap="square" stroke-width=".8"/>
<use x="445.956706" y="348.52899" stroke="#000000" stroke-width=".8" xlink:href="#k"/>
<g transform="translate(417 363) scale(.1 -.1)">
<defs>
<path id="af" transform="scale(.0156)" d="m2034 2216q-450 0-708-241-257-241-257-662 0-422 257-663 258-241 708-241t709 242q260 243 260 662 0 421-258 662-257 241-711 241zm-631 268q-406 100-633 378-226 279-226 679 0 559 398 884 399 325 1092 325 697 0 1094-325t397-884q0-400-227-679-226-278-629-378 456-106 710-416 255-309 255-755 0-679-414-1042-414-362-1186-362-771 0-1186 362-414 363-414 1042 0 446 256 755 257 310 713 416zm-231 997q0-362 226-565 227-203 636-203 407 0 636 203 230 203 230 565 0 363-230 566-229 203-636 203-409 0-636-203-226-203-226-566z"/>
</defs>
<use xlink:href="#c"/>
<use transform="translate(63.6)" xlink:href="#b"/>
<use transform="translate(127)" xlink:href="#c"/>
<use transform="translate(191)" xlink:href="#m"/>
<use transform="translate(254)" xlink:href="#f"/>
<use transform="translate(291)" xlink:href="#b"/>
<use transform="translate(354)" xlink:href="#af"/>
<use transform="translate(418)" xlink:href="#f"/>
<use transform="translate(454)" xlink:href="#b"/>
<use transform="translate(518)" xlink:href="#d"/>
</g>
<path d="m508 349v-313" clip-path="url(#g)" fill="none" stroke="#b0b0b0" stroke-linecap="square" stroke-width=".8"/>
<use x="508.097457" y="348.52899" stroke="#000000" stroke-width=".8" xlink:href="#k"/>
<g transform="translate(479 363) scale(.1 -.1)">
<use xlink:href="#c"/>
<use transform="translate(63.6)" xlink:href="#b"/>
<use transform="translate(127)" xlink:href="#c"/>
<use transform="translate(191)" xlink:href="#m"/>
<use transform="translate(254)" xlink:href="#f"/>
<use transform="translate(291)" xlink:href="#b"/>
<use transform="translate(354)" xlink:href="#af"/>
<use transform="translate(418)" xlink:href="#f"/>
<use transform="translate(454)" xlink:href="#d"/>
<use transform="translate(518)" xlink:href="#l"/>
</g>
<path d="m584 349v-313" clip-path="url(#g)" fill="none" stroke="#b0b0b0" stroke-linecap="square" stroke-width=".8"/>
<use x="583.554084" y="348.52899" stroke="#000000" stroke-width=".8" xlink:href="#k"/>
<g transform="translate(554 363) scale(.1 -.1)">
<defs>
<path id="v" transform="scale(.0156)" d="m703 97v575q238-113 481-172 244-59 479-59 625 0 954 420 330 420 377 1277-181-269-460-413-278-144-615-144-700 0-1108 423-408 424-408 1159 0 718 425 1152 425 435 1131 435 810 0 1236-621 427-620 427-1801 0-1103-524-1761-523-658-1407-658-238 0-482 47-243 47-506 141zm1256 1978q425 0 673 290 249 291 249 798 0 503-249 795-248 292-673 292t-673-292-248-795q0-507 248-798 248-290 673-290z"/>
</defs>
<use xlink:href="#c"/>
<use transform="translate(63.6)" xlink:href="#b"/>
<use transform="translate(127)" xlink:href="#c"/>
<use transform="translate(191)" xlink:href="#m"/>
<use transform="translate(254)" xlink:href="#f"/>
<use transform="translate(291)" xlink:href="#b"/>
<use transform="translate(354)" xlink:href="#v"/>
<use transform="translate(418)" xlink:href="#f"/>
<use transform="translate(454)" xlink:href="#b"/>
<use transform="translate(518)" xlink:href="#d"/>
</g>
<path d="m646 349v-313" clip-path="url(#g)" fill="none" stroke="#b0b0b0" stroke-linecap="square" stroke-width=".8"/>
<use x="645.694836" y="348.52899" stroke="#000000" stroke-width=".8" xlink:href="#k"/>
<g transform="translate(617 363) scale(.1 -.1)">
<use xlink:href="#c"/>
<use transform="translate(63.6)" xlink:href="#b"/>
<use transform="translate(127)" xlink:href="#c"/>
<use transform="translate(191)" xlink:href="#m"/>
<use transform="translate(254)" xlink:href="#f"/>
<use transform="translate(291)" xlink:href="#b"/>
<use transform="translate(354)" xlink:href="#v"/>
<use transform="translate(418)" xlink:href="#f"/>
<use transform="translate(454)" xlink:href="#d"/>
<use transform="translate(518)" xlink:href="#l"/>
</g>
<path d="m40.6 349h663" clip-path="url(#g)" fill="none" stroke="#b0b0b0" stroke-linecap="square" stroke-width=".8"/>
<defs>
<path id="i" d="m0 0h-3.5" stroke="#000" stroke-width=".8"/>
</defs>
<use x="40.645553" y="348.52899" stroke="#000000" stroke-width=".8" xlink:href="#i"/>
<g transform="translate(3 352) scale(.1 -.1)">
<defs>
<path id="e" transform="scale(.0156)" d="m684 794h660v-794h-660v794z"/>
<path id="j" transform="scale(.0156)" d="m4488 3438-1429-1435 1429-1428-372-378-1435 1434-1434-1434-369 378 1425 1428-1425 1435 369 378 1434-1435 1435 1435 372-378z"/>
</defs>
<use xlink:href="#b"/>
<use transform="translate(63.6)" xlink:href="#e"/>
<use transform="translate(95.4)" xlink:href="#v"/>
<use transform="translate(159)" xlink:href="#b"/>
<use transform="translate(223)" xlink:href="#j"/>
</g>
<path d="m40.6 309h663" clip-path="url(#g)" fill="none" stroke="#b0b0b0" stroke-linecap="square" stroke-width=".8"/>
<use x="40.645553" y="309.429441" stroke="#000000" stroke-width=".8" xlink:href="#i"/>
<g transform="translate(3 313) scale(.1 -.1)">
<use xlink:href="#b"/>
<use transform="translate(63.6)" xlink:href="#e"/>
<use transform="translate(95.4)" xlink:href="#v"/>
<use transform="translate(159)" xlink:href="#l"/>
<use transform="translate(223)" xlink:href="#j"/>
</g>
<path d="m40.6 270h663" clip-path="url(#g)" fill="none" stroke="#b0b0b0" stroke-linecap="square" stroke-width=".8"/>
<use x="40.645553" y="270.329891" stroke="#000000" stroke-width=".8" xlink:href="#i"/>
<g transform="translate(3 274) scale(.1 -.1)">
<use xlink:href="#d"/>
<use transform="translate(63.6)" xlink:href="#e"/>
<use transform="translate(95.4)" xlink:href="#b"/>
<use transform="translate(159)" xlink:href="#b"/>
<use transform="translate(223)" xlink:href="#j"/>
</g>
<path d="m40.6 231h663" clip-path="url(#g)" fill="none" stroke="#b0b0b0" stroke-linecap="square" stroke-width=".8"/>
<use x="40.645553" y="231.230342" stroke="#000000" stroke-width=".8" xlink:href="#i"/>
<g transform="translate(3 235) scale(.1 -.1)">
<use xlink:href="#d"/>
<use transform="translate(63.6)" xlink:href="#e"/>
<use transform="translate(95.4)" xlink:href="#b"/>
<use transform="translate(159)" xlink:href="#l"/>
<use transform="translate(223)" xlink:href="#j"/>
</g>
<path d="m40.6 192h663" clip-path="url(#g)" fill="none" stroke="#b0b0b0" stroke-linecap="square" stroke-width=".8"/>
<use x="40.645553" y="192.130792" stroke="#000000" stroke-width=".8" xlink:href="#i"/>
<g transform="translate(3 196) scale(.1 -.1)">
<use xlink:href="#d"/>
<use transform="translate(63.6)" xlink:href="#e"/>
<use transform="translate(95.4)" xlink:href="#d"/>
<use transform="translate(159)" xlink:href="#b"/>
<use transform="translate(223)" xlink:href="#j"/>
</g>
<path d="m40.6 153h663" clip-path="url(#g)" fill="none" stroke="#b0b0b0" stroke-linecap="square" stroke-width=".8"/>
<use x="40.645553" y="153.031243" stroke="#000000" stroke-width=".8" xlink:href="#i"/>
<g transform="translate(3 157) scale(.1 -.1)">
<use xlink:href="#d"/>
<use transform="translate(63.6)" xlink:href="#e"/>
<use transform="translate(95.4)" xlink:href="#d"/>
<use transform="translate(159)" xlink:href="#l"/>
<use transform="translate(223)" xlink:href="#j"/>
</g>
<path d="m40.6 114h663" clip-path="url(#g)" fill="none" stroke="#b0b0b0" stroke-linecap="square" stroke-width=".8"/>
<use x="40.645553" y="113.931694" stroke="#000000" stroke-width=".8" xlink:href="#i"/>
<g transform="translate(3 118) scale(.1 -.1)">
<use xlink:href="#d"/>
<use transform="translate(63.6)" xlink:href="#e"/>
<use transform="translate(95.4)" xlink:href="#c"/>
<use transform="translate(159)" xlink:href="#b"/>
<use transform="translate(223)" xlink:href="#j"/>
</g>
<path d="m40.6 74.8h663" clip-path="url(#g)" fill="none" stroke="#b0b0b0" stroke-linecap="square" stroke-width=".8"/>
<use x="40.645553" y="74.832144" stroke="#000000" stroke-width=".8" xlink:href="#i"/>
<g transform="translate(3 78.6) scale(.1 -.1)">
<use xlink:href="#d"/>
<use transform="translate(63.6)" xlink:href="#e"/>
<use transform="translate(95.4)" xlink:href="#c"/>
<use transform="translate(159)" xlink:href="#l"/>
<use transform="translate(223)" xlink:href="#j"/>
</g>
<path d="m40.6 35.7h663" clip-path="url(#g)" fill="none" stroke="#b0b0b0" stroke-linecap="square" stroke-width=".8"/>
<use x="40.645553" y="35.732595" stroke="#000000" stroke-width=".8" xlink:href="#i"/>
<g transform="translate(3 39.5) scale(.1 -.1)">
<defs>
<path id="s" transform="scale(.0156)" d="m2597 2516q453-97 707-404 255-306 255-756 0-690-475-1069-475-378-1350-378-293 0-604 58t-642 174v609q262-153 574-231 313-78 654-78 593 0 904 234t311 681q0 413-289 645-289 233-804 233h-544v519h569q465 0 712 186t247 536q0 359-255 551-254 193-729 193-260 0-557-57-297-56-653-174v562q360 100 674 150t592 50q719 0 1137-327 419-326 419-882 0-388-222-655t-631-370z"/>
</defs>
<use xlink:href="#d"/>
<use transform="translate(63.6)" xlink:href="#e"/>
<use transform="translate(95.4)" xlink:href="#s"/>
<use transform="translate(159)" xlink:href="#b"/>
<use transform="translate(223)" xlink:href="#j"/>
</g>
<path d="m70.8 270 437-7.82h102" clip-path="url(#g)" fill="none" stroke="#1f77b4" stroke-linecap="square" stroke-opacity=".9" stroke-width="1.5"/>
<defs>
<path id="a" d="m-2.5 2.5h5v-5h-5z" stroke="#1f77b4" stroke-opacity=".9"/>
</defs>
<g clip-path="url(#g)" fill="#1f77b4" fill-opacity=".9" stroke="#1f77b4" stroke-opacity=".9">
<use x="70.772672" y="270.329891" xlink:href="#a"/>
<use x="508.009044" y="262.509981" xlink:href="#a"/>
<use x="610.048206" y="262.509981" xlink:href="#a"/>
</g>
<g stroke="#1f77b4" stroke-opacity=".9">
<path d="m610 255h63.3" clip-path="url(#g)" fill="none" stroke-dasharray="1.5,2.475" stroke-width="1.5"/>
<g clip-path="url(#g)" fill="#1f77b4" fill-opacity=".9">
<use x="610.048206" y="254.690071" xlink:href="#a"/>
<use x="673.315054" y="254.690071" xlink:href="#a"/>
</g>
</g>
<path d="m40.6 349v-313" fill="none" stroke="#000" stroke-linecap="square" stroke-width=".8"/>
<path d="m703 349v-313" fill="none" stroke="#000" stroke-linecap="square" stroke-width=".8"/>
<path d="m40.6 349h663" fill="none" stroke="#000" stroke-linecap="square" stroke-width=".8"/>
<path d="m40.6 35.7h663" fill="none" stroke="#000" stroke-linecap="square" stroke-width=".8"/>
<path d="m71.2 261-0.348 7.35" fill="none" stroke="#888" stroke-linecap="round"/>
<g transform="translate(73.9 257) rotate(-90) scale(.08 -.08)" fill="#888">
<defs>
<path id="ai" transform="scale(.0156)" d="m3116 1747q0 634-261 995t-717 361q-457 0-718-361t-261-995 261-995 718-361q456 0 717 361t261 995zm-1957 1222q182 312 458 463 277 152 661 152 638 0 1036-506 399-506 399-1331t-399-1332q-398-506-1036-506-384 0-661 152-276 152-458 464v-525h-578v4863h578v-1894z"/>
</defs>
<use xlink:href="#ai"/>
<use transform="translate(63.5)" xlink:href="#d"/>
</g>
<path d="m610 253-0.326 7.34" fill="none" stroke="#888" stroke-linecap="round"/>
<g transform="translate(613 249) rotate(-90) scale(.08 -.08)" fill="#888">
<defs>
<path id="n" transform="scale(.0156)" d="m2631 2963q-97 56-211 82-114 27-251 27-488 0-749-317t-261-911v-1844h-578v3500h578v-544q182 319 472 473 291 155 707 155 59 0 131-8 72-7 159-23l3-590z"/>
<path id="ae" transform="scale(.0156)" d="m3122 3366v-538q-244 135-489 202t-495 67q-560 0-870-355-309-354-309-995t309-996q310-354 870-354 250 0 495 67t489 202v-532q-241-112-499-168-257-57-548-57-791 0-1257 497-465 497-465 1341 0 856 470 1346 471 491 1290 491 265 0 518-55 253-54 491-163z"/>
</defs>
<use xlink:href="#n"/>
<use transform="translate(38.9)" xlink:href="#ae"/>
<use transform="translate(93.8)" xlink:href="#c"/>
</g>
<g clip-path="url(#g)">
<g transform="translate(58.2 262) rotate(-90) scale(.1 -.1)">
<defs>
<path id="ab" transform="scale(.0156)" d="m3328 2828q216 388 516 572t706 184q547 0 844-383 297-382 297-1088v-2113h-578v2094q0 503-179 746-178 244-543 244-447 0-707-297-259-296-259-809v-1978h-578v2094q0 506-178 748t-550 242q-441 0-701-298-259-298-259-808v-1978h-578v3500h578v-544q197 322 472 475t653 153q382 0 649-194 267-193 395-562z"/>
<path id="u" transform="scale(.0156)" d="m1959 3097q-462 0-731-361t-269-989 267-989q268-361 733-361 460 0 728 362 269 363 269 988 0 622-269 986-268 364-728 364zm0 487q750 0 1178-488 429-487 429-1349 0-859-429-1349-428-489-1178-489-753 0-1180 489-426 490-426 1349 0 862 426 1349 427 488 1180 488z"/>
<path id="r" transform="scale(.0156)" d="m3597 1894v-281h-2644q38-594 358-905t892-311q331 0 642 81t618 244v-544q-310-131-635-200t-659-69q-838 0-1327 487-489 488-489 1320 0 859 464 1363 464 505 1252 505 706 0 1117-455 411-454 411-1235zm-575 169q-6 471-264 752-258 282-683 282-481 0-770-272t-333-766l2050 4z"/>
<path id="al" transform="scale(.0156)" d="m8863 2147v-281l-1229-1228-375 375 729 728h-7622v531h7622l-729 728 375 375 1229-1228z"/>
</defs>
<use xlink:href="#ab"/>
<use transform="translate(97.4)" xlink:href="#u"/>
<use transform="translate(159)" xlink:href="#n"/>
<use transform="translate(197)" xlink:href="#r"/>
<use transform="translate(259)" xlink:href="#DejaVuSans-20"/>
<use transform="translate(291)" xlink:href="#al"/>
</g>
</g>
<g clip-path="url(#g)">
<g transform="translate(58.2 317) rotate(-90) scale(.1 -.1)">
<defs>
<path id="am" transform="scale(.0156)" d="m313 1866v281l1228 1228 375-375-728-728h7621v-531h-7621l728-728-375-375-1228 1228z"/>
<path id="q" transform="scale(.0156)" d="m603 4863h575v-4863h-575v4863z"/>
<path id="o" transform="scale(.0156)" d="m2834 3397v-544q-243 125-506 187-262 63-544 63-428 0-642-131t-214-394q0-200 153-314t616-217l197-44q612-131 870-370t258-667q0-488-386-773-386-284-1061-284-281 0-586 55t-642 164v594q319-166 628-249 309-82 613-82 406 0 624 139 219 139 219 392 0 234-158 359-157 125-692 241l-200 47q-534 112-772 345-237 233-237 639 0 494 350 762 350 269 994 269 318 0 599-47 282-46 519-140z"/>
</defs>
<use xlink:href="#am"/>
<use transform="translate(143)" xlink:href="#DejaVuSans-20"/>
<use transform="translate(175)" xlink:href="#q"/>
<use transform="translate(203)" xlink:href="#r"/>
<use transform="translate(264)" xlink:href="#o"/>
<use transform="translate(317)" xlink:href="#o"/>
</g>
</g>
<g transform="translate(299 29.7) scale(.12 -.12)">
<defs>
<path id="aj" transform="scale(.0156)" d="m1259 4147v-1753h794q441 0 681 228 241 228 241 650 0 419-241 647-240 228-681 228h-794zm-631 519h1425q785 0 1186-355 402-355 402-1039 0-691-402-1044-401-353-1186-353h-794v-1875h-631v4666z"/>
<path id="z" transform="scale(.0156)" d="m2059-325q-243-625-475-815-231-191-618-191h-460v481h338q237 0 368 113 132 112 291 531l103 262-1415 3444h609l1094-2737 1094 2737h609l-1538-3825z"/>
<path id="aa" transform="scale(.0156)" d="m1172 4494v-994h1184v-447h-1184v-1900q0-428 117-550t477-122h590v-481h-590q-666 0-919 248-253 249-253 905v1900h-422v447h422v994h578z"/>
<path id="ad" transform="scale(.0156)" d="m3513 2113v-2113h-575v2094q0 497-194 743-194 247-581 247-466 0-735-297-269-296-269-809v-1978h-578v4863h578v-1907q207 316 486 472 280 156 646 156 603 0 912-373 310-373 310-1098z"/>
<path id="p" transform="scale(.0156)" d="m3513 2113v-2113h-575v2094q0 497-194 743-194 247-581 247-466 0-735-297-269-296-269-809v-1978h-578v3500h578v-544q207 316 486 472 280 156 646 156 603 0 912-373 310-373 310-1098z"/>
<path id="w" transform="scale(.0156)" d="m3513 3500-1266-1703 1331-1797h-678l-1019 1375-1018-1375h-679l1360 1831-1244 1669h678l928-1247 928 1247h679z"/>
<path id="x" transform="scale(.0156)" d="m191 3500h609l1094-2937 1094 2937h609l-1313-3500h-781l-1312 3500z"/>
</defs>
<use xlink:href="#aj"/>
<use transform="translate(60.3)" xlink:href="#z"/>
<use transform="translate(119)" xlink:href="#aa"/>
<use transform="translate(159)" xlink:href="#ad"/>
<use transform="translate(222)" xlink:href="#u"/>
<use transform="translate(283)" xlink:href="#p"/>
<use transform="translate(347)" xlink:href="#DejaVuSans-20"/>
<use transform="translate(378)" xlink:href="#s"/>
<use transform="translate(442)" xlink:href="#e"/>
<use transform="translate(474)" xlink:href="#d"/>
<use transform="translate(537)" xlink:href="#s"/>
<use transform="translate(601)" xlink:href="#e"/>
<use transform="translate(633)" xlink:href="#w"/>
<use transform="translate(692)" xlink:href="#DejaVuSans-20"/>
<use transform="translate(724)" xlink:href="#x"/>
<use transform="translate(783)" xlink:href="#o"/>
<use transform="translate(835)" xlink:href="#e"/>
<use transform="translate(867)" xlink:href="#DejaVuSans-20"/>
<use transform="translate(899)" xlink:href="#s"/>
<use transform="translate(962)" xlink:href="#e"/>
<use transform="translate(994)" xlink:href="#d"/>
<use transform="translate(1058)" xlink:href="#c"/>
<use transform="translate(1121)" xlink:href="#e"/>
<use transform="translate(1153)" xlink:href="#ag"/>
</g>
<path d="m47.6 73.1h82.6q2 0 2-2v-28.4q0-2-2-2h-82.6q-2 0-2 2v28.4q0 2 2 2z" fill="#fff" opacity=".8" stroke="#ccc"/>
<path d="m49.6 48.8h10 10" fill="none" stroke="#1f77b4" stroke-linecap="square" stroke-opacity=".9" stroke-width="1.5"/>
<use x="59.645553" y="48.831032" fill="#1f77b4" fill-opacity=".9" stroke="#1f77b4" stroke-opacity=".9" xlink:href="#a"/>
<g transform="translate(77.6 52.3) scale(.1 -.1)">
<defs>
<path id="y" transform="scale(.0156)" d="m603 3500h575v-3500h-575v3500zm0 1363h575v-729h-575v729z"/>
<path id="t" transform="scale(.0156)" d="m544 1381v2119h575v-2097q0-497 193-746 194-248 582-248 465 0 735 297 271 297 271 810v1984h575v-3500h-575v538q-209-319-486-474-276-155-642-155-603 0-916 375-312 375-312 1097zm1447 2203z"/>
</defs>
<use xlink:href="#q"/>
<use transform="translate(27.8)" xlink:href="#y"/>
<use transform="translate(55.6)" xlink:href="#p"/>
<use transform="translate(119)" xlink:href="#t"/>
<use transform="translate(182)" xlink:href="#w"/>
</g>
<path d="m49.6 63.5h10 10" fill="none" stroke="#1f77b4" stroke-dasharray="1.5,2.475" stroke-opacity=".9" stroke-width="1.5"/>
<use x="59.645553" y="63.509158" fill="#1f77b4" fill-opacity=".9" stroke="#1f77b4" stroke-opacity=".9" xlink:href="#a"/>
<g transform="translate(77.6 67) scale(.1 -.1)">
<use xlink:href="#q"/>
<use transform="translate(27.8)" xlink:href="#y"/>
<use transform="translate(55.6)" xlink:href="#p"/>
<use transform="translate(119)" xlink:href="#t"/>
<use transform="translate(182)" xlink:href="#w"/>
<use transform="translate(242)" xlink:href="#f"/>
<use transform="translate(275)" xlink:href="#x"/>
<use transform="translate(334)" xlink:href="#t"/>
<use transform="translate(398)" xlink:href="#q"/>
<use transform="translate(425)" xlink:href="#aa"/>
<use transform="translate(465)" xlink:href="#n"/>
</g>
<path d="m40.6 700h663v-313h-663z" fill="#fff"/>
<path d="m104 700v-313" clip-path="url(#h)" fill="none" stroke="#b0b0b0" stroke-linecap="square" stroke-width=".8"/>
<use x="104.086444" y="700.321635" stroke="#000000" stroke-width=".8" xlink:href="#k"/>
<g transform="translate(83.2 715) scale(.1 -.1)">
<use xlink:href="#c"/>
<use transform="translate(63.6)" xlink:href="#b"/>
<use transform="translate(127)" xlink:href="#c"/>
<use transform="translate(191)" xlink:href="#m"/>
<use transform="translate(254)" xlink:href="#f"/>
<use transform="translate(291)" xlink:href="#b"/>
<use transform="translate(354)" xlink:href="#af"/>
</g>
<path d="m224 700v-313" clip-path="url(#h)" fill="none" stroke="#b0b0b0" stroke-linecap="square" stroke-width=".8"/>
<use x="224.036015" y="700.321635" stroke="#000000" stroke-width=".8" xlink:href="#k"/>
<g transform="translate(203 715) scale(.1 -.1)">
<use xlink:href="#c"/>
<use transform="translate(63.6)" xlink:href="#b"/>
<use transform="translate(127)" xlink:href="#c"/>
<use transform="translate(191)" xlink:href="#m"/>
<use transform="translate(254)" xlink:href="#f"/>
<use transform="translate(291)" xlink:href="#b"/>
<use transform="translate(354)" xlink:href="#v"/>
</g>
<path d="m340 700v-313" clip-path="url(#h)" fill="none" stroke="#b0b0b0" stroke-linecap="square" stroke-width=".8"/>
<use x="340.116246" y="700.321635" stroke="#000000" stroke-width=".8" xlink:href="#k"/>
<g transform="translate(319 715) scale(.1 -.1)">
<use xlink:href="#c"/>
<use transform="translate(63.6)" xlink:href="#b"/>
<use transform="translate(127)" xlink:href="#c"/>
<use transform="translate(191)" xlink:href="#m"/>
<use transform="translate(254)" xlink:href="#f"/>
<use transform="translate(291)" xlink:href="#d"/>
<use transform="translate(354)" xlink:href="#b"/>
</g>
<path d="m460 700v-313" clip-path="url(#h)" fill="none" stroke="#b0b0b0" stroke-linecap="square" stroke-width=".8"/>
<use x="460.065818" y="700.321635" stroke="#000000" stroke-width=".8" xlink:href="#k"/>
<g transform="translate(439 715) scale(.1 -.1)">
<use xlink:href="#c"/>
<use transform="translate(63.6)" xlink:href="#b"/>
<use transform="translate(127)" xlink:href="#c"/>
<use transform="translate(191)" xlink:href="#m"/>
<use transform="translate(254)" xlink:href="#f"/>
<use transform="translate(291)" xlink:href="#d"/>
<use transform="translate(354)" xlink:href="#d"/>
</g>
<path d="m576 700v-313" clip-path="url(#h)" fill="none" stroke="#b0b0b0" stroke-linecap="square" stroke-width=".8"/>
<use x="576.146048" y="700.321635" stroke="#000000" stroke-width=".8" xlink:href="#k"/>
<g transform="translate(555 715) scale(.1 -.1)">
<use xlink:href="#c"/>
<use transform="translate(63.6)" xlink:href="#b"/>
<use transform="translate(127)" xlink:href="#c"/>
<use transform="translate(191)" xlink:href="#m"/>
<use transform="translate(254)" xlink:href="#f"/>
<use transform="translate(291)" xlink:href="#d"/>
<use transform="translate(354)" xlink:href="#c"/>
</g>
<path d="m696 700v-313" clip-path="url(#h)" fill="none" stroke="#b0b0b0" stroke-linecap="square" stroke-width=".8"/>
<use x="696.09562" y="700.321635" stroke="#000000" stroke-width=".8" xlink:href="#k"/>
<g transform="translate(675 715) scale(.1 -.1)">
<use xlink:href="#c"/>
<use transform="translate(63.6)" xlink:href="#b"/>
<use transform="translate(127)" xlink:href="#c"/>
<use transform="translate(191)" xlink:href="#l"/>
<use transform="translate(254)" xlink:href="#f"/>
<use transform="translate(291)" xlink:href="#b"/>
<use transform="translate(354)" xlink:href="#d"/>
</g>
<path d="m40.6 700h663" clip-path="url(#h)" fill="none" stroke="#b0b0b0" stroke-linecap="square" stroke-width=".8"/>
<use x="40.645553" y="700.321635" stroke="#000000" stroke-width=".8" xlink:href="#i"/>
<g transform="translate(3 704) scale(.1 -.1)">
<use xlink:href="#b"/>
<use transform="translate(63.6)" xlink:href="#e"/>
<use transform="translate(95.4)" xlink:href="#v"/>
<use transform="translate(159)" xlink:href="#b"/>
<use transform="translate(223)" xlink:href="#j"/>
</g>
<path d="m40.6 661h663" clip-path="url(#h)" fill="none" stroke="#b0b0b0" stroke-linecap="square" stroke-width=".8"/>
<use x="40.645553" y="661.222086" stroke="#000000" stroke-width=".8" xlink:href="#i"/>
<g transform="translate(3 665) scale(.1 -.1)">
<use xlink:href="#b"/>
<use transform="translate(63.6)" xlink:href="#e"/>
<use transform="translate(95.4)" xlink:href="#v"/>
<use transform="translate(159)" xlink:href="#l"/>
<use transform="translate(223)" xlink:href="#j"/>
</g>
<path d="m40.6 622h663" clip-path="url(#h)" fill="none" stroke="#b0b0b0" stroke-linecap="square" stroke-width=".8"/>
<use x="40.645553" y="622.122536" stroke="#000000" stroke-width=".8" xlink:href="#i"/>
<g transform="translate(3 626) scale(.1 -.1)">
<use xlink:href="#d"/>
<use transform="translate(63.6)" xlink:href="#e"/>
<use transform="translate(95.4)" xlink:href="#b"/>
<use transform="translate(159)" xlink:href="#b"/>
<use transform="translate(223)" xlink:href="#j"/>
</g>
<path d="m40.6 583h663" clip-path="url(#h)" fill="none" stroke="#b0b0b0" stroke-linecap="square" stroke-width=".8"/>
<use x="40.645553" y="583.022987" stroke="#000000" stroke-width=".8" xlink:href="#i"/>
<g transform="translate(3 587) scale(.1 -.1)">
<use xlink:href="#d"/>
<use transform="translate(63.6)" xlink:href="#e"/>
<use transform="translate(95.4)" xlink:href="#b"/>
<use transform="translate(159)" xlink:href="#l"/>
<use transform="translate(223)" xlink:href="#j"/>
</g>
<path d="m40.6 544h663" clip-path="url(#h)" fill="none" stroke="#b0b0b0" stroke-linecap="square" stroke-width=".8"/>
<use x="40.645553" y="543.923437" stroke="#000000" stroke-width=".8" xlink:href="#i"/>
<g transform="translate(3 548) scale(.1 -.1)">
<use xlink:href="#d"/>
<use transform="translate(63.6)" xlink:href="#e"/>
<use transform="translate(95.4)" xlink:href="#d"/>
<use transform="translate(159)" xlink:href="#b"/>
<use transform="translate(223)" xlink:href="#j"/>
</g>
<path d="m40.6 505h663" clip-path="url(#h)" fill="none" stroke="#b0b0b0" stroke-linecap="square" stroke-width=".8"/>
<use x="40.645553" y="504.823888" stroke="#000000" stroke-width=".8" xlink:href="#i"/>
<g transform="translate(3 509) scale(.1 -.1)">
<use xlink:href="#d"/>
<use transform="translate(63.6)" xlink:href="#e"/>
<use transform="translate(95.4)" xlink:href="#d"/>
<use transform="translate(159)" xlink:href="#l"/>
<use transform="translate(223)" xlink:href="#j"/>
</g>
<path d="m40.6 466h663" clip-path="url(#h)" fill="none" stroke="#b0b0b0" stroke-linecap="square" stroke-width=".8"/>
<use x="40.645553" y="465.724339" stroke="#000000" stroke-width=".8" xlink:href="#i"/>
<g transform="translate(3 470) scale(.1 -.1)">
<use xlink:href="#d"/>
<use transform="translate(63.6)" xlink:href="#e"/>
<use transform="translate(95.4)" xlink:href="#c"/>
<use transform="translate(159)" xlink:href="#b"/>
<use transform="translate(223)" xlink:href="#j"/>
</g>
<path d="m40.6 427h663" clip-path="url(#h)" fill="none" stroke="#b0b0b0" stroke-linecap="square" stroke-width=".8"/>
<use x="40.645553" y="426.624789" stroke="#000000" stroke-width=".8" xlink:href="#i"/>
<g transform="translate(3 430) scale(.1 -.1)">
<use xlink:href="#d"/>
<use transform="translate(63.6)" xlink:href="#e"/>
<use transform="translate(95.4)" xlink:href="#c"/>
<use transform="translate(159)" xlink:href="#l"/>
<use transform="translate(223)" xlink:href="#j"/>
</g>
<path d="m40.6 388h663" clip-path="url(#h)" fill="none" stroke="#b0b0b0" stroke-linecap="square" stroke-width=".8"/>
<use x="40.645553" y="387.52524" stroke="#000000" stroke-width=".8" xlink:href="#i"/>
<g transform="translate(3 391) scale(.1 -.1)">
<use xlink:href="#d"/>
<use transform="translate(63.6)" xlink:href="#e"/>
<use transform="translate(95.4)" xlink:href="#s"/>
<use transform="translate(159)" xlink:href="#b"/>
<use transform="translate(223)" xlink:href="#j"/>
</g>
<g stroke="#1f77b4" stroke-opacity=".9">
<path d="m70.8 622 18.4-7.82h27.6l15.2 7.82h0.0248 0.368 11.4l18.9-7.82h0.133 7.97 27.2 27.1 21.9 0.0434l0.86 7.82 3.76-7.82 27 7.82h22.4l21.9-7.82m10.5 7.82 7.03 7.82 0.161 7.82 81.9-23.5h3.56 50.3 4.37 3.65 3.95 2.86 4.87 3.66 4.26 3.42 4.25 3.97 3.67 4.03 3.81l3.94 7.82 3.41-7.82h4.13l4.14-86h3.78 3.49 4.04 3.68 3.9 4.16 2.82 4.52 3.48 4 4.52 4 3.88l3.42-7.82h3.87 3.28 4 3.83l4.78 7.82h3.73 3.63 3.3 3.41 5.14 3.5 4.24 2.63l5.17-7.82h3.23 7.63 4.23 3.42 3.74" clip-path="url(#h)" fill="none" stroke-linecap="square" stroke-width="1.5"/>
<g clip-path="url(#h)" fill="#1f77b4" fill-opacity=".9">
<use x="70.772672" y="622.122536" xlink:href="#a"/>
<use x="89.183122" y="614.302626" xlink:href="#a"/>
<use x="116.811694" y="614.302626" xlink:href="#a"/>
<use x="132.034237" y="622.122536" xlink:href="#a"/>
<use x="132.059003" y="622.122536" xlink:href="#a"/>
<use x="132.427351" y="622.122536" xlink:href="#a"/>
<use x="143.804378" y="622.122536" xlink:href="#a"/>
<use x="162.724919" y="614.302626" xlink:href="#a"/>
<use x="162.857659" y="614.302626" xlink:href="#a"/>
<use x="170.827471" y="614.302626" xlink:href="#a"/>
<use x="198.064452" y="614.302626" xlink:href="#a"/>
<use x="225.210477" y="614.302626" xlink:href="#a"/>
<use x="247.069656" y="614.302626" xlink:href="#a"/>
<use x="247.113097" y="614.302626" xlink:href="#a"/>
<use x="247.973488" y="622.122536" xlink:href="#a"/>
<use x="251.731182" y="614.302626" xlink:href="#a"/>
<use x="278.770845" y="622.122536" xlink:href="#a"/>
<use x="301.202006" y="622.122536" xlink:href="#a"/>
<use x="323.056975" y="614.302626" xlink:href="#a"/>
<use x="333.548353" y="622.122536" xlink:href="#a"/>
<use x="340.575103" y="629.942446" xlink:href="#a"/>
<use x="340.736102" y="637.762356" xlink:href="#a"/>
<use x="422.601774" y="614.302626" xlink:href="#a"/>
<use x="426.161702" y="614.302626" xlink:href="#a"/>
<use x="476.478675" y="614.302626" xlink:href="#a"/>
<use x="480.847135" y="614.302626" xlink:href="#a"/>
<use x="484.501154" y="614.302626" xlink:href="#a"/>
<use x="488.449539" y="614.302626" xlink:href="#a"/>
<use x="491.310343" y="614.302626" xlink:href="#a"/>
<use x="496.183787" y="614.302626" xlink:href="#a"/>
<use x="499.847301" y="614.302626" xlink:href="#a"/>
<use x="504.11092" y="614.302626" xlink:href="#a"/>
<use x="507.528838" y="614.302626" xlink:href="#a"/>
<use x="511.778306" y="614.302626" xlink:href="#a"/>
<use x="515.748949" y="614.302626" xlink:href="#a"/>
<use x="519.42012" y="614.302626" xlink:href="#a"/>
<use x="523.446206" y="614.302626" xlink:href="#a"/>
<use x="527.251774" y="614.302626" xlink:href="#a"/>
<use x="531.195054" y="622.122536" xlink:href="#a"/>
<use x="534.603029" y="614.302626" xlink:href="#a"/>
<use x="538.728446" y="614.302626" xlink:href="#a"/>
<use x="542.870208" y="528.283618" xlink:href="#a"/>
<use x="546.649981" y="528.283618" xlink:href="#a"/>
<use x="550.13821" y="528.283618" xlink:href="#a"/>
<use x="554.173655" y="528.283618" xlink:href="#a"/>
<use x="557.858082" y="528.283618" xlink:href="#a"/>
<use x="561.759892" y="528.283618" xlink:href="#a"/>
<use x="565.916209" y="528.283618" xlink:href="#a"/>
<use x="568.738275" y="528.283618" xlink:href="#a"/>
<use x="573.25385" y="528.283618" xlink:href="#a"/>
<use x="576.736257" y="528.283618" xlink:href="#a"/>
<use x="580.739413" y="528.283618" xlink:href="#a"/>
<use x="585.256197" y="528.283618" xlink:href="#a"/>
<use x="589.25886" y="528.283618" xlink:href="#a"/>
<use x="593.14186" y="528.283618" xlink:href="#a"/>
<use x="596.566809" y="520.463708" xlink:href="#a"/>
<use x="600.436239" y="520.463708" xlink:href="#a"/>
<use x="603.71161" y="520.463708" xlink:href="#a"/>
<use x="607.70957" y="520.463708" xlink:href="#a"/>
<use x="611.538068" y="520.463708" xlink:href="#a"/>
<use x="616.317108" y="528.283618" xlink:href="#a"/>
<use x="620.047932" y="528.283618" xlink:href="#a"/>
<use x="623.67723" y="528.283618" xlink:href="#a"/>
<use x="626.977545" y="528.283618" xlink:href="#a"/>
<use x="630.386193" y="528.283618" xlink:href="#a"/>
<use x="635.521668" y="528.283618" xlink:href="#a"/>
<use x="639.021765" y="528.283618" xlink:href="#a"/>
<use x="643.260709" y="528.283618" xlink:href="#a"/>
<use x="645.886934" y="528.283618" xlink:href="#a"/>
<use x="651.057296" y="520.463708" xlink:href="#a"/>
<use x="654.287838" y="520.463708" xlink:href="#a"/>
<use x="661.921143" y="520.463708" xlink:href="#a"/>
<use x="666.156011" y="520.463708" xlink:href="#a"/>
<use x="669.573034" y="520.463708" xlink:href="#a"/>
<use x="673.315054" y="520.463708" xlink:href="#a"/>
</g>
</g>
<g stroke="#1f77b4" stroke-opacity=".9">
<path d="m301 622v-7.82l32.3 7.82h24.8 29.2 14.6l5.56 23.5 1.89-23.5h1.33 3.82 3.76 4.11 3.56 4.31 3.93 2.97 4.42 3.91 3.86 4.25 3.87 3.47 4.1 2.9 4.55 3.78 4.37 3.65 1.97 1.97 2.86 1.74l3.13-7.82 3.66 7.82 4.26-7.82 3.42 7.82h4.25 3.97 3.67l4.03-7.82 0.292 7.82h3.51l3.94 7.82 3.41-7.82 4.13-7.82 3.3-62.6h0.843 3.15 0.634 3.49 4.04 3.68 3.08 0.824 2.82 1.34 2.82 3.76 0.76 3.48 4 4.52 4 2.93 0.952 3.42 1.11l2.2-7.82h0.564 3.28 1.93 2.07 3.83l4.78 7.82 2.15-7.82 0.67 7.82 0.916-7.82 1.95 7.82h1.68 2.99 0.31 3.41 5.14 3.5 4.24 1.12 1.51l5.17-7.82h3.23 7.63l4.23 7.82 3.42-7.82h3.74" clip-path="url(#h)" fill="none" stroke-dasharray="1.5,2.475" stroke-width="1.5"/>
<g clip-path="url(#h)" fill="#1f77b4" fill-opacity=".9">
<use x="301.202006" y="622.122536" xlink:href="#a"/>
<use x="301.202006" y="614.302626" xlink:href="#a"/>
<use x="333.548353" y="622.122536" xlink:href="#a"/>
<use x="358.325616" y="622.122536" xlink:href="#a"/>
<use x="387.508821" y="622.122536" xlink:href="#a"/>
<use x="402.131258" y="622.122536" xlink:href="#a"/>
<use x="407.69151" y="645.582266" xlink:href="#a"/>
<use x="409.580277" y="622.122536" xlink:href="#a"/>
<use x="410.906915" y="622.122536" xlink:href="#a"/>
<use x="414.727217" y="622.122536" xlink:href="#a"/>
<use x="418.491943" y="622.122536" xlink:href="#a"/>
<use x="422.601774" y="622.122536" xlink:href="#a"/>
<use x="426.161702" y="622.122536" xlink:href="#a"/>
<use x="430.475883" y="622.122536" xlink:href="#a"/>
<use x="434.407966" y="622.122536" xlink:href="#a"/>
<use x="437.374148" y="622.122536" xlink:href="#a"/>
<use x="441.795318" y="622.122536" xlink:href="#a"/>
<use x="445.705726" y="622.122536" xlink:href="#a"/>
<use x="449.568349" y="622.122536" xlink:href="#a"/>
<use x="453.813563" y="622.122536" xlink:href="#a"/>
<use x="457.681381" y="622.122536" xlink:href="#a"/>
<use x="461.152905" y="622.122536" xlink:href="#a"/>
<use x="465.254407" y="622.122536" xlink:href="#a"/>
<use x="468.15704" y="622.122536" xlink:href="#a"/>
<use x="472.702485" y="622.122536" xlink:href="#a"/>
<use x="476.478675" y="622.122536" xlink:href="#a"/>
<use x="480.847135" y="622.122536" xlink:href="#a"/>
<use x="484.501154" y="622.122536" xlink:href="#a"/>
<use x="486.475279" y="622.122536" xlink:href="#a"/>
<use x="488.449539" y="622.122536" xlink:href="#a"/>
<use x="491.310343" y="622.122536" xlink:href="#a"/>
<use x="493.050741" y="622.122536" xlink:href="#a"/>
<use x="496.183787" y="614.302626" xlink:href="#a"/>
<use x="499.847301" y="622.122536" xlink:href="#a"/>
<use x="504.11092" y="614.302626" xlink:href="#a"/>
<use x="507.528838" y="622.122536" xlink:href="#a"/>
<use x="511.778306" y="622.122536" xlink:href="#a"/>
<use x="515.748949" y="622.122536" xlink:href="#a"/>
<use x="519.42012" y="622.122536" xlink:href="#a"/>
<use x="523.446206" y="614.302626" xlink:href="#a"/>
<use x="523.738018" y="622.122536" xlink:href="#a"/>
<use x="527.251774" y="622.122536" xlink:href="#a"/>
<use x="531.195054" y="629.942446" xlink:href="#a"/>
<use x="534.603029" y="622.122536" xlink:href="#a"/>
<use x="538.728446" y="614.302626" xlink:href="#a"/>
<use x="542.026925" y="551.743347" xlink:href="#a"/>
<use x="542.870208" y="551.743347" xlink:href="#a"/>
<use x="546.016466" y="551.743347" xlink:href="#a"/>
<use x="546.649981" y="551.743347" xlink:href="#a"/>
<use x="550.13821" y="551.743347" xlink:href="#a"/>
<use x="554.173655" y="551.743347" xlink:href="#a"/>
<use x="557.858082" y="551.743347" xlink:href="#a"/>
<use x="560.936179" y="551.743347" xlink:href="#a"/>
<use x="561.759892" y="551.743347" xlink:href="#a"/>
<use x="564.577838" y="551.743347" xlink:href="#a"/>
<use x="565.916209" y="551.743347" xlink:href="#a"/>
<use x="568.738275" y="551.743347" xlink:href="#a"/>
<use x="572.493462" y="551.743347" xlink:href="#a"/>
<use x="573.25385" y="551.743347" xlink:href="#a"/>
<use x="576.736257" y="551.743347" xlink:href="#a"/>
<use x="580.739413" y="551.743347" xlink:href="#a"/>
<use x="585.256197" y="551.743347" xlink:href="#a"/>
<use x="589.25886" y="551.743347" xlink:href="#a"/>
<use x="592.189975" y="551.743347" xlink:href="#a"/>
<use x="593.14186" y="551.743347" xlink:href="#a"/>
<use x="596.566809" y="551.743347" xlink:href="#a"/>
<use x="597.677453" y="551.743347" xlink:href="#a"/>
<use x="599.872632" y="543.923437" xlink:href="#a"/>
<use x="600.436239" y="543.923437" xlink:href="#a"/>
<use x="603.71161" y="543.923437" xlink:href="#a"/>
<use x="605.642698" y="543.923437" xlink:href="#a"/>
<use x="607.70957" y="543.923437" xlink:href="#a"/>
<use x="611.538068" y="543.923437" xlink:href="#a"/>
<use x="616.317108" y="551.743347" xlink:href="#a"/>
<use x="618.462442" y="543.923437" xlink:href="#a"/>
<use x="619.132367" y="551.743347" xlink:href="#a"/>
<use x="620.047932" y="543.923437" xlink:href="#a"/>
<use x="621.993261" y="551.743347" xlink:href="#a"/>
<use x="623.67723" y="551.743347" xlink:href="#a"/>
<use x="626.667192" y="551.743347" xlink:href="#a"/>
<use x="626.977545" y="551.743347" xlink:href="#a"/>
<use x="630.386193" y="551.743347" xlink:href="#a"/>
<use x="635.521668" y="551.743347" xlink:href="#a"/>
<use x="639.021765" y="551.743347" xlink:href="#a"/>
<use x="643.260709" y="551.743347" xlink:href="#a"/>
<use x="644.381519" y="551.743347" xlink:href="#a"/>
<use x="645.886934" y="551.743347" xlink:href="#a"/>
<use x="651.057296" y="543.923437" xlink:href="#a"/>
<use x="654.287838" y="543.923437" xlink:href="#a"/>
<use x="661.921143" y="543.923437" xlink:href="#a"/>
<use x="666.156011" y="551.743347" xlink:href="#a"/>
<use x="669.573034" y="543.923437" xlink:href="#a"/>
<use x="673.315054" y="543.923437" xlink:href="#a"/>
</g>
</g>
<path d="m40.6 700v-313" fill="none" stroke="#000" stroke-linecap="square" stroke-width=".8"/>
<path d="m703 700v-313" fill="none" stroke="#000" stroke-linecap="square" stroke-width=".8"/>
<path d="m40.6 700h663" fill="none" stroke="#000" stroke-linecap="square" stroke-width=".8"/>
<path d="m40.6 388h663" fill="none" stroke="#000" stroke-linecap="square" stroke-width=".8"/>
<path d="m71.2 613-0.349 7.35" fill="none" stroke="#888" stroke-linecap="round"/>
<g transform="translate(73.9 609) rotate(-90) scale(.08 -.08)" fill="#888">
<defs>
<path id="ac" transform="scale(.0156)" d="m2194 1759q-697 0-966-159t-269-544q0-306 202-486 202-179 548-179 479 0 768 339t289 901v128h-572zm1147 238v-2e3h-575v531q-197-318-491-470t-719-152q-537 0-855 302-317 302-317 808 0 590 395 890 396 300 1180 300h807v57q0 397-261 614t-733 217q-300 0-585-72-284-72-546-216v532q315 122 612 182 297 61 578 61 760 0 1135-394 375-393 375-1193z"/>
</defs>
<use xlink:href="#ac"/>
<use transform="translate(61.3)" xlink:href="#b"/>
</g>
<g clip-path="url(#h)">
<g transform="translate(58.2 614) rotate(-90) scale(.1 -.1)">
<use xlink:href="#ab"/>
<use transform="translate(97.4)" xlink:href="#u"/>
<use transform="translate(159)" xlink:href="#n"/>
<use transform="translate(197)" xlink:href="#r"/>
<use transform="translate(259)" xlink:href="#DejaVuSans-20"/>
<use transform="translate(291)" xlink:href="#al"/>
</g>
</g>
<g clip-path="url(#h)">
<g transform="translate(58.2 669) rotate(-90) scale(.1 -.1)">
<use xlink:href="#am"/>
<use transform="translate(143)" xlink:href="#DejaVuSans-20"/>
<use transform="translate(175)" xlink:href="#q"/>
<use transform="translate(203)" xlink:href="#r"/>
<use transform="translate(264)" xlink:href="#o"/>
<use transform="translate(317)" xlink:href="#o"/>
</g>
</g>
<g transform="translate(290 382) scale(.12 -.12)">
<use xlink:href="#aj"/>
<use transform="translate(60.3)" xlink:href="#z"/>
<use transform="translate(119)" xlink:href="#aa"/>
<use transform="translate(159)" xlink:href="#ad"/>
<use transform="translate(222)" xlink:href="#u"/>
<use transform="translate(283)" xlink:href="#p"/>
<use transform="translate(347)" xlink:href="#DejaVuSans-20"/>
<use transform="translate(378)" xlink:href="#s"/>
<use transform="translate(442)" xlink:href="#e"/>
<use transform="translate(474)" xlink:href="#d"/>
<use transform="translate(537)" xlink:href="#m"/>
<use transform="translate(601)" xlink:href="#e"/>
<use transform="translate(633)" xlink:href="#w"/>
<use transform="translate(692)" xlink:href="#DejaVuSans-20"/>
<use transform="translate(724)" xlink:href="#x"/>
<use transform="translate(783)" xlink:href="#o"/>
<use transform="translate(835)" xlink:href="#e"/>
<use transform="translate(867)" xlink:href="#DejaVuSans-20"/>
<use transform="translate(899)" xlink:href="#s"/>
<use transform="translate(962)" xlink:href="#e"/>
<use transform="translate(994)" xlink:href="#d"/>
<use transform="translate(1058)" xlink:href="#s"/>
<use transform="translate(1121)" xlink:href="#e"/>
<use transform="translate(1153)" xlink:href="#b"/>
<use transform="translate(1217)" xlink:href="#n"/>
<use transform="translate(1256)" xlink:href="#ae"/>
<use transform="translate(1311)" xlink:href="#c"/>
</g>
<path d="m47.6 425h82.6q2 0 2-2v-28.4q0-2-2-2h-82.6q-2 0-2 2v28.4q0 2 2 2z" fill="#fff" opacity=".8" stroke="#ccc"/>
<path d="m49.6 401h10 10" fill="none" stroke="#1f77b4" stroke-linecap="square" stroke-opacity=".9" stroke-width="1.5"/>
<use x="59.645553" y="400.623678" fill="#1f77b4" fill-opacity=".9" stroke="#1f77b4" stroke-opacity=".9" xlink:href="#a"/>
<g transform="translate(77.6 404) scale(.1 -.1)">
<use xlink:href="#q"/>
<use transform="translate(27.8)" xlink:href="#y"/>
<use transform="translate(55.6)" xlink:href="#p"/>
<use transform="translate(119)" xlink:href="#t"/>
<use transform="translate(182)" xlink:href="#w"/>
</g>
<path d="m49.6 415h10 10" fill="none" stroke="#1f77b4" stroke-dasharray="1.5,2.475" stroke-opacity=".9" stroke-width="1.5"/>
<use x="59.645553" y="415.301803" fill="#1f77b4" fill-opacity=".9" stroke="#1f77b4" stroke-opacity=".9" xlink:href="#a"/>
<g transform="translate(77.6 419) scale(.1 -.1)">
<use xlink:href="#q"/>
<use transform="translate(27.8)" xlink:href="#y"/>
<use transform="translate(55.6)" xlink:href="#p"/>
<use transform="translate(119)" xlink:href="#t"/>
<use transform="translate(182)" xlink:href="#w"/>
<use transform="translate(242)" xlink:href="#f"/>
<use transform="translate(275)" xlink:href="#x"/>
<use transform="translate(334)" xlink:href="#t"/>
<use transform="translate(398)" xlink:href="#q"/>
<use transform="translate(425)" xlink:href="#aa"/>
<use transform="translate(465)" xlink:href="#n"/>
</g>
<g transform="translate(239 12.1) scale(.12 -.12)">
<defs>
<path id="ao" transform="scale(.0156)" d="m628 4666h941l1190-3175 1197 3175h941v-4666h-616v4097l-1203-3200h-634l-1203 3200v-4097h-613v4666z"/>
<path id="ah" transform="scale(.0156)" d="m2906 1791q0 625-258 968-257 344-723 344-462 0-720-344-258-343-258-968 0-622 258-966t720-344q466 0 723 344 258 344 258 966zm575-1357q0-893-397-1329-396-436-1215-436-303 0-572 45t-522 139v559q253-137 500-202 247-66 503-66 566 0 847 295t281 892v285q-178-310-456-463t-666-153q-643 0-1037 490-394 491-394 1301 0 812 394 1302 394 491 1037 491 388 0 666-153t456-462v531h575v-3066z"/>
<path id="an" transform="scale(.0156)" d="m603 3500h575v-3563q0-668-255-968-254-300-820-300h-219v487h154q328 0 446 152 119 151 119 629v3563zm0 1363h575v-729h-575v729z"/>
</defs>
<use xlink:href="#ao"/>
<use transform="translate(86.3)" xlink:href="#r"/>
<use transform="translate(148)" xlink:href="#ab"/>
<use transform="translate(245)" xlink:href="#u"/>
<use transform="translate(306)" xlink:href="#n"/>
<use transform="translate(348)" xlink:href="#z"/>
<use transform="translate(407)" xlink:href="#DejaVuSans-20"/>
<use transform="translate(438)" xlink:href="#t"/>
<use transform="translate(502)" xlink:href="#o"/>
<use transform="translate(554)" xlink:href="#ac"/>
<use transform="translate(615)" xlink:href="#ah"/>
<use transform="translate(679)" xlink:href="#r"/>
<use transform="translate(740)" xlink:href="#DejaVuSans-20"/>
<use transform="translate(772)" xlink:href="#ae"/>
<use transform="translate(827)" xlink:href="#ad"/>
<use transform="translate(890)" xlink:href="#ac"/>
<use transform="translate(952)" xlink:href="#p"/>
<use transform="translate(1015)" xlink:href="#ah"/>
<use transform="translate(1079)" xlink:href="#r"/>
<use transform="translate(1140)" xlink:href="#DejaVuSans-20"/>
<use transform="translate(1172)" xlink:href="#ai"/>
<use transform="translate(1235)" xlink:href="#z"/>
<use transform="translate(1294)" xlink:href="#DejaVuSans-20"/>
<use transform="translate(1326)" xlink:href="#ab"/>
<use transform="translate(1424)" xlink:href="#ac"/>
<use transform="translate(1485)" xlink:href="#an"/>
<use transform="translate(1513)" xlink:href="#u"/>
<use transform="translate(1574)" xlink:href="#n"/>
<use transform="translate(1615)" xlink:href="#DejaVuSans-20"/>
<use transform="translate(1647)" xlink:href="#x"/>
<use transform="translate(1706)" xlink:href="#r"/>
<use transform="translate(1768)" xlink:href="#n"/>
<use transform="translate(1809)" xlink:href="#o"/>
<use transform="translate(1861)" xlink:href="#y"/>
<use transform="translate(1889)" xlink:href="#u"/>
<use transform="translate(1950)" xlink:href="#p"/>
</g>
<defs>
<clipPath id="g">
<rect x="40.6" y="35.7" width="663" height="313"/>
</clipPath>
<clipPath id="h">
<rect x="40.6" y="388" width="663" height="313"/>
</clipPath>
</defs>
</svg>
