<?xml version="1.0" encoding="UTF-8"?>
<!DOCTYPE svg  PUBLIC '-//W3C//DTD SVG 1.1//EN'  'http://www.w3.org/Graphics/SVG/1.1/DTD/svg11.dtd'>
<svg width="720pt" height="1080pt" version="1.1" viewBox="0 0 720 1080" xmlns="http://www.w3.org/2000/svg" xmlns:xlink="http://www.w3.org/1999/xlink">
<defs>
<style type="text/css">*{stroke-linejoin: round; stroke-linecap: butt}</style>
</defs>
<path d="m0 1080h720v-1080h-720z" fill="#fff"/>
<path d="m40.6 351h668v-316h-668z" fill="#fff"/>
<path d="m40.6 351v-316" clip-path="url(#l)" fill="none" stroke="#b0b0b0" stroke-linecap="square" stroke-width=".8"/>
<defs>
<path id="j" d="m0 0v3.5" stroke="#000" stroke-width=".8"/>
</defs>
<use x="40.645553" y="351.264775" stroke="#000000" stroke-width=".8" xlink:href="#j"/>
<g transform="translate(32.7 366) scale(.1 -.1)">
<defs>
<path id="b" transform="scale(.0156)" d="m2034 4250q-487 0-733-480-245-479-245-1442 0-959 245-1439 246-480 733-480 491 0 736 480 246 480 246 1439 0 963-246 1442-245 480-736 480zm0 500q785 0 1199-621 414-620 414-1801 0-1178-414-1799-414-620-1199-620-784 0-1198 620-414 621-414 1799 0 1181 414 1801 414 621 1198 621z"/>
<path id="c" transform="scale(.0156)" d="m684 794h660v-794h-660v794z"/>
</defs>
<use xlink:href="#b"/>
<use transform="translate(63.6)" xlink:href="#c"/>
<use transform="translate(95.4)" xlink:href="#b"/>
</g>
<path d="m174 351v-316" clip-path="url(#l)" fill="none" stroke="#b0b0b0" stroke-linecap="square" stroke-width=".8"/>
<use x="174.326081" y="351.264775" stroke="#000000" stroke-width=".8" xlink:href="#j"/>
<g transform="translate(166 366) scale(.1 -.1)">
<defs>
<path id="f" transform="scale(.0156)" d="m1228 531h2203v-531h-2962v531q359 372 979 998 621 627 780 809 303 340 423 576 121 236 121 464 0 372-261 606-261 235-680 235-297 0-627-103-329-103-704-313v638q381 153 712 231 332 78 607 78 725 0 1156-363 431-362 431-968 0-288-108-546-107-257-392-607-78-91-497-524-418-433-1181-1211z"/>
</defs>
<use xlink:href="#b"/>
<use transform="translate(63.6)" xlink:href="#c"/>
<use transform="translate(95.4)" xlink:href="#f"/>
</g>
<path d="m308 351v-316" clip-path="url(#l)" fill="none" stroke="#b0b0b0" stroke-linecap="square" stroke-width=".8"/>
<use x="308.00661" y="351.264775" stroke="#000000" stroke-width=".8" xlink:href="#j"/>
<g transform="translate(300 366) scale(.1 -.1)">
<defs>
<path id="w" transform="scale(.0156)" d="m2419 4116-1594-2491h1594v2491zm-166 550h794v-3041h666v-525h-666v-1100h-628v1100h-2106v609l1940 2957z"/>
</defs>
<use xlink:href="#b"/>
<use transform="translate(63.6)" xlink:href="#c"/>
<use transform="translate(95.4)" xlink:href="#w"/>
</g>
<path d="m442 351v-316" clip-path="url(#l)" fill="none" stroke="#b0b0b0" stroke-linecap="square" stroke-width=".8"/>
<use x="441.68714" y="351.264775" stroke="#000000" stroke-width=".8" xlink:href="#j"/>
<g transform="translate(434 366) scale(.1 -.1)">
<defs>
<path id="af" transform="scale(.0156)" d="m2113 2584q-425 0-674-291-248-290-248-796 0-503 248-796 249-292 674-292t673 292q248 293 248 796 0 506-248 796-248 291-673 291zm1253 1979v-575q-238 112-480 171-242 60-480 60-625 0-955-422-329-422-376-1275 184 272 462 417 279 145 613 145 703 0 1111-427 408-426 408-1160 0-719-425-1154-425-434-1131-434-810 0-1238 620-428 621-428 1799 0 1106 525 1764t1409 658q238 0 480-47t505-140z"/>
</defs>
<use xlink:href="#b"/>
<use transform="translate(63.6)" xlink:href="#c"/>
<use transform="translate(95.4)" xlink:href="#af"/>
</g>
<path d="m575 351v-316" clip-path="url(#l)" fill="none" stroke="#b0b0b0" stroke-linecap="square" stroke-width=".8"/>
<use x="575.367668" y="351.264775" stroke="#000000" stroke-width=".8" xlink:href="#j"/>
<g transform="translate(567 366) scale(.1 -.1)">
<defs>
<path id="ac" transform="scale(.0156)" d="m2034 2216q-450 0-708-241-257-241-257-662 0-422 257-663 258-241 708-241t709 242q260 243 260 662 0 421-258 662-257 241-711 241zm-631 268q-406 100-633 378-226 279-226 679 0 559 398 884 399 325 1092 325 697 0 1094-325t397-884q0-400-227-679-226-278-629-378 456-106 710-416 255-309 255-755 0-679-414-1042-414-362-1186-362-771 0-1186 362-414 363-414 1042 0 446 256 755 257 310 713 416zm-231 997q0-362 226-565 227-203 636-203 407 0 636 203 230 203 230 565 0 363-230 566-229 203-636 203-409 0-636-203-226-203-226-566z"/>
</defs>
<use xlink:href="#b"/>
<use transform="translate(63.6)" xlink:href="#c"/>
<use transform="translate(95.4)" xlink:href="#ac"/>
</g>
<path d="m709 351v-316" clip-path="url(#l)" fill="none" stroke="#b0b0b0" stroke-linecap="square" stroke-width=".8"/>
<use x="709.048197" y="351.264775" stroke="#000000" stroke-width=".8" xlink:href="#j"/>
<g transform="translate(701 366) scale(.1 -.1)">
<defs>
<path id="i" transform="scale(.0156)" d="m794 531h1031v3560l-1122-225v575l1116 225h631v-4135h1031v-531h-2687v531z"/>
</defs>
<use xlink:href="#i"/>
<use transform="translate(63.6)" xlink:href="#c"/>
<use transform="translate(95.4)" xlink:href="#b"/>
</g>
<path d="m40.6 351h668" clip-path="url(#l)" fill="none" stroke="#b0b0b0" stroke-linecap="square" stroke-width=".8"/>
<defs>
<path id="g" d="m0 0h-3.5" stroke="#000" stroke-width=".8"/>
</defs>
<use x="40.645553" y="351.264775" stroke="#000000" stroke-width=".8" xlink:href="#g"/>
<g transform="translate(3 355) scale(.1 -.1)">
<defs>
<path id="h" transform="scale(.0156)" d="m4488 3438-1429-1435 1429-1428-372-378-1435 1434-1434-1434-369 378 1425 1428-1425 1435 369 378 1434-1435 1435 1435 372-378z"/>
</defs>
<use xlink:href="#b"/>
<use transform="translate(63.6)" xlink:href="#c"/>
<use transform="translate(95.4)" xlink:href="#b"/>
<use transform="translate(159)" xlink:href="#b"/>
<use transform="translate(223)" xlink:href="#h"/>
</g>
<path d="m40.6 288h668" clip-path="url(#l)" fill="none" stroke="#b0b0b0" stroke-linecap="square" stroke-width=".8"/>
<use x="40.645553" y="288.158339" stroke="#000000" stroke-width=".8" xlink:href="#g"/>
<g transform="translate(3 292) scale(.1 -.1)">
<use xlink:href="#b"/>
<use transform="translate(63.6)" xlink:href="#c"/>
<use transform="translate(95.4)" xlink:href="#f"/>
<use transform="translate(159)" xlink:href="#b"/>
<use transform="translate(223)" xlink:href="#h"/>
</g>
<path d="m40.6 225h668" clip-path="url(#l)" fill="none" stroke="#b0b0b0" stroke-linecap="square" stroke-width=".8"/>
<use x="40.645553" y="225.051903" stroke="#000000" stroke-width=".8" xlink:href="#g"/>
<g transform="translate(3 229) scale(.1 -.1)">
<use xlink:href="#b"/>
<use transform="translate(63.6)" xlink:href="#c"/>
<use transform="translate(95.4)" xlink:href="#w"/>
<use transform="translate(159)" xlink:href="#b"/>
<use transform="translate(223)" xlink:href="#h"/>
</g>
<path d="m40.6 162h668" clip-path="url(#l)" fill="none" stroke="#b0b0b0" stroke-linecap="square" stroke-width=".8"/>
<use x="40.645553" y="161.945467" stroke="#000000" stroke-width=".8" xlink:href="#g"/>
<g transform="translate(3 166) scale(.1 -.1)">
<use xlink:href="#b"/>
<use transform="translate(63.6)" xlink:href="#c"/>
<use transform="translate(95.4)" xlink:href="#af"/>
<use transform="translate(159)" xlink:href="#b"/>
<use transform="translate(223)" xlink:href="#h"/>
</g>
<path d="m40.6 98.8h668" clip-path="url(#l)" fill="none" stroke="#b0b0b0" stroke-linecap="square" stroke-width=".8"/>
<use x="40.645553" y="98.839031" stroke="#000000" stroke-width=".8" xlink:href="#g"/>
<g transform="translate(3 103) scale(.1 -.1)">
<use xlink:href="#b"/>
<use transform="translate(63.6)" xlink:href="#c"/>
<use transform="translate(95.4)" xlink:href="#ac"/>
<use transform="translate(159)" xlink:href="#b"/>
<use transform="translate(223)" xlink:href="#h"/>
</g>
<path d="m40.6 35.7h668" clip-path="url(#l)" fill="none" stroke="#b0b0b0" stroke-linecap="square" stroke-width=".8"/>
<use x="40.645553" y="35.732595" stroke="#000000" stroke-width=".8" xlink:href="#g"/>
<g transform="translate(3 39.5) scale(.1 -.1)">
<use xlink:href="#i"/>
<use transform="translate(63.6)" xlink:href="#c"/>
<use transform="translate(95.4)" xlink:href="#b"/>
<use transform="translate(159)" xlink:href="#b"/>
<use transform="translate(223)" xlink:href="#h"/>
</g>
<path d="m40.6 351v-316" fill="none" stroke="#000" stroke-linecap="square" stroke-width=".8"/>
<path d="m709 351v-316" fill="none" stroke="#000" stroke-linecap="square" stroke-width=".8"/>
<path d="m40.6 351h668" fill="none" stroke="#000" stroke-linecap="square" stroke-width=".8"/>
<path d="m40.6 35.7h668" fill="none" stroke="#000" stroke-linecap="square" stroke-width=".8"/>
<g clip-path="url(#l)">
<g transform="translate(58.2 27.8) rotate(-90) scale(.1 -.1)">
<defs>
<path id="p" transform="scale(.0156)" d="m3328 2828q216 388 516 572t706 184q547 0 844-383 297-382 297-1088v-2113h-578v2094q0 503-179 746-178 244-543 244-447 0-707-297-259-296-259-809v-1978h-578v2094q0 506-178 748t-550 242q-441 0-701-298-259-298-259-808v-1978h-578v3500h578v-544q197 322 472 475t653 153q382 0 649-194 267-193 395-562z"/>
<path id="q" transform="scale(.0156)" d="m1959 3097q-462 0-731-361t-269-989 267-989q268-361 733-361 460 0 728 362 269 363 269 988 0 622-269 986-268 364-728 364zm0 487q750 0 1178-488 429-487 429-1349 0-859-429-1349-428-489-1178-489-753 0-1180 489-426 490-426 1349 0 862 426 1349 427 488 1180 488z"/>
<path id="t" transform="scale(.0156)" d="m2631 2963q-97 56-211 82-114 27-251 27-488 0-749-317t-261-911v-1844h-578v3500h578v-544q182 319 472 473 291 155 707 155 59 0 131-8 72-7 159-23l3-590z"/>
<path id="e" transform="scale(.0156)" d="m3597 1894v-281h-2644q38-594 358-905t892-311q331 0 642 81t618 244v-544q-310-131-635-200t-659-69q-838 0-1327 487-489 488-489 1320 0 859 464 1363 464 505 1252 505 706 0 1117-455 411-454 411-1235zm-575 169q-6 471-264 752-258 282-683 282-481 0-770-272t-333-766l2050 4z"/>
<path id="am" transform="scale(.0156)" d="m8863 2147v-281l-1229-1228-375 375 729 728h-7622v531h7622l-729 728 375 375 1229-1228z"/>
</defs>
<use xlink:href="#p"/>
<use transform="translate(97.4)" xlink:href="#q"/>
<use transform="translate(159)" xlink:href="#t"/>
<use transform="translate(197)" xlink:href="#e"/>
<use transform="translate(259)" xlink:href="#DejaVuSans-20"/>
<use transform="translate(291)" xlink:href="#am"/>
</g>
</g>
<g clip-path="url(#l)">
<g transform="translate(58.2 82.6) rotate(-90) scale(.1 -.1)">
<defs>
<path id="an" transform="scale(.0156)" d="m313 1866v281l1228 1228 375-375-728-728h7621v-531h-7621l728-728-375-375-1228 1228z"/>
<path id="r" transform="scale(.0156)" d="m603 4863h575v-4863h-575v4863z"/>
<path id="m" transform="scale(.0156)" d="m2834 3397v-544q-243 125-506 187-262 63-544 63-428 0-642-131t-214-394q0-200 153-314t616-217l197-44q612-131 870-370t258-667q0-488-386-773-386-284-1061-284-281 0-586 55t-642 164v594q319-166 628-249 309-82 613-82 406 0 624 139 219 139 219 392 0 234-158 359-157 125-692 241l-200 47q-534 112-772 345-237 233-237 639 0 494 350 762 350 269 994 269 318 0 599-47 282-46 519-140z"/>
</defs>
<use xlink:href="#an"/>
<use transform="translate(143)" xlink:href="#DejaVuSans-20"/>
<use transform="translate(175)" xlink:href="#r"/>
<use transform="translate(203)" xlink:href="#e"/>
<use transform="translate(264)" xlink:href="#m"/>
<use transform="translate(317)" xlink:href="#m"/>
</g>
</g>
<g transform="translate(170 29.7) scale(.12 -.12)">
<defs>
<path id="ai" transform="scale(.0156)" d="m628 4666h2950v-532h-2319v-1381h2222v-531h-2222v-1691h2375v-531h-3006v4666z"/>
<path id="u" transform="scale(.0156)" d="m2375 4863v-479h-550q-309 0-430-125-120-125-120-450v-309h947v-447h-947v-3053h-578v3053h-550v447h550v244q0 584 272 851 272 268 862 268h544z"/>
<path id="v" transform="scale(.0156)" d="m3122 3366v-538q-244 135-489 202t-495 67q-560 0-870-355-309-354-309-995t309-996q310-354 870-354 250 0 495 67t489 202v-532q-241-112-499-168-257-57-548-57-791 0-1257 497-465 497-465 1341 0 856 470 1346 471 491 1290 491 265 0 518-55 253-54 491-163z"/>
<path id="o" transform="scale(.0156)" d="m1172 4494v-994h1184v-447h-1184v-1900q0-428 117-550t477-122h590v-481h-590q-666 0-919 248-253 249-253 905v1900h-422v447h422v994h578z"/>
<path id="aq" transform="scale(.0156)" d="m3116 1747q0 634-261 995t-717 361q-457 0-718-361t-261-995 261-995 718-361q456 0 717 361t261 995zm-1957 1222q182 312 458 463 277 152 661 152 638 0 1036-506 399-506 399-1331t-399-1332q-398-506-1036-506-384 0-661 152-276 152-458 464v-525h-578v4863h578v-1894z"/>
<path id="z" transform="scale(.0156)" d="m544 1381v2119h575v-2097q0-497 193-746 194-248 582-248 465 0 735 297 271 297 271 810v1984h575v-3500h-575v538q-209-319-486-474-276-155-642-155-603 0-916 375-312 375-312 1097zm1447 2203z"/>
<path id="n" transform="scale(.0156)" d="m603 3500h575v-3500h-575v3500zm0 1363h575v-729h-575v729z"/>
<path id="ah" transform="scale(.0156)" d="m2906 2969v1894h575v-4863h-575v525q-181-312-458-464-276-152-664-152-634 0-1033 506-398 507-398 1332t398 1331q399 506 1033 506 388 0 664-152 277-151 458-463zm-1959-1222q0-634 261-995t717-361 718 361q263 361 263 995t-263 995q-262 361-718 361t-717-361-261-995z"/>
<path id="ar" transform="scale(.0156)" d="m269 3500h575l719-2731 715 2731h678l719-2731 716 2731h575l-916-3500h-678l-753 2869-756-2869h-679l-915 3500z"/>
<path id="ag" transform="scale(.0156)" d="m3513 2113v-2113h-575v2094q0 497-194 743-194 247-581 247-466 0-735-297-269-296-269-809v-1978h-578v4863h578v-1907q207 316 486 472 280 156 646 156 603 0 912-373 310-373 310-1098z"/>
<path id="s" transform="scale(.0156)" d="m2194 1759q-697 0-966-159t-269-544q0-306 202-486 202-179 548-179 479 0 768 339t289 901v128h-572zm1147 238v-2e3h-575v531q-197-318-491-470t-719-152q-537 0-855 302-317 302-317 808 0 590 395 890 396 300 1180 300h807v57q0 397-261 614t-733 217q-300 0-585-72-284-72-546-216v532q315 122 612 182 297 61 578 61 760 0 1135-394 375-393 375-1193z"/>
<path id="x" transform="scale(.0156)" d="m3513 2113v-2113h-575v2094q0 497-194 743-194 247-581 247-466 0-735-297-269-296-269-809v-1978h-578v3500h578v-544q207 316 486 472 280 156 646 156 603 0 912-373 310-373 310-1098z"/>
<path id="ab" transform="scale(.0156)" d="m2906 1791q0 625-258 968-257 344-723 344-462 0-720-344-258-343-258-968 0-622 258-966t720-344q466 0 723 344 258 344 258 966zm575-1357q0-893-397-1329-396-436-1215-436-303 0-572 45t-522 139v559q253-137 500-202 247-66 503-66 566 0 847 295t281 892v285q-178-310-456-463t-666-153q-643 0-1037 490-394 491-394 1301 0 812 394 1302 394 491 1037 491 388 0 666-153t456-462v531h575v-3066z"/>
<path id="ad" transform="scale(.0156)" d="m191 3500h609l1094-2937 1094 2937h609l-1313-3500h-781l-1312 3500z"/>
<path id="ae" transform="scale(.0156)" d="m-19 4666h3947v-532h-1656v-4134h-634v4134h-1657v532z"/>
<path id="al" transform="scale(.0156)" d="m1984 4856q-418-718-622-1422-203-703-203-1425 0-721 205-1429t620-1424h-500q-468 735-701 1444t-233 1409q0 697 231 1403 232 707 703 1444h500z"/>
<path id="ak" transform="scale(.0156)" d="m513 4856h500q468-737 701-1444 233-706 233-1403 0-700-233-1409t-701-1444h-500q415 716 620 1424t205 1429q0 722-205 1425-205 704-620 1422z"/>
</defs>
<use xlink:href="#ai"/>
<use transform="translate(63.2)" xlink:href="#u"/>
<use transform="translate(98.4)" xlink:href="#u"/>
<use transform="translate(134)" xlink:href="#e"/>
<use transform="translate(195)" xlink:href="#v"/>
<use transform="translate(250)" xlink:href="#o"/>
<use transform="translate(289)" xlink:href="#DejaVuSans-20"/>
<use transform="translate(321)" xlink:href="#q"/>
<use transform="translate(382)" xlink:href="#u"/>
<use transform="translate(417)" xlink:href="#DejaVuSans-20"/>
<use transform="translate(449)" xlink:href="#aq"/>
<use transform="translate(513)" xlink:href="#z"/>
<use transform="translate(576)" xlink:href="#n"/>
<use transform="translate(604)" xlink:href="#r"/>
<use transform="translate(632)" xlink:href="#ah"/>
<use transform="translate(695)" xlink:href="#DejaVuSans-20"/>
<use transform="translate(727)" xlink:href="#ar"/>
<use transform="translate(809)" xlink:href="#n"/>
<use transform="translate(837)" xlink:href="#o"/>
<use transform="translate(876)" xlink:href="#ag"/>
<use transform="translate(939)" xlink:href="#DejaVuSans-20"/>
<use transform="translate(971)" xlink:href="#r"/>
<use transform="translate(999)" xlink:href="#s"/>
<use transform="translate(1060)" xlink:href="#o"/>
<use transform="translate(1099)" xlink:href="#e"/>
<use transform="translate(1161)" xlink:href="#m"/>
<use transform="translate(1213)" xlink:href="#o"/>
<use transform="translate(1252)" xlink:href="#DejaVuSans-20"/>
<use transform="translate(1284)" xlink:href="#v"/>
<use transform="translate(1339)" xlink:href="#r"/>
<use transform="translate(1367)" xlink:href="#s"/>
<use transform="translate(1428)" xlink:href="#x"/>
<use transform="translate(1491)" xlink:href="#ab"/>
<use transform="translate(1555)" xlink:href="#DejaVuSans-20"/>
<use transform="translate(1586)" xlink:href="#s"/>
<use transform="translate(1648)" xlink:href="#x"/>
<use transform="translate(1711)" xlink:href="#ah"/>
<use transform="translate(1775)" xlink:href="#DejaVuSans-20"/>
<use transform="translate(1806)" xlink:href="#o"/>
<use transform="translate(1846)" xlink:href="#s"/>
<use transform="translate(1907)" xlink:href="#n"/>
<use transform="translate(1935)" xlink:href="#r"/>
<use transform="translate(1962)" xlink:href="#v"/>
<use transform="translate(2017)" xlink:href="#s"/>
<use transform="translate(2079)" xlink:href="#r"/>
<use transform="translate(2106)" xlink:href="#r"/>
<use transform="translate(2134)" xlink:href="#DejaVuSans-20"/>
<use transform="translate(2166)" xlink:href="#ad"/>
<use transform="translate(2225)" xlink:href="#m"/>
<use transform="translate(2277)" xlink:href="#c"/>
<use transform="translate(2309)" xlink:href="#DejaVuSans-20"/>
<use transform="translate(2341)" xlink:href="#ae"/>
<use transform="translate(2399)" xlink:href="#n"/>
<use transform="translate(2427)" xlink:href="#e"/>
<use transform="translate(2488)" xlink:href="#t"/>
<use transform="translate(2529)" xlink:href="#DejaVuSans-20"/>
<use transform="translate(2561)" xlink:href="#i"/>
<use transform="translate(2625)" xlink:href="#DejaVuSans-20"/>
<use transform="translate(2656)" xlink:href="#al"/>
<use transform="translate(2696)" xlink:href="#m"/>
<use transform="translate(2748)" xlink:href="#s"/>
<use transform="translate(2809)" xlink:href="#p"/>
<use transform="translate(2906)" xlink:href="#e"/>
<use transform="translate(2968)" xlink:href="#DejaVuSans-20"/>
<use transform="translate(3e3)" xlink:href="#v"/>
<use transform="translate(3055)" xlink:href="#q"/>
<use transform="translate(3116)" xlink:href="#p"/>
<use transform="translate(3213)" xlink:href="#p"/>
<use transform="translate(3311)" xlink:href="#n"/>
<use transform="translate(3338)" xlink:href="#o"/>
<use transform="translate(3378)" xlink:href="#ak"/>
</g>
<path d="m47.6 48.7h4q2 0 2-2v-4q0-2-2-2h-4q-2 0-2 2v4q0 2 2 2z" fill="#fff" opacity=".8" stroke="#ccc"/>
<path d="m40.6 706h668v-316h-668z" fill="#fff"/>
<path d="m96.3 706v-316" clip-path="url(#d)" fill="none" stroke="#b0b0b0" stroke-linecap="square" stroke-width=".8"/>
<use x="96.316088" y="705.793205" stroke="#000000" stroke-width=".8" xlink:href="#j"/>
<g transform="translate(75.4 720) scale(.1 -.1)">
<defs>
<path id="y" transform="scale(.0156)" d="m313 2009h1684v-512h-1684v512z"/>
</defs>
<use xlink:href="#f"/>
<use transform="translate(63.6)" xlink:href="#b"/>
<use transform="translate(127)" xlink:href="#f"/>
<use transform="translate(191)" xlink:href="#w"/>
<use transform="translate(254)" xlink:href="#y"/>
<use transform="translate(291)" xlink:href="#b"/>
<use transform="translate(354)" xlink:href="#ac"/>
</g>
<path d="m187 706v-316" clip-path="url(#d)" fill="none" stroke="#b0b0b0" stroke-linecap="square" stroke-width=".8"/>
<use x="187.370211" y="705.793205" stroke="#000000" stroke-width=".8" xlink:href="#j"/>
<g transform="translate(166 720) scale(.1 -.1)">
<defs>
<path id="aj" transform="scale(.0156)" d="m703 97v575q238-113 481-172 244-59 479-59 625 0 954 420 330 420 377 1277-181-269-460-413-278-144-615-144-700 0-1108 423-408 424-408 1159 0 718 425 1152 425 435 1131 435 810 0 1236-621 427-620 427-1801 0-1103-524-1761-523-658-1407-658-238 0-482 47-243 47-506 141zm1256 1978q425 0 673 290 249 291 249 798 0 503-249 795-248 292-673 292t-673-292-248-795q0-507 248-798 248-290 673-290z"/>
</defs>
<use xlink:href="#f"/>
<use transform="translate(63.6)" xlink:href="#b"/>
<use transform="translate(127)" xlink:href="#f"/>
<use transform="translate(191)" xlink:href="#w"/>
<use transform="translate(254)" xlink:href="#y"/>
<use transform="translate(291)" xlink:href="#b"/>
<use transform="translate(354)" xlink:href="#aj"/>
</g>
<path d="m275 706v-316" clip-path="url(#d)" fill="none" stroke="#b0b0b0" stroke-linecap="square" stroke-width=".8"/>
<use x="275.487105" y="705.793205" stroke="#000000" stroke-width=".8" xlink:href="#j"/>
<g transform="translate(255 720) scale(.1 -.1)">
<use xlink:href="#f"/>
<use transform="translate(63.6)" xlink:href="#b"/>
<use transform="translate(127)" xlink:href="#f"/>
<use transform="translate(191)" xlink:href="#w"/>
<use transform="translate(254)" xlink:href="#y"/>
<use transform="translate(291)" xlink:href="#i"/>
<use transform="translate(354)" xlink:href="#b"/>
</g>
<path d="m367 706v-316" clip-path="url(#d)" fill="none" stroke="#b0b0b0" stroke-linecap="square" stroke-width=".8"/>
<use x="366.541229" y="705.793205" stroke="#000000" stroke-width=".8" xlink:href="#j"/>
<g transform="translate(346 720) scale(.1 -.1)">
<use xlink:href="#f"/>
<use transform="translate(63.6)" xlink:href="#b"/>
<use transform="translate(127)" xlink:href="#f"/>
<use transform="translate(191)" xlink:href="#w"/>
<use transform="translate(254)" xlink:href="#y"/>
<use transform="translate(291)" xlink:href="#i"/>
<use transform="translate(354)" xlink:href="#i"/>
</g>
<path d="m455 706v-316" clip-path="url(#d)" fill="none" stroke="#b0b0b0" stroke-linecap="square" stroke-width=".8"/>
<use x="454.658123" y="705.793205" stroke="#000000" stroke-width=".8" xlink:href="#j"/>
<g transform="translate(434 720) scale(.1 -.1)">
<use xlink:href="#f"/>
<use transform="translate(63.6)" xlink:href="#b"/>
<use transform="translate(127)" xlink:href="#f"/>
<use transform="translate(191)" xlink:href="#w"/>
<use transform="translate(254)" xlink:href="#y"/>
<use transform="translate(291)" xlink:href="#i"/>
<use transform="translate(354)" xlink:href="#f"/>
</g>
<path d="m546 706v-316" clip-path="url(#d)" fill="none" stroke="#b0b0b0" stroke-linecap="square" stroke-width=".8"/>
<use x="545.712246" y="705.793205" stroke="#000000" stroke-width=".8" xlink:href="#j"/>
<g transform="translate(525 720) scale(.1 -.1)">
<defs>
<path id="aa" transform="scale(.0156)" d="m691 4666h2478v-532h-1900v-1143q137 47 274 70 138 23 276 23 781 0 1237-428 457-428 457-1159 0-753-469-1171-469-417-1322-417-294 0-599 50-304 50-629 150v635q281-153 581-228t634-75q541 0 856 284 316 284 316 772 0 487-316 771-315 285-856 285-253 0-505-56-251-56-513-175v2344z"/>
</defs>
<use xlink:href="#f"/>
<use transform="translate(63.6)" xlink:href="#b"/>
<use transform="translate(127)" xlink:href="#f"/>
<use transform="translate(191)" xlink:href="#aa"/>
<use transform="translate(254)" xlink:href="#y"/>
<use transform="translate(291)" xlink:href="#b"/>
<use transform="translate(354)" xlink:href="#i"/>
</g>
<path d="m637 706v-316" clip-path="url(#d)" fill="none" stroke="#b0b0b0" stroke-linecap="square" stroke-width=".8"/>
<use x="636.76637" y="705.793205" stroke="#000000" stroke-width=".8" xlink:href="#j"/>
<g transform="translate(616 720) scale(.1 -.1)">
<use xlink:href="#f"/>
<use transform="translate(63.6)" xlink:href="#b"/>
<use transform="translate(127)" xlink:href="#f"/>
<use transform="translate(191)" xlink:href="#aa"/>
<use transform="translate(254)" xlink:href="#y"/>
<use transform="translate(291)" xlink:href="#b"/>
<use transform="translate(354)" xlink:href="#f"/>
</g>
<path d="m40.6 706h668" clip-path="url(#d)" fill="none" stroke="#b0b0b0" stroke-linecap="square" stroke-width=".8"/>
<use x="40.645553" y="705.793205" stroke="#000000" stroke-width=".8" xlink:href="#g"/>
<g transform="translate(3 710) scale(.1 -.1)">
<use xlink:href="#b"/>
<use transform="translate(63.6)" xlink:href="#c"/>
<use transform="translate(95.4)" xlink:href="#aj"/>
<use transform="translate(159)" xlink:href="#b"/>
<use transform="translate(223)" xlink:href="#h"/>
</g>
<path d="m40.6 666h668" clip-path="url(#d)" fill="none" stroke="#b0b0b0" stroke-linecap="square" stroke-width=".8"/>
<use x="40.645553" y="666.351682" stroke="#000000" stroke-width=".8" xlink:href="#g"/>
<g transform="translate(3 670) scale(.1 -.1)">
<use xlink:href="#b"/>
<use transform="translate(63.6)" xlink:href="#c"/>
<use transform="translate(95.4)" xlink:href="#aj"/>
<use transform="translate(159)" xlink:href="#aa"/>
<use transform="translate(223)" xlink:href="#h"/>
</g>
<path d="m40.6 627h668" clip-path="url(#d)" fill="none" stroke="#b0b0b0" stroke-linecap="square" stroke-width=".8"/>
<use x="40.645553" y="626.91016" stroke="#000000" stroke-width=".8" xlink:href="#g"/>
<g transform="translate(3 631) scale(.1 -.1)">
<use xlink:href="#i"/>
<use transform="translate(63.6)" xlink:href="#c"/>
<use transform="translate(95.4)" xlink:href="#b"/>
<use transform="translate(159)" xlink:href="#b"/>
<use transform="translate(223)" xlink:href="#h"/>
</g>
<path d="m40.6 587h668" clip-path="url(#d)" fill="none" stroke="#b0b0b0" stroke-linecap="square" stroke-width=".8"/>
<use x="40.645553" y="587.468637" stroke="#000000" stroke-width=".8" xlink:href="#g"/>
<g transform="translate(3 591) scale(.1 -.1)">
<use xlink:href="#i"/>
<use transform="translate(63.6)" xlink:href="#c"/>
<use transform="translate(95.4)" xlink:href="#b"/>
<use transform="translate(159)" xlink:href="#aa"/>
<use transform="translate(223)" xlink:href="#h"/>
</g>
<path d="m40.6 548h668" clip-path="url(#d)" fill="none" stroke="#b0b0b0" stroke-linecap="square" stroke-width=".8"/>
<use x="40.645553" y="548.027115" stroke="#000000" stroke-width=".8" xlink:href="#g"/>
<g transform="translate(3 552) scale(.1 -.1)">
<use xlink:href="#i"/>
<use transform="translate(63.6)" xlink:href="#c"/>
<use transform="translate(95.4)" xlink:href="#i"/>
<use transform="translate(159)" xlink:href="#b"/>
<use transform="translate(223)" xlink:href="#h"/>
</g>
<path d="m40.6 509h668" clip-path="url(#d)" fill="none" stroke="#b0b0b0" stroke-linecap="square" stroke-width=".8"/>
<use x="40.645553" y="508.585592" stroke="#000000" stroke-width=".8" xlink:href="#g"/>
<g transform="translate(3 512) scale(.1 -.1)">
<use xlink:href="#i"/>
<use transform="translate(63.6)" xlink:href="#c"/>
<use transform="translate(95.4)" xlink:href="#i"/>
<use transform="translate(159)" xlink:href="#aa"/>
<use transform="translate(223)" xlink:href="#h"/>
</g>
<path d="m40.6 469h668" clip-path="url(#d)" fill="none" stroke="#b0b0b0" stroke-linecap="square" stroke-width=".8"/>
<use x="40.645553" y="469.14407" stroke="#000000" stroke-width=".8" xlink:href="#g"/>
<g transform="translate(3 473) scale(.1 -.1)">
<use xlink:href="#i"/>
<use transform="translate(63.6)" xlink:href="#c"/>
<use transform="translate(95.4)" xlink:href="#f"/>
<use transform="translate(159)" xlink:href="#b"/>
<use transform="translate(223)" xlink:href="#h"/>
</g>
<path d="m40.6 430h668" clip-path="url(#d)" fill="none" stroke="#b0b0b0" stroke-linecap="square" stroke-width=".8"/>
<use x="40.645553" y="429.702548" stroke="#000000" stroke-width=".8" xlink:href="#g"/>
<g transform="translate(3 434) scale(.1 -.1)">
<use xlink:href="#i"/>
<use transform="translate(63.6)" xlink:href="#c"/>
<use transform="translate(95.4)" xlink:href="#f"/>
<use transform="translate(159)" xlink:href="#aa"/>
<use transform="translate(223)" xlink:href="#h"/>
</g>
<path d="m40.6 390h668" clip-path="url(#d)" fill="none" stroke="#b0b0b0" stroke-linecap="square" stroke-width=".8"/>
<use x="40.645553" y="390.261025" stroke="#000000" stroke-width=".8" xlink:href="#g"/>
<g transform="translate(3 394) scale(.1 -.1)">
<defs>
<path id="av" transform="scale(.0156)" d="m2597 2516q453-97 707-404 255-306 255-756 0-690-475-1069-475-378-1350-378-293 0-604 58t-642 174v609q262-153 574-231 313-78 654-78 593 0 904 234t311 681q0 413-289 645-289 233-804 233h-544v519h569q465 0 712 186t247 536q0 359-255 551-254 193-729 193-260 0-557-57-297-56-653-174v562q360 100 674 150t592 50q719 0 1137-327 419-326 419-882 0-388-222-655t-631-370z"/>
</defs>
<use xlink:href="#i"/>
<use transform="translate(63.6)" xlink:href="#c"/>
<use transform="translate(95.4)" xlink:href="#av"/>
<use transform="translate(159)" xlink:href="#b"/>
<use transform="translate(223)" xlink:href="#h"/>
</g>
<path d="m71 509 14 7.89h32.8l8.64-7.89h41.2l20.6 7.89h20.1l20.5-7.89 17 7.89 16.6 31.6 0.0308-7.89 7.93-31.6 5.33 23.7 62.3-23.7h2.7l38.2-23.7h6.09l3 7.89 2.17-7.89 3.7-7.89 2.78 7.89h20.8l2.99-7.89 2.59 7.89h17.7l2.96-7.89 3.16 7.89h8.21l3.04-7.89 3.43 7.89 3.04-7.89 2.95 7.89 2.6-7.89 2.94 7.89h8.43l3.63-7.89h5.59l2.51 7.89h6.49l2.66-7.89h9.14l2.45 7.89h26.7l2.78-7.89 3 7.89 3.04-7.89 2.55 7.89 3.28-7.89 3.16 7.89h2.73l3.14-7.89h2.7l3.17 7.89h11.7l2.18-7.89h24.3l0.232-7.89 2.81 7.89h20.5l2.74-7.89 2.36 7.89h6.56l2.13 7.89 3.71-7.89h29.2v0" clip-path="url(#d)" fill="none" stroke="#1f77b4" stroke-linecap="square" stroke-opacity=".9" stroke-width="1.5"/>
<defs>
<path id="a" d="m-2.5 2.5h5v-5h-5z" stroke="#1f77b4" stroke-opacity=".9"/>
</defs>
<g clip-path="url(#d)" fill="#1f77b4" fill-opacity=".9" stroke="#1f77b4" stroke-opacity=".9">
<use x="71.027491" y="508.585593" xlink:href="#a"/>
<use x="85.002925" y="516.473897" xlink:href="#a"/>
<use x="105.975868" y="516.473897" xlink:href="#a"/>
<use x="117.531352" y="516.473897" xlink:href="#a"/>
<use x="117.550151" y="516.473897" xlink:href="#a"/>
<use x="117.829766" y="516.473897" xlink:href="#a"/>
<use x="126.466106" y="508.585593" xlink:href="#a"/>
<use x="146.979426" y="508.585593" xlink:href="#a"/>
<use x="167.65511" y="508.585593" xlink:href="#a"/>
<use x="188.261749" y="516.473897" xlink:href="#a"/>
<use x="204.855125" y="516.473897" xlink:href="#a"/>
<use x="205.759208" y="516.473897" xlink:href="#a"/>
<use x="208.393705" y="516.473897" xlink:href="#a"/>
<use x="228.919604" y="508.585593" xlink:href="#a"/>
<use x="245.947174" y="516.473897" xlink:href="#a"/>
<use x="262.537355" y="548.027115" xlink:href="#a"/>
<use x="262.568155" y="540.13881" xlink:href="#a"/>
<use x="270.501396" y="508.585593" xlink:href="#a"/>
<use x="275.835425" y="532.250506" xlink:href="#a"/>
<use x="338.102147" y="508.585593" xlink:href="#a"/>
<use x="340.804501" y="508.585593" xlink:href="#a"/>
<use x="379.000285" y="484.920679" xlink:href="#a"/>
<use x="382.316397" y="484.920679" xlink:href="#a"/>
<use x="385.090175" y="484.920679" xlink:href="#a"/>
<use x="388.087407" y="492.808984" xlink:href="#a"/>
<use x="390.259053" y="484.920679" xlink:href="#a"/>
<use x="393.958501" y="477.032375" xlink:href="#a"/>
<use x="396.739487" y="484.920679" xlink:href="#a"/>
<use x="399.976015" y="484.920679" xlink:href="#a"/>
<use x="402.570568" y="484.920679" xlink:href="#a"/>
<use x="405.796353" y="484.920679" xlink:href="#a"/>
<use x="408.810481" y="484.920679" xlink:href="#a"/>
<use x="411.59728" y="484.920679" xlink:href="#a"/>
<use x="414.653495" y="484.920679" xlink:href="#a"/>
<use x="417.542315" y="484.920679" xlink:href="#a"/>
<use x="420.535671" y="477.032375" xlink:href="#a"/>
<use x="423.122677" y="484.920679" xlink:href="#a"/>
<use x="426.254295" y="484.920679" xlink:href="#a"/>
<use x="429.39832" y="484.920679" xlink:href="#a"/>
<use x="432.267559" y="484.920679" xlink:href="#a"/>
<use x="434.915485" y="484.920679" xlink:href="#a"/>
<use x="437.978805" y="484.920679" xlink:href="#a"/>
<use x="440.775666" y="484.920679" xlink:href="#a"/>
<use x="443.737543" y="477.032375" xlink:href="#a"/>
<use x="446.892617" y="484.920679" xlink:href="#a"/>
<use x="449.034857" y="484.920679" xlink:href="#a"/>
<use x="452.462645" y="484.920679" xlink:href="#a"/>
<use x="455.106152" y="484.920679" xlink:href="#a"/>
<use x="458.144961" y="477.032375" xlink:href="#a"/>
<use x="461.573667" y="484.920679" xlink:href="#a"/>
<use x="464.612102" y="477.032375" xlink:href="#a"/>
<use x="467.559701" y="484.920679" xlink:href="#a"/>
<use x="470.159591" y="477.032375" xlink:href="#a"/>
<use x="473.096889" y="484.920679" xlink:href="#a"/>
<use x="475.583233" y="484.920679" xlink:href="#a"/>
<use x="478.618099" y="484.920679" xlink:href="#a"/>
<use x="481.524325" y="484.920679" xlink:href="#a"/>
<use x="485.152109" y="477.032375" xlink:href="#a"/>
<use x="487.98419" y="477.032375" xlink:href="#a"/>
<use x="490.739203" y="477.032375" xlink:href="#a"/>
<use x="493.244483" y="484.920679" xlink:href="#a"/>
<use x="495.831999" y="484.920679" xlink:href="#a"/>
<use x="499.730356" y="484.920679" xlink:href="#a"/>
<use x="502.387291" y="477.032375" xlink:href="#a"/>
<use x="505.605087" y="477.032375" xlink:href="#a"/>
<use x="507.598664" y="477.032375" xlink:href="#a"/>
<use x="511.523503" y="477.032375" xlink:href="#a"/>
<use x="513.975818" y="484.920679" xlink:href="#a"/>
<use x="519.770286" y="484.920679" xlink:href="#a"/>
<use x="522.984989" y="484.920679" xlink:href="#a"/>
<use x="525.578862" y="484.920679" xlink:href="#a"/>
<use x="528.419442" y="484.920679" xlink:href="#a"/>
<use x="531.869769" y="484.920679" xlink:href="#a"/>
<use x="534.838411" y="484.920679" xlink:href="#a"/>
<use x="537.646219" y="484.920679" xlink:href="#a"/>
<use x="540.709165" y="484.920679" xlink:href="#a"/>
<use x="543.493142" y="477.032375" xlink:href="#a"/>
<use x="546.49255" y="484.920679" xlink:href="#a"/>
<use x="549.529591" y="477.032375" xlink:href="#a"/>
<use x="552.08216" y="484.920679" xlink:href="#a"/>
<use x="555.357749" y="477.032375" xlink:href="#a"/>
<use x="558.519316" y="484.920679" xlink:href="#a"/>
<use x="561.252062" y="484.920679" xlink:href="#a"/>
<use x="564.393742" y="477.032375" xlink:href="#a"/>
<use x="567.094055" y="477.032375" xlink:href="#a"/>
<use x="570.26674" y="484.920679" xlink:href="#a"/>
<use x="572.729831" y="484.920679" xlink:href="#a"/>
<use x="576.314917" y="484.920679" xlink:href="#a"/>
<use x="578.567983" y="484.920679" xlink:href="#a"/>
<use x="581.957764" y="484.920679" xlink:href="#a"/>
<use x="584.137297" y="477.032375" xlink:href="#a"/>
<use x="587.84759" y="477.032375" xlink:href="#a"/>
<use x="588.157325" y="477.032375" xlink:href="#a"/>
<use x="590.533523" y="477.032375" xlink:href="#a"/>
<use x="593.803401" y="477.032375" xlink:href="#a"/>
<use x="596.590132" y="477.032375" xlink:href="#a"/>
<use x="599.425001" y="477.032375" xlink:href="#a"/>
<use x="602.63202" y="477.032375" xlink:href="#a"/>
<use x="605.545147" y="477.032375" xlink:href="#a"/>
<use x="608.431349" y="477.032375" xlink:href="#a"/>
<use x="608.663642" y="469.14407" xlink:href="#a"/>
<use x="611.470362" y="477.032375" xlink:href="#a"/>
<use x="613.37844" y="477.032375" xlink:href="#a"/>
<use x="614.312506" y="477.032375" xlink:href="#a"/>
<use x="617.127453" y="477.032375" xlink:href="#a"/>
<use x="619.551246" y="477.032375" xlink:href="#a"/>
<use x="622.570711" y="477.032375" xlink:href="#a"/>
<use x="626.144919" y="477.032375" xlink:href="#a"/>
<use x="627.548228" y="477.032375" xlink:href="#a"/>
<use x="629.078273" y="477.032375" xlink:href="#a"/>
<use x="631.998505" y="477.032375" xlink:href="#a"/>
<use x="634.736554" y="469.14407" xlink:href="#a"/>
<use x="637.095925" y="477.032375" xlink:href="#a"/>
<use x="639.927462" y="477.032375" xlink:href="#a"/>
<use x="642.797958" y="477.032375" xlink:href="#a"/>
<use x="643.660531" y="477.032375" xlink:href="#a"/>
<use x="645.786521" y="484.920679" xlink:href="#a"/>
<use x="649.493108" y="477.032375" xlink:href="#a"/>
<use x="652.020587" y="477.032375" xlink:href="#a"/>
<use x="655.444466" y="477.032375" xlink:href="#a"/>
<use x="658.265056" y="477.032375" xlink:href="#a"/>
<use x="661.315628" y="477.032375" xlink:href="#a"/>
<use x="664.23654" y="477.032375" xlink:href="#a"/>
<use x="666.968028" y="477.032375" xlink:href="#a"/>
<use x="670.175625" y="477.032375" xlink:href="#a"/>
<use x="673.011072" y="477.032375" xlink:href="#a"/>
<use x="675.42164" y="477.032375" xlink:href="#a"/>
<use x="678.666259" y="477.032375" xlink:href="#a"/>
</g>
<g stroke="#1f77b4" stroke-opacity=".9">
<path d="m206 501 40.2 174 24.6-174h18.8l22.2-7.89 17.8-7.89h5.76l3.12-7.89 2.7 7.89h17.8l3.22-7.89h8.68l2.2 7.89h3.45l2.87-15.8h3.32l2.77-7.89h5.17l1.32 7.89 2.38-7.89 2.78 7.89h14.9l3.06-7.89h0.222l2.67 7.89 2.99-23.7 2.59 23.7 3.13-7.89 2.5 15.8h48.3l1.57 7.89 2.91-7.89h6.46l1.48-7.89 1.28 7.89h20.8l2.45 7.89 5.79-7.89h20.9l2.78-7.89 3 7.89h14.8l3.14-7.89 2.7 7.89 5.64-7.89 2.47 7.89h8.94l3.71-7.89h5.05l0.907-7.89h2.79l2.83 7.89h70.8l2.84-7.89 2.24 7.89h0.166l3.24-7.89" clip-path="url(#d)" fill="none" stroke-dasharray="1.5,2.475" stroke-width="1.5"/>
<g clip-path="url(#d)" fill="#1f77b4" fill-opacity=".9">
<use x="205.759208" y="500.697288" xlink:href="#a"/>
<use x="245.947174" y="674.239987" xlink:href="#a"/>
<use x="270.501396" y="500.697288" xlink:href="#a"/>
<use x="289.309899" y="500.697288" xlink:href="#a"/>
<use x="311.462969" y="492.808984" xlink:href="#a"/>
<use x="329.22454" y="484.920679" xlink:href="#a"/>
<use x="332.124545" y="484.920679" xlink:href="#a"/>
<use x="334.98236" y="484.920679" xlink:href="#a"/>
<use x="338.102147" y="477.032375" xlink:href="#a"/>
<use x="340.804501" y="484.920679" xlink:href="#a"/>
<use x="344.07941" y="484.920679" xlink:href="#a"/>
<use x="347.064268" y="484.920679" xlink:href="#a"/>
<use x="349.315906" y="484.920679" xlink:href="#a"/>
<use x="352.672031" y="484.920679" xlink:href="#a"/>
<use x="355.640435" y="484.920679" xlink:href="#a"/>
<use x="358.572565" y="484.920679" xlink:href="#a"/>
<use x="361.795121" y="477.032375" xlink:href="#a"/>
<use x="364.731195" y="477.032375" xlink:href="#a"/>
<use x="367.366441" y="477.032375" xlink:href="#a"/>
<use x="370.479904" y="477.032375" xlink:href="#a"/>
<use x="372.683303" y="484.920679" xlink:href="#a"/>
<use x="376.133766" y="484.920679" xlink:href="#a"/>
<use x="379.000285" y="469.14407" xlink:href="#a"/>
<use x="382.316397" y="469.14407" xlink:href="#a"/>
<use x="385.090175" y="461.255766" xlink:href="#a"/>
<use x="386.58874" y="461.255766" xlink:href="#a"/>
<use x="388.087407" y="461.255766" xlink:href="#a"/>
<use x="390.259053" y="461.255766" xlink:href="#a"/>
<use x="391.580195" y="469.14407" xlink:href="#a"/>
<use x="393.958501" y="461.255766" xlink:href="#a"/>
<use x="396.739487" y="469.14407" xlink:href="#a"/>
<use x="399.976015" y="469.14407" xlink:href="#a"/>
<use x="402.570568" y="469.14407" xlink:href="#a"/>
<use x="405.796353" y="469.14407" xlink:href="#a"/>
<use x="408.810481" y="469.14407" xlink:href="#a"/>
<use x="411.59728" y="469.14407" xlink:href="#a"/>
<use x="414.653495" y="461.255766" xlink:href="#a"/>
<use x="414.875011" y="461.255766" xlink:href="#a"/>
<use x="417.542315" y="469.14407" xlink:href="#a"/>
<use x="420.535671" y="445.479157" xlink:href="#a"/>
<use x="423.122677" y="469.14407" xlink:href="#a"/>
<use x="426.254295" y="461.255766" xlink:href="#a"/>
<use x="428.758181" y="477.032375" xlink:href="#a"/>
<use x="429.39832" y="477.032375" xlink:href="#a"/>
<use x="431.786655" y="477.032375" xlink:href="#a"/>
<use x="432.267559" y="477.032375" xlink:href="#a"/>
<use x="434.915485" y="477.032375" xlink:href="#a"/>
<use x="437.978805" y="477.032375" xlink:href="#a"/>
<use x="440.775666" y="477.032375" xlink:href="#a"/>
<use x="443.737543" y="477.032375" xlink:href="#a"/>
<use x="445.876656" y="477.032375" xlink:href="#a"/>
<use x="446.892617" y="477.032375" xlink:href="#a"/>
<use x="449.034857" y="477.032375" xlink:href="#a"/>
<use x="451.885432" y="477.032375" xlink:href="#a"/>
<use x="452.462645" y="477.032375" xlink:href="#a"/>
<use x="455.106152" y="477.032375" xlink:href="#a"/>
<use x="458.144961" y="477.032375" xlink:href="#a"/>
<use x="461.573667" y="477.032375" xlink:href="#a"/>
<use x="464.612102" y="477.032375" xlink:href="#a"/>
<use x="466.837122" y="477.032375" xlink:href="#a"/>
<use x="467.559701" y="477.032375" xlink:href="#a"/>
<use x="470.159591" y="477.032375" xlink:href="#a"/>
<use x="471.002685" y="477.032375" xlink:href="#a"/>
<use x="473.096889" y="477.032375" xlink:href="#a"/>
<use x="475.583233" y="477.032375" xlink:href="#a"/>
<use x="477.049129" y="477.032375" xlink:href="#a"/>
<use x="478.618099" y="484.920679" xlink:href="#a"/>
<use x="481.524325" y="477.032375" xlink:href="#a"/>
<use x="485.152109" y="477.032375" xlink:href="#a"/>
<use x="486.78064" y="477.032375" xlink:href="#a"/>
<use x="487.289182" y="477.032375" xlink:href="#a"/>
<use x="487.98419" y="477.032375" xlink:href="#a"/>
<use x="489.460896" y="469.14407" xlink:href="#a"/>
<use x="490.739203" y="477.032375" xlink:href="#a"/>
<use x="493.008893" y="477.032375" xlink:href="#a"/>
<use x="493.244483" y="477.032375" xlink:href="#a"/>
<use x="495.831999" y="477.032375" xlink:href="#a"/>
<use x="499.730356" y="477.032375" xlink:href="#a"/>
<use x="502.387291" y="477.032375" xlink:href="#a"/>
<use x="505.605087" y="477.032375" xlink:href="#a"/>
<use x="506.455898" y="477.032375" xlink:href="#a"/>
<use x="507.598664" y="477.032375" xlink:href="#a"/>
<use x="511.523503" y="477.032375" xlink:href="#a"/>
<use x="513.975818" y="484.920679" xlink:href="#a"/>
<use x="519.770286" y="477.032375" xlink:href="#a"/>
<use x="522.984989" y="477.032375" xlink:href="#a"/>
<use x="525.578862" y="477.032375" xlink:href="#a"/>
<use x="528.419442" y="477.032375" xlink:href="#a"/>
<use x="531.869769" y="477.032375" xlink:href="#a"/>
<use x="534.838411" y="477.032375" xlink:href="#a"/>
<use x="537.646219" y="477.032375" xlink:href="#a"/>
<use x="540.709165" y="477.032375" xlink:href="#a"/>
<use x="543.493142" y="469.14407" xlink:href="#a"/>
<use x="546.49255" y="477.032375" xlink:href="#a"/>
<use x="549.529591" y="477.032375" xlink:href="#a"/>
<use x="552.08216" y="477.032375" xlink:href="#a"/>
<use x="555.357749" y="477.032375" xlink:href="#a"/>
<use x="558.519316" y="477.032375" xlink:href="#a"/>
<use x="561.252062" y="477.032375" xlink:href="#a"/>
<use x="564.393742" y="469.14407" xlink:href="#a"/>
<use x="567.094055" y="477.032375" xlink:href="#a"/>
<use x="572.729831" y="469.14407" xlink:href="#a"/>
<use x="575.19622" y="477.032375" xlink:href="#a"/>
<use x="576.314917" y="477.032375" xlink:href="#a"/>
<use x="578.567983" y="477.032375" xlink:href="#a"/>
<use x="581.957764" y="477.032375" xlink:href="#a"/>
<use x="584.137297" y="477.032375" xlink:href="#a"/>
<use x="587.84759" y="469.14407" xlink:href="#a"/>
<use x="588.157325" y="469.14407" xlink:href="#a"/>
<use x="590.533523" y="469.14407" xlink:href="#a"/>
<use x="592.896157" y="469.14407" xlink:href="#a"/>
<use x="593.803401" y="461.255766" xlink:href="#a"/>
<use x="596.590132" y="461.255766" xlink:href="#a"/>
<use x="599.425001" y="469.14407" xlink:href="#a"/>
<use x="602.63202" y="469.14407" xlink:href="#a"/>
<use x="605.545147" y="469.14407" xlink:href="#a"/>
<use x="608.431349" y="469.14407" xlink:href="#a"/>
<use x="608.663642" y="469.14407" xlink:href="#a"/>
<use x="610.194129" y="469.14407" xlink:href="#a"/>
<use x="611.470362" y="469.14407" xlink:href="#a"/>
<use x="613.37844" y="469.14407" xlink:href="#a"/>
<use x="614.312506" y="469.14407" xlink:href="#a"/>
<use x="617.127453" y="469.14407" xlink:href="#a"/>
<use x="619.551246" y="469.14407" xlink:href="#a"/>
<use x="622.570711" y="469.14407" xlink:href="#a"/>
<use x="626.144919" y="469.14407" xlink:href="#a"/>
<use x="627.548228" y="469.14407" xlink:href="#a"/>
<use x="629.078273" y="469.14407" xlink:href="#a"/>
<use x="631.998505" y="469.14407" xlink:href="#a"/>
<use x="634.736554" y="469.14407" xlink:href="#a"/>
<use x="637.095925" y="469.14407" xlink:href="#a"/>
<use x="639.927462" y="469.14407" xlink:href="#a"/>
<use x="642.797958" y="469.14407" xlink:href="#a"/>
<use x="643.660531" y="469.14407" xlink:href="#a"/>
<use x="645.786521" y="469.14407" xlink:href="#a"/>
<use x="649.493108" y="469.14407" xlink:href="#a"/>
<use x="652.020587" y="469.14407" xlink:href="#a"/>
<use x="655.444466" y="469.14407" xlink:href="#a"/>
<use x="658.265056" y="469.14407" xlink:href="#a"/>
<use x="661.315628" y="469.14407" xlink:href="#a"/>
<use x="664.23654" y="469.14407" xlink:href="#a"/>
<use x="666.968028" y="469.14407" xlink:href="#a"/>
<use x="670.175625" y="469.14407" xlink:href="#a"/>
<use x="673.011072" y="461.255766" xlink:href="#a"/>
<use x="675.255163" y="469.14407" xlink:href="#a"/>
<use x="675.42164" y="469.14407" xlink:href="#a"/>
<use x="678.666259" y="461.255766" xlink:href="#a"/>
</g>
</g>
<path d="m40.6 706v-316" fill="none" stroke="#000" stroke-linecap="square" stroke-width=".8"/>
<path d="m709 706v-316" fill="none" stroke="#000" stroke-linecap="square" stroke-width=".8"/>
<path d="m40.6 706h668" fill="none" stroke="#000" stroke-linecap="square" stroke-width=".8"/>
<path d="m40.6 390h668" fill="none" stroke="#000" stroke-linecap="square" stroke-width=".8"/>
<g clip-path="url(#d)">
<g transform="translate(58.2 619) rotate(-90) scale(.1 -.1)">
<use xlink:href="#p"/>
<use transform="translate(97.4)" xlink:href="#q"/>
<use transform="translate(159)" xlink:href="#t"/>
<use transform="translate(197)" xlink:href="#e"/>
<use transform="translate(259)" xlink:href="#DejaVuSans-20"/>
<use transform="translate(291)" xlink:href="#am"/>
</g>
</g>
<g clip-path="url(#d)">
<g transform="translate(58.2 674) rotate(-90) scale(.1 -.1)">
<use xlink:href="#an"/>
<use transform="translate(143)" xlink:href="#DejaVuSans-20"/>
<use transform="translate(175)" xlink:href="#r"/>
<use transform="translate(203)" xlink:href="#e"/>
<use transform="translate(264)" xlink:href="#m"/>
<use transform="translate(317)" xlink:href="#m"/>
</g>
</g>
<g transform="translate(228 384) scale(.12 -.12)">
<use xlink:href="#ai"/>
<use transform="translate(63.2)" xlink:href="#u"/>
<use transform="translate(98.4)" xlink:href="#u"/>
<use transform="translate(134)" xlink:href="#e"/>
<use transform="translate(195)" xlink:href="#v"/>
<use transform="translate(250)" xlink:href="#o"/>
<use transform="translate(289)" xlink:href="#DejaVuSans-20"/>
<use transform="translate(321)" xlink:href="#q"/>
<use transform="translate(382)" xlink:href="#u"/>
<use transform="translate(417)" xlink:href="#DejaVuSans-20"/>
<use transform="translate(449)" xlink:href="#u"/>
<use transform="translate(484)" xlink:href="#t"/>
<use transform="translate(523)" xlink:href="#e"/>
<use transform="translate(585)" xlink:href="#e"/>
<use transform="translate(646)" xlink:href="#DejaVuSans-20"/>
<use transform="translate(678)" xlink:href="#o"/>
<use transform="translate(717)" xlink:href="#ag"/>
<use transform="translate(781)" xlink:href="#t"/>
<use transform="translate(820)" xlink:href="#e"/>
<use transform="translate(881)" xlink:href="#s"/>
<use transform="translate(942)" xlink:href="#ah"/>
<use transform="translate(1006)" xlink:href="#n"/>
<use transform="translate(1034)" xlink:href="#x"/>
<use transform="translate(1097)" xlink:href="#ab"/>
<use transform="translate(1161)" xlink:href="#DejaVuSans-20"/>
<use transform="translate(1192)" xlink:href="#ad"/>
<use transform="translate(1252)" xlink:href="#m"/>
<use transform="translate(1304)" xlink:href="#c"/>
<use transform="translate(1335)" xlink:href="#DejaVuSans-20"/>
<use transform="translate(1367)" xlink:href="#ae"/>
<use transform="translate(1425)" xlink:href="#n"/>
<use transform="translate(1453)" xlink:href="#e"/>
<use transform="translate(1514)" xlink:href="#t"/>
<use transform="translate(1556)" xlink:href="#DejaVuSans-20"/>
<use transform="translate(1587)" xlink:href="#i"/>
<use transform="translate(1651)" xlink:href="#DejaVuSans-20"/>
<use transform="translate(1683)" xlink:href="#al"/>
<use transform="translate(1722)" xlink:href="#m"/>
<use transform="translate(1774)" xlink:href="#s"/>
<use transform="translate(1835)" xlink:href="#p"/>
<use transform="translate(1933)" xlink:href="#e"/>
<use transform="translate(1994)" xlink:href="#DejaVuSans-20"/>
<use transform="translate(2026)" xlink:href="#v"/>
<use transform="translate(2081)" xlink:href="#q"/>
<use transform="translate(2142)" xlink:href="#p"/>
<use transform="translate(2239)" xlink:href="#p"/>
<use transform="translate(2337)" xlink:href="#n"/>
<use transform="translate(2365)" xlink:href="#o"/>
<use transform="translate(2404)" xlink:href="#ak"/>
</g>
<path d="m47.6 428h82.6q2 0 2-2v-28.4q0-2-2-2h-82.6q-2 0-2 2v28.4q0 2 2 2z" fill="#fff" opacity=".8" stroke="#ccc"/>
<path d="m49.6 403h10 10" fill="none" stroke="#1f77b4" stroke-linecap="square" stroke-opacity=".9" stroke-width="1.5"/>
<use x="59.645553" y="403.359463" fill="#1f77b4" fill-opacity=".9" stroke="#1f77b4" stroke-opacity=".9" xlink:href="#a"/>
<g transform="translate(77.6 407) scale(.1 -.1)">
<defs>
<path id="ap" transform="scale(.0156)" d="m3513 3500-1266-1703 1331-1797h-678l-1019 1375-1018-1375h-679l1360 1831-1244 1669h678l928-1247 928 1247h679z"/>
</defs>
<use xlink:href="#r"/>
<use transform="translate(27.8)" xlink:href="#n"/>
<use transform="translate(55.6)" xlink:href="#x"/>
<use transform="translate(119)" xlink:href="#z"/>
<use transform="translate(182)" xlink:href="#ap"/>
</g>
<path d="m49.6 418h10 10" fill="none" stroke="#1f77b4" stroke-dasharray="1.5,2.475" stroke-opacity=".9" stroke-width="1.5"/>
<use x="59.645553" y="418.037588" fill="#1f77b4" fill-opacity=".9" stroke="#1f77b4" stroke-opacity=".9" xlink:href="#a"/>
<g transform="translate(77.6 422) scale(.1 -.1)">
<use xlink:href="#r"/>
<use transform="translate(27.8)" xlink:href="#n"/>
<use transform="translate(55.6)" xlink:href="#x"/>
<use transform="translate(119)" xlink:href="#z"/>
<use transform="translate(182)" xlink:href="#ap"/>
<use transform="translate(242)" xlink:href="#y"/>
<use transform="translate(275)" xlink:href="#ad"/>
<use transform="translate(334)" xlink:href="#z"/>
<use transform="translate(398)" xlink:href="#r"/>
<use transform="translate(425)" xlink:href="#o"/>
<use transform="translate(465)" xlink:href="#t"/>
</g>
<path d="m40.6 1060h668v-316h-668z" fill="#fff"/>
<path d="m40.6 1060v-316" clip-path="url(#k)" fill="none" stroke="#b0b0b0" stroke-linecap="square" stroke-width=".8"/>
<use x="40.645553" y="1060.321635" stroke="#000000" stroke-width=".8" xlink:href="#j"/>
<g transform="translate(32.7 1075) scale(.1 -.1)">
<use xlink:href="#b"/>
<use transform="translate(63.6)" xlink:href="#c"/>
<use transform="translate(95.4)" xlink:href="#b"/>
</g>
<path d="m174 1060v-316" clip-path="url(#k)" fill="none" stroke="#b0b0b0" stroke-linecap="square" stroke-width=".8"/>
<use x="174.326081" y="1060.321635" stroke="#000000" stroke-width=".8" xlink:href="#j"/>
<g transform="translate(166 1075) scale(.1 -.1)">
<use xlink:href="#b"/>
<use transform="translate(63.6)" xlink:href="#c"/>
<use transform="translate(95.4)" xlink:href="#f"/>
</g>
<path d="m308 1060v-316" clip-path="url(#k)" fill="none" stroke="#b0b0b0" stroke-linecap="square" stroke-width=".8"/>
<use x="308.00661" y="1060.321635" stroke="#000000" stroke-width=".8" xlink:href="#j"/>
<g transform="translate(300 1075) scale(.1 -.1)">
<use xlink:href="#b"/>
<use transform="translate(63.6)" xlink:href="#c"/>
<use transform="translate(95.4)" xlink:href="#w"/>
</g>
<path d="m442 1060v-316" clip-path="url(#k)" fill="none" stroke="#b0b0b0" stroke-linecap="square" stroke-width=".8"/>
<use x="441.68714" y="1060.321635" stroke="#000000" stroke-width=".8" xlink:href="#j"/>
<g transform="translate(434 1075) scale(.1 -.1)">
<use xlink:href="#b"/>
<use transform="translate(63.6)" xlink:href="#c"/>
<use transform="translate(95.4)" xlink:href="#af"/>
</g>
<path d="m575 1060v-316" clip-path="url(#k)" fill="none" stroke="#b0b0b0" stroke-linecap="square" stroke-width=".8"/>
<use x="575.367668" y="1060.321635" stroke="#000000" stroke-width=".8" xlink:href="#j"/>
<g transform="translate(567 1075) scale(.1 -.1)">
<use xlink:href="#b"/>
<use transform="translate(63.6)" xlink:href="#c"/>
<use transform="translate(95.4)" xlink:href="#ac"/>
</g>
<path d="m709 1060v-316" clip-path="url(#k)" fill="none" stroke="#b0b0b0" stroke-linecap="square" stroke-width=".8"/>
<use x="709.048197" y="1060.321635" stroke="#000000" stroke-width=".8" xlink:href="#j"/>
<g transform="translate(701 1075) scale(.1 -.1)">
<use xlink:href="#i"/>
<use transform="translate(63.6)" xlink:href="#c"/>
<use transform="translate(95.4)" xlink:href="#b"/>
</g>
<path d="m40.6 1060h668" clip-path="url(#k)" fill="none" stroke="#b0b0b0" stroke-linecap="square" stroke-width=".8"/>
<use x="40.645553" y="1060.321635" stroke="#000000" stroke-width=".8" xlink:href="#g"/>
<g transform="translate(3 1064) scale(.1 -.1)">
<use xlink:href="#b"/>
<use transform="translate(63.6)" xlink:href="#c"/>
<use transform="translate(95.4)" xlink:href="#b"/>
<use transform="translate(159)" xlink:href="#b"/>
<use transform="translate(223)" xlink:href="#h"/>
</g>
<path d="m40.6 997h668" clip-path="url(#k)" fill="none" stroke="#b0b0b0" stroke-linecap="square" stroke-width=".8"/>
<use x="40.645553" y="997.215199" stroke="#000000" stroke-width=".8" xlink:href="#g"/>
<g transform="translate(3 1e3) scale(.1 -.1)">
<use xlink:href="#b"/>
<use transform="translate(63.6)" xlink:href="#c"/>
<use transform="translate(95.4)" xlink:href="#f"/>
<use transform="translate(159)" xlink:href="#b"/>
<use transform="translate(223)" xlink:href="#h"/>
</g>
<path d="m40.6 934h668" clip-path="url(#k)" fill="none" stroke="#b0b0b0" stroke-linecap="square" stroke-width=".8"/>
<use x="40.645553" y="934.108763" stroke="#000000" stroke-width=".8" xlink:href="#g"/>
<g transform="translate(3 938) scale(.1 -.1)">
<use xlink:href="#b"/>
<use transform="translate(63.6)" xlink:href="#c"/>
<use transform="translate(95.4)" xlink:href="#w"/>
<use transform="translate(159)" xlink:href="#b"/>
<use transform="translate(223)" xlink:href="#h"/>
</g>
<path d="m40.6 871h668" clip-path="url(#k)" fill="none" stroke="#b0b0b0" stroke-linecap="square" stroke-width=".8"/>
<use x="40.645553" y="871.002327" stroke="#000000" stroke-width=".8" xlink:href="#g"/>
<g transform="translate(3 875) scale(.1 -.1)">
<use xlink:href="#b"/>
<use transform="translate(63.6)" xlink:href="#c"/>
<use transform="translate(95.4)" xlink:href="#af"/>
<use transform="translate(159)" xlink:href="#b"/>
<use transform="translate(223)" xlink:href="#h"/>
</g>
<path d="m40.6 808h668" clip-path="url(#k)" fill="none" stroke="#b0b0b0" stroke-linecap="square" stroke-width=".8"/>
<use x="40.645553" y="807.895891" stroke="#000000" stroke-width=".8" xlink:href="#g"/>
<g transform="translate(3 812) scale(.1 -.1)">
<use xlink:href="#b"/>
<use transform="translate(63.6)" xlink:href="#c"/>
<use transform="translate(95.4)" xlink:href="#ac"/>
<use transform="translate(159)" xlink:href="#b"/>
<use transform="translate(223)" xlink:href="#h"/>
</g>
<path d="m40.6 745h668" clip-path="url(#k)" fill="none" stroke="#b0b0b0" stroke-linecap="square" stroke-width=".8"/>
<use x="40.645553" y="744.789455" stroke="#000000" stroke-width=".8" xlink:href="#g"/>
<g transform="translate(3 749) scale(.1 -.1)">
<use xlink:href="#i"/>
<use transform="translate(63.6)" xlink:href="#c"/>
<use transform="translate(95.4)" xlink:href="#b"/>
<use transform="translate(159)" xlink:href="#b"/>
<use transform="translate(223)" xlink:href="#h"/>
</g>
<path d="m40.6 1060v-316" fill="none" stroke="#000" stroke-linecap="square" stroke-width=".8"/>
<path d="m709 1060v-316" fill="none" stroke="#000" stroke-linecap="square" stroke-width=".8"/>
<path d="m40.6 1060h668" fill="none" stroke="#000" stroke-linecap="square" stroke-width=".8"/>
<path d="m40.6 745h668" fill="none" stroke="#000" stroke-linecap="square" stroke-width=".8"/>
<g clip-path="url(#k)">
<g transform="translate(58.2 737) rotate(-90) scale(.1 -.1)">
<use xlink:href="#p"/>
<use transform="translate(97.4)" xlink:href="#q"/>
<use transform="translate(159)" xlink:href="#t"/>
<use transform="translate(197)" xlink:href="#e"/>
<use transform="translate(259)" xlink:href="#DejaVuSans-20"/>
<use transform="translate(291)" xlink:href="#am"/>
</g>
</g>
<g clip-path="url(#k)">
<g transform="translate(58.2 792) rotate(-90) scale(.1 -.1)">
<use xlink:href="#an"/>
<use transform="translate(143)" xlink:href="#DejaVuSans-20"/>
<use transform="translate(175)" xlink:href="#r"/>
<use transform="translate(203)" xlink:href="#e"/>
<use transform="translate(264)" xlink:href="#m"/>
<use transform="translate(317)" xlink:href="#m"/>
</g>
</g>
<g transform="translate(264 739) scale(.12 -.12)">
<defs>
<path id="at" transform="scale(.0156)" d="m628 4666h631v-4341q0-844-320-1225t-1030-381h-240v531h197q418 0 590 235 172 234 172 840v4341z"/>
<path id="au" transform="scale(.0156)" d="m628 4666h631v-4666h-631v4666z"/>
</defs>
<use xlink:href="#ai"/>
<use transform="translate(63.2)" xlink:href="#u"/>
<use transform="translate(98.4)" xlink:href="#u"/>
<use transform="translate(134)" xlink:href="#e"/>
<use transform="translate(195)" xlink:href="#v"/>
<use transform="translate(250)" xlink:href="#o"/>
<use transform="translate(289)" xlink:href="#DejaVuSans-20"/>
<use transform="translate(321)" xlink:href="#q"/>
<use transform="translate(382)" xlink:href="#u"/>
<use transform="translate(417)" xlink:href="#DejaVuSans-20"/>
<use transform="translate(449)" xlink:href="#at"/>
<use transform="translate(479)" xlink:href="#au"/>
<use transform="translate(508)" xlink:href="#ae"/>
<use transform="translate(569)" xlink:href="#DejaVuSans-20"/>
<use transform="translate(601)" xlink:href="#ad"/>
<use transform="translate(660)" xlink:href="#m"/>
<use transform="translate(712)" xlink:href="#c"/>
<use transform="translate(744)" xlink:href="#DejaVuSans-20"/>
<use transform="translate(776)" xlink:href="#ae"/>
<use transform="translate(834)" xlink:href="#n"/>
<use transform="translate(862)" xlink:href="#e"/>
<use transform="translate(923)" xlink:href="#t"/>
<use transform="translate(964)" xlink:href="#DejaVuSans-20"/>
<use transform="translate(996)" xlink:href="#i"/>
<use transform="translate(1060)" xlink:href="#DejaVuSans-20"/>
<use transform="translate(1092)" xlink:href="#al"/>
<use transform="translate(1131)" xlink:href="#m"/>
<use transform="translate(1183)" xlink:href="#s"/>
<use transform="translate(1244)" xlink:href="#p"/>
<use transform="translate(1341)" xlink:href="#e"/>
<use transform="translate(1403)" xlink:href="#DejaVuSans-20"/>
<use transform="translate(1435)" xlink:href="#v"/>
<use transform="translate(1490)" xlink:href="#q"/>
<use transform="translate(1551)" xlink:href="#p"/>
<use transform="translate(1648)" xlink:href="#p"/>
<use transform="translate(1746)" xlink:href="#n"/>
<use transform="translate(1773)" xlink:href="#o"/>
<use transform="translate(1813)" xlink:href="#ak"/>
</g>
<path d="m47.6 758h4q2 0 2-2v-4q0-2-2-2h-4q-2 0-2 2v4q0 2 2 2z" fill="#fff" opacity=".8" stroke="#ccc"/>
<g transform="translate(241 12.1) scale(.12 -.12)">
<defs>
<path id="as" transform="scale(.0156)" d="m628 4666h941l1190-3175 1197 3175h941v-4666h-616v4097l-1203-3200h-634l-1203 3200v-4097h-613v4666z"/>
<path id="ao" transform="scale(.0156)" d="m2059-325q-243-625-475-815-231-191-618-191h-460v481h338q237 0 368 113 132 112 291 531l103 262-1415 3444h609l1094-2737 1094 2737h609l-1538-3825z"/>
</defs>
<use xlink:href="#as"/>
<use transform="translate(86.3)" xlink:href="#e"/>
<use transform="translate(148)" xlink:href="#p"/>
<use transform="translate(245)" xlink:href="#q"/>
<use transform="translate(306)" xlink:href="#t"/>
<use transform="translate(348)" xlink:href="#ao"/>
<use transform="translate(407)" xlink:href="#DejaVuSans-20"/>
<use transform="translate(438)" xlink:href="#z"/>
<use transform="translate(502)" xlink:href="#m"/>
<use transform="translate(554)" xlink:href="#s"/>
<use transform="translate(615)" xlink:href="#ab"/>
<use transform="translate(679)" xlink:href="#e"/>
<use transform="translate(740)" xlink:href="#DejaVuSans-20"/>
<use transform="translate(772)" xlink:href="#v"/>
<use transform="translate(827)" xlink:href="#ag"/>
<use transform="translate(890)" xlink:href="#s"/>
<use transform="translate(952)" xlink:href="#x"/>
<use transform="translate(1015)" xlink:href="#ab"/>
<use transform="translate(1079)" xlink:href="#e"/>
<use transform="translate(1140)" xlink:href="#DejaVuSans-20"/>
<use transform="translate(1172)" xlink:href="#aq"/>
<use transform="translate(1235)" xlink:href="#ao"/>
<use transform="translate(1294)" xlink:href="#DejaVuSans-20"/>
<use transform="translate(1326)" xlink:href="#v"/>
<use transform="translate(1381)" xlink:href="#q"/>
<use transform="translate(1442)" xlink:href="#x"/>
<use transform="translate(1506)" xlink:href="#u"/>
<use transform="translate(1541)" xlink:href="#n"/>
<use transform="translate(1569)" xlink:href="#ab"/>
<use transform="translate(1632)" xlink:href="#z"/>
<use transform="translate(1696)" xlink:href="#t"/>
<use transform="translate(1737)" xlink:href="#s"/>
<use transform="translate(1798)" xlink:href="#o"/>
<use transform="translate(1837)" xlink:href="#n"/>
<use transform="translate(1865)" xlink:href="#q"/>
<use transform="translate(1926)" xlink:href="#x"/>
</g>
<defs>
<clipPath id="l">
<rect x="40.6" y="35.7" width="668" height="316"/>
</clipPath>
<clipPath id="d">
<rect x="40.6" y="390" width="668" height="316"/>
</clipPath>
<clipPath id="k">
<rect x="40.6" y="745" width="668" height="316"/>
</clipPath>
</defs>
</svg>
