<?xml version="1.0" encoding="UTF-8"?>
<!DOCTYPE svg  PUBLIC '-//W3C//DTD SVG 1.1//EN'  'http://www.w3.org/Graphics/SVG/1.1/DTD/svg11.dtd'>
<svg width="720pt" height="720pt" version="1.1" viewBox="0 0 720 720" xmlns="http://www.w3.org/2000/svg" xmlns:xlink="http://www.w3.org/1999/xlink">
<defs>
<style type="text/css">*{stroke-linejoin: round; stroke-linecap: butt}</style>
</defs>
<path d="m0 720h720v-720h-720z" fill="#fff"/>
<path d="m40.6 349h676v-313h-676z" fill="#fff"/>
<path d="m101 349v-313" clip-path="url(#g)" fill="none" stroke="#b0b0b0" stroke-linecap="square" stroke-width=".8"/>
<defs>
<path id="j" d="m0 0v3.5" stroke="#000" stroke-width=".8"/>
</defs>
<use x="100.952813" y="348.52899" stroke="#000000" stroke-width=".8" xlink:href="#j"/>
<g transform="translate(71.9 363) scale(.1 -.1)">
<defs>
<path id="c" transform="scale(.0156)" d="m1228 531h2203v-531h-2962v531q359 372 979 998 621 627 780 809 303 340 423 576 121 236 121 464 0 372-261 606-261 235-680 235-297 0-627-103-329-103-704-313v638q381 153 712 231 332 78 607 78 725 0 1156-363 431-362 431-968 0-288-108-546-107-257-392-607-78-91-497-524-418-433-1181-1211z"/>
<path id="b" transform="scale(.0156)" d="m2034 4250q-487 0-733-480-245-479-245-1442 0-959 245-1439 246-480 733-480 491 0 736 480 246 480 246 1439 0 963-246 1442-245 480-736 480zm0 500q785 0 1199-621 414-620 414-1801 0-1178-414-1799-414-620-1199-620-784 0-1198 620-414 621-414 1799 0 1181 414 1801 414 621 1198 621z"/>
<path id="m" transform="scale(.0156)" d="m2419 4116-1594-2491h1594v2491zm-166 550h794v-3041h666v-525h-666v-1100h-628v1100h-2106v609l1940 2957z"/>
<path id="e" transform="scale(.0156)" d="m313 2009h1684v-512h-1684v512z"/>
<path id="l" transform="scale(.0156)" d="m691 4666h2478v-532h-1900v-1143q137 47 274 70 138 23 276 23 781 0 1237-428 457-428 457-1159 0-753-469-1171-469-417-1322-417-294 0-599 50-304 50-629 150v635q281-153 581-228t634-75q541 0 856 284 316 284 316 772 0 487-316 771-315 285-856 285-253 0-505-56-251-56-513-175v2344z"/>
<path id="d" transform="scale(.0156)" d="m794 531h1031v3560l-1122-225v575l1116 225h631v-4135h1031v-531h-2687v531z"/>
</defs>
<use xlink:href="#c"/>
<use transform="translate(63.6)" xlink:href="#b"/>
<use transform="translate(127)" xlink:href="#c"/>
<use transform="translate(191)" xlink:href="#m"/>
<use transform="translate(254)" xlink:href="#e"/>
<use transform="translate(291)" xlink:href="#b"/>
<use transform="translate(354)" xlink:href="#l"/>
<use transform="translate(418)" xlink:href="#e"/>
<use transform="translate(454)" xlink:href="#d"/>
<use transform="translate(518)" xlink:href="#l"/>
</g>
<path d="m178 349v-313" clip-path="url(#g)" fill="none" stroke="#b0b0b0" stroke-linecap="square" stroke-width=".8"/>
<use x="177.952914" y="348.52899" stroke="#000000" stroke-width=".8" xlink:href="#j"/>
<g transform="translate(149 363) scale(.1 -.1)">
<defs>
<path id="ag" transform="scale(.0156)" d="m2113 2584q-425 0-674-291-248-290-248-796 0-503 248-796 249-292 674-292t673 292q248 293 248 796 0 506-248 796-248 291-673 291zm1253 1979v-575q-238 112-480 171-242 60-480 60-625 0-955-422-329-422-376-1275 184 272 462 417 279 145 613 145 703 0 1111-427 408-426 408-1160 0-719-425-1154-425-434-1131-434-810 0-1238 620-428 621-428 1799 0 1106 525 1764t1409 658q238 0 480-47t505-140z"/>
</defs>
<use xlink:href="#c"/>
<use transform="translate(63.6)" xlink:href="#b"/>
<use transform="translate(127)" xlink:href="#c"/>
<use transform="translate(191)" xlink:href="#m"/>
<use transform="translate(254)" xlink:href="#e"/>
<use transform="translate(291)" xlink:href="#b"/>
<use transform="translate(354)" xlink:href="#ag"/>
<use transform="translate(418)" xlink:href="#e"/>
<use transform="translate(454)" xlink:href="#b"/>
<use transform="translate(518)" xlink:href="#d"/>
</g>
<path d="m241 349v-313" clip-path="url(#g)" fill="none" stroke="#b0b0b0" stroke-linecap="square" stroke-width=".8"/>
<use x="241.364762" y="348.52899" stroke="#000000" stroke-width=".8" xlink:href="#j"/>
<g transform="translate(212 363) scale(.1 -.1)">
<use xlink:href="#c"/>
<use transform="translate(63.6)" xlink:href="#b"/>
<use transform="translate(127)" xlink:href="#c"/>
<use transform="translate(191)" xlink:href="#m"/>
<use transform="translate(254)" xlink:href="#e"/>
<use transform="translate(291)" xlink:href="#b"/>
<use transform="translate(354)" xlink:href="#ag"/>
<use transform="translate(418)" xlink:href="#e"/>
<use transform="translate(454)" xlink:href="#d"/>
<use transform="translate(518)" xlink:href="#l"/>
</g>
<path d="m314 349v-313" clip-path="url(#g)" fill="none" stroke="#b0b0b0" stroke-linecap="square" stroke-width=".8"/>
<use x="313.835446" y="348.52899" stroke="#000000" stroke-width=".8" xlink:href="#j"/>
<g transform="translate(285 363) scale(.1 -.1)">
<defs>
<path id="ak" transform="scale(.0156)" d="m525 4666h3e3v-269l-1694-4397h-659l1594 4134h-2241v532z"/>
</defs>
<use xlink:href="#c"/>
<use transform="translate(63.6)" xlink:href="#b"/>
<use transform="translate(127)" xlink:href="#c"/>
<use transform="translate(191)" xlink:href="#m"/>
<use transform="translate(254)" xlink:href="#e"/>
<use transform="translate(291)" xlink:href="#b"/>
<use transform="translate(354)" xlink:href="#ak"/>
<use transform="translate(418)" xlink:href="#e"/>
<use transform="translate(454)" xlink:href="#b"/>
<use transform="translate(518)" xlink:href="#d"/>
</g>
<path d="m377 349v-313" clip-path="url(#g)" fill="none" stroke="#b0b0b0" stroke-linecap="square" stroke-width=".8"/>
<use x="377.247294" y="348.52899" stroke="#000000" stroke-width=".8" xlink:href="#j"/>
<g transform="translate(348 363) scale(.1 -.1)">
<use xlink:href="#c"/>
<use transform="translate(63.6)" xlink:href="#b"/>
<use transform="translate(127)" xlink:href="#c"/>
<use transform="translate(191)" xlink:href="#m"/>
<use transform="translate(254)" xlink:href="#e"/>
<use transform="translate(291)" xlink:href="#b"/>
<use transform="translate(354)" xlink:href="#ak"/>
<use transform="translate(418)" xlink:href="#e"/>
<use transform="translate(454)" xlink:href="#d"/>
<use transform="translate(518)" xlink:href="#l"/>
</g>
<path d="m454 349v-313" clip-path="url(#g)" fill="none" stroke="#b0b0b0" stroke-linecap="square" stroke-width=".8"/>
<use x="454.247396" y="348.52899" stroke="#000000" stroke-width=".8" xlink:href="#j"/>
<g transform="translate(425 363) scale(.1 -.1)">
<defs>
<path id="af" transform="scale(.0156)" d="m2034 2216q-450 0-708-241-257-241-257-662 0-422 257-663 258-241 708-241t709 242q260 243 260 662 0 421-258 662-257 241-711 241zm-631 268q-406 100-633 378-226 279-226 679 0 559 398 884 399 325 1092 325 697 0 1094-325t397-884q0-400-227-679-226-278-629-378 456-106 710-416 255-309 255-755 0-679-414-1042-414-362-1186-362-771 0-1186 362-414 363-414 1042 0 446 256 755 257 310 713 416zm-231 997q0-362 226-565 227-203 636-203 407 0 636 203 230 203 230 565 0 363-230 566-229 203-636 203-409 0-636-203-226-203-226-566z"/>
</defs>
<use xlink:href="#c"/>
<use transform="translate(63.6)" xlink:href="#b"/>
<use transform="translate(127)" xlink:href="#c"/>
<use transform="translate(191)" xlink:href="#m"/>
<use transform="translate(254)" xlink:href="#e"/>
<use transform="translate(291)" xlink:href="#b"/>
<use transform="translate(354)" xlink:href="#af"/>
<use transform="translate(418)" xlink:href="#e"/>
<use transform="translate(454)" xlink:href="#b"/>
<use transform="translate(518)" xlink:href="#d"/>
</g>
<path d="m518 349v-313" clip-path="url(#g)" fill="none" stroke="#b0b0b0" stroke-linecap="square" stroke-width=".8"/>
<use x="517.659244" y="348.52899" stroke="#000000" stroke-width=".8" xlink:href="#j"/>
<g transform="translate(489 363) scale(.1 -.1)">
<use xlink:href="#c"/>
<use transform="translate(63.6)" xlink:href="#b"/>
<use transform="translate(127)" xlink:href="#c"/>
<use transform="translate(191)" xlink:href="#m"/>
<use transform="translate(254)" xlink:href="#e"/>
<use transform="translate(291)" xlink:href="#b"/>
<use transform="translate(354)" xlink:href="#af"/>
<use transform="translate(418)" xlink:href="#e"/>
<use transform="translate(454)" xlink:href="#d"/>
<use transform="translate(518)" xlink:href="#l"/>
</g>
<path d="m595 349v-313" clip-path="url(#g)" fill="none" stroke="#b0b0b0" stroke-linecap="square" stroke-width=".8"/>
<use x="594.659346" y="348.52899" stroke="#000000" stroke-width=".8" xlink:href="#j"/>
<g transform="translate(566 363) scale(.1 -.1)">
<defs>
<path id="y" transform="scale(.0156)" d="m703 97v575q238-113 481-172 244-59 479-59 625 0 954 420 330 420 377 1277-181-269-460-413-278-144-615-144-700 0-1108 423-408 424-408 1159 0 718 425 1152 425 435 1131 435 810 0 1236-621 427-620 427-1801 0-1103-524-1761-523-658-1407-658-238 0-482 47-243 47-506 141zm1256 1978q425 0 673 290 249 291 249 798 0 503-249 795-248 292-673 292t-673-292-248-795q0-507 248-798 248-290 673-290z"/>
</defs>
<use xlink:href="#c"/>
<use transform="translate(63.6)" xlink:href="#b"/>
<use transform="translate(127)" xlink:href="#c"/>
<use transform="translate(191)" xlink:href="#m"/>
<use transform="translate(254)" xlink:href="#e"/>
<use transform="translate(291)" xlink:href="#b"/>
<use transform="translate(354)" xlink:href="#y"/>
<use transform="translate(418)" xlink:href="#e"/>
<use transform="translate(454)" xlink:href="#b"/>
<use transform="translate(518)" xlink:href="#d"/>
</g>
<path d="m658 349v-313" clip-path="url(#g)" fill="none" stroke="#b0b0b0" stroke-linecap="square" stroke-width=".8"/>
<use x="658.071194" y="348.52899" stroke="#000000" stroke-width=".8" xlink:href="#j"/>
<g transform="translate(629 363) scale(.1 -.1)">
<use xlink:href="#c"/>
<use transform="translate(63.6)" xlink:href="#b"/>
<use transform="translate(127)" xlink:href="#c"/>
<use transform="translate(191)" xlink:href="#m"/>
<use transform="translate(254)" xlink:href="#e"/>
<use transform="translate(291)" xlink:href="#b"/>
<use transform="translate(354)" xlink:href="#y"/>
<use transform="translate(418)" xlink:href="#e"/>
<use transform="translate(454)" xlink:href="#d"/>
<use transform="translate(518)" xlink:href="#l"/>
</g>
<path d="m40.6 349h676" clip-path="url(#g)" fill="none" stroke="#b0b0b0" stroke-linecap="square" stroke-width=".8"/>
<defs>
<path id="i" d="m0 0h-3.5" stroke="#000" stroke-width=".8"/>
</defs>
<use x="40.645553" y="348.52899" stroke="#000000" stroke-width=".8" xlink:href="#i"/>
<g transform="translate(3 352) scale(.1 -.1)">
<defs>
<path id="f" transform="scale(.0156)" d="m684 794h660v-794h-660v794z"/>
<path id="k" transform="scale(.0156)" d="m4488 3438-1429-1435 1429-1428-372-378-1435 1434-1434-1434-369 378 1425 1428-1425 1435 369 378 1434-1435 1435 1435 372-378z"/>
</defs>
<use xlink:href="#b"/>
<use transform="translate(63.6)" xlink:href="#f"/>
<use transform="translate(95.4)" xlink:href="#y"/>
<use transform="translate(159)" xlink:href="#b"/>
<use transform="translate(223)" xlink:href="#k"/>
</g>
<path d="m40.6 309h676" clip-path="url(#g)" fill="none" stroke="#b0b0b0" stroke-linecap="square" stroke-width=".8"/>
<use x="40.645553" y="309.429441" stroke="#000000" stroke-width=".8" xlink:href="#i"/>
<g transform="translate(3 313) scale(.1 -.1)">
<use xlink:href="#b"/>
<use transform="translate(63.6)" xlink:href="#f"/>
<use transform="translate(95.4)" xlink:href="#y"/>
<use transform="translate(159)" xlink:href="#l"/>
<use transform="translate(223)" xlink:href="#k"/>
</g>
<path d="m40.6 270h676" clip-path="url(#g)" fill="none" stroke="#b0b0b0" stroke-linecap="square" stroke-width=".8"/>
<use x="40.645553" y="270.329891" stroke="#000000" stroke-width=".8" xlink:href="#i"/>
<g transform="translate(3 274) scale(.1 -.1)">
<use xlink:href="#d"/>
<use transform="translate(63.6)" xlink:href="#f"/>
<use transform="translate(95.4)" xlink:href="#b"/>
<use transform="translate(159)" xlink:href="#b"/>
<use transform="translate(223)" xlink:href="#k"/>
</g>
<path d="m40.6 231h676" clip-path="url(#g)" fill="none" stroke="#b0b0b0" stroke-linecap="square" stroke-width=".8"/>
<use x="40.645553" y="231.230342" stroke="#000000" stroke-width=".8" xlink:href="#i"/>
<g transform="translate(3 235) scale(.1 -.1)">
<use xlink:href="#d"/>
<use transform="translate(63.6)" xlink:href="#f"/>
<use transform="translate(95.4)" xlink:href="#b"/>
<use transform="translate(159)" xlink:href="#l"/>
<use transform="translate(223)" xlink:href="#k"/>
</g>
<path d="m40.6 192h676" clip-path="url(#g)" fill="none" stroke="#b0b0b0" stroke-linecap="square" stroke-width=".8"/>
<use x="40.645553" y="192.130792" stroke="#000000" stroke-width=".8" xlink:href="#i"/>
<g transform="translate(3 196) scale(.1 -.1)">
<use xlink:href="#d"/>
<use transform="translate(63.6)" xlink:href="#f"/>
<use transform="translate(95.4)" xlink:href="#d"/>
<use transform="translate(159)" xlink:href="#b"/>
<use transform="translate(223)" xlink:href="#k"/>
</g>
<path d="m40.6 153h676" clip-path="url(#g)" fill="none" stroke="#b0b0b0" stroke-linecap="square" stroke-width=".8"/>
<use x="40.645553" y="153.031243" stroke="#000000" stroke-width=".8" xlink:href="#i"/>
<g transform="translate(3 157) scale(.1 -.1)">
<use xlink:href="#d"/>
<use transform="translate(63.6)" xlink:href="#f"/>
<use transform="translate(95.4)" xlink:href="#d"/>
<use transform="translate(159)" xlink:href="#l"/>
<use transform="translate(223)" xlink:href="#k"/>
</g>
<path d="m40.6 114h676" clip-path="url(#g)" fill="none" stroke="#b0b0b0" stroke-linecap="square" stroke-width=".8"/>
<use x="40.645553" y="113.931694" stroke="#000000" stroke-width=".8" xlink:href="#i"/>
<g transform="translate(3 118) scale(.1 -.1)">
<use xlink:href="#d"/>
<use transform="translate(63.6)" xlink:href="#f"/>
<use transform="translate(95.4)" xlink:href="#c"/>
<use transform="translate(159)" xlink:href="#b"/>
<use transform="translate(223)" xlink:href="#k"/>
</g>
<path d="m40.6 74.8h676" clip-path="url(#g)" fill="none" stroke="#b0b0b0" stroke-linecap="square" stroke-width=".8"/>
<use x="40.645553" y="74.832144" stroke="#000000" stroke-width=".8" xlink:href="#i"/>
<g transform="translate(3 78.6) scale(.1 -.1)">
<use xlink:href="#d"/>
<use transform="translate(63.6)" xlink:href="#f"/>
<use transform="translate(95.4)" xlink:href="#c"/>
<use transform="translate(159)" xlink:href="#l"/>
<use transform="translate(223)" xlink:href="#k"/>
</g>
<path d="m40.6 35.7h676" clip-path="url(#g)" fill="none" stroke="#b0b0b0" stroke-linecap="square" stroke-width=".8"/>
<use x="40.645553" y="35.732595" stroke="#000000" stroke-width=".8" xlink:href="#i"/>
<g transform="translate(3 39.5) scale(.1 -.1)">
<defs>
<path id="s" transform="scale(.0156)" d="m2597 2516q453-97 707-404 255-306 255-756 0-690-475-1069-475-378-1350-378-293 0-604 58t-642 174v609q262-153 574-231 313-78 654-78 593 0 904 234t311 681q0 413-289 645-289 233-804 233h-544v519h569q465 0 712 186t247 536q0 359-255 551-254 193-729 193-260 0-557-57-297-56-653-174v562q360 100 674 150t592 50q719 0 1137-327 419-326 419-882 0-388-222-655t-631-370z"/>
</defs>
<use xlink:href="#d"/>
<use transform="translate(63.6)" xlink:href="#f"/>
<use transform="translate(95.4)" xlink:href="#s"/>
<use transform="translate(159)" xlink:href="#b"/>
<use transform="translate(223)" xlink:href="#k"/>
</g>
<path d="m71.4 270 446-7.82h104" clip-path="url(#g)" fill="none" stroke="#1f77b4" stroke-linecap="square" stroke-opacity=".9" stroke-width="1.5"/>
<defs>
<path id="a" d="m-2.5 2.5h5v-5h-5z" stroke="#1f77b4" stroke-opacity=".9"/>
</defs>
<g clip-path="url(#g)" fill="#1f77b4" fill-opacity=".9" stroke="#1f77b4" stroke-opacity=".9">
<use x="71.388926" y="270.329891" xlink:href="#a"/>
<use x="517.569023" y="262.509981" xlink:href="#a"/>
<use x="621.695409" y="262.509981" xlink:href="#a"/>
</g>
<g stroke="#1f77b4" stroke-opacity=".9">
<path d="m622 255h64.6" clip-path="url(#g)" fill="none" stroke-dasharray="1.5,2.475" stroke-width="1.5"/>
<g clip-path="url(#g)" fill="#1f77b4" fill-opacity=".9">
<use x="621.695409" y="254.690071" xlink:href="#a"/>
<use x="686.256387" y="254.690071" xlink:href="#a"/>
</g>
</g>
<path d="m40.6 349v-313" fill="none" stroke="#000" stroke-linecap="square" stroke-width=".8"/>
<path d="m717 349v-313" fill="none" stroke="#000" stroke-linecap="square" stroke-width=".8"/>
<path d="m40.6 349h676" fill="none" stroke="#000" stroke-linecap="square" stroke-width=".8"/>
<path d="m40.6 35.7h676" fill="none" stroke="#000" stroke-linecap="square" stroke-width=".8"/>
<path d="m71.8 261-0.348 7.35" fill="none" stroke="#888" stroke-linecap="round"/>
<g transform="translate(74.5 257) rotate(-90) scale(.08 -.08)" fill="#888">
<defs>
<path id="ai" transform="scale(.0156)" d="m3116 1747q0 634-261 995t-717 361q-457 0-718-361t-261-995 261-995 718-361q456 0 717 361t261 995zm-1957 1222q182 312 458 463 277 152 661 152 638 0 1036-506 399-506 399-1331t-399-1332q-398-506-1036-506-384 0-661 152-276 152-458 464v-525h-578v4863h578v-1894z"/>
</defs>
<use xlink:href="#ai"/>
<use transform="translate(63.5)" xlink:href="#d"/>
</g>
<path d="m622 253-0.326 7.34" fill="none" stroke="#888" stroke-linecap="round"/>
<g transform="translate(625 249) rotate(-90) scale(.08 -.08)" fill="#888">
<defs>
<path id="n" transform="scale(.0156)" d="m2631 2963q-97 56-211 82-114 27-251 27-488 0-749-317t-261-911v-1844h-578v3500h578v-544q182 319 472 473 291 155 707 155 59 0 131-8 72-7 159-23l3-590z"/>
<path id="ae" transform="scale(.0156)" d="m3122 3366v-538q-244 135-489 202t-495 67q-560 0-870-355-309-354-309-995t309-996q310-354 870-354 250 0 495 67t489 202v-532q-241-112-499-168-257-57-548-57-791 0-1257 497-465 497-465 1341 0 856 470 1346 471 491 1290 491 265 0 518-55 253-54 491-163z"/>
</defs>
<use xlink:href="#n"/>
<use transform="translate(38.9)" xlink:href="#ae"/>
<use transform="translate(93.8)" xlink:href="#c"/>
</g>
<g clip-path="url(#g)">
<g transform="translate(58.2 262) rotate(-90) scale(.1 -.1)">
<defs>
<path id="ab" transform="scale(.0156)" d="m3328 2828q216 388 516 572t706 184q547 0 844-383 297-382 297-1088v-2113h-578v2094q0 503-179 746-178 244-543 244-447 0-707-297-259-296-259-809v-1978h-578v2094q0 506-178 748t-550 242q-441 0-701-298-259-298-259-808v-1978h-578v3500h578v-544q197 322 472 475t653 153q382 0 649-194 267-193 395-562z"/>
<path id="u" transform="scale(.0156)" d="m1959 3097q-462 0-731-361t-269-989 267-989q268-361 733-361 460 0 728 362 269 363 269 988 0 622-269 986-268 364-728 364zm0 487q750 0 1178-488 429-487 429-1349 0-859-429-1349-428-489-1178-489-753 0-1180 489-426 490-426 1349 0 862 426 1349 427 488 1180 488z"/>
<path id="r" transform="scale(.0156)" d="m3597 1894v-281h-2644q38-594 358-905t892-311q331 0 642 81t618 244v-544q-310-131-635-200t-659-69q-838 0-1327 487-489 488-489 1320 0 859 464 1363 464 505 1252 505 706 0 1117-455 411-454 411-1235zm-575 169q-6 471-264 752-258 282-683 282-481 0-770-272t-333-766l2050 4z"/>
<path id="al" transform="scale(.0156)" d="m8863 2147v-281l-1229-1228-375 375 729 728h-7622v531h7622l-729 728 375 375 1229-1228z"/>
</defs>
<use xlink:href="#ab"/>
<use transform="translate(97.4)" xlink:href="#u"/>
<use transform="translate(159)" xlink:href="#n"/>
<use transform="translate(197)" xlink:href="#r"/>
<use transform="translate(259)" xlink:href="#DejaVuSans-20"/>
<use transform="translate(291)" xlink:href="#al"/>
</g>
</g>
<g clip-path="url(#g)">
<g transform="translate(58.2 317) rotate(-90) scale(.1 -.1)">
<defs>
<path id="am" transform="scale(.0156)" d="m313 1866v281l1228 1228 375-375-728-728h7621v-531h-7621l728-728-375-375-1228 1228z"/>
<path id="q" transform="scale(.0156)" d="m603 4863h575v-4863h-575v4863z"/>
<path id="o" transform="scale(.0156)" d="m2834 3397v-544q-243 125-506 187-262 63-544 63-428 0-642-131t-214-394q0-200 153-314t616-217l197-44q612-131 870-370t258-667q0-488-386-773-386-284-1061-284-281 0-586 55t-642 164v594q319-166 628-249 309-82 613-82 406 0 624 139 219 139 219 392 0 234-158 359-157 125-692 241l-200 47q-534 112-772 345-237 233-237 639 0 494 350 762 350 269 994 269 318 0 599-47 282-46 519-140z"/>
</defs>
<use xlink:href="#am"/>
<use transform="translate(143)" xlink:href="#DejaVuSans-20"/>
<use transform="translate(175)" xlink:href="#q"/>
<use transform="translate(203)" xlink:href="#r"/>
<use transform="translate(264)" xlink:href="#o"/>
<use transform="translate(317)" xlink:href="#o"/>
</g>
</g>
<g transform="translate(306 29.7) scale(.12 -.12)">
<defs>
<path id="aj" transform="scale(.0156)" d="m1259 4147v-1753h794q441 0 681 228 241 228 241 650 0 419-241 647-240 228-681 228h-794zm-631 519h1425q785 0 1186-355 402-355 402-1039 0-691-402-1044-401-353-1186-353h-794v-1875h-631v4666z"/>
<path id="z" transform="scale(.0156)" d="m2059-325q-243-625-475-815-231-191-618-191h-460v481h338q237 0 368 113 132 112 291 531l103 262-1415 3444h609l1094-2737 1094 2737h609l-1538-3825z"/>
<path id="aa" transform="scale(.0156)" d="m1172 4494v-994h1184v-447h-1184v-1900q0-428 117-550t477-122h590v-481h-590q-666 0-919 248-253 249-253 905v1900h-422v447h422v994h578z"/>
<path id="ad" transform="scale(.0156)" d="m3513 2113v-2113h-575v2094q0 497-194 743-194 247-581 247-466 0-735-297-269-296-269-809v-1978h-578v4863h578v-1907q207 316 486 472 280 156 646 156 603 0 912-373 310-373 310-1098z"/>
<path id="p" transform="scale(.0156)" d="m3513 2113v-2113h-575v2094q0 497-194 743-194 247-581 247-466 0-735-297-269-296-269-809v-1978h-578v3500h578v-544q207 316 486 472 280 156 646 156 603 0 912-373 310-373 310-1098z"/>
<path id="v" transform="scale(.0156)" d="m3513 3500-1266-1703 1331-1797h-678l-1019 1375-1018-1375h-679l1360 1831-1244 1669h678l928-1247 928 1247h679z"/>
<path id="w" transform="scale(.0156)" d="m191 3500h609l1094-2937 1094 2937h609l-1313-3500h-781l-1312 3500z"/>
</defs>
<use xlink:href="#aj"/>
<use transform="translate(60.3)" xlink:href="#z"/>
<use transform="translate(119)" xlink:href="#aa"/>
<use transform="translate(159)" xlink:href="#ad"/>
<use transform="translate(222)" xlink:href="#u"/>
<use transform="translate(283)" xlink:href="#p"/>
<use transform="translate(347)" xlink:href="#DejaVuSans-20"/>
<use transform="translate(378)" xlink:href="#s"/>
<use transform="translate(442)" xlink:href="#f"/>
<use transform="translate(474)" xlink:href="#d"/>
<use transform="translate(537)" xlink:href="#s"/>
<use transform="translate(601)" xlink:href="#f"/>
<use transform="translate(633)" xlink:href="#v"/>
<use transform="translate(692)" xlink:href="#DejaVuSans-20"/>
<use transform="translate(724)" xlink:href="#w"/>
<use transform="translate(783)" xlink:href="#o"/>
<use transform="translate(835)" xlink:href="#f"/>
<use transform="translate(867)" xlink:href="#DejaVuSans-20"/>
<use transform="translate(899)" xlink:href="#s"/>
<use transform="translate(962)" xlink:href="#f"/>
<use transform="translate(994)" xlink:href="#d"/>
<use transform="translate(1058)" xlink:href="#c"/>
<use transform="translate(1121)" xlink:href="#f"/>
<use transform="translate(1153)" xlink:href="#ag"/>
</g>
<path d="m47.6 73.1h82.6q2 0 2-2v-28.4q0-2-2-2h-82.6q-2 0-2 2v28.4q0 2 2 2z" fill="#fff" opacity=".8" stroke="#ccc"/>
<path d="m49.6 48.8h10 10" fill="none" stroke="#1f77b4" stroke-linecap="square" stroke-opacity=".9" stroke-width="1.5"/>
<use x="59.645553" y="48.831032" fill="#1f77b4" fill-opacity=".9" stroke="#1f77b4" stroke-opacity=".9" xlink:href="#a"/>
<g transform="translate(77.6 52.3) scale(.1 -.1)">
<defs>
<path id="x" transform="scale(.0156)" d="m603 3500h575v-3500h-575v3500zm0 1363h575v-729h-575v729z"/>
<path id="t" transform="scale(.0156)" d="m544 1381v2119h575v-2097q0-497 193-746 194-248 582-248 465 0 735 297 271 297 271 810v1984h575v-3500h-575v538q-209-319-486-474-276-155-642-155-603 0-916 375-312 375-312 1097zm1447 2203z"/>
</defs>
<use xlink:href="#q"/>
<use transform="translate(27.8)" xlink:href="#x"/>
<use transform="translate(55.6)" xlink:href="#p"/>
<use transform="translate(119)" xlink:href="#t"/>
<use transform="translate(182)" xlink:href="#v"/>
</g>
<path d="m49.6 63.5h10 10" fill="none" stroke="#1f77b4" stroke-dasharray="1.5,2.475" stroke-opacity=".9" stroke-width="1.5"/>
<use x="59.645553" y="63.509158" fill="#1f77b4" fill-opacity=".9" stroke="#1f77b4" stroke-opacity=".9" xlink:href="#a"/>
<g transform="translate(77.6 67) scale(.1 -.1)">
<use xlink:href="#q"/>
<use transform="translate(27.8)" xlink:href="#x"/>
<use transform="translate(55.6)" xlink:href="#p"/>
<use transform="translate(119)" xlink:href="#t"/>
<use transform="translate(182)" xlink:href="#v"/>
<use transform="translate(242)" xlink:href="#e"/>
<use transform="translate(275)" xlink:href="#w"/>
<use transform="translate(334)" xlink:href="#t"/>
<use transform="translate(398)" xlink:href="#q"/>
<use transform="translate(425)" xlink:href="#aa"/>
<use transform="translate(465)" xlink:href="#n"/>
</g>
<path d="m40.6 700h676v-313h-676z" fill="#fff"/>
<path d="m97.7 700v-313" clip-path="url(#h)" fill="none" stroke="#b0b0b0" stroke-linecap="square" stroke-width=".8"/>
<use x="97.730528" y="700.321635" stroke="#000000" stroke-width=".8" xlink:href="#j"/>
<g transform="translate(76.8 715) scale(.1 -.1)">
<use xlink:href="#c"/>
<use transform="translate(63.6)" xlink:href="#b"/>
<use transform="translate(127)" xlink:href="#c"/>
<use transform="translate(191)" xlink:href="#m"/>
<use transform="translate(254)" xlink:href="#e"/>
<use transform="translate(291)" xlink:href="#b"/>
<use transform="translate(354)" xlink:href="#af"/>
</g>
<path d="m193 700v-313" clip-path="url(#h)" fill="none" stroke="#b0b0b0" stroke-linecap="square" stroke-width=".8"/>
<use x="192.576103" y="700.321635" stroke="#000000" stroke-width=".8" xlink:href="#j"/>
<g transform="translate(172 715) scale(.1 -.1)">
<use xlink:href="#c"/>
<use transform="translate(63.6)" xlink:href="#b"/>
<use transform="translate(127)" xlink:href="#c"/>
<use transform="translate(191)" xlink:href="#m"/>
<use transform="translate(254)" xlink:href="#e"/>
<use transform="translate(291)" xlink:href="#b"/>
<use transform="translate(354)" xlink:href="#y"/>
</g>
<path d="m284 700v-313" clip-path="url(#h)" fill="none" stroke="#b0b0b0" stroke-linecap="square" stroke-width=".8"/>
<use x="284.362143" y="700.321635" stroke="#000000" stroke-width=".8" xlink:href="#j"/>
<g transform="translate(263 715) scale(.1 -.1)">
<use xlink:href="#c"/>
<use transform="translate(63.6)" xlink:href="#b"/>
<use transform="translate(127)" xlink:href="#c"/>
<use transform="translate(191)" xlink:href="#m"/>
<use transform="translate(254)" xlink:href="#e"/>
<use transform="translate(291)" xlink:href="#d"/>
<use transform="translate(354)" xlink:href="#b"/>
</g>
<path d="m379 700v-313" clip-path="url(#h)" fill="none" stroke="#b0b0b0" stroke-linecap="square" stroke-width=".8"/>
<use x="379.207719" y="700.321635" stroke="#000000" stroke-width=".8" xlink:href="#j"/>
<g transform="translate(358 715) scale(.1 -.1)">
<use xlink:href="#c"/>
<use transform="translate(63.6)" xlink:href="#b"/>
<use transform="translate(127)" xlink:href="#c"/>
<use transform="translate(191)" xlink:href="#m"/>
<use transform="translate(254)" xlink:href="#e"/>
<use transform="translate(291)" xlink:href="#d"/>
<use transform="translate(354)" xlink:href="#d"/>
</g>
<path d="m471 700v-313" clip-path="url(#h)" fill="none" stroke="#b0b0b0" stroke-linecap="square" stroke-width=".8"/>
<use x="470.993759" y="700.321635" stroke="#000000" stroke-width=".8" xlink:href="#j"/>
<g transform="translate(450 715) scale(.1 -.1)">
<use xlink:href="#c"/>
<use transform="translate(63.6)" xlink:href="#b"/>
<use transform="translate(127)" xlink:href="#c"/>
<use transform="translate(191)" xlink:href="#m"/>
<use transform="translate(254)" xlink:href="#e"/>
<use transform="translate(291)" xlink:href="#d"/>
<use transform="translate(354)" xlink:href="#c"/>
</g>
<path d="m566 700v-313" clip-path="url(#h)" fill="none" stroke="#b0b0b0" stroke-linecap="square" stroke-width=".8"/>
<use x="565.839334" y="700.321635" stroke="#000000" stroke-width=".8" xlink:href="#j"/>
<g transform="translate(545 715) scale(.1 -.1)">
<use xlink:href="#c"/>
<use transform="translate(63.6)" xlink:href="#b"/>
<use transform="translate(127)" xlink:href="#c"/>
<use transform="translate(191)" xlink:href="#l"/>
<use transform="translate(254)" xlink:href="#e"/>
<use transform="translate(291)" xlink:href="#b"/>
<use transform="translate(354)" xlink:href="#d"/>
</g>
<path d="m661 700v-313" clip-path="url(#h)" fill="none" stroke="#b0b0b0" stroke-linecap="square" stroke-width=".8"/>
<use x="660.684909" y="700.321635" stroke="#000000" stroke-width=".8" xlink:href="#j"/>
<g transform="translate(640 715) scale(.1 -.1)">
<use xlink:href="#c"/>
<use transform="translate(63.6)" xlink:href="#b"/>
<use transform="translate(127)" xlink:href="#c"/>
<use transform="translate(191)" xlink:href="#l"/>
<use transform="translate(254)" xlink:href="#e"/>
<use transform="translate(291)" xlink:href="#b"/>
<use transform="translate(354)" xlink:href="#c"/>
</g>
<path d="m40.6 660h676" clip-path="url(#h)" fill="none" stroke="#b0b0b0" stroke-linecap="square" stroke-width=".8"/>
<use x="40.645553" y="660.252675" stroke="#000000" stroke-width=".8" xlink:href="#i"/>
<g transform="translate(3 664) scale(.1 -.1)">
<use xlink:href="#d"/>
<use transform="translate(63.6)" xlink:href="#f"/>
<use transform="translate(95.4)" xlink:href="#b"/>
<use transform="translate(159)" xlink:href="#b"/>
<use transform="translate(223)" xlink:href="#k"/>
</g>
<path d="m40.6 617h676" clip-path="url(#h)" fill="none" stroke="#b0b0b0" stroke-linecap="square" stroke-width=".8"/>
<use x="40.645553" y="617.167772" stroke="#000000" stroke-width=".8" xlink:href="#i"/>
<g transform="translate(3 621) scale(.1 -.1)">
<use xlink:href="#d"/>
<use transform="translate(63.6)" xlink:href="#f"/>
<use transform="translate(95.4)" xlink:href="#b"/>
<use transform="translate(159)" xlink:href="#l"/>
<use transform="translate(223)" xlink:href="#k"/>
</g>
<path d="m40.6 574h676" clip-path="url(#h)" fill="none" stroke="#b0b0b0" stroke-linecap="square" stroke-width=".8"/>
<use x="40.645553" y="574.08287" stroke="#000000" stroke-width=".8" xlink:href="#i"/>
<g transform="translate(3 578) scale(.1 -.1)">
<use xlink:href="#d"/>
<use transform="translate(63.6)" xlink:href="#f"/>
<use transform="translate(95.4)" xlink:href="#d"/>
<use transform="translate(159)" xlink:href="#b"/>
<use transform="translate(223)" xlink:href="#k"/>
</g>
<path d="m40.6 531h676" clip-path="url(#h)" fill="none" stroke="#b0b0b0" stroke-linecap="square" stroke-width=".8"/>
<use x="40.645553" y="530.997967" stroke="#000000" stroke-width=".8" xlink:href="#i"/>
<g transform="translate(3 535) scale(.1 -.1)">
<use xlink:href="#d"/>
<use transform="translate(63.6)" xlink:href="#f"/>
<use transform="translate(95.4)" xlink:href="#d"/>
<use transform="translate(159)" xlink:href="#l"/>
<use transform="translate(223)" xlink:href="#k"/>
</g>
<path d="m40.6 488h676" clip-path="url(#h)" fill="none" stroke="#b0b0b0" stroke-linecap="square" stroke-width=".8"/>
<use x="40.645553" y="487.913064" stroke="#000000" stroke-width=".8" xlink:href="#i"/>
<g transform="translate(3 492) scale(.1 -.1)">
<use xlink:href="#d"/>
<use transform="translate(63.6)" xlink:href="#f"/>
<use transform="translate(95.4)" xlink:href="#c"/>
<use transform="translate(159)" xlink:href="#b"/>
<use transform="translate(223)" xlink:href="#k"/>
</g>
<path d="m40.6 445h676" clip-path="url(#h)" fill="none" stroke="#b0b0b0" stroke-linecap="square" stroke-width=".8"/>
<use x="40.645553" y="444.828161" stroke="#000000" stroke-width=".8" xlink:href="#i"/>
<g transform="translate(3 449) scale(.1 -.1)">
<use xlink:href="#d"/>
<use transform="translate(63.6)" xlink:href="#f"/>
<use transform="translate(95.4)" xlink:href="#c"/>
<use transform="translate(159)" xlink:href="#l"/>
<use transform="translate(223)" xlink:href="#k"/>
</g>
<path d="m40.6 402h676" clip-path="url(#h)" fill="none" stroke="#b0b0b0" stroke-linecap="square" stroke-width=".8"/>
<use x="40.645553" y="401.743258" stroke="#000000" stroke-width=".8" xlink:href="#i"/>
<g transform="translate(3 406) scale(.1 -.1)">
<use xlink:href="#d"/>
<use transform="translate(63.6)" xlink:href="#f"/>
<use transform="translate(95.4)" xlink:href="#s"/>
<use transform="translate(159)" xlink:href="#b"/>
<use transform="translate(223)" xlink:href="#k"/>
</g>
<g stroke="#1f77b4" stroke-opacity=".9">
<path d="m71.4 660 14.6-8.62h21.8l12 8.62h0.0196 0.291 9l15-8.62h0.105 6.3 21.5 21.5 17.3 0.0343l0.68 8.62 2.97-8.62 21.4 8.62h17.7l17.3-8.62m8.3 8.62 5.56 8.62 0.127 8.62 64.7-25.9h2.81 39.8 3.45 2.89 3.12 2.26 3.85 2.9 3.37 2.7 3.36 3.14 2.9 3.18 3.01l3.12 8.62 2.69-8.62h3.26l3.27-94.8h2.99 2.76 3.19 2.91 3.09 3.29 2.23 3.57 2.75 3.17 3.57 3.16 3.07l2.71-8.62h3.06 2.59 3.16 3.03l3.78 8.62h2.95 2.87 2.61 2.7 4.06 2.77 3.35 2.08l4.09-8.62h2.55 6.04 3.35 2.7 2.96 3.59 3.09 2.92 3.19 2.9 3.12l3.16 8.62 2.66-8.62h3.41 3.29 2.85 3.27 2.81l3.3 8.62h2.57 3.73l2.35-8.62h3.53l2.27 8.62h3.86 0.323l2.48-8.62h3.41 2.9 2.95l3.34 8.62 3.03-8.62h3.01l0.242 8.62 2.92-8.62h1.99 0.973l2.93-146 2.52 146h3.15 3.72 1.46 1.59 3.04l2.85 8.62 2.46-8.62h2.95l2.99 8.62 0.898-8.62h2.21 3.86 2.63 3.57 2.94 3.18" clip-path="url(#h)" fill="none" stroke-linecap="square" stroke-width="1.5"/>
<g clip-path="url(#h)" fill="#1f77b4" fill-opacity=".9">
<use x="71.388926" y="660.252675" xlink:href="#a"/>
<use x="85.946291" y="651.635695" xlink:href="#a"/>
<use x="107.792537" y="651.635695" xlink:href="#a"/>
<use x="119.829185" y="660.252675" xlink:href="#a"/>
<use x="119.848768" y="660.252675" xlink:href="#a"/>
<use x="120.140026" y="660.252675" xlink:href="#a"/>
<use x="129.135978" y="660.252675" xlink:href="#a"/>
<use x="144.096678" y="651.635695" xlink:href="#a"/>
<use x="144.201637" y="651.635695" xlink:href="#a"/>
<use x="150.503464" y="651.635695" xlink:href="#a"/>
<use x="172.040074" y="651.635695" xlink:href="#a"/>
<use x="193.504764" y="651.635695" xlink:href="#a"/>
<use x="210.789081" y="651.635695" xlink:href="#a"/>
<use x="210.82343" y="651.635695" xlink:href="#a"/>
<use x="211.503751" y="660.252675" xlink:href="#a"/>
<use x="214.475006" y="651.635695" xlink:href="#a"/>
<use x="235.855593" y="660.252675" xlink:href="#a"/>
<use x="253.592183" y="660.252675" xlink:href="#a"/>
<use x="270.873172" y="651.635695" xlink:href="#a"/>
<use x="279.168831" y="660.252675" xlink:href="#a"/>
<use x="284.724967" y="668.869656" xlink:href="#a"/>
<use x="284.852271" y="677.486636" xlink:href="#a"/>
<use x="349.584447" y="651.635695" xlink:href="#a"/>
<use x="352.399325" y="651.635695" xlink:href="#a"/>
<use x="392.185564" y="651.635695" xlink:href="#a"/>
<use x="395.639757" y="651.635695" xlink:href="#a"/>
<use x="398.529034" y="651.635695" xlink:href="#a"/>
<use x="401.65107" y="651.635695" xlink:href="#a"/>
<use x="403.913142" y="651.635695" xlink:href="#a"/>
<use x="407.766633" y="651.635695" xlink:href="#a"/>
<use x="410.663418" y="651.635695" xlink:href="#a"/>
<use x="414.034713" y="651.635695" xlink:href="#a"/>
<use x="416.737302" y="651.635695" xlink:href="#a"/>
<use x="420.097408" y="651.635695" xlink:href="#a"/>
<use x="423.237043" y="651.635695" xlink:href="#a"/>
<use x="426.139883" y="651.635695" xlink:href="#a"/>
<use x="429.323357" y="651.635695" xlink:href="#a"/>
<use x="432.332466" y="651.635695" xlink:href="#a"/>
<use x="435.450465" y="660.252675" xlink:href="#a"/>
<use x="438.145192" y="651.635695" xlink:href="#a"/>
<use x="441.407209" y="651.635695" xlink:href="#a"/>
<use x="444.68215" y="556.848908" xlink:href="#a"/>
<use x="447.670862" y="556.848908" xlink:href="#a"/>
<use x="450.429047" y="556.848908" xlink:href="#a"/>
<use x="453.619922" y="556.848908" xlink:href="#a"/>
<use x="456.533244" y="556.848908" xlink:href="#a"/>
<use x="459.618452" y="556.848908" xlink:href="#a"/>
<use x="462.904902" y="556.848908" xlink:href="#a"/>
<use x="465.136344" y="556.848908" xlink:href="#a"/>
<use x="468.706863" y="556.848908" xlink:href="#a"/>
<use x="471.460444" y="556.848908" xlink:href="#a"/>
<use x="474.625788" y="556.848908" xlink:href="#a"/>
<use x="478.197263" y="556.848908" xlink:href="#a"/>
<use x="481.362218" y="556.848908" xlink:href="#a"/>
<use x="484.432553" y="556.848908" xlink:href="#a"/>
<use x="487.140701" y="548.231928" xlink:href="#a"/>
<use x="490.200307" y="548.231928" xlink:href="#a"/>
<use x="492.790182" y="548.231928" xlink:href="#a"/>
<use x="495.951417" y="548.231928" xlink:href="#a"/>
<use x="498.978657" y="548.231928" xlink:href="#a"/>
<use x="502.757501" y="556.848908" xlink:href="#a"/>
<use x="505.707509" y="556.848908" xlink:href="#a"/>
<use x="508.577239" y="556.848908" xlink:href="#a"/>
<use x="511.186838" y="556.848908" xlink:href="#a"/>
<use x="513.882097" y="556.848908" xlink:href="#a"/>
<use x="517.942779" y="556.848908" xlink:href="#a"/>
<use x="520.710348" y="556.848908" xlink:href="#a"/>
<use x="524.062132" y="556.848908" xlink:href="#a"/>
<use x="526.13872" y="556.848908" xlink:href="#a"/>
<use x="530.226988" y="548.231928" xlink:href="#a"/>
<use x="532.781416" y="548.231928" xlink:href="#a"/>
<use x="538.817163" y="548.231928" xlink:href="#a"/>
<use x="542.165724" y="548.231928" xlink:href="#a"/>
<use x="544.867605" y="548.231928" xlink:href="#a"/>
<use x="547.826465" y="548.231928" xlink:href="#a"/>
<use x="551.420463" y="548.231928" xlink:href="#a"/>
<use x="554.512717" y="548.231928" xlink:href="#a"/>
<use x="557.437441" y="548.231928" xlink:href="#a"/>
<use x="560.627927" y="548.231928" xlink:href="#a"/>
<use x="563.527827" y="548.231928" xlink:href="#a"/>
<use x="566.652129" y="548.231928" xlink:href="#a"/>
<use x="569.815632" y="556.848908" xlink:href="#a"/>
<use x="572.474488" y="548.231928" xlink:href="#a"/>
<use x="575.886471" y="548.231928" xlink:href="#a"/>
<use x="579.179684" y="548.231928" xlink:href="#a"/>
<use x="582.02622" y="548.231928" xlink:href="#a"/>
<use x="585.298718" y="548.231928" xlink:href="#a"/>
<use x="588.111472" y="548.231928" xlink:href="#a"/>
<use x="591.416265" y="556.848908" xlink:href="#a"/>
<use x="593.981919" y="556.848908" xlink:href="#a"/>
<use x="597.716286" y="556.848908" xlink:href="#a"/>
<use x="600.063169" y="548.231928" xlink:href="#a"/>
<use x="603.594098" y="548.231928" xlink:href="#a"/>
<use x="605.864386" y="556.848908" xlink:href="#a"/>
<use x="609.729174" y="556.848908" xlink:href="#a"/>
<use x="610.051806" y="556.848908" xlink:href="#a"/>
<use x="612.526948" y="548.231928" xlink:href="#a"/>
<use x="615.932982" y="548.231928" xlink:href="#a"/>
<use x="618.835751" y="548.231928" xlink:href="#a"/>
<use x="621.788662" y="548.231928" xlink:href="#a"/>
<use x="625.129221" y="556.848908" xlink:href="#a"/>
<use x="628.163649" y="548.231928" xlink:href="#a"/>
<use x="631.170032" y="548.231928" xlink:href="#a"/>
<use x="631.411997" y="556.848908" xlink:href="#a"/>
<use x="634.335588" y="548.231928" xlink:href="#a"/>
<use x="636.323117" y="548.231928" xlink:href="#a"/>
<use x="637.296077" y="548.231928" xlink:href="#a"/>
<use x="640.228237" y="401.743258" xlink:href="#a"/>
<use x="642.752955" y="548.231928" xlink:href="#a"/>
<use x="645.89815" y="548.231928" xlink:href="#a"/>
<use x="649.621186" y="548.231928" xlink:href="#a"/>
<use x="651.082928" y="548.231928" xlink:href="#a"/>
<use x="652.676684" y="548.231928" xlink:href="#a"/>
<use x="655.718513" y="548.231928" xlink:href="#a"/>
<use x="658.570573" y="556.848908" xlink:href="#a"/>
<use x="661.028186" y="548.231928" xlink:href="#a"/>
<use x="663.977627" y="548.231928" xlink:href="#a"/>
<use x="666.96765" y="556.848908" xlink:href="#a"/>
<use x="667.86614" y="548.231928" xlink:href="#a"/>
<use x="670.080655" y="548.231928" xlink:href="#a"/>
<use x="673.941583" y="548.231928" xlink:href="#a"/>
<use x="676.574305" y="548.231928" xlink:href="#a"/>
<use x="680.140752" y="548.231928" xlink:href="#a"/>
<use x="683.078791" y="548.231928" xlink:href="#a"/>
<use x="686.256387" y="548.231928" xlink:href="#a"/>
</g>
</g>
<g stroke="#1f77b4" stroke-opacity=".9">
<path d="m254 652v8.62h79.8l4.4 25.9 1.49-25.9h66l2.48-8.62 2.9 8.62 3.37-8.62 2.7 8.62h9.4l3.18-8.62 0.231 8.62h2.78l3.12 8.62 2.69-8.62 3.26-8.62 2.61-68.9h44l1.74-8.62h9.22l3.78 8.62 1.7-8.62 0.53 8.62 0.724-8.62 1.54 8.62h18.9l4.09-8.62h8.59l3.35 8.62 2.7-8.62h15.8l2.9 8.62 3.12-8.62h3.16l2.66 8.62 3.41-8.62 3.29 8.62 2.85-8.62h21.6l2.27 8.62h3.86l0.323-8.62 2.48 8.62 2.35-8.62h22.4l2.93-164 2.52 164h40.3l3.18-8.62" clip-path="url(#h)" fill="none" stroke-dasharray="1.5,2.475" stroke-width="1.5"/>
<g clip-path="url(#h)" fill="#1f77b4" fill-opacity=".9">
<use x="253.592183" y="651.635695" xlink:href="#a"/>
<use x="253.592183" y="660.252675" xlink:href="#a"/>
<use x="279.168831" y="660.252675" xlink:href="#a"/>
<use x="298.760512" y="660.252675" xlink:href="#a"/>
<use x="321.836025" y="660.252675" xlink:href="#a"/>
<use x="333.398163" y="660.252675" xlink:href="#a"/>
<use x="337.794721" y="686.103617" xlink:href="#a"/>
<use x="339.288192" y="660.252675" xlink:href="#a"/>
<use x="340.33718" y="660.252675" xlink:href="#a"/>
<use x="343.35794" y="660.252675" xlink:href="#a"/>
<use x="346.334754" y="660.252675" xlink:href="#a"/>
<use x="349.584447" y="660.252675" xlink:href="#a"/>
<use x="352.399325" y="660.252675" xlink:href="#a"/>
<use x="355.8106" y="660.252675" xlink:href="#a"/>
<use x="358.919746" y="660.252675" xlink:href="#a"/>
<use x="361.265141" y="660.252675" xlink:href="#a"/>
<use x="364.761014" y="660.252675" xlink:href="#a"/>
<use x="367.85302" y="660.252675" xlink:href="#a"/>
<use x="370.907243" y="660.252675" xlink:href="#a"/>
<use x="374.263985" y="660.252675" xlink:href="#a"/>
<use x="377.322316" y="660.252675" xlink:href="#a"/>
<use x="380.067292" y="660.252675" xlink:href="#a"/>
<use x="383.310399" y="660.252675" xlink:href="#a"/>
<use x="385.605545" y="660.252675" xlink:href="#a"/>
<use x="389.199684" y="660.252675" xlink:href="#a"/>
<use x="392.185564" y="660.252675" xlink:href="#a"/>
<use x="395.639757" y="660.252675" xlink:href="#a"/>
<use x="398.529034" y="660.252675" xlink:href="#a"/>
<use x="400.089999" y="660.252675" xlink:href="#a"/>
<use x="401.65107" y="660.252675" xlink:href="#a"/>
<use x="403.913142" y="660.252675" xlink:href="#a"/>
<use x="405.289296" y="660.252675" xlink:href="#a"/>
<use x="407.766633" y="651.635695" xlink:href="#a"/>
<use x="410.663418" y="660.252675" xlink:href="#a"/>
<use x="414.034713" y="651.635695" xlink:href="#a"/>
<use x="416.737302" y="660.252675" xlink:href="#a"/>
<use x="420.097408" y="660.252675" xlink:href="#a"/>
<use x="423.237043" y="660.252675" xlink:href="#a"/>
<use x="426.139883" y="660.252675" xlink:href="#a"/>
<use x="429.323357" y="651.635695" xlink:href="#a"/>
<use x="429.554097" y="660.252675" xlink:href="#a"/>
<use x="432.332466" y="660.252675" xlink:href="#a"/>
<use x="435.450465" y="668.869656" xlink:href="#a"/>
<use x="438.145192" y="660.252675" xlink:href="#a"/>
<use x="441.407209" y="651.635695" xlink:href="#a"/>
<use x="444.015356" y="582.69985" xlink:href="#a"/>
<use x="444.68215" y="582.69985" xlink:href="#a"/>
<use x="447.169934" y="582.69985" xlink:href="#a"/>
<use x="447.670862" y="582.69985" xlink:href="#a"/>
<use x="450.429047" y="582.69985" xlink:href="#a"/>
<use x="453.619922" y="582.69985" xlink:href="#a"/>
<use x="456.533244" y="582.69985" xlink:href="#a"/>
<use x="458.967132" y="582.69985" xlink:href="#a"/>
<use x="459.618452" y="582.69985" xlink:href="#a"/>
<use x="461.846636" y="582.69985" xlink:href="#a"/>
<use x="462.904902" y="582.69985" xlink:href="#a"/>
<use x="465.136344" y="582.69985" xlink:href="#a"/>
<use x="468.105615" y="582.69985" xlink:href="#a"/>
<use x="468.706863" y="582.69985" xlink:href="#a"/>
<use x="471.460444" y="582.69985" xlink:href="#a"/>
<use x="474.625788" y="582.69985" xlink:href="#a"/>
<use x="478.197263" y="582.69985" xlink:href="#a"/>
<use x="481.362218" y="582.69985" xlink:href="#a"/>
<use x="483.679886" y="582.69985" xlink:href="#a"/>
<use x="484.432553" y="582.69985" xlink:href="#a"/>
<use x="487.140701" y="582.69985" xlink:href="#a"/>
<use x="488.018901" y="582.69985" xlink:href="#a"/>
<use x="489.754656" y="574.08287" xlink:href="#a"/>
<use x="490.200307" y="574.08287" xlink:href="#a"/>
<use x="492.790182" y="574.08287" xlink:href="#a"/>
<use x="494.317116" y="574.08287" xlink:href="#a"/>
<use x="495.951417" y="574.08287" xlink:href="#a"/>
<use x="498.978657" y="574.08287" xlink:href="#a"/>
<use x="502.757501" y="582.69985" xlink:href="#a"/>
<use x="504.453843" y="574.08287" xlink:href="#a"/>
<use x="504.98356" y="582.69985" xlink:href="#a"/>
<use x="505.707509" y="574.08287" xlink:href="#a"/>
<use x="507.245704" y="582.69985" xlink:href="#a"/>
<use x="508.577239" y="582.69985" xlink:href="#a"/>
<use x="510.941438" y="582.69985" xlink:href="#a"/>
<use x="511.186838" y="582.69985" xlink:href="#a"/>
<use x="513.882097" y="582.69985" xlink:href="#a"/>
<use x="517.942779" y="582.69985" xlink:href="#a"/>
<use x="520.710348" y="582.69985" xlink:href="#a"/>
<use x="524.062132" y="582.69985" xlink:href="#a"/>
<use x="524.94837" y="582.69985" xlink:href="#a"/>
<use x="526.13872" y="582.69985" xlink:href="#a"/>
<use x="530.226988" y="574.08287" xlink:href="#a"/>
<use x="532.781416" y="574.08287" xlink:href="#a"/>
<use x="538.817163" y="574.08287" xlink:href="#a"/>
<use x="542.165724" y="582.69985" xlink:href="#a"/>
<use x="544.867605" y="574.08287" xlink:href="#a"/>
<use x="547.826465" y="574.08287" xlink:href="#a"/>
<use x="551.420463" y="574.08287" xlink:href="#a"/>
<use x="554.512717" y="574.08287" xlink:href="#a"/>
<use x="557.437441" y="574.08287" xlink:href="#a"/>
<use x="560.627927" y="574.08287" xlink:href="#a"/>
<use x="563.527827" y="582.69985" xlink:href="#a"/>
<use x="566.652129" y="574.08287" xlink:href="#a"/>
<use x="569.815632" y="574.08287" xlink:href="#a"/>
<use x="572.474488" y="582.69985" xlink:href="#a"/>
<use x="575.886471" y="574.08287" xlink:href="#a"/>
<use x="579.179684" y="582.69985" xlink:href="#a"/>
<use x="582.02622" y="574.08287" xlink:href="#a"/>
<use x="585.298718" y="574.08287" xlink:href="#a"/>
<use x="588.111472" y="574.08287" xlink:href="#a"/>
<use x="593.981919" y="574.08287" xlink:href="#a"/>
<use x="596.551007" y="574.08287" xlink:href="#a"/>
<use x="597.716286" y="574.08287" xlink:href="#a"/>
<use x="600.063169" y="574.08287" xlink:href="#a"/>
<use x="603.594098" y="574.08287" xlink:href="#a"/>
<use x="605.864386" y="582.69985" xlink:href="#a"/>
<use x="609.729174" y="582.69985" xlink:href="#a"/>
<use x="610.051806" y="574.08287" xlink:href="#a"/>
<use x="612.526948" y="582.69985" xlink:href="#a"/>
<use x="614.839092" y="574.08287" xlink:href="#a"/>
<use x="614.880417" y="574.08287" xlink:href="#a"/>
<use x="614.987961" y="574.08287" xlink:href="#a"/>
<use x="615.932982" y="574.08287" xlink:href="#a"/>
<use x="618.835751" y="574.08287" xlink:href="#a"/>
<use x="621.659907" y="574.08287" xlink:href="#a"/>
<use x="621.788662" y="574.08287" xlink:href="#a"/>
<use x="625.129221" y="574.08287" xlink:href="#a"/>
<use x="628.163649" y="574.08287" xlink:href="#a"/>
<use x="630.867655" y="574.08287" xlink:href="#a"/>
<use x="631.170032" y="574.08287" xlink:href="#a"/>
<use x="631.29344" y="574.08287" xlink:href="#a"/>
<use x="631.411997" y="574.08287" xlink:href="#a"/>
<use x="633.006213" y="574.08287" xlink:href="#a"/>
<use x="634.335588" y="574.08287" xlink:href="#a"/>
<use x="636.323117" y="574.08287" xlink:href="#a"/>
<use x="637.296077" y="574.08287" xlink:href="#a"/>
<use x="640.228237" y="410.360239" xlink:href="#a"/>
<use x="642.752955" y="574.08287" xlink:href="#a"/>
<use x="645.89815" y="574.08287" xlink:href="#a"/>
<use x="649.621186" y="574.08287" xlink:href="#a"/>
<use x="651.082928" y="574.08287" xlink:href="#a"/>
<use x="652.676684" y="574.08287" xlink:href="#a"/>
<use x="655.718513" y="574.08287" xlink:href="#a"/>
<use x="658.570573" y="574.08287" xlink:href="#a"/>
<use x="661.028186" y="574.08287" xlink:href="#a"/>
<use x="663.977627" y="574.08287" xlink:href="#a"/>
<use x="666.96765" y="574.08287" xlink:href="#a"/>
<use x="667.86614" y="574.08287" xlink:href="#a"/>
<use x="670.080655" y="574.08287" xlink:href="#a"/>
<use x="673.941583" y="574.08287" xlink:href="#a"/>
<use x="676.574305" y="574.08287" xlink:href="#a"/>
<use x="680.140752" y="574.08287" xlink:href="#a"/>
<use x="683.078791" y="574.08287" xlink:href="#a"/>
<use x="686.256387" y="565.465889" xlink:href="#a"/>
</g>
</g>
<path d="m40.6 700v-313" fill="none" stroke="#000" stroke-linecap="square" stroke-width=".8"/>
<path d="m717 700v-313" fill="none" stroke="#000" stroke-linecap="square" stroke-width=".8"/>
<path d="m40.6 700h676" fill="none" stroke="#000" stroke-linecap="square" stroke-width=".8"/>
<path d="m40.6 388h676" fill="none" stroke="#000" stroke-linecap="square" stroke-width=".8"/>
<path d="m71.8 651-0.349 7.35" fill="none" stroke="#888" stroke-linecap="round"/>
<g transform="translate(74.5 647) rotate(-90) scale(.08 -.08)" fill="#888">
<defs>
<path id="ac" transform="scale(.0156)" d="m2194 1759q-697 0-966-159t-269-544q0-306 202-486 202-179 548-179 479 0 768 339t289 901v128h-572zm1147 238v-2e3h-575v531q-197-318-491-470t-719-152q-537 0-855 302-317 302-317 808 0 590 395 890 396 300 1180 300h807v57q0 397-261 614t-733 217q-300 0-585-72-284-72-546-216v532q315 122 612 182 297 61 578 61 760 0 1135-394 375-393 375-1193z"/>
</defs>
<use xlink:href="#ac"/>
<use transform="translate(61.3)" xlink:href="#b"/>
</g>
<g clip-path="url(#h)">
<g transform="translate(58.2 652) rotate(-90) scale(.1 -.1)">
<use xlink:href="#ab"/>
<use transform="translate(97.4)" xlink:href="#u"/>
<use transform="translate(159)" xlink:href="#n"/>
<use transform="translate(197)" xlink:href="#r"/>
<use transform="translate(259)" xlink:href="#DejaVuSans-20"/>
<use transform="translate(291)" xlink:href="#al"/>
</g>
</g>
<g clip-path="url(#h)">
<g transform="translate(58.2 707) rotate(-90) scale(.1 -.1)">
<use xlink:href="#am"/>
<use transform="translate(143)" xlink:href="#DejaVuSans-20"/>
<use transform="translate(175)" xlink:href="#q"/>
<use transform="translate(203)" xlink:href="#r"/>
<use transform="translate(264)" xlink:href="#o"/>
<use transform="translate(317)" xlink:href="#o"/>
</g>
</g>
<g transform="translate(296 382) scale(.12 -.12)">
<use xlink:href="#aj"/>
<use transform="translate(60.3)" xlink:href="#z"/>
<use transform="translate(119)" xlink:href="#aa"/>
<use transform="translate(159)" xlink:href="#ad"/>
<use transform="translate(222)" xlink:href="#u"/>
<use transform="translate(283)" xlink:href="#p"/>
<use transform="translate(347)" xlink:href="#DejaVuSans-20"/>
<use transform="translate(378)" xlink:href="#s"/>
<use transform="translate(442)" xlink:href="#f"/>
<use transform="translate(474)" xlink:href="#d"/>
<use transform="translate(537)" xlink:href="#m"/>
<use transform="translate(601)" xlink:href="#f"/>
<use transform="translate(633)" xlink:href="#v"/>
<use transform="translate(692)" xlink:href="#DejaVuSans-20"/>
<use transform="translate(724)" xlink:href="#w"/>
<use transform="translate(783)" xlink:href="#o"/>
<use transform="translate(835)" xlink:href="#f"/>
<use transform="translate(867)" xlink:href="#DejaVuSans-20"/>
<use transform="translate(899)" xlink:href="#s"/>
<use transform="translate(962)" xlink:href="#f"/>
<use transform="translate(994)" xlink:href="#d"/>
<use transform="translate(1058)" xlink:href="#s"/>
<use transform="translate(1121)" xlink:href="#f"/>
<use transform="translate(1153)" xlink:href="#b"/>
<use transform="translate(1217)" xlink:href="#n"/>
<use transform="translate(1256)" xlink:href="#ae"/>
<use transform="translate(1311)" xlink:href="#c"/>
</g>
<path d="m47.6 425h82.6q2 0 2-2v-28.4q0-2-2-2h-82.6q-2 0-2 2v28.4q0 2 2 2z" fill="#fff" opacity=".8" stroke="#ccc"/>
<path d="m49.6 401h10 10" fill="none" stroke="#1f77b4" stroke-linecap="square" stroke-opacity=".9" stroke-width="1.5"/>
<use x="59.645553" y="400.623678" fill="#1f77b4" fill-opacity=".9" stroke="#1f77b4" stroke-opacity=".9" xlink:href="#a"/>
<g transform="translate(77.6 404) scale(.1 -.1)">
<use xlink:href="#q"/>
<use transform="translate(27.8)" xlink:href="#x"/>
<use transform="translate(55.6)" xlink:href="#p"/>
<use transform="translate(119)" xlink:href="#t"/>
<use transform="translate(182)" xlink:href="#v"/>
</g>
<path d="m49.6 415h10 10" fill="none" stroke="#1f77b4" stroke-dasharray="1.5,2.475" stroke-opacity=".9" stroke-width="1.5"/>
<use x="59.645553" y="415.301803" fill="#1f77b4" fill-opacity=".9" stroke="#1f77b4" stroke-opacity=".9" xlink:href="#a"/>
<g transform="translate(77.6 419) scale(.1 -.1)">
<use xlink:href="#q"/>
<use transform="translate(27.8)" xlink:href="#x"/>
<use transform="translate(55.6)" xlink:href="#p"/>
<use transform="translate(119)" xlink:href="#t"/>
<use transform="translate(182)" xlink:href="#v"/>
<use transform="translate(242)" xlink:href="#e"/>
<use transform="translate(275)" xlink:href="#w"/>
<use transform="translate(334)" xlink:href="#t"/>
<use transform="translate(398)" xlink:href="#q"/>
<use transform="translate(425)" xlink:href="#aa"/>
<use transform="translate(465)" xlink:href="#n"/>
</g>
<g transform="translate(239 12.1) scale(.12 -.12)">
<defs>
<path id="ao" transform="scale(.0156)" d="m628 4666h941l1190-3175 1197 3175h941v-4666h-616v4097l-1203-3200h-634l-1203 3200v-4097h-613v4666z"/>
<path id="ah" transform="scale(.0156)" d="m2906 1791q0 625-258 968-257 344-723 344-462 0-720-344-258-343-258-968 0-622 258-966t720-344q466 0 723 344 258 344 258 966zm575-1357q0-893-397-1329-396-436-1215-436-303 0-572 45t-522 139v559q253-137 500-202 247-66 503-66 566 0 847 295t281 892v285q-178-310-456-463t-666-153q-643 0-1037 490-394 491-394 1301 0 812 394 1302 394 491 1037 491 388 0 666-153t456-462v531h575v-3066z"/>
<path id="an" transform="scale(.0156)" d="m603 3500h575v-3563q0-668-255-968-254-300-820-300h-219v487h154q328 0 446 152 119 151 119 629v3563zm0 1363h575v-729h-575v729z"/>
</defs>
<use xlink:href="#ao"/>
<use transform="translate(86.3)" xlink:href="#r"/>
<use transform="translate(148)" xlink:href="#ab"/>
<use transform="translate(245)" xlink:href="#u"/>
<use transform="translate(306)" xlink:href="#n"/>
<use transform="translate(348)" xlink:href="#z"/>
<use transform="translate(407)" xlink:href="#DejaVuSans-20"/>
<use transform="translate(438)" xlink:href="#t"/>
<use transform="translate(502)" xlink:href="#o"/>
<use transform="translate(554)" xlink:href="#ac"/>
<use transform="translate(615)" xlink:href="#ah"/>
<use transform="translate(679)" xlink:href="#r"/>
<use transform="translate(740)" xlink:href="#DejaVuSans-20"/>
<use transform="translate(772)" xlink:href="#ae"/>
<use transform="translate(827)" xlink:href="#ad"/>
<use transform="translate(890)" xlink:href="#ac"/>
<use transform="translate(952)" xlink:href="#p"/>
<use transform="translate(1015)" xlink:href="#ah"/>
<use transform="translate(1079)" xlink:href="#r"/>
<use transform="translate(1140)" xlink:href="#DejaVuSans-20"/>
<use transform="translate(1172)" xlink:href="#ai"/>
<use transform="translate(1235)" xlink:href="#z"/>
<use transform="translate(1294)" xlink:href="#DejaVuSans-20"/>
<use transform="translate(1326)" xlink:href="#ab"/>
<use transform="translate(1424)" xlink:href="#ac"/>
<use transform="translate(1485)" xlink:href="#an"/>
<use transform="translate(1513)" xlink:href="#u"/>
<use transform="translate(1574)" xlink:href="#n"/>
<use transform="translate(1615)" xlink:href="#DejaVuSans-20"/>
<use transform="translate(1647)" xlink:href="#w"/>
<use transform="translate(1706)" xlink:href="#r"/>
<use transform="translate(1768)" xlink:href="#n"/>
<use transform="translate(1809)" xlink:href="#o"/>
<use transform="translate(1861)" xlink:href="#x"/>
<use transform="translate(1889)" xlink:href="#u"/>
<use transform="translate(1950)" xlink:href="#p"/>
</g>
<defs>
<clipPath id="g">
<rect x="40.6" y="35.7" width="676" height="313"/>
</clipPath>
<clipPath id="h">
<rect x="40.6" y="388" width="676" height="313"/>
</clipPath>
</defs>
</svg>
