<?xml version="1.0" encoding="UTF-8"?>
<!DOCTYPE svg  PUBLIC '-//W3C//DTD SVG 1.1//EN'  'http://www.w3.org/Graphics/SVG/1.1/DTD/svg11.dtd'>
<svg width="720pt" height="1080pt" version="1.1" viewBox="0 0 720 1080" xmlns="http://www.w3.org/2000/svg" xmlns:xlink="http://www.w3.org/1999/xlink">
<defs>
<style type="text/css">*{stroke-linejoin: round; stroke-linecap: butt}</style>
</defs>
<path d="m0 1080h720v-1080h-720z" fill="#fff"/>
<path d="m40.6 351h668v-316h-668z" fill="#fff"/>
<path d="m40.6 351v-316" clip-path="url(#l)" fill="none" stroke="#b0b0b0" stroke-linecap="square" stroke-width=".8"/>
<defs>
<path id="j" d="m0 0v3.5" stroke="#000" stroke-width=".8"/>
</defs>
<use x="40.645553" y="351.264775" stroke="#000000" stroke-width=".8" xlink:href="#j"/>
<g transform="translate(32.7 366) scale(.1 -.1)">
<defs>
<path id="b" transform="scale(.0156)" d="m2034 4250q-487 0-733-480-245-479-245-1442 0-959 245-1439 246-480 733-480 491 0 736 480 246 480 246 1439 0 963-246 1442-245 480-736 480zm0 500q785 0 1199-621 414-620 414-1801 0-1178-414-1799-414-620-1199-620-784 0-1198 620-414 621-414 1799 0 1181 414 1801 414 621 1198 621z"/>
<path id="c" transform="scale(.0156)" d="m684 794h660v-794h-660v794z"/>
</defs>
<use xlink:href="#b"/>
<use transform="translate(63.6)" xlink:href="#c"/>
<use transform="translate(95.4)" xlink:href="#b"/>
</g>
<path d="m174 351v-316" clip-path="url(#l)" fill="none" stroke="#b0b0b0" stroke-linecap="square" stroke-width=".8"/>
<use x="174.326081" y="351.264775" stroke="#000000" stroke-width=".8" xlink:href="#j"/>
<g transform="translate(166 366) scale(.1 -.1)">
<defs>
<path id="i" transform="scale(.0156)" d="m1228 531h2203v-531h-2962v531q359 372 979 998 621 627 780 809 303 340 423 576 121 236 121 464 0 372-261 606-261 235-680 235-297 0-627-103-329-103-704-313v638q381 153 712 231 332 78 607 78 725 0 1156-363 431-362 431-968 0-288-108-546-107-257-392-607-78-91-497-524-418-433-1181-1211z"/>
</defs>
<use xlink:href="#b"/>
<use transform="translate(63.6)" xlink:href="#c"/>
<use transform="translate(95.4)" xlink:href="#i"/>
</g>
<path d="m308 351v-316" clip-path="url(#l)" fill="none" stroke="#b0b0b0" stroke-linecap="square" stroke-width=".8"/>
<use x="308.00661" y="351.264775" stroke="#000000" stroke-width=".8" xlink:href="#j"/>
<g transform="translate(300 366) scale(.1 -.1)">
<defs>
<path id="w" transform="scale(.0156)" d="m2419 4116-1594-2491h1594v2491zm-166 550h794v-3041h666v-525h-666v-1100h-628v1100h-2106v609l1940 2957z"/>
</defs>
<use xlink:href="#b"/>
<use transform="translate(63.6)" xlink:href="#c"/>
<use transform="translate(95.4)" xlink:href="#w"/>
</g>
<path d="m442 351v-316" clip-path="url(#l)" fill="none" stroke="#b0b0b0" stroke-linecap="square" stroke-width=".8"/>
<use x="441.68714" y="351.264775" stroke="#000000" stroke-width=".8" xlink:href="#j"/>
<g transform="translate(434 366) scale(.1 -.1)">
<defs>
<path id="af" transform="scale(.0156)" d="m2113 2584q-425 0-674-291-248-290-248-796 0-503 248-796 249-292 674-292t673 292q248 293 248 796 0 506-248 796-248 291-673 291zm1253 1979v-575q-238 112-480 171-242 60-480 60-625 0-955-422-329-422-376-1275 184 272 462 417 279 145 613 145 703 0 1111-427 408-426 408-1160 0-719-425-1154-425-434-1131-434-810 0-1238 620-428 621-428 1799 0 1106 525 1764t1409 658q238 0 480-47t505-140z"/>
</defs>
<use xlink:href="#b"/>
<use transform="translate(63.6)" xlink:href="#c"/>
<use transform="translate(95.4)" xlink:href="#af"/>
</g>
<path d="m575 351v-316" clip-path="url(#l)" fill="none" stroke="#b0b0b0" stroke-linecap="square" stroke-width=".8"/>
<use x="575.367668" y="351.264775" stroke="#000000" stroke-width=".8" xlink:href="#j"/>
<g transform="translate(567 366) scale(.1 -.1)">
<defs>
<path id="ab" transform="scale(.0156)" d="m2034 2216q-450 0-708-241-257-241-257-662 0-422 257-663 258-241 708-241t709 242q260 243 260 662 0 421-258 662-257 241-711 241zm-631 268q-406 100-633 378-226 279-226 679 0 559 398 884 399 325 1092 325 697 0 1094-325t397-884q0-400-227-679-226-278-629-378 456-106 710-416 255-309 255-755 0-679-414-1042-414-362-1186-362-771 0-1186 362-414 363-414 1042 0 446 256 755 257 310 713 416zm-231 997q0-362 226-565 227-203 636-203 407 0 636 203 230 203 230 565 0 363-230 566-229 203-636 203-409 0-636-203-226-203-226-566z"/>
</defs>
<use xlink:href="#b"/>
<use transform="translate(63.6)" xlink:href="#c"/>
<use transform="translate(95.4)" xlink:href="#ab"/>
</g>
<path d="m709 351v-316" clip-path="url(#l)" fill="none" stroke="#b0b0b0" stroke-linecap="square" stroke-width=".8"/>
<use x="709.048197" y="351.264775" stroke="#000000" stroke-width=".8" xlink:href="#j"/>
<g transform="translate(701 366) scale(.1 -.1)">
<defs>
<path id="h" transform="scale(.0156)" d="m794 531h1031v3560l-1122-225v575l1116 225h631v-4135h1031v-531h-2687v531z"/>
</defs>
<use xlink:href="#h"/>
<use transform="translate(63.6)" xlink:href="#c"/>
<use transform="translate(95.4)" xlink:href="#b"/>
</g>
<path d="m40.6 351h668" clip-path="url(#l)" fill="none" stroke="#b0b0b0" stroke-linecap="square" stroke-width=".8"/>
<defs>
<path id="f" d="m0 0h-3.5" stroke="#000" stroke-width=".8"/>
</defs>
<use x="40.645553" y="351.264775" stroke="#000000" stroke-width=".8" xlink:href="#f"/>
<g transform="translate(3 355) scale(.1 -.1)">
<defs>
<path id="g" transform="scale(.0156)" d="m4488 3438-1429-1435 1429-1428-372-378-1435 1434-1434-1434-369 378 1425 1428-1425 1435 369 378 1434-1435 1435 1435 372-378z"/>
</defs>
<use xlink:href="#b"/>
<use transform="translate(63.6)" xlink:href="#c"/>
<use transform="translate(95.4)" xlink:href="#b"/>
<use transform="translate(159)" xlink:href="#b"/>
<use transform="translate(223)" xlink:href="#g"/>
</g>
<path d="m40.6 288h668" clip-path="url(#l)" fill="none" stroke="#b0b0b0" stroke-linecap="square" stroke-width=".8"/>
<use x="40.645553" y="288.158339" stroke="#000000" stroke-width=".8" xlink:href="#f"/>
<g transform="translate(3 292) scale(.1 -.1)">
<use xlink:href="#b"/>
<use transform="translate(63.6)" xlink:href="#c"/>
<use transform="translate(95.4)" xlink:href="#i"/>
<use transform="translate(159)" xlink:href="#b"/>
<use transform="translate(223)" xlink:href="#g"/>
</g>
<path d="m40.6 225h668" clip-path="url(#l)" fill="none" stroke="#b0b0b0" stroke-linecap="square" stroke-width=".8"/>
<use x="40.645553" y="225.051903" stroke="#000000" stroke-width=".8" xlink:href="#f"/>
<g transform="translate(3 229) scale(.1 -.1)">
<use xlink:href="#b"/>
<use transform="translate(63.6)" xlink:href="#c"/>
<use transform="translate(95.4)" xlink:href="#w"/>
<use transform="translate(159)" xlink:href="#b"/>
<use transform="translate(223)" xlink:href="#g"/>
</g>
<path d="m40.6 162h668" clip-path="url(#l)" fill="none" stroke="#b0b0b0" stroke-linecap="square" stroke-width=".8"/>
<use x="40.645553" y="161.945467" stroke="#000000" stroke-width=".8" xlink:href="#f"/>
<g transform="translate(3 166) scale(.1 -.1)">
<use xlink:href="#b"/>
<use transform="translate(63.6)" xlink:href="#c"/>
<use transform="translate(95.4)" xlink:href="#af"/>
<use transform="translate(159)" xlink:href="#b"/>
<use transform="translate(223)" xlink:href="#g"/>
</g>
<path d="m40.6 98.8h668" clip-path="url(#l)" fill="none" stroke="#b0b0b0" stroke-linecap="square" stroke-width=".8"/>
<use x="40.645553" y="98.839031" stroke="#000000" stroke-width=".8" xlink:href="#f"/>
<g transform="translate(3 103) scale(.1 -.1)">
<use xlink:href="#b"/>
<use transform="translate(63.6)" xlink:href="#c"/>
<use transform="translate(95.4)" xlink:href="#ab"/>
<use transform="translate(159)" xlink:href="#b"/>
<use transform="translate(223)" xlink:href="#g"/>
</g>
<path d="m40.6 35.7h668" clip-path="url(#l)" fill="none" stroke="#b0b0b0" stroke-linecap="square" stroke-width=".8"/>
<use x="40.645553" y="35.732595" stroke="#000000" stroke-width=".8" xlink:href="#f"/>
<g transform="translate(3 39.5) scale(.1 -.1)">
<use xlink:href="#h"/>
<use transform="translate(63.6)" xlink:href="#c"/>
<use transform="translate(95.4)" xlink:href="#b"/>
<use transform="translate(159)" xlink:href="#b"/>
<use transform="translate(223)" xlink:href="#g"/>
</g>
<path d="m40.6 351v-316" fill="none" stroke="#000" stroke-linecap="square" stroke-width=".8"/>
<path d="m709 351v-316" fill="none" stroke="#000" stroke-linecap="square" stroke-width=".8"/>
<path d="m40.6 351h668" fill="none" stroke="#000" stroke-linecap="square" stroke-width=".8"/>
<path d="m40.6 35.7h668" fill="none" stroke="#000" stroke-linecap="square" stroke-width=".8"/>
<g clip-path="url(#l)">
<g transform="translate(58.2 27.8) rotate(-90) scale(.1 -.1)">
<defs>
<path id="n" transform="scale(.0156)" d="m3328 2828q216 388 516 572t706 184q547 0 844-383 297-382 297-1088v-2113h-578v2094q0 503-179 746-178 244-543 244-447 0-707-297-259-296-259-809v-1978h-578v2094q0 506-178 748t-550 242q-441 0-701-298-259-298-259-808v-1978h-578v3500h578v-544q197 322 472 475t653 153q382 0 649-194 267-193 395-562z"/>
<path id="q" transform="scale(.0156)" d="m1959 3097q-462 0-731-361t-269-989 267-989q268-361 733-361 460 0 728 362 269 363 269 988 0 622-269 986-268 364-728 364zm0 487q750 0 1178-488 429-487 429-1349 0-859-429-1349-428-489-1178-489-753 0-1180 489-426 490-426 1349 0 862 426 1349 427 488 1180 488z"/>
<path id="r" transform="scale(.0156)" d="m2631 2963q-97 56-211 82-114 27-251 27-488 0-749-317t-261-911v-1844h-578v3500h578v-544q182 319 472 473 291 155 707 155 59 0 131-8 72-7 159-23l3-590z"/>
<path id="d" transform="scale(.0156)" d="m3597 1894v-281h-2644q38-594 358-905t892-311q331 0 642 81t618 244v-544q-310-131-635-200t-659-69q-838 0-1327 487-489 488-489 1320 0 859 464 1363 464 505 1252 505 706 0 1117-455 411-454 411-1235zm-575 169q-6 471-264 752-258 282-683 282-481 0-770-272t-333-766l2050 4z"/>
<path id="al" transform="scale(.0156)" d="m8863 2147v-281l-1229-1228-375 375 729 728h-7622v531h7622l-729 728 375 375 1229-1228z"/>
</defs>
<use xlink:href="#n"/>
<use transform="translate(97.4)" xlink:href="#q"/>
<use transform="translate(159)" xlink:href="#r"/>
<use transform="translate(197)" xlink:href="#d"/>
<use transform="translate(259)" xlink:href="#DejaVuSans-20"/>
<use transform="translate(291)" xlink:href="#al"/>
</g>
</g>
<g clip-path="url(#l)">
<g transform="translate(58.2 82.6) rotate(-90) scale(.1 -.1)">
<defs>
<path id="am" transform="scale(.0156)" d="m313 1866v281l1228 1228 375-375-728-728h7621v-531h-7621l728-728-375-375-1228 1228z"/>
<path id="t" transform="scale(.0156)" d="m603 4863h575v-4863h-575v4863z"/>
<path id="m" transform="scale(.0156)" d="m2834 3397v-544q-243 125-506 187-262 63-544 63-428 0-642-131t-214-394q0-200 153-314t616-217l197-44q612-131 870-370t258-667q0-488-386-773-386-284-1061-284-281 0-586 55t-642 164v594q319-166 628-249 309-82 613-82 406 0 624 139 219 139 219 392 0 234-158 359-157 125-692 241l-200 47q-534 112-772 345-237 233-237 639 0 494 350 762 350 269 994 269 318 0 599-47 282-46 519-140z"/>
</defs>
<use xlink:href="#am"/>
<use transform="translate(143)" xlink:href="#DejaVuSans-20"/>
<use transform="translate(175)" xlink:href="#t"/>
<use transform="translate(203)" xlink:href="#d"/>
<use transform="translate(264)" xlink:href="#m"/>
<use transform="translate(317)" xlink:href="#m"/>
</g>
</g>
<g transform="translate(205 29.7) scale(.12 -.12)">
<defs>
<path id="ah" transform="scale(.0156)" d="m628 4666h2950v-532h-2319v-1381h2222v-531h-2222v-1691h2375v-531h-3006v4666z"/>
<path id="s" transform="scale(.0156)" d="m2375 4863v-479h-550q-309 0-430-125-120-125-120-450v-309h947v-447h-947v-3053h-578v3053h-550v447h550v244q0 584 272 851 272 268 862 268h544z"/>
<path id="u" transform="scale(.0156)" d="m3122 3366v-538q-244 135-489 202t-495 67q-560 0-870-355-309-354-309-995t309-996q310-354 870-354 250 0 495 67t489 202v-532q-241-112-499-168-257-57-548-57-791 0-1257 497-465 497-465 1341 0 856 470 1346 471 491 1290 491 265 0 518-55 253-54 491-163z"/>
<path id="p" transform="scale(.0156)" d="m1172 4494v-994h1184v-447h-1184v-1900q0-428 117-550t477-122h590v-481h-590q-666 0-919 248-253 249-253 905v1900h-422v447h422v994h578z"/>
<path id="aq" transform="scale(.0156)" d="m3116 1747q0 634-261 995t-717 361q-457 0-718-361t-261-995 261-995 718-361q456 0 717 361t261 995zm-1957 1222q182 312 458 463 277 152 661 152 638 0 1036-506 399-506 399-1331t-399-1332q-398-506-1036-506-384 0-661 152-276 152-458 464v-525h-578v4863h578v-1894z"/>
<path id="z" transform="scale(.0156)" d="m544 1381v2119h575v-2097q0-497 193-746 194-248 582-248 465 0 735 297 271 297 271 810v1984h575v-3500h-575v538q-209-319-486-474-276-155-642-155-603 0-916 375-312 375-312 1097zm1447 2203z"/>
<path id="o" transform="scale(.0156)" d="m603 3500h575v-3500h-575v3500zm0 1363h575v-729h-575v729z"/>
<path id="ap" transform="scale(.0156)" d="m2906 2969v1894h575v-4863h-575v525q-181-312-458-464-276-152-664-152-634 0-1033 506-398 507-398 1332t398 1331q399 506 1033 506 388 0 664-152 277-151 458-463zm-1959-1222q0-634 261-995t717-361 718 361q263 361 263 995t-263 995q-262 361-718 361t-717-361-261-995z"/>
<path id="ar" transform="scale(.0156)" d="m269 3500h575l719-2731 715 2731h678l719-2731 716 2731h575l-916-3500h-678l-753 2869-756-2869h-679l-915 3500z"/>
<path id="ag" transform="scale(.0156)" d="m3513 2113v-2113h-575v2094q0 497-194 743-194 247-581 247-466 0-735-297-269-296-269-809v-1978h-578v4863h578v-1907q207 316 486 472 280 156 646 156 603 0 912-373 310-373 310-1098z"/>
<path id="v" transform="scale(.0156)" d="m2194 1759q-697 0-966-159t-269-544q0-306 202-486 202-179 548-179 479 0 768 339t289 901v128h-572zm1147 238v-2e3h-575v531q-197-318-491-470t-719-152q-537 0-855 302-317 302-317 808 0 590 395 890 396 300 1180 300h807v57q0 397-261 614t-733 217q-300 0-585-72-284-72-546-216v532q315 122 612 182 297 61 578 61 760 0 1135-394 375-393 375-1193z"/>
<path id="x" transform="scale(.0156)" d="m3513 2113v-2113h-575v2094q0 497-194 743-194 247-581 247-466 0-735-297-269-296-269-809v-1978h-578v3500h578v-544q207 316 486 472 280 156 646 156 603 0 912-373 310-373 310-1098z"/>
<path id="aa" transform="scale(.0156)" d="m2906 1791q0 625-258 968-257 344-723 344-462 0-720-344-258-343-258-968 0-622 258-966t720-344q466 0 723 344 258 344 258 966zm575-1357q0-893-397-1329-396-436-1215-436-303 0-572 45t-522 139v559q253-137 500-202 247-66 503-66 566 0 847 295t281 892v285q-178-310-456-463t-666-153q-643 0-1037 490-394 491-394 1301 0 812 394 1302 394 491 1037 491 388 0 666-153t456-462v531h575v-3066z"/>
<path id="ad" transform="scale(.0156)" d="m191 3500h609l1094-2937 1094 2937h609l-1313-3500h-781l-1312 3500z"/>
<path id="ae" transform="scale(.0156)" d="m-19 4666h3947v-532h-1656v-4134h-634v4134h-1657v532z"/>
<path id="ak" transform="scale(.0156)" d="m1984 4856q-418-718-622-1422-203-703-203-1425 0-721 205-1429t620-1424h-500q-468 735-701 1444t-233 1409q0 697 231 1403 232 707 703 1444h500z"/>
<path id="aj" transform="scale(.0156)" d="m513 4856h500q468-737 701-1444 233-706 233-1403 0-700-233-1409t-701-1444h-500q415 716 620 1424t205 1429q0 722-205 1425-205 704-620 1422z"/>
</defs>
<use xlink:href="#ah"/>
<use transform="translate(63.2)" xlink:href="#s"/>
<use transform="translate(98.4)" xlink:href="#s"/>
<use transform="translate(134)" xlink:href="#d"/>
<use transform="translate(195)" xlink:href="#u"/>
<use transform="translate(250)" xlink:href="#p"/>
<use transform="translate(289)" xlink:href="#DejaVuSans-20"/>
<use transform="translate(321)" xlink:href="#q"/>
<use transform="translate(382)" xlink:href="#s"/>
<use transform="translate(417)" xlink:href="#DejaVuSans-20"/>
<use transform="translate(449)" xlink:href="#aq"/>
<use transform="translate(513)" xlink:href="#z"/>
<use transform="translate(576)" xlink:href="#o"/>
<use transform="translate(604)" xlink:href="#t"/>
<use transform="translate(632)" xlink:href="#ap"/>
<use transform="translate(695)" xlink:href="#DejaVuSans-20"/>
<use transform="translate(727)" xlink:href="#ar"/>
<use transform="translate(809)" xlink:href="#o"/>
<use transform="translate(837)" xlink:href="#p"/>
<use transform="translate(876)" xlink:href="#ag"/>
<use transform="translate(939)" xlink:href="#DejaVuSans-20"/>
<use transform="translate(971)" xlink:href="#t"/>
<use transform="translate(999)" xlink:href="#v"/>
<use transform="translate(1060)" xlink:href="#p"/>
<use transform="translate(1099)" xlink:href="#d"/>
<use transform="translate(1161)" xlink:href="#m"/>
<use transform="translate(1213)" xlink:href="#p"/>
<use transform="translate(1252)" xlink:href="#DejaVuSans-20"/>
<use transform="translate(1284)" xlink:href="#u"/>
<use transform="translate(1339)" xlink:href="#t"/>
<use transform="translate(1367)" xlink:href="#v"/>
<use transform="translate(1428)" xlink:href="#x"/>
<use transform="translate(1491)" xlink:href="#aa"/>
<use transform="translate(1555)" xlink:href="#DejaVuSans-20"/>
<use transform="translate(1586)" xlink:href="#ad"/>
<use transform="translate(1646)" xlink:href="#m"/>
<use transform="translate(1698)" xlink:href="#c"/>
<use transform="translate(1730)" xlink:href="#DejaVuSans-20"/>
<use transform="translate(1761)" xlink:href="#ae"/>
<use transform="translate(1819)" xlink:href="#o"/>
<use transform="translate(1847)" xlink:href="#d"/>
<use transform="translate(1909)" xlink:href="#r"/>
<use transform="translate(1950)" xlink:href="#DejaVuSans-20"/>
<use transform="translate(1981)" xlink:href="#h"/>
<use transform="translate(2045)" xlink:href="#DejaVuSans-20"/>
<use transform="translate(2077)" xlink:href="#ak"/>
<use transform="translate(2116)" xlink:href="#m"/>
<use transform="translate(2168)" xlink:href="#v"/>
<use transform="translate(2229)" xlink:href="#n"/>
<use transform="translate(2327)" xlink:href="#d"/>
<use transform="translate(2388)" xlink:href="#DejaVuSans-20"/>
<use transform="translate(2420)" xlink:href="#u"/>
<use transform="translate(2475)" xlink:href="#q"/>
<use transform="translate(2536)" xlink:href="#n"/>
<use transform="translate(2634)" xlink:href="#n"/>
<use transform="translate(2731)" xlink:href="#o"/>
<use transform="translate(2759)" xlink:href="#p"/>
<use transform="translate(2798)" xlink:href="#aj"/>
</g>
<path d="m47.6 48.7h4q2 0 2-2v-4q0-2-2-2h-4q-2 0-2 2v4q0 2 2 2z" fill="#fff" opacity=".8" stroke="#ccc"/>
<path d="m40.6 706h668v-316h-668z" fill="#fff"/>
<path d="m101 706v-316" clip-path="url(#e)" fill="none" stroke="#b0b0b0" stroke-linecap="square" stroke-width=".8"/>
<use x="101.303561" y="705.793205" stroke="#000000" stroke-width=".8" xlink:href="#j"/>
<g transform="translate(80.4 720) scale(.1 -.1)">
<defs>
<path id="y" transform="scale(.0156)" d="m313 2009h1684v-512h-1684v512z"/>
</defs>
<use xlink:href="#i"/>
<use transform="translate(63.6)" xlink:href="#b"/>
<use transform="translate(127)" xlink:href="#i"/>
<use transform="translate(191)" xlink:href="#w"/>
<use transform="translate(254)" xlink:href="#y"/>
<use transform="translate(291)" xlink:href="#b"/>
<use transform="translate(354)" xlink:href="#ab"/>
</g>
<path d="m210 706v-316" clip-path="url(#e)" fill="none" stroke="#b0b0b0" stroke-linecap="square" stroke-width=".8"/>
<use x="210.315584" y="705.793205" stroke="#000000" stroke-width=".8" xlink:href="#j"/>
<g transform="translate(189 720) scale(.1 -.1)">
<defs>
<path id="ai" transform="scale(.0156)" d="m703 97v575q238-113 481-172 244-59 479-59 625 0 954 420 330 420 377 1277-181-269-460-413-278-144-615-144-700 0-1108 423-408 424-408 1159 0 718 425 1152 425 435 1131 435 810 0 1236-621 427-620 427-1801 0-1103-524-1761-523-658-1407-658-238 0-482 47-243 47-506 141zm1256 1978q425 0 673 290 249 291 249 798 0 503-249 795-248 292-673 292t-673-292-248-795q0-507 248-798 248-290 673-290z"/>
</defs>
<use xlink:href="#i"/>
<use transform="translate(63.6)" xlink:href="#b"/>
<use transform="translate(127)" xlink:href="#i"/>
<use transform="translate(191)" xlink:href="#w"/>
<use transform="translate(254)" xlink:href="#y"/>
<use transform="translate(291)" xlink:href="#b"/>
<use transform="translate(354)" xlink:href="#ai"/>
</g>
<path d="m316 706v-316" clip-path="url(#e)" fill="none" stroke="#b0b0b0" stroke-linecap="square" stroke-width=".8"/>
<use x="315.811089" y="705.793205" stroke="#000000" stroke-width=".8" xlink:href="#j"/>
<g transform="translate(295 720) scale(.1 -.1)">
<use xlink:href="#i"/>
<use transform="translate(63.6)" xlink:href="#b"/>
<use transform="translate(127)" xlink:href="#i"/>
<use transform="translate(191)" xlink:href="#w"/>
<use transform="translate(254)" xlink:href="#y"/>
<use transform="translate(291)" xlink:href="#h"/>
<use transform="translate(354)" xlink:href="#b"/>
</g>
<path d="m425 706v-316" clip-path="url(#e)" fill="none" stroke="#b0b0b0" stroke-linecap="square" stroke-width=".8"/>
<use x="424.823112" y="705.793205" stroke="#000000" stroke-width=".8" xlink:href="#j"/>
<g transform="translate(404 720) scale(.1 -.1)">
<use xlink:href="#i"/>
<use transform="translate(63.6)" xlink:href="#b"/>
<use transform="translate(127)" xlink:href="#i"/>
<use transform="translate(191)" xlink:href="#w"/>
<use transform="translate(254)" xlink:href="#y"/>
<use transform="translate(291)" xlink:href="#h"/>
<use transform="translate(354)" xlink:href="#h"/>
</g>
<path d="m530 706v-316" clip-path="url(#e)" fill="none" stroke="#b0b0b0" stroke-linecap="square" stroke-width=".8"/>
<use x="530.318618" y="705.793205" stroke="#000000" stroke-width=".8" xlink:href="#j"/>
<g transform="translate(509 720) scale(.1 -.1)">
<use xlink:href="#i"/>
<use transform="translate(63.6)" xlink:href="#b"/>
<use transform="translate(127)" xlink:href="#i"/>
<use transform="translate(191)" xlink:href="#w"/>
<use transform="translate(254)" xlink:href="#y"/>
<use transform="translate(291)" xlink:href="#h"/>
<use transform="translate(354)" xlink:href="#i"/>
</g>
<path d="m639 706v-316" clip-path="url(#e)" fill="none" stroke="#b0b0b0" stroke-linecap="square" stroke-width=".8"/>
<use x="639.33064" y="705.793205" stroke="#000000" stroke-width=".8" xlink:href="#j"/>
<g transform="translate(618 720) scale(.1 -.1)">
<defs>
<path id="ac" transform="scale(.0156)" d="m691 4666h2478v-532h-1900v-1143q137 47 274 70 138 23 276 23 781 0 1237-428 457-428 457-1159 0-753-469-1171-469-417-1322-417-294 0-599 50-304 50-629 150v635q281-153 581-228t634-75q541 0 856 284 316 284 316 772 0 487-316 771-315 285-856 285-253 0-505-56-251-56-513-175v2344z"/>
</defs>
<use xlink:href="#i"/>
<use transform="translate(63.6)" xlink:href="#b"/>
<use transform="translate(127)" xlink:href="#i"/>
<use transform="translate(191)" xlink:href="#ac"/>
<use transform="translate(254)" xlink:href="#y"/>
<use transform="translate(291)" xlink:href="#b"/>
<use transform="translate(354)" xlink:href="#h"/>
</g>
<path d="m40.6 706h668" clip-path="url(#e)" fill="none" stroke="#b0b0b0" stroke-linecap="square" stroke-width=".8"/>
<use x="40.645553" y="705.793205" stroke="#000000" stroke-width=".8" xlink:href="#f"/>
<g transform="translate(3 710) scale(.1 -.1)">
<use xlink:href="#b"/>
<use transform="translate(63.6)" xlink:href="#c"/>
<use transform="translate(95.4)" xlink:href="#ai"/>
<use transform="translate(159)" xlink:href="#b"/>
<use transform="translate(223)" xlink:href="#g"/>
</g>
<path d="m40.6 666h668" clip-path="url(#e)" fill="none" stroke="#b0b0b0" stroke-linecap="square" stroke-width=".8"/>
<use x="40.645553" y="666.351682" stroke="#000000" stroke-width=".8" xlink:href="#f"/>
<g transform="translate(3 670) scale(.1 -.1)">
<use xlink:href="#b"/>
<use transform="translate(63.6)" xlink:href="#c"/>
<use transform="translate(95.4)" xlink:href="#ai"/>
<use transform="translate(159)" xlink:href="#ac"/>
<use transform="translate(223)" xlink:href="#g"/>
</g>
<path d="m40.6 627h668" clip-path="url(#e)" fill="none" stroke="#b0b0b0" stroke-linecap="square" stroke-width=".8"/>
<use x="40.645553" y="626.91016" stroke="#000000" stroke-width=".8" xlink:href="#f"/>
<g transform="translate(3 631) scale(.1 -.1)">
<use xlink:href="#h"/>
<use transform="translate(63.6)" xlink:href="#c"/>
<use transform="translate(95.4)" xlink:href="#b"/>
<use transform="translate(159)" xlink:href="#b"/>
<use transform="translate(223)" xlink:href="#g"/>
</g>
<path d="m40.6 587h668" clip-path="url(#e)" fill="none" stroke="#b0b0b0" stroke-linecap="square" stroke-width=".8"/>
<use x="40.645553" y="587.468637" stroke="#000000" stroke-width=".8" xlink:href="#f"/>
<g transform="translate(3 591) scale(.1 -.1)">
<use xlink:href="#h"/>
<use transform="translate(63.6)" xlink:href="#c"/>
<use transform="translate(95.4)" xlink:href="#b"/>
<use transform="translate(159)" xlink:href="#ac"/>
<use transform="translate(223)" xlink:href="#g"/>
</g>
<path d="m40.6 548h668" clip-path="url(#e)" fill="none" stroke="#b0b0b0" stroke-linecap="square" stroke-width=".8"/>
<use x="40.645553" y="548.027115" stroke="#000000" stroke-width=".8" xlink:href="#f"/>
<g transform="translate(3 552) scale(.1 -.1)">
<use xlink:href="#h"/>
<use transform="translate(63.6)" xlink:href="#c"/>
<use transform="translate(95.4)" xlink:href="#h"/>
<use transform="translate(159)" xlink:href="#b"/>
<use transform="translate(223)" xlink:href="#g"/>
</g>
<path d="m40.6 509h668" clip-path="url(#e)" fill="none" stroke="#b0b0b0" stroke-linecap="square" stroke-width=".8"/>
<use x="40.645553" y="508.585592" stroke="#000000" stroke-width=".8" xlink:href="#f"/>
<g transform="translate(3 512) scale(.1 -.1)">
<use xlink:href="#h"/>
<use transform="translate(63.6)" xlink:href="#c"/>
<use transform="translate(95.4)" xlink:href="#h"/>
<use transform="translate(159)" xlink:href="#ac"/>
<use transform="translate(223)" xlink:href="#g"/>
</g>
<path d="m40.6 469h668" clip-path="url(#e)" fill="none" stroke="#b0b0b0" stroke-linecap="square" stroke-width=".8"/>
<use x="40.645553" y="469.14407" stroke="#000000" stroke-width=".8" xlink:href="#f"/>
<g transform="translate(3 473) scale(.1 -.1)">
<use xlink:href="#h"/>
<use transform="translate(63.6)" xlink:href="#c"/>
<use transform="translate(95.4)" xlink:href="#i"/>
<use transform="translate(159)" xlink:href="#b"/>
<use transform="translate(223)" xlink:href="#g"/>
</g>
<path d="m40.6 430h668" clip-path="url(#e)" fill="none" stroke="#b0b0b0" stroke-linecap="square" stroke-width=".8"/>
<use x="40.645553" y="429.702548" stroke="#000000" stroke-width=".8" xlink:href="#f"/>
<g transform="translate(3 434) scale(.1 -.1)">
<use xlink:href="#h"/>
<use transform="translate(63.6)" xlink:href="#c"/>
<use transform="translate(95.4)" xlink:href="#i"/>
<use transform="translate(159)" xlink:href="#ac"/>
<use transform="translate(223)" xlink:href="#g"/>
</g>
<path d="m40.6 390h668" clip-path="url(#e)" fill="none" stroke="#b0b0b0" stroke-linecap="square" stroke-width=".8"/>
<use x="40.645553" y="390.261025" stroke="#000000" stroke-width=".8" xlink:href="#f"/>
<g transform="translate(3 394) scale(.1 -.1)">
<defs>
<path id="av" transform="scale(.0156)" d="m2597 2516q453-97 707-404 255-306 255-756 0-690-475-1069-475-378-1350-378-293 0-604 58t-642 174v609q262-153 574-231 313-78 654-78 593 0 904 234t311 681q0 413-289 645-289 233-804 233h-544v519h569q465 0 712 186t247 536q0 359-255 551-254 193-729 193-260 0-557-57-297-56-653-174v562q360 100 674 150t592 50q719 0 1137-327 419-326 419-882 0-388-222-655t-631-370z"/>
</defs>
<use xlink:href="#h"/>
<use transform="translate(63.6)" xlink:href="#c"/>
<use transform="translate(95.4)" xlink:href="#av"/>
<use transform="translate(159)" xlink:href="#b"/>
<use transform="translate(223)" xlink:href="#g"/>
</g>
<path d="m71 509 16.7 7.89h25.1 13.8 0.0225 0.335l10.3-7.89h24.6 24.8l24.7 7.89h19.9 1.08 3.15l24.6-7.89 20.4 7.89 19.9 31.6 0.0369-7.89 9.5-31.6 6.39 23.7 74.5-23.7h3.24l45.7-23.7h3.97 3.32l3.59 7.89 2.6-7.89 4.43-7.89 3.33 7.89h3.87 3.11 3.86 3.61 3.34 3.66 3.46l3.58-7.89 3.1 7.89h3.75 3.76 3.44 3.17 3.67 3.35l3.55-7.89 3.78 7.89h2.56 4.1 3.16l3.64-7.89 4.1 7.89 3.64-7.89 3.53 7.89 3.11-7.89 3.52 7.89h2.98 3.63 3.48l4.34-7.89h3.39 3.3l3 7.89h3.1 4.67l3.18-7.89h3.85 2.39 4.7l2.94 7.89h6.94 3.85 3.11 3.4 4.13 3.55 3.36 3.67l3.33-7.89 3.59 7.89 3.64-7.89 3.06 7.89 3.92-7.89 3.79 7.89h3.27l3.76-7.89h3.23l3.8 7.89h2.95 4.29 2.7" clip-path="url(#e)" fill="none" stroke="#1f77b4" stroke-linecap="square" stroke-opacity=".9" stroke-width="1.5"/>
<defs>
<path id="a" d="m-2.5 2.5h5v-5h-5z" stroke="#1f77b4" stroke-opacity=".9"/>
</defs>
<g clip-path="url(#e)" fill="#1f77b4" fill-opacity=".9" stroke="#1f77b4" stroke-opacity=".9">
<use x="71.027491" y="508.585593" xlink:href="#a"/>
<use x="87.759192" y="516.473897" xlink:href="#a"/>
<use x="112.868466" y="516.473897" xlink:href="#a"/>
<use x="126.702947" y="516.473897" xlink:href="#a"/>
<use x="126.725455" y="516.473897" xlink:href="#a"/>
<use x="127.060216" y="516.473897" xlink:href="#a"/>
<use x="137.399834" y="508.585593" xlink:href="#a"/>
<use x="161.958837" y="508.585593" xlink:href="#a"/>
<use x="186.712226" y="508.585593" xlink:href="#a"/>
<use x="211.382953" y="516.473897" xlink:href="#a"/>
<use x="231.248912" y="516.473897" xlink:href="#a"/>
<use x="232.331299" y="516.473897" xlink:href="#a"/>
<use x="235.485379" y="516.473897" xlink:href="#a"/>
<use x="260.059442" y="508.585593" xlink:href="#a"/>
<use x="280.445227" y="516.473897" xlink:href="#a"/>
<use x="300.307361" y="548.027115" xlink:href="#a"/>
<use x="300.344235" y="540.13881" xlink:href="#a"/>
<use x="309.842087" y="508.585593" xlink:href="#a"/>
<use x="316.228106" y="532.250506" xlink:href="#a"/>
<use x="390.775211" y="508.585593" xlink:href="#a"/>
<use x="394.010528" y="508.585593" xlink:href="#a"/>
<use x="439.739371" y="484.920679" xlink:href="#a"/>
<use x="443.709494" y="484.920679" xlink:href="#a"/>
<use x="447.030323" y="484.920679" xlink:href="#a"/>
<use x="450.618676" y="492.808984" xlink:href="#a"/>
<use x="453.218619" y="484.920679" xlink:href="#a"/>
<use x="457.64768" y="477.032375" xlink:href="#a"/>
<use x="460.977138" y="484.920679" xlink:href="#a"/>
<use x="464.851981" y="484.920679" xlink:href="#a"/>
<use x="467.958238" y="484.920679" xlink:href="#a"/>
<use x="471.82022" y="484.920679" xlink:href="#a"/>
<use x="475.428801" y="484.920679" xlink:href="#a"/>
<use x="478.765219" y="484.920679" xlink:href="#a"/>
<use x="482.424187" y="484.920679" xlink:href="#a"/>
<use x="485.882747" y="484.920679" xlink:href="#a"/>
<use x="489.46646" y="477.032375" xlink:href="#a"/>
<use x="492.563681" y="484.920679" xlink:href="#a"/>
<use x="496.312923" y="484.920679" xlink:href="#a"/>
<use x="500.07702" y="484.920679" xlink:href="#a"/>
<use x="503.512136" y="484.920679" xlink:href="#a"/>
<use x="506.682292" y="484.920679" xlink:href="#a"/>
<use x="510.349767" y="484.920679" xlink:href="#a"/>
<use x="513.698232" y="484.920679" xlink:href="#a"/>
<use x="517.244257" y="477.032375" xlink:href="#a"/>
<use x="521.021582" y="484.920679" xlink:href="#a"/>
<use x="523.586319" y="484.920679" xlink:href="#a"/>
<use x="527.690143" y="484.920679" xlink:href="#a"/>
<use x="530.855008" y="484.920679" xlink:href="#a"/>
<use x="534.493138" y="477.032375" xlink:href="#a"/>
<use x="538.598061" y="484.920679" xlink:href="#a"/>
<use x="542.235743" y="477.032375" xlink:href="#a"/>
<use x="545.764674" y="484.920679" xlink:href="#a"/>
<use x="548.87732" y="477.032375" xlink:href="#a"/>
<use x="552.393918" y="484.920679" xlink:href="#a"/>
<use x="555.370625" y="484.920679" xlink:href="#a"/>
<use x="559.004034" y="484.920679" xlink:href="#a"/>
<use x="562.483432" y="484.920679" xlink:href="#a"/>
<use x="566.826697" y="477.032375" xlink:href="#a"/>
<use x="570.217327" y="477.032375" xlink:href="#a"/>
<use x="573.51569" y="477.032375" xlink:href="#a"/>
<use x="576.515067" y="484.920679" xlink:href="#a"/>
<use x="579.612898" y="484.920679" xlink:href="#a"/>
<use x="584.280098" y="484.920679" xlink:href="#a"/>
<use x="587.46104" y="477.032375" xlink:href="#a"/>
<use x="591.313457" y="477.032375" xlink:href="#a"/>
<use x="593.700211" y="477.032375" xlink:href="#a"/>
<use x="598.399116" y="477.032375" xlink:href="#a"/>
<use x="601.335082" y="484.920679" xlink:href="#a"/>
<use x="608.272348" y="484.920679" xlink:href="#a"/>
<use x="612.121062" y="484.920679" xlink:href="#a"/>
<use x="615.226504" y="484.920679" xlink:href="#a"/>
<use x="618.62731" y="484.920679" xlink:href="#a"/>
<use x="622.758118" y="484.920679" xlink:href="#a"/>
<use x="626.312242" y="484.920679" xlink:href="#a"/>
<use x="629.673813" y="484.920679" xlink:href="#a"/>
<use x="633.34084" y="484.920679" xlink:href="#a"/>
<use x="636.673879" y="477.032375" xlink:href="#a"/>
<use x="640.264837" y="484.920679" xlink:href="#a"/>
<use x="643.90085" y="477.032375" xlink:href="#a"/>
<use x="646.956842" y="484.920679" xlink:href="#a"/>
<use x="650.87845" y="477.032375" xlink:href="#a"/>
<use x="654.663549" y="484.920679" xlink:href="#a"/>
<use x="657.935253" y="484.920679" xlink:href="#a"/>
<use x="661.696542" y="477.032375" xlink:href="#a"/>
<use x="664.929417" y="477.032375" xlink:href="#a"/>
<use x="668.727825" y="484.920679" xlink:href="#a"/>
<use x="671.676693" y="484.920679" xlink:href="#a"/>
<use x="675.968838" y="484.920679" xlink:href="#a"/>
<use x="678.666259" y="484.920679" xlink:href="#a"/>
</g>
<g stroke="#1f77b4" stroke-opacity=".9">
<path d="m232 501 48.1 174 29.4-174h22.5l26.5-7.89 21.3-7.89h3.47 3.42l3.74-7.89 3.24 7.89h3.92 3.57 2.7 4.02 3.55 3.51l3.86-7.89h3.52 3.15 3.73l2.64 7.89h4.13l3.43-15.8h3.97l3.32-7.89h1.79 1.79 2.6l1.58 7.89 2.85-7.89 3.33 7.89h3.87 3.11 3.86 3.61 3.34l3.66-7.89h0.265l3.19 7.89 3.58-23.7 3.1 23.7 3.75-7.89 3 15.8h0.766 2.86 0.576 3.17 3.67 3.35 3.55 2.56 1.22 2.56 3.41 0.691 3.16 3.64 4.1 3.64 2.66 0.865 3.11 1.01 2.51 2.98 1.76l1.88 7.89 3.48-7.89h4.34 1.95 0.609 0.832l1.77-7.89 1.53 7.89h2.72 0.282 3.1 4.67 3.18 3.85 1.02 1.37 4.7l2.94 7.89 6.94-7.89h3.85 3.11 3.4 4.13 3.55 3.36 3.67l3.33-7.89 3.59 7.89h3.64 3.06 3.92 3.79 3.27l3.76-7.89 3.23 7.89 6.75-7.89 2.95 7.89h1.34 2.7" clip-path="url(#e)" fill="none" stroke-dasharray="1.5,2.475" stroke-width="1.5"/>
<g clip-path="url(#e)" fill="#1f77b4" fill-opacity=".9">
<use x="232.331299" y="500.697288" xlink:href="#a"/>
<use x="280.445227" y="674.239987" xlink:href="#a"/>
<use x="309.842087" y="500.697288" xlink:href="#a"/>
<use x="332.360046" y="500.697288" xlink:href="#a"/>
<use x="358.882194" y="492.808984" xlink:href="#a"/>
<use x="380.146742" y="484.920679" xlink:href="#a"/>
<use x="383.618692" y="484.920679" xlink:href="#a"/>
<use x="387.040133" y="484.920679" xlink:href="#a"/>
<use x="390.775211" y="477.032375" xlink:href="#a"/>
<use x="394.010528" y="484.920679" xlink:href="#a"/>
<use x="397.931323" y="484.920679" xlink:href="#a"/>
<use x="401.504861" y="484.920679" xlink:href="#a"/>
<use x="404.200572" y="484.920679" xlink:href="#a"/>
<use x="408.2186" y="484.920679" xlink:href="#a"/>
<use x="411.772439" y="484.920679" xlink:href="#a"/>
<use x="415.282851" y="484.920679" xlink:href="#a"/>
<use x="419.140966" y="477.032375" xlink:href="#a"/>
<use x="422.656099" y="477.032375" xlink:href="#a"/>
<use x="425.811074" y="477.032375" xlink:href="#a"/>
<use x="429.538582" y="477.032375" xlink:href="#a"/>
<use x="432.176539" y="484.920679" xlink:href="#a"/>
<use x="436.307511" y="484.920679" xlink:href="#a"/>
<use x="439.739371" y="469.14407" xlink:href="#a"/>
<use x="443.709494" y="469.14407" xlink:href="#a"/>
<use x="447.030323" y="461.255766" xlink:href="#a"/>
<use x="448.824438" y="461.255766" xlink:href="#a"/>
<use x="450.618676" y="461.255766" xlink:href="#a"/>
<use x="453.218619" y="461.255766" xlink:href="#a"/>
<use x="454.800319" y="469.14407" xlink:href="#a"/>
<use x="457.64768" y="461.255766" xlink:href="#a"/>
<use x="460.977138" y="469.14407" xlink:href="#a"/>
<use x="464.851981" y="469.14407" xlink:href="#a"/>
<use x="467.958238" y="469.14407" xlink:href="#a"/>
<use x="471.82022" y="469.14407" xlink:href="#a"/>
<use x="475.428801" y="469.14407" xlink:href="#a"/>
<use x="478.765219" y="469.14407" xlink:href="#a"/>
<use x="482.424187" y="461.255766" xlink:href="#a"/>
<use x="482.689391" y="461.255766" xlink:href="#a"/>
<use x="485.882747" y="469.14407" xlink:href="#a"/>
<use x="489.46646" y="445.479157" xlink:href="#a"/>
<use x="492.563681" y="469.14407" xlink:href="#a"/>
<use x="496.312923" y="461.255766" xlink:href="#a"/>
<use x="499.310631" y="477.032375" xlink:href="#a"/>
<use x="500.07702" y="477.032375" xlink:href="#a"/>
<use x="502.936388" y="477.032375" xlink:href="#a"/>
<use x="503.512136" y="477.032375" xlink:href="#a"/>
<use x="506.682292" y="477.032375" xlink:href="#a"/>
<use x="510.349767" y="477.032375" xlink:href="#a"/>
<use x="513.698232" y="477.032375" xlink:href="#a"/>
<use x="517.244257" y="477.032375" xlink:href="#a"/>
<use x="519.80525" y="477.032375" xlink:href="#a"/>
<use x="521.021582" y="477.032375" xlink:href="#a"/>
<use x="523.586319" y="477.032375" xlink:href="#a"/>
<use x="526.999091" y="477.032375" xlink:href="#a"/>
<use x="527.690143" y="477.032375" xlink:href="#a"/>
<use x="530.855008" y="477.032375" xlink:href="#a"/>
<use x="534.493138" y="477.032375" xlink:href="#a"/>
<use x="538.598061" y="477.032375" xlink:href="#a"/>
<use x="542.235743" y="477.032375" xlink:href="#a"/>
<use x="544.899586" y="477.032375" xlink:href="#a"/>
<use x="545.764674" y="477.032375" xlink:href="#a"/>
<use x="548.87732" y="477.032375" xlink:href="#a"/>
<use x="549.886691" y="477.032375" xlink:href="#a"/>
<use x="552.393918" y="477.032375" xlink:href="#a"/>
<use x="555.370625" y="477.032375" xlink:href="#a"/>
<use x="557.125628" y="477.032375" xlink:href="#a"/>
<use x="559.004034" y="484.920679" xlink:href="#a"/>
<use x="562.483432" y="477.032375" xlink:href="#a"/>
<use x="566.826697" y="477.032375" xlink:href="#a"/>
<use x="568.77641" y="477.032375" xlink:href="#a"/>
<use x="569.385248" y="477.032375" xlink:href="#a"/>
<use x="570.217327" y="477.032375" xlink:href="#a"/>
<use x="571.985272" y="469.14407" xlink:href="#a"/>
<use x="573.51569" y="477.032375" xlink:href="#a"/>
<use x="576.233013" y="477.032375" xlink:href="#a"/>
<use x="576.515067" y="477.032375" xlink:href="#a"/>
<use x="579.612898" y="477.032375" xlink:href="#a"/>
<use x="584.280098" y="477.032375" xlink:href="#a"/>
<use x="587.46104" y="477.032375" xlink:href="#a"/>
<use x="591.313457" y="477.032375" xlink:href="#a"/>
<use x="592.332067" y="477.032375" xlink:href="#a"/>
<use x="593.700211" y="477.032375" xlink:href="#a"/>
<use x="598.399116" y="477.032375" xlink:href="#a"/>
<use x="601.335082" y="484.920679" xlink:href="#a"/>
<use x="608.272348" y="477.032375" xlink:href="#a"/>
<use x="612.121062" y="477.032375" xlink:href="#a"/>
<use x="615.226504" y="477.032375" xlink:href="#a"/>
<use x="618.62731" y="477.032375" xlink:href="#a"/>
<use x="622.758118" y="477.032375" xlink:href="#a"/>
<use x="626.312242" y="477.032375" xlink:href="#a"/>
<use x="629.673813" y="477.032375" xlink:href="#a"/>
<use x="633.34084" y="477.032375" xlink:href="#a"/>
<use x="636.673879" y="469.14407" xlink:href="#a"/>
<use x="640.264837" y="477.032375" xlink:href="#a"/>
<use x="643.90085" y="477.032375" xlink:href="#a"/>
<use x="646.956842" y="477.032375" xlink:href="#a"/>
<use x="650.87845" y="477.032375" xlink:href="#a"/>
<use x="654.663549" y="477.032375" xlink:href="#a"/>
<use x="657.935253" y="477.032375" xlink:href="#a"/>
<use x="661.696542" y="469.14407" xlink:href="#a"/>
<use x="664.929417" y="477.032375" xlink:href="#a"/>
<use x="671.676693" y="469.14407" xlink:href="#a"/>
<use x="674.629509" y="477.032375" xlink:href="#a"/>
<use x="675.968838" y="477.032375" xlink:href="#a"/>
<use x="678.666259" y="477.032375" xlink:href="#a"/>
</g>
</g>
<path d="m40.6 706v-316" fill="none" stroke="#000" stroke-linecap="square" stroke-width=".8"/>
<path d="m709 706v-316" fill="none" stroke="#000" stroke-linecap="square" stroke-width=".8"/>
<path d="m40.6 706h668" fill="none" stroke="#000" stroke-linecap="square" stroke-width=".8"/>
<path d="m40.6 390h668" fill="none" stroke="#000" stroke-linecap="square" stroke-width=".8"/>
<g clip-path="url(#e)">
<g transform="translate(58.2 619) rotate(-90) scale(.1 -.1)">
<use xlink:href="#n"/>
<use transform="translate(97.4)" xlink:href="#q"/>
<use transform="translate(159)" xlink:href="#r"/>
<use transform="translate(197)" xlink:href="#d"/>
<use transform="translate(259)" xlink:href="#DejaVuSans-20"/>
<use transform="translate(291)" xlink:href="#al"/>
</g>
</g>
<g clip-path="url(#e)">
<g transform="translate(58.2 674) rotate(-90) scale(.1 -.1)">
<use xlink:href="#am"/>
<use transform="translate(143)" xlink:href="#DejaVuSans-20"/>
<use transform="translate(175)" xlink:href="#t"/>
<use transform="translate(203)" xlink:href="#d"/>
<use transform="translate(264)" xlink:href="#m"/>
<use transform="translate(317)" xlink:href="#m"/>
</g>
</g>
<g transform="translate(228 384) scale(.12 -.12)">
<use xlink:href="#ah"/>
<use transform="translate(63.2)" xlink:href="#s"/>
<use transform="translate(98.4)" xlink:href="#s"/>
<use transform="translate(134)" xlink:href="#d"/>
<use transform="translate(195)" xlink:href="#u"/>
<use transform="translate(250)" xlink:href="#p"/>
<use transform="translate(289)" xlink:href="#DejaVuSans-20"/>
<use transform="translate(321)" xlink:href="#q"/>
<use transform="translate(382)" xlink:href="#s"/>
<use transform="translate(417)" xlink:href="#DejaVuSans-20"/>
<use transform="translate(449)" xlink:href="#s"/>
<use transform="translate(484)" xlink:href="#r"/>
<use transform="translate(523)" xlink:href="#d"/>
<use transform="translate(585)" xlink:href="#d"/>
<use transform="translate(646)" xlink:href="#DejaVuSans-20"/>
<use transform="translate(678)" xlink:href="#p"/>
<use transform="translate(717)" xlink:href="#ag"/>
<use transform="translate(781)" xlink:href="#r"/>
<use transform="translate(820)" xlink:href="#d"/>
<use transform="translate(881)" xlink:href="#v"/>
<use transform="translate(942)" xlink:href="#ap"/>
<use transform="translate(1006)" xlink:href="#o"/>
<use transform="translate(1034)" xlink:href="#x"/>
<use transform="translate(1097)" xlink:href="#aa"/>
<use transform="translate(1161)" xlink:href="#DejaVuSans-20"/>
<use transform="translate(1192)" xlink:href="#ad"/>
<use transform="translate(1252)" xlink:href="#m"/>
<use transform="translate(1304)" xlink:href="#c"/>
<use transform="translate(1335)" xlink:href="#DejaVuSans-20"/>
<use transform="translate(1367)" xlink:href="#ae"/>
<use transform="translate(1425)" xlink:href="#o"/>
<use transform="translate(1453)" xlink:href="#d"/>
<use transform="translate(1514)" xlink:href="#r"/>
<use transform="translate(1556)" xlink:href="#DejaVuSans-20"/>
<use transform="translate(1587)" xlink:href="#h"/>
<use transform="translate(1651)" xlink:href="#DejaVuSans-20"/>
<use transform="translate(1683)" xlink:href="#ak"/>
<use transform="translate(1722)" xlink:href="#m"/>
<use transform="translate(1774)" xlink:href="#v"/>
<use transform="translate(1835)" xlink:href="#n"/>
<use transform="translate(1933)" xlink:href="#d"/>
<use transform="translate(1994)" xlink:href="#DejaVuSans-20"/>
<use transform="translate(2026)" xlink:href="#u"/>
<use transform="translate(2081)" xlink:href="#q"/>
<use transform="translate(2142)" xlink:href="#n"/>
<use transform="translate(2239)" xlink:href="#n"/>
<use transform="translate(2337)" xlink:href="#o"/>
<use transform="translate(2365)" xlink:href="#p"/>
<use transform="translate(2404)" xlink:href="#aj"/>
</g>
<path d="m47.6 428h82.6q2 0 2-2v-28.4q0-2-2-2h-82.6q-2 0-2 2v28.4q0 2 2 2z" fill="#fff" opacity=".8" stroke="#ccc"/>
<path d="m49.6 403h10 10" fill="none" stroke="#1f77b4" stroke-linecap="square" stroke-opacity=".9" stroke-width="1.5"/>
<use x="59.645553" y="403.359463" fill="#1f77b4" fill-opacity=".9" stroke="#1f77b4" stroke-opacity=".9" xlink:href="#a"/>
<g transform="translate(77.6 407) scale(.1 -.1)">
<defs>
<path id="ao" transform="scale(.0156)" d="m3513 3500-1266-1703 1331-1797h-678l-1019 1375-1018-1375h-679l1360 1831-1244 1669h678l928-1247 928 1247h679z"/>
</defs>
<use xlink:href="#t"/>
<use transform="translate(27.8)" xlink:href="#o"/>
<use transform="translate(55.6)" xlink:href="#x"/>
<use transform="translate(119)" xlink:href="#z"/>
<use transform="translate(182)" xlink:href="#ao"/>
</g>
<path d="m49.6 418h10 10" fill="none" stroke="#1f77b4" stroke-dasharray="1.5,2.475" stroke-opacity=".9" stroke-width="1.5"/>
<use x="59.645553" y="418.037588" fill="#1f77b4" fill-opacity=".9" stroke="#1f77b4" stroke-opacity=".9" xlink:href="#a"/>
<g transform="translate(77.6 422) scale(.1 -.1)">
<use xlink:href="#t"/>
<use transform="translate(27.8)" xlink:href="#o"/>
<use transform="translate(55.6)" xlink:href="#x"/>
<use transform="translate(119)" xlink:href="#z"/>
<use transform="translate(182)" xlink:href="#ao"/>
<use transform="translate(242)" xlink:href="#y"/>
<use transform="translate(275)" xlink:href="#ad"/>
<use transform="translate(334)" xlink:href="#z"/>
<use transform="translate(398)" xlink:href="#t"/>
<use transform="translate(425)" xlink:href="#p"/>
<use transform="translate(465)" xlink:href="#r"/>
</g>
<path d="m40.6 1060h668v-316h-668z" fill="#fff"/>
<path d="m40.6 1060v-316" clip-path="url(#k)" fill="none" stroke="#b0b0b0" stroke-linecap="square" stroke-width=".8"/>
<use x="40.645553" y="1060.321635" stroke="#000000" stroke-width=".8" xlink:href="#j"/>
<g transform="translate(32.7 1075) scale(.1 -.1)">
<use xlink:href="#b"/>
<use transform="translate(63.6)" xlink:href="#c"/>
<use transform="translate(95.4)" xlink:href="#b"/>
</g>
<path d="m174 1060v-316" clip-path="url(#k)" fill="none" stroke="#b0b0b0" stroke-linecap="square" stroke-width=".8"/>
<use x="174.326081" y="1060.321635" stroke="#000000" stroke-width=".8" xlink:href="#j"/>
<g transform="translate(166 1075) scale(.1 -.1)">
<use xlink:href="#b"/>
<use transform="translate(63.6)" xlink:href="#c"/>
<use transform="translate(95.4)" xlink:href="#i"/>
</g>
<path d="m308 1060v-316" clip-path="url(#k)" fill="none" stroke="#b0b0b0" stroke-linecap="square" stroke-width=".8"/>
<use x="308.00661" y="1060.321635" stroke="#000000" stroke-width=".8" xlink:href="#j"/>
<g transform="translate(300 1075) scale(.1 -.1)">
<use xlink:href="#b"/>
<use transform="translate(63.6)" xlink:href="#c"/>
<use transform="translate(95.4)" xlink:href="#w"/>
</g>
<path d="m442 1060v-316" clip-path="url(#k)" fill="none" stroke="#b0b0b0" stroke-linecap="square" stroke-width=".8"/>
<use x="441.68714" y="1060.321635" stroke="#000000" stroke-width=".8" xlink:href="#j"/>
<g transform="translate(434 1075) scale(.1 -.1)">
<use xlink:href="#b"/>
<use transform="translate(63.6)" xlink:href="#c"/>
<use transform="translate(95.4)" xlink:href="#af"/>
</g>
<path d="m575 1060v-316" clip-path="url(#k)" fill="none" stroke="#b0b0b0" stroke-linecap="square" stroke-width=".8"/>
<use x="575.367668" y="1060.321635" stroke="#000000" stroke-width=".8" xlink:href="#j"/>
<g transform="translate(567 1075) scale(.1 -.1)">
<use xlink:href="#b"/>
<use transform="translate(63.6)" xlink:href="#c"/>
<use transform="translate(95.4)" xlink:href="#ab"/>
</g>
<path d="m709 1060v-316" clip-path="url(#k)" fill="none" stroke="#b0b0b0" stroke-linecap="square" stroke-width=".8"/>
<use x="709.048197" y="1060.321635" stroke="#000000" stroke-width=".8" xlink:href="#j"/>
<g transform="translate(701 1075) scale(.1 -.1)">
<use xlink:href="#h"/>
<use transform="translate(63.6)" xlink:href="#c"/>
<use transform="translate(95.4)" xlink:href="#b"/>
</g>
<path d="m40.6 1060h668" clip-path="url(#k)" fill="none" stroke="#b0b0b0" stroke-linecap="square" stroke-width=".8"/>
<use x="40.645553" y="1060.321635" stroke="#000000" stroke-width=".8" xlink:href="#f"/>
<g transform="translate(3 1064) scale(.1 -.1)">
<use xlink:href="#b"/>
<use transform="translate(63.6)" xlink:href="#c"/>
<use transform="translate(95.4)" xlink:href="#b"/>
<use transform="translate(159)" xlink:href="#b"/>
<use transform="translate(223)" xlink:href="#g"/>
</g>
<path d="m40.6 997h668" clip-path="url(#k)" fill="none" stroke="#b0b0b0" stroke-linecap="square" stroke-width=".8"/>
<use x="40.645553" y="997.215199" stroke="#000000" stroke-width=".8" xlink:href="#f"/>
<g transform="translate(3 1e3) scale(.1 -.1)">
<use xlink:href="#b"/>
<use transform="translate(63.6)" xlink:href="#c"/>
<use transform="translate(95.4)" xlink:href="#i"/>
<use transform="translate(159)" xlink:href="#b"/>
<use transform="translate(223)" xlink:href="#g"/>
</g>
<path d="m40.6 934h668" clip-path="url(#k)" fill="none" stroke="#b0b0b0" stroke-linecap="square" stroke-width=".8"/>
<use x="40.645553" y="934.108763" stroke="#000000" stroke-width=".8" xlink:href="#f"/>
<g transform="translate(3 938) scale(.1 -.1)">
<use xlink:href="#b"/>
<use transform="translate(63.6)" xlink:href="#c"/>
<use transform="translate(95.4)" xlink:href="#w"/>
<use transform="translate(159)" xlink:href="#b"/>
<use transform="translate(223)" xlink:href="#g"/>
</g>
<path d="m40.6 871h668" clip-path="url(#k)" fill="none" stroke="#b0b0b0" stroke-linecap="square" stroke-width=".8"/>
<use x="40.645553" y="871.002327" stroke="#000000" stroke-width=".8" xlink:href="#f"/>
<g transform="translate(3 875) scale(.1 -.1)">
<use xlink:href="#b"/>
<use transform="translate(63.6)" xlink:href="#c"/>
<use transform="translate(95.4)" xlink:href="#af"/>
<use transform="translate(159)" xlink:href="#b"/>
<use transform="translate(223)" xlink:href="#g"/>
</g>
<path d="m40.6 808h668" clip-path="url(#k)" fill="none" stroke="#b0b0b0" stroke-linecap="square" stroke-width=".8"/>
<use x="40.645553" y="807.895891" stroke="#000000" stroke-width=".8" xlink:href="#f"/>
<g transform="translate(3 812) scale(.1 -.1)">
<use xlink:href="#b"/>
<use transform="translate(63.6)" xlink:href="#c"/>
<use transform="translate(95.4)" xlink:href="#ab"/>
<use transform="translate(159)" xlink:href="#b"/>
<use transform="translate(223)" xlink:href="#g"/>
</g>
<path d="m40.6 745h668" clip-path="url(#k)" fill="none" stroke="#b0b0b0" stroke-linecap="square" stroke-width=".8"/>
<use x="40.645553" y="744.789455" stroke="#000000" stroke-width=".8" xlink:href="#f"/>
<g transform="translate(3 749) scale(.1 -.1)">
<use xlink:href="#h"/>
<use transform="translate(63.6)" xlink:href="#c"/>
<use transform="translate(95.4)" xlink:href="#b"/>
<use transform="translate(159)" xlink:href="#b"/>
<use transform="translate(223)" xlink:href="#g"/>
</g>
<path d="m40.6 1060v-316" fill="none" stroke="#000" stroke-linecap="square" stroke-width=".8"/>
<path d="m709 1060v-316" fill="none" stroke="#000" stroke-linecap="square" stroke-width=".8"/>
<path d="m40.6 1060h668" fill="none" stroke="#000" stroke-linecap="square" stroke-width=".8"/>
<path d="m40.6 745h668" fill="none" stroke="#000" stroke-linecap="square" stroke-width=".8"/>
<g clip-path="url(#k)">
<g transform="translate(58.2 737) rotate(-90) scale(.1 -.1)">
<use xlink:href="#n"/>
<use transform="translate(97.4)" xlink:href="#q"/>
<use transform="translate(159)" xlink:href="#r"/>
<use transform="translate(197)" xlink:href="#d"/>
<use transform="translate(259)" xlink:href="#DejaVuSans-20"/>
<use transform="translate(291)" xlink:href="#al"/>
</g>
</g>
<g clip-path="url(#k)">
<g transform="translate(58.2 792) rotate(-90) scale(.1 -.1)">
<use xlink:href="#am"/>
<use transform="translate(143)" xlink:href="#DejaVuSans-20"/>
<use transform="translate(175)" xlink:href="#t"/>
<use transform="translate(203)" xlink:href="#d"/>
<use transform="translate(264)" xlink:href="#m"/>
<use transform="translate(317)" xlink:href="#m"/>
</g>
</g>
<g transform="translate(264 739) scale(.12 -.12)">
<defs>
<path id="at" transform="scale(.0156)" d="m628 4666h631v-4341q0-844-320-1225t-1030-381h-240v531h197q418 0 590 235 172 234 172 840v4341z"/>
<path id="au" transform="scale(.0156)" d="m628 4666h631v-4666h-631v4666z"/>
</defs>
<use xlink:href="#ah"/>
<use transform="translate(63.2)" xlink:href="#s"/>
<use transform="translate(98.4)" xlink:href="#s"/>
<use transform="translate(134)" xlink:href="#d"/>
<use transform="translate(195)" xlink:href="#u"/>
<use transform="translate(250)" xlink:href="#p"/>
<use transform="translate(289)" xlink:href="#DejaVuSans-20"/>
<use transform="translate(321)" xlink:href="#q"/>
<use transform="translate(382)" xlink:href="#s"/>
<use transform="translate(417)" xlink:href="#DejaVuSans-20"/>
<use transform="translate(449)" xlink:href="#at"/>
<use transform="translate(479)" xlink:href="#au"/>
<use transform="translate(508)" xlink:href="#ae"/>
<use transform="translate(569)" xlink:href="#DejaVuSans-20"/>
<use transform="translate(601)" xlink:href="#ad"/>
<use transform="translate(660)" xlink:href="#m"/>
<use transform="translate(712)" xlink:href="#c"/>
<use transform="translate(744)" xlink:href="#DejaVuSans-20"/>
<use transform="translate(776)" xlink:href="#ae"/>
<use transform="translate(834)" xlink:href="#o"/>
<use transform="translate(862)" xlink:href="#d"/>
<use transform="translate(923)" xlink:href="#r"/>
<use transform="translate(964)" xlink:href="#DejaVuSans-20"/>
<use transform="translate(996)" xlink:href="#h"/>
<use transform="translate(1060)" xlink:href="#DejaVuSans-20"/>
<use transform="translate(1092)" xlink:href="#ak"/>
<use transform="translate(1131)" xlink:href="#m"/>
<use transform="translate(1183)" xlink:href="#v"/>
<use transform="translate(1244)" xlink:href="#n"/>
<use transform="translate(1341)" xlink:href="#d"/>
<use transform="translate(1403)" xlink:href="#DejaVuSans-20"/>
<use transform="translate(1435)" xlink:href="#u"/>
<use transform="translate(1490)" xlink:href="#q"/>
<use transform="translate(1551)" xlink:href="#n"/>
<use transform="translate(1648)" xlink:href="#n"/>
<use transform="translate(1746)" xlink:href="#o"/>
<use transform="translate(1773)" xlink:href="#p"/>
<use transform="translate(1813)" xlink:href="#aj"/>
</g>
<path d="m47.6 758h4q2 0 2-2v-4q0-2-2-2h-4q-2 0-2 2v4q0 2 2 2z" fill="#fff" opacity=".8" stroke="#ccc"/>
<g transform="translate(241 12.1) scale(.12 -.12)">
<defs>
<path id="as" transform="scale(.0156)" d="m628 4666h941l1190-3175 1197 3175h941v-4666h-616v4097l-1203-3200h-634l-1203 3200v-4097h-613v4666z"/>
<path id="an" transform="scale(.0156)" d="m2059-325q-243-625-475-815-231-191-618-191h-460v481h338q237 0 368 113 132 112 291 531l103 262-1415 3444h609l1094-2737 1094 2737h609l-1538-3825z"/>
</defs>
<use xlink:href="#as"/>
<use transform="translate(86.3)" xlink:href="#d"/>
<use transform="translate(148)" xlink:href="#n"/>
<use transform="translate(245)" xlink:href="#q"/>
<use transform="translate(306)" xlink:href="#r"/>
<use transform="translate(348)" xlink:href="#an"/>
<use transform="translate(407)" xlink:href="#DejaVuSans-20"/>
<use transform="translate(438)" xlink:href="#z"/>
<use transform="translate(502)" xlink:href="#m"/>
<use transform="translate(554)" xlink:href="#v"/>
<use transform="translate(615)" xlink:href="#aa"/>
<use transform="translate(679)" xlink:href="#d"/>
<use transform="translate(740)" xlink:href="#DejaVuSans-20"/>
<use transform="translate(772)" xlink:href="#u"/>
<use transform="translate(827)" xlink:href="#ag"/>
<use transform="translate(890)" xlink:href="#v"/>
<use transform="translate(952)" xlink:href="#x"/>
<use transform="translate(1015)" xlink:href="#aa"/>
<use transform="translate(1079)" xlink:href="#d"/>
<use transform="translate(1140)" xlink:href="#DejaVuSans-20"/>
<use transform="translate(1172)" xlink:href="#aq"/>
<use transform="translate(1235)" xlink:href="#an"/>
<use transform="translate(1294)" xlink:href="#DejaVuSans-20"/>
<use transform="translate(1326)" xlink:href="#u"/>
<use transform="translate(1381)" xlink:href="#q"/>
<use transform="translate(1442)" xlink:href="#x"/>
<use transform="translate(1506)" xlink:href="#s"/>
<use transform="translate(1541)" xlink:href="#o"/>
<use transform="translate(1569)" xlink:href="#aa"/>
<use transform="translate(1632)" xlink:href="#z"/>
<use transform="translate(1696)" xlink:href="#r"/>
<use transform="translate(1737)" xlink:href="#v"/>
<use transform="translate(1798)" xlink:href="#p"/>
<use transform="translate(1837)" xlink:href="#o"/>
<use transform="translate(1865)" xlink:href="#q"/>
<use transform="translate(1926)" xlink:href="#x"/>
</g>
<defs>
<clipPath id="l">
<rect x="40.6" y="35.7" width="668" height="316"/>
</clipPath>
<clipPath id="e">
<rect x="40.6" y="390" width="668" height="316"/>
</clipPath>
<clipPath id="k">
<rect x="40.6" y="745" width="668" height="316"/>
</clipPath>
</defs>
</svg>
