<?xml version="1.0" encoding="UTF-8"?>
<!DOCTYPE svg  PUBLIC '-//W3C//DTD SVG 1.1//EN'  'http://www.w3.org/Graphics/SVG/1.1/DTD/svg11.dtd'>
<svg width="720pt" height="1080pt" version="1.1" viewBox="0 0 720 1080" xmlns="http://www.w3.org/2000/svg" xmlns:xlink="http://www.w3.org/1999/xlink">
<defs>
<style type="text/css">*{stroke-linejoin: round; stroke-linecap: butt}</style>
</defs>
<path d="m0 1080h720v-1080h-720z" fill="#fff"/>
<path d="m40.6 351h668v-316h-668z" fill="#fff"/>
<path d="m40.6 351v-316" clip-path="url(#k)" fill="none" stroke="#b0b0b0" stroke-linecap="square" stroke-width=".8"/>
<defs>
<path id="j" d="m0 0v3.5" stroke="#000" stroke-width=".8"/>
</defs>
<use x="40.645553" y="351.264775" stroke="#000000" stroke-width=".8" xlink:href="#j"/>
<g transform="translate(32.7 366) scale(.1 -.1)">
<defs>
<path id="b" transform="scale(.0156)" d="m2034 4250q-487 0-733-480-245-479-245-1442 0-959 245-1439 246-480 733-480 491 0 736 480 246 480 246 1439 0 963-246 1442-245 480-736 480zm0 500q785 0 1199-621 414-620 414-1801 0-1178-414-1799-414-620-1199-620-784 0-1198 620-414 621-414 1799 0 1181 414 1801 414 621 1198 621z"/>
<path id="c" transform="scale(.0156)" d="m684 794h660v-794h-660v794z"/>
</defs>
<use xlink:href="#b"/>
<use transform="translate(63.6)" xlink:href="#c"/>
<use transform="translate(95.4)" xlink:href="#b"/>
</g>
<path d="m174 351v-316" clip-path="url(#k)" fill="none" stroke="#b0b0b0" stroke-linecap="square" stroke-width=".8"/>
<use x="174.326081" y="351.264775" stroke="#000000" stroke-width=".8" xlink:href="#j"/>
<g transform="translate(166 366) scale(.1 -.1)">
<defs>
<path id="d" transform="scale(.0156)" d="m1228 531h2203v-531h-2962v531q359 372 979 998 621 627 780 809 303 340 423 576 121 236 121 464 0 372-261 606-261 235-680 235-297 0-627-103-329-103-704-313v638q381 153 712 231 332 78 607 78 725 0 1156-363 431-362 431-968 0-288-108-546-107-257-392-607-78-91-497-524-418-433-1181-1211z"/>
</defs>
<use xlink:href="#b"/>
<use transform="translate(63.6)" xlink:href="#c"/>
<use transform="translate(95.4)" xlink:href="#d"/>
</g>
<path d="m308 351v-316" clip-path="url(#k)" fill="none" stroke="#b0b0b0" stroke-linecap="square" stroke-width=".8"/>
<use x="308.00661" y="351.264775" stroke="#000000" stroke-width=".8" xlink:href="#j"/>
<g transform="translate(300 366) scale(.1 -.1)">
<defs>
<path id="w" transform="scale(.0156)" d="m2419 4116-1594-2491h1594v2491zm-166 550h794v-3041h666v-525h-666v-1100h-628v1100h-2106v609l1940 2957z"/>
</defs>
<use xlink:href="#b"/>
<use transform="translate(63.6)" xlink:href="#c"/>
<use transform="translate(95.4)" xlink:href="#w"/>
</g>
<path d="m442 351v-316" clip-path="url(#k)" fill="none" stroke="#b0b0b0" stroke-linecap="square" stroke-width=".8"/>
<use x="441.68714" y="351.264775" stroke="#000000" stroke-width=".8" xlink:href="#j"/>
<g transform="translate(434 366) scale(.1 -.1)">
<defs>
<path id="af" transform="scale(.0156)" d="m2113 2584q-425 0-674-291-248-290-248-796 0-503 248-796 249-292 674-292t673 292q248 293 248 796 0 506-248 796-248 291-673 291zm1253 1979v-575q-238 112-480 171-242 60-480 60-625 0-955-422-329-422-376-1275 184 272 462 417 279 145 613 145 703 0 1111-427 408-426 408-1160 0-719-425-1154-425-434-1131-434-810 0-1238 620-428 621-428 1799 0 1106 525 1764t1409 658q238 0 480-47t505-140z"/>
</defs>
<use xlink:href="#b"/>
<use transform="translate(63.6)" xlink:href="#c"/>
<use transform="translate(95.4)" xlink:href="#af"/>
</g>
<path d="m575 351v-316" clip-path="url(#k)" fill="none" stroke="#b0b0b0" stroke-linecap="square" stroke-width=".8"/>
<use x="575.367668" y="351.264775" stroke="#000000" stroke-width=".8" xlink:href="#j"/>
<g transform="translate(567 366) scale(.1 -.1)">
<defs>
<path id="ac" transform="scale(.0156)" d="m2034 2216q-450 0-708-241-257-241-257-662 0-422 257-663 258-241 708-241t709 242q260 243 260 662 0 421-258 662-257 241-711 241zm-631 268q-406 100-633 378-226 279-226 679 0 559 398 884 399 325 1092 325 697 0 1094-325t397-884q0-400-227-679-226-278-629-378 456-106 710-416 255-309 255-755 0-679-414-1042-414-362-1186-362-771 0-1186 362-414 363-414 1042 0 446 256 755 257 310 713 416zm-231 997q0-362 226-565 227-203 636-203 407 0 636 203 230 203 230 565 0 363-230 566-229 203-636 203-409 0-636-203-226-203-226-566z"/>
</defs>
<use xlink:href="#b"/>
<use transform="translate(63.6)" xlink:href="#c"/>
<use transform="translate(95.4)" xlink:href="#ac"/>
</g>
<path d="m709 351v-316" clip-path="url(#k)" fill="none" stroke="#b0b0b0" stroke-linecap="square" stroke-width=".8"/>
<use x="709.048197" y="351.264775" stroke="#000000" stroke-width=".8" xlink:href="#j"/>
<g transform="translate(701 366) scale(.1 -.1)">
<defs>
<path id="i" transform="scale(.0156)" d="m794 531h1031v3560l-1122-225v575l1116 225h631v-4135h1031v-531h-2687v531z"/>
</defs>
<use xlink:href="#i"/>
<use transform="translate(63.6)" xlink:href="#c"/>
<use transform="translate(95.4)" xlink:href="#b"/>
</g>
<path d="m40.6 351h668" clip-path="url(#k)" fill="none" stroke="#b0b0b0" stroke-linecap="square" stroke-width=".8"/>
<defs>
<path id="g" d="m0 0h-3.5" stroke="#000" stroke-width=".8"/>
</defs>
<use x="40.645553" y="351.264775" stroke="#000000" stroke-width=".8" xlink:href="#g"/>
<g transform="translate(3 355) scale(.1 -.1)">
<defs>
<path id="h" transform="scale(.0156)" d="m4488 3438-1429-1435 1429-1428-372-378-1435 1434-1434-1434-369 378 1425 1428-1425 1435 369 378 1434-1435 1435 1435 372-378z"/>
</defs>
<use xlink:href="#b"/>
<use transform="translate(63.6)" xlink:href="#c"/>
<use transform="translate(95.4)" xlink:href="#b"/>
<use transform="translate(159)" xlink:href="#b"/>
<use transform="translate(223)" xlink:href="#h"/>
</g>
<path d="m40.6 288h668" clip-path="url(#k)" fill="none" stroke="#b0b0b0" stroke-linecap="square" stroke-width=".8"/>
<use x="40.645553" y="288.158339" stroke="#000000" stroke-width=".8" xlink:href="#g"/>
<g transform="translate(3 292) scale(.1 -.1)">
<use xlink:href="#b"/>
<use transform="translate(63.6)" xlink:href="#c"/>
<use transform="translate(95.4)" xlink:href="#d"/>
<use transform="translate(159)" xlink:href="#b"/>
<use transform="translate(223)" xlink:href="#h"/>
</g>
<path d="m40.6 225h668" clip-path="url(#k)" fill="none" stroke="#b0b0b0" stroke-linecap="square" stroke-width=".8"/>
<use x="40.645553" y="225.051903" stroke="#000000" stroke-width=".8" xlink:href="#g"/>
<g transform="translate(3 229) scale(.1 -.1)">
<use xlink:href="#b"/>
<use transform="translate(63.6)" xlink:href="#c"/>
<use transform="translate(95.4)" xlink:href="#w"/>
<use transform="translate(159)" xlink:href="#b"/>
<use transform="translate(223)" xlink:href="#h"/>
</g>
<path d="m40.6 162h668" clip-path="url(#k)" fill="none" stroke="#b0b0b0" stroke-linecap="square" stroke-width=".8"/>
<use x="40.645553" y="161.945467" stroke="#000000" stroke-width=".8" xlink:href="#g"/>
<g transform="translate(3 166) scale(.1 -.1)">
<use xlink:href="#b"/>
<use transform="translate(63.6)" xlink:href="#c"/>
<use transform="translate(95.4)" xlink:href="#af"/>
<use transform="translate(159)" xlink:href="#b"/>
<use transform="translate(223)" xlink:href="#h"/>
</g>
<path d="m40.6 98.8h668" clip-path="url(#k)" fill="none" stroke="#b0b0b0" stroke-linecap="square" stroke-width=".8"/>
<use x="40.645553" y="98.839031" stroke="#000000" stroke-width=".8" xlink:href="#g"/>
<g transform="translate(3 103) scale(.1 -.1)">
<use xlink:href="#b"/>
<use transform="translate(63.6)" xlink:href="#c"/>
<use transform="translate(95.4)" xlink:href="#ac"/>
<use transform="translate(159)" xlink:href="#b"/>
<use transform="translate(223)" xlink:href="#h"/>
</g>
<path d="m40.6 35.7h668" clip-path="url(#k)" fill="none" stroke="#b0b0b0" stroke-linecap="square" stroke-width=".8"/>
<use x="40.645553" y="35.732595" stroke="#000000" stroke-width=".8" xlink:href="#g"/>
<g transform="translate(3 39.5) scale(.1 -.1)">
<use xlink:href="#i"/>
<use transform="translate(63.6)" xlink:href="#c"/>
<use transform="translate(95.4)" xlink:href="#b"/>
<use transform="translate(159)" xlink:href="#b"/>
<use transform="translate(223)" xlink:href="#h"/>
</g>
<path d="m40.6 351v-316" fill="none" stroke="#000" stroke-linecap="square" stroke-width=".8"/>
<path d="m709 351v-316" fill="none" stroke="#000" stroke-linecap="square" stroke-width=".8"/>
<path d="m40.6 351h668" fill="none" stroke="#000" stroke-linecap="square" stroke-width=".8"/>
<path d="m40.6 35.7h668" fill="none" stroke="#000" stroke-linecap="square" stroke-width=".8"/>
<g clip-path="url(#k)">
<g transform="translate(58.2 27.8) rotate(-90) scale(.1 -.1)">
<defs>
<path id="p" transform="scale(.0156)" d="m3328 2828q216 388 516 572t706 184q547 0 844-383 297-382 297-1088v-2113h-578v2094q0 503-179 746-178 244-543 244-447 0-707-297-259-296-259-809v-1978h-578v2094q0 506-178 748t-550 242q-441 0-701-298-259-298-259-808v-1978h-578v3500h578v-544q197 322 472 475t653 153q382 0 649-194 267-193 395-562z"/>
<path id="q" transform="scale(.0156)" d="m1959 3097q-462 0-731-361t-269-989 267-989q268-361 733-361 460 0 728 362 269 363 269 988 0 622-269 986-268 364-728 364zm0 487q750 0 1178-488 429-487 429-1349 0-859-429-1349-428-489-1178-489-753 0-1180 489-426 490-426 1349 0 862 426 1349 427 488 1180 488z"/>
<path id="t" transform="scale(.0156)" d="m2631 2963q-97 56-211 82-114 27-251 27-488 0-749-317t-261-911v-1844h-578v3500h578v-544q182 319 472 473 291 155 707 155 59 0 131-8 72-7 159-23l3-590z"/>
<path id="f" transform="scale(.0156)" d="m3597 1894v-281h-2644q38-594 358-905t892-311q331 0 642 81t618 244v-544q-310-131-635-200t-659-69q-838 0-1327 487-489 488-489 1320 0 859 464 1363 464 505 1252 505 706 0 1117-455 411-454 411-1235zm-575 169q-6 471-264 752-258 282-683 282-481 0-770-272t-333-766l2050 4z"/>
<path id="am" transform="scale(.0156)" d="m8863 2147v-281l-1229-1228-375 375 729 728h-7622v531h7622l-729 728 375 375 1229-1228z"/>
</defs>
<use xlink:href="#p"/>
<use transform="translate(97.4)" xlink:href="#q"/>
<use transform="translate(159)" xlink:href="#t"/>
<use transform="translate(197)" xlink:href="#f"/>
<use transform="translate(259)" xlink:href="#DejaVuSans-20"/>
<use transform="translate(291)" xlink:href="#am"/>
</g>
</g>
<g clip-path="url(#k)">
<g transform="translate(58.2 82.6) rotate(-90) scale(.1 -.1)">
<defs>
<path id="an" transform="scale(.0156)" d="m313 1866v281l1228 1228 375-375-728-728h7621v-531h-7621l728-728-375-375-1228 1228z"/>
<path id="r" transform="scale(.0156)" d="m603 4863h575v-4863h-575v4863z"/>
<path id="m" transform="scale(.0156)" d="m2834 3397v-544q-243 125-506 187-262 63-544 63-428 0-642-131t-214-394q0-200 153-314t616-217l197-44q612-131 870-370t258-667q0-488-386-773-386-284-1061-284-281 0-586 55t-642 164v594q319-166 628-249 309-82 613-82 406 0 624 139 219 139 219 392 0 234-158 359-157 125-692 241l-200 47q-534 112-772 345-237 233-237 639 0 494 350 762 350 269 994 269 318 0 599-47 282-46 519-140z"/>
</defs>
<use xlink:href="#an"/>
<use transform="translate(143)" xlink:href="#DejaVuSans-20"/>
<use transform="translate(175)" xlink:href="#r"/>
<use transform="translate(203)" xlink:href="#f"/>
<use transform="translate(264)" xlink:href="#m"/>
<use transform="translate(317)" xlink:href="#m"/>
</g>
</g>
<g transform="translate(170 29.7) scale(.12 -.12)">
<defs>
<path id="ai" transform="scale(.0156)" d="m628 4666h2950v-532h-2319v-1381h2222v-531h-2222v-1691h2375v-531h-3006v4666z"/>
<path id="u" transform="scale(.0156)" d="m2375 4863v-479h-550q-309 0-430-125-120-125-120-450v-309h947v-447h-947v-3053h-578v3053h-550v447h550v244q0 584 272 851 272 268 862 268h544z"/>
<path id="v" transform="scale(.0156)" d="m3122 3366v-538q-244 135-489 202t-495 67q-560 0-870-355-309-354-309-995t309-996q310-354 870-354 250 0 495 67t489 202v-532q-241-112-499-168-257-57-548-57-791 0-1257 497-465 497-465 1341 0 856 470 1346 471 491 1290 491 265 0 518-55 253-54 491-163z"/>
<path id="o" transform="scale(.0156)" d="m1172 4494v-994h1184v-447h-1184v-1900q0-428 117-550t477-122h590v-481h-590q-666 0-919 248-253 249-253 905v1900h-422v447h422v994h578z"/>
<path id="aq" transform="scale(.0156)" d="m3116 1747q0 634-261 995t-717 361q-457 0-718-361t-261-995 261-995 718-361q456 0 717 361t261 995zm-1957 1222q182 312 458 463 277 152 661 152 638 0 1036-506 399-506 399-1331t-399-1332q-398-506-1036-506-384 0-661 152-276 152-458 464v-525h-578v4863h578v-1894z"/>
<path id="aa" transform="scale(.0156)" d="m544 1381v2119h575v-2097q0-497 193-746 194-248 582-248 465 0 735 297 271 297 271 810v1984h575v-3500h-575v538q-209-319-486-474-276-155-642-155-603 0-916 375-312 375-312 1097zm1447 2203z"/>
<path id="n" transform="scale(.0156)" d="m603 3500h575v-3500h-575v3500zm0 1363h575v-729h-575v729z"/>
<path id="ah" transform="scale(.0156)" d="m2906 2969v1894h575v-4863h-575v525q-181-312-458-464-276-152-664-152-634 0-1033 506-398 507-398 1332t398 1331q399 506 1033 506 388 0 664-152 277-151 458-463zm-1959-1222q0-634 261-995t717-361 718 361q263 361 263 995t-263 995q-262 361-718 361t-717-361-261-995z"/>
<path id="as" transform="scale(.0156)" d="m269 3500h575l719-2731 715 2731h678l719-2731 716 2731h575l-916-3500h-678l-753 2869-756-2869h-679l-915 3500z"/>
<path id="ag" transform="scale(.0156)" d="m3513 2113v-2113h-575v2094q0 497-194 743-194 247-581 247-466 0-735-297-269-296-269-809v-1978h-578v4863h578v-1907q207 316 486 472 280 156 646 156 603 0 912-373 310-373 310-1098z"/>
<path id="s" transform="scale(.0156)" d="m2194 1759q-697 0-966-159t-269-544q0-306 202-486 202-179 548-179 479 0 768 339t289 901v128h-572zm1147 238v-2e3h-575v531q-197-318-491-470t-719-152q-537 0-855 302-317 302-317 808 0 590 395 890 396 300 1180 300h807v57q0 397-261 614t-733 217q-300 0-585-72-284-72-546-216v532q315 122 612 182 297 61 578 61 760 0 1135-394 375-393 375-1193z"/>
<path id="y" transform="scale(.0156)" d="m3513 2113v-2113h-575v2094q0 497-194 743-194 247-581 247-466 0-735-297-269-296-269-809v-1978h-578v3500h578v-544q207 316 486 472 280 156 646 156 603 0 912-373 310-373 310-1098z"/>
<path id="ab" transform="scale(.0156)" d="m2906 1791q0 625-258 968-257 344-723 344-462 0-720-344-258-343-258-968 0-622 258-966t720-344q466 0 723 344 258 344 258 966zm575-1357q0-893-397-1329-396-436-1215-436-303 0-572 45t-522 139v559q253-137 500-202 247-66 503-66 566 0 847 295t281 892v285q-178-310-456-463t-666-153q-643 0-1037 490-394 491-394 1301 0 812 394 1302 394 491 1037 491 388 0 666-153t456-462v531h575v-3066z"/>
<path id="ad" transform="scale(.0156)" d="m191 3500h609l1094-2937 1094 2937h609l-1313-3500h-781l-1312 3500z"/>
<path id="ae" transform="scale(.0156)" d="m-19 4666h3947v-532h-1656v-4134h-634v4134h-1657v532z"/>
<path id="al" transform="scale(.0156)" d="m1984 4856q-418-718-622-1422-203-703-203-1425 0-721 205-1429t620-1424h-500q-468 735-701 1444t-233 1409q0 697 231 1403 232 707 703 1444h500z"/>
<path id="ak" transform="scale(.0156)" d="m513 4856h500q468-737 701-1444 233-706 233-1403 0-700-233-1409t-701-1444h-500q415 716 620 1424t205 1429q0 722-205 1425-205 704-620 1422z"/>
</defs>
<use xlink:href="#ai"/>
<use transform="translate(63.2)" xlink:href="#u"/>
<use transform="translate(98.4)" xlink:href="#u"/>
<use transform="translate(134)" xlink:href="#f"/>
<use transform="translate(195)" xlink:href="#v"/>
<use transform="translate(250)" xlink:href="#o"/>
<use transform="translate(289)" xlink:href="#DejaVuSans-20"/>
<use transform="translate(321)" xlink:href="#q"/>
<use transform="translate(382)" xlink:href="#u"/>
<use transform="translate(417)" xlink:href="#DejaVuSans-20"/>
<use transform="translate(449)" xlink:href="#aq"/>
<use transform="translate(513)" xlink:href="#aa"/>
<use transform="translate(576)" xlink:href="#n"/>
<use transform="translate(604)" xlink:href="#r"/>
<use transform="translate(632)" xlink:href="#ah"/>
<use transform="translate(695)" xlink:href="#DejaVuSans-20"/>
<use transform="translate(727)" xlink:href="#as"/>
<use transform="translate(809)" xlink:href="#n"/>
<use transform="translate(837)" xlink:href="#o"/>
<use transform="translate(876)" xlink:href="#ag"/>
<use transform="translate(939)" xlink:href="#DejaVuSans-20"/>
<use transform="translate(971)" xlink:href="#r"/>
<use transform="translate(999)" xlink:href="#s"/>
<use transform="translate(1060)" xlink:href="#o"/>
<use transform="translate(1099)" xlink:href="#f"/>
<use transform="translate(1161)" xlink:href="#m"/>
<use transform="translate(1213)" xlink:href="#o"/>
<use transform="translate(1252)" xlink:href="#DejaVuSans-20"/>
<use transform="translate(1284)" xlink:href="#v"/>
<use transform="translate(1339)" xlink:href="#r"/>
<use transform="translate(1367)" xlink:href="#s"/>
<use transform="translate(1428)" xlink:href="#y"/>
<use transform="translate(1491)" xlink:href="#ab"/>
<use transform="translate(1555)" xlink:href="#DejaVuSans-20"/>
<use transform="translate(1586)" xlink:href="#s"/>
<use transform="translate(1648)" xlink:href="#y"/>
<use transform="translate(1711)" xlink:href="#ah"/>
<use transform="translate(1775)" xlink:href="#DejaVuSans-20"/>
<use transform="translate(1806)" xlink:href="#o"/>
<use transform="translate(1846)" xlink:href="#s"/>
<use transform="translate(1907)" xlink:href="#n"/>
<use transform="translate(1935)" xlink:href="#r"/>
<use transform="translate(1962)" xlink:href="#v"/>
<use transform="translate(2017)" xlink:href="#s"/>
<use transform="translate(2079)" xlink:href="#r"/>
<use transform="translate(2106)" xlink:href="#r"/>
<use transform="translate(2134)" xlink:href="#DejaVuSans-20"/>
<use transform="translate(2166)" xlink:href="#ad"/>
<use transform="translate(2225)" xlink:href="#m"/>
<use transform="translate(2277)" xlink:href="#c"/>
<use transform="translate(2309)" xlink:href="#DejaVuSans-20"/>
<use transform="translate(2341)" xlink:href="#ae"/>
<use transform="translate(2399)" xlink:href="#n"/>
<use transform="translate(2427)" xlink:href="#f"/>
<use transform="translate(2488)" xlink:href="#t"/>
<use transform="translate(2529)" xlink:href="#DejaVuSans-20"/>
<use transform="translate(2561)" xlink:href="#i"/>
<use transform="translate(2625)" xlink:href="#DejaVuSans-20"/>
<use transform="translate(2656)" xlink:href="#al"/>
<use transform="translate(2696)" xlink:href="#m"/>
<use transform="translate(2748)" xlink:href="#s"/>
<use transform="translate(2809)" xlink:href="#p"/>
<use transform="translate(2906)" xlink:href="#f"/>
<use transform="translate(2968)" xlink:href="#DejaVuSans-20"/>
<use transform="translate(3e3)" xlink:href="#v"/>
<use transform="translate(3055)" xlink:href="#q"/>
<use transform="translate(3116)" xlink:href="#p"/>
<use transform="translate(3213)" xlink:href="#p"/>
<use transform="translate(3311)" xlink:href="#n"/>
<use transform="translate(3338)" xlink:href="#o"/>
<use transform="translate(3378)" xlink:href="#ak"/>
</g>
<path d="m47.6 48.7h4q2 0 2-2v-4q0-2-2-2h-4q-2 0-2 2v4q0 2 2 2z" fill="#fff" opacity=".8" stroke="#ccc"/>
<path d="m40.6 706h668v-316h-668z" fill="#fff"/>
<path d="m93 706v-316" clip-path="url(#e)" fill="none" stroke="#b0b0b0" stroke-linecap="square" stroke-width=".8"/>
<use x="93.015783" y="705.793205" stroke="#000000" stroke-width=".8" xlink:href="#j"/>
<g transform="translate(72.1 720) scale(.1 -.1)">
<defs>
<path id="x" transform="scale(.0156)" d="m313 2009h1684v-512h-1684v512z"/>
</defs>
<use xlink:href="#d"/>
<use transform="translate(63.6)" xlink:href="#b"/>
<use transform="translate(127)" xlink:href="#d"/>
<use transform="translate(191)" xlink:href="#w"/>
<use transform="translate(254)" xlink:href="#x"/>
<use transform="translate(291)" xlink:href="#b"/>
<use transform="translate(354)" xlink:href="#ac"/>
</g>
<path d="m172 706v-316" clip-path="url(#e)" fill="none" stroke="#b0b0b0" stroke-linecap="square" stroke-width=".8"/>
<use x="172.186831" y="705.793205" stroke="#000000" stroke-width=".8" xlink:href="#j"/>
<g transform="translate(151 720) scale(.1 -.1)">
<defs>
<path id="aj" transform="scale(.0156)" d="m703 97v575q238-113 481-172 244-59 479-59 625 0 954 420 330 420 377 1277-181-269-460-413-278-144-615-144-700 0-1108 423-408 424-408 1159 0 718 425 1152 425 435 1131 435 810 0 1236-621 427-620 427-1801 0-1103-524-1761-523-658-1407-658-238 0-482 47-243 47-506 141zm1256 1978q425 0 673 290 249 291 249 798 0 503-249 795-248 292-673 292t-673-292-248-795q0-507 248-798 248-290 673-290z"/>
</defs>
<use xlink:href="#d"/>
<use transform="translate(63.6)" xlink:href="#b"/>
<use transform="translate(127)" xlink:href="#d"/>
<use transform="translate(191)" xlink:href="#w"/>
<use transform="translate(254)" xlink:href="#x"/>
<use transform="translate(291)" xlink:href="#b"/>
<use transform="translate(354)" xlink:href="#aj"/>
</g>
<path d="m249 706v-316" clip-path="url(#e)" fill="none" stroke="#b0b0b0" stroke-linecap="square" stroke-width=".8"/>
<use x="248.803974" y="705.793205" stroke="#000000" stroke-width=".8" xlink:href="#j"/>
<g transform="translate(228 720) scale(.1 -.1)">
<use xlink:href="#d"/>
<use transform="translate(63.6)" xlink:href="#b"/>
<use transform="translate(127)" xlink:href="#d"/>
<use transform="translate(191)" xlink:href="#w"/>
<use transform="translate(254)" xlink:href="#x"/>
<use transform="translate(291)" xlink:href="#i"/>
<use transform="translate(354)" xlink:href="#b"/>
</g>
<path d="m328 706v-316" clip-path="url(#e)" fill="none" stroke="#b0b0b0" stroke-linecap="square" stroke-width=".8"/>
<use x="327.975022" y="705.793205" stroke="#000000" stroke-width=".8" xlink:href="#j"/>
<g transform="translate(307 720) scale(.1 -.1)">
<use xlink:href="#d"/>
<use transform="translate(63.6)" xlink:href="#b"/>
<use transform="translate(127)" xlink:href="#d"/>
<use transform="translate(191)" xlink:href="#w"/>
<use transform="translate(254)" xlink:href="#x"/>
<use transform="translate(291)" xlink:href="#i"/>
<use transform="translate(354)" xlink:href="#i"/>
</g>
<path d="m405 706v-316" clip-path="url(#e)" fill="none" stroke="#b0b0b0" stroke-linecap="square" stroke-width=".8"/>
<use x="404.592165" y="705.793205" stroke="#000000" stroke-width=".8" xlink:href="#j"/>
<g transform="translate(384 720) scale(.1 -.1)">
<use xlink:href="#d"/>
<use transform="translate(63.6)" xlink:href="#b"/>
<use transform="translate(127)" xlink:href="#d"/>
<use transform="translate(191)" xlink:href="#w"/>
<use transform="translate(254)" xlink:href="#x"/>
<use transform="translate(291)" xlink:href="#i"/>
<use transform="translate(354)" xlink:href="#d"/>
</g>
<path d="m484 706v-316" clip-path="url(#e)" fill="none" stroke="#b0b0b0" stroke-linecap="square" stroke-width=".8"/>
<use x="483.763213" y="705.793205" stroke="#000000" stroke-width=".8" xlink:href="#j"/>
<g transform="translate(463 720) scale(.1 -.1)">
<defs>
<path id="z" transform="scale(.0156)" d="m691 4666h2478v-532h-1900v-1143q137 47 274 70 138 23 276 23 781 0 1237-428 457-428 457-1159 0-753-469-1171-469-417-1322-417-294 0-599 50-304 50-629 150v635q281-153 581-228t634-75q541 0 856 284 316 284 316 772 0 487-316 771-315 285-856 285-253 0-505-56-251-56-513-175v2344z"/>
</defs>
<use xlink:href="#d"/>
<use transform="translate(63.6)" xlink:href="#b"/>
<use transform="translate(127)" xlink:href="#d"/>
<use transform="translate(191)" xlink:href="#z"/>
<use transform="translate(254)" xlink:href="#x"/>
<use transform="translate(291)" xlink:href="#b"/>
<use transform="translate(354)" xlink:href="#i"/>
</g>
<path d="m563 706v-316" clip-path="url(#e)" fill="none" stroke="#b0b0b0" stroke-linecap="square" stroke-width=".8"/>
<use x="562.934261" y="705.793205" stroke="#000000" stroke-width=".8" xlink:href="#j"/>
<g transform="translate(542 720) scale(.1 -.1)">
<use xlink:href="#d"/>
<use transform="translate(63.6)" xlink:href="#b"/>
<use transform="translate(127)" xlink:href="#d"/>
<use transform="translate(191)" xlink:href="#z"/>
<use transform="translate(254)" xlink:href="#x"/>
<use transform="translate(291)" xlink:href="#b"/>
<use transform="translate(354)" xlink:href="#d"/>
</g>
<path d="m634 706v-316" clip-path="url(#e)" fill="none" stroke="#b0b0b0" stroke-linecap="square" stroke-width=".8"/>
<use x="634.443595" y="705.793205" stroke="#000000" stroke-width=".8" xlink:href="#j"/>
<g transform="translate(614 720) scale(.1 -.1)">
<defs>
<path id="ar" transform="scale(.0156)" d="m2597 2516q453-97 707-404 255-306 255-756 0-690-475-1069-475-378-1350-378-293 0-604 58t-642 174v609q262-153 574-231 313-78 654-78 593 0 904 234t311 681q0 413-289 645-289 233-804 233h-544v519h569q465 0 712 186t247 536q0 359-255 551-254 193-729 193-260 0-557-57-297-56-653-174v562q360 100 674 150t592 50q719 0 1137-327 419-326 419-882 0-388-222-655t-631-370z"/>
</defs>
<use xlink:href="#d"/>
<use transform="translate(63.6)" xlink:href="#b"/>
<use transform="translate(127)" xlink:href="#d"/>
<use transform="translate(191)" xlink:href="#z"/>
<use transform="translate(254)" xlink:href="#x"/>
<use transform="translate(291)" xlink:href="#b"/>
<use transform="translate(354)" xlink:href="#ar"/>
</g>
<path d="m40.6 706h668" clip-path="url(#e)" fill="none" stroke="#b0b0b0" stroke-linecap="square" stroke-width=".8"/>
<use x="40.645553" y="705.793205" stroke="#000000" stroke-width=".8" xlink:href="#g"/>
<g transform="translate(3 710) scale(.1 -.1)">
<use xlink:href="#b"/>
<use transform="translate(63.6)" xlink:href="#c"/>
<use transform="translate(95.4)" xlink:href="#aj"/>
<use transform="translate(159)" xlink:href="#b"/>
<use transform="translate(223)" xlink:href="#h"/>
</g>
<path d="m40.6 666h668" clip-path="url(#e)" fill="none" stroke="#b0b0b0" stroke-linecap="square" stroke-width=".8"/>
<use x="40.645553" y="666.351682" stroke="#000000" stroke-width=".8" xlink:href="#g"/>
<g transform="translate(3 670) scale(.1 -.1)">
<use xlink:href="#b"/>
<use transform="translate(63.6)" xlink:href="#c"/>
<use transform="translate(95.4)" xlink:href="#aj"/>
<use transform="translate(159)" xlink:href="#z"/>
<use transform="translate(223)" xlink:href="#h"/>
</g>
<path d="m40.6 627h668" clip-path="url(#e)" fill="none" stroke="#b0b0b0" stroke-linecap="square" stroke-width=".8"/>
<use x="40.645553" y="626.91016" stroke="#000000" stroke-width=".8" xlink:href="#g"/>
<g transform="translate(3 631) scale(.1 -.1)">
<use xlink:href="#i"/>
<use transform="translate(63.6)" xlink:href="#c"/>
<use transform="translate(95.4)" xlink:href="#b"/>
<use transform="translate(159)" xlink:href="#b"/>
<use transform="translate(223)" xlink:href="#h"/>
</g>
<path d="m40.6 587h668" clip-path="url(#e)" fill="none" stroke="#b0b0b0" stroke-linecap="square" stroke-width=".8"/>
<use x="40.645553" y="587.468637" stroke="#000000" stroke-width=".8" xlink:href="#g"/>
<g transform="translate(3 591) scale(.1 -.1)">
<use xlink:href="#i"/>
<use transform="translate(63.6)" xlink:href="#c"/>
<use transform="translate(95.4)" xlink:href="#b"/>
<use transform="translate(159)" xlink:href="#z"/>
<use transform="translate(223)" xlink:href="#h"/>
</g>
<path d="m40.6 548h668" clip-path="url(#e)" fill="none" stroke="#b0b0b0" stroke-linecap="square" stroke-width=".8"/>
<use x="40.645553" y="548.027115" stroke="#000000" stroke-width=".8" xlink:href="#g"/>
<g transform="translate(3 552) scale(.1 -.1)">
<use xlink:href="#i"/>
<use transform="translate(63.6)" xlink:href="#c"/>
<use transform="translate(95.4)" xlink:href="#i"/>
<use transform="translate(159)" xlink:href="#b"/>
<use transform="translate(223)" xlink:href="#h"/>
</g>
<path d="m40.6 509h668" clip-path="url(#e)" fill="none" stroke="#b0b0b0" stroke-linecap="square" stroke-width=".8"/>
<use x="40.645553" y="508.585592" stroke="#000000" stroke-width=".8" xlink:href="#g"/>
<g transform="translate(3 512) scale(.1 -.1)">
<use xlink:href="#i"/>
<use transform="translate(63.6)" xlink:href="#c"/>
<use transform="translate(95.4)" xlink:href="#i"/>
<use transform="translate(159)" xlink:href="#z"/>
<use transform="translate(223)" xlink:href="#h"/>
</g>
<path d="m40.6 469h668" clip-path="url(#e)" fill="none" stroke="#b0b0b0" stroke-linecap="square" stroke-width=".8"/>
<use x="40.645553" y="469.14407" stroke="#000000" stroke-width=".8" xlink:href="#g"/>
<g transform="translate(3 473) scale(.1 -.1)">
<use xlink:href="#i"/>
<use transform="translate(63.6)" xlink:href="#c"/>
<use transform="translate(95.4)" xlink:href="#d"/>
<use transform="translate(159)" xlink:href="#b"/>
<use transform="translate(223)" xlink:href="#h"/>
</g>
<path d="m40.6 430h668" clip-path="url(#e)" fill="none" stroke="#b0b0b0" stroke-linecap="square" stroke-width=".8"/>
<use x="40.645553" y="429.702548" stroke="#000000" stroke-width=".8" xlink:href="#g"/>
<g transform="translate(3 434) scale(.1 -.1)">
<use xlink:href="#i"/>
<use transform="translate(63.6)" xlink:href="#c"/>
<use transform="translate(95.4)" xlink:href="#d"/>
<use transform="translate(159)" xlink:href="#z"/>
<use transform="translate(223)" xlink:href="#h"/>
</g>
<path d="m40.6 390h668" clip-path="url(#e)" fill="none" stroke="#b0b0b0" stroke-linecap="square" stroke-width=".8"/>
<use x="40.645553" y="390.261025" stroke="#000000" stroke-width=".8" xlink:href="#g"/>
<g transform="translate(3 394) scale(.1 -.1)">
<use xlink:href="#i"/>
<use transform="translate(63.6)" xlink:href="#c"/>
<use transform="translate(95.4)" xlink:href="#ar"/>
<use transform="translate(159)" xlink:href="#b"/>
<use transform="translate(223)" xlink:href="#h"/>
</g>
<path d="m71 509 12.2 7.89h28.5l7.51-7.89h35.8l17.9 7.89h17.5l17.8-7.89 14.8 7.89 14.4 31.6 0.0268-7.89 6.9-31.6 4.64 23.7 54.1-23.7h2.35l33.2-23.7h5.3l2.61 7.89 1.89-7.89 3.22-7.89 2.42 7.89h18.1l2.6-7.89 2.25 7.89h15.3l2.58-7.89 2.74 7.89h7.14l2.64-7.89 2.98 7.89 2.64-7.89 2.56 7.89 2.26-7.89 2.55 7.89h7.33l3.15-7.89h4.86l2.18 7.89h5.64l2.31-7.89h7.94l2.13 7.89h23.2l2.42-7.89 2.61 7.89 2.64-7.89 2.22 7.89 2.85-7.89 2.75 7.89h2.38l2.73-7.89h2.35l2.76 7.89h10.2l1.9-7.89h21.1l0.202-7.89 2.44 7.89h17.8l2.38-7.89 2.05 7.89h5.71l1.85 7.89 3.22-7.89h25.4l2.3-7.89 3.1 7.89h2.13l2.94-7.89 2.34 7.89h17.9l2.75-7.89 2.38 7.89 2.5-7.89 2.55 7.89h2.73l2.56-7.89 2.55 7.89 2.63-7.89h2.29l2.6 7.89 2.4-7.89h1.91l0.965 7.89h4.96l2.69-7.89 2.37 7.89 2.29-7.89h5.5v0" clip-path="url(#e)" fill="none" stroke="#1f77b4" stroke-linecap="square" stroke-opacity=".9" stroke-width="1.5"/>
<defs>
<path id="a" d="m-2.5 2.5h5v-5h-5z" stroke="#1f77b4" stroke-opacity=".9"/>
</defs>
<g clip-path="url(#e)" fill="#1f77b4" fill-opacity=".9" stroke="#1f77b4" stroke-opacity=".9">
<use x="71.027491" y="508.585593" xlink:href="#a"/>
<use x="83.179053" y="516.473897" xlink:href="#a"/>
<use x="101.414908" y="516.473897" xlink:href="#a"/>
<use x="111.462336" y="516.473897" xlink:href="#a"/>
<use x="111.478682" y="516.473897" xlink:href="#a"/>
<use x="111.721806" y="516.473897" xlink:href="#a"/>
<use x="119.231054" y="508.585593" xlink:href="#a"/>
<use x="137.067271" y="508.585593" xlink:href="#a"/>
<use x="155.044662" y="508.585593" xlink:href="#a"/>
<use x="172.962018" y="516.473897" xlink:href="#a"/>
<use x="187.389866" y="516.473897" xlink:href="#a"/>
<use x="188.17596" y="516.473897" xlink:href="#a"/>
<use x="190.466641" y="516.473897" xlink:href="#a"/>
<use x="208.313795" y="508.585593" xlink:href="#a"/>
<use x="223.119171" y="516.473897" xlink:href="#a"/>
<use x="237.54424" y="548.027115" xlink:href="#a"/>
<use x="237.57102" y="540.13881" xlink:href="#a"/>
<use x="244.468928" y="508.585593" xlink:href="#a"/>
<use x="249.106837" y="532.250506" xlink:href="#a"/>
<use x="303.247401" y="508.585593" xlink:href="#a"/>
<use x="305.597082" y="508.585593" xlink:href="#a"/>
<use x="338.808101" y="484.920679" xlink:href="#a"/>
<use x="341.691442" y="484.920679" xlink:href="#a"/>
<use x="344.103227" y="484.920679" xlink:href="#a"/>
<use x="346.709303" y="492.808984" xlink:href="#a"/>
<use x="348.597537" y="484.920679" xlink:href="#a"/>
<use x="351.814186" y="477.032375" xlink:href="#a"/>
<use x="354.232237" y="484.920679" xlink:href="#a"/>
<use x="357.04638" y="484.920679" xlink:href="#a"/>
<use x="359.30233" y="484.920679" xlink:href="#a"/>
<use x="362.107132" y="484.920679" xlink:href="#a"/>
<use x="364.727899" y="484.920679" xlink:href="#a"/>
<use x="367.151005" y="484.920679" xlink:href="#a"/>
<use x="369.808367" y="484.920679" xlink:href="#a"/>
<use x="372.320179" y="484.920679" xlink:href="#a"/>
<use x="374.922886" y="477.032375" xlink:href="#a"/>
<use x="377.172273" y="484.920679" xlink:href="#a"/>
<use x="379.895197" y="484.920679" xlink:href="#a"/>
<use x="382.62891" y="484.920679" xlink:href="#a"/>
<use x="385.123696" y="484.920679" xlink:href="#a"/>
<use x="387.426053" y="484.920679" xlink:href="#a"/>
<use x="390.089593" y="484.920679" xlink:href="#a"/>
<use x="392.521448" y="484.920679" xlink:href="#a"/>
<use x="395.096783" y="477.032375" xlink:href="#a"/>
<use x="397.840102" y="484.920679" xlink:href="#a"/>
<use x="399.702768" y="484.920679" xlink:href="#a"/>
<use x="402.68321" y="484.920679" xlink:href="#a"/>
<use x="404.981725" y="484.920679" xlink:href="#a"/>
<use x="407.623952" y="477.032375" xlink:href="#a"/>
<use x="410.605192" y="484.920679" xlink:href="#a"/>
<use x="413.247095" y="477.032375" xlink:href="#a"/>
<use x="415.810015" y="484.920679" xlink:href="#a"/>
<use x="418.070605" y="477.032375" xlink:href="#a"/>
<use x="420.624569" y="484.920679" xlink:href="#a"/>
<use x="422.786431" y="484.920679" xlink:href="#a"/>
<use x="425.42523" y="484.920679" xlink:href="#a"/>
<use x="427.952177" y="484.920679" xlink:href="#a"/>
<use x="431.106515" y="477.032375" xlink:href="#a"/>
<use x="433.568994" y="477.032375" xlink:href="#a"/>
<use x="435.964462" y="477.032375" xlink:href="#a"/>
<use x="438.142789" y="484.920679" xlink:href="#a"/>
<use x="440.392619" y="484.920679" xlink:href="#a"/>
<use x="443.782218" y="484.920679" xlink:href="#a"/>
<use x="446.092409" y="477.032375" xlink:href="#a"/>
<use x="448.890264" y="477.032375" xlink:href="#a"/>
<use x="450.623668" y="477.032375" xlink:href="#a"/>
<use x="454.036294" y="477.032375" xlink:href="#a"/>
<use x="456.168568" y="484.920679" xlink:href="#a"/>
<use x="461.206825" y="484.920679" xlink:href="#a"/>
<use x="464.001991" y="484.920679" xlink:href="#a"/>
<use x="466.257349" y="484.920679" xlink:href="#a"/>
<use x="468.727217" y="484.920679" xlink:href="#a"/>
<use x="471.727257" y="484.920679" xlink:href="#a"/>
<use x="474.308475" y="484.920679" xlink:href="#a"/>
<use x="476.749848" y="484.920679" xlink:href="#a"/>
<use x="479.413062" y="484.920679" xlink:href="#a"/>
<use x="481.833715" y="477.032375" xlink:href="#a"/>
<use x="484.441683" y="484.920679" xlink:href="#a"/>
<use x="487.082373" y="477.032375" xlink:href="#a"/>
<use x="489.301817" y="484.920679" xlink:href="#a"/>
<use x="492.149923" y="477.032375" xlink:href="#a"/>
<use x="494.898888" y="484.920679" xlink:href="#a"/>
<use x="497.274995" y="484.920679" xlink:href="#a"/>
<use x="500.006668" y="477.032375" xlink:href="#a"/>
<use x="502.354576" y="477.032375" xlink:href="#a"/>
<use x="505.113207" y="484.920679" xlink:href="#a"/>
<use x="507.254851" y="484.920679" xlink:href="#a"/>
<use x="510.372063" y="484.920679" xlink:href="#a"/>
<use x="512.331092" y="484.920679" xlink:href="#a"/>
<use x="515.278487" y="484.920679" xlink:href="#a"/>
<use x="517.173579" y="477.032375" xlink:href="#a"/>
<use x="520.399657" y="477.032375" xlink:href="#a"/>
<use x="520.66897" y="477.032375" xlink:href="#a"/>
<use x="522.735061" y="477.032375" xlink:href="#a"/>
<use x="525.578202" y="477.032375" xlink:href="#a"/>
<use x="528.001248" y="477.032375" xlink:href="#a"/>
<use x="530.466151" y="477.032375" xlink:href="#a"/>
<use x="533.254636" y="477.032375" xlink:href="#a"/>
<use x="535.787584" y="477.032375" xlink:href="#a"/>
<use x="538.29712" y="477.032375" xlink:href="#a"/>
<use x="538.499098" y="469.14407" xlink:href="#a"/>
<use x="540.939525" y="477.032375" xlink:href="#a"/>
<use x="542.598588" y="477.032375" xlink:href="#a"/>
<use x="543.410753" y="477.032375" xlink:href="#a"/>
<use x="545.858334" y="477.032375" xlink:href="#a"/>
<use x="547.965808" y="477.032375" xlink:href="#a"/>
<use x="550.591216" y="477.032375" xlink:href="#a"/>
<use x="553.698969" y="477.032375" xlink:href="#a"/>
<use x="554.919139" y="477.032375" xlink:href="#a"/>
<use x="556.249504" y="477.032375" xlink:href="#a"/>
<use x="558.788629" y="477.032375" xlink:href="#a"/>
<use x="561.169348" y="469.14407" xlink:href="#a"/>
<use x="563.220807" y="477.032375" xlink:href="#a"/>
<use x="565.682813" y="477.032375" xlink:href="#a"/>
<use x="568.178693" y="477.032375" xlink:href="#a"/>
<use x="568.928696" y="477.032375" xlink:href="#a"/>
<use x="570.777232" y="484.920679" xlink:href="#a"/>
<use x="574.000088" y="477.032375" xlink:href="#a"/>
<use x="576.197717" y="477.032375" xlink:href="#a"/>
<use x="579.17476" y="477.032375" xlink:href="#a"/>
<use x="581.627248" y="477.032375" xlink:href="#a"/>
<use x="584.279703" y="477.032375" xlink:href="#a"/>
<use x="586.819419" y="477.032375" xlink:href="#a"/>
<use x="589.194432" y="477.032375" xlink:href="#a"/>
<use x="591.983421" y="477.032375" xlink:href="#a"/>
<use x="594.448825" y="477.032375" xlink:href="#a"/>
<use x="596.544801" y="477.032375" xlink:href="#a"/>
<use x="599.365979" y="477.032375" xlink:href="#a"/>
<use x="601.670967" y="469.14407" xlink:href="#a"/>
<use x="604.767162" y="477.032375" xlink:href="#a"/>
<use x="606.893584" y="477.032375" xlink:href="#a"/>
<use x="609.835717" y="469.14407" xlink:href="#a"/>
<use x="612.175999" y="477.032375" xlink:href="#a"/>
<use x="614.968238" y="477.032375" xlink:href="#a"/>
<use x="616.875509" y="477.032375" xlink:href="#a"/>
<use x="619.430034" y="477.032375" xlink:href="#a"/>
<use x="622.66835" y="477.032375" xlink:href="#a"/>
<use x="624.928526" y="477.032375" xlink:href="#a"/>
<use x="627.428249" y="477.032375" xlink:href="#a"/>
<use x="630.053716" y="477.032375" xlink:href="#a"/>
<use x="632.799814" y="469.14407" xlink:href="#a"/>
<use x="635.184582" y="477.032375" xlink:href="#a"/>
<use x="637.681438" y="469.14407" xlink:href="#a"/>
<use x="640.22813" y="477.032375" xlink:href="#a"/>
<use x="640.725048" y="477.032375" xlink:href="#a"/>
<use x="642.954039" y="477.032375" xlink:href="#a"/>
<use x="645.517728" y="469.14407" xlink:href="#a"/>
<use x="648.064302" y="477.032375" xlink:href="#a"/>
<use x="650.691129" y="469.14407" xlink:href="#a"/>
<use x="652.977199" y="469.14407" xlink:href="#a"/>
<use x="655.579078" y="477.032375" xlink:href="#a"/>
<use x="657.977443" y="469.14407" xlink:href="#a"/>
<use x="659.888526" y="469.14407" xlink:href="#a"/>
<use x="660.853246" y="477.032375" xlink:href="#a"/>
<use x="663.419714" y="477.032375" xlink:href="#a"/>
<use x="665.810334" y="477.032375" xlink:href="#a"/>
<use x="668.503935" y="469.14407" xlink:href="#a"/>
<use x="670.878327" y="477.032375" xlink:href="#a"/>
<use x="673.16895" y="469.14407" xlink:href="#a"/>
<use x="676.055305" y="469.14407" xlink:href="#a"/>
<use x="678.666259" y="469.14407" xlink:href="#a"/>
</g>
<g stroke="#1f77b4" stroke-opacity=".9">
<path d="m188 501 34.9 174 21.3-174h16.4l19.3-7.89 15.4-7.89h5.01l2.71-7.89 2.35 7.89h15.4l2.8-7.89h7.55l1.92 7.89h3l2.49-15.8h2.88l2.41-7.89h4.49l1.15 7.89 2.07-7.89 2.42 7.89h12.9l2.66-7.89h0.193l2.32 7.89 2.6-23.7 2.25 23.7 2.72-7.89 2.18 15.8h42l1.36 7.89 2.53-7.89h5.62l1.28-7.89 1.11 7.89h18.1l2.13 7.89 5.04-7.89h18.2l2.42-7.89 2.61 7.89h12.8l2.73-7.89 2.35 7.89 4.9-7.89 2.14 7.89h7.77l3.23-7.89h4.39l0.789-7.89h2.42l2.46 7.89h61.5l2.47-7.89 1.95 7.89h0.145l2.82-7.89 2.3 7.89 3.1-7.89 2.13 7.89 2.94-7.89 2.34 7.89h2.79l1.91-7.89 2.55 7.89h8l1.88-7.89 0.749 7.89h29.8l0.965-7.89 2.57 7.89 2.39-7.89 2.36 7.89h9.95" clip-path="url(#e)" fill="none" stroke-dasharray="1.5,2.475" stroke-width="1.5"/>
<g clip-path="url(#e)" fill="#1f77b4" fill-opacity=".9">
<use x="188.17596" y="500.697288" xlink:href="#a"/>
<use x="223.119171" y="674.239987" xlink:href="#a"/>
<use x="244.468928" y="500.697288" xlink:href="#a"/>
<use x="260.822816" y="500.697288" xlink:href="#a"/>
<use x="280.084785" y="492.808984" xlink:href="#a"/>
<use x="295.528372" y="484.920679" xlink:href="#a"/>
<use x="298.049909" y="484.920679" xlink:href="#a"/>
<use x="300.534764" y="484.920679" xlink:href="#a"/>
<use x="303.247401" y="477.032375" xlink:href="#a"/>
<use x="305.597082" y="484.920679" xlink:href="#a"/>
<use x="308.444597" y="484.920679" xlink:href="#a"/>
<use x="311.039914" y="484.920679" xlink:href="#a"/>
<use x="312.997701" y="484.920679" xlink:href="#a"/>
<use x="315.915833" y="484.920679" xlink:href="#a"/>
<use x="318.496843" y="484.920679" xlink:href="#a"/>
<use x="321.046314" y="484.920679" xlink:href="#a"/>
<use x="323.848308" y="477.032375" xlink:href="#a"/>
<use x="326.401208" y="477.032375" xlink:href="#a"/>
<use x="328.692539" y="477.032375" xlink:href="#a"/>
<use x="331.399679" y="477.032375" xlink:href="#a"/>
<use x="333.315521" y="484.920679" xlink:href="#a"/>
<use x="336.315679" y="484.920679" xlink:href="#a"/>
<use x="338.808101" y="469.14407" xlink:href="#a"/>
<use x="341.691442" y="469.14407" xlink:href="#a"/>
<use x="344.103227" y="461.255766" xlink:href="#a"/>
<use x="345.40622" y="461.255766" xlink:href="#a"/>
<use x="346.709303" y="461.255766" xlink:href="#a"/>
<use x="348.597537" y="461.255766" xlink:href="#a"/>
<use x="349.746262" y="469.14407" xlink:href="#a"/>
<use x="351.814186" y="461.255766" xlink:href="#a"/>
<use x="354.232237" y="469.14407" xlink:href="#a"/>
<use x="357.04638" y="469.14407" xlink:href="#a"/>
<use x="359.30233" y="469.14407" xlink:href="#a"/>
<use x="362.107132" y="469.14407" xlink:href="#a"/>
<use x="364.727899" y="469.14407" xlink:href="#a"/>
<use x="367.151005" y="469.14407" xlink:href="#a"/>
<use x="369.808367" y="461.255766" xlink:href="#a"/>
<use x="370.000974" y="461.255766" xlink:href="#a"/>
<use x="372.320179" y="469.14407" xlink:href="#a"/>
<use x="374.922886" y="445.479157" xlink:href="#a"/>
<use x="377.172273" y="469.14407" xlink:href="#a"/>
<use x="379.895197" y="461.255766" xlink:href="#a"/>
<use x="382.072312" y="477.032375" xlink:href="#a"/>
<use x="382.62891" y="477.032375" xlink:href="#a"/>
<use x="384.705553" y="477.032375" xlink:href="#a"/>
<use x="385.123696" y="477.032375" xlink:href="#a"/>
<use x="387.426053" y="477.032375" xlink:href="#a"/>
<use x="390.089593" y="477.032375" xlink:href="#a"/>
<use x="392.521448" y="477.032375" xlink:href="#a"/>
<use x="395.096783" y="477.032375" xlink:href="#a"/>
<use x="396.956729" y="477.032375" xlink:href="#a"/>
<use x="397.840102" y="477.032375" xlink:href="#a"/>
<use x="399.702768" y="477.032375" xlink:href="#a"/>
<use x="402.181327" y="477.032375" xlink:href="#a"/>
<use x="402.68321" y="477.032375" xlink:href="#a"/>
<use x="404.981725" y="477.032375" xlink:href="#a"/>
<use x="407.623952" y="477.032375" xlink:href="#a"/>
<use x="410.605192" y="477.032375" xlink:href="#a"/>
<use x="413.247095" y="477.032375" xlink:href="#a"/>
<use x="415.181736" y="477.032375" xlink:href="#a"/>
<use x="415.810015" y="477.032375" xlink:href="#a"/>
<use x="418.070605" y="477.032375" xlink:href="#a"/>
<use x="418.80367" y="477.032375" xlink:href="#a"/>
<use x="420.624569" y="477.032375" xlink:href="#a"/>
<use x="422.786431" y="477.032375" xlink:href="#a"/>
<use x="424.061019" y="477.032375" xlink:href="#a"/>
<use x="425.42523" y="484.920679" xlink:href="#a"/>
<use x="427.952177" y="477.032375" xlink:href="#a"/>
<use x="431.106515" y="477.032375" xlink:href="#a"/>
<use x="432.522513" y="477.032375" xlink:href="#a"/>
<use x="432.964688" y="477.032375" xlink:href="#a"/>
<use x="433.568994" y="477.032375" xlink:href="#a"/>
<use x="434.852981" y="469.14407" xlink:href="#a"/>
<use x="435.964462" y="477.032375" xlink:href="#a"/>
<use x="437.937944" y="477.032375" xlink:href="#a"/>
<use x="438.142789" y="477.032375" xlink:href="#a"/>
<use x="440.392619" y="477.032375" xlink:href="#a"/>
<use x="443.782218" y="477.032375" xlink:href="#a"/>
<use x="446.092409" y="477.032375" xlink:href="#a"/>
<use x="448.890264" y="477.032375" xlink:href="#a"/>
<use x="449.63004" y="477.032375" xlink:href="#a"/>
<use x="450.623668" y="477.032375" xlink:href="#a"/>
<use x="454.036294" y="477.032375" xlink:href="#a"/>
<use x="456.168568" y="484.920679" xlink:href="#a"/>
<use x="461.206825" y="477.032375" xlink:href="#a"/>
<use x="464.001991" y="477.032375" xlink:href="#a"/>
<use x="466.257349" y="477.032375" xlink:href="#a"/>
<use x="468.727217" y="477.032375" xlink:href="#a"/>
<use x="471.727257" y="477.032375" xlink:href="#a"/>
<use x="474.308475" y="477.032375" xlink:href="#a"/>
<use x="476.749848" y="477.032375" xlink:href="#a"/>
<use x="479.413062" y="477.032375" xlink:href="#a"/>
<use x="481.833715" y="469.14407" xlink:href="#a"/>
<use x="484.441683" y="477.032375" xlink:href="#a"/>
<use x="487.082373" y="477.032375" xlink:href="#a"/>
<use x="489.301817" y="477.032375" xlink:href="#a"/>
<use x="492.149923" y="477.032375" xlink:href="#a"/>
<use x="494.898888" y="477.032375" xlink:href="#a"/>
<use x="497.274995" y="477.032375" xlink:href="#a"/>
<use x="500.006668" y="469.14407" xlink:href="#a"/>
<use x="502.354576" y="477.032375" xlink:href="#a"/>
<use x="507.254851" y="469.14407" xlink:href="#a"/>
<use x="509.399363" y="477.032375" xlink:href="#a"/>
<use x="510.372063" y="477.032375" xlink:href="#a"/>
<use x="512.331092" y="477.032375" xlink:href="#a"/>
<use x="515.278487" y="477.032375" xlink:href="#a"/>
<use x="517.173579" y="477.032375" xlink:href="#a"/>
<use x="520.399657" y="469.14407" xlink:href="#a"/>
<use x="520.66897" y="469.14407" xlink:href="#a"/>
<use x="522.735061" y="469.14407" xlink:href="#a"/>
<use x="524.789358" y="469.14407" xlink:href="#a"/>
<use x="525.578202" y="461.255766" xlink:href="#a"/>
<use x="528.001248" y="461.255766" xlink:href="#a"/>
<use x="530.466151" y="469.14407" xlink:href="#a"/>
<use x="533.254636" y="469.14407" xlink:href="#a"/>
<use x="535.787584" y="469.14407" xlink:href="#a"/>
<use x="538.29712" y="469.14407" xlink:href="#a"/>
<use x="538.499098" y="469.14407" xlink:href="#a"/>
<use x="539.829847" y="469.14407" xlink:href="#a"/>
<use x="540.939525" y="469.14407" xlink:href="#a"/>
<use x="542.598588" y="469.14407" xlink:href="#a"/>
<use x="543.410753" y="469.14407" xlink:href="#a"/>
<use x="545.858334" y="469.14407" xlink:href="#a"/>
<use x="547.965808" y="469.14407" xlink:href="#a"/>
<use x="550.591216" y="469.14407" xlink:href="#a"/>
<use x="553.698969" y="469.14407" xlink:href="#a"/>
<use x="554.919139" y="469.14407" xlink:href="#a"/>
<use x="556.249504" y="469.14407" xlink:href="#a"/>
<use x="558.788629" y="469.14407" xlink:href="#a"/>
<use x="561.169348" y="469.14407" xlink:href="#a"/>
<use x="563.220807" y="469.14407" xlink:href="#a"/>
<use x="565.682813" y="469.14407" xlink:href="#a"/>
<use x="568.178693" y="469.14407" xlink:href="#a"/>
<use x="568.928696" y="469.14407" xlink:href="#a"/>
<use x="570.777232" y="469.14407" xlink:href="#a"/>
<use x="574.000088" y="469.14407" xlink:href="#a"/>
<use x="576.197717" y="469.14407" xlink:href="#a"/>
<use x="579.17476" y="469.14407" xlink:href="#a"/>
<use x="581.627248" y="469.14407" xlink:href="#a"/>
<use x="584.279703" y="469.14407" xlink:href="#a"/>
<use x="586.819419" y="469.14407" xlink:href="#a"/>
<use x="589.194432" y="469.14407" xlink:href="#a"/>
<use x="591.983421" y="469.14407" xlink:href="#a"/>
<use x="594.448825" y="461.255766" xlink:href="#a"/>
<use x="596.40005" y="469.14407" xlink:href="#a"/>
<use x="596.544801" y="469.14407" xlink:href="#a"/>
<use x="599.365979" y="461.255766" xlink:href="#a"/>
<use x="601.670967" y="469.14407" xlink:href="#a"/>
<use x="604.767162" y="461.255766" xlink:href="#a"/>
<use x="606.893584" y="469.14407" xlink:href="#a"/>
<use x="609.835717" y="461.255766" xlink:href="#a"/>
<use x="612.175999" y="469.14407" xlink:href="#a"/>
<use x="614.968238" y="469.14407" xlink:href="#a"/>
<use x="616.875509" y="461.255766" xlink:href="#a"/>
<use x="619.430034" y="469.14407" xlink:href="#a"/>
<use x="622.66835" y="469.14407" xlink:href="#a"/>
<use x="624.928526" y="469.14407" xlink:href="#a"/>
<use x="625.911218" y="469.14407" xlink:href="#a"/>
<use x="626.187388" y="469.14407" xlink:href="#a"/>
<use x="627.428249" y="469.14407" xlink:href="#a"/>
<use x="629.305014" y="461.255766" xlink:href="#a"/>
<use x="630.053716" y="469.14407" xlink:href="#a"/>
<use x="632.799814" y="469.14407" xlink:href="#a"/>
<use x="634.92127" y="469.14407" xlink:href="#a"/>
<use x="635.184582" y="469.14407" xlink:href="#a"/>
<use x="637.681438" y="469.14407" xlink:href="#a"/>
<use x="640.22813" y="469.14407" xlink:href="#a"/>
<use x="640.725048" y="469.14407" xlink:href="#a"/>
<use x="642.954039" y="469.14407" xlink:href="#a"/>
<use x="645.517728" y="469.14407" xlink:href="#a"/>
<use x="648.064302" y="469.14407" xlink:href="#a"/>
<use x="650.691129" y="469.14407" xlink:href="#a"/>
<use x="652.977199" y="469.14407" xlink:href="#a"/>
<use x="655.579078" y="469.14407" xlink:href="#a"/>
<use x="657.977443" y="469.14407" xlink:href="#a"/>
<use x="659.888526" y="469.14407" xlink:href="#a"/>
<use x="660.853246" y="461.255766" xlink:href="#a"/>
<use x="663.419714" y="469.14407" xlink:href="#a"/>
<use x="665.810334" y="461.255766" xlink:href="#a"/>
<use x="668.166282" y="469.14407" xlink:href="#a"/>
<use x="668.503935" y="469.14407" xlink:href="#a"/>
<use x="670.878327" y="469.14407" xlink:href="#a"/>
<use x="673.16895" y="469.14407" xlink:href="#a"/>
<use x="676.055305" y="469.14407" xlink:href="#a"/>
<use x="678.115071" y="469.14407" xlink:href="#a"/>
</g>
</g>
<path d="m40.6 706v-316" fill="none" stroke="#000" stroke-linecap="square" stroke-width=".8"/>
<path d="m709 706v-316" fill="none" stroke="#000" stroke-linecap="square" stroke-width=".8"/>
<path d="m40.6 706h668" fill="none" stroke="#000" stroke-linecap="square" stroke-width=".8"/>
<path d="m40.6 390h668" fill="none" stroke="#000" stroke-linecap="square" stroke-width=".8"/>
<g clip-path="url(#e)">
<g transform="translate(58.2 619) rotate(-90) scale(.1 -.1)">
<use xlink:href="#p"/>
<use transform="translate(97.4)" xlink:href="#q"/>
<use transform="translate(159)" xlink:href="#t"/>
<use transform="translate(197)" xlink:href="#f"/>
<use transform="translate(259)" xlink:href="#DejaVuSans-20"/>
<use transform="translate(291)" xlink:href="#am"/>
</g>
</g>
<g clip-path="url(#e)">
<g transform="translate(58.2 674) rotate(-90) scale(.1 -.1)">
<use xlink:href="#an"/>
<use transform="translate(143)" xlink:href="#DejaVuSans-20"/>
<use transform="translate(175)" xlink:href="#r"/>
<use transform="translate(203)" xlink:href="#f"/>
<use transform="translate(264)" xlink:href="#m"/>
<use transform="translate(317)" xlink:href="#m"/>
</g>
</g>
<g transform="translate(228 384) scale(.12 -.12)">
<use xlink:href="#ai"/>
<use transform="translate(63.2)" xlink:href="#u"/>
<use transform="translate(98.4)" xlink:href="#u"/>
<use transform="translate(134)" xlink:href="#f"/>
<use transform="translate(195)" xlink:href="#v"/>
<use transform="translate(250)" xlink:href="#o"/>
<use transform="translate(289)" xlink:href="#DejaVuSans-20"/>
<use transform="translate(321)" xlink:href="#q"/>
<use transform="translate(382)" xlink:href="#u"/>
<use transform="translate(417)" xlink:href="#DejaVuSans-20"/>
<use transform="translate(449)" xlink:href="#u"/>
<use transform="translate(484)" xlink:href="#t"/>
<use transform="translate(523)" xlink:href="#f"/>
<use transform="translate(585)" xlink:href="#f"/>
<use transform="translate(646)" xlink:href="#DejaVuSans-20"/>
<use transform="translate(678)" xlink:href="#o"/>
<use transform="translate(717)" xlink:href="#ag"/>
<use transform="translate(781)" xlink:href="#t"/>
<use transform="translate(820)" xlink:href="#f"/>
<use transform="translate(881)" xlink:href="#s"/>
<use transform="translate(942)" xlink:href="#ah"/>
<use transform="translate(1006)" xlink:href="#n"/>
<use transform="translate(1034)" xlink:href="#y"/>
<use transform="translate(1097)" xlink:href="#ab"/>
<use transform="translate(1161)" xlink:href="#DejaVuSans-20"/>
<use transform="translate(1192)" xlink:href="#ad"/>
<use transform="translate(1252)" xlink:href="#m"/>
<use transform="translate(1304)" xlink:href="#c"/>
<use transform="translate(1335)" xlink:href="#DejaVuSans-20"/>
<use transform="translate(1367)" xlink:href="#ae"/>
<use transform="translate(1425)" xlink:href="#n"/>
<use transform="translate(1453)" xlink:href="#f"/>
<use transform="translate(1514)" xlink:href="#t"/>
<use transform="translate(1556)" xlink:href="#DejaVuSans-20"/>
<use transform="translate(1587)" xlink:href="#i"/>
<use transform="translate(1651)" xlink:href="#DejaVuSans-20"/>
<use transform="translate(1683)" xlink:href="#al"/>
<use transform="translate(1722)" xlink:href="#m"/>
<use transform="translate(1774)" xlink:href="#s"/>
<use transform="translate(1835)" xlink:href="#p"/>
<use transform="translate(1933)" xlink:href="#f"/>
<use transform="translate(1994)" xlink:href="#DejaVuSans-20"/>
<use transform="translate(2026)" xlink:href="#v"/>
<use transform="translate(2081)" xlink:href="#q"/>
<use transform="translate(2142)" xlink:href="#p"/>
<use transform="translate(2239)" xlink:href="#p"/>
<use transform="translate(2337)" xlink:href="#n"/>
<use transform="translate(2365)" xlink:href="#o"/>
<use transform="translate(2404)" xlink:href="#ak"/>
</g>
<path d="m47.6 428h82.6q2 0 2-2v-28.4q0-2-2-2h-82.6q-2 0-2 2v28.4q0 2 2 2z" fill="#fff" opacity=".8" stroke="#ccc"/>
<path d="m49.6 403h10 10" fill="none" stroke="#1f77b4" stroke-linecap="square" stroke-opacity=".9" stroke-width="1.5"/>
<use x="59.645553" y="403.359463" fill="#1f77b4" fill-opacity=".9" stroke="#1f77b4" stroke-opacity=".9" xlink:href="#a"/>
<g transform="translate(77.6 407) scale(.1 -.1)">
<defs>
<path id="ap" transform="scale(.0156)" d="m3513 3500-1266-1703 1331-1797h-678l-1019 1375-1018-1375h-679l1360 1831-1244 1669h678l928-1247 928 1247h679z"/>
</defs>
<use xlink:href="#r"/>
<use transform="translate(27.8)" xlink:href="#n"/>
<use transform="translate(55.6)" xlink:href="#y"/>
<use transform="translate(119)" xlink:href="#aa"/>
<use transform="translate(182)" xlink:href="#ap"/>
</g>
<path d="m49.6 418h10 10" fill="none" stroke="#1f77b4" stroke-dasharray="1.5,2.475" stroke-opacity=".9" stroke-width="1.5"/>
<use x="59.645553" y="418.037588" fill="#1f77b4" fill-opacity=".9" stroke="#1f77b4" stroke-opacity=".9" xlink:href="#a"/>
<g transform="translate(77.6 422) scale(.1 -.1)">
<use xlink:href="#r"/>
<use transform="translate(27.8)" xlink:href="#n"/>
<use transform="translate(55.6)" xlink:href="#y"/>
<use transform="translate(119)" xlink:href="#aa"/>
<use transform="translate(182)" xlink:href="#ap"/>
<use transform="translate(242)" xlink:href="#x"/>
<use transform="translate(275)" xlink:href="#ad"/>
<use transform="translate(334)" xlink:href="#aa"/>
<use transform="translate(398)" xlink:href="#r"/>
<use transform="translate(425)" xlink:href="#o"/>
<use transform="translate(465)" xlink:href="#t"/>
</g>
<path d="m40.6 1060h668v-316h-668z" fill="#fff"/>
<path d="m40.6 1060v-316" clip-path="url(#l)" fill="none" stroke="#b0b0b0" stroke-linecap="square" stroke-width=".8"/>
<use x="40.645553" y="1060.321635" stroke="#000000" stroke-width=".8" xlink:href="#j"/>
<g transform="translate(32.7 1075) scale(.1 -.1)">
<use xlink:href="#b"/>
<use transform="translate(63.6)" xlink:href="#c"/>
<use transform="translate(95.4)" xlink:href="#b"/>
</g>
<path d="m174 1060v-316" clip-path="url(#l)" fill="none" stroke="#b0b0b0" stroke-linecap="square" stroke-width=".8"/>
<use x="174.326081" y="1060.321635" stroke="#000000" stroke-width=".8" xlink:href="#j"/>
<g transform="translate(166 1075) scale(.1 -.1)">
<use xlink:href="#b"/>
<use transform="translate(63.6)" xlink:href="#c"/>
<use transform="translate(95.4)" xlink:href="#d"/>
</g>
<path d="m308 1060v-316" clip-path="url(#l)" fill="none" stroke="#b0b0b0" stroke-linecap="square" stroke-width=".8"/>
<use x="308.00661" y="1060.321635" stroke="#000000" stroke-width=".8" xlink:href="#j"/>
<g transform="translate(300 1075) scale(.1 -.1)">
<use xlink:href="#b"/>
<use transform="translate(63.6)" xlink:href="#c"/>
<use transform="translate(95.4)" xlink:href="#w"/>
</g>
<path d="m442 1060v-316" clip-path="url(#l)" fill="none" stroke="#b0b0b0" stroke-linecap="square" stroke-width=".8"/>
<use x="441.68714" y="1060.321635" stroke="#000000" stroke-width=".8" xlink:href="#j"/>
<g transform="translate(434 1075) scale(.1 -.1)">
<use xlink:href="#b"/>
<use transform="translate(63.6)" xlink:href="#c"/>
<use transform="translate(95.4)" xlink:href="#af"/>
</g>
<path d="m575 1060v-316" clip-path="url(#l)" fill="none" stroke="#b0b0b0" stroke-linecap="square" stroke-width=".8"/>
<use x="575.367668" y="1060.321635" stroke="#000000" stroke-width=".8" xlink:href="#j"/>
<g transform="translate(567 1075) scale(.1 -.1)">
<use xlink:href="#b"/>
<use transform="translate(63.6)" xlink:href="#c"/>
<use transform="translate(95.4)" xlink:href="#ac"/>
</g>
<path d="m709 1060v-316" clip-path="url(#l)" fill="none" stroke="#b0b0b0" stroke-linecap="square" stroke-width=".8"/>
<use x="709.048197" y="1060.321635" stroke="#000000" stroke-width=".8" xlink:href="#j"/>
<g transform="translate(701 1075) scale(.1 -.1)">
<use xlink:href="#i"/>
<use transform="translate(63.6)" xlink:href="#c"/>
<use transform="translate(95.4)" xlink:href="#b"/>
</g>
<path d="m40.6 1060h668" clip-path="url(#l)" fill="none" stroke="#b0b0b0" stroke-linecap="square" stroke-width=".8"/>
<use x="40.645553" y="1060.321635" stroke="#000000" stroke-width=".8" xlink:href="#g"/>
<g transform="translate(3 1064) scale(.1 -.1)">
<use xlink:href="#b"/>
<use transform="translate(63.6)" xlink:href="#c"/>
<use transform="translate(95.4)" xlink:href="#b"/>
<use transform="translate(159)" xlink:href="#b"/>
<use transform="translate(223)" xlink:href="#h"/>
</g>
<path d="m40.6 997h668" clip-path="url(#l)" fill="none" stroke="#b0b0b0" stroke-linecap="square" stroke-width=".8"/>
<use x="40.645553" y="997.215199" stroke="#000000" stroke-width=".8" xlink:href="#g"/>
<g transform="translate(3 1e3) scale(.1 -.1)">
<use xlink:href="#b"/>
<use transform="translate(63.6)" xlink:href="#c"/>
<use transform="translate(95.4)" xlink:href="#d"/>
<use transform="translate(159)" xlink:href="#b"/>
<use transform="translate(223)" xlink:href="#h"/>
</g>
<path d="m40.6 934h668" clip-path="url(#l)" fill="none" stroke="#b0b0b0" stroke-linecap="square" stroke-width=".8"/>
<use x="40.645553" y="934.108763" stroke="#000000" stroke-width=".8" xlink:href="#g"/>
<g transform="translate(3 938) scale(.1 -.1)">
<use xlink:href="#b"/>
<use transform="translate(63.6)" xlink:href="#c"/>
<use transform="translate(95.4)" xlink:href="#w"/>
<use transform="translate(159)" xlink:href="#b"/>
<use transform="translate(223)" xlink:href="#h"/>
</g>
<path d="m40.6 871h668" clip-path="url(#l)" fill="none" stroke="#b0b0b0" stroke-linecap="square" stroke-width=".8"/>
<use x="40.645553" y="871.002327" stroke="#000000" stroke-width=".8" xlink:href="#g"/>
<g transform="translate(3 875) scale(.1 -.1)">
<use xlink:href="#b"/>
<use transform="translate(63.6)" xlink:href="#c"/>
<use transform="translate(95.4)" xlink:href="#af"/>
<use transform="translate(159)" xlink:href="#b"/>
<use transform="translate(223)" xlink:href="#h"/>
</g>
<path d="m40.6 808h668" clip-path="url(#l)" fill="none" stroke="#b0b0b0" stroke-linecap="square" stroke-width=".8"/>
<use x="40.645553" y="807.895891" stroke="#000000" stroke-width=".8" xlink:href="#g"/>
<g transform="translate(3 812) scale(.1 -.1)">
<use xlink:href="#b"/>
<use transform="translate(63.6)" xlink:href="#c"/>
<use transform="translate(95.4)" xlink:href="#ac"/>
<use transform="translate(159)" xlink:href="#b"/>
<use transform="translate(223)" xlink:href="#h"/>
</g>
<path d="m40.6 745h668" clip-path="url(#l)" fill="none" stroke="#b0b0b0" stroke-linecap="square" stroke-width=".8"/>
<use x="40.645553" y="744.789455" stroke="#000000" stroke-width=".8" xlink:href="#g"/>
<g transform="translate(3 749) scale(.1 -.1)">
<use xlink:href="#i"/>
<use transform="translate(63.6)" xlink:href="#c"/>
<use transform="translate(95.4)" xlink:href="#b"/>
<use transform="translate(159)" xlink:href="#b"/>
<use transform="translate(223)" xlink:href="#h"/>
</g>
<path d="m40.6 1060v-316" fill="none" stroke="#000" stroke-linecap="square" stroke-width=".8"/>
<path d="m709 1060v-316" fill="none" stroke="#000" stroke-linecap="square" stroke-width=".8"/>
<path d="m40.6 1060h668" fill="none" stroke="#000" stroke-linecap="square" stroke-width=".8"/>
<path d="m40.6 745h668" fill="none" stroke="#000" stroke-linecap="square" stroke-width=".8"/>
<g clip-path="url(#l)">
<g transform="translate(58.2 737) rotate(-90) scale(.1 -.1)">
<use xlink:href="#p"/>
<use transform="translate(97.4)" xlink:href="#q"/>
<use transform="translate(159)" xlink:href="#t"/>
<use transform="translate(197)" xlink:href="#f"/>
<use transform="translate(259)" xlink:href="#DejaVuSans-20"/>
<use transform="translate(291)" xlink:href="#am"/>
</g>
</g>
<g clip-path="url(#l)">
<g transform="translate(58.2 792) rotate(-90) scale(.1 -.1)">
<use xlink:href="#an"/>
<use transform="translate(143)" xlink:href="#DejaVuSans-20"/>
<use transform="translate(175)" xlink:href="#r"/>
<use transform="translate(203)" xlink:href="#f"/>
<use transform="translate(264)" xlink:href="#m"/>
<use transform="translate(317)" xlink:href="#m"/>
</g>
</g>
<g transform="translate(264 739) scale(.12 -.12)">
<defs>
<path id="au" transform="scale(.0156)" d="m628 4666h631v-4341q0-844-320-1225t-1030-381h-240v531h197q418 0 590 235 172 234 172 840v4341z"/>
<path id="av" transform="scale(.0156)" d="m628 4666h631v-4666h-631v4666z"/>
</defs>
<use xlink:href="#ai"/>
<use transform="translate(63.2)" xlink:href="#u"/>
<use transform="translate(98.4)" xlink:href="#u"/>
<use transform="translate(134)" xlink:href="#f"/>
<use transform="translate(195)" xlink:href="#v"/>
<use transform="translate(250)" xlink:href="#o"/>
<use transform="translate(289)" xlink:href="#DejaVuSans-20"/>
<use transform="translate(321)" xlink:href="#q"/>
<use transform="translate(382)" xlink:href="#u"/>
<use transform="translate(417)" xlink:href="#DejaVuSans-20"/>
<use transform="translate(449)" xlink:href="#au"/>
<use transform="translate(479)" xlink:href="#av"/>
<use transform="translate(508)" xlink:href="#ae"/>
<use transform="translate(569)" xlink:href="#DejaVuSans-20"/>
<use transform="translate(601)" xlink:href="#ad"/>
<use transform="translate(660)" xlink:href="#m"/>
<use transform="translate(712)" xlink:href="#c"/>
<use transform="translate(744)" xlink:href="#DejaVuSans-20"/>
<use transform="translate(776)" xlink:href="#ae"/>
<use transform="translate(834)" xlink:href="#n"/>
<use transform="translate(862)" xlink:href="#f"/>
<use transform="translate(923)" xlink:href="#t"/>
<use transform="translate(964)" xlink:href="#DejaVuSans-20"/>
<use transform="translate(996)" xlink:href="#i"/>
<use transform="translate(1060)" xlink:href="#DejaVuSans-20"/>
<use transform="translate(1092)" xlink:href="#al"/>
<use transform="translate(1131)" xlink:href="#m"/>
<use transform="translate(1183)" xlink:href="#s"/>
<use transform="translate(1244)" xlink:href="#p"/>
<use transform="translate(1341)" xlink:href="#f"/>
<use transform="translate(1403)" xlink:href="#DejaVuSans-20"/>
<use transform="translate(1435)" xlink:href="#v"/>
<use transform="translate(1490)" xlink:href="#q"/>
<use transform="translate(1551)" xlink:href="#p"/>
<use transform="translate(1648)" xlink:href="#p"/>
<use transform="translate(1746)" xlink:href="#n"/>
<use transform="translate(1773)" xlink:href="#o"/>
<use transform="translate(1813)" xlink:href="#ak"/>
</g>
<path d="m47.6 758h4q2 0 2-2v-4q0-2-2-2h-4q-2 0-2 2v4q0 2 2 2z" fill="#fff" opacity=".8" stroke="#ccc"/>
<g transform="translate(241 12.1) scale(.12 -.12)">
<defs>
<path id="at" transform="scale(.0156)" d="m628 4666h941l1190-3175 1197 3175h941v-4666h-616v4097l-1203-3200h-634l-1203 3200v-4097h-613v4666z"/>
<path id="ao" transform="scale(.0156)" d="m2059-325q-243-625-475-815-231-191-618-191h-460v481h338q237 0 368 113 132 112 291 531l103 262-1415 3444h609l1094-2737 1094 2737h609l-1538-3825z"/>
</defs>
<use xlink:href="#at"/>
<use transform="translate(86.3)" xlink:href="#f"/>
<use transform="translate(148)" xlink:href="#p"/>
<use transform="translate(245)" xlink:href="#q"/>
<use transform="translate(306)" xlink:href="#t"/>
<use transform="translate(348)" xlink:href="#ao"/>
<use transform="translate(407)" xlink:href="#DejaVuSans-20"/>
<use transform="translate(438)" xlink:href="#aa"/>
<use transform="translate(502)" xlink:href="#m"/>
<use transform="translate(554)" xlink:href="#s"/>
<use transform="translate(615)" xlink:href="#ab"/>
<use transform="translate(679)" xlink:href="#f"/>
<use transform="translate(740)" xlink:href="#DejaVuSans-20"/>
<use transform="translate(772)" xlink:href="#v"/>
<use transform="translate(827)" xlink:href="#ag"/>
<use transform="translate(890)" xlink:href="#s"/>
<use transform="translate(952)" xlink:href="#y"/>
<use transform="translate(1015)" xlink:href="#ab"/>
<use transform="translate(1079)" xlink:href="#f"/>
<use transform="translate(1140)" xlink:href="#DejaVuSans-20"/>
<use transform="translate(1172)" xlink:href="#aq"/>
<use transform="translate(1235)" xlink:href="#ao"/>
<use transform="translate(1294)" xlink:href="#DejaVuSans-20"/>
<use transform="translate(1326)" xlink:href="#v"/>
<use transform="translate(1381)" xlink:href="#q"/>
<use transform="translate(1442)" xlink:href="#y"/>
<use transform="translate(1506)" xlink:href="#u"/>
<use transform="translate(1541)" xlink:href="#n"/>
<use transform="translate(1569)" xlink:href="#ab"/>
<use transform="translate(1632)" xlink:href="#aa"/>
<use transform="translate(1696)" xlink:href="#t"/>
<use transform="translate(1737)" xlink:href="#s"/>
<use transform="translate(1798)" xlink:href="#o"/>
<use transform="translate(1837)" xlink:href="#n"/>
<use transform="translate(1865)" xlink:href="#q"/>
<use transform="translate(1926)" xlink:href="#y"/>
</g>
<defs>
<clipPath id="k">
<rect x="40.6" y="35.7" width="668" height="316"/>
</clipPath>
<clipPath id="e">
<rect x="40.6" y="390" width="668" height="316"/>
</clipPath>
<clipPath id="l">
<rect x="40.6" y="745" width="668" height="316"/>
</clipPath>
</defs>
</svg>
