<?xml version="1.0" encoding="UTF-8"?>
<!DOCTYPE svg  PUBLIC '-//W3C//DTD SVG 1.1//EN'  'http://www.w3.org/Graphics/SVG/1.1/DTD/svg11.dtd'>
<svg width="720pt" height="720pt" version="1.1" viewBox="0 0 720 720" xmlns="http://www.w3.org/2000/svg" xmlns:xlink="http://www.w3.org/1999/xlink">
<defs>
<style type="text/css">*{stroke-linejoin: round; stroke-linecap: butt}</style>
</defs>
<path d="m0 720h720v-720h-720z" fill="#fff"/>
<path d="m40.6 349h660v-313h-660z" fill="#fff"/>
<path d="m99.5 349v-313" clip-path="url(#g)" fill="none" stroke="#b0b0b0" stroke-linecap="square" stroke-width=".8"/>
<defs>
<path id="k" d="m0 0v3.5" stroke="#000" stroke-width=".8"/>
</defs>
<use x="99.457342" y="348.52899" stroke="#000000" stroke-width=".8" xlink:href="#k"/>
<g transform="translate(70.4 363) scale(.1 -.1)">
<defs>
<path id="c" transform="scale(.0156)" d="m1228 531h2203v-531h-2962v531q359 372 979 998 621 627 780 809 303 340 423 576 121 236 121 464 0 372-261 606-261 235-680 235-297 0-627-103-329-103-704-313v638q381 153 712 231 332 78 607 78 725 0 1156-363 431-362 431-968 0-288-108-546-107-257-392-607-78-91-497-524-418-433-1181-1211z"/>
<path id="b" transform="scale(.0156)" d="m2034 4250q-487 0-733-480-245-479-245-1442 0-959 245-1439 246-480 733-480 491 0 736 480 246 480 246 1439 0 963-246 1442-245 480-736 480zm0 500q785 0 1199-621 414-620 414-1801 0-1178-414-1799-414-620-1199-620-784 0-1198 620-414 621-414 1799 0 1181 414 1801 414 621 1198 621z"/>
<path id="m" transform="scale(.0156)" d="m2419 4116-1594-2491h1594v2491zm-166 550h794v-3041h666v-525h-666v-1100h-628v1100h-2106v609l1940 2957z"/>
<path id="f" transform="scale(.0156)" d="m313 2009h1684v-512h-1684v512z"/>
<path id="l" transform="scale(.0156)" d="m691 4666h2478v-532h-1900v-1143q137 47 274 70 138 23 276 23 781 0 1237-428 457-428 457-1159 0-753-469-1171-469-417-1322-417-294 0-599 50-304 50-629 150v635q281-153 581-228t634-75q541 0 856 284 316 284 316 772 0 487-316 771-315 285-856 285-253 0-505-56-251-56-513-175v2344z"/>
<path id="d" transform="scale(.0156)" d="m794 531h1031v3560l-1122-225v575l1116 225h631v-4135h1031v-531h-2687v531z"/>
</defs>
<use xlink:href="#c"/>
<use transform="translate(63.6)" xlink:href="#b"/>
<use transform="translate(127)" xlink:href="#c"/>
<use transform="translate(191)" xlink:href="#m"/>
<use transform="translate(254)" xlink:href="#f"/>
<use transform="translate(291)" xlink:href="#b"/>
<use transform="translate(354)" xlink:href="#l"/>
<use transform="translate(418)" xlink:href="#f"/>
<use transform="translate(454)" xlink:href="#d"/>
<use transform="translate(518)" xlink:href="#l"/>
</g>
<path d="m175 349v-313" clip-path="url(#g)" fill="none" stroke="#b0b0b0" stroke-linecap="square" stroke-width=".8"/>
<use x="174.548032" y="348.52899" stroke="#000000" stroke-width=".8" xlink:href="#k"/>
<g transform="translate(145 363) scale(.1 -.1)">
<defs>
<path id="ag" transform="scale(.0156)" d="m2113 2584q-425 0-674-291-248-290-248-796 0-503 248-796 249-292 674-292t673 292q248 293 248 796 0 506-248 796-248 291-673 291zm1253 1979v-575q-238 112-480 171-242 60-480 60-625 0-955-422-329-422-376-1275 184 272 462 417 279 145 613 145 703 0 1111-427 408-426 408-1160 0-719-425-1154-425-434-1131-434-810 0-1238 620-428 621-428 1799 0 1106 525 1764t1409 658q238 0 480-47t505-140z"/>
</defs>
<use xlink:href="#c"/>
<use transform="translate(63.6)" xlink:href="#b"/>
<use transform="translate(127)" xlink:href="#c"/>
<use transform="translate(191)" xlink:href="#m"/>
<use transform="translate(254)" xlink:href="#f"/>
<use transform="translate(291)" xlink:href="#b"/>
<use transform="translate(354)" xlink:href="#ag"/>
<use transform="translate(418)" xlink:href="#f"/>
<use transform="translate(454)" xlink:href="#b"/>
<use transform="translate(518)" xlink:href="#d"/>
</g>
<path d="m236 349v-313" clip-path="url(#g)" fill="none" stroke="#b0b0b0" stroke-linecap="square" stroke-width=".8"/>
<use x="236.387424" y="348.52899" stroke="#000000" stroke-width=".8" xlink:href="#k"/>
<g transform="translate(207 363) scale(.1 -.1)">
<use xlink:href="#c"/>
<use transform="translate(63.6)" xlink:href="#b"/>
<use transform="translate(127)" xlink:href="#c"/>
<use transform="translate(191)" xlink:href="#m"/>
<use transform="translate(254)" xlink:href="#f"/>
<use transform="translate(291)" xlink:href="#b"/>
<use transform="translate(354)" xlink:href="#ag"/>
<use transform="translate(418)" xlink:href="#f"/>
<use transform="translate(454)" xlink:href="#d"/>
<use transform="translate(518)" xlink:href="#l"/>
</g>
<path d="m307 349v-313" clip-path="url(#g)" fill="none" stroke="#b0b0b0" stroke-linecap="square" stroke-width=".8"/>
<use x="307.061014" y="348.52899" stroke="#000000" stroke-width=".8" xlink:href="#k"/>
<g transform="translate(278 363) scale(.1 -.1)">
<defs>
<path id="ak" transform="scale(.0156)" d="m525 4666h3e3v-269l-1694-4397h-659l1594 4134h-2241v532z"/>
</defs>
<use xlink:href="#c"/>
<use transform="translate(63.6)" xlink:href="#b"/>
<use transform="translate(127)" xlink:href="#c"/>
<use transform="translate(191)" xlink:href="#m"/>
<use transform="translate(254)" xlink:href="#f"/>
<use transform="translate(291)" xlink:href="#b"/>
<use transform="translate(354)" xlink:href="#ak"/>
<use transform="translate(418)" xlink:href="#f"/>
<use transform="translate(454)" xlink:href="#b"/>
<use transform="translate(518)" xlink:href="#d"/>
</g>
<path d="m369 349v-313" clip-path="url(#g)" fill="none" stroke="#b0b0b0" stroke-linecap="square" stroke-width=".8"/>
<use x="368.900406" y="348.52899" stroke="#000000" stroke-width=".8" xlink:href="#k"/>
<g transform="translate(340 363) scale(.1 -.1)">
<use xlink:href="#c"/>
<use transform="translate(63.6)" xlink:href="#b"/>
<use transform="translate(127)" xlink:href="#c"/>
<use transform="translate(191)" xlink:href="#m"/>
<use transform="translate(254)" xlink:href="#f"/>
<use transform="translate(291)" xlink:href="#b"/>
<use transform="translate(354)" xlink:href="#ak"/>
<use transform="translate(418)" xlink:href="#f"/>
<use transform="translate(454)" xlink:href="#d"/>
<use transform="translate(518)" xlink:href="#l"/>
</g>
<path d="m444 349v-313" clip-path="url(#g)" fill="none" stroke="#b0b0b0" stroke-linecap="square" stroke-width=".8"/>
<use x="443.991096" y="348.52899" stroke="#000000" stroke-width=".8" xlink:href="#k"/>
<g transform="translate(415 363) scale(.1 -.1)">
<defs>
<path id="af" transform="scale(.0156)" d="m2034 2216q-450 0-708-241-257-241-257-662 0-422 257-663 258-241 708-241t709 242q260 243 260 662 0 421-258 662-257 241-711 241zm-631 268q-406 100-633 378-226 279-226 679 0 559 398 884 399 325 1092 325 697 0 1094-325t397-884q0-400-227-679-226-278-629-378 456-106 710-416 255-309 255-755 0-679-414-1042-414-362-1186-362-771 0-1186 362-414 363-414 1042 0 446 256 755 257 310 713 416zm-231 997q0-362 226-565 227-203 636-203 407 0 636 203 230 203 230 565 0 363-230 566-229 203-636 203-409 0-636-203-226-203-226-566z"/>
</defs>
<use xlink:href="#c"/>
<use transform="translate(63.6)" xlink:href="#b"/>
<use transform="translate(127)" xlink:href="#c"/>
<use transform="translate(191)" xlink:href="#m"/>
<use transform="translate(254)" xlink:href="#f"/>
<use transform="translate(291)" xlink:href="#b"/>
<use transform="translate(354)" xlink:href="#af"/>
<use transform="translate(418)" xlink:href="#f"/>
<use transform="translate(454)" xlink:href="#b"/>
<use transform="translate(518)" xlink:href="#d"/>
</g>
<path d="m506 349v-313" clip-path="url(#g)" fill="none" stroke="#b0b0b0" stroke-linecap="square" stroke-width=".8"/>
<use x="505.830488" y="348.52899" stroke="#000000" stroke-width=".8" xlink:href="#k"/>
<g transform="translate(477 363) scale(.1 -.1)">
<use xlink:href="#c"/>
<use transform="translate(63.6)" xlink:href="#b"/>
<use transform="translate(127)" xlink:href="#c"/>
<use transform="translate(191)" xlink:href="#m"/>
<use transform="translate(254)" xlink:href="#f"/>
<use transform="translate(291)" xlink:href="#b"/>
<use transform="translate(354)" xlink:href="#af"/>
<use transform="translate(418)" xlink:href="#f"/>
<use transform="translate(454)" xlink:href="#d"/>
<use transform="translate(518)" xlink:href="#l"/>
</g>
<path d="m581 349v-313" clip-path="url(#g)" fill="none" stroke="#b0b0b0" stroke-linecap="square" stroke-width=".8"/>
<use x="580.921177" y="348.52899" stroke="#000000" stroke-width=".8" xlink:href="#k"/>
<g transform="translate(552 363) scale(.1 -.1)">
<defs>
<path id="v" transform="scale(.0156)" d="m703 97v575q238-113 481-172 244-59 479-59 625 0 954 420 330 420 377 1277-181-269-460-413-278-144-615-144-700 0-1108 423-408 424-408 1159 0 718 425 1152 425 435 1131 435 810 0 1236-621 427-620 427-1801 0-1103-524-1761-523-658-1407-658-238 0-482 47-243 47-506 141zm1256 1978q425 0 673 290 249 291 249 798 0 503-249 795-248 292-673 292t-673-292-248-795q0-507 248-798 248-290 673-290z"/>
</defs>
<use xlink:href="#c"/>
<use transform="translate(63.6)" xlink:href="#b"/>
<use transform="translate(127)" xlink:href="#c"/>
<use transform="translate(191)" xlink:href="#m"/>
<use transform="translate(254)" xlink:href="#f"/>
<use transform="translate(291)" xlink:href="#b"/>
<use transform="translate(354)" xlink:href="#v"/>
<use transform="translate(418)" xlink:href="#f"/>
<use transform="translate(454)" xlink:href="#b"/>
<use transform="translate(518)" xlink:href="#d"/>
</g>
<path d="m643 349v-313" clip-path="url(#g)" fill="none" stroke="#b0b0b0" stroke-linecap="square" stroke-width=".8"/>
<use x="642.760569" y="348.52899" stroke="#000000" stroke-width=".8" xlink:href="#k"/>
<g transform="translate(614 363) scale(.1 -.1)">
<use xlink:href="#c"/>
<use transform="translate(63.6)" xlink:href="#b"/>
<use transform="translate(127)" xlink:href="#c"/>
<use transform="translate(191)" xlink:href="#m"/>
<use transform="translate(254)" xlink:href="#f"/>
<use transform="translate(291)" xlink:href="#b"/>
<use transform="translate(354)" xlink:href="#v"/>
<use transform="translate(418)" xlink:href="#f"/>
<use transform="translate(454)" xlink:href="#d"/>
<use transform="translate(518)" xlink:href="#l"/>
</g>
<path d="m40.6 349h660" clip-path="url(#g)" fill="none" stroke="#b0b0b0" stroke-linecap="square" stroke-width=".8"/>
<defs>
<path id="i" d="m0 0h-3.5" stroke="#000" stroke-width=".8"/>
</defs>
<use x="40.645553" y="348.52899" stroke="#000000" stroke-width=".8" xlink:href="#i"/>
<g transform="translate(3 352) scale(.1 -.1)">
<defs>
<path id="e" transform="scale(.0156)" d="m684 794h660v-794h-660v794z"/>
<path id="j" transform="scale(.0156)" d="m4488 3438-1429-1435 1429-1428-372-378-1435 1434-1434-1434-369 378 1425 1428-1425 1435 369 378 1434-1435 1435 1435 372-378z"/>
</defs>
<use xlink:href="#b"/>
<use transform="translate(63.6)" xlink:href="#e"/>
<use transform="translate(95.4)" xlink:href="#v"/>
<use transform="translate(159)" xlink:href="#b"/>
<use transform="translate(223)" xlink:href="#j"/>
</g>
<path d="m40.6 309h660" clip-path="url(#g)" fill="none" stroke="#b0b0b0" stroke-linecap="square" stroke-width=".8"/>
<use x="40.645553" y="309.429441" stroke="#000000" stroke-width=".8" xlink:href="#i"/>
<g transform="translate(3 313) scale(.1 -.1)">
<use xlink:href="#b"/>
<use transform="translate(63.6)" xlink:href="#e"/>
<use transform="translate(95.4)" xlink:href="#v"/>
<use transform="translate(159)" xlink:href="#l"/>
<use transform="translate(223)" xlink:href="#j"/>
</g>
<path d="m40.6 270h660" clip-path="url(#g)" fill="none" stroke="#b0b0b0" stroke-linecap="square" stroke-width=".8"/>
<use x="40.645553" y="270.329891" stroke="#000000" stroke-width=".8" xlink:href="#i"/>
<g transform="translate(3 274) scale(.1 -.1)">
<use xlink:href="#d"/>
<use transform="translate(63.6)" xlink:href="#e"/>
<use transform="translate(95.4)" xlink:href="#b"/>
<use transform="translate(159)" xlink:href="#b"/>
<use transform="translate(223)" xlink:href="#j"/>
</g>
<path d="m40.6 231h660" clip-path="url(#g)" fill="none" stroke="#b0b0b0" stroke-linecap="square" stroke-width=".8"/>
<use x="40.645553" y="231.230342" stroke="#000000" stroke-width=".8" xlink:href="#i"/>
<g transform="translate(3 235) scale(.1 -.1)">
<use xlink:href="#d"/>
<use transform="translate(63.6)" xlink:href="#e"/>
<use transform="translate(95.4)" xlink:href="#b"/>
<use transform="translate(159)" xlink:href="#l"/>
<use transform="translate(223)" xlink:href="#j"/>
</g>
<path d="m40.6 192h660" clip-path="url(#g)" fill="none" stroke="#b0b0b0" stroke-linecap="square" stroke-width=".8"/>
<use x="40.645553" y="192.130792" stroke="#000000" stroke-width=".8" xlink:href="#i"/>
<g transform="translate(3 196) scale(.1 -.1)">
<use xlink:href="#d"/>
<use transform="translate(63.6)" xlink:href="#e"/>
<use transform="translate(95.4)" xlink:href="#d"/>
<use transform="translate(159)" xlink:href="#b"/>
<use transform="translate(223)" xlink:href="#j"/>
</g>
<path d="m40.6 153h660" clip-path="url(#g)" fill="none" stroke="#b0b0b0" stroke-linecap="square" stroke-width=".8"/>
<use x="40.645553" y="153.031243" stroke="#000000" stroke-width=".8" xlink:href="#i"/>
<g transform="translate(3 157) scale(.1 -.1)">
<use xlink:href="#d"/>
<use transform="translate(63.6)" xlink:href="#e"/>
<use transform="translate(95.4)" xlink:href="#d"/>
<use transform="translate(159)" xlink:href="#l"/>
<use transform="translate(223)" xlink:href="#j"/>
</g>
<path d="m40.6 114h660" clip-path="url(#g)" fill="none" stroke="#b0b0b0" stroke-linecap="square" stroke-width=".8"/>
<use x="40.645553" y="113.931694" stroke="#000000" stroke-width=".8" xlink:href="#i"/>
<g transform="translate(3 118) scale(.1 -.1)">
<use xlink:href="#d"/>
<use transform="translate(63.6)" xlink:href="#e"/>
<use transform="translate(95.4)" xlink:href="#c"/>
<use transform="translate(159)" xlink:href="#b"/>
<use transform="translate(223)" xlink:href="#j"/>
</g>
<path d="m40.6 74.8h660" clip-path="url(#g)" fill="none" stroke="#b0b0b0" stroke-linecap="square" stroke-width=".8"/>
<use x="40.645553" y="74.832144" stroke="#000000" stroke-width=".8" xlink:href="#i"/>
<g transform="translate(3 78.6) scale(.1 -.1)">
<use xlink:href="#d"/>
<use transform="translate(63.6)" xlink:href="#e"/>
<use transform="translate(95.4)" xlink:href="#c"/>
<use transform="translate(159)" xlink:href="#l"/>
<use transform="translate(223)" xlink:href="#j"/>
</g>
<path d="m40.6 35.7h660" clip-path="url(#g)" fill="none" stroke="#b0b0b0" stroke-linecap="square" stroke-width=".8"/>
<use x="40.645553" y="35.732595" stroke="#000000" stroke-width=".8" xlink:href="#i"/>
<g transform="translate(3 39.5) scale(.1 -.1)">
<defs>
<path id="s" transform="scale(.0156)" d="m2597 2516q453-97 707-404 255-306 255-756 0-690-475-1069-475-378-1350-378-293 0-604 58t-642 174v609q262-153 574-231 313-78 654-78 593 0 904 234t311 681q0 413-289 645-289 233-804 233h-544v519h569q465 0 712 186t247 536q0 359-255 551-254 193-729 193-260 0-557-57-297-56-653-174v562q360 100 674 150t592 50q719 0 1137-327 419-326 419-882 0-388-222-655t-631-370z"/>
</defs>
<use xlink:href="#d"/>
<use transform="translate(63.6)" xlink:href="#e"/>
<use transform="translate(95.4)" xlink:href="#s"/>
<use transform="translate(159)" xlink:href="#b"/>
<use transform="translate(223)" xlink:href="#j"/>
</g>
<path d="m70.6 270 435-7.82h102" clip-path="url(#g)" fill="none" stroke="#1f77b4" stroke-linecap="square" stroke-opacity=".9" stroke-width="1.5"/>
<defs>
<path id="a" d="m-2.5 2.5h5v-5h-5z" stroke="#1f77b4" stroke-opacity=".9"/>
</defs>
<g clip-path="url(#g)" fill="#1f77b4" fill-opacity=".9" stroke="#1f77b4" stroke-opacity=".9">
<use x="70.626566" y="270.329891" xlink:href="#a"/>
<use x="505.742503" y="262.509981" xlink:href="#a"/>
<use x="607.286813" y="262.509981" xlink:href="#a"/>
</g>
<g stroke="#1f77b4" stroke-opacity=".9">
<path d="m607 255h63" clip-path="url(#g)" fill="none" stroke-dasharray="1.5,2.475" stroke-width="1.5"/>
<g clip-path="url(#g)" fill="#1f77b4" fill-opacity=".9">
<use x="607.286813" y="254.690071" xlink:href="#a"/>
<use x="670.246839" y="254.690071" xlink:href="#a"/>
</g>
</g>
<path d="m40.6 349v-313" fill="none" stroke="#000" stroke-linecap="square" stroke-width=".8"/>
<path d="m700 349v-313" fill="none" stroke="#000" stroke-linecap="square" stroke-width=".8"/>
<path d="m40.6 349h660" fill="none" stroke="#000" stroke-linecap="square" stroke-width=".8"/>
<path d="m40.6 35.7h660" fill="none" stroke="#000" stroke-linecap="square" stroke-width=".8"/>
<path d="m71.1 261-0.348 7.35" fill="none" stroke="#888" stroke-linecap="round"/>
<g transform="translate(73.7 257) rotate(-90) scale(.08 -.08)" fill="#888">
<defs>
<path id="ai" transform="scale(.0156)" d="m3116 1747q0 634-261 995t-717 361q-457 0-718-361t-261-995 261-995 718-361q456 0 717 361t261 995zm-1957 1222q182 312 458 463 277 152 661 152 638 0 1036-506 399-506 399-1331t-399-1332q-398-506-1036-506-384 0-661 152-276 152-458 464v-525h-578v4863h578v-1894z"/>
</defs>
<use xlink:href="#ai"/>
<use transform="translate(63.5)" xlink:href="#d"/>
</g>
<path d="m608 253-0.326 7.34" fill="none" stroke="#888" stroke-linecap="round"/>
<g transform="translate(610 249) rotate(-90) scale(.08 -.08)" fill="#888">
<defs>
<path id="n" transform="scale(.0156)" d="m2631 2963q-97 56-211 82-114 27-251 27-488 0-749-317t-261-911v-1844h-578v3500h578v-544q182 319 472 473 291 155 707 155 59 0 131-8 72-7 159-23l3-590z"/>
<path id="ae" transform="scale(.0156)" d="m3122 3366v-538q-244 135-489 202t-495 67q-560 0-870-355-309-354-309-995t309-996q310-354 870-354 250 0 495 67t489 202v-532q-241-112-499-168-257-57-548-57-791 0-1257 497-465 497-465 1341 0 856 470 1346 471 491 1290 491 265 0 518-55 253-54 491-163z"/>
</defs>
<use xlink:href="#n"/>
<use transform="translate(38.9)" xlink:href="#ae"/>
<use transform="translate(93.8)" xlink:href="#c"/>
</g>
<g clip-path="url(#g)">
<g transform="translate(58.2 262) rotate(-90) scale(.1 -.1)">
<defs>
<path id="ab" transform="scale(.0156)" d="m3328 2828q216 388 516 572t706 184q547 0 844-383 297-382 297-1088v-2113h-578v2094q0 503-179 746-178 244-543 244-447 0-707-297-259-296-259-809v-1978h-578v2094q0 506-178 748t-550 242q-441 0-701-298-259-298-259-808v-1978h-578v3500h578v-544q197 322 472 475t653 153q382 0 649-194 267-193 395-562z"/>
<path id="u" transform="scale(.0156)" d="m1959 3097q-462 0-731-361t-269-989 267-989q268-361 733-361 460 0 728 362 269 363 269 988 0 622-269 986-268 364-728 364zm0 487q750 0 1178-488 429-487 429-1349 0-859-429-1349-428-489-1178-489-753 0-1180 489-426 490-426 1349 0 862 426 1349 427 488 1180 488z"/>
<path id="r" transform="scale(.0156)" d="m3597 1894v-281h-2644q38-594 358-905t892-311q331 0 642 81t618 244v-544q-310-131-635-200t-659-69q-838 0-1327 487-489 488-489 1320 0 859 464 1363 464 505 1252 505 706 0 1117-455 411-454 411-1235zm-575 169q-6 471-264 752-258 282-683 282-481 0-770-272t-333-766l2050 4z"/>
<path id="al" transform="scale(.0156)" d="m8863 2147v-281l-1229-1228-375 375 729 728h-7622v531h7622l-729 728 375 375 1229-1228z"/>
</defs>
<use xlink:href="#ab"/>
<use transform="translate(97.4)" xlink:href="#u"/>
<use transform="translate(159)" xlink:href="#n"/>
<use transform="translate(197)" xlink:href="#r"/>
<use transform="translate(259)" xlink:href="#DejaVuSans-20"/>
<use transform="translate(291)" xlink:href="#al"/>
</g>
</g>
<g clip-path="url(#g)">
<g transform="translate(58.2 317) rotate(-90) scale(.1 -.1)">
<defs>
<path id="am" transform="scale(.0156)" d="m313 1866v281l1228 1228 375-375-728-728h7621v-531h-7621l728-728-375-375-1228 1228z"/>
<path id="q" transform="scale(.0156)" d="m603 4863h575v-4863h-575v4863z"/>
<path id="o" transform="scale(.0156)" d="m2834 3397v-544q-243 125-506 187-262 63-544 63-428 0-642-131t-214-394q0-200 153-314t616-217l197-44q612-131 870-370t258-667q0-488-386-773-386-284-1061-284-281 0-586 55t-642 164v594q319-166 628-249 309-82 613-82 406 0 624 139 219 139 219 392 0 234-158 359-157 125-692 241l-200 47q-534 112-772 345-237 233-237 639 0 494 350 762 350 269 994 269 318 0 599-47 282-46 519-140z"/>
</defs>
<use xlink:href="#am"/>
<use transform="translate(143)" xlink:href="#DejaVuSans-20"/>
<use transform="translate(175)" xlink:href="#q"/>
<use transform="translate(203)" xlink:href="#r"/>
<use transform="translate(264)" xlink:href="#o"/>
<use transform="translate(317)" xlink:href="#o"/>
</g>
</g>
<g transform="translate(297 29.7) scale(.12 -.12)">
<defs>
<path id="aj" transform="scale(.0156)" d="m1259 4147v-1753h794q441 0 681 228 241 228 241 650 0 419-241 647-240 228-681 228h-794zm-631 519h1425q785 0 1186-355 402-355 402-1039 0-691-402-1044-401-353-1186-353h-794v-1875h-631v4666z"/>
<path id="z" transform="scale(.0156)" d="m2059-325q-243-625-475-815-231-191-618-191h-460v481h338q237 0 368 113 132 112 291 531l103 262-1415 3444h609l1094-2737 1094 2737h609l-1538-3825z"/>
<path id="aa" transform="scale(.0156)" d="m1172 4494v-994h1184v-447h-1184v-1900q0-428 117-550t477-122h590v-481h-590q-666 0-919 248-253 249-253 905v1900h-422v447h422v994h578z"/>
<path id="ad" transform="scale(.0156)" d="m3513 2113v-2113h-575v2094q0 497-194 743-194 247-581 247-466 0-735-297-269-296-269-809v-1978h-578v4863h578v-1907q207 316 486 472 280 156 646 156 603 0 912-373 310-373 310-1098z"/>
<path id="p" transform="scale(.0156)" d="m3513 2113v-2113h-575v2094q0 497-194 743-194 247-581 247-466 0-735-297-269-296-269-809v-1978h-578v3500h578v-544q207 316 486 472 280 156 646 156 603 0 912-373 310-373 310-1098z"/>
<path id="w" transform="scale(.0156)" d="m3513 3500-1266-1703 1331-1797h-678l-1019 1375-1018-1375h-679l1360 1831-1244 1669h678l928-1247 928 1247h679z"/>
<path id="x" transform="scale(.0156)" d="m191 3500h609l1094-2937 1094 2937h609l-1313-3500h-781l-1312 3500z"/>
</defs>
<use xlink:href="#aj"/>
<use transform="translate(60.3)" xlink:href="#z"/>
<use transform="translate(119)" xlink:href="#aa"/>
<use transform="translate(159)" xlink:href="#ad"/>
<use transform="translate(222)" xlink:href="#u"/>
<use transform="translate(283)" xlink:href="#p"/>
<use transform="translate(347)" xlink:href="#DejaVuSans-20"/>
<use transform="translate(378)" xlink:href="#s"/>
<use transform="translate(442)" xlink:href="#e"/>
<use transform="translate(474)" xlink:href="#d"/>
<use transform="translate(537)" xlink:href="#s"/>
<use transform="translate(601)" xlink:href="#e"/>
<use transform="translate(633)" xlink:href="#w"/>
<use transform="translate(692)" xlink:href="#DejaVuSans-20"/>
<use transform="translate(724)" xlink:href="#x"/>
<use transform="translate(783)" xlink:href="#o"/>
<use transform="translate(835)" xlink:href="#e"/>
<use transform="translate(867)" xlink:href="#DejaVuSans-20"/>
<use transform="translate(899)" xlink:href="#s"/>
<use transform="translate(962)" xlink:href="#e"/>
<use transform="translate(994)" xlink:href="#d"/>
<use transform="translate(1058)" xlink:href="#c"/>
<use transform="translate(1121)" xlink:href="#e"/>
<use transform="translate(1153)" xlink:href="#ag"/>
</g>
<path d="m47.6 73.1h82.6q2 0 2-2v-28.4q0-2-2-2h-82.6q-2 0-2 2v28.4q0 2 2 2z" fill="#fff" opacity=".8" stroke="#ccc"/>
<path d="m49.6 48.8h10 10" fill="none" stroke="#1f77b4" stroke-linecap="square" stroke-opacity=".9" stroke-width="1.5"/>
<use x="59.645553" y="48.831032" fill="#1f77b4" fill-opacity=".9" stroke="#1f77b4" stroke-opacity=".9" xlink:href="#a"/>
<g transform="translate(77.6 52.3) scale(.1 -.1)">
<defs>
<path id="y" transform="scale(.0156)" d="m603 3500h575v-3500h-575v3500zm0 1363h575v-729h-575v729z"/>
<path id="t" transform="scale(.0156)" d="m544 1381v2119h575v-2097q0-497 193-746 194-248 582-248 465 0 735 297 271 297 271 810v1984h575v-3500h-575v538q-209-319-486-474-276-155-642-155-603 0-916 375-312 375-312 1097zm1447 2203z"/>
</defs>
<use xlink:href="#q"/>
<use transform="translate(27.8)" xlink:href="#y"/>
<use transform="translate(55.6)" xlink:href="#p"/>
<use transform="translate(119)" xlink:href="#t"/>
<use transform="translate(182)" xlink:href="#w"/>
</g>
<path d="m49.6 63.5h10 10" fill="none" stroke="#1f77b4" stroke-dasharray="1.5,2.475" stroke-opacity=".9" stroke-width="1.5"/>
<use x="59.645553" y="63.509158" fill="#1f77b4" fill-opacity=".9" stroke="#1f77b4" stroke-opacity=".9" xlink:href="#a"/>
<g transform="translate(77.6 67) scale(.1 -.1)">
<use xlink:href="#q"/>
<use transform="translate(27.8)" xlink:href="#y"/>
<use transform="translate(55.6)" xlink:href="#p"/>
<use transform="translate(119)" xlink:href="#t"/>
<use transform="translate(182)" xlink:href="#w"/>
<use transform="translate(242)" xlink:href="#f"/>
<use transform="translate(275)" xlink:href="#x"/>
<use transform="translate(334)" xlink:href="#t"/>
<use transform="translate(398)" xlink:href="#q"/>
<use transform="translate(425)" xlink:href="#aa"/>
<use transform="translate(465)" xlink:href="#n"/>
</g>
<path d="m40.6 700h660v-313h-660z" fill="#fff"/>
<path d="m98.6 700v-313" clip-path="url(#h)" fill="none" stroke="#b0b0b0" stroke-linecap="square" stroke-width=".8"/>
<use x="98.585502" y="700.321635" stroke="#000000" stroke-width=".8" xlink:href="#k"/>
<g transform="translate(77.7 715) scale(.1 -.1)">
<use xlink:href="#c"/>
<use transform="translate(63.6)" xlink:href="#b"/>
<use transform="translate(127)" xlink:href="#c"/>
<use transform="translate(191)" xlink:href="#m"/>
<use transform="translate(254)" xlink:href="#f"/>
<use transform="translate(291)" xlink:href="#b"/>
<use transform="translate(354)" xlink:href="#af"/>
</g>
<path d="m199 700v-313" clip-path="url(#h)" fill="none" stroke="#b0b0b0" stroke-linecap="square" stroke-width=".8"/>
<use x="199.254448" y="700.321635" stroke="#000000" stroke-width=".8" xlink:href="#k"/>
<g transform="translate(178 715) scale(.1 -.1)">
<use xlink:href="#c"/>
<use transform="translate(63.6)" xlink:href="#b"/>
<use transform="translate(127)" xlink:href="#c"/>
<use transform="translate(191)" xlink:href="#m"/>
<use transform="translate(254)" xlink:href="#f"/>
<use transform="translate(291)" xlink:href="#b"/>
<use transform="translate(354)" xlink:href="#v"/>
</g>
<path d="m297 700v-313" clip-path="url(#h)" fill="none" stroke="#b0b0b0" stroke-linecap="square" stroke-width=".8"/>
<use x="296.676009" y="700.321635" stroke="#000000" stroke-width=".8" xlink:href="#k"/>
<g transform="translate(276 715) scale(.1 -.1)">
<use xlink:href="#c"/>
<use transform="translate(63.6)" xlink:href="#b"/>
<use transform="translate(127)" xlink:href="#c"/>
<use transform="translate(191)" xlink:href="#m"/>
<use transform="translate(254)" xlink:href="#f"/>
<use transform="translate(291)" xlink:href="#d"/>
<use transform="translate(354)" xlink:href="#b"/>
</g>
<path d="m397 700v-313" clip-path="url(#h)" fill="none" stroke="#b0b0b0" stroke-linecap="square" stroke-width=".8"/>
<use x="397.344955" y="700.321635" stroke="#000000" stroke-width=".8" xlink:href="#k"/>
<g transform="translate(376 715) scale(.1 -.1)">
<use xlink:href="#c"/>
<use transform="translate(63.6)" xlink:href="#b"/>
<use transform="translate(127)" xlink:href="#c"/>
<use transform="translate(191)" xlink:href="#m"/>
<use transform="translate(254)" xlink:href="#f"/>
<use transform="translate(291)" xlink:href="#d"/>
<use transform="translate(354)" xlink:href="#d"/>
</g>
<path d="m495 700v-313" clip-path="url(#h)" fill="none" stroke="#b0b0b0" stroke-linecap="square" stroke-width=".8"/>
<use x="494.766516" y="700.321635" stroke="#000000" stroke-width=".8" xlink:href="#k"/>
<g transform="translate(474 715) scale(.1 -.1)">
<use xlink:href="#c"/>
<use transform="translate(63.6)" xlink:href="#b"/>
<use transform="translate(127)" xlink:href="#c"/>
<use transform="translate(191)" xlink:href="#m"/>
<use transform="translate(254)" xlink:href="#f"/>
<use transform="translate(291)" xlink:href="#d"/>
<use transform="translate(354)" xlink:href="#c"/>
</g>
<path d="m595 700v-313" clip-path="url(#h)" fill="none" stroke="#b0b0b0" stroke-linecap="square" stroke-width=".8"/>
<use x="595.435462" y="700.321635" stroke="#000000" stroke-width=".8" xlink:href="#k"/>
<g transform="translate(575 715) scale(.1 -.1)">
<use xlink:href="#c"/>
<use transform="translate(63.6)" xlink:href="#b"/>
<use transform="translate(127)" xlink:href="#c"/>
<use transform="translate(191)" xlink:href="#l"/>
<use transform="translate(254)" xlink:href="#f"/>
<use transform="translate(291)" xlink:href="#b"/>
<use transform="translate(354)" xlink:href="#d"/>
</g>
<path d="m696 700v-313" clip-path="url(#h)" fill="none" stroke="#b0b0b0" stroke-linecap="square" stroke-width=".8"/>
<use x="696.104408" y="700.321635" stroke="#000000" stroke-width=".8" xlink:href="#k"/>
<g transform="translate(675 715) scale(.1 -.1)">
<use xlink:href="#c"/>
<use transform="translate(63.6)" xlink:href="#b"/>
<use transform="translate(127)" xlink:href="#c"/>
<use transform="translate(191)" xlink:href="#l"/>
<use transform="translate(254)" xlink:href="#f"/>
<use transform="translate(291)" xlink:href="#b"/>
<use transform="translate(354)" xlink:href="#c"/>
</g>
<path d="m40.6 700h660" clip-path="url(#h)" fill="none" stroke="#b0b0b0" stroke-linecap="square" stroke-width=".8"/>
<use x="40.645553" y="700.321635" stroke="#000000" stroke-width=".8" xlink:href="#i"/>
<g transform="translate(3 704) scale(.1 -.1)">
<use xlink:href="#b"/>
<use transform="translate(63.6)" xlink:href="#e"/>
<use transform="translate(95.4)" xlink:href="#v"/>
<use transform="translate(159)" xlink:href="#b"/>
<use transform="translate(223)" xlink:href="#j"/>
</g>
<path d="m40.6 661h660" clip-path="url(#h)" fill="none" stroke="#b0b0b0" stroke-linecap="square" stroke-width=".8"/>
<use x="40.645553" y="661.222086" stroke="#000000" stroke-width=".8" xlink:href="#i"/>
<g transform="translate(3 665) scale(.1 -.1)">
<use xlink:href="#b"/>
<use transform="translate(63.6)" xlink:href="#e"/>
<use transform="translate(95.4)" xlink:href="#v"/>
<use transform="translate(159)" xlink:href="#l"/>
<use transform="translate(223)" xlink:href="#j"/>
</g>
<path d="m40.6 622h660" clip-path="url(#h)" fill="none" stroke="#b0b0b0" stroke-linecap="square" stroke-width=".8"/>
<use x="40.645553" y="622.122536" stroke="#000000" stroke-width=".8" xlink:href="#i"/>
<g transform="translate(3 626) scale(.1 -.1)">
<use xlink:href="#d"/>
<use transform="translate(63.6)" xlink:href="#e"/>
<use transform="translate(95.4)" xlink:href="#b"/>
<use transform="translate(159)" xlink:href="#b"/>
<use transform="translate(223)" xlink:href="#j"/>
</g>
<path d="m40.6 583h660" clip-path="url(#h)" fill="none" stroke="#b0b0b0" stroke-linecap="square" stroke-width=".8"/>
<use x="40.645553" y="583.022987" stroke="#000000" stroke-width=".8" xlink:href="#i"/>
<g transform="translate(3 587) scale(.1 -.1)">
<use xlink:href="#d"/>
<use transform="translate(63.6)" xlink:href="#e"/>
<use transform="translate(95.4)" xlink:href="#b"/>
<use transform="translate(159)" xlink:href="#l"/>
<use transform="translate(223)" xlink:href="#j"/>
</g>
<path d="m40.6 544h660" clip-path="url(#h)" fill="none" stroke="#b0b0b0" stroke-linecap="square" stroke-width=".8"/>
<use x="40.645553" y="543.923437" stroke="#000000" stroke-width=".8" xlink:href="#i"/>
<g transform="translate(3 548) scale(.1 -.1)">
<use xlink:href="#d"/>
<use transform="translate(63.6)" xlink:href="#e"/>
<use transform="translate(95.4)" xlink:href="#d"/>
<use transform="translate(159)" xlink:href="#b"/>
<use transform="translate(223)" xlink:href="#j"/>
</g>
<path d="m40.6 505h660" clip-path="url(#h)" fill="none" stroke="#b0b0b0" stroke-linecap="square" stroke-width=".8"/>
<use x="40.645553" y="504.823888" stroke="#000000" stroke-width=".8" xlink:href="#i"/>
<g transform="translate(3 509) scale(.1 -.1)">
<use xlink:href="#d"/>
<use transform="translate(63.6)" xlink:href="#e"/>
<use transform="translate(95.4)" xlink:href="#d"/>
<use transform="translate(159)" xlink:href="#l"/>
<use transform="translate(223)" xlink:href="#j"/>
</g>
<path d="m40.6 466h660" clip-path="url(#h)" fill="none" stroke="#b0b0b0" stroke-linecap="square" stroke-width=".8"/>
<use x="40.645553" y="465.724339" stroke="#000000" stroke-width=".8" xlink:href="#i"/>
<g transform="translate(3 470) scale(.1 -.1)">
<use xlink:href="#d"/>
<use transform="translate(63.6)" xlink:href="#e"/>
<use transform="translate(95.4)" xlink:href="#c"/>
<use transform="translate(159)" xlink:href="#b"/>
<use transform="translate(223)" xlink:href="#j"/>
</g>
<path d="m40.6 427h660" clip-path="url(#h)" fill="none" stroke="#b0b0b0" stroke-linecap="square" stroke-width=".8"/>
<use x="40.645553" y="426.624789" stroke="#000000" stroke-width=".8" xlink:href="#i"/>
<g transform="translate(3 430) scale(.1 -.1)">
<use xlink:href="#d"/>
<use transform="translate(63.6)" xlink:href="#e"/>
<use transform="translate(95.4)" xlink:href="#c"/>
<use transform="translate(159)" xlink:href="#l"/>
<use transform="translate(223)" xlink:href="#j"/>
</g>
<path d="m40.6 388h660" clip-path="url(#h)" fill="none" stroke="#b0b0b0" stroke-linecap="square" stroke-width=".8"/>
<use x="40.645553" y="387.52524" stroke="#000000" stroke-width=".8" xlink:href="#i"/>
<g transform="translate(3 391) scale(.1 -.1)">
<use xlink:href="#d"/>
<use transform="translate(63.6)" xlink:href="#e"/>
<use transform="translate(95.4)" xlink:href="#s"/>
<use transform="translate(159)" xlink:href="#b"/>
<use transform="translate(223)" xlink:href="#j"/>
</g>
<g stroke="#1f77b4" stroke-opacity=".9">
<path d="m70.6 622 15.5-7.82h23.2l12.8 7.82h0.0208 0.309 9.55l15.9-7.82h0.111 6.69 22.9 22.8 18.3 0.0365l0.722 7.82 3.15-7.82 22.7 7.82h18.8l18.3-7.82m8.8 7.82 5.9 7.82 0.135 7.82 68.7-23.5h2.99 42.2 3.67 3.07 3.31 2.4 4.09 3.07 3.58 2.87 3.57 3.33 3.08 3.38 3.19l3.31 7.82 2.86-7.82h3.46l3.48-86h3.17 2.93 3.39 3.09 3.27 3.49 2.37 3.79 2.92 3.36 3.79 3.36 3.26l2.87-7.82h3.25 2.75 3.36 3.21l4.01 7.82h3.13 3.05 2.77 2.86 4.31 2.94 3.56 2.2l4.34-7.82h2.71 6.41 3.55 2.87 3.14 3.81 3.28 3.1 3.39 3.08 3.32l3.36 7.82 2.82-7.82h3.62 3.5 3.02 3.47 2.99l3.51 7.82h2.72 3.96l2.49-7.82h3.75l2.41 7.82h4.1 0.342l2.63-7.82h3.62 3.08 3.13l3.55 7.82 3.22-7.82h3.19l0.257 7.82 3.1-7.82h2.11" clip-path="url(#h)" fill="none" stroke-linecap="square" stroke-width="1.5"/>
<g clip-path="url(#h)" fill="#1f77b4" fill-opacity=".9">
<use x="70.626566" y="622.122536" xlink:href="#a"/>
<use x="86.077731" y="614.302626" xlink:href="#a"/>
<use x="109.265303" y="614.302626" xlink:href="#a"/>
<use x="122.040983" y="622.122536" xlink:href="#a"/>
<use x="122.061768" y="622.122536" xlink:href="#a"/>
<use x="122.370908" y="622.122536" xlink:href="#a"/>
<use x="131.919198" y="622.122536" xlink:href="#a"/>
<use x="147.798462" y="614.302626" xlink:href="#a"/>
<use x="147.909865" y="614.302626" xlink:href="#a"/>
<use x="154.598614" y="614.302626" xlink:href="#a"/>
<use x="177.457539" y="614.302626" xlink:href="#a"/>
<use x="200.240127" y="614.302626" xlink:href="#a"/>
<use x="218.585674" y="614.302626" xlink:href="#a"/>
<use x="218.622132" y="614.302626" xlink:href="#a"/>
<use x="219.344225" y="622.122536" xlink:href="#a"/>
<use x="222.497909" y="614.302626" xlink:href="#a"/>
<use x="245.191232" y="622.122536" xlink:href="#a"/>
<use x="264.016821" y="622.122536" xlink:href="#a"/>
<use x="282.358835" y="614.302626" xlink:href="#a"/>
<use x="291.163835" y="622.122536" xlink:href="#a"/>
<use x="297.06111" y="629.942446" xlink:href="#a"/>
<use x="297.196229" y="637.762356" xlink:href="#a"/>
<use x="365.90286" y="614.302626" xlink:href="#a"/>
<use x="368.890568" y="614.302626" xlink:href="#a"/>
<use x="411.11962" y="614.302626" xlink:href="#a"/>
<use x="414.785895" y="614.302626" xlink:href="#a"/>
<use x="417.852569" y="614.302626" xlink:href="#a"/>
<use x="421.166293" y="614.302626" xlink:href="#a"/>
<use x="423.567254" y="614.302626" xlink:href="#a"/>
<use x="427.657343" y="614.302626" xlink:href="#a"/>
<use x="430.731985" y="614.302626" xlink:href="#a"/>
<use x="434.310273" y="614.302626" xlink:href="#a"/>
<use x="437.178797" y="614.302626" xlink:href="#a"/>
<use x="440.745208" y="614.302626" xlink:href="#a"/>
<use x="444.077612" y="614.302626" xlink:href="#a"/>
<use x="447.158681" y="614.302626" xlink:href="#a"/>
<use x="450.537616" y="614.302626" xlink:href="#a"/>
<use x="453.73148" y="614.302626" xlink:href="#a"/>
<use x="457.040918" y="622.122536" xlink:href="#a"/>
<use x="459.901098" y="614.302626" xlink:href="#a"/>
<use x="463.363397" y="614.302626" xlink:href="#a"/>
<use x="466.839415" y="528.283618" xlink:href="#a"/>
<use x="470.01163" y="528.283618" xlink:href="#a"/>
<use x="472.939163" y="528.283618" xlink:href="#a"/>
<use x="476.325952" y="528.283618" xlink:href="#a"/>
<use x="479.418147" y="528.283618" xlink:href="#a"/>
<use x="482.692782" y="528.283618" xlink:href="#a"/>
<use x="486.181015" y="528.283618" xlink:href="#a"/>
<use x="488.549464" y="528.283618" xlink:href="#a"/>
<use x="492.339208" y="528.283618" xlink:href="#a"/>
<use x="495.261855" y="528.283618" xlink:href="#a"/>
<use x="498.621546" y="528.283618" xlink:href="#a"/>
<use x="502.412304" y="528.283618" xlink:href="#a"/>
<use x="505.771582" y="528.283618" xlink:href="#a"/>
<use x="509.030431" y="528.283618" xlink:href="#a"/>
<use x="511.904855" y="520.463708" xlink:href="#a"/>
<use x="515.152316" y="520.463708" xlink:href="#a"/>
<use x="517.901205" y="520.463708" xlink:href="#a"/>
<use x="521.256536" y="520.463708" xlink:href="#a"/>
<use x="524.469643" y="520.463708" xlink:href="#a"/>
<use x="528.480502" y="528.283618" xlink:href="#a"/>
<use x="531.611636" y="528.283618" xlink:href="#a"/>
<use x="534.657563" y="528.283618" xlink:href="#a"/>
<use x="537.427387" y="528.283618" xlink:href="#a"/>
<use x="540.288131" y="528.283618" xlink:href="#a"/>
<use x="544.598133" y="528.283618" xlink:href="#a"/>
<use x="547.535626" y="528.283618" xlink:href="#a"/>
<use x="551.093204" y="528.283618" xlink:href="#a"/>
<use x="553.297292" y="528.283618" xlink:href="#a"/>
<use x="557.636573" y="520.463708" xlink:href="#a"/>
<use x="560.347839" y="520.463708" xlink:href="#a"/>
<use x="566.754171" y="520.463708" xlink:href="#a"/>
<use x="570.308329" y="520.463708" xlink:href="#a"/>
<use x="573.176101" y="520.463708" xlink:href="#a"/>
<use x="576.316631" y="520.463708" xlink:href="#a"/>
<use x="580.131294" y="520.463708" xlink:href="#a"/>
<use x="583.413408" y="520.463708" xlink:href="#a"/>
<use x="586.517706" y="520.463708" xlink:href="#a"/>
<use x="589.904082" y="520.463708" xlink:href="#a"/>
<use x="592.982032" y="520.463708" xlink:href="#a"/>
<use x="596.298162" y="520.463708" xlink:href="#a"/>
<use x="599.655898" y="528.283618" xlink:href="#a"/>
<use x="602.478004" y="520.463708" xlink:href="#a"/>
<use x="606.099477" y="520.463708" xlink:href="#a"/>
<use x="609.594889" y="520.463708" xlink:href="#a"/>
<use x="612.616198" y="520.463708" xlink:href="#a"/>
<use x="616.089622" y="520.463708" xlink:href="#a"/>
<use x="619.075074" y="520.463708" xlink:href="#a"/>
<use x="622.582777" y="528.283618" xlink:href="#a"/>
<use x="625.305958" y="528.283618" xlink:href="#a"/>
<use x="629.269609" y="528.283618" xlink:href="#a"/>
<use x="631.760587" y="520.463708" xlink:href="#a"/>
<use x="635.50831" y="520.463708" xlink:href="#a"/>
<use x="637.91799" y="528.283618" xlink:href="#a"/>
<use x="642.02007" y="528.283618" xlink:href="#a"/>
<use x="642.362511" y="528.283618" xlink:href="#a"/>
<use x="644.989623" y="520.463708" xlink:href="#a"/>
<use x="648.604782" y="520.463708" xlink:href="#a"/>
<use x="651.685777" y="520.463708" xlink:href="#a"/>
<use x="654.819992" y="520.463708" xlink:href="#a"/>
<use x="658.365656" y="528.283618" xlink:href="#a"/>
<use x="661.586393" y="520.463708" xlink:href="#a"/>
<use x="664.777363" y="520.463708" xlink:href="#a"/>
<use x="665.034184" y="528.283618" xlink:href="#a"/>
<use x="668.137279" y="520.463708" xlink:href="#a"/>
<use x="670.246839" y="520.463708" xlink:href="#a"/>
</g>
</g>
<g stroke="#1f77b4" stroke-opacity=".9">
<path d="m264 614v7.82h84.7l4.67 23.5 1.59-23.5h70.1l2.63-7.82 3.07 7.82 3.58-7.82 2.87 7.82h9.98l3.38-7.82 0.245 7.82h2.95l3.31 7.82 2.86-7.82 3.46-7.82 2.77-62.6h46.7l1.84-7.82h9.79l4.01 7.82 1.8-7.82 0.562 7.82 0.768-7.82 1.63 7.82h20.1l4.34-7.82h9.12l3.55 7.82 2.87-7.82h16.7l3.08 7.82 3.32-7.82h3.36l2.82 7.82 3.62-7.82 3.5 7.82 3.02-7.82h22.9l2.41 7.82h4.1l0.342-7.82 2.63 7.82 2.5-7.82h22.8" clip-path="url(#h)" fill="none" stroke-dasharray="1.5,2.475" stroke-width="1.5"/>
<g clip-path="url(#h)" fill="#1f77b4" fill-opacity=".9">
<use x="264.016821" y="614.302626" xlink:href="#a"/>
<use x="264.016821" y="622.122536" xlink:href="#a"/>
<use x="291.163835" y="622.122536" xlink:href="#a"/>
<use x="311.958415" y="622.122536" xlink:href="#a"/>
<use x="336.450729" y="622.122536" xlink:href="#a"/>
<use x="348.722764" y="622.122536" xlink:href="#a"/>
<use x="353.389264" y="645.582266" xlink:href="#a"/>
<use x="354.974431" y="622.122536" xlink:href="#a"/>
<use x="356.087826" y="622.122536" xlink:href="#a"/>
<use x="359.294055" y="622.122536" xlink:href="#a"/>
<use x="362.453641" y="622.122536" xlink:href="#a"/>
<use x="365.90286" y="622.122536" xlink:href="#a"/>
<use x="368.890568" y="622.122536" xlink:href="#a"/>
<use x="372.51129" y="622.122536" xlink:href="#a"/>
<use x="375.811332" y="622.122536" xlink:href="#a"/>
<use x="378.300731" y="622.122536" xlink:href="#a"/>
<use x="382.011245" y="622.122536" xlink:href="#a"/>
<use x="385.293096" y="622.122536" xlink:href="#a"/>
<use x="388.534844" y="622.122536" xlink:href="#a"/>
<use x="392.097684" y="622.122536" xlink:href="#a"/>
<use x="395.343791" y="622.122536" xlink:href="#a"/>
<use x="398.257305" y="622.122536" xlink:href="#a"/>
<use x="401.699533" y="622.122536" xlink:href="#a"/>
<use x="404.135599" y="622.122536" xlink:href="#a"/>
<use x="407.950412" y="622.122536" xlink:href="#a"/>
<use x="411.11962" y="622.122536" xlink:href="#a"/>
<use x="414.785895" y="622.122536" xlink:href="#a"/>
<use x="417.852569" y="622.122536" xlink:href="#a"/>
<use x="419.509375" y="622.122536" xlink:href="#a"/>
<use x="421.166293" y="622.122536" xlink:href="#a"/>
<use x="423.567254" y="622.122536" xlink:href="#a"/>
<use x="425.0279" y="622.122536" xlink:href="#a"/>
<use x="427.657343" y="614.302626" xlink:href="#a"/>
<use x="430.731985" y="622.122536" xlink:href="#a"/>
<use x="434.310273" y="614.302626" xlink:href="#a"/>
<use x="437.178797" y="622.122536" xlink:href="#a"/>
<use x="440.745208" y="622.122536" xlink:href="#a"/>
<use x="444.077612" y="622.122536" xlink:href="#a"/>
<use x="447.158681" y="622.122536" xlink:href="#a"/>
<use x="450.537616" y="614.302626" xlink:href="#a"/>
<use x="450.782523" y="622.122536" xlink:href="#a"/>
<use x="453.73148" y="622.122536" xlink:href="#a"/>
<use x="457.040918" y="629.942446" xlink:href="#a"/>
<use x="459.901098" y="622.122536" xlink:href="#a"/>
<use x="463.363397" y="614.302626" xlink:href="#a"/>
<use x="466.131681" y="551.743347" xlink:href="#a"/>
<use x="466.839415" y="551.743347" xlink:href="#a"/>
<use x="469.479945" y="551.743347" xlink:href="#a"/>
<use x="470.01163" y="551.743347" xlink:href="#a"/>
<use x="472.939163" y="551.743347" xlink:href="#a"/>
<use x="476.325952" y="551.743347" xlink:href="#a"/>
<use x="479.418147" y="551.743347" xlink:href="#a"/>
<use x="482.001473" y="551.743347" xlink:href="#a"/>
<use x="482.692782" y="551.743347" xlink:href="#a"/>
<use x="485.057773" y="551.743347" xlink:href="#a"/>
<use x="486.181015" y="551.743347" xlink:href="#a"/>
<use x="488.549464" y="551.743347" xlink:href="#a"/>
<use x="491.701044" y="551.743347" xlink:href="#a"/>
<use x="492.339208" y="551.743347" xlink:href="#a"/>
<use x="495.261855" y="551.743347" xlink:href="#a"/>
<use x="498.621546" y="551.743347" xlink:href="#a"/>
<use x="502.412304" y="551.743347" xlink:href="#a"/>
<use x="505.771582" y="551.743347" xlink:href="#a"/>
<use x="508.231551" y="551.743347" xlink:href="#a"/>
<use x="509.030431" y="551.743347" xlink:href="#a"/>
<use x="511.904855" y="551.743347" xlink:href="#a"/>
<use x="512.836975" y="551.743347" xlink:href="#a"/>
<use x="514.679303" y="543.923437" xlink:href="#a"/>
<use x="515.152316" y="543.923437" xlink:href="#a"/>
<use x="517.901205" y="543.923437" xlink:href="#a"/>
<use x="519.521891" y="543.923437" xlink:href="#a"/>
<use x="521.256536" y="543.923437" xlink:href="#a"/>
<use x="524.469643" y="543.923437" xlink:href="#a"/>
<use x="528.480502" y="551.743347" xlink:href="#a"/>
<use x="530.280997" y="543.923437" xlink:href="#a"/>
<use x="530.843238" y="551.743347" xlink:href="#a"/>
<use x="531.611636" y="543.923437" xlink:href="#a"/>
<use x="533.244274" y="551.743347" xlink:href="#a"/>
<use x="534.657563" y="551.743347" xlink:href="#a"/>
<use x="537.16692" y="551.743347" xlink:href="#a"/>
<use x="537.427387" y="551.743347" xlink:href="#a"/>
<use x="540.288131" y="551.743347" xlink:href="#a"/>
<use x="544.598133" y="551.743347" xlink:href="#a"/>
<use x="547.535626" y="551.743347" xlink:href="#a"/>
<use x="551.093204" y="551.743347" xlink:href="#a"/>
<use x="552.033856" y="551.743347" xlink:href="#a"/>
<use x="553.297292" y="551.743347" xlink:href="#a"/>
<use x="557.636573" y="543.923437" xlink:href="#a"/>
<use x="560.347839" y="543.923437" xlink:href="#a"/>
<use x="566.754171" y="543.923437" xlink:href="#a"/>
<use x="570.308329" y="551.743347" xlink:href="#a"/>
<use x="573.176101" y="543.923437" xlink:href="#a"/>
<use x="576.316631" y="543.923437" xlink:href="#a"/>
<use x="580.131294" y="543.923437" xlink:href="#a"/>
<use x="583.413408" y="543.923437" xlink:href="#a"/>
<use x="586.517706" y="543.923437" xlink:href="#a"/>
<use x="589.904082" y="543.923437" xlink:href="#a"/>
<use x="592.982032" y="551.743347" xlink:href="#a"/>
<use x="596.298162" y="543.923437" xlink:href="#a"/>
<use x="599.655898" y="543.923437" xlink:href="#a"/>
<use x="602.478004" y="551.743347" xlink:href="#a"/>
<use x="606.099477" y="543.923437" xlink:href="#a"/>
<use x="609.594889" y="551.743347" xlink:href="#a"/>
<use x="612.616198" y="543.923437" xlink:href="#a"/>
<use x="616.089622" y="543.923437" xlink:href="#a"/>
<use x="619.075074" y="543.923437" xlink:href="#a"/>
<use x="625.305958" y="543.923437" xlink:href="#a"/>
<use x="628.032784" y="543.923437" xlink:href="#a"/>
<use x="629.269609" y="543.923437" xlink:href="#a"/>
<use x="631.760587" y="543.923437" xlink:href="#a"/>
<use x="635.50831" y="543.923437" xlink:href="#a"/>
<use x="637.91799" y="551.743347" xlink:href="#a"/>
<use x="642.02007" y="551.743347" xlink:href="#a"/>
<use x="642.362511" y="543.923437" xlink:href="#a"/>
<use x="644.989623" y="551.743347" xlink:href="#a"/>
<use x="647.443729" y="543.923437" xlink:href="#a"/>
<use x="647.487592" y="543.923437" xlink:href="#a"/>
<use x="647.601739" y="543.923437" xlink:href="#a"/>
<use x="648.604782" y="543.923437" xlink:href="#a"/>
<use x="651.685777" y="543.923437" xlink:href="#a"/>
<use x="654.683331" y="543.923437" xlink:href="#a"/>
<use x="654.819992" y="543.923437" xlink:href="#a"/>
<use x="658.365656" y="543.923437" xlink:href="#a"/>
<use x="661.586393" y="543.923437" xlink:href="#a"/>
<use x="664.45642" y="543.923437" xlink:href="#a"/>
<use x="664.777363" y="543.923437" xlink:href="#a"/>
<use x="664.908348" y="543.923437" xlink:href="#a"/>
<use x="665.034184" y="543.923437" xlink:href="#a"/>
<use x="666.726283" y="543.923437" xlink:href="#a"/>
<use x="668.137279" y="543.923437" xlink:href="#a"/>
<use x="670.246839" y="543.923437" xlink:href="#a"/>
</g>
</g>
<path d="m40.6 700v-313" fill="none" stroke="#000" stroke-linecap="square" stroke-width=".8"/>
<path d="m700 700v-313" fill="none" stroke="#000" stroke-linecap="square" stroke-width=".8"/>
<path d="m40.6 700h660" fill="none" stroke="#000" stroke-linecap="square" stroke-width=".8"/>
<path d="m40.6 388h660" fill="none" stroke="#000" stroke-linecap="square" stroke-width=".8"/>
<path d="m71.1 613-0.349 7.35" fill="none" stroke="#888" stroke-linecap="round"/>
<g transform="translate(73.7 609) rotate(-90) scale(.08 -.08)" fill="#888">
<defs>
<path id="ac" transform="scale(.0156)" d="m2194 1759q-697 0-966-159t-269-544q0-306 202-486 202-179 548-179 479 0 768 339t289 901v128h-572zm1147 238v-2e3h-575v531q-197-318-491-470t-719-152q-537 0-855 302-317 302-317 808 0 590 395 890 396 300 1180 300h807v57q0 397-261 614t-733 217q-300 0-585-72-284-72-546-216v532q315 122 612 182 297 61 578 61 760 0 1135-394 375-393 375-1193z"/>
</defs>
<use xlink:href="#ac"/>
<use transform="translate(61.3)" xlink:href="#b"/>
</g>
<g clip-path="url(#h)">
<g transform="translate(58.2 614) rotate(-90) scale(.1 -.1)">
<use xlink:href="#ab"/>
<use transform="translate(97.4)" xlink:href="#u"/>
<use transform="translate(159)" xlink:href="#n"/>
<use transform="translate(197)" xlink:href="#r"/>
<use transform="translate(259)" xlink:href="#DejaVuSans-20"/>
<use transform="translate(291)" xlink:href="#al"/>
</g>
</g>
<g clip-path="url(#h)">
<g transform="translate(58.2 669) rotate(-90) scale(.1 -.1)">
<use xlink:href="#am"/>
<use transform="translate(143)" xlink:href="#DejaVuSans-20"/>
<use transform="translate(175)" xlink:href="#q"/>
<use transform="translate(203)" xlink:href="#r"/>
<use transform="translate(264)" xlink:href="#o"/>
<use transform="translate(317)" xlink:href="#o"/>
</g>
</g>
<g transform="translate(288 382) scale(.12 -.12)">
<use xlink:href="#aj"/>
<use transform="translate(60.3)" xlink:href="#z"/>
<use transform="translate(119)" xlink:href="#aa"/>
<use transform="translate(159)" xlink:href="#ad"/>
<use transform="translate(222)" xlink:href="#u"/>
<use transform="translate(283)" xlink:href="#p"/>
<use transform="translate(347)" xlink:href="#DejaVuSans-20"/>
<use transform="translate(378)" xlink:href="#s"/>
<use transform="translate(442)" xlink:href="#e"/>
<use transform="translate(474)" xlink:href="#d"/>
<use transform="translate(537)" xlink:href="#m"/>
<use transform="translate(601)" xlink:href="#e"/>
<use transform="translate(633)" xlink:href="#w"/>
<use transform="translate(692)" xlink:href="#DejaVuSans-20"/>
<use transform="translate(724)" xlink:href="#x"/>
<use transform="translate(783)" xlink:href="#o"/>
<use transform="translate(835)" xlink:href="#e"/>
<use transform="translate(867)" xlink:href="#DejaVuSans-20"/>
<use transform="translate(899)" xlink:href="#s"/>
<use transform="translate(962)" xlink:href="#e"/>
<use transform="translate(994)" xlink:href="#d"/>
<use transform="translate(1058)" xlink:href="#s"/>
<use transform="translate(1121)" xlink:href="#e"/>
<use transform="translate(1153)" xlink:href="#b"/>
<use transform="translate(1217)" xlink:href="#n"/>
<use transform="translate(1256)" xlink:href="#ae"/>
<use transform="translate(1311)" xlink:href="#c"/>
</g>
<path d="m47.6 425h82.6q2 0 2-2v-28.4q0-2-2-2h-82.6q-2 0-2 2v28.4q0 2 2 2z" fill="#fff" opacity=".8" stroke="#ccc"/>
<path d="m49.6 401h10 10" fill="none" stroke="#1f77b4" stroke-linecap="square" stroke-opacity=".9" stroke-width="1.5"/>
<use x="59.645553" y="400.623678" fill="#1f77b4" fill-opacity=".9" stroke="#1f77b4" stroke-opacity=".9" xlink:href="#a"/>
<g transform="translate(77.6 404) scale(.1 -.1)">
<use xlink:href="#q"/>
<use transform="translate(27.8)" xlink:href="#y"/>
<use transform="translate(55.6)" xlink:href="#p"/>
<use transform="translate(119)" xlink:href="#t"/>
<use transform="translate(182)" xlink:href="#w"/>
</g>
<path d="m49.6 415h10 10" fill="none" stroke="#1f77b4" stroke-dasharray="1.5,2.475" stroke-opacity=".9" stroke-width="1.5"/>
<use x="59.645553" y="415.301803" fill="#1f77b4" fill-opacity=".9" stroke="#1f77b4" stroke-opacity=".9" xlink:href="#a"/>
<g transform="translate(77.6 419) scale(.1 -.1)">
<use xlink:href="#q"/>
<use transform="translate(27.8)" xlink:href="#y"/>
<use transform="translate(55.6)" xlink:href="#p"/>
<use transform="translate(119)" xlink:href="#t"/>
<use transform="translate(182)" xlink:href="#w"/>
<use transform="translate(242)" xlink:href="#f"/>
<use transform="translate(275)" xlink:href="#x"/>
<use transform="translate(334)" xlink:href="#t"/>
<use transform="translate(398)" xlink:href="#q"/>
<use transform="translate(425)" xlink:href="#aa"/>
<use transform="translate(465)" xlink:href="#n"/>
</g>
<g transform="translate(239 12.1) scale(.12 -.12)">
<defs>
<path id="ao" transform="scale(.0156)" d="m628 4666h941l1190-3175 1197 3175h941v-4666h-616v4097l-1203-3200h-634l-1203 3200v-4097h-613v4666z"/>
<path id="ah" transform="scale(.0156)" d="m2906 1791q0 625-258 968-257 344-723 344-462 0-720-344-258-343-258-968 0-622 258-966t720-344q466 0 723 344 258 344 258 966zm575-1357q0-893-397-1329-396-436-1215-436-303 0-572 45t-522 139v559q253-137 500-202 247-66 503-66 566 0 847 295t281 892v285q-178-310-456-463t-666-153q-643 0-1037 490-394 491-394 1301 0 812 394 1302 394 491 1037 491 388 0 666-153t456-462v531h575v-3066z"/>
<path id="an" transform="scale(.0156)" d="m603 3500h575v-3563q0-668-255-968-254-300-820-300h-219v487h154q328 0 446 152 119 151 119 629v3563zm0 1363h575v-729h-575v729z"/>
</defs>
<use xlink:href="#ao"/>
<use transform="translate(86.3)" xlink:href="#r"/>
<use transform="translate(148)" xlink:href="#ab"/>
<use transform="translate(245)" xlink:href="#u"/>
<use transform="translate(306)" xlink:href="#n"/>
<use transform="translate(348)" xlink:href="#z"/>
<use transform="translate(407)" xlink:href="#DejaVuSans-20"/>
<use transform="translate(438)" xlink:href="#t"/>
<use transform="translate(502)" xlink:href="#o"/>
<use transform="translate(554)" xlink:href="#ac"/>
<use transform="translate(615)" xlink:href="#ah"/>
<use transform="translate(679)" xlink:href="#r"/>
<use transform="translate(740)" xlink:href="#DejaVuSans-20"/>
<use transform="translate(772)" xlink:href="#ae"/>
<use transform="translate(827)" xlink:href="#ad"/>
<use transform="translate(890)" xlink:href="#ac"/>
<use transform="translate(952)" xlink:href="#p"/>
<use transform="translate(1015)" xlink:href="#ah"/>
<use transform="translate(1079)" xlink:href="#r"/>
<use transform="translate(1140)" xlink:href="#DejaVuSans-20"/>
<use transform="translate(1172)" xlink:href="#ai"/>
<use transform="translate(1235)" xlink:href="#z"/>
<use transform="translate(1294)" xlink:href="#DejaVuSans-20"/>
<use transform="translate(1326)" xlink:href="#ab"/>
<use transform="translate(1424)" xlink:href="#ac"/>
<use transform="translate(1485)" xlink:href="#an"/>
<use transform="translate(1513)" xlink:href="#u"/>
<use transform="translate(1574)" xlink:href="#n"/>
<use transform="translate(1615)" xlink:href="#DejaVuSans-20"/>
<use transform="translate(1647)" xlink:href="#x"/>
<use transform="translate(1706)" xlink:href="#r"/>
<use transform="translate(1768)" xlink:href="#n"/>
<use transform="translate(1809)" xlink:href="#o"/>
<use transform="translate(1861)" xlink:href="#y"/>
<use transform="translate(1889)" xlink:href="#u"/>
<use transform="translate(1950)" xlink:href="#p"/>
</g>
<defs>
<clipPath id="g">
<rect x="40.6" y="35.7" width="660" height="313"/>
</clipPath>
<clipPath id="h">
<rect x="40.6" y="388" width="660" height="313"/>
</clipPath>
</defs>
</svg>
