<?xml version="1.0" encoding="UTF-8"?>
<!DOCTYPE svg  PUBLIC '-//W3C//DTD SVG 1.1//EN'  'http://www.w3.org/Graphics/SVG/1.1/DTD/svg11.dtd'>
<svg width="720pt" height="720pt" version="1.1" viewBox="0 0 720 720" xmlns="http://www.w3.org/2000/svg" xmlns:xlink="http://www.w3.org/1999/xlink">
<defs>
<style type="text/css">*{stroke-linejoin: round; stroke-linecap: butt}</style>
</defs>
<path d="m0 720h720v-720h-720z" fill="#fff"/>
<path d="m40.6 349h669v-313h-669z" fill="#fff"/>
<path d="m100 349v-313" clip-path="url(#f)" fill="none" stroke="#b0b0b0" stroke-linecap="square" stroke-width=".8"/>
<defs>
<path id="i" d="m0 0v3.5" stroke="#000" stroke-width=".8"/>
</defs>
<use x="100.324388" y="348.52899" stroke="#000000" stroke-width=".8" xlink:href="#i"/>
<g transform="translate(71.3 363) scale(.1 -.1)">
<defs>
<path id="c" transform="scale(.0156)" d="m1228 531h2203v-531h-2962v531q359 372 979 998 621 627 780 809 303 340 423 576 121 236 121 464 0 372-261 606-261 235-680 235-297 0-627-103-329-103-704-313v638q381 153 712 231 332 78 607 78 725 0 1156-363 431-362 431-968 0-288-108-546-107-257-392-607-78-91-497-524-418-433-1181-1211z"/>
<path id="b" transform="scale(.0156)" d="m2034 4250q-487 0-733-480-245-479-245-1442 0-959 245-1439 246-480 733-480 491 0 736 480 246 480 246 1439 0 963-246 1442-245 480-736 480zm0 500q785 0 1199-621 414-620 414-1801 0-1178-414-1799-414-620-1199-620-784 0-1198 620-414 621-414 1799 0 1181 414 1801 414 621 1198 621z"/>
<path id="m" transform="scale(.0156)" d="m2419 4116-1594-2491h1594v2491zm-166 550h794v-3041h666v-525h-666v-1100h-628v1100h-2106v609l1940 2957z"/>
<path id="e" transform="scale(.0156)" d="m313 2009h1684v-512h-1684v512z"/>
<path id="j" transform="scale(.0156)" d="m691 4666h2478v-532h-1900v-1143q137 47 274 70 138 23 276 23 781 0 1237-428 457-428 457-1159 0-753-469-1171-469-417-1322-417-294 0-599 50-304 50-629 150v635q281-153 581-228t634-75q541 0 856 284 316 284 316 772 0 487-316 771-315 285-856 285-253 0-505-56-251-56-513-175v2344z"/>
<path id="d" transform="scale(.0156)" d="m794 531h1031v3560l-1122-225v575l1116 225h631v-4135h1031v-531h-2687v531z"/>
</defs>
<use xlink:href="#c"/>
<use transform="translate(63.6)" xlink:href="#b"/>
<use transform="translate(127)" xlink:href="#c"/>
<use transform="translate(191)" xlink:href="#m"/>
<use transform="translate(254)" xlink:href="#e"/>
<use transform="translate(291)" xlink:href="#b"/>
<use transform="translate(354)" xlink:href="#j"/>
<use transform="translate(418)" xlink:href="#e"/>
<use transform="translate(454)" xlink:href="#d"/>
<use transform="translate(518)" xlink:href="#j"/>
</g>
<path d="m177 349v-313" clip-path="url(#f)" fill="none" stroke="#b0b0b0" stroke-linecap="square" stroke-width=".8"/>
<use x="176.522119" y="348.52899" stroke="#000000" stroke-width=".8" xlink:href="#i"/>
<g transform="translate(147 363) scale(.1 -.1)">
<defs>
<path id="ah" transform="scale(.0156)" d="m2113 2584q-425 0-674-291-248-290-248-796 0-503 248-796 249-292 674-292t673 292q248 293 248 796 0 506-248 796-248 291-673 291zm1253 1979v-575q-238 112-480 171-242 60-480 60-625 0-955-422-329-422-376-1275 184 272 462 417 279 145 613 145 703 0 1111-427 408-426 408-1160 0-719-425-1154-425-434-1131-434-810 0-1238 620-428 621-428 1799 0 1106 525 1764t1409 658q238 0 480-47t505-140z"/>
</defs>
<use xlink:href="#c"/>
<use transform="translate(63.6)" xlink:href="#b"/>
<use transform="translate(127)" xlink:href="#c"/>
<use transform="translate(191)" xlink:href="#m"/>
<use transform="translate(254)" xlink:href="#e"/>
<use transform="translate(291)" xlink:href="#b"/>
<use transform="translate(354)" xlink:href="#ah"/>
<use transform="translate(418)" xlink:href="#e"/>
<use transform="translate(454)" xlink:href="#b"/>
<use transform="translate(518)" xlink:href="#d"/>
</g>
<path d="m239 349v-313" clip-path="url(#f)" fill="none" stroke="#b0b0b0" stroke-linecap="square" stroke-width=".8"/>
<use x="239.273192" y="348.52899" stroke="#000000" stroke-width=".8" xlink:href="#i"/>
<g transform="translate(210 363) scale(.1 -.1)">
<use xlink:href="#c"/>
<use transform="translate(63.6)" xlink:href="#b"/>
<use transform="translate(127)" xlink:href="#c"/>
<use transform="translate(191)" xlink:href="#m"/>
<use transform="translate(254)" xlink:href="#e"/>
<use transform="translate(291)" xlink:href="#b"/>
<use transform="translate(354)" xlink:href="#ah"/>
<use transform="translate(418)" xlink:href="#e"/>
<use transform="translate(454)" xlink:href="#d"/>
<use transform="translate(518)" xlink:href="#j"/>
</g>
<path d="m311 349v-313" clip-path="url(#f)" fill="none" stroke="#b0b0b0" stroke-linecap="square" stroke-width=".8"/>
<use x="310.988704" y="348.52899" stroke="#000000" stroke-width=".8" xlink:href="#i"/>
<g transform="translate(282 363) scale(.1 -.1)">
<defs>
<path id="al" transform="scale(.0156)" d="m525 4666h3e3v-269l-1694-4397h-659l1594 4134h-2241v532z"/>
</defs>
<use xlink:href="#c"/>
<use transform="translate(63.6)" xlink:href="#b"/>
<use transform="translate(127)" xlink:href="#c"/>
<use transform="translate(191)" xlink:href="#m"/>
<use transform="translate(254)" xlink:href="#e"/>
<use transform="translate(291)" xlink:href="#b"/>
<use transform="translate(354)" xlink:href="#al"/>
<use transform="translate(418)" xlink:href="#e"/>
<use transform="translate(454)" xlink:href="#b"/>
<use transform="translate(518)" xlink:href="#d"/>
</g>
<path d="m374 349v-313" clip-path="url(#f)" fill="none" stroke="#b0b0b0" stroke-linecap="square" stroke-width=".8"/>
<use x="373.739777" y="348.52899" stroke="#000000" stroke-width=".8" xlink:href="#i"/>
<g transform="translate(345 363) scale(.1 -.1)">
<use xlink:href="#c"/>
<use transform="translate(63.6)" xlink:href="#b"/>
<use transform="translate(127)" xlink:href="#c"/>
<use transform="translate(191)" xlink:href="#m"/>
<use transform="translate(254)" xlink:href="#e"/>
<use transform="translate(291)" xlink:href="#b"/>
<use transform="translate(354)" xlink:href="#al"/>
<use transform="translate(418)" xlink:href="#e"/>
<use transform="translate(454)" xlink:href="#d"/>
<use transform="translate(518)" xlink:href="#j"/>
</g>
<path d="m450 349v-313" clip-path="url(#f)" fill="none" stroke="#b0b0b0" stroke-linecap="square" stroke-width=".8"/>
<use x="449.937508" y="348.52899" stroke="#000000" stroke-width=".8" xlink:href="#i"/>
<g transform="translate(421 363) scale(.1 -.1)">
<defs>
<path id="ag" transform="scale(.0156)" d="m2034 2216q-450 0-708-241-257-241-257-662 0-422 257-663 258-241 708-241t709 242q260 243 260 662 0 421-258 662-257 241-711 241zm-631 268q-406 100-633 378-226 279-226 679 0 559 398 884 399 325 1092 325 697 0 1094-325t397-884q0-400-227-679-226-278-629-378 456-106 710-416 255-309 255-755 0-679-414-1042-414-362-1186-362-771 0-1186 362-414 363-414 1042 0 446 256 755 257 310 713 416zm-231 997q0-362 226-565 227-203 636-203 407 0 636 203 230 203 230 565 0 363-230 566-229 203-636 203-409 0-636-203-226-203-226-566z"/>
</defs>
<use xlink:href="#c"/>
<use transform="translate(63.6)" xlink:href="#b"/>
<use transform="translate(127)" xlink:href="#c"/>
<use transform="translate(191)" xlink:href="#m"/>
<use transform="translate(254)" xlink:href="#e"/>
<use transform="translate(291)" xlink:href="#b"/>
<use transform="translate(354)" xlink:href="#ag"/>
<use transform="translate(418)" xlink:href="#e"/>
<use transform="translate(454)" xlink:href="#b"/>
<use transform="translate(518)" xlink:href="#d"/>
</g>
<path d="m513 349v-313" clip-path="url(#f)" fill="none" stroke="#b0b0b0" stroke-linecap="square" stroke-width=".8"/>
<use x="512.688581" y="348.52899" stroke="#000000" stroke-width=".8" xlink:href="#i"/>
<g transform="translate(484 363) scale(.1 -.1)">
<use xlink:href="#c"/>
<use transform="translate(63.6)" xlink:href="#b"/>
<use transform="translate(127)" xlink:href="#c"/>
<use transform="translate(191)" xlink:href="#m"/>
<use transform="translate(254)" xlink:href="#e"/>
<use transform="translate(291)" xlink:href="#b"/>
<use transform="translate(354)" xlink:href="#ag"/>
<use transform="translate(418)" xlink:href="#e"/>
<use transform="translate(454)" xlink:href="#d"/>
<use transform="translate(518)" xlink:href="#j"/>
</g>
<path d="m589 349v-313" clip-path="url(#f)" fill="none" stroke="#b0b0b0" stroke-linecap="square" stroke-width=".8"/>
<use x="588.886312" y="348.52899" stroke="#000000" stroke-width=".8" xlink:href="#i"/>
<g transform="translate(560 363) scale(.1 -.1)">
<defs>
<path id="ac" transform="scale(.0156)" d="m703 97v575q238-113 481-172 244-59 479-59 625 0 954 420 330 420 377 1277-181-269-460-413-278-144-615-144-700 0-1108 423-408 424-408 1159 0 718 425 1152 425 435 1131 435 810 0 1236-621 427-620 427-1801 0-1103-524-1761-523-658-1407-658-238 0-482 47-243 47-506 141zm1256 1978q425 0 673 290 249 291 249 798 0 503-249 795-248 292-673 292t-673-292-248-795q0-507 248-798 248-290 673-290z"/>
</defs>
<use xlink:href="#c"/>
<use transform="translate(63.6)" xlink:href="#b"/>
<use transform="translate(127)" xlink:href="#c"/>
<use transform="translate(191)" xlink:href="#m"/>
<use transform="translate(254)" xlink:href="#e"/>
<use transform="translate(291)" xlink:href="#b"/>
<use transform="translate(354)" xlink:href="#ac"/>
<use transform="translate(418)" xlink:href="#e"/>
<use transform="translate(454)" xlink:href="#b"/>
<use transform="translate(518)" xlink:href="#d"/>
</g>
<path d="m652 349v-313" clip-path="url(#f)" fill="none" stroke="#b0b0b0" stroke-linecap="square" stroke-width=".8"/>
<use x="651.637385" y="348.52899" stroke="#000000" stroke-width=".8" xlink:href="#i"/>
<g transform="translate(623 363) scale(.1 -.1)">
<use xlink:href="#c"/>
<use transform="translate(63.6)" xlink:href="#b"/>
<use transform="translate(127)" xlink:href="#c"/>
<use transform="translate(191)" xlink:href="#m"/>
<use transform="translate(254)" xlink:href="#e"/>
<use transform="translate(291)" xlink:href="#b"/>
<use transform="translate(354)" xlink:href="#ac"/>
<use transform="translate(418)" xlink:href="#e"/>
<use transform="translate(454)" xlink:href="#d"/>
<use transform="translate(518)" xlink:href="#j"/>
</g>
<path d="m40.6 349h669" clip-path="url(#f)" fill="none" stroke="#b0b0b0" stroke-linecap="square" stroke-width=".8"/>
<defs>
<path id="k" d="m0 0h-3.5" stroke="#000" stroke-width=".8"/>
</defs>
<use x="40.645553" y="348.52899" stroke="#000000" stroke-width=".8" xlink:href="#k"/>
<g transform="translate(3 352) scale(.1 -.1)">
<defs>
<path id="g" transform="scale(.0156)" d="m684 794h660v-794h-660v794z"/>
<path id="l" transform="scale(.0156)" d="m4488 3438-1429-1435 1429-1428-372-378-1435 1434-1434-1434-369 378 1425 1428-1425 1435 369 378 1434-1435 1435 1435 372-378z"/>
</defs>
<use xlink:href="#b"/>
<use transform="translate(63.6)" xlink:href="#g"/>
<use transform="translate(95.4)" xlink:href="#ac"/>
<use transform="translate(159)" xlink:href="#b"/>
<use transform="translate(223)" xlink:href="#l"/>
</g>
<path d="m40.6 309h669" clip-path="url(#f)" fill="none" stroke="#b0b0b0" stroke-linecap="square" stroke-width=".8"/>
<use x="40.645553" y="309.429441" stroke="#000000" stroke-width=".8" xlink:href="#k"/>
<g transform="translate(3 313) scale(.1 -.1)">
<use xlink:href="#b"/>
<use transform="translate(63.6)" xlink:href="#g"/>
<use transform="translate(95.4)" xlink:href="#ac"/>
<use transform="translate(159)" xlink:href="#j"/>
<use transform="translate(223)" xlink:href="#l"/>
</g>
<path d="m40.6 270h669" clip-path="url(#f)" fill="none" stroke="#b0b0b0" stroke-linecap="square" stroke-width=".8"/>
<use x="40.645553" y="270.329891" stroke="#000000" stroke-width=".8" xlink:href="#k"/>
<g transform="translate(3 274) scale(.1 -.1)">
<use xlink:href="#d"/>
<use transform="translate(63.6)" xlink:href="#g"/>
<use transform="translate(95.4)" xlink:href="#b"/>
<use transform="translate(159)" xlink:href="#b"/>
<use transform="translate(223)" xlink:href="#l"/>
</g>
<path d="m40.6 231h669" clip-path="url(#f)" fill="none" stroke="#b0b0b0" stroke-linecap="square" stroke-width=".8"/>
<use x="40.645553" y="231.230342" stroke="#000000" stroke-width=".8" xlink:href="#k"/>
<g transform="translate(3 235) scale(.1 -.1)">
<use xlink:href="#d"/>
<use transform="translate(63.6)" xlink:href="#g"/>
<use transform="translate(95.4)" xlink:href="#b"/>
<use transform="translate(159)" xlink:href="#j"/>
<use transform="translate(223)" xlink:href="#l"/>
</g>
<path d="m40.6 192h669" clip-path="url(#f)" fill="none" stroke="#b0b0b0" stroke-linecap="square" stroke-width=".8"/>
<use x="40.645553" y="192.130792" stroke="#000000" stroke-width=".8" xlink:href="#k"/>
<g transform="translate(3 196) scale(.1 -.1)">
<use xlink:href="#d"/>
<use transform="translate(63.6)" xlink:href="#g"/>
<use transform="translate(95.4)" xlink:href="#d"/>
<use transform="translate(159)" xlink:href="#b"/>
<use transform="translate(223)" xlink:href="#l"/>
</g>
<path d="m40.6 153h669" clip-path="url(#f)" fill="none" stroke="#b0b0b0" stroke-linecap="square" stroke-width=".8"/>
<use x="40.645553" y="153.031243" stroke="#000000" stroke-width=".8" xlink:href="#k"/>
<g transform="translate(3 157) scale(.1 -.1)">
<use xlink:href="#d"/>
<use transform="translate(63.6)" xlink:href="#g"/>
<use transform="translate(95.4)" xlink:href="#d"/>
<use transform="translate(159)" xlink:href="#j"/>
<use transform="translate(223)" xlink:href="#l"/>
</g>
<path d="m40.6 114h669" clip-path="url(#f)" fill="none" stroke="#b0b0b0" stroke-linecap="square" stroke-width=".8"/>
<use x="40.645553" y="113.931694" stroke="#000000" stroke-width=".8" xlink:href="#k"/>
<g transform="translate(3 118) scale(.1 -.1)">
<use xlink:href="#d"/>
<use transform="translate(63.6)" xlink:href="#g"/>
<use transform="translate(95.4)" xlink:href="#c"/>
<use transform="translate(159)" xlink:href="#b"/>
<use transform="translate(223)" xlink:href="#l"/>
</g>
<path d="m40.6 74.8h669" clip-path="url(#f)" fill="none" stroke="#b0b0b0" stroke-linecap="square" stroke-width=".8"/>
<use x="40.645553" y="74.832144" stroke="#000000" stroke-width=".8" xlink:href="#k"/>
<g transform="translate(3 78.6) scale(.1 -.1)">
<use xlink:href="#d"/>
<use transform="translate(63.6)" xlink:href="#g"/>
<use transform="translate(95.4)" xlink:href="#c"/>
<use transform="translate(159)" xlink:href="#j"/>
<use transform="translate(223)" xlink:href="#l"/>
</g>
<path d="m40.6 35.7h669" clip-path="url(#f)" fill="none" stroke="#b0b0b0" stroke-linecap="square" stroke-width=".8"/>
<use x="40.645553" y="35.732595" stroke="#000000" stroke-width=".8" xlink:href="#k"/>
<g transform="translate(3 39.5) scale(.1 -.1)">
<defs>
<path id="r" transform="scale(.0156)" d="m2597 2516q453-97 707-404 255-306 255-756 0-690-475-1069-475-378-1350-378-293 0-604 58t-642 174v609q262-153 574-231 313-78 654-78 593 0 904 234t311 681q0 413-289 645-289 233-804 233h-544v519h569q465 0 712 186t247 536q0 359-255 551-254 193-729 193-260 0-557-57-297-56-653-174v562q360 100 674 150t592 50q719 0 1137-327 419-326 419-882 0-388-222-655t-631-370z"/>
</defs>
<use xlink:href="#d"/>
<use transform="translate(63.6)" xlink:href="#g"/>
<use transform="translate(95.4)" xlink:href="#r"/>
<use transform="translate(159)" xlink:href="#b"/>
<use transform="translate(223)" xlink:href="#l"/>
</g>
<path d="m71.1 270 442-7.82h103" clip-path="url(#f)" fill="none" stroke="#1f77b4" stroke-linecap="square" stroke-opacity=".9" stroke-width="1.5"/>
<defs>
<path id="a" d="m-2.5 2.5h5v-5h-5z" stroke="#1f77b4" stroke-opacity=".9"/>
</defs>
<g clip-path="url(#f)" fill="#1f77b4" fill-opacity=".9" stroke="#1f77b4" stroke-opacity=".9">
<use x="71.068568" y="270.329891" xlink:href="#a"/>
<use x="512.599299" y="262.509981" xlink:href="#a"/>
<use x="615.640649" y="262.509981" xlink:href="#a"/>
</g>
<g stroke="#1f77b4" stroke-opacity=".9">
<path d="m616 255h63.9" clip-path="url(#f)" fill="none" stroke-dasharray="1.5,2.475" stroke-width="1.5"/>
<g clip-path="url(#f)" fill="#1f77b4" fill-opacity=".9">
<use x="615.640649" y="254.690071" xlink:href="#a"/>
<use x="679.528877" y="254.690071" xlink:href="#a"/>
</g>
</g>
<path d="m616 223" clip-path="url(#f)" fill="none" stroke="#2ca02c" stroke-linecap="square" stroke-opacity=".9" stroke-width="1.5"/>
<defs>
<path id="n" d="m0-2.5-2.5 5h5z" stroke="#2ca02c" stroke-opacity=".9"/>
</defs>
<g clip-path="url(#f)">
<use x="615.640649" y="223.410432" fill="#2ca02c" fill-opacity=".9" stroke="#2ca02c" stroke-opacity=".9" xlink:href="#n"/>
</g>
<path d="m40.6 349v-313" fill="none" stroke="#000" stroke-linecap="square" stroke-width=".8"/>
<path d="m710 349v-313" fill="none" stroke="#000" stroke-linecap="square" stroke-width=".8"/>
<path d="m40.6 349h669" fill="none" stroke="#000" stroke-linecap="square" stroke-width=".8"/>
<path d="m40.6 35.7h669" fill="none" stroke="#000" stroke-linecap="square" stroke-width=".8"/>
<path d="m71.5 261-0.348 7.35" fill="none" stroke="#888" stroke-linecap="round"/>
<g transform="translate(74.1 257) rotate(-90) scale(.08 -.08)" fill="#888">
<defs>
<path id="aj" transform="scale(.0156)" d="m3116 1747q0 634-261 995t-717 361q-457 0-718-361t-261-995 261-995 718-361q456 0 717 361t261 995zm-1957 1222q182 312 458 463 277 152 661 152 638 0 1036-506 399-506 399-1331t-399-1332q-398-506-1036-506-384 0-661 152-276 152-458 464v-525h-578v4863h578v-1894z"/>
</defs>
<use xlink:href="#aj"/>
<use transform="translate(63.5)" xlink:href="#d"/>
</g>
<path d="m616 253-0.326 7.34" fill="none" stroke="#888" stroke-linecap="round"/>
<g transform="translate(619 249) rotate(-90) scale(.08 -.08)" fill="#888">
<defs>
<path id="p" transform="scale(.0156)" d="m2631 2963q-97 56-211 82-114 27-251 27-488 0-749-317t-261-911v-1844h-578v3500h578v-544q182 319 472 473 291 155 707 155 59 0 131-8 72-7 159-23l3-590z"/>
<path id="ab" transform="scale(.0156)" d="m3122 3366v-538q-244 135-489 202t-495 67q-560 0-870-355-309-354-309-995t309-996q310-354 870-354 250 0 495 67t489 202v-532q-241-112-499-168-257-57-548-57-791 0-1257 497-465 497-465 1341 0 856 470 1346 471 491 1290 491 265 0 518-55 253-54 491-163z"/>
</defs>
<use xlink:href="#p"/>
<use transform="translate(38.9)" xlink:href="#ab"/>
<use transform="translate(93.8)" xlink:href="#c"/>
</g>
<g clip-path="url(#f)">
<g transform="translate(58.2 262) rotate(-90) scale(.1 -.1)">
<defs>
<path id="x" transform="scale(.0156)" d="m3328 2828q216 388 516 572t706 184q547 0 844-383 297-382 297-1088v-2113h-578v2094q0 503-179 746-178 244-543 244-447 0-707-297-259-296-259-809v-1978h-578v2094q0 506-178 748t-550 242q-441 0-701-298-259-298-259-808v-1978h-578v3500h578v-544q197 322 472 475t653 153q382 0 649-194 267-193 395-562z"/>
<path id="q" transform="scale(.0156)" d="m1959 3097q-462 0-731-361t-269-989 267-989q268-361 733-361 460 0 728 362 269 363 269 988 0 622-269 986-268 364-728 364zm0 487q750 0 1178-488 429-487 429-1349 0-859-429-1349-428-489-1178-489-753 0-1180 489-426 490-426 1349 0 862 426 1349 427 488 1180 488z"/>
<path id="u" transform="scale(.0156)" d="m3597 1894v-281h-2644q38-594 358-905t892-311q331 0 642 81t618 244v-544q-310-131-635-200t-659-69q-838 0-1327 487-489 488-489 1320 0 859 464 1363 464 505 1252 505 706 0 1117-455 411-454 411-1235zm-575 169q-6 471-264 752-258 282-683 282-481 0-770-272t-333-766l2050 4z"/>
<path id="am" transform="scale(.0156)" d="m8863 2147v-281l-1229-1228-375 375 729 728h-7622v531h7622l-729 728 375 375 1229-1228z"/>
</defs>
<use xlink:href="#x"/>
<use transform="translate(97.4)" xlink:href="#q"/>
<use transform="translate(159)" xlink:href="#p"/>
<use transform="translate(197)" xlink:href="#u"/>
<use transform="translate(259)" xlink:href="#DejaVuSans-20"/>
<use transform="translate(291)" xlink:href="#am"/>
</g>
</g>
<g clip-path="url(#f)">
<g transform="translate(58.2 317) rotate(-90) scale(.1 -.1)">
<defs>
<path id="an" transform="scale(.0156)" d="m313 1866v281l1228 1228 375-375-728-728h7621v-531h-7621l728-728-375-375-1228 1228z"/>
<path id="t" transform="scale(.0156)" d="m603 4863h575v-4863h-575v4863z"/>
<path id="o" transform="scale(.0156)" d="m2834 3397v-544q-243 125-506 187-262 63-544 63-428 0-642-131t-214-394q0-200 153-314t616-217l197-44q612-131 870-370t258-667q0-488-386-773-386-284-1061-284-281 0-586 55t-642 164v594q319-166 628-249 309-82 613-82 406 0 624 139 219 139 219 392 0 234-158 359-157 125-692 241l-200 47q-534 112-772 345-237 233-237 639 0 494 350 762 350 269 994 269 318 0 599-47 282-46 519-140z"/>
</defs>
<use xlink:href="#an"/>
<use transform="translate(143)" xlink:href="#DejaVuSans-20"/>
<use transform="translate(175)" xlink:href="#t"/>
<use transform="translate(203)" xlink:href="#u"/>
<use transform="translate(264)" xlink:href="#o"/>
<use transform="translate(317)" xlink:href="#o"/>
</g>
</g>
<g transform="translate(302 29.7) scale(.12 -.12)">
<defs>
<path id="ak" transform="scale(.0156)" d="m1259 4147v-1753h794q441 0 681 228 241 228 241 650 0 419-241 647-240 228-681 228h-794zm-631 519h1425q785 0 1186-355 402-355 402-1039 0-691-402-1044-401-353-1186-353h-794v-1875h-631v4666z"/>
<path id="ad" transform="scale(.0156)" d="m2059-325q-243-625-475-815-231-191-618-191h-460v481h338q237 0 368 113 132 112 291 531l103 262-1415 3444h609l1094-2737 1094 2737h609l-1538-3825z"/>
<path id="ae" transform="scale(.0156)" d="m1172 4494v-994h1184v-447h-1184v-1900q0-428 117-550t477-122h590v-481h-590q-666 0-919 248-253 249-253 905v1900h-422v447h422v994h578z"/>
<path id="af" transform="scale(.0156)" d="m3513 2113v-2113h-575v2094q0 497-194 743-194 247-581 247-466 0-735-297-269-296-269-809v-1978h-578v4863h578v-1907q207 316 486 472 280 156 646 156 603 0 912-373 310-373 310-1098z"/>
<path id="s" transform="scale(.0156)" d="m3513 2113v-2113h-575v2094q0 497-194 743-194 247-581 247-466 0-735-297-269-296-269-809v-1978h-578v3500h578v-544q207 316 486 472 280 156 646 156 603 0 912-373 310-373 310-1098z"/>
<path id="w" transform="scale(.0156)" d="m3513 3500-1266-1703 1331-1797h-678l-1019 1375-1018-1375h-679l1360 1831-1244 1669h678l928-1247 928 1247h679z"/>
<path id="z" transform="scale(.0156)" d="m191 3500h609l1094-2937 1094 2937h609l-1313-3500h-781l-1312 3500z"/>
</defs>
<use xlink:href="#ak"/>
<use transform="translate(60.3)" xlink:href="#ad"/>
<use transform="translate(119)" xlink:href="#ae"/>
<use transform="translate(159)" xlink:href="#af"/>
<use transform="translate(222)" xlink:href="#q"/>
<use transform="translate(283)" xlink:href="#s"/>
<use transform="translate(347)" xlink:href="#DejaVuSans-20"/>
<use transform="translate(378)" xlink:href="#r"/>
<use transform="translate(442)" xlink:href="#g"/>
<use transform="translate(474)" xlink:href="#d"/>
<use transform="translate(537)" xlink:href="#r"/>
<use transform="translate(601)" xlink:href="#g"/>
<use transform="translate(633)" xlink:href="#w"/>
<use transform="translate(692)" xlink:href="#DejaVuSans-20"/>
<use transform="translate(724)" xlink:href="#z"/>
<use transform="translate(783)" xlink:href="#o"/>
<use transform="translate(835)" xlink:href="#g"/>
<use transform="translate(867)" xlink:href="#DejaVuSans-20"/>
<use transform="translate(899)" xlink:href="#r"/>
<use transform="translate(962)" xlink:href="#g"/>
<use transform="translate(994)" xlink:href="#d"/>
<use transform="translate(1058)" xlink:href="#c"/>
<use transform="translate(1121)" xlink:href="#g"/>
<use transform="translate(1153)" xlink:href="#ah"/>
</g>
<path d="m47.6 87.8h82.6q2 0 2-2v-43q0-2-2-2h-82.6q-2 0-2 2v43q0 2 2 2z" fill="#fff" opacity=".8" stroke="#ccc"/>
<path d="m49.6 48.8h10 10" fill="none" stroke="#1f77b4" stroke-linecap="square" stroke-opacity=".9" stroke-width="1.5"/>
<use x="59.645553" y="48.831032" fill="#1f77b4" fill-opacity=".9" stroke="#1f77b4" stroke-opacity=".9" xlink:href="#a"/>
<g transform="translate(77.6 52.3) scale(.1 -.1)">
<defs>
<path id="aa" transform="scale(.0156)" d="m603 3500h575v-3500h-575v3500zm0 1363h575v-729h-575v729z"/>
<path id="v" transform="scale(.0156)" d="m544 1381v2119h575v-2097q0-497 193-746 194-248 582-248 465 0 735 297 271 297 271 810v1984h575v-3500h-575v538q-209-319-486-474-276-155-642-155-603 0-916 375-312 375-312 1097zm1447 2203z"/>
</defs>
<use xlink:href="#t"/>
<use transform="translate(27.8)" xlink:href="#aa"/>
<use transform="translate(55.6)" xlink:href="#s"/>
<use transform="translate(119)" xlink:href="#v"/>
<use transform="translate(182)" xlink:href="#w"/>
</g>
<path d="m49.6 63.5h10 10" fill="none" stroke="#1f77b4" stroke-dasharray="1.5,2.475" stroke-opacity=".9" stroke-width="1.5"/>
<use x="59.645553" y="63.509157" fill="#1f77b4" fill-opacity=".9" stroke="#1f77b4" stroke-opacity=".9" xlink:href="#a"/>
<g transform="translate(77.6 67) scale(.1 -.1)">
<use xlink:href="#t"/>
<use transform="translate(27.8)" xlink:href="#aa"/>
<use transform="translate(55.6)" xlink:href="#s"/>
<use transform="translate(119)" xlink:href="#v"/>
<use transform="translate(182)" xlink:href="#w"/>
<use transform="translate(242)" xlink:href="#e"/>
<use transform="translate(275)" xlink:href="#z"/>
<use transform="translate(334)" xlink:href="#v"/>
<use transform="translate(398)" xlink:href="#t"/>
<use transform="translate(425)" xlink:href="#ae"/>
<use transform="translate(465)" xlink:href="#p"/>
</g>
<path d="m49.6 78.2h10 10" fill="none" stroke="#2ca02c" stroke-linecap="square" stroke-opacity=".9" stroke-width="1.5"/>
<use x="59.645553" y="78.187282" fill="#2ca02c" fill-opacity=".9" stroke="#2ca02c" stroke-opacity=".9" xlink:href="#n"/>
<g transform="translate(77.6 81.7) scale(.1 -.1)">
<defs>
<path id="y" transform="scale(.0156)" d="m2194 1759q-697 0-966-159t-269-544q0-306 202-486 202-179 548-179 479 0 768 339t289 901v128h-572zm1147 238v-2e3h-575v531q-197-318-491-470t-719-152q-537 0-855 302-317 302-317 808 0 590 395 890 396 300 1180 300h807v57q0 397-261 614t-733 217q-300 0-585-72-284-72-546-216v532q315 122 612 182 297 61 578 61 760 0 1135-394 375-393 375-1193z"/>
</defs>
<use xlink:href="#x"/>
<use transform="translate(97.4)" xlink:href="#y"/>
<use transform="translate(159)" xlink:href="#ab"/>
<use transform="translate(214)" xlink:href="#q"/>
<use transform="translate(275)" xlink:href="#o"/>
</g>
<path d="m40.6 700h669v-313h-669z" fill="#fff"/>
<path d="m92.5 700v-313" clip-path="url(#h)" fill="none" stroke="#b0b0b0" stroke-linecap="square" stroke-width=".8"/>
<use x="92.454811" y="700.321635" stroke="#000000" stroke-width=".8" xlink:href="#i"/>
<g transform="translate(71.6 715) scale(.1 -.1)">
<use xlink:href="#c"/>
<use transform="translate(63.6)" xlink:href="#b"/>
<use transform="translate(127)" xlink:href="#c"/>
<use transform="translate(191)" xlink:href="#m"/>
<use transform="translate(254)" xlink:href="#e"/>
<use transform="translate(291)" xlink:href="#b"/>
<use transform="translate(354)" xlink:href="#ag"/>
</g>
<path d="m169 700v-313" clip-path="url(#h)" fill="none" stroke="#b0b0b0" stroke-linecap="square" stroke-width=".8"/>
<use x="169.458119" y="700.321635" stroke="#000000" stroke-width=".8" xlink:href="#i"/>
<g transform="translate(149 715) scale(.1 -.1)">
<use xlink:href="#c"/>
<use transform="translate(63.6)" xlink:href="#b"/>
<use transform="translate(127)" xlink:href="#c"/>
<use transform="translate(191)" xlink:href="#m"/>
<use transform="translate(254)" xlink:href="#e"/>
<use transform="translate(291)" xlink:href="#b"/>
<use transform="translate(354)" xlink:href="#ac"/>
</g>
<path d="m244 700v-313" clip-path="url(#h)" fill="none" stroke="#b0b0b0" stroke-linecap="square" stroke-width=".8"/>
<use x="243.977449" y="700.321635" stroke="#000000" stroke-width=".8" xlink:href="#i"/>
<g transform="translate(223 715) scale(.1 -.1)">
<use xlink:href="#c"/>
<use transform="translate(63.6)" xlink:href="#b"/>
<use transform="translate(127)" xlink:href="#c"/>
<use transform="translate(191)" xlink:href="#m"/>
<use transform="translate(254)" xlink:href="#e"/>
<use transform="translate(291)" xlink:href="#d"/>
<use transform="translate(354)" xlink:href="#b"/>
</g>
<path d="m321 700v-313" clip-path="url(#h)" fill="none" stroke="#b0b0b0" stroke-linecap="square" stroke-width=".8"/>
<use x="320.980758" y="700.321635" stroke="#000000" stroke-width=".8" xlink:href="#i"/>
<g transform="translate(300 715) scale(.1 -.1)">
<use xlink:href="#c"/>
<use transform="translate(63.6)" xlink:href="#b"/>
<use transform="translate(127)" xlink:href="#c"/>
<use transform="translate(191)" xlink:href="#m"/>
<use transform="translate(254)" xlink:href="#e"/>
<use transform="translate(291)" xlink:href="#d"/>
<use transform="translate(354)" xlink:href="#d"/>
</g>
<path d="m396 700v-313" clip-path="url(#h)" fill="none" stroke="#b0b0b0" stroke-linecap="square" stroke-width=".8"/>
<use x="395.500088" y="700.321635" stroke="#000000" stroke-width=".8" xlink:href="#i"/>
<g transform="translate(375 715) scale(.1 -.1)">
<use xlink:href="#c"/>
<use transform="translate(63.6)" xlink:href="#b"/>
<use transform="translate(127)" xlink:href="#c"/>
<use transform="translate(191)" xlink:href="#m"/>
<use transform="translate(254)" xlink:href="#e"/>
<use transform="translate(291)" xlink:href="#d"/>
<use transform="translate(354)" xlink:href="#c"/>
</g>
<path d="m473 700v-313" clip-path="url(#h)" fill="none" stroke="#b0b0b0" stroke-linecap="square" stroke-width=".8"/>
<use x="472.503396" y="700.321635" stroke="#000000" stroke-width=".8" xlink:href="#i"/>
<g transform="translate(452 715) scale(.1 -.1)">
<use xlink:href="#c"/>
<use transform="translate(63.6)" xlink:href="#b"/>
<use transform="translate(127)" xlink:href="#c"/>
<use transform="translate(191)" xlink:href="#j"/>
<use transform="translate(254)" xlink:href="#e"/>
<use transform="translate(291)" xlink:href="#b"/>
<use transform="translate(354)" xlink:href="#d"/>
</g>
<path d="m550 700v-313" clip-path="url(#h)" fill="none" stroke="#b0b0b0" stroke-linecap="square" stroke-width=".8"/>
<use x="549.506704" y="700.321635" stroke="#000000" stroke-width=".8" xlink:href="#i"/>
<g transform="translate(529 715) scale(.1 -.1)">
<use xlink:href="#c"/>
<use transform="translate(63.6)" xlink:href="#b"/>
<use transform="translate(127)" xlink:href="#c"/>
<use transform="translate(191)" xlink:href="#j"/>
<use transform="translate(254)" xlink:href="#e"/>
<use transform="translate(291)" xlink:href="#b"/>
<use transform="translate(354)" xlink:href="#c"/>
</g>
<path d="m619 700v-313" clip-path="url(#h)" fill="none" stroke="#b0b0b0" stroke-linecap="square" stroke-width=".8"/>
<use x="619.058079" y="700.321635" stroke="#000000" stroke-width=".8" xlink:href="#i"/>
<g transform="translate(598 715) scale(.1 -.1)">
<use xlink:href="#c"/>
<use transform="translate(63.6)" xlink:href="#b"/>
<use transform="translate(127)" xlink:href="#c"/>
<use transform="translate(191)" xlink:href="#j"/>
<use transform="translate(254)" xlink:href="#e"/>
<use transform="translate(291)" xlink:href="#b"/>
<use transform="translate(354)" xlink:href="#r"/>
</g>
<path d="m696 700v-313" clip-path="url(#h)" fill="none" stroke="#b0b0b0" stroke-linecap="square" stroke-width=".8"/>
<use x="696.061388" y="700.321635" stroke="#000000" stroke-width=".8" xlink:href="#i"/>
<g transform="translate(675 715) scale(.1 -.1)">
<use xlink:href="#c"/>
<use transform="translate(63.6)" xlink:href="#b"/>
<use transform="translate(127)" xlink:href="#c"/>
<use transform="translate(191)" xlink:href="#j"/>
<use transform="translate(254)" xlink:href="#e"/>
<use transform="translate(291)" xlink:href="#b"/>
<use transform="translate(354)" xlink:href="#m"/>
</g>
<path d="m40.6 660h669" clip-path="url(#h)" fill="none" stroke="#b0b0b0" stroke-linecap="square" stroke-width=".8"/>
<use x="40.645553" y="660.252675" stroke="#000000" stroke-width=".8" xlink:href="#k"/>
<g transform="translate(3 664) scale(.1 -.1)">
<use xlink:href="#d"/>
<use transform="translate(63.6)" xlink:href="#g"/>
<use transform="translate(95.4)" xlink:href="#b"/>
<use transform="translate(159)" xlink:href="#b"/>
<use transform="translate(223)" xlink:href="#l"/>
</g>
<path d="m40.6 617h669" clip-path="url(#h)" fill="none" stroke="#b0b0b0" stroke-linecap="square" stroke-width=".8"/>
<use x="40.645553" y="617.167772" stroke="#000000" stroke-width=".8" xlink:href="#k"/>
<g transform="translate(3 621) scale(.1 -.1)">
<use xlink:href="#d"/>
<use transform="translate(63.6)" xlink:href="#g"/>
<use transform="translate(95.4)" xlink:href="#b"/>
<use transform="translate(159)" xlink:href="#j"/>
<use transform="translate(223)" xlink:href="#l"/>
</g>
<path d="m40.6 574h669" clip-path="url(#h)" fill="none" stroke="#b0b0b0" stroke-linecap="square" stroke-width=".8"/>
<use x="40.645553" y="574.08287" stroke="#000000" stroke-width=".8" xlink:href="#k"/>
<g transform="translate(3 578) scale(.1 -.1)">
<use xlink:href="#d"/>
<use transform="translate(63.6)" xlink:href="#g"/>
<use transform="translate(95.4)" xlink:href="#d"/>
<use transform="translate(159)" xlink:href="#b"/>
<use transform="translate(223)" xlink:href="#l"/>
</g>
<path d="m40.6 531h669" clip-path="url(#h)" fill="none" stroke="#b0b0b0" stroke-linecap="square" stroke-width=".8"/>
<use x="40.645553" y="530.997967" stroke="#000000" stroke-width=".8" xlink:href="#k"/>
<g transform="translate(3 535) scale(.1 -.1)">
<use xlink:href="#d"/>
<use transform="translate(63.6)" xlink:href="#g"/>
<use transform="translate(95.4)" xlink:href="#d"/>
<use transform="translate(159)" xlink:href="#j"/>
<use transform="translate(223)" xlink:href="#l"/>
</g>
<path d="m40.6 488h669" clip-path="url(#h)" fill="none" stroke="#b0b0b0" stroke-linecap="square" stroke-width=".8"/>
<use x="40.645553" y="487.913064" stroke="#000000" stroke-width=".8" xlink:href="#k"/>
<g transform="translate(3 492) scale(.1 -.1)">
<use xlink:href="#d"/>
<use transform="translate(63.6)" xlink:href="#g"/>
<use transform="translate(95.4)" xlink:href="#c"/>
<use transform="translate(159)" xlink:href="#b"/>
<use transform="translate(223)" xlink:href="#l"/>
</g>
<path d="m40.6 445h669" clip-path="url(#h)" fill="none" stroke="#b0b0b0" stroke-linecap="square" stroke-width=".8"/>
<use x="40.645553" y="444.828161" stroke="#000000" stroke-width=".8" xlink:href="#k"/>
<g transform="translate(3 449) scale(.1 -.1)">
<use xlink:href="#d"/>
<use transform="translate(63.6)" xlink:href="#g"/>
<use transform="translate(95.4)" xlink:href="#c"/>
<use transform="translate(159)" xlink:href="#j"/>
<use transform="translate(223)" xlink:href="#l"/>
</g>
<path d="m40.6 402h669" clip-path="url(#h)" fill="none" stroke="#b0b0b0" stroke-linecap="square" stroke-width=".8"/>
<use x="40.645553" y="401.743258" stroke="#000000" stroke-width=".8" xlink:href="#k"/>
<g transform="translate(3 406) scale(.1 -.1)">
<use xlink:href="#d"/>
<use transform="translate(63.6)" xlink:href="#g"/>
<use transform="translate(95.4)" xlink:href="#r"/>
<use transform="translate(159)" xlink:href="#b"/>
<use transform="translate(223)" xlink:href="#l"/>
</g>
<g stroke="#1f77b4" stroke-opacity=".9">
<path d="m71.1 660 11.8-8.62h17.7l9.79 8.62h7.54l12.2-8.62h54.1l0.552 8.62 2.41-8.62 17.4 8.62h14.4l14-8.62m6.74 8.62 4.51 8.62 0.103 8.62 52.6-25.9h67.2l2.53 8.62 2.19-8.62h2.65l2.66-94.8h32.3l2.2-8.62h9.61l3.07 8.62h19l3.32-8.62h29.6l2.57 8.62 2.16-8.62h12.7l2.68 8.62h5.11l1.91-8.62h2.87l1.84 8.62h3.4l2.01-8.62h7.52l2.71 8.62 2.46-8.62h2.44l0.196 8.62 2.37-8.62h2.4l2.38-146 2.05 146h10.5l2.32 8.62 2-8.62h2.39l2.43 8.62 0.729-8.62h96.8l2.31-8.62h5.04l2.54 8.62 1.55-8.62h1.05l2.5-8.62h8.97l3.4 8.62v0" clip-path="url(#h)" fill="none" stroke-linecap="square" stroke-width="1.5"/>
<g clip-path="url(#h)" fill="#1f77b4" fill-opacity=".9">
<use x="71.068568" y="660.252675" xlink:href="#a"/>
<use x="82.887414" y="651.635695" xlink:href="#a"/>
<use x="100.623964" y="651.635695" xlink:href="#a"/>
<use x="110.396288" y="660.252675" xlink:href="#a"/>
<use x="110.412187" y="660.252675" xlink:href="#a"/>
<use x="110.648654" y="660.252675" xlink:href="#a"/>
<use x="117.952295" y="660.252675" xlink:href="#a"/>
<use x="130.098601" y="651.635695" xlink:href="#a"/>
<use x="130.183816" y="651.635695" xlink:href="#a"/>
<use x="135.300148" y="651.635695" xlink:href="#a"/>
<use x="152.78531" y="651.635695" xlink:href="#a"/>
<use x="170.212081" y="651.635695" xlink:href="#a"/>
<use x="184.244887" y="651.635695" xlink:href="#a"/>
<use x="184.272775" y="651.635695" xlink:href="#a"/>
<use x="184.825115" y="660.252675" xlink:href="#a"/>
<use x="187.237419" y="651.635695" xlink:href="#a"/>
<use x="204.59591" y="660.252675" xlink:href="#a"/>
<use x="218.995908" y="660.252675" xlink:href="#a"/>
<use x="233.026012" y="651.635695" xlink:href="#a"/>
<use x="239.761099" y="660.252675" xlink:href="#a"/>
<use x="244.272019" y="668.869656" xlink:href="#a"/>
<use x="244.375375" y="677.486636" xlink:href="#a"/>
<use x="296.93019" y="651.635695" xlink:href="#a"/>
<use x="299.215536" y="651.635695" xlink:href="#a"/>
<use x="331.517222" y="651.635695" xlink:href="#a"/>
<use x="334.321615" y="651.635695" xlink:href="#a"/>
<use x="336.667364" y="651.635695" xlink:href="#a"/>
<use x="339.202085" y="651.635695" xlink:href="#a"/>
<use x="341.038619" y="651.635695" xlink:href="#a"/>
<use x="344.167194" y="651.635695" xlink:href="#a"/>
<use x="346.519038" y="651.635695" xlink:href="#a"/>
<use x="349.256129" y="651.635695" xlink:href="#a"/>
<use x="351.450309" y="651.635695" xlink:href="#a"/>
<use x="354.178314" y="651.635695" xlink:href="#a"/>
<use x="356.727324" y="651.635695" xlink:href="#a"/>
<use x="359.084084" y="651.635695" xlink:href="#a"/>
<use x="361.668686" y="651.635695" xlink:href="#a"/>
<use x="364.111724" y="651.635695" xlink:href="#a"/>
<use x="366.643167" y="660.252675" xlink:href="#a"/>
<use x="368.830965" y="651.635695" xlink:href="#a"/>
<use x="371.479334" y="651.635695" xlink:href="#a"/>
<use x="374.138196" y="556.848908" xlink:href="#a"/>
<use x="376.564674" y="556.848908" xlink:href="#a"/>
<use x="378.803992" y="556.848908" xlink:href="#a"/>
<use x="381.394602" y="556.848908" xlink:href="#a"/>
<use x="383.759872" y="556.848908" xlink:href="#a"/>
<use x="386.264694" y="556.848908" xlink:href="#a"/>
<use x="388.9329" y="556.848908" xlink:href="#a"/>
<use x="390.744565" y="556.848908" xlink:href="#a"/>
<use x="393.643401" y="556.848908" xlink:href="#a"/>
<use x="395.878981" y="556.848908" xlink:href="#a"/>
<use x="398.448863" y="556.848908" xlink:href="#a"/>
<use x="401.348475" y="556.848908" xlink:href="#a"/>
<use x="403.918041" y="556.848908" xlink:href="#a"/>
<use x="406.410788" y="556.848908" xlink:href="#a"/>
<use x="408.609482" y="548.231928" xlink:href="#a"/>
<use x="411.093517" y="548.231928" xlink:href="#a"/>
<use x="413.196187" y="548.231928" xlink:href="#a"/>
<use x="415.762733" y="548.231928" xlink:href="#a"/>
<use x="418.220491" y="548.231928" xlink:href="#a"/>
<use x="421.288463" y="556.848908" xlink:href="#a"/>
<use x="423.683517" y="556.848908" xlink:href="#a"/>
<use x="426.013396" y="556.848908" xlink:href="#a"/>
<use x="428.13208" y="556.848908" xlink:href="#a"/>
<use x="430.320309" y="556.848908" xlink:href="#a"/>
<use x="433.617099" y="556.848908" xlink:href="#a"/>
<use x="435.864035" y="556.848908" xlink:href="#a"/>
<use x="438.585285" y="556.848908" xlink:href="#a"/>
<use x="440.271227" y="556.848908" xlink:href="#a"/>
<use x="443.590413" y="548.231928" xlink:href="#a"/>
<use x="445.664305" y="548.231928" xlink:href="#a"/>
<use x="450.564612" y="548.231928" xlink:href="#a"/>
<use x="453.283245" y="548.231928" xlink:href="#a"/>
<use x="455.47685" y="548.231928" xlink:href="#a"/>
<use x="457.879093" y="548.231928" xlink:href="#a"/>
<use x="460.79699" y="548.231928" xlink:href="#a"/>
<use x="463.307533" y="548.231928" xlink:href="#a"/>
<use x="465.68206" y="548.231928" xlink:href="#a"/>
<use x="468.272354" y="548.231928" xlink:href="#a"/>
<use x="470.626728" y="548.231928" xlink:href="#a"/>
<use x="473.163289" y="548.231928" xlink:href="#a"/>
<use x="475.731676" y="556.848908" xlink:href="#a"/>
<use x="477.89035" y="548.231928" xlink:href="#a"/>
<use x="480.660474" y="548.231928" xlink:href="#a"/>
<use x="483.334171" y="548.231928" xlink:href="#a"/>
<use x="485.645219" y="548.231928" xlink:href="#a"/>
<use x="488.302098" y="548.231928" xlink:href="#a"/>
<use x="490.585719" y="548.231928" xlink:href="#a"/>
<use x="493.268817" y="556.848908" xlink:href="#a"/>
<use x="495.351822" y="556.848908" xlink:href="#a"/>
<use x="498.383684" y="556.848908" xlink:href="#a"/>
<use x="500.289073" y="548.231928" xlink:href="#a"/>
<use x="503.155767" y="548.231928" xlink:href="#a"/>
<use x="504.99897" y="556.848908" xlink:href="#a"/>
<use x="508.136717" y="556.848908" xlink:href="#a"/>
<use x="508.398656" y="556.848908" xlink:href="#a"/>
<use x="510.408177" y="548.231928" xlink:href="#a"/>
<use x="513.173471" y="548.231928" xlink:href="#a"/>
<use x="515.530173" y="548.231928" xlink:href="#a"/>
<use x="517.927586" y="548.231928" xlink:href="#a"/>
<use x="520.639721" y="556.848908" xlink:href="#a"/>
<use x="523.103315" y="548.231928" xlink:href="#a"/>
<use x="525.54414" y="548.231928" xlink:href="#a"/>
<use x="525.740587" y="556.848908" xlink:href="#a"/>
<use x="528.114194" y="548.231928" xlink:href="#a"/>
<use x="529.727831" y="548.231928" xlink:href="#a"/>
<use x="530.517759" y="548.231928" xlink:href="#a"/>
<use x="532.898324" y="401.743258" xlink:href="#a"/>
<use x="534.948094" y="548.231928" xlink:href="#a"/>
<use x="537.501617" y="548.231928" xlink:href="#a"/>
<use x="540.524279" y="548.231928" xlink:href="#a"/>
<use x="541.711039" y="548.231928" xlink:href="#a"/>
<use x="543.004979" y="548.231928" xlink:href="#a"/>
<use x="545.474582" y="548.231928" xlink:href="#a"/>
<use x="547.790115" y="556.848908" xlink:href="#a"/>
<use x="549.785404" y="548.231928" xlink:href="#a"/>
<use x="552.179999" y="548.231928" xlink:href="#a"/>
<use x="554.607541" y="556.848908" xlink:href="#a"/>
<use x="555.337008" y="548.231928" xlink:href="#a"/>
<use x="557.134931" y="548.231928" xlink:href="#a"/>
<use x="560.269544" y="548.231928" xlink:href="#a"/>
<use x="562.407001" y="548.231928" xlink:href="#a"/>
<use x="565.302531" y="548.231928" xlink:href="#a"/>
<use x="567.687868" y="548.231928" xlink:href="#a"/>
<use x="570.267698" y="548.231928" xlink:href="#a"/>
<use x="572.737876" y="548.231928" xlink:href="#a"/>
<use x="575.04786" y="548.231928" xlink:href="#a"/>
<use x="577.760484" y="548.231928" xlink:href="#a"/>
<use x="580.158385" y="548.231928" xlink:href="#a"/>
<use x="582.196972" y="548.231928" xlink:href="#a"/>
<use x="584.940905" y="548.231928" xlink:href="#a"/>
<use x="587.182781" y="548.231928" xlink:href="#a"/>
<use x="590.194201" y="548.231928" xlink:href="#a"/>
<use x="592.2624" y="548.231928" xlink:href="#a"/>
<use x="595.123977" y="548.231928" xlink:href="#a"/>
<use x="597.40018" y="548.231928" xlink:href="#a"/>
<use x="600.115967" y="548.231928" xlink:href="#a"/>
<use x="601.971015" y="548.231928" xlink:href="#a"/>
<use x="604.455597" y="548.231928" xlink:href="#a"/>
<use x="607.605246" y="548.231928" xlink:href="#a"/>
<use x="609.803538" y="548.231928" xlink:href="#a"/>
<use x="612.234817" y="548.231928" xlink:href="#a"/>
<use x="614.788398" y="548.231928" xlink:href="#a"/>
<use x="617.459306" y="548.231928" xlink:href="#a"/>
<use x="619.778778" y="548.231928" xlink:href="#a"/>
<use x="622.207269" y="548.231928" xlink:href="#a"/>
<use x="624.684231" y="548.231928" xlink:href="#a"/>
<use x="625.167543" y="548.231928" xlink:href="#a"/>
<use x="627.335504" y="548.231928" xlink:href="#a"/>
<use x="629.828998" y="548.231928" xlink:href="#a"/>
<use x="632.305845" y="548.231928" xlink:href="#a"/>
<use x="634.860749" y="548.231928" xlink:href="#a"/>
<use x="637.084225" y="548.231928" xlink:href="#a"/>
<use x="639.614863" y="548.231928" xlink:href="#a"/>
<use x="641.94756" y="548.231928" xlink:href="#a"/>
<use x="643.806317" y="548.231928" xlink:href="#a"/>
<use x="644.744622" y="548.231928" xlink:href="#a"/>
<use x="647.240819" y="548.231928" xlink:href="#a"/>
<use x="649.565983" y="548.231928" xlink:href="#a"/>
<use x="652.185832" y="548.231928" xlink:href="#a"/>
<use x="654.495212" y="539.614947" xlink:href="#a"/>
<use x="656.723116" y="539.614947" xlink:href="#a"/>
<use x="659.530442" y="539.614947" xlink:href="#a"/>
<use x="662.069907" y="548.231928" xlink:href="#a"/>
<use x="663.616528" y="539.614947" xlink:href="#a"/>
<use x="664.66184" y="539.614947" xlink:href="#a"/>
<use x="667.161716" y="530.997967" xlink:href="#a"/>
<use x="669.668578" y="530.997967" xlink:href="#a"/>
<use x="672.114836" y="530.997967" xlink:href="#a"/>
<use x="674.507591" y="530.997967" xlink:href="#a"/>
<use x="676.131003" y="530.997967" xlink:href="#a"/>
<use x="679.528877" y="539.614947" xlink:href="#a"/>
</g>
</g>
<g stroke="#1f77b4" stroke-opacity=".9">
<path d="m219 660v-8.62l20.8 8.62h44l3.57 25.9 1.21-25.9h53.6l2.01-8.62 2.35 8.62 2.74-8.62 2.19 8.62h7.63l2.58-8.62 0.187 8.62h2.26l2.53 8.62 2.19-8.62 2.65-8.62 2.12-68.9h35.7l1.41-8.62h7.49l3.07 8.62 1.38-8.62 0.43 8.62 0.588-8.62 1.25 8.62h15.3l3.32-8.62h6.97l2.72 8.62 2.19-8.62h12.8l2.35 8.62 2.54-8.62h2.57l2.16 8.62 2.77-8.62 2.67 8.62 2.31-8.62h17.5l1.84 8.62h3.14l0.262-8.62 2.01 8.62 1.91-8.62h18.2l2.38-164 2.05 164h32.7l2.58-8.62 2.47 8.62 2.31-8.62 2.71 8.62h59.3l2.53-8.62 2.33 8.62 1.86-8.62h0.938l2.5 8.62h2.33l2.29-8.62 0.328 8.62h2.31l2.23-8.62 2.81 8.62h4.09l1.05-8.62h2.5l2.51-8.62h6.46l3.24 8.62 0.159-8.62" clip-path="url(#h)" fill="none" stroke-dasharray="1.5,2.475" stroke-width="1.5"/>
<g clip-path="url(#h)" fill="#1f77b4" fill-opacity=".9">
<use x="218.995908" y="660.252675" xlink:href="#a"/>
<use x="218.995908" y="651.635695" xlink:href="#a"/>
<use x="239.761099" y="660.252675" xlink:href="#a"/>
<use x="255.667209" y="660.252675" xlink:href="#a"/>
<use x="274.401777" y="660.252675" xlink:href="#a"/>
<use x="283.788855" y="660.252675" xlink:href="#a"/>
<use x="287.358337" y="686.103617" xlink:href="#a"/>
<use x="288.570858" y="660.252675" xlink:href="#a"/>
<use x="289.422511" y="660.252675" xlink:href="#a"/>
<use x="291.875008" y="660.252675" xlink:href="#a"/>
<use x="294.291826" y="660.252675" xlink:href="#a"/>
<use x="296.93019" y="660.252675" xlink:href="#a"/>
<use x="299.215536" y="660.252675" xlink:href="#a"/>
<use x="301.985084" y="660.252675" xlink:href="#a"/>
<use x="304.509341" y="660.252675" xlink:href="#a"/>
<use x="306.413522" y="660.252675" xlink:href="#a"/>
<use x="309.251754" y="660.252675" xlink:href="#a"/>
<use x="311.762095" y="660.252675" xlink:href="#a"/>
<use x="314.241761" y="660.252675" xlink:href="#a"/>
<use x="316.967035" y="660.252675" xlink:href="#a"/>
<use x="319.450035" y="660.252675" xlink:href="#a"/>
<use x="321.678629" y="660.252675" xlink:href="#a"/>
<use x="324.311645" y="660.252675" xlink:href="#a"/>
<use x="326.175031" y="660.252675" xlink:href="#a"/>
<use x="329.093043" y="660.252675" xlink:href="#a"/>
<use x="331.517222" y="660.252675" xlink:href="#a"/>
<use x="334.321615" y="660.252675" xlink:href="#a"/>
<use x="336.667364" y="660.252675" xlink:href="#a"/>
<use x="337.934681" y="660.252675" xlink:href="#a"/>
<use x="339.202085" y="660.252675" xlink:href="#a"/>
<use x="341.038619" y="660.252675" xlink:href="#a"/>
<use x="342.155891" y="660.252675" xlink:href="#a"/>
<use x="344.167194" y="651.635695" xlink:href="#a"/>
<use x="346.519038" y="660.252675" xlink:href="#a"/>
<use x="349.256129" y="651.635695" xlink:href="#a"/>
<use x="351.450309" y="660.252675" xlink:href="#a"/>
<use x="354.178314" y="660.252675" xlink:href="#a"/>
<use x="356.727324" y="660.252675" xlink:href="#a"/>
<use x="359.084084" y="660.252675" xlink:href="#a"/>
<use x="361.668686" y="651.635695" xlink:href="#a"/>
<use x="361.856019" y="660.252675" xlink:href="#a"/>
<use x="364.111724" y="660.252675" xlink:href="#a"/>
<use x="366.643167" y="668.869656" xlink:href="#a"/>
<use x="368.830965" y="660.252675" xlink:href="#a"/>
<use x="371.479334" y="651.635695" xlink:href="#a"/>
<use x="373.596839" y="582.69985" xlink:href="#a"/>
<use x="374.138196" y="582.69985" xlink:href="#a"/>
<use x="376.157981" y="582.69985" xlink:href="#a"/>
<use x="376.564674" y="582.69985" xlink:href="#a"/>
<use x="378.803992" y="582.69985" xlink:href="#a"/>
<use x="381.394602" y="582.69985" xlink:href="#a"/>
<use x="383.759872" y="582.69985" xlink:href="#a"/>
<use x="385.7359" y="582.69985" xlink:href="#a"/>
<use x="386.264694" y="582.69985" xlink:href="#a"/>
<use x="388.073714" y="582.69985" xlink:href="#a"/>
<use x="388.9329" y="582.69985" xlink:href="#a"/>
<use x="390.744565" y="582.69985" xlink:href="#a"/>
<use x="393.155259" y="582.69985" xlink:href="#a"/>
<use x="393.643401" y="582.69985" xlink:href="#a"/>
<use x="395.878981" y="582.69985" xlink:href="#a"/>
<use x="398.448863" y="582.69985" xlink:href="#a"/>
<use x="401.348475" y="582.69985" xlink:href="#a"/>
<use x="403.918041" y="582.69985" xlink:href="#a"/>
<use x="405.799712" y="582.69985" xlink:href="#a"/>
<use x="406.410788" y="582.69985" xlink:href="#a"/>
<use x="408.609482" y="582.69985" xlink:href="#a"/>
<use x="409.322475" y="582.69985" xlink:href="#a"/>
<use x="410.731701" y="574.08287" xlink:href="#a"/>
<use x="411.093517" y="574.08287" xlink:href="#a"/>
<use x="413.196187" y="574.08287" xlink:href="#a"/>
<use x="414.435875" y="574.08287" xlink:href="#a"/>
<use x="415.762733" y="574.08287" xlink:href="#a"/>
<use x="418.220491" y="574.08287" xlink:href="#a"/>
<use x="421.288463" y="582.69985" xlink:href="#a"/>
<use x="422.66569" y="574.08287" xlink:href="#a"/>
<use x="423.095758" y="582.69985" xlink:href="#a"/>
<use x="423.683517" y="574.08287" xlink:href="#a"/>
<use x="424.932349" y="582.69985" xlink:href="#a"/>
<use x="426.013396" y="582.69985" xlink:href="#a"/>
<use x="427.932844" y="582.69985" xlink:href="#a"/>
<use x="428.13208" y="582.69985" xlink:href="#a"/>
<use x="430.320309" y="582.69985" xlink:href="#a"/>
<use x="433.617099" y="582.69985" xlink:href="#a"/>
<use x="435.864035" y="582.69985" xlink:href="#a"/>
<use x="438.585285" y="582.69985" xlink:href="#a"/>
<use x="439.304804" y="582.69985" xlink:href="#a"/>
<use x="440.271227" y="582.69985" xlink:href="#a"/>
<use x="443.590413" y="574.08287" xlink:href="#a"/>
<use x="445.664305" y="574.08287" xlink:href="#a"/>
<use x="450.564612" y="574.08287" xlink:href="#a"/>
<use x="453.283245" y="582.69985" xlink:href="#a"/>
<use x="455.47685" y="574.08287" xlink:href="#a"/>
<use x="457.879093" y="574.08287" xlink:href="#a"/>
<use x="460.79699" y="574.08287" xlink:href="#a"/>
<use x="463.307533" y="574.08287" xlink:href="#a"/>
<use x="465.68206" y="574.08287" xlink:href="#a"/>
<use x="468.272354" y="574.08287" xlink:href="#a"/>
<use x="470.626728" y="582.69985" xlink:href="#a"/>
<use x="473.163289" y="574.08287" xlink:href="#a"/>
<use x="475.731676" y="574.08287" xlink:href="#a"/>
<use x="477.89035" y="582.69985" xlink:href="#a"/>
<use x="480.660474" y="574.08287" xlink:href="#a"/>
<use x="483.334171" y="582.69985" xlink:href="#a"/>
<use x="485.645219" y="574.08287" xlink:href="#a"/>
<use x="488.302098" y="574.08287" xlink:href="#a"/>
<use x="490.585719" y="574.08287" xlink:href="#a"/>
<use x="495.351822" y="574.08287" xlink:href="#a"/>
<use x="497.437616" y="574.08287" xlink:href="#a"/>
<use x="498.383684" y="574.08287" xlink:href="#a"/>
<use x="500.289073" y="574.08287" xlink:href="#a"/>
<use x="503.155767" y="574.08287" xlink:href="#a"/>
<use x="504.99897" y="582.69985" xlink:href="#a"/>
<use x="508.136717" y="582.69985" xlink:href="#a"/>
<use x="508.398656" y="574.08287" xlink:href="#a"/>
<use x="510.408177" y="582.69985" xlink:href="#a"/>
<use x="512.285363" y="574.08287" xlink:href="#a"/>
<use x="512.318913" y="574.08287" xlink:href="#a"/>
<use x="512.406226" y="574.08287" xlink:href="#a"/>
<use x="513.173471" y="574.08287" xlink:href="#a"/>
<use x="515.530173" y="574.08287" xlink:href="#a"/>
<use x="517.823051" y="574.08287" xlink:href="#a"/>
<use x="517.927586" y="574.08287" xlink:href="#a"/>
<use x="520.639721" y="574.08287" xlink:href="#a"/>
<use x="523.103315" y="574.08287" xlink:href="#a"/>
<use x="525.298646" y="574.08287" xlink:href="#a"/>
<use x="525.54414" y="574.08287" xlink:href="#a"/>
<use x="525.644332" y="574.08287" xlink:href="#a"/>
<use x="525.740587" y="574.08287" xlink:href="#a"/>
<use x="527.0349" y="574.08287" xlink:href="#a"/>
<use x="528.114194" y="574.08287" xlink:href="#a"/>
<use x="529.727831" y="574.08287" xlink:href="#a"/>
<use x="530.517759" y="574.08287" xlink:href="#a"/>
<use x="532.898324" y="410.360239" xlink:href="#a"/>
<use x="534.948094" y="574.08287" xlink:href="#a"/>
<use x="537.501617" y="574.08287" xlink:href="#a"/>
<use x="540.524279" y="574.08287" xlink:href="#a"/>
<use x="541.711039" y="574.08287" xlink:href="#a"/>
<use x="543.004979" y="574.08287" xlink:href="#a"/>
<use x="545.474582" y="574.08287" xlink:href="#a"/>
<use x="547.790115" y="574.08287" xlink:href="#a"/>
<use x="549.785404" y="574.08287" xlink:href="#a"/>
<use x="552.179999" y="574.08287" xlink:href="#a"/>
<use x="554.607541" y="574.08287" xlink:href="#a"/>
<use x="555.337008" y="574.08287" xlink:href="#a"/>
<use x="557.134931" y="574.08287" xlink:href="#a"/>
<use x="560.269544" y="574.08287" xlink:href="#a"/>
<use x="562.407001" y="574.08287" xlink:href="#a"/>
<use x="565.302531" y="574.08287" xlink:href="#a"/>
<use x="567.687868" y="574.08287" xlink:href="#a"/>
<use x="570.267698" y="565.465889" xlink:href="#a"/>
<use x="572.737876" y="574.08287" xlink:href="#a"/>
<use x="575.04786" y="565.465889" xlink:href="#a"/>
<use x="577.760484" y="574.08287" xlink:href="#a"/>
<use x="580.158385" y="574.08287" xlink:href="#a"/>
<use x="582.056184" y="574.08287" xlink:href="#a"/>
<use x="582.196972" y="574.08287" xlink:href="#a"/>
<use x="584.940905" y="574.08287" xlink:href="#a"/>
<use x="587.182781" y="574.08287" xlink:href="#a"/>
<use x="590.194201" y="574.08287" xlink:href="#a"/>
<use x="592.2624" y="574.08287" xlink:href="#a"/>
<use x="595.123977" y="574.08287" xlink:href="#a"/>
<use x="597.40018" y="574.08287" xlink:href="#a"/>
<use x="600.115967" y="574.08287" xlink:href="#a"/>
<use x="601.971015" y="574.08287" xlink:href="#a"/>
<use x="604.455597" y="574.08287" xlink:href="#a"/>
<use x="607.605246" y="574.08287" xlink:href="#a"/>
<use x="609.803538" y="574.08287" xlink:href="#a"/>
<use x="610.759323" y="574.08287" xlink:href="#a"/>
<use x="611.027932" y="574.08287" xlink:href="#a"/>
<use x="612.234817" y="574.08287" xlink:href="#a"/>
<use x="614.060196" y="574.08287" xlink:href="#a"/>
<use x="614.788398" y="574.08287" xlink:href="#a"/>
<use x="617.459306" y="574.08287" xlink:href="#a"/>
<use x="619.171238" y="574.08287" xlink:href="#a"/>
<use x="619.522675" y="574.08287" xlink:href="#a"/>
<use x="619.778778" y="574.08287" xlink:href="#a"/>
<use x="622.207269" y="574.08287" xlink:href="#a"/>
<use x="624.684231" y="574.08287" xlink:href="#a"/>
<use x="625.167543" y="574.08287" xlink:href="#a"/>
<use x="627.335504" y="574.08287" xlink:href="#a"/>
<use x="629.828998" y="574.08287" xlink:href="#a"/>
<use x="632.305845" y="574.08287" xlink:href="#a"/>
<use x="634.860749" y="574.08287" xlink:href="#a"/>
<use x="637.084225" y="574.08287" xlink:href="#a"/>
<use x="639.614863" y="565.465889" xlink:href="#a"/>
<use x="641.94756" y="574.08287" xlink:href="#a"/>
<use x="643.806317" y="565.465889" xlink:href="#a"/>
<use x="644.744622" y="565.465889" xlink:href="#a"/>
<use x="647.240819" y="574.08287" xlink:href="#a"/>
<use x="649.565983" y="574.08287" xlink:href="#a"/>
<use x="651.857423" y="565.465889" xlink:href="#a"/>
<use x="652.185832" y="574.08287" xlink:href="#a"/>
<use x="654.495212" y="574.08287" xlink:href="#a"/>
<use x="656.723116" y="565.465889" xlink:href="#a"/>
<use x="659.530442" y="574.08287" xlink:href="#a"/>
<use x="661.53381" y="574.08287" xlink:href="#a"/>
<use x="662.069907" y="574.08287" xlink:href="#a"/>
<use x="663.616528" y="574.08287" xlink:href="#a"/>
<use x="664.66184" y="565.465889" xlink:href="#a"/>
<use x="667.161716" y="565.465889" xlink:href="#a"/>
<use x="669.668578" y="556.848908" xlink:href="#a"/>
<use x="672.114836" y="556.848908" xlink:href="#a"/>
<use x="674.507591" y="556.848908" xlink:href="#a"/>
<use x="676.131003" y="556.848908" xlink:href="#a"/>
<use x="679.369604" y="565.465889" xlink:href="#a"/>
<use x="679.528877" y="556.848908" xlink:href="#a"/>
</g>
</g>
<g stroke="#2ca02c" stroke-opacity=".9">
<path d="m577 600 76.8 8.62 8.23-8.62 1.55 8.62 1.05-8.62h2.5 2.51 2.45 2.39 1.62 3.4" clip-path="url(#h)" fill="none" stroke-linecap="square" stroke-width="1.5"/>
<g clip-path="url(#h)" fill="#2ca02c" fill-opacity=".9">
<use x="577.06589" y="599.933811" xlink:href="#n"/>
<use x="653.842449" y="608.550792" xlink:href="#n"/>
<use x="662.069907" y="599.933811" xlink:href="#n"/>
<use x="663.616528" y="608.550792" xlink:href="#n"/>
<use x="664.66184" y="599.933811" xlink:href="#n"/>
<use x="667.161716" y="599.933811" xlink:href="#n"/>
<use x="669.668578" y="599.933811" xlink:href="#n"/>
<use x="672.114836" y="599.933811" xlink:href="#n"/>
<use x="674.507591" y="599.933811" xlink:href="#n"/>
<use x="676.131003" y="599.933811" xlink:href="#n"/>
<use x="679.528877" y="599.933811" xlink:href="#n"/>
</g>
</g>
<path d="m40.6 700v-313" fill="none" stroke="#000" stroke-linecap="square" stroke-width=".8"/>
<path d="m710 700v-313" fill="none" stroke="#000" stroke-linecap="square" stroke-width=".8"/>
<path d="m40.6 700h669" fill="none" stroke="#000" stroke-linecap="square" stroke-width=".8"/>
<path d="m40.6 388h669" fill="none" stroke="#000" stroke-linecap="square" stroke-width=".8"/>
<path d="m71.5 651-0.349 7.35" fill="none" stroke="#888" stroke-linecap="round"/>
<g transform="translate(74.1 647) rotate(-90) scale(.08 -.08)" fill="#888">
<use xlink:href="#y"/>
<use transform="translate(61.3)" xlink:href="#b"/>
</g>
<g clip-path="url(#h)">
<g transform="translate(58.2 652) rotate(-90) scale(.1 -.1)">
<use xlink:href="#x"/>
<use transform="translate(97.4)" xlink:href="#q"/>
<use transform="translate(159)" xlink:href="#p"/>
<use transform="translate(197)" xlink:href="#u"/>
<use transform="translate(259)" xlink:href="#DejaVuSans-20"/>
<use transform="translate(291)" xlink:href="#am"/>
</g>
</g>
<g clip-path="url(#h)">
<g transform="translate(58.2 707) rotate(-90) scale(.1 -.1)">
<use xlink:href="#an"/>
<use transform="translate(143)" xlink:href="#DejaVuSans-20"/>
<use transform="translate(175)" xlink:href="#t"/>
<use transform="translate(203)" xlink:href="#u"/>
<use transform="translate(264)" xlink:href="#o"/>
<use transform="translate(317)" xlink:href="#o"/>
</g>
</g>
<g transform="translate(293 382) scale(.12 -.12)">
<use xlink:href="#ak"/>
<use transform="translate(60.3)" xlink:href="#ad"/>
<use transform="translate(119)" xlink:href="#ae"/>
<use transform="translate(159)" xlink:href="#af"/>
<use transform="translate(222)" xlink:href="#q"/>
<use transform="translate(283)" xlink:href="#s"/>
<use transform="translate(347)" xlink:href="#DejaVuSans-20"/>
<use transform="translate(378)" xlink:href="#r"/>
<use transform="translate(442)" xlink:href="#g"/>
<use transform="translate(474)" xlink:href="#d"/>
<use transform="translate(537)" xlink:href="#m"/>
<use transform="translate(601)" xlink:href="#g"/>
<use transform="translate(633)" xlink:href="#w"/>
<use transform="translate(692)" xlink:href="#DejaVuSans-20"/>
<use transform="translate(724)" xlink:href="#z"/>
<use transform="translate(783)" xlink:href="#o"/>
<use transform="translate(835)" xlink:href="#g"/>
<use transform="translate(867)" xlink:href="#DejaVuSans-20"/>
<use transform="translate(899)" xlink:href="#r"/>
<use transform="translate(962)" xlink:href="#g"/>
<use transform="translate(994)" xlink:href="#d"/>
<use transform="translate(1058)" xlink:href="#r"/>
<use transform="translate(1121)" xlink:href="#g"/>
<use transform="translate(1153)" xlink:href="#b"/>
<use transform="translate(1217)" xlink:href="#p"/>
<use transform="translate(1256)" xlink:href="#ab"/>
<use transform="translate(1311)" xlink:href="#c"/>
</g>
<path d="m47.6 440h82.6q2 0 2-2v-43q0-2-2-2h-82.6q-2 0-2 2v43q0 2 2 2z" fill="#fff" opacity=".8" stroke="#ccc"/>
<path d="m49.6 401h10 10" fill="none" stroke="#1f77b4" stroke-linecap="square" stroke-opacity=".9" stroke-width="1.5"/>
<use x="59.645553" y="400.623678" fill="#1f77b4" fill-opacity=".9" stroke="#1f77b4" stroke-opacity=".9" xlink:href="#a"/>
<g transform="translate(77.6 404) scale(.1 -.1)">
<use xlink:href="#t"/>
<use transform="translate(27.8)" xlink:href="#aa"/>
<use transform="translate(55.6)" xlink:href="#s"/>
<use transform="translate(119)" xlink:href="#v"/>
<use transform="translate(182)" xlink:href="#w"/>
</g>
<path d="m49.6 415h10 10" fill="none" stroke="#1f77b4" stroke-dasharray="1.5,2.475" stroke-opacity=".9" stroke-width="1.5"/>
<use x="59.645553" y="415.301803" fill="#1f77b4" fill-opacity=".9" stroke="#1f77b4" stroke-opacity=".9" xlink:href="#a"/>
<g transform="translate(77.6 419) scale(.1 -.1)">
<use xlink:href="#t"/>
<use transform="translate(27.8)" xlink:href="#aa"/>
<use transform="translate(55.6)" xlink:href="#s"/>
<use transform="translate(119)" xlink:href="#v"/>
<use transform="translate(182)" xlink:href="#w"/>
<use transform="translate(242)" xlink:href="#e"/>
<use transform="translate(275)" xlink:href="#z"/>
<use transform="translate(334)" xlink:href="#v"/>
<use transform="translate(398)" xlink:href="#t"/>
<use transform="translate(425)" xlink:href="#ae"/>
<use transform="translate(465)" xlink:href="#p"/>
</g>
<path d="m49.6 430h10 10" fill="none" stroke="#2ca02c" stroke-linecap="square" stroke-opacity=".9" stroke-width="1.5"/>
<use x="59.645553" y="429.979928" fill="#2ca02c" fill-opacity=".9" stroke="#2ca02c" stroke-opacity=".9" xlink:href="#n"/>
<g transform="translate(77.6 433) scale(.1 -.1)">
<use xlink:href="#x"/>
<use transform="translate(97.4)" xlink:href="#y"/>
<use transform="translate(159)" xlink:href="#ab"/>
<use transform="translate(214)" xlink:href="#q"/>
<use transform="translate(275)" xlink:href="#o"/>
</g>
<g transform="translate(239 12.1) scale(.12 -.12)">
<defs>
<path id="ap" transform="scale(.0156)" d="m628 4666h941l1190-3175 1197 3175h941v-4666h-616v4097l-1203-3200h-634l-1203 3200v-4097h-613v4666z"/>
<path id="ai" transform="scale(.0156)" d="m2906 1791q0 625-258 968-257 344-723 344-462 0-720-344-258-343-258-968 0-622 258-966t720-344q466 0 723 344 258 344 258 966zm575-1357q0-893-397-1329-396-436-1215-436-303 0-572 45t-522 139v559q253-137 500-202 247-66 503-66 566 0 847 295t281 892v285q-178-310-456-463t-666-153q-643 0-1037 490-394 491-394 1301 0 812 394 1302 394 491 1037 491 388 0 666-153t456-462v531h575v-3066z"/>
<path id="ao" transform="scale(.0156)" d="m603 3500h575v-3563q0-668-255-968-254-300-820-300h-219v487h154q328 0 446 152 119 151 119 629v3563zm0 1363h575v-729h-575v729z"/>
</defs>
<use xlink:href="#ap"/>
<use transform="translate(86.3)" xlink:href="#u"/>
<use transform="translate(148)" xlink:href="#x"/>
<use transform="translate(245)" xlink:href="#q"/>
<use transform="translate(306)" xlink:href="#p"/>
<use transform="translate(348)" xlink:href="#ad"/>
<use transform="translate(407)" xlink:href="#DejaVuSans-20"/>
<use transform="translate(438)" xlink:href="#v"/>
<use transform="translate(502)" xlink:href="#o"/>
<use transform="translate(554)" xlink:href="#y"/>
<use transform="translate(615)" xlink:href="#ai"/>
<use transform="translate(679)" xlink:href="#u"/>
<use transform="translate(740)" xlink:href="#DejaVuSans-20"/>
<use transform="translate(772)" xlink:href="#ab"/>
<use transform="translate(827)" xlink:href="#af"/>
<use transform="translate(890)" xlink:href="#y"/>
<use transform="translate(952)" xlink:href="#s"/>
<use transform="translate(1015)" xlink:href="#ai"/>
<use transform="translate(1079)" xlink:href="#u"/>
<use transform="translate(1140)" xlink:href="#DejaVuSans-20"/>
<use transform="translate(1172)" xlink:href="#aj"/>
<use transform="translate(1235)" xlink:href="#ad"/>
<use transform="translate(1294)" xlink:href="#DejaVuSans-20"/>
<use transform="translate(1326)" xlink:href="#x"/>
<use transform="translate(1424)" xlink:href="#y"/>
<use transform="translate(1485)" xlink:href="#ao"/>
<use transform="translate(1513)" xlink:href="#q"/>
<use transform="translate(1574)" xlink:href="#p"/>
<use transform="translate(1615)" xlink:href="#DejaVuSans-20"/>
<use transform="translate(1647)" xlink:href="#z"/>
<use transform="translate(1706)" xlink:href="#u"/>
<use transform="translate(1768)" xlink:href="#p"/>
<use transform="translate(1809)" xlink:href="#o"/>
<use transform="translate(1861)" xlink:href="#aa"/>
<use transform="translate(1889)" xlink:href="#q"/>
<use transform="translate(1950)" xlink:href="#s"/>
</g>
<defs>
<clipPath id="f">
<rect x="40.6" y="35.7" width="669" height="313"/>
</clipPath>
<clipPath id="h">
<rect x="40.6" y="388" width="669" height="313"/>
</clipPath>
</defs>
</svg>
