<?xml version="1.0" encoding="UTF-8"?>
<!DOCTYPE svg  PUBLIC '-//W3C//DTD SVG 1.1//EN'  'http://www.w3.org/Graphics/SVG/1.1/DTD/svg11.dtd'>
<svg width="720pt" height="720pt" version="1.1" viewBox="0 0 720 720" xmlns="http://www.w3.org/2000/svg" xmlns:xlink="http://www.w3.org/1999/xlink">
<defs>
<style type="text/css">*{stroke-linejoin: round; stroke-linecap: butt}</style>
</defs>
<path d="m0 720h720v-720h-720z" fill="#fff"/>
<path d="m40.6 349h676v-313h-676z" fill="#fff"/>
<path d="m101 349v-313" clip-path="url(#g)" fill="none" stroke="#b0b0b0" stroke-linecap="square" stroke-width=".8"/>
<defs>
<path id="j" d="m0 0v3.5" stroke="#000" stroke-width=".8"/>
</defs>
<use x="100.952813" y="348.52899" stroke="#000000" stroke-width=".8" xlink:href="#j"/>
<g transform="translate(71.9 363) scale(.1 -.1)">
<defs>
<path id="d" transform="scale(.0156)" d="m1228 531h2203v-531h-2962v531q359 372 979 998 621 627 780 809 303 340 423 576 121 236 121 464 0 372-261 606-261 235-680 235-297 0-627-103-329-103-704-313v638q381 153 712 231 332 78 607 78 725 0 1156-363 431-362 431-968 0-288-108-546-107-257-392-607-78-91-497-524-418-433-1181-1211z"/>
<path id="b" transform="scale(.0156)" d="m2034 4250q-487 0-733-480-245-479-245-1442 0-959 245-1439 246-480 733-480 491 0 736 480 246 480 246 1439 0 963-246 1442-245 480-736 480zm0 500q785 0 1199-621 414-620 414-1801 0-1178-414-1799-414-620-1199-620-784 0-1198 620-414 621-414 1799 0 1181 414 1801 414 621 1198 621z"/>
<path id="n" transform="scale(.0156)" d="m2419 4116-1594-2491h1594v2491zm-166 550h794v-3041h666v-525h-666v-1100h-628v1100h-2106v609l1940 2957z"/>
<path id="f" transform="scale(.0156)" d="m313 2009h1684v-512h-1684v512z"/>
<path id="k" transform="scale(.0156)" d="m691 4666h2478v-532h-1900v-1143q137 47 274 70 138 23 276 23 781 0 1237-428 457-428 457-1159 0-753-469-1171-469-417-1322-417-294 0-599 50-304 50-629 150v635q281-153 581-228t634-75q541 0 856 284 316 284 316 772 0 487-316 771-315 285-856 285-253 0-505-56-251-56-513-175v2344z"/>
<path id="e" transform="scale(.0156)" d="m794 531h1031v3560l-1122-225v575l1116 225h631v-4135h1031v-531h-2687v531z"/>
</defs>
<use xlink:href="#d"/>
<use transform="translate(63.6)" xlink:href="#b"/>
<use transform="translate(127)" xlink:href="#d"/>
<use transform="translate(191)" xlink:href="#n"/>
<use transform="translate(254)" xlink:href="#f"/>
<use transform="translate(291)" xlink:href="#b"/>
<use transform="translate(354)" xlink:href="#k"/>
<use transform="translate(418)" xlink:href="#f"/>
<use transform="translate(454)" xlink:href="#e"/>
<use transform="translate(518)" xlink:href="#k"/>
</g>
<path d="m178 349v-313" clip-path="url(#g)" fill="none" stroke="#b0b0b0" stroke-linecap="square" stroke-width=".8"/>
<use x="177.952914" y="348.52899" stroke="#000000" stroke-width=".8" xlink:href="#j"/>
<g transform="translate(149 363) scale(.1 -.1)">
<defs>
<path id="ah" transform="scale(.0156)" d="m2113 2584q-425 0-674-291-248-290-248-796 0-503 248-796 249-292 674-292t673 292q248 293 248 796 0 506-248 796-248 291-673 291zm1253 1979v-575q-238 112-480 171-242 60-480 60-625 0-955-422-329-422-376-1275 184 272 462 417 279 145 613 145 703 0 1111-427 408-426 408-1160 0-719-425-1154-425-434-1131-434-810 0-1238 620-428 621-428 1799 0 1106 525 1764t1409 658q238 0 480-47t505-140z"/>
</defs>
<use xlink:href="#d"/>
<use transform="translate(63.6)" xlink:href="#b"/>
<use transform="translate(127)" xlink:href="#d"/>
<use transform="translate(191)" xlink:href="#n"/>
<use transform="translate(254)" xlink:href="#f"/>
<use transform="translate(291)" xlink:href="#b"/>
<use transform="translate(354)" xlink:href="#ah"/>
<use transform="translate(418)" xlink:href="#f"/>
<use transform="translate(454)" xlink:href="#b"/>
<use transform="translate(518)" xlink:href="#e"/>
</g>
<path d="m241 349v-313" clip-path="url(#g)" fill="none" stroke="#b0b0b0" stroke-linecap="square" stroke-width=".8"/>
<use x="241.364762" y="348.52899" stroke="#000000" stroke-width=".8" xlink:href="#j"/>
<g transform="translate(212 363) scale(.1 -.1)">
<use xlink:href="#d"/>
<use transform="translate(63.6)" xlink:href="#b"/>
<use transform="translate(127)" xlink:href="#d"/>
<use transform="translate(191)" xlink:href="#n"/>
<use transform="translate(254)" xlink:href="#f"/>
<use transform="translate(291)" xlink:href="#b"/>
<use transform="translate(354)" xlink:href="#ah"/>
<use transform="translate(418)" xlink:href="#f"/>
<use transform="translate(454)" xlink:href="#e"/>
<use transform="translate(518)" xlink:href="#k"/>
</g>
<path d="m314 349v-313" clip-path="url(#g)" fill="none" stroke="#b0b0b0" stroke-linecap="square" stroke-width=".8"/>
<use x="313.835446" y="348.52899" stroke="#000000" stroke-width=".8" xlink:href="#j"/>
<g transform="translate(285 363) scale(.1 -.1)">
<defs>
<path id="al" transform="scale(.0156)" d="m525 4666h3e3v-269l-1694-4397h-659l1594 4134h-2241v532z"/>
</defs>
<use xlink:href="#d"/>
<use transform="translate(63.6)" xlink:href="#b"/>
<use transform="translate(127)" xlink:href="#d"/>
<use transform="translate(191)" xlink:href="#n"/>
<use transform="translate(254)" xlink:href="#f"/>
<use transform="translate(291)" xlink:href="#b"/>
<use transform="translate(354)" xlink:href="#al"/>
<use transform="translate(418)" xlink:href="#f"/>
<use transform="translate(454)" xlink:href="#b"/>
<use transform="translate(518)" xlink:href="#e"/>
</g>
<path d="m377 349v-313" clip-path="url(#g)" fill="none" stroke="#b0b0b0" stroke-linecap="square" stroke-width=".8"/>
<use x="377.247294" y="348.52899" stroke="#000000" stroke-width=".8" xlink:href="#j"/>
<g transform="translate(348 363) scale(.1 -.1)">
<use xlink:href="#d"/>
<use transform="translate(63.6)" xlink:href="#b"/>
<use transform="translate(127)" xlink:href="#d"/>
<use transform="translate(191)" xlink:href="#n"/>
<use transform="translate(254)" xlink:href="#f"/>
<use transform="translate(291)" xlink:href="#b"/>
<use transform="translate(354)" xlink:href="#al"/>
<use transform="translate(418)" xlink:href="#f"/>
<use transform="translate(454)" xlink:href="#e"/>
<use transform="translate(518)" xlink:href="#k"/>
</g>
<path d="m454 349v-313" clip-path="url(#g)" fill="none" stroke="#b0b0b0" stroke-linecap="square" stroke-width=".8"/>
<use x="454.247396" y="348.52899" stroke="#000000" stroke-width=".8" xlink:href="#j"/>
<g transform="translate(425 363) scale(.1 -.1)">
<defs>
<path id="ag" transform="scale(.0156)" d="m2034 2216q-450 0-708-241-257-241-257-662 0-422 257-663 258-241 708-241t709 242q260 243 260 662 0 421-258 662-257 241-711 241zm-631 268q-406 100-633 378-226 279-226 679 0 559 398 884 399 325 1092 325 697 0 1094-325t397-884q0-400-227-679-226-278-629-378 456-106 710-416 255-309 255-755 0-679-414-1042-414-362-1186-362-771 0-1186 362-414 363-414 1042 0 446 256 755 257 310 713 416zm-231 997q0-362 226-565 227-203 636-203 407 0 636 203 230 203 230 565 0 363-230 566-229 203-636 203-409 0-636-203-226-203-226-566z"/>
</defs>
<use xlink:href="#d"/>
<use transform="translate(63.6)" xlink:href="#b"/>
<use transform="translate(127)" xlink:href="#d"/>
<use transform="translate(191)" xlink:href="#n"/>
<use transform="translate(254)" xlink:href="#f"/>
<use transform="translate(291)" xlink:href="#b"/>
<use transform="translate(354)" xlink:href="#ag"/>
<use transform="translate(418)" xlink:href="#f"/>
<use transform="translate(454)" xlink:href="#b"/>
<use transform="translate(518)" xlink:href="#e"/>
</g>
<path d="m518 349v-313" clip-path="url(#g)" fill="none" stroke="#b0b0b0" stroke-linecap="square" stroke-width=".8"/>
<use x="517.659244" y="348.52899" stroke="#000000" stroke-width=".8" xlink:href="#j"/>
<g transform="translate(489 363) scale(.1 -.1)">
<use xlink:href="#d"/>
<use transform="translate(63.6)" xlink:href="#b"/>
<use transform="translate(127)" xlink:href="#d"/>
<use transform="translate(191)" xlink:href="#n"/>
<use transform="translate(254)" xlink:href="#f"/>
<use transform="translate(291)" xlink:href="#b"/>
<use transform="translate(354)" xlink:href="#ag"/>
<use transform="translate(418)" xlink:href="#f"/>
<use transform="translate(454)" xlink:href="#e"/>
<use transform="translate(518)" xlink:href="#k"/>
</g>
<path d="m595 349v-313" clip-path="url(#g)" fill="none" stroke="#b0b0b0" stroke-linecap="square" stroke-width=".8"/>
<use x="594.659346" y="348.52899" stroke="#000000" stroke-width=".8" xlink:href="#j"/>
<g transform="translate(566 363) scale(.1 -.1)">
<defs>
<path id="ac" transform="scale(.0156)" d="m703 97v575q238-113 481-172 244-59 479-59 625 0 954 420 330 420 377 1277-181-269-460-413-278-144-615-144-700 0-1108 423-408 424-408 1159 0 718 425 1152 425 435 1131 435 810 0 1236-621 427-620 427-1801 0-1103-524-1761-523-658-1407-658-238 0-482 47-243 47-506 141zm1256 1978q425 0 673 290 249 291 249 798 0 503-249 795-248 292-673 292t-673-292-248-795q0-507 248-798 248-290 673-290z"/>
</defs>
<use xlink:href="#d"/>
<use transform="translate(63.6)" xlink:href="#b"/>
<use transform="translate(127)" xlink:href="#d"/>
<use transform="translate(191)" xlink:href="#n"/>
<use transform="translate(254)" xlink:href="#f"/>
<use transform="translate(291)" xlink:href="#b"/>
<use transform="translate(354)" xlink:href="#ac"/>
<use transform="translate(418)" xlink:href="#f"/>
<use transform="translate(454)" xlink:href="#b"/>
<use transform="translate(518)" xlink:href="#e"/>
</g>
<path d="m658 349v-313" clip-path="url(#g)" fill="none" stroke="#b0b0b0" stroke-linecap="square" stroke-width=".8"/>
<use x="658.071194" y="348.52899" stroke="#000000" stroke-width=".8" xlink:href="#j"/>
<g transform="translate(629 363) scale(.1 -.1)">
<use xlink:href="#d"/>
<use transform="translate(63.6)" xlink:href="#b"/>
<use transform="translate(127)" xlink:href="#d"/>
<use transform="translate(191)" xlink:href="#n"/>
<use transform="translate(254)" xlink:href="#f"/>
<use transform="translate(291)" xlink:href="#b"/>
<use transform="translate(354)" xlink:href="#ac"/>
<use transform="translate(418)" xlink:href="#f"/>
<use transform="translate(454)" xlink:href="#e"/>
<use transform="translate(518)" xlink:href="#k"/>
</g>
<path d="m40.6 349h676" clip-path="url(#g)" fill="none" stroke="#b0b0b0" stroke-linecap="square" stroke-width=".8"/>
<defs>
<path id="l" d="m0 0h-3.5" stroke="#000" stroke-width=".8"/>
</defs>
<use x="40.645553" y="348.52899" stroke="#000000" stroke-width=".8" xlink:href="#l"/>
<g transform="translate(3 352) scale(.1 -.1)">
<defs>
<path id="h" transform="scale(.0156)" d="m684 794h660v-794h-660v794z"/>
<path id="m" transform="scale(.0156)" d="m4488 3438-1429-1435 1429-1428-372-378-1435 1434-1434-1434-369 378 1425 1428-1425 1435 369 378 1434-1435 1435 1435 372-378z"/>
</defs>
<use xlink:href="#b"/>
<use transform="translate(63.6)" xlink:href="#h"/>
<use transform="translate(95.4)" xlink:href="#ac"/>
<use transform="translate(159)" xlink:href="#b"/>
<use transform="translate(223)" xlink:href="#m"/>
</g>
<path d="m40.6 309h676" clip-path="url(#g)" fill="none" stroke="#b0b0b0" stroke-linecap="square" stroke-width=".8"/>
<use x="40.645553" y="309.429441" stroke="#000000" stroke-width=".8" xlink:href="#l"/>
<g transform="translate(3 313) scale(.1 -.1)">
<use xlink:href="#b"/>
<use transform="translate(63.6)" xlink:href="#h"/>
<use transform="translate(95.4)" xlink:href="#ac"/>
<use transform="translate(159)" xlink:href="#k"/>
<use transform="translate(223)" xlink:href="#m"/>
</g>
<path d="m40.6 270h676" clip-path="url(#g)" fill="none" stroke="#b0b0b0" stroke-linecap="square" stroke-width=".8"/>
<use x="40.645553" y="270.329891" stroke="#000000" stroke-width=".8" xlink:href="#l"/>
<g transform="translate(3 274) scale(.1 -.1)">
<use xlink:href="#e"/>
<use transform="translate(63.6)" xlink:href="#h"/>
<use transform="translate(95.4)" xlink:href="#b"/>
<use transform="translate(159)" xlink:href="#b"/>
<use transform="translate(223)" xlink:href="#m"/>
</g>
<path d="m40.6 231h676" clip-path="url(#g)" fill="none" stroke="#b0b0b0" stroke-linecap="square" stroke-width=".8"/>
<use x="40.645553" y="231.230342" stroke="#000000" stroke-width=".8" xlink:href="#l"/>
<g transform="translate(3 235) scale(.1 -.1)">
<use xlink:href="#e"/>
<use transform="translate(63.6)" xlink:href="#h"/>
<use transform="translate(95.4)" xlink:href="#b"/>
<use transform="translate(159)" xlink:href="#k"/>
<use transform="translate(223)" xlink:href="#m"/>
</g>
<path d="m40.6 192h676" clip-path="url(#g)" fill="none" stroke="#b0b0b0" stroke-linecap="square" stroke-width=".8"/>
<use x="40.645553" y="192.130792" stroke="#000000" stroke-width=".8" xlink:href="#l"/>
<g transform="translate(3 196) scale(.1 -.1)">
<use xlink:href="#e"/>
<use transform="translate(63.6)" xlink:href="#h"/>
<use transform="translate(95.4)" xlink:href="#e"/>
<use transform="translate(159)" xlink:href="#b"/>
<use transform="translate(223)" xlink:href="#m"/>
</g>
<path d="m40.6 153h676" clip-path="url(#g)" fill="none" stroke="#b0b0b0" stroke-linecap="square" stroke-width=".8"/>
<use x="40.645553" y="153.031243" stroke="#000000" stroke-width=".8" xlink:href="#l"/>
<g transform="translate(3 157) scale(.1 -.1)">
<use xlink:href="#e"/>
<use transform="translate(63.6)" xlink:href="#h"/>
<use transform="translate(95.4)" xlink:href="#e"/>
<use transform="translate(159)" xlink:href="#k"/>
<use transform="translate(223)" xlink:href="#m"/>
</g>
<path d="m40.6 114h676" clip-path="url(#g)" fill="none" stroke="#b0b0b0" stroke-linecap="square" stroke-width=".8"/>
<use x="40.645553" y="113.931694" stroke="#000000" stroke-width=".8" xlink:href="#l"/>
<g transform="translate(3 118) scale(.1 -.1)">
<use xlink:href="#e"/>
<use transform="translate(63.6)" xlink:href="#h"/>
<use transform="translate(95.4)" xlink:href="#d"/>
<use transform="translate(159)" xlink:href="#b"/>
<use transform="translate(223)" xlink:href="#m"/>
</g>
<path d="m40.6 74.8h676" clip-path="url(#g)" fill="none" stroke="#b0b0b0" stroke-linecap="square" stroke-width=".8"/>
<use x="40.645553" y="74.832144" stroke="#000000" stroke-width=".8" xlink:href="#l"/>
<g transform="translate(3 78.6) scale(.1 -.1)">
<use xlink:href="#e"/>
<use transform="translate(63.6)" xlink:href="#h"/>
<use transform="translate(95.4)" xlink:href="#d"/>
<use transform="translate(159)" xlink:href="#k"/>
<use transform="translate(223)" xlink:href="#m"/>
</g>
<path d="m40.6 35.7h676" clip-path="url(#g)" fill="none" stroke="#b0b0b0" stroke-linecap="square" stroke-width=".8"/>
<use x="40.645553" y="35.732595" stroke="#000000" stroke-width=".8" xlink:href="#l"/>
<g transform="translate(3 39.5) scale(.1 -.1)">
<defs>
<path id="r" transform="scale(.0156)" d="m2597 2516q453-97 707-404 255-306 255-756 0-690-475-1069-475-378-1350-378-293 0-604 58t-642 174v609q262-153 574-231 313-78 654-78 593 0 904 234t311 681q0 413-289 645-289 233-804 233h-544v519h569q465 0 712 186t247 536q0 359-255 551-254 193-729 193-260 0-557-57-297-56-653-174v562q360 100 674 150t592 50q719 0 1137-327 419-326 419-882 0-388-222-655t-631-370z"/>
</defs>
<use xlink:href="#e"/>
<use transform="translate(63.6)" xlink:href="#h"/>
<use transform="translate(95.4)" xlink:href="#r"/>
<use transform="translate(159)" xlink:href="#b"/>
<use transform="translate(223)" xlink:href="#m"/>
</g>
<path d="m71.4 270 446-7.82h104" clip-path="url(#g)" fill="none" stroke="#1f77b4" stroke-linecap="square" stroke-opacity=".9" stroke-width="1.5"/>
<defs>
<path id="a" d="m-2.5 2.5h5v-5h-5z" stroke="#1f77b4" stroke-opacity=".9"/>
</defs>
<g clip-path="url(#g)" fill="#1f77b4" fill-opacity=".9" stroke="#1f77b4" stroke-opacity=".9">
<use x="71.388926" y="270.329891" xlink:href="#a"/>
<use x="517.569023" y="262.509981" xlink:href="#a"/>
<use x="621.695409" y="262.509981" xlink:href="#a"/>
</g>
<g stroke="#1f77b4" stroke-opacity=".9">
<path d="m622 255h64.6" clip-path="url(#g)" fill="none" stroke-dasharray="1.5,2.475" stroke-width="1.5"/>
<g clip-path="url(#g)" fill="#1f77b4" fill-opacity=".9">
<use x="621.695409" y="254.690071" xlink:href="#a"/>
<use x="686.256387" y="254.690071" xlink:href="#a"/>
</g>
</g>
<path d="m622 223" clip-path="url(#g)" fill="none" stroke="#2ca02c" stroke-linecap="square" stroke-opacity=".9" stroke-width="1.5"/>
<defs>
<path id="c" d="m0-2.5-2.5 5h5z" stroke="#2ca02c" stroke-opacity=".9"/>
</defs>
<g clip-path="url(#g)">
<use x="621.695409" y="223.410432" fill="#2ca02c" fill-opacity=".9" stroke="#2ca02c" stroke-opacity=".9" xlink:href="#c"/>
</g>
<path d="m40.6 349v-313" fill="none" stroke="#000" stroke-linecap="square" stroke-width=".8"/>
<path d="m717 349v-313" fill="none" stroke="#000" stroke-linecap="square" stroke-width=".8"/>
<path d="m40.6 349h676" fill="none" stroke="#000" stroke-linecap="square" stroke-width=".8"/>
<path d="m40.6 35.7h676" fill="none" stroke="#000" stroke-linecap="square" stroke-width=".8"/>
<path d="m71.8 261-0.348 7.35" fill="none" stroke="#888" stroke-linecap="round"/>
<g transform="translate(74.5 257) rotate(-90) scale(.08 -.08)" fill="#888">
<defs>
<path id="aj" transform="scale(.0156)" d="m3116 1747q0 634-261 995t-717 361q-457 0-718-361t-261-995 261-995 718-361q456 0 717 361t261 995zm-1957 1222q182 312 458 463 277 152 661 152 638 0 1036-506 399-506 399-1331t-399-1332q-398-506-1036-506-384 0-661 152-276 152-458 464v-525h-578v4863h578v-1894z"/>
</defs>
<use xlink:href="#aj"/>
<use transform="translate(63.5)" xlink:href="#e"/>
</g>
<path d="m622 253-0.326 7.34" fill="none" stroke="#888" stroke-linecap="round"/>
<g transform="translate(625 249) rotate(-90) scale(.08 -.08)" fill="#888">
<defs>
<path id="p" transform="scale(.0156)" d="m2631 2963q-97 56-211 82-114 27-251 27-488 0-749-317t-261-911v-1844h-578v3500h578v-544q182 319 472 473 291 155 707 155 59 0 131-8 72-7 159-23l3-590z"/>
<path id="ab" transform="scale(.0156)" d="m3122 3366v-538q-244 135-489 202t-495 67q-560 0-870-355-309-354-309-995t309-996q310-354 870-354 250 0 495 67t489 202v-532q-241-112-499-168-257-57-548-57-791 0-1257 497-465 497-465 1341 0 856 470 1346 471 491 1290 491 265 0 518-55 253-54 491-163z"/>
</defs>
<use xlink:href="#p"/>
<use transform="translate(38.9)" xlink:href="#ab"/>
<use transform="translate(93.8)" xlink:href="#d"/>
</g>
<g clip-path="url(#g)">
<g transform="translate(58.2 262) rotate(-90) scale(.1 -.1)">
<defs>
<path id="x" transform="scale(.0156)" d="m3328 2828q216 388 516 572t706 184q547 0 844-383 297-382 297-1088v-2113h-578v2094q0 503-179 746-178 244-543 244-447 0-707-297-259-296-259-809v-1978h-578v2094q0 506-178 748t-550 242q-441 0-701-298-259-298-259-808v-1978h-578v3500h578v-544q197 322 472 475t653 153q382 0 649-194 267-193 395-562z"/>
<path id="q" transform="scale(.0156)" d="m1959 3097q-462 0-731-361t-269-989 267-989q268-361 733-361 460 0 728 362 269 363 269 988 0 622-269 986-268 364-728 364zm0 487q750 0 1178-488 429-487 429-1349 0-859-429-1349-428-489-1178-489-753 0-1180 489-426 490-426 1349 0 862 426 1349 427 488 1180 488z"/>
<path id="u" transform="scale(.0156)" d="m3597 1894v-281h-2644q38-594 358-905t892-311q331 0 642 81t618 244v-544q-310-131-635-200t-659-69q-838 0-1327 487-489 488-489 1320 0 859 464 1363 464 505 1252 505 706 0 1117-455 411-454 411-1235zm-575 169q-6 471-264 752-258 282-683 282-481 0-770-272t-333-766l2050 4z"/>
<path id="am" transform="scale(.0156)" d="m8863 2147v-281l-1229-1228-375 375 729 728h-7622v531h7622l-729 728 375 375 1229-1228z"/>
</defs>
<use xlink:href="#x"/>
<use transform="translate(97.4)" xlink:href="#q"/>
<use transform="translate(159)" xlink:href="#p"/>
<use transform="translate(197)" xlink:href="#u"/>
<use transform="translate(259)" xlink:href="#DejaVuSans-20"/>
<use transform="translate(291)" xlink:href="#am"/>
</g>
</g>
<g clip-path="url(#g)">
<g transform="translate(58.2 317) rotate(-90) scale(.1 -.1)">
<defs>
<path id="an" transform="scale(.0156)" d="m313 1866v281l1228 1228 375-375-728-728h7621v-531h-7621l728-728-375-375-1228 1228z"/>
<path id="t" transform="scale(.0156)" d="m603 4863h575v-4863h-575v4863z"/>
<path id="o" transform="scale(.0156)" d="m2834 3397v-544q-243 125-506 187-262 63-544 63-428 0-642-131t-214-394q0-200 153-314t616-217l197-44q612-131 870-370t258-667q0-488-386-773-386-284-1061-284-281 0-586 55t-642 164v594q319-166 628-249 309-82 613-82 406 0 624 139 219 139 219 392 0 234-158 359-157 125-692 241l-200 47q-534 112-772 345-237 233-237 639 0 494 350 762 350 269 994 269 318 0 599-47 282-46 519-140z"/>
</defs>
<use xlink:href="#an"/>
<use transform="translate(143)" xlink:href="#DejaVuSans-20"/>
<use transform="translate(175)" xlink:href="#t"/>
<use transform="translate(203)" xlink:href="#u"/>
<use transform="translate(264)" xlink:href="#o"/>
<use transform="translate(317)" xlink:href="#o"/>
</g>
</g>
<g transform="translate(306 29.7) scale(.12 -.12)">
<defs>
<path id="ak" transform="scale(.0156)" d="m1259 4147v-1753h794q441 0 681 228 241 228 241 650 0 419-241 647-240 228-681 228h-794zm-631 519h1425q785 0 1186-355 402-355 402-1039 0-691-402-1044-401-353-1186-353h-794v-1875h-631v4666z"/>
<path id="ad" transform="scale(.0156)" d="m2059-325q-243-625-475-815-231-191-618-191h-460v481h338q237 0 368 113 132 112 291 531l103 262-1415 3444h609l1094-2737 1094 2737h609l-1538-3825z"/>
<path id="ae" transform="scale(.0156)" d="m1172 4494v-994h1184v-447h-1184v-1900q0-428 117-550t477-122h590v-481h-590q-666 0-919 248-253 249-253 905v1900h-422v447h422v994h578z"/>
<path id="af" transform="scale(.0156)" d="m3513 2113v-2113h-575v2094q0 497-194 743-194 247-581 247-466 0-735-297-269-296-269-809v-1978h-578v4863h578v-1907q207 316 486 472 280 156 646 156 603 0 912-373 310-373 310-1098z"/>
<path id="s" transform="scale(.0156)" d="m3513 2113v-2113h-575v2094q0 497-194 743-194 247-581 247-466 0-735-297-269-296-269-809v-1978h-578v3500h578v-544q207 316 486 472 280 156 646 156 603 0 912-373 310-373 310-1098z"/>
<path id="w" transform="scale(.0156)" d="m3513 3500-1266-1703 1331-1797h-678l-1019 1375-1018-1375h-679l1360 1831-1244 1669h678l928-1247 928 1247h679z"/>
<path id="z" transform="scale(.0156)" d="m191 3500h609l1094-2937 1094 2937h609l-1313-3500h-781l-1312 3500z"/>
</defs>
<use xlink:href="#ak"/>
<use transform="translate(60.3)" xlink:href="#ad"/>
<use transform="translate(119)" xlink:href="#ae"/>
<use transform="translate(159)" xlink:href="#af"/>
<use transform="translate(222)" xlink:href="#q"/>
<use transform="translate(283)" xlink:href="#s"/>
<use transform="translate(347)" xlink:href="#DejaVuSans-20"/>
<use transform="translate(378)" xlink:href="#r"/>
<use transform="translate(442)" xlink:href="#h"/>
<use transform="translate(474)" xlink:href="#e"/>
<use transform="translate(537)" xlink:href="#r"/>
<use transform="translate(601)" xlink:href="#h"/>
<use transform="translate(633)" xlink:href="#w"/>
<use transform="translate(692)" xlink:href="#DejaVuSans-20"/>
<use transform="translate(724)" xlink:href="#z"/>
<use transform="translate(783)" xlink:href="#o"/>
<use transform="translate(835)" xlink:href="#h"/>
<use transform="translate(867)" xlink:href="#DejaVuSans-20"/>
<use transform="translate(899)" xlink:href="#r"/>
<use transform="translate(962)" xlink:href="#h"/>
<use transform="translate(994)" xlink:href="#e"/>
<use transform="translate(1058)" xlink:href="#d"/>
<use transform="translate(1121)" xlink:href="#h"/>
<use transform="translate(1153)" xlink:href="#ah"/>
</g>
<path d="m47.6 87.8h82.6q2 0 2-2v-43q0-2-2-2h-82.6q-2 0-2 2v43q0 2 2 2z" fill="#fff" opacity=".8" stroke="#ccc"/>
<path d="m49.6 48.8h10 10" fill="none" stroke="#1f77b4" stroke-linecap="square" stroke-opacity=".9" stroke-width="1.5"/>
<use x="59.645553" y="48.831032" fill="#1f77b4" fill-opacity=".9" stroke="#1f77b4" stroke-opacity=".9" xlink:href="#a"/>
<g transform="translate(77.6 52.3) scale(.1 -.1)">
<defs>
<path id="aa" transform="scale(.0156)" d="m603 3500h575v-3500h-575v3500zm0 1363h575v-729h-575v729z"/>
<path id="v" transform="scale(.0156)" d="m544 1381v2119h575v-2097q0-497 193-746 194-248 582-248 465 0 735 297 271 297 271 810v1984h575v-3500h-575v538q-209-319-486-474-276-155-642-155-603 0-916 375-312 375-312 1097zm1447 2203z"/>
</defs>
<use xlink:href="#t"/>
<use transform="translate(27.8)" xlink:href="#aa"/>
<use transform="translate(55.6)" xlink:href="#s"/>
<use transform="translate(119)" xlink:href="#v"/>
<use transform="translate(182)" xlink:href="#w"/>
</g>
<path d="m49.6 63.5h10 10" fill="none" stroke="#1f77b4" stroke-dasharray="1.5,2.475" stroke-opacity=".9" stroke-width="1.5"/>
<use x="59.645553" y="63.509157" fill="#1f77b4" fill-opacity=".9" stroke="#1f77b4" stroke-opacity=".9" xlink:href="#a"/>
<g transform="translate(77.6 67) scale(.1 -.1)">
<use xlink:href="#t"/>
<use transform="translate(27.8)" xlink:href="#aa"/>
<use transform="translate(55.6)" xlink:href="#s"/>
<use transform="translate(119)" xlink:href="#v"/>
<use transform="translate(182)" xlink:href="#w"/>
<use transform="translate(242)" xlink:href="#f"/>
<use transform="translate(275)" xlink:href="#z"/>
<use transform="translate(334)" xlink:href="#v"/>
<use transform="translate(398)" xlink:href="#t"/>
<use transform="translate(425)" xlink:href="#ae"/>
<use transform="translate(465)" xlink:href="#p"/>
</g>
<path d="m49.6 78.2h10 10" fill="none" stroke="#2ca02c" stroke-linecap="square" stroke-opacity=".9" stroke-width="1.5"/>
<use x="59.645553" y="78.187282" fill="#2ca02c" fill-opacity=".9" stroke="#2ca02c" stroke-opacity=".9" xlink:href="#c"/>
<g transform="translate(77.6 81.7) scale(.1 -.1)">
<defs>
<path id="y" transform="scale(.0156)" d="m2194 1759q-697 0-966-159t-269-544q0-306 202-486 202-179 548-179 479 0 768 339t289 901v128h-572zm1147 238v-2e3h-575v531q-197-318-491-470t-719-152q-537 0-855 302-317 302-317 808 0 590 395 890 396 300 1180 300h807v57q0 397-261 614t-733 217q-300 0-585-72-284-72-546-216v532q315 122 612 182 297 61 578 61 760 0 1135-394 375-393 375-1193z"/>
</defs>
<use xlink:href="#x"/>
<use transform="translate(97.4)" xlink:href="#y"/>
<use transform="translate(159)" xlink:href="#ab"/>
<use transform="translate(214)" xlink:href="#q"/>
<use transform="translate(275)" xlink:href="#o"/>
</g>
<path d="m40.6 700h676v-313h-676z" fill="#fff"/>
<path d="m90 700v-313" clip-path="url(#i)" fill="none" stroke="#b0b0b0" stroke-linecap="square" stroke-width=".8"/>
<use x="90.031223" y="700.321635" stroke="#000000" stroke-width=".8" xlink:href="#j"/>
<g transform="translate(69.1 715) scale(.1 -.1)">
<use xlink:href="#d"/>
<use transform="translate(63.6)" xlink:href="#b"/>
<use transform="translate(127)" xlink:href="#d"/>
<use transform="translate(191)" xlink:href="#n"/>
<use transform="translate(254)" xlink:href="#f"/>
<use transform="translate(291)" xlink:href="#b"/>
<use transform="translate(354)" xlink:href="#ag"/>
</g>
<path d="m157 700v-313" clip-path="url(#i)" fill="none" stroke="#b0b0b0" stroke-linecap="square" stroke-width=".8"/>
<use x="157.15468" y="700.321635" stroke="#000000" stroke-width=".8" xlink:href="#j"/>
<g transform="translate(136 715) scale(.1 -.1)">
<use xlink:href="#d"/>
<use transform="translate(63.6)" xlink:href="#b"/>
<use transform="translate(127)" xlink:href="#d"/>
<use transform="translate(191)" xlink:href="#n"/>
<use transform="translate(254)" xlink:href="#f"/>
<use transform="translate(291)" xlink:href="#b"/>
<use transform="translate(354)" xlink:href="#ac"/>
</g>
<path d="m222 700v-313" clip-path="url(#i)" fill="none" stroke="#b0b0b0" stroke-linecap="square" stroke-width=".8"/>
<use x="222.112865" y="700.321635" stroke="#000000" stroke-width=".8" xlink:href="#j"/>
<g transform="translate(201 715) scale(.1 -.1)">
<use xlink:href="#d"/>
<use transform="translate(63.6)" xlink:href="#b"/>
<use transform="translate(127)" xlink:href="#d"/>
<use transform="translate(191)" xlink:href="#n"/>
<use transform="translate(254)" xlink:href="#f"/>
<use transform="translate(291)" xlink:href="#e"/>
<use transform="translate(354)" xlink:href="#b"/>
</g>
<path d="m289 700v-313" clip-path="url(#i)" fill="none" stroke="#b0b0b0" stroke-linecap="square" stroke-width=".8"/>
<use x="289.236323" y="700.321635" stroke="#000000" stroke-width=".8" xlink:href="#j"/>
<g transform="translate(268 715) scale(.1 -.1)">
<use xlink:href="#d"/>
<use transform="translate(63.6)" xlink:href="#b"/>
<use transform="translate(127)" xlink:href="#d"/>
<use transform="translate(191)" xlink:href="#n"/>
<use transform="translate(254)" xlink:href="#f"/>
<use transform="translate(291)" xlink:href="#e"/>
<use transform="translate(354)" xlink:href="#e"/>
</g>
<path d="m354 700v-313" clip-path="url(#i)" fill="none" stroke="#b0b0b0" stroke-linecap="square" stroke-width=".8"/>
<use x="354.194507" y="700.321635" stroke="#000000" stroke-width=".8" xlink:href="#j"/>
<g transform="translate(333 715) scale(.1 -.1)">
<use xlink:href="#d"/>
<use transform="translate(63.6)" xlink:href="#b"/>
<use transform="translate(127)" xlink:href="#d"/>
<use transform="translate(191)" xlink:href="#n"/>
<use transform="translate(254)" xlink:href="#f"/>
<use transform="translate(291)" xlink:href="#e"/>
<use transform="translate(354)" xlink:href="#d"/>
</g>
<path d="m421 700v-313" clip-path="url(#i)" fill="none" stroke="#b0b0b0" stroke-linecap="square" stroke-width=".8"/>
<use x="421.317965" y="700.321635" stroke="#000000" stroke-width=".8" xlink:href="#j"/>
<g transform="translate(400 715) scale(.1 -.1)">
<use xlink:href="#d"/>
<use transform="translate(63.6)" xlink:href="#b"/>
<use transform="translate(127)" xlink:href="#d"/>
<use transform="translate(191)" xlink:href="#k"/>
<use transform="translate(254)" xlink:href="#f"/>
<use transform="translate(291)" xlink:href="#b"/>
<use transform="translate(354)" xlink:href="#e"/>
</g>
<path d="m488 700v-313" clip-path="url(#i)" fill="none" stroke="#b0b0b0" stroke-linecap="square" stroke-width=".8"/>
<use x="488.441422" y="700.321635" stroke="#000000" stroke-width=".8" xlink:href="#j"/>
<g transform="translate(468 715) scale(.1 -.1)">
<use xlink:href="#d"/>
<use transform="translate(63.6)" xlink:href="#b"/>
<use transform="translate(127)" xlink:href="#d"/>
<use transform="translate(191)" xlink:href="#k"/>
<use transform="translate(254)" xlink:href="#f"/>
<use transform="translate(291)" xlink:href="#b"/>
<use transform="translate(354)" xlink:href="#d"/>
</g>
<path d="m549 700v-313" clip-path="url(#i)" fill="none" stroke="#b0b0b0" stroke-linecap="square" stroke-width=".8"/>
<use x="549.069061" y="700.321635" stroke="#000000" stroke-width=".8" xlink:href="#j"/>
<g transform="translate(528 715) scale(.1 -.1)">
<use xlink:href="#d"/>
<use transform="translate(63.6)" xlink:href="#b"/>
<use transform="translate(127)" xlink:href="#d"/>
<use transform="translate(191)" xlink:href="#k"/>
<use transform="translate(254)" xlink:href="#f"/>
<use transform="translate(291)" xlink:href="#b"/>
<use transform="translate(354)" xlink:href="#r"/>
</g>
<path d="m616 700v-313" clip-path="url(#i)" fill="none" stroke="#b0b0b0" stroke-linecap="square" stroke-width=".8"/>
<use x="616.192519" y="700.321635" stroke="#000000" stroke-width=".8" xlink:href="#j"/>
<g transform="translate(595 715) scale(.1 -.1)">
<use xlink:href="#d"/>
<use transform="translate(63.6)" xlink:href="#b"/>
<use transform="translate(127)" xlink:href="#d"/>
<use transform="translate(191)" xlink:href="#k"/>
<use transform="translate(254)" xlink:href="#f"/>
<use transform="translate(291)" xlink:href="#b"/>
<use transform="translate(354)" xlink:href="#n"/>
</g>
<path d="m681 700v-313" clip-path="url(#i)" fill="none" stroke="#b0b0b0" stroke-linecap="square" stroke-width=".8"/>
<use x="681.150704" y="700.321635" stroke="#000000" stroke-width=".8" xlink:href="#j"/>
<g transform="translate(660 715) scale(.1 -.1)">
<use xlink:href="#d"/>
<use transform="translate(63.6)" xlink:href="#b"/>
<use transform="translate(127)" xlink:href="#d"/>
<use transform="translate(191)" xlink:href="#k"/>
<use transform="translate(254)" xlink:href="#f"/>
<use transform="translate(291)" xlink:href="#b"/>
<use transform="translate(354)" xlink:href="#k"/>
</g>
<path d="m40.6 660h676" clip-path="url(#i)" fill="none" stroke="#b0b0b0" stroke-linecap="square" stroke-width=".8"/>
<use x="40.645553" y="660.252675" stroke="#000000" stroke-width=".8" xlink:href="#l"/>
<g transform="translate(3 664) scale(.1 -.1)">
<use xlink:href="#e"/>
<use transform="translate(63.6)" xlink:href="#h"/>
<use transform="translate(95.4)" xlink:href="#b"/>
<use transform="translate(159)" xlink:href="#b"/>
<use transform="translate(223)" xlink:href="#m"/>
</g>
<path d="m40.6 617h676" clip-path="url(#i)" fill="none" stroke="#b0b0b0" stroke-linecap="square" stroke-width=".8"/>
<use x="40.645553" y="617.167772" stroke="#000000" stroke-width=".8" xlink:href="#l"/>
<g transform="translate(3 621) scale(.1 -.1)">
<use xlink:href="#e"/>
<use transform="translate(63.6)" xlink:href="#h"/>
<use transform="translate(95.4)" xlink:href="#b"/>
<use transform="translate(159)" xlink:href="#k"/>
<use transform="translate(223)" xlink:href="#m"/>
</g>
<path d="m40.6 574h676" clip-path="url(#i)" fill="none" stroke="#b0b0b0" stroke-linecap="square" stroke-width=".8"/>
<use x="40.645553" y="574.08287" stroke="#000000" stroke-width=".8" xlink:href="#l"/>
<g transform="translate(3 578) scale(.1 -.1)">
<use xlink:href="#e"/>
<use transform="translate(63.6)" xlink:href="#h"/>
<use transform="translate(95.4)" xlink:href="#e"/>
<use transform="translate(159)" xlink:href="#b"/>
<use transform="translate(223)" xlink:href="#m"/>
</g>
<path d="m40.6 531h676" clip-path="url(#i)" fill="none" stroke="#b0b0b0" stroke-linecap="square" stroke-width=".8"/>
<use x="40.645553" y="530.997967" stroke="#000000" stroke-width=".8" xlink:href="#l"/>
<g transform="translate(3 535) scale(.1 -.1)">
<use xlink:href="#e"/>
<use transform="translate(63.6)" xlink:href="#h"/>
<use transform="translate(95.4)" xlink:href="#e"/>
<use transform="translate(159)" xlink:href="#k"/>
<use transform="translate(223)" xlink:href="#m"/>
</g>
<path d="m40.6 488h676" clip-path="url(#i)" fill="none" stroke="#b0b0b0" stroke-linecap="square" stroke-width=".8"/>
<use x="40.645553" y="487.913064" stroke="#000000" stroke-width=".8" xlink:href="#l"/>
<g transform="translate(3 492) scale(.1 -.1)">
<use xlink:href="#e"/>
<use transform="translate(63.6)" xlink:href="#h"/>
<use transform="translate(95.4)" xlink:href="#d"/>
<use transform="translate(159)" xlink:href="#b"/>
<use transform="translate(223)" xlink:href="#m"/>
</g>
<path d="m40.6 445h676" clip-path="url(#i)" fill="none" stroke="#b0b0b0" stroke-linecap="square" stroke-width=".8"/>
<use x="40.645553" y="444.828161" stroke="#000000" stroke-width=".8" xlink:href="#l"/>
<g transform="translate(3 449) scale(.1 -.1)">
<use xlink:href="#e"/>
<use transform="translate(63.6)" xlink:href="#h"/>
<use transform="translate(95.4)" xlink:href="#d"/>
<use transform="translate(159)" xlink:href="#k"/>
<use transform="translate(223)" xlink:href="#m"/>
</g>
<path d="m40.6 402h676" clip-path="url(#i)" fill="none" stroke="#b0b0b0" stroke-linecap="square" stroke-width=".8"/>
<use x="40.645553" y="401.743258" stroke="#000000" stroke-width=".8" xlink:href="#l"/>
<g transform="translate(3 406) scale(.1 -.1)">
<use xlink:href="#e"/>
<use transform="translate(63.6)" xlink:href="#h"/>
<use transform="translate(95.4)" xlink:href="#r"/>
<use transform="translate(159)" xlink:href="#b"/>
<use transform="translate(223)" xlink:href="#m"/>
</g>
<g stroke="#1f77b4" stroke-opacity=".9">
<path d="m71.4 660 10.3-8.62h15.5l8.53 8.62h6.57l10.7-8.62h47.1l0.481 8.62 2.1-8.62 15.1 8.62h12.6l12.2-8.62m5.87 8.62 3.93 8.62 0.0901 8.62 45.8-25.9h58.6l2.21 8.62 1.91-8.62h2.31l2.32-94.8h28.1l1.92-8.62h8.38l2.67 8.62h16.5l2.89-8.62h25.8l2.24 8.62 1.88-8.62h11.1l2.34 8.62h4.46l1.66-8.62h2.5l1.61 8.62h2.96l1.75-8.62h6.55l2.36 8.62 2.15-8.62h2.13l0.171 8.62 2.07-8.62h2.1l2.08-146 1.79 146h9.18l2.02 8.62 1.74-8.62h2.09l2.12 8.62 0.636-8.62h84.4l2.01-8.62h4.39l2.21 8.62 1.35-8.62h0.911l2.18-8.62h7.82l2.96 8.62 2.2-8.62h2.08l1.85-8.62h11.3l2.16 8.62 1.87 8.62 2.35-8.62 2.19 8.62h6.5l2.19-8.62h19.4l1.78-8.62 2.63 8.62 2.14-8.62 2.21 8.62 13 17.2h8.68v0" clip-path="url(#i)" fill="none" stroke-linecap="square" stroke-width="1.5"/>
<g clip-path="url(#i)" fill="#1f77b4" fill-opacity=".9">
<use x="71.388926" y="660.252675" xlink:href="#a"/>
<use x="81.691364" y="651.635695" xlink:href="#a"/>
<use x="97.152239" y="651.635695" xlink:href="#a"/>
<use x="105.670733" y="660.252675" xlink:href="#a"/>
<use x="105.684592" y="660.252675" xlink:href="#a"/>
<use x="105.890719" y="660.252675" xlink:href="#a"/>
<use x="112.257272" y="660.252675" xlink:href="#a"/>
<use x="122.845156" y="651.635695" xlink:href="#a"/>
<use x="122.919437" y="651.635695" xlink:href="#a"/>
<use x="127.379322" y="651.635695" xlink:href="#a"/>
<use x="142.621063" y="651.635695" xlink:href="#a"/>
<use x="157.811906" y="651.635695" xlink:href="#a"/>
<use x="170.044244" y="651.635695" xlink:href="#a"/>
<use x="170.068553" y="651.635695" xlink:href="#a"/>
<use x="170.550025" y="660.252675" xlink:href="#a"/>
<use x="172.652821" y="651.635695" xlink:href="#a"/>
<use x="187.784144" y="660.252675" xlink:href="#a"/>
<use x="200.336561" y="660.252675" xlink:href="#a"/>
<use x="212.566543" y="651.635695" xlink:href="#a"/>
<use x="218.43749" y="660.252675" xlink:href="#a"/>
<use x="222.36964" y="668.869656" xlink:href="#a"/>
<use x="222.459735" y="677.486636" xlink:href="#a"/>
<use x="268.271545" y="651.635695" xlink:href="#a"/>
<use x="270.263671" y="651.635695" xlink:href="#a"/>
<use x="298.420914" y="651.635695" xlink:href="#a"/>
<use x="300.865492" y="651.635695" xlink:href="#a"/>
<use x="302.910271" y="651.635695" xlink:href="#a"/>
<use x="305.119777" y="651.635695" xlink:href="#a"/>
<use x="306.720675" y="651.635695" xlink:href="#a"/>
<use x="309.447841" y="651.635695" xlink:href="#a"/>
<use x="311.497934" y="651.635695" xlink:href="#a"/>
<use x="313.883844" y="651.635695" xlink:href="#a"/>
<use x="315.796501" y="651.635695" xlink:href="#a"/>
<use x="318.174492" y="651.635695" xlink:href="#a"/>
<use x="320.396453" y="651.635695" xlink:href="#a"/>
<use x="322.450831" y="651.635695" xlink:href="#a"/>
<use x="324.703817" y="651.635695" xlink:href="#a"/>
<use x="326.833403" y="651.635695" xlink:href="#a"/>
<use x="329.040052" y="660.252675" xlink:href="#a"/>
<use x="330.947146" y="651.635695" xlink:href="#a"/>
<use x="333.255718" y="651.635695" xlink:href="#a"/>
<use x="335.573437" y="556.848908" xlink:href="#a"/>
<use x="337.688587" y="556.848908" xlink:href="#a"/>
<use x="339.640591" y="556.848908" xlink:href="#a"/>
<use x="341.898815" y="556.848908" xlink:href="#a"/>
<use x="343.960611" y="556.848908" xlink:href="#a"/>
<use x="346.144053" y="556.848908" xlink:href="#a"/>
<use x="348.469917" y="556.848908" xlink:href="#a"/>
<use x="350.049138" y="556.848908" xlink:href="#a"/>
<use x="352.576041" y="556.848908" xlink:href="#a"/>
<use x="354.524787" y="556.848908" xlink:href="#a"/>
<use x="356.764942" y="556.848908" xlink:href="#a"/>
<use x="359.292522" y="556.848908" xlink:href="#a"/>
<use x="361.532401" y="556.848908" xlink:href="#a"/>
<use x="363.705318" y="556.848908" xlink:href="#a"/>
<use x="365.62191" y="548.231928" xlink:href="#a"/>
<use x="367.787233" y="548.231928" xlink:href="#a"/>
<use x="369.620121" y="548.231928" xlink:href="#a"/>
<use x="371.85737" y="548.231928" xlink:href="#a"/>
<use x="373.999787" y="548.231928" xlink:href="#a"/>
<use x="376.674124" y="556.848908" xlink:href="#a"/>
<use x="378.761883" y="556.848908" xlink:href="#a"/>
<use x="380.792829" y="556.848908" xlink:href="#a"/>
<use x="382.639676" y="556.848908" xlink:href="#a"/>
<use x="384.547146" y="556.848908" xlink:href="#a"/>
<use x="387.420945" y="556.848908" xlink:href="#a"/>
<use x="389.379589" y="556.848908" xlink:href="#a"/>
<use x="391.751691" y="556.848908" xlink:href="#a"/>
<use x="393.22132" y="556.848908" xlink:href="#a"/>
<use x="396.11464" y="548.231928" xlink:href="#a"/>
<use x="397.922443" y="548.231928" xlink:href="#a"/>
<use x="402.19402" y="548.231928" xlink:href="#a"/>
<use x="404.563841" y="548.231928" xlink:href="#a"/>
<use x="406.475997" y="548.231928" xlink:href="#a"/>
<use x="408.570021" y="548.231928" xlink:href="#a"/>
<use x="411.11354" y="548.231928" xlink:href="#a"/>
<use x="413.301969" y="548.231928" xlink:href="#a"/>
<use x="415.371835" y="548.231928" xlink:href="#a"/>
<use x="417.629783" y="548.231928" xlink:href="#a"/>
<use x="419.682081" y="548.231928" xlink:href="#a"/>
<use x="421.893191" y="548.231928" xlink:href="#a"/>
<use x="424.132043" y="556.848908" xlink:href="#a"/>
<use x="426.01375" y="548.231928" xlink:href="#a"/>
<use x="428.428455" y="548.231928" xlink:href="#a"/>
<use x="430.759106" y="548.231928" xlink:href="#a"/>
<use x="432.773636" y="548.231928" xlink:href="#a"/>
<use x="435.089626" y="548.231928" xlink:href="#a"/>
<use x="437.080249" y="548.231928" xlink:href="#a"/>
<use x="439.419094" y="556.848908" xlink:href="#a"/>
<use x="441.234841" y="556.848908" xlink:href="#a"/>
<use x="443.877702" y="556.848908" xlink:href="#a"/>
<use x="445.538621" y="548.231928" xlink:href="#a"/>
<use x="448.037507" y="548.231928" xlink:href="#a"/>
<use x="449.644219" y="556.848908" xlink:href="#a"/>
<use x="452.37938" y="556.848908" xlink:href="#a"/>
<use x="452.607711" y="556.848908" xlink:href="#a"/>
<use x="454.359402" y="548.231928" xlink:href="#a"/>
<use x="456.769897" y="548.231928" xlink:href="#a"/>
<use x="458.824224" y="548.231928" xlink:href="#a"/>
<use x="460.914038" y="548.231928" xlink:href="#a"/>
<use x="463.278195" y="556.848908" xlink:href="#a"/>
<use x="465.4257" y="548.231928" xlink:href="#a"/>
<use x="467.553356" y="548.231928" xlink:href="#a"/>
<use x="467.724598" y="556.848908" xlink:href="#a"/>
<use x="469.793662" y="548.231928" xlink:href="#a"/>
<use x="471.200262" y="548.231928" xlink:href="#a"/>
<use x="471.888839" y="548.231928" xlink:href="#a"/>
<use x="473.963967" y="401.743258" xlink:href="#a"/>
<use x="475.750743" y="548.231928" xlink:href="#a"/>
<use x="477.976639" y="548.231928" xlink:href="#a"/>
<use x="480.61148" y="548.231928" xlink:href="#a"/>
<use x="481.645974" y="548.231928" xlink:href="#a"/>
<use x="482.773896" y="548.231928" xlink:href="#a"/>
<use x="484.926638" y="548.231928" xlink:href="#a"/>
<use x="486.945079" y="556.848908" xlink:href="#a"/>
<use x="488.684364" y="548.231928" xlink:href="#a"/>
<use x="490.771722" y="548.231928" xlink:href="#a"/>
<use x="492.8878" y="556.848908" xlink:href="#a"/>
<use x="493.523674" y="548.231928" xlink:href="#a"/>
<use x="495.090915" y="548.231928" xlink:href="#a"/>
<use x="497.823344" y="548.231928" xlink:href="#a"/>
<use x="499.686556" y="548.231928" xlink:href="#a"/>
<use x="502.210578" y="548.231928" xlink:href="#a"/>
<use x="504.289866" y="548.231928" xlink:href="#a"/>
<use x="506.538692" y="548.231928" xlink:href="#a"/>
<use x="508.691936" y="548.231928" xlink:href="#a"/>
<use x="510.705539" y="548.231928" xlink:href="#a"/>
<use x="513.070123" y="548.231928" xlink:href="#a"/>
<use x="515.160363" y="548.231928" xlink:href="#a"/>
<use x="516.93739" y="548.231928" xlink:href="#a"/>
<use x="519.329265" y="548.231928" xlink:href="#a"/>
<use x="521.283499" y="548.231928" xlink:href="#a"/>
<use x="523.908541" y="548.231928" xlink:href="#a"/>
<use x="525.711381" y="548.231928" xlink:href="#a"/>
<use x="528.205806" y="548.231928" xlink:href="#a"/>
<use x="530.189962" y="548.231928" xlink:href="#a"/>
<use x="532.557302" y="548.231928" xlink:href="#a"/>
<use x="534.17434" y="548.231928" xlink:href="#a"/>
<use x="536.340139" y="548.231928" xlink:href="#a"/>
<use x="539.085675" y="548.231928" xlink:href="#a"/>
<use x="541.001917" y="548.231928" xlink:href="#a"/>
<use x="543.121252" y="548.231928" xlink:href="#a"/>
<use x="545.347198" y="548.231928" xlink:href="#a"/>
<use x="547.675418" y="548.231928" xlink:href="#a"/>
<use x="549.697291" y="548.231928" xlink:href="#a"/>
<use x="551.814196" y="548.231928" xlink:href="#a"/>
<use x="553.973354" y="548.231928" xlink:href="#a"/>
<use x="554.394655" y="548.231928" xlink:href="#a"/>
<use x="556.284457" y="548.231928" xlink:href="#a"/>
<use x="558.458025" y="548.231928" xlink:href="#a"/>
<use x="560.617083" y="548.231928" xlink:href="#a"/>
<use x="562.844181" y="548.231928" xlink:href="#a"/>
<use x="564.782376" y="548.231928" xlink:href="#a"/>
<use x="566.988323" y="548.231928" xlink:href="#a"/>
<use x="569.021725" y="548.231928" xlink:href="#a"/>
<use x="570.641995" y="548.231928" xlink:href="#a"/>
<use x="571.459912" y="548.231928" xlink:href="#a"/>
<use x="573.635836" y="548.231928" xlink:href="#a"/>
<use x="575.662672" y="548.231928" xlink:href="#a"/>
<use x="577.946383" y="548.231928" xlink:href="#a"/>
<use x="579.95946" y="539.614947" xlink:href="#a"/>
<use x="581.901514" y="539.614947" xlink:href="#a"/>
<use x="584.348649" y="539.614947" xlink:href="#a"/>
<use x="586.562289" y="548.231928" xlink:href="#a"/>
<use x="587.910472" y="539.614947" xlink:href="#a"/>
<use x="588.821666" y="539.614947" xlink:href="#a"/>
<use x="591.000798" y="530.997967" xlink:href="#a"/>
<use x="593.186019" y="530.997967" xlink:href="#a"/>
<use x="595.318412" y="530.997967" xlink:href="#a"/>
<use x="597.404166" y="530.997967" xlink:href="#a"/>
<use x="598.819287" y="530.997967" xlink:href="#a"/>
<use x="601.7812" y="539.614947" xlink:href="#a"/>
<use x="603.976245" y="530.997967" xlink:href="#a"/>
<use x="606.051925" y="530.997967" xlink:href="#a"/>
<use x="607.902632" y="522.380986" xlink:href="#a"/>
<use x="610.506097" y="522.380986" xlink:href="#a"/>
<use x="612.427049" y="522.380986" xlink:href="#a"/>
<use x="614.760156" y="522.380986" xlink:href="#a"/>
<use x="616.753811" y="522.380986" xlink:href="#a"/>
<use x="619.162376" y="522.380986" xlink:href="#a"/>
<use x="621.32003" y="530.997967" xlink:href="#a"/>
<use x="623.18828" y="539.614947" xlink:href="#a"/>
<use x="625.541811" y="530.997967" xlink:href="#a"/>
<use x="627.734651" y="539.614947" xlink:href="#a"/>
<use x="629.960572" y="539.614947" xlink:href="#a"/>
<use x="632.197193" y="539.614947" xlink:href="#a"/>
<use x="634.238865" y="539.614947" xlink:href="#a"/>
<use x="636.430151" y="530.997967" xlink:href="#a"/>
<use x="637.727485" y="530.997967" xlink:href="#a"/>
<use x="638.503174" y="530.997967" xlink:href="#a"/>
<use x="640.559432" y="530.997967" xlink:href="#a"/>
<use x="642.860661" y="530.997967" xlink:href="#a"/>
<use x="645.112043" y="530.997967" xlink:href="#a"/>
<use x="647.325984" y="530.997967" xlink:href="#a"/>
<use x="649.351066" y="530.997967" xlink:href="#a"/>
<use x="651.445792" y="530.997967" xlink:href="#a"/>
<use x="653.511247" y="530.997967" xlink:href="#a"/>
<use x="655.840369" y="530.997967" xlink:href="#a"/>
<use x="657.620428" y="522.380986" xlink:href="#a"/>
<use x="660.252037" y="530.997967" xlink:href="#a"/>
<use x="662.396885" y="522.380986" xlink:href="#a"/>
<use x="664.606415" y="530.997967" xlink:href="#a"/>
<use x="677.577653" y="548.231928" xlink:href="#a"/>
<use x="678.434665" y="548.231928" xlink:href="#a"/>
<use x="679.830313" y="548.231928" xlink:href="#a"/>
<use x="681.931756" y="548.231928" xlink:href="#a"/>
<use x="684.010267" y="548.231928" xlink:href="#a"/>
<use x="685.338326" y="548.231928" xlink:href="#a"/>
<use x="686.256387" y="548.231928" xlink:href="#a"/>
</g>
</g>
<g stroke="#1f77b4" stroke-opacity=".9">
<path d="m200 652v8.62h56.5l3.11 25.9 1.06-25.9h46.7l1.75-8.62 2.05 8.62 2.39-8.62 1.91 8.62h6.65l2.25-8.62 0.163 8.62h1.97l2.21 8.62 1.91-8.62 2.31-8.62 1.85-68.9h31.1l1.23-8.62h6.53l2.67 8.62 1.2-8.62 0.375 8.62 0.512-8.62 1.09 8.62h13.4l2.89-8.62h6.08l2.37 8.62 1.91-8.62h11.2l2.05 8.62 2.21-8.62h2.24l1.88 8.62 2.41-8.62 2.33 8.62 2.01-8.62h15.3l1.61 8.62h2.74l0.228-8.62 1.75 8.62 1.74-8.62h15.8l2.08-164 1.79 164h28.5l2.25-8.62 2.15 8.62 2.01-8.62 2.36 8.62h51.7l2.21-8.62 2.03 8.62 1.62-8.62h0.818l2.18 8.62h2.03l2-8.62 0.286 8.62h2.01l1.94-8.62 2.45 8.62h3.56l0.911-8.62h2.18l2.19-8.62h5.63l2.82 8.62 0.139-8.62 1.09 8.62h3.18l1.85-17.2h11.3l2.16 8.62 1.87-8.62h2.35l2.19 8.62h6.15l0.351-8.62 1.67 8.62h0.518l1.3-8.62h0.776l2.06 8.62h2.3l2.25-8.62 2.21 8.62h8.51l1.78-8.62h2.63l2.14 8.62 2.21-8.62h2.17l2.23 8.62 1.87-8.62h15.4" clip-path="url(#i)" fill="none" stroke-dasharray="1.5,2.475" stroke-width="1.5"/>
<g clip-path="url(#i)" fill="#1f77b4" fill-opacity=".9">
<use x="200.336561" y="651.635695" xlink:href="#a"/>
<use x="200.336561" y="660.252675" xlink:href="#a"/>
<use x="218.43749" y="660.252675" xlink:href="#a"/>
<use x="232.302779" y="660.252675" xlink:href="#a"/>
<use x="248.633623" y="660.252675" xlink:href="#a"/>
<use x="256.816299" y="660.252675" xlink:href="#a"/>
<use x="259.927801" y="686.103617" xlink:href="#a"/>
<use x="260.98475" y="660.252675" xlink:href="#a"/>
<use x="261.727133" y="660.252675" xlink:href="#a"/>
<use x="263.864964" y="660.252675" xlink:href="#a"/>
<use x="265.971694" y="660.252675" xlink:href="#a"/>
<use x="268.271545" y="660.252675" xlink:href="#a"/>
<use x="270.263671" y="660.252675" xlink:href="#a"/>
<use x="272.677875" y="660.252675" xlink:href="#a"/>
<use x="274.878258" y="660.252675" xlink:href="#a"/>
<use x="276.538125" y="660.252675" xlink:href="#a"/>
<use x="279.0122" y="660.252675" xlink:href="#a"/>
<use x="281.200454" y="660.252675" xlink:href="#a"/>
<use x="283.361968" y="660.252675" xlink:href="#a"/>
<use x="285.737578" y="660.252675" xlink:href="#a"/>
<use x="287.901998" y="660.252675" xlink:href="#a"/>
<use x="289.844654" y="660.252675" xlink:href="#a"/>
<use x="292.139843" y="660.252675" xlink:href="#a"/>
<use x="293.764149" y="660.252675" xlink:href="#a"/>
<use x="296.307768" y="660.252675" xlink:href="#a"/>
<use x="298.420914" y="660.252675" xlink:href="#a"/>
<use x="300.865492" y="660.252675" xlink:href="#a"/>
<use x="302.910271" y="660.252675" xlink:href="#a"/>
<use x="304.014986" y="660.252675" xlink:href="#a"/>
<use x="305.119777" y="660.252675" xlink:href="#a"/>
<use x="306.720675" y="660.252675" xlink:href="#a"/>
<use x="307.694597" y="660.252675" xlink:href="#a"/>
<use x="309.447841" y="651.635695" xlink:href="#a"/>
<use x="311.497934" y="660.252675" xlink:href="#a"/>
<use x="313.883844" y="651.635695" xlink:href="#a"/>
<use x="315.796501" y="660.252675" xlink:href="#a"/>
<use x="318.174492" y="660.252675" xlink:href="#a"/>
<use x="320.396453" y="660.252675" xlink:href="#a"/>
<use x="322.450831" y="660.252675" xlink:href="#a"/>
<use x="324.703817" y="651.635695" xlink:href="#a"/>
<use x="324.867115" y="660.252675" xlink:href="#a"/>
<use x="326.833403" y="660.252675" xlink:href="#a"/>
<use x="329.040052" y="668.869656" xlink:href="#a"/>
<use x="330.947146" y="660.252675" xlink:href="#a"/>
<use x="333.255718" y="651.635695" xlink:href="#a"/>
<use x="335.101538" y="582.69985" xlink:href="#a"/>
<use x="335.573437" y="582.69985" xlink:href="#a"/>
<use x="337.334074" y="582.69985" xlink:href="#a"/>
<use x="337.688587" y="582.69985" xlink:href="#a"/>
<use x="339.640591" y="582.69985" xlink:href="#a"/>
<use x="341.898815" y="582.69985" xlink:href="#a"/>
<use x="343.960611" y="582.69985" xlink:href="#a"/>
<use x="345.683106" y="582.69985" xlink:href="#a"/>
<use x="346.144053" y="582.69985" xlink:href="#a"/>
<use x="347.720968" y="582.69985" xlink:href="#a"/>
<use x="348.469917" y="582.69985" xlink:href="#a"/>
<use x="350.049138" y="582.69985" xlink:href="#a"/>
<use x="352.15053" y="582.69985" xlink:href="#a"/>
<use x="352.576041" y="582.69985" xlink:href="#a"/>
<use x="354.524787" y="582.69985" xlink:href="#a"/>
<use x="356.764942" y="582.69985" xlink:href="#a"/>
<use x="359.292522" y="582.69985" xlink:href="#a"/>
<use x="361.532401" y="582.69985" xlink:href="#a"/>
<use x="363.172646" y="582.69985" xlink:href="#a"/>
<use x="363.705318" y="582.69985" xlink:href="#a"/>
<use x="365.62191" y="582.69985" xlink:href="#a"/>
<use x="366.243424" y="582.69985" xlink:href="#a"/>
<use x="367.47184" y="574.08287" xlink:href="#a"/>
<use x="367.787233" y="574.08287" xlink:href="#a"/>
<use x="369.620121" y="574.08287" xlink:href="#a"/>
<use x="370.700753" y="574.08287" xlink:href="#a"/>
<use x="371.85737" y="574.08287" xlink:href="#a"/>
<use x="373.999787" y="574.08287" xlink:href="#a"/>
<use x="376.674124" y="582.69985" xlink:href="#a"/>
<use x="377.874648" y="574.08287" xlink:href="#a"/>
<use x="378.249536" y="582.69985" xlink:href="#a"/>
<use x="378.761883" y="574.08287" xlink:href="#a"/>
<use x="379.850484" y="582.69985" xlink:href="#a"/>
<use x="380.792829" y="582.69985" xlink:href="#a"/>
<use x="382.466003" y="582.69985" xlink:href="#a"/>
<use x="382.639676" y="582.69985" xlink:href="#a"/>
<use x="384.547146" y="582.69985" xlink:href="#a"/>
<use x="387.420945" y="582.69985" xlink:href="#a"/>
<use x="389.379589" y="582.69985" xlink:href="#a"/>
<use x="391.751691" y="582.69985" xlink:href="#a"/>
<use x="392.378893" y="582.69985" xlink:href="#a"/>
<use x="393.22132" y="582.69985" xlink:href="#a"/>
<use x="396.11464" y="574.08287" xlink:href="#a"/>
<use x="397.922443" y="574.08287" xlink:href="#a"/>
<use x="402.19402" y="574.08287" xlink:href="#a"/>
<use x="404.563841" y="582.69985" xlink:href="#a"/>
<use x="406.475997" y="574.08287" xlink:href="#a"/>
<use x="408.570021" y="574.08287" xlink:href="#a"/>
<use x="411.11354" y="574.08287" xlink:href="#a"/>
<use x="413.301969" y="574.08287" xlink:href="#a"/>
<use x="415.371835" y="574.08287" xlink:href="#a"/>
<use x="417.629783" y="574.08287" xlink:href="#a"/>
<use x="419.682081" y="582.69985" xlink:href="#a"/>
<use x="421.893191" y="574.08287" xlink:href="#a"/>
<use x="424.132043" y="574.08287" xlink:href="#a"/>
<use x="426.01375" y="582.69985" xlink:href="#a"/>
<use x="428.428455" y="574.08287" xlink:href="#a"/>
<use x="430.759106" y="582.69985" xlink:href="#a"/>
<use x="432.773636" y="574.08287" xlink:href="#a"/>
<use x="435.089626" y="574.08287" xlink:href="#a"/>
<use x="437.080249" y="574.08287" xlink:href="#a"/>
<use x="441.234841" y="574.08287" xlink:href="#a"/>
<use x="443.053019" y="574.08287" xlink:href="#a"/>
<use x="443.877702" y="574.08287" xlink:href="#a"/>
<use x="445.538621" y="574.08287" xlink:href="#a"/>
<use x="448.037507" y="574.08287" xlink:href="#a"/>
<use x="449.644219" y="582.69985" xlink:href="#a"/>
<use x="452.37938" y="582.69985" xlink:href="#a"/>
<use x="452.607711" y="574.08287" xlink:href="#a"/>
<use x="454.359402" y="582.69985" xlink:href="#a"/>
<use x="455.995736" y="574.08287" xlink:href="#a"/>
<use x="456.024983" y="574.08287" xlink:href="#a"/>
<use x="456.101093" y="574.08287" xlink:href="#a"/>
<use x="456.769897" y="574.08287" xlink:href="#a"/>
<use x="458.824224" y="574.08287" xlink:href="#a"/>
<use x="460.822916" y="574.08287" xlink:href="#a"/>
<use x="460.914038" y="574.08287" xlink:href="#a"/>
<use x="463.278195" y="574.08287" xlink:href="#a"/>
<use x="465.4257" y="574.08287" xlink:href="#a"/>
<use x="467.33936" y="574.08287" xlink:href="#a"/>
<use x="467.553356" y="574.08287" xlink:href="#a"/>
<use x="467.640694" y="574.08287" xlink:href="#a"/>
<use x="467.724598" y="574.08287" xlink:href="#a"/>
<use x="468.852846" y="574.08287" xlink:href="#a"/>
<use x="469.793662" y="574.08287" xlink:href="#a"/>
<use x="471.200262" y="574.08287" xlink:href="#a"/>
<use x="471.888839" y="574.08287" xlink:href="#a"/>
<use x="473.963967" y="410.360239" xlink:href="#a"/>
<use x="475.750743" y="574.08287" xlink:href="#a"/>
<use x="477.976639" y="574.08287" xlink:href="#a"/>
<use x="480.61148" y="574.08287" xlink:href="#a"/>
<use x="481.645974" y="574.08287" xlink:href="#a"/>
<use x="482.773896" y="574.08287" xlink:href="#a"/>
<use x="484.926638" y="574.08287" xlink:href="#a"/>
<use x="486.945079" y="574.08287" xlink:href="#a"/>
<use x="488.684364" y="574.08287" xlink:href="#a"/>
<use x="490.771722" y="574.08287" xlink:href="#a"/>
<use x="492.8878" y="574.08287" xlink:href="#a"/>
<use x="493.523674" y="574.08287" xlink:href="#a"/>
<use x="495.090915" y="574.08287" xlink:href="#a"/>
<use x="497.823344" y="574.08287" xlink:href="#a"/>
<use x="499.686556" y="574.08287" xlink:href="#a"/>
<use x="502.210578" y="574.08287" xlink:href="#a"/>
<use x="504.289866" y="574.08287" xlink:href="#a"/>
<use x="506.538692" y="565.465889" xlink:href="#a"/>
<use x="508.691936" y="574.08287" xlink:href="#a"/>
<use x="510.705539" y="565.465889" xlink:href="#a"/>
<use x="513.070123" y="574.08287" xlink:href="#a"/>
<use x="515.160363" y="574.08287" xlink:href="#a"/>
<use x="516.814666" y="574.08287" xlink:href="#a"/>
<use x="516.93739" y="574.08287" xlink:href="#a"/>
<use x="519.329265" y="574.08287" xlink:href="#a"/>
<use x="521.283499" y="574.08287" xlink:href="#a"/>
<use x="523.908541" y="574.08287" xlink:href="#a"/>
<use x="525.711381" y="574.08287" xlink:href="#a"/>
<use x="528.205806" y="574.08287" xlink:href="#a"/>
<use x="530.189962" y="574.08287" xlink:href="#a"/>
<use x="532.557302" y="574.08287" xlink:href="#a"/>
<use x="534.17434" y="574.08287" xlink:href="#a"/>
<use x="536.340139" y="574.08287" xlink:href="#a"/>
<use x="539.085675" y="574.08287" xlink:href="#a"/>
<use x="541.001917" y="574.08287" xlink:href="#a"/>
<use x="541.83507" y="574.08287" xlink:href="#a"/>
<use x="542.069216" y="574.08287" xlink:href="#a"/>
<use x="543.121252" y="574.08287" xlink:href="#a"/>
<use x="544.712427" y="574.08287" xlink:href="#a"/>
<use x="545.347198" y="574.08287" xlink:href="#a"/>
<use x="547.675418" y="574.08287" xlink:href="#a"/>
<use x="549.167702" y="574.08287" xlink:href="#a"/>
<use x="549.474048" y="574.08287" xlink:href="#a"/>
<use x="549.697291" y="574.08287" xlink:href="#a"/>
<use x="551.814196" y="574.08287" xlink:href="#a"/>
<use x="553.973354" y="574.08287" xlink:href="#a"/>
<use x="554.394655" y="574.08287" xlink:href="#a"/>
<use x="556.284457" y="574.08287" xlink:href="#a"/>
<use x="558.458025" y="574.08287" xlink:href="#a"/>
<use x="560.617083" y="574.08287" xlink:href="#a"/>
<use x="562.844181" y="574.08287" xlink:href="#a"/>
<use x="564.782376" y="574.08287" xlink:href="#a"/>
<use x="566.988323" y="565.465889" xlink:href="#a"/>
<use x="569.021725" y="574.08287" xlink:href="#a"/>
<use x="570.641995" y="565.465889" xlink:href="#a"/>
<use x="571.459912" y="565.465889" xlink:href="#a"/>
<use x="573.635836" y="574.08287" xlink:href="#a"/>
<use x="575.662672" y="574.08287" xlink:href="#a"/>
<use x="577.660111" y="565.465889" xlink:href="#a"/>
<use x="577.946383" y="574.08287" xlink:href="#a"/>
<use x="579.95946" y="574.08287" xlink:href="#a"/>
<use x="581.901514" y="565.465889" xlink:href="#a"/>
<use x="584.348649" y="574.08287" xlink:href="#a"/>
<use x="586.094976" y="574.08287" xlink:href="#a"/>
<use x="586.562289" y="574.08287" xlink:href="#a"/>
<use x="587.910472" y="574.08287" xlink:href="#a"/>
<use x="588.821666" y="565.465889" xlink:href="#a"/>
<use x="591.000798" y="565.465889" xlink:href="#a"/>
<use x="593.186019" y="556.848908" xlink:href="#a"/>
<use x="595.318412" y="556.848908" xlink:href="#a"/>
<use x="597.404166" y="556.848908" xlink:href="#a"/>
<use x="598.819287" y="556.848908" xlink:href="#a"/>
<use x="601.642362" y="565.465889" xlink:href="#a"/>
<use x="601.7812" y="556.848908" xlink:href="#a"/>
<use x="602.868222" y="565.465889" xlink:href="#a"/>
<use x="603.976245" y="565.465889" xlink:href="#a"/>
<use x="605.704378" y="565.465889" xlink:href="#a"/>
<use x="605.727435" y="565.465889" xlink:href="#a"/>
<use x="606.051925" y="565.465889" xlink:href="#a"/>
<use x="607.902632" y="548.231928" xlink:href="#a"/>
<use x="610.506097" y="548.231928" xlink:href="#a"/>
<use x="612.427049" y="548.231928" xlink:href="#a"/>
<use x="614.760156" y="548.231928" xlink:href="#a"/>
<use x="616.753811" y="548.231928" xlink:href="#a"/>
<use x="617.074391" y="548.231928" xlink:href="#a"/>
<use x="619.162376" y="548.231928" xlink:href="#a"/>
<use x="621.32003" y="556.848908" xlink:href="#a"/>
<use x="623.18828" y="548.231928" xlink:href="#a"/>
<use x="625.541811" y="548.231928" xlink:href="#a"/>
<use x="627.734651" y="556.848908" xlink:href="#a"/>
<use x="629.960572" y="556.848908" xlink:href="#a"/>
<use x="631.57182" y="556.848908" xlink:href="#a"/>
<use x="632.197193" y="556.848908" xlink:href="#a"/>
<use x="633.88761" y="556.848908" xlink:href="#a"/>
<use x="634.238865" y="548.231928" xlink:href="#a"/>
<use x="635.911839" y="556.848908" xlink:href="#a"/>
<use x="636.430151" y="556.848908" xlink:href="#a"/>
<use x="637.727485" y="548.231928" xlink:href="#a"/>
<use x="638.503174" y="548.231928" xlink:href="#a"/>
<use x="640.559432" y="556.848908" xlink:href="#a"/>
<use x="642.860661" y="556.848908" xlink:href="#a"/>
<use x="645.112043" y="548.231928" xlink:href="#a"/>
<use x="647.325984" y="556.848908" xlink:href="#a"/>
<use x="649.351066" y="556.848908" xlink:href="#a"/>
<use x="651.445792" y="556.848908" xlink:href="#a"/>
<use x="651.989591" y="556.848908" xlink:href="#a"/>
<use x="653.511247" y="556.848908" xlink:href="#a"/>
<use x="655.840369" y="556.848908" xlink:href="#a"/>
<use x="657.620428" y="548.231928" xlink:href="#a"/>
<use x="660.252037" y="548.231928" xlink:href="#a"/>
<use x="662.396885" y="556.848908" xlink:href="#a"/>
<use x="664.606415" y="548.231928" xlink:href="#a"/>
<use x="666.776299" y="548.231928" xlink:href="#a"/>
<use x="669.009362" y="556.848908" xlink:href="#a"/>
<use x="670.881772" y="548.231928" xlink:href="#a"/>
<use x="673.186384" y="548.231928" xlink:href="#a"/>
<use x="675.397995" y="548.231928" xlink:href="#a"/>
<use x="677.577653" y="548.231928" xlink:href="#a"/>
<use x="678.434665" y="548.231928" xlink:href="#a"/>
<use x="679.830313" y="548.231928" xlink:href="#a"/>
<use x="681.931756" y="548.231928" xlink:href="#a"/>
<use x="684.010267" y="548.231928" xlink:href="#a"/>
<use x="685.338326" y="548.231928" xlink:href="#a"/>
<use x="686.256387" y="548.231928" xlink:href="#a"/>
</g>
</g>
<g stroke="#2ca02c" stroke-opacity=".9">
<path d="m512 600 66.9 8.62 7.17-8.62 1.35 8.62 0.911-8.62h2.18 2.19 2.13 2.09 1.42 2.96 1.09 1.11 2.08l1.85-8.62h2.6 1.92l2.33 8.62h1.99l2.41-8.62 2.16 8.62 1.87-8.62h2.35 2.19 2.23 2.24 2.04 2.19 1.3 0.776 2.06 2.3 2.25 2.21 2.03 2.09 2.07 2.33 1.78 2.63 2.14 2.21 2.17l2.23-8.62 8.57 8.62h0.857 1.4 2.1 2.08l1.33 8.62h0.918" clip-path="url(#i)" fill="none" stroke-linecap="square" stroke-width="1.5"/>
<g clip-path="url(#i)" fill="#2ca02c" fill-opacity=".9">
<use x="512.464648" y="599.933811" xlink:href="#c"/>
<use x="579.390449" y="608.550792" xlink:href="#c"/>
<use x="586.562289" y="599.933811" xlink:href="#c"/>
<use x="587.910472" y="608.550792" xlink:href="#c"/>
<use x="588.821666" y="599.933811" xlink:href="#c"/>
<use x="591.000798" y="599.933811" xlink:href="#c"/>
<use x="593.186019" y="599.933811" xlink:href="#c"/>
<use x="595.318412" y="599.933811" xlink:href="#c"/>
<use x="597.404166" y="599.933811" xlink:href="#c"/>
<use x="598.819287" y="599.933811" xlink:href="#c"/>
<use x="601.7812" y="599.933811" xlink:href="#c"/>
<use x="602.868222" y="599.933811" xlink:href="#c"/>
<use x="603.976245" y="599.933811" xlink:href="#c"/>
<use x="606.051925" y="599.933811" xlink:href="#c"/>
<use x="607.902632" y="591.316831" xlink:href="#c"/>
<use x="610.506097" y="591.316831" xlink:href="#c"/>
<use x="612.427049" y="591.316831" xlink:href="#c"/>
<use x="614.760156" y="599.933811" xlink:href="#c"/>
<use x="616.753811" y="599.933811" xlink:href="#c"/>
<use x="619.162376" y="591.316831" xlink:href="#c"/>
<use x="621.32003" y="599.933811" xlink:href="#c"/>
<use x="623.18828" y="591.316831" xlink:href="#c"/>
<use x="625.541811" y="591.316831" xlink:href="#c"/>
<use x="627.734651" y="591.316831" xlink:href="#c"/>
<use x="629.960572" y="591.316831" xlink:href="#c"/>
<use x="632.197193" y="591.316831" xlink:href="#c"/>
<use x="634.238865" y="591.316831" xlink:href="#c"/>
<use x="636.430151" y="591.316831" xlink:href="#c"/>
<use x="637.727485" y="591.316831" xlink:href="#c"/>
<use x="638.503174" y="591.316831" xlink:href="#c"/>
<use x="640.559432" y="591.316831" xlink:href="#c"/>
<use x="642.860661" y="591.316831" xlink:href="#c"/>
<use x="645.112043" y="591.316831" xlink:href="#c"/>
<use x="647.325984" y="591.316831" xlink:href="#c"/>
<use x="649.351066" y="591.316831" xlink:href="#c"/>
<use x="651.445792" y="591.316831" xlink:href="#c"/>
<use x="653.511247" y="591.316831" xlink:href="#c"/>
<use x="655.840369" y="591.316831" xlink:href="#c"/>
<use x="657.620428" y="591.316831" xlink:href="#c"/>
<use x="660.252037" y="591.316831" xlink:href="#c"/>
<use x="662.396885" y="591.316831" xlink:href="#c"/>
<use x="664.606415" y="591.316831" xlink:href="#c"/>
<use x="666.776299" y="591.316831" xlink:href="#c"/>
<use x="669.009362" y="582.69985" xlink:href="#c"/>
<use x="677.577653" y="591.316831" xlink:href="#c"/>
<use x="678.434665" y="591.316831" xlink:href="#c"/>
<use x="679.830313" y="591.316831" xlink:href="#c"/>
<use x="681.931756" y="591.316831" xlink:href="#c"/>
<use x="684.010267" y="591.316831" xlink:href="#c"/>
<use x="685.338326" y="599.933811" xlink:href="#c"/>
<use x="686.256387" y="599.933811" xlink:href="#c"/>
</g>
</g>
<path d="m40.6 700v-313" fill="none" stroke="#000" stroke-linecap="square" stroke-width=".8"/>
<path d="m717 700v-313" fill="none" stroke="#000" stroke-linecap="square" stroke-width=".8"/>
<path d="m40.6 700h676" fill="none" stroke="#000" stroke-linecap="square" stroke-width=".8"/>
<path d="m40.6 388h676" fill="none" stroke="#000" stroke-linecap="square" stroke-width=".8"/>
<path d="m71.8 651-0.349 7.35" fill="none" stroke="#888" stroke-linecap="round"/>
<g transform="translate(74.5 647) rotate(-90) scale(.08 -.08)" fill="#888">
<use xlink:href="#y"/>
<use transform="translate(61.3)" xlink:href="#b"/>
</g>
<g clip-path="url(#i)">
<g transform="translate(58.2 652) rotate(-90) scale(.1 -.1)">
<use xlink:href="#x"/>
<use transform="translate(97.4)" xlink:href="#q"/>
<use transform="translate(159)" xlink:href="#p"/>
<use transform="translate(197)" xlink:href="#u"/>
<use transform="translate(259)" xlink:href="#DejaVuSans-20"/>
<use transform="translate(291)" xlink:href="#am"/>
</g>
</g>
<g clip-path="url(#i)">
<g transform="translate(58.2 707) rotate(-90) scale(.1 -.1)">
<use xlink:href="#an"/>
<use transform="translate(143)" xlink:href="#DejaVuSans-20"/>
<use transform="translate(175)" xlink:href="#t"/>
<use transform="translate(203)" xlink:href="#u"/>
<use transform="translate(264)" xlink:href="#o"/>
<use transform="translate(317)" xlink:href="#o"/>
</g>
</g>
<g transform="translate(296 382) scale(.12 -.12)">
<use xlink:href="#ak"/>
<use transform="translate(60.3)" xlink:href="#ad"/>
<use transform="translate(119)" xlink:href="#ae"/>
<use transform="translate(159)" xlink:href="#af"/>
<use transform="translate(222)" xlink:href="#q"/>
<use transform="translate(283)" xlink:href="#s"/>
<use transform="translate(347)" xlink:href="#DejaVuSans-20"/>
<use transform="translate(378)" xlink:href="#r"/>
<use transform="translate(442)" xlink:href="#h"/>
<use transform="translate(474)" xlink:href="#e"/>
<use transform="translate(537)" xlink:href="#n"/>
<use transform="translate(601)" xlink:href="#h"/>
<use transform="translate(633)" xlink:href="#w"/>
<use transform="translate(692)" xlink:href="#DejaVuSans-20"/>
<use transform="translate(724)" xlink:href="#z"/>
<use transform="translate(783)" xlink:href="#o"/>
<use transform="translate(835)" xlink:href="#h"/>
<use transform="translate(867)" xlink:href="#DejaVuSans-20"/>
<use transform="translate(899)" xlink:href="#r"/>
<use transform="translate(962)" xlink:href="#h"/>
<use transform="translate(994)" xlink:href="#e"/>
<use transform="translate(1058)" xlink:href="#r"/>
<use transform="translate(1121)" xlink:href="#h"/>
<use transform="translate(1153)" xlink:href="#b"/>
<use transform="translate(1217)" xlink:href="#p"/>
<use transform="translate(1256)" xlink:href="#ab"/>
<use transform="translate(1311)" xlink:href="#d"/>
</g>
<path d="m47.6 440h82.6q2 0 2-2v-43q0-2-2-2h-82.6q-2 0-2 2v43q0 2 2 2z" fill="#fff" opacity=".8" stroke="#ccc"/>
<path d="m49.6 401h10 10" fill="none" stroke="#1f77b4" stroke-linecap="square" stroke-opacity=".9" stroke-width="1.5"/>
<use x="59.645553" y="400.623678" fill="#1f77b4" fill-opacity=".9" stroke="#1f77b4" stroke-opacity=".9" xlink:href="#a"/>
<g transform="translate(77.6 404) scale(.1 -.1)">
<use xlink:href="#t"/>
<use transform="translate(27.8)" xlink:href="#aa"/>
<use transform="translate(55.6)" xlink:href="#s"/>
<use transform="translate(119)" xlink:href="#v"/>
<use transform="translate(182)" xlink:href="#w"/>
</g>
<path d="m49.6 415h10 10" fill="none" stroke="#1f77b4" stroke-dasharray="1.5,2.475" stroke-opacity=".9" stroke-width="1.5"/>
<use x="59.645553" y="415.301803" fill="#1f77b4" fill-opacity=".9" stroke="#1f77b4" stroke-opacity=".9" xlink:href="#a"/>
<g transform="translate(77.6 419) scale(.1 -.1)">
<use xlink:href="#t"/>
<use transform="translate(27.8)" xlink:href="#aa"/>
<use transform="translate(55.6)" xlink:href="#s"/>
<use transform="translate(119)" xlink:href="#v"/>
<use transform="translate(182)" xlink:href="#w"/>
<use transform="translate(242)" xlink:href="#f"/>
<use transform="translate(275)" xlink:href="#z"/>
<use transform="translate(334)" xlink:href="#v"/>
<use transform="translate(398)" xlink:href="#t"/>
<use transform="translate(425)" xlink:href="#ae"/>
<use transform="translate(465)" xlink:href="#p"/>
</g>
<path d="m49.6 430h10 10" fill="none" stroke="#2ca02c" stroke-linecap="square" stroke-opacity=".9" stroke-width="1.5"/>
<use x="59.645553" y="429.979928" fill="#2ca02c" fill-opacity=".9" stroke="#2ca02c" stroke-opacity=".9" xlink:href="#c"/>
<g transform="translate(77.6 433) scale(.1 -.1)">
<use xlink:href="#x"/>
<use transform="translate(97.4)" xlink:href="#y"/>
<use transform="translate(159)" xlink:href="#ab"/>
<use transform="translate(214)" xlink:href="#q"/>
<use transform="translate(275)" xlink:href="#o"/>
</g>
<g transform="translate(239 12.1) scale(.12 -.12)">
<defs>
<path id="ap" transform="scale(.0156)" d="m628 4666h941l1190-3175 1197 3175h941v-4666h-616v4097l-1203-3200h-634l-1203 3200v-4097h-613v4666z"/>
<path id="ai" transform="scale(.0156)" d="m2906 1791q0 625-258 968-257 344-723 344-462 0-720-344-258-343-258-968 0-622 258-966t720-344q466 0 723 344 258 344 258 966zm575-1357q0-893-397-1329-396-436-1215-436-303 0-572 45t-522 139v559q253-137 500-202 247-66 503-66 566 0 847 295t281 892v285q-178-310-456-463t-666-153q-643 0-1037 490-394 491-394 1301 0 812 394 1302 394 491 1037 491 388 0 666-153t456-462v531h575v-3066z"/>
<path id="ao" transform="scale(.0156)" d="m603 3500h575v-3563q0-668-255-968-254-300-820-300h-219v487h154q328 0 446 152 119 151 119 629v3563zm0 1363h575v-729h-575v729z"/>
</defs>
<use xlink:href="#ap"/>
<use transform="translate(86.3)" xlink:href="#u"/>
<use transform="translate(148)" xlink:href="#x"/>
<use transform="translate(245)" xlink:href="#q"/>
<use transform="translate(306)" xlink:href="#p"/>
<use transform="translate(348)" xlink:href="#ad"/>
<use transform="translate(407)" xlink:href="#DejaVuSans-20"/>
<use transform="translate(438)" xlink:href="#v"/>
<use transform="translate(502)" xlink:href="#o"/>
<use transform="translate(554)" xlink:href="#y"/>
<use transform="translate(615)" xlink:href="#ai"/>
<use transform="translate(679)" xlink:href="#u"/>
<use transform="translate(740)" xlink:href="#DejaVuSans-20"/>
<use transform="translate(772)" xlink:href="#ab"/>
<use transform="translate(827)" xlink:href="#af"/>
<use transform="translate(890)" xlink:href="#y"/>
<use transform="translate(952)" xlink:href="#s"/>
<use transform="translate(1015)" xlink:href="#ai"/>
<use transform="translate(1079)" xlink:href="#u"/>
<use transform="translate(1140)" xlink:href="#DejaVuSans-20"/>
<use transform="translate(1172)" xlink:href="#aj"/>
<use transform="translate(1235)" xlink:href="#ad"/>
<use transform="translate(1294)" xlink:href="#DejaVuSans-20"/>
<use transform="translate(1326)" xlink:href="#x"/>
<use transform="translate(1424)" xlink:href="#y"/>
<use transform="translate(1485)" xlink:href="#ao"/>
<use transform="translate(1513)" xlink:href="#q"/>
<use transform="translate(1574)" xlink:href="#p"/>
<use transform="translate(1615)" xlink:href="#DejaVuSans-20"/>
<use transform="translate(1647)" xlink:href="#z"/>
<use transform="translate(1706)" xlink:href="#u"/>
<use transform="translate(1768)" xlink:href="#p"/>
<use transform="translate(1809)" xlink:href="#o"/>
<use transform="translate(1861)" xlink:href="#aa"/>
<use transform="translate(1889)" xlink:href="#q"/>
<use transform="translate(1950)" xlink:href="#s"/>
</g>
<defs>
<clipPath id="g">
<rect x="40.6" y="35.7" width="676" height="313"/>
</clipPath>
<clipPath id="i">
<rect x="40.6" y="388" width="676" height="313"/>
</clipPath>
</defs>
</svg>
