<?xml version="1.0" encoding="UTF-8"?>
<!DOCTYPE svg  PUBLIC '-//W3C//DTD SVG 1.1//EN'  'http://www.w3.org/Graphics/SVG/1.1/DTD/svg11.dtd'>
<svg width="720pt" height="720pt" version="1.1" viewBox="0 0 720 720" xmlns="http://www.w3.org/2000/svg" xmlns:xlink="http://www.w3.org/1999/xlink">
<defs>
<style type="text/css">*{stroke-linejoin: round; stroke-linecap: butt}</style>
</defs>
<path d="m0 720h720v-720h-720z" fill="#fff"/>
<path d="m40.6 349h671v-313h-671z" fill="#fff"/>
<path d="m100 349v-313" clip-path="url(#g)" fill="none" stroke="#b0b0b0" stroke-linecap="square" stroke-width=".8"/>
<defs>
<path id="j" d="m0 0v3.5" stroke="#000" stroke-width=".8"/>
</defs>
<use x="100.491338" y="348.52899" stroke="#000000" stroke-width=".8" xlink:href="#j"/>
<g transform="translate(71.4 363) scale(.1 -.1)">
<defs>
<path id="c" transform="scale(.0156)" d="m1228 531h2203v-531h-2962v531q359 372 979 998 621 627 780 809 303 340 423 576 121 236 121 464 0 372-261 606-261 235-680 235-297 0-627-103-329-103-704-313v638q381 153 712 231 332 78 607 78 725 0 1156-363 431-362 431-968 0-288-108-546-107-257-392-607-78-91-497-524-418-433-1181-1211z"/>
<path id="b" transform="scale(.0156)" d="m2034 4250q-487 0-733-480-245-479-245-1442 0-959 245-1439 246-480 733-480 491 0 736 480 246 480 246 1439 0 963-246 1442-245 480-736 480zm0 500q785 0 1199-621 414-620 414-1801 0-1178-414-1799-414-620-1199-620-784 0-1198 620-414 621-414 1799 0 1181 414 1801 414 621 1198 621z"/>
<path id="n" transform="scale(.0156)" d="m2419 4116-1594-2491h1594v2491zm-166 550h794v-3041h666v-525h-666v-1100h-628v1100h-2106v609l1940 2957z"/>
<path id="f" transform="scale(.0156)" d="m313 2009h1684v-512h-1684v512z"/>
<path id="k" transform="scale(.0156)" d="m691 4666h2478v-532h-1900v-1143q137 47 274 70 138 23 276 23 781 0 1237-428 457-428 457-1159 0-753-469-1171-469-417-1322-417-294 0-599 50-304 50-629 150v635q281-153 581-228t634-75q541 0 856 284 316 284 316 772 0 487-316 771-315 285-856 285-253 0-505-56-251-56-513-175v2344z"/>
<path id="e" transform="scale(.0156)" d="m794 531h1031v3560l-1122-225v575l1116 225h631v-4135h1031v-531h-2687v531z"/>
</defs>
<use xlink:href="#c"/>
<use transform="translate(63.6)" xlink:href="#b"/>
<use transform="translate(127)" xlink:href="#c"/>
<use transform="translate(191)" xlink:href="#n"/>
<use transform="translate(254)" xlink:href="#f"/>
<use transform="translate(291)" xlink:href="#b"/>
<use transform="translate(354)" xlink:href="#k"/>
<use transform="translate(418)" xlink:href="#f"/>
<use transform="translate(454)" xlink:href="#e"/>
<use transform="translate(518)" xlink:href="#k"/>
</g>
<path d="m177 349v-313" clip-path="url(#g)" fill="none" stroke="#b0b0b0" stroke-linecap="square" stroke-width=".8"/>
<use x="176.90223" y="348.52899" stroke="#000000" stroke-width=".8" xlink:href="#j"/>
<g transform="translate(148 363) scale(.1 -.1)">
<defs>
<path id="ah" transform="scale(.0156)" d="m2113 2584q-425 0-674-291-248-290-248-796 0-503 248-796 249-292 674-292t673 292q248 293 248 796 0 506-248 796-248 291-673 291zm1253 1979v-575q-238 112-480 171-242 60-480 60-625 0-955-422-329-422-376-1275 184 272 462 417 279 145 613 145 703 0 1111-427 408-426 408-1160 0-719-425-1154-425-434-1131-434-810 0-1238 620-428 621-428 1799 0 1106 525 1764t1409 658q238 0 480-47t505-140z"/>
</defs>
<use xlink:href="#c"/>
<use transform="translate(63.6)" xlink:href="#b"/>
<use transform="translate(127)" xlink:href="#c"/>
<use transform="translate(191)" xlink:href="#n"/>
<use transform="translate(254)" xlink:href="#f"/>
<use transform="translate(291)" xlink:href="#b"/>
<use transform="translate(354)" xlink:href="#ah"/>
<use transform="translate(418)" xlink:href="#f"/>
<use transform="translate(454)" xlink:href="#b"/>
<use transform="translate(518)" xlink:href="#e"/>
</g>
<path d="m240 349v-313" clip-path="url(#g)" fill="none" stroke="#b0b0b0" stroke-linecap="square" stroke-width=".8"/>
<use x="239.828847" y="348.52899" stroke="#000000" stroke-width=".8" xlink:href="#j"/>
<g transform="translate(211 363) scale(.1 -.1)">
<use xlink:href="#c"/>
<use transform="translate(63.6)" xlink:href="#b"/>
<use transform="translate(127)" xlink:href="#c"/>
<use transform="translate(191)" xlink:href="#n"/>
<use transform="translate(254)" xlink:href="#f"/>
<use transform="translate(291)" xlink:href="#b"/>
<use transform="translate(354)" xlink:href="#ah"/>
<use transform="translate(418)" xlink:href="#f"/>
<use transform="translate(454)" xlink:href="#e"/>
<use transform="translate(518)" xlink:href="#k"/>
</g>
<path d="m312 349v-313" clip-path="url(#g)" fill="none" stroke="#b0b0b0" stroke-linecap="square" stroke-width=".8"/>
<use x="311.744981" y="348.52899" stroke="#000000" stroke-width=".8" xlink:href="#j"/>
<g transform="translate(283 363) scale(.1 -.1)">
<defs>
<path id="al" transform="scale(.0156)" d="m525 4666h3e3v-269l-1694-4397h-659l1594 4134h-2241v532z"/>
</defs>
<use xlink:href="#c"/>
<use transform="translate(63.6)" xlink:href="#b"/>
<use transform="translate(127)" xlink:href="#c"/>
<use transform="translate(191)" xlink:href="#n"/>
<use transform="translate(254)" xlink:href="#f"/>
<use transform="translate(291)" xlink:href="#b"/>
<use transform="translate(354)" xlink:href="#al"/>
<use transform="translate(418)" xlink:href="#f"/>
<use transform="translate(454)" xlink:href="#b"/>
<use transform="translate(518)" xlink:href="#e"/>
</g>
<path d="m375 349v-313" clip-path="url(#g)" fill="none" stroke="#b0b0b0" stroke-linecap="square" stroke-width=".8"/>
<use x="374.671598" y="348.52899" stroke="#000000" stroke-width=".8" xlink:href="#j"/>
<g transform="translate(346 363) scale(.1 -.1)">
<use xlink:href="#c"/>
<use transform="translate(63.6)" xlink:href="#b"/>
<use transform="translate(127)" xlink:href="#c"/>
<use transform="translate(191)" xlink:href="#n"/>
<use transform="translate(254)" xlink:href="#f"/>
<use transform="translate(291)" xlink:href="#b"/>
<use transform="translate(354)" xlink:href="#al"/>
<use transform="translate(418)" xlink:href="#f"/>
<use transform="translate(454)" xlink:href="#e"/>
<use transform="translate(518)" xlink:href="#k"/>
</g>
<path d="m451 349v-313" clip-path="url(#g)" fill="none" stroke="#b0b0b0" stroke-linecap="square" stroke-width=".8"/>
<use x="451.08249" y="348.52899" stroke="#000000" stroke-width=".8" xlink:href="#j"/>
<g transform="translate(422 363) scale(.1 -.1)">
<defs>
<path id="ag" transform="scale(.0156)" d="m2034 2216q-450 0-708-241-257-241-257-662 0-422 257-663 258-241 708-241t709 242q260 243 260 662 0 421-258 662-257 241-711 241zm-631 268q-406 100-633 378-226 279-226 679 0 559 398 884 399 325 1092 325 697 0 1094-325t397-884q0-400-227-679-226-278-629-378 456-106 710-416 255-309 255-755 0-679-414-1042-414-362-1186-362-771 0-1186 362-414 363-414 1042 0 446 256 755 257 310 713 416zm-231 997q0-362 226-565 227-203 636-203 407 0 636 203 230 203 230 565 0 363-230 566-229 203-636 203-409 0-636-203-226-203-226-566z"/>
</defs>
<use xlink:href="#c"/>
<use transform="translate(63.6)" xlink:href="#b"/>
<use transform="translate(127)" xlink:href="#c"/>
<use transform="translate(191)" xlink:href="#n"/>
<use transform="translate(254)" xlink:href="#f"/>
<use transform="translate(291)" xlink:href="#b"/>
<use transform="translate(354)" xlink:href="#ag"/>
<use transform="translate(418)" xlink:href="#f"/>
<use transform="translate(454)" xlink:href="#b"/>
<use transform="translate(518)" xlink:href="#e"/>
</g>
<path d="m514 349v-313" clip-path="url(#g)" fill="none" stroke="#b0b0b0" stroke-linecap="square" stroke-width=".8"/>
<use x="514.009107" y="348.52899" stroke="#000000" stroke-width=".8" xlink:href="#j"/>
<g transform="translate(485 363) scale(.1 -.1)">
<use xlink:href="#c"/>
<use transform="translate(63.6)" xlink:href="#b"/>
<use transform="translate(127)" xlink:href="#c"/>
<use transform="translate(191)" xlink:href="#n"/>
<use transform="translate(254)" xlink:href="#f"/>
<use transform="translate(291)" xlink:href="#b"/>
<use transform="translate(354)" xlink:href="#ag"/>
<use transform="translate(418)" xlink:href="#f"/>
<use transform="translate(454)" xlink:href="#e"/>
<use transform="translate(518)" xlink:href="#k"/>
</g>
<path d="m590 349v-313" clip-path="url(#g)" fill="none" stroke="#b0b0b0" stroke-linecap="square" stroke-width=".8"/>
<use x="590.419999" y="348.52899" stroke="#000000" stroke-width=".8" xlink:href="#j"/>
<g transform="translate(561 363) scale(.1 -.1)">
<defs>
<path id="ac" transform="scale(.0156)" d="m703 97v575q238-113 481-172 244-59 479-59 625 0 954 420 330 420 377 1277-181-269-460-413-278-144-615-144-700 0-1108 423-408 424-408 1159 0 718 425 1152 425 435 1131 435 810 0 1236-621 427-620 427-1801 0-1103-524-1761-523-658-1407-658-238 0-482 47-243 47-506 141zm1256 1978q425 0 673 290 249 291 249 798 0 503-249 795-248 292-673 292t-673-292-248-795q0-507 248-798 248-290 673-290z"/>
</defs>
<use xlink:href="#c"/>
<use transform="translate(63.6)" xlink:href="#b"/>
<use transform="translate(127)" xlink:href="#c"/>
<use transform="translate(191)" xlink:href="#n"/>
<use transform="translate(254)" xlink:href="#f"/>
<use transform="translate(291)" xlink:href="#b"/>
<use transform="translate(354)" xlink:href="#ac"/>
<use transform="translate(418)" xlink:href="#f"/>
<use transform="translate(454)" xlink:href="#b"/>
<use transform="translate(518)" xlink:href="#e"/>
</g>
<path d="m653 349v-313" clip-path="url(#g)" fill="none" stroke="#b0b0b0" stroke-linecap="square" stroke-width=".8"/>
<use x="653.346616" y="348.52899" stroke="#000000" stroke-width=".8" xlink:href="#j"/>
<g transform="translate(624 363) scale(.1 -.1)">
<use xlink:href="#c"/>
<use transform="translate(63.6)" xlink:href="#b"/>
<use transform="translate(127)" xlink:href="#c"/>
<use transform="translate(191)" xlink:href="#n"/>
<use transform="translate(254)" xlink:href="#f"/>
<use transform="translate(291)" xlink:href="#b"/>
<use transform="translate(354)" xlink:href="#ac"/>
<use transform="translate(418)" xlink:href="#f"/>
<use transform="translate(454)" xlink:href="#e"/>
<use transform="translate(518)" xlink:href="#k"/>
</g>
<path d="m40.6 349h671" clip-path="url(#g)" fill="none" stroke="#b0b0b0" stroke-linecap="square" stroke-width=".8"/>
<defs>
<path id="l" d="m0 0h-3.5" stroke="#000" stroke-width=".8"/>
</defs>
<use x="40.645553" y="348.52899" stroke="#000000" stroke-width=".8" xlink:href="#l"/>
<g transform="translate(3 352) scale(.1 -.1)">
<defs>
<path id="h" transform="scale(.0156)" d="m684 794h660v-794h-660v794z"/>
<path id="m" transform="scale(.0156)" d="m4488 3438-1429-1435 1429-1428-372-378-1435 1434-1434-1434-369 378 1425 1428-1425 1435 369 378 1434-1435 1435 1435 372-378z"/>
</defs>
<use xlink:href="#b"/>
<use transform="translate(63.6)" xlink:href="#h"/>
<use transform="translate(95.4)" xlink:href="#ac"/>
<use transform="translate(159)" xlink:href="#b"/>
<use transform="translate(223)" xlink:href="#m"/>
</g>
<path d="m40.6 309h671" clip-path="url(#g)" fill="none" stroke="#b0b0b0" stroke-linecap="square" stroke-width=".8"/>
<use x="40.645553" y="309.429441" stroke="#000000" stroke-width=".8" xlink:href="#l"/>
<g transform="translate(3 313) scale(.1 -.1)">
<use xlink:href="#b"/>
<use transform="translate(63.6)" xlink:href="#h"/>
<use transform="translate(95.4)" xlink:href="#ac"/>
<use transform="translate(159)" xlink:href="#k"/>
<use transform="translate(223)" xlink:href="#m"/>
</g>
<path d="m40.6 270h671" clip-path="url(#g)" fill="none" stroke="#b0b0b0" stroke-linecap="square" stroke-width=".8"/>
<use x="40.645553" y="270.329891" stroke="#000000" stroke-width=".8" xlink:href="#l"/>
<g transform="translate(3 274) scale(.1 -.1)">
<use xlink:href="#e"/>
<use transform="translate(63.6)" xlink:href="#h"/>
<use transform="translate(95.4)" xlink:href="#b"/>
<use transform="translate(159)" xlink:href="#b"/>
<use transform="translate(223)" xlink:href="#m"/>
</g>
<path d="m40.6 231h671" clip-path="url(#g)" fill="none" stroke="#b0b0b0" stroke-linecap="square" stroke-width=".8"/>
<use x="40.645553" y="231.230342" stroke="#000000" stroke-width=".8" xlink:href="#l"/>
<g transform="translate(3 235) scale(.1 -.1)">
<use xlink:href="#e"/>
<use transform="translate(63.6)" xlink:href="#h"/>
<use transform="translate(95.4)" xlink:href="#b"/>
<use transform="translate(159)" xlink:href="#k"/>
<use transform="translate(223)" xlink:href="#m"/>
</g>
<path d="m40.6 192h671" clip-path="url(#g)" fill="none" stroke="#b0b0b0" stroke-linecap="square" stroke-width=".8"/>
<use x="40.645553" y="192.130792" stroke="#000000" stroke-width=".8" xlink:href="#l"/>
<g transform="translate(3 196) scale(.1 -.1)">
<use xlink:href="#e"/>
<use transform="translate(63.6)" xlink:href="#h"/>
<use transform="translate(95.4)" xlink:href="#e"/>
<use transform="translate(159)" xlink:href="#b"/>
<use transform="translate(223)" xlink:href="#m"/>
</g>
<path d="m40.6 153h671" clip-path="url(#g)" fill="none" stroke="#b0b0b0" stroke-linecap="square" stroke-width=".8"/>
<use x="40.645553" y="153.031243" stroke="#000000" stroke-width=".8" xlink:href="#l"/>
<g transform="translate(3 157) scale(.1 -.1)">
<use xlink:href="#e"/>
<use transform="translate(63.6)" xlink:href="#h"/>
<use transform="translate(95.4)" xlink:href="#e"/>
<use transform="translate(159)" xlink:href="#k"/>
<use transform="translate(223)" xlink:href="#m"/>
</g>
<path d="m40.6 114h671" clip-path="url(#g)" fill="none" stroke="#b0b0b0" stroke-linecap="square" stroke-width=".8"/>
<use x="40.645553" y="113.931694" stroke="#000000" stroke-width=".8" xlink:href="#l"/>
<g transform="translate(3 118) scale(.1 -.1)">
<use xlink:href="#e"/>
<use transform="translate(63.6)" xlink:href="#h"/>
<use transform="translate(95.4)" xlink:href="#c"/>
<use transform="translate(159)" xlink:href="#b"/>
<use transform="translate(223)" xlink:href="#m"/>
</g>
<path d="m40.6 74.8h671" clip-path="url(#g)" fill="none" stroke="#b0b0b0" stroke-linecap="square" stroke-width=".8"/>
<use x="40.645553" y="74.832144" stroke="#000000" stroke-width=".8" xlink:href="#l"/>
<g transform="translate(3 78.6) scale(.1 -.1)">
<use xlink:href="#e"/>
<use transform="translate(63.6)" xlink:href="#h"/>
<use transform="translate(95.4)" xlink:href="#c"/>
<use transform="translate(159)" xlink:href="#k"/>
<use transform="translate(223)" xlink:href="#m"/>
</g>
<path d="m40.6 35.7h671" clip-path="url(#g)" fill="none" stroke="#b0b0b0" stroke-linecap="square" stroke-width=".8"/>
<use x="40.645553" y="35.732595" stroke="#000000" stroke-width=".8" xlink:href="#l"/>
<g transform="translate(3 39.5) scale(.1 -.1)">
<defs>
<path id="r" transform="scale(.0156)" d="m2597 2516q453-97 707-404 255-306 255-756 0-690-475-1069-475-378-1350-378-293 0-604 58t-642 174v609q262-153 574-231 313-78 654-78 593 0 904 234t311 681q0 413-289 645-289 233-804 233h-544v519h569q465 0 712 186t247 536q0 359-255 551-254 193-729 193-260 0-557-57-297-56-653-174v562q360 100 674 150t592 50q719 0 1137-327 419-326 419-882 0-388-222-655t-631-370z"/>
</defs>
<use xlink:href="#e"/>
<use transform="translate(63.6)" xlink:href="#h"/>
<use transform="translate(95.4)" xlink:href="#r"/>
<use transform="translate(159)" xlink:href="#b"/>
<use transform="translate(223)" xlink:href="#m"/>
</g>
<path d="m71.2 270 443-7.82h103" clip-path="url(#g)" fill="none" stroke="#1f77b4" stroke-linecap="square" stroke-opacity=".9" stroke-width="1.5"/>
<defs>
<path id="a" d="m-2.5 2.5h5v-5h-5z" stroke="#1f77b4" stroke-opacity=".9"/>
</defs>
<g clip-path="url(#g)" fill="#1f77b4" fill-opacity=".9" stroke="#1f77b4" stroke-opacity=".9">
<use x="71.153675" y="270.329891" xlink:href="#a"/>
<use x="513.919576" y="262.509981" xlink:href="#a"/>
<use x="617.249181" y="262.509981" xlink:href="#a"/>
</g>
<g stroke="#1f77b4" stroke-opacity=".9">
<path d="m617 255h64.1" clip-path="url(#g)" fill="none" stroke-dasharray="1.5,2.475" stroke-width="1.5"/>
<g clip-path="url(#g)" fill="#1f77b4" fill-opacity=".9">
<use x="617.249181" y="254.690071" xlink:href="#a"/>
<use x="681.316135" y="254.690071" xlink:href="#a"/>
</g>
</g>
<path d="m617 223" clip-path="url(#g)" fill="none" stroke="#2ca02c" stroke-linecap="square" stroke-opacity=".9" stroke-width="1.5"/>
<defs>
<path id="d" d="m0-2.5-2.5 5h5z" stroke="#2ca02c" stroke-opacity=".9"/>
</defs>
<g clip-path="url(#g)">
<use x="617.249181" y="223.410432" fill="#2ca02c" fill-opacity=".9" stroke="#2ca02c" stroke-opacity=".9" xlink:href="#d"/>
</g>
<path d="m40.6 349v-313" fill="none" stroke="#000" stroke-linecap="square" stroke-width=".8"/>
<path d="m712 349v-313" fill="none" stroke="#000" stroke-linecap="square" stroke-width=".8"/>
<path d="m40.6 349h671" fill="none" stroke="#000" stroke-linecap="square" stroke-width=".8"/>
<path d="m40.6 35.7h671" fill="none" stroke="#000" stroke-linecap="square" stroke-width=".8"/>
<path d="m71.6 261-0.348 7.35" fill="none" stroke="#888" stroke-linecap="round"/>
<g transform="translate(74.2 257) rotate(-90) scale(.08 -.08)" fill="#888">
<defs>
<path id="aj" transform="scale(.0156)" d="m3116 1747q0 634-261 995t-717 361q-457 0-718-361t-261-995 261-995 718-361q456 0 717 361t261 995zm-1957 1222q182 312 458 463 277 152 661 152 638 0 1036-506 399-506 399-1331t-399-1332q-398-506-1036-506-384 0-661 152-276 152-458 464v-525h-578v4863h578v-1894z"/>
</defs>
<use xlink:href="#aj"/>
<use transform="translate(63.5)" xlink:href="#e"/>
</g>
<path d="m618 253-0.326 7.34" fill="none" stroke="#888" stroke-linecap="round"/>
<g transform="translate(620 249) rotate(-90) scale(.08 -.08)" fill="#888">
<defs>
<path id="p" transform="scale(.0156)" d="m2631 2963q-97 56-211 82-114 27-251 27-488 0-749-317t-261-911v-1844h-578v3500h578v-544q182 319 472 473 291 155 707 155 59 0 131-8 72-7 159-23l3-590z"/>
<path id="ab" transform="scale(.0156)" d="m3122 3366v-538q-244 135-489 202t-495 67q-560 0-870-355-309-354-309-995t309-996q310-354 870-354 250 0 495 67t489 202v-532q-241-112-499-168-257-57-548-57-791 0-1257 497-465 497-465 1341 0 856 470 1346 471 491 1290 491 265 0 518-55 253-54 491-163z"/>
</defs>
<use xlink:href="#p"/>
<use transform="translate(38.9)" xlink:href="#ab"/>
<use transform="translate(93.8)" xlink:href="#c"/>
</g>
<g clip-path="url(#g)">
<g transform="translate(58.2 262) rotate(-90) scale(.1 -.1)">
<defs>
<path id="x" transform="scale(.0156)" d="m3328 2828q216 388 516 572t706 184q547 0 844-383 297-382 297-1088v-2113h-578v2094q0 503-179 746-178 244-543 244-447 0-707-297-259-296-259-809v-1978h-578v2094q0 506-178 748t-550 242q-441 0-701-298-259-298-259-808v-1978h-578v3500h578v-544q197 322 472 475t653 153q382 0 649-194 267-193 395-562z"/>
<path id="q" transform="scale(.0156)" d="m1959 3097q-462 0-731-361t-269-989 267-989q268-361 733-361 460 0 728 362 269 363 269 988 0 622-269 986-268 364-728 364zm0 487q750 0 1178-488 429-487 429-1349 0-859-429-1349-428-489-1178-489-753 0-1180 489-426 490-426 1349 0 862 426 1349 427 488 1180 488z"/>
<path id="u" transform="scale(.0156)" d="m3597 1894v-281h-2644q38-594 358-905t892-311q331 0 642 81t618 244v-544q-310-131-635-200t-659-69q-838 0-1327 487-489 488-489 1320 0 859 464 1363 464 505 1252 505 706 0 1117-455 411-454 411-1235zm-575 169q-6 471-264 752-258 282-683 282-481 0-770-272t-333-766l2050 4z"/>
<path id="am" transform="scale(.0156)" d="m8863 2147v-281l-1229-1228-375 375 729 728h-7622v531h7622l-729 728 375 375 1229-1228z"/>
</defs>
<use xlink:href="#x"/>
<use transform="translate(97.4)" xlink:href="#q"/>
<use transform="translate(159)" xlink:href="#p"/>
<use transform="translate(197)" xlink:href="#u"/>
<use transform="translate(259)" xlink:href="#DejaVuSans-20"/>
<use transform="translate(291)" xlink:href="#am"/>
</g>
</g>
<g clip-path="url(#g)">
<g transform="translate(58.2 317) rotate(-90) scale(.1 -.1)">
<defs>
<path id="an" transform="scale(.0156)" d="m313 1866v281l1228 1228 375-375-728-728h7621v-531h-7621l728-728-375-375-1228 1228z"/>
<path id="t" transform="scale(.0156)" d="m603 4863h575v-4863h-575v4863z"/>
<path id="o" transform="scale(.0156)" d="m2834 3397v-544q-243 125-506 187-262 63-544 63-428 0-642-131t-214-394q0-200 153-314t616-217l197-44q612-131 870-370t258-667q0-488-386-773-386-284-1061-284-281 0-586 55t-642 164v594q319-166 628-249 309-82 613-82 406 0 624 139 219 139 219 392 0 234-158 359-157 125-692 241l-200 47q-534 112-772 345-237 233-237 639 0 494 350 762 350 269 994 269 318 0 599-47 282-46 519-140z"/>
</defs>
<use xlink:href="#an"/>
<use transform="translate(143)" xlink:href="#DejaVuSans-20"/>
<use transform="translate(175)" xlink:href="#t"/>
<use transform="translate(203)" xlink:href="#u"/>
<use transform="translate(264)" xlink:href="#o"/>
<use transform="translate(317)" xlink:href="#o"/>
</g>
</g>
<g transform="translate(303 29.7) scale(.12 -.12)">
<defs>
<path id="ak" transform="scale(.0156)" d="m1259 4147v-1753h794q441 0 681 228 241 228 241 650 0 419-241 647-240 228-681 228h-794zm-631 519h1425q785 0 1186-355 402-355 402-1039 0-691-402-1044-401-353-1186-353h-794v-1875h-631v4666z"/>
<path id="ad" transform="scale(.0156)" d="m2059-325q-243-625-475-815-231-191-618-191h-460v481h338q237 0 368 113 132 112 291 531l103 262-1415 3444h609l1094-2737 1094 2737h609l-1538-3825z"/>
<path id="ae" transform="scale(.0156)" d="m1172 4494v-994h1184v-447h-1184v-1900q0-428 117-550t477-122h590v-481h-590q-666 0-919 248-253 249-253 905v1900h-422v447h422v994h578z"/>
<path id="af" transform="scale(.0156)" d="m3513 2113v-2113h-575v2094q0 497-194 743-194 247-581 247-466 0-735-297-269-296-269-809v-1978h-578v4863h578v-1907q207 316 486 472 280 156 646 156 603 0 912-373 310-373 310-1098z"/>
<path id="s" transform="scale(.0156)" d="m3513 2113v-2113h-575v2094q0 497-194 743-194 247-581 247-466 0-735-297-269-296-269-809v-1978h-578v3500h578v-544q207 316 486 472 280 156 646 156 603 0 912-373 310-373 310-1098z"/>
<path id="w" transform="scale(.0156)" d="m3513 3500-1266-1703 1331-1797h-678l-1019 1375-1018-1375h-679l1360 1831-1244 1669h678l928-1247 928 1247h679z"/>
<path id="z" transform="scale(.0156)" d="m191 3500h609l1094-2937 1094 2937h609l-1313-3500h-781l-1312 3500z"/>
</defs>
<use xlink:href="#ak"/>
<use transform="translate(60.3)" xlink:href="#ad"/>
<use transform="translate(119)" xlink:href="#ae"/>
<use transform="translate(159)" xlink:href="#af"/>
<use transform="translate(222)" xlink:href="#q"/>
<use transform="translate(283)" xlink:href="#s"/>
<use transform="translate(347)" xlink:href="#DejaVuSans-20"/>
<use transform="translate(378)" xlink:href="#r"/>
<use transform="translate(442)" xlink:href="#h"/>
<use transform="translate(474)" xlink:href="#e"/>
<use transform="translate(537)" xlink:href="#r"/>
<use transform="translate(601)" xlink:href="#h"/>
<use transform="translate(633)" xlink:href="#w"/>
<use transform="translate(692)" xlink:href="#DejaVuSans-20"/>
<use transform="translate(724)" xlink:href="#z"/>
<use transform="translate(783)" xlink:href="#o"/>
<use transform="translate(835)" xlink:href="#h"/>
<use transform="translate(867)" xlink:href="#DejaVuSans-20"/>
<use transform="translate(899)" xlink:href="#r"/>
<use transform="translate(962)" xlink:href="#h"/>
<use transform="translate(994)" xlink:href="#e"/>
<use transform="translate(1058)" xlink:href="#c"/>
<use transform="translate(1121)" xlink:href="#h"/>
<use transform="translate(1153)" xlink:href="#ah"/>
</g>
<path d="m47.6 87.8h82.6q2 0 2-2v-43q0-2-2-2h-82.6q-2 0-2 2v43q0 2 2 2z" fill="#fff" opacity=".8" stroke="#ccc"/>
<path d="m49.6 48.8h10 10" fill="none" stroke="#1f77b4" stroke-linecap="square" stroke-opacity=".9" stroke-width="1.5"/>
<use x="59.645553" y="48.831032" fill="#1f77b4" fill-opacity=".9" stroke="#1f77b4" stroke-opacity=".9" xlink:href="#a"/>
<g transform="translate(77.6 52.3) scale(.1 -.1)">
<defs>
<path id="aa" transform="scale(.0156)" d="m603 3500h575v-3500h-575v3500zm0 1363h575v-729h-575v729z"/>
<path id="v" transform="scale(.0156)" d="m544 1381v2119h575v-2097q0-497 193-746 194-248 582-248 465 0 735 297 271 297 271 810v1984h575v-3500h-575v538q-209-319-486-474-276-155-642-155-603 0-916 375-312 375-312 1097zm1447 2203z"/>
</defs>
<use xlink:href="#t"/>
<use transform="translate(27.8)" xlink:href="#aa"/>
<use transform="translate(55.6)" xlink:href="#s"/>
<use transform="translate(119)" xlink:href="#v"/>
<use transform="translate(182)" xlink:href="#w"/>
</g>
<path d="m49.6 63.5h10 10" fill="none" stroke="#1f77b4" stroke-dasharray="1.5,2.475" stroke-opacity=".9" stroke-width="1.5"/>
<use x="59.645553" y="63.509157" fill="#1f77b4" fill-opacity=".9" stroke="#1f77b4" stroke-opacity=".9" xlink:href="#a"/>
<g transform="translate(77.6 67) scale(.1 -.1)">
<use xlink:href="#t"/>
<use transform="translate(27.8)" xlink:href="#aa"/>
<use transform="translate(55.6)" xlink:href="#s"/>
<use transform="translate(119)" xlink:href="#v"/>
<use transform="translate(182)" xlink:href="#w"/>
<use transform="translate(242)" xlink:href="#f"/>
<use transform="translate(275)" xlink:href="#z"/>
<use transform="translate(334)" xlink:href="#v"/>
<use transform="translate(398)" xlink:href="#t"/>
<use transform="translate(425)" xlink:href="#ae"/>
<use transform="translate(465)" xlink:href="#p"/>
</g>
<path d="m49.6 78.2h10 10" fill="none" stroke="#2ca02c" stroke-linecap="square" stroke-opacity=".9" stroke-width="1.5"/>
<use x="59.645553" y="78.187282" fill="#2ca02c" fill-opacity=".9" stroke="#2ca02c" stroke-opacity=".9" xlink:href="#d"/>
<g transform="translate(77.6 81.7) scale(.1 -.1)">
<defs>
<path id="y" transform="scale(.0156)" d="m2194 1759q-697 0-966-159t-269-544q0-306 202-486 202-179 548-179 479 0 768 339t289 901v128h-572zm1147 238v-2e3h-575v531q-197-318-491-470t-719-152q-537 0-855 302-317 302-317 808 0 590 395 890 396 300 1180 300h807v57q0 397-261 614t-733 217q-300 0-585-72-284-72-546-216v532q315 122 612 182 297 61 578 61 760 0 1135-394 375-393 375-1193z"/>
</defs>
<use xlink:href="#x"/>
<use transform="translate(97.4)" xlink:href="#y"/>
<use transform="translate(159)" xlink:href="#ab"/>
<use transform="translate(214)" xlink:href="#q"/>
<use transform="translate(275)" xlink:href="#o"/>
</g>
<path d="m40.6 700h671v-313h-671z" fill="#fff"/>
<path d="m90.3 700v-313" clip-path="url(#i)" fill="none" stroke="#b0b0b0" stroke-linecap="square" stroke-width=".8"/>
<use x="90.258599" y="700.321635" stroke="#000000" stroke-width=".8" xlink:href="#j"/>
<g transform="translate(69.4 715) scale(.1 -.1)">
<use xlink:href="#c"/>
<use transform="translate(63.6)" xlink:href="#b"/>
<use transform="translate(127)" xlink:href="#c"/>
<use transform="translate(191)" xlink:href="#n"/>
<use transform="translate(254)" xlink:href="#f"/>
<use transform="translate(291)" xlink:href="#b"/>
<use transform="translate(354)" xlink:href="#ag"/>
</g>
<path d="m159 700v-313" clip-path="url(#i)" fill="none" stroke="#b0b0b0" stroke-linecap="square" stroke-width=".8"/>
<use x="159.047786" y="700.321635" stroke="#000000" stroke-width=".8" xlink:href="#j"/>
<g transform="translate(138 715) scale(.1 -.1)">
<use xlink:href="#c"/>
<use transform="translate(63.6)" xlink:href="#b"/>
<use transform="translate(127)" xlink:href="#c"/>
<use transform="translate(191)" xlink:href="#n"/>
<use transform="translate(254)" xlink:href="#f"/>
<use transform="translate(291)" xlink:href="#b"/>
<use transform="translate(354)" xlink:href="#ac"/>
</g>
<path d="m226 700v-313" clip-path="url(#i)" fill="none" stroke="#b0b0b0" stroke-linecap="square" stroke-width=".8"/>
<use x="225.617968" y="700.321635" stroke="#000000" stroke-width=".8" xlink:href="#j"/>
<g transform="translate(205 715) scale(.1 -.1)">
<use xlink:href="#c"/>
<use transform="translate(63.6)" xlink:href="#b"/>
<use transform="translate(127)" xlink:href="#c"/>
<use transform="translate(191)" xlink:href="#n"/>
<use transform="translate(254)" xlink:href="#f"/>
<use transform="translate(291)" xlink:href="#e"/>
<use transform="translate(354)" xlink:href="#b"/>
</g>
<path d="m294 700v-313" clip-path="url(#i)" fill="none" stroke="#b0b0b0" stroke-linecap="square" stroke-width=".8"/>
<use x="294.407156" y="700.321635" stroke="#000000" stroke-width=".8" xlink:href="#j"/>
<g transform="translate(274 715) scale(.1 -.1)">
<use xlink:href="#c"/>
<use transform="translate(63.6)" xlink:href="#b"/>
<use transform="translate(127)" xlink:href="#c"/>
<use transform="translate(191)" xlink:href="#n"/>
<use transform="translate(254)" xlink:href="#f"/>
<use transform="translate(291)" xlink:href="#e"/>
<use transform="translate(354)" xlink:href="#e"/>
</g>
<path d="m361 700v-313" clip-path="url(#i)" fill="none" stroke="#b0b0b0" stroke-linecap="square" stroke-width=".8"/>
<use x="360.977338" y="700.321635" stroke="#000000" stroke-width=".8" xlink:href="#j"/>
<g transform="translate(340 715) scale(.1 -.1)">
<use xlink:href="#c"/>
<use transform="translate(63.6)" xlink:href="#b"/>
<use transform="translate(127)" xlink:href="#c"/>
<use transform="translate(191)" xlink:href="#n"/>
<use transform="translate(254)" xlink:href="#f"/>
<use transform="translate(291)" xlink:href="#e"/>
<use transform="translate(354)" xlink:href="#c"/>
</g>
<path d="m430 700v-313" clip-path="url(#i)" fill="none" stroke="#b0b0b0" stroke-linecap="square" stroke-width=".8"/>
<use x="429.766526" y="700.321635" stroke="#000000" stroke-width=".8" xlink:href="#j"/>
<g transform="translate(409 715) scale(.1 -.1)">
<use xlink:href="#c"/>
<use transform="translate(63.6)" xlink:href="#b"/>
<use transform="translate(127)" xlink:href="#c"/>
<use transform="translate(191)" xlink:href="#k"/>
<use transform="translate(254)" xlink:href="#f"/>
<use transform="translate(291)" xlink:href="#b"/>
<use transform="translate(354)" xlink:href="#e"/>
</g>
<path d="m499 700v-313" clip-path="url(#i)" fill="none" stroke="#b0b0b0" stroke-linecap="square" stroke-width=".8"/>
<use x="498.555714" y="700.321635" stroke="#000000" stroke-width=".8" xlink:href="#j"/>
<g transform="translate(478 715) scale(.1 -.1)">
<use xlink:href="#c"/>
<use transform="translate(63.6)" xlink:href="#b"/>
<use transform="translate(127)" xlink:href="#c"/>
<use transform="translate(191)" xlink:href="#k"/>
<use transform="translate(254)" xlink:href="#f"/>
<use transform="translate(291)" xlink:href="#b"/>
<use transform="translate(354)" xlink:href="#c"/>
</g>
<path d="m561 700v-313" clip-path="url(#i)" fill="none" stroke="#b0b0b0" stroke-linecap="square" stroke-width=".8"/>
<use x="560.687883" y="700.321635" stroke="#000000" stroke-width=".8" xlink:href="#j"/>
<g transform="translate(540 715) scale(.1 -.1)">
<use xlink:href="#c"/>
<use transform="translate(63.6)" xlink:href="#b"/>
<use transform="translate(127)" xlink:href="#c"/>
<use transform="translate(191)" xlink:href="#k"/>
<use transform="translate(254)" xlink:href="#f"/>
<use transform="translate(291)" xlink:href="#b"/>
<use transform="translate(354)" xlink:href="#r"/>
</g>
<path d="m629 700v-313" clip-path="url(#i)" fill="none" stroke="#b0b0b0" stroke-linecap="square" stroke-width=".8"/>
<use x="629.477071" y="700.321635" stroke="#000000" stroke-width=".8" xlink:href="#j"/>
<g transform="translate(609 715) scale(.1 -.1)">
<use xlink:href="#c"/>
<use transform="translate(63.6)" xlink:href="#b"/>
<use transform="translate(127)" xlink:href="#c"/>
<use transform="translate(191)" xlink:href="#k"/>
<use transform="translate(254)" xlink:href="#f"/>
<use transform="translate(291)" xlink:href="#b"/>
<use transform="translate(354)" xlink:href="#n"/>
</g>
<path d="m696 700v-313" clip-path="url(#i)" fill="none" stroke="#b0b0b0" stroke-linecap="square" stroke-width=".8"/>
<use x="696.047253" y="700.321635" stroke="#000000" stroke-width=".8" xlink:href="#j"/>
<g transform="translate(675 715) scale(.1 -.1)">
<use xlink:href="#c"/>
<use transform="translate(63.6)" xlink:href="#b"/>
<use transform="translate(127)" xlink:href="#c"/>
<use transform="translate(191)" xlink:href="#k"/>
<use transform="translate(254)" xlink:href="#f"/>
<use transform="translate(291)" xlink:href="#b"/>
<use transform="translate(354)" xlink:href="#k"/>
</g>
<path d="m40.6 660h671" clip-path="url(#i)" fill="none" stroke="#b0b0b0" stroke-linecap="square" stroke-width=".8"/>
<use x="40.645553" y="660.252675" stroke="#000000" stroke-width=".8" xlink:href="#l"/>
<g transform="translate(3 664) scale(.1 -.1)">
<use xlink:href="#e"/>
<use transform="translate(63.6)" xlink:href="#h"/>
<use transform="translate(95.4)" xlink:href="#b"/>
<use transform="translate(159)" xlink:href="#b"/>
<use transform="translate(223)" xlink:href="#m"/>
</g>
<path d="m40.6 617h671" clip-path="url(#i)" fill="none" stroke="#b0b0b0" stroke-linecap="square" stroke-width=".8"/>
<use x="40.645553" y="617.167772" stroke="#000000" stroke-width=".8" xlink:href="#l"/>
<g transform="translate(3 621) scale(.1 -.1)">
<use xlink:href="#e"/>
<use transform="translate(63.6)" xlink:href="#h"/>
<use transform="translate(95.4)" xlink:href="#b"/>
<use transform="translate(159)" xlink:href="#k"/>
<use transform="translate(223)" xlink:href="#m"/>
</g>
<path d="m40.6 574h671" clip-path="url(#i)" fill="none" stroke="#b0b0b0" stroke-linecap="square" stroke-width=".8"/>
<use x="40.645553" y="574.08287" stroke="#000000" stroke-width=".8" xlink:href="#l"/>
<g transform="translate(3 578) scale(.1 -.1)">
<use xlink:href="#e"/>
<use transform="translate(63.6)" xlink:href="#h"/>
<use transform="translate(95.4)" xlink:href="#e"/>
<use transform="translate(159)" xlink:href="#b"/>
<use transform="translate(223)" xlink:href="#m"/>
</g>
<path d="m40.6 531h671" clip-path="url(#i)" fill="none" stroke="#b0b0b0" stroke-linecap="square" stroke-width=".8"/>
<use x="40.645553" y="530.997967" stroke="#000000" stroke-width=".8" xlink:href="#l"/>
<g transform="translate(3 535) scale(.1 -.1)">
<use xlink:href="#e"/>
<use transform="translate(63.6)" xlink:href="#h"/>
<use transform="translate(95.4)" xlink:href="#e"/>
<use transform="translate(159)" xlink:href="#k"/>
<use transform="translate(223)" xlink:href="#m"/>
</g>
<path d="m40.6 488h671" clip-path="url(#i)" fill="none" stroke="#b0b0b0" stroke-linecap="square" stroke-width=".8"/>
<use x="40.645553" y="487.913064" stroke="#000000" stroke-width=".8" xlink:href="#l"/>
<g transform="translate(3 492) scale(.1 -.1)">
<use xlink:href="#e"/>
<use transform="translate(63.6)" xlink:href="#h"/>
<use transform="translate(95.4)" xlink:href="#c"/>
<use transform="translate(159)" xlink:href="#b"/>
<use transform="translate(223)" xlink:href="#m"/>
</g>
<path d="m40.6 445h671" clip-path="url(#i)" fill="none" stroke="#b0b0b0" stroke-linecap="square" stroke-width=".8"/>
<use x="40.645553" y="444.828161" stroke="#000000" stroke-width=".8" xlink:href="#l"/>
<g transform="translate(3 449) scale(.1 -.1)">
<use xlink:href="#e"/>
<use transform="translate(63.6)" xlink:href="#h"/>
<use transform="translate(95.4)" xlink:href="#c"/>
<use transform="translate(159)" xlink:href="#k"/>
<use transform="translate(223)" xlink:href="#m"/>
</g>
<path d="m40.6 402h671" clip-path="url(#i)" fill="none" stroke="#b0b0b0" stroke-linecap="square" stroke-width=".8"/>
<use x="40.645553" y="401.743258" stroke="#000000" stroke-width=".8" xlink:href="#l"/>
<g transform="translate(3 406) scale(.1 -.1)">
<use xlink:href="#e"/>
<use transform="translate(63.6)" xlink:href="#h"/>
<use transform="translate(95.4)" xlink:href="#r"/>
<use transform="translate(159)" xlink:href="#b"/>
<use transform="translate(223)" xlink:href="#m"/>
</g>
<g stroke="#1f77b4" stroke-opacity=".9">
<path d="m71.2 660 10.6-8.62h15.8l8.74 8.62h6.74l10.9-8.62h48.3l0.493 8.62 2.15-8.62 15.5 8.62h12.9l12.5-8.62m6.02 8.62 4.03 8.62 0.0923 8.62 46.9-25.9h60l2.26 8.62 1.95-8.62h2.37l2.38-94.8h28.8l1.96-8.62h8.59l2.74 8.62h17l2.97-8.62h26.4l2.29 8.62 1.93-8.62h11.3l2.4 8.62h4.57l1.7-8.62h2.56l1.65 8.62h3.04l1.8-8.62h6.72l2.42 8.62 2.2-8.62h2.18l0.175 8.62 2.12-8.62h2.15l2.13-146 1.83 146h9.4l2.07 8.62 1.78-8.62h2.14l2.17 8.62 0.652-8.62h86.5l2.06-8.62h4.5l2.27 8.62 1.38-8.62h0.934l2.23-8.62h8.01l3.04 8.62 2.25-8.62h2.13l1.9-8.62h11.5l2.21 8.62 1.91 8.62 2.41-8.62 2.25 8.62h6.67l2.25-8.62h19.9l1.82-8.62 2.7 8.62 2.2-8.62 2.26 8.62v0" clip-path="url(#i)" fill="none" stroke-linecap="square" stroke-width="1.5"/>
<g clip-path="url(#i)" fill="#1f77b4" fill-opacity=".9">
<use x="71.153675" y="660.252675" xlink:href="#a"/>
<use x="81.711778" y="651.635695" xlink:href="#a"/>
<use x="97.556329" y="651.635695" xlink:href="#a"/>
<use x="106.286217" y="660.252675" xlink:href="#a"/>
<use x="106.30042" y="660.252675" xlink:href="#a"/>
<use x="106.511662" y="660.252675" xlink:href="#a"/>
<use x="113.036208" y="660.252675" xlink:href="#a"/>
<use x="123.886839" y="651.635695" xlink:href="#a"/>
<use x="123.962963" y="651.635695" xlink:href="#a"/>
<use x="128.533525" y="651.635695" xlink:href="#a"/>
<use x="144.153504" y="651.635695" xlink:href="#a"/>
<use x="159.721321" y="651.635695" xlink:href="#a"/>
<use x="172.257216" y="651.635695" xlink:href="#a"/>
<use x="172.282129" y="651.635695" xlink:href="#a"/>
<use x="172.775549" y="660.252675" xlink:href="#a"/>
<use x="174.930528" y="651.635695" xlink:href="#a"/>
<use x="190.437348" y="660.252675" xlink:href="#a"/>
<use x="203.301265" y="660.252675" xlink:href="#a"/>
<use x="215.834745" y="651.635695" xlink:href="#a"/>
<use x="221.851385" y="660.252675" xlink:href="#a"/>
<use x="225.881116" y="668.869656" xlink:href="#a"/>
<use x="225.973446" y="677.486636" xlink:href="#a"/>
<use x="272.922118" y="651.635695" xlink:href="#a"/>
<use x="274.96368" y="651.635695" xlink:href="#a"/>
<use x="303.819671" y="651.635695" xlink:href="#a"/>
<use x="306.324914" y="651.635695" xlink:href="#a"/>
<use x="308.420436" y="651.635695" xlink:href="#a"/>
<use x="310.684773" y="651.635695" xlink:href="#a"/>
<use x="312.325399" y="651.635695" xlink:href="#a"/>
<use x="315.120242" y="651.635695" xlink:href="#a"/>
<use x="317.221209" y="651.635695" xlink:href="#a"/>
<use x="319.666328" y="651.635695" xlink:href="#a"/>
<use x="321.62645" y="651.635695" xlink:href="#a"/>
<use x="324.063453" y="651.635695" xlink:href="#a"/>
<use x="326.340554" y="651.635695" xlink:href="#a"/>
<use x="328.445913" y="651.635695" xlink:href="#a"/>
<use x="330.754809" y="651.635695" xlink:href="#a"/>
<use x="332.937243" y="651.635695" xlink:href="#a"/>
<use x="335.198651" y="660.252675" xlink:href="#a"/>
<use x="337.153072" y="651.635695" xlink:href="#a"/>
<use x="339.518933" y="651.635695" xlink:href="#a"/>
<use x="341.894168" y="556.848908" xlink:href="#a"/>
<use x="344.061808" y="556.848908" xlink:href="#a"/>
<use x="346.062253" y="556.848908" xlink:href="#a"/>
<use x="348.376517" y="556.848908" xlink:href="#a"/>
<use x="350.489478" y="556.848908" xlink:href="#a"/>
<use x="352.727104" y="556.848908" xlink:href="#a"/>
<use x="355.110686" y="556.848908" xlink:href="#a"/>
<use x="356.729097" y="556.848908" xlink:href="#a"/>
<use x="359.318708" y="556.848908" xlink:href="#a"/>
<use x="361.315813" y="556.848908" xlink:href="#a"/>
<use x="363.61156" y="556.848908" xlink:href="#a"/>
<use x="366.201864" y="556.848908" xlink:href="#a"/>
<use x="368.497329" y="556.848908" xlink:href="#a"/>
<use x="370.724168" y="556.848908" xlink:href="#a"/>
<use x="372.688322" y="548.231928" xlink:href="#a"/>
<use x="374.90738" y="548.231928" xlink:href="#a"/>
<use x="376.785753" y="548.231928" xlink:href="#a"/>
<use x="379.07852" y="548.231928" xlink:href="#a"/>
<use x="381.274103" y="548.231928" xlink:href="#a"/>
<use x="384.014807" y="556.848908" xlink:href="#a"/>
<use x="386.154376" y="556.848908" xlink:href="#a"/>
<use x="388.235721" y="556.848908" xlink:href="#a"/>
<use x="390.1284" y="556.848908" xlink:href="#a"/>
<use x="392.083206" y="556.848908" xlink:href="#a"/>
<use x="395.02832" y="556.848908" xlink:href="#a"/>
<use x="397.03557" y="556.848908" xlink:href="#a"/>
<use x="399.466537" y="556.848908" xlink:href="#a"/>
<use x="400.972636" y="556.848908" xlink:href="#a"/>
<use x="403.937757" y="548.231928" xlink:href="#a"/>
<use x="405.790422" y="548.231928" xlink:href="#a"/>
<use x="410.168002" y="548.231928" xlink:href="#a"/>
<use x="412.596632" y="548.231928" xlink:href="#a"/>
<use x="414.556241" y="548.231928" xlink:href="#a"/>
<use x="416.70223" y="548.231928" xlink:href="#a"/>
<use x="419.308869" y="548.231928" xlink:href="#a"/>
<use x="421.551606" y="548.231928" xlink:href="#a"/>
<use x="423.672837" y="548.231928" xlink:href="#a"/>
<use x="425.986819" y="548.231928" xlink:href="#a"/>
<use x="428.090046" y="548.231928" xlink:href="#a"/>
<use x="430.356026" y="548.231928" xlink:href="#a"/>
<use x="432.650437" y="556.848908" xlink:href="#a"/>
<use x="434.578841" y="548.231928" xlink:href="#a"/>
<use x="437.053469" y="548.231928" xlink:href="#a"/>
<use x="439.441957" y="548.231928" xlink:href="#a"/>
<use x="441.50648" y="548.231928" xlink:href="#a"/>
<use x="443.879944" y="548.231928" xlink:href="#a"/>
<use x="445.919965" y="548.231928" xlink:href="#a"/>
<use x="448.316851" y="556.848908" xlink:href="#a"/>
<use x="450.177657" y="556.848908" xlink:href="#a"/>
<use x="452.886103" y="556.848908" xlink:href="#a"/>
<use x="454.58824" y="548.231928" xlink:href="#a"/>
<use x="457.149138" y="548.231928" xlink:href="#a"/>
<use x="458.795722" y="556.848908" xlink:href="#a"/>
<use x="461.598758" y="556.848908" xlink:href="#a"/>
<use x="461.832756" y="556.848908" xlink:href="#a"/>
<use x="463.627916" y="548.231928" xlink:href="#a"/>
<use x="466.09823" y="548.231928" xlink:href="#a"/>
<use x="468.203537" y="548.231928" xlink:href="#a"/>
<use x="470.345212" y="548.231928" xlink:href="#a"/>
<use x="472.768038" y="556.848908" xlink:href="#a"/>
<use x="474.968835" y="548.231928" xlink:href="#a"/>
<use x="477.149291" y="548.231928" xlink:href="#a"/>
<use x="477.324782" y="556.848908" xlink:href="#a"/>
<use x="479.445192" y="548.231928" xlink:href="#a"/>
<use x="480.886698" y="548.231928" xlink:href="#a"/>
<use x="481.592363" y="548.231928" xlink:href="#a"/>
<use x="483.718987" y="401.743258" xlink:href="#a"/>
<use x="485.550104" y="548.231928" xlink:href="#a"/>
<use x="487.831237" y="548.231928" xlink:href="#a"/>
<use x="490.531464" y="548.231928" xlink:href="#a"/>
<use x="491.59163" y="548.231928" xlink:href="#a"/>
<use x="492.747542" y="548.231928" xlink:href="#a"/>
<use x="494.953707" y="548.231928" xlink:href="#a"/>
<use x="497.022237" y="556.848908" xlink:href="#a"/>
<use x="498.804684" y="548.231928" xlink:href="#a"/>
<use x="500.943842" y="548.231928" xlink:href="#a"/>
<use x="503.112432" y="556.848908" xlink:href="#a"/>
<use x="503.764086" y="548.231928" xlink:href="#a"/>
<use x="505.37022" y="548.231928" xlink:href="#a"/>
<use x="508.170456" y="548.231928" xlink:href="#a"/>
<use x="510.079906" y="548.231928" xlink:href="#a"/>
<use x="512.666563" y="548.231928" xlink:href="#a"/>
<use x="514.797451" y="548.231928" xlink:href="#a"/>
<use x="517.102084" y="548.231928" xlink:href="#a"/>
<use x="519.308762" y="548.231928" xlink:href="#a"/>
<use x="521.372335" y="548.231928" xlink:href="#a"/>
<use x="523.795598" y="548.231928" xlink:href="#a"/>
<use x="525.937709" y="548.231928" xlink:href="#a"/>
<use x="527.758835" y="548.231928" xlink:href="#a"/>
<use x="530.210066" y="548.231928" xlink:href="#a"/>
<use x="532.212796" y="548.231928" xlink:href="#a"/>
<use x="534.902981" y="548.231928" xlink:href="#a"/>
<use x="536.750561" y="548.231928" xlink:href="#a"/>
<use x="539.306887" y="548.231928" xlink:href="#a"/>
<use x="541.340282" y="548.231928" xlink:href="#a"/>
<use x="543.76637" y="548.231928" xlink:href="#a"/>
<use x="545.423536" y="548.231928" xlink:href="#a"/>
<use x="547.643081" y="548.231928" xlink:href="#a"/>
<use x="550.45675" y="548.231928" xlink:href="#a"/>
<use x="552.420545" y="548.231928" xlink:href="#a"/>
<use x="554.592474" y="548.231928" xlink:href="#a"/>
<use x="556.873658" y="548.231928" xlink:href="#a"/>
<use x="559.259655" y="548.231928" xlink:href="#a"/>
<use x="561.331703" y="548.231928" xlink:href="#a"/>
<use x="563.501141" y="548.231928" xlink:href="#a"/>
<use x="565.713881" y="548.231928" xlink:href="#a"/>
<use x="566.145637" y="548.231928" xlink:href="#a"/>
<use x="568.082336" y="548.231928" xlink:href="#a"/>
<use x="570.309843" y="548.231928" xlink:href="#a"/>
<use x="572.52248" y="548.231928" xlink:href="#a"/>
<use x="574.804845" y="548.231928" xlink:href="#a"/>
<use x="576.791138" y="548.231928" xlink:href="#a"/>
<use x="579.051828" y="548.231928" xlink:href="#a"/>
<use x="581.13569" y="548.231928" xlink:href="#a"/>
<use x="582.796169" y="548.231928" xlink:href="#a"/>
<use x="583.634384" y="548.231928" xlink:href="#a"/>
<use x="585.864305" y="548.231928" xlink:href="#a"/>
<use x="587.941438" y="548.231928" xlink:href="#a"/>
<use x="590.281822" y="548.231928" xlink:href="#a"/>
<use x="592.344856" y="539.614947" xlink:href="#a"/>
<use x="594.335104" y="539.614947" xlink:href="#a"/>
<use x="596.842966" y="539.614947" xlink:href="#a"/>
<use x="599.11154" y="548.231928" xlink:href="#a"/>
<use x="600.493179" y="539.614947" xlink:href="#a"/>
<use x="601.426985" y="539.614947" xlink:href="#a"/>
<use x="603.660194" y="530.997967" xlink:href="#a"/>
<use x="605.899644" y="530.997967" xlink:href="#a"/>
<use x="608.084954" y="530.997967" xlink:href="#a"/>
<use x="610.222468" y="530.997967" xlink:href="#a"/>
<use x="611.672707" y="530.997967" xlink:href="#a"/>
<use x="614.708122" y="539.614947" xlink:href="#a"/>
<use x="616.957639" y="530.997967" xlink:href="#a"/>
<use x="619.084829" y="530.997967" xlink:href="#a"/>
<use x="620.981463" y="522.380986" xlink:href="#a"/>
<use x="623.649535" y="522.380986" xlink:href="#a"/>
<use x="625.618158" y="522.380986" xlink:href="#a"/>
<use x="628.009163" y="522.380986" xlink:href="#a"/>
<use x="630.052292" y="522.380986" xlink:href="#a"/>
<use x="632.520628" y="522.380986" xlink:href="#a"/>
<use x="634.731826" y="530.997967" xlink:href="#a"/>
<use x="636.646438" y="539.614947" xlink:href="#a"/>
<use x="639.058375" y="530.997967" xlink:href="#a"/>
<use x="641.305632" y="539.614947" xlink:href="#a"/>
<use x="643.586791" y="539.614947" xlink:href="#a"/>
<use x="645.878916" y="539.614947" xlink:href="#a"/>
<use x="647.971254" y="539.614947" xlink:href="#a"/>
<use x="650.216919" y="530.997967" xlink:href="#a"/>
<use x="651.546448" y="530.997967" xlink:href="#a"/>
<use x="652.341386" y="530.997967" xlink:href="#a"/>
<use x="654.448671" y="530.997967" xlink:href="#a"/>
<use x="656.807007" y="530.997967" xlink:href="#a"/>
<use x="659.11426" y="530.997967" xlink:href="#a"/>
<use x="661.383142" y="530.997967" xlink:href="#a"/>
<use x="663.458478" y="530.997967" xlink:href="#a"/>
<use x="665.605187" y="530.997967" xlink:href="#a"/>
<use x="667.721897" y="530.997967" xlink:href="#a"/>
<use x="670.108819" y="530.997967" xlink:href="#a"/>
<use x="671.933052" y="522.380986" xlink:href="#a"/>
<use x="674.629966" y="530.997967" xlink:href="#a"/>
<use x="676.828041" y="522.380986" xlink:href="#a"/>
<use x="679.092403" y="530.997967" xlink:href="#a"/>
</g>
</g>
<g stroke="#1f77b4" stroke-opacity=".9">
<path d="m203 652v8.62h57.9l3.19 25.9 1.08-25.9h47.9l1.8-8.62 2.1 8.62 2.45-8.62 1.96 8.62h6.82l2.31-8.62 0.167 8.62h2.02l2.26 8.62 1.95-8.62 2.37-8.62 1.89-68.9h31.9l1.26-8.62h6.69l2.74 8.62 1.23-8.62 0.384 8.62 0.525-8.62 1.12 8.62h13.7l2.97-8.62h6.23l2.43 8.62 1.96-8.62h11.4l2.1 8.62 2.27-8.62h2.29l1.93 8.62 2.47-8.62 2.39 8.62 2.06-8.62h15.6l1.65 8.62h2.8l0.234-8.62 1.8 8.62 1.78-8.62h16.2l2.13-164 1.83 164h29.2l2.3-8.62 2.21 8.62 2.06-8.62 2.42 8.62h53l2.26-8.62 2.08 8.62 1.66-8.62h0.838l2.23 8.62h2.08l2.05-8.62 0.293 8.62h2.06l1.99-8.62 2.51 8.62h3.65l0.934-8.62h2.23l2.24-8.62h5.77l2.89 8.62 0.142-8.62 1.11 8.62h3.26l1.9-17.2h11.5l2.21 8.62 1.91-8.62h2.41l2.25 8.62h6.31l0.36-8.62 1.71 8.62h0.531l1.33-8.62h0.795l2.11 8.62h2.36l2.31-8.62 2.27 8.62h8.73l1.82-8.62h2.7l2.2 8.62 2.26-8.62h2.22" clip-path="url(#i)" fill="none" stroke-dasharray="1.5,2.475" stroke-width="1.5"/>
<g clip-path="url(#i)" fill="#1f77b4" fill-opacity=".9">
<use x="203.301265" y="651.635695" xlink:href="#a"/>
<use x="203.301265" y="660.252675" xlink:href="#a"/>
<use x="221.851385" y="660.252675" xlink:href="#a"/>
<use x="236.060755" y="660.252675" xlink:href="#a"/>
<use x="252.796863" y="660.252675" xlink:href="#a"/>
<use x="261.1826" y="660.252675" xlink:href="#a"/>
<use x="264.371317" y="686.103617" xlink:href="#a"/>
<use x="265.454495" y="660.252675" xlink:href="#a"/>
<use x="266.2153" y="660.252675" xlink:href="#a"/>
<use x="268.406184" y="660.252675" xlink:href="#a"/>
<use x="270.565194" y="660.252675" xlink:href="#a"/>
<use x="272.922118" y="660.252675" xlink:href="#a"/>
<use x="274.96368" y="660.252675" xlink:href="#a"/>
<use x="277.437795" y="660.252675" xlink:href="#a"/>
<use x="279.692783" y="660.252675" xlink:href="#a"/>
<use x="281.393841" y="660.252675" xlink:href="#a"/>
<use x="283.929312" y="660.252675" xlink:href="#a"/>
<use x="286.17187" y="660.252675" xlink:href="#a"/>
<use x="288.387023" y="660.252675" xlink:href="#a"/>
<use x="290.821586" y="660.252675" xlink:href="#a"/>
<use x="293.039719" y="660.252675" xlink:href="#a"/>
<use x="295.030584" y="660.252675" xlink:href="#a"/>
<use x="297.38273" y="660.252675" xlink:href="#a"/>
<use x="299.047344" y="660.252675" xlink:href="#a"/>
<use x="301.654086" y="660.252675" xlink:href="#a"/>
<use x="303.819671" y="660.252675" xlink:href="#a"/>
<use x="306.324914" y="660.252675" xlink:href="#a"/>
<use x="308.420436" y="660.252675" xlink:href="#a"/>
<use x="309.552566" y="660.252675" xlink:href="#a"/>
<use x="310.684773" y="660.252675" xlink:href="#a"/>
<use x="312.325399" y="660.252675" xlink:href="#a"/>
<use x="313.323489" y="660.252675" xlink:href="#a"/>
<use x="315.120242" y="651.635695" xlink:href="#a"/>
<use x="317.221209" y="660.252675" xlink:href="#a"/>
<use x="319.666328" y="651.635695" xlink:href="#a"/>
<use x="321.62645" y="660.252675" xlink:href="#a"/>
<use x="324.063453" y="660.252675" xlink:href="#a"/>
<use x="326.340554" y="660.252675" xlink:href="#a"/>
<use x="328.445913" y="660.252675" xlink:href="#a"/>
<use x="330.754809" y="651.635695" xlink:href="#a"/>
<use x="330.922159" y="660.252675" xlink:href="#a"/>
<use x="332.937243" y="660.252675" xlink:href="#a"/>
<use x="335.198651" y="668.869656" xlink:href="#a"/>
<use x="337.153072" y="660.252675" xlink:href="#a"/>
<use x="339.518933" y="651.635695" xlink:href="#a"/>
<use x="341.410558" y="582.69985" xlink:href="#a"/>
<use x="341.894168" y="582.69985" xlink:href="#a"/>
<use x="343.698498" y="582.69985" xlink:href="#a"/>
<use x="344.061808" y="582.69985" xlink:href="#a"/>
<use x="346.062253" y="582.69985" xlink:href="#a"/>
<use x="348.376517" y="582.69985" xlink:href="#a"/>
<use x="350.489478" y="582.69985" xlink:href="#a"/>
<use x="352.254718" y="582.69985" xlink:href="#a"/>
<use x="352.727104" y="582.69985" xlink:href="#a"/>
<use x="354.343152" y="582.69985" xlink:href="#a"/>
<use x="355.110686" y="582.69985" xlink:href="#a"/>
<use x="356.729097" y="582.69985" xlink:href="#a"/>
<use x="358.882637" y="582.69985" xlink:href="#a"/>
<use x="359.318708" y="582.69985" xlink:href="#a"/>
<use x="361.315813" y="582.69985" xlink:href="#a"/>
<use x="363.61156" y="582.69985" xlink:href="#a"/>
<use x="366.201864" y="582.69985" xlink:href="#a"/>
<use x="368.497329" y="582.69985" xlink:href="#a"/>
<use x="370.178277" y="582.69985" xlink:href="#a"/>
<use x="370.724168" y="582.69985" xlink:href="#a"/>
<use x="372.688322" y="582.69985" xlink:href="#a"/>
<use x="373.325259" y="582.69985" xlink:href="#a"/>
<use x="374.58416" y="574.08287" xlink:href="#a"/>
<use x="374.90738" y="574.08287" xlink:href="#a"/>
<use x="376.785753" y="574.08287" xlink:href="#a"/>
<use x="377.893201" y="574.08287" xlink:href="#a"/>
<use x="379.07852" y="574.08287" xlink:href="#a"/>
<use x="381.274103" y="574.08287" xlink:href="#a"/>
<use x="384.014807" y="582.69985" xlink:href="#a"/>
<use x="385.245123" y="574.08287" xlink:href="#a"/>
<use x="385.629314" y="582.69985" xlink:href="#a"/>
<use x="386.154376" y="574.08287" xlink:href="#a"/>
<use x="387.269991" y="582.69985" xlink:href="#a"/>
<use x="388.235721" y="582.69985" xlink:href="#a"/>
<use x="389.950417" y="582.69985" xlink:href="#a"/>
<use x="390.1284" y="582.69985" xlink:href="#a"/>
<use x="392.083206" y="582.69985" xlink:href="#a"/>
<use x="395.02832" y="582.69985" xlink:href="#a"/>
<use x="397.03557" y="582.69985" xlink:href="#a"/>
<use x="399.466537" y="582.69985" xlink:href="#a"/>
<use x="400.109304" y="582.69985" xlink:href="#a"/>
<use x="400.972636" y="582.69985" xlink:href="#a"/>
<use x="403.937757" y="574.08287" xlink:href="#a"/>
<use x="405.790422" y="574.08287" xlink:href="#a"/>
<use x="410.168002" y="574.08287" xlink:href="#a"/>
<use x="412.596632" y="582.69985" xlink:href="#a"/>
<use x="414.556241" y="574.08287" xlink:href="#a"/>
<use x="416.70223" y="574.08287" xlink:href="#a"/>
<use x="419.308869" y="574.08287" xlink:href="#a"/>
<use x="421.551606" y="574.08287" xlink:href="#a"/>
<use x="423.672837" y="574.08287" xlink:href="#a"/>
<use x="425.986819" y="574.08287" xlink:href="#a"/>
<use x="428.090046" y="582.69985" xlink:href="#a"/>
<use x="430.356026" y="574.08287" xlink:href="#a"/>
<use x="432.650437" y="574.08287" xlink:href="#a"/>
<use x="434.578841" y="582.69985" xlink:href="#a"/>
<use x="437.053469" y="574.08287" xlink:href="#a"/>
<use x="439.441957" y="582.69985" xlink:href="#a"/>
<use x="441.50648" y="574.08287" xlink:href="#a"/>
<use x="443.879944" y="574.08287" xlink:href="#a"/>
<use x="445.919965" y="574.08287" xlink:href="#a"/>
<use x="450.177657" y="574.08287" xlink:href="#a"/>
<use x="452.040955" y="574.08287" xlink:href="#a"/>
<use x="452.886103" y="574.08287" xlink:href="#a"/>
<use x="454.58824" y="574.08287" xlink:href="#a"/>
<use x="457.149138" y="574.08287" xlink:href="#a"/>
<use x="458.795722" y="582.69985" xlink:href="#a"/>
<use x="461.598758" y="582.69985" xlink:href="#a"/>
<use x="461.832756" y="574.08287" xlink:href="#a"/>
<use x="463.627916" y="582.69985" xlink:href="#a"/>
<use x="465.304858" y="574.08287" xlink:href="#a"/>
<use x="465.33483" y="574.08287" xlink:href="#a"/>
<use x="465.412829" y="574.08287" xlink:href="#a"/>
<use x="466.09823" y="574.08287" xlink:href="#a"/>
<use x="468.203537" y="574.08287" xlink:href="#a"/>
<use x="470.251829" y="574.08287" xlink:href="#a"/>
<use x="470.345212" y="574.08287" xlink:href="#a"/>
<use x="472.768038" y="574.08287" xlink:href="#a"/>
<use x="474.968835" y="574.08287" xlink:href="#a"/>
<use x="476.929984" y="574.08287" xlink:href="#a"/>
<use x="477.149291" y="574.08287" xlink:href="#a"/>
<use x="477.238796" y="574.08287" xlink:href="#a"/>
<use x="477.324782" y="574.08287" xlink:href="#a"/>
<use x="478.481028" y="574.08287" xlink:href="#a"/>
<use x="479.445192" y="574.08287" xlink:href="#a"/>
<use x="480.886698" y="574.08287" xlink:href="#a"/>
<use x="481.592363" y="574.08287" xlink:href="#a"/>
<use x="483.718987" y="410.360239" xlink:href="#a"/>
<use x="485.550104" y="574.08287" xlink:href="#a"/>
<use x="487.831237" y="574.08287" xlink:href="#a"/>
<use x="490.531464" y="574.08287" xlink:href="#a"/>
<use x="491.59163" y="574.08287" xlink:href="#a"/>
<use x="492.747542" y="574.08287" xlink:href="#a"/>
<use x="494.953707" y="574.08287" xlink:href="#a"/>
<use x="497.022237" y="574.08287" xlink:href="#a"/>
<use x="498.804684" y="574.08287" xlink:href="#a"/>
<use x="500.943842" y="574.08287" xlink:href="#a"/>
<use x="503.112432" y="574.08287" xlink:href="#a"/>
<use x="503.764086" y="574.08287" xlink:href="#a"/>
<use x="505.37022" y="574.08287" xlink:href="#a"/>
<use x="508.170456" y="574.08287" xlink:href="#a"/>
<use x="510.079906" y="574.08287" xlink:href="#a"/>
<use x="512.666563" y="574.08287" xlink:href="#a"/>
<use x="514.797451" y="574.08287" xlink:href="#a"/>
<use x="517.102084" y="565.465889" xlink:href="#a"/>
<use x="519.308762" y="574.08287" xlink:href="#a"/>
<use x="521.372335" y="565.465889" xlink:href="#a"/>
<use x="523.795598" y="574.08287" xlink:href="#a"/>
<use x="525.937709" y="574.08287" xlink:href="#a"/>
<use x="527.633066" y="574.08287" xlink:href="#a"/>
<use x="527.758835" y="574.08287" xlink:href="#a"/>
<use x="530.210066" y="574.08287" xlink:href="#a"/>
<use x="532.212796" y="574.08287" xlink:href="#a"/>
<use x="534.902981" y="574.08287" xlink:href="#a"/>
<use x="536.750561" y="574.08287" xlink:href="#a"/>
<use x="539.306887" y="574.08287" xlink:href="#a"/>
<use x="541.340282" y="574.08287" xlink:href="#a"/>
<use x="543.76637" y="574.08287" xlink:href="#a"/>
<use x="545.423536" y="574.08287" xlink:href="#a"/>
<use x="547.643081" y="574.08287" xlink:href="#a"/>
<use x="550.45675" y="574.08287" xlink:href="#a"/>
<use x="552.420545" y="574.08287" xlink:href="#a"/>
<use x="553.274374" y="574.08287" xlink:href="#a"/>
<use x="553.51433" y="574.08287" xlink:href="#a"/>
<use x="554.592474" y="574.08287" xlink:href="#a"/>
<use x="556.223135" y="574.08287" xlink:href="#a"/>
<use x="556.873658" y="574.08287" xlink:href="#a"/>
<use x="559.259655" y="574.08287" xlink:href="#a"/>
<use x="560.788971" y="574.08287" xlink:href="#a"/>
<use x="561.10292" y="574.08287" xlink:href="#a"/>
<use x="561.331703" y="574.08287" xlink:href="#a"/>
<use x="563.501141" y="574.08287" xlink:href="#a"/>
<use x="565.713881" y="574.08287" xlink:href="#a"/>
<use x="566.145637" y="574.08287" xlink:href="#a"/>
<use x="568.082336" y="574.08287" xlink:href="#a"/>
<use x="570.309843" y="574.08287" xlink:href="#a"/>
<use x="572.52248" y="574.08287" xlink:href="#a"/>
<use x="574.804845" y="574.08287" xlink:href="#a"/>
<use x="576.791138" y="574.08287" xlink:href="#a"/>
<use x="579.051828" y="565.465889" xlink:href="#a"/>
<use x="581.13569" y="574.08287" xlink:href="#a"/>
<use x="582.796169" y="565.465889" xlink:href="#a"/>
<use x="583.634384" y="565.465889" xlink:href="#a"/>
<use x="585.864305" y="574.08287" xlink:href="#a"/>
<use x="587.941438" y="574.08287" xlink:href="#a"/>
<use x="589.988446" y="565.465889" xlink:href="#a"/>
<use x="590.281822" y="574.08287" xlink:href="#a"/>
<use x="592.344856" y="574.08287" xlink:href="#a"/>
<use x="594.335104" y="565.465889" xlink:href="#a"/>
<use x="596.842966" y="574.08287" xlink:href="#a"/>
<use x="598.63263" y="574.08287" xlink:href="#a"/>
<use x="599.11154" y="574.08287" xlink:href="#a"/>
<use x="600.493179" y="574.08287" xlink:href="#a"/>
<use x="601.426985" y="565.465889" xlink:href="#a"/>
<use x="603.660194" y="565.465889" xlink:href="#a"/>
<use x="605.899644" y="556.848908" xlink:href="#a"/>
<use x="608.084954" y="556.848908" xlink:href="#a"/>
<use x="610.222468" y="556.848908" xlink:href="#a"/>
<use x="611.672707" y="556.848908" xlink:href="#a"/>
<use x="614.565838" y="565.465889" xlink:href="#a"/>
<use x="614.708122" y="556.848908" xlink:href="#a"/>
<use x="615.822119" y="565.465889" xlink:href="#a"/>
<use x="616.957639" y="565.465889" xlink:href="#a"/>
<use x="618.728658" y="565.465889" xlink:href="#a"/>
<use x="618.752286" y="565.465889" xlink:href="#a"/>
<use x="619.084829" y="565.465889" xlink:href="#a"/>
<use x="620.981463" y="548.231928" xlink:href="#a"/>
<use x="623.649535" y="548.231928" xlink:href="#a"/>
<use x="625.618158" y="548.231928" xlink:href="#a"/>
<use x="628.009163" y="548.231928" xlink:href="#a"/>
<use x="630.052292" y="548.231928" xlink:href="#a"/>
<use x="630.380828" y="548.231928" xlink:href="#a"/>
<use x="632.520628" y="548.231928" xlink:href="#a"/>
<use x="634.731826" y="556.848908" xlink:href="#a"/>
<use x="636.646438" y="548.231928" xlink:href="#a"/>
<use x="639.058375" y="548.231928" xlink:href="#a"/>
<use x="641.305632" y="556.848908" xlink:href="#a"/>
<use x="643.586791" y="556.848908" xlink:href="#a"/>
<use x="645.238024" y="556.848908" xlink:href="#a"/>
<use x="645.878916" y="556.848908" xlink:href="#a"/>
<use x="647.611282" y="556.848908" xlink:href="#a"/>
<use x="647.971254" y="548.231928" xlink:href="#a"/>
<use x="649.685744" y="556.848908" xlink:href="#a"/>
<use x="650.216919" y="556.848908" xlink:href="#a"/>
<use x="651.546448" y="548.231928" xlink:href="#a"/>
<use x="652.341386" y="548.231928" xlink:href="#a"/>
<use x="654.448671" y="556.848908" xlink:href="#a"/>
<use x="656.807007" y="556.848908" xlink:href="#a"/>
<use x="659.11426" y="548.231928" xlink:href="#a"/>
<use x="661.383142" y="556.848908" xlink:href="#a"/>
<use x="663.458478" y="556.848908" xlink:href="#a"/>
<use x="665.605187" y="556.848908" xlink:href="#a"/>
<use x="666.162481" y="556.848908" xlink:href="#a"/>
<use x="667.721897" y="556.848908" xlink:href="#a"/>
<use x="670.108819" y="556.848908" xlink:href="#a"/>
<use x="671.933052" y="548.231928" xlink:href="#a"/>
<use x="674.629966" y="548.231928" xlink:href="#a"/>
<use x="676.828041" y="556.848908" xlink:href="#a"/>
<use x="679.092403" y="548.231928" xlink:href="#a"/>
<use x="681.316135" y="548.231928" xlink:href="#a"/>
</g>
</g>
<g stroke="#2ca02c" stroke-opacity=".9">
<path d="m523 600 68.6 8.62 7.35-8.62 1.38 8.62 0.934-8.62h2.23 2.24 2.19 2.14 1.45 3.04 1.11 1.14 2.13l1.9-8.62h2.67 1.97l2.39 8.62h2.04l2.47-8.62 2.21 8.62 1.91-8.62h2.41 2.25 2.28 2.29 2.09 2.25 1.33 0.795 2.11 2.36 2.31 2.27 2.08 2.15 2.12 2.39 1.82 2.7 2.2 2.26 2.22" clip-path="url(#i)" fill="none" stroke-linecap="square" stroke-width="1.5"/>
<g clip-path="url(#i)" fill="#2ca02c" fill-opacity=".9">
<use x="523.175098" y="599.933811" xlink:href="#d"/>
<use x="591.761724" y="608.550792" xlink:href="#d"/>
<use x="599.11154" y="599.933811" xlink:href="#d"/>
<use x="600.493179" y="608.550792" xlink:href="#d"/>
<use x="601.426985" y="599.933811" xlink:href="#d"/>
<use x="603.660194" y="599.933811" xlink:href="#d"/>
<use x="605.899644" y="599.933811" xlink:href="#d"/>
<use x="608.084954" y="599.933811" xlink:href="#d"/>
<use x="610.222468" y="599.933811" xlink:href="#d"/>
<use x="611.672707" y="599.933811" xlink:href="#d"/>
<use x="614.708122" y="599.933811" xlink:href="#d"/>
<use x="615.822119" y="599.933811" xlink:href="#d"/>
<use x="616.957639" y="599.933811" xlink:href="#d"/>
<use x="619.084829" y="599.933811" xlink:href="#d"/>
<use x="620.981463" y="591.316831" xlink:href="#d"/>
<use x="623.649535" y="591.316831" xlink:href="#d"/>
<use x="625.618158" y="591.316831" xlink:href="#d"/>
<use x="628.009163" y="599.933811" xlink:href="#d"/>
<use x="630.052292" y="599.933811" xlink:href="#d"/>
<use x="632.520628" y="591.316831" xlink:href="#d"/>
<use x="634.731826" y="599.933811" xlink:href="#d"/>
<use x="636.646438" y="591.316831" xlink:href="#d"/>
<use x="639.058375" y="591.316831" xlink:href="#d"/>
<use x="641.305632" y="591.316831" xlink:href="#d"/>
<use x="643.586791" y="591.316831" xlink:href="#d"/>
<use x="645.878916" y="591.316831" xlink:href="#d"/>
<use x="647.971254" y="591.316831" xlink:href="#d"/>
<use x="650.216919" y="591.316831" xlink:href="#d"/>
<use x="651.546448" y="591.316831" xlink:href="#d"/>
<use x="652.341386" y="591.316831" xlink:href="#d"/>
<use x="654.448671" y="591.316831" xlink:href="#d"/>
<use x="656.807007" y="591.316831" xlink:href="#d"/>
<use x="659.11426" y="591.316831" xlink:href="#d"/>
<use x="661.383142" y="591.316831" xlink:href="#d"/>
<use x="663.458478" y="591.316831" xlink:href="#d"/>
<use x="665.605187" y="591.316831" xlink:href="#d"/>
<use x="667.721897" y="591.316831" xlink:href="#d"/>
<use x="670.108819" y="591.316831" xlink:href="#d"/>
<use x="671.933052" y="591.316831" xlink:href="#d"/>
<use x="674.629966" y="591.316831" xlink:href="#d"/>
<use x="676.828041" y="591.316831" xlink:href="#d"/>
<use x="679.092403" y="591.316831" xlink:href="#d"/>
<use x="681.316135" y="591.316831" xlink:href="#d"/>
</g>
</g>
<path d="m40.6 700v-313" fill="none" stroke="#000" stroke-linecap="square" stroke-width=".8"/>
<path d="m712 700v-313" fill="none" stroke="#000" stroke-linecap="square" stroke-width=".8"/>
<path d="m40.6 700h671" fill="none" stroke="#000" stroke-linecap="square" stroke-width=".8"/>
<path d="m40.6 388h671" fill="none" stroke="#000" stroke-linecap="square" stroke-width=".8"/>
<path d="m71.6 651-0.349 7.35" fill="none" stroke="#888" stroke-linecap="round"/>
<g transform="translate(74.2 647) rotate(-90) scale(.08 -.08)" fill="#888">
<use xlink:href="#y"/>
<use transform="translate(61.3)" xlink:href="#b"/>
</g>
<g clip-path="url(#i)">
<g transform="translate(58.2 652) rotate(-90) scale(.1 -.1)">
<use xlink:href="#x"/>
<use transform="translate(97.4)" xlink:href="#q"/>
<use transform="translate(159)" xlink:href="#p"/>
<use transform="translate(197)" xlink:href="#u"/>
<use transform="translate(259)" xlink:href="#DejaVuSans-20"/>
<use transform="translate(291)" xlink:href="#am"/>
</g>
</g>
<g clip-path="url(#i)">
<g transform="translate(58.2 707) rotate(-90) scale(.1 -.1)">
<use xlink:href="#an"/>
<use transform="translate(143)" xlink:href="#DejaVuSans-20"/>
<use transform="translate(175)" xlink:href="#t"/>
<use transform="translate(203)" xlink:href="#u"/>
<use transform="translate(264)" xlink:href="#o"/>
<use transform="translate(317)" xlink:href="#o"/>
</g>
</g>
<g transform="translate(294 382) scale(.12 -.12)">
<use xlink:href="#ak"/>
<use transform="translate(60.3)" xlink:href="#ad"/>
<use transform="translate(119)" xlink:href="#ae"/>
<use transform="translate(159)" xlink:href="#af"/>
<use transform="translate(222)" xlink:href="#q"/>
<use transform="translate(283)" xlink:href="#s"/>
<use transform="translate(347)" xlink:href="#DejaVuSans-20"/>
<use transform="translate(378)" xlink:href="#r"/>
<use transform="translate(442)" xlink:href="#h"/>
<use transform="translate(474)" xlink:href="#e"/>
<use transform="translate(537)" xlink:href="#n"/>
<use transform="translate(601)" xlink:href="#h"/>
<use transform="translate(633)" xlink:href="#w"/>
<use transform="translate(692)" xlink:href="#DejaVuSans-20"/>
<use transform="translate(724)" xlink:href="#z"/>
<use transform="translate(783)" xlink:href="#o"/>
<use transform="translate(835)" xlink:href="#h"/>
<use transform="translate(867)" xlink:href="#DejaVuSans-20"/>
<use transform="translate(899)" xlink:href="#r"/>
<use transform="translate(962)" xlink:href="#h"/>
<use transform="translate(994)" xlink:href="#e"/>
<use transform="translate(1058)" xlink:href="#r"/>
<use transform="translate(1121)" xlink:href="#h"/>
<use transform="translate(1153)" xlink:href="#b"/>
<use transform="translate(1217)" xlink:href="#p"/>
<use transform="translate(1256)" xlink:href="#ab"/>
<use transform="translate(1311)" xlink:href="#c"/>
</g>
<path d="m47.6 440h82.6q2 0 2-2v-43q0-2-2-2h-82.6q-2 0-2 2v43q0 2 2 2z" fill="#fff" opacity=".8" stroke="#ccc"/>
<path d="m49.6 401h10 10" fill="none" stroke="#1f77b4" stroke-linecap="square" stroke-opacity=".9" stroke-width="1.5"/>
<use x="59.645553" y="400.623678" fill="#1f77b4" fill-opacity=".9" stroke="#1f77b4" stroke-opacity=".9" xlink:href="#a"/>
<g transform="translate(77.6 404) scale(.1 -.1)">
<use xlink:href="#t"/>
<use transform="translate(27.8)" xlink:href="#aa"/>
<use transform="translate(55.6)" xlink:href="#s"/>
<use transform="translate(119)" xlink:href="#v"/>
<use transform="translate(182)" xlink:href="#w"/>
</g>
<path d="m49.6 415h10 10" fill="none" stroke="#1f77b4" stroke-dasharray="1.5,2.475" stroke-opacity=".9" stroke-width="1.5"/>
<use x="59.645553" y="415.301803" fill="#1f77b4" fill-opacity=".9" stroke="#1f77b4" stroke-opacity=".9" xlink:href="#a"/>
<g transform="translate(77.6 419) scale(.1 -.1)">
<use xlink:href="#t"/>
<use transform="translate(27.8)" xlink:href="#aa"/>
<use transform="translate(55.6)" xlink:href="#s"/>
<use transform="translate(119)" xlink:href="#v"/>
<use transform="translate(182)" xlink:href="#w"/>
<use transform="translate(242)" xlink:href="#f"/>
<use transform="translate(275)" xlink:href="#z"/>
<use transform="translate(334)" xlink:href="#v"/>
<use transform="translate(398)" xlink:href="#t"/>
<use transform="translate(425)" xlink:href="#ae"/>
<use transform="translate(465)" xlink:href="#p"/>
</g>
<path d="m49.6 430h10 10" fill="none" stroke="#2ca02c" stroke-linecap="square" stroke-opacity=".9" stroke-width="1.5"/>
<use x="59.645553" y="429.979928" fill="#2ca02c" fill-opacity=".9" stroke="#2ca02c" stroke-opacity=".9" xlink:href="#d"/>
<g transform="translate(77.6 433) scale(.1 -.1)">
<use xlink:href="#x"/>
<use transform="translate(97.4)" xlink:href="#y"/>
<use transform="translate(159)" xlink:href="#ab"/>
<use transform="translate(214)" xlink:href="#q"/>
<use transform="translate(275)" xlink:href="#o"/>
</g>
<g transform="translate(239 12.1) scale(.12 -.12)">
<defs>
<path id="ap" transform="scale(.0156)" d="m628 4666h941l1190-3175 1197 3175h941v-4666h-616v4097l-1203-3200h-634l-1203 3200v-4097h-613v4666z"/>
<path id="ai" transform="scale(.0156)" d="m2906 1791q0 625-258 968-257 344-723 344-462 0-720-344-258-343-258-968 0-622 258-966t720-344q466 0 723 344 258 344 258 966zm575-1357q0-893-397-1329-396-436-1215-436-303 0-572 45t-522 139v559q253-137 500-202 247-66 503-66 566 0 847 295t281 892v285q-178-310-456-463t-666-153q-643 0-1037 490-394 491-394 1301 0 812 394 1302 394 491 1037 491 388 0 666-153t456-462v531h575v-3066z"/>
<path id="ao" transform="scale(.0156)" d="m603 3500h575v-3563q0-668-255-968-254-300-820-300h-219v487h154q328 0 446 152 119 151 119 629v3563zm0 1363h575v-729h-575v729z"/>
</defs>
<use xlink:href="#ap"/>
<use transform="translate(86.3)" xlink:href="#u"/>
<use transform="translate(148)" xlink:href="#x"/>
<use transform="translate(245)" xlink:href="#q"/>
<use transform="translate(306)" xlink:href="#p"/>
<use transform="translate(348)" xlink:href="#ad"/>
<use transform="translate(407)" xlink:href="#DejaVuSans-20"/>
<use transform="translate(438)" xlink:href="#v"/>
<use transform="translate(502)" xlink:href="#o"/>
<use transform="translate(554)" xlink:href="#y"/>
<use transform="translate(615)" xlink:href="#ai"/>
<use transform="translate(679)" xlink:href="#u"/>
<use transform="translate(740)" xlink:href="#DejaVuSans-20"/>
<use transform="translate(772)" xlink:href="#ab"/>
<use transform="translate(827)" xlink:href="#af"/>
<use transform="translate(890)" xlink:href="#y"/>
<use transform="translate(952)" xlink:href="#s"/>
<use transform="translate(1015)" xlink:href="#ai"/>
<use transform="translate(1079)" xlink:href="#u"/>
<use transform="translate(1140)" xlink:href="#DejaVuSans-20"/>
<use transform="translate(1172)" xlink:href="#aj"/>
<use transform="translate(1235)" xlink:href="#ad"/>
<use transform="translate(1294)" xlink:href="#DejaVuSans-20"/>
<use transform="translate(1326)" xlink:href="#x"/>
<use transform="translate(1424)" xlink:href="#y"/>
<use transform="translate(1485)" xlink:href="#ao"/>
<use transform="translate(1513)" xlink:href="#q"/>
<use transform="translate(1574)" xlink:href="#p"/>
<use transform="translate(1615)" xlink:href="#DejaVuSans-20"/>
<use transform="translate(1647)" xlink:href="#z"/>
<use transform="translate(1706)" xlink:href="#u"/>
<use transform="translate(1768)" xlink:href="#p"/>
<use transform="translate(1809)" xlink:href="#o"/>
<use transform="translate(1861)" xlink:href="#aa"/>
<use transform="translate(1889)" xlink:href="#q"/>
<use transform="translate(1950)" xlink:href="#s"/>
</g>
<defs>
<clipPath id="g">
<rect x="40.6" y="35.7" width="671" height="313"/>
</clipPath>
<clipPath id="i">
<rect x="40.6" y="388" width="671" height="313"/>
</clipPath>
</defs>
</svg>
