<?xml version="1.0" encoding="UTF-8"?>
<!DOCTYPE svg  PUBLIC '-//W3C//DTD SVG 1.1//EN'  'http://www.w3.org/Graphics/SVG/1.1/DTD/svg11.dtd'>
<svg width="720pt" height="720pt" version="1.1" viewBox="0 0 720 720" xmlns="http://www.w3.org/2000/svg" xmlns:xlink="http://www.w3.org/1999/xlink">
<defs>
<style type="text/css">*{stroke-linejoin: round; stroke-linecap: butt}</style>
</defs>
<path d="m0 720h720v-720h-720z" fill="#fff"/>
<path d="m40.6 349h676v-313h-676z" fill="#fff"/>
<path d="m101 349v-313" clip-path="url(#g)" fill="none" stroke="#b0b0b0" stroke-linecap="square" stroke-width=".8"/>
<defs>
<path id="i" d="m0 0v3.5" stroke="#000" stroke-width=".8"/>
</defs>
<use x="100.878184" y="348.52899" stroke="#000000" stroke-width=".8" xlink:href="#i"/>
<g transform="translate(71.8 363) scale(.1 -.1)">
<defs>
<path id="c" transform="scale(.0156)" d="m1228 531h2203v-531h-2962v531q359 372 979 998 621 627 780 809 303 340 423 576 121 236 121 464 0 372-261 606-261 235-680 235-297 0-627-103-329-103-704-313v638q381 153 712 231 332 78 607 78 725 0 1156-363 431-362 431-968 0-288-108-546-107-257-392-607-78-91-497-524-418-433-1181-1211z"/>
<path id="b" transform="scale(.0156)" d="m2034 4250q-487 0-733-480-245-479-245-1442 0-959 245-1439 246-480 733-480 491 0 736 480 246 480 246 1439 0 963-246 1442-245 480-736 480zm0 500q785 0 1199-621 414-620 414-1801 0-1178-414-1799-414-620-1199-620-784 0-1198 620-414 621-414 1799 0 1181 414 1801 414 621 1198 621z"/>
<path id="m" transform="scale(.0156)" d="m2419 4116-1594-2491h1594v2491zm-166 550h794v-3041h666v-525h-666v-1100h-628v1100h-2106v609l1940 2957z"/>
<path id="e" transform="scale(.0156)" d="m313 2009h1684v-512h-1684v512z"/>
<path id="l" transform="scale(.0156)" d="m691 4666h2478v-532h-1900v-1143q137 47 274 70 138 23 276 23 781 0 1237-428 457-428 457-1159 0-753-469-1171-469-417-1322-417-294 0-599 50-304 50-629 150v635q281-153 581-228t634-75q541 0 856 284 316 284 316 772 0 487-316 771-315 285-856 285-253 0-505-56-251-56-513-175v2344z"/>
<path id="d" transform="scale(.0156)" d="m794 531h1031v3560l-1122-225v575l1116 225h631v-4135h1031v-531h-2687v531z"/>
</defs>
<use xlink:href="#c"/>
<use transform="translate(63.6)" xlink:href="#b"/>
<use transform="translate(127)" xlink:href="#c"/>
<use transform="translate(191)" xlink:href="#m"/>
<use transform="translate(254)" xlink:href="#e"/>
<use transform="translate(291)" xlink:href="#b"/>
<use transform="translate(354)" xlink:href="#l"/>
<use transform="translate(418)" xlink:href="#e"/>
<use transform="translate(454)" xlink:href="#d"/>
<use transform="translate(518)" xlink:href="#l"/>
</g>
<path d="m178 349v-313" clip-path="url(#g)" fill="none" stroke="#b0b0b0" stroke-linecap="square" stroke-width=".8"/>
<use x="177.783" y="348.52899" stroke="#000000" stroke-width=".8" xlink:href="#i"/>
<g transform="translate(149 363) scale(.1 -.1)">
<defs>
<path id="ag" transform="scale(.0156)" d="m2113 2584q-425 0-674-291-248-290-248-796 0-503 248-796 249-292 674-292t673 292q248 293 248 796 0 506-248 796-248 291-673 291zm1253 1979v-575q-238 112-480 171-242 60-480 60-625 0-955-422-329-422-376-1275 184 272 462 417 279 145 613 145 703 0 1111-427 408-426 408-1160 0-719-425-1154-425-434-1131-434-810 0-1238 620-428 621-428 1799 0 1106 525 1764t1409 658q238 0 480-47t505-140z"/>
</defs>
<use xlink:href="#c"/>
<use transform="translate(63.6)" xlink:href="#b"/>
<use transform="translate(127)" xlink:href="#c"/>
<use transform="translate(191)" xlink:href="#m"/>
<use transform="translate(254)" xlink:href="#e"/>
<use transform="translate(291)" xlink:href="#b"/>
<use transform="translate(354)" xlink:href="#ag"/>
<use transform="translate(418)" xlink:href="#e"/>
<use transform="translate(454)" xlink:href="#b"/>
<use transform="translate(518)" xlink:href="#d"/>
</g>
<path d="m241 349v-313" clip-path="url(#g)" fill="none" stroke="#b0b0b0" stroke-linecap="square" stroke-width=".8"/>
<use x="241.116378" y="348.52899" stroke="#000000" stroke-width=".8" xlink:href="#i"/>
<g transform="translate(212 363) scale(.1 -.1)">
<use xlink:href="#c"/>
<use transform="translate(63.6)" xlink:href="#b"/>
<use transform="translate(127)" xlink:href="#c"/>
<use transform="translate(191)" xlink:href="#m"/>
<use transform="translate(254)" xlink:href="#e"/>
<use transform="translate(291)" xlink:href="#b"/>
<use transform="translate(354)" xlink:href="#ag"/>
<use transform="translate(418)" xlink:href="#e"/>
<use transform="translate(454)" xlink:href="#d"/>
<use transform="translate(518)" xlink:href="#l"/>
</g>
<path d="m313 349v-313" clip-path="url(#g)" fill="none" stroke="#b0b0b0" stroke-linecap="square" stroke-width=".8"/>
<use x="313.497382" y="348.52899" stroke="#000000" stroke-width=".8" xlink:href="#i"/>
<g transform="translate(284 363) scale(.1 -.1)">
<defs>
<path id="ak" transform="scale(.0156)" d="m525 4666h3e3v-269l-1694-4397h-659l1594 4134h-2241v532z"/>
</defs>
<use xlink:href="#c"/>
<use transform="translate(63.6)" xlink:href="#b"/>
<use transform="translate(127)" xlink:href="#c"/>
<use transform="translate(191)" xlink:href="#m"/>
<use transform="translate(254)" xlink:href="#e"/>
<use transform="translate(291)" xlink:href="#b"/>
<use transform="translate(354)" xlink:href="#ak"/>
<use transform="translate(418)" xlink:href="#e"/>
<use transform="translate(454)" xlink:href="#b"/>
<use transform="translate(518)" xlink:href="#d"/>
</g>
<path d="m377 349v-313" clip-path="url(#g)" fill="none" stroke="#b0b0b0" stroke-linecap="square" stroke-width=".8"/>
<use x="376.83076" y="348.52899" stroke="#000000" stroke-width=".8" xlink:href="#i"/>
<g transform="translate(348 363) scale(.1 -.1)">
<use xlink:href="#c"/>
<use transform="translate(63.6)" xlink:href="#b"/>
<use transform="translate(127)" xlink:href="#c"/>
<use transform="translate(191)" xlink:href="#m"/>
<use transform="translate(254)" xlink:href="#e"/>
<use transform="translate(291)" xlink:href="#b"/>
<use transform="translate(354)" xlink:href="#ak"/>
<use transform="translate(418)" xlink:href="#e"/>
<use transform="translate(454)" xlink:href="#d"/>
<use transform="translate(518)" xlink:href="#l"/>
</g>
<path d="m454 349v-313" clip-path="url(#g)" fill="none" stroke="#b0b0b0" stroke-linecap="square" stroke-width=".8"/>
<use x="453.735576" y="348.52899" stroke="#000000" stroke-width=".8" xlink:href="#i"/>
<g transform="translate(425 363) scale(.1 -.1)">
<defs>
<path id="af" transform="scale(.0156)" d="m2034 2216q-450 0-708-241-257-241-257-662 0-422 257-663 258-241 708-241t709 242q260 243 260 662 0 421-258 662-257 241-711 241zm-631 268q-406 100-633 378-226 279-226 679 0 559 398 884 399 325 1092 325 697 0 1094-325t397-884q0-400-227-679-226-278-629-378 456-106 710-416 255-309 255-755 0-679-414-1042-414-362-1186-362-771 0-1186 362-414 363-414 1042 0 446 256 755 257 310 713 416zm-231 997q0-362 226-565 227-203 636-203 407 0 636 203 230 203 230 565 0 363-230 566-229 203-636 203-409 0-636-203-226-203-226-566z"/>
</defs>
<use xlink:href="#c"/>
<use transform="translate(63.6)" xlink:href="#b"/>
<use transform="translate(127)" xlink:href="#c"/>
<use transform="translate(191)" xlink:href="#m"/>
<use transform="translate(254)" xlink:href="#e"/>
<use transform="translate(291)" xlink:href="#b"/>
<use transform="translate(354)" xlink:href="#af"/>
<use transform="translate(418)" xlink:href="#e"/>
<use transform="translate(454)" xlink:href="#b"/>
<use transform="translate(518)" xlink:href="#d"/>
</g>
<path d="m517 349v-313" clip-path="url(#g)" fill="none" stroke="#b0b0b0" stroke-linecap="square" stroke-width=".8"/>
<use x="517.068954" y="348.52899" stroke="#000000" stroke-width=".8" xlink:href="#i"/>
<g transform="translate(488 363) scale(.1 -.1)">
<use xlink:href="#c"/>
<use transform="translate(63.6)" xlink:href="#b"/>
<use transform="translate(127)" xlink:href="#c"/>
<use transform="translate(191)" xlink:href="#m"/>
<use transform="translate(254)" xlink:href="#e"/>
<use transform="translate(291)" xlink:href="#b"/>
<use transform="translate(354)" xlink:href="#af"/>
<use transform="translate(418)" xlink:href="#e"/>
<use transform="translate(454)" xlink:href="#d"/>
<use transform="translate(518)" xlink:href="#l"/>
</g>
<path d="m594 349v-313" clip-path="url(#g)" fill="none" stroke="#b0b0b0" stroke-linecap="square" stroke-width=".8"/>
<use x="593.97377" y="348.52899" stroke="#000000" stroke-width=".8" xlink:href="#i"/>
<g transform="translate(565 363) scale(.1 -.1)">
<defs>
<path id="y" transform="scale(.0156)" d="m703 97v575q238-113 481-172 244-59 479-59 625 0 954 420 330 420 377 1277-181-269-460-413-278-144-615-144-700 0-1108 423-408 424-408 1159 0 718 425 1152 425 435 1131 435 810 0 1236-621 427-620 427-1801 0-1103-524-1761-523-658-1407-658-238 0-482 47-243 47-506 141zm1256 1978q425 0 673 290 249 291 249 798 0 503-249 795-248 292-673 292t-673-292-248-795q0-507 248-798 248-290 673-290z"/>
</defs>
<use xlink:href="#c"/>
<use transform="translate(63.6)" xlink:href="#b"/>
<use transform="translate(127)" xlink:href="#c"/>
<use transform="translate(191)" xlink:href="#m"/>
<use transform="translate(254)" xlink:href="#e"/>
<use transform="translate(291)" xlink:href="#b"/>
<use transform="translate(354)" xlink:href="#y"/>
<use transform="translate(418)" xlink:href="#e"/>
<use transform="translate(454)" xlink:href="#b"/>
<use transform="translate(518)" xlink:href="#d"/>
</g>
<path d="m657 349v-313" clip-path="url(#g)" fill="none" stroke="#b0b0b0" stroke-linecap="square" stroke-width=".8"/>
<use x="657.307148" y="348.52899" stroke="#000000" stroke-width=".8" xlink:href="#i"/>
<g transform="translate(628 363) scale(.1 -.1)">
<use xlink:href="#c"/>
<use transform="translate(63.6)" xlink:href="#b"/>
<use transform="translate(127)" xlink:href="#c"/>
<use transform="translate(191)" xlink:href="#m"/>
<use transform="translate(254)" xlink:href="#e"/>
<use transform="translate(291)" xlink:href="#b"/>
<use transform="translate(354)" xlink:href="#y"/>
<use transform="translate(418)" xlink:href="#e"/>
<use transform="translate(454)" xlink:href="#d"/>
<use transform="translate(518)" xlink:href="#l"/>
</g>
<path d="m40.6 349h676" clip-path="url(#g)" fill="none" stroke="#b0b0b0" stroke-linecap="square" stroke-width=".8"/>
<defs>
<path id="j" d="m0 0h-3.5" stroke="#000" stroke-width=".8"/>
</defs>
<use x="40.645553" y="348.52899" stroke="#000000" stroke-width=".8" xlink:href="#j"/>
<g transform="translate(3 352) scale(.1 -.1)">
<defs>
<path id="f" transform="scale(.0156)" d="m684 794h660v-794h-660v794z"/>
<path id="k" transform="scale(.0156)" d="m4488 3438-1429-1435 1429-1428-372-378-1435 1434-1434-1434-369 378 1425 1428-1425 1435 369 378 1434-1435 1435 1435 372-378z"/>
</defs>
<use xlink:href="#b"/>
<use transform="translate(63.6)" xlink:href="#f"/>
<use transform="translate(95.4)" xlink:href="#y"/>
<use transform="translate(159)" xlink:href="#b"/>
<use transform="translate(223)" xlink:href="#k"/>
</g>
<path d="m40.6 309h676" clip-path="url(#g)" fill="none" stroke="#b0b0b0" stroke-linecap="square" stroke-width=".8"/>
<use x="40.645553" y="309.429441" stroke="#000000" stroke-width=".8" xlink:href="#j"/>
<g transform="translate(3 313) scale(.1 -.1)">
<use xlink:href="#b"/>
<use transform="translate(63.6)" xlink:href="#f"/>
<use transform="translate(95.4)" xlink:href="#y"/>
<use transform="translate(159)" xlink:href="#l"/>
<use transform="translate(223)" xlink:href="#k"/>
</g>
<path d="m40.6 270h676" clip-path="url(#g)" fill="none" stroke="#b0b0b0" stroke-linecap="square" stroke-width=".8"/>
<use x="40.645553" y="270.329891" stroke="#000000" stroke-width=".8" xlink:href="#j"/>
<g transform="translate(3 274) scale(.1 -.1)">
<use xlink:href="#d"/>
<use transform="translate(63.6)" xlink:href="#f"/>
<use transform="translate(95.4)" xlink:href="#b"/>
<use transform="translate(159)" xlink:href="#b"/>
<use transform="translate(223)" xlink:href="#k"/>
</g>
<path d="m40.6 231h676" clip-path="url(#g)" fill="none" stroke="#b0b0b0" stroke-linecap="square" stroke-width=".8"/>
<use x="40.645553" y="231.230342" stroke="#000000" stroke-width=".8" xlink:href="#j"/>
<g transform="translate(3 235) scale(.1 -.1)">
<use xlink:href="#d"/>
<use transform="translate(63.6)" xlink:href="#f"/>
<use transform="translate(95.4)" xlink:href="#b"/>
<use transform="translate(159)" xlink:href="#l"/>
<use transform="translate(223)" xlink:href="#k"/>
</g>
<path d="m40.6 192h676" clip-path="url(#g)" fill="none" stroke="#b0b0b0" stroke-linecap="square" stroke-width=".8"/>
<use x="40.645553" y="192.130792" stroke="#000000" stroke-width=".8" xlink:href="#j"/>
<g transform="translate(3 196) scale(.1 -.1)">
<use xlink:href="#d"/>
<use transform="translate(63.6)" xlink:href="#f"/>
<use transform="translate(95.4)" xlink:href="#d"/>
<use transform="translate(159)" xlink:href="#b"/>
<use transform="translate(223)" xlink:href="#k"/>
</g>
<path d="m40.6 153h676" clip-path="url(#g)" fill="none" stroke="#b0b0b0" stroke-linecap="square" stroke-width=".8"/>
<use x="40.645553" y="153.031243" stroke="#000000" stroke-width=".8" xlink:href="#j"/>
<g transform="translate(3 157) scale(.1 -.1)">
<use xlink:href="#d"/>
<use transform="translate(63.6)" xlink:href="#f"/>
<use transform="translate(95.4)" xlink:href="#d"/>
<use transform="translate(159)" xlink:href="#l"/>
<use transform="translate(223)" xlink:href="#k"/>
</g>
<path d="m40.6 114h676" clip-path="url(#g)" fill="none" stroke="#b0b0b0" stroke-linecap="square" stroke-width=".8"/>
<use x="40.645553" y="113.931694" stroke="#000000" stroke-width=".8" xlink:href="#j"/>
<g transform="translate(3 118) scale(.1 -.1)">
<use xlink:href="#d"/>
<use transform="translate(63.6)" xlink:href="#f"/>
<use transform="translate(95.4)" xlink:href="#c"/>
<use transform="translate(159)" xlink:href="#b"/>
<use transform="translate(223)" xlink:href="#k"/>
</g>
<path d="m40.6 74.8h676" clip-path="url(#g)" fill="none" stroke="#b0b0b0" stroke-linecap="square" stroke-width=".8"/>
<use x="40.645553" y="74.832144" stroke="#000000" stroke-width=".8" xlink:href="#j"/>
<g transform="translate(3 78.6) scale(.1 -.1)">
<use xlink:href="#d"/>
<use transform="translate(63.6)" xlink:href="#f"/>
<use transform="translate(95.4)" xlink:href="#c"/>
<use transform="translate(159)" xlink:href="#l"/>
<use transform="translate(223)" xlink:href="#k"/>
</g>
<path d="m40.6 35.7h676" clip-path="url(#g)" fill="none" stroke="#b0b0b0" stroke-linecap="square" stroke-width=".8"/>
<use x="40.645553" y="35.732595" stroke="#000000" stroke-width=".8" xlink:href="#j"/>
<g transform="translate(3 39.5) scale(.1 -.1)">
<defs>
<path id="o" transform="scale(.0156)" d="m2597 2516q453-97 707-404 255-306 255-756 0-690-475-1069-475-378-1350-378-293 0-604 58t-642 174v609q262-153 574-231 313-78 654-78 593 0 904 234t311 681q0 413-289 645-289 233-804 233h-544v519h569q465 0 712 186t247 536q0 359-255 551-254 193-729 193-260 0-557-57-297-56-653-174v562q360 100 674 150t592 50q719 0 1137-327 419-326 419-882 0-388-222-655t-631-370z"/>
</defs>
<use xlink:href="#d"/>
<use transform="translate(63.6)" xlink:href="#f"/>
<use transform="translate(95.4)" xlink:href="#o"/>
<use transform="translate(159)" xlink:href="#b"/>
<use transform="translate(223)" xlink:href="#k"/>
</g>
<path d="m71.4 270 446-7.82h104" clip-path="url(#g)" fill="none" stroke="#1f77b4" stroke-linecap="square" stroke-opacity=".9" stroke-width="1.5"/>
<defs>
<path id="a" d="m-2.5 2.5h5v-5h-5z" stroke="#1f77b4" stroke-opacity=".9"/>
</defs>
<g clip-path="url(#g)" fill="#1f77b4" fill-opacity=".9" stroke="#1f77b4" stroke-opacity=".9">
<use x="71.350882" y="270.329891" xlink:href="#a"/>
<use x="516.978844" y="262.509981" xlink:href="#a"/>
<use x="620.976377" y="262.509981" xlink:href="#a"/>
</g>
<g stroke="#1f77b4" stroke-opacity=".9">
<path d="m621 255h64.5" clip-path="url(#g)" fill="none" stroke-dasharray="1.5,2.475" stroke-width="1.5"/>
<g clip-path="url(#g)" fill="#1f77b4" fill-opacity=".9">
<use x="620.976377" y="254.690071" xlink:href="#a"/>
<use x="685.457463" y="254.690071" xlink:href="#a"/>
</g>
</g>
<path d="m40.6 349v-313" fill="none" stroke="#000" stroke-linecap="square" stroke-width=".8"/>
<path d="m716 349v-313" fill="none" stroke="#000" stroke-linecap="square" stroke-width=".8"/>
<path d="m40.6 349h676" fill="none" stroke="#000" stroke-linecap="square" stroke-width=".8"/>
<path d="m40.6 35.7h676" fill="none" stroke="#000" stroke-linecap="square" stroke-width=".8"/>
<path d="m71.8 261-0.348 7.35" fill="none" stroke="#888" stroke-linecap="round"/>
<g transform="translate(74.4 257) rotate(-90) scale(.08 -.08)" fill="#888">
<defs>
<path id="ai" transform="scale(.0156)" d="m3116 1747q0 634-261 995t-717 361q-457 0-718-361t-261-995 261-995 718-361q456 0 717 361t261 995zm-1957 1222q182 312 458 463 277 152 661 152 638 0 1036-506 399-506 399-1331t-399-1332q-398-506-1036-506-384 0-661 152-276 152-458 464v-525h-578v4863h578v-1894z"/>
</defs>
<use xlink:href="#ai"/>
<use transform="translate(63.5)" xlink:href="#d"/>
</g>
<path d="m621 253-0.326 7.34" fill="none" stroke="#888" stroke-linecap="round"/>
<g transform="translate(624 249) rotate(-90) scale(.08 -.08)" fill="#888">
<defs>
<path id="n" transform="scale(.0156)" d="m2631 2963q-97 56-211 82-114 27-251 27-488 0-749-317t-261-911v-1844h-578v3500h578v-544q182 319 472 473 291 155 707 155 59 0 131-8 72-7 159-23l3-590z"/>
<path id="ae" transform="scale(.0156)" d="m3122 3366v-538q-244 135-489 202t-495 67q-560 0-870-355-309-354-309-995t309-996q310-354 870-354 250 0 495 67t489 202v-532q-241-112-499-168-257-57-548-57-791 0-1257 497-465 497-465 1341 0 856 470 1346 471 491 1290 491 265 0 518-55 253-54 491-163z"/>
</defs>
<use xlink:href="#n"/>
<use transform="translate(38.9)" xlink:href="#ae"/>
<use transform="translate(93.8)" xlink:href="#c"/>
</g>
<g clip-path="url(#g)">
<g transform="translate(58.2 262) rotate(-90) scale(.1 -.1)">
<defs>
<path id="ab" transform="scale(.0156)" d="m3328 2828q216 388 516 572t706 184q547 0 844-383 297-382 297-1088v-2113h-578v2094q0 503-179 746-178 244-543 244-447 0-707-297-259-296-259-809v-1978h-578v2094q0 506-178 748t-550 242q-441 0-701-298-259-298-259-808v-1978h-578v3500h578v-544q197 322 472 475t653 153q382 0 649-194 267-193 395-562z"/>
<path id="u" transform="scale(.0156)" d="m1959 3097q-462 0-731-361t-269-989 267-989q268-361 733-361 460 0 728 362 269 363 269 988 0 622-269 986-268 364-728 364zm0 487q750 0 1178-488 429-487 429-1349 0-859-429-1349-428-489-1178-489-753 0-1180 489-426 490-426 1349 0 862 426 1349 427 488 1180 488z"/>
<path id="s" transform="scale(.0156)" d="m3597 1894v-281h-2644q38-594 358-905t892-311q331 0 642 81t618 244v-544q-310-131-635-200t-659-69q-838 0-1327 487-489 488-489 1320 0 859 464 1363 464 505 1252 505 706 0 1117-455 411-454 411-1235zm-575 169q-6 471-264 752-258 282-683 282-481 0-770-272t-333-766l2050 4z"/>
<path id="al" transform="scale(.0156)" d="m8863 2147v-281l-1229-1228-375 375 729 728h-7622v531h7622l-729 728 375 375 1229-1228z"/>
</defs>
<use xlink:href="#ab"/>
<use transform="translate(97.4)" xlink:href="#u"/>
<use transform="translate(159)" xlink:href="#n"/>
<use transform="translate(197)" xlink:href="#s"/>
<use transform="translate(259)" xlink:href="#DejaVuSans-20"/>
<use transform="translate(291)" xlink:href="#al"/>
</g>
</g>
<g clip-path="url(#g)">
<g transform="translate(58.2 317) rotate(-90) scale(.1 -.1)">
<defs>
<path id="am" transform="scale(.0156)" d="m313 1866v281l1228 1228 375-375-728-728h7621v-531h-7621l728-728-375-375-1228 1228z"/>
<path id="r" transform="scale(.0156)" d="m603 4863h575v-4863h-575v4863z"/>
<path id="p" transform="scale(.0156)" d="m2834 3397v-544q-243 125-506 187-262 63-544 63-428 0-642-131t-214-394q0-200 153-314t616-217l197-44q612-131 870-370t258-667q0-488-386-773-386-284-1061-284-281 0-586 55t-642 164v594q319-166 628-249 309-82 613-82 406 0 624 139 219 139 219 392 0 234-158 359-157 125-692 241l-200 47q-534 112-772 345-237 233-237 639 0 494 350 762 350 269 994 269 318 0 599-47 282-46 519-140z"/>
</defs>
<use xlink:href="#am"/>
<use transform="translate(143)" xlink:href="#DejaVuSans-20"/>
<use transform="translate(175)" xlink:href="#r"/>
<use transform="translate(203)" xlink:href="#s"/>
<use transform="translate(264)" xlink:href="#p"/>
<use transform="translate(317)" xlink:href="#p"/>
</g>
</g>
<g transform="translate(305 29.7) scale(.12 -.12)">
<defs>
<path id="aj" transform="scale(.0156)" d="m1259 4147v-1753h794q441 0 681 228 241 228 241 650 0 419-241 647-240 228-681 228h-794zm-631 519h1425q785 0 1186-355 402-355 402-1039 0-691-402-1044-401-353-1186-353h-794v-1875h-631v4666z"/>
<path id="z" transform="scale(.0156)" d="m2059-325q-243-625-475-815-231-191-618-191h-460v481h338q237 0 368 113 132 112 291 531l103 262-1415 3444h609l1094-2737 1094 2737h609l-1538-3825z"/>
<path id="aa" transform="scale(.0156)" d="m1172 4494v-994h1184v-447h-1184v-1900q0-428 117-550t477-122h590v-481h-590q-666 0-919 248-253 249-253 905v1900h-422v447h422v994h578z"/>
<path id="ad" transform="scale(.0156)" d="m3513 2113v-2113h-575v2094q0 497-194 743-194 247-581 247-466 0-735-297-269-296-269-809v-1978h-578v4863h578v-1907q207 316 486 472 280 156 646 156 603 0 912-373 310-373 310-1098z"/>
<path id="q" transform="scale(.0156)" d="m3513 2113v-2113h-575v2094q0 497-194 743-194 247-581 247-466 0-735-297-269-296-269-809v-1978h-578v3500h578v-544q207 316 486 472 280 156 646 156 603 0 912-373 310-373 310-1098z"/>
<path id="v" transform="scale(.0156)" d="m3513 3500-1266-1703 1331-1797h-678l-1019 1375-1018-1375h-679l1360 1831-1244 1669h678l928-1247 928 1247h679z"/>
<path id="w" transform="scale(.0156)" d="m191 3500h609l1094-2937 1094 2937h609l-1313-3500h-781l-1312 3500z"/>
</defs>
<use xlink:href="#aj"/>
<use transform="translate(60.3)" xlink:href="#z"/>
<use transform="translate(119)" xlink:href="#aa"/>
<use transform="translate(159)" xlink:href="#ad"/>
<use transform="translate(222)" xlink:href="#u"/>
<use transform="translate(283)" xlink:href="#q"/>
<use transform="translate(347)" xlink:href="#DejaVuSans-20"/>
<use transform="translate(378)" xlink:href="#o"/>
<use transform="translate(442)" xlink:href="#f"/>
<use transform="translate(474)" xlink:href="#d"/>
<use transform="translate(537)" xlink:href="#o"/>
<use transform="translate(601)" xlink:href="#f"/>
<use transform="translate(633)" xlink:href="#v"/>
<use transform="translate(692)" xlink:href="#DejaVuSans-20"/>
<use transform="translate(724)" xlink:href="#w"/>
<use transform="translate(783)" xlink:href="#p"/>
<use transform="translate(835)" xlink:href="#f"/>
<use transform="translate(867)" xlink:href="#DejaVuSans-20"/>
<use transform="translate(899)" xlink:href="#o"/>
<use transform="translate(962)" xlink:href="#f"/>
<use transform="translate(994)" xlink:href="#d"/>
<use transform="translate(1058)" xlink:href="#c"/>
<use transform="translate(1121)" xlink:href="#f"/>
<use transform="translate(1153)" xlink:href="#ag"/>
</g>
<path d="m47.6 73.1h82.6q2 0 2-2v-28.4q0-2-2-2h-82.6q-2 0-2 2v28.4q0 2 2 2z" fill="#fff" opacity=".8" stroke="#ccc"/>
<path d="m49.6 48.8h10 10" fill="none" stroke="#1f77b4" stroke-linecap="square" stroke-opacity=".9" stroke-width="1.5"/>
<use x="59.645553" y="48.831032" fill="#1f77b4" fill-opacity=".9" stroke="#1f77b4" stroke-opacity=".9" xlink:href="#a"/>
<g transform="translate(77.6 52.3) scale(.1 -.1)">
<defs>
<path id="x" transform="scale(.0156)" d="m603 3500h575v-3500h-575v3500zm0 1363h575v-729h-575v729z"/>
<path id="t" transform="scale(.0156)" d="m544 1381v2119h575v-2097q0-497 193-746 194-248 582-248 465 0 735 297 271 297 271 810v1984h575v-3500h-575v538q-209-319-486-474-276-155-642-155-603 0-916 375-312 375-312 1097zm1447 2203z"/>
</defs>
<use xlink:href="#r"/>
<use transform="translate(27.8)" xlink:href="#x"/>
<use transform="translate(55.6)" xlink:href="#q"/>
<use transform="translate(119)" xlink:href="#t"/>
<use transform="translate(182)" xlink:href="#v"/>
</g>
<path d="m49.6 63.5h10 10" fill="none" stroke="#1f77b4" stroke-dasharray="1.5,2.475" stroke-opacity=".9" stroke-width="1.5"/>
<use x="59.645553" y="63.509158" fill="#1f77b4" fill-opacity=".9" stroke="#1f77b4" stroke-opacity=".9" xlink:href="#a"/>
<g transform="translate(77.6 67) scale(.1 -.1)">
<use xlink:href="#r"/>
<use transform="translate(27.8)" xlink:href="#x"/>
<use transform="translate(55.6)" xlink:href="#q"/>
<use transform="translate(119)" xlink:href="#t"/>
<use transform="translate(182)" xlink:href="#v"/>
<use transform="translate(242)" xlink:href="#e"/>
<use transform="translate(275)" xlink:href="#w"/>
<use transform="translate(334)" xlink:href="#t"/>
<use transform="translate(398)" xlink:href="#r"/>
<use transform="translate(425)" xlink:href="#aa"/>
<use transform="translate(465)" xlink:href="#n"/>
</g>
<path d="m40.6 700h676v-313h-676z" fill="#fff"/>
<path d="m95.7 700v-313" clip-path="url(#h)" fill="none" stroke="#b0b0b0" stroke-linecap="square" stroke-width=".8"/>
<use x="95.729163" y="700.321635" stroke="#000000" stroke-width=".8" xlink:href="#i"/>
<g transform="translate(74.8 715) scale(.1 -.1)">
<use xlink:href="#c"/>
<use transform="translate(63.6)" xlink:href="#b"/>
<use transform="translate(127)" xlink:href="#c"/>
<use transform="translate(191)" xlink:href="#m"/>
<use transform="translate(254)" xlink:href="#e"/>
<use transform="translate(291)" xlink:href="#b"/>
<use transform="translate(354)" xlink:href="#af"/>
</g>
<path d="m184 700v-313" clip-path="url(#h)" fill="none" stroke="#b0b0b0" stroke-linecap="square" stroke-width=".8"/>
<use x="183.505604" y="700.321635" stroke="#000000" stroke-width=".8" xlink:href="#i"/>
<g transform="translate(163 715) scale(.1 -.1)">
<use xlink:href="#c"/>
<use transform="translate(63.6)" xlink:href="#b"/>
<use transform="translate(127)" xlink:href="#c"/>
<use transform="translate(191)" xlink:href="#m"/>
<use transform="translate(254)" xlink:href="#e"/>
<use transform="translate(291)" xlink:href="#b"/>
<use transform="translate(354)" xlink:href="#y"/>
</g>
<path d="m268 700v-313" clip-path="url(#h)" fill="none" stroke="#b0b0b0" stroke-linecap="square" stroke-width=".8"/>
<use x="268.450547" y="700.321635" stroke="#000000" stroke-width=".8" xlink:href="#i"/>
<g transform="translate(248 715) scale(.1 -.1)">
<use xlink:href="#c"/>
<use transform="translate(63.6)" xlink:href="#b"/>
<use transform="translate(127)" xlink:href="#c"/>
<use transform="translate(191)" xlink:href="#m"/>
<use transform="translate(254)" xlink:href="#e"/>
<use transform="translate(291)" xlink:href="#d"/>
<use transform="translate(354)" xlink:href="#b"/>
</g>
<path d="m356 700v-313" clip-path="url(#h)" fill="none" stroke="#b0b0b0" stroke-linecap="square" stroke-width=".8"/>
<use x="356.226988" y="700.321635" stroke="#000000" stroke-width=".8" xlink:href="#i"/>
<g transform="translate(335 715) scale(.1 -.1)">
<use xlink:href="#c"/>
<use transform="translate(63.6)" xlink:href="#b"/>
<use transform="translate(127)" xlink:href="#c"/>
<use transform="translate(191)" xlink:href="#m"/>
<use transform="translate(254)" xlink:href="#e"/>
<use transform="translate(291)" xlink:href="#d"/>
<use transform="translate(354)" xlink:href="#d"/>
</g>
<path d="m441 700v-313" clip-path="url(#h)" fill="none" stroke="#b0b0b0" stroke-linecap="square" stroke-width=".8"/>
<use x="441.171931" y="700.321635" stroke="#000000" stroke-width=".8" xlink:href="#i"/>
<g transform="translate(420 715) scale(.1 -.1)">
<use xlink:href="#c"/>
<use transform="translate(63.6)" xlink:href="#b"/>
<use transform="translate(127)" xlink:href="#c"/>
<use transform="translate(191)" xlink:href="#m"/>
<use transform="translate(254)" xlink:href="#e"/>
<use transform="translate(291)" xlink:href="#d"/>
<use transform="translate(354)" xlink:href="#c"/>
</g>
<path d="m529 700v-313" clip-path="url(#h)" fill="none" stroke="#b0b0b0" stroke-linecap="square" stroke-width=".8"/>
<use x="528.948372" y="700.321635" stroke="#000000" stroke-width=".8" xlink:href="#i"/>
<g transform="translate(508 715) scale(.1 -.1)">
<use xlink:href="#c"/>
<use transform="translate(63.6)" xlink:href="#b"/>
<use transform="translate(127)" xlink:href="#c"/>
<use transform="translate(191)" xlink:href="#l"/>
<use transform="translate(254)" xlink:href="#e"/>
<use transform="translate(291)" xlink:href="#b"/>
<use transform="translate(354)" xlink:href="#d"/>
</g>
<path d="m617 700v-313" clip-path="url(#h)" fill="none" stroke="#b0b0b0" stroke-linecap="square" stroke-width=".8"/>
<use x="616.724813" y="700.321635" stroke="#000000" stroke-width=".8" xlink:href="#i"/>
<g transform="translate(596 715) scale(.1 -.1)">
<use xlink:href="#c"/>
<use transform="translate(63.6)" xlink:href="#b"/>
<use transform="translate(127)" xlink:href="#c"/>
<use transform="translate(191)" xlink:href="#l"/>
<use transform="translate(254)" xlink:href="#e"/>
<use transform="translate(291)" xlink:href="#b"/>
<use transform="translate(354)" xlink:href="#c"/>
</g>
<path d="m696 700v-313" clip-path="url(#h)" fill="none" stroke="#b0b0b0" stroke-linecap="square" stroke-width=".8"/>
<use x="696.006759" y="700.321635" stroke="#000000" stroke-width=".8" xlink:href="#i"/>
<g transform="translate(675 715) scale(.1 -.1)">
<use xlink:href="#c"/>
<use transform="translate(63.6)" xlink:href="#b"/>
<use transform="translate(127)" xlink:href="#c"/>
<use transform="translate(191)" xlink:href="#l"/>
<use transform="translate(254)" xlink:href="#e"/>
<use transform="translate(291)" xlink:href="#b"/>
<use transform="translate(354)" xlink:href="#o"/>
</g>
<path d="m40.6 660h676" clip-path="url(#h)" fill="none" stroke="#b0b0b0" stroke-linecap="square" stroke-width=".8"/>
<use x="40.645553" y="660.252675" stroke="#000000" stroke-width=".8" xlink:href="#j"/>
<g transform="translate(3 664) scale(.1 -.1)">
<use xlink:href="#d"/>
<use transform="translate(63.6)" xlink:href="#f"/>
<use transform="translate(95.4)" xlink:href="#b"/>
<use transform="translate(159)" xlink:href="#b"/>
<use transform="translate(223)" xlink:href="#k"/>
</g>
<path d="m40.6 617h676" clip-path="url(#h)" fill="none" stroke="#b0b0b0" stroke-linecap="square" stroke-width=".8"/>
<use x="40.645553" y="617.167772" stroke="#000000" stroke-width=".8" xlink:href="#j"/>
<g transform="translate(3 621) scale(.1 -.1)">
<use xlink:href="#d"/>
<use transform="translate(63.6)" xlink:href="#f"/>
<use transform="translate(95.4)" xlink:href="#b"/>
<use transform="translate(159)" xlink:href="#l"/>
<use transform="translate(223)" xlink:href="#k"/>
</g>
<path d="m40.6 574h676" clip-path="url(#h)" fill="none" stroke="#b0b0b0" stroke-linecap="square" stroke-width=".8"/>
<use x="40.645553" y="574.08287" stroke="#000000" stroke-width=".8" xlink:href="#j"/>
<g transform="translate(3 578) scale(.1 -.1)">
<use xlink:href="#d"/>
<use transform="translate(63.6)" xlink:href="#f"/>
<use transform="translate(95.4)" xlink:href="#d"/>
<use transform="translate(159)" xlink:href="#b"/>
<use transform="translate(223)" xlink:href="#k"/>
</g>
<path d="m40.6 531h676" clip-path="url(#h)" fill="none" stroke="#b0b0b0" stroke-linecap="square" stroke-width=".8"/>
<use x="40.645553" y="530.997967" stroke="#000000" stroke-width=".8" xlink:href="#j"/>
<g transform="translate(3 535) scale(.1 -.1)">
<use xlink:href="#d"/>
<use transform="translate(63.6)" xlink:href="#f"/>
<use transform="translate(95.4)" xlink:href="#d"/>
<use transform="translate(159)" xlink:href="#l"/>
<use transform="translate(223)" xlink:href="#k"/>
</g>
<path d="m40.6 488h676" clip-path="url(#h)" fill="none" stroke="#b0b0b0" stroke-linecap="square" stroke-width=".8"/>
<use x="40.645553" y="487.913064" stroke="#000000" stroke-width=".8" xlink:href="#j"/>
<g transform="translate(3 492) scale(.1 -.1)">
<use xlink:href="#d"/>
<use transform="translate(63.6)" xlink:href="#f"/>
<use transform="translate(95.4)" xlink:href="#c"/>
<use transform="translate(159)" xlink:href="#b"/>
<use transform="translate(223)" xlink:href="#k"/>
</g>
<path d="m40.6 445h676" clip-path="url(#h)" fill="none" stroke="#b0b0b0" stroke-linecap="square" stroke-width=".8"/>
<use x="40.645553" y="444.828161" stroke="#000000" stroke-width=".8" xlink:href="#j"/>
<g transform="translate(3 449) scale(.1 -.1)">
<use xlink:href="#d"/>
<use transform="translate(63.6)" xlink:href="#f"/>
<use transform="translate(95.4)" xlink:href="#c"/>
<use transform="translate(159)" xlink:href="#l"/>
<use transform="translate(223)" xlink:href="#k"/>
</g>
<path d="m40.6 402h676" clip-path="url(#h)" fill="none" stroke="#b0b0b0" stroke-linecap="square" stroke-width=".8"/>
<use x="40.645553" y="401.743258" stroke="#000000" stroke-width=".8" xlink:href="#j"/>
<g transform="translate(3 406) scale(.1 -.1)">
<use xlink:href="#d"/>
<use transform="translate(63.6)" xlink:href="#f"/>
<use transform="translate(95.4)" xlink:href="#o"/>
<use transform="translate(159)" xlink:href="#b"/>
<use transform="translate(223)" xlink:href="#k"/>
</g>
<g stroke="#1f77b4" stroke-opacity=".9">
<path d="m71.4 660 13.5-8.62h20.2l11.2 8.62h8.6l13.9-8.62h61.7l0.63 8.62 2.75-8.62 19.8 8.62h16.4l16-8.62m7.68 8.62 5.14 8.62 0.118 8.62 59.9-25.9h76.6l2.89 8.62 2.49-8.62h3.02l3.03-94.8h36.8l2.51-8.62h11l3.5 8.62h21.6l3.78-8.62h33.7l2.93 8.62 2.46-8.62h14.5l3.06 8.62h5.83l2.17-8.62h3.27l2.1 8.62h3.88l2.29-8.62h8.57l3.09 8.62 2.81-8.62h2.78l0.224 8.62 2.71-8.62h2.74l2.71-146 2.34 146h12l2.64 8.62 2.27-8.62h2.73l2.77 8.62 0.832-8.62h62.1v0" clip-path="url(#h)" fill="none" stroke-linecap="square" stroke-width="1.5"/>
<g clip-path="url(#h)" fill="#1f77b4" fill-opacity=".9">
<use x="71.350882" y="660.252675" xlink:href="#a"/>
<use x="84.823241" y="651.635695" xlink:href="#a"/>
<use x="105.041219" y="651.635695" xlink:href="#a"/>
<use x="116.180739" y="660.252675" xlink:href="#a"/>
<use x="116.198862" y="660.252675" xlink:href="#a"/>
<use x="116.468411" y="660.252675" xlink:href="#a"/>
<use x="124.793868" y="660.252675" xlink:href="#a"/>
<use x="138.6395" y="651.635695" xlink:href="#a"/>
<use x="138.736636" y="651.635695" xlink:href="#a"/>
<use x="144.568769" y="651.635695" xlink:href="#a"/>
<use x="164.500189" y="651.635695" xlink:href="#a"/>
<use x="184.365048" y="651.635695" xlink:href="#a"/>
<use x="200.361112" y="651.635695" xlink:href="#a"/>
<use x="200.392901" y="651.635695" xlink:href="#a"/>
<use x="201.022516" y="660.252675" xlink:href="#a"/>
<use x="203.772313" y="651.635695" xlink:href="#a"/>
<use x="223.55934" y="660.252675" xlink:href="#a"/>
<use x="239.973967" y="660.252675" xlink:href="#a"/>
<use x="255.96695" y="651.635695" xlink:href="#a"/>
<use x="263.644308" y="660.252675" xlink:href="#a"/>
<use x="268.786328" y="668.869656" xlink:href="#a"/>
<use x="268.904143" y="677.486636" xlink:href="#a"/>
<use x="328.81163" y="651.635695" xlink:href="#a"/>
<use x="331.416706" y="651.635695" xlink:href="#a"/>
<use x="368.237554" y="651.635695" xlink:href="#a"/>
<use x="371.434295" y="651.635695" xlink:href="#a"/>
<use x="374.108226" y="651.635695" xlink:href="#a"/>
<use x="376.997566" y="651.635695" xlink:href="#a"/>
<use x="379.09104" y="651.635695" xlink:href="#a"/>
<use x="382.657318" y="651.635695" xlink:href="#a"/>
<use x="385.338196" y="651.635695" xlink:href="#a"/>
<use x="388.458219" y="651.635695" xlink:href="#a"/>
<use x="390.959375" y="651.635695" xlink:href="#a"/>
<use x="394.069042" y="651.635695" xlink:href="#a"/>
<use x="396.97467" y="651.635695" xlink:href="#a"/>
<use x="399.661152" y="651.635695" xlink:href="#a"/>
<use x="402.607352" y="651.635695" xlink:href="#a"/>
<use x="405.392183" y="651.635695" xlink:href="#a"/>
<use x="408.277788" y="660.252675" xlink:href="#a"/>
<use x="410.771669" y="651.635695" xlink:href="#a"/>
<use x="413.790557" y="651.635695" xlink:href="#a"/>
<use x="416.821407" y="556.848908" xlink:href="#a"/>
<use x="419.587362" y="556.848908" xlink:href="#a"/>
<use x="422.13997" y="556.848908" xlink:href="#a"/>
<use x="425.093019" y="556.848908" xlink:href="#a"/>
<use x="427.789202" y="556.848908" xlink:href="#a"/>
<use x="430.64446" y="556.848908" xlink:href="#a"/>
<use x="433.685961" y="556.848908" xlink:href="#a"/>
<use x="435.751086" y="556.848908" xlink:href="#a"/>
<use x="439.055484" y="556.848908" xlink:href="#a"/>
<use x="441.603832" y="556.848908" xlink:href="#a"/>
<use x="444.533253" y="556.848908" xlink:href="#a"/>
<use x="447.838535" y="556.848908" xlink:href="#a"/>
<use x="450.767596" y="556.848908" xlink:href="#a"/>
<use x="453.609089" y="556.848908" xlink:href="#a"/>
<use x="456.115391" y="548.231928" xlink:href="#a"/>
<use x="458.946955" y="548.231928" xlink:href="#a"/>
<use x="461.343798" y="548.231928" xlink:href="#a"/>
<use x="464.269417" y="548.231928" xlink:href="#a"/>
<use x="467.071027" y="548.231928" xlink:href="#a"/>
<use x="470.568223" y="556.848908" xlink:href="#a"/>
<use x="473.298357" y="556.848908" xlink:href="#a"/>
<use x="475.954197" y="556.848908" xlink:href="#a"/>
<use x="478.369295" y="556.848908" xlink:href="#a"/>
<use x="480.863668" y="556.848908" xlink:href="#a"/>
<use x="484.621695" y="556.848908" xlink:href="#a"/>
<use x="487.182988" y="556.848908" xlink:href="#a"/>
<use x="490.284953" y="556.848908" xlink:href="#a"/>
<use x="492.206767" y="556.848908" xlink:href="#a"/>
<use x="495.990324" y="548.231928" xlink:href="#a"/>
<use x="498.354362" y="548.231928" xlink:href="#a"/>
<use x="503.940246" y="548.231928" xlink:href="#a"/>
<use x="507.039229" y="548.231928" xlink:href="#a"/>
<use x="509.53973" y="548.231928" xlink:href="#a"/>
<use x="512.278058" y="548.231928" xlink:href="#a"/>
<use x="515.604183" y="548.231928" xlink:href="#a"/>
<use x="518.465962" y="548.231928" xlink:href="#a"/>
<use x="521.172698" y="548.231928" xlink:href="#a"/>
<use x="524.125386" y="548.231928" xlink:href="#a"/>
<use x="526.809149" y="548.231928" xlink:href="#a"/>
<use x="529.700587" y="548.231928" xlink:href="#a"/>
<use x="532.628303" y="556.848908" xlink:href="#a"/>
<use x="535.088986" y="548.231928" xlink:href="#a"/>
<use x="538.246664" y="548.231928" xlink:href="#a"/>
<use x="541.294424" y="548.231928" xlink:href="#a"/>
<use x="543.928799" y="548.231928" xlink:href="#a"/>
<use x="546.957388" y="548.231928" xlink:href="#a"/>
<use x="549.560498" y="548.231928" xlink:href="#a"/>
<use x="552.618975" y="556.848908" xlink:href="#a"/>
<use x="554.993402" y="556.848908" xlink:href="#a"/>
<use x="558.449436" y="556.848908" xlink:href="#a"/>
<use x="560.621398" y="548.231928" xlink:href="#a"/>
<use x="563.889156" y="548.231928" xlink:href="#a"/>
<use x="565.990233" y="556.848908" xlink:href="#a"/>
<use x="569.566966" y="556.848908" xlink:href="#a"/>
<use x="569.865551" y="556.848908" xlink:href="#a"/>
<use x="572.156213" y="548.231928" xlink:href="#a"/>
<use x="575.308385" y="548.231928" xlink:href="#a"/>
<use x="577.994802" y="548.231928" xlink:href="#a"/>
<use x="580.727623" y="548.231928" xlink:href="#a"/>
<use x="583.8192" y="556.848908" xlink:href="#a"/>
<use x="586.627463" y="548.231928" xlink:href="#a"/>
<use x="589.40977" y="548.231928" xlink:href="#a"/>
<use x="589.633701" y="556.848908" xlink:href="#a"/>
<use x="592.339387" y="548.231928" xlink:href="#a"/>
<use x="594.17878" y="548.231928" xlink:href="#a"/>
<use x="595.079222" y="548.231928" xlink:href="#a"/>
<use x="597.79284" y="401.743258" xlink:href="#a"/>
<use x="600.129383" y="548.231928" xlink:href="#a"/>
<use x="603.040156" y="548.231928" xlink:href="#a"/>
<use x="606.485703" y="548.231928" xlink:href="#a"/>
<use x="607.838497" y="548.231928" xlink:href="#a"/>
<use x="609.313465" y="548.231928" xlink:href="#a"/>
<use x="612.128577" y="548.231928" xlink:href="#a"/>
<use x="614.768064" y="556.848908" xlink:href="#a"/>
<use x="617.042504" y="548.231928" xlink:href="#a"/>
<use x="619.772114" y="548.231928" xlink:href="#a"/>
<use x="622.539281" y="556.848908" xlink:href="#a"/>
<use x="623.370804" y="548.231928" xlink:href="#a"/>
<use x="625.420265" y="548.231928" xlink:href="#a"/>
<use x="628.993425" y="548.231928" xlink:href="#a"/>
<use x="631.429923" y="548.231928" xlink:href="#a"/>
<use x="634.730551" y="548.231928" xlink:href="#a"/>
<use x="637.449609" y="548.231928" xlink:href="#a"/>
<use x="640.390369" y="548.231928" xlink:href="#a"/>
<use x="643.206136" y="548.231928" xlink:href="#a"/>
<use x="645.839299" y="548.231928" xlink:href="#a"/>
<use x="648.931432" y="548.231928" xlink:href="#a"/>
<use x="651.664811" y="548.231928" xlink:href="#a"/>
<use x="653.988606" y="548.231928" xlink:href="#a"/>
<use x="657.116428" y="548.231928" xlink:href="#a"/>
<use x="659.671953" y="548.231928" xlink:href="#a"/>
<use x="663.104686" y="548.231928" xlink:href="#a"/>
<use x="665.462236" y="548.231928" xlink:href="#a"/>
<use x="668.724161" y="548.231928" xlink:href="#a"/>
<use x="671.318816" y="548.231928" xlink:href="#a"/>
<use x="674.414554" y="548.231928" xlink:href="#a"/>
<use x="676.529133" y="548.231928" xlink:href="#a"/>
<use x="679.361319" y="548.231928" xlink:href="#a"/>
<use x="682.95162" y="548.231928" xlink:href="#a"/>
<use x="685.457463" y="548.231928" xlink:href="#a"/>
</g>
</g>
<g stroke="#1f77b4" stroke-opacity=".9">
<path d="m240 660v-8.62l23.7 8.62h50.2l4.07 25.9 1.38-25.9h61.1l2.29-8.62 2.68 8.62 3.12-8.62 2.5 8.62h8.7l2.95-8.62 0.214 8.62h2.57l2.89 8.62 2.49-8.62 3.02-8.62 2.41-68.9h40.7l1.61-8.62h8.54l3.5 8.62 1.57-8.62 0.49 8.62 0.67-8.62 1.42 8.62h17.5l3.78-8.62h7.95l3.1 8.62 2.5-8.62h14.6l2.68 8.62 2.89-8.62h2.93l2.46 8.62 3.16-8.62 3.05 8.62 2.63-8.62h20l2.1 8.62h3.58l0.299-8.62 2.29 8.62 2.18-8.62h20.7l2.71-164 2.34 164h37.3l2.94-8.62 2.82 8.62 2.63-8.62 3.09 8.62h36.5" clip-path="url(#h)" fill="none" stroke-dasharray="1.5,2.475" stroke-width="1.5"/>
<g clip-path="url(#h)" fill="#1f77b4" fill-opacity=".9">
<use x="239.973967" y="660.252675" xlink:href="#a"/>
<use x="239.973967" y="651.635695" xlink:href="#a"/>
<use x="263.644308" y="660.252675" xlink:href="#a"/>
<use x="281.77576" y="660.252675" xlink:href="#a"/>
<use x="303.131384" y="660.252675" xlink:href="#a"/>
<use x="313.83176" y="660.252675" xlink:href="#a"/>
<use x="317.900629" y="686.103617" xlink:href="#a"/>
<use x="319.282787" y="660.252675" xlink:href="#a"/>
<use x="320.253591" y="660.252675" xlink:href="#a"/>
<use x="323.049204" y="660.252675" xlink:href="#a"/>
<use x="325.804146" y="660.252675" xlink:href="#a"/>
<use x="328.81163" y="660.252675" xlink:href="#a"/>
<use x="331.416706" y="660.252675" xlink:href="#a"/>
<use x="334.573729" y="660.252675" xlink:href="#a"/>
<use x="337.45114" y="660.252675" xlink:href="#a"/>
<use x="339.621726" y="660.252675" xlink:href="#a"/>
<use x="342.85704" y="660.252675" xlink:href="#a"/>
<use x="345.71859" y="660.252675" xlink:href="#a"/>
<use x="348.545173" y="660.252675" xlink:href="#a"/>
<use x="351.651726" y="660.252675" xlink:href="#a"/>
<use x="354.48211" y="660.252675" xlink:href="#a"/>
<use x="357.022494" y="660.252675" xlink:href="#a"/>
<use x="360.023882" y="660.252675" xlink:href="#a"/>
<use x="362.147965" y="660.252675" xlink:href="#a"/>
<use x="365.474221" y="660.252675" xlink:href="#a"/>
<use x="368.237554" y="660.252675" xlink:href="#a"/>
<use x="371.434295" y="660.252675" xlink:href="#a"/>
<use x="374.108226" y="660.252675" xlink:href="#a"/>
<use x="375.552847" y="660.252675" xlink:href="#a"/>
<use x="376.997566" y="660.252675" xlink:href="#a"/>
<use x="379.09104" y="660.252675" xlink:href="#a"/>
<use x="380.364624" y="660.252675" xlink:href="#a"/>
<use x="382.657318" y="651.635695" xlink:href="#a"/>
<use x="385.338196" y="660.252675" xlink:href="#a"/>
<use x="388.458219" y="651.635695" xlink:href="#a"/>
<use x="390.959375" y="660.252675" xlink:href="#a"/>
<use x="394.069042" y="660.252675" xlink:href="#a"/>
<use x="396.97467" y="660.252675" xlink:href="#a"/>
<use x="399.661152" y="660.252675" xlink:href="#a"/>
<use x="402.607352" y="651.635695" xlink:href="#a"/>
<use x="402.820895" y="660.252675" xlink:href="#a"/>
<use x="405.392183" y="660.252675" xlink:href="#a"/>
<use x="408.277788" y="668.869656" xlink:href="#a"/>
<use x="410.771669" y="660.252675" xlink:href="#a"/>
<use x="413.790557" y="651.635695" xlink:href="#a"/>
<use x="416.204311" y="582.69985" xlink:href="#a"/>
<use x="416.821407" y="582.69985" xlink:href="#a"/>
<use x="419.123769" y="582.69985" xlink:href="#a"/>
<use x="419.587362" y="582.69985" xlink:href="#a"/>
<use x="422.13997" y="582.69985" xlink:href="#a"/>
<use x="425.093019" y="582.69985" xlink:href="#a"/>
<use x="427.789202" y="582.69985" xlink:href="#a"/>
<use x="430.041685" y="582.69985" xlink:href="#a"/>
<use x="430.64446" y="582.69985" xlink:href="#a"/>
<use x="432.70657" y="582.69985" xlink:href="#a"/>
<use x="433.685961" y="582.69985" xlink:href="#a"/>
<use x="435.751086" y="582.69985" xlink:href="#a"/>
<use x="438.499049" y="582.69985" xlink:href="#a"/>
<use x="439.055484" y="582.69985" xlink:href="#a"/>
<use x="441.603832" y="582.69985" xlink:href="#a"/>
<use x="444.533253" y="582.69985" xlink:href="#a"/>
<use x="447.838535" y="582.69985" xlink:href="#a"/>
<use x="450.767596" y="582.69985" xlink:href="#a"/>
<use x="452.912521" y="582.69985" xlink:href="#a"/>
<use x="453.609089" y="582.69985" xlink:href="#a"/>
<use x="456.115391" y="582.69985" xlink:href="#a"/>
<use x="456.928136" y="582.69985" xlink:href="#a"/>
<use x="458.53452" y="574.08287" xlink:href="#a"/>
<use x="458.946955" y="574.08287" xlink:href="#a"/>
<use x="461.343798" y="574.08287" xlink:href="#a"/>
<use x="462.756926" y="574.08287" xlink:href="#a"/>
<use x="464.269417" y="574.08287" xlink:href="#a"/>
<use x="467.071027" y="574.08287" xlink:href="#a"/>
<use x="470.568223" y="582.69985" xlink:href="#a"/>
<use x="472.138131" y="574.08287" xlink:href="#a"/>
<use x="472.628367" y="582.69985" xlink:href="#a"/>
<use x="473.298357" y="574.08287" xlink:href="#a"/>
<use x="474.721906" y="582.69985" xlink:href="#a"/>
<use x="475.954197" y="582.69985" xlink:href="#a"/>
<use x="478.142185" y="582.69985" xlink:href="#a"/>
<use x="478.369295" y="582.69985" xlink:href="#a"/>
<use x="480.863668" y="582.69985" xlink:href="#a"/>
<use x="484.621695" y="582.69985" xlink:href="#a"/>
<use x="487.182988" y="582.69985" xlink:href="#a"/>
<use x="490.284953" y="582.69985" xlink:href="#a"/>
<use x="491.105137" y="582.69985" xlink:href="#a"/>
<use x="492.206767" y="582.69985" xlink:href="#a"/>
<use x="495.990324" y="574.08287" xlink:href="#a"/>
<use x="498.354362" y="574.08287" xlink:href="#a"/>
<use x="503.940246" y="574.08287" xlink:href="#a"/>
<use x="507.039229" y="582.69985" xlink:href="#a"/>
<use x="509.53973" y="574.08287" xlink:href="#a"/>
<use x="512.278058" y="574.08287" xlink:href="#a"/>
<use x="515.604183" y="574.08287" xlink:href="#a"/>
<use x="518.465962" y="574.08287" xlink:href="#a"/>
<use x="521.172698" y="574.08287" xlink:href="#a"/>
<use x="524.125386" y="574.08287" xlink:href="#a"/>
<use x="526.809149" y="582.69985" xlink:href="#a"/>
<use x="529.700587" y="574.08287" xlink:href="#a"/>
<use x="532.628303" y="574.08287" xlink:href="#a"/>
<use x="535.088986" y="582.69985" xlink:href="#a"/>
<use x="538.246664" y="574.08287" xlink:href="#a"/>
<use x="541.294424" y="582.69985" xlink:href="#a"/>
<use x="543.928799" y="574.08287" xlink:href="#a"/>
<use x="546.957388" y="574.08287" xlink:href="#a"/>
<use x="549.560498" y="574.08287" xlink:href="#a"/>
<use x="554.993402" y="574.08287" xlink:href="#a"/>
<use x="557.371008" y="574.08287" xlink:href="#a"/>
<use x="558.449436" y="574.08287" xlink:href="#a"/>
<use x="560.621398" y="574.08287" xlink:href="#a"/>
<use x="563.889156" y="574.08287" xlink:href="#a"/>
<use x="565.990233" y="582.69985" xlink:href="#a"/>
<use x="569.566966" y="582.69985" xlink:href="#a"/>
<use x="569.865551" y="574.08287" xlink:href="#a"/>
<use x="572.156213" y="582.69985" xlink:href="#a"/>
<use x="574.296026" y="574.08287" xlink:href="#a"/>
<use x="574.334271" y="574.08287" xlink:href="#a"/>
<use x="574.433799" y="574.08287" xlink:href="#a"/>
<use x="575.308385" y="574.08287" xlink:href="#a"/>
<use x="577.994802" y="574.08287" xlink:href="#a"/>
<use x="580.608464" y="574.08287" xlink:href="#a"/>
<use x="580.727623" y="574.08287" xlink:href="#a"/>
<use x="583.8192" y="574.08287" xlink:href="#a"/>
<use x="586.627463" y="574.08287" xlink:href="#a"/>
<use x="589.12993" y="574.08287" xlink:href="#a"/>
<use x="589.40977" y="574.08287" xlink:href="#a"/>
<use x="589.52398" y="574.08287" xlink:href="#a"/>
<use x="589.633701" y="574.08287" xlink:href="#a"/>
<use x="591.109095" y="574.08287" xlink:href="#a"/>
<use x="592.339387" y="574.08287" xlink:href="#a"/>
<use x="594.17878" y="574.08287" xlink:href="#a"/>
<use x="595.079222" y="574.08287" xlink:href="#a"/>
<use x="597.79284" y="410.360239" xlink:href="#a"/>
<use x="600.129383" y="574.08287" xlink:href="#a"/>
<use x="603.040156" y="574.08287" xlink:href="#a"/>
<use x="606.485703" y="574.08287" xlink:href="#a"/>
<use x="607.838497" y="574.08287" xlink:href="#a"/>
<use x="609.313465" y="574.08287" xlink:href="#a"/>
<use x="612.128577" y="574.08287" xlink:href="#a"/>
<use x="614.768064" y="574.08287" xlink:href="#a"/>
<use x="617.042504" y="574.08287" xlink:href="#a"/>
<use x="619.772114" y="574.08287" xlink:href="#a"/>
<use x="622.539281" y="574.08287" xlink:href="#a"/>
<use x="623.370804" y="574.08287" xlink:href="#a"/>
<use x="625.420265" y="574.08287" xlink:href="#a"/>
<use x="628.993425" y="574.08287" xlink:href="#a"/>
<use x="631.429923" y="574.08287" xlink:href="#a"/>
<use x="634.730551" y="574.08287" xlink:href="#a"/>
<use x="637.449609" y="574.08287" xlink:href="#a"/>
<use x="640.390369" y="565.465889" xlink:href="#a"/>
<use x="643.206136" y="574.08287" xlink:href="#a"/>
<use x="645.839299" y="565.465889" xlink:href="#a"/>
<use x="648.931432" y="574.08287" xlink:href="#a"/>
<use x="651.664811" y="574.08287" xlink:href="#a"/>
<use x="653.828121" y="574.08287" xlink:href="#a"/>
<use x="653.988606" y="574.08287" xlink:href="#a"/>
<use x="657.116428" y="574.08287" xlink:href="#a"/>
<use x="659.671953" y="574.08287" xlink:href="#a"/>
<use x="663.104686" y="574.08287" xlink:href="#a"/>
<use x="665.462236" y="574.08287" xlink:href="#a"/>
<use x="668.724161" y="574.08287" xlink:href="#a"/>
<use x="671.318816" y="574.08287" xlink:href="#a"/>
<use x="674.414554" y="574.08287" xlink:href="#a"/>
<use x="676.529133" y="574.08287" xlink:href="#a"/>
<use x="679.361319" y="574.08287" xlink:href="#a"/>
<use x="682.95162" y="574.08287" xlink:href="#a"/>
<use x="685.457463" y="574.08287" xlink:href="#a"/>
</g>
</g>
<path d="m40.6 700v-313" fill="none" stroke="#000" stroke-linecap="square" stroke-width=".8"/>
<path d="m716 700v-313" fill="none" stroke="#000" stroke-linecap="square" stroke-width=".8"/>
<path d="m40.6 700h676" fill="none" stroke="#000" stroke-linecap="square" stroke-width=".8"/>
<path d="m40.6 388h676" fill="none" stroke="#000" stroke-linecap="square" stroke-width=".8"/>
<path d="m71.8 651-0.349 7.35" fill="none" stroke="#888" stroke-linecap="round"/>
<g transform="translate(74.4 647) rotate(-90) scale(.08 -.08)" fill="#888">
<defs>
<path id="ac" transform="scale(.0156)" d="m2194 1759q-697 0-966-159t-269-544q0-306 202-486 202-179 548-179 479 0 768 339t289 901v128h-572zm1147 238v-2e3h-575v531q-197-318-491-470t-719-152q-537 0-855 302-317 302-317 808 0 590 395 890 396 300 1180 300h807v57q0 397-261 614t-733 217q-300 0-585-72-284-72-546-216v532q315 122 612 182 297 61 578 61 760 0 1135-394 375-393 375-1193z"/>
</defs>
<use xlink:href="#ac"/>
<use transform="translate(61.3)" xlink:href="#b"/>
</g>
<g clip-path="url(#h)">
<g transform="translate(58.2 652) rotate(-90) scale(.1 -.1)">
<use xlink:href="#ab"/>
<use transform="translate(97.4)" xlink:href="#u"/>
<use transform="translate(159)" xlink:href="#n"/>
<use transform="translate(197)" xlink:href="#s"/>
<use transform="translate(259)" xlink:href="#DejaVuSans-20"/>
<use transform="translate(291)" xlink:href="#al"/>
</g>
</g>
<g clip-path="url(#h)">
<g transform="translate(58.2 707) rotate(-90) scale(.1 -.1)">
<use xlink:href="#am"/>
<use transform="translate(143)" xlink:href="#DejaVuSans-20"/>
<use transform="translate(175)" xlink:href="#r"/>
<use transform="translate(203)" xlink:href="#s"/>
<use transform="translate(264)" xlink:href="#p"/>
<use transform="translate(317)" xlink:href="#p"/>
</g>
</g>
<g transform="translate(296 382) scale(.12 -.12)">
<use xlink:href="#aj"/>
<use transform="translate(60.3)" xlink:href="#z"/>
<use transform="translate(119)" xlink:href="#aa"/>
<use transform="translate(159)" xlink:href="#ad"/>
<use transform="translate(222)" xlink:href="#u"/>
<use transform="translate(283)" xlink:href="#q"/>
<use transform="translate(347)" xlink:href="#DejaVuSans-20"/>
<use transform="translate(378)" xlink:href="#o"/>
<use transform="translate(442)" xlink:href="#f"/>
<use transform="translate(474)" xlink:href="#d"/>
<use transform="translate(537)" xlink:href="#m"/>
<use transform="translate(601)" xlink:href="#f"/>
<use transform="translate(633)" xlink:href="#v"/>
<use transform="translate(692)" xlink:href="#DejaVuSans-20"/>
<use transform="translate(724)" xlink:href="#w"/>
<use transform="translate(783)" xlink:href="#p"/>
<use transform="translate(835)" xlink:href="#f"/>
<use transform="translate(867)" xlink:href="#DejaVuSans-20"/>
<use transform="translate(899)" xlink:href="#o"/>
<use transform="translate(962)" xlink:href="#f"/>
<use transform="translate(994)" xlink:href="#d"/>
<use transform="translate(1058)" xlink:href="#o"/>
<use transform="translate(1121)" xlink:href="#f"/>
<use transform="translate(1153)" xlink:href="#b"/>
<use transform="translate(1217)" xlink:href="#n"/>
<use transform="translate(1256)" xlink:href="#ae"/>
<use transform="translate(1311)" xlink:href="#c"/>
</g>
<path d="m47.6 425h82.6q2 0 2-2v-28.4q0-2-2-2h-82.6q-2 0-2 2v28.4q0 2 2 2z" fill="#fff" opacity=".8" stroke="#ccc"/>
<path d="m49.6 401h10 10" fill="none" stroke="#1f77b4" stroke-linecap="square" stroke-opacity=".9" stroke-width="1.5"/>
<use x="59.645553" y="400.623678" fill="#1f77b4" fill-opacity=".9" stroke="#1f77b4" stroke-opacity=".9" xlink:href="#a"/>
<g transform="translate(77.6 404) scale(.1 -.1)">
<use xlink:href="#r"/>
<use transform="translate(27.8)" xlink:href="#x"/>
<use transform="translate(55.6)" xlink:href="#q"/>
<use transform="translate(119)" xlink:href="#t"/>
<use transform="translate(182)" xlink:href="#v"/>
</g>
<path d="m49.6 415h10 10" fill="none" stroke="#1f77b4" stroke-dasharray="1.5,2.475" stroke-opacity=".9" stroke-width="1.5"/>
<use x="59.645553" y="415.301803" fill="#1f77b4" fill-opacity=".9" stroke="#1f77b4" stroke-opacity=".9" xlink:href="#a"/>
<g transform="translate(77.6 419) scale(.1 -.1)">
<use xlink:href="#r"/>
<use transform="translate(27.8)" xlink:href="#x"/>
<use transform="translate(55.6)" xlink:href="#q"/>
<use transform="translate(119)" xlink:href="#t"/>
<use transform="translate(182)" xlink:href="#v"/>
<use transform="translate(242)" xlink:href="#e"/>
<use transform="translate(275)" xlink:href="#w"/>
<use transform="translate(334)" xlink:href="#t"/>
<use transform="translate(398)" xlink:href="#r"/>
<use transform="translate(425)" xlink:href="#aa"/>
<use transform="translate(465)" xlink:href="#n"/>
</g>
<g transform="translate(239 12.1) scale(.12 -.12)">
<defs>
<path id="ao" transform="scale(.0156)" d="m628 4666h941l1190-3175 1197 3175h941v-4666h-616v4097l-1203-3200h-634l-1203 3200v-4097h-613v4666z"/>
<path id="ah" transform="scale(.0156)" d="m2906 1791q0 625-258 968-257 344-723 344-462 0-720-344-258-343-258-968 0-622 258-966t720-344q466 0 723 344 258 344 258 966zm575-1357q0-893-397-1329-396-436-1215-436-303 0-572 45t-522 139v559q253-137 500-202 247-66 503-66 566 0 847 295t281 892v285q-178-310-456-463t-666-153q-643 0-1037 490-394 491-394 1301 0 812 394 1302 394 491 1037 491 388 0 666-153t456-462v531h575v-3066z"/>
<path id="an" transform="scale(.0156)" d="m603 3500h575v-3563q0-668-255-968-254-300-820-300h-219v487h154q328 0 446 152 119 151 119 629v3563zm0 1363h575v-729h-575v729z"/>
</defs>
<use xlink:href="#ao"/>
<use transform="translate(86.3)" xlink:href="#s"/>
<use transform="translate(148)" xlink:href="#ab"/>
<use transform="translate(245)" xlink:href="#u"/>
<use transform="translate(306)" xlink:href="#n"/>
<use transform="translate(348)" xlink:href="#z"/>
<use transform="translate(407)" xlink:href="#DejaVuSans-20"/>
<use transform="translate(438)" xlink:href="#t"/>
<use transform="translate(502)" xlink:href="#p"/>
<use transform="translate(554)" xlink:href="#ac"/>
<use transform="translate(615)" xlink:href="#ah"/>
<use transform="translate(679)" xlink:href="#s"/>
<use transform="translate(740)" xlink:href="#DejaVuSans-20"/>
<use transform="translate(772)" xlink:href="#ae"/>
<use transform="translate(827)" xlink:href="#ad"/>
<use transform="translate(890)" xlink:href="#ac"/>
<use transform="translate(952)" xlink:href="#q"/>
<use transform="translate(1015)" xlink:href="#ah"/>
<use transform="translate(1079)" xlink:href="#s"/>
<use transform="translate(1140)" xlink:href="#DejaVuSans-20"/>
<use transform="translate(1172)" xlink:href="#ai"/>
<use transform="translate(1235)" xlink:href="#z"/>
<use transform="translate(1294)" xlink:href="#DejaVuSans-20"/>
<use transform="translate(1326)" xlink:href="#ab"/>
<use transform="translate(1424)" xlink:href="#ac"/>
<use transform="translate(1485)" xlink:href="#an"/>
<use transform="translate(1513)" xlink:href="#u"/>
<use transform="translate(1574)" xlink:href="#n"/>
<use transform="translate(1615)" xlink:href="#DejaVuSans-20"/>
<use transform="translate(1647)" xlink:href="#w"/>
<use transform="translate(1706)" xlink:href="#s"/>
<use transform="translate(1768)" xlink:href="#n"/>
<use transform="translate(1809)" xlink:href="#p"/>
<use transform="translate(1861)" xlink:href="#x"/>
<use transform="translate(1889)" xlink:href="#u"/>
<use transform="translate(1950)" xlink:href="#q"/>
</g>
<defs>
<clipPath id="g">
<rect x="40.6" y="35.7" width="676" height="313"/>
</clipPath>
<clipPath id="h">
<rect x="40.6" y="388" width="676" height="313"/>
</clipPath>
</defs>
</svg>
